G04 #@! TF.GenerationSoftware,KiCad,Pcbnew,(5.1.4-7-g3f91db25d)*
G04 #@! TF.CreationDate,2019-09-28T14:27:35-04:00*
G04 #@! TF.ProjectId,16seg,31367365-672e-46b6-9963-61645f706362,rev?*
G04 #@! TF.SameCoordinates,Original*
G04 #@! TF.FileFunction,Legend,Bot*
G04 #@! TF.FilePolarity,Positive*
%FSLAX46Y46*%
G04 Gerber Fmt 4.6, Leading zero omitted, Abs format (unit mm)*
G04 Created by KiCad (PCBNEW (5.1.4-7-g3f91db25d)) date 2019-09-28 14:27:35*
%MOMM*%
%LPD*%
G04 APERTURE LIST*
%ADD10C,0.150000*%
%ADD11C,1.101600*%
%ADD12C,1.625600*%
%ADD13C,0.100000*%
%ADD14O,1.801600X1.801600*%
%ADD15C,1.801600*%
%ADD16C,0.609600*%
%ADD17C,1.371600*%
G04 APERTURE END LIST*
D10*
X66200000Y-115450000D02*
X66200000Y-87750000D01*
X86200000Y-115450000D02*
X66200000Y-115450000D01*
X86200000Y-87750000D02*
X86200000Y-115450000D01*
X66200000Y-87750000D02*
X86200000Y-87750000D01*
X208440000Y-115450000D02*
X208440000Y-87750000D01*
X228440000Y-115450000D02*
X208440000Y-115450000D01*
X228440000Y-87750000D02*
X228440000Y-115450000D01*
X208440000Y-87750000D02*
X228440000Y-87750000D01*
X188120000Y-115450000D02*
X188120000Y-87750000D01*
X208120000Y-115450000D02*
X188120000Y-115450000D01*
X208120000Y-87750000D02*
X208120000Y-115450000D01*
X188120000Y-87750000D02*
X208120000Y-87750000D01*
X167800000Y-115450000D02*
X167800000Y-87750000D01*
X187800000Y-115450000D02*
X167800000Y-115450000D01*
X187800000Y-87750000D02*
X187800000Y-115450000D01*
X167800000Y-87750000D02*
X187800000Y-87750000D01*
X147480000Y-115450000D02*
X147480000Y-87750000D01*
X167480000Y-115450000D02*
X147480000Y-115450000D01*
X167480000Y-87750000D02*
X167480000Y-115450000D01*
X147480000Y-87750000D02*
X167480000Y-87750000D01*
X127160000Y-115450000D02*
X127160000Y-87750000D01*
X147160000Y-115450000D02*
X127160000Y-115450000D01*
X147160000Y-87750000D02*
X147160000Y-115450000D01*
X127160000Y-87750000D02*
X147160000Y-87750000D01*
X106840000Y-115450000D02*
X106840000Y-87750000D01*
X126840000Y-115450000D02*
X106840000Y-115450000D01*
X126840000Y-87750000D02*
X126840000Y-115450000D01*
X106840000Y-87750000D02*
X126840000Y-87750000D01*
X86520000Y-115450000D02*
X86520000Y-87750000D01*
X106520000Y-115450000D02*
X86520000Y-115450000D01*
X106520000Y-87750000D02*
X106520000Y-115450000D01*
X86520000Y-87750000D02*
X106520000Y-87750000D01*
X77414285Y-87828380D02*
X77414285Y-86828380D01*
X77176190Y-86828380D01*
X77033333Y-86876000D01*
X76938095Y-86971238D01*
X76890476Y-87066476D01*
X76842857Y-87256952D01*
X76842857Y-87399809D01*
X76890476Y-87590285D01*
X76938095Y-87685523D01*
X77033333Y-87780761D01*
X77176190Y-87828380D01*
X77414285Y-87828380D01*
X76461904Y-87780761D02*
X76319047Y-87828380D01*
X76080952Y-87828380D01*
X75985714Y-87780761D01*
X75938095Y-87733142D01*
X75890476Y-87637904D01*
X75890476Y-87542666D01*
X75938095Y-87447428D01*
X75985714Y-87399809D01*
X76080952Y-87352190D01*
X76271428Y-87304571D01*
X76366666Y-87256952D01*
X76414285Y-87209333D01*
X76461904Y-87114095D01*
X76461904Y-87018857D01*
X76414285Y-86923619D01*
X76366666Y-86876000D01*
X76271428Y-86828380D01*
X76033333Y-86828380D01*
X75890476Y-86876000D01*
X74938095Y-87828380D02*
X75509523Y-87828380D01*
X75223809Y-87828380D02*
X75223809Y-86828380D01*
X75319047Y-86971238D01*
X75414285Y-87066476D01*
X75509523Y-87114095D01*
X219654285Y-87828380D02*
X219654285Y-86828380D01*
X219416190Y-86828380D01*
X219273333Y-86876000D01*
X219178095Y-86971238D01*
X219130476Y-87066476D01*
X219082857Y-87256952D01*
X219082857Y-87399809D01*
X219130476Y-87590285D01*
X219178095Y-87685523D01*
X219273333Y-87780761D01*
X219416190Y-87828380D01*
X219654285Y-87828380D01*
X218701904Y-87780761D02*
X218559047Y-87828380D01*
X218320952Y-87828380D01*
X218225714Y-87780761D01*
X218178095Y-87733142D01*
X218130476Y-87637904D01*
X218130476Y-87542666D01*
X218178095Y-87447428D01*
X218225714Y-87399809D01*
X218320952Y-87352190D01*
X218511428Y-87304571D01*
X218606666Y-87256952D01*
X218654285Y-87209333D01*
X218701904Y-87114095D01*
X218701904Y-87018857D01*
X218654285Y-86923619D01*
X218606666Y-86876000D01*
X218511428Y-86828380D01*
X218273333Y-86828380D01*
X218130476Y-86876000D01*
X217559047Y-87256952D02*
X217654285Y-87209333D01*
X217701904Y-87161714D01*
X217749523Y-87066476D01*
X217749523Y-87018857D01*
X217701904Y-86923619D01*
X217654285Y-86876000D01*
X217559047Y-86828380D01*
X217368571Y-86828380D01*
X217273333Y-86876000D01*
X217225714Y-86923619D01*
X217178095Y-87018857D01*
X217178095Y-87066476D01*
X217225714Y-87161714D01*
X217273333Y-87209333D01*
X217368571Y-87256952D01*
X217559047Y-87256952D01*
X217654285Y-87304571D01*
X217701904Y-87352190D01*
X217749523Y-87447428D01*
X217749523Y-87637904D01*
X217701904Y-87733142D01*
X217654285Y-87780761D01*
X217559047Y-87828380D01*
X217368571Y-87828380D01*
X217273333Y-87780761D01*
X217225714Y-87733142D01*
X217178095Y-87637904D01*
X217178095Y-87447428D01*
X217225714Y-87352190D01*
X217273333Y-87304571D01*
X217368571Y-87256952D01*
X199334285Y-87828380D02*
X199334285Y-86828380D01*
X199096190Y-86828380D01*
X198953333Y-86876000D01*
X198858095Y-86971238D01*
X198810476Y-87066476D01*
X198762857Y-87256952D01*
X198762857Y-87399809D01*
X198810476Y-87590285D01*
X198858095Y-87685523D01*
X198953333Y-87780761D01*
X199096190Y-87828380D01*
X199334285Y-87828380D01*
X198381904Y-87780761D02*
X198239047Y-87828380D01*
X198000952Y-87828380D01*
X197905714Y-87780761D01*
X197858095Y-87733142D01*
X197810476Y-87637904D01*
X197810476Y-87542666D01*
X197858095Y-87447428D01*
X197905714Y-87399809D01*
X198000952Y-87352190D01*
X198191428Y-87304571D01*
X198286666Y-87256952D01*
X198334285Y-87209333D01*
X198381904Y-87114095D01*
X198381904Y-87018857D01*
X198334285Y-86923619D01*
X198286666Y-86876000D01*
X198191428Y-86828380D01*
X197953333Y-86828380D01*
X197810476Y-86876000D01*
X197477142Y-86828380D02*
X196810476Y-86828380D01*
X197239047Y-87828380D01*
X179014285Y-87828380D02*
X179014285Y-86828380D01*
X178776190Y-86828380D01*
X178633333Y-86876000D01*
X178538095Y-86971238D01*
X178490476Y-87066476D01*
X178442857Y-87256952D01*
X178442857Y-87399809D01*
X178490476Y-87590285D01*
X178538095Y-87685523D01*
X178633333Y-87780761D01*
X178776190Y-87828380D01*
X179014285Y-87828380D01*
X178061904Y-87780761D02*
X177919047Y-87828380D01*
X177680952Y-87828380D01*
X177585714Y-87780761D01*
X177538095Y-87733142D01*
X177490476Y-87637904D01*
X177490476Y-87542666D01*
X177538095Y-87447428D01*
X177585714Y-87399809D01*
X177680952Y-87352190D01*
X177871428Y-87304571D01*
X177966666Y-87256952D01*
X178014285Y-87209333D01*
X178061904Y-87114095D01*
X178061904Y-87018857D01*
X178014285Y-86923619D01*
X177966666Y-86876000D01*
X177871428Y-86828380D01*
X177633333Y-86828380D01*
X177490476Y-86876000D01*
X176633333Y-86828380D02*
X176823809Y-86828380D01*
X176919047Y-86876000D01*
X176966666Y-86923619D01*
X177061904Y-87066476D01*
X177109523Y-87256952D01*
X177109523Y-87637904D01*
X177061904Y-87733142D01*
X177014285Y-87780761D01*
X176919047Y-87828380D01*
X176728571Y-87828380D01*
X176633333Y-87780761D01*
X176585714Y-87733142D01*
X176538095Y-87637904D01*
X176538095Y-87399809D01*
X176585714Y-87304571D01*
X176633333Y-87256952D01*
X176728571Y-87209333D01*
X176919047Y-87209333D01*
X177014285Y-87256952D01*
X177061904Y-87304571D01*
X177109523Y-87399809D01*
X158694285Y-87828380D02*
X158694285Y-86828380D01*
X158456190Y-86828380D01*
X158313333Y-86876000D01*
X158218095Y-86971238D01*
X158170476Y-87066476D01*
X158122857Y-87256952D01*
X158122857Y-87399809D01*
X158170476Y-87590285D01*
X158218095Y-87685523D01*
X158313333Y-87780761D01*
X158456190Y-87828380D01*
X158694285Y-87828380D01*
X157741904Y-87780761D02*
X157599047Y-87828380D01*
X157360952Y-87828380D01*
X157265714Y-87780761D01*
X157218095Y-87733142D01*
X157170476Y-87637904D01*
X157170476Y-87542666D01*
X157218095Y-87447428D01*
X157265714Y-87399809D01*
X157360952Y-87352190D01*
X157551428Y-87304571D01*
X157646666Y-87256952D01*
X157694285Y-87209333D01*
X157741904Y-87114095D01*
X157741904Y-87018857D01*
X157694285Y-86923619D01*
X157646666Y-86876000D01*
X157551428Y-86828380D01*
X157313333Y-86828380D01*
X157170476Y-86876000D01*
X156265714Y-86828380D02*
X156741904Y-86828380D01*
X156789523Y-87304571D01*
X156741904Y-87256952D01*
X156646666Y-87209333D01*
X156408571Y-87209333D01*
X156313333Y-87256952D01*
X156265714Y-87304571D01*
X156218095Y-87399809D01*
X156218095Y-87637904D01*
X156265714Y-87733142D01*
X156313333Y-87780761D01*
X156408571Y-87828380D01*
X156646666Y-87828380D01*
X156741904Y-87780761D01*
X156789523Y-87733142D01*
X138374285Y-87828380D02*
X138374285Y-86828380D01*
X138136190Y-86828380D01*
X137993333Y-86876000D01*
X137898095Y-86971238D01*
X137850476Y-87066476D01*
X137802857Y-87256952D01*
X137802857Y-87399809D01*
X137850476Y-87590285D01*
X137898095Y-87685523D01*
X137993333Y-87780761D01*
X138136190Y-87828380D01*
X138374285Y-87828380D01*
X137421904Y-87780761D02*
X137279047Y-87828380D01*
X137040952Y-87828380D01*
X136945714Y-87780761D01*
X136898095Y-87733142D01*
X136850476Y-87637904D01*
X136850476Y-87542666D01*
X136898095Y-87447428D01*
X136945714Y-87399809D01*
X137040952Y-87352190D01*
X137231428Y-87304571D01*
X137326666Y-87256952D01*
X137374285Y-87209333D01*
X137421904Y-87114095D01*
X137421904Y-87018857D01*
X137374285Y-86923619D01*
X137326666Y-86876000D01*
X137231428Y-86828380D01*
X136993333Y-86828380D01*
X136850476Y-86876000D01*
X135993333Y-87161714D02*
X135993333Y-87828380D01*
X136231428Y-86780761D02*
X136469523Y-87495047D01*
X135850476Y-87495047D01*
X118054285Y-87828380D02*
X118054285Y-86828380D01*
X117816190Y-86828380D01*
X117673333Y-86876000D01*
X117578095Y-86971238D01*
X117530476Y-87066476D01*
X117482857Y-87256952D01*
X117482857Y-87399809D01*
X117530476Y-87590285D01*
X117578095Y-87685523D01*
X117673333Y-87780761D01*
X117816190Y-87828380D01*
X118054285Y-87828380D01*
X117101904Y-87780761D02*
X116959047Y-87828380D01*
X116720952Y-87828380D01*
X116625714Y-87780761D01*
X116578095Y-87733142D01*
X116530476Y-87637904D01*
X116530476Y-87542666D01*
X116578095Y-87447428D01*
X116625714Y-87399809D01*
X116720952Y-87352190D01*
X116911428Y-87304571D01*
X117006666Y-87256952D01*
X117054285Y-87209333D01*
X117101904Y-87114095D01*
X117101904Y-87018857D01*
X117054285Y-86923619D01*
X117006666Y-86876000D01*
X116911428Y-86828380D01*
X116673333Y-86828380D01*
X116530476Y-86876000D01*
X116197142Y-86828380D02*
X115578095Y-86828380D01*
X115911428Y-87209333D01*
X115768571Y-87209333D01*
X115673333Y-87256952D01*
X115625714Y-87304571D01*
X115578095Y-87399809D01*
X115578095Y-87637904D01*
X115625714Y-87733142D01*
X115673333Y-87780761D01*
X115768571Y-87828380D01*
X116054285Y-87828380D01*
X116149523Y-87780761D01*
X116197142Y-87733142D01*
X97734285Y-87828380D02*
X97734285Y-86828380D01*
X97496190Y-86828380D01*
X97353333Y-86876000D01*
X97258095Y-86971238D01*
X97210476Y-87066476D01*
X97162857Y-87256952D01*
X97162857Y-87399809D01*
X97210476Y-87590285D01*
X97258095Y-87685523D01*
X97353333Y-87780761D01*
X97496190Y-87828380D01*
X97734285Y-87828380D01*
X96781904Y-87780761D02*
X96639047Y-87828380D01*
X96400952Y-87828380D01*
X96305714Y-87780761D01*
X96258095Y-87733142D01*
X96210476Y-87637904D01*
X96210476Y-87542666D01*
X96258095Y-87447428D01*
X96305714Y-87399809D01*
X96400952Y-87352190D01*
X96591428Y-87304571D01*
X96686666Y-87256952D01*
X96734285Y-87209333D01*
X96781904Y-87114095D01*
X96781904Y-87018857D01*
X96734285Y-86923619D01*
X96686666Y-86876000D01*
X96591428Y-86828380D01*
X96353333Y-86828380D01*
X96210476Y-86876000D01*
X95829523Y-86923619D02*
X95781904Y-86876000D01*
X95686666Y-86828380D01*
X95448571Y-86828380D01*
X95353333Y-86876000D01*
X95305714Y-86923619D01*
X95258095Y-87018857D01*
X95258095Y-87114095D01*
X95305714Y-87256952D01*
X95877142Y-87828380D01*
X95258095Y-87828380D01*
%LPC*%
D11*
X67564000Y-110490000D03*
X67564000Y-107950000D03*
X67564000Y-105410000D03*
X67564000Y-102870000D03*
X67564000Y-100330000D03*
X67564000Y-97790000D03*
X67564000Y-95250000D03*
X227076000Y-95250000D03*
X227076000Y-97790000D03*
X227076000Y-100330000D03*
X227076000Y-102870000D03*
X227076000Y-105410000D03*
X227076000Y-107950000D03*
X227076000Y-110490000D03*
D12*
X68580000Y-91440000D03*
X68580000Y-93980000D03*
X68580000Y-96520000D03*
X68580000Y-99060000D03*
X68580000Y-101600000D03*
X68580000Y-104140000D03*
X68580000Y-106680000D03*
X68580000Y-109220000D03*
X68580000Y-111760000D03*
X83820000Y-111760000D03*
X83820000Y-109220000D03*
X83820000Y-106680000D03*
X83820000Y-104140000D03*
X83820000Y-101600000D03*
X83820000Y-99060000D03*
X83820000Y-96520000D03*
X83820000Y-93980000D03*
D13*
G36*
X84266234Y-90629157D02*
G01*
X84305685Y-90635009D01*
X84344372Y-90644699D01*
X84381923Y-90658135D01*
X84417976Y-90675187D01*
X84452184Y-90695691D01*
X84484217Y-90719449D01*
X84513768Y-90746232D01*
X84540551Y-90775783D01*
X84564309Y-90807816D01*
X84584813Y-90842024D01*
X84601865Y-90878077D01*
X84615301Y-90915628D01*
X84624991Y-90954315D01*
X84630843Y-90993766D01*
X84632800Y-91033600D01*
X84632800Y-91846400D01*
X84630843Y-91886234D01*
X84624991Y-91925685D01*
X84615301Y-91964372D01*
X84601865Y-92001923D01*
X84584813Y-92037976D01*
X84564309Y-92072184D01*
X84540551Y-92104217D01*
X84513768Y-92133768D01*
X84484217Y-92160551D01*
X84452184Y-92184309D01*
X84417976Y-92204813D01*
X84381923Y-92221865D01*
X84344372Y-92235301D01*
X84305685Y-92244991D01*
X84266234Y-92250843D01*
X84226400Y-92252800D01*
X83413600Y-92252800D01*
X83373766Y-92250843D01*
X83334315Y-92244991D01*
X83295628Y-92235301D01*
X83258077Y-92221865D01*
X83222024Y-92204813D01*
X83187816Y-92184309D01*
X83155783Y-92160551D01*
X83126232Y-92133768D01*
X83099449Y-92104217D01*
X83075691Y-92072184D01*
X83055187Y-92037976D01*
X83038135Y-92001923D01*
X83024699Y-91964372D01*
X83015009Y-91925685D01*
X83009157Y-91886234D01*
X83007200Y-91846400D01*
X83007200Y-91033600D01*
X83009157Y-90993766D01*
X83015009Y-90954315D01*
X83024699Y-90915628D01*
X83038135Y-90878077D01*
X83055187Y-90842024D01*
X83075691Y-90807816D01*
X83099449Y-90775783D01*
X83126232Y-90746232D01*
X83155783Y-90719449D01*
X83187816Y-90695691D01*
X83222024Y-90675187D01*
X83258077Y-90658135D01*
X83295628Y-90644699D01*
X83334315Y-90635009D01*
X83373766Y-90629157D01*
X83413600Y-90627200D01*
X84226400Y-90627200D01*
X84266234Y-90629157D01*
X84266234Y-90629157D01*
G37*
D12*
X83820000Y-91440000D03*
X210820000Y-91440000D03*
X210820000Y-93980000D03*
X210820000Y-96520000D03*
X210820000Y-99060000D03*
X210820000Y-101600000D03*
X210820000Y-104140000D03*
X210820000Y-106680000D03*
X210820000Y-109220000D03*
X210820000Y-111760000D03*
X226060000Y-111760000D03*
X226060000Y-109220000D03*
X226060000Y-106680000D03*
X226060000Y-104140000D03*
X226060000Y-101600000D03*
X226060000Y-99060000D03*
X226060000Y-96520000D03*
X226060000Y-93980000D03*
D13*
G36*
X226506234Y-90629157D02*
G01*
X226545685Y-90635009D01*
X226584372Y-90644699D01*
X226621923Y-90658135D01*
X226657976Y-90675187D01*
X226692184Y-90695691D01*
X226724217Y-90719449D01*
X226753768Y-90746232D01*
X226780551Y-90775783D01*
X226804309Y-90807816D01*
X226824813Y-90842024D01*
X226841865Y-90878077D01*
X226855301Y-90915628D01*
X226864991Y-90954315D01*
X226870843Y-90993766D01*
X226872800Y-91033600D01*
X226872800Y-91846400D01*
X226870843Y-91886234D01*
X226864991Y-91925685D01*
X226855301Y-91964372D01*
X226841865Y-92001923D01*
X226824813Y-92037976D01*
X226804309Y-92072184D01*
X226780551Y-92104217D01*
X226753768Y-92133768D01*
X226724217Y-92160551D01*
X226692184Y-92184309D01*
X226657976Y-92204813D01*
X226621923Y-92221865D01*
X226584372Y-92235301D01*
X226545685Y-92244991D01*
X226506234Y-92250843D01*
X226466400Y-92252800D01*
X225653600Y-92252800D01*
X225613766Y-92250843D01*
X225574315Y-92244991D01*
X225535628Y-92235301D01*
X225498077Y-92221865D01*
X225462024Y-92204813D01*
X225427816Y-92184309D01*
X225395783Y-92160551D01*
X225366232Y-92133768D01*
X225339449Y-92104217D01*
X225315691Y-92072184D01*
X225295187Y-92037976D01*
X225278135Y-92001923D01*
X225264699Y-91964372D01*
X225255009Y-91925685D01*
X225249157Y-91886234D01*
X225247200Y-91846400D01*
X225247200Y-91033600D01*
X225249157Y-90993766D01*
X225255009Y-90954315D01*
X225264699Y-90915628D01*
X225278135Y-90878077D01*
X225295187Y-90842024D01*
X225315691Y-90807816D01*
X225339449Y-90775783D01*
X225366232Y-90746232D01*
X225395783Y-90719449D01*
X225427816Y-90695691D01*
X225462024Y-90675187D01*
X225498077Y-90658135D01*
X225535628Y-90644699D01*
X225574315Y-90635009D01*
X225613766Y-90629157D01*
X225653600Y-90627200D01*
X226466400Y-90627200D01*
X226506234Y-90629157D01*
X226506234Y-90629157D01*
G37*
D12*
X226060000Y-91440000D03*
X190500000Y-91440000D03*
X190500000Y-93980000D03*
X190500000Y-96520000D03*
X190500000Y-99060000D03*
X190500000Y-101600000D03*
X190500000Y-104140000D03*
X190500000Y-106680000D03*
X190500000Y-109220000D03*
X190500000Y-111760000D03*
X205740000Y-111760000D03*
X205740000Y-109220000D03*
X205740000Y-106680000D03*
X205740000Y-104140000D03*
X205740000Y-101600000D03*
X205740000Y-99060000D03*
X205740000Y-96520000D03*
X205740000Y-93980000D03*
D13*
G36*
X206186234Y-90629157D02*
G01*
X206225685Y-90635009D01*
X206264372Y-90644699D01*
X206301923Y-90658135D01*
X206337976Y-90675187D01*
X206372184Y-90695691D01*
X206404217Y-90719449D01*
X206433768Y-90746232D01*
X206460551Y-90775783D01*
X206484309Y-90807816D01*
X206504813Y-90842024D01*
X206521865Y-90878077D01*
X206535301Y-90915628D01*
X206544991Y-90954315D01*
X206550843Y-90993766D01*
X206552800Y-91033600D01*
X206552800Y-91846400D01*
X206550843Y-91886234D01*
X206544991Y-91925685D01*
X206535301Y-91964372D01*
X206521865Y-92001923D01*
X206504813Y-92037976D01*
X206484309Y-92072184D01*
X206460551Y-92104217D01*
X206433768Y-92133768D01*
X206404217Y-92160551D01*
X206372184Y-92184309D01*
X206337976Y-92204813D01*
X206301923Y-92221865D01*
X206264372Y-92235301D01*
X206225685Y-92244991D01*
X206186234Y-92250843D01*
X206146400Y-92252800D01*
X205333600Y-92252800D01*
X205293766Y-92250843D01*
X205254315Y-92244991D01*
X205215628Y-92235301D01*
X205178077Y-92221865D01*
X205142024Y-92204813D01*
X205107816Y-92184309D01*
X205075783Y-92160551D01*
X205046232Y-92133768D01*
X205019449Y-92104217D01*
X204995691Y-92072184D01*
X204975187Y-92037976D01*
X204958135Y-92001923D01*
X204944699Y-91964372D01*
X204935009Y-91925685D01*
X204929157Y-91886234D01*
X204927200Y-91846400D01*
X204927200Y-91033600D01*
X204929157Y-90993766D01*
X204935009Y-90954315D01*
X204944699Y-90915628D01*
X204958135Y-90878077D01*
X204975187Y-90842024D01*
X204995691Y-90807816D01*
X205019449Y-90775783D01*
X205046232Y-90746232D01*
X205075783Y-90719449D01*
X205107816Y-90695691D01*
X205142024Y-90675187D01*
X205178077Y-90658135D01*
X205215628Y-90644699D01*
X205254315Y-90635009D01*
X205293766Y-90629157D01*
X205333600Y-90627200D01*
X206146400Y-90627200D01*
X206186234Y-90629157D01*
X206186234Y-90629157D01*
G37*
D12*
X205740000Y-91440000D03*
X170180000Y-91440000D03*
X170180000Y-93980000D03*
X170180000Y-96520000D03*
X170180000Y-99060000D03*
X170180000Y-101600000D03*
X170180000Y-104140000D03*
X170180000Y-106680000D03*
X170180000Y-109220000D03*
X170180000Y-111760000D03*
X185420000Y-111760000D03*
X185420000Y-109220000D03*
X185420000Y-106680000D03*
X185420000Y-104140000D03*
X185420000Y-101600000D03*
X185420000Y-99060000D03*
X185420000Y-96520000D03*
X185420000Y-93980000D03*
D13*
G36*
X185866234Y-90629157D02*
G01*
X185905685Y-90635009D01*
X185944372Y-90644699D01*
X185981923Y-90658135D01*
X186017976Y-90675187D01*
X186052184Y-90695691D01*
X186084217Y-90719449D01*
X186113768Y-90746232D01*
X186140551Y-90775783D01*
X186164309Y-90807816D01*
X186184813Y-90842024D01*
X186201865Y-90878077D01*
X186215301Y-90915628D01*
X186224991Y-90954315D01*
X186230843Y-90993766D01*
X186232800Y-91033600D01*
X186232800Y-91846400D01*
X186230843Y-91886234D01*
X186224991Y-91925685D01*
X186215301Y-91964372D01*
X186201865Y-92001923D01*
X186184813Y-92037976D01*
X186164309Y-92072184D01*
X186140551Y-92104217D01*
X186113768Y-92133768D01*
X186084217Y-92160551D01*
X186052184Y-92184309D01*
X186017976Y-92204813D01*
X185981923Y-92221865D01*
X185944372Y-92235301D01*
X185905685Y-92244991D01*
X185866234Y-92250843D01*
X185826400Y-92252800D01*
X185013600Y-92252800D01*
X184973766Y-92250843D01*
X184934315Y-92244991D01*
X184895628Y-92235301D01*
X184858077Y-92221865D01*
X184822024Y-92204813D01*
X184787816Y-92184309D01*
X184755783Y-92160551D01*
X184726232Y-92133768D01*
X184699449Y-92104217D01*
X184675691Y-92072184D01*
X184655187Y-92037976D01*
X184638135Y-92001923D01*
X184624699Y-91964372D01*
X184615009Y-91925685D01*
X184609157Y-91886234D01*
X184607200Y-91846400D01*
X184607200Y-91033600D01*
X184609157Y-90993766D01*
X184615009Y-90954315D01*
X184624699Y-90915628D01*
X184638135Y-90878077D01*
X184655187Y-90842024D01*
X184675691Y-90807816D01*
X184699449Y-90775783D01*
X184726232Y-90746232D01*
X184755783Y-90719449D01*
X184787816Y-90695691D01*
X184822024Y-90675187D01*
X184858077Y-90658135D01*
X184895628Y-90644699D01*
X184934315Y-90635009D01*
X184973766Y-90629157D01*
X185013600Y-90627200D01*
X185826400Y-90627200D01*
X185866234Y-90629157D01*
X185866234Y-90629157D01*
G37*
D12*
X185420000Y-91440000D03*
X149860000Y-91440000D03*
X149860000Y-93980000D03*
X149860000Y-96520000D03*
X149860000Y-99060000D03*
X149860000Y-101600000D03*
X149860000Y-104140000D03*
X149860000Y-106680000D03*
X149860000Y-109220000D03*
X149860000Y-111760000D03*
X165100000Y-111760000D03*
X165100000Y-109220000D03*
X165100000Y-106680000D03*
X165100000Y-104140000D03*
X165100000Y-101600000D03*
X165100000Y-99060000D03*
X165100000Y-96520000D03*
X165100000Y-93980000D03*
D13*
G36*
X165546234Y-90629157D02*
G01*
X165585685Y-90635009D01*
X165624372Y-90644699D01*
X165661923Y-90658135D01*
X165697976Y-90675187D01*
X165732184Y-90695691D01*
X165764217Y-90719449D01*
X165793768Y-90746232D01*
X165820551Y-90775783D01*
X165844309Y-90807816D01*
X165864813Y-90842024D01*
X165881865Y-90878077D01*
X165895301Y-90915628D01*
X165904991Y-90954315D01*
X165910843Y-90993766D01*
X165912800Y-91033600D01*
X165912800Y-91846400D01*
X165910843Y-91886234D01*
X165904991Y-91925685D01*
X165895301Y-91964372D01*
X165881865Y-92001923D01*
X165864813Y-92037976D01*
X165844309Y-92072184D01*
X165820551Y-92104217D01*
X165793768Y-92133768D01*
X165764217Y-92160551D01*
X165732184Y-92184309D01*
X165697976Y-92204813D01*
X165661923Y-92221865D01*
X165624372Y-92235301D01*
X165585685Y-92244991D01*
X165546234Y-92250843D01*
X165506400Y-92252800D01*
X164693600Y-92252800D01*
X164653766Y-92250843D01*
X164614315Y-92244991D01*
X164575628Y-92235301D01*
X164538077Y-92221865D01*
X164502024Y-92204813D01*
X164467816Y-92184309D01*
X164435783Y-92160551D01*
X164406232Y-92133768D01*
X164379449Y-92104217D01*
X164355691Y-92072184D01*
X164335187Y-92037976D01*
X164318135Y-92001923D01*
X164304699Y-91964372D01*
X164295009Y-91925685D01*
X164289157Y-91886234D01*
X164287200Y-91846400D01*
X164287200Y-91033600D01*
X164289157Y-90993766D01*
X164295009Y-90954315D01*
X164304699Y-90915628D01*
X164318135Y-90878077D01*
X164335187Y-90842024D01*
X164355691Y-90807816D01*
X164379449Y-90775783D01*
X164406232Y-90746232D01*
X164435783Y-90719449D01*
X164467816Y-90695691D01*
X164502024Y-90675187D01*
X164538077Y-90658135D01*
X164575628Y-90644699D01*
X164614315Y-90635009D01*
X164653766Y-90629157D01*
X164693600Y-90627200D01*
X165506400Y-90627200D01*
X165546234Y-90629157D01*
X165546234Y-90629157D01*
G37*
D12*
X165100000Y-91440000D03*
X129540000Y-91440000D03*
X129540000Y-93980000D03*
X129540000Y-96520000D03*
X129540000Y-99060000D03*
X129540000Y-101600000D03*
X129540000Y-104140000D03*
X129540000Y-106680000D03*
X129540000Y-109220000D03*
X129540000Y-111760000D03*
X144780000Y-111760000D03*
X144780000Y-109220000D03*
X144780000Y-106680000D03*
X144780000Y-104140000D03*
X144780000Y-101600000D03*
X144780000Y-99060000D03*
X144780000Y-96520000D03*
X144780000Y-93980000D03*
D13*
G36*
X145226234Y-90629157D02*
G01*
X145265685Y-90635009D01*
X145304372Y-90644699D01*
X145341923Y-90658135D01*
X145377976Y-90675187D01*
X145412184Y-90695691D01*
X145444217Y-90719449D01*
X145473768Y-90746232D01*
X145500551Y-90775783D01*
X145524309Y-90807816D01*
X145544813Y-90842024D01*
X145561865Y-90878077D01*
X145575301Y-90915628D01*
X145584991Y-90954315D01*
X145590843Y-90993766D01*
X145592800Y-91033600D01*
X145592800Y-91846400D01*
X145590843Y-91886234D01*
X145584991Y-91925685D01*
X145575301Y-91964372D01*
X145561865Y-92001923D01*
X145544813Y-92037976D01*
X145524309Y-92072184D01*
X145500551Y-92104217D01*
X145473768Y-92133768D01*
X145444217Y-92160551D01*
X145412184Y-92184309D01*
X145377976Y-92204813D01*
X145341923Y-92221865D01*
X145304372Y-92235301D01*
X145265685Y-92244991D01*
X145226234Y-92250843D01*
X145186400Y-92252800D01*
X144373600Y-92252800D01*
X144333766Y-92250843D01*
X144294315Y-92244991D01*
X144255628Y-92235301D01*
X144218077Y-92221865D01*
X144182024Y-92204813D01*
X144147816Y-92184309D01*
X144115783Y-92160551D01*
X144086232Y-92133768D01*
X144059449Y-92104217D01*
X144035691Y-92072184D01*
X144015187Y-92037976D01*
X143998135Y-92001923D01*
X143984699Y-91964372D01*
X143975009Y-91925685D01*
X143969157Y-91886234D01*
X143967200Y-91846400D01*
X143967200Y-91033600D01*
X143969157Y-90993766D01*
X143975009Y-90954315D01*
X143984699Y-90915628D01*
X143998135Y-90878077D01*
X144015187Y-90842024D01*
X144035691Y-90807816D01*
X144059449Y-90775783D01*
X144086232Y-90746232D01*
X144115783Y-90719449D01*
X144147816Y-90695691D01*
X144182024Y-90675187D01*
X144218077Y-90658135D01*
X144255628Y-90644699D01*
X144294315Y-90635009D01*
X144333766Y-90629157D01*
X144373600Y-90627200D01*
X145186400Y-90627200D01*
X145226234Y-90629157D01*
X145226234Y-90629157D01*
G37*
D12*
X144780000Y-91440000D03*
X109220000Y-91440000D03*
X109220000Y-93980000D03*
X109220000Y-96520000D03*
X109220000Y-99060000D03*
X109220000Y-101600000D03*
X109220000Y-104140000D03*
X109220000Y-106680000D03*
X109220000Y-109220000D03*
X109220000Y-111760000D03*
X124460000Y-111760000D03*
X124460000Y-109220000D03*
X124460000Y-106680000D03*
X124460000Y-104140000D03*
X124460000Y-101600000D03*
X124460000Y-99060000D03*
X124460000Y-96520000D03*
X124460000Y-93980000D03*
D13*
G36*
X124906234Y-90629157D02*
G01*
X124945685Y-90635009D01*
X124984372Y-90644699D01*
X125021923Y-90658135D01*
X125057976Y-90675187D01*
X125092184Y-90695691D01*
X125124217Y-90719449D01*
X125153768Y-90746232D01*
X125180551Y-90775783D01*
X125204309Y-90807816D01*
X125224813Y-90842024D01*
X125241865Y-90878077D01*
X125255301Y-90915628D01*
X125264991Y-90954315D01*
X125270843Y-90993766D01*
X125272800Y-91033600D01*
X125272800Y-91846400D01*
X125270843Y-91886234D01*
X125264991Y-91925685D01*
X125255301Y-91964372D01*
X125241865Y-92001923D01*
X125224813Y-92037976D01*
X125204309Y-92072184D01*
X125180551Y-92104217D01*
X125153768Y-92133768D01*
X125124217Y-92160551D01*
X125092184Y-92184309D01*
X125057976Y-92204813D01*
X125021923Y-92221865D01*
X124984372Y-92235301D01*
X124945685Y-92244991D01*
X124906234Y-92250843D01*
X124866400Y-92252800D01*
X124053600Y-92252800D01*
X124013766Y-92250843D01*
X123974315Y-92244991D01*
X123935628Y-92235301D01*
X123898077Y-92221865D01*
X123862024Y-92204813D01*
X123827816Y-92184309D01*
X123795783Y-92160551D01*
X123766232Y-92133768D01*
X123739449Y-92104217D01*
X123715691Y-92072184D01*
X123695187Y-92037976D01*
X123678135Y-92001923D01*
X123664699Y-91964372D01*
X123655009Y-91925685D01*
X123649157Y-91886234D01*
X123647200Y-91846400D01*
X123647200Y-91033600D01*
X123649157Y-90993766D01*
X123655009Y-90954315D01*
X123664699Y-90915628D01*
X123678135Y-90878077D01*
X123695187Y-90842024D01*
X123715691Y-90807816D01*
X123739449Y-90775783D01*
X123766232Y-90746232D01*
X123795783Y-90719449D01*
X123827816Y-90695691D01*
X123862024Y-90675187D01*
X123898077Y-90658135D01*
X123935628Y-90644699D01*
X123974315Y-90635009D01*
X124013766Y-90629157D01*
X124053600Y-90627200D01*
X124866400Y-90627200D01*
X124906234Y-90629157D01*
X124906234Y-90629157D01*
G37*
D12*
X124460000Y-91440000D03*
X88900000Y-91440000D03*
X88900000Y-93980000D03*
X88900000Y-96520000D03*
X88900000Y-99060000D03*
X88900000Y-101600000D03*
X88900000Y-104140000D03*
X88900000Y-106680000D03*
X88900000Y-109220000D03*
X88900000Y-111760000D03*
X104140000Y-111760000D03*
X104140000Y-109220000D03*
X104140000Y-106680000D03*
X104140000Y-104140000D03*
X104140000Y-101600000D03*
X104140000Y-99060000D03*
X104140000Y-96520000D03*
X104140000Y-93980000D03*
D13*
G36*
X104586234Y-90629157D02*
G01*
X104625685Y-90635009D01*
X104664372Y-90644699D01*
X104701923Y-90658135D01*
X104737976Y-90675187D01*
X104772184Y-90695691D01*
X104804217Y-90719449D01*
X104833768Y-90746232D01*
X104860551Y-90775783D01*
X104884309Y-90807816D01*
X104904813Y-90842024D01*
X104921865Y-90878077D01*
X104935301Y-90915628D01*
X104944991Y-90954315D01*
X104950843Y-90993766D01*
X104952800Y-91033600D01*
X104952800Y-91846400D01*
X104950843Y-91886234D01*
X104944991Y-91925685D01*
X104935301Y-91964372D01*
X104921865Y-92001923D01*
X104904813Y-92037976D01*
X104884309Y-92072184D01*
X104860551Y-92104217D01*
X104833768Y-92133768D01*
X104804217Y-92160551D01*
X104772184Y-92184309D01*
X104737976Y-92204813D01*
X104701923Y-92221865D01*
X104664372Y-92235301D01*
X104625685Y-92244991D01*
X104586234Y-92250843D01*
X104546400Y-92252800D01*
X103733600Y-92252800D01*
X103693766Y-92250843D01*
X103654315Y-92244991D01*
X103615628Y-92235301D01*
X103578077Y-92221865D01*
X103542024Y-92204813D01*
X103507816Y-92184309D01*
X103475783Y-92160551D01*
X103446232Y-92133768D01*
X103419449Y-92104217D01*
X103395691Y-92072184D01*
X103375187Y-92037976D01*
X103358135Y-92001923D01*
X103344699Y-91964372D01*
X103335009Y-91925685D01*
X103329157Y-91886234D01*
X103327200Y-91846400D01*
X103327200Y-91033600D01*
X103329157Y-90993766D01*
X103335009Y-90954315D01*
X103344699Y-90915628D01*
X103358135Y-90878077D01*
X103375187Y-90842024D01*
X103395691Y-90807816D01*
X103419449Y-90775783D01*
X103446232Y-90746232D01*
X103475783Y-90719449D01*
X103507816Y-90695691D01*
X103542024Y-90675187D01*
X103578077Y-90658135D01*
X103615628Y-90644699D01*
X103654315Y-90635009D01*
X103693766Y-90629157D01*
X103733600Y-90627200D01*
X104546400Y-90627200D01*
X104586234Y-90629157D01*
X104586234Y-90629157D01*
G37*
D12*
X104140000Y-91440000D03*
D14*
X228440000Y-92710000D03*
X228440000Y-95250000D03*
X228440000Y-97790000D03*
X228440000Y-100330000D03*
X228440000Y-102870000D03*
X228440000Y-105410000D03*
X228440000Y-107950000D03*
D15*
X228440000Y-110490000D03*
D14*
X66200000Y-110490000D03*
X66200000Y-107950000D03*
X66200000Y-105410000D03*
X66200000Y-102870000D03*
X66200000Y-100330000D03*
X66200000Y-97790000D03*
X66200000Y-95250000D03*
D15*
X66200000Y-92710000D03*
D16*
X215392000Y-106045000D03*
X195072000Y-106045000D03*
X174752000Y-106045000D03*
X113792000Y-106045000D03*
X93472000Y-106045000D03*
X140208000Y-104775000D03*
X154432000Y-106045000D03*
X93726000Y-90043000D03*
X195326000Y-90297000D03*
X134112000Y-98425000D03*
X73152000Y-106045000D03*
X221488000Y-106045000D03*
X201168000Y-106045000D03*
X180848000Y-106045000D03*
X119888000Y-106045000D03*
X99695000Y-106045000D03*
X73279000Y-111125000D03*
X77724000Y-108839000D03*
X139319000Y-99949000D03*
X134239000Y-103505000D03*
X134133327Y-104765644D03*
X160655000Y-106045000D03*
X97282000Y-108839000D03*
X93599000Y-111125000D03*
X99314000Y-90043000D03*
X113919000Y-111125000D03*
X117729000Y-108839000D03*
X158369000Y-108839000D03*
X154559000Y-111125000D03*
X215519000Y-111125000D03*
X219202000Y-108587530D03*
X198882000Y-108839000D03*
X200914000Y-90297000D03*
X178562000Y-108839000D03*
X217297000Y-113030000D03*
X197739000Y-113030000D03*
X176657000Y-113030000D03*
X156337000Y-113030000D03*
X116713000Y-113030000D03*
X96139000Y-113030000D03*
X75057000Y-113030000D03*
X195199000Y-111125000D03*
X140208000Y-98298000D03*
X79375000Y-106045000D03*
X174879000Y-111125000D03*
D17*
X70231000Y-92710000D03*
X224409000Y-110490000D03*
X224409000Y-92710000D03*
D16*
X212471000Y-113030000D03*
X203962000Y-113030000D03*
X192151000Y-113030000D03*
X171831000Y-113030000D03*
X151511000Y-113030000D03*
X122809000Y-113030000D03*
X110617000Y-113030000D03*
X102362000Y-113030000D03*
X90551000Y-113030000D03*
X70231000Y-113030000D03*
D17*
X70231000Y-109220000D03*
D16*
X80645000Y-107950000D03*
X101092000Y-107950000D03*
X121285000Y-107950000D03*
X182118000Y-107950000D03*
X202438000Y-107950000D03*
X136144000Y-107950000D03*
X142113000Y-107950000D03*
X161036000Y-107950000D03*
X222631000Y-107950000D03*
X92075000Y-105410000D03*
X112395000Y-105410000D03*
X213995000Y-105410000D03*
X153289000Y-105410000D03*
X133096043Y-105410000D03*
X141605018Y-105410000D03*
X71374000Y-105410000D03*
X193802000Y-105410000D03*
X173482000Y-105410000D03*
X141859010Y-102870000D03*
X80518000Y-102870000D03*
X121412000Y-102870000D03*
X182245000Y-102870000D03*
X202692000Y-102870000D03*
X222758000Y-102870000D03*
X158242000Y-102870000D03*
X100711000Y-102870000D03*
X132334000Y-102870000D03*
X76581000Y-100330000D03*
X217297000Y-100330000D03*
X92456010Y-90043000D03*
X76835000Y-99060000D03*
X81280000Y-101600000D03*
X81280000Y-106426000D03*
X75057000Y-103632000D03*
X77216000Y-99822000D03*
X76581000Y-98298000D03*
X71628000Y-96901000D03*
X77597000Y-97155000D03*
X117221000Y-89281000D03*
X116586000Y-95249990D03*
X91948000Y-98044000D03*
X97914537Y-99829911D03*
X90551000Y-100584000D03*
X110871000Y-104393999D03*
X117475004Y-104394000D03*
X106807000Y-101600000D03*
X101092000Y-106680000D03*
X95885000Y-102234990D03*
X101727000Y-101727000D03*
X96018274Y-100919385D03*
X101346000Y-100965000D03*
X101854000Y-100330000D03*
X96133987Y-98919493D03*
X95123000Y-96520000D03*
X90297000Y-95504000D03*
X118237000Y-89916000D03*
X138176000Y-92075000D03*
X112522000Y-93980000D03*
X112395000Y-99060000D03*
X110363008Y-97917000D03*
X112395000Y-97663000D03*
X126492000Y-89535000D03*
X125476000Y-100330000D03*
X110871000Y-101473000D03*
X136779000Y-89156530D03*
X121412000Y-99695000D03*
X110993488Y-100452472D03*
X126365000Y-113030000D03*
X137668000Y-95250000D03*
X127127000Y-95250000D03*
X137414000Y-98425000D03*
X126365000Y-100838000D03*
X115823990Y-102235000D03*
X122047000Y-102235000D03*
X121793000Y-97155000D03*
X114554000Y-97155010D03*
X122047000Y-100965000D03*
X121666000Y-95885000D03*
X115951000Y-95885000D03*
X111379003Y-96774003D03*
X115316000Y-93980000D03*
X138049000Y-88519000D03*
X133096000Y-93980000D03*
X132461000Y-111125000D03*
X130937000Y-111125000D03*
X132588000Y-99060000D03*
X132080000Y-101600000D03*
X132080000Y-104140000D03*
X139319000Y-89789000D03*
X127762000Y-90297000D03*
X136017000Y-111760000D03*
X136779000Y-111125000D03*
X132715000Y-108585000D03*
X142748021Y-106680000D03*
X141859000Y-91059000D03*
X132842000Y-91440000D03*
X142621000Y-91694000D03*
X136144000Y-92075000D03*
X143256000Y-90678000D03*
X136144000Y-90805000D03*
X140335000Y-99060000D03*
X140335000Y-103632000D03*
X137668000Y-104775000D03*
X136559251Y-95977751D03*
X136017000Y-93980000D03*
X136525000Y-112903000D03*
X146812000Y-113538000D03*
X146304000Y-104521000D03*
X147066000Y-103251000D03*
X159893000Y-96520000D03*
X146049979Y-108585000D03*
X147574000Y-108585000D03*
X147574000Y-109855000D03*
X146050000Y-109855000D03*
X158750000Y-98171000D03*
X151384000Y-98171000D03*
X141605000Y-112902968D03*
X147828000Y-112014000D03*
X158750000Y-99695000D03*
X152019000Y-99695000D03*
X161417000Y-111760000D03*
X161671000Y-109220000D03*
X162433000Y-110490000D03*
X138303000Y-110490000D03*
X158242000Y-99060000D03*
X178308000Y-93980000D03*
X176657000Y-96520000D03*
X177546000Y-99822000D03*
X152654000Y-95250000D03*
X168021000Y-95250000D03*
X172085000Y-103759000D03*
X153289000Y-97536000D03*
X166624000Y-98171000D03*
X171577000Y-95250000D03*
X180086000Y-95250000D03*
X182880000Y-109220000D03*
X156591000Y-101473000D03*
X163576000Y-100965000D03*
X156845000Y-103505000D03*
X163703000Y-103505000D03*
X156337000Y-100330000D03*
X182499000Y-100330000D03*
X184277000Y-99822000D03*
X182245000Y-101092000D03*
X198882000Y-94488000D03*
X198628000Y-99060000D03*
X198247000Y-101600000D03*
X192405000Y-104140000D03*
X187960000Y-106680000D03*
X171831000Y-111125000D03*
X187960000Y-113284000D03*
X192278000Y-110490000D03*
X204470000Y-97409000D03*
X202438000Y-97409000D03*
X207518000Y-114427000D03*
X171831000Y-112014000D03*
X198882000Y-104140000D03*
X176911000Y-101346000D03*
X202438000Y-98298000D03*
X203073000Y-96520000D03*
X212090000Y-102235000D03*
X214376000Y-102235000D03*
X219710000Y-93980000D03*
X214376000Y-101346000D03*
X212090000Y-100965000D03*
X218948000Y-99060000D03*
X222758000Y-100965000D03*
X213741000Y-104140000D03*
X193421000Y-111379000D03*
X208407000Y-113665000D03*
X212598000Y-109220000D03*
X223266000Y-106680000D03*
X219329000Y-104140000D03*
X219710000Y-102489000D03*
X217551000Y-98425000D03*
X221869000Y-96520000D03*
X223139000Y-93980000D03*
X217424000Y-102235000D03*
X219075000Y-101092000D03*
X97790000Y-110490000D03*
X72009000Y-110490000D03*
X118237000Y-110490000D03*
X96519996Y-109855000D03*
X138176000Y-97155000D03*
X116585968Y-97789994D03*
X158750000Y-113157000D03*
X138049000Y-114427000D03*
X178943000Y-110490000D03*
X157480000Y-111125000D03*
X199390000Y-110490000D03*
X177800000Y-109855000D03*
X219710000Y-110490000D03*
X198120000Y-109855000D03*
M02*
