G04 #@! TF.GenerationSoftware,KiCad,Pcbnew,(5.1.8)*
G04 #@! TF.CreationDate,2021-04-29T17:56:20-04:00*
G04 #@! TF.ProjectId,8x16seg,38783136-7365-4672-9e6b-696361645f70,v1.0.0*
G04 #@! TF.SameCoordinates,Original*
G04 #@! TF.FileFunction,Soldermask,Bot*
G04 #@! TF.FilePolarity,Negative*
%FSLAX46Y46*%
G04 Gerber Fmt 4.6, Leading zero omitted, Abs format (unit mm)*
G04 Created by KiCad (PCBNEW (5.1.8)) date 2021-04-29 17:56:20*
%MOMM*%
%LPD*%
G01*
G04 APERTURE LIST*
%ADD10O,1.801600X1.801600*%
%ADD11C,1.801600*%
%ADD12C,1.625600*%
%ADD13C,1.101600*%
%ADD14C,0.609600*%
%ADD15C,1.371600*%
%ADD16C,0.100000*%
G04 APERTURE END LIST*
D10*
X228440000Y-92710000D03*
X228440000Y-95250000D03*
X228440000Y-97790000D03*
X228440000Y-100330000D03*
X228440000Y-102870000D03*
X228440000Y-105410000D03*
X228440000Y-107950000D03*
D11*
X228440000Y-110490000D03*
D10*
X66200000Y-110490000D03*
X66200000Y-107950000D03*
X66200000Y-105410000D03*
X66200000Y-102870000D03*
X66200000Y-100330000D03*
X66200000Y-97790000D03*
X66200000Y-95250000D03*
D11*
X66200000Y-92710000D03*
D12*
X68580000Y-91440000D03*
X68580000Y-93980000D03*
X68580000Y-96520000D03*
X68580000Y-99060000D03*
X68580000Y-101600000D03*
X68580000Y-104140000D03*
X68580000Y-106680000D03*
X68580000Y-109220000D03*
X68580000Y-111760000D03*
X83820000Y-111760000D03*
X83820000Y-109220000D03*
X83820000Y-106680000D03*
X83820000Y-104140000D03*
X83820000Y-101600000D03*
X83820000Y-99060000D03*
X83820000Y-96520000D03*
X83820000Y-93980000D03*
G36*
G01*
X84632800Y-91033600D02*
X84632800Y-91846400D01*
G75*
G02*
X84226400Y-92252800I-406400J0D01*
G01*
X83413600Y-92252800D01*
G75*
G02*
X83007200Y-91846400I0J406400D01*
G01*
X83007200Y-91033600D01*
G75*
G02*
X83413600Y-90627200I406400J0D01*
G01*
X84226400Y-90627200D01*
G75*
G02*
X84632800Y-91033600I0J-406400D01*
G01*
G37*
X210820000Y-91440000D03*
X210820000Y-93980000D03*
X210820000Y-96520000D03*
X210820000Y-99060000D03*
X210820000Y-101600000D03*
X210820000Y-104140000D03*
X210820000Y-106680000D03*
X210820000Y-109220000D03*
X210820000Y-111760000D03*
X226060000Y-111760000D03*
X226060000Y-109220000D03*
X226060000Y-106680000D03*
X226060000Y-104140000D03*
X226060000Y-101600000D03*
X226060000Y-99060000D03*
X226060000Y-96520000D03*
X226060000Y-93980000D03*
G36*
G01*
X226872800Y-91033600D02*
X226872800Y-91846400D01*
G75*
G02*
X226466400Y-92252800I-406400J0D01*
G01*
X225653600Y-92252800D01*
G75*
G02*
X225247200Y-91846400I0J406400D01*
G01*
X225247200Y-91033600D01*
G75*
G02*
X225653600Y-90627200I406400J0D01*
G01*
X226466400Y-90627200D01*
G75*
G02*
X226872800Y-91033600I0J-406400D01*
G01*
G37*
X190500000Y-91440000D03*
X190500000Y-93980000D03*
X190500000Y-96520000D03*
X190500000Y-99060000D03*
X190500000Y-101600000D03*
X190500000Y-104140000D03*
X190500000Y-106680000D03*
X190500000Y-109220000D03*
X190500000Y-111760000D03*
X205740000Y-111760000D03*
X205740000Y-109220000D03*
X205740000Y-106680000D03*
X205740000Y-104140000D03*
X205740000Y-101600000D03*
X205740000Y-99060000D03*
X205740000Y-96520000D03*
X205740000Y-93980000D03*
G36*
G01*
X206552800Y-91033600D02*
X206552800Y-91846400D01*
G75*
G02*
X206146400Y-92252800I-406400J0D01*
G01*
X205333600Y-92252800D01*
G75*
G02*
X204927200Y-91846400I0J406400D01*
G01*
X204927200Y-91033600D01*
G75*
G02*
X205333600Y-90627200I406400J0D01*
G01*
X206146400Y-90627200D01*
G75*
G02*
X206552800Y-91033600I0J-406400D01*
G01*
G37*
X170180000Y-91440000D03*
X170180000Y-93980000D03*
X170180000Y-96520000D03*
X170180000Y-99060000D03*
X170180000Y-101600000D03*
X170180000Y-104140000D03*
X170180000Y-106680000D03*
X170180000Y-109220000D03*
X170180000Y-111760000D03*
X185420000Y-111760000D03*
X185420000Y-109220000D03*
X185420000Y-106680000D03*
X185420000Y-104140000D03*
X185420000Y-101600000D03*
X185420000Y-99060000D03*
X185420000Y-96520000D03*
X185420000Y-93980000D03*
G36*
G01*
X186232800Y-91033600D02*
X186232800Y-91846400D01*
G75*
G02*
X185826400Y-92252800I-406400J0D01*
G01*
X185013600Y-92252800D01*
G75*
G02*
X184607200Y-91846400I0J406400D01*
G01*
X184607200Y-91033600D01*
G75*
G02*
X185013600Y-90627200I406400J0D01*
G01*
X185826400Y-90627200D01*
G75*
G02*
X186232800Y-91033600I0J-406400D01*
G01*
G37*
X149860000Y-91440000D03*
X149860000Y-93980000D03*
X149860000Y-96520000D03*
X149860000Y-99060000D03*
X149860000Y-101600000D03*
X149860000Y-104140000D03*
X149860000Y-106680000D03*
X149860000Y-109220000D03*
X149860000Y-111760000D03*
X165100000Y-111760000D03*
X165100000Y-109220000D03*
X165100000Y-106680000D03*
X165100000Y-104140000D03*
X165100000Y-101600000D03*
X165100000Y-99060000D03*
X165100000Y-96520000D03*
X165100000Y-93980000D03*
G36*
G01*
X165912800Y-91033600D02*
X165912800Y-91846400D01*
G75*
G02*
X165506400Y-92252800I-406400J0D01*
G01*
X164693600Y-92252800D01*
G75*
G02*
X164287200Y-91846400I0J406400D01*
G01*
X164287200Y-91033600D01*
G75*
G02*
X164693600Y-90627200I406400J0D01*
G01*
X165506400Y-90627200D01*
G75*
G02*
X165912800Y-91033600I0J-406400D01*
G01*
G37*
X129540000Y-91440000D03*
X129540000Y-93980000D03*
X129540000Y-96520000D03*
X129540000Y-99060000D03*
X129540000Y-101600000D03*
X129540000Y-104140000D03*
X129540000Y-106680000D03*
X129540000Y-109220000D03*
X129540000Y-111760000D03*
X144780000Y-111760000D03*
X144780000Y-109220000D03*
X144780000Y-106680000D03*
X144780000Y-104140000D03*
X144780000Y-101600000D03*
X144780000Y-99060000D03*
X144780000Y-96520000D03*
X144780000Y-93980000D03*
G36*
G01*
X145592800Y-91033600D02*
X145592800Y-91846400D01*
G75*
G02*
X145186400Y-92252800I-406400J0D01*
G01*
X144373600Y-92252800D01*
G75*
G02*
X143967200Y-91846400I0J406400D01*
G01*
X143967200Y-91033600D01*
G75*
G02*
X144373600Y-90627200I406400J0D01*
G01*
X145186400Y-90627200D01*
G75*
G02*
X145592800Y-91033600I0J-406400D01*
G01*
G37*
X109220000Y-91440000D03*
X109220000Y-93980000D03*
X109220000Y-96520000D03*
X109220000Y-99060000D03*
X109220000Y-101600000D03*
X109220000Y-104140000D03*
X109220000Y-106680000D03*
X109220000Y-109220000D03*
X109220000Y-111760000D03*
X124460000Y-111760000D03*
X124460000Y-109220000D03*
X124460000Y-106680000D03*
X124460000Y-104140000D03*
X124460000Y-101600000D03*
X124460000Y-99060000D03*
X124460000Y-96520000D03*
X124460000Y-93980000D03*
G36*
G01*
X125272800Y-91033600D02*
X125272800Y-91846400D01*
G75*
G02*
X124866400Y-92252800I-406400J0D01*
G01*
X124053600Y-92252800D01*
G75*
G02*
X123647200Y-91846400I0J406400D01*
G01*
X123647200Y-91033600D01*
G75*
G02*
X124053600Y-90627200I406400J0D01*
G01*
X124866400Y-90627200D01*
G75*
G02*
X125272800Y-91033600I0J-406400D01*
G01*
G37*
X88900000Y-91440000D03*
X88900000Y-93980000D03*
X88900000Y-96520000D03*
X88900000Y-99060000D03*
X88900000Y-101600000D03*
X88900000Y-104140000D03*
X88900000Y-106680000D03*
X88900000Y-109220000D03*
X88900000Y-111760000D03*
X104140000Y-111760000D03*
X104140000Y-109220000D03*
X104140000Y-106680000D03*
X104140000Y-104140000D03*
X104140000Y-101600000D03*
X104140000Y-99060000D03*
X104140000Y-96520000D03*
X104140000Y-93980000D03*
G36*
G01*
X104952800Y-91033600D02*
X104952800Y-91846400D01*
G75*
G02*
X104546400Y-92252800I-406400J0D01*
G01*
X103733600Y-92252800D01*
G75*
G02*
X103327200Y-91846400I0J406400D01*
G01*
X103327200Y-91033600D01*
G75*
G02*
X103733600Y-90627200I406400J0D01*
G01*
X104546400Y-90627200D01*
G75*
G02*
X104952800Y-91033600I0J-406400D01*
G01*
G37*
D13*
X67564000Y-110490000D03*
X67564000Y-107950000D03*
X67564000Y-105410000D03*
X67564000Y-102870000D03*
X67564000Y-100330000D03*
X67564000Y-97790000D03*
X67564000Y-95250000D03*
X227076000Y-95250000D03*
X227076000Y-97790000D03*
X227076000Y-100330000D03*
X227076000Y-102870000D03*
X227076000Y-105410000D03*
X227076000Y-107950000D03*
X227076000Y-110490000D03*
D14*
X215392000Y-106045000D03*
X195072000Y-106045000D03*
X174752000Y-106045000D03*
X113792000Y-106045000D03*
X93472000Y-106045000D03*
X140208000Y-104775000D03*
X154432000Y-106045000D03*
X93726000Y-90043000D03*
X195326000Y-90297000D03*
X134112000Y-98425000D03*
X73152000Y-106045000D03*
X221488000Y-106045000D03*
X201168000Y-106045000D03*
X180848000Y-106045000D03*
X119888000Y-106045000D03*
X99695000Y-106045000D03*
X73279000Y-111125000D03*
X77724000Y-108839000D03*
X139319000Y-99949000D03*
X134239000Y-103505000D03*
X134133327Y-104765644D03*
X160655000Y-106045000D03*
X97282000Y-108839000D03*
X93599000Y-111125000D03*
X99314000Y-90043000D03*
X113919000Y-111125000D03*
X117729000Y-108839000D03*
X158369000Y-108839000D03*
X154559000Y-111125000D03*
X215519000Y-111125000D03*
X219202000Y-108587530D03*
X198882000Y-108839000D03*
X200914000Y-90297000D03*
X178562000Y-108839000D03*
X217297000Y-113030000D03*
X197739000Y-113030000D03*
X176657000Y-113030000D03*
X156337000Y-113030000D03*
X116713000Y-113030000D03*
X96139000Y-113030000D03*
X75057000Y-113030000D03*
X195199000Y-111125000D03*
X140208000Y-98298000D03*
X79375000Y-106045000D03*
X174879000Y-111125000D03*
D15*
X70231000Y-92710000D03*
X224409000Y-110490000D03*
X224409000Y-92710000D03*
D14*
X212471000Y-113030000D03*
X203962000Y-113030000D03*
X192151000Y-113030000D03*
X171831000Y-113030000D03*
X151511000Y-113030000D03*
X122809000Y-113030000D03*
X110617000Y-113030000D03*
X102362000Y-113030000D03*
X90551000Y-113030000D03*
X70231000Y-113030000D03*
D15*
X70231000Y-109220000D03*
D14*
X80645000Y-107950000D03*
X101092000Y-107950000D03*
X121285000Y-107950000D03*
X182118000Y-107950000D03*
X202438000Y-107950000D03*
X136144000Y-107950000D03*
X142113000Y-107950000D03*
X161036000Y-107950000D03*
X222631000Y-107950000D03*
X92075000Y-105410000D03*
X112395000Y-105410000D03*
X213995000Y-105410000D03*
X153289000Y-105410000D03*
X133096043Y-105410000D03*
X141605018Y-105410000D03*
X71374000Y-105410000D03*
X193802000Y-105410000D03*
X173482000Y-105410000D03*
X141859010Y-102870000D03*
X80518000Y-102870000D03*
X121412000Y-102870000D03*
X182245000Y-102870000D03*
X202692000Y-102870000D03*
X222758000Y-102870000D03*
X158242000Y-102870000D03*
X100711000Y-102870000D03*
X132334000Y-102870000D03*
X76581000Y-100330000D03*
X217297000Y-100330000D03*
X92456010Y-90043000D03*
X76835000Y-99060000D03*
X81280000Y-101600000D03*
X81280000Y-106426000D03*
X75057000Y-103632000D03*
X77216000Y-99822000D03*
X76581000Y-98298000D03*
X71628000Y-96901000D03*
X77597000Y-97155000D03*
X117221000Y-89281000D03*
X116586000Y-95249990D03*
X91948000Y-98044000D03*
X97914537Y-99829911D03*
X90551000Y-100584000D03*
X110871000Y-104393999D03*
X117475004Y-104394000D03*
X106807000Y-101600000D03*
X101092000Y-106680000D03*
X95885000Y-102234990D03*
X101727000Y-101727000D03*
X96018274Y-100919385D03*
X101346000Y-100965000D03*
X101854000Y-100330000D03*
X96133987Y-98919493D03*
X95123000Y-96520000D03*
X90297000Y-95504000D03*
X118237000Y-89916000D03*
X138176000Y-92075000D03*
X112522000Y-93980000D03*
X112395000Y-99060000D03*
X110363008Y-97917000D03*
X112395000Y-97663000D03*
X126492000Y-89535000D03*
X125476000Y-100330000D03*
X110871000Y-101473000D03*
X136779000Y-89156530D03*
X121412000Y-99695000D03*
X110993488Y-100452472D03*
X126365000Y-113030000D03*
X137668000Y-95250000D03*
X127127000Y-95250000D03*
X137414000Y-98425000D03*
X126365000Y-100838000D03*
X115823990Y-102235000D03*
X122047000Y-102235000D03*
X121793000Y-97155000D03*
X114554000Y-97155010D03*
X122047000Y-100965000D03*
X121666000Y-95885000D03*
X115951000Y-95885000D03*
X111379003Y-96774003D03*
X115316000Y-93980000D03*
X138049000Y-88519000D03*
X133096000Y-93980000D03*
X132461000Y-111125000D03*
X130937000Y-111125000D03*
X132588000Y-99060000D03*
X132080000Y-101600000D03*
X132080000Y-104140000D03*
X139319000Y-89789000D03*
X127762000Y-90297000D03*
X136017000Y-111760000D03*
X136779000Y-111125000D03*
X132715000Y-108585000D03*
X142748021Y-106680000D03*
X141859000Y-91059000D03*
X132842000Y-91440000D03*
X142621000Y-91694000D03*
X136144000Y-92075000D03*
X143256000Y-90678000D03*
X136144000Y-90805000D03*
X140335000Y-99060000D03*
X140335000Y-103632000D03*
X137668000Y-104775000D03*
X136559251Y-95977751D03*
X136017000Y-93980000D03*
X136525000Y-112903000D03*
X146812000Y-113538000D03*
X146304000Y-104521000D03*
X147066000Y-103251000D03*
X159893000Y-96520000D03*
X146049979Y-108585000D03*
X147574000Y-108585000D03*
X147574000Y-109855000D03*
X146050000Y-109855000D03*
X158750000Y-98171000D03*
X151384000Y-98171000D03*
X141605000Y-112902968D03*
X147828000Y-112014000D03*
X158750000Y-99695000D03*
X152019000Y-99695000D03*
X161417000Y-111760000D03*
X161671000Y-109220000D03*
X162433000Y-110490000D03*
X138303000Y-110490000D03*
X158242000Y-99060000D03*
X178308000Y-93980000D03*
X176657000Y-96520000D03*
X177546000Y-99822000D03*
X152654000Y-95250000D03*
X168021000Y-95250000D03*
X172085000Y-103759000D03*
X153289000Y-97536000D03*
X166624000Y-98171000D03*
X171577000Y-95250000D03*
X180086000Y-95250000D03*
X182880000Y-109220000D03*
X156591000Y-101473000D03*
X163576000Y-100965000D03*
X156845000Y-103505000D03*
X163703000Y-103505000D03*
X156337000Y-100330000D03*
X182499000Y-100330000D03*
X184277000Y-99822000D03*
X182245000Y-101092000D03*
X198882000Y-94488000D03*
X198628000Y-99060000D03*
X198247000Y-101600000D03*
X192405000Y-104140000D03*
X187960000Y-106680000D03*
X171831000Y-111125000D03*
X187960000Y-113284000D03*
X192278000Y-110490000D03*
X204470000Y-97409000D03*
X202438000Y-97409000D03*
X207518000Y-114427000D03*
X171831000Y-112014000D03*
X198882000Y-104140000D03*
X176911000Y-101346000D03*
X202438000Y-98298000D03*
X203073000Y-96520000D03*
X212090000Y-102235000D03*
X214376000Y-102235000D03*
X219710000Y-93980000D03*
X214376000Y-101346000D03*
X212090000Y-100965000D03*
X218948000Y-99060000D03*
X222758000Y-100965000D03*
X213741000Y-104140000D03*
X193421000Y-111379000D03*
X208407000Y-113665000D03*
X212598000Y-109220000D03*
X223266000Y-106680000D03*
X219329000Y-104140000D03*
X219710000Y-102489000D03*
X217551000Y-98425000D03*
X221869000Y-96520000D03*
X223139000Y-93980000D03*
X217424000Y-102235000D03*
X219075000Y-101092000D03*
X97790000Y-110490000D03*
X72009000Y-110490000D03*
X118237000Y-110490000D03*
X96519996Y-109855000D03*
X138176000Y-97155000D03*
X116585968Y-97789994D03*
X158750000Y-113157000D03*
X138049000Y-114427000D03*
X178943000Y-110490000D03*
X157480000Y-111125000D03*
X199390000Y-110490000D03*
X177800000Y-109855000D03*
X219710000Y-110490000D03*
X198120000Y-109855000D03*
D16*
G36*
X67069372Y-110723014D02*
G01*
X67080011Y-110748698D01*
X67139780Y-110838150D01*
X67186425Y-110884795D01*
X67186943Y-110886727D01*
X67185529Y-110888141D01*
X67183742Y-110887755D01*
X67169704Y-110876234D01*
X67148440Y-110864869D01*
X67125365Y-110857869D01*
X67101374Y-110855506D01*
X67077383Y-110857869D01*
X67054308Y-110864869D01*
X67033044Y-110876234D01*
X67014407Y-110891529D01*
X66999049Y-110910244D01*
X66997281Y-110912890D01*
X66995487Y-110913775D01*
X66993824Y-110912664D01*
X66993770Y-110911014D01*
X67060088Y-110750906D01*
X67065562Y-110723389D01*
X67066881Y-110721885D01*
X67069372Y-110723014D01*
G37*
G36*
X227574438Y-110723389D02*
G01*
X227579912Y-110750906D01*
X227646230Y-110911014D01*
X227645969Y-110912997D01*
X227644121Y-110913762D01*
X227642719Y-110912890D01*
X227640951Y-110910244D01*
X227625593Y-110891529D01*
X227606956Y-110876234D01*
X227585692Y-110864869D01*
X227562617Y-110857869D01*
X227538626Y-110855506D01*
X227514635Y-110857869D01*
X227491560Y-110864869D01*
X227470296Y-110876234D01*
X227456258Y-110887755D01*
X227454284Y-110888081D01*
X227453016Y-110886535D01*
X227453575Y-110884795D01*
X227500220Y-110838150D01*
X227559989Y-110748698D01*
X227570628Y-110723014D01*
X227572215Y-110721796D01*
X227574438Y-110723389D01*
G37*
G36*
X66997281Y-110067110D02*
G01*
X66999049Y-110069756D01*
X67014407Y-110088471D01*
X67033044Y-110103766D01*
X67054308Y-110115131D01*
X67077383Y-110122131D01*
X67101374Y-110124494D01*
X67125365Y-110122131D01*
X67148440Y-110115131D01*
X67169704Y-110103766D01*
X67183742Y-110092245D01*
X67185716Y-110091919D01*
X67186984Y-110093465D01*
X67186425Y-110095205D01*
X67139780Y-110141850D01*
X67080011Y-110231302D01*
X67069372Y-110256986D01*
X67067785Y-110258204D01*
X67065562Y-110256611D01*
X67060088Y-110229094D01*
X66993770Y-110068986D01*
X66994031Y-110067003D01*
X66995879Y-110066238D01*
X66997281Y-110067110D01*
G37*
G36*
X227646176Y-110067336D02*
G01*
X227646230Y-110068986D01*
X227579912Y-110229094D01*
X227574438Y-110256611D01*
X227573119Y-110258115D01*
X227570628Y-110256986D01*
X227559989Y-110231302D01*
X227500220Y-110141850D01*
X227453575Y-110095205D01*
X227453057Y-110093273D01*
X227454471Y-110091859D01*
X227456258Y-110092245D01*
X227470296Y-110103766D01*
X227491560Y-110115131D01*
X227514635Y-110122131D01*
X227538626Y-110124494D01*
X227562617Y-110122131D01*
X227585692Y-110115131D01*
X227606956Y-110103766D01*
X227625593Y-110088471D01*
X227640951Y-110069756D01*
X227642719Y-110067110D01*
X227644513Y-110066225D01*
X227646176Y-110067336D01*
G37*
G36*
X69360120Y-108986205D02*
G01*
X69360181Y-108986173D01*
X69371639Y-109007611D01*
X69386934Y-109026248D01*
X69405571Y-109041543D01*
X69426835Y-109052908D01*
X69449910Y-109059908D01*
X69473901Y-109062271D01*
X69497892Y-109059908D01*
X69520967Y-109052908D01*
X69542231Y-109041543D01*
X69560868Y-109026248D01*
X69576163Y-109007611D01*
X69584725Y-108991591D01*
X69586424Y-108990535D01*
X69588187Y-108991478D01*
X69588337Y-108993299D01*
X69576654Y-109021505D01*
X69550502Y-109152979D01*
X69550502Y-109287021D01*
X69576654Y-109418495D01*
X69588337Y-109446701D01*
X69588076Y-109448684D01*
X69586228Y-109449449D01*
X69584725Y-109448409D01*
X69576163Y-109432389D01*
X69560868Y-109413752D01*
X69542231Y-109398457D01*
X69520967Y-109387092D01*
X69497892Y-109380092D01*
X69473901Y-109377729D01*
X69449910Y-109380092D01*
X69426835Y-109387092D01*
X69405571Y-109398457D01*
X69386934Y-109413752D01*
X69371639Y-109432389D01*
X69360181Y-109453827D01*
X69360103Y-109453785D01*
X69358688Y-109454899D01*
X69356831Y-109454156D01*
X69356441Y-109452529D01*
X69386886Y-109299469D01*
X69386886Y-109140531D01*
X69356441Y-108987471D01*
X69357084Y-108985577D01*
X69359046Y-108985187D01*
X69360120Y-108986205D01*
G37*
G36*
X67069372Y-108183014D02*
G01*
X67080011Y-108208698D01*
X67139780Y-108298150D01*
X67186425Y-108344795D01*
X67186943Y-108346727D01*
X67185529Y-108348141D01*
X67183742Y-108347755D01*
X67169704Y-108336234D01*
X67148440Y-108324869D01*
X67125365Y-108317869D01*
X67101374Y-108315506D01*
X67077383Y-108317869D01*
X67054308Y-108324869D01*
X67033044Y-108336234D01*
X67014407Y-108351529D01*
X66999049Y-108370244D01*
X66997281Y-108372890D01*
X66995487Y-108373775D01*
X66993824Y-108372664D01*
X66993770Y-108371014D01*
X67060088Y-108210906D01*
X67065562Y-108183389D01*
X67066881Y-108181885D01*
X67069372Y-108183014D01*
G37*
G36*
X227574438Y-108183389D02*
G01*
X227579912Y-108210906D01*
X227646230Y-108371014D01*
X227645969Y-108372997D01*
X227644121Y-108373762D01*
X227642719Y-108372890D01*
X227640951Y-108370244D01*
X227625593Y-108351529D01*
X227606956Y-108336234D01*
X227585692Y-108324869D01*
X227562617Y-108317869D01*
X227538626Y-108315506D01*
X227514635Y-108317869D01*
X227491560Y-108324869D01*
X227470296Y-108336234D01*
X227456258Y-108347755D01*
X227454284Y-108348081D01*
X227453016Y-108346535D01*
X227453575Y-108344795D01*
X227500220Y-108298150D01*
X227559989Y-108208698D01*
X227570628Y-108183014D01*
X227572215Y-108181796D01*
X227574438Y-108183389D01*
G37*
G36*
X66997281Y-107527110D02*
G01*
X66999049Y-107529756D01*
X67014407Y-107548471D01*
X67033044Y-107563766D01*
X67054308Y-107575131D01*
X67077383Y-107582131D01*
X67101374Y-107584494D01*
X67125365Y-107582131D01*
X67148440Y-107575131D01*
X67169704Y-107563766D01*
X67183742Y-107552245D01*
X67185716Y-107551919D01*
X67186984Y-107553465D01*
X67186425Y-107555205D01*
X67139780Y-107601850D01*
X67080011Y-107691302D01*
X67069372Y-107716986D01*
X67067785Y-107718204D01*
X67065562Y-107716611D01*
X67060088Y-107689094D01*
X66993770Y-107528986D01*
X66994031Y-107527003D01*
X66995879Y-107526238D01*
X66997281Y-107527110D01*
G37*
G36*
X227646176Y-107527336D02*
G01*
X227646230Y-107528986D01*
X227579912Y-107689094D01*
X227574438Y-107716611D01*
X227573119Y-107718115D01*
X227570628Y-107716986D01*
X227559989Y-107691302D01*
X227500220Y-107601850D01*
X227453575Y-107555205D01*
X227453057Y-107553273D01*
X227454471Y-107551859D01*
X227456258Y-107552245D01*
X227470296Y-107563766D01*
X227491560Y-107575131D01*
X227514635Y-107582131D01*
X227538626Y-107584494D01*
X227562617Y-107582131D01*
X227585692Y-107575131D01*
X227606956Y-107563766D01*
X227625593Y-107548471D01*
X227640951Y-107529756D01*
X227642719Y-107527110D01*
X227644513Y-107526225D01*
X227646176Y-107527336D01*
G37*
G36*
X67069372Y-105643014D02*
G01*
X67080011Y-105668698D01*
X67139780Y-105758150D01*
X67186425Y-105804795D01*
X67186943Y-105806727D01*
X67185529Y-105808141D01*
X67183742Y-105807755D01*
X67169704Y-105796234D01*
X67148440Y-105784869D01*
X67125365Y-105777869D01*
X67101374Y-105775506D01*
X67077383Y-105777869D01*
X67054308Y-105784869D01*
X67033044Y-105796234D01*
X67014407Y-105811529D01*
X66999049Y-105830244D01*
X66997281Y-105832890D01*
X66995487Y-105833775D01*
X66993824Y-105832664D01*
X66993770Y-105831014D01*
X67060088Y-105670906D01*
X67065562Y-105643389D01*
X67066881Y-105641885D01*
X67069372Y-105643014D01*
G37*
G36*
X227574438Y-105643389D02*
G01*
X227579912Y-105670906D01*
X227646230Y-105831014D01*
X227645969Y-105832997D01*
X227644121Y-105833762D01*
X227642719Y-105832890D01*
X227640951Y-105830244D01*
X227625593Y-105811529D01*
X227606956Y-105796234D01*
X227585692Y-105784869D01*
X227562617Y-105777869D01*
X227538626Y-105775506D01*
X227514635Y-105777869D01*
X227491560Y-105784869D01*
X227470296Y-105796234D01*
X227456258Y-105807755D01*
X227454284Y-105808081D01*
X227453016Y-105806535D01*
X227453575Y-105804795D01*
X227500220Y-105758150D01*
X227559989Y-105668698D01*
X227570628Y-105643014D01*
X227572215Y-105641796D01*
X227574438Y-105643389D01*
G37*
G36*
X66997281Y-104987110D02*
G01*
X66999049Y-104989756D01*
X67014407Y-105008471D01*
X67033044Y-105023766D01*
X67054308Y-105035131D01*
X67077383Y-105042131D01*
X67101374Y-105044494D01*
X67125365Y-105042131D01*
X67148440Y-105035131D01*
X67169704Y-105023766D01*
X67183742Y-105012245D01*
X67185716Y-105011919D01*
X67186984Y-105013465D01*
X67186425Y-105015205D01*
X67139780Y-105061850D01*
X67080011Y-105151302D01*
X67069372Y-105176986D01*
X67067785Y-105178204D01*
X67065562Y-105176611D01*
X67060088Y-105149094D01*
X66993770Y-104988986D01*
X66994031Y-104987003D01*
X66995879Y-104986238D01*
X66997281Y-104987110D01*
G37*
G36*
X227646176Y-104987336D02*
G01*
X227646230Y-104988986D01*
X227579912Y-105149094D01*
X227574438Y-105176611D01*
X227573119Y-105178115D01*
X227570628Y-105176986D01*
X227559989Y-105151302D01*
X227500220Y-105061850D01*
X227453575Y-105015205D01*
X227453057Y-105013273D01*
X227454471Y-105011859D01*
X227456258Y-105012245D01*
X227470296Y-105023766D01*
X227491560Y-105035131D01*
X227514635Y-105042131D01*
X227538626Y-105044494D01*
X227562617Y-105042131D01*
X227585692Y-105035131D01*
X227606956Y-105023766D01*
X227625593Y-105008471D01*
X227640951Y-104989756D01*
X227642719Y-104987110D01*
X227644513Y-104986225D01*
X227646176Y-104987336D01*
G37*
G36*
X67069372Y-103103014D02*
G01*
X67080011Y-103128698D01*
X67139780Y-103218150D01*
X67186425Y-103264795D01*
X67186943Y-103266727D01*
X67185529Y-103268141D01*
X67183742Y-103267755D01*
X67169704Y-103256234D01*
X67148440Y-103244869D01*
X67125365Y-103237869D01*
X67101374Y-103235506D01*
X67077383Y-103237869D01*
X67054308Y-103244869D01*
X67033044Y-103256234D01*
X67014407Y-103271529D01*
X66999049Y-103290244D01*
X66997281Y-103292890D01*
X66995487Y-103293775D01*
X66993824Y-103292664D01*
X66993770Y-103291014D01*
X67060088Y-103130906D01*
X67065562Y-103103389D01*
X67066881Y-103101885D01*
X67069372Y-103103014D01*
G37*
G36*
X227574438Y-103103389D02*
G01*
X227579912Y-103130906D01*
X227646230Y-103291014D01*
X227645969Y-103292997D01*
X227644121Y-103293762D01*
X227642719Y-103292890D01*
X227640951Y-103290244D01*
X227625593Y-103271529D01*
X227606956Y-103256234D01*
X227585692Y-103244869D01*
X227562617Y-103237869D01*
X227538626Y-103235506D01*
X227514635Y-103237869D01*
X227491560Y-103244869D01*
X227470296Y-103256234D01*
X227456258Y-103267755D01*
X227454284Y-103268081D01*
X227453016Y-103266535D01*
X227453575Y-103264795D01*
X227500220Y-103218150D01*
X227559989Y-103128698D01*
X227570628Y-103103014D01*
X227572215Y-103101796D01*
X227574438Y-103103389D01*
G37*
G36*
X66997281Y-102447110D02*
G01*
X66999049Y-102449756D01*
X67014407Y-102468471D01*
X67033044Y-102483766D01*
X67054308Y-102495131D01*
X67077383Y-102502131D01*
X67101374Y-102504494D01*
X67125365Y-102502131D01*
X67148440Y-102495131D01*
X67169704Y-102483766D01*
X67183742Y-102472245D01*
X67185716Y-102471919D01*
X67186984Y-102473465D01*
X67186425Y-102475205D01*
X67139780Y-102521850D01*
X67080011Y-102611302D01*
X67069372Y-102636986D01*
X67067785Y-102638204D01*
X67065562Y-102636611D01*
X67060088Y-102609094D01*
X66993770Y-102448986D01*
X66994031Y-102447003D01*
X66995879Y-102446238D01*
X66997281Y-102447110D01*
G37*
G36*
X227646176Y-102447336D02*
G01*
X227646230Y-102448986D01*
X227579912Y-102609094D01*
X227574438Y-102636611D01*
X227573119Y-102638115D01*
X227570628Y-102636986D01*
X227559989Y-102611302D01*
X227500220Y-102521850D01*
X227453575Y-102475205D01*
X227453057Y-102473273D01*
X227454471Y-102471859D01*
X227456258Y-102472245D01*
X227470296Y-102483766D01*
X227491560Y-102495131D01*
X227514635Y-102502131D01*
X227538626Y-102504494D01*
X227562617Y-102502131D01*
X227585692Y-102495131D01*
X227606956Y-102483766D01*
X227625593Y-102468471D01*
X227640951Y-102449756D01*
X227642719Y-102447110D01*
X227644513Y-102446225D01*
X227646176Y-102447336D01*
G37*
G36*
X182309316Y-100565667D02*
G01*
X182356265Y-100597037D01*
X182411103Y-100619751D01*
X182469323Y-100631332D01*
X182508509Y-100631332D01*
X182510241Y-100632332D01*
X182510241Y-100634332D01*
X182508705Y-100635322D01*
X182490630Y-100637102D01*
X182467555Y-100644102D01*
X182446291Y-100655467D01*
X182427654Y-100670762D01*
X182412359Y-100689399D01*
X182400994Y-100710663D01*
X182393994Y-100733738D01*
X182391631Y-100757729D01*
X182393994Y-100781720D01*
X182400994Y-100804795D01*
X182412359Y-100826059D01*
X182427654Y-100844696D01*
X182433128Y-100849188D01*
X182433273Y-100849320D01*
X182437209Y-100853256D01*
X182437727Y-100855188D01*
X182436313Y-100856602D01*
X182434684Y-100856333D01*
X182387735Y-100824963D01*
X182332897Y-100802249D01*
X182274677Y-100790668D01*
X182235491Y-100790668D01*
X182233759Y-100789668D01*
X182233759Y-100787668D01*
X182235295Y-100786678D01*
X182253370Y-100784898D01*
X182276445Y-100777898D01*
X182297709Y-100766533D01*
X182316346Y-100751238D01*
X182331641Y-100732601D01*
X182343006Y-100711337D01*
X182350006Y-100688262D01*
X182352369Y-100664271D01*
X182350006Y-100640280D01*
X182343006Y-100617205D01*
X182331641Y-100595941D01*
X182316346Y-100577304D01*
X182310872Y-100572812D01*
X182310727Y-100572680D01*
X182306791Y-100568744D01*
X182306273Y-100566812D01*
X182307687Y-100565398D01*
X182309316Y-100565667D01*
G37*
G36*
X101604539Y-100499040D02*
G01*
X101619940Y-100522089D01*
X101661911Y-100564060D01*
X101711265Y-100597037D01*
X101746673Y-100611703D01*
X101747891Y-100613290D01*
X101747126Y-100615138D01*
X101745328Y-100615465D01*
X101727941Y-100610192D01*
X101703949Y-100607829D01*
X101679958Y-100610192D01*
X101656883Y-100617193D01*
X101635620Y-100628558D01*
X101616983Y-100643854D01*
X101601688Y-100662491D01*
X101590323Y-100683754D01*
X101583323Y-100706830D01*
X101580961Y-100730821D01*
X101583324Y-100754812D01*
X101590325Y-100777887D01*
X101598888Y-100793906D01*
X101598822Y-100795905D01*
X101597059Y-100796848D01*
X101595461Y-100795960D01*
X101580060Y-100772911D01*
X101538089Y-100730940D01*
X101488735Y-100697963D01*
X101453327Y-100683297D01*
X101452109Y-100681710D01*
X101452874Y-100679862D01*
X101454672Y-100679535D01*
X101472059Y-100684808D01*
X101496051Y-100687171D01*
X101520042Y-100684808D01*
X101543117Y-100677807D01*
X101564380Y-100666442D01*
X101583017Y-100651146D01*
X101598312Y-100632509D01*
X101609677Y-100611246D01*
X101616677Y-100588170D01*
X101619039Y-100564179D01*
X101616676Y-100540188D01*
X101609675Y-100517113D01*
X101601112Y-100501094D01*
X101601178Y-100499095D01*
X101602941Y-100498152D01*
X101604539Y-100499040D01*
G37*
G36*
X67069372Y-100563014D02*
G01*
X67080011Y-100588698D01*
X67139780Y-100678150D01*
X67186425Y-100724795D01*
X67186943Y-100726727D01*
X67185529Y-100728141D01*
X67183742Y-100727755D01*
X67169704Y-100716234D01*
X67148440Y-100704869D01*
X67125365Y-100697869D01*
X67101374Y-100695506D01*
X67077383Y-100697869D01*
X67054308Y-100704869D01*
X67033044Y-100716234D01*
X67014407Y-100731529D01*
X66999049Y-100750244D01*
X66997281Y-100752890D01*
X66995487Y-100753775D01*
X66993824Y-100752664D01*
X66993770Y-100751014D01*
X67060088Y-100590906D01*
X67065562Y-100563389D01*
X67066881Y-100561885D01*
X67069372Y-100563014D01*
G37*
G36*
X227574438Y-100563389D02*
G01*
X227579912Y-100590906D01*
X227646230Y-100751014D01*
X227645969Y-100752997D01*
X227644121Y-100753762D01*
X227642719Y-100752890D01*
X227640951Y-100750244D01*
X227625593Y-100731529D01*
X227606956Y-100716234D01*
X227585692Y-100704869D01*
X227562617Y-100697869D01*
X227538626Y-100695506D01*
X227514635Y-100697869D01*
X227491560Y-100704869D01*
X227470296Y-100716234D01*
X227456258Y-100727755D01*
X227454284Y-100728081D01*
X227453016Y-100726535D01*
X227453575Y-100724795D01*
X227500220Y-100678150D01*
X227559989Y-100588698D01*
X227570628Y-100563014D01*
X227572215Y-100561796D01*
X227574438Y-100563389D01*
G37*
G36*
X76934296Y-99929325D02*
G01*
X76948963Y-99964735D01*
X76981940Y-100014089D01*
X77023911Y-100056060D01*
X77046959Y-100071460D01*
X77047844Y-100073254D01*
X77046733Y-100074917D01*
X77044905Y-100074887D01*
X77028886Y-100066324D01*
X77005811Y-100059324D01*
X76981820Y-100056961D01*
X76957829Y-100059324D01*
X76934754Y-100066324D01*
X76913490Y-100077689D01*
X76894853Y-100092984D01*
X76879558Y-100111621D01*
X76868192Y-100132884D01*
X76861192Y-100155959D01*
X76858829Y-100179950D01*
X76861193Y-100203942D01*
X76866466Y-100221330D01*
X76866012Y-100223277D01*
X76864098Y-100223858D01*
X76862704Y-100222675D01*
X76848037Y-100187265D01*
X76815060Y-100137911D01*
X76773089Y-100095940D01*
X76750041Y-100080540D01*
X76749156Y-100078746D01*
X76750267Y-100077083D01*
X76752095Y-100077113D01*
X76768114Y-100085676D01*
X76791189Y-100092676D01*
X76815180Y-100095039D01*
X76839171Y-100092676D01*
X76862246Y-100085676D01*
X76883510Y-100074311D01*
X76902147Y-100059016D01*
X76917442Y-100040379D01*
X76928808Y-100019116D01*
X76935808Y-99996041D01*
X76938171Y-99972050D01*
X76935807Y-99948058D01*
X76930534Y-99930670D01*
X76930988Y-99928723D01*
X76932902Y-99928142D01*
X76934296Y-99929325D01*
G37*
G36*
X66997281Y-99907110D02*
G01*
X66999049Y-99909756D01*
X67014407Y-99928471D01*
X67033044Y-99943766D01*
X67054308Y-99955131D01*
X67077383Y-99962131D01*
X67101374Y-99964494D01*
X67125365Y-99962131D01*
X67148440Y-99955131D01*
X67169704Y-99943766D01*
X67183742Y-99932245D01*
X67185716Y-99931919D01*
X67186984Y-99933465D01*
X67186425Y-99935205D01*
X67139780Y-99981850D01*
X67080011Y-100071302D01*
X67069372Y-100096986D01*
X67067785Y-100098204D01*
X67065562Y-100096611D01*
X67060088Y-100069094D01*
X66993770Y-99908986D01*
X66994031Y-99907003D01*
X66995879Y-99906238D01*
X66997281Y-99907110D01*
G37*
G36*
X227646176Y-99907336D02*
G01*
X227646230Y-99908986D01*
X227579912Y-100069094D01*
X227574438Y-100096611D01*
X227573119Y-100098115D01*
X227570628Y-100096986D01*
X227559989Y-100071302D01*
X227500220Y-99981850D01*
X227453575Y-99935205D01*
X227453057Y-99933273D01*
X227454471Y-99931859D01*
X227456258Y-99932245D01*
X227470296Y-99943766D01*
X227491560Y-99955131D01*
X227514635Y-99962131D01*
X227538626Y-99964494D01*
X227562617Y-99962131D01*
X227585692Y-99955131D01*
X227606956Y-99943766D01*
X227625593Y-99928471D01*
X227640951Y-99909756D01*
X227642719Y-99907110D01*
X227644513Y-99906225D01*
X227646176Y-99907336D01*
G37*
G36*
X158494917Y-99229267D02*
G01*
X158494887Y-99231095D01*
X158486324Y-99247114D01*
X158479324Y-99270189D01*
X158476961Y-99294180D01*
X158479324Y-99318171D01*
X158486324Y-99341246D01*
X158497689Y-99362510D01*
X158512984Y-99381147D01*
X158531621Y-99396442D01*
X158552884Y-99407808D01*
X158575959Y-99414808D01*
X158599950Y-99417171D01*
X158623942Y-99414807D01*
X158641330Y-99409534D01*
X158643277Y-99409988D01*
X158643858Y-99411902D01*
X158642675Y-99413296D01*
X158607265Y-99427963D01*
X158557911Y-99460940D01*
X158515940Y-99502911D01*
X158500540Y-99525959D01*
X158498746Y-99526844D01*
X158497083Y-99525733D01*
X158497113Y-99523905D01*
X158505676Y-99507886D01*
X158512676Y-99484811D01*
X158515039Y-99460820D01*
X158512676Y-99436829D01*
X158505676Y-99413754D01*
X158494311Y-99392490D01*
X158479016Y-99373853D01*
X158460379Y-99358558D01*
X158439116Y-99347192D01*
X158416041Y-99340192D01*
X158392050Y-99337829D01*
X158368058Y-99340193D01*
X158350670Y-99345466D01*
X158348723Y-99345012D01*
X158348142Y-99343098D01*
X158349325Y-99341704D01*
X158384735Y-99327037D01*
X158434089Y-99294060D01*
X158476060Y-99252089D01*
X158491460Y-99229041D01*
X158493254Y-99228156D01*
X158494917Y-99229267D01*
G37*
G36*
X76773791Y-98535199D02*
G01*
X76773209Y-98536744D01*
X76769268Y-98540685D01*
X76769123Y-98540817D01*
X76763653Y-98545306D01*
X76748358Y-98563943D01*
X76736993Y-98585207D01*
X76729993Y-98608282D01*
X76727631Y-98632273D01*
X76729994Y-98656264D01*
X76736995Y-98679339D01*
X76748360Y-98700602D01*
X76763656Y-98719239D01*
X76782293Y-98734534D01*
X76803557Y-98745899D01*
X76826632Y-98752899D01*
X76844703Y-98754678D01*
X76846329Y-98755843D01*
X76846133Y-98757833D01*
X76844507Y-98758668D01*
X76805323Y-98758668D01*
X76747103Y-98770249D01*
X76692265Y-98792963D01*
X76645316Y-98824333D01*
X76643320Y-98824464D01*
X76642209Y-98822801D01*
X76642791Y-98821256D01*
X76646732Y-98817315D01*
X76646877Y-98817183D01*
X76652347Y-98812694D01*
X76667642Y-98794057D01*
X76679007Y-98772793D01*
X76686007Y-98749718D01*
X76688369Y-98725727D01*
X76686006Y-98701736D01*
X76679005Y-98678661D01*
X76667640Y-98657398D01*
X76652344Y-98638761D01*
X76633707Y-98623466D01*
X76612443Y-98612101D01*
X76589368Y-98605101D01*
X76571297Y-98603322D01*
X76569671Y-98602157D01*
X76569867Y-98600167D01*
X76571493Y-98599332D01*
X76610677Y-98599332D01*
X76668897Y-98587751D01*
X76723735Y-98565037D01*
X76770684Y-98533667D01*
X76772680Y-98533536D01*
X76773791Y-98535199D01*
G37*
G36*
X140382366Y-98547510D02*
G01*
X140381639Y-98549187D01*
X140367602Y-98560706D01*
X140352307Y-98579343D01*
X140340942Y-98600607D01*
X140333941Y-98623681D01*
X140331578Y-98647672D01*
X140333942Y-98671665D01*
X140340939Y-98694738D01*
X140352305Y-98716002D01*
X140367600Y-98734640D01*
X140386237Y-98749935D01*
X140407501Y-98761300D01*
X140417400Y-98764304D01*
X140417584Y-98764370D01*
X140421217Y-98765875D01*
X140422435Y-98767462D01*
X140421669Y-98769310D01*
X140420062Y-98769685D01*
X140364677Y-98758668D01*
X140305323Y-98758668D01*
X140247103Y-98770249D01*
X140192265Y-98792963D01*
X140163741Y-98812022D01*
X140161745Y-98812153D01*
X140160634Y-98810490D01*
X140161361Y-98808813D01*
X140175398Y-98797294D01*
X140190693Y-98778657D01*
X140202058Y-98757393D01*
X140209059Y-98734319D01*
X140211422Y-98710328D01*
X140209058Y-98686335D01*
X140202061Y-98663262D01*
X140190695Y-98641998D01*
X140175400Y-98623360D01*
X140156763Y-98608065D01*
X140135499Y-98596700D01*
X140125600Y-98593696D01*
X140125416Y-98593630D01*
X140121783Y-98592125D01*
X140120565Y-98590538D01*
X140121331Y-98588690D01*
X140122938Y-98588315D01*
X140178323Y-98599332D01*
X140237677Y-98599332D01*
X140295897Y-98587751D01*
X140350735Y-98565037D01*
X140379259Y-98545978D01*
X140381255Y-98545847D01*
X140382366Y-98547510D01*
G37*
G36*
X67069372Y-98023014D02*
G01*
X67080011Y-98048698D01*
X67139780Y-98138150D01*
X67186425Y-98184795D01*
X67186943Y-98186727D01*
X67185529Y-98188141D01*
X67183742Y-98187755D01*
X67169704Y-98176234D01*
X67148440Y-98164869D01*
X67125365Y-98157869D01*
X67101374Y-98155506D01*
X67077383Y-98157869D01*
X67054308Y-98164869D01*
X67033044Y-98176234D01*
X67014407Y-98191529D01*
X66999049Y-98210244D01*
X66997281Y-98212890D01*
X66995487Y-98213775D01*
X66993824Y-98212664D01*
X66993770Y-98211014D01*
X67060088Y-98050906D01*
X67065562Y-98023389D01*
X67066881Y-98021885D01*
X67069372Y-98023014D01*
G37*
G36*
X227574438Y-98023389D02*
G01*
X227579912Y-98050906D01*
X227646230Y-98211014D01*
X227645969Y-98212997D01*
X227644121Y-98213762D01*
X227642719Y-98212890D01*
X227640951Y-98210244D01*
X227625593Y-98191529D01*
X227606956Y-98176234D01*
X227585692Y-98164869D01*
X227562617Y-98157869D01*
X227538626Y-98155506D01*
X227514635Y-98157869D01*
X227491560Y-98164869D01*
X227470296Y-98176234D01*
X227456258Y-98187755D01*
X227454284Y-98188081D01*
X227453016Y-98186535D01*
X227453575Y-98184795D01*
X227500220Y-98138150D01*
X227559989Y-98048698D01*
X227570628Y-98023014D01*
X227572215Y-98021796D01*
X227574438Y-98023389D01*
G37*
G36*
X66997281Y-97367110D02*
G01*
X66999049Y-97369756D01*
X67014407Y-97388471D01*
X67033044Y-97403766D01*
X67054308Y-97415131D01*
X67077383Y-97422131D01*
X67101374Y-97424494D01*
X67125365Y-97422131D01*
X67148440Y-97415131D01*
X67169704Y-97403766D01*
X67183742Y-97392245D01*
X67185716Y-97391919D01*
X67186984Y-97393465D01*
X67186425Y-97395205D01*
X67139780Y-97441850D01*
X67080011Y-97531302D01*
X67069372Y-97556986D01*
X67067785Y-97558204D01*
X67065562Y-97556611D01*
X67060088Y-97529094D01*
X66993770Y-97368986D01*
X66994031Y-97367003D01*
X66995879Y-97366238D01*
X66997281Y-97367110D01*
G37*
G36*
X227646176Y-97367336D02*
G01*
X227646230Y-97368986D01*
X227579912Y-97529094D01*
X227574438Y-97556611D01*
X227573119Y-97558115D01*
X227570628Y-97556986D01*
X227559989Y-97531302D01*
X227500220Y-97441850D01*
X227453575Y-97395205D01*
X227453057Y-97393273D01*
X227454471Y-97391859D01*
X227456258Y-97392245D01*
X227470296Y-97403766D01*
X227491560Y-97415131D01*
X227514635Y-97422131D01*
X227538626Y-97424494D01*
X227562617Y-97422131D01*
X227585692Y-97415131D01*
X227606956Y-97403766D01*
X227625593Y-97388471D01*
X227640951Y-97369756D01*
X227642719Y-97367110D01*
X227644513Y-97366225D01*
X227646176Y-97367336D01*
G37*
G36*
X67069372Y-95483014D02*
G01*
X67080011Y-95508698D01*
X67139780Y-95598150D01*
X67186425Y-95644795D01*
X67186943Y-95646727D01*
X67185529Y-95648141D01*
X67183742Y-95647755D01*
X67169704Y-95636234D01*
X67148440Y-95624869D01*
X67125365Y-95617869D01*
X67101374Y-95615506D01*
X67077383Y-95617869D01*
X67054308Y-95624869D01*
X67033044Y-95636234D01*
X67014407Y-95651529D01*
X66999049Y-95670244D01*
X66997281Y-95672890D01*
X66995487Y-95673775D01*
X66993824Y-95672664D01*
X66993770Y-95671014D01*
X67060088Y-95510906D01*
X67065562Y-95483389D01*
X67066881Y-95481885D01*
X67069372Y-95483014D01*
G37*
G36*
X227574438Y-95483389D02*
G01*
X227579912Y-95510906D01*
X227646230Y-95671014D01*
X227645969Y-95672997D01*
X227644121Y-95673762D01*
X227642719Y-95672890D01*
X227640951Y-95670244D01*
X227625593Y-95651529D01*
X227606956Y-95636234D01*
X227585692Y-95624869D01*
X227562617Y-95617869D01*
X227538626Y-95615506D01*
X227514635Y-95617869D01*
X227491560Y-95624869D01*
X227470296Y-95636234D01*
X227456258Y-95647755D01*
X227454284Y-95648081D01*
X227453016Y-95646535D01*
X227453575Y-95644795D01*
X227500220Y-95598150D01*
X227559989Y-95508698D01*
X227570628Y-95483014D01*
X227572215Y-95481796D01*
X227574438Y-95483389D01*
G37*
G36*
X66997281Y-94827110D02*
G01*
X66999049Y-94829756D01*
X67014407Y-94848471D01*
X67033044Y-94863766D01*
X67054308Y-94875131D01*
X67077383Y-94882131D01*
X67101374Y-94884494D01*
X67125365Y-94882131D01*
X67148440Y-94875131D01*
X67169704Y-94863766D01*
X67183742Y-94852245D01*
X67185716Y-94851919D01*
X67186984Y-94853465D01*
X67186425Y-94855205D01*
X67139780Y-94901850D01*
X67080011Y-94991302D01*
X67069372Y-95016986D01*
X67067785Y-95018204D01*
X67065562Y-95016611D01*
X67060088Y-94989094D01*
X66993770Y-94828986D01*
X66994031Y-94827003D01*
X66995879Y-94826238D01*
X66997281Y-94827110D01*
G37*
G36*
X227646176Y-94827336D02*
G01*
X227646230Y-94828986D01*
X227579912Y-94989094D01*
X227574438Y-95016611D01*
X227573119Y-95018115D01*
X227570628Y-95016986D01*
X227559989Y-94991302D01*
X227500220Y-94901850D01*
X227453575Y-94855205D01*
X227453057Y-94853273D01*
X227454471Y-94851859D01*
X227456258Y-94852245D01*
X227470296Y-94863766D01*
X227491560Y-94875131D01*
X227514635Y-94882131D01*
X227538626Y-94884494D01*
X227562617Y-94882131D01*
X227585692Y-94875131D01*
X227606956Y-94863766D01*
X227625593Y-94848471D01*
X227640951Y-94829756D01*
X227642719Y-94827110D01*
X227644513Y-94826225D01*
X227646176Y-94827336D01*
G37*
G36*
X104953965Y-91844774D02*
G01*
X104954800Y-91846400D01*
X104954800Y-91902760D01*
X104954790Y-91902956D01*
X104947589Y-91976068D01*
X104947513Y-91976453D01*
X104927976Y-92040857D01*
X104927826Y-92041219D01*
X104896104Y-92100566D01*
X104895886Y-92100892D01*
X104853193Y-92152916D01*
X104852916Y-92153193D01*
X104800892Y-92195886D01*
X104800566Y-92196104D01*
X104741219Y-92227826D01*
X104740857Y-92227976D01*
X104676453Y-92247513D01*
X104676068Y-92247589D01*
X104602956Y-92254790D01*
X104602760Y-92254800D01*
X104546400Y-92254800D01*
X104544668Y-92253800D01*
X104544668Y-92251800D01*
X104546204Y-92250810D01*
X104625290Y-92243021D01*
X104701154Y-92220008D01*
X104771068Y-92182638D01*
X104832347Y-92132347D01*
X104882638Y-92071068D01*
X104920008Y-92001154D01*
X104943021Y-91925290D01*
X104950810Y-91846204D01*
X104951975Y-91844578D01*
X104953965Y-91844774D01*
G37*
G36*
X164289190Y-91846204D02*
G01*
X164296979Y-91925290D01*
X164319992Y-92001154D01*
X164357362Y-92071068D01*
X164407653Y-92132347D01*
X164468932Y-92182638D01*
X164538846Y-92220008D01*
X164614710Y-92243021D01*
X164693796Y-92250810D01*
X164695422Y-92251975D01*
X164695226Y-92253965D01*
X164693600Y-92254800D01*
X164637240Y-92254800D01*
X164637044Y-92254790D01*
X164563932Y-92247589D01*
X164563547Y-92247513D01*
X164499143Y-92227976D01*
X164498781Y-92227826D01*
X164439434Y-92196104D01*
X164439108Y-92195886D01*
X164387084Y-92153193D01*
X164386807Y-92152916D01*
X164344114Y-92100892D01*
X164343896Y-92100566D01*
X164312174Y-92041219D01*
X164312024Y-92040857D01*
X164292487Y-91976453D01*
X164292411Y-91976068D01*
X164285210Y-91902956D01*
X164285200Y-91902760D01*
X164285200Y-91846400D01*
X164286200Y-91844668D01*
X164288200Y-91844668D01*
X164289190Y-91846204D01*
G37*
G36*
X186233965Y-91844774D02*
G01*
X186234800Y-91846400D01*
X186234800Y-91902760D01*
X186234790Y-91902956D01*
X186227589Y-91976068D01*
X186227513Y-91976453D01*
X186207976Y-92040857D01*
X186207826Y-92041219D01*
X186176104Y-92100566D01*
X186175886Y-92100892D01*
X186133193Y-92152916D01*
X186132916Y-92153193D01*
X186080892Y-92195886D01*
X186080566Y-92196104D01*
X186021219Y-92227826D01*
X186020857Y-92227976D01*
X185956453Y-92247513D01*
X185956068Y-92247589D01*
X185882956Y-92254790D01*
X185882760Y-92254800D01*
X185826400Y-92254800D01*
X185824668Y-92253800D01*
X185824668Y-92251800D01*
X185826204Y-92250810D01*
X185905290Y-92243021D01*
X185981154Y-92220008D01*
X186051068Y-92182638D01*
X186112347Y-92132347D01*
X186162638Y-92071068D01*
X186200008Y-92001154D01*
X186223021Y-91925290D01*
X186230810Y-91846204D01*
X186231975Y-91844578D01*
X186233965Y-91844774D01*
G37*
G36*
X206553965Y-91844774D02*
G01*
X206554800Y-91846400D01*
X206554800Y-91902760D01*
X206554790Y-91902956D01*
X206547589Y-91976068D01*
X206547513Y-91976453D01*
X206527976Y-92040857D01*
X206527826Y-92041219D01*
X206496104Y-92100566D01*
X206495886Y-92100892D01*
X206453193Y-92152916D01*
X206452916Y-92153193D01*
X206400892Y-92195886D01*
X206400566Y-92196104D01*
X206341219Y-92227826D01*
X206340857Y-92227976D01*
X206276453Y-92247513D01*
X206276068Y-92247589D01*
X206202956Y-92254790D01*
X206202760Y-92254800D01*
X206146400Y-92254800D01*
X206144668Y-92253800D01*
X206144668Y-92251800D01*
X206146204Y-92250810D01*
X206225290Y-92243021D01*
X206301154Y-92220008D01*
X206371068Y-92182638D01*
X206432347Y-92132347D01*
X206482638Y-92071068D01*
X206520008Y-92001154D01*
X206543021Y-91925290D01*
X206550810Y-91846204D01*
X206551975Y-91844578D01*
X206553965Y-91844774D01*
G37*
G36*
X83009190Y-91846204D02*
G01*
X83016979Y-91925290D01*
X83039992Y-92001154D01*
X83077362Y-92071068D01*
X83127653Y-92132347D01*
X83188932Y-92182638D01*
X83258846Y-92220008D01*
X83334710Y-92243021D01*
X83413796Y-92250810D01*
X83415422Y-92251975D01*
X83415226Y-92253965D01*
X83413600Y-92254800D01*
X83357240Y-92254800D01*
X83357044Y-92254790D01*
X83283932Y-92247589D01*
X83283547Y-92247513D01*
X83219143Y-92227976D01*
X83218781Y-92227826D01*
X83159434Y-92196104D01*
X83159108Y-92195886D01*
X83107084Y-92153193D01*
X83106807Y-92152916D01*
X83064114Y-92100892D01*
X83063896Y-92100566D01*
X83032174Y-92041219D01*
X83032024Y-92040857D01*
X83012487Y-91976453D01*
X83012411Y-91976068D01*
X83005210Y-91902956D01*
X83005200Y-91902760D01*
X83005200Y-91846400D01*
X83006200Y-91844668D01*
X83008200Y-91844668D01*
X83009190Y-91846204D01*
G37*
G36*
X103329190Y-91846204D02*
G01*
X103336979Y-91925290D01*
X103359992Y-92001154D01*
X103397362Y-92071068D01*
X103447653Y-92132347D01*
X103508932Y-92182638D01*
X103578846Y-92220008D01*
X103654710Y-92243021D01*
X103733796Y-92250810D01*
X103735422Y-92251975D01*
X103735226Y-92253965D01*
X103733600Y-92254800D01*
X103677240Y-92254800D01*
X103677044Y-92254790D01*
X103603932Y-92247589D01*
X103603547Y-92247513D01*
X103539143Y-92227976D01*
X103538781Y-92227826D01*
X103479434Y-92196104D01*
X103479108Y-92195886D01*
X103427084Y-92153193D01*
X103426807Y-92152916D01*
X103384114Y-92100892D01*
X103383896Y-92100566D01*
X103352174Y-92041219D01*
X103352024Y-92040857D01*
X103332487Y-91976453D01*
X103332411Y-91976068D01*
X103325210Y-91902956D01*
X103325200Y-91902760D01*
X103325200Y-91846400D01*
X103326200Y-91844668D01*
X103328200Y-91844668D01*
X103329190Y-91846204D01*
G37*
G36*
X165913965Y-91844774D02*
G01*
X165914800Y-91846400D01*
X165914800Y-91902760D01*
X165914790Y-91902956D01*
X165907589Y-91976068D01*
X165907513Y-91976453D01*
X165887976Y-92040857D01*
X165887826Y-92041219D01*
X165856104Y-92100566D01*
X165855886Y-92100892D01*
X165813193Y-92152916D01*
X165812916Y-92153193D01*
X165760892Y-92195886D01*
X165760566Y-92196104D01*
X165701219Y-92227826D01*
X165700857Y-92227976D01*
X165636453Y-92247513D01*
X165636068Y-92247589D01*
X165562956Y-92254790D01*
X165562760Y-92254800D01*
X165506400Y-92254800D01*
X165504668Y-92253800D01*
X165504668Y-92251800D01*
X165506204Y-92250810D01*
X165585290Y-92243021D01*
X165661154Y-92220008D01*
X165731068Y-92182638D01*
X165792347Y-92132347D01*
X165842638Y-92071068D01*
X165880008Y-92001154D01*
X165903021Y-91925290D01*
X165910810Y-91846204D01*
X165911975Y-91844578D01*
X165913965Y-91844774D01*
G37*
G36*
X145593965Y-91844774D02*
G01*
X145594800Y-91846400D01*
X145594800Y-91902760D01*
X145594790Y-91902956D01*
X145587589Y-91976068D01*
X145587513Y-91976453D01*
X145567976Y-92040857D01*
X145567826Y-92041219D01*
X145536104Y-92100566D01*
X145535886Y-92100892D01*
X145493193Y-92152916D01*
X145492916Y-92153193D01*
X145440892Y-92195886D01*
X145440566Y-92196104D01*
X145381219Y-92227826D01*
X145380857Y-92227976D01*
X145316453Y-92247513D01*
X145316068Y-92247589D01*
X145242956Y-92254790D01*
X145242760Y-92254800D01*
X145186400Y-92254800D01*
X145184668Y-92253800D01*
X145184668Y-92251800D01*
X145186204Y-92250810D01*
X145265290Y-92243021D01*
X145341154Y-92220008D01*
X145411068Y-92182638D01*
X145472347Y-92132347D01*
X145522638Y-92071068D01*
X145560008Y-92001154D01*
X145583021Y-91925290D01*
X145590810Y-91846204D01*
X145591975Y-91844578D01*
X145593965Y-91844774D01*
G37*
G36*
X125273965Y-91844774D02*
G01*
X125274800Y-91846400D01*
X125274800Y-91902760D01*
X125274790Y-91902956D01*
X125267589Y-91976068D01*
X125267513Y-91976453D01*
X125247976Y-92040857D01*
X125247826Y-92041219D01*
X125216104Y-92100566D01*
X125215886Y-92100892D01*
X125173193Y-92152916D01*
X125172916Y-92153193D01*
X125120892Y-92195886D01*
X125120566Y-92196104D01*
X125061219Y-92227826D01*
X125060857Y-92227976D01*
X124996453Y-92247513D01*
X124996068Y-92247589D01*
X124922956Y-92254790D01*
X124922760Y-92254800D01*
X124866400Y-92254800D01*
X124864668Y-92253800D01*
X124864668Y-92251800D01*
X124866204Y-92250810D01*
X124945290Y-92243021D01*
X125021154Y-92220008D01*
X125091068Y-92182638D01*
X125152347Y-92132347D01*
X125202638Y-92071068D01*
X125240008Y-92001154D01*
X125263021Y-91925290D01*
X125270810Y-91846204D01*
X125271975Y-91844578D01*
X125273965Y-91844774D01*
G37*
G36*
X143969190Y-91846204D02*
G01*
X143976979Y-91925290D01*
X143999992Y-92001154D01*
X144037362Y-92071068D01*
X144087653Y-92132347D01*
X144148932Y-92182638D01*
X144218846Y-92220008D01*
X144294710Y-92243021D01*
X144373796Y-92250810D01*
X144375422Y-92251975D01*
X144375226Y-92253965D01*
X144373600Y-92254800D01*
X144317240Y-92254800D01*
X144317044Y-92254790D01*
X144243932Y-92247589D01*
X144243547Y-92247513D01*
X144179143Y-92227976D01*
X144178781Y-92227826D01*
X144119434Y-92196104D01*
X144119108Y-92195886D01*
X144067084Y-92153193D01*
X144066807Y-92152916D01*
X144024114Y-92100892D01*
X144023896Y-92100566D01*
X143992174Y-92041219D01*
X143992024Y-92040857D01*
X143972487Y-91976453D01*
X143972411Y-91976068D01*
X143965210Y-91902956D01*
X143965200Y-91902760D01*
X143965200Y-91846400D01*
X143966200Y-91844668D01*
X143968200Y-91844668D01*
X143969190Y-91846204D01*
G37*
G36*
X184609190Y-91846204D02*
G01*
X184616979Y-91925290D01*
X184639992Y-92001154D01*
X184677362Y-92071068D01*
X184727653Y-92132347D01*
X184788932Y-92182638D01*
X184858846Y-92220008D01*
X184934710Y-92243021D01*
X185013796Y-92250810D01*
X185015422Y-92251975D01*
X185015226Y-92253965D01*
X185013600Y-92254800D01*
X184957240Y-92254800D01*
X184957044Y-92254790D01*
X184883932Y-92247589D01*
X184883547Y-92247513D01*
X184819143Y-92227976D01*
X184818781Y-92227826D01*
X184759434Y-92196104D01*
X184759108Y-92195886D01*
X184707084Y-92153193D01*
X184706807Y-92152916D01*
X184664114Y-92100892D01*
X184663896Y-92100566D01*
X184632174Y-92041219D01*
X184632024Y-92040857D01*
X184612487Y-91976453D01*
X184612411Y-91976068D01*
X184605210Y-91902956D01*
X184605200Y-91902760D01*
X184605200Y-91846400D01*
X184606200Y-91844668D01*
X184608200Y-91844668D01*
X184609190Y-91846204D01*
G37*
G36*
X84633965Y-91844774D02*
G01*
X84634800Y-91846400D01*
X84634800Y-91902760D01*
X84634790Y-91902956D01*
X84627589Y-91976068D01*
X84627513Y-91976453D01*
X84607976Y-92040857D01*
X84607826Y-92041219D01*
X84576104Y-92100566D01*
X84575886Y-92100892D01*
X84533193Y-92152916D01*
X84532916Y-92153193D01*
X84480892Y-92195886D01*
X84480566Y-92196104D01*
X84421219Y-92227826D01*
X84420857Y-92227976D01*
X84356453Y-92247513D01*
X84356068Y-92247589D01*
X84282956Y-92254790D01*
X84282760Y-92254800D01*
X84226400Y-92254800D01*
X84224668Y-92253800D01*
X84224668Y-92251800D01*
X84226204Y-92250810D01*
X84305290Y-92243021D01*
X84381154Y-92220008D01*
X84451068Y-92182638D01*
X84512347Y-92132347D01*
X84562638Y-92071068D01*
X84600008Y-92001154D01*
X84623021Y-91925290D01*
X84630810Y-91846204D01*
X84631975Y-91844578D01*
X84633965Y-91844774D01*
G37*
G36*
X225249190Y-91846204D02*
G01*
X225256979Y-91925290D01*
X225279992Y-92001154D01*
X225317362Y-92071068D01*
X225367653Y-92132347D01*
X225428932Y-92182638D01*
X225498846Y-92220008D01*
X225574710Y-92243021D01*
X225653796Y-92250810D01*
X225655422Y-92251975D01*
X225655226Y-92253965D01*
X225653600Y-92254800D01*
X225597240Y-92254800D01*
X225597044Y-92254790D01*
X225523932Y-92247589D01*
X225523547Y-92247513D01*
X225459143Y-92227976D01*
X225458781Y-92227826D01*
X225399434Y-92196104D01*
X225399108Y-92195886D01*
X225347084Y-92153193D01*
X225346807Y-92152916D01*
X225304114Y-92100892D01*
X225303896Y-92100566D01*
X225272174Y-92041219D01*
X225272024Y-92040857D01*
X225252487Y-91976453D01*
X225252411Y-91976068D01*
X225245210Y-91902956D01*
X225245200Y-91902760D01*
X225245200Y-91846400D01*
X225246200Y-91844668D01*
X225248200Y-91844668D01*
X225249190Y-91846204D01*
G37*
G36*
X204929190Y-91846204D02*
G01*
X204936979Y-91925290D01*
X204959992Y-92001154D01*
X204997362Y-92071068D01*
X205047653Y-92132347D01*
X205108932Y-92182638D01*
X205178846Y-92220008D01*
X205254710Y-92243021D01*
X205333796Y-92250810D01*
X205335422Y-92251975D01*
X205335226Y-92253965D01*
X205333600Y-92254800D01*
X205277240Y-92254800D01*
X205277044Y-92254790D01*
X205203932Y-92247589D01*
X205203547Y-92247513D01*
X205139143Y-92227976D01*
X205138781Y-92227826D01*
X205079434Y-92196104D01*
X205079108Y-92195886D01*
X205027084Y-92153193D01*
X205026807Y-92152916D01*
X204984114Y-92100892D01*
X204983896Y-92100566D01*
X204952174Y-92041219D01*
X204952024Y-92040857D01*
X204932487Y-91976453D01*
X204932411Y-91976068D01*
X204925210Y-91902956D01*
X204925200Y-91902760D01*
X204925200Y-91846400D01*
X204926200Y-91844668D01*
X204928200Y-91844668D01*
X204929190Y-91846204D01*
G37*
G36*
X226873965Y-91844774D02*
G01*
X226874800Y-91846400D01*
X226874800Y-91902760D01*
X226874790Y-91902956D01*
X226867589Y-91976068D01*
X226867513Y-91976453D01*
X226847976Y-92040857D01*
X226847826Y-92041219D01*
X226816104Y-92100566D01*
X226815886Y-92100892D01*
X226773193Y-92152916D01*
X226772916Y-92153193D01*
X226720892Y-92195886D01*
X226720566Y-92196104D01*
X226661219Y-92227826D01*
X226660857Y-92227976D01*
X226596453Y-92247513D01*
X226596068Y-92247589D01*
X226522956Y-92254790D01*
X226522760Y-92254800D01*
X226466400Y-92254800D01*
X226464668Y-92253800D01*
X226464668Y-92251800D01*
X226466204Y-92250810D01*
X226545290Y-92243021D01*
X226621154Y-92220008D01*
X226691068Y-92182638D01*
X226752347Y-92132347D01*
X226802638Y-92071068D01*
X226840008Y-92001154D01*
X226863021Y-91925290D01*
X226870810Y-91846204D01*
X226871975Y-91844578D01*
X226873965Y-91844774D01*
G37*
G36*
X123649190Y-91846204D02*
G01*
X123656979Y-91925290D01*
X123679992Y-92001154D01*
X123717362Y-92071068D01*
X123767653Y-92132347D01*
X123828932Y-92182638D01*
X123898846Y-92220008D01*
X123974710Y-92243021D01*
X124053796Y-92250810D01*
X124055422Y-92251975D01*
X124055226Y-92253965D01*
X124053600Y-92254800D01*
X123997240Y-92254800D01*
X123997044Y-92254790D01*
X123923932Y-92247589D01*
X123923547Y-92247513D01*
X123859143Y-92227976D01*
X123858781Y-92227826D01*
X123799434Y-92196104D01*
X123799108Y-92195886D01*
X123747084Y-92153193D01*
X123746807Y-92152916D01*
X123704114Y-92100892D01*
X123703896Y-92100566D01*
X123672174Y-92041219D01*
X123672024Y-92040857D01*
X123652487Y-91976453D01*
X123652411Y-91976068D01*
X123645210Y-91902956D01*
X123645200Y-91902760D01*
X123645200Y-91846400D01*
X123646200Y-91844668D01*
X123648200Y-91844668D01*
X123649190Y-91846204D01*
G37*
G36*
X164695332Y-90626200D02*
G01*
X164695332Y-90628200D01*
X164693796Y-90629190D01*
X164614710Y-90636979D01*
X164538846Y-90659992D01*
X164468932Y-90697362D01*
X164407653Y-90747653D01*
X164357362Y-90808932D01*
X164319992Y-90878846D01*
X164296979Y-90954710D01*
X164289190Y-91033796D01*
X164288025Y-91035422D01*
X164286035Y-91035226D01*
X164285200Y-91033600D01*
X164285200Y-90977240D01*
X164285210Y-90977044D01*
X164292411Y-90903932D01*
X164292487Y-90903547D01*
X164312024Y-90839143D01*
X164312174Y-90838781D01*
X164343896Y-90779434D01*
X164344114Y-90779108D01*
X164386807Y-90727084D01*
X164387084Y-90726807D01*
X164439108Y-90684114D01*
X164439434Y-90683896D01*
X164498781Y-90652174D01*
X164499143Y-90652024D01*
X164563547Y-90632487D01*
X164563932Y-90632411D01*
X164637044Y-90625210D01*
X164637240Y-90625200D01*
X164693600Y-90625200D01*
X164695332Y-90626200D01*
G37*
G36*
X225655332Y-90626200D02*
G01*
X225655332Y-90628200D01*
X225653796Y-90629190D01*
X225574710Y-90636979D01*
X225498846Y-90659992D01*
X225428932Y-90697362D01*
X225367653Y-90747653D01*
X225317362Y-90808932D01*
X225279992Y-90878846D01*
X225256979Y-90954710D01*
X225249190Y-91033796D01*
X225248025Y-91035422D01*
X225246035Y-91035226D01*
X225245200Y-91033600D01*
X225245200Y-90977240D01*
X225245210Y-90977044D01*
X225252411Y-90903932D01*
X225252487Y-90903547D01*
X225272024Y-90839143D01*
X225272174Y-90838781D01*
X225303896Y-90779434D01*
X225304114Y-90779108D01*
X225346807Y-90727084D01*
X225347084Y-90726807D01*
X225399108Y-90684114D01*
X225399434Y-90683896D01*
X225458781Y-90652174D01*
X225459143Y-90652024D01*
X225523547Y-90632487D01*
X225523932Y-90632411D01*
X225597044Y-90625210D01*
X225597240Y-90625200D01*
X225653600Y-90625200D01*
X225655332Y-90626200D01*
G37*
G36*
X205335332Y-90626200D02*
G01*
X205335332Y-90628200D01*
X205333796Y-90629190D01*
X205254710Y-90636979D01*
X205178846Y-90659992D01*
X205108932Y-90697362D01*
X205047653Y-90747653D01*
X204997362Y-90808932D01*
X204959992Y-90878846D01*
X204936979Y-90954710D01*
X204929190Y-91033796D01*
X204928025Y-91035422D01*
X204926035Y-91035226D01*
X204925200Y-91033600D01*
X204925200Y-90977240D01*
X204925210Y-90977044D01*
X204932411Y-90903932D01*
X204932487Y-90903547D01*
X204952024Y-90839143D01*
X204952174Y-90838781D01*
X204983896Y-90779434D01*
X204984114Y-90779108D01*
X205026807Y-90727084D01*
X205027084Y-90726807D01*
X205079108Y-90684114D01*
X205079434Y-90683896D01*
X205138781Y-90652174D01*
X205139143Y-90652024D01*
X205203547Y-90632487D01*
X205203932Y-90632411D01*
X205277044Y-90625210D01*
X205277240Y-90625200D01*
X205333600Y-90625200D01*
X205335332Y-90626200D01*
G37*
G36*
X185015332Y-90626200D02*
G01*
X185015332Y-90628200D01*
X185013796Y-90629190D01*
X184934710Y-90636979D01*
X184858846Y-90659992D01*
X184788932Y-90697362D01*
X184727653Y-90747653D01*
X184677362Y-90808932D01*
X184639992Y-90878846D01*
X184616979Y-90954710D01*
X184609190Y-91033796D01*
X184608025Y-91035422D01*
X184606035Y-91035226D01*
X184605200Y-91033600D01*
X184605200Y-90977240D01*
X184605210Y-90977044D01*
X184612411Y-90903932D01*
X184612487Y-90903547D01*
X184632024Y-90839143D01*
X184632174Y-90838781D01*
X184663896Y-90779434D01*
X184664114Y-90779108D01*
X184706807Y-90727084D01*
X184707084Y-90726807D01*
X184759108Y-90684114D01*
X184759434Y-90683896D01*
X184818781Y-90652174D01*
X184819143Y-90652024D01*
X184883547Y-90632487D01*
X184883932Y-90632411D01*
X184957044Y-90625210D01*
X184957240Y-90625200D01*
X185013600Y-90625200D01*
X185015332Y-90626200D01*
G37*
G36*
X144375332Y-90626200D02*
G01*
X144375332Y-90628200D01*
X144373796Y-90629190D01*
X144294710Y-90636979D01*
X144218846Y-90659992D01*
X144148932Y-90697362D01*
X144087653Y-90747653D01*
X144037362Y-90808932D01*
X143999992Y-90878846D01*
X143976979Y-90954710D01*
X143969190Y-91033796D01*
X143968025Y-91035422D01*
X143966035Y-91035226D01*
X143965200Y-91033600D01*
X143965200Y-90977240D01*
X143965210Y-90977044D01*
X143972411Y-90903932D01*
X143972487Y-90903547D01*
X143992024Y-90839143D01*
X143992174Y-90838781D01*
X144023896Y-90779434D01*
X144024114Y-90779108D01*
X144066807Y-90727084D01*
X144067084Y-90726807D01*
X144119108Y-90684114D01*
X144119434Y-90683896D01*
X144178781Y-90652174D01*
X144179143Y-90652024D01*
X144243547Y-90632487D01*
X144243932Y-90632411D01*
X144317044Y-90625210D01*
X144317240Y-90625200D01*
X144373600Y-90625200D01*
X144375332Y-90626200D01*
G37*
G36*
X124055332Y-90626200D02*
G01*
X124055332Y-90628200D01*
X124053796Y-90629190D01*
X123974710Y-90636979D01*
X123898846Y-90659992D01*
X123828932Y-90697362D01*
X123767653Y-90747653D01*
X123717362Y-90808932D01*
X123679992Y-90878846D01*
X123656979Y-90954710D01*
X123649190Y-91033796D01*
X123648025Y-91035422D01*
X123646035Y-91035226D01*
X123645200Y-91033600D01*
X123645200Y-90977240D01*
X123645210Y-90977044D01*
X123652411Y-90903932D01*
X123652487Y-90903547D01*
X123672024Y-90839143D01*
X123672174Y-90838781D01*
X123703896Y-90779434D01*
X123704114Y-90779108D01*
X123746807Y-90727084D01*
X123747084Y-90726807D01*
X123799108Y-90684114D01*
X123799434Y-90683896D01*
X123858781Y-90652174D01*
X123859143Y-90652024D01*
X123923547Y-90632487D01*
X123923932Y-90632411D01*
X123997044Y-90625210D01*
X123997240Y-90625200D01*
X124053600Y-90625200D01*
X124055332Y-90626200D01*
G37*
G36*
X103735332Y-90626200D02*
G01*
X103735332Y-90628200D01*
X103733796Y-90629190D01*
X103654710Y-90636979D01*
X103578846Y-90659992D01*
X103508932Y-90697362D01*
X103447653Y-90747653D01*
X103397362Y-90808932D01*
X103359992Y-90878846D01*
X103336979Y-90954710D01*
X103329190Y-91033796D01*
X103328025Y-91035422D01*
X103326035Y-91035226D01*
X103325200Y-91033600D01*
X103325200Y-90977240D01*
X103325210Y-90977044D01*
X103332411Y-90903932D01*
X103332487Y-90903547D01*
X103352024Y-90839143D01*
X103352174Y-90838781D01*
X103383896Y-90779434D01*
X103384114Y-90779108D01*
X103426807Y-90727084D01*
X103427084Y-90726807D01*
X103479108Y-90684114D01*
X103479434Y-90683896D01*
X103538781Y-90652174D01*
X103539143Y-90652024D01*
X103603547Y-90632487D01*
X103603932Y-90632411D01*
X103677044Y-90625210D01*
X103677240Y-90625200D01*
X103733600Y-90625200D01*
X103735332Y-90626200D01*
G37*
G36*
X83415332Y-90626200D02*
G01*
X83415332Y-90628200D01*
X83413796Y-90629190D01*
X83334710Y-90636979D01*
X83258846Y-90659992D01*
X83188932Y-90697362D01*
X83127653Y-90747653D01*
X83077362Y-90808932D01*
X83039992Y-90878846D01*
X83016979Y-90954710D01*
X83009190Y-91033796D01*
X83008025Y-91035422D01*
X83006035Y-91035226D01*
X83005200Y-91033600D01*
X83005200Y-90977240D01*
X83005210Y-90977044D01*
X83012411Y-90903932D01*
X83012487Y-90903547D01*
X83032024Y-90839143D01*
X83032174Y-90838781D01*
X83063896Y-90779434D01*
X83064114Y-90779108D01*
X83106807Y-90727084D01*
X83107084Y-90726807D01*
X83159108Y-90684114D01*
X83159434Y-90683896D01*
X83218781Y-90652174D01*
X83219143Y-90652024D01*
X83283547Y-90632487D01*
X83283932Y-90632411D01*
X83357044Y-90625210D01*
X83357240Y-90625200D01*
X83413600Y-90625200D01*
X83415332Y-90626200D01*
G37*
G36*
X165562956Y-90625210D02*
G01*
X165636068Y-90632411D01*
X165636453Y-90632487D01*
X165700857Y-90652024D01*
X165701219Y-90652174D01*
X165760566Y-90683896D01*
X165760892Y-90684114D01*
X165812916Y-90726807D01*
X165813193Y-90727084D01*
X165855886Y-90779108D01*
X165856104Y-90779434D01*
X165887826Y-90838781D01*
X165887976Y-90839143D01*
X165907513Y-90903547D01*
X165907589Y-90903932D01*
X165914790Y-90977044D01*
X165914800Y-90977240D01*
X165914800Y-91033600D01*
X165913800Y-91035332D01*
X165911800Y-91035332D01*
X165910810Y-91033796D01*
X165903021Y-90954710D01*
X165880008Y-90878846D01*
X165842638Y-90808932D01*
X165792347Y-90747653D01*
X165731068Y-90697362D01*
X165661154Y-90659992D01*
X165585290Y-90636979D01*
X165506204Y-90629190D01*
X165504578Y-90628025D01*
X165504774Y-90626035D01*
X165506400Y-90625200D01*
X165562760Y-90625200D01*
X165562956Y-90625210D01*
G37*
G36*
X206202956Y-90625210D02*
G01*
X206276068Y-90632411D01*
X206276453Y-90632487D01*
X206340857Y-90652024D01*
X206341219Y-90652174D01*
X206400566Y-90683896D01*
X206400892Y-90684114D01*
X206452916Y-90726807D01*
X206453193Y-90727084D01*
X206495886Y-90779108D01*
X206496104Y-90779434D01*
X206527826Y-90838781D01*
X206527976Y-90839143D01*
X206547513Y-90903547D01*
X206547589Y-90903932D01*
X206554790Y-90977044D01*
X206554800Y-90977240D01*
X206554800Y-91033600D01*
X206553800Y-91035332D01*
X206551800Y-91035332D01*
X206550810Y-91033796D01*
X206543021Y-90954710D01*
X206520008Y-90878846D01*
X206482638Y-90808932D01*
X206432347Y-90747653D01*
X206371068Y-90697362D01*
X206301154Y-90659992D01*
X206225290Y-90636979D01*
X206146204Y-90629190D01*
X206144578Y-90628025D01*
X206144774Y-90626035D01*
X206146400Y-90625200D01*
X206202760Y-90625200D01*
X206202956Y-90625210D01*
G37*
G36*
X226522956Y-90625210D02*
G01*
X226596068Y-90632411D01*
X226596453Y-90632487D01*
X226660857Y-90652024D01*
X226661219Y-90652174D01*
X226720566Y-90683896D01*
X226720892Y-90684114D01*
X226772916Y-90726807D01*
X226773193Y-90727084D01*
X226815886Y-90779108D01*
X226816104Y-90779434D01*
X226847826Y-90838781D01*
X226847976Y-90839143D01*
X226867513Y-90903547D01*
X226867589Y-90903932D01*
X226874790Y-90977044D01*
X226874800Y-90977240D01*
X226874800Y-91033600D01*
X226873800Y-91035332D01*
X226871800Y-91035332D01*
X226870810Y-91033796D01*
X226863021Y-90954710D01*
X226840008Y-90878846D01*
X226802638Y-90808932D01*
X226752347Y-90747653D01*
X226691068Y-90697362D01*
X226621154Y-90659992D01*
X226545290Y-90636979D01*
X226466204Y-90629190D01*
X226464578Y-90628025D01*
X226464774Y-90626035D01*
X226466400Y-90625200D01*
X226522760Y-90625200D01*
X226522956Y-90625210D01*
G37*
G36*
X104602956Y-90625210D02*
G01*
X104676068Y-90632411D01*
X104676453Y-90632487D01*
X104740857Y-90652024D01*
X104741219Y-90652174D01*
X104800566Y-90683896D01*
X104800892Y-90684114D01*
X104852916Y-90726807D01*
X104853193Y-90727084D01*
X104895886Y-90779108D01*
X104896104Y-90779434D01*
X104927826Y-90838781D01*
X104927976Y-90839143D01*
X104947513Y-90903547D01*
X104947589Y-90903932D01*
X104954790Y-90977044D01*
X104954800Y-90977240D01*
X104954800Y-91033600D01*
X104953800Y-91035332D01*
X104951800Y-91035332D01*
X104950810Y-91033796D01*
X104943021Y-90954710D01*
X104920008Y-90878846D01*
X104882638Y-90808932D01*
X104832347Y-90747653D01*
X104771068Y-90697362D01*
X104701154Y-90659992D01*
X104625290Y-90636979D01*
X104546204Y-90629190D01*
X104544578Y-90628025D01*
X104544774Y-90626035D01*
X104546400Y-90625200D01*
X104602760Y-90625200D01*
X104602956Y-90625210D01*
G37*
G36*
X84282956Y-90625210D02*
G01*
X84356068Y-90632411D01*
X84356453Y-90632487D01*
X84420857Y-90652024D01*
X84421219Y-90652174D01*
X84480566Y-90683896D01*
X84480892Y-90684114D01*
X84532916Y-90726807D01*
X84533193Y-90727084D01*
X84575886Y-90779108D01*
X84576104Y-90779434D01*
X84607826Y-90838781D01*
X84607976Y-90839143D01*
X84627513Y-90903547D01*
X84627589Y-90903932D01*
X84634790Y-90977044D01*
X84634800Y-90977240D01*
X84634800Y-91033600D01*
X84633800Y-91035332D01*
X84631800Y-91035332D01*
X84630810Y-91033796D01*
X84623021Y-90954710D01*
X84600008Y-90878846D01*
X84562638Y-90808932D01*
X84512347Y-90747653D01*
X84451068Y-90697362D01*
X84381154Y-90659992D01*
X84305290Y-90636979D01*
X84226204Y-90629190D01*
X84224578Y-90628025D01*
X84224774Y-90626035D01*
X84226400Y-90625200D01*
X84282760Y-90625200D01*
X84282956Y-90625210D01*
G37*
G36*
X124922956Y-90625210D02*
G01*
X124996068Y-90632411D01*
X124996453Y-90632487D01*
X125060857Y-90652024D01*
X125061219Y-90652174D01*
X125120566Y-90683896D01*
X125120892Y-90684114D01*
X125172916Y-90726807D01*
X125173193Y-90727084D01*
X125215886Y-90779108D01*
X125216104Y-90779434D01*
X125247826Y-90838781D01*
X125247976Y-90839143D01*
X125267513Y-90903547D01*
X125267589Y-90903932D01*
X125274790Y-90977044D01*
X125274800Y-90977240D01*
X125274800Y-91033600D01*
X125273800Y-91035332D01*
X125271800Y-91035332D01*
X125270810Y-91033796D01*
X125263021Y-90954710D01*
X125240008Y-90878846D01*
X125202638Y-90808932D01*
X125152347Y-90747653D01*
X125091068Y-90697362D01*
X125021154Y-90659992D01*
X124945290Y-90636979D01*
X124866204Y-90629190D01*
X124864578Y-90628025D01*
X124864774Y-90626035D01*
X124866400Y-90625200D01*
X124922760Y-90625200D01*
X124922956Y-90625210D01*
G37*
G36*
X185882956Y-90625210D02*
G01*
X185956068Y-90632411D01*
X185956453Y-90632487D01*
X186020857Y-90652024D01*
X186021219Y-90652174D01*
X186080566Y-90683896D01*
X186080892Y-90684114D01*
X186132916Y-90726807D01*
X186133193Y-90727084D01*
X186175886Y-90779108D01*
X186176104Y-90779434D01*
X186207826Y-90838781D01*
X186207976Y-90839143D01*
X186227513Y-90903547D01*
X186227589Y-90903932D01*
X186234790Y-90977044D01*
X186234800Y-90977240D01*
X186234800Y-91033600D01*
X186233800Y-91035332D01*
X186231800Y-91035332D01*
X186230810Y-91033796D01*
X186223021Y-90954710D01*
X186200008Y-90878846D01*
X186162638Y-90808932D01*
X186112347Y-90747653D01*
X186051068Y-90697362D01*
X185981154Y-90659992D01*
X185905290Y-90636979D01*
X185826204Y-90629190D01*
X185824578Y-90628025D01*
X185824774Y-90626035D01*
X185826400Y-90625200D01*
X185882760Y-90625200D01*
X185882956Y-90625210D01*
G37*
G36*
X145242956Y-90625210D02*
G01*
X145316068Y-90632411D01*
X145316453Y-90632487D01*
X145380857Y-90652024D01*
X145381219Y-90652174D01*
X145440566Y-90683896D01*
X145440892Y-90684114D01*
X145492916Y-90726807D01*
X145493193Y-90727084D01*
X145535886Y-90779108D01*
X145536104Y-90779434D01*
X145567826Y-90838781D01*
X145567976Y-90839143D01*
X145587513Y-90903547D01*
X145587589Y-90903932D01*
X145594790Y-90977044D01*
X145594800Y-90977240D01*
X145594800Y-91033600D01*
X145593800Y-91035332D01*
X145591800Y-91035332D01*
X145590810Y-91033796D01*
X145583021Y-90954710D01*
X145560008Y-90878846D01*
X145522638Y-90808932D01*
X145472347Y-90747653D01*
X145411068Y-90697362D01*
X145341154Y-90659992D01*
X145265290Y-90636979D01*
X145186204Y-90629190D01*
X145184578Y-90628025D01*
X145184774Y-90626035D01*
X145186400Y-90625200D01*
X145242760Y-90625200D01*
X145242956Y-90625210D01*
G37*
M02*
