G04 #@! TF.GenerationSoftware,KiCad,Pcbnew,(5.1.4-7-g3f91db25d)*
G04 #@! TF.CreationDate,2019-09-28T14:27:35-04:00*
G04 #@! TF.ProjectId,16seg,31367365-672e-46b6-9963-61645f706362,rev?*
G04 #@! TF.SameCoordinates,Original*
G04 #@! TF.FileFunction,Copper,L4,Bot*
G04 #@! TF.FilePolarity,Positive*
%FSLAX46Y46*%
G04 Gerber Fmt 4.6, Leading zero omitted, Abs format (unit mm)*
G04 Created by KiCad (PCBNEW (5.1.4-7-g3f91db25d)) date 2019-09-28 14:27:35*
%MOMM*%
%LPD*%
G04 APERTURE LIST*
%ADD10C,1.000000*%
%ADD11C,1.524000*%
%ADD12C,0.100000*%
%ADD13O,1.700000X1.700000*%
%ADD14C,1.700000*%
%ADD15C,0.508000*%
%ADD16C,1.270000*%
%ADD17C,1.000000*%
%ADD18C,0.762000*%
%ADD19C,0.508000*%
%ADD20C,0.254000*%
G04 APERTURE END LIST*
D10*
X67564000Y-110490000D03*
X67564000Y-107950000D03*
X67564000Y-105410000D03*
X67564000Y-102870000D03*
X67564000Y-100330000D03*
X67564000Y-97790000D03*
X67564000Y-95250000D03*
X227076000Y-95250000D03*
X227076000Y-97790000D03*
X227076000Y-100330000D03*
X227076000Y-102870000D03*
X227076000Y-105410000D03*
X227076000Y-107950000D03*
X227076000Y-110490000D03*
D11*
X68580000Y-91440000D03*
X68580000Y-93980000D03*
X68580000Y-96520000D03*
X68580000Y-99060000D03*
X68580000Y-101600000D03*
X68580000Y-104140000D03*
X68580000Y-106680000D03*
X68580000Y-109220000D03*
X68580000Y-111760000D03*
X83820000Y-111760000D03*
X83820000Y-109220000D03*
X83820000Y-106680000D03*
X83820000Y-104140000D03*
X83820000Y-101600000D03*
X83820000Y-99060000D03*
X83820000Y-96520000D03*
X83820000Y-93980000D03*
D12*
G36*
X84238345Y-90679835D02*
G01*
X84275329Y-90685321D01*
X84311598Y-90694406D01*
X84346802Y-90707002D01*
X84380602Y-90722988D01*
X84412672Y-90742210D01*
X84442704Y-90764483D01*
X84470408Y-90789592D01*
X84495517Y-90817296D01*
X84517790Y-90847328D01*
X84537012Y-90879398D01*
X84552998Y-90913198D01*
X84565594Y-90948402D01*
X84574679Y-90984671D01*
X84580165Y-91021655D01*
X84582000Y-91059000D01*
X84582000Y-91821000D01*
X84580165Y-91858345D01*
X84574679Y-91895329D01*
X84565594Y-91931598D01*
X84552998Y-91966802D01*
X84537012Y-92000602D01*
X84517790Y-92032672D01*
X84495517Y-92062704D01*
X84470408Y-92090408D01*
X84442704Y-92115517D01*
X84412672Y-92137790D01*
X84380602Y-92157012D01*
X84346802Y-92172998D01*
X84311598Y-92185594D01*
X84275329Y-92194679D01*
X84238345Y-92200165D01*
X84201000Y-92202000D01*
X83439000Y-92202000D01*
X83401655Y-92200165D01*
X83364671Y-92194679D01*
X83328402Y-92185594D01*
X83293198Y-92172998D01*
X83259398Y-92157012D01*
X83227328Y-92137790D01*
X83197296Y-92115517D01*
X83169592Y-92090408D01*
X83144483Y-92062704D01*
X83122210Y-92032672D01*
X83102988Y-92000602D01*
X83087002Y-91966802D01*
X83074406Y-91931598D01*
X83065321Y-91895329D01*
X83059835Y-91858345D01*
X83058000Y-91821000D01*
X83058000Y-91059000D01*
X83059835Y-91021655D01*
X83065321Y-90984671D01*
X83074406Y-90948402D01*
X83087002Y-90913198D01*
X83102988Y-90879398D01*
X83122210Y-90847328D01*
X83144483Y-90817296D01*
X83169592Y-90789592D01*
X83197296Y-90764483D01*
X83227328Y-90742210D01*
X83259398Y-90722988D01*
X83293198Y-90707002D01*
X83328402Y-90694406D01*
X83364671Y-90685321D01*
X83401655Y-90679835D01*
X83439000Y-90678000D01*
X84201000Y-90678000D01*
X84238345Y-90679835D01*
X84238345Y-90679835D01*
G37*
D11*
X83820000Y-91440000D03*
X210820000Y-91440000D03*
X210820000Y-93980000D03*
X210820000Y-96520000D03*
X210820000Y-99060000D03*
X210820000Y-101600000D03*
X210820000Y-104140000D03*
X210820000Y-106680000D03*
X210820000Y-109220000D03*
X210820000Y-111760000D03*
X226060000Y-111760000D03*
X226060000Y-109220000D03*
X226060000Y-106680000D03*
X226060000Y-104140000D03*
X226060000Y-101600000D03*
X226060000Y-99060000D03*
X226060000Y-96520000D03*
X226060000Y-93980000D03*
D12*
G36*
X226478345Y-90679835D02*
G01*
X226515329Y-90685321D01*
X226551598Y-90694406D01*
X226586802Y-90707002D01*
X226620602Y-90722988D01*
X226652672Y-90742210D01*
X226682704Y-90764483D01*
X226710408Y-90789592D01*
X226735517Y-90817296D01*
X226757790Y-90847328D01*
X226777012Y-90879398D01*
X226792998Y-90913198D01*
X226805594Y-90948402D01*
X226814679Y-90984671D01*
X226820165Y-91021655D01*
X226822000Y-91059000D01*
X226822000Y-91821000D01*
X226820165Y-91858345D01*
X226814679Y-91895329D01*
X226805594Y-91931598D01*
X226792998Y-91966802D01*
X226777012Y-92000602D01*
X226757790Y-92032672D01*
X226735517Y-92062704D01*
X226710408Y-92090408D01*
X226682704Y-92115517D01*
X226652672Y-92137790D01*
X226620602Y-92157012D01*
X226586802Y-92172998D01*
X226551598Y-92185594D01*
X226515329Y-92194679D01*
X226478345Y-92200165D01*
X226441000Y-92202000D01*
X225679000Y-92202000D01*
X225641655Y-92200165D01*
X225604671Y-92194679D01*
X225568402Y-92185594D01*
X225533198Y-92172998D01*
X225499398Y-92157012D01*
X225467328Y-92137790D01*
X225437296Y-92115517D01*
X225409592Y-92090408D01*
X225384483Y-92062704D01*
X225362210Y-92032672D01*
X225342988Y-92000602D01*
X225327002Y-91966802D01*
X225314406Y-91931598D01*
X225305321Y-91895329D01*
X225299835Y-91858345D01*
X225298000Y-91821000D01*
X225298000Y-91059000D01*
X225299835Y-91021655D01*
X225305321Y-90984671D01*
X225314406Y-90948402D01*
X225327002Y-90913198D01*
X225342988Y-90879398D01*
X225362210Y-90847328D01*
X225384483Y-90817296D01*
X225409592Y-90789592D01*
X225437296Y-90764483D01*
X225467328Y-90742210D01*
X225499398Y-90722988D01*
X225533198Y-90707002D01*
X225568402Y-90694406D01*
X225604671Y-90685321D01*
X225641655Y-90679835D01*
X225679000Y-90678000D01*
X226441000Y-90678000D01*
X226478345Y-90679835D01*
X226478345Y-90679835D01*
G37*
D11*
X226060000Y-91440000D03*
X190500000Y-91440000D03*
X190500000Y-93980000D03*
X190500000Y-96520000D03*
X190500000Y-99060000D03*
X190500000Y-101600000D03*
X190500000Y-104140000D03*
X190500000Y-106680000D03*
X190500000Y-109220000D03*
X190500000Y-111760000D03*
X205740000Y-111760000D03*
X205740000Y-109220000D03*
X205740000Y-106680000D03*
X205740000Y-104140000D03*
X205740000Y-101600000D03*
X205740000Y-99060000D03*
X205740000Y-96520000D03*
X205740000Y-93980000D03*
D12*
G36*
X206158345Y-90679835D02*
G01*
X206195329Y-90685321D01*
X206231598Y-90694406D01*
X206266802Y-90707002D01*
X206300602Y-90722988D01*
X206332672Y-90742210D01*
X206362704Y-90764483D01*
X206390408Y-90789592D01*
X206415517Y-90817296D01*
X206437790Y-90847328D01*
X206457012Y-90879398D01*
X206472998Y-90913198D01*
X206485594Y-90948402D01*
X206494679Y-90984671D01*
X206500165Y-91021655D01*
X206502000Y-91059000D01*
X206502000Y-91821000D01*
X206500165Y-91858345D01*
X206494679Y-91895329D01*
X206485594Y-91931598D01*
X206472998Y-91966802D01*
X206457012Y-92000602D01*
X206437790Y-92032672D01*
X206415517Y-92062704D01*
X206390408Y-92090408D01*
X206362704Y-92115517D01*
X206332672Y-92137790D01*
X206300602Y-92157012D01*
X206266802Y-92172998D01*
X206231598Y-92185594D01*
X206195329Y-92194679D01*
X206158345Y-92200165D01*
X206121000Y-92202000D01*
X205359000Y-92202000D01*
X205321655Y-92200165D01*
X205284671Y-92194679D01*
X205248402Y-92185594D01*
X205213198Y-92172998D01*
X205179398Y-92157012D01*
X205147328Y-92137790D01*
X205117296Y-92115517D01*
X205089592Y-92090408D01*
X205064483Y-92062704D01*
X205042210Y-92032672D01*
X205022988Y-92000602D01*
X205007002Y-91966802D01*
X204994406Y-91931598D01*
X204985321Y-91895329D01*
X204979835Y-91858345D01*
X204978000Y-91821000D01*
X204978000Y-91059000D01*
X204979835Y-91021655D01*
X204985321Y-90984671D01*
X204994406Y-90948402D01*
X205007002Y-90913198D01*
X205022988Y-90879398D01*
X205042210Y-90847328D01*
X205064483Y-90817296D01*
X205089592Y-90789592D01*
X205117296Y-90764483D01*
X205147328Y-90742210D01*
X205179398Y-90722988D01*
X205213198Y-90707002D01*
X205248402Y-90694406D01*
X205284671Y-90685321D01*
X205321655Y-90679835D01*
X205359000Y-90678000D01*
X206121000Y-90678000D01*
X206158345Y-90679835D01*
X206158345Y-90679835D01*
G37*
D11*
X205740000Y-91440000D03*
X170180000Y-91440000D03*
X170180000Y-93980000D03*
X170180000Y-96520000D03*
X170180000Y-99060000D03*
X170180000Y-101600000D03*
X170180000Y-104140000D03*
X170180000Y-106680000D03*
X170180000Y-109220000D03*
X170180000Y-111760000D03*
X185420000Y-111760000D03*
X185420000Y-109220000D03*
X185420000Y-106680000D03*
X185420000Y-104140000D03*
X185420000Y-101600000D03*
X185420000Y-99060000D03*
X185420000Y-96520000D03*
X185420000Y-93980000D03*
D12*
G36*
X185838345Y-90679835D02*
G01*
X185875329Y-90685321D01*
X185911598Y-90694406D01*
X185946802Y-90707002D01*
X185980602Y-90722988D01*
X186012672Y-90742210D01*
X186042704Y-90764483D01*
X186070408Y-90789592D01*
X186095517Y-90817296D01*
X186117790Y-90847328D01*
X186137012Y-90879398D01*
X186152998Y-90913198D01*
X186165594Y-90948402D01*
X186174679Y-90984671D01*
X186180165Y-91021655D01*
X186182000Y-91059000D01*
X186182000Y-91821000D01*
X186180165Y-91858345D01*
X186174679Y-91895329D01*
X186165594Y-91931598D01*
X186152998Y-91966802D01*
X186137012Y-92000602D01*
X186117790Y-92032672D01*
X186095517Y-92062704D01*
X186070408Y-92090408D01*
X186042704Y-92115517D01*
X186012672Y-92137790D01*
X185980602Y-92157012D01*
X185946802Y-92172998D01*
X185911598Y-92185594D01*
X185875329Y-92194679D01*
X185838345Y-92200165D01*
X185801000Y-92202000D01*
X185039000Y-92202000D01*
X185001655Y-92200165D01*
X184964671Y-92194679D01*
X184928402Y-92185594D01*
X184893198Y-92172998D01*
X184859398Y-92157012D01*
X184827328Y-92137790D01*
X184797296Y-92115517D01*
X184769592Y-92090408D01*
X184744483Y-92062704D01*
X184722210Y-92032672D01*
X184702988Y-92000602D01*
X184687002Y-91966802D01*
X184674406Y-91931598D01*
X184665321Y-91895329D01*
X184659835Y-91858345D01*
X184658000Y-91821000D01*
X184658000Y-91059000D01*
X184659835Y-91021655D01*
X184665321Y-90984671D01*
X184674406Y-90948402D01*
X184687002Y-90913198D01*
X184702988Y-90879398D01*
X184722210Y-90847328D01*
X184744483Y-90817296D01*
X184769592Y-90789592D01*
X184797296Y-90764483D01*
X184827328Y-90742210D01*
X184859398Y-90722988D01*
X184893198Y-90707002D01*
X184928402Y-90694406D01*
X184964671Y-90685321D01*
X185001655Y-90679835D01*
X185039000Y-90678000D01*
X185801000Y-90678000D01*
X185838345Y-90679835D01*
X185838345Y-90679835D01*
G37*
D11*
X185420000Y-91440000D03*
X149860000Y-91440000D03*
X149860000Y-93980000D03*
X149860000Y-96520000D03*
X149860000Y-99060000D03*
X149860000Y-101600000D03*
X149860000Y-104140000D03*
X149860000Y-106680000D03*
X149860000Y-109220000D03*
X149860000Y-111760000D03*
X165100000Y-111760000D03*
X165100000Y-109220000D03*
X165100000Y-106680000D03*
X165100000Y-104140000D03*
X165100000Y-101600000D03*
X165100000Y-99060000D03*
X165100000Y-96520000D03*
X165100000Y-93980000D03*
D12*
G36*
X165518345Y-90679835D02*
G01*
X165555329Y-90685321D01*
X165591598Y-90694406D01*
X165626802Y-90707002D01*
X165660602Y-90722988D01*
X165692672Y-90742210D01*
X165722704Y-90764483D01*
X165750408Y-90789592D01*
X165775517Y-90817296D01*
X165797790Y-90847328D01*
X165817012Y-90879398D01*
X165832998Y-90913198D01*
X165845594Y-90948402D01*
X165854679Y-90984671D01*
X165860165Y-91021655D01*
X165862000Y-91059000D01*
X165862000Y-91821000D01*
X165860165Y-91858345D01*
X165854679Y-91895329D01*
X165845594Y-91931598D01*
X165832998Y-91966802D01*
X165817012Y-92000602D01*
X165797790Y-92032672D01*
X165775517Y-92062704D01*
X165750408Y-92090408D01*
X165722704Y-92115517D01*
X165692672Y-92137790D01*
X165660602Y-92157012D01*
X165626802Y-92172998D01*
X165591598Y-92185594D01*
X165555329Y-92194679D01*
X165518345Y-92200165D01*
X165481000Y-92202000D01*
X164719000Y-92202000D01*
X164681655Y-92200165D01*
X164644671Y-92194679D01*
X164608402Y-92185594D01*
X164573198Y-92172998D01*
X164539398Y-92157012D01*
X164507328Y-92137790D01*
X164477296Y-92115517D01*
X164449592Y-92090408D01*
X164424483Y-92062704D01*
X164402210Y-92032672D01*
X164382988Y-92000602D01*
X164367002Y-91966802D01*
X164354406Y-91931598D01*
X164345321Y-91895329D01*
X164339835Y-91858345D01*
X164338000Y-91821000D01*
X164338000Y-91059000D01*
X164339835Y-91021655D01*
X164345321Y-90984671D01*
X164354406Y-90948402D01*
X164367002Y-90913198D01*
X164382988Y-90879398D01*
X164402210Y-90847328D01*
X164424483Y-90817296D01*
X164449592Y-90789592D01*
X164477296Y-90764483D01*
X164507328Y-90742210D01*
X164539398Y-90722988D01*
X164573198Y-90707002D01*
X164608402Y-90694406D01*
X164644671Y-90685321D01*
X164681655Y-90679835D01*
X164719000Y-90678000D01*
X165481000Y-90678000D01*
X165518345Y-90679835D01*
X165518345Y-90679835D01*
G37*
D11*
X165100000Y-91440000D03*
X129540000Y-91440000D03*
X129540000Y-93980000D03*
X129540000Y-96520000D03*
X129540000Y-99060000D03*
X129540000Y-101600000D03*
X129540000Y-104140000D03*
X129540000Y-106680000D03*
X129540000Y-109220000D03*
X129540000Y-111760000D03*
X144780000Y-111760000D03*
X144780000Y-109220000D03*
X144780000Y-106680000D03*
X144780000Y-104140000D03*
X144780000Y-101600000D03*
X144780000Y-99060000D03*
X144780000Y-96520000D03*
X144780000Y-93980000D03*
D12*
G36*
X145198345Y-90679835D02*
G01*
X145235329Y-90685321D01*
X145271598Y-90694406D01*
X145306802Y-90707002D01*
X145340602Y-90722988D01*
X145372672Y-90742210D01*
X145402704Y-90764483D01*
X145430408Y-90789592D01*
X145455517Y-90817296D01*
X145477790Y-90847328D01*
X145497012Y-90879398D01*
X145512998Y-90913198D01*
X145525594Y-90948402D01*
X145534679Y-90984671D01*
X145540165Y-91021655D01*
X145542000Y-91059000D01*
X145542000Y-91821000D01*
X145540165Y-91858345D01*
X145534679Y-91895329D01*
X145525594Y-91931598D01*
X145512998Y-91966802D01*
X145497012Y-92000602D01*
X145477790Y-92032672D01*
X145455517Y-92062704D01*
X145430408Y-92090408D01*
X145402704Y-92115517D01*
X145372672Y-92137790D01*
X145340602Y-92157012D01*
X145306802Y-92172998D01*
X145271598Y-92185594D01*
X145235329Y-92194679D01*
X145198345Y-92200165D01*
X145161000Y-92202000D01*
X144399000Y-92202000D01*
X144361655Y-92200165D01*
X144324671Y-92194679D01*
X144288402Y-92185594D01*
X144253198Y-92172998D01*
X144219398Y-92157012D01*
X144187328Y-92137790D01*
X144157296Y-92115517D01*
X144129592Y-92090408D01*
X144104483Y-92062704D01*
X144082210Y-92032672D01*
X144062988Y-92000602D01*
X144047002Y-91966802D01*
X144034406Y-91931598D01*
X144025321Y-91895329D01*
X144019835Y-91858345D01*
X144018000Y-91821000D01*
X144018000Y-91059000D01*
X144019835Y-91021655D01*
X144025321Y-90984671D01*
X144034406Y-90948402D01*
X144047002Y-90913198D01*
X144062988Y-90879398D01*
X144082210Y-90847328D01*
X144104483Y-90817296D01*
X144129592Y-90789592D01*
X144157296Y-90764483D01*
X144187328Y-90742210D01*
X144219398Y-90722988D01*
X144253198Y-90707002D01*
X144288402Y-90694406D01*
X144324671Y-90685321D01*
X144361655Y-90679835D01*
X144399000Y-90678000D01*
X145161000Y-90678000D01*
X145198345Y-90679835D01*
X145198345Y-90679835D01*
G37*
D11*
X144780000Y-91440000D03*
X109220000Y-91440000D03*
X109220000Y-93980000D03*
X109220000Y-96520000D03*
X109220000Y-99060000D03*
X109220000Y-101600000D03*
X109220000Y-104140000D03*
X109220000Y-106680000D03*
X109220000Y-109220000D03*
X109220000Y-111760000D03*
X124460000Y-111760000D03*
X124460000Y-109220000D03*
X124460000Y-106680000D03*
X124460000Y-104140000D03*
X124460000Y-101600000D03*
X124460000Y-99060000D03*
X124460000Y-96520000D03*
X124460000Y-93980000D03*
D12*
G36*
X124878345Y-90679835D02*
G01*
X124915329Y-90685321D01*
X124951598Y-90694406D01*
X124986802Y-90707002D01*
X125020602Y-90722988D01*
X125052672Y-90742210D01*
X125082704Y-90764483D01*
X125110408Y-90789592D01*
X125135517Y-90817296D01*
X125157790Y-90847328D01*
X125177012Y-90879398D01*
X125192998Y-90913198D01*
X125205594Y-90948402D01*
X125214679Y-90984671D01*
X125220165Y-91021655D01*
X125222000Y-91059000D01*
X125222000Y-91821000D01*
X125220165Y-91858345D01*
X125214679Y-91895329D01*
X125205594Y-91931598D01*
X125192998Y-91966802D01*
X125177012Y-92000602D01*
X125157790Y-92032672D01*
X125135517Y-92062704D01*
X125110408Y-92090408D01*
X125082704Y-92115517D01*
X125052672Y-92137790D01*
X125020602Y-92157012D01*
X124986802Y-92172998D01*
X124951598Y-92185594D01*
X124915329Y-92194679D01*
X124878345Y-92200165D01*
X124841000Y-92202000D01*
X124079000Y-92202000D01*
X124041655Y-92200165D01*
X124004671Y-92194679D01*
X123968402Y-92185594D01*
X123933198Y-92172998D01*
X123899398Y-92157012D01*
X123867328Y-92137790D01*
X123837296Y-92115517D01*
X123809592Y-92090408D01*
X123784483Y-92062704D01*
X123762210Y-92032672D01*
X123742988Y-92000602D01*
X123727002Y-91966802D01*
X123714406Y-91931598D01*
X123705321Y-91895329D01*
X123699835Y-91858345D01*
X123698000Y-91821000D01*
X123698000Y-91059000D01*
X123699835Y-91021655D01*
X123705321Y-90984671D01*
X123714406Y-90948402D01*
X123727002Y-90913198D01*
X123742988Y-90879398D01*
X123762210Y-90847328D01*
X123784483Y-90817296D01*
X123809592Y-90789592D01*
X123837296Y-90764483D01*
X123867328Y-90742210D01*
X123899398Y-90722988D01*
X123933198Y-90707002D01*
X123968402Y-90694406D01*
X124004671Y-90685321D01*
X124041655Y-90679835D01*
X124079000Y-90678000D01*
X124841000Y-90678000D01*
X124878345Y-90679835D01*
X124878345Y-90679835D01*
G37*
D11*
X124460000Y-91440000D03*
X88900000Y-91440000D03*
X88900000Y-93980000D03*
X88900000Y-96520000D03*
X88900000Y-99060000D03*
X88900000Y-101600000D03*
X88900000Y-104140000D03*
X88900000Y-106680000D03*
X88900000Y-109220000D03*
X88900000Y-111760000D03*
X104140000Y-111760000D03*
X104140000Y-109220000D03*
X104140000Y-106680000D03*
X104140000Y-104140000D03*
X104140000Y-101600000D03*
X104140000Y-99060000D03*
X104140000Y-96520000D03*
X104140000Y-93980000D03*
D12*
G36*
X104558345Y-90679835D02*
G01*
X104595329Y-90685321D01*
X104631598Y-90694406D01*
X104666802Y-90707002D01*
X104700602Y-90722988D01*
X104732672Y-90742210D01*
X104762704Y-90764483D01*
X104790408Y-90789592D01*
X104815517Y-90817296D01*
X104837790Y-90847328D01*
X104857012Y-90879398D01*
X104872998Y-90913198D01*
X104885594Y-90948402D01*
X104894679Y-90984671D01*
X104900165Y-91021655D01*
X104902000Y-91059000D01*
X104902000Y-91821000D01*
X104900165Y-91858345D01*
X104894679Y-91895329D01*
X104885594Y-91931598D01*
X104872998Y-91966802D01*
X104857012Y-92000602D01*
X104837790Y-92032672D01*
X104815517Y-92062704D01*
X104790408Y-92090408D01*
X104762704Y-92115517D01*
X104732672Y-92137790D01*
X104700602Y-92157012D01*
X104666802Y-92172998D01*
X104631598Y-92185594D01*
X104595329Y-92194679D01*
X104558345Y-92200165D01*
X104521000Y-92202000D01*
X103759000Y-92202000D01*
X103721655Y-92200165D01*
X103684671Y-92194679D01*
X103648402Y-92185594D01*
X103613198Y-92172998D01*
X103579398Y-92157012D01*
X103547328Y-92137790D01*
X103517296Y-92115517D01*
X103489592Y-92090408D01*
X103464483Y-92062704D01*
X103442210Y-92032672D01*
X103422988Y-92000602D01*
X103407002Y-91966802D01*
X103394406Y-91931598D01*
X103385321Y-91895329D01*
X103379835Y-91858345D01*
X103378000Y-91821000D01*
X103378000Y-91059000D01*
X103379835Y-91021655D01*
X103385321Y-90984671D01*
X103394406Y-90948402D01*
X103407002Y-90913198D01*
X103422988Y-90879398D01*
X103442210Y-90847328D01*
X103464483Y-90817296D01*
X103489592Y-90789592D01*
X103517296Y-90764483D01*
X103547328Y-90742210D01*
X103579398Y-90722988D01*
X103613198Y-90707002D01*
X103648402Y-90694406D01*
X103684671Y-90685321D01*
X103721655Y-90679835D01*
X103759000Y-90678000D01*
X104521000Y-90678000D01*
X104558345Y-90679835D01*
X104558345Y-90679835D01*
G37*
D11*
X104140000Y-91440000D03*
D13*
X228440000Y-92710000D03*
X228440000Y-95250000D03*
X228440000Y-97790000D03*
X228440000Y-100330000D03*
X228440000Y-102870000D03*
X228440000Y-105410000D03*
X228440000Y-107950000D03*
D14*
X228440000Y-110490000D03*
D13*
X66200000Y-110490000D03*
X66200000Y-107950000D03*
X66200000Y-105410000D03*
X66200000Y-102870000D03*
X66200000Y-100330000D03*
X66200000Y-97790000D03*
X66200000Y-95250000D03*
D14*
X66200000Y-92710000D03*
D15*
X215392000Y-106045000D03*
X195072000Y-106045000D03*
X174752000Y-106045000D03*
X113792000Y-106045000D03*
X93472000Y-106045000D03*
X140208000Y-104775000D03*
X154432000Y-106045000D03*
X93726000Y-90043000D03*
X195326000Y-90297000D03*
X134112000Y-98425000D03*
X73152000Y-106045000D03*
X221488000Y-106045000D03*
X201168000Y-106045000D03*
X180848000Y-106045000D03*
X119888000Y-106045000D03*
X99695000Y-106045000D03*
X73279000Y-111125000D03*
X77724000Y-108839000D03*
X139319000Y-99949000D03*
X134239000Y-103505000D03*
X134133327Y-104765644D03*
X160655000Y-106045000D03*
X97282000Y-108839000D03*
X93599000Y-111125000D03*
X99314000Y-90043000D03*
X113919000Y-111125000D03*
X117729000Y-108839000D03*
X158369000Y-108839000D03*
X154559000Y-111125000D03*
X215519000Y-111125000D03*
X219202000Y-108587530D03*
X198882000Y-108839000D03*
X200914000Y-90297000D03*
X178562000Y-108839000D03*
X217297000Y-113030000D03*
X197739000Y-113030000D03*
X176657000Y-113030000D03*
X156337000Y-113030000D03*
X116713000Y-113030000D03*
X96139000Y-113030000D03*
X75057000Y-113030000D03*
X195199000Y-111125000D03*
X140208000Y-98298000D03*
X79375000Y-106045000D03*
X174879000Y-111125000D03*
D16*
X70231000Y-92710000D03*
X224409000Y-110490000D03*
X224409000Y-92710000D03*
D15*
X212471000Y-113030000D03*
X203962000Y-113030000D03*
X192151000Y-113030000D03*
X171831000Y-113030000D03*
X151511000Y-113030000D03*
X122809000Y-113030000D03*
X110617000Y-113030000D03*
X102362000Y-113030000D03*
X90551000Y-113030000D03*
X70231000Y-113030000D03*
D16*
X70231000Y-109220000D03*
D15*
X80645000Y-107950000D03*
X101092000Y-107950000D03*
X121285000Y-107950000D03*
X182118000Y-107950000D03*
X202438000Y-107950000D03*
X136144000Y-107950000D03*
X142113000Y-107950000D03*
X161036000Y-107950000D03*
X222631000Y-107950000D03*
X92075000Y-105410000D03*
X112395000Y-105410000D03*
X213995000Y-105410000D03*
X153289000Y-105410000D03*
X133096043Y-105410000D03*
X141605018Y-105410000D03*
X71374000Y-105410000D03*
X193802000Y-105410000D03*
X173482000Y-105410000D03*
X141859010Y-102870000D03*
X80518000Y-102870000D03*
X121412000Y-102870000D03*
X182245000Y-102870000D03*
X202692000Y-102870000D03*
X222758000Y-102870000D03*
X158242000Y-102870000D03*
X100711000Y-102870000D03*
X132334000Y-102870000D03*
X76581000Y-100330000D03*
X217297000Y-100330000D03*
X92456010Y-90043000D03*
X76835000Y-99060000D03*
X81280000Y-101600000D03*
X81280000Y-106426000D03*
X75057000Y-103632000D03*
X77216000Y-99822000D03*
X76581000Y-98298000D03*
X71628000Y-96901000D03*
X77597000Y-97155000D03*
X117221000Y-89281000D03*
X116586000Y-95249990D03*
X91948000Y-98044000D03*
X97914537Y-99829911D03*
X90551000Y-100584000D03*
X110871000Y-104393999D03*
X117475004Y-104394000D03*
X106807000Y-101600000D03*
X101092000Y-106680000D03*
X95885000Y-102234990D03*
X101727000Y-101727000D03*
X96018274Y-100919385D03*
X101346000Y-100965000D03*
X101854000Y-100330000D03*
X96133987Y-98919493D03*
X95123000Y-96520000D03*
X90297000Y-95504000D03*
X118237000Y-89916000D03*
X138176000Y-92075000D03*
X112522000Y-93980000D03*
X112395000Y-99060000D03*
X110363008Y-97917000D03*
X112395000Y-97663000D03*
X126492000Y-89535000D03*
X125476000Y-100330000D03*
X110871000Y-101473000D03*
X136779000Y-89156530D03*
X121412000Y-99695000D03*
X110993488Y-100452472D03*
X126365000Y-113030000D03*
X137668000Y-95250000D03*
X127127000Y-95250000D03*
X137414000Y-98425000D03*
X126365000Y-100838000D03*
X115823990Y-102235000D03*
X122047000Y-102235000D03*
X121793000Y-97155000D03*
X114554000Y-97155010D03*
X122047000Y-100965000D03*
X121666000Y-95885000D03*
X115951000Y-95885000D03*
X111379003Y-96774003D03*
X115316000Y-93980000D03*
X138049000Y-88519000D03*
X133096000Y-93980000D03*
X132461000Y-111125000D03*
X130937000Y-111125000D03*
X132588000Y-99060000D03*
X132080000Y-101600000D03*
X132080000Y-104140000D03*
X139319000Y-89789000D03*
X127762000Y-90297000D03*
X136017000Y-111760000D03*
X136779000Y-111125000D03*
X132715000Y-108585000D03*
X142748021Y-106680000D03*
X141859000Y-91059000D03*
X132842000Y-91440000D03*
X142621000Y-91694000D03*
X136144000Y-92075000D03*
X143256000Y-90678000D03*
X136144000Y-90805000D03*
X140335000Y-99060000D03*
X140335000Y-103632000D03*
X137668000Y-104775000D03*
X136559251Y-95977751D03*
X136017000Y-93980000D03*
X136525000Y-112903000D03*
X146812000Y-113538000D03*
X146304000Y-104521000D03*
X147066000Y-103251000D03*
X159893000Y-96520000D03*
X146049979Y-108585000D03*
X147574000Y-108585000D03*
X147574000Y-109855000D03*
X146050000Y-109855000D03*
X158750000Y-98171000D03*
X151384000Y-98171000D03*
X141605000Y-112902968D03*
X147828000Y-112014000D03*
X158750000Y-99695000D03*
X152019000Y-99695000D03*
X161417000Y-111760000D03*
X161671000Y-109220000D03*
X162433000Y-110490000D03*
X138303000Y-110490000D03*
X158242000Y-99060000D03*
X178308000Y-93980000D03*
X176657000Y-96520000D03*
X177546000Y-99822000D03*
X152654000Y-95250000D03*
X168021000Y-95250000D03*
X172085000Y-103759000D03*
X153289000Y-97536000D03*
X166624000Y-98171000D03*
X171577000Y-95250000D03*
X180086000Y-95250000D03*
X182880000Y-109220000D03*
X156591000Y-101473000D03*
X163576000Y-100965000D03*
X156845000Y-103505000D03*
X163703000Y-103505000D03*
X156337000Y-100330000D03*
X182499000Y-100330000D03*
X184277000Y-99822000D03*
X182245000Y-101092000D03*
X198882000Y-94488000D03*
X198628000Y-99060000D03*
X198247000Y-101600000D03*
X192405000Y-104140000D03*
X187960000Y-106680000D03*
X171831000Y-111125000D03*
X187960000Y-113284000D03*
X192278000Y-110490000D03*
X204470000Y-97409000D03*
X202438000Y-97409000D03*
X207518000Y-114427000D03*
X171831000Y-112014000D03*
X198882000Y-104140000D03*
X176911000Y-101346000D03*
X202438000Y-98298000D03*
X203073000Y-96520000D03*
X212090000Y-102235000D03*
X214376000Y-102235000D03*
X219710000Y-93980000D03*
X214376000Y-101346000D03*
X212090000Y-100965000D03*
X218948000Y-99060000D03*
X222758000Y-100965000D03*
X213741000Y-104140000D03*
X193421000Y-111379000D03*
X208407000Y-113665000D03*
X212598000Y-109220000D03*
X223266000Y-106680000D03*
X219329000Y-104140000D03*
X219710000Y-102489000D03*
X217551000Y-98425000D03*
X221869000Y-96520000D03*
X223139000Y-93980000D03*
X217424000Y-102235000D03*
X219075000Y-101092000D03*
X97790000Y-110490000D03*
X72009000Y-110490000D03*
X118237000Y-110490000D03*
X96519996Y-109855000D03*
X138176000Y-97155000D03*
X116585968Y-97789994D03*
X158750000Y-113157000D03*
X138049000Y-114427000D03*
X178943000Y-110490000D03*
X157480000Y-111125000D03*
X199390000Y-110490000D03*
X177800000Y-109855000D03*
X219710000Y-110490000D03*
X198120000Y-109855000D03*
D17*
X228440000Y-95250000D02*
X227076000Y-95250000D01*
X66200000Y-95250000D02*
X67564000Y-95250000D01*
X228440000Y-110490000D02*
X227076000Y-110490000D01*
X228440000Y-97790000D02*
X227076000Y-97790000D01*
X66200000Y-110490000D02*
X67564000Y-110490000D01*
X66200000Y-97790000D02*
X67564000Y-97790000D01*
D18*
X66200000Y-92710000D02*
X67945000Y-92710000D01*
D19*
X67945000Y-92710000D02*
X69215000Y-92710000D01*
D18*
X69215000Y-92710000D02*
X70231000Y-92710000D01*
X224409000Y-92710000D02*
X225171000Y-92710000D01*
X228440000Y-92710000D02*
X226949000Y-92710000D01*
D19*
X226949000Y-92710000D02*
X225171000Y-92710000D01*
D20*
X80645000Y-107950000D02*
X101092000Y-107950000D01*
X101092000Y-107950000D02*
X121285000Y-107950000D01*
X182118000Y-107950000D02*
X202438000Y-107950000D01*
X121285000Y-107950000D02*
X136144000Y-107950000D01*
X67564000Y-107950000D02*
X80645000Y-107950000D01*
D17*
X228440000Y-107950000D02*
X227076000Y-107950000D01*
X66200000Y-107950000D02*
X67564000Y-107950000D01*
D20*
X136144000Y-107950000D02*
X142113000Y-107950000D01*
X161036000Y-107950000D02*
X182118000Y-107950000D01*
X161036000Y-107950000D02*
X142113000Y-107950000D01*
X222631000Y-107950000D02*
X226060000Y-107950000D01*
X226060000Y-107950000D02*
X227076000Y-107950000D01*
X202438000Y-107950000D02*
X222631000Y-107950000D01*
X112395000Y-105410000D02*
X92075000Y-105410000D01*
X112395000Y-105410000D02*
X133096043Y-105410000D01*
X133096043Y-105410000D02*
X141605018Y-105410000D01*
X153289000Y-105410000D02*
X141605018Y-105410000D01*
X227076000Y-105410000D02*
X213995000Y-105410000D01*
D17*
X228440000Y-105410000D02*
X227076000Y-105410000D01*
X66200000Y-105410000D02*
X67564000Y-105410000D01*
D20*
X71374000Y-105410000D02*
X67564000Y-105410000D01*
X71374000Y-105410000D02*
X92075000Y-105410000D01*
X213995000Y-105410000D02*
X193802000Y-105410000D01*
X193802000Y-105410000D02*
X173482000Y-105410000D01*
X153289000Y-105410000D02*
X173482000Y-105410000D01*
D17*
X228440000Y-102870000D02*
X227076000Y-102870000D01*
X66200000Y-102870000D02*
X67564000Y-102870000D01*
D20*
X80518000Y-102870000D02*
X67564000Y-102870000D01*
X182245000Y-102870000D02*
X202692000Y-102870000D01*
X226060000Y-102870000D02*
X227076000Y-102870000D01*
X219329000Y-103124000D02*
X219075000Y-102870000D01*
X222758000Y-102870000D02*
X226060000Y-102870000D01*
X219075000Y-102870000D02*
X202692000Y-102870000D01*
X222758000Y-102870000D02*
X220345000Y-102870000D01*
X220345000Y-102870000D02*
X220091000Y-103124000D01*
X220091000Y-103124000D02*
X219329000Y-103124000D01*
X161671000Y-102870000D02*
X182245000Y-102870000D01*
X161671000Y-102870000D02*
X158242000Y-102870000D01*
X100711000Y-102870000D02*
X121412000Y-102870000D01*
X100711000Y-102870000D02*
X80518000Y-102870000D01*
X121412000Y-102870000D02*
X132334000Y-102870000D01*
X146685023Y-102615977D02*
X147370781Y-102615977D01*
X146431000Y-102870000D02*
X146685023Y-102615977D01*
X147624804Y-102870000D02*
X158242000Y-102870000D01*
X132334000Y-102870000D02*
X146431000Y-102870000D01*
X147370781Y-102615977D02*
X147624804Y-102870000D01*
D17*
X66200000Y-100330000D02*
X67564000Y-100330000D01*
D20*
X76581000Y-100330000D02*
X67564000Y-100330000D01*
D17*
X228440000Y-100330000D02*
X226949000Y-100330000D01*
D20*
X218059000Y-100330000D02*
X218440000Y-99949000D01*
X220091000Y-100330000D02*
X226949000Y-100330000D01*
X218440000Y-99949000D02*
X219710000Y-99949000D01*
X217297000Y-100330000D02*
X218059000Y-100330000D01*
X219710000Y-99949000D02*
X220091000Y-100330000D01*
X92096800Y-90043000D02*
X92456010Y-90043000D01*
X83820000Y-91440000D02*
X84836000Y-91440000D01*
X86233000Y-90043000D02*
X92096800Y-90043000D01*
X84836000Y-91440000D02*
X86233000Y-90043000D01*
X76835000Y-99060000D02*
X83820000Y-99060000D01*
X81280000Y-101600000D02*
X83820000Y-101600000D01*
X81026000Y-106680000D02*
X68580000Y-106680000D01*
X81280000Y-106426000D02*
X81026000Y-106680000D01*
X75057000Y-103632000D02*
X74549000Y-104140000D01*
X74549000Y-104140000D02*
X68580000Y-104140000D01*
X76454000Y-101600000D02*
X68580000Y-101600000D01*
X77216000Y-99822000D02*
X77216000Y-100838000D01*
X77216000Y-100838000D02*
X76454000Y-101600000D01*
X76581000Y-98298000D02*
X75819000Y-99060000D01*
X75819000Y-99060000D02*
X68580000Y-99060000D01*
X71247000Y-96520000D02*
X68580000Y-96520000D01*
X71628000Y-96901000D02*
X71247000Y-96520000D01*
X72136000Y-93980000D02*
X68580000Y-93980000D01*
X75565000Y-93980000D02*
X72136000Y-93980000D01*
X77597000Y-96012000D02*
X75565000Y-93980000D01*
X77597000Y-97155000D02*
X77597000Y-96012000D01*
X116840000Y-88900000D02*
X117221000Y-89281000D01*
X102108000Y-88900000D02*
X116840000Y-88900000D01*
X99568000Y-91440000D02*
X102108000Y-88900000D01*
X88900000Y-91440000D02*
X99568000Y-91440000D01*
X90678000Y-96520000D02*
X92202000Y-95250000D01*
X88900000Y-96520000D02*
X90678000Y-96520000D01*
X100330000Y-95250000D02*
X100076000Y-95250000D01*
X92202000Y-95250000D02*
X100330000Y-95250000D01*
X100330000Y-95250000D02*
X100330010Y-95249990D01*
X116226790Y-95249990D02*
X116586000Y-95249990D01*
X100330010Y-95249990D02*
X116226790Y-95249990D01*
X90932000Y-99060000D02*
X88900000Y-99060000D01*
X91948000Y-98044000D02*
X90932000Y-99060000D01*
X96503658Y-101600000D02*
X97914537Y-100189121D01*
X88900000Y-101600000D02*
X96503658Y-101600000D01*
X97914537Y-100189121D02*
X97914537Y-99829911D01*
X110871000Y-104393999D02*
X111230211Y-104394000D01*
X111230211Y-104394000D02*
X117115794Y-104394000D01*
X117115794Y-104394000D02*
X117475004Y-104394000D01*
X95731750Y-100330001D02*
X90804999Y-100330001D01*
X106807000Y-101600000D02*
X105537001Y-100330001D01*
X105537001Y-100330001D02*
X103505001Y-100330001D01*
X97396782Y-98664969D02*
X95731750Y-100330001D01*
X103505001Y-100330001D02*
X101839969Y-98664969D01*
X90804999Y-100330001D02*
X90551000Y-100584000D01*
X101839969Y-98664969D02*
X97396782Y-98664969D01*
X96774000Y-106680000D02*
X101092000Y-106680000D01*
X88900000Y-106680000D02*
X96774000Y-106680000D01*
X95885010Y-102235000D02*
X95885000Y-102234990D01*
X96647000Y-102235000D02*
X95885010Y-102235000D01*
X97155000Y-101727000D02*
X96647000Y-102235000D01*
X101727000Y-101727000D02*
X97155000Y-101727000D01*
X97282000Y-100076000D02*
X96438615Y-100919385D01*
X101346000Y-100965000D02*
X99553980Y-99172980D01*
X96438615Y-100919385D02*
X96018274Y-100919385D01*
X97282000Y-99568000D02*
X97282000Y-100076000D01*
X99553980Y-99172980D02*
X97677020Y-99172980D01*
X97677020Y-99172980D02*
X97282000Y-99568000D01*
X101854000Y-100330000D02*
X103124000Y-101600000D01*
X103124000Y-101600000D02*
X104140000Y-101600000D01*
X104140000Y-99060000D02*
X102989979Y-99060000D01*
X102989979Y-99060000D02*
X102086937Y-98156958D01*
X96387986Y-98665494D02*
X96133987Y-98919493D01*
X102086937Y-98156958D02*
X96896522Y-98156958D01*
X96896522Y-98156958D02*
X96387986Y-98665494D01*
X95123000Y-96520000D02*
X104140000Y-96520000D01*
X94996000Y-93980000D02*
X104140000Y-93980000D01*
X91821000Y-93980000D02*
X94996000Y-93980000D01*
X90297000Y-95504000D02*
X91821000Y-93980000D01*
X105156000Y-91440000D02*
X104140000Y-91440000D01*
X106680000Y-89916000D02*
X105156000Y-91440000D01*
X118237000Y-89916000D02*
X106680000Y-89916000D01*
X121793000Y-91440000D02*
X109220000Y-91440000D01*
X123063000Y-92710000D02*
X121793000Y-91440000D01*
X137541000Y-92710000D02*
X123063000Y-92710000D01*
X138176000Y-92075000D02*
X137541000Y-92710000D01*
X112522000Y-93980000D02*
X109220000Y-93980000D01*
X112395000Y-99060000D02*
X109220000Y-99060000D01*
X111252000Y-97917000D02*
X110363008Y-97917000D01*
X112395000Y-97663000D02*
X111506000Y-97663000D01*
X111506000Y-97663000D02*
X111252000Y-97917000D01*
X112014000Y-100330000D02*
X111124999Y-101219001D01*
X125476000Y-100330000D02*
X112014000Y-100330000D01*
X111124999Y-101219001D02*
X110871000Y-101473000D01*
X126492000Y-89535000D02*
X126870470Y-89156530D01*
X126870470Y-89156530D02*
X136544175Y-89156530D01*
X136544175Y-89156530D02*
X136779000Y-89156530D01*
X111750960Y-99695000D02*
X110993488Y-100452472D01*
X121412000Y-99695000D02*
X111750960Y-99695000D01*
X126005790Y-113030000D02*
X126365000Y-113030000D01*
X123875802Y-113030000D02*
X126005790Y-113030000D01*
X122605802Y-111760000D02*
X123875802Y-113030000D01*
X109220000Y-111760000D02*
X122605802Y-111760000D01*
X137668000Y-95250000D02*
X127127000Y-95250000D01*
X126618999Y-100584001D02*
X126365000Y-100838000D01*
X126873000Y-100330000D02*
X126618999Y-100584001D01*
X135509000Y-100330000D02*
X126873000Y-100330000D01*
X137414000Y-98425000D02*
X135509000Y-100330000D01*
X115823990Y-102235000D02*
X122047000Y-102235000D01*
X116890808Y-97155000D02*
X121793000Y-97155000D01*
X116890801Y-97154993D02*
X116890808Y-97155000D01*
X114554017Y-97154993D02*
X116890801Y-97154993D01*
X114554000Y-97155010D02*
X114554017Y-97154993D01*
X122682000Y-101600000D02*
X122047000Y-100965000D01*
X124460000Y-101600000D02*
X122682000Y-101600000D01*
X121666000Y-95885000D02*
X115951000Y-95885000D01*
X124460000Y-96520000D02*
X111633006Y-96520000D01*
X111633006Y-96520000D02*
X111633002Y-96520004D01*
X111633002Y-96520004D02*
X111379003Y-96774003D01*
X115316000Y-93980000D02*
X124460000Y-93980000D01*
X124460000Y-90424000D02*
X124460000Y-91440000D01*
X126359931Y-88524069D02*
X124460000Y-90424000D01*
X137927069Y-88524069D02*
X126359931Y-88524069D01*
X138049000Y-88519000D02*
X137932138Y-88519000D01*
X137932138Y-88519000D02*
X137927069Y-88524069D01*
X133096000Y-93980000D02*
X129540000Y-93980000D01*
X130937000Y-111125000D02*
X132461000Y-111125000D01*
X132588000Y-99060000D02*
X129540000Y-99060000D01*
X132080000Y-101600000D02*
X129540000Y-101600000D01*
X132080000Y-104140000D02*
X129540000Y-104140000D01*
X132207000Y-89789000D02*
X139319000Y-89789000D01*
X128270000Y-89789000D02*
X132207000Y-89789000D01*
X127762000Y-90297000D02*
X128270000Y-89789000D01*
X136017000Y-111760000D02*
X129540000Y-111760000D01*
X137414000Y-111760000D02*
X144780000Y-111760000D01*
X136779000Y-111125000D02*
X137414000Y-111760000D01*
X133350000Y-109220000D02*
X137414012Y-109220000D01*
X137414012Y-109220000D02*
X144780000Y-109220000D01*
X132715000Y-108585000D02*
X133350000Y-109220000D01*
X144780000Y-106680000D02*
X142748021Y-106680000D01*
X138938000Y-91059000D02*
X141859000Y-91059000D01*
X132842000Y-91440000D02*
X137033000Y-91440000D01*
X138811000Y-90932000D02*
X138938000Y-91059000D01*
X137033000Y-91440000D02*
X137541000Y-90932000D01*
X137541000Y-90932000D02*
X138811000Y-90932000D01*
X138811000Y-91694000D02*
X142621000Y-91694000D01*
X136144000Y-92075000D02*
X137160000Y-92075000D01*
X137160000Y-92075000D02*
X137795000Y-91440000D01*
X137795000Y-91440000D02*
X138557000Y-91440000D01*
X138557000Y-91440000D02*
X138811000Y-91694000D01*
X143002000Y-90424000D02*
X143256000Y-90678000D01*
X137287000Y-90424000D02*
X143002000Y-90424000D01*
X136906000Y-90805000D02*
X137287000Y-90424000D01*
X136144000Y-90805000D02*
X136906000Y-90805000D01*
X144780000Y-99060000D02*
X140335000Y-99060000D01*
X138811000Y-103632000D02*
X140335000Y-103632000D01*
X137668000Y-104775000D02*
X138811000Y-103632000D01*
X136813250Y-96231750D02*
X136559251Y-95977751D01*
X144780000Y-96520000D02*
X137101500Y-96520000D01*
X137101500Y-96520000D02*
X136813250Y-96231750D01*
X144780000Y-93980000D02*
X136017000Y-93980000D01*
X137159978Y-113537978D02*
X136525000Y-112903000D01*
X142113140Y-113537978D02*
X137159978Y-113537978D01*
X142113162Y-113538000D02*
X142113140Y-113537978D01*
X146812000Y-113538000D02*
X142113162Y-113538000D01*
X147066000Y-103759000D02*
X146304000Y-104521000D01*
X147066000Y-103251000D02*
X147066000Y-103759000D01*
X159893000Y-96520000D02*
X149860000Y-96520000D01*
X146049979Y-108585000D02*
X147574000Y-108585000D01*
X146050000Y-109855000D02*
X147574000Y-109855000D01*
X151384000Y-98171000D02*
X158750000Y-98171000D01*
X147468790Y-112014000D02*
X147828000Y-112014000D01*
X141964210Y-112902968D02*
X141964242Y-112903000D01*
X146877332Y-112014000D02*
X147468790Y-112014000D01*
X141605000Y-112902968D02*
X141964210Y-112902968D01*
X145988332Y-112903000D02*
X146877332Y-112014000D01*
X141964242Y-112903000D02*
X145988332Y-112903000D01*
X152019000Y-99695000D02*
X158750000Y-99695000D01*
X161417000Y-111760000D02*
X165100000Y-111760000D01*
X161671000Y-109220000D02*
X165100000Y-109220000D01*
X138303000Y-110490000D02*
X162433000Y-110490000D01*
X158242000Y-99060000D02*
X165100000Y-99060000D01*
X178308000Y-93980000D02*
X170180000Y-93980000D01*
X176657000Y-96520000D02*
X170180000Y-96520000D01*
X176784000Y-99060000D02*
X170180000Y-99060000D01*
X177546000Y-99822000D02*
X176784000Y-99060000D01*
X168021000Y-95250000D02*
X152654000Y-95250000D01*
X171704000Y-103759000D02*
X171323000Y-104140000D01*
X171323000Y-104140000D02*
X170180000Y-104140000D01*
X172085000Y-103759000D02*
X171704000Y-103759000D01*
X153289000Y-97536000D02*
X163449000Y-97536000D01*
X163449000Y-97536000D02*
X163703000Y-97790000D01*
X166370001Y-97917001D02*
X166624000Y-98171000D01*
X163703000Y-97790000D02*
X166243000Y-97790000D01*
X166243000Y-97790000D02*
X166370001Y-97917001D01*
X180086000Y-95250000D02*
X171577000Y-95250000D01*
X182880000Y-109220000D02*
X185420000Y-109220000D01*
X157099000Y-100965000D02*
X163576000Y-100965000D01*
X156591000Y-101473000D02*
X157099000Y-100965000D01*
X163703000Y-103505000D02*
X156845000Y-103505000D01*
X184277000Y-101600000D02*
X185420000Y-101600000D01*
X174117000Y-102235000D02*
X183642000Y-102235000D01*
X172212000Y-100330000D02*
X174117000Y-102235000D01*
X156337000Y-100330000D02*
X172212000Y-100330000D01*
X183642000Y-102235000D02*
X184277000Y-101600000D01*
X183769000Y-99060000D02*
X185420000Y-99060000D01*
X182499000Y-100330000D02*
X183769000Y-99060000D01*
X182245000Y-101092000D02*
X183007000Y-101092000D01*
X183007000Y-101092000D02*
X184277000Y-99822000D01*
X198374000Y-93980000D02*
X190500000Y-93980000D01*
X198882000Y-94488000D02*
X198374000Y-93980000D01*
X190500000Y-99060000D02*
X198628000Y-99060000D01*
X190500000Y-101600000D02*
X198247000Y-101600000D01*
X192405000Y-104140000D02*
X190500000Y-104140000D01*
X190500000Y-106680000D02*
X187960000Y-106680000D01*
X172952210Y-111887000D02*
X172190210Y-111125000D01*
X182626000Y-111887000D02*
X172952210Y-111887000D01*
X187957655Y-113286345D02*
X187200231Y-113286345D01*
X172190210Y-111125000D02*
X171831000Y-111125000D01*
X187200231Y-113286345D02*
X184025342Y-113286342D01*
X187960000Y-113284000D02*
X187957655Y-113286345D01*
X184025342Y-113286342D02*
X182626000Y-111887000D01*
X192637210Y-110490000D02*
X192278000Y-110490000D01*
X193548000Y-110490000D02*
X192637210Y-110490000D01*
X194818000Y-111760000D02*
X193548000Y-110490000D01*
X205740000Y-111760000D02*
X194818000Y-111760000D01*
X204470000Y-97409000D02*
X202438000Y-97409000D01*
X187626045Y-114427000D02*
X207518000Y-114427000D01*
X186990858Y-113791815D02*
X187626045Y-114427000D01*
X174044650Y-113791815D02*
X186990858Y-113791815D01*
X171831000Y-112014000D02*
X172266835Y-112014000D01*
X172266835Y-112014000D02*
X174044650Y-113791815D01*
X203581000Y-104140000D02*
X205740000Y-104140000D01*
X198882000Y-104140000D02*
X203581000Y-104140000D01*
X204470000Y-100330000D02*
X205740000Y-101600000D01*
X184785000Y-100330000D02*
X204470000Y-100330000D01*
X183388000Y-101727000D02*
X184785000Y-100330000D01*
X176911000Y-101346000D02*
X177800000Y-101346000D01*
X178181000Y-101727000D02*
X183388000Y-101727000D01*
X177800000Y-101346000D02*
X178181000Y-101727000D01*
X203708000Y-98298000D02*
X204470000Y-99060000D01*
X202438000Y-98298000D02*
X203708000Y-98298000D01*
X204470000Y-99060000D02*
X205740000Y-99060000D01*
X205740000Y-96520000D02*
X203073000Y-96520000D01*
X214376000Y-102235000D02*
X212090000Y-102235000D01*
X219710000Y-93980000D02*
X210820000Y-93980000D01*
X212090000Y-100965000D02*
X213614000Y-100965000D01*
X213614000Y-100965000D02*
X213995000Y-101346000D01*
X213995000Y-101346000D02*
X214376000Y-101346000D01*
X218948000Y-99060000D02*
X210820000Y-99060000D01*
X215011000Y-100962461D02*
X214378539Y-100330000D01*
X218188539Y-100962461D02*
X215011000Y-100962461D01*
X214378539Y-100330000D02*
X211201000Y-100330000D01*
X222758000Y-100965000D02*
X219964000Y-100965000D01*
X211201000Y-100330000D02*
X210820000Y-100711000D01*
X219964000Y-100965000D02*
X219456000Y-100457000D01*
X218694000Y-100457000D02*
X218188539Y-100962461D01*
X210820000Y-100711000D02*
X210820000Y-101600000D01*
X219456000Y-100457000D02*
X218694000Y-100457000D01*
X210825059Y-104145059D02*
X210820000Y-104140000D01*
X213735941Y-104145059D02*
X210825059Y-104145059D01*
X213741000Y-104140000D02*
X213735941Y-104145059D01*
X195706999Y-113664999D02*
X193421000Y-111379000D01*
X208406999Y-113664999D02*
X195706999Y-113664999D01*
X208407000Y-113665000D02*
X208406999Y-113664999D01*
X212598000Y-109220000D02*
X223139000Y-109220000D01*
X223139000Y-109220000D02*
X226060000Y-109220000D01*
X223266000Y-106680000D02*
X226060000Y-106680000D01*
X219329000Y-104140000D02*
X223647000Y-104140000D01*
X223647000Y-104140000D02*
X226060000Y-104140000D01*
X219710000Y-102480100D02*
X220590100Y-101600000D01*
X220590100Y-101600000D02*
X226060000Y-101600000D01*
X219710000Y-102489000D02*
X219710000Y-102480100D01*
X222885000Y-98425000D02*
X217551000Y-98425000D01*
X223520000Y-99060000D02*
X222885000Y-98425000D01*
X226060000Y-99060000D02*
X223520000Y-99060000D01*
X226060000Y-96520000D02*
X223012000Y-96520000D01*
X223012000Y-96520000D02*
X221869000Y-96520000D01*
X226060000Y-93980000D02*
X224982370Y-93980000D01*
X224982370Y-93980000D02*
X223139000Y-93980000D01*
X218186000Y-101473000D02*
X217424000Y-102235000D01*
X218694000Y-101473000D02*
X218186000Y-101473000D01*
X219075000Y-101092000D02*
X218694000Y-101473000D01*
X80899000Y-110490000D02*
X97790000Y-110490000D01*
X72009000Y-110490000D02*
X80899000Y-110490000D01*
X98806000Y-110490000D02*
X98171000Y-109855000D01*
X96879206Y-109855000D02*
X96519996Y-109855000D01*
X118237000Y-110490000D02*
X98806000Y-110490000D01*
X98171000Y-109855000D02*
X96879206Y-109855000D01*
X116945178Y-97789994D02*
X116585968Y-97789994D01*
X116945210Y-97789994D02*
X116945178Y-97789994D01*
X130937000Y-97155000D02*
X130301996Y-97790004D01*
X116945220Y-97790004D02*
X116945210Y-97789994D01*
X138176000Y-97155000D02*
X130937000Y-97155000D01*
X130301996Y-97790004D02*
X116945220Y-97790004D01*
X138049000Y-114427000D02*
X157480000Y-114427000D01*
X157480000Y-114427000D02*
X158750000Y-113157000D01*
X164084000Y-110490000D02*
X178943000Y-110490000D01*
X163449000Y-111125000D02*
X164084000Y-110490000D01*
X157480000Y-111125000D02*
X163449000Y-111125000D01*
X179324000Y-109855000D02*
X179959000Y-110490000D01*
X199030790Y-110490000D02*
X199390000Y-110490000D01*
X177800000Y-109855000D02*
X179324000Y-109855000D01*
X195587872Y-109857538D02*
X196220334Y-110490000D01*
X191847417Y-109857538D02*
X195587872Y-109857538D01*
X196220334Y-110490000D02*
X199030790Y-110490000D01*
X179959000Y-110490000D02*
X191214955Y-110490000D01*
X191214955Y-110490000D02*
X191847417Y-109857538D01*
X199771000Y-109855000D02*
X200406000Y-110490000D01*
X198120000Y-109855000D02*
X199771000Y-109855000D01*
X200406000Y-110490000D02*
X219710000Y-110490000D01*
M02*
