G04 #@! TF.GenerationSoftware,KiCad,Pcbnew,(5.1.8)*
G04 #@! TF.CreationDate,2021-04-29T17:56:12-04:00*
G04 #@! TF.ProjectId,8x16seg,38783136-7365-4672-9e6b-696361645f70,v1.0.0*
G04 #@! TF.SameCoordinates,Original*
G04 #@! TF.FileFunction,Legend,Bot*
G04 #@! TF.FilePolarity,Positive*
%FSLAX46Y46*%
G04 Gerber Fmt 4.6, Leading zero omitted, Abs format (unit mm)*
G04 Created by KiCad (PCBNEW (5.1.8)) date 2021-04-29 17:56:12*
%MOMM*%
%LPD*%
G01*
G04 APERTURE LIST*
%ADD10C,0.150000*%
%ADD11O,1.801600X1.801600*%
%ADD12C,1.801600*%
%ADD13C,1.625600*%
%ADD14C,1.101600*%
%ADD15C,0.609600*%
%ADD16C,1.371600*%
G04 APERTURE END LIST*
D10*
X66200000Y-87750000D02*
X86200000Y-87750000D01*
X86200000Y-87750000D02*
X86200000Y-115450000D01*
X86200000Y-115450000D02*
X66200000Y-115450000D01*
X66200000Y-115450000D02*
X66200000Y-87750000D01*
X77900000Y-110300000D02*
X78164491Y-111800000D01*
X79196173Y-92230000D02*
X78566848Y-92980000D01*
X82644054Y-110858488D02*
X83273379Y-110108488D01*
X77192794Y-102690000D02*
X75669655Y-102690000D01*
X78481744Y-109999999D02*
X77192794Y-102690000D01*
X76958604Y-109999999D02*
X78481744Y-109999999D01*
X81750239Y-110108488D02*
X82644054Y-110858488D01*
X75986908Y-100890000D02*
X76251397Y-102390000D01*
X76251397Y-102390000D02*
X72530568Y-102390000D01*
X81854032Y-111800000D02*
X78164491Y-111800000D01*
X78164491Y-111800000D02*
X77900000Y-110300000D01*
X77900000Y-110300000D02*
X81589542Y-110300000D01*
X80086594Y-100673494D02*
X78758359Y-93140697D01*
X70902620Y-92980000D02*
X70008805Y-92230000D01*
X70008805Y-92230000D02*
X70638130Y-91480000D01*
X74010418Y-93280001D02*
X75299368Y-100590000D01*
X70741923Y-93171512D02*
X69848108Y-92421512D01*
X74454720Y-97527394D02*
X75003557Y-100640000D01*
X75003557Y-100640000D02*
X71605701Y-96342607D01*
X76958604Y-109999999D02*
X75669655Y-102690000D01*
X78965257Y-96041706D02*
X77135951Y-100640000D01*
X77135951Y-100640000D02*
X76640172Y-97828295D01*
X76640172Y-97828295D02*
X78469478Y-93230000D01*
X78469478Y-93230000D02*
X78965257Y-96041706D01*
X70928356Y-102866978D02*
X72210663Y-110139303D01*
X76240765Y-100890000D02*
X76505254Y-102390000D01*
X71605701Y-96342607D02*
X71056864Y-93230000D01*
X71056864Y-93230000D02*
X74454720Y-97527394D01*
X73925314Y-110300000D02*
X77646144Y-110300000D01*
X77646144Y-110300000D02*
X77910634Y-111800000D01*
X77910634Y-111800000D02*
X74189804Y-111800000D01*
X71789805Y-110700000D02*
G75*
G03*
X71789805Y-110700000I-1100000J0D01*
G01*
X77488605Y-102640000D02*
X80886461Y-106937393D01*
X71056864Y-93230000D02*
X71605701Y-96342607D01*
X80463524Y-102811169D02*
X81750239Y-110108488D01*
X71445241Y-101479304D02*
X70551426Y-100729304D01*
X72530568Y-102390000D02*
X71636752Y-101640000D01*
X70638130Y-91480000D02*
X74327671Y-91480000D01*
X70551426Y-100729304D02*
X69218783Y-93171512D01*
X75669655Y-102690000D02*
X76958604Y-109999999D01*
X79961594Y-100890000D02*
X80855410Y-101640000D01*
X80855410Y-101640000D02*
X80422397Y-102390000D01*
X77135951Y-100640000D02*
X78965257Y-96041706D01*
X70928356Y-102866978D02*
X71511752Y-101856506D01*
X71511752Y-101856506D02*
X72405568Y-102606506D01*
X74189804Y-111800000D02*
X73295989Y-111050000D01*
X73295989Y-111050000D02*
X73925314Y-110300000D01*
X81750239Y-110108488D02*
X80463524Y-102811169D01*
X80463524Y-102811169D02*
X81046921Y-101800696D01*
X81046921Y-101800696D02*
X81940736Y-102550696D01*
X71511752Y-101856506D02*
X70928356Y-102866978D01*
X81589542Y-110300000D02*
X82483357Y-111050000D01*
X82483357Y-111050000D02*
X81854032Y-111800000D01*
X82644054Y-110858488D02*
X81750239Y-110108488D01*
X74022684Y-110050000D02*
X75851990Y-105451705D01*
X73526905Y-107238294D02*
X74022684Y-110050000D01*
X73295989Y-111050000D02*
X74189804Y-111800000D01*
X79196173Y-92230000D02*
X78302358Y-91480000D01*
X78566848Y-92980000D02*
X79196173Y-92230000D01*
X74846018Y-92980000D02*
X78566848Y-92980000D01*
X74327671Y-91480000D02*
X74592162Y-92980000D01*
X74592162Y-92980000D02*
X70902620Y-92980000D01*
X76640172Y-97828295D02*
X77135951Y-100640000D01*
X69848108Y-92421512D02*
X69218783Y-93171512D01*
X80980410Y-101423494D02*
X80086594Y-100673494D01*
X74581528Y-91480000D02*
X74846018Y-92980000D01*
X78302358Y-91480000D02*
X74581528Y-91480000D01*
X78758359Y-93140697D02*
X79387684Y-92390697D01*
X72210663Y-110139303D02*
X73104478Y-110889303D01*
X81940736Y-102550696D02*
X83273379Y-110108488D01*
X83273379Y-110108488D02*
X82644054Y-110858488D01*
X80886461Y-106937393D02*
X77488605Y-102640000D01*
X76822507Y-100590000D02*
X75299368Y-100590000D01*
X75299368Y-100590000D02*
X74010418Y-93280001D01*
X79387684Y-92390697D02*
X80281499Y-93140697D01*
X81563806Y-100413022D02*
X80281499Y-93140697D01*
X80980410Y-101423494D02*
X81563806Y-100413022D01*
X80086594Y-100673494D02*
X80980410Y-101423494D01*
X81435298Y-110050000D02*
X80886461Y-106937393D01*
X78037442Y-105752606D02*
X81435298Y-110050000D01*
X77488605Y-102640000D02*
X78037442Y-105752606D01*
X78469478Y-93230000D02*
X76640172Y-97828295D01*
X75356211Y-102640000D02*
X75851990Y-105451705D01*
X75851990Y-105451705D02*
X74022684Y-110050000D01*
X74022684Y-110050000D02*
X73526905Y-107238294D01*
X73526905Y-107238294D02*
X75356211Y-102640000D01*
X71636752Y-101640000D02*
X72530568Y-102390000D01*
X71636752Y-101640000D02*
X72069765Y-100890000D01*
X72069765Y-100890000D02*
X75986908Y-100890000D01*
X72405568Y-102606506D02*
X73733803Y-110139303D01*
X73733803Y-110139303D02*
X73104478Y-110889303D01*
X73104478Y-110889303D02*
X72210663Y-110139303D01*
X72210663Y-110139303D02*
X70928356Y-102866978D01*
X80422397Y-102390000D02*
X80855410Y-101640000D01*
X69218783Y-93171512D02*
X69848108Y-92421512D01*
X69848108Y-92421512D02*
X70741923Y-93171512D01*
X74846018Y-92980000D02*
X74581528Y-91480000D01*
X70741923Y-93171512D02*
X72028638Y-100468831D01*
X72028638Y-100468831D02*
X71445241Y-101479304D01*
X78037442Y-105752606D02*
X77488605Y-102640000D01*
X74010418Y-93280001D02*
X75533558Y-93280001D01*
X75533558Y-93280001D02*
X76822507Y-100590000D01*
X71445241Y-101479304D02*
X72028638Y-100468831D01*
X78758359Y-93140697D02*
X80086594Y-100673494D01*
X79387684Y-92390697D02*
X78758359Y-93140697D01*
X80281499Y-93140697D02*
X79387684Y-92390697D01*
X80422397Y-102390000D02*
X76505254Y-102390000D01*
X76505254Y-102390000D02*
X76240765Y-100890000D01*
X76240765Y-100890000D02*
X79961594Y-100890000D01*
X80886461Y-106937393D02*
X81435298Y-110050000D01*
X71605701Y-96342607D02*
X75003557Y-100640000D01*
X70008805Y-92230000D02*
X70902620Y-92980000D01*
X70638130Y-91480000D02*
X70008805Y-92230000D01*
X69218783Y-93171512D02*
X70551426Y-100729304D01*
X208440000Y-87750000D02*
X228440000Y-87750000D01*
X228440000Y-87750000D02*
X228440000Y-115450000D01*
X228440000Y-115450000D02*
X208440000Y-115450000D01*
X208440000Y-115450000D02*
X208440000Y-87750000D01*
X220140000Y-110300000D02*
X220404491Y-111800000D01*
X221436173Y-92230000D02*
X220806848Y-92980000D01*
X224884054Y-110858488D02*
X225513379Y-110108488D01*
X219432794Y-102690000D02*
X217909655Y-102690000D01*
X220721744Y-109999999D02*
X219432794Y-102690000D01*
X219198604Y-109999999D02*
X220721744Y-109999999D01*
X223990239Y-110108488D02*
X224884054Y-110858488D01*
X218226908Y-100890000D02*
X218491397Y-102390000D01*
X218491397Y-102390000D02*
X214770568Y-102390000D01*
X224094032Y-111800000D02*
X220404491Y-111800000D01*
X220404491Y-111800000D02*
X220140000Y-110300000D01*
X220140000Y-110300000D02*
X223829542Y-110300000D01*
X222326594Y-100673494D02*
X220998359Y-93140697D01*
X213142620Y-92980000D02*
X212248805Y-92230000D01*
X212248805Y-92230000D02*
X212878130Y-91480000D01*
X216250418Y-93280001D02*
X217539368Y-100590000D01*
X212981923Y-93171512D02*
X212088108Y-92421512D01*
X216694720Y-97527394D02*
X217243557Y-100640000D01*
X217243557Y-100640000D02*
X213845701Y-96342607D01*
X219198604Y-109999999D02*
X217909655Y-102690000D01*
X221205257Y-96041706D02*
X219375951Y-100640000D01*
X219375951Y-100640000D02*
X218880172Y-97828295D01*
X218880172Y-97828295D02*
X220709478Y-93230000D01*
X220709478Y-93230000D02*
X221205257Y-96041706D01*
X213168356Y-102866978D02*
X214450663Y-110139303D01*
X218480765Y-100890000D02*
X218745254Y-102390000D01*
X213845701Y-96342607D02*
X213296864Y-93230000D01*
X213296864Y-93230000D02*
X216694720Y-97527394D01*
X216165314Y-110300000D02*
X219886144Y-110300000D01*
X219886144Y-110300000D02*
X220150634Y-111800000D01*
X220150634Y-111800000D02*
X216429804Y-111800000D01*
X214029805Y-110700000D02*
G75*
G03*
X214029805Y-110700000I-1100000J0D01*
G01*
X219728605Y-102640000D02*
X223126461Y-106937393D01*
X213296864Y-93230000D02*
X213845701Y-96342607D01*
X222703524Y-102811169D02*
X223990239Y-110108488D01*
X213685241Y-101479304D02*
X212791426Y-100729304D01*
X214770568Y-102390000D02*
X213876752Y-101640000D01*
X212878130Y-91480000D02*
X216567671Y-91480000D01*
X212791426Y-100729304D02*
X211458783Y-93171512D01*
X217909655Y-102690000D02*
X219198604Y-109999999D01*
X222201594Y-100890000D02*
X223095410Y-101640000D01*
X223095410Y-101640000D02*
X222662397Y-102390000D01*
X219375951Y-100640000D02*
X221205257Y-96041706D01*
X213168356Y-102866978D02*
X213751752Y-101856506D01*
X213751752Y-101856506D02*
X214645568Y-102606506D01*
X216429804Y-111800000D02*
X215535989Y-111050000D01*
X215535989Y-111050000D02*
X216165314Y-110300000D01*
X223990239Y-110108488D02*
X222703524Y-102811169D01*
X222703524Y-102811169D02*
X223286921Y-101800696D01*
X223286921Y-101800696D02*
X224180736Y-102550696D01*
X213751752Y-101856506D02*
X213168356Y-102866978D01*
X223829542Y-110300000D02*
X224723357Y-111050000D01*
X224723357Y-111050000D02*
X224094032Y-111800000D01*
X224884054Y-110858488D02*
X223990239Y-110108488D01*
X216262684Y-110050000D02*
X218091990Y-105451705D01*
X215766905Y-107238294D02*
X216262684Y-110050000D01*
X215535989Y-111050000D02*
X216429804Y-111800000D01*
X221436173Y-92230000D02*
X220542358Y-91480000D01*
X220806848Y-92980000D02*
X221436173Y-92230000D01*
X217086018Y-92980000D02*
X220806848Y-92980000D01*
X216567671Y-91480000D02*
X216832162Y-92980000D01*
X216832162Y-92980000D02*
X213142620Y-92980000D01*
X218880172Y-97828295D02*
X219375951Y-100640000D01*
X212088108Y-92421512D02*
X211458783Y-93171512D01*
X223220410Y-101423494D02*
X222326594Y-100673494D01*
X216821528Y-91480000D02*
X217086018Y-92980000D01*
X220542358Y-91480000D02*
X216821528Y-91480000D01*
X220998359Y-93140697D02*
X221627684Y-92390697D01*
X214450663Y-110139303D02*
X215344478Y-110889303D01*
X224180736Y-102550696D02*
X225513379Y-110108488D01*
X225513379Y-110108488D02*
X224884054Y-110858488D01*
X223126461Y-106937393D02*
X219728605Y-102640000D01*
X219062507Y-100590000D02*
X217539368Y-100590000D01*
X217539368Y-100590000D02*
X216250418Y-93280001D01*
X221627684Y-92390697D02*
X222521499Y-93140697D01*
X223803806Y-100413022D02*
X222521499Y-93140697D01*
X223220410Y-101423494D02*
X223803806Y-100413022D01*
X222326594Y-100673494D02*
X223220410Y-101423494D01*
X223675298Y-110050000D02*
X223126461Y-106937393D01*
X220277442Y-105752606D02*
X223675298Y-110050000D01*
X219728605Y-102640000D02*
X220277442Y-105752606D01*
X220709478Y-93230000D02*
X218880172Y-97828295D01*
X217596211Y-102640000D02*
X218091990Y-105451705D01*
X218091990Y-105451705D02*
X216262684Y-110050000D01*
X216262684Y-110050000D02*
X215766905Y-107238294D01*
X215766905Y-107238294D02*
X217596211Y-102640000D01*
X213876752Y-101640000D02*
X214770568Y-102390000D01*
X213876752Y-101640000D02*
X214309765Y-100890000D01*
X214309765Y-100890000D02*
X218226908Y-100890000D01*
X214645568Y-102606506D02*
X215973803Y-110139303D01*
X215973803Y-110139303D02*
X215344478Y-110889303D01*
X215344478Y-110889303D02*
X214450663Y-110139303D01*
X214450663Y-110139303D02*
X213168356Y-102866978D01*
X222662397Y-102390000D02*
X223095410Y-101640000D01*
X211458783Y-93171512D02*
X212088108Y-92421512D01*
X212088108Y-92421512D02*
X212981923Y-93171512D01*
X217086018Y-92980000D02*
X216821528Y-91480000D01*
X212981923Y-93171512D02*
X214268638Y-100468831D01*
X214268638Y-100468831D02*
X213685241Y-101479304D01*
X220277442Y-105752606D02*
X219728605Y-102640000D01*
X216250418Y-93280001D02*
X217773558Y-93280001D01*
X217773558Y-93280001D02*
X219062507Y-100590000D01*
X213685241Y-101479304D02*
X214268638Y-100468831D01*
X220998359Y-93140697D02*
X222326594Y-100673494D01*
X221627684Y-92390697D02*
X220998359Y-93140697D01*
X222521499Y-93140697D02*
X221627684Y-92390697D01*
X222662397Y-102390000D02*
X218745254Y-102390000D01*
X218745254Y-102390000D02*
X218480765Y-100890000D01*
X218480765Y-100890000D02*
X222201594Y-100890000D01*
X223126461Y-106937393D02*
X223675298Y-110050000D01*
X213845701Y-96342607D02*
X217243557Y-100640000D01*
X212248805Y-92230000D02*
X213142620Y-92980000D01*
X212878130Y-91480000D02*
X212248805Y-92230000D01*
X211458783Y-93171512D02*
X212791426Y-100729304D01*
X188120000Y-87750000D02*
X208120000Y-87750000D01*
X208120000Y-87750000D02*
X208120000Y-115450000D01*
X208120000Y-115450000D02*
X188120000Y-115450000D01*
X188120000Y-115450000D02*
X188120000Y-87750000D01*
X199820000Y-110300000D02*
X200084491Y-111800000D01*
X201116173Y-92230000D02*
X200486848Y-92980000D01*
X204564054Y-110858488D02*
X205193379Y-110108488D01*
X199112794Y-102690000D02*
X197589655Y-102690000D01*
X200401744Y-109999999D02*
X199112794Y-102690000D01*
X198878604Y-109999999D02*
X200401744Y-109999999D01*
X203670239Y-110108488D02*
X204564054Y-110858488D01*
X197906908Y-100890000D02*
X198171397Y-102390000D01*
X198171397Y-102390000D02*
X194450568Y-102390000D01*
X203774032Y-111800000D02*
X200084491Y-111800000D01*
X200084491Y-111800000D02*
X199820000Y-110300000D01*
X199820000Y-110300000D02*
X203509542Y-110300000D01*
X202006594Y-100673494D02*
X200678359Y-93140697D01*
X192822620Y-92980000D02*
X191928805Y-92230000D01*
X191928805Y-92230000D02*
X192558130Y-91480000D01*
X195930418Y-93280001D02*
X197219368Y-100590000D01*
X192661923Y-93171512D02*
X191768108Y-92421512D01*
X196374720Y-97527394D02*
X196923557Y-100640000D01*
X196923557Y-100640000D02*
X193525701Y-96342607D01*
X198878604Y-109999999D02*
X197589655Y-102690000D01*
X200885257Y-96041706D02*
X199055951Y-100640000D01*
X199055951Y-100640000D02*
X198560172Y-97828295D01*
X198560172Y-97828295D02*
X200389478Y-93230000D01*
X200389478Y-93230000D02*
X200885257Y-96041706D01*
X192848356Y-102866978D02*
X194130663Y-110139303D01*
X198160765Y-100890000D02*
X198425254Y-102390000D01*
X193525701Y-96342607D02*
X192976864Y-93230000D01*
X192976864Y-93230000D02*
X196374720Y-97527394D01*
X195845314Y-110300000D02*
X199566144Y-110300000D01*
X199566144Y-110300000D02*
X199830634Y-111800000D01*
X199830634Y-111800000D02*
X196109804Y-111800000D01*
X193709805Y-110700000D02*
G75*
G03*
X193709805Y-110700000I-1100000J0D01*
G01*
X199408605Y-102640000D02*
X202806461Y-106937393D01*
X192976864Y-93230000D02*
X193525701Y-96342607D01*
X202383524Y-102811169D02*
X203670239Y-110108488D01*
X193365241Y-101479304D02*
X192471426Y-100729304D01*
X194450568Y-102390000D02*
X193556752Y-101640000D01*
X192558130Y-91480000D02*
X196247671Y-91480000D01*
X192471426Y-100729304D02*
X191138783Y-93171512D01*
X197589655Y-102690000D02*
X198878604Y-109999999D01*
X201881594Y-100890000D02*
X202775410Y-101640000D01*
X202775410Y-101640000D02*
X202342397Y-102390000D01*
X199055951Y-100640000D02*
X200885257Y-96041706D01*
X192848356Y-102866978D02*
X193431752Y-101856506D01*
X193431752Y-101856506D02*
X194325568Y-102606506D01*
X196109804Y-111800000D02*
X195215989Y-111050000D01*
X195215989Y-111050000D02*
X195845314Y-110300000D01*
X203670239Y-110108488D02*
X202383524Y-102811169D01*
X202383524Y-102811169D02*
X202966921Y-101800696D01*
X202966921Y-101800696D02*
X203860736Y-102550696D01*
X193431752Y-101856506D02*
X192848356Y-102866978D01*
X203509542Y-110300000D02*
X204403357Y-111050000D01*
X204403357Y-111050000D02*
X203774032Y-111800000D01*
X204564054Y-110858488D02*
X203670239Y-110108488D01*
X195942684Y-110050000D02*
X197771990Y-105451705D01*
X195446905Y-107238294D02*
X195942684Y-110050000D01*
X195215989Y-111050000D02*
X196109804Y-111800000D01*
X201116173Y-92230000D02*
X200222358Y-91480000D01*
X200486848Y-92980000D02*
X201116173Y-92230000D01*
X196766018Y-92980000D02*
X200486848Y-92980000D01*
X196247671Y-91480000D02*
X196512162Y-92980000D01*
X196512162Y-92980000D02*
X192822620Y-92980000D01*
X198560172Y-97828295D02*
X199055951Y-100640000D01*
X191768108Y-92421512D02*
X191138783Y-93171512D01*
X202900410Y-101423494D02*
X202006594Y-100673494D01*
X196501528Y-91480000D02*
X196766018Y-92980000D01*
X200222358Y-91480000D02*
X196501528Y-91480000D01*
X200678359Y-93140697D02*
X201307684Y-92390697D01*
X194130663Y-110139303D02*
X195024478Y-110889303D01*
X203860736Y-102550696D02*
X205193379Y-110108488D01*
X205193379Y-110108488D02*
X204564054Y-110858488D01*
X202806461Y-106937393D02*
X199408605Y-102640000D01*
X198742507Y-100590000D02*
X197219368Y-100590000D01*
X197219368Y-100590000D02*
X195930418Y-93280001D01*
X201307684Y-92390697D02*
X202201499Y-93140697D01*
X203483806Y-100413022D02*
X202201499Y-93140697D01*
X202900410Y-101423494D02*
X203483806Y-100413022D01*
X202006594Y-100673494D02*
X202900410Y-101423494D01*
X203355298Y-110050000D02*
X202806461Y-106937393D01*
X199957442Y-105752606D02*
X203355298Y-110050000D01*
X199408605Y-102640000D02*
X199957442Y-105752606D01*
X200389478Y-93230000D02*
X198560172Y-97828295D01*
X197276211Y-102640000D02*
X197771990Y-105451705D01*
X197771990Y-105451705D02*
X195942684Y-110050000D01*
X195942684Y-110050000D02*
X195446905Y-107238294D01*
X195446905Y-107238294D02*
X197276211Y-102640000D01*
X193556752Y-101640000D02*
X194450568Y-102390000D01*
X193556752Y-101640000D02*
X193989765Y-100890000D01*
X193989765Y-100890000D02*
X197906908Y-100890000D01*
X194325568Y-102606506D02*
X195653803Y-110139303D01*
X195653803Y-110139303D02*
X195024478Y-110889303D01*
X195024478Y-110889303D02*
X194130663Y-110139303D01*
X194130663Y-110139303D02*
X192848356Y-102866978D01*
X202342397Y-102390000D02*
X202775410Y-101640000D01*
X191138783Y-93171512D02*
X191768108Y-92421512D01*
X191768108Y-92421512D02*
X192661923Y-93171512D01*
X196766018Y-92980000D02*
X196501528Y-91480000D01*
X192661923Y-93171512D02*
X193948638Y-100468831D01*
X193948638Y-100468831D02*
X193365241Y-101479304D01*
X199957442Y-105752606D02*
X199408605Y-102640000D01*
X195930418Y-93280001D02*
X197453558Y-93280001D01*
X197453558Y-93280001D02*
X198742507Y-100590000D01*
X193365241Y-101479304D02*
X193948638Y-100468831D01*
X200678359Y-93140697D02*
X202006594Y-100673494D01*
X201307684Y-92390697D02*
X200678359Y-93140697D01*
X202201499Y-93140697D02*
X201307684Y-92390697D01*
X202342397Y-102390000D02*
X198425254Y-102390000D01*
X198425254Y-102390000D02*
X198160765Y-100890000D01*
X198160765Y-100890000D02*
X201881594Y-100890000D01*
X202806461Y-106937393D02*
X203355298Y-110050000D01*
X193525701Y-96342607D02*
X196923557Y-100640000D01*
X191928805Y-92230000D02*
X192822620Y-92980000D01*
X192558130Y-91480000D02*
X191928805Y-92230000D01*
X191138783Y-93171512D02*
X192471426Y-100729304D01*
X167800000Y-87750000D02*
X187800000Y-87750000D01*
X187800000Y-87750000D02*
X187800000Y-115450000D01*
X187800000Y-115450000D02*
X167800000Y-115450000D01*
X167800000Y-115450000D02*
X167800000Y-87750000D01*
X179500000Y-110300000D02*
X179764491Y-111800000D01*
X180796173Y-92230000D02*
X180166848Y-92980000D01*
X184244054Y-110858488D02*
X184873379Y-110108488D01*
X178792794Y-102690000D02*
X177269655Y-102690000D01*
X180081744Y-109999999D02*
X178792794Y-102690000D01*
X178558604Y-109999999D02*
X180081744Y-109999999D01*
X183350239Y-110108488D02*
X184244054Y-110858488D01*
X177586908Y-100890000D02*
X177851397Y-102390000D01*
X177851397Y-102390000D02*
X174130568Y-102390000D01*
X183454032Y-111800000D02*
X179764491Y-111800000D01*
X179764491Y-111800000D02*
X179500000Y-110300000D01*
X179500000Y-110300000D02*
X183189542Y-110300000D01*
X181686594Y-100673494D02*
X180358359Y-93140697D01*
X172502620Y-92980000D02*
X171608805Y-92230000D01*
X171608805Y-92230000D02*
X172238130Y-91480000D01*
X175610418Y-93280001D02*
X176899368Y-100590000D01*
X172341923Y-93171512D02*
X171448108Y-92421512D01*
X176054720Y-97527394D02*
X176603557Y-100640000D01*
X176603557Y-100640000D02*
X173205701Y-96342607D01*
X178558604Y-109999999D02*
X177269655Y-102690000D01*
X180565257Y-96041706D02*
X178735951Y-100640000D01*
X178735951Y-100640000D02*
X178240172Y-97828295D01*
X178240172Y-97828295D02*
X180069478Y-93230000D01*
X180069478Y-93230000D02*
X180565257Y-96041706D01*
X172528356Y-102866978D02*
X173810663Y-110139303D01*
X177840765Y-100890000D02*
X178105254Y-102390000D01*
X173205701Y-96342607D02*
X172656864Y-93230000D01*
X172656864Y-93230000D02*
X176054720Y-97527394D01*
X175525314Y-110300000D02*
X179246144Y-110300000D01*
X179246144Y-110300000D02*
X179510634Y-111800000D01*
X179510634Y-111800000D02*
X175789804Y-111800000D01*
X173389805Y-110700000D02*
G75*
G03*
X173389805Y-110700000I-1100000J0D01*
G01*
X179088605Y-102640000D02*
X182486461Y-106937393D01*
X172656864Y-93230000D02*
X173205701Y-96342607D01*
X182063524Y-102811169D02*
X183350239Y-110108488D01*
X173045241Y-101479304D02*
X172151426Y-100729304D01*
X174130568Y-102390000D02*
X173236752Y-101640000D01*
X172238130Y-91480000D02*
X175927671Y-91480000D01*
X172151426Y-100729304D02*
X170818783Y-93171512D01*
X177269655Y-102690000D02*
X178558604Y-109999999D01*
X181561594Y-100890000D02*
X182455410Y-101640000D01*
X182455410Y-101640000D02*
X182022397Y-102390000D01*
X178735951Y-100640000D02*
X180565257Y-96041706D01*
X172528356Y-102866978D02*
X173111752Y-101856506D01*
X173111752Y-101856506D02*
X174005568Y-102606506D01*
X175789804Y-111800000D02*
X174895989Y-111050000D01*
X174895989Y-111050000D02*
X175525314Y-110300000D01*
X183350239Y-110108488D02*
X182063524Y-102811169D01*
X182063524Y-102811169D02*
X182646921Y-101800696D01*
X182646921Y-101800696D02*
X183540736Y-102550696D01*
X173111752Y-101856506D02*
X172528356Y-102866978D01*
X183189542Y-110300000D02*
X184083357Y-111050000D01*
X184083357Y-111050000D02*
X183454032Y-111800000D01*
X184244054Y-110858488D02*
X183350239Y-110108488D01*
X175622684Y-110050000D02*
X177451990Y-105451705D01*
X175126905Y-107238294D02*
X175622684Y-110050000D01*
X174895989Y-111050000D02*
X175789804Y-111800000D01*
X180796173Y-92230000D02*
X179902358Y-91480000D01*
X180166848Y-92980000D02*
X180796173Y-92230000D01*
X176446018Y-92980000D02*
X180166848Y-92980000D01*
X175927671Y-91480000D02*
X176192162Y-92980000D01*
X176192162Y-92980000D02*
X172502620Y-92980000D01*
X178240172Y-97828295D02*
X178735951Y-100640000D01*
X171448108Y-92421512D02*
X170818783Y-93171512D01*
X182580410Y-101423494D02*
X181686594Y-100673494D01*
X176181528Y-91480000D02*
X176446018Y-92980000D01*
X179902358Y-91480000D02*
X176181528Y-91480000D01*
X180358359Y-93140697D02*
X180987684Y-92390697D01*
X173810663Y-110139303D02*
X174704478Y-110889303D01*
X183540736Y-102550696D02*
X184873379Y-110108488D01*
X184873379Y-110108488D02*
X184244054Y-110858488D01*
X182486461Y-106937393D02*
X179088605Y-102640000D01*
X178422507Y-100590000D02*
X176899368Y-100590000D01*
X176899368Y-100590000D02*
X175610418Y-93280001D01*
X180987684Y-92390697D02*
X181881499Y-93140697D01*
X183163806Y-100413022D02*
X181881499Y-93140697D01*
X182580410Y-101423494D02*
X183163806Y-100413022D01*
X181686594Y-100673494D02*
X182580410Y-101423494D01*
X183035298Y-110050000D02*
X182486461Y-106937393D01*
X179637442Y-105752606D02*
X183035298Y-110050000D01*
X179088605Y-102640000D02*
X179637442Y-105752606D01*
X180069478Y-93230000D02*
X178240172Y-97828295D01*
X176956211Y-102640000D02*
X177451990Y-105451705D01*
X177451990Y-105451705D02*
X175622684Y-110050000D01*
X175622684Y-110050000D02*
X175126905Y-107238294D01*
X175126905Y-107238294D02*
X176956211Y-102640000D01*
X173236752Y-101640000D02*
X174130568Y-102390000D01*
X173236752Y-101640000D02*
X173669765Y-100890000D01*
X173669765Y-100890000D02*
X177586908Y-100890000D01*
X174005568Y-102606506D02*
X175333803Y-110139303D01*
X175333803Y-110139303D02*
X174704478Y-110889303D01*
X174704478Y-110889303D02*
X173810663Y-110139303D01*
X173810663Y-110139303D02*
X172528356Y-102866978D01*
X182022397Y-102390000D02*
X182455410Y-101640000D01*
X170818783Y-93171512D02*
X171448108Y-92421512D01*
X171448108Y-92421512D02*
X172341923Y-93171512D01*
X176446018Y-92980000D02*
X176181528Y-91480000D01*
X172341923Y-93171512D02*
X173628638Y-100468831D01*
X173628638Y-100468831D02*
X173045241Y-101479304D01*
X179637442Y-105752606D02*
X179088605Y-102640000D01*
X175610418Y-93280001D02*
X177133558Y-93280001D01*
X177133558Y-93280001D02*
X178422507Y-100590000D01*
X173045241Y-101479304D02*
X173628638Y-100468831D01*
X180358359Y-93140697D02*
X181686594Y-100673494D01*
X180987684Y-92390697D02*
X180358359Y-93140697D01*
X181881499Y-93140697D02*
X180987684Y-92390697D01*
X182022397Y-102390000D02*
X178105254Y-102390000D01*
X178105254Y-102390000D02*
X177840765Y-100890000D01*
X177840765Y-100890000D02*
X181561594Y-100890000D01*
X182486461Y-106937393D02*
X183035298Y-110050000D01*
X173205701Y-96342607D02*
X176603557Y-100640000D01*
X171608805Y-92230000D02*
X172502620Y-92980000D01*
X172238130Y-91480000D02*
X171608805Y-92230000D01*
X170818783Y-93171512D02*
X172151426Y-100729304D01*
X147480000Y-87750000D02*
X167480000Y-87750000D01*
X167480000Y-87750000D02*
X167480000Y-115450000D01*
X167480000Y-115450000D02*
X147480000Y-115450000D01*
X147480000Y-115450000D02*
X147480000Y-87750000D01*
X159180000Y-110300000D02*
X159444491Y-111800000D01*
X160476173Y-92230000D02*
X159846848Y-92980000D01*
X163924054Y-110858488D02*
X164553379Y-110108488D01*
X158472794Y-102690000D02*
X156949655Y-102690000D01*
X159761744Y-109999999D02*
X158472794Y-102690000D01*
X158238604Y-109999999D02*
X159761744Y-109999999D01*
X163030239Y-110108488D02*
X163924054Y-110858488D01*
X157266908Y-100890000D02*
X157531397Y-102390000D01*
X157531397Y-102390000D02*
X153810568Y-102390000D01*
X163134032Y-111800000D02*
X159444491Y-111800000D01*
X159444491Y-111800000D02*
X159180000Y-110300000D01*
X159180000Y-110300000D02*
X162869542Y-110300000D01*
X161366594Y-100673494D02*
X160038359Y-93140697D01*
X152182620Y-92980000D02*
X151288805Y-92230000D01*
X151288805Y-92230000D02*
X151918130Y-91480000D01*
X155290418Y-93280001D02*
X156579368Y-100590000D01*
X152021923Y-93171512D02*
X151128108Y-92421512D01*
X155734720Y-97527394D02*
X156283557Y-100640000D01*
X156283557Y-100640000D02*
X152885701Y-96342607D01*
X158238604Y-109999999D02*
X156949655Y-102690000D01*
X160245257Y-96041706D02*
X158415951Y-100640000D01*
X158415951Y-100640000D02*
X157920172Y-97828295D01*
X157920172Y-97828295D02*
X159749478Y-93230000D01*
X159749478Y-93230000D02*
X160245257Y-96041706D01*
X152208356Y-102866978D02*
X153490663Y-110139303D01*
X157520765Y-100890000D02*
X157785254Y-102390000D01*
X152885701Y-96342607D02*
X152336864Y-93230000D01*
X152336864Y-93230000D02*
X155734720Y-97527394D01*
X155205314Y-110300000D02*
X158926144Y-110300000D01*
X158926144Y-110300000D02*
X159190634Y-111800000D01*
X159190634Y-111800000D02*
X155469804Y-111800000D01*
X153069805Y-110700000D02*
G75*
G03*
X153069805Y-110700000I-1100000J0D01*
G01*
X158768605Y-102640000D02*
X162166461Y-106937393D01*
X152336864Y-93230000D02*
X152885701Y-96342607D01*
X161743524Y-102811169D02*
X163030239Y-110108488D01*
X152725241Y-101479304D02*
X151831426Y-100729304D01*
X153810568Y-102390000D02*
X152916752Y-101640000D01*
X151918130Y-91480000D02*
X155607671Y-91480000D01*
X151831426Y-100729304D02*
X150498783Y-93171512D01*
X156949655Y-102690000D02*
X158238604Y-109999999D01*
X161241594Y-100890000D02*
X162135410Y-101640000D01*
X162135410Y-101640000D02*
X161702397Y-102390000D01*
X158415951Y-100640000D02*
X160245257Y-96041706D01*
X152208356Y-102866978D02*
X152791752Y-101856506D01*
X152791752Y-101856506D02*
X153685568Y-102606506D01*
X155469804Y-111800000D02*
X154575989Y-111050000D01*
X154575989Y-111050000D02*
X155205314Y-110300000D01*
X163030239Y-110108488D02*
X161743524Y-102811169D01*
X161743524Y-102811169D02*
X162326921Y-101800696D01*
X162326921Y-101800696D02*
X163220736Y-102550696D01*
X152791752Y-101856506D02*
X152208356Y-102866978D01*
X162869542Y-110300000D02*
X163763357Y-111050000D01*
X163763357Y-111050000D02*
X163134032Y-111800000D01*
X163924054Y-110858488D02*
X163030239Y-110108488D01*
X155302684Y-110050000D02*
X157131990Y-105451705D01*
X154806905Y-107238294D02*
X155302684Y-110050000D01*
X154575989Y-111050000D02*
X155469804Y-111800000D01*
X160476173Y-92230000D02*
X159582358Y-91480000D01*
X159846848Y-92980000D02*
X160476173Y-92230000D01*
X156126018Y-92980000D02*
X159846848Y-92980000D01*
X155607671Y-91480000D02*
X155872162Y-92980000D01*
X155872162Y-92980000D02*
X152182620Y-92980000D01*
X157920172Y-97828295D02*
X158415951Y-100640000D01*
X151128108Y-92421512D02*
X150498783Y-93171512D01*
X162260410Y-101423494D02*
X161366594Y-100673494D01*
X155861528Y-91480000D02*
X156126018Y-92980000D01*
X159582358Y-91480000D02*
X155861528Y-91480000D01*
X160038359Y-93140697D02*
X160667684Y-92390697D01*
X153490663Y-110139303D02*
X154384478Y-110889303D01*
X163220736Y-102550696D02*
X164553379Y-110108488D01*
X164553379Y-110108488D02*
X163924054Y-110858488D01*
X162166461Y-106937393D02*
X158768605Y-102640000D01*
X158102507Y-100590000D02*
X156579368Y-100590000D01*
X156579368Y-100590000D02*
X155290418Y-93280001D01*
X160667684Y-92390697D02*
X161561499Y-93140697D01*
X162843806Y-100413022D02*
X161561499Y-93140697D01*
X162260410Y-101423494D02*
X162843806Y-100413022D01*
X161366594Y-100673494D02*
X162260410Y-101423494D01*
X162715298Y-110050000D02*
X162166461Y-106937393D01*
X159317442Y-105752606D02*
X162715298Y-110050000D01*
X158768605Y-102640000D02*
X159317442Y-105752606D01*
X159749478Y-93230000D02*
X157920172Y-97828295D01*
X156636211Y-102640000D02*
X157131990Y-105451705D01*
X157131990Y-105451705D02*
X155302684Y-110050000D01*
X155302684Y-110050000D02*
X154806905Y-107238294D01*
X154806905Y-107238294D02*
X156636211Y-102640000D01*
X152916752Y-101640000D02*
X153810568Y-102390000D01*
X152916752Y-101640000D02*
X153349765Y-100890000D01*
X153349765Y-100890000D02*
X157266908Y-100890000D01*
X153685568Y-102606506D02*
X155013803Y-110139303D01*
X155013803Y-110139303D02*
X154384478Y-110889303D01*
X154384478Y-110889303D02*
X153490663Y-110139303D01*
X153490663Y-110139303D02*
X152208356Y-102866978D01*
X161702397Y-102390000D02*
X162135410Y-101640000D01*
X150498783Y-93171512D02*
X151128108Y-92421512D01*
X151128108Y-92421512D02*
X152021923Y-93171512D01*
X156126018Y-92980000D02*
X155861528Y-91480000D01*
X152021923Y-93171512D02*
X153308638Y-100468831D01*
X153308638Y-100468831D02*
X152725241Y-101479304D01*
X159317442Y-105752606D02*
X158768605Y-102640000D01*
X155290418Y-93280001D02*
X156813558Y-93280001D01*
X156813558Y-93280001D02*
X158102507Y-100590000D01*
X152725241Y-101479304D02*
X153308638Y-100468831D01*
X160038359Y-93140697D02*
X161366594Y-100673494D01*
X160667684Y-92390697D02*
X160038359Y-93140697D01*
X161561499Y-93140697D02*
X160667684Y-92390697D01*
X161702397Y-102390000D02*
X157785254Y-102390000D01*
X157785254Y-102390000D02*
X157520765Y-100890000D01*
X157520765Y-100890000D02*
X161241594Y-100890000D01*
X162166461Y-106937393D02*
X162715298Y-110050000D01*
X152885701Y-96342607D02*
X156283557Y-100640000D01*
X151288805Y-92230000D02*
X152182620Y-92980000D01*
X151918130Y-91480000D02*
X151288805Y-92230000D01*
X150498783Y-93171512D02*
X151831426Y-100729304D01*
X127160000Y-87750000D02*
X147160000Y-87750000D01*
X147160000Y-87750000D02*
X147160000Y-115450000D01*
X147160000Y-115450000D02*
X127160000Y-115450000D01*
X127160000Y-115450000D02*
X127160000Y-87750000D01*
X138860000Y-110300000D02*
X139124491Y-111800000D01*
X140156173Y-92230000D02*
X139526848Y-92980000D01*
X143604054Y-110858488D02*
X144233379Y-110108488D01*
X138152794Y-102690000D02*
X136629655Y-102690000D01*
X139441744Y-109999999D02*
X138152794Y-102690000D01*
X137918604Y-109999999D02*
X139441744Y-109999999D01*
X142710239Y-110108488D02*
X143604054Y-110858488D01*
X136946908Y-100890000D02*
X137211397Y-102390000D01*
X137211397Y-102390000D02*
X133490568Y-102390000D01*
X142814032Y-111800000D02*
X139124491Y-111800000D01*
X139124491Y-111800000D02*
X138860000Y-110300000D01*
X138860000Y-110300000D02*
X142549542Y-110300000D01*
X141046594Y-100673494D02*
X139718359Y-93140697D01*
X131862620Y-92980000D02*
X130968805Y-92230000D01*
X130968805Y-92230000D02*
X131598130Y-91480000D01*
X134970418Y-93280001D02*
X136259368Y-100590000D01*
X131701923Y-93171512D02*
X130808108Y-92421512D01*
X135414720Y-97527394D02*
X135963557Y-100640000D01*
X135963557Y-100640000D02*
X132565701Y-96342607D01*
X137918604Y-109999999D02*
X136629655Y-102690000D01*
X139925257Y-96041706D02*
X138095951Y-100640000D01*
X138095951Y-100640000D02*
X137600172Y-97828295D01*
X137600172Y-97828295D02*
X139429478Y-93230000D01*
X139429478Y-93230000D02*
X139925257Y-96041706D01*
X131888356Y-102866978D02*
X133170663Y-110139303D01*
X137200765Y-100890000D02*
X137465254Y-102390000D01*
X132565701Y-96342607D02*
X132016864Y-93230000D01*
X132016864Y-93230000D02*
X135414720Y-97527394D01*
X134885314Y-110300000D02*
X138606144Y-110300000D01*
X138606144Y-110300000D02*
X138870634Y-111800000D01*
X138870634Y-111800000D02*
X135149804Y-111800000D01*
X132749805Y-110700000D02*
G75*
G03*
X132749805Y-110700000I-1100000J0D01*
G01*
X138448605Y-102640000D02*
X141846461Y-106937393D01*
X132016864Y-93230000D02*
X132565701Y-96342607D01*
X141423524Y-102811169D02*
X142710239Y-110108488D01*
X132405241Y-101479304D02*
X131511426Y-100729304D01*
X133490568Y-102390000D02*
X132596752Y-101640000D01*
X131598130Y-91480000D02*
X135287671Y-91480000D01*
X131511426Y-100729304D02*
X130178783Y-93171512D01*
X136629655Y-102690000D02*
X137918604Y-109999999D01*
X140921594Y-100890000D02*
X141815410Y-101640000D01*
X141815410Y-101640000D02*
X141382397Y-102390000D01*
X138095951Y-100640000D02*
X139925257Y-96041706D01*
X131888356Y-102866978D02*
X132471752Y-101856506D01*
X132471752Y-101856506D02*
X133365568Y-102606506D01*
X135149804Y-111800000D02*
X134255989Y-111050000D01*
X134255989Y-111050000D02*
X134885314Y-110300000D01*
X142710239Y-110108488D02*
X141423524Y-102811169D01*
X141423524Y-102811169D02*
X142006921Y-101800696D01*
X142006921Y-101800696D02*
X142900736Y-102550696D01*
X132471752Y-101856506D02*
X131888356Y-102866978D01*
X142549542Y-110300000D02*
X143443357Y-111050000D01*
X143443357Y-111050000D02*
X142814032Y-111800000D01*
X143604054Y-110858488D02*
X142710239Y-110108488D01*
X134982684Y-110050000D02*
X136811990Y-105451705D01*
X134486905Y-107238294D02*
X134982684Y-110050000D01*
X134255989Y-111050000D02*
X135149804Y-111800000D01*
X140156173Y-92230000D02*
X139262358Y-91480000D01*
X139526848Y-92980000D02*
X140156173Y-92230000D01*
X135806018Y-92980000D02*
X139526848Y-92980000D01*
X135287671Y-91480000D02*
X135552162Y-92980000D01*
X135552162Y-92980000D02*
X131862620Y-92980000D01*
X137600172Y-97828295D02*
X138095951Y-100640000D01*
X130808108Y-92421512D02*
X130178783Y-93171512D01*
X141940410Y-101423494D02*
X141046594Y-100673494D01*
X135541528Y-91480000D02*
X135806018Y-92980000D01*
X139262358Y-91480000D02*
X135541528Y-91480000D01*
X139718359Y-93140697D02*
X140347684Y-92390697D01*
X133170663Y-110139303D02*
X134064478Y-110889303D01*
X142900736Y-102550696D02*
X144233379Y-110108488D01*
X144233379Y-110108488D02*
X143604054Y-110858488D01*
X141846461Y-106937393D02*
X138448605Y-102640000D01*
X137782507Y-100590000D02*
X136259368Y-100590000D01*
X136259368Y-100590000D02*
X134970418Y-93280001D01*
X140347684Y-92390697D02*
X141241499Y-93140697D01*
X142523806Y-100413022D02*
X141241499Y-93140697D01*
X141940410Y-101423494D02*
X142523806Y-100413022D01*
X141046594Y-100673494D02*
X141940410Y-101423494D01*
X142395298Y-110050000D02*
X141846461Y-106937393D01*
X138997442Y-105752606D02*
X142395298Y-110050000D01*
X138448605Y-102640000D02*
X138997442Y-105752606D01*
X139429478Y-93230000D02*
X137600172Y-97828295D01*
X136316211Y-102640000D02*
X136811990Y-105451705D01*
X136811990Y-105451705D02*
X134982684Y-110050000D01*
X134982684Y-110050000D02*
X134486905Y-107238294D01*
X134486905Y-107238294D02*
X136316211Y-102640000D01*
X132596752Y-101640000D02*
X133490568Y-102390000D01*
X132596752Y-101640000D02*
X133029765Y-100890000D01*
X133029765Y-100890000D02*
X136946908Y-100890000D01*
X133365568Y-102606506D02*
X134693803Y-110139303D01*
X134693803Y-110139303D02*
X134064478Y-110889303D01*
X134064478Y-110889303D02*
X133170663Y-110139303D01*
X133170663Y-110139303D02*
X131888356Y-102866978D01*
X141382397Y-102390000D02*
X141815410Y-101640000D01*
X130178783Y-93171512D02*
X130808108Y-92421512D01*
X130808108Y-92421512D02*
X131701923Y-93171512D01*
X135806018Y-92980000D02*
X135541528Y-91480000D01*
X131701923Y-93171512D02*
X132988638Y-100468831D01*
X132988638Y-100468831D02*
X132405241Y-101479304D01*
X138997442Y-105752606D02*
X138448605Y-102640000D01*
X134970418Y-93280001D02*
X136493558Y-93280001D01*
X136493558Y-93280001D02*
X137782507Y-100590000D01*
X132405241Y-101479304D02*
X132988638Y-100468831D01*
X139718359Y-93140697D02*
X141046594Y-100673494D01*
X140347684Y-92390697D02*
X139718359Y-93140697D01*
X141241499Y-93140697D02*
X140347684Y-92390697D01*
X141382397Y-102390000D02*
X137465254Y-102390000D01*
X137465254Y-102390000D02*
X137200765Y-100890000D01*
X137200765Y-100890000D02*
X140921594Y-100890000D01*
X141846461Y-106937393D02*
X142395298Y-110050000D01*
X132565701Y-96342607D02*
X135963557Y-100640000D01*
X130968805Y-92230000D02*
X131862620Y-92980000D01*
X131598130Y-91480000D02*
X130968805Y-92230000D01*
X130178783Y-93171512D02*
X131511426Y-100729304D01*
X106840000Y-87750000D02*
X126840000Y-87750000D01*
X126840000Y-87750000D02*
X126840000Y-115450000D01*
X126840000Y-115450000D02*
X106840000Y-115450000D01*
X106840000Y-115450000D02*
X106840000Y-87750000D01*
X118540000Y-110300000D02*
X118804491Y-111800000D01*
X119836173Y-92230000D02*
X119206848Y-92980000D01*
X123284054Y-110858488D02*
X123913379Y-110108488D01*
X117832794Y-102690000D02*
X116309655Y-102690000D01*
X119121744Y-109999999D02*
X117832794Y-102690000D01*
X117598604Y-109999999D02*
X119121744Y-109999999D01*
X122390239Y-110108488D02*
X123284054Y-110858488D01*
X116626908Y-100890000D02*
X116891397Y-102390000D01*
X116891397Y-102390000D02*
X113170568Y-102390000D01*
X122494032Y-111800000D02*
X118804491Y-111800000D01*
X118804491Y-111800000D02*
X118540000Y-110300000D01*
X118540000Y-110300000D02*
X122229542Y-110300000D01*
X120726594Y-100673494D02*
X119398359Y-93140697D01*
X111542620Y-92980000D02*
X110648805Y-92230000D01*
X110648805Y-92230000D02*
X111278130Y-91480000D01*
X114650418Y-93280001D02*
X115939368Y-100590000D01*
X111381923Y-93171512D02*
X110488108Y-92421512D01*
X115094720Y-97527394D02*
X115643557Y-100640000D01*
X115643557Y-100640000D02*
X112245701Y-96342607D01*
X117598604Y-109999999D02*
X116309655Y-102690000D01*
X119605257Y-96041706D02*
X117775951Y-100640000D01*
X117775951Y-100640000D02*
X117280172Y-97828295D01*
X117280172Y-97828295D02*
X119109478Y-93230000D01*
X119109478Y-93230000D02*
X119605257Y-96041706D01*
X111568356Y-102866978D02*
X112850663Y-110139303D01*
X116880765Y-100890000D02*
X117145254Y-102390000D01*
X112245701Y-96342607D02*
X111696864Y-93230000D01*
X111696864Y-93230000D02*
X115094720Y-97527394D01*
X114565314Y-110300000D02*
X118286144Y-110300000D01*
X118286144Y-110300000D02*
X118550634Y-111800000D01*
X118550634Y-111800000D02*
X114829804Y-111800000D01*
X112429805Y-110700000D02*
G75*
G03*
X112429805Y-110700000I-1100000J0D01*
G01*
X118128605Y-102640000D02*
X121526461Y-106937393D01*
X111696864Y-93230000D02*
X112245701Y-96342607D01*
X121103524Y-102811169D02*
X122390239Y-110108488D01*
X112085241Y-101479304D02*
X111191426Y-100729304D01*
X113170568Y-102390000D02*
X112276752Y-101640000D01*
X111278130Y-91480000D02*
X114967671Y-91480000D01*
X111191426Y-100729304D02*
X109858783Y-93171512D01*
X116309655Y-102690000D02*
X117598604Y-109999999D01*
X120601594Y-100890000D02*
X121495410Y-101640000D01*
X121495410Y-101640000D02*
X121062397Y-102390000D01*
X117775951Y-100640000D02*
X119605257Y-96041706D01*
X111568356Y-102866978D02*
X112151752Y-101856506D01*
X112151752Y-101856506D02*
X113045568Y-102606506D01*
X114829804Y-111800000D02*
X113935989Y-111050000D01*
X113935989Y-111050000D02*
X114565314Y-110300000D01*
X122390239Y-110108488D02*
X121103524Y-102811169D01*
X121103524Y-102811169D02*
X121686921Y-101800696D01*
X121686921Y-101800696D02*
X122580736Y-102550696D01*
X112151752Y-101856506D02*
X111568356Y-102866978D01*
X122229542Y-110300000D02*
X123123357Y-111050000D01*
X123123357Y-111050000D02*
X122494032Y-111800000D01*
X123284054Y-110858488D02*
X122390239Y-110108488D01*
X114662684Y-110050000D02*
X116491990Y-105451705D01*
X114166905Y-107238294D02*
X114662684Y-110050000D01*
X113935989Y-111050000D02*
X114829804Y-111800000D01*
X119836173Y-92230000D02*
X118942358Y-91480000D01*
X119206848Y-92980000D02*
X119836173Y-92230000D01*
X115486018Y-92980000D02*
X119206848Y-92980000D01*
X114967671Y-91480000D02*
X115232162Y-92980000D01*
X115232162Y-92980000D02*
X111542620Y-92980000D01*
X117280172Y-97828295D02*
X117775951Y-100640000D01*
X110488108Y-92421512D02*
X109858783Y-93171512D01*
X121620410Y-101423494D02*
X120726594Y-100673494D01*
X115221528Y-91480000D02*
X115486018Y-92980000D01*
X118942358Y-91480000D02*
X115221528Y-91480000D01*
X119398359Y-93140697D02*
X120027684Y-92390697D01*
X112850663Y-110139303D02*
X113744478Y-110889303D01*
X122580736Y-102550696D02*
X123913379Y-110108488D01*
X123913379Y-110108488D02*
X123284054Y-110858488D01*
X121526461Y-106937393D02*
X118128605Y-102640000D01*
X117462507Y-100590000D02*
X115939368Y-100590000D01*
X115939368Y-100590000D02*
X114650418Y-93280001D01*
X120027684Y-92390697D02*
X120921499Y-93140697D01*
X122203806Y-100413022D02*
X120921499Y-93140697D01*
X121620410Y-101423494D02*
X122203806Y-100413022D01*
X120726594Y-100673494D02*
X121620410Y-101423494D01*
X122075298Y-110050000D02*
X121526461Y-106937393D01*
X118677442Y-105752606D02*
X122075298Y-110050000D01*
X118128605Y-102640000D02*
X118677442Y-105752606D01*
X119109478Y-93230000D02*
X117280172Y-97828295D01*
X115996211Y-102640000D02*
X116491990Y-105451705D01*
X116491990Y-105451705D02*
X114662684Y-110050000D01*
X114662684Y-110050000D02*
X114166905Y-107238294D01*
X114166905Y-107238294D02*
X115996211Y-102640000D01*
X112276752Y-101640000D02*
X113170568Y-102390000D01*
X112276752Y-101640000D02*
X112709765Y-100890000D01*
X112709765Y-100890000D02*
X116626908Y-100890000D01*
X113045568Y-102606506D02*
X114373803Y-110139303D01*
X114373803Y-110139303D02*
X113744478Y-110889303D01*
X113744478Y-110889303D02*
X112850663Y-110139303D01*
X112850663Y-110139303D02*
X111568356Y-102866978D01*
X121062397Y-102390000D02*
X121495410Y-101640000D01*
X109858783Y-93171512D02*
X110488108Y-92421512D01*
X110488108Y-92421512D02*
X111381923Y-93171512D01*
X115486018Y-92980000D02*
X115221528Y-91480000D01*
X111381923Y-93171512D02*
X112668638Y-100468831D01*
X112668638Y-100468831D02*
X112085241Y-101479304D01*
X118677442Y-105752606D02*
X118128605Y-102640000D01*
X114650418Y-93280001D02*
X116173558Y-93280001D01*
X116173558Y-93280001D02*
X117462507Y-100590000D01*
X112085241Y-101479304D02*
X112668638Y-100468831D01*
X119398359Y-93140697D02*
X120726594Y-100673494D01*
X120027684Y-92390697D02*
X119398359Y-93140697D01*
X120921499Y-93140697D02*
X120027684Y-92390697D01*
X121062397Y-102390000D02*
X117145254Y-102390000D01*
X117145254Y-102390000D02*
X116880765Y-100890000D01*
X116880765Y-100890000D02*
X120601594Y-100890000D01*
X121526461Y-106937393D02*
X122075298Y-110050000D01*
X112245701Y-96342607D02*
X115643557Y-100640000D01*
X110648805Y-92230000D02*
X111542620Y-92980000D01*
X111278130Y-91480000D02*
X110648805Y-92230000D01*
X109858783Y-93171512D02*
X111191426Y-100729304D01*
X86520000Y-87750000D02*
X106520000Y-87750000D01*
X106520000Y-87750000D02*
X106520000Y-115450000D01*
X106520000Y-115450000D02*
X86520000Y-115450000D01*
X86520000Y-115450000D02*
X86520000Y-87750000D01*
X98220000Y-110300000D02*
X98484491Y-111800000D01*
X99516173Y-92230000D02*
X98886848Y-92980000D01*
X102964054Y-110858488D02*
X103593379Y-110108488D01*
X97512794Y-102690000D02*
X95989655Y-102690000D01*
X98801744Y-109999999D02*
X97512794Y-102690000D01*
X97278604Y-109999999D02*
X98801744Y-109999999D01*
X102070239Y-110108488D02*
X102964054Y-110858488D01*
X96306908Y-100890000D02*
X96571397Y-102390000D01*
X96571397Y-102390000D02*
X92850568Y-102390000D01*
X102174032Y-111800000D02*
X98484491Y-111800000D01*
X98484491Y-111800000D02*
X98220000Y-110300000D01*
X98220000Y-110300000D02*
X101909542Y-110300000D01*
X100406594Y-100673494D02*
X99078359Y-93140697D01*
X91222620Y-92980000D02*
X90328805Y-92230000D01*
X90328805Y-92230000D02*
X90958130Y-91480000D01*
X94330418Y-93280001D02*
X95619368Y-100590000D01*
X91061923Y-93171512D02*
X90168108Y-92421512D01*
X94774720Y-97527394D02*
X95323557Y-100640000D01*
X95323557Y-100640000D02*
X91925701Y-96342607D01*
X97278604Y-109999999D02*
X95989655Y-102690000D01*
X99285257Y-96041706D02*
X97455951Y-100640000D01*
X97455951Y-100640000D02*
X96960172Y-97828295D01*
X96960172Y-97828295D02*
X98789478Y-93230000D01*
X98789478Y-93230000D02*
X99285257Y-96041706D01*
X91248356Y-102866978D02*
X92530663Y-110139303D01*
X96560765Y-100890000D02*
X96825254Y-102390000D01*
X91925701Y-96342607D02*
X91376864Y-93230000D01*
X91376864Y-93230000D02*
X94774720Y-97527394D01*
X94245314Y-110300000D02*
X97966144Y-110300000D01*
X97966144Y-110300000D02*
X98230634Y-111800000D01*
X98230634Y-111800000D02*
X94509804Y-111800000D01*
X92109805Y-110700000D02*
G75*
G03*
X92109805Y-110700000I-1100000J0D01*
G01*
X97808605Y-102640000D02*
X101206461Y-106937393D01*
X91376864Y-93230000D02*
X91925701Y-96342607D01*
X100783524Y-102811169D02*
X102070239Y-110108488D01*
X91765241Y-101479304D02*
X90871426Y-100729304D01*
X92850568Y-102390000D02*
X91956752Y-101640000D01*
X90958130Y-91480000D02*
X94647671Y-91480000D01*
X90871426Y-100729304D02*
X89538783Y-93171512D01*
X95989655Y-102690000D02*
X97278604Y-109999999D01*
X100281594Y-100890000D02*
X101175410Y-101640000D01*
X101175410Y-101640000D02*
X100742397Y-102390000D01*
X97455951Y-100640000D02*
X99285257Y-96041706D01*
X91248356Y-102866978D02*
X91831752Y-101856506D01*
X91831752Y-101856506D02*
X92725568Y-102606506D01*
X94509804Y-111800000D02*
X93615989Y-111050000D01*
X93615989Y-111050000D02*
X94245314Y-110300000D01*
X102070239Y-110108488D02*
X100783524Y-102811169D01*
X100783524Y-102811169D02*
X101366921Y-101800696D01*
X101366921Y-101800696D02*
X102260736Y-102550696D01*
X91831752Y-101856506D02*
X91248356Y-102866978D01*
X101909542Y-110300000D02*
X102803357Y-111050000D01*
X102803357Y-111050000D02*
X102174032Y-111800000D01*
X102964054Y-110858488D02*
X102070239Y-110108488D01*
X94342684Y-110050000D02*
X96171990Y-105451705D01*
X93846905Y-107238294D02*
X94342684Y-110050000D01*
X93615989Y-111050000D02*
X94509804Y-111800000D01*
X99516173Y-92230000D02*
X98622358Y-91480000D01*
X98886848Y-92980000D02*
X99516173Y-92230000D01*
X95166018Y-92980000D02*
X98886848Y-92980000D01*
X94647671Y-91480000D02*
X94912162Y-92980000D01*
X94912162Y-92980000D02*
X91222620Y-92980000D01*
X96960172Y-97828295D02*
X97455951Y-100640000D01*
X90168108Y-92421512D02*
X89538783Y-93171512D01*
X101300410Y-101423494D02*
X100406594Y-100673494D01*
X94901528Y-91480000D02*
X95166018Y-92980000D01*
X98622358Y-91480000D02*
X94901528Y-91480000D01*
X99078359Y-93140697D02*
X99707684Y-92390697D01*
X92530663Y-110139303D02*
X93424478Y-110889303D01*
X102260736Y-102550696D02*
X103593379Y-110108488D01*
X103593379Y-110108488D02*
X102964054Y-110858488D01*
X101206461Y-106937393D02*
X97808605Y-102640000D01*
X97142507Y-100590000D02*
X95619368Y-100590000D01*
X95619368Y-100590000D02*
X94330418Y-93280001D01*
X99707684Y-92390697D02*
X100601499Y-93140697D01*
X101883806Y-100413022D02*
X100601499Y-93140697D01*
X101300410Y-101423494D02*
X101883806Y-100413022D01*
X100406594Y-100673494D02*
X101300410Y-101423494D01*
X101755298Y-110050000D02*
X101206461Y-106937393D01*
X98357442Y-105752606D02*
X101755298Y-110050000D01*
X97808605Y-102640000D02*
X98357442Y-105752606D01*
X98789478Y-93230000D02*
X96960172Y-97828295D01*
X95676211Y-102640000D02*
X96171990Y-105451705D01*
X96171990Y-105451705D02*
X94342684Y-110050000D01*
X94342684Y-110050000D02*
X93846905Y-107238294D01*
X93846905Y-107238294D02*
X95676211Y-102640000D01*
X91956752Y-101640000D02*
X92850568Y-102390000D01*
X91956752Y-101640000D02*
X92389765Y-100890000D01*
X92389765Y-100890000D02*
X96306908Y-100890000D01*
X92725568Y-102606506D02*
X94053803Y-110139303D01*
X94053803Y-110139303D02*
X93424478Y-110889303D01*
X93424478Y-110889303D02*
X92530663Y-110139303D01*
X92530663Y-110139303D02*
X91248356Y-102866978D01*
X100742397Y-102390000D02*
X101175410Y-101640000D01*
X89538783Y-93171512D02*
X90168108Y-92421512D01*
X90168108Y-92421512D02*
X91061923Y-93171512D01*
X95166018Y-92980000D02*
X94901528Y-91480000D01*
X91061923Y-93171512D02*
X92348638Y-100468831D01*
X92348638Y-100468831D02*
X91765241Y-101479304D01*
X98357442Y-105752606D02*
X97808605Y-102640000D01*
X94330418Y-93280001D02*
X95853558Y-93280001D01*
X95853558Y-93280001D02*
X97142507Y-100590000D01*
X91765241Y-101479304D02*
X92348638Y-100468831D01*
X99078359Y-93140697D02*
X100406594Y-100673494D01*
X99707684Y-92390697D02*
X99078359Y-93140697D01*
X100601499Y-93140697D02*
X99707684Y-92390697D01*
X100742397Y-102390000D02*
X96825254Y-102390000D01*
X96825254Y-102390000D02*
X96560765Y-100890000D01*
X96560765Y-100890000D02*
X100281594Y-100890000D01*
X101206461Y-106937393D02*
X101755298Y-110050000D01*
X91925701Y-96342607D02*
X95323557Y-100640000D01*
X90328805Y-92230000D02*
X91222620Y-92980000D01*
X90958130Y-91480000D02*
X90328805Y-92230000D01*
X89538783Y-93171512D02*
X90871426Y-100729304D01*
X77414285Y-87828380D02*
X77414285Y-86828380D01*
X77176190Y-86828380D01*
X77033333Y-86876000D01*
X76938095Y-86971238D01*
X76890476Y-87066476D01*
X76842857Y-87256952D01*
X76842857Y-87399809D01*
X76890476Y-87590285D01*
X76938095Y-87685523D01*
X77033333Y-87780761D01*
X77176190Y-87828380D01*
X77414285Y-87828380D01*
X76461904Y-87780761D02*
X76319047Y-87828380D01*
X76080952Y-87828380D01*
X75985714Y-87780761D01*
X75938095Y-87733142D01*
X75890476Y-87637904D01*
X75890476Y-87542666D01*
X75938095Y-87447428D01*
X75985714Y-87399809D01*
X76080952Y-87352190D01*
X76271428Y-87304571D01*
X76366666Y-87256952D01*
X76414285Y-87209333D01*
X76461904Y-87114095D01*
X76461904Y-87018857D01*
X76414285Y-86923619D01*
X76366666Y-86876000D01*
X76271428Y-86828380D01*
X76033333Y-86828380D01*
X75890476Y-86876000D01*
X74938095Y-87828380D02*
X75509523Y-87828380D01*
X75223809Y-87828380D02*
X75223809Y-86828380D01*
X75319047Y-86971238D01*
X75414285Y-87066476D01*
X75509523Y-87114095D01*
X219654285Y-87828380D02*
X219654285Y-86828380D01*
X219416190Y-86828380D01*
X219273333Y-86876000D01*
X219178095Y-86971238D01*
X219130476Y-87066476D01*
X219082857Y-87256952D01*
X219082857Y-87399809D01*
X219130476Y-87590285D01*
X219178095Y-87685523D01*
X219273333Y-87780761D01*
X219416190Y-87828380D01*
X219654285Y-87828380D01*
X218701904Y-87780761D02*
X218559047Y-87828380D01*
X218320952Y-87828380D01*
X218225714Y-87780761D01*
X218178095Y-87733142D01*
X218130476Y-87637904D01*
X218130476Y-87542666D01*
X218178095Y-87447428D01*
X218225714Y-87399809D01*
X218320952Y-87352190D01*
X218511428Y-87304571D01*
X218606666Y-87256952D01*
X218654285Y-87209333D01*
X218701904Y-87114095D01*
X218701904Y-87018857D01*
X218654285Y-86923619D01*
X218606666Y-86876000D01*
X218511428Y-86828380D01*
X218273333Y-86828380D01*
X218130476Y-86876000D01*
X217559047Y-87256952D02*
X217654285Y-87209333D01*
X217701904Y-87161714D01*
X217749523Y-87066476D01*
X217749523Y-87018857D01*
X217701904Y-86923619D01*
X217654285Y-86876000D01*
X217559047Y-86828380D01*
X217368571Y-86828380D01*
X217273333Y-86876000D01*
X217225714Y-86923619D01*
X217178095Y-87018857D01*
X217178095Y-87066476D01*
X217225714Y-87161714D01*
X217273333Y-87209333D01*
X217368571Y-87256952D01*
X217559047Y-87256952D01*
X217654285Y-87304571D01*
X217701904Y-87352190D01*
X217749523Y-87447428D01*
X217749523Y-87637904D01*
X217701904Y-87733142D01*
X217654285Y-87780761D01*
X217559047Y-87828380D01*
X217368571Y-87828380D01*
X217273333Y-87780761D01*
X217225714Y-87733142D01*
X217178095Y-87637904D01*
X217178095Y-87447428D01*
X217225714Y-87352190D01*
X217273333Y-87304571D01*
X217368571Y-87256952D01*
X199334285Y-87828380D02*
X199334285Y-86828380D01*
X199096190Y-86828380D01*
X198953333Y-86876000D01*
X198858095Y-86971238D01*
X198810476Y-87066476D01*
X198762857Y-87256952D01*
X198762857Y-87399809D01*
X198810476Y-87590285D01*
X198858095Y-87685523D01*
X198953333Y-87780761D01*
X199096190Y-87828380D01*
X199334285Y-87828380D01*
X198381904Y-87780761D02*
X198239047Y-87828380D01*
X198000952Y-87828380D01*
X197905714Y-87780761D01*
X197858095Y-87733142D01*
X197810476Y-87637904D01*
X197810476Y-87542666D01*
X197858095Y-87447428D01*
X197905714Y-87399809D01*
X198000952Y-87352190D01*
X198191428Y-87304571D01*
X198286666Y-87256952D01*
X198334285Y-87209333D01*
X198381904Y-87114095D01*
X198381904Y-87018857D01*
X198334285Y-86923619D01*
X198286666Y-86876000D01*
X198191428Y-86828380D01*
X197953333Y-86828380D01*
X197810476Y-86876000D01*
X197477142Y-86828380D02*
X196810476Y-86828380D01*
X197239047Y-87828380D01*
X179014285Y-87828380D02*
X179014285Y-86828380D01*
X178776190Y-86828380D01*
X178633333Y-86876000D01*
X178538095Y-86971238D01*
X178490476Y-87066476D01*
X178442857Y-87256952D01*
X178442857Y-87399809D01*
X178490476Y-87590285D01*
X178538095Y-87685523D01*
X178633333Y-87780761D01*
X178776190Y-87828380D01*
X179014285Y-87828380D01*
X178061904Y-87780761D02*
X177919047Y-87828380D01*
X177680952Y-87828380D01*
X177585714Y-87780761D01*
X177538095Y-87733142D01*
X177490476Y-87637904D01*
X177490476Y-87542666D01*
X177538095Y-87447428D01*
X177585714Y-87399809D01*
X177680952Y-87352190D01*
X177871428Y-87304571D01*
X177966666Y-87256952D01*
X178014285Y-87209333D01*
X178061904Y-87114095D01*
X178061904Y-87018857D01*
X178014285Y-86923619D01*
X177966666Y-86876000D01*
X177871428Y-86828380D01*
X177633333Y-86828380D01*
X177490476Y-86876000D01*
X176633333Y-86828380D02*
X176823809Y-86828380D01*
X176919047Y-86876000D01*
X176966666Y-86923619D01*
X177061904Y-87066476D01*
X177109523Y-87256952D01*
X177109523Y-87637904D01*
X177061904Y-87733142D01*
X177014285Y-87780761D01*
X176919047Y-87828380D01*
X176728571Y-87828380D01*
X176633333Y-87780761D01*
X176585714Y-87733142D01*
X176538095Y-87637904D01*
X176538095Y-87399809D01*
X176585714Y-87304571D01*
X176633333Y-87256952D01*
X176728571Y-87209333D01*
X176919047Y-87209333D01*
X177014285Y-87256952D01*
X177061904Y-87304571D01*
X177109523Y-87399809D01*
X158694285Y-87828380D02*
X158694285Y-86828380D01*
X158456190Y-86828380D01*
X158313333Y-86876000D01*
X158218095Y-86971238D01*
X158170476Y-87066476D01*
X158122857Y-87256952D01*
X158122857Y-87399809D01*
X158170476Y-87590285D01*
X158218095Y-87685523D01*
X158313333Y-87780761D01*
X158456190Y-87828380D01*
X158694285Y-87828380D01*
X157741904Y-87780761D02*
X157599047Y-87828380D01*
X157360952Y-87828380D01*
X157265714Y-87780761D01*
X157218095Y-87733142D01*
X157170476Y-87637904D01*
X157170476Y-87542666D01*
X157218095Y-87447428D01*
X157265714Y-87399809D01*
X157360952Y-87352190D01*
X157551428Y-87304571D01*
X157646666Y-87256952D01*
X157694285Y-87209333D01*
X157741904Y-87114095D01*
X157741904Y-87018857D01*
X157694285Y-86923619D01*
X157646666Y-86876000D01*
X157551428Y-86828380D01*
X157313333Y-86828380D01*
X157170476Y-86876000D01*
X156265714Y-86828380D02*
X156741904Y-86828380D01*
X156789523Y-87304571D01*
X156741904Y-87256952D01*
X156646666Y-87209333D01*
X156408571Y-87209333D01*
X156313333Y-87256952D01*
X156265714Y-87304571D01*
X156218095Y-87399809D01*
X156218095Y-87637904D01*
X156265714Y-87733142D01*
X156313333Y-87780761D01*
X156408571Y-87828380D01*
X156646666Y-87828380D01*
X156741904Y-87780761D01*
X156789523Y-87733142D01*
X138374285Y-87828380D02*
X138374285Y-86828380D01*
X138136190Y-86828380D01*
X137993333Y-86876000D01*
X137898095Y-86971238D01*
X137850476Y-87066476D01*
X137802857Y-87256952D01*
X137802857Y-87399809D01*
X137850476Y-87590285D01*
X137898095Y-87685523D01*
X137993333Y-87780761D01*
X138136190Y-87828380D01*
X138374285Y-87828380D01*
X137421904Y-87780761D02*
X137279047Y-87828380D01*
X137040952Y-87828380D01*
X136945714Y-87780761D01*
X136898095Y-87733142D01*
X136850476Y-87637904D01*
X136850476Y-87542666D01*
X136898095Y-87447428D01*
X136945714Y-87399809D01*
X137040952Y-87352190D01*
X137231428Y-87304571D01*
X137326666Y-87256952D01*
X137374285Y-87209333D01*
X137421904Y-87114095D01*
X137421904Y-87018857D01*
X137374285Y-86923619D01*
X137326666Y-86876000D01*
X137231428Y-86828380D01*
X136993333Y-86828380D01*
X136850476Y-86876000D01*
X135993333Y-87161714D02*
X135993333Y-87828380D01*
X136231428Y-86780761D02*
X136469523Y-87495047D01*
X135850476Y-87495047D01*
X118054285Y-87828380D02*
X118054285Y-86828380D01*
X117816190Y-86828380D01*
X117673333Y-86876000D01*
X117578095Y-86971238D01*
X117530476Y-87066476D01*
X117482857Y-87256952D01*
X117482857Y-87399809D01*
X117530476Y-87590285D01*
X117578095Y-87685523D01*
X117673333Y-87780761D01*
X117816190Y-87828380D01*
X118054285Y-87828380D01*
X117101904Y-87780761D02*
X116959047Y-87828380D01*
X116720952Y-87828380D01*
X116625714Y-87780761D01*
X116578095Y-87733142D01*
X116530476Y-87637904D01*
X116530476Y-87542666D01*
X116578095Y-87447428D01*
X116625714Y-87399809D01*
X116720952Y-87352190D01*
X116911428Y-87304571D01*
X117006666Y-87256952D01*
X117054285Y-87209333D01*
X117101904Y-87114095D01*
X117101904Y-87018857D01*
X117054285Y-86923619D01*
X117006666Y-86876000D01*
X116911428Y-86828380D01*
X116673333Y-86828380D01*
X116530476Y-86876000D01*
X116197142Y-86828380D02*
X115578095Y-86828380D01*
X115911428Y-87209333D01*
X115768571Y-87209333D01*
X115673333Y-87256952D01*
X115625714Y-87304571D01*
X115578095Y-87399809D01*
X115578095Y-87637904D01*
X115625714Y-87733142D01*
X115673333Y-87780761D01*
X115768571Y-87828380D01*
X116054285Y-87828380D01*
X116149523Y-87780761D01*
X116197142Y-87733142D01*
X97734285Y-87828380D02*
X97734285Y-86828380D01*
X97496190Y-86828380D01*
X97353333Y-86876000D01*
X97258095Y-86971238D01*
X97210476Y-87066476D01*
X97162857Y-87256952D01*
X97162857Y-87399809D01*
X97210476Y-87590285D01*
X97258095Y-87685523D01*
X97353333Y-87780761D01*
X97496190Y-87828380D01*
X97734285Y-87828380D01*
X96781904Y-87780761D02*
X96639047Y-87828380D01*
X96400952Y-87828380D01*
X96305714Y-87780761D01*
X96258095Y-87733142D01*
X96210476Y-87637904D01*
X96210476Y-87542666D01*
X96258095Y-87447428D01*
X96305714Y-87399809D01*
X96400952Y-87352190D01*
X96591428Y-87304571D01*
X96686666Y-87256952D01*
X96734285Y-87209333D01*
X96781904Y-87114095D01*
X96781904Y-87018857D01*
X96734285Y-86923619D01*
X96686666Y-86876000D01*
X96591428Y-86828380D01*
X96353333Y-86828380D01*
X96210476Y-86876000D01*
X95829523Y-86923619D02*
X95781904Y-86876000D01*
X95686666Y-86828380D01*
X95448571Y-86828380D01*
X95353333Y-86876000D01*
X95305714Y-86923619D01*
X95258095Y-87018857D01*
X95258095Y-87114095D01*
X95305714Y-87256952D01*
X95877142Y-87828380D01*
X95258095Y-87828380D01*
%LPC*%
D11*
X228440000Y-92710000D03*
X228440000Y-95250000D03*
X228440000Y-97790000D03*
X228440000Y-100330000D03*
X228440000Y-102870000D03*
X228440000Y-105410000D03*
X228440000Y-107950000D03*
D12*
X228440000Y-110490000D03*
D11*
X66200000Y-110490000D03*
X66200000Y-107950000D03*
X66200000Y-105410000D03*
X66200000Y-102870000D03*
X66200000Y-100330000D03*
X66200000Y-97790000D03*
X66200000Y-95250000D03*
D12*
X66200000Y-92710000D03*
D13*
X68580000Y-91440000D03*
X68580000Y-93980000D03*
X68580000Y-96520000D03*
X68580000Y-99060000D03*
X68580000Y-101600000D03*
X68580000Y-104140000D03*
X68580000Y-106680000D03*
X68580000Y-109220000D03*
X68580000Y-111760000D03*
X83820000Y-111760000D03*
X83820000Y-109220000D03*
X83820000Y-106680000D03*
X83820000Y-104140000D03*
X83820000Y-101600000D03*
X83820000Y-99060000D03*
X83820000Y-96520000D03*
X83820000Y-93980000D03*
G36*
G01*
X84632800Y-91033600D02*
X84632800Y-91846400D01*
G75*
G02*
X84226400Y-92252800I-406400J0D01*
G01*
X83413600Y-92252800D01*
G75*
G02*
X83007200Y-91846400I0J406400D01*
G01*
X83007200Y-91033600D01*
G75*
G02*
X83413600Y-90627200I406400J0D01*
G01*
X84226400Y-90627200D01*
G75*
G02*
X84632800Y-91033600I0J-406400D01*
G01*
G37*
X210820000Y-91440000D03*
X210820000Y-93980000D03*
X210820000Y-96520000D03*
X210820000Y-99060000D03*
X210820000Y-101600000D03*
X210820000Y-104140000D03*
X210820000Y-106680000D03*
X210820000Y-109220000D03*
X210820000Y-111760000D03*
X226060000Y-111760000D03*
X226060000Y-109220000D03*
X226060000Y-106680000D03*
X226060000Y-104140000D03*
X226060000Y-101600000D03*
X226060000Y-99060000D03*
X226060000Y-96520000D03*
X226060000Y-93980000D03*
G36*
G01*
X226872800Y-91033600D02*
X226872800Y-91846400D01*
G75*
G02*
X226466400Y-92252800I-406400J0D01*
G01*
X225653600Y-92252800D01*
G75*
G02*
X225247200Y-91846400I0J406400D01*
G01*
X225247200Y-91033600D01*
G75*
G02*
X225653600Y-90627200I406400J0D01*
G01*
X226466400Y-90627200D01*
G75*
G02*
X226872800Y-91033600I0J-406400D01*
G01*
G37*
X190500000Y-91440000D03*
X190500000Y-93980000D03*
X190500000Y-96520000D03*
X190500000Y-99060000D03*
X190500000Y-101600000D03*
X190500000Y-104140000D03*
X190500000Y-106680000D03*
X190500000Y-109220000D03*
X190500000Y-111760000D03*
X205740000Y-111760000D03*
X205740000Y-109220000D03*
X205740000Y-106680000D03*
X205740000Y-104140000D03*
X205740000Y-101600000D03*
X205740000Y-99060000D03*
X205740000Y-96520000D03*
X205740000Y-93980000D03*
G36*
G01*
X206552800Y-91033600D02*
X206552800Y-91846400D01*
G75*
G02*
X206146400Y-92252800I-406400J0D01*
G01*
X205333600Y-92252800D01*
G75*
G02*
X204927200Y-91846400I0J406400D01*
G01*
X204927200Y-91033600D01*
G75*
G02*
X205333600Y-90627200I406400J0D01*
G01*
X206146400Y-90627200D01*
G75*
G02*
X206552800Y-91033600I0J-406400D01*
G01*
G37*
X170180000Y-91440000D03*
X170180000Y-93980000D03*
X170180000Y-96520000D03*
X170180000Y-99060000D03*
X170180000Y-101600000D03*
X170180000Y-104140000D03*
X170180000Y-106680000D03*
X170180000Y-109220000D03*
X170180000Y-111760000D03*
X185420000Y-111760000D03*
X185420000Y-109220000D03*
X185420000Y-106680000D03*
X185420000Y-104140000D03*
X185420000Y-101600000D03*
X185420000Y-99060000D03*
X185420000Y-96520000D03*
X185420000Y-93980000D03*
G36*
G01*
X186232800Y-91033600D02*
X186232800Y-91846400D01*
G75*
G02*
X185826400Y-92252800I-406400J0D01*
G01*
X185013600Y-92252800D01*
G75*
G02*
X184607200Y-91846400I0J406400D01*
G01*
X184607200Y-91033600D01*
G75*
G02*
X185013600Y-90627200I406400J0D01*
G01*
X185826400Y-90627200D01*
G75*
G02*
X186232800Y-91033600I0J-406400D01*
G01*
G37*
X149860000Y-91440000D03*
X149860000Y-93980000D03*
X149860000Y-96520000D03*
X149860000Y-99060000D03*
X149860000Y-101600000D03*
X149860000Y-104140000D03*
X149860000Y-106680000D03*
X149860000Y-109220000D03*
X149860000Y-111760000D03*
X165100000Y-111760000D03*
X165100000Y-109220000D03*
X165100000Y-106680000D03*
X165100000Y-104140000D03*
X165100000Y-101600000D03*
X165100000Y-99060000D03*
X165100000Y-96520000D03*
X165100000Y-93980000D03*
G36*
G01*
X165912800Y-91033600D02*
X165912800Y-91846400D01*
G75*
G02*
X165506400Y-92252800I-406400J0D01*
G01*
X164693600Y-92252800D01*
G75*
G02*
X164287200Y-91846400I0J406400D01*
G01*
X164287200Y-91033600D01*
G75*
G02*
X164693600Y-90627200I406400J0D01*
G01*
X165506400Y-90627200D01*
G75*
G02*
X165912800Y-91033600I0J-406400D01*
G01*
G37*
X129540000Y-91440000D03*
X129540000Y-93980000D03*
X129540000Y-96520000D03*
X129540000Y-99060000D03*
X129540000Y-101600000D03*
X129540000Y-104140000D03*
X129540000Y-106680000D03*
X129540000Y-109220000D03*
X129540000Y-111760000D03*
X144780000Y-111760000D03*
X144780000Y-109220000D03*
X144780000Y-106680000D03*
X144780000Y-104140000D03*
X144780000Y-101600000D03*
X144780000Y-99060000D03*
X144780000Y-96520000D03*
X144780000Y-93980000D03*
G36*
G01*
X145592800Y-91033600D02*
X145592800Y-91846400D01*
G75*
G02*
X145186400Y-92252800I-406400J0D01*
G01*
X144373600Y-92252800D01*
G75*
G02*
X143967200Y-91846400I0J406400D01*
G01*
X143967200Y-91033600D01*
G75*
G02*
X144373600Y-90627200I406400J0D01*
G01*
X145186400Y-90627200D01*
G75*
G02*
X145592800Y-91033600I0J-406400D01*
G01*
G37*
X109220000Y-91440000D03*
X109220000Y-93980000D03*
X109220000Y-96520000D03*
X109220000Y-99060000D03*
X109220000Y-101600000D03*
X109220000Y-104140000D03*
X109220000Y-106680000D03*
X109220000Y-109220000D03*
X109220000Y-111760000D03*
X124460000Y-111760000D03*
X124460000Y-109220000D03*
X124460000Y-106680000D03*
X124460000Y-104140000D03*
X124460000Y-101600000D03*
X124460000Y-99060000D03*
X124460000Y-96520000D03*
X124460000Y-93980000D03*
G36*
G01*
X125272800Y-91033600D02*
X125272800Y-91846400D01*
G75*
G02*
X124866400Y-92252800I-406400J0D01*
G01*
X124053600Y-92252800D01*
G75*
G02*
X123647200Y-91846400I0J406400D01*
G01*
X123647200Y-91033600D01*
G75*
G02*
X124053600Y-90627200I406400J0D01*
G01*
X124866400Y-90627200D01*
G75*
G02*
X125272800Y-91033600I0J-406400D01*
G01*
G37*
X88900000Y-91440000D03*
X88900000Y-93980000D03*
X88900000Y-96520000D03*
X88900000Y-99060000D03*
X88900000Y-101600000D03*
X88900000Y-104140000D03*
X88900000Y-106680000D03*
X88900000Y-109220000D03*
X88900000Y-111760000D03*
X104140000Y-111760000D03*
X104140000Y-109220000D03*
X104140000Y-106680000D03*
X104140000Y-104140000D03*
X104140000Y-101600000D03*
X104140000Y-99060000D03*
X104140000Y-96520000D03*
X104140000Y-93980000D03*
G36*
G01*
X104952800Y-91033600D02*
X104952800Y-91846400D01*
G75*
G02*
X104546400Y-92252800I-406400J0D01*
G01*
X103733600Y-92252800D01*
G75*
G02*
X103327200Y-91846400I0J406400D01*
G01*
X103327200Y-91033600D01*
G75*
G02*
X103733600Y-90627200I406400J0D01*
G01*
X104546400Y-90627200D01*
G75*
G02*
X104952800Y-91033600I0J-406400D01*
G01*
G37*
D14*
X67564000Y-110490000D03*
X67564000Y-107950000D03*
X67564000Y-105410000D03*
X67564000Y-102870000D03*
X67564000Y-100330000D03*
X67564000Y-97790000D03*
X67564000Y-95250000D03*
X227076000Y-95250000D03*
X227076000Y-97790000D03*
X227076000Y-100330000D03*
X227076000Y-102870000D03*
X227076000Y-105410000D03*
X227076000Y-107950000D03*
X227076000Y-110490000D03*
D15*
X215392000Y-106045000D03*
X195072000Y-106045000D03*
X174752000Y-106045000D03*
X113792000Y-106045000D03*
X93472000Y-106045000D03*
X140208000Y-104775000D03*
X154432000Y-106045000D03*
X93726000Y-90043000D03*
X195326000Y-90297000D03*
X134112000Y-98425000D03*
X73152000Y-106045000D03*
X221488000Y-106045000D03*
X201168000Y-106045000D03*
X180848000Y-106045000D03*
X119888000Y-106045000D03*
X99695000Y-106045000D03*
X73279000Y-111125000D03*
X77724000Y-108839000D03*
X139319000Y-99949000D03*
X134239000Y-103505000D03*
X134133327Y-104765644D03*
X160655000Y-106045000D03*
X97282000Y-108839000D03*
X93599000Y-111125000D03*
X99314000Y-90043000D03*
X113919000Y-111125000D03*
X117729000Y-108839000D03*
X158369000Y-108839000D03*
X154559000Y-111125000D03*
X215519000Y-111125000D03*
X219202000Y-108587530D03*
X198882000Y-108839000D03*
X200914000Y-90297000D03*
X178562000Y-108839000D03*
X217297000Y-113030000D03*
X197739000Y-113030000D03*
X176657000Y-113030000D03*
X156337000Y-113030000D03*
X116713000Y-113030000D03*
X96139000Y-113030000D03*
X75057000Y-113030000D03*
X195199000Y-111125000D03*
X140208000Y-98298000D03*
X79375000Y-106045000D03*
X174879000Y-111125000D03*
D16*
X70231000Y-92710000D03*
X224409000Y-110490000D03*
X224409000Y-92710000D03*
D15*
X212471000Y-113030000D03*
X203962000Y-113030000D03*
X192151000Y-113030000D03*
X171831000Y-113030000D03*
X151511000Y-113030000D03*
X122809000Y-113030000D03*
X110617000Y-113030000D03*
X102362000Y-113030000D03*
X90551000Y-113030000D03*
X70231000Y-113030000D03*
D16*
X70231000Y-109220000D03*
D15*
X80645000Y-107950000D03*
X101092000Y-107950000D03*
X121285000Y-107950000D03*
X182118000Y-107950000D03*
X202438000Y-107950000D03*
X136144000Y-107950000D03*
X142113000Y-107950000D03*
X161036000Y-107950000D03*
X222631000Y-107950000D03*
X92075000Y-105410000D03*
X112395000Y-105410000D03*
X213995000Y-105410000D03*
X153289000Y-105410000D03*
X133096043Y-105410000D03*
X141605018Y-105410000D03*
X71374000Y-105410000D03*
X193802000Y-105410000D03*
X173482000Y-105410000D03*
X141859010Y-102870000D03*
X80518000Y-102870000D03*
X121412000Y-102870000D03*
X182245000Y-102870000D03*
X202692000Y-102870000D03*
X222758000Y-102870000D03*
X158242000Y-102870000D03*
X100711000Y-102870000D03*
X132334000Y-102870000D03*
X76581000Y-100330000D03*
X217297000Y-100330000D03*
X92456010Y-90043000D03*
X76835000Y-99060000D03*
X81280000Y-101600000D03*
X81280000Y-106426000D03*
X75057000Y-103632000D03*
X77216000Y-99822000D03*
X76581000Y-98298000D03*
X71628000Y-96901000D03*
X77597000Y-97155000D03*
X117221000Y-89281000D03*
X116586000Y-95249990D03*
X91948000Y-98044000D03*
X97914537Y-99829911D03*
X90551000Y-100584000D03*
X110871000Y-104393999D03*
X117475004Y-104394000D03*
X106807000Y-101600000D03*
X101092000Y-106680000D03*
X95885000Y-102234990D03*
X101727000Y-101727000D03*
X96018274Y-100919385D03*
X101346000Y-100965000D03*
X101854000Y-100330000D03*
X96133987Y-98919493D03*
X95123000Y-96520000D03*
X90297000Y-95504000D03*
X118237000Y-89916000D03*
X138176000Y-92075000D03*
X112522000Y-93980000D03*
X112395000Y-99060000D03*
X110363008Y-97917000D03*
X112395000Y-97663000D03*
X126492000Y-89535000D03*
X125476000Y-100330000D03*
X110871000Y-101473000D03*
X136779000Y-89156530D03*
X121412000Y-99695000D03*
X110993488Y-100452472D03*
X126365000Y-113030000D03*
X137668000Y-95250000D03*
X127127000Y-95250000D03*
X137414000Y-98425000D03*
X126365000Y-100838000D03*
X115823990Y-102235000D03*
X122047000Y-102235000D03*
X121793000Y-97155000D03*
X114554000Y-97155010D03*
X122047000Y-100965000D03*
X121666000Y-95885000D03*
X115951000Y-95885000D03*
X111379003Y-96774003D03*
X115316000Y-93980000D03*
X138049000Y-88519000D03*
X133096000Y-93980000D03*
X132461000Y-111125000D03*
X130937000Y-111125000D03*
X132588000Y-99060000D03*
X132080000Y-101600000D03*
X132080000Y-104140000D03*
X139319000Y-89789000D03*
X127762000Y-90297000D03*
X136017000Y-111760000D03*
X136779000Y-111125000D03*
X132715000Y-108585000D03*
X142748021Y-106680000D03*
X141859000Y-91059000D03*
X132842000Y-91440000D03*
X142621000Y-91694000D03*
X136144000Y-92075000D03*
X143256000Y-90678000D03*
X136144000Y-90805000D03*
X140335000Y-99060000D03*
X140335000Y-103632000D03*
X137668000Y-104775000D03*
X136559251Y-95977751D03*
X136017000Y-93980000D03*
X136525000Y-112903000D03*
X146812000Y-113538000D03*
X146304000Y-104521000D03*
X147066000Y-103251000D03*
X159893000Y-96520000D03*
X146049979Y-108585000D03*
X147574000Y-108585000D03*
X147574000Y-109855000D03*
X146050000Y-109855000D03*
X158750000Y-98171000D03*
X151384000Y-98171000D03*
X141605000Y-112902968D03*
X147828000Y-112014000D03*
X158750000Y-99695000D03*
X152019000Y-99695000D03*
X161417000Y-111760000D03*
X161671000Y-109220000D03*
X162433000Y-110490000D03*
X138303000Y-110490000D03*
X158242000Y-99060000D03*
X178308000Y-93980000D03*
X176657000Y-96520000D03*
X177546000Y-99822000D03*
X152654000Y-95250000D03*
X168021000Y-95250000D03*
X172085000Y-103759000D03*
X153289000Y-97536000D03*
X166624000Y-98171000D03*
X171577000Y-95250000D03*
X180086000Y-95250000D03*
X182880000Y-109220000D03*
X156591000Y-101473000D03*
X163576000Y-100965000D03*
X156845000Y-103505000D03*
X163703000Y-103505000D03*
X156337000Y-100330000D03*
X182499000Y-100330000D03*
X184277000Y-99822000D03*
X182245000Y-101092000D03*
X198882000Y-94488000D03*
X198628000Y-99060000D03*
X198247000Y-101600000D03*
X192405000Y-104140000D03*
X187960000Y-106680000D03*
X171831000Y-111125000D03*
X187960000Y-113284000D03*
X192278000Y-110490000D03*
X204470000Y-97409000D03*
X202438000Y-97409000D03*
X207518000Y-114427000D03*
X171831000Y-112014000D03*
X198882000Y-104140000D03*
X176911000Y-101346000D03*
X202438000Y-98298000D03*
X203073000Y-96520000D03*
X212090000Y-102235000D03*
X214376000Y-102235000D03*
X219710000Y-93980000D03*
X214376000Y-101346000D03*
X212090000Y-100965000D03*
X218948000Y-99060000D03*
X222758000Y-100965000D03*
X213741000Y-104140000D03*
X193421000Y-111379000D03*
X208407000Y-113665000D03*
X212598000Y-109220000D03*
X223266000Y-106680000D03*
X219329000Y-104140000D03*
X219710000Y-102489000D03*
X217551000Y-98425000D03*
X221869000Y-96520000D03*
X223139000Y-93980000D03*
X217424000Y-102235000D03*
X219075000Y-101092000D03*
X97790000Y-110490000D03*
X72009000Y-110490000D03*
X118237000Y-110490000D03*
X96519996Y-109855000D03*
X138176000Y-97155000D03*
X116585968Y-97789994D03*
X158750000Y-113157000D03*
X138049000Y-114427000D03*
X178943000Y-110490000D03*
X157480000Y-111125000D03*
X199390000Y-110490000D03*
X177800000Y-109855000D03*
X219710000Y-110490000D03*
X198120000Y-109855000D03*
M02*
