M48
; DRILL file {KiCad 8.0.6} date 2025-01-27T09:09:28-0500
; FORMAT={-:-/ absolute / metric / decimal}
; #@! TF.CreationDate,2025-01-27T09:09:28-05:00
; #@! TF.GenerationSoftware,Kicad,Pcbnew,8.0.6
; #@! TF.FileFunction,MixedPlating,1,4
FMAT,2
METRIC
; #@! TA.AperFunction,Plated,PTH,ViaDrill
T1C0.254
; #@! TA.AperFunction,Plated,PTH,ViaDrill
T2C0.635
; #@! TA.AperFunction,Plated,PTH,ComponentDrill
T3C0.762
; #@! TA.AperFunction,Plated,PTH,ComponentDrill
T4C1.000
%
G90
G05
T1
X70.231Y-113.03
X71.374Y-105.41
X71.628Y-96.901
X72.009Y-110.49
X73.152Y-106.045
X73.279Y-111.125
X75.057Y-103.632
X75.057Y-113.03
X76.581Y-98.298
X76.581Y-100.33
X76.835Y-99.06
X77.216Y-99.822
X77.597Y-97.155
X77.724Y-108.839
X79.375Y-106.045
X80.518Y-102.87
X80.645Y-107.95
X81.28Y-101.6
X81.28Y-106.426
X90.297Y-95.504
X90.551Y-100.584
X90.551Y-113.03
X91.948Y-98.044
X92.075Y-105.41
X92.456Y-90.043
X93.472Y-106.045
X93.599Y-111.125
X93.726Y-90.043
X95.123Y-96.52
X95.885Y-102.235
X96.018Y-100.919
X96.134Y-98.919
X96.139Y-113.03
X96.52Y-109.855
X97.282Y-108.839
X97.79Y-110.49
X97.915Y-99.83
X99.314Y-90.043
X99.695Y-106.045
X100.711Y-102.87
X101.092Y-106.68
X101.092Y-107.95
X101.346Y-100.965
X101.727Y-101.727
X101.854Y-100.33
X102.362Y-113.03
X106.807Y-101.6
X110.363Y-97.917
X110.617Y-113.03
X110.871Y-101.473
X110.871Y-104.394
X110.993Y-100.452
X111.379Y-96.774
X112.395Y-97.663
X112.395Y-99.06
X112.395Y-105.41
X112.522Y-93.98
X113.792Y-106.045
X113.919Y-111.125
X114.554Y-97.155
X115.316Y-93.98
X115.824Y-102.235
X115.951Y-95.885
X116.586Y-97.79
X116.586Y-95.25
X116.713Y-113.03
X117.221Y-89.281
X117.475Y-104.394
X117.729Y-108.839
X118.237Y-89.916
X118.237Y-110.49
X119.888Y-106.045
X121.285Y-107.95
X121.412Y-99.695
X121.412Y-102.87
X121.666Y-95.885
X121.793Y-97.155
X122.047Y-100.965
X122.047Y-102.235
X122.809Y-113.03
X125.476Y-100.33
X126.365Y-100.838
X126.365Y-113.03
X126.492Y-89.535
X127.127Y-95.25
X127.762Y-90.297
X130.937Y-111.125
X132.08Y-101.6
X132.08Y-104.14
X132.334Y-102.87
X132.461Y-111.125
X132.588Y-99.06
X132.715Y-108.585
X132.842Y-91.44
X133.096Y-93.98
X133.096Y-105.41
X134.112Y-98.425
X134.133Y-104.766
X134.239Y-103.505
X136.017Y-93.98
X136.017Y-111.76
X136.144Y-90.805
X136.144Y-92.075
X136.144Y-107.95
X136.525Y-112.903
X136.559Y-95.978
X136.779Y-89.157
X136.779Y-111.125
X137.414Y-98.425
X137.668Y-95.25
X137.668Y-104.775
X138.049Y-88.519
X138.049Y-114.427
X138.176Y-92.075
X138.176Y-97.155
X138.303Y-110.49
X139.319Y-89.789
X139.319Y-99.949
X140.208Y-98.298
X140.208Y-104.775
X140.335Y-99.06
X140.335Y-103.632
X141.605Y-112.903
X141.605Y-105.41
X141.859Y-91.059
X141.859Y-102.87
X142.113Y-107.95
X142.621Y-91.694
X142.748Y-106.68
X143.256Y-90.678
X146.05Y-108.585
X146.05Y-109.855
X146.304Y-104.521
X146.812Y-113.538
X147.066Y-103.251
X147.574Y-108.585
X147.574Y-109.855
X147.828Y-112.014
X151.384Y-98.171
X151.511Y-113.03
X152.019Y-99.695
X152.654Y-95.25
X153.289Y-97.536
X153.289Y-105.41
X154.432Y-106.045
X154.559Y-111.125
X156.337Y-100.33
X156.337Y-113.03
X156.591Y-101.473
X156.845Y-103.505
X157.48Y-111.125
X158.242Y-99.06
X158.242Y-102.87
X158.369Y-108.839
X158.75Y-98.171
X158.75Y-99.695
X158.75Y-113.157
X159.893Y-96.52
X160.655Y-106.045
X161.036Y-107.95
X161.417Y-111.76
X161.671Y-109.22
X162.433Y-110.49
X163.576Y-100.965
X163.703Y-103.505
X166.624Y-98.171
X168.021Y-95.25
X171.577Y-95.25
X171.831Y-111.125
X171.831Y-112.014
X171.831Y-113.03
X172.085Y-103.759
X173.482Y-105.41
X174.752Y-106.045
X174.879Y-111.125
X176.657Y-96.52
X176.657Y-113.03
X176.911Y-101.346
X177.546Y-99.822
X177.8Y-109.855
X178.308Y-93.98
X178.562Y-108.839
X178.943Y-110.49
X180.086Y-95.25
X180.848Y-106.045
X182.118Y-107.95
X182.245Y-101.092
X182.245Y-102.87
X182.499Y-100.33
X182.88Y-109.22
X184.277Y-99.822
X187.96Y-106.68
X187.96Y-113.284
X192.151Y-113.03
X192.278Y-110.49
X192.405Y-104.14
X193.421Y-111.379
X193.802Y-105.41
X195.072Y-106.045
X195.199Y-111.125
X195.326Y-90.297
X197.739Y-113.03
X198.12Y-109.855
X198.247Y-101.6
X198.628Y-99.06
X198.882Y-94.488
X198.882Y-104.14
X198.882Y-108.839
X199.39Y-110.49
X200.914Y-90.297
X201.168Y-106.045
X202.438Y-97.409
X202.438Y-98.298
X202.438Y-107.95
X202.692Y-102.87
X203.073Y-96.52
X203.962Y-113.03
X204.47Y-97.409
X207.518Y-114.427
X208.407Y-113.665
X212.09Y-100.965
X212.09Y-102.235
X212.471Y-113.03
X212.598Y-109.22
X213.741Y-104.14
X213.995Y-105.41
X214.376Y-101.346
X214.376Y-102.235
X215.392Y-106.045
X215.519Y-111.125
X217.297Y-100.33
X217.297Y-113.03
X217.424Y-102.235
X217.551Y-98.425
X218.948Y-99.06
X219.075Y-101.092
X219.202Y-108.588
X219.329Y-104.14
X219.71Y-93.98
X219.71Y-102.489
X219.71Y-110.49
X221.488Y-106.045
X221.869Y-96.52
X222.631Y-107.95
X222.758Y-100.965
X222.758Y-102.87
X223.139Y-93.98
X223.266Y-106.68
T2
X70.231Y-92.71
X70.231Y-109.22
X224.409Y-92.71
X224.409Y-110.49
T3
X68.58Y-91.44
X68.58Y-93.98
X68.58Y-96.52
X68.58Y-99.06
X68.58Y-101.6
X68.58Y-104.14
X68.58Y-106.68
X68.58Y-109.22
X68.58Y-111.76
X83.82Y-91.44
X83.82Y-93.98
X83.82Y-96.52
X83.82Y-99.06
X83.82Y-101.6
X83.82Y-104.14
X83.82Y-106.68
X83.82Y-109.22
X83.82Y-111.76
X88.9Y-91.44
X88.9Y-93.98
X88.9Y-96.52
X88.9Y-99.06
X88.9Y-101.6
X88.9Y-104.14
X88.9Y-106.68
X88.9Y-109.22
X88.9Y-111.76
X104.14Y-91.44
X104.14Y-93.98
X104.14Y-96.52
X104.14Y-99.06
X104.14Y-101.6
X104.14Y-104.14
X104.14Y-106.68
X104.14Y-109.22
X104.14Y-111.76
X109.22Y-91.44
X109.22Y-93.98
X109.22Y-96.52
X109.22Y-99.06
X109.22Y-101.6
X109.22Y-104.14
X109.22Y-106.68
X109.22Y-109.22
X109.22Y-111.76
X124.46Y-91.44
X124.46Y-93.98
X124.46Y-96.52
X124.46Y-99.06
X124.46Y-101.6
X124.46Y-104.14
X124.46Y-106.68
X124.46Y-109.22
X124.46Y-111.76
X129.54Y-91.44
X129.54Y-93.98
X129.54Y-96.52
X129.54Y-99.06
X129.54Y-101.6
X129.54Y-104.14
X129.54Y-106.68
X129.54Y-109.22
X129.54Y-111.76
X144.78Y-91.44
X144.78Y-93.98
X144.78Y-96.52
X144.78Y-99.06
X144.78Y-101.6
X144.78Y-104.14
X144.78Y-106.68
X144.78Y-109.22
X144.78Y-111.76
X149.86Y-91.44
X149.86Y-93.98
X149.86Y-96.52
X149.86Y-99.06
X149.86Y-101.6
X149.86Y-104.14
X149.86Y-106.68
X149.86Y-109.22
X149.86Y-111.76
X165.1Y-91.44
X165.1Y-93.98
X165.1Y-96.52
X165.1Y-99.06
X165.1Y-101.6
X165.1Y-104.14
X165.1Y-106.68
X165.1Y-109.22
X165.1Y-111.76
X170.18Y-91.44
X170.18Y-93.98
X170.18Y-96.52
X170.18Y-99.06
X170.18Y-101.6
X170.18Y-104.14
X170.18Y-106.68
X170.18Y-109.22
X170.18Y-111.76
X185.42Y-91.44
X185.42Y-93.98
X185.42Y-96.52
X185.42Y-99.06
X185.42Y-101.6
X185.42Y-104.14
X185.42Y-106.68
X185.42Y-109.22
X185.42Y-111.76
X190.5Y-91.44
X190.5Y-93.98
X190.5Y-96.52
X190.5Y-99.06
X190.5Y-101.6
X190.5Y-104.14
X190.5Y-106.68
X190.5Y-109.22
X190.5Y-111.76
X205.74Y-91.44
X205.74Y-93.98
X205.74Y-96.52
X205.74Y-99.06
X205.74Y-101.6
X205.74Y-104.14
X205.74Y-106.68
X205.74Y-109.22
X205.74Y-111.76
X210.82Y-91.44
X210.82Y-93.98
X210.82Y-96.52
X210.82Y-99.06
X210.82Y-101.6
X210.82Y-104.14
X210.82Y-106.68
X210.82Y-109.22
X210.82Y-111.76
X226.06Y-91.44
X226.06Y-93.98
X226.06Y-96.52
X226.06Y-99.06
X226.06Y-101.6
X226.06Y-104.14
X226.06Y-106.68
X226.06Y-109.22
X226.06Y-111.76
T4
X66.2Y-92.71
X66.2Y-95.25
X66.2Y-97.79
X66.2Y-100.33
X66.2Y-102.87
X66.2Y-105.41
X66.2Y-107.95
X66.2Y-110.49
X228.44Y-92.71
X228.44Y-95.25
X228.44Y-97.79
X228.44Y-100.33
X228.44Y-102.87
X228.44Y-105.41
X228.44Y-107.95
X228.44Y-110.49
M30
