M48
; DRILL file {KiCad (5.1.4-7-g3f91db25d)} date Sat Sep 28 14:27:41 2019
; FORMAT={3:3/ absolute / metric / keep zeros}
; #@! TF.CreationDate,2019-09-28T14:27:41-04:00
; #@! TF.GenerationSoftware,Kicad,Pcbnew,(5.1.4-7-g3f91db25d)
FMAT,2
METRIC
T1C0.254
T2C0.635
T3C0.762
T4C1.000
%
G90
G05
T1
X070231Y-113030
X071374Y-105410
X071628Y-096901
X072009Y-110490
X073152Y-106045
X073279Y-111125
X075057Y-103632
X075057Y-113030
X076581Y-098298
X076581Y-100330
X076835Y-099060
X077216Y-099822
X077597Y-097155
X077724Y-108839
X079375Y-106045
X080518Y-102870
X080645Y-107950
X081280Y-101600
X081280Y-106426
X090297Y-095504
X090551Y-100584
X090551Y-113030
X091948Y-098044
X092075Y-105410
X092456Y-090043
X093472Y-106045
X093599Y-111125
X093726Y-090043
X095123Y-096520
X095885Y-102235
X096018Y-100919
X096134Y-098919
X096139Y-113030
X096520Y-109855
X097282Y-108839
X097790Y-110490
X097915Y-099830
X099314Y-090043
X099695Y-106045
X100711Y-102870
X101092Y-106680
X101092Y-107950
X101346Y-100965
X101727Y-101727
X101854Y-100330
X102362Y-113030
X106807Y-101600
X110363Y-097917
X110617Y-113030
X110871Y-101473
X110871Y-104394
X110993Y-100452
X111379Y-096774
X112395Y-097663
X112395Y-099060
X112395Y-105410
X112522Y-093980
X113792Y-106045
X113919Y-111125
X114554Y-097155
X115316Y-093980
X115824Y-102235
X115951Y-095885
X116586Y-097790
X116586Y-095250
X116713Y-113030
X117221Y-089281
X117475Y-104394
X117729Y-108839
X118237Y-089916
X118237Y-110490
X119888Y-106045
X121285Y-107950
X121412Y-099695
X121412Y-102870
X121666Y-095885
X121793Y-097155
X122047Y-100965
X122047Y-102235
X122809Y-113030
X125476Y-100330
X126365Y-100838
X126365Y-113030
X126492Y-089535
X127127Y-095250
X127762Y-090297
X130937Y-111125
X132080Y-101600
X132080Y-104140
X132334Y-102870
X132461Y-111125
X132588Y-099060
X132715Y-108585
X132842Y-091440
X133096Y-093980
X133096Y-105410
X134112Y-098425
X134133Y-104766
X134239Y-103505
X136017Y-093980
X136017Y-111760
X136144Y-090805
X136144Y-092075
X136144Y-107950
X136525Y-112903
X136559Y-095978
X136779Y-089157
X136779Y-111125
X137414Y-098425
X137668Y-095250
X137668Y-104775
X138049Y-088519
X138049Y-114427
X138176Y-092075
X138176Y-097155
X138303Y-110490
X139319Y-089789
X139319Y-099949
X140208Y-098298
X140208Y-104775
X140335Y-099060
X140335Y-103632
X141605Y-112903
X141605Y-105410
X141859Y-091059
X141859Y-102870
X142113Y-107950
X142621Y-091694
X142748Y-106680
X143256Y-090678
X146050Y-108585
X146050Y-109855
X146304Y-104521
X146812Y-113538
X147066Y-103251
X147574Y-108585
X147574Y-109855
X147828Y-112014
X151384Y-098171
X151511Y-113030
X152019Y-099695
X152654Y-095250
X153289Y-097536
X153289Y-105410
X154432Y-106045
X154559Y-111125
X156337Y-100330
X156337Y-113030
X156591Y-101473
X156845Y-103505
X157480Y-111125
X158242Y-099060
X158242Y-102870
X158369Y-108839
X158750Y-098171
X158750Y-099695
X158750Y-113157
X159893Y-096520
X160655Y-106045
X161036Y-107950
X161417Y-111760
X161671Y-109220
X162433Y-110490
X163576Y-100965
X163703Y-103505
X166624Y-098171
X168021Y-095250
X171577Y-095250
X171831Y-111125
X171831Y-112014
X171831Y-113030
X172085Y-103759
X173482Y-105410
X174752Y-106045
X174879Y-111125
X176657Y-096520
X176657Y-113030
X176911Y-101346
X177546Y-099822
X177800Y-109855
X178308Y-093980
X178562Y-108839
X178943Y-110490
X180086Y-095250
X180848Y-106045
X182118Y-107950
X182245Y-101092
X182245Y-102870
X182499Y-100330
X182880Y-109220
X184277Y-099822
X187960Y-106680
X187960Y-113284
X192151Y-113030
X192278Y-110490
X192405Y-104140
X193421Y-111379
X193802Y-105410
X195072Y-106045
X195199Y-111125
X195326Y-090297
X197739Y-113030
X198120Y-109855
X198247Y-101600
X198628Y-099060
X198882Y-094488
X198882Y-104140
X198882Y-108839
X199390Y-110490
X200914Y-090297
X201168Y-106045
X202438Y-097409
X202438Y-098298
X202438Y-107950
X202692Y-102870
X203073Y-096520
X203962Y-113030
X204470Y-097409
X207518Y-114427
X208407Y-113665
X212090Y-100965
X212090Y-102235
X212471Y-113030
X212598Y-109220
X213741Y-104140
X213995Y-105410
X214376Y-101346
X214376Y-102235
X215392Y-106045
X215519Y-111125
X217297Y-100330
X217297Y-113030
X217424Y-102235
X217551Y-098425
X218948Y-099060
X219075Y-101092
X219202Y-108588
X219329Y-104140
X219710Y-093980
X219710Y-102489
X219710Y-110490
X221488Y-106045
X221869Y-096520
X222631Y-107950
X222758Y-100965
X222758Y-102870
X223139Y-093980
X223266Y-106680
T2
X070231Y-092710
X070231Y-109220
X224409Y-092710
X224409Y-110490
T3
X068580Y-091440
X068580Y-093980
X068580Y-096520
X068580Y-099060
X068580Y-101600
X068580Y-104140
X068580Y-106680
X068580Y-109220
X068580Y-111760
X083820Y-091440
X083820Y-093980
X083820Y-096520
X083820Y-099060
X083820Y-101600
X083820Y-104140
X083820Y-106680
X083820Y-109220
X083820Y-111760
X210820Y-091440
X210820Y-093980
X210820Y-096520
X210820Y-099060
X210820Y-101600
X210820Y-104140
X210820Y-106680
X210820Y-109220
X210820Y-111760
X226060Y-091440
X226060Y-093980
X226060Y-096520
X226060Y-099060
X226060Y-101600
X226060Y-104140
X226060Y-106680
X226060Y-109220
X226060Y-111760
X109220Y-091440
X109220Y-093980
X109220Y-096520
X109220Y-099060
X109220Y-101600
X109220Y-104140
X109220Y-106680
X109220Y-109220
X109220Y-111760
X124460Y-091440
X124460Y-093980
X124460Y-096520
X124460Y-099060
X124460Y-101600
X124460Y-104140
X124460Y-106680
X124460Y-109220
X124460Y-111760
X088900Y-091440
X088900Y-093980
X088900Y-096520
X088900Y-099060
X088900Y-101600
X088900Y-104140
X088900Y-106680
X088900Y-109220
X088900Y-111760
X104140Y-091440
X104140Y-093980
X104140Y-096520
X104140Y-099060
X104140Y-101600
X104140Y-104140
X104140Y-106680
X104140Y-109220
X104140Y-111760
X190500Y-091440
X190500Y-093980
X190500Y-096520
X190500Y-099060
X190500Y-101600
X190500Y-104140
X190500Y-106680
X190500Y-109220
X190500Y-111760
X205740Y-091440
X205740Y-093980
X205740Y-096520
X205740Y-099060
X205740Y-101600
X205740Y-104140
X205740Y-106680
X205740Y-109220
X205740Y-111760
X149860Y-091440
X149860Y-093980
X149860Y-096520
X149860Y-099060
X149860Y-101600
X149860Y-104140
X149860Y-106680
X149860Y-109220
X149860Y-111760
X165100Y-091440
X165100Y-093980
X165100Y-096520
X165100Y-099060
X165100Y-101600
X165100Y-104140
X165100Y-106680
X165100Y-109220
X165100Y-111760
X170180Y-091440
X170180Y-093980
X170180Y-096520
X170180Y-099060
X170180Y-101600
X170180Y-104140
X170180Y-106680
X170180Y-109220
X170180Y-111760
X185420Y-091440
X185420Y-093980
X185420Y-096520
X185420Y-099060
X185420Y-101600
X185420Y-104140
X185420Y-106680
X185420Y-109220
X185420Y-111760
X129540Y-091440
X129540Y-093980
X129540Y-096520
X129540Y-099060
X129540Y-101600
X129540Y-104140
X129540Y-106680
X129540Y-109220
X129540Y-111760
X144780Y-091440
X144780Y-093980
X144780Y-096520
X144780Y-099060
X144780Y-101600
X144780Y-104140
X144780Y-106680
X144780Y-109220
X144780Y-111760
T4
X228440Y-092710
X228440Y-095250
X228440Y-097790
X228440Y-100330
X228440Y-102870
X228440Y-105410
X228440Y-107950
X228440Y-110490
X066200Y-092710
X066200Y-095250
X066200Y-097790
X066200Y-100330
X066200Y-102870
X066200Y-105410
X066200Y-107950
X066200Y-110490
T0
M30
