G04 #@! TF.GenerationSoftware,KiCad,Pcbnew,(5.1.4-7-g3f91db25d)*
G04 #@! TF.CreationDate,2019-09-28T14:27:35-04:00*
G04 #@! TF.ProjectId,16seg,31367365-672e-46b6-9963-61645f706362,rev?*
G04 #@! TF.SameCoordinates,Original*
G04 #@! TF.FileFunction,Legend,Top*
G04 #@! TF.FilePolarity,Positive*
%FSLAX46Y46*%
G04 Gerber Fmt 4.6, Leading zero omitted, Abs format (unit mm)*
G04 Created by KiCad (PCBNEW (5.1.4-7-g3f91db25d)) date 2019-09-28 14:27:35*
%MOMM*%
%LPD*%
G04 APERTURE LIST*
%ADD10C,0.150000*%
%ADD11C,0.120000*%
%ADD12C,1.101600*%
%ADD13C,1.625600*%
%ADD14C,0.100000*%
%ADD15R,1.301600X1.701600*%
%ADD16O,1.801600X1.801600*%
%ADD17C,1.801600*%
%ADD18R,1.701600X0.501600*%
%ADD19R,1.101600X1.401600*%
%ADD20R,1.401600X1.351600*%
%ADD21R,1.351600X1.401600*%
%ADD22C,0.609600*%
%ADD23C,1.371600*%
G04 APERTURE END LIST*
D10*
X202168000Y-112005000D02*
X200168000Y-112005000D01*
X200168000Y-114055000D02*
X202168000Y-114055000D01*
X197120000Y-91322000D02*
X199120000Y-91322000D01*
X199120000Y-89272000D02*
X197120000Y-89272000D01*
D11*
X228440000Y-111820000D02*
X227110000Y-111820000D01*
X227110000Y-111820000D02*
X227110000Y-110490000D01*
X227110000Y-109220000D02*
X227110000Y-91380000D01*
X229770000Y-91380000D02*
X227110000Y-91380000D01*
X229770000Y-109220000D02*
X229770000Y-91380000D01*
X229770000Y-109220000D02*
X227110000Y-109220000D01*
X66200000Y-91380000D02*
X67530000Y-91380000D01*
X67530000Y-91380000D02*
X67530000Y-92710000D01*
X67530000Y-93980000D02*
X67530000Y-111820000D01*
X64870000Y-111820000D02*
X67530000Y-111820000D01*
X64870000Y-93980000D02*
X64870000Y-111820000D01*
X64870000Y-93980000D02*
X67530000Y-93980000D01*
D10*
X220440000Y-105617500D02*
X221940000Y-105617500D01*
X220440000Y-97225000D02*
X216440000Y-97225000D01*
X220440000Y-105975000D02*
X216440000Y-105975000D01*
X220440000Y-97225000D02*
X220440000Y-97582500D01*
X216440000Y-97225000D02*
X216440000Y-97582500D01*
X216440000Y-105975000D02*
X216440000Y-105617500D01*
X220440000Y-105975000D02*
X220440000Y-105617500D01*
X200120000Y-105617500D02*
X201620000Y-105617500D01*
X200120000Y-97225000D02*
X196120000Y-97225000D01*
X200120000Y-105975000D02*
X196120000Y-105975000D01*
X200120000Y-97225000D02*
X200120000Y-97582500D01*
X196120000Y-97225000D02*
X196120000Y-97582500D01*
X196120000Y-105975000D02*
X196120000Y-105617500D01*
X200120000Y-105975000D02*
X200120000Y-105617500D01*
X179800000Y-105617500D02*
X181300000Y-105617500D01*
X179800000Y-97225000D02*
X175800000Y-97225000D01*
X179800000Y-105975000D02*
X175800000Y-105975000D01*
X179800000Y-97225000D02*
X179800000Y-97582500D01*
X175800000Y-97225000D02*
X175800000Y-97582500D01*
X175800000Y-105975000D02*
X175800000Y-105617500D01*
X179800000Y-105975000D02*
X179800000Y-105617500D01*
X159480000Y-105617500D02*
X160980000Y-105617500D01*
X159480000Y-97225000D02*
X155480000Y-97225000D01*
X159480000Y-105975000D02*
X155480000Y-105975000D01*
X159480000Y-97225000D02*
X159480000Y-97582500D01*
X155480000Y-97225000D02*
X155480000Y-97582500D01*
X155480000Y-105975000D02*
X155480000Y-105617500D01*
X159480000Y-105975000D02*
X159480000Y-105617500D01*
X135160000Y-105202500D02*
X133660000Y-105202500D01*
X135160000Y-113595000D02*
X139160000Y-113595000D01*
X135160000Y-104845000D02*
X139160000Y-104845000D01*
X135160000Y-113595000D02*
X135160000Y-113237500D01*
X139160000Y-113595000D02*
X139160000Y-113237500D01*
X139160000Y-104845000D02*
X139160000Y-105202500D01*
X135160000Y-104845000D02*
X135160000Y-105202500D01*
X139160000Y-97997500D02*
X140660000Y-97997500D01*
X139160000Y-89605000D02*
X135160000Y-89605000D01*
X139160000Y-98355000D02*
X135160000Y-98355000D01*
X139160000Y-89605000D02*
X139160000Y-89962500D01*
X135160000Y-89605000D02*
X135160000Y-89962500D01*
X135160000Y-98355000D02*
X135160000Y-97997500D01*
X139160000Y-98355000D02*
X139160000Y-97997500D01*
X118840000Y-105617500D02*
X120340000Y-105617500D01*
X118840000Y-97225000D02*
X114840000Y-97225000D01*
X118840000Y-105975000D02*
X114840000Y-105975000D01*
X118840000Y-97225000D02*
X118840000Y-97582500D01*
X114840000Y-97225000D02*
X114840000Y-97582500D01*
X114840000Y-105975000D02*
X114840000Y-105617500D01*
X118840000Y-105975000D02*
X118840000Y-105617500D01*
X98520000Y-105617500D02*
X100020000Y-105617500D01*
X98520000Y-97225000D02*
X94520000Y-97225000D01*
X98520000Y-105975000D02*
X94520000Y-105975000D01*
X98520000Y-97225000D02*
X98520000Y-97582500D01*
X94520000Y-97225000D02*
X94520000Y-97582500D01*
X94520000Y-105975000D02*
X94520000Y-105617500D01*
X98520000Y-105975000D02*
X98520000Y-105617500D01*
X217840000Y-106694000D02*
X219040000Y-106694000D01*
X219040000Y-108444000D02*
X217840000Y-108444000D01*
X197520000Y-106694000D02*
X198720000Y-106694000D01*
X198720000Y-108444000D02*
X197520000Y-108444000D01*
X177200000Y-106694000D02*
X178400000Y-106694000D01*
X178400000Y-108444000D02*
X177200000Y-108444000D01*
X156880000Y-106694000D02*
X158080000Y-106694000D01*
X158080000Y-108444000D02*
X156880000Y-108444000D01*
X137760000Y-104126000D02*
X136560000Y-104126000D01*
X136560000Y-102376000D02*
X137760000Y-102376000D01*
X136560000Y-99074000D02*
X137760000Y-99074000D01*
X137760000Y-100824000D02*
X136560000Y-100824000D01*
X116240000Y-106694000D02*
X117440000Y-106694000D01*
X117440000Y-108444000D02*
X116240000Y-108444000D01*
X95920000Y-106694000D02*
X97120000Y-106694000D01*
X97120000Y-108444000D02*
X95920000Y-108444000D01*
X214384000Y-113880000D02*
X215384000Y-113880000D01*
X215384000Y-112180000D02*
X214384000Y-112180000D01*
X194064000Y-113880000D02*
X195064000Y-113880000D01*
X195064000Y-112180000D02*
X194064000Y-112180000D01*
X173744000Y-113880000D02*
X174744000Y-113880000D01*
X174744000Y-112180000D02*
X173744000Y-112180000D01*
X153424000Y-113880000D02*
X154424000Y-113880000D01*
X154424000Y-112180000D02*
X153424000Y-112180000D01*
X120896000Y-112180000D02*
X119896000Y-112180000D01*
X119896000Y-113880000D02*
X120896000Y-113880000D01*
X112530000Y-113880000D02*
X113530000Y-113880000D01*
X113530000Y-112180000D02*
X112530000Y-112180000D01*
X92464000Y-113880000D02*
X93464000Y-113880000D01*
X93464000Y-112180000D02*
X92464000Y-112180000D01*
X214669000Y-108212000D02*
X214669000Y-109212000D01*
X216369000Y-109212000D02*
X216369000Y-108212000D01*
X194349000Y-108212000D02*
X194349000Y-109212000D01*
X196049000Y-109212000D02*
X196049000Y-108212000D01*
X174029000Y-108212000D02*
X174029000Y-109212000D01*
X175729000Y-109212000D02*
X175729000Y-108212000D01*
X153709000Y-108212000D02*
X153709000Y-109212000D01*
X155409000Y-109212000D02*
X155409000Y-108212000D01*
X133389000Y-100592000D02*
X133389000Y-101592000D01*
X135089000Y-101592000D02*
X135089000Y-100592000D01*
X113069000Y-108212000D02*
X113069000Y-109212000D01*
X114769000Y-109212000D02*
X114769000Y-108212000D01*
X92749000Y-108212000D02*
X92749000Y-109212000D01*
X94449000Y-109212000D02*
X94449000Y-108212000D01*
X95520000Y-91068000D02*
X97520000Y-91068000D01*
X97520000Y-89018000D02*
X95520000Y-89018000D01*
X72429000Y-108212000D02*
X72429000Y-109212000D01*
X74129000Y-109212000D02*
X74129000Y-108212000D01*
X100568000Y-112005000D02*
X98568000Y-112005000D01*
X98568000Y-114055000D02*
X100568000Y-114055000D01*
X72144000Y-113880000D02*
X73144000Y-113880000D01*
X73144000Y-112180000D02*
X72144000Y-112180000D01*
X75600000Y-106694000D02*
X76800000Y-106694000D01*
X76800000Y-108444000D02*
X75600000Y-108444000D01*
X78200000Y-105617500D02*
X79700000Y-105617500D01*
X78200000Y-97225000D02*
X74200000Y-97225000D01*
X78200000Y-105975000D02*
X74200000Y-105975000D01*
X78200000Y-97225000D02*
X78200000Y-97582500D01*
X74200000Y-97225000D02*
X74200000Y-97582500D01*
X74200000Y-105975000D02*
X74200000Y-105617500D01*
X78200000Y-105975000D02*
X78200000Y-105617500D01*
X204462142Y-114403142D02*
X204414523Y-114450761D01*
X204271666Y-114498380D01*
X204176428Y-114498380D01*
X204033571Y-114450761D01*
X203938333Y-114355523D01*
X203890714Y-114260285D01*
X203843095Y-114069809D01*
X203843095Y-113926952D01*
X203890714Y-113736476D01*
X203938333Y-113641238D01*
X204033571Y-113546000D01*
X204176428Y-113498380D01*
X204271666Y-113498380D01*
X204414523Y-113546000D01*
X204462142Y-113593619D01*
X204843095Y-113593619D02*
X204890714Y-113546000D01*
X204985952Y-113498380D01*
X205224047Y-113498380D01*
X205319285Y-113546000D01*
X205366904Y-113593619D01*
X205414523Y-113688857D01*
X205414523Y-113784095D01*
X205366904Y-113926952D01*
X204795476Y-114498380D01*
X205414523Y-114498380D01*
X206033571Y-113498380D02*
X206128809Y-113498380D01*
X206224047Y-113546000D01*
X206271666Y-113593619D01*
X206319285Y-113688857D01*
X206366904Y-113879333D01*
X206366904Y-114117428D01*
X206319285Y-114307904D01*
X206271666Y-114403142D01*
X206224047Y-114450761D01*
X206128809Y-114498380D01*
X206033571Y-114498380D01*
X205938333Y-114450761D01*
X205890714Y-114403142D01*
X205843095Y-114307904D01*
X205795476Y-114117428D01*
X205795476Y-113879333D01*
X205843095Y-113688857D01*
X205890714Y-113593619D01*
X205938333Y-113546000D01*
X206033571Y-113498380D01*
X192778142Y-90654142D02*
X192730523Y-90701761D01*
X192587666Y-90749380D01*
X192492428Y-90749380D01*
X192349571Y-90701761D01*
X192254333Y-90606523D01*
X192206714Y-90511285D01*
X192159095Y-90320809D01*
X192159095Y-90177952D01*
X192206714Y-89987476D01*
X192254333Y-89892238D01*
X192349571Y-89797000D01*
X192492428Y-89749380D01*
X192587666Y-89749380D01*
X192730523Y-89797000D01*
X192778142Y-89844619D01*
X193730523Y-90749380D02*
X193159095Y-90749380D01*
X193444809Y-90749380D02*
X193444809Y-89749380D01*
X193349571Y-89892238D01*
X193254333Y-89987476D01*
X193159095Y-90035095D01*
X194349571Y-89749380D02*
X194444809Y-89749380D01*
X194540047Y-89797000D01*
X194587666Y-89844619D01*
X194635285Y-89939857D01*
X194682904Y-90130333D01*
X194682904Y-90368428D01*
X194635285Y-90558904D01*
X194587666Y-90654142D01*
X194540047Y-90701761D01*
X194444809Y-90749380D01*
X194349571Y-90749380D01*
X194254333Y-90701761D01*
X194206714Y-90654142D01*
X194159095Y-90558904D01*
X194111476Y-90368428D01*
X194111476Y-90130333D01*
X194159095Y-89939857D01*
X194206714Y-89844619D01*
X194254333Y-89797000D01*
X194349571Y-89749380D01*
X217678095Y-95972380D02*
X217678095Y-96781904D01*
X217725714Y-96877142D01*
X217773333Y-96924761D01*
X217868571Y-96972380D01*
X218059047Y-96972380D01*
X218154285Y-96924761D01*
X218201904Y-96877142D01*
X218249523Y-96781904D01*
X218249523Y-95972380D01*
X218773333Y-96972380D02*
X218963809Y-96972380D01*
X219059047Y-96924761D01*
X219106666Y-96877142D01*
X219201904Y-96734285D01*
X219249523Y-96543809D01*
X219249523Y-96162857D01*
X219201904Y-96067619D01*
X219154285Y-96020000D01*
X219059047Y-95972380D01*
X218868571Y-95972380D01*
X218773333Y-96020000D01*
X218725714Y-96067619D01*
X218678095Y-96162857D01*
X218678095Y-96400952D01*
X218725714Y-96496190D01*
X218773333Y-96543809D01*
X218868571Y-96591428D01*
X219059047Y-96591428D01*
X219154285Y-96543809D01*
X219201904Y-96496190D01*
X219249523Y-96400952D01*
X199517095Y-95972380D02*
X199517095Y-96781904D01*
X199564714Y-96877142D01*
X199612333Y-96924761D01*
X199707571Y-96972380D01*
X199898047Y-96972380D01*
X199993285Y-96924761D01*
X200040904Y-96877142D01*
X200088523Y-96781904D01*
X200088523Y-95972380D01*
X200707571Y-96400952D02*
X200612333Y-96353333D01*
X200564714Y-96305714D01*
X200517095Y-96210476D01*
X200517095Y-96162857D01*
X200564714Y-96067619D01*
X200612333Y-96020000D01*
X200707571Y-95972380D01*
X200898047Y-95972380D01*
X200993285Y-96020000D01*
X201040904Y-96067619D01*
X201088523Y-96162857D01*
X201088523Y-96210476D01*
X201040904Y-96305714D01*
X200993285Y-96353333D01*
X200898047Y-96400952D01*
X200707571Y-96400952D01*
X200612333Y-96448571D01*
X200564714Y-96496190D01*
X200517095Y-96591428D01*
X200517095Y-96781904D01*
X200564714Y-96877142D01*
X200612333Y-96924761D01*
X200707571Y-96972380D01*
X200898047Y-96972380D01*
X200993285Y-96924761D01*
X201040904Y-96877142D01*
X201088523Y-96781904D01*
X201088523Y-96591428D01*
X201040904Y-96496190D01*
X200993285Y-96448571D01*
X200898047Y-96400952D01*
X177165095Y-95972380D02*
X177165095Y-96781904D01*
X177212714Y-96877142D01*
X177260333Y-96924761D01*
X177355571Y-96972380D01*
X177546047Y-96972380D01*
X177641285Y-96924761D01*
X177688904Y-96877142D01*
X177736523Y-96781904D01*
X177736523Y-95972380D01*
X178117476Y-95972380D02*
X178784142Y-95972380D01*
X178355571Y-96972380D01*
X155829095Y-95972380D02*
X155829095Y-96781904D01*
X155876714Y-96877142D01*
X155924333Y-96924761D01*
X156019571Y-96972380D01*
X156210047Y-96972380D01*
X156305285Y-96924761D01*
X156352904Y-96877142D01*
X156400523Y-96781904D01*
X156400523Y-95972380D01*
X157305285Y-95972380D02*
X157114809Y-95972380D01*
X157019571Y-96020000D01*
X156971952Y-96067619D01*
X156876714Y-96210476D01*
X156829095Y-96400952D01*
X156829095Y-96781904D01*
X156876714Y-96877142D01*
X156924333Y-96924761D01*
X157019571Y-96972380D01*
X157210047Y-96972380D01*
X157305285Y-96924761D01*
X157352904Y-96877142D01*
X157400523Y-96781904D01*
X157400523Y-96543809D01*
X157352904Y-96448571D01*
X157305285Y-96400952D01*
X157210047Y-96353333D01*
X157019571Y-96353333D01*
X156924333Y-96400952D01*
X156876714Y-96448571D01*
X156829095Y-96543809D01*
X135890095Y-113879380D02*
X135890095Y-114688904D01*
X135937714Y-114784142D01*
X135985333Y-114831761D01*
X136080571Y-114879380D01*
X136271047Y-114879380D01*
X136366285Y-114831761D01*
X136413904Y-114784142D01*
X136461523Y-114688904D01*
X136461523Y-113879380D01*
X137413904Y-113879380D02*
X136937714Y-113879380D01*
X136890095Y-114355571D01*
X136937714Y-114307952D01*
X137032952Y-114260333D01*
X137271047Y-114260333D01*
X137366285Y-114307952D01*
X137413904Y-114355571D01*
X137461523Y-114450809D01*
X137461523Y-114688904D01*
X137413904Y-114784142D01*
X137366285Y-114831761D01*
X137271047Y-114879380D01*
X137032952Y-114879380D01*
X136937714Y-114831761D01*
X136890095Y-114784142D01*
X134493095Y-88352380D02*
X134493095Y-89161904D01*
X134540714Y-89257142D01*
X134588333Y-89304761D01*
X134683571Y-89352380D01*
X134874047Y-89352380D01*
X134969285Y-89304761D01*
X135016904Y-89257142D01*
X135064523Y-89161904D01*
X135064523Y-88352380D01*
X135969285Y-88685714D02*
X135969285Y-89352380D01*
X135731190Y-88304761D02*
X135493095Y-89019047D01*
X136112142Y-89019047D01*
X116459095Y-95972380D02*
X116459095Y-96781904D01*
X116506714Y-96877142D01*
X116554333Y-96924761D01*
X116649571Y-96972380D01*
X116840047Y-96972380D01*
X116935285Y-96924761D01*
X116982904Y-96877142D01*
X117030523Y-96781904D01*
X117030523Y-95972380D01*
X117411476Y-95972380D02*
X118030523Y-95972380D01*
X117697190Y-96353333D01*
X117840047Y-96353333D01*
X117935285Y-96400952D01*
X117982904Y-96448571D01*
X118030523Y-96543809D01*
X118030523Y-96781904D01*
X117982904Y-96877142D01*
X117935285Y-96924761D01*
X117840047Y-96972380D01*
X117554333Y-96972380D01*
X117459095Y-96924761D01*
X117411476Y-96877142D01*
X95758095Y-95972380D02*
X95758095Y-96781904D01*
X95805714Y-96877142D01*
X95853333Y-96924761D01*
X95948571Y-96972380D01*
X96139047Y-96972380D01*
X96234285Y-96924761D01*
X96281904Y-96877142D01*
X96329523Y-96781904D01*
X96329523Y-95972380D01*
X96758095Y-96067619D02*
X96805714Y-96020000D01*
X96900952Y-95972380D01*
X97139047Y-95972380D01*
X97234285Y-96020000D01*
X97281904Y-96067619D01*
X97329523Y-96162857D01*
X97329523Y-96258095D01*
X97281904Y-96400952D01*
X96710476Y-96972380D01*
X97329523Y-96972380D01*
X221067333Y-108021380D02*
X220734000Y-107545190D01*
X220495904Y-108021380D02*
X220495904Y-107021380D01*
X220876857Y-107021380D01*
X220972095Y-107069000D01*
X221019714Y-107116619D01*
X221067333Y-107211857D01*
X221067333Y-107354714D01*
X221019714Y-107449952D01*
X220972095Y-107497571D01*
X220876857Y-107545190D01*
X220495904Y-107545190D01*
X221543523Y-108021380D02*
X221734000Y-108021380D01*
X221829238Y-107973761D01*
X221876857Y-107926142D01*
X221972095Y-107783285D01*
X222019714Y-107592809D01*
X222019714Y-107211857D01*
X221972095Y-107116619D01*
X221924476Y-107069000D01*
X221829238Y-107021380D01*
X221638761Y-107021380D01*
X221543523Y-107069000D01*
X221495904Y-107116619D01*
X221448285Y-107211857D01*
X221448285Y-107449952D01*
X221495904Y-107545190D01*
X221543523Y-107592809D01*
X221638761Y-107640428D01*
X221829238Y-107640428D01*
X221924476Y-107592809D01*
X221972095Y-107545190D01*
X222019714Y-107449952D01*
X200747333Y-108021380D02*
X200414000Y-107545190D01*
X200175904Y-108021380D02*
X200175904Y-107021380D01*
X200556857Y-107021380D01*
X200652095Y-107069000D01*
X200699714Y-107116619D01*
X200747333Y-107211857D01*
X200747333Y-107354714D01*
X200699714Y-107449952D01*
X200652095Y-107497571D01*
X200556857Y-107545190D01*
X200175904Y-107545190D01*
X201318761Y-107449952D02*
X201223523Y-107402333D01*
X201175904Y-107354714D01*
X201128285Y-107259476D01*
X201128285Y-107211857D01*
X201175904Y-107116619D01*
X201223523Y-107069000D01*
X201318761Y-107021380D01*
X201509238Y-107021380D01*
X201604476Y-107069000D01*
X201652095Y-107116619D01*
X201699714Y-107211857D01*
X201699714Y-107259476D01*
X201652095Y-107354714D01*
X201604476Y-107402333D01*
X201509238Y-107449952D01*
X201318761Y-107449952D01*
X201223523Y-107497571D01*
X201175904Y-107545190D01*
X201128285Y-107640428D01*
X201128285Y-107830904D01*
X201175904Y-107926142D01*
X201223523Y-107973761D01*
X201318761Y-108021380D01*
X201509238Y-108021380D01*
X201604476Y-107973761D01*
X201652095Y-107926142D01*
X201699714Y-107830904D01*
X201699714Y-107640428D01*
X201652095Y-107545190D01*
X201604476Y-107497571D01*
X201509238Y-107449952D01*
X180427333Y-108021380D02*
X180094000Y-107545190D01*
X179855904Y-108021380D02*
X179855904Y-107021380D01*
X180236857Y-107021380D01*
X180332095Y-107069000D01*
X180379714Y-107116619D01*
X180427333Y-107211857D01*
X180427333Y-107354714D01*
X180379714Y-107449952D01*
X180332095Y-107497571D01*
X180236857Y-107545190D01*
X179855904Y-107545190D01*
X180760666Y-107021380D02*
X181427333Y-107021380D01*
X180998761Y-108021380D01*
X160107333Y-107640380D02*
X159774000Y-107164190D01*
X159535904Y-107640380D02*
X159535904Y-106640380D01*
X159916857Y-106640380D01*
X160012095Y-106688000D01*
X160059714Y-106735619D01*
X160107333Y-106830857D01*
X160107333Y-106973714D01*
X160059714Y-107068952D01*
X160012095Y-107116571D01*
X159916857Y-107164190D01*
X159535904Y-107164190D01*
X160964476Y-106640380D02*
X160774000Y-106640380D01*
X160678761Y-106688000D01*
X160631142Y-106735619D01*
X160535904Y-106878476D01*
X160488285Y-107068952D01*
X160488285Y-107449904D01*
X160535904Y-107545142D01*
X160583523Y-107592761D01*
X160678761Y-107640380D01*
X160869238Y-107640380D01*
X160964476Y-107592761D01*
X161012095Y-107545142D01*
X161059714Y-107449904D01*
X161059714Y-107211809D01*
X161012095Y-107116571D01*
X160964476Y-107068952D01*
X160869238Y-107021333D01*
X160678761Y-107021333D01*
X160583523Y-107068952D01*
X160535904Y-107116571D01*
X160488285Y-107211809D01*
X139914333Y-103195380D02*
X139581000Y-102719190D01*
X139342904Y-103195380D02*
X139342904Y-102195380D01*
X139723857Y-102195380D01*
X139819095Y-102243000D01*
X139866714Y-102290619D01*
X139914333Y-102385857D01*
X139914333Y-102528714D01*
X139866714Y-102623952D01*
X139819095Y-102671571D01*
X139723857Y-102719190D01*
X139342904Y-102719190D01*
X140819095Y-102195380D02*
X140342904Y-102195380D01*
X140295285Y-102671571D01*
X140342904Y-102623952D01*
X140438142Y-102576333D01*
X140676238Y-102576333D01*
X140771476Y-102623952D01*
X140819095Y-102671571D01*
X140866714Y-102766809D01*
X140866714Y-103004904D01*
X140819095Y-103100142D01*
X140771476Y-103147761D01*
X140676238Y-103195380D01*
X140438142Y-103195380D01*
X140342904Y-103147761D01*
X140295285Y-103100142D01*
X139787333Y-101417380D02*
X139454000Y-100941190D01*
X139215904Y-101417380D02*
X139215904Y-100417380D01*
X139596857Y-100417380D01*
X139692095Y-100465000D01*
X139739714Y-100512619D01*
X139787333Y-100607857D01*
X139787333Y-100750714D01*
X139739714Y-100845952D01*
X139692095Y-100893571D01*
X139596857Y-100941190D01*
X139215904Y-100941190D01*
X140644476Y-100750714D02*
X140644476Y-101417380D01*
X140406380Y-100369761D02*
X140168285Y-101084047D01*
X140787333Y-101084047D01*
X119594333Y-108021380D02*
X119261000Y-107545190D01*
X119022904Y-108021380D02*
X119022904Y-107021380D01*
X119403857Y-107021380D01*
X119499095Y-107069000D01*
X119546714Y-107116619D01*
X119594333Y-107211857D01*
X119594333Y-107354714D01*
X119546714Y-107449952D01*
X119499095Y-107497571D01*
X119403857Y-107545190D01*
X119022904Y-107545190D01*
X119927666Y-107021380D02*
X120546714Y-107021380D01*
X120213380Y-107402333D01*
X120356238Y-107402333D01*
X120451476Y-107449952D01*
X120499095Y-107497571D01*
X120546714Y-107592809D01*
X120546714Y-107830904D01*
X120499095Y-107926142D01*
X120451476Y-107973761D01*
X120356238Y-108021380D01*
X120070523Y-108021380D01*
X119975285Y-107973761D01*
X119927666Y-107926142D01*
X99274333Y-108021380D02*
X98941000Y-107545190D01*
X98702904Y-108021380D02*
X98702904Y-107021380D01*
X99083857Y-107021380D01*
X99179095Y-107069000D01*
X99226714Y-107116619D01*
X99274333Y-107211857D01*
X99274333Y-107354714D01*
X99226714Y-107449952D01*
X99179095Y-107497571D01*
X99083857Y-107545190D01*
X98702904Y-107545190D01*
X99655285Y-107116619D02*
X99702904Y-107069000D01*
X99798142Y-107021380D01*
X100036238Y-107021380D01*
X100131476Y-107069000D01*
X100179095Y-107116619D01*
X100226714Y-107211857D01*
X100226714Y-107307095D01*
X100179095Y-107449952D01*
X99607666Y-108021380D01*
X100226714Y-108021380D01*
X218432142Y-113387142D02*
X218384523Y-113434761D01*
X218241666Y-113482380D01*
X218146428Y-113482380D01*
X218003571Y-113434761D01*
X217908333Y-113339523D01*
X217860714Y-113244285D01*
X217813095Y-113053809D01*
X217813095Y-112910952D01*
X217860714Y-112720476D01*
X217908333Y-112625238D01*
X218003571Y-112530000D01*
X218146428Y-112482380D01*
X218241666Y-112482380D01*
X218384523Y-112530000D01*
X218432142Y-112577619D01*
X219384523Y-113482380D02*
X218813095Y-113482380D01*
X219098809Y-113482380D02*
X219098809Y-112482380D01*
X219003571Y-112625238D01*
X218908333Y-112720476D01*
X218813095Y-112768095D01*
X219860714Y-113482380D02*
X220051190Y-113482380D01*
X220146428Y-113434761D01*
X220194047Y-113387142D01*
X220289285Y-113244285D01*
X220336904Y-113053809D01*
X220336904Y-112672857D01*
X220289285Y-112577619D01*
X220241666Y-112530000D01*
X220146428Y-112482380D01*
X219955952Y-112482380D01*
X219860714Y-112530000D01*
X219813095Y-112577619D01*
X219765476Y-112672857D01*
X219765476Y-112910952D01*
X219813095Y-113006190D01*
X219860714Y-113053809D01*
X219955952Y-113101428D01*
X220146428Y-113101428D01*
X220241666Y-113053809D01*
X220289285Y-113006190D01*
X220336904Y-112910952D01*
X190238142Y-114403142D02*
X190190523Y-114450761D01*
X190047666Y-114498380D01*
X189952428Y-114498380D01*
X189809571Y-114450761D01*
X189714333Y-114355523D01*
X189666714Y-114260285D01*
X189619095Y-114069809D01*
X189619095Y-113926952D01*
X189666714Y-113736476D01*
X189714333Y-113641238D01*
X189809571Y-113546000D01*
X189952428Y-113498380D01*
X190047666Y-113498380D01*
X190190523Y-113546000D01*
X190238142Y-113593619D01*
X191190523Y-114498380D02*
X190619095Y-114498380D01*
X190904809Y-114498380D02*
X190904809Y-113498380D01*
X190809571Y-113641238D01*
X190714333Y-113736476D01*
X190619095Y-113784095D01*
X191761952Y-113926952D02*
X191666714Y-113879333D01*
X191619095Y-113831714D01*
X191571476Y-113736476D01*
X191571476Y-113688857D01*
X191619095Y-113593619D01*
X191666714Y-113546000D01*
X191761952Y-113498380D01*
X191952428Y-113498380D01*
X192047666Y-113546000D01*
X192095285Y-113593619D01*
X192142904Y-113688857D01*
X192142904Y-113736476D01*
X192095285Y-113831714D01*
X192047666Y-113879333D01*
X191952428Y-113926952D01*
X191761952Y-113926952D01*
X191666714Y-113974571D01*
X191619095Y-114022190D01*
X191571476Y-114117428D01*
X191571476Y-114307904D01*
X191619095Y-114403142D01*
X191666714Y-114450761D01*
X191761952Y-114498380D01*
X191952428Y-114498380D01*
X192047666Y-114450761D01*
X192095285Y-114403142D01*
X192142904Y-114307904D01*
X192142904Y-114117428D01*
X192095285Y-114022190D01*
X192047666Y-113974571D01*
X191952428Y-113926952D01*
X177665142Y-113387142D02*
X177617523Y-113434761D01*
X177474666Y-113482380D01*
X177379428Y-113482380D01*
X177236571Y-113434761D01*
X177141333Y-113339523D01*
X177093714Y-113244285D01*
X177046095Y-113053809D01*
X177046095Y-112910952D01*
X177093714Y-112720476D01*
X177141333Y-112625238D01*
X177236571Y-112530000D01*
X177379428Y-112482380D01*
X177474666Y-112482380D01*
X177617523Y-112530000D01*
X177665142Y-112577619D01*
X178617523Y-113482380D02*
X178046095Y-113482380D01*
X178331809Y-113482380D02*
X178331809Y-112482380D01*
X178236571Y-112625238D01*
X178141333Y-112720476D01*
X178046095Y-112768095D01*
X178950857Y-112482380D02*
X179617523Y-112482380D01*
X179188952Y-113482380D01*
X156964142Y-112625142D02*
X156916523Y-112672761D01*
X156773666Y-112720380D01*
X156678428Y-112720380D01*
X156535571Y-112672761D01*
X156440333Y-112577523D01*
X156392714Y-112482285D01*
X156345095Y-112291809D01*
X156345095Y-112148952D01*
X156392714Y-111958476D01*
X156440333Y-111863238D01*
X156535571Y-111768000D01*
X156678428Y-111720380D01*
X156773666Y-111720380D01*
X156916523Y-111768000D01*
X156964142Y-111815619D01*
X157916523Y-112720380D02*
X157345095Y-112720380D01*
X157630809Y-112720380D02*
X157630809Y-111720380D01*
X157535571Y-111863238D01*
X157440333Y-111958476D01*
X157345095Y-112006095D01*
X158773666Y-111720380D02*
X158583190Y-111720380D01*
X158487952Y-111768000D01*
X158440333Y-111815619D01*
X158345095Y-111958476D01*
X158297476Y-112148952D01*
X158297476Y-112529904D01*
X158345095Y-112625142D01*
X158392714Y-112672761D01*
X158487952Y-112720380D01*
X158678428Y-112720380D01*
X158773666Y-112672761D01*
X158821285Y-112625142D01*
X158868904Y-112529904D01*
X158868904Y-112291809D01*
X158821285Y-112196571D01*
X158773666Y-112148952D01*
X158678428Y-112101333D01*
X158487952Y-112101333D01*
X158392714Y-112148952D01*
X158345095Y-112196571D01*
X158297476Y-112291809D01*
X119753142Y-111736142D02*
X119705523Y-111783761D01*
X119562666Y-111831380D01*
X119467428Y-111831380D01*
X119324571Y-111783761D01*
X119229333Y-111688523D01*
X119181714Y-111593285D01*
X119134095Y-111402809D01*
X119134095Y-111259952D01*
X119181714Y-111069476D01*
X119229333Y-110974238D01*
X119324571Y-110879000D01*
X119467428Y-110831380D01*
X119562666Y-110831380D01*
X119705523Y-110879000D01*
X119753142Y-110926619D01*
X120705523Y-111831380D02*
X120134095Y-111831380D01*
X120419809Y-111831380D02*
X120419809Y-110831380D01*
X120324571Y-110974238D01*
X120229333Y-111069476D01*
X120134095Y-111117095D01*
X121610285Y-110831380D02*
X121134095Y-110831380D01*
X121086476Y-111307571D01*
X121134095Y-111259952D01*
X121229333Y-111212333D01*
X121467428Y-111212333D01*
X121562666Y-111259952D01*
X121610285Y-111307571D01*
X121657904Y-111402809D01*
X121657904Y-111640904D01*
X121610285Y-111736142D01*
X121562666Y-111783761D01*
X121467428Y-111831380D01*
X121229333Y-111831380D01*
X121134095Y-111783761D01*
X121086476Y-111736142D01*
X108450142Y-113895142D02*
X108402523Y-113942761D01*
X108259666Y-113990380D01*
X108164428Y-113990380D01*
X108021571Y-113942761D01*
X107926333Y-113847523D01*
X107878714Y-113752285D01*
X107831095Y-113561809D01*
X107831095Y-113418952D01*
X107878714Y-113228476D01*
X107926333Y-113133238D01*
X108021571Y-113038000D01*
X108164428Y-112990380D01*
X108259666Y-112990380D01*
X108402523Y-113038000D01*
X108450142Y-113085619D01*
X109402523Y-113990380D02*
X108831095Y-113990380D01*
X109116809Y-113990380D02*
X109116809Y-112990380D01*
X109021571Y-113133238D01*
X108926333Y-113228476D01*
X108831095Y-113276095D01*
X110259666Y-113323714D02*
X110259666Y-113990380D01*
X110021571Y-112942761D02*
X109783476Y-113657047D01*
X110402523Y-113657047D01*
X88130142Y-114022142D02*
X88082523Y-114069761D01*
X87939666Y-114117380D01*
X87844428Y-114117380D01*
X87701571Y-114069761D01*
X87606333Y-113974523D01*
X87558714Y-113879285D01*
X87511095Y-113688809D01*
X87511095Y-113545952D01*
X87558714Y-113355476D01*
X87606333Y-113260238D01*
X87701571Y-113165000D01*
X87844428Y-113117380D01*
X87939666Y-113117380D01*
X88082523Y-113165000D01*
X88130142Y-113212619D01*
X89082523Y-114117380D02*
X88511095Y-114117380D01*
X88796809Y-114117380D02*
X88796809Y-113117380D01*
X88701571Y-113260238D01*
X88606333Y-113355476D01*
X88511095Y-113403095D01*
X89415857Y-113117380D02*
X90034904Y-113117380D01*
X89701571Y-113498333D01*
X89844428Y-113498333D01*
X89939666Y-113545952D01*
X89987285Y-113593571D01*
X90034904Y-113688809D01*
X90034904Y-113926904D01*
X89987285Y-114022142D01*
X89939666Y-114069761D01*
X89844428Y-114117380D01*
X89558714Y-114117380D01*
X89463476Y-114069761D01*
X89415857Y-114022142D01*
X214352142Y-108878666D02*
X214399761Y-108926285D01*
X214447380Y-109069142D01*
X214447380Y-109164380D01*
X214399761Y-109307238D01*
X214304523Y-109402476D01*
X214209285Y-109450095D01*
X214018809Y-109497714D01*
X213875952Y-109497714D01*
X213685476Y-109450095D01*
X213590238Y-109402476D01*
X213495000Y-109307238D01*
X213447380Y-109164380D01*
X213447380Y-109069142D01*
X213495000Y-108926285D01*
X213542619Y-108878666D01*
X214447380Y-108402476D02*
X214447380Y-108212000D01*
X214399761Y-108116761D01*
X214352142Y-108069142D01*
X214209285Y-107973904D01*
X214018809Y-107926285D01*
X213637857Y-107926285D01*
X213542619Y-107973904D01*
X213495000Y-108021523D01*
X213447380Y-108116761D01*
X213447380Y-108307238D01*
X213495000Y-108402476D01*
X213542619Y-108450095D01*
X213637857Y-108497714D01*
X213875952Y-108497714D01*
X213971190Y-108450095D01*
X214018809Y-108402476D01*
X214066428Y-108307238D01*
X214066428Y-108116761D01*
X214018809Y-108021523D01*
X213971190Y-107973904D01*
X213875952Y-107926285D01*
X194032142Y-108878666D02*
X194079761Y-108926285D01*
X194127380Y-109069142D01*
X194127380Y-109164380D01*
X194079761Y-109307238D01*
X193984523Y-109402476D01*
X193889285Y-109450095D01*
X193698809Y-109497714D01*
X193555952Y-109497714D01*
X193365476Y-109450095D01*
X193270238Y-109402476D01*
X193175000Y-109307238D01*
X193127380Y-109164380D01*
X193127380Y-109069142D01*
X193175000Y-108926285D01*
X193222619Y-108878666D01*
X193555952Y-108307238D02*
X193508333Y-108402476D01*
X193460714Y-108450095D01*
X193365476Y-108497714D01*
X193317857Y-108497714D01*
X193222619Y-108450095D01*
X193175000Y-108402476D01*
X193127380Y-108307238D01*
X193127380Y-108116761D01*
X193175000Y-108021523D01*
X193222619Y-107973904D01*
X193317857Y-107926285D01*
X193365476Y-107926285D01*
X193460714Y-107973904D01*
X193508333Y-108021523D01*
X193555952Y-108116761D01*
X193555952Y-108307238D01*
X193603571Y-108402476D01*
X193651190Y-108450095D01*
X193746428Y-108497714D01*
X193936904Y-108497714D01*
X194032142Y-108450095D01*
X194079761Y-108402476D01*
X194127380Y-108307238D01*
X194127380Y-108116761D01*
X194079761Y-108021523D01*
X194032142Y-107973904D01*
X193936904Y-107926285D01*
X193746428Y-107926285D01*
X193651190Y-107973904D01*
X193603571Y-108021523D01*
X193555952Y-108116761D01*
X173585142Y-108878666D02*
X173632761Y-108926285D01*
X173680380Y-109069142D01*
X173680380Y-109164380D01*
X173632761Y-109307238D01*
X173537523Y-109402476D01*
X173442285Y-109450095D01*
X173251809Y-109497714D01*
X173108952Y-109497714D01*
X172918476Y-109450095D01*
X172823238Y-109402476D01*
X172728000Y-109307238D01*
X172680380Y-109164380D01*
X172680380Y-109069142D01*
X172728000Y-108926285D01*
X172775619Y-108878666D01*
X172680380Y-108545333D02*
X172680380Y-107878666D01*
X173680380Y-108307238D01*
X153265142Y-108878666D02*
X153312761Y-108926285D01*
X153360380Y-109069142D01*
X153360380Y-109164380D01*
X153312761Y-109307238D01*
X153217523Y-109402476D01*
X153122285Y-109450095D01*
X152931809Y-109497714D01*
X152788952Y-109497714D01*
X152598476Y-109450095D01*
X152503238Y-109402476D01*
X152408000Y-109307238D01*
X152360380Y-109164380D01*
X152360380Y-109069142D01*
X152408000Y-108926285D01*
X152455619Y-108878666D01*
X152360380Y-108021523D02*
X152360380Y-108212000D01*
X152408000Y-108307238D01*
X152455619Y-108354857D01*
X152598476Y-108450095D01*
X152788952Y-108497714D01*
X153169904Y-108497714D01*
X153265142Y-108450095D01*
X153312761Y-108402476D01*
X153360380Y-108307238D01*
X153360380Y-108116761D01*
X153312761Y-108021523D01*
X153265142Y-107973904D01*
X153169904Y-107926285D01*
X152931809Y-107926285D01*
X152836571Y-107973904D01*
X152788952Y-108021523D01*
X152741333Y-108116761D01*
X152741333Y-108307238D01*
X152788952Y-108402476D01*
X152836571Y-108450095D01*
X152931809Y-108497714D01*
X132945142Y-100623666D02*
X132992761Y-100671285D01*
X133040380Y-100814142D01*
X133040380Y-100909380D01*
X132992761Y-101052238D01*
X132897523Y-101147476D01*
X132802285Y-101195095D01*
X132611809Y-101242714D01*
X132468952Y-101242714D01*
X132278476Y-101195095D01*
X132183238Y-101147476D01*
X132088000Y-101052238D01*
X132040380Y-100909380D01*
X132040380Y-100814142D01*
X132088000Y-100671285D01*
X132135619Y-100623666D01*
X132040380Y-99718904D02*
X132040380Y-100195095D01*
X132516571Y-100242714D01*
X132468952Y-100195095D01*
X132421333Y-100099857D01*
X132421333Y-99861761D01*
X132468952Y-99766523D01*
X132516571Y-99718904D01*
X132611809Y-99671285D01*
X132849904Y-99671285D01*
X132945142Y-99718904D01*
X132992761Y-99766523D01*
X133040380Y-99861761D01*
X133040380Y-100099857D01*
X132992761Y-100195095D01*
X132945142Y-100242714D01*
X112752142Y-108878666D02*
X112799761Y-108926285D01*
X112847380Y-109069142D01*
X112847380Y-109164380D01*
X112799761Y-109307238D01*
X112704523Y-109402476D01*
X112609285Y-109450095D01*
X112418809Y-109497714D01*
X112275952Y-109497714D01*
X112085476Y-109450095D01*
X111990238Y-109402476D01*
X111895000Y-109307238D01*
X111847380Y-109164380D01*
X111847380Y-109069142D01*
X111895000Y-108926285D01*
X111942619Y-108878666D01*
X112180714Y-108021523D02*
X112847380Y-108021523D01*
X111799761Y-108259619D02*
X112514047Y-108497714D01*
X112514047Y-107878666D01*
X92432142Y-108878666D02*
X92479761Y-108926285D01*
X92527380Y-109069142D01*
X92527380Y-109164380D01*
X92479761Y-109307238D01*
X92384523Y-109402476D01*
X92289285Y-109450095D01*
X92098809Y-109497714D01*
X91955952Y-109497714D01*
X91765476Y-109450095D01*
X91670238Y-109402476D01*
X91575000Y-109307238D01*
X91527380Y-109164380D01*
X91527380Y-109069142D01*
X91575000Y-108926285D01*
X91622619Y-108878666D01*
X91527380Y-108545333D02*
X91527380Y-107926285D01*
X91908333Y-108259619D01*
X91908333Y-108116761D01*
X91955952Y-108021523D01*
X92003571Y-107973904D01*
X92098809Y-107926285D01*
X92336904Y-107926285D01*
X92432142Y-107973904D01*
X92479761Y-108021523D01*
X92527380Y-108116761D01*
X92527380Y-108402476D01*
X92479761Y-108497714D01*
X92432142Y-108545333D01*
X100417333Y-90273142D02*
X100369714Y-90320761D01*
X100226857Y-90368380D01*
X100131619Y-90368380D01*
X99988761Y-90320761D01*
X99893523Y-90225523D01*
X99845904Y-90130285D01*
X99798285Y-89939809D01*
X99798285Y-89796952D01*
X99845904Y-89606476D01*
X99893523Y-89511238D01*
X99988761Y-89416000D01*
X100131619Y-89368380D01*
X100226857Y-89368380D01*
X100369714Y-89416000D01*
X100417333Y-89463619D01*
X101369714Y-90368380D02*
X100798285Y-90368380D01*
X101084000Y-90368380D02*
X101084000Y-89368380D01*
X100988761Y-89511238D01*
X100893523Y-89606476D01*
X100798285Y-89654095D01*
X71985142Y-108878666D02*
X72032761Y-108926285D01*
X72080380Y-109069142D01*
X72080380Y-109164380D01*
X72032761Y-109307238D01*
X71937523Y-109402476D01*
X71842285Y-109450095D01*
X71651809Y-109497714D01*
X71508952Y-109497714D01*
X71318476Y-109450095D01*
X71223238Y-109402476D01*
X71128000Y-109307238D01*
X71080380Y-109164380D01*
X71080380Y-109069142D01*
X71128000Y-108926285D01*
X71175619Y-108878666D01*
X71175619Y-108497714D02*
X71128000Y-108450095D01*
X71080380Y-108354857D01*
X71080380Y-108116761D01*
X71128000Y-108021523D01*
X71175619Y-107973904D01*
X71270857Y-107926285D01*
X71366095Y-107926285D01*
X71508952Y-107973904D01*
X72080380Y-108545333D01*
X72080380Y-107926285D01*
X98925142Y-111609142D02*
X98877523Y-111656761D01*
X98734666Y-111704380D01*
X98639428Y-111704380D01*
X98496571Y-111656761D01*
X98401333Y-111561523D01*
X98353714Y-111466285D01*
X98306095Y-111275809D01*
X98306095Y-111132952D01*
X98353714Y-110942476D01*
X98401333Y-110847238D01*
X98496571Y-110752000D01*
X98639428Y-110704380D01*
X98734666Y-110704380D01*
X98877523Y-110752000D01*
X98925142Y-110799619D01*
X99877523Y-111704380D02*
X99306095Y-111704380D01*
X99591809Y-111704380D02*
X99591809Y-110704380D01*
X99496571Y-110847238D01*
X99401333Y-110942476D01*
X99306095Y-110990095D01*
X100829904Y-111704380D02*
X100258476Y-111704380D01*
X100544190Y-111704380D02*
X100544190Y-110704380D01*
X100448952Y-110847238D01*
X100353714Y-110942476D01*
X100258476Y-110990095D01*
X76065142Y-113514142D02*
X76017523Y-113561761D01*
X75874666Y-113609380D01*
X75779428Y-113609380D01*
X75636571Y-113561761D01*
X75541333Y-113466523D01*
X75493714Y-113371285D01*
X75446095Y-113180809D01*
X75446095Y-113037952D01*
X75493714Y-112847476D01*
X75541333Y-112752238D01*
X75636571Y-112657000D01*
X75779428Y-112609380D01*
X75874666Y-112609380D01*
X76017523Y-112657000D01*
X76065142Y-112704619D01*
X77017523Y-113609380D02*
X76446095Y-113609380D01*
X76731809Y-113609380D02*
X76731809Y-112609380D01*
X76636571Y-112752238D01*
X76541333Y-112847476D01*
X76446095Y-112895095D01*
X77398476Y-112704619D02*
X77446095Y-112657000D01*
X77541333Y-112609380D01*
X77779428Y-112609380D01*
X77874666Y-112657000D01*
X77922285Y-112704619D01*
X77969904Y-112799857D01*
X77969904Y-112895095D01*
X77922285Y-113037952D01*
X77350857Y-113609380D01*
X77969904Y-113609380D01*
X76033333Y-109672380D02*
X75700000Y-109196190D01*
X75461904Y-109672380D02*
X75461904Y-108672380D01*
X75842857Y-108672380D01*
X75938095Y-108720000D01*
X75985714Y-108767619D01*
X76033333Y-108862857D01*
X76033333Y-109005714D01*
X75985714Y-109100952D01*
X75938095Y-109148571D01*
X75842857Y-109196190D01*
X75461904Y-109196190D01*
X76985714Y-109672380D02*
X76414285Y-109672380D01*
X76700000Y-109672380D02*
X76700000Y-108672380D01*
X76604761Y-108815238D01*
X76509523Y-108910476D01*
X76414285Y-108958095D01*
X75692095Y-95845380D02*
X75692095Y-96654904D01*
X75739714Y-96750142D01*
X75787333Y-96797761D01*
X75882571Y-96845380D01*
X76073047Y-96845380D01*
X76168285Y-96797761D01*
X76215904Y-96750142D01*
X76263523Y-96654904D01*
X76263523Y-95845380D01*
X77263523Y-96845380D02*
X76692095Y-96845380D01*
X76977809Y-96845380D02*
X76977809Y-95845380D01*
X76882571Y-95988238D01*
X76787333Y-96083476D01*
X76692095Y-96131095D01*
%LPC*%
D12*
X67564000Y-95250000D03*
X227076000Y-110490000D03*
X227076000Y-107950000D03*
X227076000Y-105410000D03*
X227076000Y-102870000D03*
X227076000Y-100330000D03*
X227076000Y-97790000D03*
X227076000Y-95250000D03*
X67564000Y-110490000D03*
X67564000Y-107950000D03*
X67564000Y-105410000D03*
X67564000Y-102870000D03*
X67564000Y-100330000D03*
X67564000Y-97790000D03*
D13*
X68580000Y-91440000D03*
X68580000Y-93980000D03*
X68580000Y-96520000D03*
X68580000Y-99060000D03*
X68580000Y-101600000D03*
X68580000Y-104140000D03*
X68580000Y-106680000D03*
X68580000Y-109220000D03*
X68580000Y-111760000D03*
X83820000Y-111760000D03*
X83820000Y-109220000D03*
X83820000Y-106680000D03*
X83820000Y-104140000D03*
X83820000Y-101600000D03*
X83820000Y-99060000D03*
X83820000Y-96520000D03*
X83820000Y-93980000D03*
D14*
G36*
X84266234Y-90629157D02*
G01*
X84305685Y-90635009D01*
X84344372Y-90644699D01*
X84381923Y-90658135D01*
X84417976Y-90675187D01*
X84452184Y-90695691D01*
X84484217Y-90719449D01*
X84513768Y-90746232D01*
X84540551Y-90775783D01*
X84564309Y-90807816D01*
X84584813Y-90842024D01*
X84601865Y-90878077D01*
X84615301Y-90915628D01*
X84624991Y-90954315D01*
X84630843Y-90993766D01*
X84632800Y-91033600D01*
X84632800Y-91846400D01*
X84630843Y-91886234D01*
X84624991Y-91925685D01*
X84615301Y-91964372D01*
X84601865Y-92001923D01*
X84584813Y-92037976D01*
X84564309Y-92072184D01*
X84540551Y-92104217D01*
X84513768Y-92133768D01*
X84484217Y-92160551D01*
X84452184Y-92184309D01*
X84417976Y-92204813D01*
X84381923Y-92221865D01*
X84344372Y-92235301D01*
X84305685Y-92244991D01*
X84266234Y-92250843D01*
X84226400Y-92252800D01*
X83413600Y-92252800D01*
X83373766Y-92250843D01*
X83334315Y-92244991D01*
X83295628Y-92235301D01*
X83258077Y-92221865D01*
X83222024Y-92204813D01*
X83187816Y-92184309D01*
X83155783Y-92160551D01*
X83126232Y-92133768D01*
X83099449Y-92104217D01*
X83075691Y-92072184D01*
X83055187Y-92037976D01*
X83038135Y-92001923D01*
X83024699Y-91964372D01*
X83015009Y-91925685D01*
X83009157Y-91886234D01*
X83007200Y-91846400D01*
X83007200Y-91033600D01*
X83009157Y-90993766D01*
X83015009Y-90954315D01*
X83024699Y-90915628D01*
X83038135Y-90878077D01*
X83055187Y-90842024D01*
X83075691Y-90807816D01*
X83099449Y-90775783D01*
X83126232Y-90746232D01*
X83155783Y-90719449D01*
X83187816Y-90695691D01*
X83222024Y-90675187D01*
X83258077Y-90658135D01*
X83295628Y-90644699D01*
X83334315Y-90635009D01*
X83373766Y-90629157D01*
X83413600Y-90627200D01*
X84226400Y-90627200D01*
X84266234Y-90629157D01*
X84266234Y-90629157D01*
G37*
D13*
X83820000Y-91440000D03*
X210820000Y-91440000D03*
X210820000Y-93980000D03*
X210820000Y-96520000D03*
X210820000Y-99060000D03*
X210820000Y-101600000D03*
X210820000Y-104140000D03*
X210820000Y-106680000D03*
X210820000Y-109220000D03*
X210820000Y-111760000D03*
X226060000Y-111760000D03*
X226060000Y-109220000D03*
X226060000Y-106680000D03*
X226060000Y-104140000D03*
X226060000Y-101600000D03*
X226060000Y-99060000D03*
X226060000Y-96520000D03*
X226060000Y-93980000D03*
D14*
G36*
X226506234Y-90629157D02*
G01*
X226545685Y-90635009D01*
X226584372Y-90644699D01*
X226621923Y-90658135D01*
X226657976Y-90675187D01*
X226692184Y-90695691D01*
X226724217Y-90719449D01*
X226753768Y-90746232D01*
X226780551Y-90775783D01*
X226804309Y-90807816D01*
X226824813Y-90842024D01*
X226841865Y-90878077D01*
X226855301Y-90915628D01*
X226864991Y-90954315D01*
X226870843Y-90993766D01*
X226872800Y-91033600D01*
X226872800Y-91846400D01*
X226870843Y-91886234D01*
X226864991Y-91925685D01*
X226855301Y-91964372D01*
X226841865Y-92001923D01*
X226824813Y-92037976D01*
X226804309Y-92072184D01*
X226780551Y-92104217D01*
X226753768Y-92133768D01*
X226724217Y-92160551D01*
X226692184Y-92184309D01*
X226657976Y-92204813D01*
X226621923Y-92221865D01*
X226584372Y-92235301D01*
X226545685Y-92244991D01*
X226506234Y-92250843D01*
X226466400Y-92252800D01*
X225653600Y-92252800D01*
X225613766Y-92250843D01*
X225574315Y-92244991D01*
X225535628Y-92235301D01*
X225498077Y-92221865D01*
X225462024Y-92204813D01*
X225427816Y-92184309D01*
X225395783Y-92160551D01*
X225366232Y-92133768D01*
X225339449Y-92104217D01*
X225315691Y-92072184D01*
X225295187Y-92037976D01*
X225278135Y-92001923D01*
X225264699Y-91964372D01*
X225255009Y-91925685D01*
X225249157Y-91886234D01*
X225247200Y-91846400D01*
X225247200Y-91033600D01*
X225249157Y-90993766D01*
X225255009Y-90954315D01*
X225264699Y-90915628D01*
X225278135Y-90878077D01*
X225295187Y-90842024D01*
X225315691Y-90807816D01*
X225339449Y-90775783D01*
X225366232Y-90746232D01*
X225395783Y-90719449D01*
X225427816Y-90695691D01*
X225462024Y-90675187D01*
X225498077Y-90658135D01*
X225535628Y-90644699D01*
X225574315Y-90635009D01*
X225613766Y-90629157D01*
X225653600Y-90627200D01*
X226466400Y-90627200D01*
X226506234Y-90629157D01*
X226506234Y-90629157D01*
G37*
D13*
X226060000Y-91440000D03*
X190500000Y-91440000D03*
X190500000Y-93980000D03*
X190500000Y-96520000D03*
X190500000Y-99060000D03*
X190500000Y-101600000D03*
X190500000Y-104140000D03*
X190500000Y-106680000D03*
X190500000Y-109220000D03*
X190500000Y-111760000D03*
X205740000Y-111760000D03*
X205740000Y-109220000D03*
X205740000Y-106680000D03*
X205740000Y-104140000D03*
X205740000Y-101600000D03*
X205740000Y-99060000D03*
X205740000Y-96520000D03*
X205740000Y-93980000D03*
D14*
G36*
X206186234Y-90629157D02*
G01*
X206225685Y-90635009D01*
X206264372Y-90644699D01*
X206301923Y-90658135D01*
X206337976Y-90675187D01*
X206372184Y-90695691D01*
X206404217Y-90719449D01*
X206433768Y-90746232D01*
X206460551Y-90775783D01*
X206484309Y-90807816D01*
X206504813Y-90842024D01*
X206521865Y-90878077D01*
X206535301Y-90915628D01*
X206544991Y-90954315D01*
X206550843Y-90993766D01*
X206552800Y-91033600D01*
X206552800Y-91846400D01*
X206550843Y-91886234D01*
X206544991Y-91925685D01*
X206535301Y-91964372D01*
X206521865Y-92001923D01*
X206504813Y-92037976D01*
X206484309Y-92072184D01*
X206460551Y-92104217D01*
X206433768Y-92133768D01*
X206404217Y-92160551D01*
X206372184Y-92184309D01*
X206337976Y-92204813D01*
X206301923Y-92221865D01*
X206264372Y-92235301D01*
X206225685Y-92244991D01*
X206186234Y-92250843D01*
X206146400Y-92252800D01*
X205333600Y-92252800D01*
X205293766Y-92250843D01*
X205254315Y-92244991D01*
X205215628Y-92235301D01*
X205178077Y-92221865D01*
X205142024Y-92204813D01*
X205107816Y-92184309D01*
X205075783Y-92160551D01*
X205046232Y-92133768D01*
X205019449Y-92104217D01*
X204995691Y-92072184D01*
X204975187Y-92037976D01*
X204958135Y-92001923D01*
X204944699Y-91964372D01*
X204935009Y-91925685D01*
X204929157Y-91886234D01*
X204927200Y-91846400D01*
X204927200Y-91033600D01*
X204929157Y-90993766D01*
X204935009Y-90954315D01*
X204944699Y-90915628D01*
X204958135Y-90878077D01*
X204975187Y-90842024D01*
X204995691Y-90807816D01*
X205019449Y-90775783D01*
X205046232Y-90746232D01*
X205075783Y-90719449D01*
X205107816Y-90695691D01*
X205142024Y-90675187D01*
X205178077Y-90658135D01*
X205215628Y-90644699D01*
X205254315Y-90635009D01*
X205293766Y-90629157D01*
X205333600Y-90627200D01*
X206146400Y-90627200D01*
X206186234Y-90629157D01*
X206186234Y-90629157D01*
G37*
D13*
X205740000Y-91440000D03*
X170180000Y-91440000D03*
X170180000Y-93980000D03*
X170180000Y-96520000D03*
X170180000Y-99060000D03*
X170180000Y-101600000D03*
X170180000Y-104140000D03*
X170180000Y-106680000D03*
X170180000Y-109220000D03*
X170180000Y-111760000D03*
X185420000Y-111760000D03*
X185420000Y-109220000D03*
X185420000Y-106680000D03*
X185420000Y-104140000D03*
X185420000Y-101600000D03*
X185420000Y-99060000D03*
X185420000Y-96520000D03*
X185420000Y-93980000D03*
D14*
G36*
X185866234Y-90629157D02*
G01*
X185905685Y-90635009D01*
X185944372Y-90644699D01*
X185981923Y-90658135D01*
X186017976Y-90675187D01*
X186052184Y-90695691D01*
X186084217Y-90719449D01*
X186113768Y-90746232D01*
X186140551Y-90775783D01*
X186164309Y-90807816D01*
X186184813Y-90842024D01*
X186201865Y-90878077D01*
X186215301Y-90915628D01*
X186224991Y-90954315D01*
X186230843Y-90993766D01*
X186232800Y-91033600D01*
X186232800Y-91846400D01*
X186230843Y-91886234D01*
X186224991Y-91925685D01*
X186215301Y-91964372D01*
X186201865Y-92001923D01*
X186184813Y-92037976D01*
X186164309Y-92072184D01*
X186140551Y-92104217D01*
X186113768Y-92133768D01*
X186084217Y-92160551D01*
X186052184Y-92184309D01*
X186017976Y-92204813D01*
X185981923Y-92221865D01*
X185944372Y-92235301D01*
X185905685Y-92244991D01*
X185866234Y-92250843D01*
X185826400Y-92252800D01*
X185013600Y-92252800D01*
X184973766Y-92250843D01*
X184934315Y-92244991D01*
X184895628Y-92235301D01*
X184858077Y-92221865D01*
X184822024Y-92204813D01*
X184787816Y-92184309D01*
X184755783Y-92160551D01*
X184726232Y-92133768D01*
X184699449Y-92104217D01*
X184675691Y-92072184D01*
X184655187Y-92037976D01*
X184638135Y-92001923D01*
X184624699Y-91964372D01*
X184615009Y-91925685D01*
X184609157Y-91886234D01*
X184607200Y-91846400D01*
X184607200Y-91033600D01*
X184609157Y-90993766D01*
X184615009Y-90954315D01*
X184624699Y-90915628D01*
X184638135Y-90878077D01*
X184655187Y-90842024D01*
X184675691Y-90807816D01*
X184699449Y-90775783D01*
X184726232Y-90746232D01*
X184755783Y-90719449D01*
X184787816Y-90695691D01*
X184822024Y-90675187D01*
X184858077Y-90658135D01*
X184895628Y-90644699D01*
X184934315Y-90635009D01*
X184973766Y-90629157D01*
X185013600Y-90627200D01*
X185826400Y-90627200D01*
X185866234Y-90629157D01*
X185866234Y-90629157D01*
G37*
D13*
X185420000Y-91440000D03*
X149860000Y-91440000D03*
X149860000Y-93980000D03*
X149860000Y-96520000D03*
X149860000Y-99060000D03*
X149860000Y-101600000D03*
X149860000Y-104140000D03*
X149860000Y-106680000D03*
X149860000Y-109220000D03*
X149860000Y-111760000D03*
X165100000Y-111760000D03*
X165100000Y-109220000D03*
X165100000Y-106680000D03*
X165100000Y-104140000D03*
X165100000Y-101600000D03*
X165100000Y-99060000D03*
X165100000Y-96520000D03*
X165100000Y-93980000D03*
D14*
G36*
X165546234Y-90629157D02*
G01*
X165585685Y-90635009D01*
X165624372Y-90644699D01*
X165661923Y-90658135D01*
X165697976Y-90675187D01*
X165732184Y-90695691D01*
X165764217Y-90719449D01*
X165793768Y-90746232D01*
X165820551Y-90775783D01*
X165844309Y-90807816D01*
X165864813Y-90842024D01*
X165881865Y-90878077D01*
X165895301Y-90915628D01*
X165904991Y-90954315D01*
X165910843Y-90993766D01*
X165912800Y-91033600D01*
X165912800Y-91846400D01*
X165910843Y-91886234D01*
X165904991Y-91925685D01*
X165895301Y-91964372D01*
X165881865Y-92001923D01*
X165864813Y-92037976D01*
X165844309Y-92072184D01*
X165820551Y-92104217D01*
X165793768Y-92133768D01*
X165764217Y-92160551D01*
X165732184Y-92184309D01*
X165697976Y-92204813D01*
X165661923Y-92221865D01*
X165624372Y-92235301D01*
X165585685Y-92244991D01*
X165546234Y-92250843D01*
X165506400Y-92252800D01*
X164693600Y-92252800D01*
X164653766Y-92250843D01*
X164614315Y-92244991D01*
X164575628Y-92235301D01*
X164538077Y-92221865D01*
X164502024Y-92204813D01*
X164467816Y-92184309D01*
X164435783Y-92160551D01*
X164406232Y-92133768D01*
X164379449Y-92104217D01*
X164355691Y-92072184D01*
X164335187Y-92037976D01*
X164318135Y-92001923D01*
X164304699Y-91964372D01*
X164295009Y-91925685D01*
X164289157Y-91886234D01*
X164287200Y-91846400D01*
X164287200Y-91033600D01*
X164289157Y-90993766D01*
X164295009Y-90954315D01*
X164304699Y-90915628D01*
X164318135Y-90878077D01*
X164335187Y-90842024D01*
X164355691Y-90807816D01*
X164379449Y-90775783D01*
X164406232Y-90746232D01*
X164435783Y-90719449D01*
X164467816Y-90695691D01*
X164502024Y-90675187D01*
X164538077Y-90658135D01*
X164575628Y-90644699D01*
X164614315Y-90635009D01*
X164653766Y-90629157D01*
X164693600Y-90627200D01*
X165506400Y-90627200D01*
X165546234Y-90629157D01*
X165546234Y-90629157D01*
G37*
D13*
X165100000Y-91440000D03*
X129540000Y-91440000D03*
X129540000Y-93980000D03*
X129540000Y-96520000D03*
X129540000Y-99060000D03*
X129540000Y-101600000D03*
X129540000Y-104140000D03*
X129540000Y-106680000D03*
X129540000Y-109220000D03*
X129540000Y-111760000D03*
X144780000Y-111760000D03*
X144780000Y-109220000D03*
X144780000Y-106680000D03*
X144780000Y-104140000D03*
X144780000Y-101600000D03*
X144780000Y-99060000D03*
X144780000Y-96520000D03*
X144780000Y-93980000D03*
D14*
G36*
X145226234Y-90629157D02*
G01*
X145265685Y-90635009D01*
X145304372Y-90644699D01*
X145341923Y-90658135D01*
X145377976Y-90675187D01*
X145412184Y-90695691D01*
X145444217Y-90719449D01*
X145473768Y-90746232D01*
X145500551Y-90775783D01*
X145524309Y-90807816D01*
X145544813Y-90842024D01*
X145561865Y-90878077D01*
X145575301Y-90915628D01*
X145584991Y-90954315D01*
X145590843Y-90993766D01*
X145592800Y-91033600D01*
X145592800Y-91846400D01*
X145590843Y-91886234D01*
X145584991Y-91925685D01*
X145575301Y-91964372D01*
X145561865Y-92001923D01*
X145544813Y-92037976D01*
X145524309Y-92072184D01*
X145500551Y-92104217D01*
X145473768Y-92133768D01*
X145444217Y-92160551D01*
X145412184Y-92184309D01*
X145377976Y-92204813D01*
X145341923Y-92221865D01*
X145304372Y-92235301D01*
X145265685Y-92244991D01*
X145226234Y-92250843D01*
X145186400Y-92252800D01*
X144373600Y-92252800D01*
X144333766Y-92250843D01*
X144294315Y-92244991D01*
X144255628Y-92235301D01*
X144218077Y-92221865D01*
X144182024Y-92204813D01*
X144147816Y-92184309D01*
X144115783Y-92160551D01*
X144086232Y-92133768D01*
X144059449Y-92104217D01*
X144035691Y-92072184D01*
X144015187Y-92037976D01*
X143998135Y-92001923D01*
X143984699Y-91964372D01*
X143975009Y-91925685D01*
X143969157Y-91886234D01*
X143967200Y-91846400D01*
X143967200Y-91033600D01*
X143969157Y-90993766D01*
X143975009Y-90954315D01*
X143984699Y-90915628D01*
X143998135Y-90878077D01*
X144015187Y-90842024D01*
X144035691Y-90807816D01*
X144059449Y-90775783D01*
X144086232Y-90746232D01*
X144115783Y-90719449D01*
X144147816Y-90695691D01*
X144182024Y-90675187D01*
X144218077Y-90658135D01*
X144255628Y-90644699D01*
X144294315Y-90635009D01*
X144333766Y-90629157D01*
X144373600Y-90627200D01*
X145186400Y-90627200D01*
X145226234Y-90629157D01*
X145226234Y-90629157D01*
G37*
D13*
X144780000Y-91440000D03*
X109220000Y-91440000D03*
X109220000Y-93980000D03*
X109220000Y-96520000D03*
X109220000Y-99060000D03*
X109220000Y-101600000D03*
X109220000Y-104140000D03*
X109220000Y-106680000D03*
X109220000Y-109220000D03*
X109220000Y-111760000D03*
X124460000Y-111760000D03*
X124460000Y-109220000D03*
X124460000Y-106680000D03*
X124460000Y-104140000D03*
X124460000Y-101600000D03*
X124460000Y-99060000D03*
X124460000Y-96520000D03*
X124460000Y-93980000D03*
D14*
G36*
X124906234Y-90629157D02*
G01*
X124945685Y-90635009D01*
X124984372Y-90644699D01*
X125021923Y-90658135D01*
X125057976Y-90675187D01*
X125092184Y-90695691D01*
X125124217Y-90719449D01*
X125153768Y-90746232D01*
X125180551Y-90775783D01*
X125204309Y-90807816D01*
X125224813Y-90842024D01*
X125241865Y-90878077D01*
X125255301Y-90915628D01*
X125264991Y-90954315D01*
X125270843Y-90993766D01*
X125272800Y-91033600D01*
X125272800Y-91846400D01*
X125270843Y-91886234D01*
X125264991Y-91925685D01*
X125255301Y-91964372D01*
X125241865Y-92001923D01*
X125224813Y-92037976D01*
X125204309Y-92072184D01*
X125180551Y-92104217D01*
X125153768Y-92133768D01*
X125124217Y-92160551D01*
X125092184Y-92184309D01*
X125057976Y-92204813D01*
X125021923Y-92221865D01*
X124984372Y-92235301D01*
X124945685Y-92244991D01*
X124906234Y-92250843D01*
X124866400Y-92252800D01*
X124053600Y-92252800D01*
X124013766Y-92250843D01*
X123974315Y-92244991D01*
X123935628Y-92235301D01*
X123898077Y-92221865D01*
X123862024Y-92204813D01*
X123827816Y-92184309D01*
X123795783Y-92160551D01*
X123766232Y-92133768D01*
X123739449Y-92104217D01*
X123715691Y-92072184D01*
X123695187Y-92037976D01*
X123678135Y-92001923D01*
X123664699Y-91964372D01*
X123655009Y-91925685D01*
X123649157Y-91886234D01*
X123647200Y-91846400D01*
X123647200Y-91033600D01*
X123649157Y-90993766D01*
X123655009Y-90954315D01*
X123664699Y-90915628D01*
X123678135Y-90878077D01*
X123695187Y-90842024D01*
X123715691Y-90807816D01*
X123739449Y-90775783D01*
X123766232Y-90746232D01*
X123795783Y-90719449D01*
X123827816Y-90695691D01*
X123862024Y-90675187D01*
X123898077Y-90658135D01*
X123935628Y-90644699D01*
X123974315Y-90635009D01*
X124013766Y-90629157D01*
X124053600Y-90627200D01*
X124866400Y-90627200D01*
X124906234Y-90629157D01*
X124906234Y-90629157D01*
G37*
D13*
X124460000Y-91440000D03*
X88900000Y-91440000D03*
X88900000Y-93980000D03*
X88900000Y-96520000D03*
X88900000Y-99060000D03*
X88900000Y-101600000D03*
X88900000Y-104140000D03*
X88900000Y-106680000D03*
X88900000Y-109220000D03*
X88900000Y-111760000D03*
X104140000Y-111760000D03*
X104140000Y-109220000D03*
X104140000Y-106680000D03*
X104140000Y-104140000D03*
X104140000Y-101600000D03*
X104140000Y-99060000D03*
X104140000Y-96520000D03*
X104140000Y-93980000D03*
D14*
G36*
X104586234Y-90629157D02*
G01*
X104625685Y-90635009D01*
X104664372Y-90644699D01*
X104701923Y-90658135D01*
X104737976Y-90675187D01*
X104772184Y-90695691D01*
X104804217Y-90719449D01*
X104833768Y-90746232D01*
X104860551Y-90775783D01*
X104884309Y-90807816D01*
X104904813Y-90842024D01*
X104921865Y-90878077D01*
X104935301Y-90915628D01*
X104944991Y-90954315D01*
X104950843Y-90993766D01*
X104952800Y-91033600D01*
X104952800Y-91846400D01*
X104950843Y-91886234D01*
X104944991Y-91925685D01*
X104935301Y-91964372D01*
X104921865Y-92001923D01*
X104904813Y-92037976D01*
X104884309Y-92072184D01*
X104860551Y-92104217D01*
X104833768Y-92133768D01*
X104804217Y-92160551D01*
X104772184Y-92184309D01*
X104737976Y-92204813D01*
X104701923Y-92221865D01*
X104664372Y-92235301D01*
X104625685Y-92244991D01*
X104586234Y-92250843D01*
X104546400Y-92252800D01*
X103733600Y-92252800D01*
X103693766Y-92250843D01*
X103654315Y-92244991D01*
X103615628Y-92235301D01*
X103578077Y-92221865D01*
X103542024Y-92204813D01*
X103507816Y-92184309D01*
X103475783Y-92160551D01*
X103446232Y-92133768D01*
X103419449Y-92104217D01*
X103395691Y-92072184D01*
X103375187Y-92037976D01*
X103358135Y-92001923D01*
X103344699Y-91964372D01*
X103335009Y-91925685D01*
X103329157Y-91886234D01*
X103327200Y-91846400D01*
X103327200Y-91033600D01*
X103329157Y-90993766D01*
X103335009Y-90954315D01*
X103344699Y-90915628D01*
X103358135Y-90878077D01*
X103375187Y-90842024D01*
X103395691Y-90807816D01*
X103419449Y-90775783D01*
X103446232Y-90746232D01*
X103475783Y-90719449D01*
X103507816Y-90695691D01*
X103542024Y-90675187D01*
X103578077Y-90658135D01*
X103615628Y-90644699D01*
X103654315Y-90635009D01*
X103693766Y-90629157D01*
X103733600Y-90627200D01*
X104546400Y-90627200D01*
X104586234Y-90629157D01*
X104586234Y-90629157D01*
G37*
D13*
X104140000Y-91440000D03*
D15*
X199568000Y-113030000D03*
X202768000Y-113030000D03*
X199720000Y-90297000D03*
X196520000Y-90297000D03*
D16*
X228440000Y-92710000D03*
X228440000Y-95250000D03*
X228440000Y-97790000D03*
X228440000Y-100330000D03*
X228440000Y-102870000D03*
X228440000Y-105410000D03*
X228440000Y-107950000D03*
D17*
X228440000Y-110490000D03*
D16*
X66200000Y-110490000D03*
X66200000Y-107950000D03*
X66200000Y-105410000D03*
X66200000Y-102870000D03*
X66200000Y-100330000D03*
X66200000Y-97790000D03*
X66200000Y-95250000D03*
D17*
X66200000Y-92710000D03*
D18*
X215740000Y-105092500D03*
X215740000Y-104457500D03*
X215740000Y-103822500D03*
X215740000Y-103187500D03*
X215740000Y-102552500D03*
X215740000Y-101917500D03*
X215740000Y-101282500D03*
X215740000Y-100647500D03*
X215740000Y-100012500D03*
X215740000Y-99377500D03*
X215740000Y-98742500D03*
X215740000Y-98107500D03*
X221140000Y-98107500D03*
X221140000Y-98742500D03*
X221140000Y-99377500D03*
X221140000Y-100012500D03*
X221140000Y-100647500D03*
X221140000Y-101282500D03*
X221140000Y-101917500D03*
X221140000Y-102552500D03*
X221140000Y-103187500D03*
X221140000Y-103822500D03*
X221140000Y-104457500D03*
X221140000Y-105092500D03*
X195420000Y-105092500D03*
X195420000Y-104457500D03*
X195420000Y-103822500D03*
X195420000Y-103187500D03*
X195420000Y-102552500D03*
X195420000Y-101917500D03*
X195420000Y-101282500D03*
X195420000Y-100647500D03*
X195420000Y-100012500D03*
X195420000Y-99377500D03*
X195420000Y-98742500D03*
X195420000Y-98107500D03*
X200820000Y-98107500D03*
X200820000Y-98742500D03*
X200820000Y-99377500D03*
X200820000Y-100012500D03*
X200820000Y-100647500D03*
X200820000Y-101282500D03*
X200820000Y-101917500D03*
X200820000Y-102552500D03*
X200820000Y-103187500D03*
X200820000Y-103822500D03*
X200820000Y-104457500D03*
X200820000Y-105092500D03*
X175100000Y-105092500D03*
X175100000Y-104457500D03*
X175100000Y-103822500D03*
X175100000Y-103187500D03*
X175100000Y-102552500D03*
X175100000Y-101917500D03*
X175100000Y-101282500D03*
X175100000Y-100647500D03*
X175100000Y-100012500D03*
X175100000Y-99377500D03*
X175100000Y-98742500D03*
X175100000Y-98107500D03*
X180500000Y-98107500D03*
X180500000Y-98742500D03*
X180500000Y-99377500D03*
X180500000Y-100012500D03*
X180500000Y-100647500D03*
X180500000Y-101282500D03*
X180500000Y-101917500D03*
X180500000Y-102552500D03*
X180500000Y-103187500D03*
X180500000Y-103822500D03*
X180500000Y-104457500D03*
X180500000Y-105092500D03*
X154780000Y-105092500D03*
X154780000Y-104457500D03*
X154780000Y-103822500D03*
X154780000Y-103187500D03*
X154780000Y-102552500D03*
X154780000Y-101917500D03*
X154780000Y-101282500D03*
X154780000Y-100647500D03*
X154780000Y-100012500D03*
X154780000Y-99377500D03*
X154780000Y-98742500D03*
X154780000Y-98107500D03*
X160180000Y-98107500D03*
X160180000Y-98742500D03*
X160180000Y-99377500D03*
X160180000Y-100012500D03*
X160180000Y-100647500D03*
X160180000Y-101282500D03*
X160180000Y-101917500D03*
X160180000Y-102552500D03*
X160180000Y-103187500D03*
X160180000Y-103822500D03*
X160180000Y-104457500D03*
X160180000Y-105092500D03*
X139860000Y-105727500D03*
X139860000Y-106362500D03*
X139860000Y-106997500D03*
X139860000Y-107632500D03*
X139860000Y-108267500D03*
X139860000Y-108902500D03*
X139860000Y-109537500D03*
X139860000Y-110172500D03*
X139860000Y-110807500D03*
X139860000Y-111442500D03*
X139860000Y-112077500D03*
X139860000Y-112712500D03*
X134460000Y-112712500D03*
X134460000Y-112077500D03*
X134460000Y-111442500D03*
X134460000Y-110807500D03*
X134460000Y-110172500D03*
X134460000Y-109537500D03*
X134460000Y-108902500D03*
X134460000Y-108267500D03*
X134460000Y-107632500D03*
X134460000Y-106997500D03*
X134460000Y-106362500D03*
X134460000Y-105727500D03*
X134460000Y-97472500D03*
X134460000Y-96837500D03*
X134460000Y-96202500D03*
X134460000Y-95567500D03*
X134460000Y-94932500D03*
X134460000Y-94297500D03*
X134460000Y-93662500D03*
X134460000Y-93027500D03*
X134460000Y-92392500D03*
X134460000Y-91757500D03*
X134460000Y-91122500D03*
X134460000Y-90487500D03*
X139860000Y-90487500D03*
X139860000Y-91122500D03*
X139860000Y-91757500D03*
X139860000Y-92392500D03*
X139860000Y-93027500D03*
X139860000Y-93662500D03*
X139860000Y-94297500D03*
X139860000Y-94932500D03*
X139860000Y-95567500D03*
X139860000Y-96202500D03*
X139860000Y-96837500D03*
X139860000Y-97472500D03*
X114140000Y-105092500D03*
X114140000Y-104457500D03*
X114140000Y-103822500D03*
X114140000Y-103187500D03*
X114140000Y-102552500D03*
X114140000Y-101917500D03*
X114140000Y-101282500D03*
X114140000Y-100647500D03*
X114140000Y-100012500D03*
X114140000Y-99377500D03*
X114140000Y-98742500D03*
X114140000Y-98107500D03*
X119540000Y-98107500D03*
X119540000Y-98742500D03*
X119540000Y-99377500D03*
X119540000Y-100012500D03*
X119540000Y-100647500D03*
X119540000Y-101282500D03*
X119540000Y-101917500D03*
X119540000Y-102552500D03*
X119540000Y-103187500D03*
X119540000Y-103822500D03*
X119540000Y-104457500D03*
X119540000Y-105092500D03*
X93820000Y-105092500D03*
X93820000Y-104457500D03*
X93820000Y-103822500D03*
X93820000Y-103187500D03*
X93820000Y-102552500D03*
X93820000Y-101917500D03*
X93820000Y-101282500D03*
X93820000Y-100647500D03*
X93820000Y-100012500D03*
X93820000Y-99377500D03*
X93820000Y-98742500D03*
X93820000Y-98107500D03*
X99220000Y-98107500D03*
X99220000Y-98742500D03*
X99220000Y-99377500D03*
X99220000Y-100012500D03*
X99220000Y-100647500D03*
X99220000Y-101282500D03*
X99220000Y-101917500D03*
X99220000Y-102552500D03*
X99220000Y-103187500D03*
X99220000Y-103822500D03*
X99220000Y-104457500D03*
X99220000Y-105092500D03*
D19*
X217340000Y-107569000D03*
X219540000Y-107569000D03*
X197020000Y-107569000D03*
X199220000Y-107569000D03*
X176700000Y-107569000D03*
X178900000Y-107569000D03*
X156380000Y-107569000D03*
X158580000Y-107569000D03*
X138260000Y-103251000D03*
X136060000Y-103251000D03*
X136060000Y-99949000D03*
X138260000Y-99949000D03*
X115740000Y-107569000D03*
X117940000Y-107569000D03*
X95420000Y-107569000D03*
X97620000Y-107569000D03*
D20*
X213734000Y-113030000D03*
X216034000Y-113030000D03*
X193414000Y-113030000D03*
X195714000Y-113030000D03*
X173094000Y-113030000D03*
X175394000Y-113030000D03*
X152774000Y-113030000D03*
X155074000Y-113030000D03*
X121546000Y-113030000D03*
X119246000Y-113030000D03*
X111880000Y-113030000D03*
X114180000Y-113030000D03*
X91814000Y-113030000D03*
X94114000Y-113030000D03*
D21*
X215519000Y-107562000D03*
X215519000Y-109862000D03*
X195199000Y-107562000D03*
X195199000Y-109862000D03*
X174879000Y-107562000D03*
X174879000Y-109862000D03*
X154559000Y-107562000D03*
X154559000Y-109862000D03*
X134239000Y-99942000D03*
X134239000Y-102242000D03*
X113919000Y-107562000D03*
X113919000Y-109862000D03*
X93599000Y-107562000D03*
X93599000Y-109862000D03*
D15*
X98120000Y-90043000D03*
X94920000Y-90043000D03*
D21*
X73279000Y-107562000D03*
X73279000Y-109862000D03*
D15*
X97968000Y-113030000D03*
X101168000Y-113030000D03*
D20*
X71494000Y-113030000D03*
X73794000Y-113030000D03*
D19*
X75100000Y-107569000D03*
X77300000Y-107569000D03*
D18*
X73500000Y-105092500D03*
X73500000Y-104457500D03*
X73500000Y-103822500D03*
X73500000Y-103187500D03*
X73500000Y-102552500D03*
X73500000Y-101917500D03*
X73500000Y-101282500D03*
X73500000Y-100647500D03*
X73500000Y-100012500D03*
X73500000Y-99377500D03*
X73500000Y-98742500D03*
X73500000Y-98107500D03*
X78900000Y-98107500D03*
X78900000Y-98742500D03*
X78900000Y-99377500D03*
X78900000Y-100012500D03*
X78900000Y-100647500D03*
X78900000Y-101282500D03*
X78900000Y-101917500D03*
X78900000Y-102552500D03*
X78900000Y-103187500D03*
X78900000Y-103822500D03*
X78900000Y-104457500D03*
X78900000Y-105092500D03*
D22*
X215392000Y-106045000D03*
X195072000Y-106045000D03*
X174752000Y-106045000D03*
X113792000Y-106045000D03*
X93472000Y-106045000D03*
X140208000Y-104775000D03*
X154432000Y-106045000D03*
X93726000Y-90043000D03*
X195326000Y-90297000D03*
X134112000Y-98425000D03*
X73152000Y-106045000D03*
X221488000Y-106045000D03*
X201168000Y-106045000D03*
X180848000Y-106045000D03*
X119888000Y-106045000D03*
X99695000Y-106045000D03*
X73279000Y-111125000D03*
X77724000Y-108839000D03*
X139319000Y-99949000D03*
X134239000Y-103505000D03*
X134133327Y-104765644D03*
X160655000Y-106045000D03*
X97282000Y-108839000D03*
X93599000Y-111125000D03*
X99314000Y-90043000D03*
X113919000Y-111125000D03*
X117729000Y-108839000D03*
X158369000Y-108839000D03*
X154559000Y-111125000D03*
X215519000Y-111125000D03*
X219202000Y-108587530D03*
X198882000Y-108839000D03*
X200914000Y-90297000D03*
X178562000Y-108839000D03*
X217297000Y-113030000D03*
X197739000Y-113030000D03*
X176657000Y-113030000D03*
X156337000Y-113030000D03*
X116713000Y-113030000D03*
X96139000Y-113030000D03*
X75057000Y-113030000D03*
X195199000Y-111125000D03*
X140208000Y-98298000D03*
X79375000Y-106045000D03*
X174879000Y-111125000D03*
D23*
X70231000Y-92710000D03*
X224409000Y-110490000D03*
X224409000Y-92710000D03*
D22*
X212471000Y-113030000D03*
X203962000Y-113030000D03*
X192151000Y-113030000D03*
X171831000Y-113030000D03*
X151511000Y-113030000D03*
X122809000Y-113030000D03*
X110617000Y-113030000D03*
X102362000Y-113030000D03*
X90551000Y-113030000D03*
X70231000Y-113030000D03*
D23*
X70231000Y-109220000D03*
D22*
X80645000Y-107950000D03*
X101092000Y-107950000D03*
X121285000Y-107950000D03*
X182118000Y-107950000D03*
X202438000Y-107950000D03*
X136144000Y-107950000D03*
X142113000Y-107950000D03*
X161036000Y-107950000D03*
X222631000Y-107950000D03*
X92075000Y-105410000D03*
X112395000Y-105410000D03*
X213995000Y-105410000D03*
X153289000Y-105410000D03*
X133096043Y-105410000D03*
X141605018Y-105410000D03*
X71374000Y-105410000D03*
X193802000Y-105410000D03*
X173482000Y-105410000D03*
X141859010Y-102870000D03*
X80518000Y-102870000D03*
X121412000Y-102870000D03*
X182245000Y-102870000D03*
X202692000Y-102870000D03*
X222758000Y-102870000D03*
X158242000Y-102870000D03*
X100711000Y-102870000D03*
X132334000Y-102870000D03*
X76581000Y-100330000D03*
X217297000Y-100330000D03*
X92456010Y-90043000D03*
X76835000Y-99060000D03*
X81280000Y-101600000D03*
X81280000Y-106426000D03*
X75057000Y-103632000D03*
X77216000Y-99822000D03*
X76581000Y-98298000D03*
X71628000Y-96901000D03*
X77597000Y-97155000D03*
X117221000Y-89281000D03*
X116586000Y-95249990D03*
X91948000Y-98044000D03*
X97914537Y-99829911D03*
X90551000Y-100584000D03*
X110871000Y-104393999D03*
X117475004Y-104394000D03*
X106807000Y-101600000D03*
X101092000Y-106680000D03*
X95885000Y-102234990D03*
X101727000Y-101727000D03*
X96018274Y-100919385D03*
X101346000Y-100965000D03*
X101854000Y-100330000D03*
X96133987Y-98919493D03*
X95123000Y-96520000D03*
X90297000Y-95504000D03*
X118237000Y-89916000D03*
X138176000Y-92075000D03*
X112522000Y-93980000D03*
X112395000Y-99060000D03*
X110363008Y-97917000D03*
X112395000Y-97663000D03*
X126492000Y-89535000D03*
X125476000Y-100330000D03*
X110871000Y-101473000D03*
X136779000Y-89156530D03*
X121412000Y-99695000D03*
X110993488Y-100452472D03*
X126365000Y-113030000D03*
X137668000Y-95250000D03*
X127127000Y-95250000D03*
X137414000Y-98425000D03*
X126365000Y-100838000D03*
X115823990Y-102235000D03*
X122047000Y-102235000D03*
X121793000Y-97155000D03*
X114554000Y-97155010D03*
X122047000Y-100965000D03*
X121666000Y-95885000D03*
X115951000Y-95885000D03*
X111379003Y-96774003D03*
X115316000Y-93980000D03*
X138049000Y-88519000D03*
X133096000Y-93980000D03*
X132461000Y-111125000D03*
X130937000Y-111125000D03*
X132588000Y-99060000D03*
X132080000Y-101600000D03*
X132080000Y-104140000D03*
X139319000Y-89789000D03*
X127762000Y-90297000D03*
X136017000Y-111760000D03*
X136779000Y-111125000D03*
X132715000Y-108585000D03*
X142748021Y-106680000D03*
X141859000Y-91059000D03*
X132842000Y-91440000D03*
X142621000Y-91694000D03*
X136144000Y-92075000D03*
X143256000Y-90678000D03*
X136144000Y-90805000D03*
X140335000Y-99060000D03*
X140335000Y-103632000D03*
X137668000Y-104775000D03*
X136559251Y-95977751D03*
X136017000Y-93980000D03*
X136525000Y-112903000D03*
X146812000Y-113538000D03*
X146304000Y-104521000D03*
X147066000Y-103251000D03*
X159893000Y-96520000D03*
X146049979Y-108585000D03*
X147574000Y-108585000D03*
X147574000Y-109855000D03*
X146050000Y-109855000D03*
X158750000Y-98171000D03*
X151384000Y-98171000D03*
X141605000Y-112902968D03*
X147828000Y-112014000D03*
X158750000Y-99695000D03*
X152019000Y-99695000D03*
X161417000Y-111760000D03*
X161671000Y-109220000D03*
X162433000Y-110490000D03*
X138303000Y-110490000D03*
X158242000Y-99060000D03*
X178308000Y-93980000D03*
X176657000Y-96520000D03*
X177546000Y-99822000D03*
X152654000Y-95250000D03*
X168021000Y-95250000D03*
X172085000Y-103759000D03*
X153289000Y-97536000D03*
X166624000Y-98171000D03*
X171577000Y-95250000D03*
X180086000Y-95250000D03*
X182880000Y-109220000D03*
X156591000Y-101473000D03*
X163576000Y-100965000D03*
X156845000Y-103505000D03*
X163703000Y-103505000D03*
X156337000Y-100330000D03*
X182499000Y-100330000D03*
X184277000Y-99822000D03*
X182245000Y-101092000D03*
X198882000Y-94488000D03*
X198628000Y-99060000D03*
X198247000Y-101600000D03*
X192405000Y-104140000D03*
X187960000Y-106680000D03*
X171831000Y-111125000D03*
X187960000Y-113284000D03*
X192278000Y-110490000D03*
X204470000Y-97409000D03*
X202438000Y-97409000D03*
X207518000Y-114427000D03*
X171831000Y-112014000D03*
X198882000Y-104140000D03*
X176911000Y-101346000D03*
X202438000Y-98298000D03*
X203073000Y-96520000D03*
X212090000Y-102235000D03*
X214376000Y-102235000D03*
X219710000Y-93980000D03*
X214376000Y-101346000D03*
X212090000Y-100965000D03*
X218948000Y-99060000D03*
X222758000Y-100965000D03*
X213741000Y-104140000D03*
X193421000Y-111379000D03*
X208407000Y-113665000D03*
X212598000Y-109220000D03*
X223266000Y-106680000D03*
X219329000Y-104140000D03*
X219710000Y-102489000D03*
X217551000Y-98425000D03*
X221869000Y-96520000D03*
X223139000Y-93980000D03*
X217424000Y-102235000D03*
X219075000Y-101092000D03*
X97790000Y-110490000D03*
X72009000Y-110490000D03*
X118237000Y-110490000D03*
X96519996Y-109855000D03*
X138176000Y-97155000D03*
X116585968Y-97789994D03*
X158750000Y-113157000D03*
X138049000Y-114427000D03*
X178943000Y-110490000D03*
X157480000Y-111125000D03*
X199390000Y-110490000D03*
X177800000Y-109855000D03*
X219710000Y-110490000D03*
X198120000Y-109855000D03*
M02*
