G04 #@! TF.FileFunction,Legend,Top*
%FSLAX46Y46*%
G04 Gerber Fmt 4.6, Leading zero omitted, Abs format (unit mm)*
G04 Created by KiCad (PCBNEW (2015-09-12 BZR 6188)-product) date Thu Sep 24 19:29:35 2015*
%MOMM*%
G01*
G04 APERTURE LIST*
%ADD10C,0.100000*%
%ADD11C,0.150000*%
%ADD12R,1.600000X2.000000*%
%ADD13R,1.500000X1.250000*%
%ADD14R,1.500000X1.300000*%
%ADD15R,1.400000X1.400000*%
%ADD16C,1.400000*%
%ADD17R,4.064000X1.778000*%
%ADD18R,2.032000X1.778000*%
%ADD19R,1.600000X0.400000*%
%ADD20C,1.143000*%
%ADD21C,0.889000*%
G04 APERTURE END LIST*
D10*
D11*
X157369000Y-105497381D02*
X157559477Y-105497381D01*
X157654715Y-105545000D01*
X157749953Y-105640238D01*
X157797572Y-105830714D01*
X157797572Y-106164048D01*
X157749953Y-106354524D01*
X157654715Y-106449762D01*
X157559477Y-106497381D01*
X157369000Y-106497381D01*
X157273762Y-106449762D01*
X157178524Y-106354524D01*
X157130905Y-106164048D01*
X157130905Y-105830714D01*
X157178524Y-105640238D01*
X157273762Y-105545000D01*
X157369000Y-105497381D01*
X158226143Y-105497381D02*
X158226143Y-106306905D01*
X158273762Y-106402143D01*
X158321381Y-106449762D01*
X158416619Y-106497381D01*
X158607096Y-106497381D01*
X158702334Y-106449762D01*
X158749953Y-106402143D01*
X158797572Y-106306905D01*
X158797572Y-105497381D01*
X159130905Y-105497381D02*
X159702334Y-105497381D01*
X159416619Y-106497381D02*
X159416619Y-105497381D01*
X130159191Y-106497381D02*
X130159191Y-105497381D01*
X130635381Y-106497381D02*
X130635381Y-105497381D01*
X131206810Y-106497381D01*
X131206810Y-105497381D01*
X132513429Y-86566286D02*
X133113429Y-86366286D01*
X132513429Y-86166286D01*
X132942000Y-85994857D02*
X132942000Y-85709143D01*
X133113429Y-86052000D02*
X132513429Y-85852000D01*
X133113429Y-85652000D01*
X132942000Y-85480571D02*
X132942000Y-85194857D01*
X133113429Y-85537714D02*
X132513429Y-85337714D01*
X133113429Y-85137714D01*
X132513429Y-89192000D02*
X133113429Y-88992000D01*
X132513429Y-88792000D01*
X133056286Y-88249143D02*
X133084857Y-88277714D01*
X133113429Y-88363428D01*
X133113429Y-88420571D01*
X133084857Y-88506286D01*
X133027714Y-88563428D01*
X132970571Y-88592000D01*
X132856286Y-88620571D01*
X132770571Y-88620571D01*
X132656286Y-88592000D01*
X132599143Y-88563428D01*
X132542000Y-88506286D01*
X132513429Y-88420571D01*
X132513429Y-88363428D01*
X132542000Y-88277714D01*
X132570571Y-88249143D01*
X133056286Y-87649143D02*
X133084857Y-87677714D01*
X133113429Y-87763428D01*
X133113429Y-87820571D01*
X133084857Y-87906286D01*
X133027714Y-87963428D01*
X132970571Y-87992000D01*
X132856286Y-88020571D01*
X132770571Y-88020571D01*
X132656286Y-87992000D01*
X132599143Y-87963428D01*
X132542000Y-87906286D01*
X132513429Y-87820571D01*
X132513429Y-87763428D01*
X132542000Y-87677714D01*
X132570571Y-87649143D01*
X150538857Y-81881286D02*
X150717428Y-82381286D01*
X150896000Y-81881286D01*
X151574572Y-82381286D02*
X151146000Y-82381286D01*
X151360286Y-82381286D02*
X151360286Y-81631286D01*
X151288857Y-81738429D01*
X151217429Y-81809857D01*
X151146000Y-81845571D01*
X151896000Y-82309857D02*
X151931715Y-82345571D01*
X151896000Y-82381286D01*
X151860286Y-82345571D01*
X151896000Y-82309857D01*
X151896000Y-82381286D01*
X152396001Y-81631286D02*
X152467429Y-81631286D01*
X152538858Y-81667000D01*
X152574572Y-81702714D01*
X152610286Y-81774143D01*
X152646001Y-81917000D01*
X152646001Y-82095571D01*
X152610286Y-82238429D01*
X152574572Y-82309857D01*
X152538858Y-82345571D01*
X152467429Y-82381286D01*
X152396001Y-82381286D01*
X152324572Y-82345571D01*
X152288858Y-82309857D01*
X152253143Y-82238429D01*
X152217429Y-82095571D01*
X152217429Y-81917000D01*
X152253143Y-81774143D01*
X152288858Y-81702714D01*
X152324572Y-81667000D01*
X152396001Y-81631286D01*
X152967429Y-82309857D02*
X153003144Y-82345571D01*
X152967429Y-82381286D01*
X152931715Y-82345571D01*
X152967429Y-82309857D01*
X152967429Y-82381286D01*
X153467430Y-81631286D02*
X153538858Y-81631286D01*
X153610287Y-81667000D01*
X153646001Y-81702714D01*
X153681715Y-81774143D01*
X153717430Y-81917000D01*
X153717430Y-82095571D01*
X153681715Y-82238429D01*
X153646001Y-82309857D01*
X153610287Y-82345571D01*
X153538858Y-82381286D01*
X153467430Y-82381286D01*
X153396001Y-82345571D01*
X153360287Y-82309857D01*
X153324572Y-82238429D01*
X153288858Y-82095571D01*
X153288858Y-81917000D01*
X153324572Y-81774143D01*
X153360287Y-81702714D01*
X153396001Y-81667000D01*
X153467430Y-81631286D01*
X131326714Y-81702714D02*
X131362428Y-81667000D01*
X131433857Y-81631286D01*
X131612428Y-81631286D01*
X131683857Y-81667000D01*
X131719571Y-81702714D01*
X131755286Y-81774143D01*
X131755286Y-81845571D01*
X131719571Y-81952714D01*
X131291000Y-82381286D01*
X131755286Y-82381286D01*
X132648143Y-82381286D02*
X132648143Y-81631286D01*
X132826715Y-81631286D01*
X132933858Y-81667000D01*
X133005286Y-81738429D01*
X133041001Y-81809857D01*
X133076715Y-81952714D01*
X133076715Y-82059857D01*
X133041001Y-82202714D01*
X133005286Y-82274143D01*
X132933858Y-82345571D01*
X132826715Y-82381286D01*
X132648143Y-82381286D01*
X133398143Y-82381286D02*
X133398143Y-81881286D01*
X133398143Y-81631286D02*
X133362429Y-81667000D01*
X133398143Y-81702714D01*
X133433858Y-81667000D01*
X133398143Y-81631286D01*
X133398143Y-81702714D01*
X134076715Y-81881286D02*
X134076715Y-82488429D01*
X134041001Y-82559857D01*
X134005286Y-82595571D01*
X133933858Y-82631286D01*
X133826715Y-82631286D01*
X133755286Y-82595571D01*
X134076715Y-82345571D02*
X134005286Y-82381286D01*
X133862429Y-82381286D01*
X133791001Y-82345571D01*
X133755286Y-82309857D01*
X133719572Y-82238429D01*
X133719572Y-82024143D01*
X133755286Y-81952714D01*
X133791001Y-81917000D01*
X133862429Y-81881286D01*
X134005286Y-81881286D01*
X134076715Y-81917000D01*
X134433857Y-82381286D02*
X134433857Y-81881286D01*
X134433857Y-81631286D02*
X134398143Y-81667000D01*
X134433857Y-81702714D01*
X134469572Y-81667000D01*
X134433857Y-81631286D01*
X134433857Y-81702714D01*
X134683858Y-81881286D02*
X134969572Y-81881286D01*
X134791000Y-81631286D02*
X134791000Y-82274143D01*
X134826715Y-82345571D01*
X134898143Y-82381286D01*
X134969572Y-82381286D01*
X135719572Y-81631286D02*
X136219572Y-81631286D01*
X135898143Y-82381286D01*
X136505286Y-82095571D02*
X137076715Y-82095571D01*
X137398143Y-82345571D02*
X137505286Y-82381286D01*
X137683857Y-82381286D01*
X137755286Y-82345571D01*
X137791000Y-82309857D01*
X137826715Y-82238429D01*
X137826715Y-82167000D01*
X137791000Y-82095571D01*
X137755286Y-82059857D01*
X137683857Y-82024143D01*
X137541000Y-81988429D01*
X137469572Y-81952714D01*
X137433857Y-81917000D01*
X137398143Y-81845571D01*
X137398143Y-81774143D01*
X137433857Y-81702714D01*
X137469572Y-81667000D01*
X137541000Y-81631286D01*
X137719572Y-81631286D01*
X137826715Y-81667000D01*
X138433858Y-82345571D02*
X138362429Y-82381286D01*
X138219572Y-82381286D01*
X138148143Y-82345571D01*
X138112429Y-82274143D01*
X138112429Y-81988429D01*
X138148143Y-81917000D01*
X138219572Y-81881286D01*
X138362429Y-81881286D01*
X138433858Y-81917000D01*
X138469572Y-81988429D01*
X138469572Y-82059857D01*
X138112429Y-82131286D01*
X139112429Y-81881286D02*
X139112429Y-82488429D01*
X139076715Y-82559857D01*
X139041000Y-82595571D01*
X138969572Y-82631286D01*
X138862429Y-82631286D01*
X138791000Y-82595571D01*
X139112429Y-82345571D02*
X139041000Y-82381286D01*
X138898143Y-82381286D01*
X138826715Y-82345571D01*
X138791000Y-82309857D01*
X138755286Y-82238429D01*
X138755286Y-82024143D01*
X138791000Y-81952714D01*
X138826715Y-81917000D01*
X138898143Y-81881286D01*
X139041000Y-81881286D01*
X139112429Y-81917000D01*
X140041000Y-82381286D02*
X140041000Y-81631286D01*
X140219572Y-81631286D01*
X140326715Y-81667000D01*
X140398143Y-81738429D01*
X140433858Y-81809857D01*
X140469572Y-81952714D01*
X140469572Y-82059857D01*
X140433858Y-82202714D01*
X140398143Y-82274143D01*
X140326715Y-82345571D01*
X140219572Y-82381286D01*
X140041000Y-82381286D01*
X140791000Y-82381286D02*
X140791000Y-81881286D01*
X140791000Y-81631286D02*
X140755286Y-81667000D01*
X140791000Y-81702714D01*
X140826715Y-81667000D01*
X140791000Y-81631286D01*
X140791000Y-81702714D01*
X141112429Y-82345571D02*
X141183858Y-82381286D01*
X141326715Y-82381286D01*
X141398143Y-82345571D01*
X141433858Y-82274143D01*
X141433858Y-82238429D01*
X141398143Y-82167000D01*
X141326715Y-82131286D01*
X141219572Y-82131286D01*
X141148143Y-82095571D01*
X141112429Y-82024143D01*
X141112429Y-81988429D01*
X141148143Y-81917000D01*
X141219572Y-81881286D01*
X141326715Y-81881286D01*
X141398143Y-81917000D01*
X141755286Y-81881286D02*
X141755286Y-82631286D01*
X141755286Y-81917000D02*
X141826715Y-81881286D01*
X141969572Y-81881286D01*
X142041001Y-81917000D01*
X142076715Y-81952714D01*
X142112429Y-82024143D01*
X142112429Y-82238429D01*
X142076715Y-82309857D01*
X142041001Y-82345571D01*
X141969572Y-82381286D01*
X141826715Y-82381286D01*
X141755286Y-82345571D01*
X142541000Y-82381286D02*
X142469572Y-82345571D01*
X142433857Y-82274143D01*
X142433857Y-81631286D01*
X143148143Y-82381286D02*
X143148143Y-81988429D01*
X143112429Y-81917000D01*
X143041000Y-81881286D01*
X142898143Y-81881286D01*
X142826714Y-81917000D01*
X143148143Y-82345571D02*
X143076714Y-82381286D01*
X142898143Y-82381286D01*
X142826714Y-82345571D01*
X142791000Y-82274143D01*
X142791000Y-82202714D01*
X142826714Y-82131286D01*
X142898143Y-82095571D01*
X143076714Y-82095571D01*
X143148143Y-82059857D01*
X143433857Y-81881286D02*
X143612428Y-82381286D01*
X143791000Y-81881286D02*
X143612428Y-82381286D01*
X143541000Y-82559857D01*
X143505285Y-82595571D01*
X143433857Y-82631286D01*
X132435858Y-107781286D02*
X132435858Y-107031286D01*
X132435858Y-107745571D02*
X132364429Y-107781286D01*
X132221572Y-107781286D01*
X132150144Y-107745571D01*
X132114429Y-107709857D01*
X132078715Y-107638429D01*
X132078715Y-107424143D01*
X132114429Y-107352714D01*
X132150144Y-107317000D01*
X132221572Y-107281286D01*
X132364429Y-107281286D01*
X132435858Y-107317000D01*
X133114429Y-107745571D02*
X133043000Y-107781286D01*
X132900143Y-107781286D01*
X132828715Y-107745571D01*
X132793000Y-107709857D01*
X132757286Y-107638429D01*
X132757286Y-107424143D01*
X132793000Y-107352714D01*
X132828715Y-107317000D01*
X132900143Y-107281286D01*
X133043000Y-107281286D01*
X133114429Y-107317000D01*
X133400143Y-107745571D02*
X133471572Y-107781286D01*
X133614429Y-107781286D01*
X133685857Y-107745571D01*
X133721572Y-107674143D01*
X133721572Y-107638429D01*
X133685857Y-107567000D01*
X133614429Y-107531286D01*
X133507286Y-107531286D01*
X133435857Y-107495571D01*
X133400143Y-107424143D01*
X133400143Y-107388429D01*
X133435857Y-107317000D01*
X133507286Y-107281286D01*
X133614429Y-107281286D01*
X133685857Y-107317000D01*
X134364429Y-107281286D02*
X134364429Y-107781286D01*
X134043000Y-107281286D02*
X134043000Y-107674143D01*
X134078715Y-107745571D01*
X134150143Y-107781286D01*
X134257286Y-107781286D01*
X134328715Y-107745571D01*
X134364429Y-107709857D01*
X134721571Y-107281286D02*
X134721571Y-107781286D01*
X134721571Y-107352714D02*
X134757286Y-107317000D01*
X134828714Y-107281286D01*
X134935857Y-107281286D01*
X135007286Y-107317000D01*
X135043000Y-107388429D01*
X135043000Y-107781286D01*
X135507285Y-107352714D02*
X135435857Y-107317000D01*
X135400142Y-107281286D01*
X135364428Y-107209857D01*
X135364428Y-107174143D01*
X135400142Y-107102714D01*
X135435857Y-107067000D01*
X135507285Y-107031286D01*
X135650142Y-107031286D01*
X135721571Y-107067000D01*
X135757285Y-107102714D01*
X135793000Y-107174143D01*
X135793000Y-107209857D01*
X135757285Y-107281286D01*
X135721571Y-107317000D01*
X135650142Y-107352714D01*
X135507285Y-107352714D01*
X135435857Y-107388429D01*
X135400142Y-107424143D01*
X135364428Y-107495571D01*
X135364428Y-107638429D01*
X135400142Y-107709857D01*
X135435857Y-107745571D01*
X135507285Y-107781286D01*
X135650142Y-107781286D01*
X135721571Y-107745571D01*
X135757285Y-107709857D01*
X135793000Y-107638429D01*
X135793000Y-107495571D01*
X135757285Y-107424143D01*
X135721571Y-107388429D01*
X135650142Y-107352714D01*
X136221571Y-107352714D02*
X136150143Y-107317000D01*
X136114428Y-107281286D01*
X136078714Y-107209857D01*
X136078714Y-107174143D01*
X136114428Y-107102714D01*
X136150143Y-107067000D01*
X136221571Y-107031286D01*
X136364428Y-107031286D01*
X136435857Y-107067000D01*
X136471571Y-107102714D01*
X136507286Y-107174143D01*
X136507286Y-107209857D01*
X136471571Y-107281286D01*
X136435857Y-107317000D01*
X136364428Y-107352714D01*
X136221571Y-107352714D01*
X136150143Y-107388429D01*
X136114428Y-107424143D01*
X136078714Y-107495571D01*
X136078714Y-107638429D01*
X136114428Y-107709857D01*
X136150143Y-107745571D01*
X136221571Y-107781286D01*
X136364428Y-107781286D01*
X136435857Y-107745571D01*
X136471571Y-107709857D01*
X136507286Y-107638429D01*
X136507286Y-107495571D01*
X136471571Y-107424143D01*
X136435857Y-107388429D01*
X136364428Y-107352714D01*
X137293000Y-107424143D02*
X137257286Y-107388429D01*
X137185857Y-107352714D01*
X137114429Y-107352714D01*
X137043000Y-107388429D01*
X137007286Y-107424143D01*
X136971572Y-107495571D01*
X136971572Y-107567000D01*
X137007286Y-107638429D01*
X137043000Y-107674143D01*
X137114429Y-107709857D01*
X137185857Y-107709857D01*
X137257286Y-107674143D01*
X137293000Y-107638429D01*
X137293000Y-107352714D02*
X137293000Y-107638429D01*
X137328714Y-107674143D01*
X137364429Y-107674143D01*
X137435857Y-107638429D01*
X137471572Y-107567000D01*
X137471572Y-107388429D01*
X137400143Y-107281286D01*
X137293000Y-107209857D01*
X137150143Y-107174143D01*
X137007286Y-107209857D01*
X136900143Y-107281286D01*
X136828714Y-107388429D01*
X136793000Y-107531286D01*
X136828714Y-107674143D01*
X136900143Y-107781286D01*
X137007286Y-107852714D01*
X137150143Y-107888429D01*
X137293000Y-107852714D01*
X137400143Y-107781286D01*
X138114429Y-107281286D02*
X138114429Y-107888429D01*
X138078715Y-107959857D01*
X138043000Y-107995571D01*
X137971572Y-108031286D01*
X137864429Y-108031286D01*
X137793000Y-107995571D01*
X138114429Y-107745571D02*
X138043000Y-107781286D01*
X137900143Y-107781286D01*
X137828715Y-107745571D01*
X137793000Y-107709857D01*
X137757286Y-107638429D01*
X137757286Y-107424143D01*
X137793000Y-107352714D01*
X137828715Y-107317000D01*
X137900143Y-107281286D01*
X138043000Y-107281286D01*
X138114429Y-107317000D01*
X138471571Y-107781286D02*
X138471571Y-107281286D01*
X138471571Y-107352714D02*
X138507286Y-107317000D01*
X138578714Y-107281286D01*
X138685857Y-107281286D01*
X138757286Y-107317000D01*
X138793000Y-107388429D01*
X138793000Y-107781286D01*
X138793000Y-107388429D02*
X138828714Y-107317000D01*
X138900143Y-107281286D01*
X139007286Y-107281286D01*
X139078714Y-107317000D01*
X139114429Y-107388429D01*
X139114429Y-107781286D01*
X139793000Y-107781286D02*
X139793000Y-107388429D01*
X139757286Y-107317000D01*
X139685857Y-107281286D01*
X139543000Y-107281286D01*
X139471571Y-107317000D01*
X139793000Y-107745571D02*
X139721571Y-107781286D01*
X139543000Y-107781286D01*
X139471571Y-107745571D01*
X139435857Y-107674143D01*
X139435857Y-107602714D01*
X139471571Y-107531286D01*
X139543000Y-107495571D01*
X139721571Y-107495571D01*
X139793000Y-107459857D01*
X140150142Y-107781286D02*
X140150142Y-107281286D01*
X140150142Y-107031286D02*
X140114428Y-107067000D01*
X140150142Y-107102714D01*
X140185857Y-107067000D01*
X140150142Y-107031286D01*
X140150142Y-107102714D01*
X140614428Y-107781286D02*
X140543000Y-107745571D01*
X140507285Y-107674143D01*
X140507285Y-107031286D01*
X140900142Y-107709857D02*
X140935857Y-107745571D01*
X140900142Y-107781286D01*
X140864428Y-107745571D01*
X140900142Y-107709857D01*
X140900142Y-107781286D01*
X141578714Y-107745571D02*
X141507285Y-107781286D01*
X141364428Y-107781286D01*
X141293000Y-107745571D01*
X141257285Y-107709857D01*
X141221571Y-107638429D01*
X141221571Y-107424143D01*
X141257285Y-107352714D01*
X141293000Y-107317000D01*
X141364428Y-107281286D01*
X141507285Y-107281286D01*
X141578714Y-107317000D01*
X142007285Y-107781286D02*
X141935857Y-107745571D01*
X141900142Y-107709857D01*
X141864428Y-107638429D01*
X141864428Y-107424143D01*
X141900142Y-107352714D01*
X141935857Y-107317000D01*
X142007285Y-107281286D01*
X142114428Y-107281286D01*
X142185857Y-107317000D01*
X142221571Y-107352714D01*
X142257285Y-107424143D01*
X142257285Y-107638429D01*
X142221571Y-107709857D01*
X142185857Y-107745571D01*
X142114428Y-107781286D01*
X142007285Y-107781286D01*
X142578713Y-107781286D02*
X142578713Y-107281286D01*
X142578713Y-107352714D02*
X142614428Y-107317000D01*
X142685856Y-107281286D01*
X142792999Y-107281286D01*
X142864428Y-107317000D01*
X142900142Y-107388429D01*
X142900142Y-107781286D01*
X142900142Y-107388429D02*
X142935856Y-107317000D01*
X143007285Y-107281286D01*
X143114428Y-107281286D01*
X143185856Y-107317000D01*
X143221571Y-107388429D01*
X143221571Y-107781286D01*
X154546572Y-93714857D02*
X154632286Y-93743429D01*
X154775143Y-93743429D01*
X154832286Y-93714857D01*
X154860857Y-93686286D01*
X154889429Y-93629143D01*
X154889429Y-93572000D01*
X154860857Y-93514857D01*
X154832286Y-93486286D01*
X154775143Y-93457714D01*
X154660857Y-93429143D01*
X154603715Y-93400571D01*
X154575143Y-93372000D01*
X154546572Y-93314857D01*
X154546572Y-93257714D01*
X154575143Y-93200571D01*
X154603715Y-93172000D01*
X154660857Y-93143429D01*
X154803715Y-93143429D01*
X154889429Y-93172000D01*
X155260858Y-93143429D02*
X155375144Y-93143429D01*
X155432286Y-93172000D01*
X155489429Y-93229143D01*
X155518001Y-93343429D01*
X155518001Y-93543429D01*
X155489429Y-93657714D01*
X155432286Y-93714857D01*
X155375144Y-93743429D01*
X155260858Y-93743429D01*
X155203715Y-93714857D01*
X155146572Y-93657714D01*
X155118001Y-93543429D01*
X155118001Y-93343429D01*
X155146572Y-93229143D01*
X155203715Y-93172000D01*
X155260858Y-93143429D01*
X155775143Y-93143429D02*
X155775143Y-93629143D01*
X155803715Y-93686286D01*
X155832286Y-93714857D01*
X155889429Y-93743429D01*
X156003715Y-93743429D01*
X156060857Y-93714857D01*
X156089429Y-93686286D01*
X156118000Y-93629143D01*
X156118000Y-93143429D01*
X156318000Y-93143429D02*
X156660857Y-93143429D01*
X156489428Y-93743429D02*
X156489428Y-93143429D01*
X155232285Y-85523429D02*
X155432285Y-86123429D01*
X155632285Y-85523429D01*
X155803714Y-85952000D02*
X156089428Y-85952000D01*
X155746571Y-86123429D02*
X155946571Y-85523429D01*
X156146571Y-86123429D01*
X156318000Y-85952000D02*
X156603714Y-85952000D01*
X156260857Y-86123429D02*
X156460857Y-85523429D01*
X156660857Y-86123429D01*
X155060857Y-88063429D02*
X155260857Y-88663429D01*
X155460857Y-88063429D01*
X156003714Y-88606286D02*
X155975143Y-88634857D01*
X155889429Y-88663429D01*
X155832286Y-88663429D01*
X155746571Y-88634857D01*
X155689429Y-88577714D01*
X155660857Y-88520571D01*
X155632286Y-88406286D01*
X155632286Y-88320571D01*
X155660857Y-88206286D01*
X155689429Y-88149143D01*
X155746571Y-88092000D01*
X155832286Y-88063429D01*
X155889429Y-88063429D01*
X155975143Y-88092000D01*
X156003714Y-88120571D01*
X156603714Y-88606286D02*
X156575143Y-88634857D01*
X156489429Y-88663429D01*
X156432286Y-88663429D01*
X156346571Y-88634857D01*
X156289429Y-88577714D01*
X156260857Y-88520571D01*
X156232286Y-88406286D01*
X156232286Y-88320571D01*
X156260857Y-88206286D01*
X156289429Y-88149143D01*
X156346571Y-88092000D01*
X156432286Y-88063429D01*
X156489429Y-88063429D01*
X156575143Y-88092000D01*
X156603714Y-88120571D01*
X132542000Y-91389142D02*
X132513429Y-91446285D01*
X132513429Y-91531999D01*
X132542000Y-91617714D01*
X132599143Y-91674856D01*
X132656286Y-91703428D01*
X132770571Y-91731999D01*
X132856286Y-91731999D01*
X132970571Y-91703428D01*
X133027714Y-91674856D01*
X133084857Y-91617714D01*
X133113429Y-91531999D01*
X133113429Y-91474856D01*
X133084857Y-91389142D01*
X133056286Y-91360571D01*
X132856286Y-91360571D01*
X132856286Y-91474856D01*
X133113429Y-91103428D02*
X132513429Y-91103428D01*
X133113429Y-90760571D01*
X132513429Y-90760571D01*
X133113429Y-90474857D02*
X132513429Y-90474857D01*
X132513429Y-90332000D01*
X132542000Y-90246285D01*
X132599143Y-90189143D01*
X132656286Y-90160571D01*
X132770571Y-90132000D01*
X132856286Y-90132000D01*
X132970571Y-90160571D01*
X133027714Y-90189143D01*
X133084857Y-90246285D01*
X133113429Y-90332000D01*
X133113429Y-90474857D01*
X132448286Y-93714857D02*
X132534000Y-93743429D01*
X132676857Y-93743429D01*
X132734000Y-93714857D01*
X132762571Y-93686286D01*
X132791143Y-93629143D01*
X132791143Y-93572000D01*
X132762571Y-93514857D01*
X132734000Y-93486286D01*
X132676857Y-93457714D01*
X132562571Y-93429143D01*
X132505429Y-93400571D01*
X132476857Y-93372000D01*
X132448286Y-93314857D01*
X132448286Y-93257714D01*
X132476857Y-93200571D01*
X132505429Y-93172000D01*
X132562571Y-93143429D01*
X132705429Y-93143429D01*
X132791143Y-93172000D01*
X133048286Y-93743429D02*
X133048286Y-93143429D01*
X133334000Y-93743429D02*
X133334000Y-93143429D01*
X133676857Y-93743429D01*
X133676857Y-93143429D01*
X132762571Y-96283429D02*
X132476857Y-96283429D01*
X132476857Y-95683429D01*
X132934000Y-96112000D02*
X133219714Y-96112000D01*
X132876857Y-96283429D02*
X133076857Y-95683429D01*
X133276857Y-96283429D01*
X133391143Y-95683429D02*
X133734000Y-95683429D01*
X133562571Y-96283429D02*
X133562571Y-95683429D01*
X132676857Y-98509143D02*
X132762571Y-98537714D01*
X132791143Y-98566286D01*
X132819714Y-98623429D01*
X132819714Y-98709143D01*
X132791143Y-98766286D01*
X132762571Y-98794857D01*
X132705429Y-98823429D01*
X132476857Y-98823429D01*
X132476857Y-98223429D01*
X132676857Y-98223429D01*
X132734000Y-98252000D01*
X132762571Y-98280571D01*
X132791143Y-98337714D01*
X132791143Y-98394857D01*
X132762571Y-98452000D01*
X132734000Y-98480571D01*
X132676857Y-98509143D01*
X132476857Y-98509143D01*
X133362571Y-98823429D02*
X133076857Y-98823429D01*
X133076857Y-98223429D01*
X133534000Y-98652000D02*
X133819714Y-98652000D01*
X133476857Y-98823429D02*
X133676857Y-98223429D01*
X133876857Y-98823429D01*
X134076857Y-98823429D02*
X134076857Y-98223429D01*
X134419714Y-98823429D01*
X134419714Y-98223429D01*
X134705428Y-98823429D02*
X134705428Y-98223429D01*
X135048285Y-98823429D02*
X134791142Y-98480571D01*
X135048285Y-98223429D02*
X134705428Y-98566286D01*
X132448286Y-101334857D02*
X132534000Y-101363429D01*
X132676857Y-101363429D01*
X132734000Y-101334857D01*
X132762571Y-101306286D01*
X132791143Y-101249143D01*
X132791143Y-101192000D01*
X132762571Y-101134857D01*
X132734000Y-101106286D01*
X132676857Y-101077714D01*
X132562571Y-101049143D01*
X132505429Y-101020571D01*
X132476857Y-100992000D01*
X132448286Y-100934857D01*
X132448286Y-100877714D01*
X132476857Y-100820571D01*
X132505429Y-100792000D01*
X132562571Y-100763429D01*
X132705429Y-100763429D01*
X132791143Y-100792000D01*
X133391143Y-101306286D02*
X133362572Y-101334857D01*
X133276858Y-101363429D01*
X133219715Y-101363429D01*
X133134000Y-101334857D01*
X133076858Y-101277714D01*
X133048286Y-101220571D01*
X133019715Y-101106286D01*
X133019715Y-101020571D01*
X133048286Y-100906286D01*
X133076858Y-100849143D01*
X133134000Y-100792000D01*
X133219715Y-100763429D01*
X133276858Y-100763429D01*
X133362572Y-100792000D01*
X133391143Y-100820571D01*
X133934000Y-101363429D02*
X133648286Y-101363429D01*
X133648286Y-100763429D01*
X134134000Y-101363429D02*
X134134000Y-100763429D01*
X134476857Y-101363429D02*
X134219714Y-101020571D01*
X134476857Y-100763429D02*
X134134000Y-101106286D01*
X132791143Y-103332000D02*
X132734000Y-103303429D01*
X132648286Y-103303429D01*
X132562571Y-103332000D01*
X132505429Y-103389143D01*
X132476857Y-103446286D01*
X132448286Y-103560571D01*
X132448286Y-103646286D01*
X132476857Y-103760571D01*
X132505429Y-103817714D01*
X132562571Y-103874857D01*
X132648286Y-103903429D01*
X132705429Y-103903429D01*
X132791143Y-103874857D01*
X132819714Y-103846286D01*
X132819714Y-103646286D01*
X132705429Y-103646286D01*
X133076857Y-103903429D02*
X133076857Y-103303429D01*
X133419714Y-103903429D01*
X133419714Y-103303429D01*
X133705428Y-103903429D02*
X133705428Y-103303429D01*
X133848285Y-103303429D01*
X133934000Y-103332000D01*
X133991142Y-103389143D01*
X134019714Y-103446286D01*
X134048285Y-103560571D01*
X134048285Y-103646286D01*
X134019714Y-103760571D01*
X133991142Y-103817714D01*
X133934000Y-103874857D01*
X133848285Y-103903429D01*
X133705428Y-103903429D01*
X138185000Y-90662000D02*
X138185000Y-88662000D01*
X136135000Y-88662000D02*
X136135000Y-90662000D01*
X144026000Y-89496000D02*
X145026000Y-89496000D01*
X145026000Y-87796000D02*
X144026000Y-87796000D01*
X135391000Y-89392000D02*
X135391000Y-87392000D01*
X133341000Y-87392000D02*
X133341000Y-89392000D01*
X152138000Y-86526000D02*
X151138000Y-86526000D01*
X151138000Y-88226000D02*
X152138000Y-88226000D01*
X154524000Y-91807000D02*
X153324000Y-91807000D01*
X153324000Y-90057000D02*
X154524000Y-90057000D01*
X154778000Y-100697000D02*
X153578000Y-100697000D01*
X153578000Y-98947000D02*
X154778000Y-98947000D01*
X153578000Y-101487000D02*
X154778000Y-101487000D01*
X154778000Y-103237000D02*
X153578000Y-103237000D01*
X131953000Y-87122000D02*
X131953000Y-104902000D01*
X131953000Y-104902000D02*
X126619000Y-104902000D01*
X132233000Y-84302000D02*
X132233000Y-85852000D01*
X131953000Y-87122000D02*
X126619000Y-87122000D01*
X126619000Y-84302000D02*
X132233000Y-84302000D01*
X157099000Y-102362000D02*
X157099000Y-84582000D01*
X157099000Y-84582000D02*
X162433000Y-84582000D01*
X156819000Y-105182000D02*
X156819000Y-103632000D01*
X157099000Y-102362000D02*
X162433000Y-102362000D01*
X162433000Y-105182000D02*
X156819000Y-105182000D01*
X142526000Y-90367000D02*
X142526000Y-90724500D01*
X146526000Y-90367000D02*
X146526000Y-90724500D01*
X146526000Y-99117000D02*
X146526000Y-98759500D01*
X142526000Y-99117000D02*
X142526000Y-98759500D01*
X142526000Y-90367000D02*
X146526000Y-90367000D01*
X142526000Y-99117000D02*
X146526000Y-99117000D01*
X142526000Y-90724500D02*
X141026000Y-90724500D01*
X137517143Y-94146666D02*
X137564762Y-94194285D01*
X137612381Y-94337142D01*
X137612381Y-94432380D01*
X137564762Y-94575238D01*
X137469524Y-94670476D01*
X137374286Y-94718095D01*
X137183810Y-94765714D01*
X137040952Y-94765714D01*
X136850476Y-94718095D01*
X136755238Y-94670476D01*
X136660000Y-94575238D01*
X136612381Y-94432380D01*
X136612381Y-94337142D01*
X136660000Y-94194285D01*
X136707619Y-94146666D01*
X137612381Y-93194285D02*
X137612381Y-93765714D01*
X137612381Y-93480000D02*
X136612381Y-93480000D01*
X136755238Y-93575238D01*
X136850476Y-93670476D01*
X136898095Y-93765714D01*
X144359334Y-87225143D02*
X144311715Y-87272762D01*
X144168858Y-87320381D01*
X144073620Y-87320381D01*
X143930762Y-87272762D01*
X143835524Y-87177524D01*
X143787905Y-87082286D01*
X143740286Y-86891810D01*
X143740286Y-86748952D01*
X143787905Y-86558476D01*
X143835524Y-86463238D01*
X143930762Y-86368000D01*
X144073620Y-86320381D01*
X144168858Y-86320381D01*
X144311715Y-86368000D01*
X144359334Y-86415619D01*
X144740286Y-86415619D02*
X144787905Y-86368000D01*
X144883143Y-86320381D01*
X145121239Y-86320381D01*
X145216477Y-86368000D01*
X145264096Y-86415619D01*
X145311715Y-86510857D01*
X145311715Y-86606095D01*
X145264096Y-86748952D01*
X144692667Y-87320381D01*
X145311715Y-87320381D01*
X134723143Y-92876666D02*
X134770762Y-92924285D01*
X134818381Y-93067142D01*
X134818381Y-93162380D01*
X134770762Y-93305238D01*
X134675524Y-93400476D01*
X134580286Y-93448095D01*
X134389810Y-93495714D01*
X134246952Y-93495714D01*
X134056476Y-93448095D01*
X133961238Y-93400476D01*
X133866000Y-93305238D01*
X133818381Y-93162380D01*
X133818381Y-93067142D01*
X133866000Y-92924285D01*
X133913619Y-92876666D01*
X133818381Y-92543333D02*
X133818381Y-91924285D01*
X134199333Y-92257619D01*
X134199333Y-92114761D01*
X134246952Y-92019523D01*
X134294571Y-91971904D01*
X134389810Y-91924285D01*
X134627905Y-91924285D01*
X134723143Y-91971904D01*
X134770762Y-92019523D01*
X134818381Y-92114761D01*
X134818381Y-92400476D01*
X134770762Y-92495714D01*
X134723143Y-92543333D01*
X147915334Y-87733143D02*
X147867715Y-87780762D01*
X147724858Y-87828381D01*
X147629620Y-87828381D01*
X147486762Y-87780762D01*
X147391524Y-87685524D01*
X147343905Y-87590286D01*
X147296286Y-87399810D01*
X147296286Y-87256952D01*
X147343905Y-87066476D01*
X147391524Y-86971238D01*
X147486762Y-86876000D01*
X147629620Y-86828381D01*
X147724858Y-86828381D01*
X147867715Y-86876000D01*
X147915334Y-86923619D01*
X148772477Y-87161714D02*
X148772477Y-87828381D01*
X148534381Y-86780762D02*
X148296286Y-87495048D01*
X148915334Y-87495048D01*
X152233334Y-93162381D02*
X151900000Y-92686190D01*
X151661905Y-93162381D02*
X151661905Y-92162381D01*
X152042858Y-92162381D01*
X152138096Y-92210000D01*
X152185715Y-92257619D01*
X152233334Y-92352857D01*
X152233334Y-92495714D01*
X152185715Y-92590952D01*
X152138096Y-92638571D01*
X152042858Y-92686190D01*
X151661905Y-92686190D01*
X153185715Y-93162381D02*
X152614286Y-93162381D01*
X152900000Y-93162381D02*
X152900000Y-92162381D01*
X152804762Y-92305238D01*
X152709524Y-92400476D01*
X152614286Y-92448095D01*
X154265334Y-98623381D02*
X153932000Y-98147190D01*
X153693905Y-98623381D02*
X153693905Y-97623381D01*
X154074858Y-97623381D01*
X154170096Y-97671000D01*
X154217715Y-97718619D01*
X154265334Y-97813857D01*
X154265334Y-97956714D01*
X154217715Y-98051952D01*
X154170096Y-98099571D01*
X154074858Y-98147190D01*
X153693905Y-98147190D01*
X154646286Y-97718619D02*
X154693905Y-97671000D01*
X154789143Y-97623381D01*
X155027239Y-97623381D01*
X155122477Y-97671000D01*
X155170096Y-97718619D01*
X155217715Y-97813857D01*
X155217715Y-97909095D01*
X155170096Y-98051952D01*
X154598667Y-98623381D01*
X155217715Y-98623381D01*
X154265334Y-104592381D02*
X153932000Y-104116190D01*
X153693905Y-104592381D02*
X153693905Y-103592381D01*
X154074858Y-103592381D01*
X154170096Y-103640000D01*
X154217715Y-103687619D01*
X154265334Y-103782857D01*
X154265334Y-103925714D01*
X154217715Y-104020952D01*
X154170096Y-104068571D01*
X154074858Y-104116190D01*
X153693905Y-104116190D01*
X154598667Y-103592381D02*
X155217715Y-103592381D01*
X154884381Y-103973333D01*
X155027239Y-103973333D01*
X155122477Y-104020952D01*
X155170096Y-104068571D01*
X155217715Y-104163810D01*
X155217715Y-104401905D01*
X155170096Y-104497143D01*
X155122477Y-104544762D01*
X155027239Y-104592381D01*
X154741524Y-104592381D01*
X154646286Y-104544762D01*
X154598667Y-104497143D01*
X129944905Y-84018381D02*
X129944905Y-83018381D01*
X130325858Y-83018381D01*
X130421096Y-83066000D01*
X130468715Y-83113619D01*
X130516334Y-83208857D01*
X130516334Y-83351714D01*
X130468715Y-83446952D01*
X130421096Y-83494571D01*
X130325858Y-83542190D01*
X129944905Y-83542190D01*
X131468715Y-84018381D02*
X130897286Y-84018381D01*
X131183000Y-84018381D02*
X131183000Y-83018381D01*
X131087762Y-83161238D01*
X130992524Y-83256476D01*
X130897286Y-83304095D01*
X157630905Y-84018381D02*
X157630905Y-83018381D01*
X158011858Y-83018381D01*
X158107096Y-83066000D01*
X158154715Y-83113619D01*
X158202334Y-83208857D01*
X158202334Y-83351714D01*
X158154715Y-83446952D01*
X158107096Y-83494571D01*
X158011858Y-83542190D01*
X157630905Y-83542190D01*
X158583286Y-83113619D02*
X158630905Y-83066000D01*
X158726143Y-83018381D01*
X158964239Y-83018381D01*
X159059477Y-83066000D01*
X159107096Y-83113619D01*
X159154715Y-83208857D01*
X159154715Y-83304095D01*
X159107096Y-83446952D01*
X158535667Y-84018381D01*
X159154715Y-84018381D01*
X139192095Y-91400381D02*
X139192095Y-92209905D01*
X139239714Y-92305143D01*
X139287333Y-92352762D01*
X139382571Y-92400381D01*
X139573048Y-92400381D01*
X139668286Y-92352762D01*
X139715905Y-92305143D01*
X139763524Y-92209905D01*
X139763524Y-91400381D01*
X140763524Y-92400381D02*
X140192095Y-92400381D01*
X140477809Y-92400381D02*
X140477809Y-91400381D01*
X140382571Y-91543238D01*
X140287333Y-91638476D01*
X140192095Y-91686095D01*
%LPC*%
D12*
X137160000Y-87662000D03*
X137160000Y-91662000D03*
D13*
X145776000Y-88646000D03*
X143276000Y-88646000D03*
D12*
X134366000Y-86392000D03*
X134366000Y-90392000D03*
D13*
X150388000Y-87376000D03*
X152888000Y-87376000D03*
D14*
X152574000Y-90932000D03*
X155274000Y-90932000D03*
X152828000Y-99822000D03*
X155528000Y-99822000D03*
X155528000Y-102362000D03*
X152828000Y-102362000D03*
D15*
X154686000Y-105742000D03*
D16*
X152146000Y-105742000D03*
X149606000Y-105742000D03*
X147066000Y-105742000D03*
X144526000Y-105742000D03*
X141986000Y-105742000D03*
X139446000Y-105742000D03*
X136906000Y-105742000D03*
X134366000Y-105742000D03*
X134366000Y-83742000D03*
X136906000Y-83742000D03*
X139446000Y-83742000D03*
X141986000Y-83742000D03*
X144526000Y-83742000D03*
X147066000Y-83742000D03*
X149606000Y-83742000D03*
X152146000Y-83742000D03*
X154686000Y-83742000D03*
D17*
X128651000Y-103632000D03*
X128651000Y-101092000D03*
X128651000Y-98552000D03*
X128651000Y-96012000D03*
X128651000Y-93472000D03*
X128651000Y-90932000D03*
X128651000Y-88392000D03*
D18*
X130683000Y-85852000D03*
X130683000Y-88392000D03*
X130683000Y-90932000D03*
X130683000Y-93472000D03*
X130683000Y-96012000D03*
X130683000Y-98552000D03*
X130683000Y-101092000D03*
X130683000Y-103632000D03*
D17*
X128651000Y-85852000D03*
X160401000Y-85852000D03*
X160401000Y-88392000D03*
X160401000Y-90932000D03*
X160401000Y-93472000D03*
X160401000Y-96012000D03*
X160401000Y-98552000D03*
X160401000Y-101092000D03*
D18*
X158369000Y-103632000D03*
X158369000Y-101092000D03*
X158369000Y-98552000D03*
X158369000Y-96012000D03*
X158369000Y-93472000D03*
X158369000Y-90932000D03*
X158369000Y-88392000D03*
X158369000Y-85852000D03*
D17*
X160401000Y-103632000D03*
D19*
X141826000Y-91249500D03*
X141826000Y-91884500D03*
X141826000Y-92519500D03*
X141826000Y-93154500D03*
X141826000Y-93789500D03*
X141826000Y-94424500D03*
X141826000Y-95059500D03*
X141826000Y-95694500D03*
X141826000Y-96329500D03*
X141826000Y-96964500D03*
X141826000Y-97599500D03*
X141826000Y-98234500D03*
X147226000Y-98234500D03*
X147226000Y-97599500D03*
X147226000Y-96964500D03*
X147226000Y-96329500D03*
X147226000Y-95694500D03*
X147226000Y-95059500D03*
X147226000Y-94424500D03*
X147226000Y-93789500D03*
X147226000Y-93154500D03*
X147226000Y-92519500D03*
X147226000Y-91884500D03*
X147226000Y-91249500D03*
D20*
X151003000Y-89916000D03*
D21*
X151003000Y-99314000D03*
D20*
X145288000Y-101092000D03*
X147193000Y-99568000D03*
X132969000Y-94742000D03*
X158369000Y-107442000D03*
X144526000Y-107442000D03*
X130683000Y-107442000D03*
X130683000Y-82042000D03*
X144526000Y-82042000D03*
X158369000Y-82042000D03*
X141097000Y-88646000D03*
X141097000Y-89916000D03*
X154940000Y-87376000D03*
D21*
X143710052Y-94033948D03*
X149618230Y-93205770D03*
X156210000Y-105409990D03*
X144843520Y-102743000D03*
X141478006Y-100330000D03*
X143764000Y-95249998D03*
X138691052Y-96202480D03*
X137922000Y-99060000D03*
X139319000Y-98933000D03*
X149225000Y-98679000D03*
X152273000Y-98425000D03*
X153162010Y-97409000D03*
X155956000Y-98298000D03*
X155575000Y-96900996D03*
X154715819Y-95855181D03*
X144526000Y-91186000D03*
X145542000Y-90424000D03*
M02*
