G04 #@! TF.FileFunction,Soldermask,Bot*
%FSLAX46Y46*%
G04 Gerber Fmt 4.6, Leading zero omitted, Abs format (unit mm)*
G04 Created by KiCad (PCBNEW (2015-06-05 BZR 5717)-product) date Tue Jul 14 22:13:53 2015*
%MOMM*%
G01*
G04 APERTURE LIST*
%ADD10C,0.100000*%
%ADD11R,1.400000X1.400000*%
%ADD12C,1.400000*%
%ADD13R,2.032000X1.778000*%
%ADD14C,0.889000*%
%ADD15C,1.143000*%
G04 APERTURE END LIST*
D10*
D11*
X154686000Y-105742000D03*
D12*
X152146000Y-105742000D03*
X149606000Y-105742000D03*
X147066000Y-105742000D03*
X144526000Y-105742000D03*
X141986000Y-105742000D03*
X139446000Y-105742000D03*
X136906000Y-105742000D03*
X134366000Y-105742000D03*
X134366000Y-83742000D03*
X136906000Y-83742000D03*
X139446000Y-83742000D03*
X141986000Y-83742000D03*
X144526000Y-83742000D03*
X147066000Y-83742000D03*
X149606000Y-83742000D03*
X152146000Y-83742000D03*
X154686000Y-83742000D03*
D13*
X130683000Y-85852000D03*
X130683000Y-88392000D03*
X130683000Y-90932000D03*
X130683000Y-93472000D03*
X130683000Y-96012000D03*
X130683000Y-98552000D03*
X130683000Y-101092000D03*
X130683000Y-103632000D03*
X158369000Y-103632000D03*
X158369000Y-101092000D03*
X158369000Y-98552000D03*
X158369000Y-96012000D03*
X158369000Y-93472000D03*
X158369000Y-90932000D03*
X158369000Y-88392000D03*
X158369000Y-85852000D03*
D14*
X151003000Y-99314000D03*
D15*
X151003000Y-89916000D03*
X154940000Y-87376000D03*
X145288000Y-101092000D03*
X140589000Y-90170000D03*
X140970000Y-88646000D03*
X158369000Y-82042000D03*
X144526000Y-82042000D03*
X130683000Y-82042000D03*
X130683000Y-107442000D03*
X144526000Y-107442000D03*
X158369000Y-107442000D03*
D14*
X149618230Y-93205770D03*
X143710052Y-94033948D03*
X144843520Y-102743000D03*
X156210000Y-105409990D03*
X143764000Y-95249998D03*
X141478006Y-100330000D03*
X139954000Y-95504000D03*
X137922000Y-99060000D03*
X139954000Y-98806000D03*
X148970996Y-98679000D03*
X152273000Y-98425000D03*
X153162010Y-97409000D03*
X155956000Y-98298000D03*
X155575000Y-96900996D03*
X154715819Y-95855181D03*
X144526000Y-91186000D03*
X145542000Y-90424000D03*
M02*
