G04 #@! TF.GenerationSoftware,KiCad,Pcbnew,(5.1.8)*
G04 #@! TF.CreationDate,2021-04-29T17:53:27-04:00*
G04 #@! TF.ProjectId,disp,64697370-2e6b-4696-9361-645f70636258,rev?*
G04 #@! TF.SameCoordinates,Original*
G04 #@! TF.FileFunction,Copper,L1,Top*
G04 #@! TF.FilePolarity,Positive*
%FSLAX46Y46*%
G04 Gerber Fmt 4.6, Leading zero omitted, Abs format (unit mm)*
G04 Created by KiCad (PCBNEW (5.1.8)) date 2021-04-29 17:53:27*
%MOMM*%
%LPD*%
G01*
G04 APERTURE LIST*
G04 #@! TA.AperFunction,SMDPad,CuDef*
%ADD10R,1.600000X0.400000*%
G04 #@! TD*
G04 #@! TA.AperFunction,ComponentPad*
%ADD11R,1.600000X1.600000*%
G04 #@! TD*
G04 #@! TA.AperFunction,ComponentPad*
%ADD12C,1.600000*%
G04 #@! TD*
G04 #@! TA.AperFunction,SMDPad,CuDef*
%ADD13R,3.302000X1.778000*%
G04 #@! TD*
G04 #@! TA.AperFunction,ComponentPad*
%ADD14R,2.032000X1.778000*%
G04 #@! TD*
G04 #@! TA.AperFunction,SMDPad,CuDef*
%ADD15R,1.600000X1.200000*%
G04 #@! TD*
G04 #@! TA.AperFunction,SMDPad,CuDef*
%ADD16R,1.100000X1.250000*%
G04 #@! TD*
G04 #@! TA.AperFunction,SMDPad,CuDef*
%ADD17R,1.000000X1.300000*%
G04 #@! TD*
G04 #@! TA.AperFunction,ViaPad*
%ADD18C,1.143000*%
G04 #@! TD*
G04 #@! TA.AperFunction,ViaPad*
%ADD19C,0.889000*%
G04 #@! TD*
G04 #@! TA.AperFunction,Conductor*
%ADD20C,1.016000*%
G04 #@! TD*
G04 #@! TA.AperFunction,Conductor*
%ADD21C,0.254000*%
G04 #@! TD*
G04 #@! TA.AperFunction,Conductor*
%ADD22C,1.270000*%
G04 #@! TD*
G04 #@! TA.AperFunction,Conductor*
%ADD23C,0.100000*%
G04 #@! TD*
G04 APERTURE END LIST*
D10*
X142080000Y-95567500D03*
X142080000Y-96202500D03*
X142080000Y-96837500D03*
X142080000Y-97472500D03*
X142080000Y-98107500D03*
X142080000Y-98742500D03*
X142080000Y-99377500D03*
X142080000Y-100012500D03*
X142080000Y-100647500D03*
X142080000Y-101282500D03*
X142080000Y-101917500D03*
X142080000Y-102552500D03*
X147480000Y-102552500D03*
X147480000Y-101917500D03*
X147480000Y-101282500D03*
X147480000Y-100647500D03*
X147480000Y-100012500D03*
X147480000Y-99377500D03*
X147480000Y-98742500D03*
X147480000Y-98107500D03*
X147480000Y-97472500D03*
X147480000Y-96837500D03*
X147480000Y-96202500D03*
X147480000Y-95567500D03*
D11*
X154940000Y-110060000D03*
D12*
X152400000Y-110060000D03*
X149860000Y-110060000D03*
X147320000Y-110060000D03*
X144780000Y-110060000D03*
X142240000Y-110060000D03*
X139700000Y-110060000D03*
X137160000Y-110060000D03*
X134620000Y-110060000D03*
X134620000Y-88060000D03*
X137160000Y-88060000D03*
X139700000Y-88060000D03*
X142240000Y-88060000D03*
X144780000Y-88060000D03*
X147320000Y-88060000D03*
X149860000Y-88060000D03*
X152400000Y-88060000D03*
X154940000Y-88060000D03*
D13*
X129286000Y-107950000D03*
X129286000Y-105410000D03*
X129286000Y-102870000D03*
X129286000Y-100330000D03*
X129286000Y-97790000D03*
X129286000Y-95250000D03*
X129286000Y-92710000D03*
D14*
X130937000Y-90170000D03*
X130937000Y-92710000D03*
X130937000Y-95250000D03*
X130937000Y-97790000D03*
X130937000Y-100330000D03*
X130937000Y-102870000D03*
X130937000Y-105410000D03*
X130937000Y-107950000D03*
D13*
X129286000Y-90170000D03*
X160274000Y-90170000D03*
X160274000Y-92710000D03*
X160274000Y-95250000D03*
X160274000Y-97790000D03*
X160274000Y-100330000D03*
X160274000Y-102870000D03*
X160274000Y-105410000D03*
D14*
X158623000Y-107950000D03*
X158623000Y-105410000D03*
X158623000Y-102870000D03*
X158623000Y-100330000D03*
X158623000Y-97790000D03*
X158623000Y-95250000D03*
X158623000Y-92710000D03*
X158623000Y-90170000D03*
D13*
X160274000Y-107950000D03*
D15*
X137414000Y-92380000D03*
X137414000Y-95580000D03*
D16*
X143730000Y-92964000D03*
X145830000Y-92964000D03*
D15*
X134620000Y-91110000D03*
X134620000Y-94310000D03*
D16*
X152942000Y-91694000D03*
X150842000Y-91694000D03*
D17*
X155278000Y-95250000D03*
X153078000Y-95250000D03*
D18*
X148590000Y-111760000D03*
X140970000Y-111760000D03*
X140970000Y-86360000D03*
X148590000Y-86360000D03*
X141478000Y-92964000D03*
X141478000Y-94234000D03*
X145542000Y-105410000D03*
X147447000Y-103886000D03*
X133223000Y-99060000D03*
X158623000Y-111760000D03*
X130937000Y-111760000D03*
X130937000Y-86360000D03*
X158623000Y-86360000D03*
X155194000Y-91694000D03*
D19*
X150876000Y-97536000D03*
X143964052Y-98351948D03*
X156083000Y-106553000D03*
X145097520Y-107061000D03*
X141732006Y-104648000D03*
X144018000Y-99567998D03*
X138811000Y-100711000D03*
X138176000Y-103378000D03*
X139573000Y-103251000D03*
X149479000Y-102997000D03*
X151130000Y-102362000D03*
X152400000Y-102362000D03*
X155702000Y-103378000D03*
X155575000Y-100965000D03*
X154686000Y-99949000D03*
X144780000Y-95504000D03*
X145796000Y-94742000D03*
D20*
X139770000Y-91440000D02*
X145923000Y-91440000D01*
X145923000Y-91440000D02*
X147574000Y-91440000D01*
X145830000Y-92964000D02*
X145830000Y-91533000D01*
X145830000Y-91533000D02*
X145923000Y-91440000D01*
X137414000Y-92380000D02*
X138830000Y-92380000D01*
X138830000Y-92380000D02*
X139770000Y-91440000D01*
X147574000Y-91440000D02*
X149606000Y-93472000D01*
X149606000Y-93472000D02*
X155702000Y-93472000D01*
X155702000Y-93472000D02*
X156464000Y-92710000D01*
X156464000Y-92710000D02*
X160655000Y-92710000D01*
X145830000Y-92964000D02*
X146812000Y-92964000D01*
X146812000Y-92964000D02*
X147480000Y-93632000D01*
X147480000Y-93632000D02*
X147480000Y-95113500D01*
X128905000Y-92710000D02*
X135890000Y-92710000D01*
X135890000Y-92710000D02*
X136220000Y-92380000D01*
X136220000Y-92380000D02*
X137414000Y-92380000D01*
D21*
X147480000Y-95113500D02*
X147480000Y-95567500D01*
X158623000Y-86360000D02*
X148590000Y-86360000D01*
X141478000Y-92964000D02*
X143730000Y-92964000D01*
X138862000Y-95580000D02*
X137414000Y-95580000D01*
X141478000Y-94234000D02*
X140208000Y-94234000D01*
X140208000Y-94234000D02*
X138862000Y-95580000D01*
X134620000Y-94310000D02*
X133401000Y-94310000D01*
X133401000Y-94310000D02*
X132461000Y-95250000D01*
X132461000Y-95250000D02*
X128905000Y-95250000D01*
X136017000Y-95377000D02*
X136017000Y-94488000D01*
X136017000Y-94488000D02*
X135839000Y-94310000D01*
X135839000Y-94310000D02*
X134620000Y-94310000D01*
X137414000Y-95580000D02*
X136220000Y-95580000D01*
X136220000Y-95580000D02*
X136017000Y-95377000D01*
X143730000Y-92964000D02*
X143730000Y-94014000D01*
X143730000Y-94014000D02*
X143129000Y-94615000D01*
X143129000Y-94615000D02*
X142367000Y-94615000D01*
X142367000Y-94615000D02*
X142080000Y-94902000D01*
X142080000Y-94902000D02*
X142080000Y-95567500D01*
X158623000Y-95250000D02*
X155278000Y-95250000D01*
D20*
X155194000Y-91694000D02*
X152942000Y-91694000D01*
D21*
X151130000Y-111760000D02*
X153670000Y-111760000D01*
X151130000Y-111760000D02*
X151130000Y-109601000D01*
X148590000Y-111760000D02*
X151130000Y-111760000D01*
X148590000Y-111760000D02*
X148590000Y-109601000D01*
X146050000Y-111760000D02*
X148590000Y-111760000D01*
X153670000Y-111760000D02*
X153670000Y-108966000D01*
X135890000Y-111760000D02*
X135890000Y-109601000D01*
X138430000Y-111760000D02*
X138430000Y-109601000D01*
X140970000Y-111760000D02*
X140970000Y-109601000D01*
X143510000Y-111760000D02*
X143510000Y-109601000D01*
X143510000Y-111760000D02*
X146050000Y-111760000D01*
X146050000Y-111760000D02*
X146050000Y-109601000D01*
X147447000Y-103886000D02*
X147574000Y-103759000D01*
D20*
X130937000Y-107950000D02*
X130937000Y-111760000D01*
D21*
X143510000Y-111760000D02*
X140970000Y-111760000D01*
X140970000Y-111760000D02*
X138430000Y-111760000D01*
X138430000Y-111760000D02*
X135890000Y-111760000D01*
X135890000Y-111760000D02*
X130937000Y-111760000D01*
D20*
X158623000Y-111760000D02*
X158623000Y-107950000D01*
X130937000Y-107950000D02*
X128905000Y-107950000D01*
D21*
X158623000Y-95250000D02*
X160655000Y-95250000D01*
D22*
X134620000Y-89916000D02*
X133096000Y-89916000D01*
X133096000Y-89916000D02*
X132842000Y-90170000D01*
X132842000Y-90170000D02*
X130937000Y-90170000D01*
X156210000Y-89916000D02*
X150876000Y-89916000D01*
X150876000Y-89916000D02*
X144780000Y-89916000D01*
D20*
X150842000Y-91694000D02*
X150842000Y-89950000D01*
X150842000Y-89950000D02*
X150876000Y-89916000D01*
D22*
X144780000Y-89916000D02*
X142240000Y-89916000D01*
X142240000Y-89916000D02*
X134620000Y-89916000D01*
D20*
X142240000Y-88060000D02*
X142240000Y-89916000D01*
X144780000Y-88060000D02*
X144780000Y-89916000D01*
X134620000Y-91110000D02*
X134620000Y-89916000D01*
D22*
X158623000Y-90170000D02*
X156464000Y-90170000D01*
X156464000Y-90170000D02*
X156210000Y-89916000D01*
D20*
X144780000Y-88060000D02*
X142240000Y-88060000D01*
D21*
X150876000Y-97536000D02*
X154559000Y-97536000D01*
X154559000Y-97536000D02*
X157353000Y-100330000D01*
X157353000Y-100330000D02*
X158623000Y-100330000D01*
X143134000Y-97472500D02*
X143964052Y-98302552D01*
X143964052Y-98302552D02*
X143964052Y-98351948D01*
X142080000Y-97472500D02*
X143134000Y-97472500D01*
X156083000Y-106553000D02*
X155575000Y-107061000D01*
X155575000Y-107061000D02*
X145097520Y-107061000D01*
X147480000Y-97472500D02*
X149542500Y-97472500D01*
X149542500Y-97472500D02*
X150622000Y-98552000D01*
X154570380Y-98552000D02*
X156718000Y-100699620D01*
X150622000Y-98552000D02*
X154570380Y-98552000D01*
X156718000Y-100699620D02*
X156718000Y-102108000D01*
X156718000Y-102108000D02*
X157480000Y-102870000D01*
X157480000Y-102870000D02*
X158623000Y-102870000D01*
X158623000Y-102870000D02*
X160655000Y-102870000D01*
X158470600Y-102870000D02*
X158623000Y-102870000D01*
X158623000Y-105410000D02*
X160655000Y-105410000D01*
X140144500Y-96837500D02*
X142080000Y-96837500D01*
X136652000Y-98806000D02*
X138176000Y-98806000D01*
X134366000Y-101092000D02*
X136652000Y-98806000D01*
X138176000Y-98806000D02*
X140144500Y-96837500D01*
X134366000Y-104140000D02*
X134366000Y-101092000D01*
X133096000Y-105410000D02*
X134366000Y-104140000D01*
X128905000Y-105410000D02*
X133096000Y-105410000D01*
X143617066Y-96837500D02*
X145288000Y-98508434D01*
X147264626Y-105410000D02*
X158623000Y-105410000D01*
X145288000Y-98508434D02*
X145288000Y-103433374D01*
X142080000Y-96837500D02*
X143617066Y-96837500D01*
X145288000Y-103433374D02*
X147264626Y-105410000D01*
X147480000Y-96837500D02*
X149209758Y-96837500D01*
X149209758Y-96837500D02*
X149352740Y-96694518D01*
X149352740Y-96694518D02*
X154733518Y-96694518D01*
X154733518Y-96694518D02*
X155829000Y-97790000D01*
X155829000Y-97790000D02*
X158623000Y-97790000D01*
X158623000Y-97790000D02*
X160655000Y-97790000D01*
X153078000Y-95250000D02*
X149733000Y-95250000D01*
X147480000Y-96202500D02*
X148780500Y-96202500D01*
X148780500Y-96202500D02*
X149733000Y-95250000D01*
X142080000Y-98107500D02*
X140144500Y-98107500D01*
X140144500Y-98107500D02*
X136144000Y-102108000D01*
X136144000Y-102108000D02*
X136144000Y-105918000D01*
X136144000Y-105918000D02*
X134620000Y-107442000D01*
X134620000Y-107442000D02*
X134620000Y-110060000D01*
X139700000Y-110060000D02*
X139700000Y-106680006D01*
X139700000Y-106680006D02*
X141732006Y-104648000D01*
X143134000Y-98742500D02*
X143959498Y-99567998D01*
X142080000Y-98742500D02*
X143134000Y-98742500D01*
X143959498Y-99567998D02*
X144018000Y-99567998D01*
X138811000Y-100711000D02*
X140144500Y-99377500D01*
X140144500Y-99377500D02*
X142080000Y-99377500D01*
X144780000Y-108331000D02*
X144780000Y-110060000D01*
X144145000Y-107696000D02*
X144780000Y-108331000D01*
X144145000Y-101008566D02*
X144145000Y-107696000D01*
X143148934Y-100012500D02*
X144145000Y-101008566D01*
X142080000Y-100012500D02*
X143148934Y-100012500D01*
X143383000Y-100965000D02*
X143383000Y-105029000D01*
X143065500Y-100647500D02*
X143383000Y-100965000D01*
X142080000Y-100647500D02*
X143065500Y-100647500D01*
X142240000Y-106172000D02*
X142240000Y-110060000D01*
X143383000Y-105029000D02*
X142240000Y-106172000D01*
X137160000Y-110060000D02*
X137160000Y-102870000D01*
X137160000Y-102870000D02*
X138430000Y-101600000D01*
X138430000Y-101600000D02*
X139192000Y-101600000D01*
X139192000Y-101600000D02*
X139509500Y-101282500D01*
X139509500Y-101282500D02*
X142080000Y-101282500D01*
X142080000Y-101917500D02*
X139636500Y-101917500D01*
X139636500Y-101917500D02*
X138176000Y-103378000D01*
X140271500Y-102552500D02*
X139573000Y-103251000D01*
X142080000Y-102552500D02*
X140271500Y-102552500D01*
X147480000Y-102552500D02*
X149034501Y-102552501D01*
X149034501Y-102552501D02*
X149479000Y-102997000D01*
X151130000Y-102362000D02*
X150685500Y-101917500D01*
X150685500Y-101917500D02*
X147480000Y-101917500D01*
X152400000Y-102362000D02*
X151320500Y-101282500D01*
X151320500Y-101282500D02*
X147480000Y-101282500D01*
X155702000Y-103378000D02*
X152971500Y-100647500D01*
X152971500Y-100647500D02*
X147480000Y-100647500D01*
X155575000Y-100965000D02*
X154305000Y-100965000D01*
X154305000Y-100965000D02*
X153352500Y-100012500D01*
X153352500Y-100012500D02*
X147480000Y-100012500D01*
X154686000Y-99949000D02*
X154114500Y-99377500D01*
X154114500Y-99377500D02*
X147480000Y-99377500D01*
X144780000Y-97282000D02*
X144780000Y-95504000D01*
X147480000Y-98742500D02*
X146240500Y-98742500D01*
X146240500Y-98742500D02*
X144780000Y-97282000D01*
X145796000Y-97536000D02*
X145796000Y-94742000D01*
X146367500Y-98107500D02*
X145796000Y-97536000D01*
X147480000Y-98107500D02*
X146367500Y-98107500D01*
X139636500Y-96202500D02*
X142080000Y-96202500D01*
X138049000Y-97790000D02*
X139636500Y-96202500D01*
X128905000Y-97790000D02*
X138049000Y-97790000D01*
X135717050Y-101636926D02*
X135692815Y-101656815D01*
X135613463Y-101753507D01*
X135554498Y-101863821D01*
X135518188Y-101983519D01*
X135509000Y-102076809D01*
X135509000Y-102076819D01*
X135505929Y-102108000D01*
X135509000Y-102139181D01*
X135509001Y-105654973D01*
X134193050Y-106970926D01*
X134168815Y-106990815D01*
X134089463Y-107087507D01*
X134030498Y-107197821D01*
X133994188Y-107317519D01*
X133985000Y-107410809D01*
X133985000Y-107410819D01*
X133981929Y-107442000D01*
X133985000Y-107473181D01*
X133985001Y-108911175D01*
X133786199Y-109044010D01*
X133604010Y-109226199D01*
X133460865Y-109440430D01*
X133362266Y-109678470D01*
X133312000Y-109931173D01*
X133312000Y-110188827D01*
X133362266Y-110441530D01*
X133460865Y-110679570D01*
X133604010Y-110893801D01*
X133786199Y-111075990D01*
X134000430Y-111219135D01*
X134238470Y-111317734D01*
X134491173Y-111368000D01*
X134748827Y-111368000D01*
X135001530Y-111317734D01*
X135239570Y-111219135D01*
X135453801Y-111075990D01*
X135635990Y-110893801D01*
X135779135Y-110679570D01*
X135877734Y-110441530D01*
X135890000Y-110379865D01*
X135902266Y-110441530D01*
X136000865Y-110679570D01*
X136144010Y-110893801D01*
X136326199Y-111075990D01*
X136540430Y-111219135D01*
X136778470Y-111317734D01*
X137031173Y-111368000D01*
X137288827Y-111368000D01*
X137541530Y-111317734D01*
X137779570Y-111219135D01*
X137993801Y-111075990D01*
X138175990Y-110893801D01*
X138319135Y-110679570D01*
X138417734Y-110441530D01*
X138430000Y-110379865D01*
X138442266Y-110441530D01*
X138540865Y-110679570D01*
X138684010Y-110893801D01*
X138866199Y-111075990D01*
X139080430Y-111219135D01*
X139318470Y-111317734D01*
X139571173Y-111368000D01*
X139828827Y-111368000D01*
X140081530Y-111317734D01*
X140319570Y-111219135D01*
X140533801Y-111075990D01*
X140715990Y-110893801D01*
X140859135Y-110679570D01*
X140957734Y-110441530D01*
X140970000Y-110379865D01*
X140982266Y-110441530D01*
X141080865Y-110679570D01*
X141224010Y-110893801D01*
X141406199Y-111075990D01*
X141620430Y-111219135D01*
X141858470Y-111317734D01*
X142111173Y-111368000D01*
X142368827Y-111368000D01*
X142621530Y-111317734D01*
X142859570Y-111219135D01*
X143073801Y-111075990D01*
X143255990Y-110893801D01*
X143399135Y-110679570D01*
X143497734Y-110441530D01*
X143510000Y-110379865D01*
X143522266Y-110441530D01*
X143620865Y-110679570D01*
X143764010Y-110893801D01*
X143946199Y-111075990D01*
X144160430Y-111219135D01*
X144398470Y-111317734D01*
X144651173Y-111368000D01*
X144908827Y-111368000D01*
X145161530Y-111317734D01*
X145399570Y-111219135D01*
X145613801Y-111075990D01*
X145795990Y-110893801D01*
X145939135Y-110679570D01*
X146037734Y-110441530D01*
X146050000Y-110379865D01*
X146062266Y-110441530D01*
X146160865Y-110679570D01*
X146304010Y-110893801D01*
X146486199Y-111075990D01*
X146700430Y-111219135D01*
X146938470Y-111317734D01*
X147191173Y-111368000D01*
X147448827Y-111368000D01*
X147701530Y-111317734D01*
X147939570Y-111219135D01*
X148153801Y-111075990D01*
X148335990Y-110893801D01*
X148479135Y-110679570D01*
X148577734Y-110441530D01*
X148590000Y-110379865D01*
X148602266Y-110441530D01*
X148700865Y-110679570D01*
X148844010Y-110893801D01*
X149026199Y-111075990D01*
X149240430Y-111219135D01*
X149478470Y-111317734D01*
X149731173Y-111368000D01*
X149988827Y-111368000D01*
X150241530Y-111317734D01*
X150479570Y-111219135D01*
X150693801Y-111075990D01*
X150875990Y-110893801D01*
X151019135Y-110679570D01*
X151117734Y-110441530D01*
X151130000Y-110379865D01*
X151142266Y-110441530D01*
X151240865Y-110679570D01*
X151384010Y-110893801D01*
X151566199Y-111075990D01*
X151780430Y-111219135D01*
X152018470Y-111317734D01*
X152271173Y-111368000D01*
X152528827Y-111368000D01*
X152781530Y-111317734D01*
X153019570Y-111219135D01*
X153233801Y-111075990D01*
X153415990Y-110893801D01*
X153559135Y-110679570D01*
X153629543Y-110509589D01*
X153629543Y-110860000D01*
X153639351Y-110959585D01*
X153668399Y-111055343D01*
X153715571Y-111143595D01*
X153779052Y-111220948D01*
X153856405Y-111284429D01*
X153944657Y-111331601D01*
X154040415Y-111360649D01*
X154140000Y-111370457D01*
X155740000Y-111370457D01*
X155839585Y-111360649D01*
X155935343Y-111331601D01*
X156023595Y-111284429D01*
X156100948Y-111220948D01*
X156164429Y-111143595D01*
X156211601Y-111055343D01*
X156240649Y-110959585D01*
X156250457Y-110860000D01*
X156250457Y-109260000D01*
X156240649Y-109160415D01*
X156211601Y-109064657D01*
X156164429Y-108976405D01*
X156100948Y-108899052D01*
X156023595Y-108835571D01*
X155935343Y-108788399D01*
X155839585Y-108759351D01*
X155740000Y-108749543D01*
X154140000Y-108749543D01*
X154040415Y-108759351D01*
X153944657Y-108788399D01*
X153856405Y-108835571D01*
X153779052Y-108899052D01*
X153715571Y-108976405D01*
X153668399Y-109064657D01*
X153639351Y-109160415D01*
X153629543Y-109260000D01*
X153629543Y-109610411D01*
X153559135Y-109440430D01*
X153415990Y-109226199D01*
X153233801Y-109044010D01*
X153019570Y-108900865D01*
X152781530Y-108802266D01*
X152528827Y-108752000D01*
X152271173Y-108752000D01*
X152018470Y-108802266D01*
X151780430Y-108900865D01*
X151566199Y-109044010D01*
X151384010Y-109226199D01*
X151240865Y-109440430D01*
X151142266Y-109678470D01*
X151130000Y-109740135D01*
X151117734Y-109678470D01*
X151019135Y-109440430D01*
X150875990Y-109226199D01*
X150693801Y-109044010D01*
X150479570Y-108900865D01*
X150241530Y-108802266D01*
X149988827Y-108752000D01*
X149731173Y-108752000D01*
X149478470Y-108802266D01*
X149240430Y-108900865D01*
X149026199Y-109044010D01*
X148844010Y-109226199D01*
X148700865Y-109440430D01*
X148602266Y-109678470D01*
X148590000Y-109740135D01*
X148577734Y-109678470D01*
X148479135Y-109440430D01*
X148335990Y-109226199D01*
X148153801Y-109044010D01*
X147939570Y-108900865D01*
X147701530Y-108802266D01*
X147448827Y-108752000D01*
X147191173Y-108752000D01*
X146938470Y-108802266D01*
X146700430Y-108900865D01*
X146486199Y-109044010D01*
X146304010Y-109226199D01*
X146160865Y-109440430D01*
X146062266Y-109678470D01*
X146050000Y-109740135D01*
X146037734Y-109678470D01*
X145939135Y-109440430D01*
X145795990Y-109226199D01*
X145613801Y-109044010D01*
X145415000Y-108911175D01*
X145415000Y-108362189D01*
X145418072Y-108331000D01*
X145413591Y-108285502D01*
X145405812Y-108206518D01*
X145369502Y-108086820D01*
X145350085Y-108050493D01*
X145316955Y-107988512D01*
X145375354Y-107976896D01*
X145548698Y-107905095D01*
X145704704Y-107800855D01*
X145809559Y-107696000D01*
X155543819Y-107696000D01*
X155575000Y-107699071D01*
X155606181Y-107696000D01*
X155606192Y-107696000D01*
X155699482Y-107686812D01*
X155819180Y-107650502D01*
X155929494Y-107591537D01*
X156026185Y-107512185D01*
X156031671Y-107505500D01*
X156176813Y-107505500D01*
X156360834Y-107468896D01*
X156534178Y-107397095D01*
X156690184Y-107292855D01*
X156822855Y-107160184D01*
X156927095Y-107004178D01*
X156998896Y-106830834D01*
X157035500Y-106646813D01*
X157035500Y-106459187D01*
X156998896Y-106275166D01*
X156927095Y-106101822D01*
X156889128Y-106045000D01*
X157096543Y-106045000D01*
X157096543Y-106299000D01*
X157106351Y-106398585D01*
X157135399Y-106494343D01*
X157182571Y-106582595D01*
X157185151Y-106585739D01*
X157155815Y-106609815D01*
X157076463Y-106706506D01*
X157017498Y-106816820D01*
X156981188Y-106936518D01*
X156968928Y-107061000D01*
X156972000Y-107410250D01*
X157130750Y-107569000D01*
X157984928Y-107569000D01*
X157984928Y-108331000D01*
X157130750Y-108331000D01*
X156972000Y-108489750D01*
X156968928Y-108839000D01*
X156981188Y-108963482D01*
X157017498Y-109083180D01*
X157076463Y-109193494D01*
X157155815Y-109290185D01*
X157252506Y-109369537D01*
X157362820Y-109428502D01*
X157482518Y-109464812D01*
X157607000Y-109477072D01*
X158083250Y-109474000D01*
X158224131Y-109333119D01*
X158241998Y-109347782D01*
X158241998Y-109474000D01*
X158591808Y-109474000D01*
X158623000Y-109477072D01*
X161748000Y-109477072D01*
X161748000Y-109700597D01*
X161745301Y-109728000D01*
X161756075Y-109837387D01*
X161787982Y-109942570D01*
X161839796Y-110039508D01*
X161909526Y-110124474D01*
X161994492Y-110194204D01*
X162002000Y-110198217D01*
X162002001Y-113742000D01*
X127558000Y-113742000D01*
X127558000Y-110198217D01*
X127565508Y-110194204D01*
X127650474Y-110124474D01*
X127720204Y-110039508D01*
X127772018Y-109942570D01*
X127803925Y-109837387D01*
X127812000Y-109755403D01*
X127812000Y-109755402D01*
X127814699Y-109728000D01*
X127812000Y-109700597D01*
X127812000Y-109477072D01*
X130937000Y-109477072D01*
X130968192Y-109474000D01*
X131318002Y-109474000D01*
X131318002Y-109347782D01*
X131335869Y-109333119D01*
X131476750Y-109474000D01*
X131953000Y-109477072D01*
X132077482Y-109464812D01*
X132197180Y-109428502D01*
X132307494Y-109369537D01*
X132404185Y-109290185D01*
X132483537Y-109193494D01*
X132542502Y-109083180D01*
X132578812Y-108963482D01*
X132591072Y-108839000D01*
X132588000Y-108489750D01*
X132429250Y-108331000D01*
X131575072Y-108331000D01*
X131575072Y-107569000D01*
X132429250Y-107569000D01*
X132588000Y-107410250D01*
X132591072Y-107061000D01*
X132578812Y-106936518D01*
X132542502Y-106816820D01*
X132483537Y-106706506D01*
X132404185Y-106609815D01*
X132374849Y-106585739D01*
X132377429Y-106582595D01*
X132424601Y-106494343D01*
X132453649Y-106398585D01*
X132463457Y-106299000D01*
X132463457Y-106045000D01*
X133064819Y-106045000D01*
X133096000Y-106048071D01*
X133127181Y-106045000D01*
X133127192Y-106045000D01*
X133220482Y-106035812D01*
X133340180Y-105999502D01*
X133450494Y-105940537D01*
X133547185Y-105861185D01*
X133567074Y-105836950D01*
X134792956Y-104611069D01*
X134817185Y-104591185D01*
X134872716Y-104523520D01*
X134896537Y-104494495D01*
X134955502Y-104384180D01*
X134959753Y-104370166D01*
X134991812Y-104264482D01*
X135001000Y-104171192D01*
X135001000Y-104171182D01*
X135004071Y-104140001D01*
X135001000Y-104108820D01*
X135001000Y-101355024D01*
X136915025Y-99441000D01*
X137912975Y-99441000D01*
X135717050Y-101636926D01*
G04 #@! TA.AperFunction,Conductor*
D23*
G36*
X135717050Y-101636926D02*
G01*
X135692815Y-101656815D01*
X135613463Y-101753507D01*
X135554498Y-101863821D01*
X135518188Y-101983519D01*
X135509000Y-102076809D01*
X135509000Y-102076819D01*
X135505929Y-102108000D01*
X135509000Y-102139181D01*
X135509001Y-105654973D01*
X134193050Y-106970926D01*
X134168815Y-106990815D01*
X134089463Y-107087507D01*
X134030498Y-107197821D01*
X133994188Y-107317519D01*
X133985000Y-107410809D01*
X133985000Y-107410819D01*
X133981929Y-107442000D01*
X133985000Y-107473181D01*
X133985001Y-108911175D01*
X133786199Y-109044010D01*
X133604010Y-109226199D01*
X133460865Y-109440430D01*
X133362266Y-109678470D01*
X133312000Y-109931173D01*
X133312000Y-110188827D01*
X133362266Y-110441530D01*
X133460865Y-110679570D01*
X133604010Y-110893801D01*
X133786199Y-111075990D01*
X134000430Y-111219135D01*
X134238470Y-111317734D01*
X134491173Y-111368000D01*
X134748827Y-111368000D01*
X135001530Y-111317734D01*
X135239570Y-111219135D01*
X135453801Y-111075990D01*
X135635990Y-110893801D01*
X135779135Y-110679570D01*
X135877734Y-110441530D01*
X135890000Y-110379865D01*
X135902266Y-110441530D01*
X136000865Y-110679570D01*
X136144010Y-110893801D01*
X136326199Y-111075990D01*
X136540430Y-111219135D01*
X136778470Y-111317734D01*
X137031173Y-111368000D01*
X137288827Y-111368000D01*
X137541530Y-111317734D01*
X137779570Y-111219135D01*
X137993801Y-111075990D01*
X138175990Y-110893801D01*
X138319135Y-110679570D01*
X138417734Y-110441530D01*
X138430000Y-110379865D01*
X138442266Y-110441530D01*
X138540865Y-110679570D01*
X138684010Y-110893801D01*
X138866199Y-111075990D01*
X139080430Y-111219135D01*
X139318470Y-111317734D01*
X139571173Y-111368000D01*
X139828827Y-111368000D01*
X140081530Y-111317734D01*
X140319570Y-111219135D01*
X140533801Y-111075990D01*
X140715990Y-110893801D01*
X140859135Y-110679570D01*
X140957734Y-110441530D01*
X140970000Y-110379865D01*
X140982266Y-110441530D01*
X141080865Y-110679570D01*
X141224010Y-110893801D01*
X141406199Y-111075990D01*
X141620430Y-111219135D01*
X141858470Y-111317734D01*
X142111173Y-111368000D01*
X142368827Y-111368000D01*
X142621530Y-111317734D01*
X142859570Y-111219135D01*
X143073801Y-111075990D01*
X143255990Y-110893801D01*
X143399135Y-110679570D01*
X143497734Y-110441530D01*
X143510000Y-110379865D01*
X143522266Y-110441530D01*
X143620865Y-110679570D01*
X143764010Y-110893801D01*
X143946199Y-111075990D01*
X144160430Y-111219135D01*
X144398470Y-111317734D01*
X144651173Y-111368000D01*
X144908827Y-111368000D01*
X145161530Y-111317734D01*
X145399570Y-111219135D01*
X145613801Y-111075990D01*
X145795990Y-110893801D01*
X145939135Y-110679570D01*
X146037734Y-110441530D01*
X146050000Y-110379865D01*
X146062266Y-110441530D01*
X146160865Y-110679570D01*
X146304010Y-110893801D01*
X146486199Y-111075990D01*
X146700430Y-111219135D01*
X146938470Y-111317734D01*
X147191173Y-111368000D01*
X147448827Y-111368000D01*
X147701530Y-111317734D01*
X147939570Y-111219135D01*
X148153801Y-111075990D01*
X148335990Y-110893801D01*
X148479135Y-110679570D01*
X148577734Y-110441530D01*
X148590000Y-110379865D01*
X148602266Y-110441530D01*
X148700865Y-110679570D01*
X148844010Y-110893801D01*
X149026199Y-111075990D01*
X149240430Y-111219135D01*
X149478470Y-111317734D01*
X149731173Y-111368000D01*
X149988827Y-111368000D01*
X150241530Y-111317734D01*
X150479570Y-111219135D01*
X150693801Y-111075990D01*
X150875990Y-110893801D01*
X151019135Y-110679570D01*
X151117734Y-110441530D01*
X151130000Y-110379865D01*
X151142266Y-110441530D01*
X151240865Y-110679570D01*
X151384010Y-110893801D01*
X151566199Y-111075990D01*
X151780430Y-111219135D01*
X152018470Y-111317734D01*
X152271173Y-111368000D01*
X152528827Y-111368000D01*
X152781530Y-111317734D01*
X153019570Y-111219135D01*
X153233801Y-111075990D01*
X153415990Y-110893801D01*
X153559135Y-110679570D01*
X153629543Y-110509589D01*
X153629543Y-110860000D01*
X153639351Y-110959585D01*
X153668399Y-111055343D01*
X153715571Y-111143595D01*
X153779052Y-111220948D01*
X153856405Y-111284429D01*
X153944657Y-111331601D01*
X154040415Y-111360649D01*
X154140000Y-111370457D01*
X155740000Y-111370457D01*
X155839585Y-111360649D01*
X155935343Y-111331601D01*
X156023595Y-111284429D01*
X156100948Y-111220948D01*
X156164429Y-111143595D01*
X156211601Y-111055343D01*
X156240649Y-110959585D01*
X156250457Y-110860000D01*
X156250457Y-109260000D01*
X156240649Y-109160415D01*
X156211601Y-109064657D01*
X156164429Y-108976405D01*
X156100948Y-108899052D01*
X156023595Y-108835571D01*
X155935343Y-108788399D01*
X155839585Y-108759351D01*
X155740000Y-108749543D01*
X154140000Y-108749543D01*
X154040415Y-108759351D01*
X153944657Y-108788399D01*
X153856405Y-108835571D01*
X153779052Y-108899052D01*
X153715571Y-108976405D01*
X153668399Y-109064657D01*
X153639351Y-109160415D01*
X153629543Y-109260000D01*
X153629543Y-109610411D01*
X153559135Y-109440430D01*
X153415990Y-109226199D01*
X153233801Y-109044010D01*
X153019570Y-108900865D01*
X152781530Y-108802266D01*
X152528827Y-108752000D01*
X152271173Y-108752000D01*
X152018470Y-108802266D01*
X151780430Y-108900865D01*
X151566199Y-109044010D01*
X151384010Y-109226199D01*
X151240865Y-109440430D01*
X151142266Y-109678470D01*
X151130000Y-109740135D01*
X151117734Y-109678470D01*
X151019135Y-109440430D01*
X150875990Y-109226199D01*
X150693801Y-109044010D01*
X150479570Y-108900865D01*
X150241530Y-108802266D01*
X149988827Y-108752000D01*
X149731173Y-108752000D01*
X149478470Y-108802266D01*
X149240430Y-108900865D01*
X149026199Y-109044010D01*
X148844010Y-109226199D01*
X148700865Y-109440430D01*
X148602266Y-109678470D01*
X148590000Y-109740135D01*
X148577734Y-109678470D01*
X148479135Y-109440430D01*
X148335990Y-109226199D01*
X148153801Y-109044010D01*
X147939570Y-108900865D01*
X147701530Y-108802266D01*
X147448827Y-108752000D01*
X147191173Y-108752000D01*
X146938470Y-108802266D01*
X146700430Y-108900865D01*
X146486199Y-109044010D01*
X146304010Y-109226199D01*
X146160865Y-109440430D01*
X146062266Y-109678470D01*
X146050000Y-109740135D01*
X146037734Y-109678470D01*
X145939135Y-109440430D01*
X145795990Y-109226199D01*
X145613801Y-109044010D01*
X145415000Y-108911175D01*
X145415000Y-108362189D01*
X145418072Y-108331000D01*
X145413591Y-108285502D01*
X145405812Y-108206518D01*
X145369502Y-108086820D01*
X145350085Y-108050493D01*
X145316955Y-107988512D01*
X145375354Y-107976896D01*
X145548698Y-107905095D01*
X145704704Y-107800855D01*
X145809559Y-107696000D01*
X155543819Y-107696000D01*
X155575000Y-107699071D01*
X155606181Y-107696000D01*
X155606192Y-107696000D01*
X155699482Y-107686812D01*
X155819180Y-107650502D01*
X155929494Y-107591537D01*
X156026185Y-107512185D01*
X156031671Y-107505500D01*
X156176813Y-107505500D01*
X156360834Y-107468896D01*
X156534178Y-107397095D01*
X156690184Y-107292855D01*
X156822855Y-107160184D01*
X156927095Y-107004178D01*
X156998896Y-106830834D01*
X157035500Y-106646813D01*
X157035500Y-106459187D01*
X156998896Y-106275166D01*
X156927095Y-106101822D01*
X156889128Y-106045000D01*
X157096543Y-106045000D01*
X157096543Y-106299000D01*
X157106351Y-106398585D01*
X157135399Y-106494343D01*
X157182571Y-106582595D01*
X157185151Y-106585739D01*
X157155815Y-106609815D01*
X157076463Y-106706506D01*
X157017498Y-106816820D01*
X156981188Y-106936518D01*
X156968928Y-107061000D01*
X156972000Y-107410250D01*
X157130750Y-107569000D01*
X157984928Y-107569000D01*
X157984928Y-108331000D01*
X157130750Y-108331000D01*
X156972000Y-108489750D01*
X156968928Y-108839000D01*
X156981188Y-108963482D01*
X157017498Y-109083180D01*
X157076463Y-109193494D01*
X157155815Y-109290185D01*
X157252506Y-109369537D01*
X157362820Y-109428502D01*
X157482518Y-109464812D01*
X157607000Y-109477072D01*
X158083250Y-109474000D01*
X158224131Y-109333119D01*
X158241998Y-109347782D01*
X158241998Y-109474000D01*
X158591808Y-109474000D01*
X158623000Y-109477072D01*
X161748000Y-109477072D01*
X161748000Y-109700597D01*
X161745301Y-109728000D01*
X161756075Y-109837387D01*
X161787982Y-109942570D01*
X161839796Y-110039508D01*
X161909526Y-110124474D01*
X161994492Y-110194204D01*
X162002000Y-110198217D01*
X162002001Y-113742000D01*
X127558000Y-113742000D01*
X127558000Y-110198217D01*
X127565508Y-110194204D01*
X127650474Y-110124474D01*
X127720204Y-110039508D01*
X127772018Y-109942570D01*
X127803925Y-109837387D01*
X127812000Y-109755403D01*
X127812000Y-109755402D01*
X127814699Y-109728000D01*
X127812000Y-109700597D01*
X127812000Y-109477072D01*
X130937000Y-109477072D01*
X130968192Y-109474000D01*
X131318002Y-109474000D01*
X131318002Y-109347782D01*
X131335869Y-109333119D01*
X131476750Y-109474000D01*
X131953000Y-109477072D01*
X132077482Y-109464812D01*
X132197180Y-109428502D01*
X132307494Y-109369537D01*
X132404185Y-109290185D01*
X132483537Y-109193494D01*
X132542502Y-109083180D01*
X132578812Y-108963482D01*
X132591072Y-108839000D01*
X132588000Y-108489750D01*
X132429250Y-108331000D01*
X131575072Y-108331000D01*
X131575072Y-107569000D01*
X132429250Y-107569000D01*
X132588000Y-107410250D01*
X132591072Y-107061000D01*
X132578812Y-106936518D01*
X132542502Y-106816820D01*
X132483537Y-106706506D01*
X132404185Y-106609815D01*
X132374849Y-106585739D01*
X132377429Y-106582595D01*
X132424601Y-106494343D01*
X132453649Y-106398585D01*
X132463457Y-106299000D01*
X132463457Y-106045000D01*
X133064819Y-106045000D01*
X133096000Y-106048071D01*
X133127181Y-106045000D01*
X133127192Y-106045000D01*
X133220482Y-106035812D01*
X133340180Y-105999502D01*
X133450494Y-105940537D01*
X133547185Y-105861185D01*
X133567074Y-105836950D01*
X134792956Y-104611069D01*
X134817185Y-104591185D01*
X134872716Y-104523520D01*
X134896537Y-104494495D01*
X134955502Y-104384180D01*
X134959753Y-104370166D01*
X134991812Y-104264482D01*
X135001000Y-104171192D01*
X135001000Y-104171182D01*
X135004071Y-104140001D01*
X135001000Y-104108820D01*
X135001000Y-101355024D01*
X136915025Y-99441000D01*
X137912975Y-99441000D01*
X135717050Y-101636926D01*
G37*
G04 #@! TD.AperFunction*
D21*
X141813050Y-105700926D02*
X141788815Y-105720815D01*
X141709463Y-105817507D01*
X141650498Y-105927821D01*
X141614188Y-106047519D01*
X141605000Y-106140809D01*
X141605000Y-106140819D01*
X141601929Y-106172000D01*
X141605000Y-106203181D01*
X141605001Y-108911175D01*
X141406199Y-109044010D01*
X141224010Y-109226199D01*
X141080865Y-109440430D01*
X140982266Y-109678470D01*
X140970000Y-109740135D01*
X140957734Y-109678470D01*
X140859135Y-109440430D01*
X140715990Y-109226199D01*
X140533801Y-109044010D01*
X140335000Y-108911175D01*
X140335000Y-106943030D01*
X141677531Y-105600500D01*
X141825819Y-105600500D01*
X141935241Y-105578735D01*
X141813050Y-105700926D01*
G04 #@! TA.AperFunction,Conductor*
D23*
G36*
X141813050Y-105700926D02*
G01*
X141788815Y-105720815D01*
X141709463Y-105817507D01*
X141650498Y-105927821D01*
X141614188Y-106047519D01*
X141605000Y-106140809D01*
X141605000Y-106140819D01*
X141601929Y-106172000D01*
X141605000Y-106203181D01*
X141605001Y-108911175D01*
X141406199Y-109044010D01*
X141224010Y-109226199D01*
X141080865Y-109440430D01*
X140982266Y-109678470D01*
X140970000Y-109740135D01*
X140957734Y-109678470D01*
X140859135Y-109440430D01*
X140715990Y-109226199D01*
X140533801Y-109044010D01*
X140335000Y-108911175D01*
X140335000Y-106943030D01*
X141677531Y-105600500D01*
X141825819Y-105600500D01*
X141935241Y-105578735D01*
X141813050Y-105700926D01*
G37*
G04 #@! TD.AperFunction*
D21*
X143510001Y-107664809D02*
X143506929Y-107696000D01*
X143519189Y-107820481D01*
X143555498Y-107940179D01*
X143574916Y-107976507D01*
X143614464Y-108050494D01*
X143693816Y-108147185D01*
X143718045Y-108167069D01*
X144145000Y-108594026D01*
X144145000Y-108911175D01*
X143946199Y-109044010D01*
X143764010Y-109226199D01*
X143620865Y-109440430D01*
X143522266Y-109678470D01*
X143510000Y-109740135D01*
X143497734Y-109678470D01*
X143399135Y-109440430D01*
X143255990Y-109226199D01*
X143073801Y-109044010D01*
X142875000Y-108911175D01*
X142875000Y-106435024D01*
X143510001Y-105800024D01*
X143510001Y-107664809D01*
G04 #@! TA.AperFunction,Conductor*
D23*
G36*
X143510001Y-107664809D02*
G01*
X143506929Y-107696000D01*
X143519189Y-107820481D01*
X143555498Y-107940179D01*
X143574916Y-107976507D01*
X143614464Y-108050494D01*
X143693816Y-108147185D01*
X143718045Y-108167069D01*
X144145000Y-108594026D01*
X144145000Y-108911175D01*
X143946199Y-109044010D01*
X143764010Y-109226199D01*
X143620865Y-109440430D01*
X143522266Y-109678470D01*
X143510000Y-109740135D01*
X143497734Y-109678470D01*
X143399135Y-109440430D01*
X143255990Y-109226199D01*
X143073801Y-109044010D01*
X142875000Y-108911175D01*
X142875000Y-106435024D01*
X143510001Y-105800024D01*
X143510001Y-107664809D01*
G37*
G04 #@! TD.AperFunction*
D21*
X141084657Y-103224101D02*
X141180415Y-103253149D01*
X141280000Y-103262957D01*
X142748001Y-103262957D01*
X142748001Y-104765974D01*
X142662741Y-104851235D01*
X142684506Y-104741813D01*
X142684506Y-104554187D01*
X142647902Y-104370166D01*
X142576101Y-104196822D01*
X142471861Y-104040816D01*
X142339190Y-103908145D01*
X142183184Y-103803905D01*
X142009840Y-103732104D01*
X141825819Y-103695500D01*
X141638193Y-103695500D01*
X141454172Y-103732104D01*
X141280828Y-103803905D01*
X141124822Y-103908145D01*
X140992151Y-104040816D01*
X140887911Y-104196822D01*
X140816110Y-104370166D01*
X140779506Y-104554187D01*
X140779506Y-104702475D01*
X139273046Y-106208936D01*
X139248816Y-106228821D01*
X139228932Y-106253050D01*
X139169463Y-106325513D01*
X139110498Y-106435827D01*
X139099678Y-106471498D01*
X139074955Y-106553001D01*
X139074189Y-106555525D01*
X139061929Y-106680006D01*
X139065001Y-106711197D01*
X139065000Y-108911175D01*
X138866199Y-109044010D01*
X138684010Y-109226199D01*
X138540865Y-109440430D01*
X138442266Y-109678470D01*
X138430000Y-109740135D01*
X138417734Y-109678470D01*
X138319135Y-109440430D01*
X138175990Y-109226199D01*
X137993801Y-109044010D01*
X137795000Y-108911175D01*
X137795000Y-104251164D01*
X137898166Y-104293896D01*
X138082187Y-104330500D01*
X138269813Y-104330500D01*
X138453834Y-104293896D01*
X138627178Y-104222095D01*
X138783184Y-104117855D01*
X138915855Y-103985184D01*
X138933595Y-103958634D01*
X138965816Y-103990855D01*
X139121822Y-104095095D01*
X139295166Y-104166896D01*
X139479187Y-104203500D01*
X139666813Y-104203500D01*
X139850834Y-104166896D01*
X140024178Y-104095095D01*
X140180184Y-103990855D01*
X140312855Y-103858184D01*
X140417095Y-103702178D01*
X140488896Y-103528834D01*
X140525500Y-103344813D01*
X140525500Y-103196525D01*
X140534525Y-103187500D01*
X141016182Y-103187500D01*
X141084657Y-103224101D01*
G04 #@! TA.AperFunction,Conductor*
D23*
G36*
X141084657Y-103224101D02*
G01*
X141180415Y-103253149D01*
X141280000Y-103262957D01*
X142748001Y-103262957D01*
X142748001Y-104765974D01*
X142662741Y-104851235D01*
X142684506Y-104741813D01*
X142684506Y-104554187D01*
X142647902Y-104370166D01*
X142576101Y-104196822D01*
X142471861Y-104040816D01*
X142339190Y-103908145D01*
X142183184Y-103803905D01*
X142009840Y-103732104D01*
X141825819Y-103695500D01*
X141638193Y-103695500D01*
X141454172Y-103732104D01*
X141280828Y-103803905D01*
X141124822Y-103908145D01*
X140992151Y-104040816D01*
X140887911Y-104196822D01*
X140816110Y-104370166D01*
X140779506Y-104554187D01*
X140779506Y-104702475D01*
X139273046Y-106208936D01*
X139248816Y-106228821D01*
X139228932Y-106253050D01*
X139169463Y-106325513D01*
X139110498Y-106435827D01*
X139099678Y-106471498D01*
X139074955Y-106553001D01*
X139074189Y-106555525D01*
X139061929Y-106680006D01*
X139065001Y-106711197D01*
X139065000Y-108911175D01*
X138866199Y-109044010D01*
X138684010Y-109226199D01*
X138540865Y-109440430D01*
X138442266Y-109678470D01*
X138430000Y-109740135D01*
X138417734Y-109678470D01*
X138319135Y-109440430D01*
X138175990Y-109226199D01*
X137993801Y-109044010D01*
X137795000Y-108911175D01*
X137795000Y-104251164D01*
X137898166Y-104293896D01*
X138082187Y-104330500D01*
X138269813Y-104330500D01*
X138453834Y-104293896D01*
X138627178Y-104222095D01*
X138783184Y-104117855D01*
X138915855Y-103985184D01*
X138933595Y-103958634D01*
X138965816Y-103990855D01*
X139121822Y-104095095D01*
X139295166Y-104166896D01*
X139479187Y-104203500D01*
X139666813Y-104203500D01*
X139850834Y-104166896D01*
X140024178Y-104095095D01*
X140180184Y-103990855D01*
X140312855Y-103858184D01*
X140417095Y-103702178D01*
X140488896Y-103528834D01*
X140525500Y-103344813D01*
X140525500Y-103196525D01*
X140534525Y-103187500D01*
X141016182Y-103187500D01*
X141084657Y-103224101D01*
G37*
G04 #@! TD.AperFunction*
D21*
X136525000Y-108911175D02*
X136326199Y-109044010D01*
X136144010Y-109226199D01*
X136000865Y-109440430D01*
X135902266Y-109678470D01*
X135890000Y-109740135D01*
X135877734Y-109678470D01*
X135779135Y-109440430D01*
X135635990Y-109226199D01*
X135453801Y-109044010D01*
X135255000Y-108911175D01*
X135255000Y-107705024D01*
X136525001Y-106435025D01*
X136525000Y-108911175D01*
G04 #@! TA.AperFunction,Conductor*
D23*
G36*
X136525000Y-108911175D02*
G01*
X136326199Y-109044010D01*
X136144010Y-109226199D01*
X136000865Y-109440430D01*
X135902266Y-109678470D01*
X135890000Y-109740135D01*
X135877734Y-109678470D01*
X135779135Y-109440430D01*
X135635990Y-109226199D01*
X135453801Y-109044010D01*
X135255000Y-108911175D01*
X135255000Y-107705024D01*
X136525001Y-106435025D01*
X136525000Y-108911175D01*
G37*
G04 #@! TD.AperFunction*
D21*
X144836816Y-103884559D02*
X144861046Y-103904444D01*
X146793556Y-105836955D01*
X146813441Y-105861185D01*
X146837669Y-105881068D01*
X146910131Y-105940537D01*
X146926324Y-105949192D01*
X147020446Y-105999502D01*
X147140144Y-106035812D01*
X147233434Y-106045000D01*
X147233444Y-106045000D01*
X147264625Y-106048071D01*
X147295806Y-106045000D01*
X155276872Y-106045000D01*
X155238905Y-106101822D01*
X155167104Y-106275166D01*
X155137101Y-106426000D01*
X145809559Y-106426000D01*
X145704704Y-106321145D01*
X145548698Y-106216905D01*
X145375354Y-106145104D01*
X145191333Y-106108500D01*
X145003707Y-106108500D01*
X144819686Y-106145104D01*
X144780000Y-106161542D01*
X144780000Y-103815328D01*
X144836816Y-103884559D01*
G04 #@! TA.AperFunction,Conductor*
D23*
G36*
X144836816Y-103884559D02*
G01*
X144861046Y-103904444D01*
X146793556Y-105836955D01*
X146813441Y-105861185D01*
X146837669Y-105881068D01*
X146910131Y-105940537D01*
X146926324Y-105949192D01*
X147020446Y-105999502D01*
X147140144Y-106035812D01*
X147233434Y-106045000D01*
X147233444Y-106045000D01*
X147264625Y-106048071D01*
X147295806Y-106045000D01*
X155276872Y-106045000D01*
X155238905Y-106101822D01*
X155167104Y-106275166D01*
X155137101Y-106426000D01*
X145809559Y-106426000D01*
X145704704Y-106321145D01*
X145548698Y-106216905D01*
X145375354Y-106145104D01*
X145191333Y-106108500D01*
X145003707Y-106108500D01*
X144819686Y-106145104D01*
X144780000Y-106161542D01*
X144780000Y-103815328D01*
X144836816Y-103884559D01*
G37*
G04 #@! TD.AperFunction*
D21*
X133939046Y-100620930D02*
X133914816Y-100640815D01*
X133894932Y-100665044D01*
X133835463Y-100737507D01*
X133776498Y-100847821D01*
X133763194Y-100891680D01*
X133740189Y-100967518D01*
X133731001Y-101060808D01*
X133727929Y-101092000D01*
X133731001Y-101123191D01*
X133731000Y-103876975D01*
X132832976Y-104775000D01*
X132463457Y-104775000D01*
X132463457Y-104521000D01*
X132453649Y-104421415D01*
X132424601Y-104325657D01*
X132377429Y-104237405D01*
X132313948Y-104160052D01*
X132289514Y-104140000D01*
X132313948Y-104119948D01*
X132377429Y-104042595D01*
X132424601Y-103954343D01*
X132453649Y-103858585D01*
X132463457Y-103759000D01*
X132463457Y-101981000D01*
X132453649Y-101881415D01*
X132424601Y-101785657D01*
X132377429Y-101697405D01*
X132313948Y-101620052D01*
X132289514Y-101600000D01*
X132313948Y-101579948D01*
X132377429Y-101502595D01*
X132424601Y-101414343D01*
X132453649Y-101318585D01*
X132463457Y-101219000D01*
X132463457Y-99441000D01*
X132453649Y-99341415D01*
X132424601Y-99245657D01*
X132377429Y-99157405D01*
X132313948Y-99080052D01*
X132289514Y-99060000D01*
X132313948Y-99039948D01*
X132377429Y-98962595D01*
X132424601Y-98874343D01*
X132453649Y-98778585D01*
X132463457Y-98679000D01*
X132463457Y-98425000D01*
X136134975Y-98425000D01*
X133939046Y-100620930D01*
G04 #@! TA.AperFunction,Conductor*
D23*
G36*
X133939046Y-100620930D02*
G01*
X133914816Y-100640815D01*
X133894932Y-100665044D01*
X133835463Y-100737507D01*
X133776498Y-100847821D01*
X133763194Y-100891680D01*
X133740189Y-100967518D01*
X133731001Y-101060808D01*
X133727929Y-101092000D01*
X133731001Y-101123191D01*
X133731000Y-103876975D01*
X132832976Y-104775000D01*
X132463457Y-104775000D01*
X132463457Y-104521000D01*
X132453649Y-104421415D01*
X132424601Y-104325657D01*
X132377429Y-104237405D01*
X132313948Y-104160052D01*
X132289514Y-104140000D01*
X132313948Y-104119948D01*
X132377429Y-104042595D01*
X132424601Y-103954343D01*
X132453649Y-103858585D01*
X132463457Y-103759000D01*
X132463457Y-101981000D01*
X132453649Y-101881415D01*
X132424601Y-101785657D01*
X132377429Y-101697405D01*
X132313948Y-101620052D01*
X132289514Y-101600000D01*
X132313948Y-101579948D01*
X132377429Y-101502595D01*
X132424601Y-101414343D01*
X132453649Y-101318585D01*
X132463457Y-101219000D01*
X132463457Y-99441000D01*
X132453649Y-99341415D01*
X132424601Y-99245657D01*
X132377429Y-99157405D01*
X132313948Y-99080052D01*
X132289514Y-99060000D01*
X132313948Y-99039948D01*
X132377429Y-98962595D01*
X132424601Y-98874343D01*
X132453649Y-98778585D01*
X132463457Y-98679000D01*
X132463457Y-98425000D01*
X136134975Y-98425000D01*
X133939046Y-100620930D01*
G37*
G04 #@! TD.AperFunction*
D21*
X145981009Y-99323818D02*
X145996320Y-99332002D01*
X146116018Y-99368312D01*
X146169543Y-99373584D01*
X146169543Y-99577500D01*
X146179351Y-99677085D01*
X146184785Y-99695000D01*
X146179351Y-99712915D01*
X146169543Y-99812500D01*
X146169543Y-100212500D01*
X146179351Y-100312085D01*
X146184785Y-100330000D01*
X146179351Y-100347915D01*
X146169543Y-100447500D01*
X146169543Y-100847500D01*
X146179351Y-100947085D01*
X146184785Y-100965000D01*
X146179351Y-100982915D01*
X146169543Y-101082500D01*
X146169543Y-101482500D01*
X146179351Y-101582085D01*
X146184785Y-101600000D01*
X146179351Y-101617915D01*
X146169543Y-101717500D01*
X146169543Y-102117500D01*
X146179351Y-102217085D01*
X146184785Y-102235000D01*
X146179351Y-102252915D01*
X146169543Y-102352500D01*
X146169543Y-102752500D01*
X146179351Y-102852085D01*
X146208399Y-102947843D01*
X146255571Y-103036095D01*
X146319052Y-103113448D01*
X146396405Y-103176929D01*
X146484657Y-103224101D01*
X146580415Y-103253149D01*
X146680000Y-103262957D01*
X148280000Y-103262957D01*
X148379585Y-103253149D01*
X148475343Y-103224101D01*
X148543818Y-103187500D01*
X148545732Y-103187500D01*
X148563104Y-103274834D01*
X148634905Y-103448178D01*
X148739145Y-103604184D01*
X148871816Y-103736855D01*
X149027822Y-103841095D01*
X149201166Y-103912896D01*
X149385187Y-103949500D01*
X149572813Y-103949500D01*
X149756834Y-103912896D01*
X149930178Y-103841095D01*
X150086184Y-103736855D01*
X150218855Y-103604184D01*
X150323095Y-103448178D01*
X150394896Y-103274834D01*
X150431500Y-103090813D01*
X150431500Y-103010539D01*
X150522816Y-103101855D01*
X150678822Y-103206095D01*
X150852166Y-103277896D01*
X151036187Y-103314500D01*
X151223813Y-103314500D01*
X151407834Y-103277896D01*
X151581178Y-103206095D01*
X151737184Y-103101855D01*
X151765000Y-103074039D01*
X151792816Y-103101855D01*
X151948822Y-103206095D01*
X152122166Y-103277896D01*
X152306187Y-103314500D01*
X152493813Y-103314500D01*
X152677834Y-103277896D01*
X152851178Y-103206095D01*
X153007184Y-103101855D01*
X153139855Y-102969184D01*
X153244095Y-102813178D01*
X153315896Y-102639834D01*
X153352500Y-102455813D01*
X153352500Y-102268187D01*
X153315896Y-102084166D01*
X153244095Y-101910822D01*
X153139855Y-101754816D01*
X153007184Y-101622145D01*
X152851178Y-101517905D01*
X152677834Y-101446104D01*
X152493813Y-101409500D01*
X152345525Y-101409500D01*
X152218525Y-101282500D01*
X152708476Y-101282500D01*
X154749500Y-103323525D01*
X154749500Y-103471813D01*
X154786104Y-103655834D01*
X154857905Y-103829178D01*
X154962145Y-103985184D01*
X155094816Y-104117855D01*
X155250822Y-104222095D01*
X155424166Y-104293896D01*
X155608187Y-104330500D01*
X155795813Y-104330500D01*
X155979834Y-104293896D01*
X156153178Y-104222095D01*
X156309184Y-104117855D01*
X156441855Y-103985184D01*
X156546095Y-103829178D01*
X156617896Y-103655834D01*
X156654500Y-103471813D01*
X156654500Y-103284187D01*
X156617896Y-103100166D01*
X156546095Y-102926822D01*
X156441855Y-102770816D01*
X156309184Y-102638145D01*
X156153178Y-102533905D01*
X155979834Y-102462104D01*
X155795813Y-102425500D01*
X155647525Y-102425500D01*
X154822025Y-101600000D01*
X154862961Y-101600000D01*
X154967816Y-101704855D01*
X155123822Y-101809095D01*
X155297166Y-101880896D01*
X155481187Y-101917500D01*
X155668813Y-101917500D01*
X155852834Y-101880896D01*
X156026178Y-101809095D01*
X156083001Y-101771127D01*
X156083001Y-102076808D01*
X156079929Y-102108000D01*
X156083001Y-102139191D01*
X156083001Y-102139192D01*
X156092189Y-102232482D01*
X156103020Y-102268187D01*
X156128498Y-102352179D01*
X156187463Y-102462493D01*
X156218612Y-102500448D01*
X156266816Y-102559185D01*
X156291044Y-102579068D01*
X157008934Y-103296960D01*
X157028815Y-103321185D01*
X157053039Y-103341065D01*
X157053043Y-103341069D01*
X157096543Y-103376769D01*
X157096543Y-103759000D01*
X157106351Y-103858585D01*
X157135399Y-103954343D01*
X157182571Y-104042595D01*
X157246052Y-104119948D01*
X157270486Y-104140000D01*
X157246052Y-104160052D01*
X157182571Y-104237405D01*
X157135399Y-104325657D01*
X157106351Y-104421415D01*
X157096543Y-104521000D01*
X157096543Y-104775000D01*
X147527651Y-104775000D01*
X145923000Y-103170350D01*
X145923000Y-99292812D01*
X145981009Y-99323818D01*
G04 #@! TA.AperFunction,Conductor*
D23*
G36*
X145981009Y-99323818D02*
G01*
X145996320Y-99332002D01*
X146116018Y-99368312D01*
X146169543Y-99373584D01*
X146169543Y-99577500D01*
X146179351Y-99677085D01*
X146184785Y-99695000D01*
X146179351Y-99712915D01*
X146169543Y-99812500D01*
X146169543Y-100212500D01*
X146179351Y-100312085D01*
X146184785Y-100330000D01*
X146179351Y-100347915D01*
X146169543Y-100447500D01*
X146169543Y-100847500D01*
X146179351Y-100947085D01*
X146184785Y-100965000D01*
X146179351Y-100982915D01*
X146169543Y-101082500D01*
X146169543Y-101482500D01*
X146179351Y-101582085D01*
X146184785Y-101600000D01*
X146179351Y-101617915D01*
X146169543Y-101717500D01*
X146169543Y-102117500D01*
X146179351Y-102217085D01*
X146184785Y-102235000D01*
X146179351Y-102252915D01*
X146169543Y-102352500D01*
X146169543Y-102752500D01*
X146179351Y-102852085D01*
X146208399Y-102947843D01*
X146255571Y-103036095D01*
X146319052Y-103113448D01*
X146396405Y-103176929D01*
X146484657Y-103224101D01*
X146580415Y-103253149D01*
X146680000Y-103262957D01*
X148280000Y-103262957D01*
X148379585Y-103253149D01*
X148475343Y-103224101D01*
X148543818Y-103187500D01*
X148545732Y-103187500D01*
X148563104Y-103274834D01*
X148634905Y-103448178D01*
X148739145Y-103604184D01*
X148871816Y-103736855D01*
X149027822Y-103841095D01*
X149201166Y-103912896D01*
X149385187Y-103949500D01*
X149572813Y-103949500D01*
X149756834Y-103912896D01*
X149930178Y-103841095D01*
X150086184Y-103736855D01*
X150218855Y-103604184D01*
X150323095Y-103448178D01*
X150394896Y-103274834D01*
X150431500Y-103090813D01*
X150431500Y-103010539D01*
X150522816Y-103101855D01*
X150678822Y-103206095D01*
X150852166Y-103277896D01*
X151036187Y-103314500D01*
X151223813Y-103314500D01*
X151407834Y-103277896D01*
X151581178Y-103206095D01*
X151737184Y-103101855D01*
X151765000Y-103074039D01*
X151792816Y-103101855D01*
X151948822Y-103206095D01*
X152122166Y-103277896D01*
X152306187Y-103314500D01*
X152493813Y-103314500D01*
X152677834Y-103277896D01*
X152851178Y-103206095D01*
X153007184Y-103101855D01*
X153139855Y-102969184D01*
X153244095Y-102813178D01*
X153315896Y-102639834D01*
X153352500Y-102455813D01*
X153352500Y-102268187D01*
X153315896Y-102084166D01*
X153244095Y-101910822D01*
X153139855Y-101754816D01*
X153007184Y-101622145D01*
X152851178Y-101517905D01*
X152677834Y-101446104D01*
X152493813Y-101409500D01*
X152345525Y-101409500D01*
X152218525Y-101282500D01*
X152708476Y-101282500D01*
X154749500Y-103323525D01*
X154749500Y-103471813D01*
X154786104Y-103655834D01*
X154857905Y-103829178D01*
X154962145Y-103985184D01*
X155094816Y-104117855D01*
X155250822Y-104222095D01*
X155424166Y-104293896D01*
X155608187Y-104330500D01*
X155795813Y-104330500D01*
X155979834Y-104293896D01*
X156153178Y-104222095D01*
X156309184Y-104117855D01*
X156441855Y-103985184D01*
X156546095Y-103829178D01*
X156617896Y-103655834D01*
X156654500Y-103471813D01*
X156654500Y-103284187D01*
X156617896Y-103100166D01*
X156546095Y-102926822D01*
X156441855Y-102770816D01*
X156309184Y-102638145D01*
X156153178Y-102533905D01*
X155979834Y-102462104D01*
X155795813Y-102425500D01*
X155647525Y-102425500D01*
X154822025Y-101600000D01*
X154862961Y-101600000D01*
X154967816Y-101704855D01*
X155123822Y-101809095D01*
X155297166Y-101880896D01*
X155481187Y-101917500D01*
X155668813Y-101917500D01*
X155852834Y-101880896D01*
X156026178Y-101809095D01*
X156083001Y-101771127D01*
X156083001Y-102076808D01*
X156079929Y-102108000D01*
X156083001Y-102139191D01*
X156083001Y-102139192D01*
X156092189Y-102232482D01*
X156103020Y-102268187D01*
X156128498Y-102352179D01*
X156187463Y-102462493D01*
X156218612Y-102500448D01*
X156266816Y-102559185D01*
X156291044Y-102579068D01*
X157008934Y-103296960D01*
X157028815Y-103321185D01*
X157053039Y-103341065D01*
X157053043Y-103341069D01*
X157096543Y-103376769D01*
X157096543Y-103759000D01*
X157106351Y-103858585D01*
X157135399Y-103954343D01*
X157182571Y-104042595D01*
X157246052Y-104119948D01*
X157270486Y-104140000D01*
X157246052Y-104160052D01*
X157182571Y-104237405D01*
X157135399Y-104325657D01*
X157106351Y-104421415D01*
X157096543Y-104521000D01*
X157096543Y-104775000D01*
X147527651Y-104775000D01*
X145923000Y-103170350D01*
X145923000Y-99292812D01*
X145981009Y-99323818D01*
G37*
G04 #@! TD.AperFunction*
D21*
X142703750Y-92583000D02*
X143349000Y-92583000D01*
X143349000Y-92563000D01*
X144111000Y-92563000D01*
X144111000Y-92583000D01*
X144131000Y-92583000D01*
X144131000Y-93345000D01*
X144111000Y-93345000D01*
X144111000Y-94065250D01*
X144269750Y-94224000D01*
X144280000Y-94227072D01*
X144404482Y-94214812D01*
X144524180Y-94178502D01*
X144634494Y-94119537D01*
X144731185Y-94040185D01*
X144810537Y-93943494D01*
X144852002Y-93865919D01*
X144855571Y-93872595D01*
X144919052Y-93949948D01*
X144996405Y-94013429D01*
X145084657Y-94060601D01*
X145119723Y-94071238D01*
X145056145Y-94134816D01*
X144951905Y-94290822D01*
X144880104Y-94464166D01*
X144862732Y-94551500D01*
X144686187Y-94551500D01*
X144502166Y-94588104D01*
X144328822Y-94659905D01*
X144172816Y-94764145D01*
X144040145Y-94896816D01*
X143935905Y-95052822D01*
X143864104Y-95226166D01*
X143827500Y-95410187D01*
X143827500Y-95597813D01*
X143864104Y-95781834D01*
X143935905Y-95955178D01*
X144040145Y-96111184D01*
X144145001Y-96216040D01*
X144145000Y-96467410D01*
X144088140Y-96410550D01*
X144068251Y-96386315D01*
X143971560Y-96306963D01*
X143861246Y-96247998D01*
X143741548Y-96211688D01*
X143648258Y-96202500D01*
X143648247Y-96202500D01*
X143617066Y-96199429D01*
X143585885Y-96202500D01*
X143390457Y-96202500D01*
X143390457Y-96002500D01*
X143380649Y-95902915D01*
X143351601Y-95807157D01*
X143304429Y-95718905D01*
X143240948Y-95641552D01*
X143163595Y-95578071D01*
X143075343Y-95530899D01*
X142979585Y-95501851D01*
X142880000Y-95492043D01*
X141280000Y-95492043D01*
X141180415Y-95501851D01*
X141084657Y-95530899D01*
X141016182Y-95567500D01*
X139667680Y-95567500D01*
X139636499Y-95564429D01*
X139605318Y-95567500D01*
X139605308Y-95567500D01*
X139512018Y-95576688D01*
X139392320Y-95612998D01*
X139282006Y-95671963D01*
X139185315Y-95751315D01*
X139165431Y-95775544D01*
X138720469Y-96220507D01*
X138724458Y-96180000D01*
X138722000Y-96088000D01*
X138595000Y-95961000D01*
X137795000Y-95961000D01*
X137795000Y-96561000D01*
X137922000Y-96688000D01*
X138214000Y-96690458D01*
X138254507Y-96686469D01*
X137785976Y-97155000D01*
X132463457Y-97155000D01*
X132463457Y-96901000D01*
X132453649Y-96801415D01*
X132424601Y-96705657D01*
X132377429Y-96617405D01*
X132374849Y-96614261D01*
X132404185Y-96590185D01*
X132483537Y-96493494D01*
X132542502Y-96383180D01*
X132578812Y-96263482D01*
X132587033Y-96180000D01*
X136103542Y-96180000D01*
X136113350Y-96279585D01*
X136142398Y-96375344D01*
X136189570Y-96463595D01*
X136253052Y-96540948D01*
X136330405Y-96604430D01*
X136418656Y-96651602D01*
X136514415Y-96680650D01*
X136614000Y-96690458D01*
X136906000Y-96688000D01*
X137033000Y-96561000D01*
X137033000Y-95961000D01*
X136233000Y-95961000D01*
X136106000Y-96088000D01*
X136103542Y-96180000D01*
X132587033Y-96180000D01*
X132591072Y-96139000D01*
X132588000Y-95789750D01*
X132429250Y-95631000D01*
X131572485Y-95631000D01*
X131572000Y-95535750D01*
X131413250Y-95377000D01*
X129413000Y-95377000D01*
X129413000Y-95397000D01*
X129159000Y-95397000D01*
X129159000Y-95377000D01*
X129139000Y-95377000D01*
X129139000Y-95123000D01*
X129159000Y-95123000D01*
X129159000Y-95103000D01*
X129413000Y-95103000D01*
X129413000Y-95123000D01*
X131413250Y-95123000D01*
X131572000Y-94964250D01*
X131572276Y-94910000D01*
X133309542Y-94910000D01*
X133319350Y-95009585D01*
X133348398Y-95105344D01*
X133395570Y-95193595D01*
X133459052Y-95270948D01*
X133536405Y-95334430D01*
X133624656Y-95381602D01*
X133720415Y-95410650D01*
X133820000Y-95420458D01*
X134112000Y-95418000D01*
X134239000Y-95291000D01*
X134239000Y-94691000D01*
X135001000Y-94691000D01*
X135001000Y-95291000D01*
X135128000Y-95418000D01*
X135420000Y-95420458D01*
X135519585Y-95410650D01*
X135615344Y-95381602D01*
X135703595Y-95334430D01*
X135780948Y-95270948D01*
X135844430Y-95193595D01*
X135891602Y-95105344D01*
X135920650Y-95009585D01*
X135923563Y-94980000D01*
X136103542Y-94980000D01*
X136106000Y-95072000D01*
X136233000Y-95199000D01*
X137033000Y-95199000D01*
X137033000Y-94599000D01*
X137795000Y-94599000D01*
X137795000Y-95199000D01*
X138595000Y-95199000D01*
X138722000Y-95072000D01*
X138724458Y-94980000D01*
X138714650Y-94880415D01*
X138685602Y-94784656D01*
X138638430Y-94696405D01*
X138574948Y-94619052D01*
X138497595Y-94555570D01*
X138409344Y-94508398D01*
X138313585Y-94479350D01*
X138214000Y-94469542D01*
X137922000Y-94472000D01*
X137795000Y-94599000D01*
X137033000Y-94599000D01*
X136906000Y-94472000D01*
X136614000Y-94469542D01*
X136514415Y-94479350D01*
X136418656Y-94508398D01*
X136330405Y-94555570D01*
X136253052Y-94619052D01*
X136189570Y-94696405D01*
X136142398Y-94784656D01*
X136113350Y-94880415D01*
X136103542Y-94980000D01*
X135923563Y-94980000D01*
X135930458Y-94910000D01*
X135928000Y-94818000D01*
X135801000Y-94691000D01*
X135001000Y-94691000D01*
X134239000Y-94691000D01*
X133439000Y-94691000D01*
X133312000Y-94818000D01*
X133309542Y-94910000D01*
X131572276Y-94910000D01*
X131572485Y-94869000D01*
X132429250Y-94869000D01*
X132588000Y-94710250D01*
X132591072Y-94361000D01*
X132578812Y-94236518D01*
X132542502Y-94116820D01*
X132483537Y-94006506D01*
X132404185Y-93909815D01*
X132374849Y-93885739D01*
X132377429Y-93882595D01*
X132424601Y-93794343D01*
X132445333Y-93726000D01*
X133309969Y-93726000D01*
X133312000Y-93802000D01*
X133439000Y-93929000D01*
X134239000Y-93929000D01*
X134239000Y-93909000D01*
X135001000Y-93909000D01*
X135001000Y-93929000D01*
X135801000Y-93929000D01*
X135928000Y-93802000D01*
X135930004Y-93726975D01*
X135939902Y-93726000D01*
X136089171Y-93711298D01*
X136280687Y-93653202D01*
X136400801Y-93589000D01*
X142541928Y-93589000D01*
X142554188Y-93713482D01*
X142590498Y-93833180D01*
X142649463Y-93943494D01*
X142728815Y-94040185D01*
X142825506Y-94119537D01*
X142935820Y-94178502D01*
X143055518Y-94214812D01*
X143180000Y-94227072D01*
X143190250Y-94224000D01*
X143349000Y-94065250D01*
X143349000Y-93345000D01*
X142703750Y-93345000D01*
X142545000Y-93503750D01*
X142541928Y-93589000D01*
X136400801Y-93589000D01*
X136457190Y-93558860D01*
X136548411Y-93483997D01*
X136614000Y-93490457D01*
X138214000Y-93490457D01*
X138313585Y-93480649D01*
X138409343Y-93451601D01*
X138497595Y-93404429D01*
X138507866Y-93396000D01*
X138780098Y-93396000D01*
X138830000Y-93400915D01*
X138879902Y-93396000D01*
X139029171Y-93381298D01*
X139220687Y-93323202D01*
X139397190Y-93228860D01*
X139551896Y-93101896D01*
X139583712Y-93063128D01*
X140190841Y-92456000D01*
X142576750Y-92456000D01*
X142703750Y-92583000D01*
G04 #@! TA.AperFunction,Conductor*
D23*
G36*
X142703750Y-92583000D02*
G01*
X143349000Y-92583000D01*
X143349000Y-92563000D01*
X144111000Y-92563000D01*
X144111000Y-92583000D01*
X144131000Y-92583000D01*
X144131000Y-93345000D01*
X144111000Y-93345000D01*
X144111000Y-94065250D01*
X144269750Y-94224000D01*
X144280000Y-94227072D01*
X144404482Y-94214812D01*
X144524180Y-94178502D01*
X144634494Y-94119537D01*
X144731185Y-94040185D01*
X144810537Y-93943494D01*
X144852002Y-93865919D01*
X144855571Y-93872595D01*
X144919052Y-93949948D01*
X144996405Y-94013429D01*
X145084657Y-94060601D01*
X145119723Y-94071238D01*
X145056145Y-94134816D01*
X144951905Y-94290822D01*
X144880104Y-94464166D01*
X144862732Y-94551500D01*
X144686187Y-94551500D01*
X144502166Y-94588104D01*
X144328822Y-94659905D01*
X144172816Y-94764145D01*
X144040145Y-94896816D01*
X143935905Y-95052822D01*
X143864104Y-95226166D01*
X143827500Y-95410187D01*
X143827500Y-95597813D01*
X143864104Y-95781834D01*
X143935905Y-95955178D01*
X144040145Y-96111184D01*
X144145001Y-96216040D01*
X144145000Y-96467410D01*
X144088140Y-96410550D01*
X144068251Y-96386315D01*
X143971560Y-96306963D01*
X143861246Y-96247998D01*
X143741548Y-96211688D01*
X143648258Y-96202500D01*
X143648247Y-96202500D01*
X143617066Y-96199429D01*
X143585885Y-96202500D01*
X143390457Y-96202500D01*
X143390457Y-96002500D01*
X143380649Y-95902915D01*
X143351601Y-95807157D01*
X143304429Y-95718905D01*
X143240948Y-95641552D01*
X143163595Y-95578071D01*
X143075343Y-95530899D01*
X142979585Y-95501851D01*
X142880000Y-95492043D01*
X141280000Y-95492043D01*
X141180415Y-95501851D01*
X141084657Y-95530899D01*
X141016182Y-95567500D01*
X139667680Y-95567500D01*
X139636499Y-95564429D01*
X139605318Y-95567500D01*
X139605308Y-95567500D01*
X139512018Y-95576688D01*
X139392320Y-95612998D01*
X139282006Y-95671963D01*
X139185315Y-95751315D01*
X139165431Y-95775544D01*
X138720469Y-96220507D01*
X138724458Y-96180000D01*
X138722000Y-96088000D01*
X138595000Y-95961000D01*
X137795000Y-95961000D01*
X137795000Y-96561000D01*
X137922000Y-96688000D01*
X138214000Y-96690458D01*
X138254507Y-96686469D01*
X137785976Y-97155000D01*
X132463457Y-97155000D01*
X132463457Y-96901000D01*
X132453649Y-96801415D01*
X132424601Y-96705657D01*
X132377429Y-96617405D01*
X132374849Y-96614261D01*
X132404185Y-96590185D01*
X132483537Y-96493494D01*
X132542502Y-96383180D01*
X132578812Y-96263482D01*
X132587033Y-96180000D01*
X136103542Y-96180000D01*
X136113350Y-96279585D01*
X136142398Y-96375344D01*
X136189570Y-96463595D01*
X136253052Y-96540948D01*
X136330405Y-96604430D01*
X136418656Y-96651602D01*
X136514415Y-96680650D01*
X136614000Y-96690458D01*
X136906000Y-96688000D01*
X137033000Y-96561000D01*
X137033000Y-95961000D01*
X136233000Y-95961000D01*
X136106000Y-96088000D01*
X136103542Y-96180000D01*
X132587033Y-96180000D01*
X132591072Y-96139000D01*
X132588000Y-95789750D01*
X132429250Y-95631000D01*
X131572485Y-95631000D01*
X131572000Y-95535750D01*
X131413250Y-95377000D01*
X129413000Y-95377000D01*
X129413000Y-95397000D01*
X129159000Y-95397000D01*
X129159000Y-95377000D01*
X129139000Y-95377000D01*
X129139000Y-95123000D01*
X129159000Y-95123000D01*
X129159000Y-95103000D01*
X129413000Y-95103000D01*
X129413000Y-95123000D01*
X131413250Y-95123000D01*
X131572000Y-94964250D01*
X131572276Y-94910000D01*
X133309542Y-94910000D01*
X133319350Y-95009585D01*
X133348398Y-95105344D01*
X133395570Y-95193595D01*
X133459052Y-95270948D01*
X133536405Y-95334430D01*
X133624656Y-95381602D01*
X133720415Y-95410650D01*
X133820000Y-95420458D01*
X134112000Y-95418000D01*
X134239000Y-95291000D01*
X134239000Y-94691000D01*
X135001000Y-94691000D01*
X135001000Y-95291000D01*
X135128000Y-95418000D01*
X135420000Y-95420458D01*
X135519585Y-95410650D01*
X135615344Y-95381602D01*
X135703595Y-95334430D01*
X135780948Y-95270948D01*
X135844430Y-95193595D01*
X135891602Y-95105344D01*
X135920650Y-95009585D01*
X135923563Y-94980000D01*
X136103542Y-94980000D01*
X136106000Y-95072000D01*
X136233000Y-95199000D01*
X137033000Y-95199000D01*
X137033000Y-94599000D01*
X137795000Y-94599000D01*
X137795000Y-95199000D01*
X138595000Y-95199000D01*
X138722000Y-95072000D01*
X138724458Y-94980000D01*
X138714650Y-94880415D01*
X138685602Y-94784656D01*
X138638430Y-94696405D01*
X138574948Y-94619052D01*
X138497595Y-94555570D01*
X138409344Y-94508398D01*
X138313585Y-94479350D01*
X138214000Y-94469542D01*
X137922000Y-94472000D01*
X137795000Y-94599000D01*
X137033000Y-94599000D01*
X136906000Y-94472000D01*
X136614000Y-94469542D01*
X136514415Y-94479350D01*
X136418656Y-94508398D01*
X136330405Y-94555570D01*
X136253052Y-94619052D01*
X136189570Y-94696405D01*
X136142398Y-94784656D01*
X136113350Y-94880415D01*
X136103542Y-94980000D01*
X135923563Y-94980000D01*
X135930458Y-94910000D01*
X135928000Y-94818000D01*
X135801000Y-94691000D01*
X135001000Y-94691000D01*
X134239000Y-94691000D01*
X133439000Y-94691000D01*
X133312000Y-94818000D01*
X133309542Y-94910000D01*
X131572276Y-94910000D01*
X131572485Y-94869000D01*
X132429250Y-94869000D01*
X132588000Y-94710250D01*
X132591072Y-94361000D01*
X132578812Y-94236518D01*
X132542502Y-94116820D01*
X132483537Y-94006506D01*
X132404185Y-93909815D01*
X132374849Y-93885739D01*
X132377429Y-93882595D01*
X132424601Y-93794343D01*
X132445333Y-93726000D01*
X133309969Y-93726000D01*
X133312000Y-93802000D01*
X133439000Y-93929000D01*
X134239000Y-93929000D01*
X134239000Y-93909000D01*
X135001000Y-93909000D01*
X135001000Y-93929000D01*
X135801000Y-93929000D01*
X135928000Y-93802000D01*
X135930004Y-93726975D01*
X135939902Y-93726000D01*
X136089171Y-93711298D01*
X136280687Y-93653202D01*
X136400801Y-93589000D01*
X142541928Y-93589000D01*
X142554188Y-93713482D01*
X142590498Y-93833180D01*
X142649463Y-93943494D01*
X142728815Y-94040185D01*
X142825506Y-94119537D01*
X142935820Y-94178502D01*
X143055518Y-94214812D01*
X143180000Y-94227072D01*
X143190250Y-94224000D01*
X143349000Y-94065250D01*
X143349000Y-93345000D01*
X142703750Y-93345000D01*
X142545000Y-93503750D01*
X142541928Y-93589000D01*
X136400801Y-93589000D01*
X136457190Y-93558860D01*
X136548411Y-93483997D01*
X136614000Y-93490457D01*
X138214000Y-93490457D01*
X138313585Y-93480649D01*
X138409343Y-93451601D01*
X138497595Y-93404429D01*
X138507866Y-93396000D01*
X138780098Y-93396000D01*
X138830000Y-93400915D01*
X138879902Y-93396000D01*
X139029171Y-93381298D01*
X139220687Y-93323202D01*
X139397190Y-93228860D01*
X139551896Y-93101896D01*
X139583712Y-93063128D01*
X140190841Y-92456000D01*
X142576750Y-92456000D01*
X142703750Y-92583000D01*
G37*
G04 #@! TD.AperFunction*
D21*
X157135399Y-93794343D02*
X157182571Y-93882595D01*
X157185151Y-93885739D01*
X157155815Y-93909815D01*
X157076463Y-94006506D01*
X157017498Y-94116820D01*
X156981188Y-94236518D01*
X156968928Y-94361000D01*
X156972000Y-94710250D01*
X157130750Y-94869000D01*
X157987515Y-94869000D01*
X157988000Y-94964250D01*
X158146750Y-95123000D01*
X160147000Y-95123000D01*
X160147000Y-95103000D01*
X160401000Y-95103000D01*
X160401000Y-95123000D01*
X160421000Y-95123000D01*
X160421000Y-95377000D01*
X160401000Y-95377000D01*
X160401000Y-95397000D01*
X160147000Y-95397000D01*
X160147000Y-95377000D01*
X158146750Y-95377000D01*
X157988000Y-95535750D01*
X157987515Y-95631000D01*
X157130750Y-95631000D01*
X156972000Y-95789750D01*
X156968928Y-96139000D01*
X156981188Y-96263482D01*
X157017498Y-96383180D01*
X157076463Y-96493494D01*
X157155815Y-96590185D01*
X157185151Y-96614261D01*
X157182571Y-96617405D01*
X157135399Y-96705657D01*
X157106351Y-96801415D01*
X157096543Y-96901000D01*
X157096543Y-97155000D01*
X156092026Y-97155000D01*
X155405002Y-96467978D01*
X155405002Y-96376252D01*
X155563750Y-96535000D01*
X155778000Y-96538072D01*
X155902482Y-96525812D01*
X156022180Y-96489502D01*
X156132494Y-96430537D01*
X156229185Y-96351185D01*
X156308537Y-96254494D01*
X156367502Y-96144180D01*
X156403812Y-96024482D01*
X156416072Y-95900000D01*
X156413000Y-95535750D01*
X156254250Y-95377000D01*
X155405000Y-95377000D01*
X155405000Y-95397000D01*
X155151000Y-95397000D01*
X155151000Y-95377000D01*
X154301750Y-95377000D01*
X154143000Y-95535750D01*
X154139928Y-95900000D01*
X154152188Y-96024482D01*
X154162816Y-96059518D01*
X154060468Y-96059518D01*
X154078649Y-95999585D01*
X154088457Y-95900000D01*
X154088457Y-94600000D01*
X154078649Y-94500415D01*
X154074883Y-94488000D01*
X154150959Y-94488000D01*
X154139928Y-94600000D01*
X154143000Y-94964250D01*
X154301750Y-95123000D01*
X155151000Y-95123000D01*
X155151000Y-95103000D01*
X155405000Y-95103000D01*
X155405000Y-95123000D01*
X156254250Y-95123000D01*
X156413000Y-94964250D01*
X156416072Y-94600000D01*
X156403812Y-94475518D01*
X156367502Y-94355820D01*
X156324536Y-94275438D01*
X156423896Y-94193896D01*
X156455712Y-94155128D01*
X156884841Y-93726000D01*
X157114667Y-93726000D01*
X157135399Y-93794343D01*
G04 #@! TA.AperFunction,Conductor*
D23*
G36*
X157135399Y-93794343D02*
G01*
X157182571Y-93882595D01*
X157185151Y-93885739D01*
X157155815Y-93909815D01*
X157076463Y-94006506D01*
X157017498Y-94116820D01*
X156981188Y-94236518D01*
X156968928Y-94361000D01*
X156972000Y-94710250D01*
X157130750Y-94869000D01*
X157987515Y-94869000D01*
X157988000Y-94964250D01*
X158146750Y-95123000D01*
X160147000Y-95123000D01*
X160147000Y-95103000D01*
X160401000Y-95103000D01*
X160401000Y-95123000D01*
X160421000Y-95123000D01*
X160421000Y-95377000D01*
X160401000Y-95377000D01*
X160401000Y-95397000D01*
X160147000Y-95397000D01*
X160147000Y-95377000D01*
X158146750Y-95377000D01*
X157988000Y-95535750D01*
X157987515Y-95631000D01*
X157130750Y-95631000D01*
X156972000Y-95789750D01*
X156968928Y-96139000D01*
X156981188Y-96263482D01*
X157017498Y-96383180D01*
X157076463Y-96493494D01*
X157155815Y-96590185D01*
X157185151Y-96614261D01*
X157182571Y-96617405D01*
X157135399Y-96705657D01*
X157106351Y-96801415D01*
X157096543Y-96901000D01*
X157096543Y-97155000D01*
X156092026Y-97155000D01*
X155405002Y-96467978D01*
X155405002Y-96376252D01*
X155563750Y-96535000D01*
X155778000Y-96538072D01*
X155902482Y-96525812D01*
X156022180Y-96489502D01*
X156132494Y-96430537D01*
X156229185Y-96351185D01*
X156308537Y-96254494D01*
X156367502Y-96144180D01*
X156403812Y-96024482D01*
X156416072Y-95900000D01*
X156413000Y-95535750D01*
X156254250Y-95377000D01*
X155405000Y-95377000D01*
X155405000Y-95397000D01*
X155151000Y-95397000D01*
X155151000Y-95377000D01*
X154301750Y-95377000D01*
X154143000Y-95535750D01*
X154139928Y-95900000D01*
X154152188Y-96024482D01*
X154162816Y-96059518D01*
X154060468Y-96059518D01*
X154078649Y-95999585D01*
X154088457Y-95900000D01*
X154088457Y-94600000D01*
X154078649Y-94500415D01*
X154074883Y-94488000D01*
X154150959Y-94488000D01*
X154139928Y-94600000D01*
X154143000Y-94964250D01*
X154301750Y-95123000D01*
X155151000Y-95123000D01*
X155151000Y-95103000D01*
X155405000Y-95103000D01*
X155405000Y-95123000D01*
X156254250Y-95123000D01*
X156413000Y-94964250D01*
X156416072Y-94600000D01*
X156403812Y-94475518D01*
X156367502Y-94355820D01*
X156324536Y-94275438D01*
X156423896Y-94193896D01*
X156455712Y-94155128D01*
X156884841Y-93726000D01*
X157114667Y-93726000D01*
X157135399Y-93794343D01*
G37*
G04 #@! TD.AperFunction*
D21*
X155825911Y-91124968D02*
X156024477Y-91231103D01*
X156183529Y-91279351D01*
X156239932Y-91296461D01*
X156262600Y-91298694D01*
X156407854Y-91313000D01*
X156407860Y-91313000D01*
X156463999Y-91318529D01*
X156520138Y-91313000D01*
X157166752Y-91313000D01*
X157182571Y-91342595D01*
X157246052Y-91419948D01*
X157270486Y-91440000D01*
X157246052Y-91460052D01*
X157182571Y-91537405D01*
X157135399Y-91625657D01*
X157114667Y-91694000D01*
X156513902Y-91694000D01*
X156464000Y-91689085D01*
X156414098Y-91694000D01*
X156264829Y-91708702D01*
X156073313Y-91766798D01*
X155896810Y-91861140D01*
X155742104Y-91988104D01*
X155710293Y-92026866D01*
X155281160Y-92456000D01*
X154114015Y-92456000D01*
X154117812Y-92443482D01*
X154130072Y-92319000D01*
X154127000Y-92233750D01*
X153968250Y-92075000D01*
X153323000Y-92075000D01*
X153323000Y-92095000D01*
X152561000Y-92095000D01*
X152561000Y-92075000D01*
X152541000Y-92075000D01*
X152541000Y-91313000D01*
X152561000Y-91313000D01*
X152561000Y-91293000D01*
X153323000Y-91293000D01*
X153323000Y-91313000D01*
X153968250Y-91313000D01*
X154127000Y-91154250D01*
X154130072Y-91069000D01*
X154129087Y-91059000D01*
X155745529Y-91059000D01*
X155825911Y-91124968D01*
G04 #@! TA.AperFunction,Conductor*
D23*
G36*
X155825911Y-91124968D02*
G01*
X156024477Y-91231103D01*
X156183529Y-91279351D01*
X156239932Y-91296461D01*
X156262600Y-91298694D01*
X156407854Y-91313000D01*
X156407860Y-91313000D01*
X156463999Y-91318529D01*
X156520138Y-91313000D01*
X157166752Y-91313000D01*
X157182571Y-91342595D01*
X157246052Y-91419948D01*
X157270486Y-91440000D01*
X157246052Y-91460052D01*
X157182571Y-91537405D01*
X157135399Y-91625657D01*
X157114667Y-91694000D01*
X156513902Y-91694000D01*
X156464000Y-91689085D01*
X156414098Y-91694000D01*
X156264829Y-91708702D01*
X156073313Y-91766798D01*
X155896810Y-91861140D01*
X155742104Y-91988104D01*
X155710293Y-92026866D01*
X155281160Y-92456000D01*
X154114015Y-92456000D01*
X154117812Y-92443482D01*
X154130072Y-92319000D01*
X154127000Y-92233750D01*
X153968250Y-92075000D01*
X153323000Y-92075000D01*
X153323000Y-92095000D01*
X152561000Y-92095000D01*
X152561000Y-92075000D01*
X152541000Y-92075000D01*
X152541000Y-91313000D01*
X152561000Y-91313000D01*
X152561000Y-91293000D01*
X153323000Y-91293000D01*
X153323000Y-91313000D01*
X153968250Y-91313000D01*
X154127000Y-91154250D01*
X154130072Y-91069000D01*
X154129087Y-91059000D01*
X155745529Y-91059000D01*
X155825911Y-91124968D01*
G37*
G04 #@! TD.AperFunction*
D21*
X162002001Y-87921782D02*
X161994492Y-87925796D01*
X161909526Y-87995526D01*
X161839796Y-88080492D01*
X161787982Y-88177430D01*
X161756075Y-88282613D01*
X161745301Y-88392000D01*
X161748001Y-88419413D01*
X161748001Y-88770543D01*
X157607000Y-88770543D01*
X157507415Y-88780351D01*
X157411657Y-88809399D01*
X157323405Y-88856571D01*
X157246052Y-88920052D01*
X157182571Y-88997405D01*
X157166752Y-89027000D01*
X156928471Y-89027000D01*
X156848089Y-88961032D01*
X156649523Y-88854897D01*
X156434067Y-88789539D01*
X156266146Y-88773000D01*
X156266139Y-88773000D01*
X156210000Y-88767471D01*
X156153861Y-88773000D01*
X156036707Y-88773000D01*
X156099135Y-88679570D01*
X156197734Y-88441530D01*
X156248000Y-88188827D01*
X156248000Y-87931173D01*
X156197734Y-87678470D01*
X156099135Y-87440430D01*
X155955990Y-87226199D01*
X155773801Y-87044010D01*
X155559570Y-86900865D01*
X155321530Y-86802266D01*
X155068827Y-86752000D01*
X154811173Y-86752000D01*
X154558470Y-86802266D01*
X154320430Y-86900865D01*
X154106199Y-87044010D01*
X153924010Y-87226199D01*
X153780865Y-87440430D01*
X153682266Y-87678470D01*
X153670000Y-87740135D01*
X153657734Y-87678470D01*
X153559135Y-87440430D01*
X153415990Y-87226199D01*
X153233801Y-87044010D01*
X153019570Y-86900865D01*
X152781530Y-86802266D01*
X152528827Y-86752000D01*
X152271173Y-86752000D01*
X152018470Y-86802266D01*
X151780430Y-86900865D01*
X151566199Y-87044010D01*
X151384010Y-87226199D01*
X151240865Y-87440430D01*
X151142266Y-87678470D01*
X151130000Y-87740135D01*
X151117734Y-87678470D01*
X151019135Y-87440430D01*
X150875990Y-87226199D01*
X150693801Y-87044010D01*
X150479570Y-86900865D01*
X150241530Y-86802266D01*
X149988827Y-86752000D01*
X149731173Y-86752000D01*
X149478470Y-86802266D01*
X149240430Y-86900865D01*
X149026199Y-87044010D01*
X148844010Y-87226199D01*
X148700865Y-87440430D01*
X148602266Y-87678470D01*
X148590000Y-87740135D01*
X148577734Y-87678470D01*
X148479135Y-87440430D01*
X148335990Y-87226199D01*
X148153801Y-87044010D01*
X147939570Y-86900865D01*
X147701530Y-86802266D01*
X147448827Y-86752000D01*
X147191173Y-86752000D01*
X146938470Y-86802266D01*
X146700430Y-86900865D01*
X146486199Y-87044010D01*
X146304010Y-87226199D01*
X146160865Y-87440430D01*
X146062266Y-87678470D01*
X146050000Y-87740135D01*
X146037734Y-87678470D01*
X145939135Y-87440430D01*
X145795990Y-87226199D01*
X145613801Y-87044010D01*
X145399570Y-86900865D01*
X145161530Y-86802266D01*
X144908827Y-86752000D01*
X144651173Y-86752000D01*
X144398470Y-86802266D01*
X144160430Y-86900865D01*
X143946214Y-87044000D01*
X143073786Y-87044000D01*
X142859570Y-86900865D01*
X142621530Y-86802266D01*
X142368827Y-86752000D01*
X142111173Y-86752000D01*
X141858470Y-86802266D01*
X141620430Y-86900865D01*
X141406199Y-87044010D01*
X141224010Y-87226199D01*
X141080865Y-87440430D01*
X140982266Y-87678470D01*
X140970000Y-87740135D01*
X140957734Y-87678470D01*
X140859135Y-87440430D01*
X140715990Y-87226199D01*
X140533801Y-87044010D01*
X140319570Y-86900865D01*
X140081530Y-86802266D01*
X139828827Y-86752000D01*
X139571173Y-86752000D01*
X139318470Y-86802266D01*
X139080430Y-86900865D01*
X138866199Y-87044010D01*
X138684010Y-87226199D01*
X138540865Y-87440430D01*
X138442266Y-87678470D01*
X138430000Y-87740135D01*
X138417734Y-87678470D01*
X138319135Y-87440430D01*
X138175990Y-87226199D01*
X137993801Y-87044010D01*
X137779570Y-86900865D01*
X137541530Y-86802266D01*
X137288827Y-86752000D01*
X137031173Y-86752000D01*
X136778470Y-86802266D01*
X136540430Y-86900865D01*
X136326199Y-87044010D01*
X136144010Y-87226199D01*
X136000865Y-87440430D01*
X135902266Y-87678470D01*
X135890000Y-87740135D01*
X135877734Y-87678470D01*
X135779135Y-87440430D01*
X135635990Y-87226199D01*
X135453801Y-87044010D01*
X135239570Y-86900865D01*
X135001530Y-86802266D01*
X134748827Y-86752000D01*
X134491173Y-86752000D01*
X134238470Y-86802266D01*
X134000430Y-86900865D01*
X133786199Y-87044010D01*
X133604010Y-87226199D01*
X133460865Y-87440430D01*
X133362266Y-87678470D01*
X133312000Y-87931173D01*
X133312000Y-88188827D01*
X133362266Y-88441530D01*
X133460865Y-88679570D01*
X133523293Y-88773000D01*
X133152138Y-88773000D01*
X133095999Y-88767471D01*
X133039860Y-88773000D01*
X133039854Y-88773000D01*
X132894600Y-88787306D01*
X132871932Y-88789539D01*
X132821786Y-88804751D01*
X132656477Y-88854897D01*
X132457911Y-88961032D01*
X132388455Y-89018033D01*
X132377429Y-88997405D01*
X132313948Y-88920052D01*
X132236595Y-88856571D01*
X132148343Y-88809399D01*
X132052585Y-88780351D01*
X131953000Y-88770543D01*
X127812000Y-88770543D01*
X127812000Y-88419403D01*
X127814699Y-88392000D01*
X127803925Y-88282613D01*
X127772018Y-88177430D01*
X127720204Y-88080492D01*
X127650474Y-87995526D01*
X127565508Y-87925796D01*
X127558000Y-87921783D01*
X127558000Y-84378000D01*
X162002000Y-84378000D01*
X162002001Y-87921782D01*
G04 #@! TA.AperFunction,Conductor*
D23*
G36*
X162002001Y-87921782D02*
G01*
X161994492Y-87925796D01*
X161909526Y-87995526D01*
X161839796Y-88080492D01*
X161787982Y-88177430D01*
X161756075Y-88282613D01*
X161745301Y-88392000D01*
X161748001Y-88419413D01*
X161748001Y-88770543D01*
X157607000Y-88770543D01*
X157507415Y-88780351D01*
X157411657Y-88809399D01*
X157323405Y-88856571D01*
X157246052Y-88920052D01*
X157182571Y-88997405D01*
X157166752Y-89027000D01*
X156928471Y-89027000D01*
X156848089Y-88961032D01*
X156649523Y-88854897D01*
X156434067Y-88789539D01*
X156266146Y-88773000D01*
X156266139Y-88773000D01*
X156210000Y-88767471D01*
X156153861Y-88773000D01*
X156036707Y-88773000D01*
X156099135Y-88679570D01*
X156197734Y-88441530D01*
X156248000Y-88188827D01*
X156248000Y-87931173D01*
X156197734Y-87678470D01*
X156099135Y-87440430D01*
X155955990Y-87226199D01*
X155773801Y-87044010D01*
X155559570Y-86900865D01*
X155321530Y-86802266D01*
X155068827Y-86752000D01*
X154811173Y-86752000D01*
X154558470Y-86802266D01*
X154320430Y-86900865D01*
X154106199Y-87044010D01*
X153924010Y-87226199D01*
X153780865Y-87440430D01*
X153682266Y-87678470D01*
X153670000Y-87740135D01*
X153657734Y-87678470D01*
X153559135Y-87440430D01*
X153415990Y-87226199D01*
X153233801Y-87044010D01*
X153019570Y-86900865D01*
X152781530Y-86802266D01*
X152528827Y-86752000D01*
X152271173Y-86752000D01*
X152018470Y-86802266D01*
X151780430Y-86900865D01*
X151566199Y-87044010D01*
X151384010Y-87226199D01*
X151240865Y-87440430D01*
X151142266Y-87678470D01*
X151130000Y-87740135D01*
X151117734Y-87678470D01*
X151019135Y-87440430D01*
X150875990Y-87226199D01*
X150693801Y-87044010D01*
X150479570Y-86900865D01*
X150241530Y-86802266D01*
X149988827Y-86752000D01*
X149731173Y-86752000D01*
X149478470Y-86802266D01*
X149240430Y-86900865D01*
X149026199Y-87044010D01*
X148844010Y-87226199D01*
X148700865Y-87440430D01*
X148602266Y-87678470D01*
X148590000Y-87740135D01*
X148577734Y-87678470D01*
X148479135Y-87440430D01*
X148335990Y-87226199D01*
X148153801Y-87044010D01*
X147939570Y-86900865D01*
X147701530Y-86802266D01*
X147448827Y-86752000D01*
X147191173Y-86752000D01*
X146938470Y-86802266D01*
X146700430Y-86900865D01*
X146486199Y-87044010D01*
X146304010Y-87226199D01*
X146160865Y-87440430D01*
X146062266Y-87678470D01*
X146050000Y-87740135D01*
X146037734Y-87678470D01*
X145939135Y-87440430D01*
X145795990Y-87226199D01*
X145613801Y-87044010D01*
X145399570Y-86900865D01*
X145161530Y-86802266D01*
X144908827Y-86752000D01*
X144651173Y-86752000D01*
X144398470Y-86802266D01*
X144160430Y-86900865D01*
X143946214Y-87044000D01*
X143073786Y-87044000D01*
X142859570Y-86900865D01*
X142621530Y-86802266D01*
X142368827Y-86752000D01*
X142111173Y-86752000D01*
X141858470Y-86802266D01*
X141620430Y-86900865D01*
X141406199Y-87044010D01*
X141224010Y-87226199D01*
X141080865Y-87440430D01*
X140982266Y-87678470D01*
X140970000Y-87740135D01*
X140957734Y-87678470D01*
X140859135Y-87440430D01*
X140715990Y-87226199D01*
X140533801Y-87044010D01*
X140319570Y-86900865D01*
X140081530Y-86802266D01*
X139828827Y-86752000D01*
X139571173Y-86752000D01*
X139318470Y-86802266D01*
X139080430Y-86900865D01*
X138866199Y-87044010D01*
X138684010Y-87226199D01*
X138540865Y-87440430D01*
X138442266Y-87678470D01*
X138430000Y-87740135D01*
X138417734Y-87678470D01*
X138319135Y-87440430D01*
X138175990Y-87226199D01*
X137993801Y-87044010D01*
X137779570Y-86900865D01*
X137541530Y-86802266D01*
X137288827Y-86752000D01*
X137031173Y-86752000D01*
X136778470Y-86802266D01*
X136540430Y-86900865D01*
X136326199Y-87044010D01*
X136144010Y-87226199D01*
X136000865Y-87440430D01*
X135902266Y-87678470D01*
X135890000Y-87740135D01*
X135877734Y-87678470D01*
X135779135Y-87440430D01*
X135635990Y-87226199D01*
X135453801Y-87044010D01*
X135239570Y-86900865D01*
X135001530Y-86802266D01*
X134748827Y-86752000D01*
X134491173Y-86752000D01*
X134238470Y-86802266D01*
X134000430Y-86900865D01*
X133786199Y-87044010D01*
X133604010Y-87226199D01*
X133460865Y-87440430D01*
X133362266Y-87678470D01*
X133312000Y-87931173D01*
X133312000Y-88188827D01*
X133362266Y-88441530D01*
X133460865Y-88679570D01*
X133523293Y-88773000D01*
X133152138Y-88773000D01*
X133095999Y-88767471D01*
X133039860Y-88773000D01*
X133039854Y-88773000D01*
X132894600Y-88787306D01*
X132871932Y-88789539D01*
X132821786Y-88804751D01*
X132656477Y-88854897D01*
X132457911Y-88961032D01*
X132388455Y-89018033D01*
X132377429Y-88997405D01*
X132313948Y-88920052D01*
X132236595Y-88856571D01*
X132148343Y-88809399D01*
X132052585Y-88780351D01*
X131953000Y-88770543D01*
X127812000Y-88770543D01*
X127812000Y-88419403D01*
X127814699Y-88392000D01*
X127803925Y-88282613D01*
X127772018Y-88177430D01*
X127720204Y-88080492D01*
X127650474Y-87995526D01*
X127565508Y-87925796D01*
X127558000Y-87921783D01*
X127558000Y-84378000D01*
X162002000Y-84378000D01*
X162002001Y-87921782D01*
G37*
G04 #@! TD.AperFunction*
M02*
