G04 #@! TF.FileFunction,Copper,L2,Bot,Signal*
%FSLAX46Y46*%
G04 Gerber Fmt 4.6, Leading zero omitted, Abs format (unit mm)*
G04 Created by KiCad (PCBNEW (2015-08-09 BZR 6077)-product) date Sun Aug  9 21:59:22 2015*
%MOMM*%
G01*
G04 APERTURE LIST*
%ADD10C,0.100000*%
%ADD11R,1.400000X1.400000*%
%ADD12C,1.400000*%
%ADD13R,2.032000X1.778000*%
%ADD14C,1.143000*%
%ADD15C,0.889000*%
%ADD16C,1.016000*%
%ADD17C,0.254000*%
G04 APERTURE END LIST*
D10*
D11*
X154686000Y-105742000D03*
D12*
X152146000Y-105742000D03*
X149606000Y-105742000D03*
X147066000Y-105742000D03*
X144526000Y-105742000D03*
X141986000Y-105742000D03*
X139446000Y-105742000D03*
X136906000Y-105742000D03*
X134366000Y-105742000D03*
X134366000Y-83742000D03*
X136906000Y-83742000D03*
X139446000Y-83742000D03*
X141986000Y-83742000D03*
X144526000Y-83742000D03*
X147066000Y-83742000D03*
X149606000Y-83742000D03*
X152146000Y-83742000D03*
X154686000Y-83742000D03*
D13*
X130683000Y-85852000D03*
X130683000Y-88392000D03*
X130683000Y-90932000D03*
X130683000Y-93472000D03*
X130683000Y-96012000D03*
X130683000Y-98552000D03*
X130683000Y-101092000D03*
X130683000Y-103632000D03*
X158369000Y-103632000D03*
X158369000Y-101092000D03*
X158369000Y-98552000D03*
X158369000Y-96012000D03*
X158369000Y-93472000D03*
X158369000Y-90932000D03*
X158369000Y-88392000D03*
X158369000Y-85852000D03*
D14*
X151003000Y-89916000D03*
D15*
X151003000Y-99314000D03*
D14*
X145288000Y-101092000D03*
X147193000Y-99568000D03*
X132969000Y-94742000D03*
X158369000Y-107442000D03*
X144526000Y-107442000D03*
X130683000Y-107442000D03*
X130683000Y-82042000D03*
X144526000Y-82042000D03*
X158369000Y-82042000D03*
X141097000Y-88646000D03*
X141097000Y-89916000D03*
X154940000Y-87376000D03*
D15*
X143710052Y-94033948D03*
X149618230Y-93205770D03*
X156210000Y-105409990D03*
X144843520Y-102743000D03*
X141478006Y-100330000D03*
X143764000Y-95249998D03*
X138691052Y-96202480D03*
X137922000Y-99060000D03*
X139319000Y-98933000D03*
X149225000Y-98679000D03*
X152273000Y-98425000D03*
X153162010Y-97409000D03*
X155956000Y-98298000D03*
X155575000Y-96900996D03*
X154715819Y-95855181D03*
X144526000Y-91186000D03*
X145542000Y-90424000D03*
D16*
X151003000Y-99314000D02*
X151003000Y-89916000D01*
D17*
X145288000Y-101092000D02*
X145923000Y-101092000D01*
X145923000Y-101092000D02*
X147193000Y-99568000D01*
X130683000Y-90932000D02*
X132207000Y-90932000D01*
X132969000Y-91694000D02*
X132969000Y-94742000D01*
X132207000Y-90932000D02*
X132969000Y-91694000D01*
X158369000Y-107442000D02*
X144526000Y-107442000D01*
X144526000Y-82042000D02*
X130683000Y-82042000D01*
X141097000Y-88646000D02*
X141097000Y-89916000D01*
X156464000Y-85344000D02*
X156464000Y-83820000D01*
X154940000Y-87122000D02*
X156464000Y-85344000D01*
X156464000Y-83820000D02*
X158369000Y-82042000D01*
X154940000Y-87376000D02*
X154940000Y-87122000D01*
X142748000Y-97612198D02*
X142748000Y-94996000D01*
X137071099Y-100368099D02*
X139992099Y-100368099D01*
X130683000Y-96012000D02*
X132715000Y-96012000D01*
X132715000Y-96012000D02*
X137071099Y-100368099D01*
X139992099Y-100368099D02*
X142748000Y-97612198D01*
X142748000Y-94996000D02*
X143265553Y-94478447D01*
X143265553Y-94478447D02*
X143710052Y-94033948D01*
X149606000Y-93218000D02*
X149618230Y-93205770D01*
X144526000Y-93218000D02*
X149606000Y-93218000D01*
X143710052Y-94033948D02*
X144526000Y-93218000D01*
X158369000Y-98552000D02*
X158216600Y-98552000D01*
X132842000Y-98552000D02*
X137033000Y-102743000D01*
X130683000Y-98552000D02*
X132842000Y-98552000D01*
X137033000Y-102743000D02*
X144214903Y-102743000D01*
X144214903Y-102743000D02*
X144843520Y-102743000D01*
X156654499Y-104965491D02*
X156210000Y-105409990D01*
X156654499Y-99123501D02*
X156654499Y-104965491D01*
X157226000Y-98552000D02*
X156654499Y-99123501D01*
X158369000Y-98552000D02*
X157226000Y-98552000D01*
X143764000Y-98044006D02*
X143764000Y-95878615D01*
X143764000Y-95878615D02*
X143764000Y-95249998D01*
X141478006Y-100330000D02*
X143764000Y-98044006D01*
X139446000Y-95447532D02*
X139135551Y-95757981D01*
X139446000Y-83742000D02*
X139446000Y-95447532D01*
X139135551Y-95757981D02*
X138691052Y-96202480D01*
X134366000Y-95504000D02*
X134366000Y-83742000D01*
X137922000Y-99060000D02*
X134366000Y-95504000D01*
X138874501Y-98488501D02*
X139319000Y-98933000D01*
X136906000Y-83742000D02*
X136906000Y-96520000D01*
X136906000Y-96520000D02*
X138874501Y-98488501D01*
X149225000Y-99307617D02*
X149225000Y-98679000D01*
X149225000Y-100584000D02*
X149225000Y-99307617D01*
X147066000Y-102743000D02*
X149225000Y-100584000D01*
X147066000Y-105742000D02*
X147066000Y-102743000D01*
X152273000Y-97796383D02*
X152273000Y-98425000D01*
X152273000Y-85979000D02*
X152273000Y-97796383D01*
X152146000Y-85852000D02*
X152273000Y-85979000D01*
X152146000Y-83742000D02*
X152146000Y-85852000D01*
X154686000Y-86106000D02*
X153162010Y-87629990D01*
X154686000Y-83742000D02*
X154686000Y-86106000D01*
X153162010Y-87629990D02*
X153162010Y-96780383D01*
X153162010Y-96780383D02*
X153162010Y-97409000D01*
X155956000Y-98926617D02*
X155956000Y-98298000D01*
X155956000Y-102108000D02*
X155956000Y-98926617D01*
X154686000Y-103378000D02*
X155956000Y-102108000D01*
X154686000Y-105742000D02*
X154686000Y-103378000D01*
X155130501Y-97345495D02*
X155575000Y-96900996D01*
X155067000Y-98679000D02*
X155067000Y-97408996D01*
X155067000Y-97408996D02*
X155130501Y-97345495D01*
X152146000Y-101600000D02*
X155067000Y-98679000D01*
X152146000Y-105742000D02*
X152146000Y-101600000D01*
X154271320Y-96299680D02*
X154715819Y-95855181D01*
X154178000Y-96393000D02*
X154271320Y-96299680D01*
X154178000Y-98044000D02*
X154178000Y-96393000D01*
X149606000Y-102616000D02*
X154178000Y-98044000D01*
X149606000Y-105742000D02*
X149606000Y-102616000D01*
X147066000Y-83742000D02*
X147066000Y-85852000D01*
X147066000Y-85852000D02*
X144526000Y-88392000D01*
X144526000Y-88392000D02*
X144526000Y-91186000D01*
X147066000Y-83742000D02*
X147066000Y-84328000D01*
X149606000Y-83742000D02*
X149606000Y-86360000D01*
X149606000Y-86360000D02*
X145542000Y-90424000D01*
G36*
X161875000Y-109424000D02*
X127177000Y-109424000D01*
X127177000Y-105981232D01*
X133157791Y-105981232D01*
X133341310Y-106425383D01*
X133680830Y-106765495D01*
X134124660Y-106949790D01*
X134605232Y-106950209D01*
X135049383Y-106766690D01*
X135389495Y-106427170D01*
X135573790Y-105983340D01*
X135573791Y-105981232D01*
X135697791Y-105981232D01*
X135881310Y-106425383D01*
X136220830Y-106765495D01*
X136664660Y-106949790D01*
X137145232Y-106950209D01*
X137589383Y-106766690D01*
X137929495Y-106427170D01*
X138113790Y-105983340D01*
X138113791Y-105981232D01*
X138237791Y-105981232D01*
X138421310Y-106425383D01*
X138760830Y-106765495D01*
X139204660Y-106949790D01*
X139685232Y-106950209D01*
X140129383Y-106766690D01*
X140469495Y-106427170D01*
X140653790Y-105983340D01*
X140653791Y-105981232D01*
X140777791Y-105981232D01*
X140961310Y-106425383D01*
X141300830Y-106765495D01*
X141744660Y-106949790D01*
X142225232Y-106950209D01*
X142669383Y-106766690D01*
X143009495Y-106427170D01*
X143193790Y-105983340D01*
X143193791Y-105981232D01*
X143317791Y-105981232D01*
X143501310Y-106425383D01*
X143840830Y-106765495D01*
X144284660Y-106949790D01*
X144765232Y-106950209D01*
X145209383Y-106766690D01*
X145549495Y-106427170D01*
X145733790Y-105983340D01*
X145734209Y-105502768D01*
X145550690Y-105058617D01*
X145211170Y-104718505D01*
X144767340Y-104534210D01*
X144286768Y-104533791D01*
X143842617Y-104717310D01*
X143502505Y-105056830D01*
X143318210Y-105500660D01*
X143317791Y-105981232D01*
X143193791Y-105981232D01*
X143194209Y-105502768D01*
X143010690Y-105058617D01*
X142671170Y-104718505D01*
X142227340Y-104534210D01*
X141746768Y-104533791D01*
X141302617Y-104717310D01*
X140962505Y-105056830D01*
X140778210Y-105500660D01*
X140777791Y-105981232D01*
X140653791Y-105981232D01*
X140654209Y-105502768D01*
X140470690Y-105058617D01*
X140131170Y-104718505D01*
X139687340Y-104534210D01*
X139206768Y-104533791D01*
X138762617Y-104717310D01*
X138422505Y-105056830D01*
X138238210Y-105500660D01*
X138237791Y-105981232D01*
X138113791Y-105981232D01*
X138114209Y-105502768D01*
X137930690Y-105058617D01*
X137591170Y-104718505D01*
X137147340Y-104534210D01*
X136666768Y-104533791D01*
X136222617Y-104717310D01*
X135882505Y-105056830D01*
X135698210Y-105500660D01*
X135697791Y-105981232D01*
X135573791Y-105981232D01*
X135574209Y-105502768D01*
X135390690Y-105058617D01*
X135051170Y-104718505D01*
X134607340Y-104534210D01*
X134126768Y-104533791D01*
X133682617Y-104717310D01*
X133342505Y-105056830D01*
X133158210Y-105500660D01*
X133157791Y-105981232D01*
X127177000Y-105981232D01*
X127177000Y-104171750D01*
X129032000Y-104171750D01*
X129032000Y-104647310D01*
X129128673Y-104880699D01*
X129307302Y-105059327D01*
X129540691Y-105156000D01*
X130143250Y-105156000D01*
X130302000Y-104997250D01*
X130302000Y-104013000D01*
X131064000Y-104013000D01*
X131064000Y-104997250D01*
X131222750Y-105156000D01*
X131825309Y-105156000D01*
X132058698Y-105059327D01*
X132237327Y-104880699D01*
X132334000Y-104647310D01*
X132334000Y-104171750D01*
X132175250Y-104013000D01*
X131064000Y-104013000D01*
X130302000Y-104013000D01*
X129190750Y-104013000D01*
X129032000Y-104171750D01*
X127177000Y-104171750D01*
X127177000Y-91471750D01*
X129032000Y-91471750D01*
X129032000Y-91947310D01*
X129128673Y-92180699D01*
X129246524Y-92298550D01*
X129189855Y-92381488D01*
X129149048Y-92583000D01*
X129149048Y-94361000D01*
X129184470Y-94549253D01*
X129295728Y-94722153D01*
X129322927Y-94740737D01*
X129305847Y-94751728D01*
X129189855Y-94921488D01*
X129149048Y-95123000D01*
X129149048Y-96901000D01*
X129184470Y-97089253D01*
X129295728Y-97262153D01*
X129322927Y-97280737D01*
X129305847Y-97291728D01*
X129189855Y-97461488D01*
X129149048Y-97663000D01*
X129149048Y-99441000D01*
X129184470Y-99629253D01*
X129295728Y-99802153D01*
X129322927Y-99820737D01*
X129305847Y-99831728D01*
X129189855Y-100001488D01*
X129149048Y-100203000D01*
X129149048Y-101981000D01*
X129184470Y-102169253D01*
X129246431Y-102265543D01*
X129128673Y-102383301D01*
X129032000Y-102616690D01*
X129032000Y-103092250D01*
X129190750Y-103251000D01*
X130302000Y-103251000D01*
X130302000Y-103231000D01*
X131064000Y-103231000D01*
X131064000Y-103251000D01*
X132175250Y-103251000D01*
X132334000Y-103092250D01*
X132334000Y-102616690D01*
X132237327Y-102383301D01*
X132119476Y-102265450D01*
X132176145Y-102182512D01*
X132216952Y-101981000D01*
X132216952Y-100203000D01*
X132181530Y-100014747D01*
X132070272Y-99841847D01*
X132043073Y-99823263D01*
X132060153Y-99812272D01*
X132176145Y-99642512D01*
X132216952Y-99441000D01*
X132216952Y-99187000D01*
X132578974Y-99187000D01*
X136583987Y-103192013D01*
X136789996Y-103329664D01*
X137033000Y-103378000D01*
X144131548Y-103378000D01*
X144303267Y-103550020D01*
X144653225Y-103695335D01*
X145032153Y-103695665D01*
X145382363Y-103550961D01*
X145650540Y-103283253D01*
X145795855Y-102933295D01*
X145796185Y-102554367D01*
X145651481Y-102204157D01*
X145383773Y-101935980D01*
X145033815Y-101790665D01*
X144654887Y-101790335D01*
X144304677Y-101935039D01*
X144131413Y-102108000D01*
X137296026Y-102108000D01*
X133291013Y-98102987D01*
X133085004Y-97965336D01*
X132842000Y-97917000D01*
X132216952Y-97917000D01*
X132216952Y-97663000D01*
X132181530Y-97474747D01*
X132070272Y-97301847D01*
X132043073Y-97283263D01*
X132060153Y-97272272D01*
X132176145Y-97102512D01*
X132216952Y-96901000D01*
X132216952Y-96647000D01*
X132451974Y-96647000D01*
X136622086Y-100817112D01*
X136828094Y-100954763D01*
X137071099Y-101003099D01*
X139992099Y-101003099D01*
X140235103Y-100954763D01*
X140441112Y-100817112D01*
X140587984Y-100670240D01*
X140670045Y-100868843D01*
X140937753Y-101137020D01*
X141287711Y-101282335D01*
X141666639Y-101282665D01*
X142016849Y-101137961D01*
X142285026Y-100870253D01*
X142430341Y-100520295D01*
X142430554Y-100275478D01*
X144213013Y-98493019D01*
X144350664Y-98287010D01*
X144399000Y-98044006D01*
X144399000Y-95961970D01*
X144571020Y-95790251D01*
X144716335Y-95440293D01*
X144716665Y-95061365D01*
X144571961Y-94711155D01*
X144476088Y-94615114D01*
X144517072Y-94574201D01*
X144662387Y-94224243D01*
X144662600Y-93979426D01*
X144789026Y-93853000D01*
X148918466Y-93853000D01*
X149077977Y-94012790D01*
X149427935Y-94158105D01*
X149806863Y-94158435D01*
X149987000Y-94084004D01*
X149987000Y-98094115D01*
X149765253Y-97871980D01*
X149415295Y-97726665D01*
X149036367Y-97726335D01*
X148686157Y-97871039D01*
X148417980Y-98138747D01*
X148272665Y-98488705D01*
X148272335Y-98867633D01*
X148417039Y-99217843D01*
X148590000Y-99391107D01*
X148590000Y-100320974D01*
X146616987Y-102293987D01*
X146479336Y-102499996D01*
X146431000Y-102743000D01*
X146431000Y-104697319D01*
X146382617Y-104717310D01*
X146042505Y-105056830D01*
X145858210Y-105500660D01*
X145857791Y-105981232D01*
X146041310Y-106425383D01*
X146380830Y-106765495D01*
X146824660Y-106949790D01*
X147305232Y-106950209D01*
X147749383Y-106766690D01*
X148089495Y-106427170D01*
X148273790Y-105983340D01*
X148274209Y-105502768D01*
X148090690Y-105058617D01*
X147751170Y-104718505D01*
X147701000Y-104697673D01*
X147701000Y-103006026D01*
X149674013Y-101033013D01*
X149811664Y-100827004D01*
X149860000Y-100584000D01*
X149860000Y-99390972D01*
X149987000Y-99264194D01*
X149987000Y-99314000D01*
X150064338Y-99702806D01*
X150284580Y-100032420D01*
X150614194Y-100252662D01*
X150995472Y-100328502D01*
X149156987Y-102166987D01*
X149019336Y-102372996D01*
X148971000Y-102616000D01*
X148971000Y-104697319D01*
X148922617Y-104717310D01*
X148582505Y-105056830D01*
X148398210Y-105500660D01*
X148397791Y-105981232D01*
X148581310Y-106425383D01*
X148920830Y-106765495D01*
X149364660Y-106949790D01*
X149845232Y-106950209D01*
X150289383Y-106766690D01*
X150629495Y-106427170D01*
X150813790Y-105983340D01*
X150814209Y-105502768D01*
X150630690Y-105058617D01*
X150291170Y-104718505D01*
X150241000Y-104697673D01*
X150241000Y-102879026D01*
X151511000Y-101609026D01*
X151511000Y-104697319D01*
X151462617Y-104717310D01*
X151122505Y-105056830D01*
X150938210Y-105500660D01*
X150937791Y-105981232D01*
X151121310Y-106425383D01*
X151460830Y-106765495D01*
X151904660Y-106949790D01*
X152385232Y-106950209D01*
X152829383Y-106766690D01*
X153169495Y-106427170D01*
X153353790Y-105983340D01*
X153354209Y-105502768D01*
X153170690Y-105058617D01*
X152831170Y-104718505D01*
X152781000Y-104697673D01*
X152781000Y-101863026D01*
X155321000Y-99323026D01*
X155321000Y-101844974D01*
X154236987Y-102928987D01*
X154099336Y-103134996D01*
X154051000Y-103378000D01*
X154051000Y-104524048D01*
X153986000Y-104524048D01*
X153797747Y-104559470D01*
X153624847Y-104670728D01*
X153508855Y-104840488D01*
X153468048Y-105042000D01*
X153468048Y-106442000D01*
X153503470Y-106630253D01*
X153614728Y-106803153D01*
X153784488Y-106919145D01*
X153986000Y-106959952D01*
X155386000Y-106959952D01*
X155574253Y-106924530D01*
X155747153Y-106813272D01*
X155863145Y-106643512D01*
X155903952Y-106442000D01*
X155903952Y-106314260D01*
X156019705Y-106362325D01*
X156398633Y-106362655D01*
X156748843Y-106217951D01*
X157017020Y-105950243D01*
X157162335Y-105600285D01*
X157162574Y-105326112D01*
X157241163Y-105208495D01*
X157251605Y-105156000D01*
X157829250Y-105156000D01*
X157988000Y-104997250D01*
X157988000Y-104013000D01*
X158750000Y-104013000D01*
X158750000Y-104997250D01*
X158908750Y-105156000D01*
X159511309Y-105156000D01*
X159744698Y-105059327D01*
X159923327Y-104880699D01*
X160020000Y-104647310D01*
X160020000Y-104171750D01*
X159861250Y-104013000D01*
X158750000Y-104013000D01*
X157988000Y-104013000D01*
X157968000Y-104013000D01*
X157968000Y-103251000D01*
X157988000Y-103251000D01*
X157988000Y-103231000D01*
X158750000Y-103231000D01*
X158750000Y-103251000D01*
X159861250Y-103251000D01*
X160020000Y-103092250D01*
X160020000Y-102616690D01*
X159923327Y-102383301D01*
X159805476Y-102265450D01*
X159862145Y-102182512D01*
X159902952Y-101981000D01*
X159902952Y-100203000D01*
X159867530Y-100014747D01*
X159756272Y-99841847D01*
X159729073Y-99823263D01*
X159746153Y-99812272D01*
X159862145Y-99642512D01*
X159902952Y-99441000D01*
X159902952Y-97663000D01*
X159867530Y-97474747D01*
X159756272Y-97301847D01*
X159729073Y-97283263D01*
X159746153Y-97272272D01*
X159862145Y-97102512D01*
X159902952Y-96901000D01*
X159902952Y-95123000D01*
X159867530Y-94934747D01*
X159756272Y-94761847D01*
X159729073Y-94743263D01*
X159746153Y-94732272D01*
X159862145Y-94562512D01*
X159902952Y-94361000D01*
X159902952Y-92583000D01*
X159867530Y-92394747D01*
X159805569Y-92298457D01*
X159923327Y-92180699D01*
X160020000Y-91947310D01*
X160020000Y-91471750D01*
X159861250Y-91313000D01*
X158750000Y-91313000D01*
X158750000Y-91333000D01*
X157988000Y-91333000D01*
X157988000Y-91313000D01*
X156876750Y-91313000D01*
X156718000Y-91471750D01*
X156718000Y-91947310D01*
X156814673Y-92180699D01*
X156932524Y-92298550D01*
X156875855Y-92381488D01*
X156835048Y-92583000D01*
X156835048Y-94361000D01*
X156870470Y-94549253D01*
X156981728Y-94722153D01*
X157008927Y-94740737D01*
X156991847Y-94751728D01*
X156875855Y-94921488D01*
X156835048Y-95123000D01*
X156835048Y-96901000D01*
X156870470Y-97089253D01*
X156981728Y-97262153D01*
X157008927Y-97280737D01*
X156991847Y-97291728D01*
X156875855Y-97461488D01*
X156835048Y-97663000D01*
X156835048Y-97931200D01*
X156763961Y-97759157D01*
X156496253Y-97490980D01*
X156380395Y-97442871D01*
X156382020Y-97441249D01*
X156527335Y-97091291D01*
X156527665Y-96712363D01*
X156382961Y-96362153D01*
X156115253Y-96093976D01*
X155765295Y-95948661D01*
X155668238Y-95948576D01*
X155668484Y-95666548D01*
X155523780Y-95316338D01*
X155256072Y-95048161D01*
X154906114Y-94902846D01*
X154527186Y-94902516D01*
X154176976Y-95047220D01*
X153908799Y-95314928D01*
X153797010Y-95584146D01*
X153797010Y-89916690D01*
X156718000Y-89916690D01*
X156718000Y-90392250D01*
X156876750Y-90551000D01*
X157988000Y-90551000D01*
X157988000Y-90531000D01*
X158750000Y-90531000D01*
X158750000Y-90551000D01*
X159861250Y-90551000D01*
X160020000Y-90392250D01*
X160020000Y-89916690D01*
X159923327Y-89683301D01*
X159805476Y-89565450D01*
X159862145Y-89482512D01*
X159902952Y-89281000D01*
X159902952Y-87503000D01*
X159867530Y-87314747D01*
X159756272Y-87141847D01*
X159729073Y-87123263D01*
X159746153Y-87112272D01*
X159862145Y-86942512D01*
X159902952Y-86741000D01*
X159902952Y-84963000D01*
X159867530Y-84774747D01*
X159756272Y-84601847D01*
X159586512Y-84485855D01*
X159385000Y-84445048D01*
X157353000Y-84445048D01*
X157164747Y-84480470D01*
X156991847Y-84591728D01*
X156875855Y-84761488D01*
X156835048Y-84963000D01*
X156835048Y-86741000D01*
X156870470Y-86929253D01*
X156981728Y-87102153D01*
X157008927Y-87120737D01*
X156991847Y-87131728D01*
X156875855Y-87301488D01*
X156835048Y-87503000D01*
X156835048Y-89281000D01*
X156870470Y-89469253D01*
X156932431Y-89565543D01*
X156814673Y-89683301D01*
X156718000Y-89916690D01*
X153797010Y-89916690D01*
X153797010Y-87893016D01*
X155135013Y-86555013D01*
X155272664Y-86349005D01*
X155321000Y-86106000D01*
X155321000Y-84786681D01*
X155369383Y-84766690D01*
X155709495Y-84427170D01*
X155893790Y-83983340D01*
X155894209Y-83502768D01*
X155710690Y-83058617D01*
X155371170Y-82718505D01*
X154927340Y-82534210D01*
X154446768Y-82533791D01*
X154002617Y-82717310D01*
X153662505Y-83056830D01*
X153478210Y-83500660D01*
X153477791Y-83981232D01*
X153661310Y-84425383D01*
X154000830Y-84765495D01*
X154051000Y-84786327D01*
X154051000Y-85842974D01*
X152908000Y-86985974D01*
X152908000Y-85979000D01*
X152859664Y-85735996D01*
X152781000Y-85618267D01*
X152781000Y-84786681D01*
X152829383Y-84766690D01*
X153169495Y-84427170D01*
X153353790Y-83983340D01*
X153354209Y-83502768D01*
X153170690Y-83058617D01*
X152831170Y-82718505D01*
X152387340Y-82534210D01*
X151906768Y-82533791D01*
X151462617Y-82717310D01*
X151122505Y-83056830D01*
X150938210Y-83500660D01*
X150937791Y-83981232D01*
X151121310Y-84425383D01*
X151460830Y-84765495D01*
X151511000Y-84786327D01*
X151511000Y-85852000D01*
X151559336Y-86095004D01*
X151638000Y-86212733D01*
X151638000Y-89024132D01*
X151615286Y-89001378D01*
X151218668Y-88836687D01*
X150789216Y-88836313D01*
X150392311Y-89000311D01*
X150088378Y-89303714D01*
X149923687Y-89700332D01*
X149923313Y-90129784D01*
X149987000Y-90283918D01*
X149987000Y-92327544D01*
X149808525Y-92253435D01*
X149429597Y-92253105D01*
X149079387Y-92397809D01*
X148893872Y-92583000D01*
X144526000Y-92583000D01*
X144282996Y-92631336D01*
X144076987Y-92768987D01*
X143764479Y-93081495D01*
X143521419Y-93081283D01*
X143171209Y-93225987D01*
X142903032Y-93493695D01*
X142757717Y-93843653D01*
X142757504Y-94088471D01*
X142298987Y-94546987D01*
X142161336Y-94752996D01*
X142113000Y-94996000D01*
X142113000Y-97349172D01*
X140223374Y-99238798D01*
X140271335Y-99123295D01*
X140271665Y-98744367D01*
X140126961Y-98394157D01*
X139859253Y-98125980D01*
X139509295Y-97980665D01*
X139264478Y-97980452D01*
X138394875Y-97110849D01*
X138500757Y-97154815D01*
X138879685Y-97155145D01*
X139229895Y-97010441D01*
X139498072Y-96742733D01*
X139643387Y-96392775D01*
X139643600Y-96147958D01*
X139895013Y-95896545D01*
X140032664Y-95690536D01*
X140081000Y-95447532D01*
X140081000Y-91374633D01*
X143573335Y-91374633D01*
X143718039Y-91724843D01*
X143985747Y-91993020D01*
X144335705Y-92138335D01*
X144714633Y-92138665D01*
X145064843Y-91993961D01*
X145333020Y-91726253D01*
X145478273Y-91376445D01*
X145730633Y-91376665D01*
X146080843Y-91231961D01*
X146349020Y-90964253D01*
X146494335Y-90614295D01*
X146494548Y-90369478D01*
X150055013Y-86809013D01*
X150192664Y-86603004D01*
X150241000Y-86360000D01*
X150241000Y-84786681D01*
X150289383Y-84766690D01*
X150629495Y-84427170D01*
X150813790Y-83983340D01*
X150814209Y-83502768D01*
X150630690Y-83058617D01*
X150291170Y-82718505D01*
X149847340Y-82534210D01*
X149366768Y-82533791D01*
X148922617Y-82717310D01*
X148582505Y-83056830D01*
X148398210Y-83500660D01*
X148397791Y-83981232D01*
X148581310Y-84425383D01*
X148920830Y-84765495D01*
X148971000Y-84786327D01*
X148971000Y-86096974D01*
X145596427Y-89471547D01*
X145353367Y-89471335D01*
X145161000Y-89550820D01*
X145161000Y-88655026D01*
X147515010Y-86301015D01*
X147515013Y-86301013D01*
X147597528Y-86177520D01*
X147652664Y-86095005D01*
X147701000Y-85852000D01*
X147701000Y-84786681D01*
X147749383Y-84766690D01*
X148089495Y-84427170D01*
X148273790Y-83983340D01*
X148274209Y-83502768D01*
X148090690Y-83058617D01*
X147751170Y-82718505D01*
X147307340Y-82534210D01*
X146826768Y-82533791D01*
X146382617Y-82717310D01*
X146042505Y-83056830D01*
X145858210Y-83500660D01*
X145857791Y-83981232D01*
X146041310Y-84425383D01*
X146380830Y-84765495D01*
X146431000Y-84786327D01*
X146431000Y-85588975D01*
X144076987Y-87942987D01*
X143939336Y-88148996D01*
X143891000Y-88392000D01*
X143891000Y-90474028D01*
X143718980Y-90645747D01*
X143573665Y-90995705D01*
X143573335Y-91374633D01*
X140081000Y-91374633D01*
X140081000Y-84786681D01*
X140129383Y-84766690D01*
X140469495Y-84427170D01*
X140653790Y-83983340D01*
X140653791Y-83981232D01*
X140777791Y-83981232D01*
X140961310Y-84425383D01*
X141300830Y-84765495D01*
X141744660Y-84949790D01*
X142225232Y-84950209D01*
X142669383Y-84766690D01*
X143009495Y-84427170D01*
X143193790Y-83983340D01*
X143193791Y-83981232D01*
X143317791Y-83981232D01*
X143501310Y-84425383D01*
X143840830Y-84765495D01*
X144284660Y-84949790D01*
X144765232Y-84950209D01*
X145209383Y-84766690D01*
X145549495Y-84427170D01*
X145733790Y-83983340D01*
X145734209Y-83502768D01*
X145550690Y-83058617D01*
X145211170Y-82718505D01*
X144767340Y-82534210D01*
X144286768Y-82533791D01*
X143842617Y-82717310D01*
X143502505Y-83056830D01*
X143318210Y-83500660D01*
X143317791Y-83981232D01*
X143193791Y-83981232D01*
X143194209Y-83502768D01*
X143010690Y-83058617D01*
X142671170Y-82718505D01*
X142227340Y-82534210D01*
X141746768Y-82533791D01*
X141302617Y-82717310D01*
X140962505Y-83056830D01*
X140778210Y-83500660D01*
X140777791Y-83981232D01*
X140653791Y-83981232D01*
X140654209Y-83502768D01*
X140470690Y-83058617D01*
X140131170Y-82718505D01*
X139687340Y-82534210D01*
X139206768Y-82533791D01*
X138762617Y-82717310D01*
X138422505Y-83056830D01*
X138238210Y-83500660D01*
X138237791Y-83981232D01*
X138421310Y-84425383D01*
X138760830Y-84765495D01*
X138811000Y-84786327D01*
X138811000Y-95184506D01*
X138745479Y-95250027D01*
X138502419Y-95249815D01*
X138152209Y-95394519D01*
X137884032Y-95662227D01*
X137738717Y-96012185D01*
X137738387Y-96391113D01*
X137782922Y-96498896D01*
X137541000Y-96256974D01*
X137541000Y-84786681D01*
X137589383Y-84766690D01*
X137929495Y-84427170D01*
X138113790Y-83983340D01*
X138114209Y-83502768D01*
X137930690Y-83058617D01*
X137591170Y-82718505D01*
X137147340Y-82534210D01*
X136666768Y-82533791D01*
X136222617Y-82717310D01*
X135882505Y-83056830D01*
X135698210Y-83500660D01*
X135697791Y-83981232D01*
X135881310Y-84425383D01*
X136220830Y-84765495D01*
X136271000Y-84786327D01*
X136271000Y-96510974D01*
X135001000Y-95240974D01*
X135001000Y-84786681D01*
X135049383Y-84766690D01*
X135389495Y-84427170D01*
X135573790Y-83983340D01*
X135574209Y-83502768D01*
X135390690Y-83058617D01*
X135051170Y-82718505D01*
X134607340Y-82534210D01*
X134126768Y-82533791D01*
X133682617Y-82717310D01*
X133342505Y-83056830D01*
X133158210Y-83500660D01*
X133157791Y-83981232D01*
X133341310Y-84425383D01*
X133680830Y-84765495D01*
X133731000Y-84786327D01*
X133731000Y-95504000D01*
X133779336Y-95747004D01*
X133916987Y-95953013D01*
X136969547Y-99005573D01*
X136969335Y-99248633D01*
X137053603Y-99452577D01*
X133164013Y-95562987D01*
X132958004Y-95425336D01*
X132715000Y-95377000D01*
X132216952Y-95377000D01*
X132216952Y-95123000D01*
X132181530Y-94934747D01*
X132070272Y-94761847D01*
X132043073Y-94743263D01*
X132060153Y-94732272D01*
X132176145Y-94562512D01*
X132216952Y-94361000D01*
X132216952Y-92583000D01*
X132181530Y-92394747D01*
X132119569Y-92298457D01*
X132237327Y-92180699D01*
X132334000Y-91947310D01*
X132334000Y-91471750D01*
X132175250Y-91313000D01*
X131064000Y-91313000D01*
X131064000Y-91333000D01*
X130302000Y-91333000D01*
X130302000Y-91313000D01*
X129190750Y-91313000D01*
X129032000Y-91471750D01*
X127177000Y-91471750D01*
X127177000Y-89916690D01*
X129032000Y-89916690D01*
X129032000Y-90392250D01*
X129190750Y-90551000D01*
X130302000Y-90551000D01*
X130302000Y-90531000D01*
X131064000Y-90531000D01*
X131064000Y-90551000D01*
X132175250Y-90551000D01*
X132334000Y-90392250D01*
X132334000Y-89916690D01*
X132237327Y-89683301D01*
X132119476Y-89565450D01*
X132176145Y-89482512D01*
X132216952Y-89281000D01*
X132216952Y-87503000D01*
X132181530Y-87314747D01*
X132070272Y-87141847D01*
X132043073Y-87123263D01*
X132060153Y-87112272D01*
X132176145Y-86942512D01*
X132216952Y-86741000D01*
X132216952Y-84963000D01*
X132181530Y-84774747D01*
X132070272Y-84601847D01*
X131900512Y-84485855D01*
X131699000Y-84445048D01*
X129667000Y-84445048D01*
X129478747Y-84480470D01*
X129305847Y-84591728D01*
X129189855Y-84761488D01*
X129149048Y-84963000D01*
X129149048Y-86741000D01*
X129184470Y-86929253D01*
X129295728Y-87102153D01*
X129322927Y-87120737D01*
X129305847Y-87131728D01*
X129189855Y-87301488D01*
X129149048Y-87503000D01*
X129149048Y-89281000D01*
X129184470Y-89469253D01*
X129246431Y-89565543D01*
X129128673Y-89683301D01*
X129032000Y-89916690D01*
X127177000Y-89916690D01*
X127177000Y-80060000D01*
X161875000Y-80060000D01*
X161875000Y-109424000D01*
X161875000Y-109424000D01*
G37*
X161875000Y-109424000D02*
X127177000Y-109424000D01*
X127177000Y-105981232D01*
X133157791Y-105981232D01*
X133341310Y-106425383D01*
X133680830Y-106765495D01*
X134124660Y-106949790D01*
X134605232Y-106950209D01*
X135049383Y-106766690D01*
X135389495Y-106427170D01*
X135573790Y-105983340D01*
X135573791Y-105981232D01*
X135697791Y-105981232D01*
X135881310Y-106425383D01*
X136220830Y-106765495D01*
X136664660Y-106949790D01*
X137145232Y-106950209D01*
X137589383Y-106766690D01*
X137929495Y-106427170D01*
X138113790Y-105983340D01*
X138113791Y-105981232D01*
X138237791Y-105981232D01*
X138421310Y-106425383D01*
X138760830Y-106765495D01*
X139204660Y-106949790D01*
X139685232Y-106950209D01*
X140129383Y-106766690D01*
X140469495Y-106427170D01*
X140653790Y-105983340D01*
X140653791Y-105981232D01*
X140777791Y-105981232D01*
X140961310Y-106425383D01*
X141300830Y-106765495D01*
X141744660Y-106949790D01*
X142225232Y-106950209D01*
X142669383Y-106766690D01*
X143009495Y-106427170D01*
X143193790Y-105983340D01*
X143193791Y-105981232D01*
X143317791Y-105981232D01*
X143501310Y-106425383D01*
X143840830Y-106765495D01*
X144284660Y-106949790D01*
X144765232Y-106950209D01*
X145209383Y-106766690D01*
X145549495Y-106427170D01*
X145733790Y-105983340D01*
X145734209Y-105502768D01*
X145550690Y-105058617D01*
X145211170Y-104718505D01*
X144767340Y-104534210D01*
X144286768Y-104533791D01*
X143842617Y-104717310D01*
X143502505Y-105056830D01*
X143318210Y-105500660D01*
X143317791Y-105981232D01*
X143193791Y-105981232D01*
X143194209Y-105502768D01*
X143010690Y-105058617D01*
X142671170Y-104718505D01*
X142227340Y-104534210D01*
X141746768Y-104533791D01*
X141302617Y-104717310D01*
X140962505Y-105056830D01*
X140778210Y-105500660D01*
X140777791Y-105981232D01*
X140653791Y-105981232D01*
X140654209Y-105502768D01*
X140470690Y-105058617D01*
X140131170Y-104718505D01*
X139687340Y-104534210D01*
X139206768Y-104533791D01*
X138762617Y-104717310D01*
X138422505Y-105056830D01*
X138238210Y-105500660D01*
X138237791Y-105981232D01*
X138113791Y-105981232D01*
X138114209Y-105502768D01*
X137930690Y-105058617D01*
X137591170Y-104718505D01*
X137147340Y-104534210D01*
X136666768Y-104533791D01*
X136222617Y-104717310D01*
X135882505Y-105056830D01*
X135698210Y-105500660D01*
X135697791Y-105981232D01*
X135573791Y-105981232D01*
X135574209Y-105502768D01*
X135390690Y-105058617D01*
X135051170Y-104718505D01*
X134607340Y-104534210D01*
X134126768Y-104533791D01*
X133682617Y-104717310D01*
X133342505Y-105056830D01*
X133158210Y-105500660D01*
X133157791Y-105981232D01*
X127177000Y-105981232D01*
X127177000Y-104171750D01*
X129032000Y-104171750D01*
X129032000Y-104647310D01*
X129128673Y-104880699D01*
X129307302Y-105059327D01*
X129540691Y-105156000D01*
X130143250Y-105156000D01*
X130302000Y-104997250D01*
X130302000Y-104013000D01*
X131064000Y-104013000D01*
X131064000Y-104997250D01*
X131222750Y-105156000D01*
X131825309Y-105156000D01*
X132058698Y-105059327D01*
X132237327Y-104880699D01*
X132334000Y-104647310D01*
X132334000Y-104171750D01*
X132175250Y-104013000D01*
X131064000Y-104013000D01*
X130302000Y-104013000D01*
X129190750Y-104013000D01*
X129032000Y-104171750D01*
X127177000Y-104171750D01*
X127177000Y-91471750D01*
X129032000Y-91471750D01*
X129032000Y-91947310D01*
X129128673Y-92180699D01*
X129246524Y-92298550D01*
X129189855Y-92381488D01*
X129149048Y-92583000D01*
X129149048Y-94361000D01*
X129184470Y-94549253D01*
X129295728Y-94722153D01*
X129322927Y-94740737D01*
X129305847Y-94751728D01*
X129189855Y-94921488D01*
X129149048Y-95123000D01*
X129149048Y-96901000D01*
X129184470Y-97089253D01*
X129295728Y-97262153D01*
X129322927Y-97280737D01*
X129305847Y-97291728D01*
X129189855Y-97461488D01*
X129149048Y-97663000D01*
X129149048Y-99441000D01*
X129184470Y-99629253D01*
X129295728Y-99802153D01*
X129322927Y-99820737D01*
X129305847Y-99831728D01*
X129189855Y-100001488D01*
X129149048Y-100203000D01*
X129149048Y-101981000D01*
X129184470Y-102169253D01*
X129246431Y-102265543D01*
X129128673Y-102383301D01*
X129032000Y-102616690D01*
X129032000Y-103092250D01*
X129190750Y-103251000D01*
X130302000Y-103251000D01*
X130302000Y-103231000D01*
X131064000Y-103231000D01*
X131064000Y-103251000D01*
X132175250Y-103251000D01*
X132334000Y-103092250D01*
X132334000Y-102616690D01*
X132237327Y-102383301D01*
X132119476Y-102265450D01*
X132176145Y-102182512D01*
X132216952Y-101981000D01*
X132216952Y-100203000D01*
X132181530Y-100014747D01*
X132070272Y-99841847D01*
X132043073Y-99823263D01*
X132060153Y-99812272D01*
X132176145Y-99642512D01*
X132216952Y-99441000D01*
X132216952Y-99187000D01*
X132578974Y-99187000D01*
X136583987Y-103192013D01*
X136789996Y-103329664D01*
X137033000Y-103378000D01*
X144131548Y-103378000D01*
X144303267Y-103550020D01*
X144653225Y-103695335D01*
X145032153Y-103695665D01*
X145382363Y-103550961D01*
X145650540Y-103283253D01*
X145795855Y-102933295D01*
X145796185Y-102554367D01*
X145651481Y-102204157D01*
X145383773Y-101935980D01*
X145033815Y-101790665D01*
X144654887Y-101790335D01*
X144304677Y-101935039D01*
X144131413Y-102108000D01*
X137296026Y-102108000D01*
X133291013Y-98102987D01*
X133085004Y-97965336D01*
X132842000Y-97917000D01*
X132216952Y-97917000D01*
X132216952Y-97663000D01*
X132181530Y-97474747D01*
X132070272Y-97301847D01*
X132043073Y-97283263D01*
X132060153Y-97272272D01*
X132176145Y-97102512D01*
X132216952Y-96901000D01*
X132216952Y-96647000D01*
X132451974Y-96647000D01*
X136622086Y-100817112D01*
X136828094Y-100954763D01*
X137071099Y-101003099D01*
X139992099Y-101003099D01*
X140235103Y-100954763D01*
X140441112Y-100817112D01*
X140587984Y-100670240D01*
X140670045Y-100868843D01*
X140937753Y-101137020D01*
X141287711Y-101282335D01*
X141666639Y-101282665D01*
X142016849Y-101137961D01*
X142285026Y-100870253D01*
X142430341Y-100520295D01*
X142430554Y-100275478D01*
X144213013Y-98493019D01*
X144350664Y-98287010D01*
X144399000Y-98044006D01*
X144399000Y-95961970D01*
X144571020Y-95790251D01*
X144716335Y-95440293D01*
X144716665Y-95061365D01*
X144571961Y-94711155D01*
X144476088Y-94615114D01*
X144517072Y-94574201D01*
X144662387Y-94224243D01*
X144662600Y-93979426D01*
X144789026Y-93853000D01*
X148918466Y-93853000D01*
X149077977Y-94012790D01*
X149427935Y-94158105D01*
X149806863Y-94158435D01*
X149987000Y-94084004D01*
X149987000Y-98094115D01*
X149765253Y-97871980D01*
X149415295Y-97726665D01*
X149036367Y-97726335D01*
X148686157Y-97871039D01*
X148417980Y-98138747D01*
X148272665Y-98488705D01*
X148272335Y-98867633D01*
X148417039Y-99217843D01*
X148590000Y-99391107D01*
X148590000Y-100320974D01*
X146616987Y-102293987D01*
X146479336Y-102499996D01*
X146431000Y-102743000D01*
X146431000Y-104697319D01*
X146382617Y-104717310D01*
X146042505Y-105056830D01*
X145858210Y-105500660D01*
X145857791Y-105981232D01*
X146041310Y-106425383D01*
X146380830Y-106765495D01*
X146824660Y-106949790D01*
X147305232Y-106950209D01*
X147749383Y-106766690D01*
X148089495Y-106427170D01*
X148273790Y-105983340D01*
X148274209Y-105502768D01*
X148090690Y-105058617D01*
X147751170Y-104718505D01*
X147701000Y-104697673D01*
X147701000Y-103006026D01*
X149674013Y-101033013D01*
X149811664Y-100827004D01*
X149860000Y-100584000D01*
X149860000Y-99390972D01*
X149987000Y-99264194D01*
X149987000Y-99314000D01*
X150064338Y-99702806D01*
X150284580Y-100032420D01*
X150614194Y-100252662D01*
X150995472Y-100328502D01*
X149156987Y-102166987D01*
X149019336Y-102372996D01*
X148971000Y-102616000D01*
X148971000Y-104697319D01*
X148922617Y-104717310D01*
X148582505Y-105056830D01*
X148398210Y-105500660D01*
X148397791Y-105981232D01*
X148581310Y-106425383D01*
X148920830Y-106765495D01*
X149364660Y-106949790D01*
X149845232Y-106950209D01*
X150289383Y-106766690D01*
X150629495Y-106427170D01*
X150813790Y-105983340D01*
X150814209Y-105502768D01*
X150630690Y-105058617D01*
X150291170Y-104718505D01*
X150241000Y-104697673D01*
X150241000Y-102879026D01*
X151511000Y-101609026D01*
X151511000Y-104697319D01*
X151462617Y-104717310D01*
X151122505Y-105056830D01*
X150938210Y-105500660D01*
X150937791Y-105981232D01*
X151121310Y-106425383D01*
X151460830Y-106765495D01*
X151904660Y-106949790D01*
X152385232Y-106950209D01*
X152829383Y-106766690D01*
X153169495Y-106427170D01*
X153353790Y-105983340D01*
X153354209Y-105502768D01*
X153170690Y-105058617D01*
X152831170Y-104718505D01*
X152781000Y-104697673D01*
X152781000Y-101863026D01*
X155321000Y-99323026D01*
X155321000Y-101844974D01*
X154236987Y-102928987D01*
X154099336Y-103134996D01*
X154051000Y-103378000D01*
X154051000Y-104524048D01*
X153986000Y-104524048D01*
X153797747Y-104559470D01*
X153624847Y-104670728D01*
X153508855Y-104840488D01*
X153468048Y-105042000D01*
X153468048Y-106442000D01*
X153503470Y-106630253D01*
X153614728Y-106803153D01*
X153784488Y-106919145D01*
X153986000Y-106959952D01*
X155386000Y-106959952D01*
X155574253Y-106924530D01*
X155747153Y-106813272D01*
X155863145Y-106643512D01*
X155903952Y-106442000D01*
X155903952Y-106314260D01*
X156019705Y-106362325D01*
X156398633Y-106362655D01*
X156748843Y-106217951D01*
X157017020Y-105950243D01*
X157162335Y-105600285D01*
X157162574Y-105326112D01*
X157241163Y-105208495D01*
X157251605Y-105156000D01*
X157829250Y-105156000D01*
X157988000Y-104997250D01*
X157988000Y-104013000D01*
X158750000Y-104013000D01*
X158750000Y-104997250D01*
X158908750Y-105156000D01*
X159511309Y-105156000D01*
X159744698Y-105059327D01*
X159923327Y-104880699D01*
X160020000Y-104647310D01*
X160020000Y-104171750D01*
X159861250Y-104013000D01*
X158750000Y-104013000D01*
X157988000Y-104013000D01*
X157968000Y-104013000D01*
X157968000Y-103251000D01*
X157988000Y-103251000D01*
X157988000Y-103231000D01*
X158750000Y-103231000D01*
X158750000Y-103251000D01*
X159861250Y-103251000D01*
X160020000Y-103092250D01*
X160020000Y-102616690D01*
X159923327Y-102383301D01*
X159805476Y-102265450D01*
X159862145Y-102182512D01*
X159902952Y-101981000D01*
X159902952Y-100203000D01*
X159867530Y-100014747D01*
X159756272Y-99841847D01*
X159729073Y-99823263D01*
X159746153Y-99812272D01*
X159862145Y-99642512D01*
X159902952Y-99441000D01*
X159902952Y-97663000D01*
X159867530Y-97474747D01*
X159756272Y-97301847D01*
X159729073Y-97283263D01*
X159746153Y-97272272D01*
X159862145Y-97102512D01*
X159902952Y-96901000D01*
X159902952Y-95123000D01*
X159867530Y-94934747D01*
X159756272Y-94761847D01*
X159729073Y-94743263D01*
X159746153Y-94732272D01*
X159862145Y-94562512D01*
X159902952Y-94361000D01*
X159902952Y-92583000D01*
X159867530Y-92394747D01*
X159805569Y-92298457D01*
X159923327Y-92180699D01*
X160020000Y-91947310D01*
X160020000Y-91471750D01*
X159861250Y-91313000D01*
X158750000Y-91313000D01*
X158750000Y-91333000D01*
X157988000Y-91333000D01*
X157988000Y-91313000D01*
X156876750Y-91313000D01*
X156718000Y-91471750D01*
X156718000Y-91947310D01*
X156814673Y-92180699D01*
X156932524Y-92298550D01*
X156875855Y-92381488D01*
X156835048Y-92583000D01*
X156835048Y-94361000D01*
X156870470Y-94549253D01*
X156981728Y-94722153D01*
X157008927Y-94740737D01*
X156991847Y-94751728D01*
X156875855Y-94921488D01*
X156835048Y-95123000D01*
X156835048Y-96901000D01*
X156870470Y-97089253D01*
X156981728Y-97262153D01*
X157008927Y-97280737D01*
X156991847Y-97291728D01*
X156875855Y-97461488D01*
X156835048Y-97663000D01*
X156835048Y-97931200D01*
X156763961Y-97759157D01*
X156496253Y-97490980D01*
X156380395Y-97442871D01*
X156382020Y-97441249D01*
X156527335Y-97091291D01*
X156527665Y-96712363D01*
X156382961Y-96362153D01*
X156115253Y-96093976D01*
X155765295Y-95948661D01*
X155668238Y-95948576D01*
X155668484Y-95666548D01*
X155523780Y-95316338D01*
X155256072Y-95048161D01*
X154906114Y-94902846D01*
X154527186Y-94902516D01*
X154176976Y-95047220D01*
X153908799Y-95314928D01*
X153797010Y-95584146D01*
X153797010Y-89916690D01*
X156718000Y-89916690D01*
X156718000Y-90392250D01*
X156876750Y-90551000D01*
X157988000Y-90551000D01*
X157988000Y-90531000D01*
X158750000Y-90531000D01*
X158750000Y-90551000D01*
X159861250Y-90551000D01*
X160020000Y-90392250D01*
X160020000Y-89916690D01*
X159923327Y-89683301D01*
X159805476Y-89565450D01*
X159862145Y-89482512D01*
X159902952Y-89281000D01*
X159902952Y-87503000D01*
X159867530Y-87314747D01*
X159756272Y-87141847D01*
X159729073Y-87123263D01*
X159746153Y-87112272D01*
X159862145Y-86942512D01*
X159902952Y-86741000D01*
X159902952Y-84963000D01*
X159867530Y-84774747D01*
X159756272Y-84601847D01*
X159586512Y-84485855D01*
X159385000Y-84445048D01*
X157353000Y-84445048D01*
X157164747Y-84480470D01*
X156991847Y-84591728D01*
X156875855Y-84761488D01*
X156835048Y-84963000D01*
X156835048Y-86741000D01*
X156870470Y-86929253D01*
X156981728Y-87102153D01*
X157008927Y-87120737D01*
X156991847Y-87131728D01*
X156875855Y-87301488D01*
X156835048Y-87503000D01*
X156835048Y-89281000D01*
X156870470Y-89469253D01*
X156932431Y-89565543D01*
X156814673Y-89683301D01*
X156718000Y-89916690D01*
X153797010Y-89916690D01*
X153797010Y-87893016D01*
X155135013Y-86555013D01*
X155272664Y-86349005D01*
X155321000Y-86106000D01*
X155321000Y-84786681D01*
X155369383Y-84766690D01*
X155709495Y-84427170D01*
X155893790Y-83983340D01*
X155894209Y-83502768D01*
X155710690Y-83058617D01*
X155371170Y-82718505D01*
X154927340Y-82534210D01*
X154446768Y-82533791D01*
X154002617Y-82717310D01*
X153662505Y-83056830D01*
X153478210Y-83500660D01*
X153477791Y-83981232D01*
X153661310Y-84425383D01*
X154000830Y-84765495D01*
X154051000Y-84786327D01*
X154051000Y-85842974D01*
X152908000Y-86985974D01*
X152908000Y-85979000D01*
X152859664Y-85735996D01*
X152781000Y-85618267D01*
X152781000Y-84786681D01*
X152829383Y-84766690D01*
X153169495Y-84427170D01*
X153353790Y-83983340D01*
X153354209Y-83502768D01*
X153170690Y-83058617D01*
X152831170Y-82718505D01*
X152387340Y-82534210D01*
X151906768Y-82533791D01*
X151462617Y-82717310D01*
X151122505Y-83056830D01*
X150938210Y-83500660D01*
X150937791Y-83981232D01*
X151121310Y-84425383D01*
X151460830Y-84765495D01*
X151511000Y-84786327D01*
X151511000Y-85852000D01*
X151559336Y-86095004D01*
X151638000Y-86212733D01*
X151638000Y-89024132D01*
X151615286Y-89001378D01*
X151218668Y-88836687D01*
X150789216Y-88836313D01*
X150392311Y-89000311D01*
X150088378Y-89303714D01*
X149923687Y-89700332D01*
X149923313Y-90129784D01*
X149987000Y-90283918D01*
X149987000Y-92327544D01*
X149808525Y-92253435D01*
X149429597Y-92253105D01*
X149079387Y-92397809D01*
X148893872Y-92583000D01*
X144526000Y-92583000D01*
X144282996Y-92631336D01*
X144076987Y-92768987D01*
X143764479Y-93081495D01*
X143521419Y-93081283D01*
X143171209Y-93225987D01*
X142903032Y-93493695D01*
X142757717Y-93843653D01*
X142757504Y-94088471D01*
X142298987Y-94546987D01*
X142161336Y-94752996D01*
X142113000Y-94996000D01*
X142113000Y-97349172D01*
X140223374Y-99238798D01*
X140271335Y-99123295D01*
X140271665Y-98744367D01*
X140126961Y-98394157D01*
X139859253Y-98125980D01*
X139509295Y-97980665D01*
X139264478Y-97980452D01*
X138394875Y-97110849D01*
X138500757Y-97154815D01*
X138879685Y-97155145D01*
X139229895Y-97010441D01*
X139498072Y-96742733D01*
X139643387Y-96392775D01*
X139643600Y-96147958D01*
X139895013Y-95896545D01*
X140032664Y-95690536D01*
X140081000Y-95447532D01*
X140081000Y-91374633D01*
X143573335Y-91374633D01*
X143718039Y-91724843D01*
X143985747Y-91993020D01*
X144335705Y-92138335D01*
X144714633Y-92138665D01*
X145064843Y-91993961D01*
X145333020Y-91726253D01*
X145478273Y-91376445D01*
X145730633Y-91376665D01*
X146080843Y-91231961D01*
X146349020Y-90964253D01*
X146494335Y-90614295D01*
X146494548Y-90369478D01*
X150055013Y-86809013D01*
X150192664Y-86603004D01*
X150241000Y-86360000D01*
X150241000Y-84786681D01*
X150289383Y-84766690D01*
X150629495Y-84427170D01*
X150813790Y-83983340D01*
X150814209Y-83502768D01*
X150630690Y-83058617D01*
X150291170Y-82718505D01*
X149847340Y-82534210D01*
X149366768Y-82533791D01*
X148922617Y-82717310D01*
X148582505Y-83056830D01*
X148398210Y-83500660D01*
X148397791Y-83981232D01*
X148581310Y-84425383D01*
X148920830Y-84765495D01*
X148971000Y-84786327D01*
X148971000Y-86096974D01*
X145596427Y-89471547D01*
X145353367Y-89471335D01*
X145161000Y-89550820D01*
X145161000Y-88655026D01*
X147515010Y-86301015D01*
X147515013Y-86301013D01*
X147597528Y-86177520D01*
X147652664Y-86095005D01*
X147701000Y-85852000D01*
X147701000Y-84786681D01*
X147749383Y-84766690D01*
X148089495Y-84427170D01*
X148273790Y-83983340D01*
X148274209Y-83502768D01*
X148090690Y-83058617D01*
X147751170Y-82718505D01*
X147307340Y-82534210D01*
X146826768Y-82533791D01*
X146382617Y-82717310D01*
X146042505Y-83056830D01*
X145858210Y-83500660D01*
X145857791Y-83981232D01*
X146041310Y-84425383D01*
X146380830Y-84765495D01*
X146431000Y-84786327D01*
X146431000Y-85588975D01*
X144076987Y-87942987D01*
X143939336Y-88148996D01*
X143891000Y-88392000D01*
X143891000Y-90474028D01*
X143718980Y-90645747D01*
X143573665Y-90995705D01*
X143573335Y-91374633D01*
X140081000Y-91374633D01*
X140081000Y-84786681D01*
X140129383Y-84766690D01*
X140469495Y-84427170D01*
X140653790Y-83983340D01*
X140653791Y-83981232D01*
X140777791Y-83981232D01*
X140961310Y-84425383D01*
X141300830Y-84765495D01*
X141744660Y-84949790D01*
X142225232Y-84950209D01*
X142669383Y-84766690D01*
X143009495Y-84427170D01*
X143193790Y-83983340D01*
X143193791Y-83981232D01*
X143317791Y-83981232D01*
X143501310Y-84425383D01*
X143840830Y-84765495D01*
X144284660Y-84949790D01*
X144765232Y-84950209D01*
X145209383Y-84766690D01*
X145549495Y-84427170D01*
X145733790Y-83983340D01*
X145734209Y-83502768D01*
X145550690Y-83058617D01*
X145211170Y-82718505D01*
X144767340Y-82534210D01*
X144286768Y-82533791D01*
X143842617Y-82717310D01*
X143502505Y-83056830D01*
X143318210Y-83500660D01*
X143317791Y-83981232D01*
X143193791Y-83981232D01*
X143194209Y-83502768D01*
X143010690Y-83058617D01*
X142671170Y-82718505D01*
X142227340Y-82534210D01*
X141746768Y-82533791D01*
X141302617Y-82717310D01*
X140962505Y-83056830D01*
X140778210Y-83500660D01*
X140777791Y-83981232D01*
X140653791Y-83981232D01*
X140654209Y-83502768D01*
X140470690Y-83058617D01*
X140131170Y-82718505D01*
X139687340Y-82534210D01*
X139206768Y-82533791D01*
X138762617Y-82717310D01*
X138422505Y-83056830D01*
X138238210Y-83500660D01*
X138237791Y-83981232D01*
X138421310Y-84425383D01*
X138760830Y-84765495D01*
X138811000Y-84786327D01*
X138811000Y-95184506D01*
X138745479Y-95250027D01*
X138502419Y-95249815D01*
X138152209Y-95394519D01*
X137884032Y-95662227D01*
X137738717Y-96012185D01*
X137738387Y-96391113D01*
X137782922Y-96498896D01*
X137541000Y-96256974D01*
X137541000Y-84786681D01*
X137589383Y-84766690D01*
X137929495Y-84427170D01*
X138113790Y-83983340D01*
X138114209Y-83502768D01*
X137930690Y-83058617D01*
X137591170Y-82718505D01*
X137147340Y-82534210D01*
X136666768Y-82533791D01*
X136222617Y-82717310D01*
X135882505Y-83056830D01*
X135698210Y-83500660D01*
X135697791Y-83981232D01*
X135881310Y-84425383D01*
X136220830Y-84765495D01*
X136271000Y-84786327D01*
X136271000Y-96510974D01*
X135001000Y-95240974D01*
X135001000Y-84786681D01*
X135049383Y-84766690D01*
X135389495Y-84427170D01*
X135573790Y-83983340D01*
X135574209Y-83502768D01*
X135390690Y-83058617D01*
X135051170Y-82718505D01*
X134607340Y-82534210D01*
X134126768Y-82533791D01*
X133682617Y-82717310D01*
X133342505Y-83056830D01*
X133158210Y-83500660D01*
X133157791Y-83981232D01*
X133341310Y-84425383D01*
X133680830Y-84765495D01*
X133731000Y-84786327D01*
X133731000Y-95504000D01*
X133779336Y-95747004D01*
X133916987Y-95953013D01*
X136969547Y-99005573D01*
X136969335Y-99248633D01*
X137053603Y-99452577D01*
X133164013Y-95562987D01*
X132958004Y-95425336D01*
X132715000Y-95377000D01*
X132216952Y-95377000D01*
X132216952Y-95123000D01*
X132181530Y-94934747D01*
X132070272Y-94761847D01*
X132043073Y-94743263D01*
X132060153Y-94732272D01*
X132176145Y-94562512D01*
X132216952Y-94361000D01*
X132216952Y-92583000D01*
X132181530Y-92394747D01*
X132119569Y-92298457D01*
X132237327Y-92180699D01*
X132334000Y-91947310D01*
X132334000Y-91471750D01*
X132175250Y-91313000D01*
X131064000Y-91313000D01*
X131064000Y-91333000D01*
X130302000Y-91333000D01*
X130302000Y-91313000D01*
X129190750Y-91313000D01*
X129032000Y-91471750D01*
X127177000Y-91471750D01*
X127177000Y-89916690D01*
X129032000Y-89916690D01*
X129032000Y-90392250D01*
X129190750Y-90551000D01*
X130302000Y-90551000D01*
X130302000Y-90531000D01*
X131064000Y-90531000D01*
X131064000Y-90551000D01*
X132175250Y-90551000D01*
X132334000Y-90392250D01*
X132334000Y-89916690D01*
X132237327Y-89683301D01*
X132119476Y-89565450D01*
X132176145Y-89482512D01*
X132216952Y-89281000D01*
X132216952Y-87503000D01*
X132181530Y-87314747D01*
X132070272Y-87141847D01*
X132043073Y-87123263D01*
X132060153Y-87112272D01*
X132176145Y-86942512D01*
X132216952Y-86741000D01*
X132216952Y-84963000D01*
X132181530Y-84774747D01*
X132070272Y-84601847D01*
X131900512Y-84485855D01*
X131699000Y-84445048D01*
X129667000Y-84445048D01*
X129478747Y-84480470D01*
X129305847Y-84591728D01*
X129189855Y-84761488D01*
X129149048Y-84963000D01*
X129149048Y-86741000D01*
X129184470Y-86929253D01*
X129295728Y-87102153D01*
X129322927Y-87120737D01*
X129305847Y-87131728D01*
X129189855Y-87301488D01*
X129149048Y-87503000D01*
X129149048Y-89281000D01*
X129184470Y-89469253D01*
X129246431Y-89565543D01*
X129128673Y-89683301D01*
X129032000Y-89916690D01*
X127177000Y-89916690D01*
X127177000Y-80060000D01*
X161875000Y-80060000D01*
X161875000Y-109424000D01*
M02*
