G04 #@! TF.GenerationSoftware,KiCad,Pcbnew,8.0.6*
G04 #@! TF.CreationDate,2025-01-27T08:56:50-05:00*
G04 #@! TF.ProjectId,disp,64697370-2e6b-4696-9361-645f70636258,v1.3.0*
G04 #@! TF.SameCoordinates,Original*
G04 #@! TF.FileFunction,Soldermask,Bot*
G04 #@! TF.FilePolarity,Negative*
%FSLAX46Y46*%
G04 Gerber Fmt 4.6, Leading zero omitted, Abs format (unit mm)*
G04 Created by KiCad (PCBNEW 8.0.6) date 2025-01-27 08:56:50*
%MOMM*%
%LPD*%
G01*
G04 APERTURE LIST*
G04 APERTURE END LIST*
G36*
X131157671Y-111178139D02*
G01*
X131290507Y-111247857D01*
X131402798Y-111347339D01*
X131488019Y-111470803D01*
X131541217Y-111611074D01*
X131559300Y-111760000D01*
X131541217Y-111908926D01*
X131488019Y-112049197D01*
X131402798Y-112172661D01*
X131290507Y-112272143D01*
X131157671Y-112341861D01*
X131012010Y-112377763D01*
X130861990Y-112377763D01*
X130716329Y-112341861D01*
X130583493Y-112272143D01*
X130471202Y-112172661D01*
X130385981Y-112049197D01*
X130332783Y-111908926D01*
X130314700Y-111760000D01*
X130332783Y-111611074D01*
X130385981Y-111470803D01*
X130471202Y-111347339D01*
X130583493Y-111247857D01*
X130716329Y-111178139D01*
X130861990Y-111142237D01*
X131012010Y-111142237D01*
X131157671Y-111178139D01*
G37*
G36*
X141190671Y-111178139D02*
G01*
X141323507Y-111247857D01*
X141435798Y-111347339D01*
X141521019Y-111470803D01*
X141574217Y-111611074D01*
X141592300Y-111760000D01*
X141574217Y-111908926D01*
X141521019Y-112049197D01*
X141435798Y-112172661D01*
X141323507Y-112272143D01*
X141190671Y-112341861D01*
X141045010Y-112377763D01*
X140894990Y-112377763D01*
X140749329Y-112341861D01*
X140616493Y-112272143D01*
X140504202Y-112172661D01*
X140418981Y-112049197D01*
X140365783Y-111908926D01*
X140347700Y-111760000D01*
X140365783Y-111611074D01*
X140418981Y-111470803D01*
X140504202Y-111347339D01*
X140616493Y-111247857D01*
X140749329Y-111178139D01*
X140894990Y-111142237D01*
X141045010Y-111142237D01*
X141190671Y-111178139D01*
G37*
G36*
X148810671Y-111178139D02*
G01*
X148943507Y-111247857D01*
X149055798Y-111347339D01*
X149141019Y-111470803D01*
X149194217Y-111611074D01*
X149212300Y-111760000D01*
X149194217Y-111908926D01*
X149141019Y-112049197D01*
X149055798Y-112172661D01*
X148943507Y-112272143D01*
X148810671Y-112341861D01*
X148665010Y-112377763D01*
X148514990Y-112377763D01*
X148369329Y-112341861D01*
X148236493Y-112272143D01*
X148124202Y-112172661D01*
X148038981Y-112049197D01*
X147985783Y-111908926D01*
X147967700Y-111760000D01*
X147985783Y-111611074D01*
X148038981Y-111470803D01*
X148124202Y-111347339D01*
X148236493Y-111247857D01*
X148369329Y-111178139D01*
X148514990Y-111142237D01*
X148665010Y-111142237D01*
X148810671Y-111178139D01*
G37*
G36*
X158843671Y-111178139D02*
G01*
X158976507Y-111247857D01*
X159088798Y-111347339D01*
X159174019Y-111470803D01*
X159227217Y-111611074D01*
X159245300Y-111760000D01*
X159227217Y-111908926D01*
X159174019Y-112049197D01*
X159088798Y-112172661D01*
X158976507Y-112272143D01*
X158843671Y-112341861D01*
X158698010Y-112377763D01*
X158547990Y-112377763D01*
X158402329Y-112341861D01*
X158269493Y-112272143D01*
X158157202Y-112172661D01*
X158071981Y-112049197D01*
X158018783Y-111908926D01*
X158000700Y-111760000D01*
X158018783Y-111611074D01*
X158071981Y-111470803D01*
X158157202Y-111347339D01*
X158269493Y-111247857D01*
X158402329Y-111178139D01*
X158547990Y-111142237D01*
X158698010Y-111142237D01*
X158843671Y-111178139D01*
G37*
G36*
X155558868Y-109217190D02*
G01*
X155567587Y-109221040D01*
X155575144Y-109222141D01*
X155622377Y-109245232D01*
X155659993Y-109261841D01*
X155663476Y-109265324D01*
X155664380Y-109265766D01*
X155734233Y-109335619D01*
X155734674Y-109336522D01*
X155738159Y-109340007D01*
X155754772Y-109377633D01*
X155777858Y-109424855D01*
X155778958Y-109432409D01*
X155782810Y-109441132D01*
X155790800Y-109510000D01*
X155790800Y-110610000D01*
X155782810Y-110678868D01*
X155778958Y-110687591D01*
X155777858Y-110695144D01*
X155754777Y-110742356D01*
X155738159Y-110779993D01*
X155734673Y-110783478D01*
X155734233Y-110784380D01*
X155664380Y-110854233D01*
X155663478Y-110854673D01*
X155659993Y-110858159D01*
X155622356Y-110874777D01*
X155575144Y-110897858D01*
X155567591Y-110898958D01*
X155558868Y-110902810D01*
X155490000Y-110910800D01*
X154390000Y-110910800D01*
X154321132Y-110902810D01*
X154312409Y-110898958D01*
X154304855Y-110897858D01*
X154257633Y-110874772D01*
X154220007Y-110858159D01*
X154216522Y-110854674D01*
X154215619Y-110854233D01*
X154145766Y-110784380D01*
X154145324Y-110783476D01*
X154141841Y-110779993D01*
X154125232Y-110742377D01*
X154102141Y-110695144D01*
X154101040Y-110687587D01*
X154097190Y-110678868D01*
X154089200Y-110610000D01*
X154089200Y-109510000D01*
X154097190Y-109441132D01*
X154101039Y-109432412D01*
X154102141Y-109424855D01*
X154125236Y-109377612D01*
X154141841Y-109340007D01*
X154145323Y-109336524D01*
X154145766Y-109335619D01*
X154215619Y-109265766D01*
X154216524Y-109265323D01*
X154220007Y-109261841D01*
X154257612Y-109245236D01*
X154304855Y-109222141D01*
X154312412Y-109221039D01*
X154321132Y-109217190D01*
X154390000Y-109209200D01*
X155490000Y-109209200D01*
X155558868Y-109217190D01*
G37*
G36*
X134882912Y-109250841D02*
G01*
X135045400Y-109323186D01*
X135189296Y-109427732D01*
X135308312Y-109559912D01*
X135397244Y-109713948D01*
X135452208Y-109883109D01*
X135470800Y-110060000D01*
X135452208Y-110236891D01*
X135397244Y-110406052D01*
X135308312Y-110560088D01*
X135189296Y-110692268D01*
X135045400Y-110796814D01*
X134882912Y-110869159D01*
X134708933Y-110906139D01*
X134531067Y-110906139D01*
X134357088Y-110869159D01*
X134194600Y-110796814D01*
X134050704Y-110692268D01*
X133931688Y-110560088D01*
X133842756Y-110406052D01*
X133787792Y-110236891D01*
X133769200Y-110060000D01*
X133787792Y-109883109D01*
X133842756Y-109713948D01*
X133931688Y-109559912D01*
X134050704Y-109427732D01*
X134194600Y-109323186D01*
X134357088Y-109250841D01*
X134531067Y-109213861D01*
X134708933Y-109213861D01*
X134882912Y-109250841D01*
G37*
G36*
X137422912Y-109250841D02*
G01*
X137585400Y-109323186D01*
X137729296Y-109427732D01*
X137848312Y-109559912D01*
X137937244Y-109713948D01*
X137992208Y-109883109D01*
X138010800Y-110060000D01*
X137992208Y-110236891D01*
X137937244Y-110406052D01*
X137848312Y-110560088D01*
X137729296Y-110692268D01*
X137585400Y-110796814D01*
X137422912Y-110869159D01*
X137248933Y-110906139D01*
X137071067Y-110906139D01*
X136897088Y-110869159D01*
X136734600Y-110796814D01*
X136590704Y-110692268D01*
X136471688Y-110560088D01*
X136382756Y-110406052D01*
X136327792Y-110236891D01*
X136309200Y-110060000D01*
X136327792Y-109883109D01*
X136382756Y-109713948D01*
X136471688Y-109559912D01*
X136590704Y-109427732D01*
X136734600Y-109323186D01*
X136897088Y-109250841D01*
X137071067Y-109213861D01*
X137248933Y-109213861D01*
X137422912Y-109250841D01*
G37*
G36*
X139962912Y-109250841D02*
G01*
X140125400Y-109323186D01*
X140269296Y-109427732D01*
X140388312Y-109559912D01*
X140477244Y-109713948D01*
X140532208Y-109883109D01*
X140550800Y-110060000D01*
X140532208Y-110236891D01*
X140477244Y-110406052D01*
X140388312Y-110560088D01*
X140269296Y-110692268D01*
X140125400Y-110796814D01*
X139962912Y-110869159D01*
X139788933Y-110906139D01*
X139611067Y-110906139D01*
X139437088Y-110869159D01*
X139274600Y-110796814D01*
X139130704Y-110692268D01*
X139011688Y-110560088D01*
X138922756Y-110406052D01*
X138867792Y-110236891D01*
X138849200Y-110060000D01*
X138867792Y-109883109D01*
X138922756Y-109713948D01*
X139011688Y-109559912D01*
X139130704Y-109427732D01*
X139274600Y-109323186D01*
X139437088Y-109250841D01*
X139611067Y-109213861D01*
X139788933Y-109213861D01*
X139962912Y-109250841D01*
G37*
G36*
X142502912Y-109250841D02*
G01*
X142665400Y-109323186D01*
X142809296Y-109427732D01*
X142928312Y-109559912D01*
X143017244Y-109713948D01*
X143072208Y-109883109D01*
X143090800Y-110060000D01*
X143072208Y-110236891D01*
X143017244Y-110406052D01*
X142928312Y-110560088D01*
X142809296Y-110692268D01*
X142665400Y-110796814D01*
X142502912Y-110869159D01*
X142328933Y-110906139D01*
X142151067Y-110906139D01*
X141977088Y-110869159D01*
X141814600Y-110796814D01*
X141670704Y-110692268D01*
X141551688Y-110560088D01*
X141462756Y-110406052D01*
X141407792Y-110236891D01*
X141389200Y-110060000D01*
X141407792Y-109883109D01*
X141462756Y-109713948D01*
X141551688Y-109559912D01*
X141670704Y-109427732D01*
X141814600Y-109323186D01*
X141977088Y-109250841D01*
X142151067Y-109213861D01*
X142328933Y-109213861D01*
X142502912Y-109250841D01*
G37*
G36*
X145042912Y-109250841D02*
G01*
X145205400Y-109323186D01*
X145349296Y-109427732D01*
X145468312Y-109559912D01*
X145557244Y-109713948D01*
X145612208Y-109883109D01*
X145630800Y-110060000D01*
X145612208Y-110236891D01*
X145557244Y-110406052D01*
X145468312Y-110560088D01*
X145349296Y-110692268D01*
X145205400Y-110796814D01*
X145042912Y-110869159D01*
X144868933Y-110906139D01*
X144691067Y-110906139D01*
X144517088Y-110869159D01*
X144354600Y-110796814D01*
X144210704Y-110692268D01*
X144091688Y-110560088D01*
X144002756Y-110406052D01*
X143947792Y-110236891D01*
X143929200Y-110060000D01*
X143947792Y-109883109D01*
X144002756Y-109713948D01*
X144091688Y-109559912D01*
X144210704Y-109427732D01*
X144354600Y-109323186D01*
X144517088Y-109250841D01*
X144691067Y-109213861D01*
X144868933Y-109213861D01*
X145042912Y-109250841D01*
G37*
G36*
X147582912Y-109250841D02*
G01*
X147745400Y-109323186D01*
X147889296Y-109427732D01*
X148008312Y-109559912D01*
X148097244Y-109713948D01*
X148152208Y-109883109D01*
X148170800Y-110060000D01*
X148152208Y-110236891D01*
X148097244Y-110406052D01*
X148008312Y-110560088D01*
X147889296Y-110692268D01*
X147745400Y-110796814D01*
X147582912Y-110869159D01*
X147408933Y-110906139D01*
X147231067Y-110906139D01*
X147057088Y-110869159D01*
X146894600Y-110796814D01*
X146750704Y-110692268D01*
X146631688Y-110560088D01*
X146542756Y-110406052D01*
X146487792Y-110236891D01*
X146469200Y-110060000D01*
X146487792Y-109883109D01*
X146542756Y-109713948D01*
X146631688Y-109559912D01*
X146750704Y-109427732D01*
X146894600Y-109323186D01*
X147057088Y-109250841D01*
X147231067Y-109213861D01*
X147408933Y-109213861D01*
X147582912Y-109250841D01*
G37*
G36*
X150122912Y-109250841D02*
G01*
X150285400Y-109323186D01*
X150429296Y-109427732D01*
X150548312Y-109559912D01*
X150637244Y-109713948D01*
X150692208Y-109883109D01*
X150710800Y-110060000D01*
X150692208Y-110236891D01*
X150637244Y-110406052D01*
X150548312Y-110560088D01*
X150429296Y-110692268D01*
X150285400Y-110796814D01*
X150122912Y-110869159D01*
X149948933Y-110906139D01*
X149771067Y-110906139D01*
X149597088Y-110869159D01*
X149434600Y-110796814D01*
X149290704Y-110692268D01*
X149171688Y-110560088D01*
X149082756Y-110406052D01*
X149027792Y-110236891D01*
X149009200Y-110060000D01*
X149027792Y-109883109D01*
X149082756Y-109713948D01*
X149171688Y-109559912D01*
X149290704Y-109427732D01*
X149434600Y-109323186D01*
X149597088Y-109250841D01*
X149771067Y-109213861D01*
X149948933Y-109213861D01*
X150122912Y-109250841D01*
G37*
G36*
X152662912Y-109250841D02*
G01*
X152825400Y-109323186D01*
X152969296Y-109427732D01*
X153088312Y-109559912D01*
X153177244Y-109713948D01*
X153232208Y-109883109D01*
X153250800Y-110060000D01*
X153232208Y-110236891D01*
X153177244Y-110406052D01*
X153088312Y-110560088D01*
X152969296Y-110692268D01*
X152825400Y-110796814D01*
X152662912Y-110869159D01*
X152488933Y-110906139D01*
X152311067Y-110906139D01*
X152137088Y-110869159D01*
X151974600Y-110796814D01*
X151830704Y-110692268D01*
X151711688Y-110560088D01*
X151622756Y-110406052D01*
X151567792Y-110236891D01*
X151549200Y-110060000D01*
X151567792Y-109883109D01*
X151622756Y-109713948D01*
X151711688Y-109559912D01*
X151830704Y-109427732D01*
X151974600Y-109323186D01*
X152137088Y-109250841D01*
X152311067Y-109213861D01*
X152488933Y-109213861D01*
X152662912Y-109250841D01*
G37*
G36*
X131972440Y-107014067D02*
G01*
X131988921Y-107025079D01*
X131999933Y-107041560D01*
X132003800Y-107061000D01*
X132003800Y-108839000D01*
X131999933Y-108858440D01*
X131988921Y-108874921D01*
X131972440Y-108885933D01*
X131953000Y-108889800D01*
X129921000Y-108889800D01*
X129901560Y-108885933D01*
X129885079Y-108874921D01*
X129874067Y-108858440D01*
X129870200Y-108839000D01*
X129870200Y-107061000D01*
X129874067Y-107041560D01*
X129885079Y-107025079D01*
X129901560Y-107014067D01*
X129921000Y-107010200D01*
X131953000Y-107010200D01*
X131972440Y-107014067D01*
G37*
G36*
X159658440Y-107014067D02*
G01*
X159674921Y-107025079D01*
X159685933Y-107041560D01*
X159689800Y-107061000D01*
X159689800Y-108839000D01*
X159685933Y-108858440D01*
X159674921Y-108874921D01*
X159658440Y-108885933D01*
X159639000Y-108889800D01*
X157607000Y-108889800D01*
X157587560Y-108885933D01*
X157571079Y-108874921D01*
X157560067Y-108858440D01*
X157556200Y-108839000D01*
X157556200Y-107061000D01*
X157560067Y-107041560D01*
X157571079Y-107025079D01*
X157587560Y-107014067D01*
X157607000Y-107010200D01*
X159639000Y-107010200D01*
X159658440Y-107014067D01*
G37*
G36*
X145132489Y-106570741D02*
G01*
X145168009Y-106570741D01*
X145196882Y-106579219D01*
X145225599Y-106583000D01*
X145264173Y-106598977D01*
X145303275Y-106610459D01*
X145323912Y-106623721D01*
X145344951Y-106632436D01*
X145383498Y-106662015D01*
X145421873Y-106686677D01*
X145434246Y-106700956D01*
X145447439Y-106711080D01*
X145481651Y-106755665D01*
X145514193Y-106793221D01*
X145519667Y-106805208D01*
X145526083Y-106813569D01*
X145551409Y-106874713D01*
X145572757Y-106921458D01*
X145573812Y-106928800D01*
X145575519Y-106932920D01*
X145587623Y-107024854D01*
X145592820Y-107061000D01*
X145587622Y-107097148D01*
X145575519Y-107189079D01*
X145573812Y-107193197D01*
X145572757Y-107200542D01*
X145551407Y-107247291D01*
X145526083Y-107308431D01*
X145519667Y-107316791D01*
X145514193Y-107328779D01*
X145481647Y-107366339D01*
X145447439Y-107410919D01*
X145434248Y-107421040D01*
X145421873Y-107435323D01*
X145383490Y-107459990D01*
X145344951Y-107489563D01*
X145323916Y-107498275D01*
X145303275Y-107511541D01*
X145264165Y-107523024D01*
X145225599Y-107538999D01*
X145196889Y-107542778D01*
X145168009Y-107551259D01*
X145132481Y-107551259D01*
X145097520Y-107555862D01*
X145062559Y-107551259D01*
X145027031Y-107551259D01*
X144998151Y-107542779D01*
X144969440Y-107538999D01*
X144930871Y-107523023D01*
X144891765Y-107511541D01*
X144871125Y-107498276D01*
X144850088Y-107489563D01*
X144811543Y-107459986D01*
X144773167Y-107435323D01*
X144760793Y-107421042D01*
X144747600Y-107410919D01*
X144713383Y-107366328D01*
X144680847Y-107328779D01*
X144675374Y-107316794D01*
X144668956Y-107308431D01*
X144643621Y-107247267D01*
X144622283Y-107200542D01*
X144621227Y-107193201D01*
X144619520Y-107189079D01*
X144607405Y-107097066D01*
X144602220Y-107061000D01*
X144607405Y-107024936D01*
X144619520Y-106932920D01*
X144621227Y-106928796D01*
X144622283Y-106921458D01*
X144643619Y-106874737D01*
X144668956Y-106813569D01*
X144675374Y-106805204D01*
X144680847Y-106793221D01*
X144713380Y-106755675D01*
X144747600Y-106711080D01*
X144760795Y-106700954D01*
X144773167Y-106686677D01*
X144811539Y-106662016D01*
X144850089Y-106632436D01*
X144871128Y-106623721D01*
X144891765Y-106610459D01*
X144930864Y-106598978D01*
X144969440Y-106583000D01*
X144998157Y-106579219D01*
X145027031Y-106570741D01*
X145062551Y-106570741D01*
X145097520Y-106566137D01*
X145132489Y-106570741D01*
G37*
G36*
X156117969Y-106062741D02*
G01*
X156153489Y-106062741D01*
X156182362Y-106071219D01*
X156211079Y-106075000D01*
X156249653Y-106090977D01*
X156288755Y-106102459D01*
X156309392Y-106115721D01*
X156330431Y-106124436D01*
X156368978Y-106154015D01*
X156407353Y-106178677D01*
X156419726Y-106192956D01*
X156432919Y-106203080D01*
X156467131Y-106247665D01*
X156499673Y-106285221D01*
X156505147Y-106297208D01*
X156511563Y-106305569D01*
X156536889Y-106366713D01*
X156558237Y-106413458D01*
X156559292Y-106420800D01*
X156560999Y-106424920D01*
X156573103Y-106516854D01*
X156578300Y-106553000D01*
X156573102Y-106589148D01*
X156560999Y-106681079D01*
X156559292Y-106685197D01*
X156558237Y-106692542D01*
X156536887Y-106739291D01*
X156511563Y-106800431D01*
X156505147Y-106808791D01*
X156499673Y-106820779D01*
X156467127Y-106858339D01*
X156432919Y-106902919D01*
X156419728Y-106913040D01*
X156407353Y-106927323D01*
X156368970Y-106951990D01*
X156330431Y-106981563D01*
X156309396Y-106990275D01*
X156288755Y-107003541D01*
X156249645Y-107015024D01*
X156211079Y-107030999D01*
X156182369Y-107034778D01*
X156153489Y-107043259D01*
X156117961Y-107043259D01*
X156083000Y-107047862D01*
X156048039Y-107043259D01*
X156012511Y-107043259D01*
X155983631Y-107034779D01*
X155954920Y-107030999D01*
X155916351Y-107015023D01*
X155877245Y-107003541D01*
X155856605Y-106990276D01*
X155835568Y-106981563D01*
X155797023Y-106951986D01*
X155758647Y-106927323D01*
X155746273Y-106913042D01*
X155733080Y-106902919D01*
X155698863Y-106858328D01*
X155666327Y-106820779D01*
X155660854Y-106808794D01*
X155654436Y-106800431D01*
X155629101Y-106739267D01*
X155607763Y-106692542D01*
X155606707Y-106685201D01*
X155605000Y-106681079D01*
X155592885Y-106589066D01*
X155587700Y-106553000D01*
X155592885Y-106516936D01*
X155605000Y-106424920D01*
X155606707Y-106420796D01*
X155607763Y-106413458D01*
X155629099Y-106366737D01*
X155654436Y-106305569D01*
X155660854Y-106297204D01*
X155666327Y-106285221D01*
X155698860Y-106247675D01*
X155733080Y-106203080D01*
X155746275Y-106192954D01*
X155758647Y-106178677D01*
X155797019Y-106154016D01*
X155835569Y-106124436D01*
X155856608Y-106115721D01*
X155877245Y-106102459D01*
X155916344Y-106090978D01*
X155954920Y-106075000D01*
X155983637Y-106071219D01*
X156012511Y-106062741D01*
X156048031Y-106062741D01*
X156083000Y-106058137D01*
X156117969Y-106062741D01*
G37*
G36*
X131972440Y-104474067D02*
G01*
X131988921Y-104485079D01*
X131999933Y-104501560D01*
X132003800Y-104521000D01*
X132003800Y-106299000D01*
X131999933Y-106318440D01*
X131988921Y-106334921D01*
X131972440Y-106345933D01*
X131953000Y-106349800D01*
X129921000Y-106349800D01*
X129901560Y-106345933D01*
X129885079Y-106334921D01*
X129874067Y-106318440D01*
X129870200Y-106299000D01*
X129870200Y-104521000D01*
X129874067Y-104501560D01*
X129885079Y-104485079D01*
X129901560Y-104474067D01*
X129921000Y-104470200D01*
X131953000Y-104470200D01*
X131972440Y-104474067D01*
G37*
G36*
X159658440Y-104474067D02*
G01*
X159674921Y-104485079D01*
X159685933Y-104501560D01*
X159689800Y-104521000D01*
X159689800Y-106299000D01*
X159685933Y-106318440D01*
X159674921Y-106334921D01*
X159658440Y-106345933D01*
X159639000Y-106349800D01*
X157607000Y-106349800D01*
X157587560Y-106345933D01*
X157571079Y-106334921D01*
X157560067Y-106318440D01*
X157556200Y-106299000D01*
X157556200Y-104521000D01*
X157560067Y-104501560D01*
X157571079Y-104485079D01*
X157587560Y-104474067D01*
X157607000Y-104470200D01*
X159639000Y-104470200D01*
X159658440Y-104474067D01*
G37*
G36*
X145762671Y-104828139D02*
G01*
X145895507Y-104897857D01*
X146007798Y-104997339D01*
X146093019Y-105120803D01*
X146146217Y-105261074D01*
X146164300Y-105410000D01*
X146146217Y-105558926D01*
X146093019Y-105699197D01*
X146007798Y-105822661D01*
X145895507Y-105922143D01*
X145762671Y-105991861D01*
X145617010Y-106027763D01*
X145466990Y-106027763D01*
X145321329Y-105991861D01*
X145188493Y-105922143D01*
X145076202Y-105822661D01*
X144990981Y-105699197D01*
X144937783Y-105558926D01*
X144919700Y-105410000D01*
X144937783Y-105261074D01*
X144990981Y-105120803D01*
X145076202Y-104997339D01*
X145188493Y-104897857D01*
X145321329Y-104828139D01*
X145466990Y-104792237D01*
X145617010Y-104792237D01*
X145762671Y-104828139D01*
G37*
G36*
X141766975Y-104157741D02*
G01*
X141802495Y-104157741D01*
X141831368Y-104166219D01*
X141860085Y-104170000D01*
X141898659Y-104185977D01*
X141937761Y-104197459D01*
X141958398Y-104210721D01*
X141979437Y-104219436D01*
X142017984Y-104249015D01*
X142056359Y-104273677D01*
X142068732Y-104287956D01*
X142081925Y-104298080D01*
X142116137Y-104342665D01*
X142148679Y-104380221D01*
X142154153Y-104392208D01*
X142160569Y-104400569D01*
X142185895Y-104461713D01*
X142207243Y-104508458D01*
X142208298Y-104515800D01*
X142210005Y-104519920D01*
X142222109Y-104611854D01*
X142227306Y-104648000D01*
X142222108Y-104684148D01*
X142210005Y-104776079D01*
X142208298Y-104780197D01*
X142207243Y-104787542D01*
X142185893Y-104834291D01*
X142160569Y-104895431D01*
X142154153Y-104903791D01*
X142148679Y-104915779D01*
X142116133Y-104953339D01*
X142081925Y-104997919D01*
X142068734Y-105008040D01*
X142056359Y-105022323D01*
X142017976Y-105046990D01*
X141979437Y-105076563D01*
X141958402Y-105085275D01*
X141937761Y-105098541D01*
X141898651Y-105110024D01*
X141860085Y-105125999D01*
X141831375Y-105129778D01*
X141802495Y-105138259D01*
X141766967Y-105138259D01*
X141732006Y-105142862D01*
X141697045Y-105138259D01*
X141661517Y-105138259D01*
X141632637Y-105129779D01*
X141603926Y-105125999D01*
X141565357Y-105110023D01*
X141526251Y-105098541D01*
X141505611Y-105085276D01*
X141484574Y-105076563D01*
X141446029Y-105046986D01*
X141407653Y-105022323D01*
X141395279Y-105008042D01*
X141382086Y-104997919D01*
X141347869Y-104953328D01*
X141315333Y-104915779D01*
X141309860Y-104903794D01*
X141303442Y-104895431D01*
X141278107Y-104834267D01*
X141256769Y-104787542D01*
X141255713Y-104780201D01*
X141254006Y-104776079D01*
X141241891Y-104684066D01*
X141236706Y-104648000D01*
X141241891Y-104611936D01*
X141254006Y-104519920D01*
X141255713Y-104515796D01*
X141256769Y-104508458D01*
X141278105Y-104461737D01*
X141303442Y-104400569D01*
X141309860Y-104392204D01*
X141315333Y-104380221D01*
X141347866Y-104342675D01*
X141382086Y-104298080D01*
X141395281Y-104287954D01*
X141407653Y-104273677D01*
X141446025Y-104249016D01*
X141484575Y-104219436D01*
X141505614Y-104210721D01*
X141526251Y-104197459D01*
X141565350Y-104185978D01*
X141603926Y-104170000D01*
X141632643Y-104166219D01*
X141661517Y-104157741D01*
X141697037Y-104157741D01*
X141732006Y-104153137D01*
X141766975Y-104157741D01*
G37*
G36*
X155927469Y-103649741D02*
G01*
X155962989Y-103649741D01*
X155991862Y-103658219D01*
X156020579Y-103662000D01*
X156059153Y-103677977D01*
X156098255Y-103689459D01*
X156118892Y-103702721D01*
X156139931Y-103711436D01*
X156178478Y-103741015D01*
X156216853Y-103765677D01*
X156229226Y-103779956D01*
X156242419Y-103790080D01*
X156276631Y-103834665D01*
X156309173Y-103872221D01*
X156314647Y-103884208D01*
X156321063Y-103892569D01*
X156346389Y-103953713D01*
X156367737Y-104000458D01*
X156368792Y-104007800D01*
X156370499Y-104011920D01*
X156382603Y-104103854D01*
X156387800Y-104140000D01*
X156382602Y-104176148D01*
X156370499Y-104268079D01*
X156368792Y-104272197D01*
X156367737Y-104279542D01*
X156346387Y-104326291D01*
X156321063Y-104387431D01*
X156314647Y-104395791D01*
X156309173Y-104407779D01*
X156276627Y-104445339D01*
X156242419Y-104489919D01*
X156229228Y-104500040D01*
X156216853Y-104514323D01*
X156178470Y-104538990D01*
X156139931Y-104568563D01*
X156118896Y-104577275D01*
X156098255Y-104590541D01*
X156059145Y-104602024D01*
X156020579Y-104617999D01*
X155991869Y-104621778D01*
X155962989Y-104630259D01*
X155927461Y-104630259D01*
X155892500Y-104634862D01*
X155857539Y-104630259D01*
X155822011Y-104630259D01*
X155793131Y-104621779D01*
X155764420Y-104617999D01*
X155725851Y-104602023D01*
X155686745Y-104590541D01*
X155666105Y-104577276D01*
X155645068Y-104568563D01*
X155606523Y-104538986D01*
X155568147Y-104514323D01*
X155555773Y-104500042D01*
X155542580Y-104489919D01*
X155508363Y-104445328D01*
X155475827Y-104407779D01*
X155470354Y-104395794D01*
X155463936Y-104387431D01*
X155438601Y-104326267D01*
X155417263Y-104279542D01*
X155416207Y-104272201D01*
X155414500Y-104268079D01*
X155402385Y-104176066D01*
X155397200Y-104140000D01*
X155402385Y-104103936D01*
X155414500Y-104011920D01*
X155416207Y-104007796D01*
X155417263Y-104000458D01*
X155438599Y-103953737D01*
X155463936Y-103892569D01*
X155470354Y-103884204D01*
X155475827Y-103872221D01*
X155508360Y-103834675D01*
X155542580Y-103790080D01*
X155555775Y-103779954D01*
X155568147Y-103765677D01*
X155606519Y-103741016D01*
X155645069Y-103711436D01*
X155666108Y-103702721D01*
X155686745Y-103689459D01*
X155725844Y-103677978D01*
X155764420Y-103662000D01*
X155793137Y-103658219D01*
X155822011Y-103649741D01*
X155857531Y-103649741D01*
X155892500Y-103645137D01*
X155927469Y-103649741D01*
G37*
G36*
X147667671Y-103304139D02*
G01*
X147800507Y-103373857D01*
X147912798Y-103473339D01*
X147998019Y-103596803D01*
X148051217Y-103737074D01*
X148069300Y-103886000D01*
X148051217Y-104034926D01*
X147998019Y-104175197D01*
X147912798Y-104298661D01*
X147800507Y-104398143D01*
X147667671Y-104467861D01*
X147522010Y-104503763D01*
X147371990Y-104503763D01*
X147226329Y-104467861D01*
X147093493Y-104398143D01*
X146981202Y-104298661D01*
X146895981Y-104175197D01*
X146842783Y-104034926D01*
X146824700Y-103886000D01*
X146842783Y-103737074D01*
X146895981Y-103596803D01*
X146981202Y-103473339D01*
X147093493Y-103373857D01*
X147226329Y-103304139D01*
X147371990Y-103268237D01*
X147522010Y-103268237D01*
X147667671Y-103304139D01*
G37*
G36*
X138210969Y-102887741D02*
G01*
X138246489Y-102887741D01*
X138275362Y-102896219D01*
X138304079Y-102900000D01*
X138342653Y-102915977D01*
X138381755Y-102927459D01*
X138402392Y-102940721D01*
X138423431Y-102949436D01*
X138461978Y-102979015D01*
X138500353Y-103003677D01*
X138512726Y-103017956D01*
X138525919Y-103028080D01*
X138560131Y-103072665D01*
X138592673Y-103110221D01*
X138598147Y-103122208D01*
X138604563Y-103130569D01*
X138629889Y-103191713D01*
X138651237Y-103238458D01*
X138652292Y-103245800D01*
X138653999Y-103249920D01*
X138666103Y-103341854D01*
X138671300Y-103378000D01*
X138666102Y-103414148D01*
X138653999Y-103506079D01*
X138652292Y-103510197D01*
X138651237Y-103517542D01*
X138629887Y-103564291D01*
X138604563Y-103625431D01*
X138598147Y-103633791D01*
X138592673Y-103645779D01*
X138560127Y-103683339D01*
X138525919Y-103727919D01*
X138512728Y-103738040D01*
X138500353Y-103752323D01*
X138461970Y-103776990D01*
X138423431Y-103806563D01*
X138402396Y-103815275D01*
X138381755Y-103828541D01*
X138342645Y-103840024D01*
X138304079Y-103855999D01*
X138275369Y-103859778D01*
X138246489Y-103868259D01*
X138210961Y-103868259D01*
X138176000Y-103872862D01*
X138141039Y-103868259D01*
X138105511Y-103868259D01*
X138076631Y-103859779D01*
X138047920Y-103855999D01*
X138009351Y-103840023D01*
X137970245Y-103828541D01*
X137949605Y-103815276D01*
X137928568Y-103806563D01*
X137890023Y-103776986D01*
X137851647Y-103752323D01*
X137839273Y-103738042D01*
X137826080Y-103727919D01*
X137791863Y-103683328D01*
X137759327Y-103645779D01*
X137753854Y-103633794D01*
X137747436Y-103625431D01*
X137722101Y-103564267D01*
X137700763Y-103517542D01*
X137699707Y-103510201D01*
X137698000Y-103506079D01*
X137685885Y-103414066D01*
X137680700Y-103378000D01*
X137685885Y-103341936D01*
X137698000Y-103249920D01*
X137699707Y-103245796D01*
X137700763Y-103238458D01*
X137722099Y-103191737D01*
X137747436Y-103130569D01*
X137753854Y-103122204D01*
X137759327Y-103110221D01*
X137791860Y-103072675D01*
X137826080Y-103028080D01*
X137839275Y-103017954D01*
X137851647Y-103003677D01*
X137890019Y-102979016D01*
X137928569Y-102949436D01*
X137949608Y-102940721D01*
X137970245Y-102927459D01*
X138009344Y-102915978D01*
X138047920Y-102900000D01*
X138076637Y-102896219D01*
X138105511Y-102887741D01*
X138141031Y-102887741D01*
X138176000Y-102883137D01*
X138210969Y-102887741D01*
G37*
G36*
X131972440Y-101934067D02*
G01*
X131988921Y-101945079D01*
X131999933Y-101961560D01*
X132003800Y-101981000D01*
X132003800Y-103759000D01*
X131999933Y-103778440D01*
X131988921Y-103794921D01*
X131972440Y-103805933D01*
X131953000Y-103809800D01*
X129921000Y-103809800D01*
X129901560Y-103805933D01*
X129885079Y-103794921D01*
X129874067Y-103778440D01*
X129870200Y-103759000D01*
X129870200Y-101981000D01*
X129874067Y-101961560D01*
X129885079Y-101945079D01*
X129901560Y-101934067D01*
X129921000Y-101930200D01*
X131953000Y-101930200D01*
X131972440Y-101934067D01*
G37*
G36*
X159658440Y-101934067D02*
G01*
X159674921Y-101945079D01*
X159685933Y-101961560D01*
X159689800Y-101981000D01*
X159689800Y-103759000D01*
X159685933Y-103778440D01*
X159674921Y-103794921D01*
X159658440Y-103805933D01*
X159639000Y-103809800D01*
X157607000Y-103809800D01*
X157587560Y-103805933D01*
X157571079Y-103794921D01*
X157560067Y-103778440D01*
X157556200Y-103759000D01*
X157556200Y-101981000D01*
X157560067Y-101961560D01*
X157571079Y-101945079D01*
X157587560Y-101934067D01*
X157607000Y-101930200D01*
X159639000Y-101930200D01*
X159658440Y-101934067D01*
G37*
G36*
X139607969Y-102760741D02*
G01*
X139643489Y-102760741D01*
X139672362Y-102769219D01*
X139701079Y-102773000D01*
X139739653Y-102788977D01*
X139778755Y-102800459D01*
X139799392Y-102813721D01*
X139820431Y-102822436D01*
X139858978Y-102852015D01*
X139897353Y-102876677D01*
X139909726Y-102890956D01*
X139922919Y-102901080D01*
X139957131Y-102945665D01*
X139989673Y-102983221D01*
X139995147Y-102995208D01*
X140001563Y-103003569D01*
X140026889Y-103064713D01*
X140048237Y-103111458D01*
X140049292Y-103118800D01*
X140050999Y-103122920D01*
X140063103Y-103214854D01*
X140068300Y-103251000D01*
X140063102Y-103287148D01*
X140050999Y-103379079D01*
X140049292Y-103383197D01*
X140048237Y-103390542D01*
X140026887Y-103437291D01*
X140001563Y-103498431D01*
X139995147Y-103506791D01*
X139989673Y-103518779D01*
X139957127Y-103556339D01*
X139922919Y-103600919D01*
X139909728Y-103611040D01*
X139897353Y-103625323D01*
X139858970Y-103649990D01*
X139820431Y-103679563D01*
X139799396Y-103688275D01*
X139778755Y-103701541D01*
X139739645Y-103713024D01*
X139701079Y-103728999D01*
X139672369Y-103732778D01*
X139643489Y-103741259D01*
X139607961Y-103741259D01*
X139573000Y-103745862D01*
X139538039Y-103741259D01*
X139502511Y-103741259D01*
X139473631Y-103732779D01*
X139444920Y-103728999D01*
X139406351Y-103713023D01*
X139367245Y-103701541D01*
X139346605Y-103688276D01*
X139325568Y-103679563D01*
X139287023Y-103649986D01*
X139248647Y-103625323D01*
X139236273Y-103611042D01*
X139223080Y-103600919D01*
X139188863Y-103556328D01*
X139156327Y-103518779D01*
X139150854Y-103506794D01*
X139144436Y-103498431D01*
X139119101Y-103437267D01*
X139097763Y-103390542D01*
X139096707Y-103383201D01*
X139095000Y-103379079D01*
X139082885Y-103287066D01*
X139077700Y-103251000D01*
X139082885Y-103214936D01*
X139095000Y-103122920D01*
X139096707Y-103118796D01*
X139097763Y-103111458D01*
X139119099Y-103064737D01*
X139144436Y-103003569D01*
X139150854Y-102995204D01*
X139156327Y-102983221D01*
X139188860Y-102945675D01*
X139223080Y-102901080D01*
X139236275Y-102890954D01*
X139248647Y-102876677D01*
X139287019Y-102852016D01*
X139325569Y-102822436D01*
X139346608Y-102813721D01*
X139367245Y-102800459D01*
X139406344Y-102788978D01*
X139444920Y-102773000D01*
X139473637Y-102769219D01*
X139502511Y-102760741D01*
X139538031Y-102760741D01*
X139573000Y-102756137D01*
X139607969Y-102760741D01*
G37*
G36*
X149513969Y-102506741D02*
G01*
X149549489Y-102506741D01*
X149578362Y-102515219D01*
X149607079Y-102519000D01*
X149645653Y-102534977D01*
X149684755Y-102546459D01*
X149705392Y-102559721D01*
X149726431Y-102568436D01*
X149764978Y-102598015D01*
X149803353Y-102622677D01*
X149815726Y-102636956D01*
X149828919Y-102647080D01*
X149863131Y-102691665D01*
X149895673Y-102729221D01*
X149901147Y-102741208D01*
X149907563Y-102749569D01*
X149932889Y-102810713D01*
X149954237Y-102857458D01*
X149955292Y-102864800D01*
X149956999Y-102868920D01*
X149969103Y-102960854D01*
X149974300Y-102997000D01*
X149969102Y-103033148D01*
X149956999Y-103125079D01*
X149955292Y-103129197D01*
X149954237Y-103136542D01*
X149932887Y-103183291D01*
X149907563Y-103244431D01*
X149901147Y-103252791D01*
X149895673Y-103264779D01*
X149863127Y-103302339D01*
X149828919Y-103346919D01*
X149815728Y-103357040D01*
X149803353Y-103371323D01*
X149764970Y-103395990D01*
X149726431Y-103425563D01*
X149705396Y-103434275D01*
X149684755Y-103447541D01*
X149645645Y-103459024D01*
X149607079Y-103474999D01*
X149578369Y-103478778D01*
X149549489Y-103487259D01*
X149513961Y-103487259D01*
X149479000Y-103491862D01*
X149444039Y-103487259D01*
X149408511Y-103487259D01*
X149379631Y-103478779D01*
X149350920Y-103474999D01*
X149312351Y-103459023D01*
X149273245Y-103447541D01*
X149252605Y-103434276D01*
X149231568Y-103425563D01*
X149193023Y-103395986D01*
X149154647Y-103371323D01*
X149142273Y-103357042D01*
X149129080Y-103346919D01*
X149094863Y-103302328D01*
X149062327Y-103264779D01*
X149056854Y-103252794D01*
X149050436Y-103244431D01*
X149025101Y-103183267D01*
X149003763Y-103136542D01*
X149002707Y-103129201D01*
X149001000Y-103125079D01*
X148988885Y-103033066D01*
X148983700Y-102997000D01*
X148988885Y-102960936D01*
X149001000Y-102868920D01*
X149002707Y-102864796D01*
X149003763Y-102857458D01*
X149025099Y-102810737D01*
X149050436Y-102749569D01*
X149056854Y-102741204D01*
X149062327Y-102729221D01*
X149094860Y-102691675D01*
X149129080Y-102647080D01*
X149142275Y-102636954D01*
X149154647Y-102622677D01*
X149193019Y-102598016D01*
X149231569Y-102568436D01*
X149252608Y-102559721D01*
X149273245Y-102546459D01*
X149312344Y-102534978D01*
X149350920Y-102519000D01*
X149379637Y-102515219D01*
X149408511Y-102506741D01*
X149444031Y-102506741D01*
X149479000Y-102502137D01*
X149513969Y-102506741D01*
G37*
G36*
X151164969Y-101871741D02*
G01*
X151200489Y-101871741D01*
X151229362Y-101880219D01*
X151258079Y-101884000D01*
X151296653Y-101899977D01*
X151335755Y-101911459D01*
X151356392Y-101924721D01*
X151377431Y-101933436D01*
X151415978Y-101963015D01*
X151454353Y-101987677D01*
X151466726Y-102001956D01*
X151479919Y-102012080D01*
X151514131Y-102056665D01*
X151546673Y-102094221D01*
X151552147Y-102106208D01*
X151558563Y-102114569D01*
X151583889Y-102175713D01*
X151605237Y-102222458D01*
X151606292Y-102229800D01*
X151607999Y-102233920D01*
X151620103Y-102325854D01*
X151625300Y-102362000D01*
X151620102Y-102398148D01*
X151607999Y-102490079D01*
X151606292Y-102494197D01*
X151605237Y-102501542D01*
X151583887Y-102548291D01*
X151558563Y-102609431D01*
X151552147Y-102617791D01*
X151546673Y-102629779D01*
X151514127Y-102667339D01*
X151479919Y-102711919D01*
X151466728Y-102722040D01*
X151454353Y-102736323D01*
X151415970Y-102760990D01*
X151377431Y-102790563D01*
X151356396Y-102799275D01*
X151335755Y-102812541D01*
X151296645Y-102824024D01*
X151258079Y-102839999D01*
X151229369Y-102843778D01*
X151200489Y-102852259D01*
X151164961Y-102852259D01*
X151130000Y-102856862D01*
X151095039Y-102852259D01*
X151059511Y-102852259D01*
X151030631Y-102843779D01*
X151001920Y-102839999D01*
X150963351Y-102824023D01*
X150924245Y-102812541D01*
X150903605Y-102799276D01*
X150882568Y-102790563D01*
X150844023Y-102760986D01*
X150805647Y-102736323D01*
X150793273Y-102722042D01*
X150780080Y-102711919D01*
X150745863Y-102667328D01*
X150713327Y-102629779D01*
X150707854Y-102617794D01*
X150701436Y-102609431D01*
X150676101Y-102548267D01*
X150654763Y-102501542D01*
X150653707Y-102494201D01*
X150652000Y-102490079D01*
X150639885Y-102398066D01*
X150634700Y-102362000D01*
X150639885Y-102325936D01*
X150652000Y-102233920D01*
X150653707Y-102229796D01*
X150654763Y-102222458D01*
X150676099Y-102175737D01*
X150701436Y-102114569D01*
X150707854Y-102106204D01*
X150713327Y-102094221D01*
X150745860Y-102056675D01*
X150780080Y-102012080D01*
X150793275Y-102001954D01*
X150805647Y-101987677D01*
X150844019Y-101963016D01*
X150882569Y-101933436D01*
X150903608Y-101924721D01*
X150924245Y-101911459D01*
X150963344Y-101899978D01*
X151001920Y-101884000D01*
X151030637Y-101880219D01*
X151059511Y-101871741D01*
X151095031Y-101871741D01*
X151130000Y-101867137D01*
X151164969Y-101871741D01*
G37*
G36*
X152434969Y-101871741D02*
G01*
X152470489Y-101871741D01*
X152499362Y-101880219D01*
X152528079Y-101884000D01*
X152566653Y-101899977D01*
X152605755Y-101911459D01*
X152626392Y-101924721D01*
X152647431Y-101933436D01*
X152685978Y-101963015D01*
X152724353Y-101987677D01*
X152736726Y-102001956D01*
X152749919Y-102012080D01*
X152784131Y-102056665D01*
X152816673Y-102094221D01*
X152822147Y-102106208D01*
X152828563Y-102114569D01*
X152853889Y-102175713D01*
X152875237Y-102222458D01*
X152876292Y-102229800D01*
X152877999Y-102233920D01*
X152890103Y-102325854D01*
X152895300Y-102362000D01*
X152890102Y-102398148D01*
X152877999Y-102490079D01*
X152876292Y-102494197D01*
X152875237Y-102501542D01*
X152853887Y-102548291D01*
X152828563Y-102609431D01*
X152822147Y-102617791D01*
X152816673Y-102629779D01*
X152784127Y-102667339D01*
X152749919Y-102711919D01*
X152736728Y-102722040D01*
X152724353Y-102736323D01*
X152685970Y-102760990D01*
X152647431Y-102790563D01*
X152626396Y-102799275D01*
X152605755Y-102812541D01*
X152566645Y-102824024D01*
X152528079Y-102839999D01*
X152499369Y-102843778D01*
X152470489Y-102852259D01*
X152434961Y-102852259D01*
X152400000Y-102856862D01*
X152365039Y-102852259D01*
X152329511Y-102852259D01*
X152300631Y-102843779D01*
X152271920Y-102839999D01*
X152233351Y-102824023D01*
X152194245Y-102812541D01*
X152173605Y-102799276D01*
X152152568Y-102790563D01*
X152114023Y-102760986D01*
X152075647Y-102736323D01*
X152063273Y-102722042D01*
X152050080Y-102711919D01*
X152015863Y-102667328D01*
X151983327Y-102629779D01*
X151977854Y-102617794D01*
X151971436Y-102609431D01*
X151946101Y-102548267D01*
X151924763Y-102501542D01*
X151923707Y-102494201D01*
X151922000Y-102490079D01*
X151909885Y-102398066D01*
X151904700Y-102362000D01*
X151909885Y-102325936D01*
X151922000Y-102233920D01*
X151923707Y-102229796D01*
X151924763Y-102222458D01*
X151946099Y-102175737D01*
X151971436Y-102114569D01*
X151977854Y-102106204D01*
X151983327Y-102094221D01*
X152015860Y-102056675D01*
X152050080Y-102012080D01*
X152063275Y-102001954D01*
X152075647Y-101987677D01*
X152114019Y-101963016D01*
X152152569Y-101933436D01*
X152173608Y-101924721D01*
X152194245Y-101911459D01*
X152233344Y-101899978D01*
X152271920Y-101884000D01*
X152300637Y-101880219D01*
X152329511Y-101871741D01*
X152365031Y-101871741D01*
X152400000Y-101867137D01*
X152434969Y-101871741D01*
G37*
G36*
X155609969Y-100855741D02*
G01*
X155645489Y-100855741D01*
X155674362Y-100864219D01*
X155703079Y-100868000D01*
X155741653Y-100883977D01*
X155780755Y-100895459D01*
X155801392Y-100908721D01*
X155822431Y-100917436D01*
X155860978Y-100947015D01*
X155899353Y-100971677D01*
X155911726Y-100985956D01*
X155924919Y-100996080D01*
X155959131Y-101040665D01*
X155991673Y-101078221D01*
X155997147Y-101090208D01*
X156003563Y-101098569D01*
X156028889Y-101159713D01*
X156050237Y-101206458D01*
X156051292Y-101213800D01*
X156052999Y-101217920D01*
X156065103Y-101309854D01*
X156070300Y-101346000D01*
X156065102Y-101382148D01*
X156052999Y-101474079D01*
X156051292Y-101478197D01*
X156050237Y-101485542D01*
X156028887Y-101532291D01*
X156003563Y-101593431D01*
X155997147Y-101601791D01*
X155991673Y-101613779D01*
X155959127Y-101651339D01*
X155924919Y-101695919D01*
X155911728Y-101706040D01*
X155899353Y-101720323D01*
X155860970Y-101744990D01*
X155822431Y-101774563D01*
X155801396Y-101783275D01*
X155780755Y-101796541D01*
X155741645Y-101808024D01*
X155703079Y-101823999D01*
X155674369Y-101827778D01*
X155645489Y-101836259D01*
X155609961Y-101836259D01*
X155575000Y-101840862D01*
X155540039Y-101836259D01*
X155504511Y-101836259D01*
X155475631Y-101827779D01*
X155446920Y-101823999D01*
X155408351Y-101808023D01*
X155369245Y-101796541D01*
X155348605Y-101783276D01*
X155327568Y-101774563D01*
X155289023Y-101744986D01*
X155250647Y-101720323D01*
X155238273Y-101706042D01*
X155225080Y-101695919D01*
X155190863Y-101651328D01*
X155158327Y-101613779D01*
X155152854Y-101601794D01*
X155146436Y-101593431D01*
X155121101Y-101532267D01*
X155099763Y-101485542D01*
X155098707Y-101478201D01*
X155097000Y-101474079D01*
X155084885Y-101382066D01*
X155079700Y-101346000D01*
X155084885Y-101309936D01*
X155097000Y-101217920D01*
X155098707Y-101213796D01*
X155099763Y-101206458D01*
X155121099Y-101159737D01*
X155146436Y-101098569D01*
X155152854Y-101090204D01*
X155158327Y-101078221D01*
X155190860Y-101040675D01*
X155225080Y-100996080D01*
X155238275Y-100985954D01*
X155250647Y-100971677D01*
X155289019Y-100947016D01*
X155327569Y-100917436D01*
X155348608Y-100908721D01*
X155369245Y-100895459D01*
X155408344Y-100883978D01*
X155446920Y-100868000D01*
X155475637Y-100864219D01*
X155504511Y-100855741D01*
X155540031Y-100855741D01*
X155575000Y-100851137D01*
X155609969Y-100855741D01*
G37*
G36*
X131972440Y-99394067D02*
G01*
X131988921Y-99405079D01*
X131999933Y-99421560D01*
X132003800Y-99441000D01*
X132003800Y-101219000D01*
X131999933Y-101238440D01*
X131988921Y-101254921D01*
X131972440Y-101265933D01*
X131953000Y-101269800D01*
X129921000Y-101269800D01*
X129901560Y-101265933D01*
X129885079Y-101254921D01*
X129874067Y-101238440D01*
X129870200Y-101219000D01*
X129870200Y-99441000D01*
X129874067Y-99421560D01*
X129885079Y-99405079D01*
X129901560Y-99394067D01*
X129921000Y-99390200D01*
X131953000Y-99390200D01*
X131972440Y-99394067D01*
G37*
G36*
X159658440Y-99394067D02*
G01*
X159674921Y-99405079D01*
X159685933Y-99421560D01*
X159689800Y-99441000D01*
X159689800Y-101219000D01*
X159685933Y-101238440D01*
X159674921Y-101254921D01*
X159658440Y-101265933D01*
X159639000Y-101269800D01*
X157607000Y-101269800D01*
X157587560Y-101265933D01*
X157571079Y-101254921D01*
X157560067Y-101238440D01*
X157556200Y-101219000D01*
X157556200Y-99441000D01*
X157560067Y-99421560D01*
X157571079Y-99405079D01*
X157587560Y-99394067D01*
X157607000Y-99390200D01*
X159639000Y-99390200D01*
X159658440Y-99394067D01*
G37*
G36*
X138845969Y-100220741D02*
G01*
X138881489Y-100220741D01*
X138910362Y-100229219D01*
X138939079Y-100233000D01*
X138977653Y-100248977D01*
X139016755Y-100260459D01*
X139037392Y-100273721D01*
X139058431Y-100282436D01*
X139096978Y-100312015D01*
X139135353Y-100336677D01*
X139147726Y-100350956D01*
X139160919Y-100361080D01*
X139195131Y-100405665D01*
X139227673Y-100443221D01*
X139233147Y-100455208D01*
X139239563Y-100463569D01*
X139264889Y-100524713D01*
X139286237Y-100571458D01*
X139287292Y-100578800D01*
X139288999Y-100582920D01*
X139301103Y-100674854D01*
X139306300Y-100711000D01*
X139301102Y-100747148D01*
X139288999Y-100839079D01*
X139287292Y-100843197D01*
X139286237Y-100850542D01*
X139264887Y-100897291D01*
X139239563Y-100958431D01*
X139233147Y-100966791D01*
X139227673Y-100978779D01*
X139195127Y-101016339D01*
X139160919Y-101060919D01*
X139147728Y-101071040D01*
X139135353Y-101085323D01*
X139096970Y-101109990D01*
X139058431Y-101139563D01*
X139037396Y-101148275D01*
X139016755Y-101161541D01*
X138977645Y-101173024D01*
X138939079Y-101188999D01*
X138910369Y-101192778D01*
X138881489Y-101201259D01*
X138845961Y-101201259D01*
X138811000Y-101205862D01*
X138776039Y-101201259D01*
X138740511Y-101201259D01*
X138711631Y-101192779D01*
X138682920Y-101188999D01*
X138644351Y-101173023D01*
X138605245Y-101161541D01*
X138584605Y-101148276D01*
X138563568Y-101139563D01*
X138525023Y-101109986D01*
X138486647Y-101085323D01*
X138474273Y-101071042D01*
X138461080Y-101060919D01*
X138426863Y-101016328D01*
X138394327Y-100978779D01*
X138388854Y-100966794D01*
X138382436Y-100958431D01*
X138357101Y-100897267D01*
X138335763Y-100850542D01*
X138334707Y-100843201D01*
X138333000Y-100839079D01*
X138320885Y-100747066D01*
X138315700Y-100711000D01*
X138320885Y-100674936D01*
X138333000Y-100582920D01*
X138334707Y-100578796D01*
X138335763Y-100571458D01*
X138357099Y-100524737D01*
X138382436Y-100463569D01*
X138388854Y-100455204D01*
X138394327Y-100443221D01*
X138426860Y-100405675D01*
X138461080Y-100361080D01*
X138474275Y-100350954D01*
X138486647Y-100336677D01*
X138525019Y-100312016D01*
X138563569Y-100282436D01*
X138584608Y-100273721D01*
X138605245Y-100260459D01*
X138644344Y-100248978D01*
X138682920Y-100233000D01*
X138711637Y-100229219D01*
X138740511Y-100220741D01*
X138776031Y-100220741D01*
X138811000Y-100216137D01*
X138845969Y-100220741D01*
G37*
G36*
X154720969Y-99458741D02*
G01*
X154756489Y-99458741D01*
X154785362Y-99467219D01*
X154814079Y-99471000D01*
X154852653Y-99486977D01*
X154891755Y-99498459D01*
X154912392Y-99511721D01*
X154933431Y-99520436D01*
X154971978Y-99550015D01*
X155010353Y-99574677D01*
X155022726Y-99588956D01*
X155035919Y-99599080D01*
X155070131Y-99643665D01*
X155102673Y-99681221D01*
X155108147Y-99693208D01*
X155114563Y-99701569D01*
X155139889Y-99762713D01*
X155161237Y-99809458D01*
X155162292Y-99816800D01*
X155163999Y-99820920D01*
X155176103Y-99912854D01*
X155181300Y-99949000D01*
X155176102Y-99985148D01*
X155163999Y-100077079D01*
X155162292Y-100081197D01*
X155161237Y-100088542D01*
X155139887Y-100135291D01*
X155114563Y-100196431D01*
X155108147Y-100204791D01*
X155102673Y-100216779D01*
X155070127Y-100254339D01*
X155035919Y-100298919D01*
X155022728Y-100309040D01*
X155010353Y-100323323D01*
X154971970Y-100347990D01*
X154933431Y-100377563D01*
X154912396Y-100386275D01*
X154891755Y-100399541D01*
X154852645Y-100411024D01*
X154814079Y-100426999D01*
X154785369Y-100430778D01*
X154756489Y-100439259D01*
X154720961Y-100439259D01*
X154686000Y-100443862D01*
X154651039Y-100439259D01*
X154615511Y-100439259D01*
X154586631Y-100430779D01*
X154557920Y-100426999D01*
X154519351Y-100411023D01*
X154480245Y-100399541D01*
X154459605Y-100386276D01*
X154438568Y-100377563D01*
X154400023Y-100347986D01*
X154361647Y-100323323D01*
X154349273Y-100309042D01*
X154336080Y-100298919D01*
X154301863Y-100254328D01*
X154269327Y-100216779D01*
X154263854Y-100204794D01*
X154257436Y-100196431D01*
X154232101Y-100135267D01*
X154210763Y-100088542D01*
X154209707Y-100081201D01*
X154208000Y-100077079D01*
X154195885Y-99985066D01*
X154190700Y-99949000D01*
X154195885Y-99912936D01*
X154208000Y-99820920D01*
X154209707Y-99816796D01*
X154210763Y-99809458D01*
X154232099Y-99762737D01*
X154257436Y-99701569D01*
X154263854Y-99693204D01*
X154269327Y-99681221D01*
X154301860Y-99643675D01*
X154336080Y-99599080D01*
X154349275Y-99588954D01*
X154361647Y-99574677D01*
X154400019Y-99550016D01*
X154438569Y-99520436D01*
X154459608Y-99511721D01*
X154480245Y-99498459D01*
X154519344Y-99486978D01*
X154557920Y-99471000D01*
X154586637Y-99467219D01*
X154615511Y-99458741D01*
X154651031Y-99458741D01*
X154686000Y-99454137D01*
X154720969Y-99458741D01*
G37*
G36*
X144052969Y-99077739D02*
G01*
X144088489Y-99077739D01*
X144117362Y-99086217D01*
X144146079Y-99089998D01*
X144184653Y-99105975D01*
X144223755Y-99117457D01*
X144244392Y-99130719D01*
X144265431Y-99139434D01*
X144303978Y-99169013D01*
X144342353Y-99193675D01*
X144354726Y-99207954D01*
X144367919Y-99218078D01*
X144402131Y-99262663D01*
X144434673Y-99300219D01*
X144440147Y-99312206D01*
X144446563Y-99320567D01*
X144471889Y-99381711D01*
X144493237Y-99428456D01*
X144494292Y-99435798D01*
X144495999Y-99439918D01*
X144508103Y-99531852D01*
X144513300Y-99567998D01*
X144508102Y-99604146D01*
X144495999Y-99696077D01*
X144494292Y-99700195D01*
X144493237Y-99707540D01*
X144471887Y-99754289D01*
X144446563Y-99815429D01*
X144440147Y-99823789D01*
X144434673Y-99835777D01*
X144402127Y-99873337D01*
X144367919Y-99917917D01*
X144354728Y-99928038D01*
X144342353Y-99942321D01*
X144303970Y-99966988D01*
X144265431Y-99996561D01*
X144244396Y-100005273D01*
X144223755Y-100018539D01*
X144184645Y-100030022D01*
X144146079Y-100045997D01*
X144117369Y-100049776D01*
X144088489Y-100058257D01*
X144052961Y-100058257D01*
X144018000Y-100062860D01*
X143983039Y-100058257D01*
X143947511Y-100058257D01*
X143918631Y-100049777D01*
X143889920Y-100045997D01*
X143851351Y-100030021D01*
X143812245Y-100018539D01*
X143791605Y-100005274D01*
X143770568Y-99996561D01*
X143732023Y-99966984D01*
X143693647Y-99942321D01*
X143681273Y-99928040D01*
X143668080Y-99917917D01*
X143633863Y-99873326D01*
X143601327Y-99835777D01*
X143595854Y-99823792D01*
X143589436Y-99815429D01*
X143564101Y-99754265D01*
X143542763Y-99707540D01*
X143541707Y-99700199D01*
X143540000Y-99696077D01*
X143527885Y-99604064D01*
X143522700Y-99567998D01*
X143527885Y-99531934D01*
X143540000Y-99439918D01*
X143541707Y-99435794D01*
X143542763Y-99428456D01*
X143564099Y-99381735D01*
X143589436Y-99320567D01*
X143595854Y-99312202D01*
X143601327Y-99300219D01*
X143633860Y-99262673D01*
X143668080Y-99218078D01*
X143681275Y-99207952D01*
X143693647Y-99193675D01*
X143732019Y-99169014D01*
X143770569Y-99139434D01*
X143791608Y-99130719D01*
X143812245Y-99117457D01*
X143851344Y-99105976D01*
X143889920Y-99089998D01*
X143918637Y-99086217D01*
X143947511Y-99077739D01*
X143983031Y-99077739D01*
X144018000Y-99073135D01*
X144052969Y-99077739D01*
G37*
G36*
X133443671Y-98478139D02*
G01*
X133576507Y-98547857D01*
X133688798Y-98647339D01*
X133774019Y-98770803D01*
X133827217Y-98911074D01*
X133845300Y-99060000D01*
X133827217Y-99208926D01*
X133774019Y-99349197D01*
X133688798Y-99472661D01*
X133576507Y-99572143D01*
X133443671Y-99641861D01*
X133298010Y-99677763D01*
X133147990Y-99677763D01*
X133002329Y-99641861D01*
X132869493Y-99572143D01*
X132757202Y-99472661D01*
X132671981Y-99349197D01*
X132618783Y-99208926D01*
X132600700Y-99060000D01*
X132618783Y-98911074D01*
X132671981Y-98770803D01*
X132757202Y-98647339D01*
X132869493Y-98547857D01*
X133002329Y-98478139D01*
X133147990Y-98442237D01*
X133298010Y-98442237D01*
X133443671Y-98478139D01*
G37*
G36*
X143999021Y-97861689D02*
G01*
X144034541Y-97861689D01*
X144063414Y-97870167D01*
X144092131Y-97873948D01*
X144130705Y-97889925D01*
X144169807Y-97901407D01*
X144190444Y-97914669D01*
X144211483Y-97923384D01*
X144250030Y-97952963D01*
X144288405Y-97977625D01*
X144300778Y-97991904D01*
X144313971Y-98002028D01*
X144348183Y-98046613D01*
X144380725Y-98084169D01*
X144386199Y-98096156D01*
X144392615Y-98104517D01*
X144417941Y-98165661D01*
X144439289Y-98212406D01*
X144440344Y-98219748D01*
X144442051Y-98223868D01*
X144454155Y-98315802D01*
X144459352Y-98351948D01*
X144454154Y-98388096D01*
X144442051Y-98480027D01*
X144440344Y-98484145D01*
X144439289Y-98491490D01*
X144417939Y-98538239D01*
X144392615Y-98599379D01*
X144386199Y-98607739D01*
X144380725Y-98619727D01*
X144348179Y-98657287D01*
X144313971Y-98701867D01*
X144300780Y-98711988D01*
X144288405Y-98726271D01*
X144250022Y-98750938D01*
X144211483Y-98780511D01*
X144190448Y-98789223D01*
X144169807Y-98802489D01*
X144130697Y-98813972D01*
X144092131Y-98829947D01*
X144063421Y-98833726D01*
X144034541Y-98842207D01*
X143999013Y-98842207D01*
X143964052Y-98846810D01*
X143929091Y-98842207D01*
X143893563Y-98842207D01*
X143864683Y-98833727D01*
X143835972Y-98829947D01*
X143797403Y-98813971D01*
X143758297Y-98802489D01*
X143737657Y-98789224D01*
X143716620Y-98780511D01*
X143678075Y-98750934D01*
X143639699Y-98726271D01*
X143627325Y-98711990D01*
X143614132Y-98701867D01*
X143579915Y-98657276D01*
X143547379Y-98619727D01*
X143541906Y-98607742D01*
X143535488Y-98599379D01*
X143510153Y-98538215D01*
X143488815Y-98491490D01*
X143487759Y-98484149D01*
X143486052Y-98480027D01*
X143473937Y-98388014D01*
X143468752Y-98351948D01*
X143473937Y-98315884D01*
X143486052Y-98223868D01*
X143487759Y-98219744D01*
X143488815Y-98212406D01*
X143510151Y-98165685D01*
X143535488Y-98104517D01*
X143541906Y-98096152D01*
X143547379Y-98084169D01*
X143579912Y-98046623D01*
X143614132Y-98002028D01*
X143627327Y-97991902D01*
X143639699Y-97977625D01*
X143678071Y-97952964D01*
X143716621Y-97923384D01*
X143737660Y-97914669D01*
X143758297Y-97901407D01*
X143797396Y-97889926D01*
X143835972Y-97873948D01*
X143864689Y-97870167D01*
X143893563Y-97861689D01*
X143929083Y-97861689D01*
X143964052Y-97857085D01*
X143999021Y-97861689D01*
G37*
G36*
X131972440Y-96854067D02*
G01*
X131988921Y-96865079D01*
X131999933Y-96881560D01*
X132003800Y-96901000D01*
X132003800Y-98679000D01*
X131999933Y-98698440D01*
X131988921Y-98714921D01*
X131972440Y-98725933D01*
X131953000Y-98729800D01*
X129921000Y-98729800D01*
X129901560Y-98725933D01*
X129885079Y-98714921D01*
X129874067Y-98698440D01*
X129870200Y-98679000D01*
X129870200Y-96901000D01*
X129874067Y-96881560D01*
X129885079Y-96865079D01*
X129901560Y-96854067D01*
X129921000Y-96850200D01*
X131953000Y-96850200D01*
X131972440Y-96854067D01*
G37*
G36*
X159658440Y-96854067D02*
G01*
X159674921Y-96865079D01*
X159685933Y-96881560D01*
X159689800Y-96901000D01*
X159689800Y-98679000D01*
X159685933Y-98698440D01*
X159674921Y-98714921D01*
X159658440Y-98725933D01*
X159639000Y-98729800D01*
X157607000Y-98729800D01*
X157587560Y-98725933D01*
X157571079Y-98714921D01*
X157560067Y-98698440D01*
X157556200Y-98679000D01*
X157556200Y-96901000D01*
X157560067Y-96881560D01*
X157571079Y-96865079D01*
X157587560Y-96854067D01*
X157607000Y-96850200D01*
X159639000Y-96850200D01*
X159658440Y-96854067D01*
G37*
G36*
X150910969Y-97045741D02*
G01*
X150946489Y-97045741D01*
X150975362Y-97054219D01*
X151004079Y-97058000D01*
X151042653Y-97073977D01*
X151081755Y-97085459D01*
X151102392Y-97098721D01*
X151123431Y-97107436D01*
X151161978Y-97137015D01*
X151200353Y-97161677D01*
X151212726Y-97175956D01*
X151225919Y-97186080D01*
X151260131Y-97230665D01*
X151292673Y-97268221D01*
X151298147Y-97280208D01*
X151304563Y-97288569D01*
X151329889Y-97349713D01*
X151351237Y-97396458D01*
X151352292Y-97403800D01*
X151353999Y-97407920D01*
X151366103Y-97499854D01*
X151371300Y-97536000D01*
X151366102Y-97572148D01*
X151353999Y-97664079D01*
X151352292Y-97668197D01*
X151351237Y-97675542D01*
X151329887Y-97722291D01*
X151304563Y-97783431D01*
X151298147Y-97791791D01*
X151292673Y-97803779D01*
X151260127Y-97841339D01*
X151225919Y-97885919D01*
X151212728Y-97896040D01*
X151200353Y-97910323D01*
X151161970Y-97934990D01*
X151123431Y-97964563D01*
X151102396Y-97973275D01*
X151081755Y-97986541D01*
X151042645Y-97998024D01*
X151004079Y-98013999D01*
X150975369Y-98017778D01*
X150946489Y-98026259D01*
X150910961Y-98026259D01*
X150876000Y-98030862D01*
X150841039Y-98026259D01*
X150805511Y-98026259D01*
X150776631Y-98017779D01*
X150747920Y-98013999D01*
X150709351Y-97998023D01*
X150670245Y-97986541D01*
X150649605Y-97973276D01*
X150628568Y-97964563D01*
X150590023Y-97934986D01*
X150551647Y-97910323D01*
X150539273Y-97896042D01*
X150526080Y-97885919D01*
X150491863Y-97841328D01*
X150459327Y-97803779D01*
X150453854Y-97791794D01*
X150447436Y-97783431D01*
X150422101Y-97722267D01*
X150400763Y-97675542D01*
X150399707Y-97668201D01*
X150398000Y-97664079D01*
X150385885Y-97572066D01*
X150380700Y-97536000D01*
X150385885Y-97499936D01*
X150398000Y-97407920D01*
X150399707Y-97403796D01*
X150400763Y-97396458D01*
X150422099Y-97349737D01*
X150447436Y-97288569D01*
X150453854Y-97280204D01*
X150459327Y-97268221D01*
X150491860Y-97230675D01*
X150526080Y-97186080D01*
X150539275Y-97175954D01*
X150551647Y-97161677D01*
X150590019Y-97137016D01*
X150628569Y-97107436D01*
X150649608Y-97098721D01*
X150670245Y-97085459D01*
X150709344Y-97073978D01*
X150747920Y-97058000D01*
X150776637Y-97054219D01*
X150805511Y-97045741D01*
X150841031Y-97045741D01*
X150876000Y-97041137D01*
X150910969Y-97045741D01*
G37*
G36*
X131972440Y-94314067D02*
G01*
X131988921Y-94325079D01*
X131999933Y-94341560D01*
X132003800Y-94361000D01*
X132003800Y-96139000D01*
X131999933Y-96158440D01*
X131988921Y-96174921D01*
X131972440Y-96185933D01*
X131953000Y-96189800D01*
X129921000Y-96189800D01*
X129901560Y-96185933D01*
X129885079Y-96174921D01*
X129874067Y-96158440D01*
X129870200Y-96139000D01*
X129870200Y-94361000D01*
X129874067Y-94341560D01*
X129885079Y-94325079D01*
X129901560Y-94314067D01*
X129921000Y-94310200D01*
X131953000Y-94310200D01*
X131972440Y-94314067D01*
G37*
G36*
X159658440Y-94314067D02*
G01*
X159674921Y-94325079D01*
X159685933Y-94341560D01*
X159689800Y-94361000D01*
X159689800Y-96139000D01*
X159685933Y-96158440D01*
X159674921Y-96174921D01*
X159658440Y-96185933D01*
X159639000Y-96189800D01*
X157607000Y-96189800D01*
X157587560Y-96185933D01*
X157571079Y-96174921D01*
X157560067Y-96158440D01*
X157556200Y-96139000D01*
X157556200Y-94361000D01*
X157560067Y-94341560D01*
X157571079Y-94325079D01*
X157587560Y-94314067D01*
X157607000Y-94310200D01*
X159639000Y-94310200D01*
X159658440Y-94314067D01*
G37*
G36*
X144814969Y-95013741D02*
G01*
X144850489Y-95013741D01*
X144879362Y-95022219D01*
X144908079Y-95026000D01*
X144946653Y-95041977D01*
X144985755Y-95053459D01*
X145006392Y-95066721D01*
X145027431Y-95075436D01*
X145065978Y-95105015D01*
X145104353Y-95129677D01*
X145116726Y-95143956D01*
X145129919Y-95154080D01*
X145164131Y-95198665D01*
X145196673Y-95236221D01*
X145202147Y-95248208D01*
X145208563Y-95256569D01*
X145233889Y-95317713D01*
X145255237Y-95364458D01*
X145256292Y-95371800D01*
X145257999Y-95375920D01*
X145270103Y-95467854D01*
X145275300Y-95504000D01*
X145270102Y-95540148D01*
X145257999Y-95632079D01*
X145256292Y-95636197D01*
X145255237Y-95643542D01*
X145233887Y-95690291D01*
X145208563Y-95751431D01*
X145202147Y-95759791D01*
X145196673Y-95771779D01*
X145164127Y-95809339D01*
X145129919Y-95853919D01*
X145116728Y-95864040D01*
X145104353Y-95878323D01*
X145065970Y-95902990D01*
X145027431Y-95932563D01*
X145006396Y-95941275D01*
X144985755Y-95954541D01*
X144946645Y-95966024D01*
X144908079Y-95981999D01*
X144879369Y-95985778D01*
X144850489Y-95994259D01*
X144814961Y-95994259D01*
X144780000Y-95998862D01*
X144745039Y-95994259D01*
X144709511Y-95994259D01*
X144680631Y-95985779D01*
X144651920Y-95981999D01*
X144613351Y-95966023D01*
X144574245Y-95954541D01*
X144553605Y-95941276D01*
X144532568Y-95932563D01*
X144494023Y-95902986D01*
X144455647Y-95878323D01*
X144443273Y-95864042D01*
X144430080Y-95853919D01*
X144395863Y-95809328D01*
X144363327Y-95771779D01*
X144357854Y-95759794D01*
X144351436Y-95751431D01*
X144326101Y-95690267D01*
X144304763Y-95643542D01*
X144303707Y-95636201D01*
X144302000Y-95632079D01*
X144289885Y-95540066D01*
X144284700Y-95504000D01*
X144289885Y-95467936D01*
X144302000Y-95375920D01*
X144303707Y-95371796D01*
X144304763Y-95364458D01*
X144326099Y-95317737D01*
X144351436Y-95256569D01*
X144357854Y-95248204D01*
X144363327Y-95236221D01*
X144395860Y-95198675D01*
X144430080Y-95154080D01*
X144443275Y-95143954D01*
X144455647Y-95129677D01*
X144494019Y-95105016D01*
X144532569Y-95075436D01*
X144553608Y-95066721D01*
X144574245Y-95053459D01*
X144613344Y-95041978D01*
X144651920Y-95026000D01*
X144680637Y-95022219D01*
X144709511Y-95013741D01*
X144745031Y-95013741D01*
X144780000Y-95009137D01*
X144814969Y-95013741D01*
G37*
G36*
X145830969Y-94251741D02*
G01*
X145866489Y-94251741D01*
X145895362Y-94260219D01*
X145924079Y-94264000D01*
X145962653Y-94279977D01*
X146001755Y-94291459D01*
X146022392Y-94304721D01*
X146043431Y-94313436D01*
X146081978Y-94343015D01*
X146120353Y-94367677D01*
X146132726Y-94381956D01*
X146145919Y-94392080D01*
X146180131Y-94436665D01*
X146212673Y-94474221D01*
X146218147Y-94486208D01*
X146224563Y-94494569D01*
X146249889Y-94555713D01*
X146271237Y-94602458D01*
X146272292Y-94609800D01*
X146273999Y-94613920D01*
X146286103Y-94705854D01*
X146291300Y-94742000D01*
X146286102Y-94778148D01*
X146273999Y-94870079D01*
X146272292Y-94874197D01*
X146271237Y-94881542D01*
X146249887Y-94928291D01*
X146224563Y-94989431D01*
X146218147Y-94997791D01*
X146212673Y-95009779D01*
X146180127Y-95047339D01*
X146145919Y-95091919D01*
X146132728Y-95102040D01*
X146120353Y-95116323D01*
X146081970Y-95140990D01*
X146043431Y-95170563D01*
X146022396Y-95179275D01*
X146001755Y-95192541D01*
X145962645Y-95204024D01*
X145924079Y-95219999D01*
X145895369Y-95223778D01*
X145866489Y-95232259D01*
X145830961Y-95232259D01*
X145796000Y-95236862D01*
X145761039Y-95232259D01*
X145725511Y-95232259D01*
X145696631Y-95223779D01*
X145667920Y-95219999D01*
X145629351Y-95204023D01*
X145590245Y-95192541D01*
X145569605Y-95179276D01*
X145548568Y-95170563D01*
X145510023Y-95140986D01*
X145471647Y-95116323D01*
X145459273Y-95102042D01*
X145446080Y-95091919D01*
X145411863Y-95047328D01*
X145379327Y-95009779D01*
X145373854Y-94997794D01*
X145367436Y-94989431D01*
X145342101Y-94928267D01*
X145320763Y-94881542D01*
X145319707Y-94874201D01*
X145318000Y-94870079D01*
X145305885Y-94778066D01*
X145300700Y-94742000D01*
X145305885Y-94705936D01*
X145318000Y-94613920D01*
X145319707Y-94609796D01*
X145320763Y-94602458D01*
X145342099Y-94555737D01*
X145367436Y-94494569D01*
X145373854Y-94486204D01*
X145379327Y-94474221D01*
X145411860Y-94436675D01*
X145446080Y-94392080D01*
X145459275Y-94381954D01*
X145471647Y-94367677D01*
X145510019Y-94343016D01*
X145548569Y-94313436D01*
X145569608Y-94304721D01*
X145590245Y-94291459D01*
X145629344Y-94279978D01*
X145667920Y-94264000D01*
X145696637Y-94260219D01*
X145725511Y-94251741D01*
X145761031Y-94251741D01*
X145796000Y-94247137D01*
X145830969Y-94251741D01*
G37*
G36*
X141698671Y-92382139D02*
G01*
X141831507Y-92451857D01*
X141943798Y-92551339D01*
X142029019Y-92674803D01*
X142082217Y-92815074D01*
X142100300Y-92964000D01*
X142082217Y-93112926D01*
X142029019Y-93253197D01*
X141943798Y-93376661D01*
X141831507Y-93476143D01*
X141698671Y-93545861D01*
X141642994Y-93559584D01*
X141642994Y-93638415D01*
X141698671Y-93652139D01*
X141831507Y-93721857D01*
X141943798Y-93821339D01*
X142029019Y-93944803D01*
X142082217Y-94085074D01*
X142100300Y-94234000D01*
X142082217Y-94382926D01*
X142029019Y-94523197D01*
X141943798Y-94646661D01*
X141831507Y-94746143D01*
X141698671Y-94815861D01*
X141553010Y-94851763D01*
X141402990Y-94851763D01*
X141257329Y-94815861D01*
X141124493Y-94746143D01*
X141012202Y-94646661D01*
X140926981Y-94523197D01*
X140873783Y-94382926D01*
X140855700Y-94234000D01*
X140873783Y-94085074D01*
X140926981Y-93944803D01*
X141012202Y-93821339D01*
X141124493Y-93721857D01*
X141257329Y-93652139D01*
X141313005Y-93638416D01*
X141313005Y-93559583D01*
X141257329Y-93545861D01*
X141124493Y-93476143D01*
X141012202Y-93376661D01*
X140926981Y-93253197D01*
X140873783Y-93112926D01*
X140855700Y-92964000D01*
X140873783Y-92815074D01*
X140926981Y-92674803D01*
X141012202Y-92551339D01*
X141124493Y-92451857D01*
X141257329Y-92382139D01*
X141402990Y-92346237D01*
X141553010Y-92346237D01*
X141698671Y-92382139D01*
G37*
G36*
X131972440Y-91774067D02*
G01*
X131988921Y-91785079D01*
X131999933Y-91801560D01*
X132003800Y-91821000D01*
X132003800Y-93599000D01*
X131999933Y-93618440D01*
X131988921Y-93634921D01*
X131972440Y-93645933D01*
X131953000Y-93649800D01*
X129921000Y-93649800D01*
X129901560Y-93645933D01*
X129885079Y-93634921D01*
X129874067Y-93618440D01*
X129870200Y-93599000D01*
X129870200Y-91821000D01*
X129874067Y-91801560D01*
X129885079Y-91785079D01*
X129901560Y-91774067D01*
X129921000Y-91770200D01*
X131953000Y-91770200D01*
X131972440Y-91774067D01*
G37*
G36*
X159658440Y-91774067D02*
G01*
X159674921Y-91785079D01*
X159685933Y-91801560D01*
X159689800Y-91821000D01*
X159689800Y-93599000D01*
X159685933Y-93618440D01*
X159674921Y-93634921D01*
X159658440Y-93645933D01*
X159639000Y-93649800D01*
X157607000Y-93649800D01*
X157587560Y-93645933D01*
X157571079Y-93634921D01*
X157560067Y-93618440D01*
X157556200Y-93599000D01*
X157556200Y-91821000D01*
X157560067Y-91801560D01*
X157571079Y-91785079D01*
X157587560Y-91774067D01*
X157607000Y-91770200D01*
X159639000Y-91770200D01*
X159658440Y-91774067D01*
G37*
G36*
X155414671Y-91112139D02*
G01*
X155547507Y-91181857D01*
X155659798Y-91281339D01*
X155745019Y-91404803D01*
X155798217Y-91545074D01*
X155816300Y-91694000D01*
X155798217Y-91842926D01*
X155745019Y-91983197D01*
X155659798Y-92106661D01*
X155547507Y-92206143D01*
X155414671Y-92275861D01*
X155269010Y-92311763D01*
X155118990Y-92311763D01*
X154973329Y-92275861D01*
X154840493Y-92206143D01*
X154728202Y-92106661D01*
X154642981Y-91983197D01*
X154589783Y-91842926D01*
X154571700Y-91694000D01*
X154589783Y-91545074D01*
X154642981Y-91404803D01*
X154728202Y-91281339D01*
X154840493Y-91181857D01*
X154973329Y-91112139D01*
X155118990Y-91076237D01*
X155269010Y-91076237D01*
X155414671Y-91112139D01*
G37*
G36*
X131972440Y-89234067D02*
G01*
X131988921Y-89245079D01*
X131999933Y-89261560D01*
X132003800Y-89281000D01*
X132003800Y-91059000D01*
X131999933Y-91078440D01*
X131988921Y-91094921D01*
X131972440Y-91105933D01*
X131953000Y-91109800D01*
X129921000Y-91109800D01*
X129901560Y-91105933D01*
X129885079Y-91094921D01*
X129874067Y-91078440D01*
X129870200Y-91059000D01*
X129870200Y-89281000D01*
X129874067Y-89261560D01*
X129885079Y-89245079D01*
X129901560Y-89234067D01*
X129921000Y-89230200D01*
X131953000Y-89230200D01*
X131972440Y-89234067D01*
G37*
G36*
X159658440Y-89234067D02*
G01*
X159674921Y-89245079D01*
X159685933Y-89261560D01*
X159689800Y-89281000D01*
X159689800Y-91059000D01*
X159685933Y-91078440D01*
X159674921Y-91094921D01*
X159658440Y-91105933D01*
X159639000Y-91109800D01*
X157607000Y-91109800D01*
X157587560Y-91105933D01*
X157571079Y-91094921D01*
X157560067Y-91078440D01*
X157556200Y-91059000D01*
X157556200Y-89281000D01*
X157560067Y-89261560D01*
X157571079Y-89245079D01*
X157587560Y-89234067D01*
X157607000Y-89230200D01*
X159639000Y-89230200D01*
X159658440Y-89234067D01*
G37*
G36*
X134882912Y-87250841D02*
G01*
X135045400Y-87323186D01*
X135189296Y-87427732D01*
X135308312Y-87559912D01*
X135397244Y-87713948D01*
X135452208Y-87883109D01*
X135470800Y-88060000D01*
X135452208Y-88236891D01*
X135397244Y-88406052D01*
X135308312Y-88560088D01*
X135189296Y-88692268D01*
X135045400Y-88796814D01*
X134882912Y-88869159D01*
X134708933Y-88906139D01*
X134531067Y-88906139D01*
X134357088Y-88869159D01*
X134194600Y-88796814D01*
X134050704Y-88692268D01*
X133931688Y-88560088D01*
X133842756Y-88406052D01*
X133787792Y-88236891D01*
X133769200Y-88060000D01*
X133787792Y-87883109D01*
X133842756Y-87713948D01*
X133931688Y-87559912D01*
X134050704Y-87427732D01*
X134194600Y-87323186D01*
X134357088Y-87250841D01*
X134531067Y-87213861D01*
X134708933Y-87213861D01*
X134882912Y-87250841D01*
G37*
G36*
X137422912Y-87250841D02*
G01*
X137585400Y-87323186D01*
X137729296Y-87427732D01*
X137848312Y-87559912D01*
X137937244Y-87713948D01*
X137992208Y-87883109D01*
X138010800Y-88060000D01*
X137992208Y-88236891D01*
X137937244Y-88406052D01*
X137848312Y-88560088D01*
X137729296Y-88692268D01*
X137585400Y-88796814D01*
X137422912Y-88869159D01*
X137248933Y-88906139D01*
X137071067Y-88906139D01*
X136897088Y-88869159D01*
X136734600Y-88796814D01*
X136590704Y-88692268D01*
X136471688Y-88560088D01*
X136382756Y-88406052D01*
X136327792Y-88236891D01*
X136309200Y-88060000D01*
X136327792Y-87883109D01*
X136382756Y-87713948D01*
X136471688Y-87559912D01*
X136590704Y-87427732D01*
X136734600Y-87323186D01*
X136897088Y-87250841D01*
X137071067Y-87213861D01*
X137248933Y-87213861D01*
X137422912Y-87250841D01*
G37*
G36*
X139962912Y-87250841D02*
G01*
X140125400Y-87323186D01*
X140269296Y-87427732D01*
X140388312Y-87559912D01*
X140477244Y-87713948D01*
X140532208Y-87883109D01*
X140550800Y-88060000D01*
X140532208Y-88236891D01*
X140477244Y-88406052D01*
X140388312Y-88560088D01*
X140269296Y-88692268D01*
X140125400Y-88796814D01*
X139962912Y-88869159D01*
X139788933Y-88906139D01*
X139611067Y-88906139D01*
X139437088Y-88869159D01*
X139274600Y-88796814D01*
X139130704Y-88692268D01*
X139011688Y-88560088D01*
X138922756Y-88406052D01*
X138867792Y-88236891D01*
X138849200Y-88060000D01*
X138867792Y-87883109D01*
X138922756Y-87713948D01*
X139011688Y-87559912D01*
X139130704Y-87427732D01*
X139274600Y-87323186D01*
X139437088Y-87250841D01*
X139611067Y-87213861D01*
X139788933Y-87213861D01*
X139962912Y-87250841D01*
G37*
G36*
X142502912Y-87250841D02*
G01*
X142665400Y-87323186D01*
X142809296Y-87427732D01*
X142928312Y-87559912D01*
X143017244Y-87713948D01*
X143072208Y-87883109D01*
X143090800Y-88060000D01*
X143072208Y-88236891D01*
X143017244Y-88406052D01*
X142928312Y-88560088D01*
X142809296Y-88692268D01*
X142665400Y-88796814D01*
X142502912Y-88869159D01*
X142328933Y-88906139D01*
X142151067Y-88906139D01*
X141977088Y-88869159D01*
X141814600Y-88796814D01*
X141670704Y-88692268D01*
X141551688Y-88560088D01*
X141462756Y-88406052D01*
X141407792Y-88236891D01*
X141389200Y-88060000D01*
X141407792Y-87883109D01*
X141462756Y-87713948D01*
X141551688Y-87559912D01*
X141670704Y-87427732D01*
X141814600Y-87323186D01*
X141977088Y-87250841D01*
X142151067Y-87213861D01*
X142328933Y-87213861D01*
X142502912Y-87250841D01*
G37*
G36*
X145042912Y-87250841D02*
G01*
X145205400Y-87323186D01*
X145349296Y-87427732D01*
X145468312Y-87559912D01*
X145557244Y-87713948D01*
X145612208Y-87883109D01*
X145630800Y-88060000D01*
X145612208Y-88236891D01*
X145557244Y-88406052D01*
X145468312Y-88560088D01*
X145349296Y-88692268D01*
X145205400Y-88796814D01*
X145042912Y-88869159D01*
X144868933Y-88906139D01*
X144691067Y-88906139D01*
X144517088Y-88869159D01*
X144354600Y-88796814D01*
X144210704Y-88692268D01*
X144091688Y-88560088D01*
X144002756Y-88406052D01*
X143947792Y-88236891D01*
X143929200Y-88060000D01*
X143947792Y-87883109D01*
X144002756Y-87713948D01*
X144091688Y-87559912D01*
X144210704Y-87427732D01*
X144354600Y-87323186D01*
X144517088Y-87250841D01*
X144691067Y-87213861D01*
X144868933Y-87213861D01*
X145042912Y-87250841D01*
G37*
G36*
X147582912Y-87250841D02*
G01*
X147745400Y-87323186D01*
X147889296Y-87427732D01*
X148008312Y-87559912D01*
X148097244Y-87713948D01*
X148152208Y-87883109D01*
X148170800Y-88060000D01*
X148152208Y-88236891D01*
X148097244Y-88406052D01*
X148008312Y-88560088D01*
X147889296Y-88692268D01*
X147745400Y-88796814D01*
X147582912Y-88869159D01*
X147408933Y-88906139D01*
X147231067Y-88906139D01*
X147057088Y-88869159D01*
X146894600Y-88796814D01*
X146750704Y-88692268D01*
X146631688Y-88560088D01*
X146542756Y-88406052D01*
X146487792Y-88236891D01*
X146469200Y-88060000D01*
X146487792Y-87883109D01*
X146542756Y-87713948D01*
X146631688Y-87559912D01*
X146750704Y-87427732D01*
X146894600Y-87323186D01*
X147057088Y-87250841D01*
X147231067Y-87213861D01*
X147408933Y-87213861D01*
X147582912Y-87250841D01*
G37*
G36*
X150122912Y-87250841D02*
G01*
X150285400Y-87323186D01*
X150429296Y-87427732D01*
X150548312Y-87559912D01*
X150637244Y-87713948D01*
X150692208Y-87883109D01*
X150710800Y-88060000D01*
X150692208Y-88236891D01*
X150637244Y-88406052D01*
X150548312Y-88560088D01*
X150429296Y-88692268D01*
X150285400Y-88796814D01*
X150122912Y-88869159D01*
X149948933Y-88906139D01*
X149771067Y-88906139D01*
X149597088Y-88869159D01*
X149434600Y-88796814D01*
X149290704Y-88692268D01*
X149171688Y-88560088D01*
X149082756Y-88406052D01*
X149027792Y-88236891D01*
X149009200Y-88060000D01*
X149027792Y-87883109D01*
X149082756Y-87713948D01*
X149171688Y-87559912D01*
X149290704Y-87427732D01*
X149434600Y-87323186D01*
X149597088Y-87250841D01*
X149771067Y-87213861D01*
X149948933Y-87213861D01*
X150122912Y-87250841D01*
G37*
G36*
X152662912Y-87250841D02*
G01*
X152825400Y-87323186D01*
X152969296Y-87427732D01*
X153088312Y-87559912D01*
X153177244Y-87713948D01*
X153232208Y-87883109D01*
X153250800Y-88060000D01*
X153232208Y-88236891D01*
X153177244Y-88406052D01*
X153088312Y-88560088D01*
X152969296Y-88692268D01*
X152825400Y-88796814D01*
X152662912Y-88869159D01*
X152488933Y-88906139D01*
X152311067Y-88906139D01*
X152137088Y-88869159D01*
X151974600Y-88796814D01*
X151830704Y-88692268D01*
X151711688Y-88560088D01*
X151622756Y-88406052D01*
X151567792Y-88236891D01*
X151549200Y-88060000D01*
X151567792Y-87883109D01*
X151622756Y-87713948D01*
X151711688Y-87559912D01*
X151830704Y-87427732D01*
X151974600Y-87323186D01*
X152137088Y-87250841D01*
X152311067Y-87213861D01*
X152488933Y-87213861D01*
X152662912Y-87250841D01*
G37*
G36*
X155202912Y-87250841D02*
G01*
X155365400Y-87323186D01*
X155509296Y-87427732D01*
X155628312Y-87559912D01*
X155717244Y-87713948D01*
X155772208Y-87883109D01*
X155790800Y-88060000D01*
X155772208Y-88236891D01*
X155717244Y-88406052D01*
X155628312Y-88560088D01*
X155509296Y-88692268D01*
X155365400Y-88796814D01*
X155202912Y-88869159D01*
X155028933Y-88906139D01*
X154851067Y-88906139D01*
X154677088Y-88869159D01*
X154514600Y-88796814D01*
X154370704Y-88692268D01*
X154251688Y-88560088D01*
X154162756Y-88406052D01*
X154107792Y-88236891D01*
X154089200Y-88060000D01*
X154107792Y-87883109D01*
X154162756Y-87713948D01*
X154251688Y-87559912D01*
X154370704Y-87427732D01*
X154514600Y-87323186D01*
X154677088Y-87250841D01*
X154851067Y-87213861D01*
X155028933Y-87213861D01*
X155202912Y-87250841D01*
G37*
G36*
X131157671Y-85778139D02*
G01*
X131290507Y-85847857D01*
X131402798Y-85947339D01*
X131488019Y-86070803D01*
X131541217Y-86211074D01*
X131559300Y-86360000D01*
X131541217Y-86508926D01*
X131488019Y-86649197D01*
X131402798Y-86772661D01*
X131290507Y-86872143D01*
X131157671Y-86941861D01*
X131012010Y-86977763D01*
X130861990Y-86977763D01*
X130716329Y-86941861D01*
X130583493Y-86872143D01*
X130471202Y-86772661D01*
X130385981Y-86649197D01*
X130332783Y-86508926D01*
X130314700Y-86360000D01*
X130332783Y-86211074D01*
X130385981Y-86070803D01*
X130471202Y-85947339D01*
X130583493Y-85847857D01*
X130716329Y-85778139D01*
X130861990Y-85742237D01*
X131012010Y-85742237D01*
X131157671Y-85778139D01*
G37*
G36*
X141190671Y-85778139D02*
G01*
X141323507Y-85847857D01*
X141435798Y-85947339D01*
X141521019Y-86070803D01*
X141574217Y-86211074D01*
X141592300Y-86360000D01*
X141574217Y-86508926D01*
X141521019Y-86649197D01*
X141435798Y-86772661D01*
X141323507Y-86872143D01*
X141190671Y-86941861D01*
X141045010Y-86977763D01*
X140894990Y-86977763D01*
X140749329Y-86941861D01*
X140616493Y-86872143D01*
X140504202Y-86772661D01*
X140418981Y-86649197D01*
X140365783Y-86508926D01*
X140347700Y-86360000D01*
X140365783Y-86211074D01*
X140418981Y-86070803D01*
X140504202Y-85947339D01*
X140616493Y-85847857D01*
X140749329Y-85778139D01*
X140894990Y-85742237D01*
X141045010Y-85742237D01*
X141190671Y-85778139D01*
G37*
G36*
X148810671Y-85778139D02*
G01*
X148943507Y-85847857D01*
X149055798Y-85947339D01*
X149141019Y-86070803D01*
X149194217Y-86211074D01*
X149212300Y-86360000D01*
X149194217Y-86508926D01*
X149141019Y-86649197D01*
X149055798Y-86772661D01*
X148943507Y-86872143D01*
X148810671Y-86941861D01*
X148665010Y-86977763D01*
X148514990Y-86977763D01*
X148369329Y-86941861D01*
X148236493Y-86872143D01*
X148124202Y-86772661D01*
X148038981Y-86649197D01*
X147985783Y-86508926D01*
X147967700Y-86360000D01*
X147985783Y-86211074D01*
X148038981Y-86070803D01*
X148124202Y-85947339D01*
X148236493Y-85847857D01*
X148369329Y-85778139D01*
X148514990Y-85742237D01*
X148665010Y-85742237D01*
X148810671Y-85778139D01*
G37*
G36*
X158843671Y-85778139D02*
G01*
X158976507Y-85847857D01*
X159088798Y-85947339D01*
X159174019Y-86070803D01*
X159227217Y-86211074D01*
X159245300Y-86360000D01*
X159227217Y-86508926D01*
X159174019Y-86649197D01*
X159088798Y-86772661D01*
X158976507Y-86872143D01*
X158843671Y-86941861D01*
X158698010Y-86977763D01*
X158547990Y-86977763D01*
X158402329Y-86941861D01*
X158269493Y-86872143D01*
X158157202Y-86772661D01*
X158071981Y-86649197D01*
X158018783Y-86508926D01*
X158000700Y-86360000D01*
X158018783Y-86211074D01*
X158071981Y-86070803D01*
X158157202Y-85947339D01*
X158269493Y-85847857D01*
X158402329Y-85778139D01*
X158547990Y-85742237D01*
X158698010Y-85742237D01*
X158843671Y-85778139D01*
G37*
M02*
