G04 #@! TF.GenerationSoftware,KiCad,Pcbnew,8.0.6*
G04 #@! TF.CreationDate,2025-01-27T08:56:49-05:00*
G04 #@! TF.ProjectId,disp,64697370-2e6b-4696-9361-645f70636258,v1.3.0*
G04 #@! TF.SameCoordinates,Original*
G04 #@! TF.FileFunction,Legend,Top*
G04 #@! TF.FilePolarity,Positive*
%FSLAX46Y46*%
G04 Gerber Fmt 4.6, Leading zero omitted, Abs format (unit mm)*
G04 Created by KiCad (PCBNEW 8.0.6) date 2025-01-27 08:56:49*
%MOMM*%
%LPD*%
G01*
G04 APERTURE LIST*
G04 Aperture macros list*
%AMRoundRect*
0 Rectangle with rounded corners*
0 $1 Rounding radius*
0 $2 $3 $4 $5 $6 $7 $8 $9 X,Y pos of 4 corners*
0 Add a 4 corners polygon primitive as box body*
4,1,4,$2,$3,$4,$5,$6,$7,$8,$9,$2,$3,0*
0 Add four circle primitives for the rounded corners*
1,1,$1+$1,$2,$3*
1,1,$1+$1,$4,$5*
1,1,$1+$1,$6,$7*
1,1,$1+$1,$8,$9*
0 Add four rect primitives between the rounded corners*
20,1,$1+$1,$2,$3,$4,$5,0*
20,1,$1+$1,$4,$5,$6,$7,0*
20,1,$1+$1,$6,$7,$8,$9,0*
20,1,$1+$1,$8,$9,$2,$3,0*%
G04 Aperture macros list end*
%ADD10C,0.150000*%
%ADD11RoundRect,0.125400X-0.725400X-0.125400X0.725400X-0.125400X0.725400X0.125400X-0.725400X0.125400X0*%
%ADD12RoundRect,0.050800X-1.651000X-0.889000X1.651000X-0.889000X1.651000X0.889000X-1.651000X0.889000X0*%
%ADD13RoundRect,0.050800X-1.016000X-0.889000X1.016000X-0.889000X1.016000X0.889000X-1.016000X0.889000X0*%
%ADD14RoundRect,0.050800X1.651000X0.889000X-1.651000X0.889000X-1.651000X-0.889000X1.651000X-0.889000X0*%
%ADD15RoundRect,0.050800X1.016000X0.889000X-1.016000X0.889000X-1.016000X-0.889000X1.016000X-0.889000X0*%
%ADD16RoundRect,0.271167X-0.579633X0.379633X-0.579633X-0.379633X0.579633X-0.379633X0.579633X0.379633X0*%
%ADD17RoundRect,0.270320X0.430480X0.405480X-0.430480X0.405480X-0.430480X-0.405480X0.430480X-0.405480X0*%
%ADD18RoundRect,0.270320X-0.430480X-0.405480X0.430480X-0.405480X0.430480X0.405480X-0.430480X0.405480X0*%
%ADD19RoundRect,0.275400X-0.275400X-0.425400X0.275400X-0.425400X0.275400X0.425400X-0.275400X0.425400X0*%
%ADD20RoundRect,0.265875X0.584925X0.584925X-0.584925X0.584925X-0.584925X-0.584925X0.584925X-0.584925X0*%
%ADD21C,1.701600*%
%ADD22C,1.244600*%
%ADD23C,0.990600*%
G04 APERTURE END LIST*
D10*
X156289342Y-95707142D02*
X156260771Y-95764285D01*
X156260771Y-95764285D02*
X156260771Y-95849999D01*
X156260771Y-95849999D02*
X156289342Y-95935713D01*
X156289342Y-95935713D02*
X156346485Y-95992856D01*
X156346485Y-95992856D02*
X156403628Y-96021427D01*
X156403628Y-96021427D02*
X156517914Y-96049999D01*
X156517914Y-96049999D02*
X156603628Y-96049999D01*
X156603628Y-96049999D02*
X156717914Y-96021427D01*
X156717914Y-96021427D02*
X156775057Y-95992856D01*
X156775057Y-95992856D02*
X156832200Y-95935713D01*
X156832200Y-95935713D02*
X156860771Y-95849999D01*
X156860771Y-95849999D02*
X156860771Y-95792856D01*
X156860771Y-95792856D02*
X156832200Y-95707142D01*
X156832200Y-95707142D02*
X156803628Y-95678570D01*
X156803628Y-95678570D02*
X156603628Y-95678570D01*
X156603628Y-95678570D02*
X156603628Y-95792856D01*
X156860771Y-95421427D02*
X156260771Y-95421427D01*
X156260771Y-95421427D02*
X156860771Y-95078570D01*
X156860771Y-95078570D02*
X156260771Y-95078570D01*
X156860771Y-94792856D02*
X156260771Y-94792856D01*
X156260771Y-94792856D02*
X156260771Y-94649999D01*
X156260771Y-94649999D02*
X156289342Y-94564285D01*
X156289342Y-94564285D02*
X156346485Y-94507142D01*
X156346485Y-94507142D02*
X156403628Y-94478571D01*
X156403628Y-94478571D02*
X156517914Y-94449999D01*
X156517914Y-94449999D02*
X156603628Y-94449999D01*
X156603628Y-94449999D02*
X156717914Y-94478571D01*
X156717914Y-94478571D02*
X156775057Y-94507142D01*
X156775057Y-94507142D02*
X156832200Y-94564285D01*
X156832200Y-94564285D02*
X156860771Y-94649999D01*
X156860771Y-94649999D02*
X156860771Y-94792856D01*
X154387602Y-102825485D02*
X154473316Y-102854057D01*
X154473316Y-102854057D02*
X154501887Y-102882628D01*
X154501887Y-102882628D02*
X154530459Y-102939771D01*
X154530459Y-102939771D02*
X154530459Y-103025485D01*
X154530459Y-103025485D02*
X154501887Y-103082628D01*
X154501887Y-103082628D02*
X154473316Y-103111200D01*
X154473316Y-103111200D02*
X154416173Y-103139771D01*
X154416173Y-103139771D02*
X154187602Y-103139771D01*
X154187602Y-103139771D02*
X154187602Y-102539771D01*
X154187602Y-102539771D02*
X154387602Y-102539771D01*
X154387602Y-102539771D02*
X154444745Y-102568342D01*
X154444745Y-102568342D02*
X154473316Y-102596914D01*
X154473316Y-102596914D02*
X154501887Y-102654057D01*
X154501887Y-102654057D02*
X154501887Y-102711200D01*
X154501887Y-102711200D02*
X154473316Y-102768342D01*
X154473316Y-102768342D02*
X154444745Y-102796914D01*
X154444745Y-102796914D02*
X154387602Y-102825485D01*
X154387602Y-102825485D02*
X154187602Y-102825485D01*
X155073316Y-103139771D02*
X154787602Y-103139771D01*
X154787602Y-103139771D02*
X154787602Y-102539771D01*
X155244744Y-102968342D02*
X155530459Y-102968342D01*
X155187601Y-103139771D02*
X155387601Y-102539771D01*
X155387601Y-102539771D02*
X155587601Y-103139771D01*
X155787602Y-103139771D02*
X155787602Y-102539771D01*
X155787602Y-102539771D02*
X156130459Y-103139771D01*
X156130459Y-103139771D02*
X156130459Y-102539771D01*
X156416173Y-103139771D02*
X156416173Y-102539771D01*
X156759030Y-103139771D02*
X156501887Y-102796914D01*
X156759030Y-102539771D02*
X156416173Y-102882628D01*
X155374887Y-107648342D02*
X155317745Y-107619771D01*
X155317745Y-107619771D02*
X155232030Y-107619771D01*
X155232030Y-107619771D02*
X155146316Y-107648342D01*
X155146316Y-107648342D02*
X155089173Y-107705485D01*
X155089173Y-107705485D02*
X155060602Y-107762628D01*
X155060602Y-107762628D02*
X155032030Y-107876914D01*
X155032030Y-107876914D02*
X155032030Y-107962628D01*
X155032030Y-107962628D02*
X155060602Y-108076914D01*
X155060602Y-108076914D02*
X155089173Y-108134057D01*
X155089173Y-108134057D02*
X155146316Y-108191200D01*
X155146316Y-108191200D02*
X155232030Y-108219771D01*
X155232030Y-108219771D02*
X155289173Y-108219771D01*
X155289173Y-108219771D02*
X155374887Y-108191200D01*
X155374887Y-108191200D02*
X155403459Y-108162628D01*
X155403459Y-108162628D02*
X155403459Y-107962628D01*
X155403459Y-107962628D02*
X155289173Y-107962628D01*
X155660602Y-108219771D02*
X155660602Y-107619771D01*
X155660602Y-107619771D02*
X156003459Y-108219771D01*
X156003459Y-108219771D02*
X156003459Y-107619771D01*
X156289173Y-108219771D02*
X156289173Y-107619771D01*
X156289173Y-107619771D02*
X156432030Y-107619771D01*
X156432030Y-107619771D02*
X156517744Y-107648342D01*
X156517744Y-107648342D02*
X156574887Y-107705485D01*
X156574887Y-107705485D02*
X156603458Y-107762628D01*
X156603458Y-107762628D02*
X156632030Y-107876914D01*
X156632030Y-107876914D02*
X156632030Y-107962628D01*
X156632030Y-107962628D02*
X156603458Y-108076914D01*
X156603458Y-108076914D02*
X156574887Y-108134057D01*
X156574887Y-108134057D02*
X156517744Y-108191200D01*
X156517744Y-108191200D02*
X156432030Y-108219771D01*
X156432030Y-108219771D02*
X156289173Y-108219771D01*
X157623000Y-109817819D02*
X157813476Y-109817819D01*
X157813476Y-109817819D02*
X157908714Y-109865438D01*
X157908714Y-109865438D02*
X158003952Y-109960676D01*
X158003952Y-109960676D02*
X158051571Y-110151152D01*
X158051571Y-110151152D02*
X158051571Y-110484485D01*
X158051571Y-110484485D02*
X158003952Y-110674961D01*
X158003952Y-110674961D02*
X157908714Y-110770200D01*
X157908714Y-110770200D02*
X157813476Y-110817819D01*
X157813476Y-110817819D02*
X157623000Y-110817819D01*
X157623000Y-110817819D02*
X157527762Y-110770200D01*
X157527762Y-110770200D02*
X157432524Y-110674961D01*
X157432524Y-110674961D02*
X157384905Y-110484485D01*
X157384905Y-110484485D02*
X157384905Y-110151152D01*
X157384905Y-110151152D02*
X157432524Y-109960676D01*
X157432524Y-109960676D02*
X157527762Y-109865438D01*
X157527762Y-109865438D02*
X157623000Y-109817819D01*
X158480143Y-109817819D02*
X158480143Y-110627342D01*
X158480143Y-110627342D02*
X158527762Y-110722580D01*
X158527762Y-110722580D02*
X158575381Y-110770200D01*
X158575381Y-110770200D02*
X158670619Y-110817819D01*
X158670619Y-110817819D02*
X158861095Y-110817819D01*
X158861095Y-110817819D02*
X158956333Y-110770200D01*
X158956333Y-110770200D02*
X159003952Y-110722580D01*
X159003952Y-110722580D02*
X159051571Y-110627342D01*
X159051571Y-110627342D02*
X159051571Y-109817819D01*
X159384905Y-109817819D02*
X159956333Y-109817819D01*
X159670619Y-110817819D02*
X159670619Y-109817819D01*
X132800969Y-105651200D02*
X132886684Y-105679771D01*
X132886684Y-105679771D02*
X133029541Y-105679771D01*
X133029541Y-105679771D02*
X133086684Y-105651200D01*
X133086684Y-105651200D02*
X133115255Y-105622628D01*
X133115255Y-105622628D02*
X133143826Y-105565485D01*
X133143826Y-105565485D02*
X133143826Y-105508342D01*
X133143826Y-105508342D02*
X133115255Y-105451200D01*
X133115255Y-105451200D02*
X133086684Y-105422628D01*
X133086684Y-105422628D02*
X133029541Y-105394057D01*
X133029541Y-105394057D02*
X132915255Y-105365485D01*
X132915255Y-105365485D02*
X132858112Y-105336914D01*
X132858112Y-105336914D02*
X132829541Y-105308342D01*
X132829541Y-105308342D02*
X132800969Y-105251200D01*
X132800969Y-105251200D02*
X132800969Y-105194057D01*
X132800969Y-105194057D02*
X132829541Y-105136914D01*
X132829541Y-105136914D02*
X132858112Y-105108342D01*
X132858112Y-105108342D02*
X132915255Y-105079771D01*
X132915255Y-105079771D02*
X133058112Y-105079771D01*
X133058112Y-105079771D02*
X133143826Y-105108342D01*
X133743827Y-105622628D02*
X133715255Y-105651200D01*
X133715255Y-105651200D02*
X133629541Y-105679771D01*
X133629541Y-105679771D02*
X133572398Y-105679771D01*
X133572398Y-105679771D02*
X133486684Y-105651200D01*
X133486684Y-105651200D02*
X133429541Y-105594057D01*
X133429541Y-105594057D02*
X133400970Y-105536914D01*
X133400970Y-105536914D02*
X133372398Y-105422628D01*
X133372398Y-105422628D02*
X133372398Y-105336914D01*
X133372398Y-105336914D02*
X133400970Y-105222628D01*
X133400970Y-105222628D02*
X133429541Y-105165485D01*
X133429541Y-105165485D02*
X133486684Y-105108342D01*
X133486684Y-105108342D02*
X133572398Y-105079771D01*
X133572398Y-105079771D02*
X133629541Y-105079771D01*
X133629541Y-105079771D02*
X133715255Y-105108342D01*
X133715255Y-105108342D02*
X133743827Y-105136914D01*
X134286684Y-105679771D02*
X134000970Y-105679771D01*
X134000970Y-105679771D02*
X134000970Y-105079771D01*
X134486684Y-105679771D02*
X134486684Y-105079771D01*
X134829541Y-105679771D02*
X134572398Y-105336914D01*
X134829541Y-105079771D02*
X134486684Y-105422628D01*
X131866571Y-86020592D02*
X131902285Y-85984878D01*
X131902285Y-85984878D02*
X131973714Y-85949164D01*
X131973714Y-85949164D02*
X132152285Y-85949164D01*
X132152285Y-85949164D02*
X132223714Y-85984878D01*
X132223714Y-85984878D02*
X132259428Y-86020592D01*
X132259428Y-86020592D02*
X132295142Y-86092021D01*
X132295142Y-86092021D02*
X132295142Y-86163450D01*
X132295142Y-86163450D02*
X132259428Y-86270592D01*
X132259428Y-86270592D02*
X131830856Y-86699164D01*
X131830856Y-86699164D02*
X132295142Y-86699164D01*
X133188000Y-86699164D02*
X133188000Y-85949164D01*
X133188000Y-85949164D02*
X133366571Y-85949164D01*
X133366571Y-85949164D02*
X133473714Y-85984878D01*
X133473714Y-85984878D02*
X133545143Y-86056307D01*
X133545143Y-86056307D02*
X133580857Y-86127735D01*
X133580857Y-86127735D02*
X133616571Y-86270592D01*
X133616571Y-86270592D02*
X133616571Y-86377735D01*
X133616571Y-86377735D02*
X133580857Y-86520592D01*
X133580857Y-86520592D02*
X133545143Y-86592021D01*
X133545143Y-86592021D02*
X133473714Y-86663450D01*
X133473714Y-86663450D02*
X133366571Y-86699164D01*
X133366571Y-86699164D02*
X133188000Y-86699164D01*
X133938000Y-86699164D02*
X133938000Y-86199164D01*
X133938000Y-85949164D02*
X133902286Y-85984878D01*
X133902286Y-85984878D02*
X133938000Y-86020592D01*
X133938000Y-86020592D02*
X133973714Y-85984878D01*
X133973714Y-85984878D02*
X133938000Y-85949164D01*
X133938000Y-85949164D02*
X133938000Y-86020592D01*
X134616572Y-86199164D02*
X134616572Y-86806307D01*
X134616572Y-86806307D02*
X134580857Y-86877735D01*
X134580857Y-86877735D02*
X134545143Y-86913450D01*
X134545143Y-86913450D02*
X134473714Y-86949164D01*
X134473714Y-86949164D02*
X134366572Y-86949164D01*
X134366572Y-86949164D02*
X134295143Y-86913450D01*
X134616572Y-86663450D02*
X134545143Y-86699164D01*
X134545143Y-86699164D02*
X134402286Y-86699164D01*
X134402286Y-86699164D02*
X134330857Y-86663450D01*
X134330857Y-86663450D02*
X134295143Y-86627735D01*
X134295143Y-86627735D02*
X134259429Y-86556307D01*
X134259429Y-86556307D02*
X134259429Y-86342021D01*
X134259429Y-86342021D02*
X134295143Y-86270592D01*
X134295143Y-86270592D02*
X134330857Y-86234878D01*
X134330857Y-86234878D02*
X134402286Y-86199164D01*
X134402286Y-86199164D02*
X134545143Y-86199164D01*
X134545143Y-86199164D02*
X134616572Y-86234878D01*
X134973714Y-86699164D02*
X134973714Y-86199164D01*
X134973714Y-85949164D02*
X134938000Y-85984878D01*
X134938000Y-85984878D02*
X134973714Y-86020592D01*
X134973714Y-86020592D02*
X135009428Y-85984878D01*
X135009428Y-85984878D02*
X134973714Y-85949164D01*
X134973714Y-85949164D02*
X134973714Y-86020592D01*
X135223714Y-86199164D02*
X135509428Y-86199164D01*
X135330857Y-85949164D02*
X135330857Y-86592021D01*
X135330857Y-86592021D02*
X135366571Y-86663450D01*
X135366571Y-86663450D02*
X135438000Y-86699164D01*
X135438000Y-86699164D02*
X135509428Y-86699164D01*
X136259428Y-85949164D02*
X136759428Y-85949164D01*
X136759428Y-85949164D02*
X136438000Y-86699164D01*
X137045143Y-86413450D02*
X137616572Y-86413450D01*
X137938000Y-86663450D02*
X138045143Y-86699164D01*
X138045143Y-86699164D02*
X138223714Y-86699164D01*
X138223714Y-86699164D02*
X138295143Y-86663450D01*
X138295143Y-86663450D02*
X138330857Y-86627735D01*
X138330857Y-86627735D02*
X138366571Y-86556307D01*
X138366571Y-86556307D02*
X138366571Y-86484878D01*
X138366571Y-86484878D02*
X138330857Y-86413450D01*
X138330857Y-86413450D02*
X138295143Y-86377735D01*
X138295143Y-86377735D02*
X138223714Y-86342021D01*
X138223714Y-86342021D02*
X138080857Y-86306307D01*
X138080857Y-86306307D02*
X138009428Y-86270592D01*
X138009428Y-86270592D02*
X137973714Y-86234878D01*
X137973714Y-86234878D02*
X137938000Y-86163450D01*
X137938000Y-86163450D02*
X137938000Y-86092021D01*
X137938000Y-86092021D02*
X137973714Y-86020592D01*
X137973714Y-86020592D02*
X138009428Y-85984878D01*
X138009428Y-85984878D02*
X138080857Y-85949164D01*
X138080857Y-85949164D02*
X138259428Y-85949164D01*
X138259428Y-85949164D02*
X138366571Y-85984878D01*
X138973714Y-86663450D02*
X138902286Y-86699164D01*
X138902286Y-86699164D02*
X138759429Y-86699164D01*
X138759429Y-86699164D02*
X138688000Y-86663450D01*
X138688000Y-86663450D02*
X138652286Y-86592021D01*
X138652286Y-86592021D02*
X138652286Y-86306307D01*
X138652286Y-86306307D02*
X138688000Y-86234878D01*
X138688000Y-86234878D02*
X138759429Y-86199164D01*
X138759429Y-86199164D02*
X138902286Y-86199164D01*
X138902286Y-86199164D02*
X138973714Y-86234878D01*
X138973714Y-86234878D02*
X139009429Y-86306307D01*
X139009429Y-86306307D02*
X139009429Y-86377735D01*
X139009429Y-86377735D02*
X138652286Y-86449164D01*
X139652286Y-86199164D02*
X139652286Y-86806307D01*
X139652286Y-86806307D02*
X139616571Y-86877735D01*
X139616571Y-86877735D02*
X139580857Y-86913450D01*
X139580857Y-86913450D02*
X139509428Y-86949164D01*
X139509428Y-86949164D02*
X139402286Y-86949164D01*
X139402286Y-86949164D02*
X139330857Y-86913450D01*
X139652286Y-86663450D02*
X139580857Y-86699164D01*
X139580857Y-86699164D02*
X139438000Y-86699164D01*
X139438000Y-86699164D02*
X139366571Y-86663450D01*
X139366571Y-86663450D02*
X139330857Y-86627735D01*
X139330857Y-86627735D02*
X139295143Y-86556307D01*
X139295143Y-86556307D02*
X139295143Y-86342021D01*
X139295143Y-86342021D02*
X139330857Y-86270592D01*
X139330857Y-86270592D02*
X139366571Y-86234878D01*
X139366571Y-86234878D02*
X139438000Y-86199164D01*
X139438000Y-86199164D02*
X139580857Y-86199164D01*
X139580857Y-86199164D02*
X139652286Y-86234878D01*
X142295144Y-86699164D02*
X142295144Y-85949164D01*
X142295144Y-85949164D02*
X142473715Y-85949164D01*
X142473715Y-85949164D02*
X142580858Y-85984878D01*
X142580858Y-85984878D02*
X142652287Y-86056307D01*
X142652287Y-86056307D02*
X142688001Y-86127735D01*
X142688001Y-86127735D02*
X142723715Y-86270592D01*
X142723715Y-86270592D02*
X142723715Y-86377735D01*
X142723715Y-86377735D02*
X142688001Y-86520592D01*
X142688001Y-86520592D02*
X142652287Y-86592021D01*
X142652287Y-86592021D02*
X142580858Y-86663450D01*
X142580858Y-86663450D02*
X142473715Y-86699164D01*
X142473715Y-86699164D02*
X142295144Y-86699164D01*
X143045144Y-86699164D02*
X143045144Y-86199164D01*
X143045144Y-85949164D02*
X143009430Y-85984878D01*
X143009430Y-85984878D02*
X143045144Y-86020592D01*
X143045144Y-86020592D02*
X143080858Y-85984878D01*
X143080858Y-85984878D02*
X143045144Y-85949164D01*
X143045144Y-85949164D02*
X143045144Y-86020592D01*
X143366573Y-86663450D02*
X143438001Y-86699164D01*
X143438001Y-86699164D02*
X143580858Y-86699164D01*
X143580858Y-86699164D02*
X143652287Y-86663450D01*
X143652287Y-86663450D02*
X143688001Y-86592021D01*
X143688001Y-86592021D02*
X143688001Y-86556307D01*
X143688001Y-86556307D02*
X143652287Y-86484878D01*
X143652287Y-86484878D02*
X143580858Y-86449164D01*
X143580858Y-86449164D02*
X143473716Y-86449164D01*
X143473716Y-86449164D02*
X143402287Y-86413450D01*
X143402287Y-86413450D02*
X143366573Y-86342021D01*
X143366573Y-86342021D02*
X143366573Y-86306307D01*
X143366573Y-86306307D02*
X143402287Y-86234878D01*
X143402287Y-86234878D02*
X143473716Y-86199164D01*
X143473716Y-86199164D02*
X143580858Y-86199164D01*
X143580858Y-86199164D02*
X143652287Y-86234878D01*
X144009430Y-86199164D02*
X144009430Y-86949164D01*
X144009430Y-86234878D02*
X144080859Y-86199164D01*
X144080859Y-86199164D02*
X144223716Y-86199164D01*
X144223716Y-86199164D02*
X144295144Y-86234878D01*
X144295144Y-86234878D02*
X144330859Y-86270592D01*
X144330859Y-86270592D02*
X144366573Y-86342021D01*
X144366573Y-86342021D02*
X144366573Y-86556307D01*
X144366573Y-86556307D02*
X144330859Y-86627735D01*
X144330859Y-86627735D02*
X144295144Y-86663450D01*
X144295144Y-86663450D02*
X144223716Y-86699164D01*
X144223716Y-86699164D02*
X144080859Y-86699164D01*
X144080859Y-86699164D02*
X144009430Y-86663450D01*
X144795144Y-86699164D02*
X144723715Y-86663450D01*
X144723715Y-86663450D02*
X144688001Y-86592021D01*
X144688001Y-86592021D02*
X144688001Y-85949164D01*
X145402287Y-86699164D02*
X145402287Y-86306307D01*
X145402287Y-86306307D02*
X145366572Y-86234878D01*
X145366572Y-86234878D02*
X145295144Y-86199164D01*
X145295144Y-86199164D02*
X145152287Y-86199164D01*
X145152287Y-86199164D02*
X145080858Y-86234878D01*
X145402287Y-86663450D02*
X145330858Y-86699164D01*
X145330858Y-86699164D02*
X145152287Y-86699164D01*
X145152287Y-86699164D02*
X145080858Y-86663450D01*
X145080858Y-86663450D02*
X145045144Y-86592021D01*
X145045144Y-86592021D02*
X145045144Y-86520592D01*
X145045144Y-86520592D02*
X145080858Y-86449164D01*
X145080858Y-86449164D02*
X145152287Y-86413450D01*
X145152287Y-86413450D02*
X145330858Y-86413450D01*
X145330858Y-86413450D02*
X145402287Y-86377735D01*
X145688000Y-86199164D02*
X145866572Y-86699164D01*
X146045143Y-86199164D02*
X145866572Y-86699164D01*
X145866572Y-86699164D02*
X145795143Y-86877735D01*
X145795143Y-86877735D02*
X145759429Y-86913450D01*
X145759429Y-86913450D02*
X145688000Y-86949164D01*
X156387771Y-93510000D02*
X156987771Y-93310000D01*
X156987771Y-93310000D02*
X156387771Y-93110000D01*
X156930628Y-92567142D02*
X156959200Y-92595714D01*
X156959200Y-92595714D02*
X156987771Y-92681428D01*
X156987771Y-92681428D02*
X156987771Y-92738571D01*
X156987771Y-92738571D02*
X156959200Y-92824285D01*
X156959200Y-92824285D02*
X156902057Y-92881428D01*
X156902057Y-92881428D02*
X156844914Y-92909999D01*
X156844914Y-92909999D02*
X156730628Y-92938571D01*
X156730628Y-92938571D02*
X156644914Y-92938571D01*
X156644914Y-92938571D02*
X156530628Y-92909999D01*
X156530628Y-92909999D02*
X156473485Y-92881428D01*
X156473485Y-92881428D02*
X156416342Y-92824285D01*
X156416342Y-92824285D02*
X156387771Y-92738571D01*
X156387771Y-92738571D02*
X156387771Y-92681428D01*
X156387771Y-92681428D02*
X156416342Y-92595714D01*
X156416342Y-92595714D02*
X156444914Y-92567142D01*
X156930628Y-91967142D02*
X156959200Y-91995714D01*
X156959200Y-91995714D02*
X156987771Y-92081428D01*
X156987771Y-92081428D02*
X156987771Y-92138571D01*
X156987771Y-92138571D02*
X156959200Y-92224285D01*
X156959200Y-92224285D02*
X156902057Y-92281428D01*
X156902057Y-92281428D02*
X156844914Y-92309999D01*
X156844914Y-92309999D02*
X156730628Y-92338571D01*
X156730628Y-92338571D02*
X156644914Y-92338571D01*
X156644914Y-92338571D02*
X156530628Y-92309999D01*
X156530628Y-92309999D02*
X156473485Y-92281428D01*
X156473485Y-92281428D02*
X156416342Y-92224285D01*
X156416342Y-92224285D02*
X156387771Y-92138571D01*
X156387771Y-92138571D02*
X156387771Y-92081428D01*
X156387771Y-92081428D02*
X156416342Y-91995714D01*
X156416342Y-91995714D02*
X156444914Y-91967142D01*
X155844744Y-100599771D02*
X155559030Y-100599771D01*
X155559030Y-100599771D02*
X155559030Y-99999771D01*
X156016172Y-100428342D02*
X156301887Y-100428342D01*
X155959029Y-100599771D02*
X156159029Y-99999771D01*
X156159029Y-99999771D02*
X156359029Y-100599771D01*
X156473315Y-99999771D02*
X156816173Y-99999771D01*
X156644744Y-100599771D02*
X156644744Y-99999771D01*
X154701887Y-98031200D02*
X154787602Y-98059771D01*
X154787602Y-98059771D02*
X154930459Y-98059771D01*
X154930459Y-98059771D02*
X154987602Y-98031200D01*
X154987602Y-98031200D02*
X155016173Y-98002628D01*
X155016173Y-98002628D02*
X155044744Y-97945485D01*
X155044744Y-97945485D02*
X155044744Y-97888342D01*
X155044744Y-97888342D02*
X155016173Y-97831200D01*
X155016173Y-97831200D02*
X154987602Y-97802628D01*
X154987602Y-97802628D02*
X154930459Y-97774057D01*
X154930459Y-97774057D02*
X154816173Y-97745485D01*
X154816173Y-97745485D02*
X154759030Y-97716914D01*
X154759030Y-97716914D02*
X154730459Y-97688342D01*
X154730459Y-97688342D02*
X154701887Y-97631200D01*
X154701887Y-97631200D02*
X154701887Y-97574057D01*
X154701887Y-97574057D02*
X154730459Y-97516914D01*
X154730459Y-97516914D02*
X154759030Y-97488342D01*
X154759030Y-97488342D02*
X154816173Y-97459771D01*
X154816173Y-97459771D02*
X154959030Y-97459771D01*
X154959030Y-97459771D02*
X155044744Y-97488342D01*
X155416173Y-97459771D02*
X155530459Y-97459771D01*
X155530459Y-97459771D02*
X155587602Y-97488342D01*
X155587602Y-97488342D02*
X155644745Y-97545485D01*
X155644745Y-97545485D02*
X155673316Y-97659771D01*
X155673316Y-97659771D02*
X155673316Y-97859771D01*
X155673316Y-97859771D02*
X155644745Y-97974057D01*
X155644745Y-97974057D02*
X155587602Y-98031200D01*
X155587602Y-98031200D02*
X155530459Y-98059771D01*
X155530459Y-98059771D02*
X155416173Y-98059771D01*
X155416173Y-98059771D02*
X155359031Y-98031200D01*
X155359031Y-98031200D02*
X155301888Y-97974057D01*
X155301888Y-97974057D02*
X155273316Y-97859771D01*
X155273316Y-97859771D02*
X155273316Y-97659771D01*
X155273316Y-97659771D02*
X155301888Y-97545485D01*
X155301888Y-97545485D02*
X155359031Y-97488342D01*
X155359031Y-97488342D02*
X155416173Y-97459771D01*
X155930459Y-97459771D02*
X155930459Y-97945485D01*
X155930459Y-97945485D02*
X155959030Y-98002628D01*
X155959030Y-98002628D02*
X155987602Y-98031200D01*
X155987602Y-98031200D02*
X156044744Y-98059771D01*
X156044744Y-98059771D02*
X156159030Y-98059771D01*
X156159030Y-98059771D02*
X156216173Y-98031200D01*
X156216173Y-98031200D02*
X156244744Y-98002628D01*
X156244744Y-98002628D02*
X156273316Y-97945485D01*
X156273316Y-97945485D02*
X156273316Y-97459771D01*
X156473315Y-97459771D02*
X156816173Y-97459771D01*
X156644744Y-98059771D02*
X156644744Y-97459771D01*
X156387771Y-90884286D02*
X156987771Y-90684286D01*
X156987771Y-90684286D02*
X156387771Y-90484286D01*
X156816342Y-90312857D02*
X156816342Y-90027143D01*
X156987771Y-90370000D02*
X156387771Y-90170000D01*
X156387771Y-90170000D02*
X156987771Y-89970000D01*
X156816342Y-89798571D02*
X156816342Y-89512857D01*
X156987771Y-89855714D02*
X156387771Y-89655714D01*
X156387771Y-89655714D02*
X156987771Y-89455714D01*
X132800969Y-98031200D02*
X132886684Y-98059771D01*
X132886684Y-98059771D02*
X133029541Y-98059771D01*
X133029541Y-98059771D02*
X133086684Y-98031200D01*
X133086684Y-98031200D02*
X133115255Y-98002628D01*
X133115255Y-98002628D02*
X133143826Y-97945485D01*
X133143826Y-97945485D02*
X133143826Y-97888342D01*
X133143826Y-97888342D02*
X133115255Y-97831200D01*
X133115255Y-97831200D02*
X133086684Y-97802628D01*
X133086684Y-97802628D02*
X133029541Y-97774057D01*
X133029541Y-97774057D02*
X132915255Y-97745485D01*
X132915255Y-97745485D02*
X132858112Y-97716914D01*
X132858112Y-97716914D02*
X132829541Y-97688342D01*
X132829541Y-97688342D02*
X132800969Y-97631200D01*
X132800969Y-97631200D02*
X132800969Y-97574057D01*
X132800969Y-97574057D02*
X132829541Y-97516914D01*
X132829541Y-97516914D02*
X132858112Y-97488342D01*
X132858112Y-97488342D02*
X132915255Y-97459771D01*
X132915255Y-97459771D02*
X133058112Y-97459771D01*
X133058112Y-97459771D02*
X133143826Y-97488342D01*
X133400970Y-98059771D02*
X133400970Y-97459771D01*
X133686684Y-98059771D02*
X133686684Y-97459771D01*
X133686684Y-97459771D02*
X134029541Y-98059771D01*
X134029541Y-98059771D02*
X134029541Y-97459771D01*
X133143826Y-107648342D02*
X133086684Y-107619771D01*
X133086684Y-107619771D02*
X133000969Y-107619771D01*
X133000969Y-107619771D02*
X132915255Y-107648342D01*
X132915255Y-107648342D02*
X132858112Y-107705485D01*
X132858112Y-107705485D02*
X132829541Y-107762628D01*
X132829541Y-107762628D02*
X132800969Y-107876914D01*
X132800969Y-107876914D02*
X132800969Y-107962628D01*
X132800969Y-107962628D02*
X132829541Y-108076914D01*
X132829541Y-108076914D02*
X132858112Y-108134057D01*
X132858112Y-108134057D02*
X132915255Y-108191200D01*
X132915255Y-108191200D02*
X133000969Y-108219771D01*
X133000969Y-108219771D02*
X133058112Y-108219771D01*
X133058112Y-108219771D02*
X133143826Y-108191200D01*
X133143826Y-108191200D02*
X133172398Y-108162628D01*
X133172398Y-108162628D02*
X133172398Y-107962628D01*
X133172398Y-107962628D02*
X133058112Y-107962628D01*
X133429541Y-108219771D02*
X133429541Y-107619771D01*
X133429541Y-107619771D02*
X133772398Y-108219771D01*
X133772398Y-108219771D02*
X133772398Y-107619771D01*
X134058112Y-108219771D02*
X134058112Y-107619771D01*
X134058112Y-107619771D02*
X134200969Y-107619771D01*
X134200969Y-107619771D02*
X134286683Y-107648342D01*
X134286683Y-107648342D02*
X134343826Y-107705485D01*
X134343826Y-107705485D02*
X134372397Y-107762628D01*
X134372397Y-107762628D02*
X134400969Y-107876914D01*
X134400969Y-107876914D02*
X134400969Y-107962628D01*
X134400969Y-107962628D02*
X134372397Y-108076914D01*
X134372397Y-108076914D02*
X134343826Y-108134057D01*
X134343826Y-108134057D02*
X134286683Y-108191200D01*
X134286683Y-108191200D02*
X134200969Y-108219771D01*
X134200969Y-108219771D02*
X134058112Y-108219771D01*
X133115255Y-100599771D02*
X132829541Y-100599771D01*
X132829541Y-100599771D02*
X132829541Y-99999771D01*
X133286683Y-100428342D02*
X133572398Y-100428342D01*
X133229540Y-100599771D02*
X133429540Y-99999771D01*
X133429540Y-99999771D02*
X133629540Y-100599771D01*
X133743826Y-99999771D02*
X134086684Y-99999771D01*
X133915255Y-100599771D02*
X133915255Y-99999771D01*
X130413191Y-110817819D02*
X130413191Y-109817819D01*
X130889381Y-110817819D02*
X130889381Y-109817819D01*
X130889381Y-109817819D02*
X131460809Y-110817819D01*
X131460809Y-110817819D02*
X131460809Y-109817819D01*
X154730458Y-105651200D02*
X154816173Y-105679771D01*
X154816173Y-105679771D02*
X154959030Y-105679771D01*
X154959030Y-105679771D02*
X155016173Y-105651200D01*
X155016173Y-105651200D02*
X155044744Y-105622628D01*
X155044744Y-105622628D02*
X155073315Y-105565485D01*
X155073315Y-105565485D02*
X155073315Y-105508342D01*
X155073315Y-105508342D02*
X155044744Y-105451200D01*
X155044744Y-105451200D02*
X155016173Y-105422628D01*
X155016173Y-105422628D02*
X154959030Y-105394057D01*
X154959030Y-105394057D02*
X154844744Y-105365485D01*
X154844744Y-105365485D02*
X154787601Y-105336914D01*
X154787601Y-105336914D02*
X154759030Y-105308342D01*
X154759030Y-105308342D02*
X154730458Y-105251200D01*
X154730458Y-105251200D02*
X154730458Y-105194057D01*
X154730458Y-105194057D02*
X154759030Y-105136914D01*
X154759030Y-105136914D02*
X154787601Y-105108342D01*
X154787601Y-105108342D02*
X154844744Y-105079771D01*
X154844744Y-105079771D02*
X154987601Y-105079771D01*
X154987601Y-105079771D02*
X155073315Y-105108342D01*
X155673316Y-105622628D02*
X155644744Y-105651200D01*
X155644744Y-105651200D02*
X155559030Y-105679771D01*
X155559030Y-105679771D02*
X155501887Y-105679771D01*
X155501887Y-105679771D02*
X155416173Y-105651200D01*
X155416173Y-105651200D02*
X155359030Y-105594057D01*
X155359030Y-105594057D02*
X155330459Y-105536914D01*
X155330459Y-105536914D02*
X155301887Y-105422628D01*
X155301887Y-105422628D02*
X155301887Y-105336914D01*
X155301887Y-105336914D02*
X155330459Y-105222628D01*
X155330459Y-105222628D02*
X155359030Y-105165485D01*
X155359030Y-105165485D02*
X155416173Y-105108342D01*
X155416173Y-105108342D02*
X155501887Y-105079771D01*
X155501887Y-105079771D02*
X155559030Y-105079771D01*
X155559030Y-105079771D02*
X155644744Y-105108342D01*
X155644744Y-105108342D02*
X155673316Y-105136914D01*
X156216173Y-105679771D02*
X155930459Y-105679771D01*
X155930459Y-105679771D02*
X155930459Y-105079771D01*
X156416173Y-105679771D02*
X156416173Y-105079771D01*
X156759030Y-105679771D02*
X156501887Y-105336914D01*
X156759030Y-105079771D02*
X156416173Y-105422628D01*
X132794342Y-95707142D02*
X132765771Y-95764285D01*
X132765771Y-95764285D02*
X132765771Y-95849999D01*
X132765771Y-95849999D02*
X132794342Y-95935713D01*
X132794342Y-95935713D02*
X132851485Y-95992856D01*
X132851485Y-95992856D02*
X132908628Y-96021427D01*
X132908628Y-96021427D02*
X133022914Y-96049999D01*
X133022914Y-96049999D02*
X133108628Y-96049999D01*
X133108628Y-96049999D02*
X133222914Y-96021427D01*
X133222914Y-96021427D02*
X133280057Y-95992856D01*
X133280057Y-95992856D02*
X133337200Y-95935713D01*
X133337200Y-95935713D02*
X133365771Y-95849999D01*
X133365771Y-95849999D02*
X133365771Y-95792856D01*
X133365771Y-95792856D02*
X133337200Y-95707142D01*
X133337200Y-95707142D02*
X133308628Y-95678570D01*
X133308628Y-95678570D02*
X133108628Y-95678570D01*
X133108628Y-95678570D02*
X133108628Y-95792856D01*
X133365771Y-95421427D02*
X132765771Y-95421427D01*
X132765771Y-95421427D02*
X133365771Y-95078570D01*
X133365771Y-95078570D02*
X132765771Y-95078570D01*
X133365771Y-94792856D02*
X132765771Y-94792856D01*
X132765771Y-94792856D02*
X132765771Y-94649999D01*
X132765771Y-94649999D02*
X132794342Y-94564285D01*
X132794342Y-94564285D02*
X132851485Y-94507142D01*
X132851485Y-94507142D02*
X132908628Y-94478571D01*
X132908628Y-94478571D02*
X133022914Y-94449999D01*
X133022914Y-94449999D02*
X133108628Y-94449999D01*
X133108628Y-94449999D02*
X133222914Y-94478571D01*
X133222914Y-94478571D02*
X133280057Y-94507142D01*
X133280057Y-94507142D02*
X133337200Y-94564285D01*
X133337200Y-94564285D02*
X133365771Y-94649999D01*
X133365771Y-94649999D02*
X133365771Y-94792856D01*
X133029541Y-102825485D02*
X133115255Y-102854057D01*
X133115255Y-102854057D02*
X133143826Y-102882628D01*
X133143826Y-102882628D02*
X133172398Y-102939771D01*
X133172398Y-102939771D02*
X133172398Y-103025485D01*
X133172398Y-103025485D02*
X133143826Y-103082628D01*
X133143826Y-103082628D02*
X133115255Y-103111200D01*
X133115255Y-103111200D02*
X133058112Y-103139771D01*
X133058112Y-103139771D02*
X132829541Y-103139771D01*
X132829541Y-103139771D02*
X132829541Y-102539771D01*
X132829541Y-102539771D02*
X133029541Y-102539771D01*
X133029541Y-102539771D02*
X133086684Y-102568342D01*
X133086684Y-102568342D02*
X133115255Y-102596914D01*
X133115255Y-102596914D02*
X133143826Y-102654057D01*
X133143826Y-102654057D02*
X133143826Y-102711200D01*
X133143826Y-102711200D02*
X133115255Y-102768342D01*
X133115255Y-102768342D02*
X133086684Y-102796914D01*
X133086684Y-102796914D02*
X133029541Y-102825485D01*
X133029541Y-102825485D02*
X132829541Y-102825485D01*
X133715255Y-103139771D02*
X133429541Y-103139771D01*
X133429541Y-103139771D02*
X133429541Y-102539771D01*
X133886683Y-102968342D02*
X134172398Y-102968342D01*
X133829540Y-103139771D02*
X134029540Y-102539771D01*
X134029540Y-102539771D02*
X134229540Y-103139771D01*
X134429541Y-103139771D02*
X134429541Y-102539771D01*
X134429541Y-102539771D02*
X134772398Y-103139771D01*
X134772398Y-103139771D02*
X134772398Y-102539771D01*
X135058112Y-103139771D02*
X135058112Y-102539771D01*
X135400969Y-103139771D02*
X135143826Y-102796914D01*
X135400969Y-102539771D02*
X135058112Y-102882628D01*
X132765771Y-93510000D02*
X133365771Y-93310000D01*
X133365771Y-93310000D02*
X132765771Y-93110000D01*
X133308628Y-92567142D02*
X133337200Y-92595714D01*
X133337200Y-92595714D02*
X133365771Y-92681428D01*
X133365771Y-92681428D02*
X133365771Y-92738571D01*
X133365771Y-92738571D02*
X133337200Y-92824285D01*
X133337200Y-92824285D02*
X133280057Y-92881428D01*
X133280057Y-92881428D02*
X133222914Y-92909999D01*
X133222914Y-92909999D02*
X133108628Y-92938571D01*
X133108628Y-92938571D02*
X133022914Y-92938571D01*
X133022914Y-92938571D02*
X132908628Y-92909999D01*
X132908628Y-92909999D02*
X132851485Y-92881428D01*
X132851485Y-92881428D02*
X132794342Y-92824285D01*
X132794342Y-92824285D02*
X132765771Y-92738571D01*
X132765771Y-92738571D02*
X132765771Y-92681428D01*
X132765771Y-92681428D02*
X132794342Y-92595714D01*
X132794342Y-92595714D02*
X132822914Y-92567142D01*
X133308628Y-91967142D02*
X133337200Y-91995714D01*
X133337200Y-91995714D02*
X133365771Y-92081428D01*
X133365771Y-92081428D02*
X133365771Y-92138571D01*
X133365771Y-92138571D02*
X133337200Y-92224285D01*
X133337200Y-92224285D02*
X133280057Y-92281428D01*
X133280057Y-92281428D02*
X133222914Y-92309999D01*
X133222914Y-92309999D02*
X133108628Y-92338571D01*
X133108628Y-92338571D02*
X133022914Y-92338571D01*
X133022914Y-92338571D02*
X132908628Y-92309999D01*
X132908628Y-92309999D02*
X132851485Y-92281428D01*
X132851485Y-92281428D02*
X132794342Y-92224285D01*
X132794342Y-92224285D02*
X132765771Y-92138571D01*
X132765771Y-92138571D02*
X132765771Y-92081428D01*
X132765771Y-92081428D02*
X132794342Y-91995714D01*
X132794342Y-91995714D02*
X132822914Y-91967142D01*
X150792856Y-86199164D02*
X150971428Y-86699164D01*
X150971428Y-86699164D02*
X151149999Y-86199164D01*
X151828571Y-86699164D02*
X151400000Y-86699164D01*
X151614285Y-86699164D02*
X151614285Y-85949164D01*
X151614285Y-85949164D02*
X151542857Y-86056307D01*
X151542857Y-86056307D02*
X151471428Y-86127735D01*
X151471428Y-86127735D02*
X151400000Y-86163450D01*
X152150000Y-86627735D02*
X152185714Y-86663450D01*
X152185714Y-86663450D02*
X152150000Y-86699164D01*
X152150000Y-86699164D02*
X152114286Y-86663450D01*
X152114286Y-86663450D02*
X152150000Y-86627735D01*
X152150000Y-86627735D02*
X152150000Y-86699164D01*
X152435714Y-85949164D02*
X152900000Y-85949164D01*
X152900000Y-85949164D02*
X152650000Y-86234878D01*
X152650000Y-86234878D02*
X152757143Y-86234878D01*
X152757143Y-86234878D02*
X152828572Y-86270592D01*
X152828572Y-86270592D02*
X152864286Y-86306307D01*
X152864286Y-86306307D02*
X152900000Y-86377735D01*
X152900000Y-86377735D02*
X152900000Y-86556307D01*
X152900000Y-86556307D02*
X152864286Y-86627735D01*
X152864286Y-86627735D02*
X152828572Y-86663450D01*
X152828572Y-86663450D02*
X152757143Y-86699164D01*
X152757143Y-86699164D02*
X152542857Y-86699164D01*
X152542857Y-86699164D02*
X152471429Y-86663450D01*
X152471429Y-86663450D02*
X152435714Y-86627735D01*
X153221429Y-86627735D02*
X153257143Y-86663450D01*
X153257143Y-86663450D02*
X153221429Y-86699164D01*
X153221429Y-86699164D02*
X153185715Y-86663450D01*
X153185715Y-86663450D02*
X153221429Y-86627735D01*
X153221429Y-86627735D02*
X153221429Y-86699164D01*
X153721429Y-85949164D02*
X153792858Y-85949164D01*
X153792858Y-85949164D02*
X153864286Y-85984878D01*
X153864286Y-85984878D02*
X153900001Y-86020592D01*
X153900001Y-86020592D02*
X153935715Y-86092021D01*
X153935715Y-86092021D02*
X153971429Y-86234878D01*
X153971429Y-86234878D02*
X153971429Y-86413450D01*
X153971429Y-86413450D02*
X153935715Y-86556307D01*
X153935715Y-86556307D02*
X153900001Y-86627735D01*
X153900001Y-86627735D02*
X153864286Y-86663450D01*
X153864286Y-86663450D02*
X153792858Y-86699164D01*
X153792858Y-86699164D02*
X153721429Y-86699164D01*
X153721429Y-86699164D02*
X153650001Y-86663450D01*
X153650001Y-86663450D02*
X153614286Y-86627735D01*
X153614286Y-86627735D02*
X153578572Y-86556307D01*
X153578572Y-86556307D02*
X153542858Y-86413450D01*
X153542858Y-86413450D02*
X153542858Y-86234878D01*
X153542858Y-86234878D02*
X153578572Y-86092021D01*
X153578572Y-86092021D02*
X153614286Y-86020592D01*
X153614286Y-86020592D02*
X153650001Y-85984878D01*
X153650001Y-85984878D02*
X153721429Y-85949164D01*
X132765771Y-90884286D02*
X133365771Y-90684286D01*
X133365771Y-90684286D02*
X132765771Y-90484286D01*
X133194342Y-90312857D02*
X133194342Y-90027143D01*
X133365771Y-90370000D02*
X132765771Y-90170000D01*
X132765771Y-90170000D02*
X133365771Y-89970000D01*
X133194342Y-89798571D02*
X133194342Y-89512857D01*
X133365771Y-89855714D02*
X132765771Y-89655714D01*
X132765771Y-89655714D02*
X133365771Y-89455714D01*
X132882572Y-112099164D02*
X132882572Y-111349164D01*
X132882572Y-112063450D02*
X132811143Y-112099164D01*
X132811143Y-112099164D02*
X132668286Y-112099164D01*
X132668286Y-112099164D02*
X132596857Y-112063450D01*
X132596857Y-112063450D02*
X132561143Y-112027735D01*
X132561143Y-112027735D02*
X132525429Y-111956307D01*
X132525429Y-111956307D02*
X132525429Y-111742021D01*
X132525429Y-111742021D02*
X132561143Y-111670592D01*
X132561143Y-111670592D02*
X132596857Y-111634878D01*
X132596857Y-111634878D02*
X132668286Y-111599164D01*
X132668286Y-111599164D02*
X132811143Y-111599164D01*
X132811143Y-111599164D02*
X132882572Y-111634878D01*
X133204000Y-112063450D02*
X133275428Y-112099164D01*
X133275428Y-112099164D02*
X133418285Y-112099164D01*
X133418285Y-112099164D02*
X133489714Y-112063450D01*
X133489714Y-112063450D02*
X133525428Y-111992021D01*
X133525428Y-111992021D02*
X133525428Y-111956307D01*
X133525428Y-111956307D02*
X133489714Y-111884878D01*
X133489714Y-111884878D02*
X133418285Y-111849164D01*
X133418285Y-111849164D02*
X133311143Y-111849164D01*
X133311143Y-111849164D02*
X133239714Y-111813450D01*
X133239714Y-111813450D02*
X133204000Y-111742021D01*
X133204000Y-111742021D02*
X133204000Y-111706307D01*
X133204000Y-111706307D02*
X133239714Y-111634878D01*
X133239714Y-111634878D02*
X133311143Y-111599164D01*
X133311143Y-111599164D02*
X133418285Y-111599164D01*
X133418285Y-111599164D02*
X133489714Y-111634878D01*
X134168286Y-111599164D02*
X134168286Y-112099164D01*
X133846857Y-111599164D02*
X133846857Y-111992021D01*
X133846857Y-111992021D02*
X133882571Y-112063450D01*
X133882571Y-112063450D02*
X133954000Y-112099164D01*
X133954000Y-112099164D02*
X134061143Y-112099164D01*
X134061143Y-112099164D02*
X134132571Y-112063450D01*
X134132571Y-112063450D02*
X134168286Y-112027735D01*
X134525428Y-111599164D02*
X134525428Y-112099164D01*
X134525428Y-111670592D02*
X134561142Y-111634878D01*
X134561142Y-111634878D02*
X134632571Y-111599164D01*
X134632571Y-111599164D02*
X134739714Y-111599164D01*
X134739714Y-111599164D02*
X134811142Y-111634878D01*
X134811142Y-111634878D02*
X134846857Y-111706307D01*
X134846857Y-111706307D02*
X134846857Y-112099164D01*
X135132570Y-111349164D02*
X135632570Y-111349164D01*
X135632570Y-111349164D02*
X135311142Y-112099164D01*
X136239714Y-112063450D02*
X136168285Y-112099164D01*
X136168285Y-112099164D02*
X136025428Y-112099164D01*
X136025428Y-112099164D02*
X135953999Y-112063450D01*
X135953999Y-112063450D02*
X135918285Y-112027735D01*
X135918285Y-112027735D02*
X135882571Y-111956307D01*
X135882571Y-111956307D02*
X135882571Y-111742021D01*
X135882571Y-111742021D02*
X135918285Y-111670592D01*
X135918285Y-111670592D02*
X135953999Y-111634878D01*
X135953999Y-111634878D02*
X136025428Y-111599164D01*
X136025428Y-111599164D02*
X136168285Y-111599164D01*
X136168285Y-111599164D02*
X136239714Y-111634878D01*
X136882571Y-111599164D02*
X136882571Y-112099164D01*
X136703999Y-111313450D02*
X136525428Y-111849164D01*
X136525428Y-111849164D02*
X136989713Y-111849164D01*
X137382571Y-112099164D02*
X137311142Y-112063450D01*
X137311142Y-112063450D02*
X137275428Y-112027735D01*
X137275428Y-112027735D02*
X137239714Y-111956307D01*
X137239714Y-111956307D02*
X137239714Y-111742021D01*
X137239714Y-111742021D02*
X137275428Y-111670592D01*
X137275428Y-111670592D02*
X137311142Y-111634878D01*
X137311142Y-111634878D02*
X137382571Y-111599164D01*
X137382571Y-111599164D02*
X137489714Y-111599164D01*
X137489714Y-111599164D02*
X137561142Y-111634878D01*
X137561142Y-111634878D02*
X137596857Y-111670592D01*
X137596857Y-111670592D02*
X137632571Y-111742021D01*
X137632571Y-111742021D02*
X137632571Y-111956307D01*
X137632571Y-111956307D02*
X137596857Y-112027735D01*
X137596857Y-112027735D02*
X137561142Y-112063450D01*
X137561142Y-112063450D02*
X137489714Y-112099164D01*
X137489714Y-112099164D02*
X137382571Y-112099164D01*
X137918285Y-112063450D02*
X137989713Y-112099164D01*
X137989713Y-112099164D02*
X138132570Y-112099164D01*
X138132570Y-112099164D02*
X138203999Y-112063450D01*
X138203999Y-112063450D02*
X138239713Y-111992021D01*
X138239713Y-111992021D02*
X138239713Y-111956307D01*
X138239713Y-111956307D02*
X138203999Y-111884878D01*
X138203999Y-111884878D02*
X138132570Y-111849164D01*
X138132570Y-111849164D02*
X138025428Y-111849164D01*
X138025428Y-111849164D02*
X137953999Y-111813450D01*
X137953999Y-111813450D02*
X137918285Y-111742021D01*
X137918285Y-111742021D02*
X137918285Y-111706307D01*
X137918285Y-111706307D02*
X137953999Y-111634878D01*
X137953999Y-111634878D02*
X138025428Y-111599164D01*
X138025428Y-111599164D02*
X138132570Y-111599164D01*
X138132570Y-111599164D02*
X138203999Y-111634878D01*
X138561142Y-112099164D02*
X138561142Y-111349164D01*
X138882571Y-112099164D02*
X138882571Y-111706307D01*
X138882571Y-111706307D02*
X138846856Y-111634878D01*
X138846856Y-111634878D02*
X138775428Y-111599164D01*
X138775428Y-111599164D02*
X138668285Y-111599164D01*
X138668285Y-111599164D02*
X138596856Y-111634878D01*
X138596856Y-111634878D02*
X138561142Y-111670592D01*
X139703999Y-111742021D02*
X139668284Y-111706307D01*
X139668284Y-111706307D02*
X139596856Y-111670592D01*
X139596856Y-111670592D02*
X139525427Y-111670592D01*
X139525427Y-111670592D02*
X139453999Y-111706307D01*
X139453999Y-111706307D02*
X139418284Y-111742021D01*
X139418284Y-111742021D02*
X139382570Y-111813450D01*
X139382570Y-111813450D02*
X139382570Y-111884878D01*
X139382570Y-111884878D02*
X139418284Y-111956307D01*
X139418284Y-111956307D02*
X139453999Y-111992021D01*
X139453999Y-111992021D02*
X139525427Y-112027735D01*
X139525427Y-112027735D02*
X139596856Y-112027735D01*
X139596856Y-112027735D02*
X139668284Y-111992021D01*
X139668284Y-111992021D02*
X139703999Y-111956307D01*
X139703999Y-111670592D02*
X139703999Y-111956307D01*
X139703999Y-111956307D02*
X139739713Y-111992021D01*
X139739713Y-111992021D02*
X139775427Y-111992021D01*
X139775427Y-111992021D02*
X139846856Y-111956307D01*
X139846856Y-111956307D02*
X139882570Y-111884878D01*
X139882570Y-111884878D02*
X139882570Y-111706307D01*
X139882570Y-111706307D02*
X139811142Y-111599164D01*
X139811142Y-111599164D02*
X139703999Y-111527735D01*
X139703999Y-111527735D02*
X139561142Y-111492021D01*
X139561142Y-111492021D02*
X139418284Y-111527735D01*
X139418284Y-111527735D02*
X139311142Y-111599164D01*
X139311142Y-111599164D02*
X139239713Y-111706307D01*
X139239713Y-111706307D02*
X139203999Y-111849164D01*
X139203999Y-111849164D02*
X139239713Y-111992021D01*
X139239713Y-111992021D02*
X139311142Y-112099164D01*
X139311142Y-112099164D02*
X139418284Y-112170592D01*
X139418284Y-112170592D02*
X139561142Y-112206307D01*
X139561142Y-112206307D02*
X139703999Y-112170592D01*
X139703999Y-112170592D02*
X139811142Y-112099164D01*
X142239715Y-111599164D02*
X142239715Y-112206307D01*
X142239715Y-112206307D02*
X142204000Y-112277735D01*
X142204000Y-112277735D02*
X142168286Y-112313450D01*
X142168286Y-112313450D02*
X142096857Y-112349164D01*
X142096857Y-112349164D02*
X141989715Y-112349164D01*
X141989715Y-112349164D02*
X141918286Y-112313450D01*
X142239715Y-112063450D02*
X142168286Y-112099164D01*
X142168286Y-112099164D02*
X142025429Y-112099164D01*
X142025429Y-112099164D02*
X141954000Y-112063450D01*
X141954000Y-112063450D02*
X141918286Y-112027735D01*
X141918286Y-112027735D02*
X141882572Y-111956307D01*
X141882572Y-111956307D02*
X141882572Y-111742021D01*
X141882572Y-111742021D02*
X141918286Y-111670592D01*
X141918286Y-111670592D02*
X141954000Y-111634878D01*
X141954000Y-111634878D02*
X142025429Y-111599164D01*
X142025429Y-111599164D02*
X142168286Y-111599164D01*
X142168286Y-111599164D02*
X142239715Y-111634878D01*
X142596857Y-112099164D02*
X142596857Y-111599164D01*
X142596857Y-111670592D02*
X142632571Y-111634878D01*
X142632571Y-111634878D02*
X142704000Y-111599164D01*
X142704000Y-111599164D02*
X142811143Y-111599164D01*
X142811143Y-111599164D02*
X142882571Y-111634878D01*
X142882571Y-111634878D02*
X142918286Y-111706307D01*
X142918286Y-111706307D02*
X142918286Y-112099164D01*
X142918286Y-111706307D02*
X142954000Y-111634878D01*
X142954000Y-111634878D02*
X143025428Y-111599164D01*
X143025428Y-111599164D02*
X143132571Y-111599164D01*
X143132571Y-111599164D02*
X143204000Y-111634878D01*
X143204000Y-111634878D02*
X143239714Y-111706307D01*
X143239714Y-111706307D02*
X143239714Y-112099164D01*
X143918286Y-112099164D02*
X143918286Y-111706307D01*
X143918286Y-111706307D02*
X143882571Y-111634878D01*
X143882571Y-111634878D02*
X143811143Y-111599164D01*
X143811143Y-111599164D02*
X143668286Y-111599164D01*
X143668286Y-111599164D02*
X143596857Y-111634878D01*
X143918286Y-112063450D02*
X143846857Y-112099164D01*
X143846857Y-112099164D02*
X143668286Y-112099164D01*
X143668286Y-112099164D02*
X143596857Y-112063450D01*
X143596857Y-112063450D02*
X143561143Y-111992021D01*
X143561143Y-111992021D02*
X143561143Y-111920592D01*
X143561143Y-111920592D02*
X143596857Y-111849164D01*
X143596857Y-111849164D02*
X143668286Y-111813450D01*
X143668286Y-111813450D02*
X143846857Y-111813450D01*
X143846857Y-111813450D02*
X143918286Y-111777735D01*
X144275428Y-112099164D02*
X144275428Y-111599164D01*
X144275428Y-111349164D02*
X144239714Y-111384878D01*
X144239714Y-111384878D02*
X144275428Y-111420592D01*
X144275428Y-111420592D02*
X144311142Y-111384878D01*
X144311142Y-111384878D02*
X144275428Y-111349164D01*
X144275428Y-111349164D02*
X144275428Y-111420592D01*
X144739714Y-112099164D02*
X144668285Y-112063450D01*
X144668285Y-112063450D02*
X144632571Y-111992021D01*
X144632571Y-111992021D02*
X144632571Y-111349164D01*
X145025428Y-112027735D02*
X145061142Y-112063450D01*
X145061142Y-112063450D02*
X145025428Y-112099164D01*
X145025428Y-112099164D02*
X144989714Y-112063450D01*
X144989714Y-112063450D02*
X145025428Y-112027735D01*
X145025428Y-112027735D02*
X145025428Y-112099164D01*
X145704000Y-112063450D02*
X145632571Y-112099164D01*
X145632571Y-112099164D02*
X145489714Y-112099164D01*
X145489714Y-112099164D02*
X145418285Y-112063450D01*
X145418285Y-112063450D02*
X145382571Y-112027735D01*
X145382571Y-112027735D02*
X145346857Y-111956307D01*
X145346857Y-111956307D02*
X145346857Y-111742021D01*
X145346857Y-111742021D02*
X145382571Y-111670592D01*
X145382571Y-111670592D02*
X145418285Y-111634878D01*
X145418285Y-111634878D02*
X145489714Y-111599164D01*
X145489714Y-111599164D02*
X145632571Y-111599164D01*
X145632571Y-111599164D02*
X145704000Y-111634878D01*
X146132571Y-112099164D02*
X146061142Y-112063450D01*
X146061142Y-112063450D02*
X146025428Y-112027735D01*
X146025428Y-112027735D02*
X145989714Y-111956307D01*
X145989714Y-111956307D02*
X145989714Y-111742021D01*
X145989714Y-111742021D02*
X146025428Y-111670592D01*
X146025428Y-111670592D02*
X146061142Y-111634878D01*
X146061142Y-111634878D02*
X146132571Y-111599164D01*
X146132571Y-111599164D02*
X146239714Y-111599164D01*
X146239714Y-111599164D02*
X146311142Y-111634878D01*
X146311142Y-111634878D02*
X146346857Y-111670592D01*
X146346857Y-111670592D02*
X146382571Y-111742021D01*
X146382571Y-111742021D02*
X146382571Y-111956307D01*
X146382571Y-111956307D02*
X146346857Y-112027735D01*
X146346857Y-112027735D02*
X146311142Y-112063450D01*
X146311142Y-112063450D02*
X146239714Y-112099164D01*
X146239714Y-112099164D02*
X146132571Y-112099164D01*
X146703999Y-112099164D02*
X146703999Y-111599164D01*
X146703999Y-111670592D02*
X146739713Y-111634878D01*
X146739713Y-111634878D02*
X146811142Y-111599164D01*
X146811142Y-111599164D02*
X146918285Y-111599164D01*
X146918285Y-111599164D02*
X146989713Y-111634878D01*
X146989713Y-111634878D02*
X147025428Y-111706307D01*
X147025428Y-111706307D02*
X147025428Y-112099164D01*
X147025428Y-111706307D02*
X147061142Y-111634878D01*
X147061142Y-111634878D02*
X147132570Y-111599164D01*
X147132570Y-111599164D02*
X147239713Y-111599164D01*
X147239713Y-111599164D02*
X147311142Y-111634878D01*
X147311142Y-111634878D02*
X147346856Y-111706307D01*
X147346856Y-111706307D02*
X147346856Y-112099164D01*
X139368095Y-94504819D02*
X139368095Y-95314342D01*
X139368095Y-95314342D02*
X139415714Y-95409580D01*
X139415714Y-95409580D02*
X139463333Y-95457200D01*
X139463333Y-95457200D02*
X139558571Y-95504819D01*
X139558571Y-95504819D02*
X139749047Y-95504819D01*
X139749047Y-95504819D02*
X139844285Y-95457200D01*
X139844285Y-95457200D02*
X139891904Y-95409580D01*
X139891904Y-95409580D02*
X139939523Y-95314342D01*
X139939523Y-95314342D02*
X139939523Y-94504819D01*
X140939523Y-95504819D02*
X140368095Y-95504819D01*
X140653809Y-95504819D02*
X140653809Y-94504819D01*
X140653809Y-94504819D02*
X140558571Y-94647676D01*
X140558571Y-94647676D02*
X140463333Y-94742914D01*
X140463333Y-94742914D02*
X140368095Y-94790533D01*
X130198905Y-88338819D02*
X130198905Y-87338819D01*
X130198905Y-87338819D02*
X130579857Y-87338819D01*
X130579857Y-87338819D02*
X130675095Y-87386438D01*
X130675095Y-87386438D02*
X130722714Y-87434057D01*
X130722714Y-87434057D02*
X130770333Y-87529295D01*
X130770333Y-87529295D02*
X130770333Y-87672152D01*
X130770333Y-87672152D02*
X130722714Y-87767390D01*
X130722714Y-87767390D02*
X130675095Y-87815009D01*
X130675095Y-87815009D02*
X130579857Y-87862628D01*
X130579857Y-87862628D02*
X130198905Y-87862628D01*
X131722714Y-88338819D02*
X131151286Y-88338819D01*
X131437000Y-88338819D02*
X131437000Y-87338819D01*
X131437000Y-87338819D02*
X131341762Y-87481676D01*
X131341762Y-87481676D02*
X131246524Y-87576914D01*
X131246524Y-87576914D02*
X131151286Y-87624533D01*
X157884905Y-88338819D02*
X157884905Y-87338819D01*
X157884905Y-87338819D02*
X158265857Y-87338819D01*
X158265857Y-87338819D02*
X158361095Y-87386438D01*
X158361095Y-87386438D02*
X158408714Y-87434057D01*
X158408714Y-87434057D02*
X158456333Y-87529295D01*
X158456333Y-87529295D02*
X158456333Y-87672152D01*
X158456333Y-87672152D02*
X158408714Y-87767390D01*
X158408714Y-87767390D02*
X158361095Y-87815009D01*
X158361095Y-87815009D02*
X158265857Y-87862628D01*
X158265857Y-87862628D02*
X157884905Y-87862628D01*
X158837286Y-87434057D02*
X158884905Y-87386438D01*
X158884905Y-87386438D02*
X158980143Y-87338819D01*
X158980143Y-87338819D02*
X159218238Y-87338819D01*
X159218238Y-87338819D02*
X159313476Y-87386438D01*
X159313476Y-87386438D02*
X159361095Y-87434057D01*
X159361095Y-87434057D02*
X159408714Y-87529295D01*
X159408714Y-87529295D02*
X159408714Y-87624533D01*
X159408714Y-87624533D02*
X159361095Y-87767390D01*
X159361095Y-87767390D02*
X158789667Y-88338819D01*
X158789667Y-88338819D02*
X159408714Y-88338819D01*
X137773580Y-97702666D02*
X137821200Y-97750285D01*
X137821200Y-97750285D02*
X137868819Y-97893142D01*
X137868819Y-97893142D02*
X137868819Y-97988380D01*
X137868819Y-97988380D02*
X137821200Y-98131237D01*
X137821200Y-98131237D02*
X137725961Y-98226475D01*
X137725961Y-98226475D02*
X137630723Y-98274094D01*
X137630723Y-98274094D02*
X137440247Y-98321713D01*
X137440247Y-98321713D02*
X137297390Y-98321713D01*
X137297390Y-98321713D02*
X137106914Y-98274094D01*
X137106914Y-98274094D02*
X137011676Y-98226475D01*
X137011676Y-98226475D02*
X136916438Y-98131237D01*
X136916438Y-98131237D02*
X136868819Y-97988380D01*
X136868819Y-97988380D02*
X136868819Y-97893142D01*
X136868819Y-97893142D02*
X136916438Y-97750285D01*
X136916438Y-97750285D02*
X136964057Y-97702666D01*
X137868819Y-96750285D02*
X137868819Y-97321713D01*
X137868819Y-97035999D02*
X136868819Y-97035999D01*
X136868819Y-97035999D02*
X137011676Y-97131237D01*
X137011676Y-97131237D02*
X137106914Y-97226475D01*
X137106914Y-97226475D02*
X137154533Y-97321713D01*
X144613333Y-91545580D02*
X144565714Y-91593200D01*
X144565714Y-91593200D02*
X144422857Y-91640819D01*
X144422857Y-91640819D02*
X144327619Y-91640819D01*
X144327619Y-91640819D02*
X144184762Y-91593200D01*
X144184762Y-91593200D02*
X144089524Y-91497961D01*
X144089524Y-91497961D02*
X144041905Y-91402723D01*
X144041905Y-91402723D02*
X143994286Y-91212247D01*
X143994286Y-91212247D02*
X143994286Y-91069390D01*
X143994286Y-91069390D02*
X144041905Y-90878914D01*
X144041905Y-90878914D02*
X144089524Y-90783676D01*
X144089524Y-90783676D02*
X144184762Y-90688438D01*
X144184762Y-90688438D02*
X144327619Y-90640819D01*
X144327619Y-90640819D02*
X144422857Y-90640819D01*
X144422857Y-90640819D02*
X144565714Y-90688438D01*
X144565714Y-90688438D02*
X144613333Y-90736057D01*
X144994286Y-90736057D02*
X145041905Y-90688438D01*
X145041905Y-90688438D02*
X145137143Y-90640819D01*
X145137143Y-90640819D02*
X145375238Y-90640819D01*
X145375238Y-90640819D02*
X145470476Y-90688438D01*
X145470476Y-90688438D02*
X145518095Y-90736057D01*
X145518095Y-90736057D02*
X145565714Y-90831295D01*
X145565714Y-90831295D02*
X145565714Y-90926533D01*
X145565714Y-90926533D02*
X145518095Y-91069390D01*
X145518095Y-91069390D02*
X144946667Y-91640819D01*
X144946667Y-91640819D02*
X145565714Y-91640819D01*
X134979580Y-96432666D02*
X135027200Y-96480285D01*
X135027200Y-96480285D02*
X135074819Y-96623142D01*
X135074819Y-96623142D02*
X135074819Y-96718380D01*
X135074819Y-96718380D02*
X135027200Y-96861237D01*
X135027200Y-96861237D02*
X134931961Y-96956475D01*
X134931961Y-96956475D02*
X134836723Y-97004094D01*
X134836723Y-97004094D02*
X134646247Y-97051713D01*
X134646247Y-97051713D02*
X134503390Y-97051713D01*
X134503390Y-97051713D02*
X134312914Y-97004094D01*
X134312914Y-97004094D02*
X134217676Y-96956475D01*
X134217676Y-96956475D02*
X134122438Y-96861237D01*
X134122438Y-96861237D02*
X134074819Y-96718380D01*
X134074819Y-96718380D02*
X134074819Y-96623142D01*
X134074819Y-96623142D02*
X134122438Y-96480285D01*
X134122438Y-96480285D02*
X134170057Y-96432666D01*
X134074819Y-96099332D02*
X134074819Y-95480285D01*
X134074819Y-95480285D02*
X134455771Y-95813618D01*
X134455771Y-95813618D02*
X134455771Y-95670761D01*
X134455771Y-95670761D02*
X134503390Y-95575523D01*
X134503390Y-95575523D02*
X134551009Y-95527904D01*
X134551009Y-95527904D02*
X134646247Y-95480285D01*
X134646247Y-95480285D02*
X134884342Y-95480285D01*
X134884342Y-95480285D02*
X134979580Y-95527904D01*
X134979580Y-95527904D02*
X135027200Y-95575523D01*
X135027200Y-95575523D02*
X135074819Y-95670761D01*
X135074819Y-95670761D02*
X135074819Y-95956475D01*
X135074819Y-95956475D02*
X135027200Y-96051713D01*
X135027200Y-96051713D02*
X134979580Y-96099332D01*
X148804333Y-92053580D02*
X148756714Y-92101200D01*
X148756714Y-92101200D02*
X148613857Y-92148819D01*
X148613857Y-92148819D02*
X148518619Y-92148819D01*
X148518619Y-92148819D02*
X148375762Y-92101200D01*
X148375762Y-92101200D02*
X148280524Y-92005961D01*
X148280524Y-92005961D02*
X148232905Y-91910723D01*
X148232905Y-91910723D02*
X148185286Y-91720247D01*
X148185286Y-91720247D02*
X148185286Y-91577390D01*
X148185286Y-91577390D02*
X148232905Y-91386914D01*
X148232905Y-91386914D02*
X148280524Y-91291676D01*
X148280524Y-91291676D02*
X148375762Y-91196438D01*
X148375762Y-91196438D02*
X148518619Y-91148819D01*
X148518619Y-91148819D02*
X148613857Y-91148819D01*
X148613857Y-91148819D02*
X148756714Y-91196438D01*
X148756714Y-91196438D02*
X148804333Y-91244057D01*
X149661476Y-91482152D02*
X149661476Y-92148819D01*
X149423381Y-91101200D02*
X149185286Y-91815485D01*
X149185286Y-91815485D02*
X149804333Y-91815485D01*
X151090333Y-95704819D02*
X150757000Y-95228628D01*
X150518905Y-95704819D02*
X150518905Y-94704819D01*
X150518905Y-94704819D02*
X150899857Y-94704819D01*
X150899857Y-94704819D02*
X150995095Y-94752438D01*
X150995095Y-94752438D02*
X151042714Y-94800057D01*
X151042714Y-94800057D02*
X151090333Y-94895295D01*
X151090333Y-94895295D02*
X151090333Y-95038152D01*
X151090333Y-95038152D02*
X151042714Y-95133390D01*
X151042714Y-95133390D02*
X150995095Y-95181009D01*
X150995095Y-95181009D02*
X150899857Y-95228628D01*
X150899857Y-95228628D02*
X150518905Y-95228628D01*
X152042714Y-95704819D02*
X151471286Y-95704819D01*
X151757000Y-95704819D02*
X151757000Y-94704819D01*
X151757000Y-94704819D02*
X151661762Y-94847676D01*
X151661762Y-94847676D02*
X151566524Y-94942914D01*
X151566524Y-94942914D02*
X151471286Y-94990533D01*
X142780000Y-94685000D02*
X142780000Y-95042500D01*
X142780000Y-94685000D02*
X146780000Y-94685000D01*
X142780000Y-95042500D02*
X141280000Y-95042500D01*
X142780000Y-103435000D02*
X142780000Y-103077500D01*
X142780000Y-103435000D02*
X146780000Y-103435000D01*
X146780000Y-94685000D02*
X146780000Y-95042500D01*
X146780000Y-103435000D02*
X146780000Y-103077500D01*
X127635000Y-88620000D02*
X132487000Y-88620000D01*
X132207000Y-91440000D02*
X127635000Y-91440000D01*
X132207000Y-91440000D02*
X132207000Y-109220000D01*
X132207000Y-109220000D02*
X127635000Y-109220000D01*
X132487000Y-88620000D02*
X132487000Y-90170000D01*
X157073000Y-109500000D02*
X157073000Y-107950000D01*
X157353000Y-88900000D02*
X161925000Y-88900000D01*
X157353000Y-106680000D02*
X157353000Y-88900000D01*
X157353000Y-106680000D02*
X161925000Y-106680000D01*
X161925000Y-109500000D02*
X157073000Y-109500000D01*
X136389000Y-92980000D02*
X136389000Y-94980000D01*
X138439000Y-94980000D02*
X138439000Y-92980000D01*
X144280000Y-93814000D02*
X145280000Y-93814000D01*
X145280000Y-92114000D02*
X144280000Y-92114000D01*
X133595000Y-91710000D02*
X133595000Y-93710000D01*
X135645000Y-93710000D02*
X135645000Y-91710000D01*
X151392000Y-92544000D02*
X152392000Y-92544000D01*
X152392000Y-90844000D02*
X151392000Y-90844000D01*
X153578000Y-94375000D02*
X154778000Y-94375000D01*
X154778000Y-96125000D02*
X153578000Y-96125000D01*
%LPC*%
D11*
X142080000Y-95567500D03*
X142080000Y-96202500D03*
X142080000Y-96837500D03*
X142080000Y-97472500D03*
X142080000Y-98107500D03*
X142080000Y-98742500D03*
X142080000Y-99377500D03*
X142080000Y-100012500D03*
X142080000Y-100647500D03*
X142080000Y-101282500D03*
X142080000Y-101917500D03*
X142080000Y-102552500D03*
X147480000Y-102552500D03*
X147480000Y-101917500D03*
X147480000Y-101282500D03*
X147480000Y-100647500D03*
X147480000Y-100012500D03*
X147480000Y-99377500D03*
X147480000Y-98742500D03*
X147480000Y-98107500D03*
X147480000Y-97472500D03*
X147480000Y-96837500D03*
X147480000Y-96202500D03*
X147480000Y-95567500D03*
D12*
X129286000Y-90170000D03*
D13*
X130937000Y-90170000D03*
D12*
X129286000Y-92710000D03*
D13*
X130937000Y-92710000D03*
D12*
X129286000Y-95250000D03*
D13*
X130937000Y-95250000D03*
D12*
X129286000Y-97790000D03*
D13*
X130937000Y-97790000D03*
D12*
X129286000Y-100330000D03*
D13*
X130937000Y-100330000D03*
D12*
X129286000Y-102870000D03*
D13*
X130937000Y-102870000D03*
D12*
X129286000Y-105410000D03*
D13*
X130937000Y-105410000D03*
D12*
X129286000Y-107950000D03*
D13*
X130937000Y-107950000D03*
D14*
X160274000Y-107950000D03*
D15*
X158623000Y-107950000D03*
D14*
X160274000Y-105410000D03*
D15*
X158623000Y-105410000D03*
D14*
X160274000Y-102870000D03*
D15*
X158623000Y-102870000D03*
D14*
X160274000Y-100330000D03*
D15*
X158623000Y-100330000D03*
D14*
X160274000Y-97790000D03*
D15*
X158623000Y-97790000D03*
D14*
X160274000Y-95250000D03*
D15*
X158623000Y-95250000D03*
D14*
X160274000Y-92710000D03*
D15*
X158623000Y-92710000D03*
D14*
X160274000Y-90170000D03*
D15*
X158623000Y-90170000D03*
D16*
X137414000Y-92380000D03*
X137414000Y-95580000D03*
D17*
X145930000Y-92964000D03*
X143630000Y-92964000D03*
D16*
X134620000Y-91110000D03*
X134620000Y-94310000D03*
D18*
X150742000Y-91694000D03*
X153042000Y-91694000D03*
D19*
X153078000Y-95250000D03*
X155278000Y-95250000D03*
D20*
X154940000Y-110060000D03*
D21*
X152400000Y-110060000D03*
X149860000Y-110060000D03*
X147320000Y-110060000D03*
X144780000Y-110060000D03*
X142240000Y-110060000D03*
X139700000Y-110060000D03*
X137160000Y-110060000D03*
X134620000Y-110060000D03*
X134620000Y-88060000D03*
X137160000Y-88060000D03*
X139700000Y-88060000D03*
X142240000Y-88060000D03*
X144780000Y-88060000D03*
X147320000Y-88060000D03*
X149860000Y-88060000D03*
X152400000Y-88060000D03*
X154940000Y-88060000D03*
D22*
X141478000Y-92964000D03*
X148590000Y-86360000D03*
X140970000Y-86360000D03*
X158623000Y-111760000D03*
X130937000Y-86360000D03*
X140970000Y-111760000D03*
X155194000Y-91694000D03*
X147447000Y-103886000D03*
X141478000Y-94234000D03*
X130937000Y-111760000D03*
X148590000Y-111760000D03*
X133223000Y-99060000D03*
X145542000Y-105410000D03*
X158623000Y-86360000D03*
D23*
X143964052Y-98351948D03*
X150876000Y-97536000D03*
X156083000Y-106553000D03*
X145097520Y-107061000D03*
X141732006Y-104648000D03*
X144018000Y-99567998D03*
X138811000Y-100711000D03*
X138176000Y-103378000D03*
X139573000Y-103251000D03*
X149479000Y-102997000D03*
X151130000Y-102362000D03*
X152400000Y-102362000D03*
X155892500Y-104140000D03*
X155575000Y-101346000D03*
X154686000Y-99949000D03*
X144780000Y-95504000D03*
X145796000Y-94742000D03*
%LPD*%
M02*
