G04 #@! TF.GenerationSoftware,KiCad,Pcbnew,(5.1.8)*
G04 #@! TF.CreationDate,2021-04-29T17:53:28-04:00*
G04 #@! TF.ProjectId,disp,64697370-2e6b-4696-9361-645f70636258,rev?*
G04 #@! TF.SameCoordinates,Original*
G04 #@! TF.FileFunction,Soldermask,Top*
G04 #@! TF.FilePolarity,Negative*
%FSLAX46Y46*%
G04 Gerber Fmt 4.6, Leading zero omitted, Abs format (unit mm)*
G04 Created by KiCad (PCBNEW (5.1.8)) date 2021-04-29 17:53:28*
%MOMM*%
%LPD*%
G01*
G04 APERTURE LIST*
%ADD10R,1.600000X0.400000*%
%ADD11R,1.600000X1.600000*%
%ADD12C,1.600000*%
%ADD13R,3.302000X1.778000*%
%ADD14R,2.032000X1.778000*%
%ADD15R,1.600000X1.200000*%
%ADD16R,1.100000X1.250000*%
%ADD17R,1.000000X1.300000*%
%ADD18C,1.143000*%
%ADD19C,0.889000*%
%ADD20C,0.100000*%
G04 APERTURE END LIST*
D10*
X142080000Y-95567500D03*
X142080000Y-96202500D03*
X142080000Y-96837500D03*
X142080000Y-97472500D03*
X142080000Y-98107500D03*
X142080000Y-98742500D03*
X142080000Y-99377500D03*
X142080000Y-100012500D03*
X142080000Y-100647500D03*
X142080000Y-101282500D03*
X142080000Y-101917500D03*
X142080000Y-102552500D03*
X147480000Y-102552500D03*
X147480000Y-101917500D03*
X147480000Y-101282500D03*
X147480000Y-100647500D03*
X147480000Y-100012500D03*
X147480000Y-99377500D03*
X147480000Y-98742500D03*
X147480000Y-98107500D03*
X147480000Y-97472500D03*
X147480000Y-96837500D03*
X147480000Y-96202500D03*
X147480000Y-95567500D03*
D11*
X154940000Y-110060000D03*
D12*
X152400000Y-110060000D03*
X149860000Y-110060000D03*
X147320000Y-110060000D03*
X144780000Y-110060000D03*
X142240000Y-110060000D03*
X139700000Y-110060000D03*
X137160000Y-110060000D03*
X134620000Y-110060000D03*
X134620000Y-88060000D03*
X137160000Y-88060000D03*
X139700000Y-88060000D03*
X142240000Y-88060000D03*
X144780000Y-88060000D03*
X147320000Y-88060000D03*
X149860000Y-88060000D03*
X152400000Y-88060000D03*
X154940000Y-88060000D03*
D13*
X129286000Y-107950000D03*
X129286000Y-105410000D03*
X129286000Y-102870000D03*
X129286000Y-100330000D03*
X129286000Y-97790000D03*
X129286000Y-95250000D03*
X129286000Y-92710000D03*
D14*
X130937000Y-90170000D03*
X130937000Y-92710000D03*
X130937000Y-95250000D03*
X130937000Y-97790000D03*
X130937000Y-100330000D03*
X130937000Y-102870000D03*
X130937000Y-105410000D03*
X130937000Y-107950000D03*
D13*
X129286000Y-90170000D03*
X160274000Y-90170000D03*
X160274000Y-92710000D03*
X160274000Y-95250000D03*
X160274000Y-97790000D03*
X160274000Y-100330000D03*
X160274000Y-102870000D03*
X160274000Y-105410000D03*
D14*
X158623000Y-107950000D03*
X158623000Y-105410000D03*
X158623000Y-102870000D03*
X158623000Y-100330000D03*
X158623000Y-97790000D03*
X158623000Y-95250000D03*
X158623000Y-92710000D03*
X158623000Y-90170000D03*
D13*
X160274000Y-107950000D03*
D15*
X137414000Y-92380000D03*
X137414000Y-95580000D03*
D16*
X143730000Y-92964000D03*
X145830000Y-92964000D03*
D15*
X134620000Y-91110000D03*
X134620000Y-94310000D03*
D16*
X152942000Y-91694000D03*
X150842000Y-91694000D03*
D17*
X155278000Y-95250000D03*
X153078000Y-95250000D03*
D18*
X148590000Y-111760000D03*
X140970000Y-111760000D03*
X140970000Y-86360000D03*
X148590000Y-86360000D03*
X141478000Y-92964000D03*
X141478000Y-94234000D03*
X145542000Y-105410000D03*
X147447000Y-103886000D03*
X133223000Y-99060000D03*
X158623000Y-111760000D03*
X130937000Y-111760000D03*
X130937000Y-86360000D03*
X158623000Y-86360000D03*
X155194000Y-91694000D03*
D19*
X150876000Y-97536000D03*
X143964052Y-98351948D03*
X156083000Y-106553000D03*
X145097520Y-107061000D03*
X141732006Y-104648000D03*
X144018000Y-99567998D03*
X138811000Y-100711000D03*
X138176000Y-103378000D03*
X139573000Y-103251000D03*
X149479000Y-102997000D03*
X151130000Y-102362000D03*
X152400000Y-102362000D03*
X155702000Y-103378000D03*
X155575000Y-100965000D03*
X154686000Y-99949000D03*
X144780000Y-95504000D03*
X145796000Y-94742000D03*
D20*
G36*
X148281732Y-102116500D02*
G01*
X148282000Y-102117500D01*
X148282000Y-102352500D01*
X148281000Y-102354232D01*
X148280000Y-102354500D01*
X146680000Y-102354500D01*
X146678268Y-102353500D01*
X146678000Y-102352500D01*
X146678000Y-102117500D01*
X146679000Y-102115768D01*
X146680000Y-102115500D01*
X148280000Y-102115500D01*
X148281732Y-102116500D01*
G37*
G36*
X142881732Y-102116500D02*
G01*
X142882000Y-102117500D01*
X142882000Y-102352500D01*
X142881000Y-102354232D01*
X142880000Y-102354500D01*
X141280000Y-102354500D01*
X141278268Y-102353500D01*
X141278000Y-102352500D01*
X141278000Y-102117500D01*
X141279000Y-102115768D01*
X141280000Y-102115500D01*
X142880000Y-102115500D01*
X142881732Y-102116500D01*
G37*
G36*
X142881732Y-101481500D02*
G01*
X142882000Y-101482500D01*
X142882000Y-101717500D01*
X142881000Y-101719232D01*
X142880000Y-101719500D01*
X141280000Y-101719500D01*
X141278268Y-101718500D01*
X141278000Y-101717500D01*
X141278000Y-101482500D01*
X141279000Y-101480768D01*
X141280000Y-101480500D01*
X142880000Y-101480500D01*
X142881732Y-101481500D01*
G37*
G36*
X148281732Y-101481500D02*
G01*
X148282000Y-101482500D01*
X148282000Y-101717500D01*
X148281000Y-101719232D01*
X148280000Y-101719500D01*
X146680000Y-101719500D01*
X146678268Y-101718500D01*
X146678000Y-101717500D01*
X146678000Y-101482500D01*
X146679000Y-101480768D01*
X146680000Y-101480500D01*
X148280000Y-101480500D01*
X148281732Y-101481500D01*
G37*
G36*
X142881732Y-100846500D02*
G01*
X142882000Y-100847500D01*
X142882000Y-101082500D01*
X142881000Y-101084232D01*
X142880000Y-101084500D01*
X141280000Y-101084500D01*
X141278268Y-101083500D01*
X141278000Y-101082500D01*
X141278000Y-100847500D01*
X141279000Y-100845768D01*
X141280000Y-100845500D01*
X142880000Y-100845500D01*
X142881732Y-100846500D01*
G37*
G36*
X148281732Y-100846500D02*
G01*
X148282000Y-100847500D01*
X148282000Y-101082500D01*
X148281000Y-101084232D01*
X148280000Y-101084500D01*
X146680000Y-101084500D01*
X146678268Y-101083500D01*
X146678000Y-101082500D01*
X146678000Y-100847500D01*
X146679000Y-100845768D01*
X146680000Y-100845500D01*
X148280000Y-100845500D01*
X148281732Y-100846500D01*
G37*
G36*
X148281732Y-100211500D02*
G01*
X148282000Y-100212500D01*
X148282000Y-100447500D01*
X148281000Y-100449232D01*
X148280000Y-100449500D01*
X146680000Y-100449500D01*
X146678268Y-100448500D01*
X146678000Y-100447500D01*
X146678000Y-100212500D01*
X146679000Y-100210768D01*
X146680000Y-100210500D01*
X148280000Y-100210500D01*
X148281732Y-100211500D01*
G37*
G36*
X142881732Y-100211500D02*
G01*
X142882000Y-100212500D01*
X142882000Y-100447500D01*
X142881000Y-100449232D01*
X142880000Y-100449500D01*
X141280000Y-100449500D01*
X141278268Y-100448500D01*
X141278000Y-100447500D01*
X141278000Y-100212500D01*
X141279000Y-100210768D01*
X141280000Y-100210500D01*
X142880000Y-100210500D01*
X142881732Y-100211500D01*
G37*
G36*
X148281732Y-99576500D02*
G01*
X148282000Y-99577500D01*
X148282000Y-99812500D01*
X148281000Y-99814232D01*
X148280000Y-99814500D01*
X146680000Y-99814500D01*
X146678268Y-99813500D01*
X146678000Y-99812500D01*
X146678000Y-99577500D01*
X146679000Y-99575768D01*
X146680000Y-99575500D01*
X148280000Y-99575500D01*
X148281732Y-99576500D01*
G37*
G36*
X142881732Y-99576500D02*
G01*
X142882000Y-99577500D01*
X142882000Y-99812500D01*
X142881000Y-99814232D01*
X142880000Y-99814500D01*
X141280000Y-99814500D01*
X141278268Y-99813500D01*
X141278000Y-99812500D01*
X141278000Y-99577500D01*
X141279000Y-99575768D01*
X141280000Y-99575500D01*
X142880000Y-99575500D01*
X142881732Y-99576500D01*
G37*
G36*
X142881732Y-98941500D02*
G01*
X142882000Y-98942500D01*
X142882000Y-99177500D01*
X142881000Y-99179232D01*
X142880000Y-99179500D01*
X141280000Y-99179500D01*
X141278268Y-99178500D01*
X141278000Y-99177500D01*
X141278000Y-98942500D01*
X141279000Y-98940768D01*
X141280000Y-98940500D01*
X142880000Y-98940500D01*
X142881732Y-98941500D01*
G37*
G36*
X148281732Y-98941500D02*
G01*
X148282000Y-98942500D01*
X148282000Y-99177500D01*
X148281000Y-99179232D01*
X148280000Y-99179500D01*
X146680000Y-99179500D01*
X146678268Y-99178500D01*
X146678000Y-99177500D01*
X146678000Y-98942500D01*
X146679000Y-98940768D01*
X146680000Y-98940500D01*
X148280000Y-98940500D01*
X148281732Y-98941500D01*
G37*
G36*
X142881732Y-98306500D02*
G01*
X142882000Y-98307500D01*
X142882000Y-98542500D01*
X142881000Y-98544232D01*
X142880000Y-98544500D01*
X141280000Y-98544500D01*
X141278268Y-98543500D01*
X141278000Y-98542500D01*
X141278000Y-98307500D01*
X141279000Y-98305768D01*
X141280000Y-98305500D01*
X142880000Y-98305500D01*
X142881732Y-98306500D01*
G37*
G36*
X148281732Y-98306500D02*
G01*
X148282000Y-98307500D01*
X148282000Y-98542500D01*
X148281000Y-98544232D01*
X148280000Y-98544500D01*
X146680000Y-98544500D01*
X146678268Y-98543500D01*
X146678000Y-98542500D01*
X146678000Y-98307500D01*
X146679000Y-98305768D01*
X146680000Y-98305500D01*
X148280000Y-98305500D01*
X148281732Y-98306500D01*
G37*
G36*
X142881732Y-97671500D02*
G01*
X142882000Y-97672500D01*
X142882000Y-97907500D01*
X142881000Y-97909232D01*
X142880000Y-97909500D01*
X141280000Y-97909500D01*
X141278268Y-97908500D01*
X141278000Y-97907500D01*
X141278000Y-97672500D01*
X141279000Y-97670768D01*
X141280000Y-97670500D01*
X142880000Y-97670500D01*
X142881732Y-97671500D01*
G37*
G36*
X148281732Y-97671500D02*
G01*
X148282000Y-97672500D01*
X148282000Y-97907500D01*
X148281000Y-97909232D01*
X148280000Y-97909500D01*
X146680000Y-97909500D01*
X146678268Y-97908500D01*
X146678000Y-97907500D01*
X146678000Y-97672500D01*
X146679000Y-97670768D01*
X146680000Y-97670500D01*
X148280000Y-97670500D01*
X148281732Y-97671500D01*
G37*
G36*
X148281732Y-97036500D02*
G01*
X148282000Y-97037500D01*
X148282000Y-97272500D01*
X148281000Y-97274232D01*
X148280000Y-97274500D01*
X146680000Y-97274500D01*
X146678268Y-97273500D01*
X146678000Y-97272500D01*
X146678000Y-97037500D01*
X146679000Y-97035768D01*
X146680000Y-97035500D01*
X148280000Y-97035500D01*
X148281732Y-97036500D01*
G37*
G36*
X142881732Y-97036500D02*
G01*
X142882000Y-97037500D01*
X142882000Y-97272500D01*
X142881000Y-97274232D01*
X142880000Y-97274500D01*
X141280000Y-97274500D01*
X141278268Y-97273500D01*
X141278000Y-97272500D01*
X141278000Y-97037500D01*
X141279000Y-97035768D01*
X141280000Y-97035500D01*
X142880000Y-97035500D01*
X142881732Y-97036500D01*
G37*
G36*
X142881732Y-96401500D02*
G01*
X142882000Y-96402500D01*
X142882000Y-96637500D01*
X142881000Y-96639232D01*
X142880000Y-96639500D01*
X141280000Y-96639500D01*
X141278268Y-96638500D01*
X141278000Y-96637500D01*
X141278000Y-96402500D01*
X141279000Y-96400768D01*
X141280000Y-96400500D01*
X142880000Y-96400500D01*
X142881732Y-96401500D01*
G37*
G36*
X148281732Y-96401500D02*
G01*
X148282000Y-96402500D01*
X148282000Y-96637500D01*
X148281000Y-96639232D01*
X148280000Y-96639500D01*
X146680000Y-96639500D01*
X146678268Y-96638500D01*
X146678000Y-96637500D01*
X146678000Y-96402500D01*
X146679000Y-96400768D01*
X146680000Y-96400500D01*
X148280000Y-96400500D01*
X148281732Y-96401500D01*
G37*
G36*
X148281732Y-95766500D02*
G01*
X148282000Y-95767500D01*
X148282000Y-96002500D01*
X148281000Y-96004232D01*
X148280000Y-96004500D01*
X146680000Y-96004500D01*
X146678268Y-96003500D01*
X146678000Y-96002500D01*
X146678000Y-95767500D01*
X146679000Y-95765768D01*
X146680000Y-95765500D01*
X148280000Y-95765500D01*
X148281732Y-95766500D01*
G37*
G36*
X142881732Y-95766500D02*
G01*
X142882000Y-95767500D01*
X142882000Y-96002500D01*
X142881000Y-96004232D01*
X142880000Y-96004500D01*
X141280000Y-96004500D01*
X141278268Y-96003500D01*
X141278000Y-96002500D01*
X141278000Y-95767500D01*
X141279000Y-95765768D01*
X141280000Y-95765500D01*
X142880000Y-95765500D01*
X142881732Y-95766500D01*
G37*
G36*
X141704214Y-93484825D02*
G01*
X141704979Y-93486673D01*
X141703939Y-93488176D01*
X141687919Y-93496738D01*
X141669282Y-93512033D01*
X141653987Y-93530670D01*
X141642622Y-93551934D01*
X141635622Y-93575009D01*
X141633259Y-93599000D01*
X141635622Y-93622991D01*
X141642622Y-93646066D01*
X141653987Y-93667330D01*
X141669282Y-93685967D01*
X141687919Y-93701262D01*
X141703939Y-93709824D01*
X141704995Y-93711523D01*
X141704052Y-93713286D01*
X141702231Y-93713436D01*
X141643316Y-93689033D01*
X141533818Y-93667252D01*
X141422182Y-93667252D01*
X141312684Y-93689033D01*
X141253769Y-93713436D01*
X141251786Y-93713175D01*
X141251021Y-93711327D01*
X141252061Y-93709824D01*
X141268081Y-93701262D01*
X141286718Y-93685967D01*
X141302013Y-93667330D01*
X141313378Y-93646066D01*
X141320378Y-93622991D01*
X141322741Y-93599000D01*
X141320378Y-93575009D01*
X141313378Y-93551934D01*
X141302013Y-93530670D01*
X141286718Y-93512033D01*
X141268081Y-93496738D01*
X141252061Y-93488176D01*
X141251005Y-93486477D01*
X141251948Y-93484714D01*
X141253769Y-93484564D01*
X141312684Y-93508967D01*
X141422182Y-93530748D01*
X141533818Y-93530748D01*
X141643316Y-93508967D01*
X141702231Y-93484564D01*
X141704214Y-93484825D01*
G37*
M02*
