G04 #@! TF.FileFunction,Copper,L1,Top,Signal*
%FSLAX46Y46*%
G04 Gerber Fmt 4.6, Leading zero omitted, Abs format (unit mm)*
G04 Created by KiCad (PCBNEW (2015-12-09 BZR 6195)-product) date Mon Sep  5 18:49:27 2016*
%MOMM*%
G01*
G04 APERTURE LIST*
%ADD10C,0.100000*%
%ADD11R,1.600000X0.400000*%
%ADD12R,1.600000X1.600000*%
%ADD13C,1.600000*%
%ADD14R,3.302000X1.778000*%
%ADD15R,2.032000X1.778000*%
%ADD16R,1.600000X1.200000*%
%ADD17R,1.100000X1.250000*%
%ADD18R,1.000000X1.300000*%
%ADD19C,1.143000*%
%ADD20C,0.889000*%
%ADD21C,1.016000*%
%ADD22C,0.254000*%
%ADD23C,1.270000*%
G04 APERTURE END LIST*
D10*
D11*
X142080000Y-95567500D03*
X142080000Y-96202500D03*
X142080000Y-96837500D03*
X142080000Y-97472500D03*
X142080000Y-98107500D03*
X142080000Y-98742500D03*
X142080000Y-99377500D03*
X142080000Y-100012500D03*
X142080000Y-100647500D03*
X142080000Y-101282500D03*
X142080000Y-101917500D03*
X142080000Y-102552500D03*
X147480000Y-102552500D03*
X147480000Y-101917500D03*
X147480000Y-101282500D03*
X147480000Y-100647500D03*
X147480000Y-100012500D03*
X147480000Y-99377500D03*
X147480000Y-98742500D03*
X147480000Y-98107500D03*
X147480000Y-97472500D03*
X147480000Y-96837500D03*
X147480000Y-96202500D03*
X147480000Y-95567500D03*
D12*
X154940000Y-110060000D03*
D13*
X152400000Y-110060000D03*
X149860000Y-110060000D03*
X147320000Y-110060000D03*
X144780000Y-110060000D03*
X142240000Y-110060000D03*
X139700000Y-110060000D03*
X137160000Y-110060000D03*
X134620000Y-110060000D03*
X134620000Y-88060000D03*
X137160000Y-88060000D03*
X139700000Y-88060000D03*
X142240000Y-88060000D03*
X144780000Y-88060000D03*
X147320000Y-88060000D03*
X149860000Y-88060000D03*
X152400000Y-88060000D03*
X154940000Y-88060000D03*
D14*
X129286000Y-107950000D03*
X129286000Y-105410000D03*
X129286000Y-102870000D03*
X129286000Y-100330000D03*
X129286000Y-97790000D03*
X129286000Y-95250000D03*
X129286000Y-92710000D03*
D15*
X130937000Y-90170000D03*
X130937000Y-92710000D03*
X130937000Y-95250000D03*
X130937000Y-97790000D03*
X130937000Y-100330000D03*
X130937000Y-102870000D03*
X130937000Y-105410000D03*
X130937000Y-107950000D03*
D14*
X129286000Y-90170000D03*
X160274000Y-90170000D03*
X160274000Y-92710000D03*
X160274000Y-95250000D03*
X160274000Y-97790000D03*
X160274000Y-100330000D03*
X160274000Y-102870000D03*
X160274000Y-105410000D03*
D15*
X158623000Y-107950000D03*
X158623000Y-105410000D03*
X158623000Y-102870000D03*
X158623000Y-100330000D03*
X158623000Y-97790000D03*
X158623000Y-95250000D03*
X158623000Y-92710000D03*
X158623000Y-90170000D03*
D14*
X160274000Y-107950000D03*
D16*
X137414000Y-92380000D03*
X137414000Y-95580000D03*
D17*
X143730000Y-92964000D03*
X145830000Y-92964000D03*
D16*
X134620000Y-91110000D03*
X134620000Y-94310000D03*
D17*
X152942000Y-91694000D03*
X150842000Y-91694000D03*
D18*
X155278000Y-95250000D03*
X153078000Y-95250000D03*
D19*
X148590000Y-111760000D03*
X140970000Y-111760000D03*
X140970000Y-86360000D03*
X148590000Y-86360000D03*
X141478000Y-92964000D03*
X141478000Y-94234000D03*
X145542000Y-105410000D03*
X147447000Y-103886000D03*
X133223000Y-99060000D03*
X158623000Y-111760000D03*
X130937000Y-111760000D03*
X130937000Y-86360000D03*
X158623000Y-86360000D03*
X155194000Y-91694000D03*
D20*
X150876000Y-97536000D03*
X143964052Y-98351948D03*
X156083000Y-106553000D03*
X145097520Y-107061000D03*
X141732006Y-104648000D03*
X144018000Y-99567998D03*
X138811000Y-100711000D03*
X138176000Y-103378000D03*
X139573000Y-103251000D03*
X149479000Y-102997000D03*
X151130000Y-102362000D03*
X152400000Y-102362000D03*
X155702000Y-103378000D03*
X155575000Y-100965000D03*
X154686000Y-99949000D03*
X144780000Y-95504000D03*
X145796000Y-94742000D03*
D21*
X139770000Y-91440000D02*
X145923000Y-91440000D01*
X145923000Y-91440000D02*
X147574000Y-91440000D01*
X145830000Y-92964000D02*
X145830000Y-91533000D01*
X145830000Y-91533000D02*
X145923000Y-91440000D01*
X137414000Y-92380000D02*
X138830000Y-92380000D01*
X138830000Y-92380000D02*
X139770000Y-91440000D01*
X147574000Y-91440000D02*
X149606000Y-93472000D01*
X149606000Y-93472000D02*
X155702000Y-93472000D01*
X155702000Y-93472000D02*
X156464000Y-92710000D01*
X156464000Y-92710000D02*
X160655000Y-92710000D01*
X145830000Y-92964000D02*
X146812000Y-92964000D01*
X146812000Y-92964000D02*
X147480000Y-93632000D01*
X147480000Y-93632000D02*
X147480000Y-95113500D01*
X128905000Y-92710000D02*
X135890000Y-92710000D01*
X135890000Y-92710000D02*
X136220000Y-92380000D01*
X136220000Y-92380000D02*
X137414000Y-92380000D01*
D22*
X147480000Y-95113500D02*
X147480000Y-95567500D01*
X158623000Y-86360000D02*
X148590000Y-86360000D01*
X141478000Y-92964000D02*
X143730000Y-92964000D01*
X138862000Y-95580000D02*
X137414000Y-95580000D01*
X141478000Y-94234000D02*
X140208000Y-94234000D01*
X140208000Y-94234000D02*
X138862000Y-95580000D01*
X134620000Y-94310000D02*
X133401000Y-94310000D01*
X133401000Y-94310000D02*
X132461000Y-95250000D01*
X132461000Y-95250000D02*
X128905000Y-95250000D01*
X136017000Y-95377000D02*
X136017000Y-94488000D01*
X136017000Y-94488000D02*
X135839000Y-94310000D01*
X135839000Y-94310000D02*
X134620000Y-94310000D01*
X137414000Y-95580000D02*
X136220000Y-95580000D01*
X136220000Y-95580000D02*
X136017000Y-95377000D01*
X143730000Y-92964000D02*
X143730000Y-94014000D01*
X143730000Y-94014000D02*
X143129000Y-94615000D01*
X143129000Y-94615000D02*
X142367000Y-94615000D01*
X142367000Y-94615000D02*
X142080000Y-94902000D01*
X142080000Y-94902000D02*
X142080000Y-95567500D01*
X158623000Y-95250000D02*
X155278000Y-95250000D01*
D21*
X155194000Y-91694000D02*
X152942000Y-91694000D01*
D22*
X151130000Y-111760000D02*
X153670000Y-111760000D01*
X151130000Y-111760000D02*
X151130000Y-109601000D01*
X148590000Y-111760000D02*
X151130000Y-111760000D01*
X148590000Y-111760000D02*
X148590000Y-109601000D01*
X146050000Y-111760000D02*
X148590000Y-111760000D01*
X153670000Y-111760000D02*
X153670000Y-108966000D01*
X135890000Y-111760000D02*
X135890000Y-109601000D01*
X138430000Y-111760000D02*
X138430000Y-109601000D01*
X140970000Y-111760000D02*
X140970000Y-109601000D01*
X143510000Y-111760000D02*
X143510000Y-109601000D01*
X143510000Y-111760000D02*
X146050000Y-111760000D01*
X146050000Y-111760000D02*
X146050000Y-109601000D01*
X147447000Y-103886000D02*
X147574000Y-103759000D01*
D21*
X130937000Y-107950000D02*
X130937000Y-111760000D01*
D22*
X143510000Y-111760000D02*
X140970000Y-111760000D01*
X140970000Y-111760000D02*
X138430000Y-111760000D01*
X138430000Y-111760000D02*
X135890000Y-111760000D01*
X135890000Y-111760000D02*
X130937000Y-111760000D01*
D21*
X158623000Y-111760000D02*
X158623000Y-107950000D01*
X130937000Y-107950000D02*
X128905000Y-107950000D01*
D22*
X158623000Y-95250000D02*
X160655000Y-95250000D01*
D23*
X134620000Y-89916000D02*
X133096000Y-89916000D01*
X133096000Y-89916000D02*
X132842000Y-90170000D01*
X132842000Y-90170000D02*
X130937000Y-90170000D01*
X156210000Y-89916000D02*
X150876000Y-89916000D01*
X150876000Y-89916000D02*
X144780000Y-89916000D01*
D21*
X150842000Y-91694000D02*
X150842000Y-89950000D01*
X150842000Y-89950000D02*
X150876000Y-89916000D01*
D23*
X144780000Y-89916000D02*
X142240000Y-89916000D01*
X142240000Y-89916000D02*
X134620000Y-89916000D01*
D21*
X142240000Y-88060000D02*
X142240000Y-89916000D01*
X144780000Y-88060000D02*
X144780000Y-89916000D01*
X134620000Y-91110000D02*
X134620000Y-89916000D01*
D23*
X158623000Y-90170000D02*
X156464000Y-90170000D01*
X156464000Y-90170000D02*
X156210000Y-89916000D01*
D21*
X144780000Y-88060000D02*
X142240000Y-88060000D01*
D22*
X150876000Y-97536000D02*
X154559000Y-97536000D01*
X154559000Y-97536000D02*
X157353000Y-100330000D01*
X157353000Y-100330000D02*
X158623000Y-100330000D01*
X143134000Y-97472500D02*
X143964052Y-98302552D01*
X143964052Y-98302552D02*
X143964052Y-98351948D01*
X142080000Y-97472500D02*
X143134000Y-97472500D01*
X156083000Y-106553000D02*
X155575000Y-107061000D01*
X155575000Y-107061000D02*
X145097520Y-107061000D01*
X147480000Y-97472500D02*
X149542500Y-97472500D01*
X149542500Y-97472500D02*
X150622000Y-98552000D01*
X154570380Y-98552000D02*
X156718000Y-100699620D01*
X150622000Y-98552000D02*
X154570380Y-98552000D01*
X156718000Y-100699620D02*
X156718000Y-102108000D01*
X156718000Y-102108000D02*
X157480000Y-102870000D01*
X157480000Y-102870000D02*
X158623000Y-102870000D01*
X158623000Y-102870000D02*
X160655000Y-102870000D01*
X158470600Y-102870000D02*
X158623000Y-102870000D01*
X158623000Y-105410000D02*
X160655000Y-105410000D01*
X140144500Y-96837500D02*
X142080000Y-96837500D01*
X136652000Y-98806000D02*
X138176000Y-98806000D01*
X134366000Y-101092000D02*
X136652000Y-98806000D01*
X138176000Y-98806000D02*
X140144500Y-96837500D01*
X134366000Y-104140000D02*
X134366000Y-101092000D01*
X133096000Y-105410000D02*
X134366000Y-104140000D01*
X128905000Y-105410000D02*
X133096000Y-105410000D01*
X143617066Y-96837500D02*
X145288000Y-98508434D01*
X147264626Y-105410000D02*
X158623000Y-105410000D01*
X145288000Y-98508434D02*
X145288000Y-103433374D01*
X142080000Y-96837500D02*
X143617066Y-96837500D01*
X145288000Y-103433374D02*
X147264626Y-105410000D01*
X147480000Y-96837500D02*
X149209758Y-96837500D01*
X149209758Y-96837500D02*
X149352740Y-96694518D01*
X149352740Y-96694518D02*
X154733518Y-96694518D01*
X154733518Y-96694518D02*
X155829000Y-97790000D01*
X155829000Y-97790000D02*
X158623000Y-97790000D01*
X158623000Y-97790000D02*
X160655000Y-97790000D01*
X153078000Y-95250000D02*
X149733000Y-95250000D01*
X147480000Y-96202500D02*
X148780500Y-96202500D01*
X148780500Y-96202500D02*
X149733000Y-95250000D01*
X142080000Y-98107500D02*
X140144500Y-98107500D01*
X140144500Y-98107500D02*
X136144000Y-102108000D01*
X136144000Y-102108000D02*
X136144000Y-105918000D01*
X136144000Y-105918000D02*
X134620000Y-107442000D01*
X134620000Y-107442000D02*
X134620000Y-110060000D01*
X139700000Y-110060000D02*
X139700000Y-106680006D01*
X139700000Y-106680006D02*
X141732006Y-104648000D01*
X143134000Y-98742500D02*
X143959498Y-99567998D01*
X142080000Y-98742500D02*
X143134000Y-98742500D01*
X143959498Y-99567998D02*
X144018000Y-99567998D01*
X138811000Y-100711000D02*
X140144500Y-99377500D01*
X140144500Y-99377500D02*
X142080000Y-99377500D01*
X144780000Y-108331000D02*
X144780000Y-110060000D01*
X144145000Y-107696000D02*
X144780000Y-108331000D01*
X144145000Y-101008566D02*
X144145000Y-107696000D01*
X143148934Y-100012500D02*
X144145000Y-101008566D01*
X142080000Y-100012500D02*
X143148934Y-100012500D01*
X143383000Y-100965000D02*
X143383000Y-105029000D01*
X143065500Y-100647500D02*
X143383000Y-100965000D01*
X142080000Y-100647500D02*
X143065500Y-100647500D01*
X142240000Y-106172000D02*
X142240000Y-110060000D01*
X143383000Y-105029000D02*
X142240000Y-106172000D01*
X137160000Y-110060000D02*
X137160000Y-102870000D01*
X137160000Y-102870000D02*
X138430000Y-101600000D01*
X138430000Y-101600000D02*
X139192000Y-101600000D01*
X139192000Y-101600000D02*
X139509500Y-101282500D01*
X139509500Y-101282500D02*
X142080000Y-101282500D01*
X142080000Y-101917500D02*
X139636500Y-101917500D01*
X139636500Y-101917500D02*
X138176000Y-103378000D01*
X140271500Y-102552500D02*
X139573000Y-103251000D01*
X142080000Y-102552500D02*
X140271500Y-102552500D01*
X147480000Y-102552500D02*
X149034501Y-102552501D01*
X149034501Y-102552501D02*
X149479000Y-102997000D01*
X151130000Y-102362000D02*
X150685500Y-101917500D01*
X150685500Y-101917500D02*
X147480000Y-101917500D01*
X152400000Y-102362000D02*
X151320500Y-101282500D01*
X151320500Y-101282500D02*
X147480000Y-101282500D01*
X155702000Y-103378000D02*
X152971500Y-100647500D01*
X152971500Y-100647500D02*
X147480000Y-100647500D01*
X155575000Y-100965000D02*
X154305000Y-100965000D01*
X154305000Y-100965000D02*
X153352500Y-100012500D01*
X153352500Y-100012500D02*
X147480000Y-100012500D01*
X154686000Y-99949000D02*
X154114500Y-99377500D01*
X154114500Y-99377500D02*
X147480000Y-99377500D01*
X144780000Y-97282000D02*
X144780000Y-95504000D01*
X147480000Y-98742500D02*
X146240500Y-98742500D01*
X146240500Y-98742500D02*
X144780000Y-97282000D01*
X145796000Y-97536000D02*
X145796000Y-94742000D01*
X146367500Y-98107500D02*
X145796000Y-97536000D01*
X147480000Y-98107500D02*
X146367500Y-98107500D01*
X139636500Y-96202500D02*
X142080000Y-96202500D01*
X138049000Y-97790000D02*
X139636500Y-96202500D01*
X128905000Y-97790000D02*
X138049000Y-97790000D01*
G36*
X135694987Y-101658987D02*
X135557336Y-101864996D01*
X135509000Y-102108000D01*
X135509000Y-105654975D01*
X134170987Y-106992987D01*
X134033336Y-107198996D01*
X133985000Y-107442000D01*
X133985000Y-108907119D01*
X133880046Y-108950485D01*
X133511778Y-109318110D01*
X133312228Y-109798681D01*
X133311774Y-110319036D01*
X133510485Y-110799954D01*
X133878110Y-111168222D01*
X134358681Y-111367772D01*
X134879036Y-111368226D01*
X135359954Y-111169515D01*
X135728222Y-110801890D01*
X135890152Y-110411918D01*
X136050485Y-110799954D01*
X136418110Y-111168222D01*
X136898681Y-111367772D01*
X137419036Y-111368226D01*
X137899954Y-111169515D01*
X138268222Y-110801890D01*
X138430152Y-110411918D01*
X138590485Y-110799954D01*
X138958110Y-111168222D01*
X139438681Y-111367772D01*
X139959036Y-111368226D01*
X140439954Y-111169515D01*
X140808222Y-110801890D01*
X140970152Y-110411918D01*
X141130485Y-110799954D01*
X141498110Y-111168222D01*
X141978681Y-111367772D01*
X142499036Y-111368226D01*
X142979954Y-111169515D01*
X143348222Y-110801890D01*
X143510152Y-110411918D01*
X143670485Y-110799954D01*
X144038110Y-111168222D01*
X144518681Y-111367772D01*
X145039036Y-111368226D01*
X145519954Y-111169515D01*
X145888222Y-110801890D01*
X146050152Y-110411918D01*
X146210485Y-110799954D01*
X146578110Y-111168222D01*
X147058681Y-111367772D01*
X147579036Y-111368226D01*
X148059954Y-111169515D01*
X148428222Y-110801890D01*
X148590152Y-110411918D01*
X148750485Y-110799954D01*
X149118110Y-111168222D01*
X149598681Y-111367772D01*
X150119036Y-111368226D01*
X150599954Y-111169515D01*
X150968222Y-110801890D01*
X151130152Y-110411918D01*
X151290485Y-110799954D01*
X151658110Y-111168222D01*
X152138681Y-111367772D01*
X152659036Y-111368226D01*
X153139954Y-111169515D01*
X153508222Y-110801890D01*
X153622048Y-110527766D01*
X153622048Y-110860000D01*
X153657470Y-111048253D01*
X153768728Y-111221153D01*
X153938488Y-111337145D01*
X154140000Y-111377952D01*
X155740000Y-111377952D01*
X155928253Y-111342530D01*
X156101153Y-111231272D01*
X156217145Y-111061512D01*
X156257952Y-110860000D01*
X156257952Y-109260000D01*
X156222530Y-109071747D01*
X156111272Y-108898847D01*
X155941512Y-108782855D01*
X155740000Y-108742048D01*
X154140000Y-108742048D01*
X153951747Y-108777470D01*
X153778847Y-108888728D01*
X153662855Y-109058488D01*
X153622048Y-109260000D01*
X153622048Y-109592397D01*
X153509515Y-109320046D01*
X153141890Y-108951778D01*
X152661319Y-108752228D01*
X152140964Y-108751774D01*
X151660046Y-108950485D01*
X151291778Y-109318110D01*
X151129848Y-109708082D01*
X150969515Y-109320046D01*
X150601890Y-108951778D01*
X150121319Y-108752228D01*
X149600964Y-108751774D01*
X149120046Y-108950485D01*
X148751778Y-109318110D01*
X148589848Y-109708082D01*
X148429515Y-109320046D01*
X148061890Y-108951778D01*
X147581319Y-108752228D01*
X147060964Y-108751774D01*
X146580046Y-108950485D01*
X146211778Y-109318110D01*
X146049848Y-109708082D01*
X145889515Y-109320046D01*
X145521890Y-108951778D01*
X145415000Y-108907394D01*
X145415000Y-108331005D01*
X145415001Y-108331000D01*
X145366664Y-108087996D01*
X145310324Y-108003678D01*
X145636363Y-107868961D01*
X145809627Y-107696000D01*
X155575000Y-107696000D01*
X155818004Y-107647664D01*
X156024013Y-107510013D01*
X156028573Y-107505453D01*
X156271633Y-107505665D01*
X156621843Y-107360961D01*
X156890020Y-107093253D01*
X157035335Y-106743295D01*
X157035665Y-106364367D01*
X156903705Y-106045000D01*
X157089048Y-106045000D01*
X157089048Y-106299000D01*
X157124470Y-106487253D01*
X157186431Y-106583543D01*
X157068673Y-106701301D01*
X156972000Y-106934690D01*
X156972000Y-107410250D01*
X157130750Y-107569000D01*
X158105048Y-107569000D01*
X158105048Y-108331000D01*
X157130750Y-108331000D01*
X156972000Y-108489750D01*
X156972000Y-108965310D01*
X157068673Y-109198699D01*
X157247302Y-109377327D01*
X157480691Y-109474000D01*
X158083250Y-109474000D01*
X158242000Y-109315250D01*
X158242000Y-109185035D01*
X158251728Y-109200153D01*
X158421488Y-109316145D01*
X158623000Y-109356952D01*
X159045702Y-109356952D01*
X159162750Y-109474000D01*
X159765309Y-109474000D01*
X159998698Y-109377327D01*
X160019073Y-109356952D01*
X161748000Y-109356952D01*
X161748000Y-109728000D01*
X161790475Y-109941537D01*
X161911434Y-110122566D01*
X162002000Y-110183080D01*
X162002000Y-113742000D01*
X127558000Y-113742000D01*
X127558000Y-110183080D01*
X127648566Y-110122566D01*
X127769525Y-109941537D01*
X127812000Y-109728000D01*
X127812000Y-109356952D01*
X129540927Y-109356952D01*
X129561302Y-109377327D01*
X129794691Y-109474000D01*
X130397250Y-109474000D01*
X130514298Y-109356952D01*
X130937000Y-109356952D01*
X131125253Y-109321530D01*
X131298153Y-109210272D01*
X131318000Y-109181225D01*
X131318000Y-109315250D01*
X131476750Y-109474000D01*
X132079309Y-109474000D01*
X132312698Y-109377327D01*
X132491327Y-109198699D01*
X132588000Y-108965310D01*
X132588000Y-108489750D01*
X132429250Y-108331000D01*
X131454952Y-108331000D01*
X131454952Y-107569000D01*
X132429250Y-107569000D01*
X132588000Y-107410250D01*
X132588000Y-106934690D01*
X132491327Y-106701301D01*
X132373476Y-106583450D01*
X132430145Y-106500512D01*
X132470952Y-106299000D01*
X132470952Y-106045000D01*
X133096000Y-106045000D01*
X133339004Y-105996664D01*
X133545013Y-105859013D01*
X134815013Y-104589013D01*
X134952664Y-104383004D01*
X135001000Y-104140000D01*
X135001000Y-101355026D01*
X136915026Y-99441000D01*
X137912974Y-99441000D01*
X135694987Y-101658987D01*
X135694987Y-101658987D01*
G37*
X135694987Y-101658987D02*
X135557336Y-101864996D01*
X135509000Y-102108000D01*
X135509000Y-105654975D01*
X134170987Y-106992987D01*
X134033336Y-107198996D01*
X133985000Y-107442000D01*
X133985000Y-108907119D01*
X133880046Y-108950485D01*
X133511778Y-109318110D01*
X133312228Y-109798681D01*
X133311774Y-110319036D01*
X133510485Y-110799954D01*
X133878110Y-111168222D01*
X134358681Y-111367772D01*
X134879036Y-111368226D01*
X135359954Y-111169515D01*
X135728222Y-110801890D01*
X135890152Y-110411918D01*
X136050485Y-110799954D01*
X136418110Y-111168222D01*
X136898681Y-111367772D01*
X137419036Y-111368226D01*
X137899954Y-111169515D01*
X138268222Y-110801890D01*
X138430152Y-110411918D01*
X138590485Y-110799954D01*
X138958110Y-111168222D01*
X139438681Y-111367772D01*
X139959036Y-111368226D01*
X140439954Y-111169515D01*
X140808222Y-110801890D01*
X140970152Y-110411918D01*
X141130485Y-110799954D01*
X141498110Y-111168222D01*
X141978681Y-111367772D01*
X142499036Y-111368226D01*
X142979954Y-111169515D01*
X143348222Y-110801890D01*
X143510152Y-110411918D01*
X143670485Y-110799954D01*
X144038110Y-111168222D01*
X144518681Y-111367772D01*
X145039036Y-111368226D01*
X145519954Y-111169515D01*
X145888222Y-110801890D01*
X146050152Y-110411918D01*
X146210485Y-110799954D01*
X146578110Y-111168222D01*
X147058681Y-111367772D01*
X147579036Y-111368226D01*
X148059954Y-111169515D01*
X148428222Y-110801890D01*
X148590152Y-110411918D01*
X148750485Y-110799954D01*
X149118110Y-111168222D01*
X149598681Y-111367772D01*
X150119036Y-111368226D01*
X150599954Y-111169515D01*
X150968222Y-110801890D01*
X151130152Y-110411918D01*
X151290485Y-110799954D01*
X151658110Y-111168222D01*
X152138681Y-111367772D01*
X152659036Y-111368226D01*
X153139954Y-111169515D01*
X153508222Y-110801890D01*
X153622048Y-110527766D01*
X153622048Y-110860000D01*
X153657470Y-111048253D01*
X153768728Y-111221153D01*
X153938488Y-111337145D01*
X154140000Y-111377952D01*
X155740000Y-111377952D01*
X155928253Y-111342530D01*
X156101153Y-111231272D01*
X156217145Y-111061512D01*
X156257952Y-110860000D01*
X156257952Y-109260000D01*
X156222530Y-109071747D01*
X156111272Y-108898847D01*
X155941512Y-108782855D01*
X155740000Y-108742048D01*
X154140000Y-108742048D01*
X153951747Y-108777470D01*
X153778847Y-108888728D01*
X153662855Y-109058488D01*
X153622048Y-109260000D01*
X153622048Y-109592397D01*
X153509515Y-109320046D01*
X153141890Y-108951778D01*
X152661319Y-108752228D01*
X152140964Y-108751774D01*
X151660046Y-108950485D01*
X151291778Y-109318110D01*
X151129848Y-109708082D01*
X150969515Y-109320046D01*
X150601890Y-108951778D01*
X150121319Y-108752228D01*
X149600964Y-108751774D01*
X149120046Y-108950485D01*
X148751778Y-109318110D01*
X148589848Y-109708082D01*
X148429515Y-109320046D01*
X148061890Y-108951778D01*
X147581319Y-108752228D01*
X147060964Y-108751774D01*
X146580046Y-108950485D01*
X146211778Y-109318110D01*
X146049848Y-109708082D01*
X145889515Y-109320046D01*
X145521890Y-108951778D01*
X145415000Y-108907394D01*
X145415000Y-108331005D01*
X145415001Y-108331000D01*
X145366664Y-108087996D01*
X145310324Y-108003678D01*
X145636363Y-107868961D01*
X145809627Y-107696000D01*
X155575000Y-107696000D01*
X155818004Y-107647664D01*
X156024013Y-107510013D01*
X156028573Y-107505453D01*
X156271633Y-107505665D01*
X156621843Y-107360961D01*
X156890020Y-107093253D01*
X157035335Y-106743295D01*
X157035665Y-106364367D01*
X156903705Y-106045000D01*
X157089048Y-106045000D01*
X157089048Y-106299000D01*
X157124470Y-106487253D01*
X157186431Y-106583543D01*
X157068673Y-106701301D01*
X156972000Y-106934690D01*
X156972000Y-107410250D01*
X157130750Y-107569000D01*
X158105048Y-107569000D01*
X158105048Y-108331000D01*
X157130750Y-108331000D01*
X156972000Y-108489750D01*
X156972000Y-108965310D01*
X157068673Y-109198699D01*
X157247302Y-109377327D01*
X157480691Y-109474000D01*
X158083250Y-109474000D01*
X158242000Y-109315250D01*
X158242000Y-109185035D01*
X158251728Y-109200153D01*
X158421488Y-109316145D01*
X158623000Y-109356952D01*
X159045702Y-109356952D01*
X159162750Y-109474000D01*
X159765309Y-109474000D01*
X159998698Y-109377327D01*
X160019073Y-109356952D01*
X161748000Y-109356952D01*
X161748000Y-109728000D01*
X161790475Y-109941537D01*
X161911434Y-110122566D01*
X162002000Y-110183080D01*
X162002000Y-113742000D01*
X127558000Y-113742000D01*
X127558000Y-110183080D01*
X127648566Y-110122566D01*
X127769525Y-109941537D01*
X127812000Y-109728000D01*
X127812000Y-109356952D01*
X129540927Y-109356952D01*
X129561302Y-109377327D01*
X129794691Y-109474000D01*
X130397250Y-109474000D01*
X130514298Y-109356952D01*
X130937000Y-109356952D01*
X131125253Y-109321530D01*
X131298153Y-109210272D01*
X131318000Y-109181225D01*
X131318000Y-109315250D01*
X131476750Y-109474000D01*
X132079309Y-109474000D01*
X132312698Y-109377327D01*
X132491327Y-109198699D01*
X132588000Y-108965310D01*
X132588000Y-108489750D01*
X132429250Y-108331000D01*
X131454952Y-108331000D01*
X131454952Y-107569000D01*
X132429250Y-107569000D01*
X132588000Y-107410250D01*
X132588000Y-106934690D01*
X132491327Y-106701301D01*
X132373476Y-106583450D01*
X132430145Y-106500512D01*
X132470952Y-106299000D01*
X132470952Y-106045000D01*
X133096000Y-106045000D01*
X133339004Y-105996664D01*
X133545013Y-105859013D01*
X134815013Y-104589013D01*
X134952664Y-104383004D01*
X135001000Y-104140000D01*
X135001000Y-101355026D01*
X136915026Y-99441000D01*
X137912974Y-99441000D01*
X135694987Y-101658987D01*
G36*
X141078488Y-103229645D02*
X141280000Y-103270452D01*
X142748000Y-103270452D01*
X142748000Y-104765974D01*
X142684349Y-104829625D01*
X142684671Y-104459367D01*
X142539967Y-104109157D01*
X142272259Y-103840980D01*
X141922301Y-103695665D01*
X141543373Y-103695335D01*
X141193163Y-103840039D01*
X140924986Y-104107747D01*
X140779671Y-104457705D01*
X140779458Y-104702523D01*
X139250987Y-106230993D01*
X139113336Y-106437002D01*
X139065000Y-106680006D01*
X139065000Y-108907119D01*
X138960046Y-108950485D01*
X138591778Y-109318110D01*
X138429848Y-109708082D01*
X138269515Y-109320046D01*
X137901890Y-108951778D01*
X137795000Y-108907394D01*
X137795000Y-104251148D01*
X137985705Y-104330335D01*
X138364633Y-104330665D01*
X138714843Y-104185961D01*
X138938044Y-103963151D01*
X139032747Y-104058020D01*
X139382705Y-104203335D01*
X139761633Y-104203665D01*
X140111843Y-104058961D01*
X140380020Y-103791253D01*
X140525335Y-103441295D01*
X140525548Y-103196478D01*
X140534526Y-103187500D01*
X141016807Y-103187500D01*
X141078488Y-103229645D01*
X141078488Y-103229645D01*
G37*
X141078488Y-103229645D02*
X141280000Y-103270452D01*
X142748000Y-103270452D01*
X142748000Y-104765974D01*
X142684349Y-104829625D01*
X142684671Y-104459367D01*
X142539967Y-104109157D01*
X142272259Y-103840980D01*
X141922301Y-103695665D01*
X141543373Y-103695335D01*
X141193163Y-103840039D01*
X140924986Y-104107747D01*
X140779671Y-104457705D01*
X140779458Y-104702523D01*
X139250987Y-106230993D01*
X139113336Y-106437002D01*
X139065000Y-106680006D01*
X139065000Y-108907119D01*
X138960046Y-108950485D01*
X138591778Y-109318110D01*
X138429848Y-109708082D01*
X138269515Y-109320046D01*
X137901890Y-108951778D01*
X137795000Y-108907394D01*
X137795000Y-104251148D01*
X137985705Y-104330335D01*
X138364633Y-104330665D01*
X138714843Y-104185961D01*
X138938044Y-103963151D01*
X139032747Y-104058020D01*
X139382705Y-104203335D01*
X139761633Y-104203665D01*
X140111843Y-104058961D01*
X140380020Y-103791253D01*
X140525335Y-103441295D01*
X140525548Y-103196478D01*
X140534526Y-103187500D01*
X141016807Y-103187500D01*
X141078488Y-103229645D01*
G36*
X141913315Y-105600659D02*
X141790987Y-105722987D01*
X141653336Y-105928996D01*
X141605000Y-106172000D01*
X141605000Y-108907119D01*
X141500046Y-108950485D01*
X141131778Y-109318110D01*
X140969848Y-109708082D01*
X140809515Y-109320046D01*
X140441890Y-108951778D01*
X140335000Y-108907394D01*
X140335000Y-106943032D01*
X141677578Y-105600453D01*
X141913315Y-105600659D01*
X141913315Y-105600659D01*
G37*
X141913315Y-105600659D02*
X141790987Y-105722987D01*
X141653336Y-105928996D01*
X141605000Y-106172000D01*
X141605000Y-108907119D01*
X141500046Y-108950485D01*
X141131778Y-109318110D01*
X140969848Y-109708082D01*
X140809515Y-109320046D01*
X140441890Y-108951778D01*
X140335000Y-108907394D01*
X140335000Y-106943032D01*
X141677578Y-105600453D01*
X141913315Y-105600659D01*
G36*
X143510000Y-107696000D02*
X143558336Y-107939004D01*
X143695987Y-108145013D01*
X144145000Y-108594026D01*
X144145000Y-108907119D01*
X144040046Y-108950485D01*
X143671778Y-109318110D01*
X143509848Y-109708082D01*
X143349515Y-109320046D01*
X142981890Y-108951778D01*
X142875000Y-108907394D01*
X142875000Y-106435026D01*
X143510000Y-105800026D01*
X143510000Y-107696000D01*
X143510000Y-107696000D01*
G37*
X143510000Y-107696000D02*
X143558336Y-107939004D01*
X143695987Y-108145013D01*
X144145000Y-108594026D01*
X144145000Y-108907119D01*
X144040046Y-108950485D01*
X143671778Y-109318110D01*
X143509848Y-109708082D01*
X143349515Y-109320046D01*
X142981890Y-108951778D01*
X142875000Y-108907394D01*
X142875000Y-106435026D01*
X143510000Y-105800026D01*
X143510000Y-107696000D01*
G36*
X136525000Y-108907119D02*
X136420046Y-108950485D01*
X136051778Y-109318110D01*
X135889848Y-109708082D01*
X135729515Y-109320046D01*
X135361890Y-108951778D01*
X135255000Y-108907394D01*
X135255000Y-107705026D01*
X136525000Y-106435025D01*
X136525000Y-108907119D01*
X136525000Y-108907119D01*
G37*
X136525000Y-108907119D02*
X136420046Y-108950485D01*
X136051778Y-109318110D01*
X135889848Y-109708082D01*
X135729515Y-109320046D01*
X135361890Y-108951778D01*
X135255000Y-108907394D01*
X135255000Y-107705026D01*
X136525000Y-106435025D01*
X136525000Y-108907119D01*
G36*
X144838987Y-103882387D02*
X146815613Y-105859013D01*
X147021621Y-105996664D01*
X147264626Y-106045000D01*
X155262587Y-106045000D01*
X155130665Y-106362705D01*
X155130610Y-106426000D01*
X145809492Y-106426000D01*
X145637773Y-106253980D01*
X145287815Y-106108665D01*
X144908887Y-106108335D01*
X144780000Y-106161590D01*
X144780000Y-103794107D01*
X144838987Y-103882387D01*
X144838987Y-103882387D01*
G37*
X144838987Y-103882387D02*
X146815613Y-105859013D01*
X147021621Y-105996664D01*
X147264626Y-106045000D01*
X155262587Y-106045000D01*
X155130665Y-106362705D01*
X155130610Y-106426000D01*
X145809492Y-106426000D01*
X145637773Y-106253980D01*
X145287815Y-106108665D01*
X144908887Y-106108335D01*
X144780000Y-106161590D01*
X144780000Y-103794107D01*
X144838987Y-103882387D01*
G36*
X133916987Y-100642987D02*
X133779336Y-100848996D01*
X133731000Y-101092000D01*
X133731000Y-103876974D01*
X132832974Y-104775000D01*
X132470952Y-104775000D01*
X132470952Y-104521000D01*
X132435530Y-104332747D01*
X132324272Y-104159847D01*
X132297073Y-104141263D01*
X132314153Y-104130272D01*
X132430145Y-103960512D01*
X132470952Y-103759000D01*
X132470952Y-101981000D01*
X132435530Y-101792747D01*
X132324272Y-101619847D01*
X132297073Y-101601263D01*
X132314153Y-101590272D01*
X132430145Y-101420512D01*
X132470952Y-101219000D01*
X132470952Y-99441000D01*
X132435530Y-99252747D01*
X132324272Y-99079847D01*
X132297073Y-99061263D01*
X132314153Y-99050272D01*
X132430145Y-98880512D01*
X132470952Y-98679000D01*
X132470952Y-98425000D01*
X136134974Y-98425000D01*
X133916987Y-100642987D01*
X133916987Y-100642987D01*
G37*
X133916987Y-100642987D02*
X133779336Y-100848996D01*
X133731000Y-101092000D01*
X133731000Y-103876974D01*
X132832974Y-104775000D01*
X132470952Y-104775000D01*
X132470952Y-104521000D01*
X132435530Y-104332747D01*
X132324272Y-104159847D01*
X132297073Y-104141263D01*
X132314153Y-104130272D01*
X132430145Y-103960512D01*
X132470952Y-103759000D01*
X132470952Y-101981000D01*
X132435530Y-101792747D01*
X132324272Y-101619847D01*
X132297073Y-101601263D01*
X132314153Y-101590272D01*
X132430145Y-101420512D01*
X132470952Y-101219000D01*
X132470952Y-99441000D01*
X132435530Y-99252747D01*
X132324272Y-99079847D01*
X132297073Y-99061263D01*
X132314153Y-99050272D01*
X132430145Y-98880512D01*
X132470952Y-98679000D01*
X132470952Y-98425000D01*
X136134974Y-98425000D01*
X133916987Y-100642987D01*
G36*
X145997496Y-99329164D02*
X146162048Y-99361895D01*
X146162048Y-99577500D01*
X146184969Y-99699314D01*
X146162048Y-99812500D01*
X146162048Y-100212500D01*
X146184969Y-100334314D01*
X146162048Y-100447500D01*
X146162048Y-100847500D01*
X146184969Y-100969314D01*
X146162048Y-101082500D01*
X146162048Y-101482500D01*
X146184969Y-101604314D01*
X146162048Y-101717500D01*
X146162048Y-102117500D01*
X146184969Y-102239314D01*
X146162048Y-102352500D01*
X146162048Y-102752500D01*
X146197470Y-102940753D01*
X146308728Y-103113653D01*
X146478488Y-103229645D01*
X146680000Y-103270452D01*
X148280000Y-103270452D01*
X148468253Y-103235030D01*
X148530259Y-103195130D01*
X148671039Y-103535843D01*
X148938747Y-103804020D01*
X149288705Y-103949335D01*
X149667633Y-103949665D01*
X150017843Y-103804961D01*
X150286020Y-103537253D01*
X150431335Y-103187295D01*
X150431489Y-103010485D01*
X150589747Y-103169020D01*
X150939705Y-103314335D01*
X151318633Y-103314665D01*
X151668843Y-103169961D01*
X151764933Y-103074039D01*
X151859747Y-103169020D01*
X152209705Y-103314335D01*
X152588633Y-103314665D01*
X152938843Y-103169961D01*
X153207020Y-102902253D01*
X153352335Y-102552295D01*
X153352665Y-102173367D01*
X153207961Y-101823157D01*
X152940253Y-101554980D01*
X152590295Y-101409665D01*
X152345477Y-101409452D01*
X152218526Y-101282500D01*
X152708474Y-101282500D01*
X154749547Y-103323573D01*
X154749335Y-103566633D01*
X154894039Y-103916843D01*
X155161747Y-104185020D01*
X155511705Y-104330335D01*
X155890633Y-104330665D01*
X156240843Y-104185961D01*
X156509020Y-103918253D01*
X156654335Y-103568295D01*
X156654665Y-103189367D01*
X156509961Y-102839157D01*
X156242253Y-102570980D01*
X155892295Y-102425665D01*
X155647478Y-102425452D01*
X154822026Y-101600000D01*
X154863028Y-101600000D01*
X155034747Y-101772020D01*
X155384705Y-101917335D01*
X155763633Y-101917665D01*
X156083000Y-101785705D01*
X156083000Y-102108000D01*
X156131336Y-102351004D01*
X156268987Y-102557013D01*
X157030987Y-103319013D01*
X157089048Y-103357808D01*
X157089048Y-103759000D01*
X157124470Y-103947253D01*
X157235728Y-104120153D01*
X157262927Y-104138737D01*
X157245847Y-104149728D01*
X157129855Y-104319488D01*
X157089048Y-104521000D01*
X157089048Y-104775000D01*
X147527652Y-104775000D01*
X145923000Y-103170348D01*
X145923000Y-99279387D01*
X145997496Y-99329164D01*
X145997496Y-99329164D01*
G37*
X145997496Y-99329164D02*
X146162048Y-99361895D01*
X146162048Y-99577500D01*
X146184969Y-99699314D01*
X146162048Y-99812500D01*
X146162048Y-100212500D01*
X146184969Y-100334314D01*
X146162048Y-100447500D01*
X146162048Y-100847500D01*
X146184969Y-100969314D01*
X146162048Y-101082500D01*
X146162048Y-101482500D01*
X146184969Y-101604314D01*
X146162048Y-101717500D01*
X146162048Y-102117500D01*
X146184969Y-102239314D01*
X146162048Y-102352500D01*
X146162048Y-102752500D01*
X146197470Y-102940753D01*
X146308728Y-103113653D01*
X146478488Y-103229645D01*
X146680000Y-103270452D01*
X148280000Y-103270452D01*
X148468253Y-103235030D01*
X148530259Y-103195130D01*
X148671039Y-103535843D01*
X148938747Y-103804020D01*
X149288705Y-103949335D01*
X149667633Y-103949665D01*
X150017843Y-103804961D01*
X150286020Y-103537253D01*
X150431335Y-103187295D01*
X150431489Y-103010485D01*
X150589747Y-103169020D01*
X150939705Y-103314335D01*
X151318633Y-103314665D01*
X151668843Y-103169961D01*
X151764933Y-103074039D01*
X151859747Y-103169020D01*
X152209705Y-103314335D01*
X152588633Y-103314665D01*
X152938843Y-103169961D01*
X153207020Y-102902253D01*
X153352335Y-102552295D01*
X153352665Y-102173367D01*
X153207961Y-101823157D01*
X152940253Y-101554980D01*
X152590295Y-101409665D01*
X152345477Y-101409452D01*
X152218526Y-101282500D01*
X152708474Y-101282500D01*
X154749547Y-103323573D01*
X154749335Y-103566633D01*
X154894039Y-103916843D01*
X155161747Y-104185020D01*
X155511705Y-104330335D01*
X155890633Y-104330665D01*
X156240843Y-104185961D01*
X156509020Y-103918253D01*
X156654335Y-103568295D01*
X156654665Y-103189367D01*
X156509961Y-102839157D01*
X156242253Y-102570980D01*
X155892295Y-102425665D01*
X155647478Y-102425452D01*
X154822026Y-101600000D01*
X154863028Y-101600000D01*
X155034747Y-101772020D01*
X155384705Y-101917335D01*
X155763633Y-101917665D01*
X156083000Y-101785705D01*
X156083000Y-102108000D01*
X156131336Y-102351004D01*
X156268987Y-102557013D01*
X157030987Y-103319013D01*
X157089048Y-103357808D01*
X157089048Y-103759000D01*
X157124470Y-103947253D01*
X157235728Y-104120153D01*
X157262927Y-104138737D01*
X157245847Y-104149728D01*
X157129855Y-104319488D01*
X157089048Y-104521000D01*
X157089048Y-104775000D01*
X147527652Y-104775000D01*
X145923000Y-103170348D01*
X145923000Y-99279387D01*
X145997496Y-99329164D01*
G36*
X142545000Y-92492750D02*
X142703750Y-92651500D01*
X143455000Y-92651500D01*
X143455000Y-92563000D01*
X144005000Y-92563000D01*
X144005000Y-92651500D01*
X144131000Y-92651500D01*
X144131000Y-93276500D01*
X144005000Y-93276500D01*
X144005000Y-94065250D01*
X144163750Y-94224000D01*
X144406309Y-94224000D01*
X144639698Y-94127327D01*
X144818327Y-93948699D01*
X144853363Y-93864114D01*
X144908728Y-93950153D01*
X145078488Y-94066145D01*
X145117006Y-94073945D01*
X144988980Y-94201747D01*
X144843727Y-94551555D01*
X144591367Y-94551335D01*
X144241157Y-94696039D01*
X143972980Y-94963747D01*
X143827665Y-95313705D01*
X143827335Y-95692633D01*
X143972039Y-96042843D01*
X144145000Y-96216107D01*
X144145000Y-96467408D01*
X144066079Y-96388487D01*
X143860070Y-96250836D01*
X143617066Y-96202500D01*
X143397952Y-96202500D01*
X143397952Y-96002500D01*
X143362530Y-95814247D01*
X143251272Y-95641347D01*
X143081512Y-95525355D01*
X142880000Y-95484548D01*
X141280000Y-95484548D01*
X141091747Y-95519970D01*
X141017883Y-95567500D01*
X139636500Y-95567500D01*
X139393496Y-95615836D01*
X139187487Y-95753487D01*
X138722000Y-96218974D01*
X138722000Y-96007000D01*
X138595000Y-95880000D01*
X137795000Y-95880000D01*
X137795000Y-96561000D01*
X137922000Y-96688000D01*
X138252974Y-96688000D01*
X137785974Y-97155000D01*
X132470952Y-97155000D01*
X132470952Y-96901000D01*
X132435530Y-96712747D01*
X132373569Y-96616457D01*
X132491327Y-96498699D01*
X132588000Y-96265310D01*
X132588000Y-96007000D01*
X136106000Y-96007000D01*
X136106000Y-96281047D01*
X136183338Y-96467758D01*
X136326241Y-96610661D01*
X136512952Y-96688000D01*
X136906000Y-96688000D01*
X137033000Y-96561000D01*
X137033000Y-95880000D01*
X136233000Y-95880000D01*
X136106000Y-96007000D01*
X132588000Y-96007000D01*
X132588000Y-95789750D01*
X132429250Y-95631000D01*
X131572000Y-95631000D01*
X131572000Y-95535750D01*
X131413250Y-95377000D01*
X129413000Y-95377000D01*
X129413000Y-95397000D01*
X129159000Y-95397000D01*
X129159000Y-95377000D01*
X129139000Y-95377000D01*
X129139000Y-95123000D01*
X129159000Y-95123000D01*
X129159000Y-95103000D01*
X129413000Y-95103000D01*
X129413000Y-95123000D01*
X131413250Y-95123000D01*
X131572000Y-94964250D01*
X131572000Y-94869000D01*
X132429250Y-94869000D01*
X132561250Y-94737000D01*
X133312000Y-94737000D01*
X133312000Y-95011047D01*
X133389338Y-95197758D01*
X133532241Y-95340661D01*
X133718952Y-95418000D01*
X134112000Y-95418000D01*
X134239000Y-95291000D01*
X134239000Y-94610000D01*
X135001000Y-94610000D01*
X135001000Y-95291000D01*
X135128000Y-95418000D01*
X135521048Y-95418000D01*
X135707759Y-95340661D01*
X135850662Y-95197758D01*
X135928000Y-95011047D01*
X135928000Y-94878953D01*
X136106000Y-94878953D01*
X136106000Y-95153000D01*
X136233000Y-95280000D01*
X137033000Y-95280000D01*
X137033000Y-94599000D01*
X137795000Y-94599000D01*
X137795000Y-95280000D01*
X138595000Y-95280000D01*
X138722000Y-95153000D01*
X138722000Y-94878953D01*
X138644662Y-94692242D01*
X138501759Y-94549339D01*
X138315048Y-94472000D01*
X137922000Y-94472000D01*
X137795000Y-94599000D01*
X137033000Y-94599000D01*
X136906000Y-94472000D01*
X136512952Y-94472000D01*
X136326241Y-94549339D01*
X136183338Y-94692242D01*
X136106000Y-94878953D01*
X135928000Y-94878953D01*
X135928000Y-94737000D01*
X135801000Y-94610000D01*
X135001000Y-94610000D01*
X134239000Y-94610000D01*
X133439000Y-94610000D01*
X133312000Y-94737000D01*
X132561250Y-94737000D01*
X132588000Y-94710250D01*
X132588000Y-94234690D01*
X132491327Y-94001301D01*
X132373476Y-93883450D01*
X132430145Y-93800512D01*
X132445234Y-93726000D01*
X133312000Y-93726000D01*
X133312000Y-93883000D01*
X133439000Y-94010000D01*
X134239000Y-94010000D01*
X134239000Y-93909000D01*
X135001000Y-93909000D01*
X135001000Y-94010000D01*
X135801000Y-94010000D01*
X135928000Y-93883000D01*
X135928000Y-93718441D01*
X136214300Y-93661493D01*
X136278807Y-93648662D01*
X136529859Y-93480913D01*
X136614000Y-93497952D01*
X138214000Y-93497952D01*
X138402253Y-93462530D01*
X138444647Y-93435250D01*
X142545000Y-93435250D01*
X142545000Y-93715310D01*
X142641673Y-93948699D01*
X142820302Y-94127327D01*
X143053691Y-94224000D01*
X143296250Y-94224000D01*
X143455000Y-94065250D01*
X143455000Y-93276500D01*
X142703750Y-93276500D01*
X142545000Y-93435250D01*
X138444647Y-93435250D01*
X138505644Y-93396000D01*
X138830000Y-93396000D01*
X139166833Y-93329000D01*
X139218807Y-93318662D01*
X139548420Y-93098420D01*
X140190841Y-92456000D01*
X142545000Y-92456000D01*
X142545000Y-92492750D01*
X142545000Y-92492750D01*
G37*
X142545000Y-92492750D02*
X142703750Y-92651500D01*
X143455000Y-92651500D01*
X143455000Y-92563000D01*
X144005000Y-92563000D01*
X144005000Y-92651500D01*
X144131000Y-92651500D01*
X144131000Y-93276500D01*
X144005000Y-93276500D01*
X144005000Y-94065250D01*
X144163750Y-94224000D01*
X144406309Y-94224000D01*
X144639698Y-94127327D01*
X144818327Y-93948699D01*
X144853363Y-93864114D01*
X144908728Y-93950153D01*
X145078488Y-94066145D01*
X145117006Y-94073945D01*
X144988980Y-94201747D01*
X144843727Y-94551555D01*
X144591367Y-94551335D01*
X144241157Y-94696039D01*
X143972980Y-94963747D01*
X143827665Y-95313705D01*
X143827335Y-95692633D01*
X143972039Y-96042843D01*
X144145000Y-96216107D01*
X144145000Y-96467408D01*
X144066079Y-96388487D01*
X143860070Y-96250836D01*
X143617066Y-96202500D01*
X143397952Y-96202500D01*
X143397952Y-96002500D01*
X143362530Y-95814247D01*
X143251272Y-95641347D01*
X143081512Y-95525355D01*
X142880000Y-95484548D01*
X141280000Y-95484548D01*
X141091747Y-95519970D01*
X141017883Y-95567500D01*
X139636500Y-95567500D01*
X139393496Y-95615836D01*
X139187487Y-95753487D01*
X138722000Y-96218974D01*
X138722000Y-96007000D01*
X138595000Y-95880000D01*
X137795000Y-95880000D01*
X137795000Y-96561000D01*
X137922000Y-96688000D01*
X138252974Y-96688000D01*
X137785974Y-97155000D01*
X132470952Y-97155000D01*
X132470952Y-96901000D01*
X132435530Y-96712747D01*
X132373569Y-96616457D01*
X132491327Y-96498699D01*
X132588000Y-96265310D01*
X132588000Y-96007000D01*
X136106000Y-96007000D01*
X136106000Y-96281047D01*
X136183338Y-96467758D01*
X136326241Y-96610661D01*
X136512952Y-96688000D01*
X136906000Y-96688000D01*
X137033000Y-96561000D01*
X137033000Y-95880000D01*
X136233000Y-95880000D01*
X136106000Y-96007000D01*
X132588000Y-96007000D01*
X132588000Y-95789750D01*
X132429250Y-95631000D01*
X131572000Y-95631000D01*
X131572000Y-95535750D01*
X131413250Y-95377000D01*
X129413000Y-95377000D01*
X129413000Y-95397000D01*
X129159000Y-95397000D01*
X129159000Y-95377000D01*
X129139000Y-95377000D01*
X129139000Y-95123000D01*
X129159000Y-95123000D01*
X129159000Y-95103000D01*
X129413000Y-95103000D01*
X129413000Y-95123000D01*
X131413250Y-95123000D01*
X131572000Y-94964250D01*
X131572000Y-94869000D01*
X132429250Y-94869000D01*
X132561250Y-94737000D01*
X133312000Y-94737000D01*
X133312000Y-95011047D01*
X133389338Y-95197758D01*
X133532241Y-95340661D01*
X133718952Y-95418000D01*
X134112000Y-95418000D01*
X134239000Y-95291000D01*
X134239000Y-94610000D01*
X135001000Y-94610000D01*
X135001000Y-95291000D01*
X135128000Y-95418000D01*
X135521048Y-95418000D01*
X135707759Y-95340661D01*
X135850662Y-95197758D01*
X135928000Y-95011047D01*
X135928000Y-94878953D01*
X136106000Y-94878953D01*
X136106000Y-95153000D01*
X136233000Y-95280000D01*
X137033000Y-95280000D01*
X137033000Y-94599000D01*
X137795000Y-94599000D01*
X137795000Y-95280000D01*
X138595000Y-95280000D01*
X138722000Y-95153000D01*
X138722000Y-94878953D01*
X138644662Y-94692242D01*
X138501759Y-94549339D01*
X138315048Y-94472000D01*
X137922000Y-94472000D01*
X137795000Y-94599000D01*
X137033000Y-94599000D01*
X136906000Y-94472000D01*
X136512952Y-94472000D01*
X136326241Y-94549339D01*
X136183338Y-94692242D01*
X136106000Y-94878953D01*
X135928000Y-94878953D01*
X135928000Y-94737000D01*
X135801000Y-94610000D01*
X135001000Y-94610000D01*
X134239000Y-94610000D01*
X133439000Y-94610000D01*
X133312000Y-94737000D01*
X132561250Y-94737000D01*
X132588000Y-94710250D01*
X132588000Y-94234690D01*
X132491327Y-94001301D01*
X132373476Y-93883450D01*
X132430145Y-93800512D01*
X132445234Y-93726000D01*
X133312000Y-93726000D01*
X133312000Y-93883000D01*
X133439000Y-94010000D01*
X134239000Y-94010000D01*
X134239000Y-93909000D01*
X135001000Y-93909000D01*
X135001000Y-94010000D01*
X135801000Y-94010000D01*
X135928000Y-93883000D01*
X135928000Y-93718441D01*
X136214300Y-93661493D01*
X136278807Y-93648662D01*
X136529859Y-93480913D01*
X136614000Y-93497952D01*
X138214000Y-93497952D01*
X138402253Y-93462530D01*
X138444647Y-93435250D01*
X142545000Y-93435250D01*
X142545000Y-93715310D01*
X142641673Y-93948699D01*
X142820302Y-94127327D01*
X143053691Y-94224000D01*
X143296250Y-94224000D01*
X143455000Y-94065250D01*
X143455000Y-93276500D01*
X142703750Y-93276500D01*
X142545000Y-93435250D01*
X138444647Y-93435250D01*
X138505644Y-93396000D01*
X138830000Y-93396000D01*
X139166833Y-93329000D01*
X139218807Y-93318662D01*
X139548420Y-93098420D01*
X140190841Y-92456000D01*
X142545000Y-92456000D01*
X142545000Y-92492750D01*
G36*
X157124470Y-93787253D02*
X157186431Y-93883543D01*
X157068673Y-94001301D01*
X156972000Y-94234690D01*
X156972000Y-94710250D01*
X157130750Y-94869000D01*
X157988000Y-94869000D01*
X157988000Y-94964250D01*
X158146750Y-95123000D01*
X160147000Y-95123000D01*
X160147000Y-95103000D01*
X160401000Y-95103000D01*
X160401000Y-95123000D01*
X160421000Y-95123000D01*
X160421000Y-95377000D01*
X160401000Y-95377000D01*
X160401000Y-95397000D01*
X160147000Y-95397000D01*
X160147000Y-95377000D01*
X158146750Y-95377000D01*
X157988000Y-95535750D01*
X157988000Y-95631000D01*
X157130750Y-95631000D01*
X156972000Y-95789750D01*
X156972000Y-96265310D01*
X157068673Y-96498699D01*
X157186524Y-96616550D01*
X157129855Y-96699488D01*
X157089048Y-96901000D01*
X157089048Y-97155000D01*
X156092025Y-97155000D01*
X155405002Y-96467976D01*
X155405002Y-96376252D01*
X155563750Y-96535000D01*
X155904309Y-96535000D01*
X156137698Y-96438327D01*
X156316327Y-96259699D01*
X156413000Y-96026310D01*
X156413000Y-95535750D01*
X156254250Y-95377000D01*
X155405000Y-95377000D01*
X155405000Y-95397000D01*
X155151000Y-95397000D01*
X155151000Y-95377000D01*
X154301750Y-95377000D01*
X154143000Y-95535750D01*
X154143000Y-96026310D01*
X154156755Y-96059518D01*
X154063649Y-96059518D01*
X154095952Y-95900000D01*
X154095952Y-94600000D01*
X154074878Y-94488000D01*
X154143000Y-94488000D01*
X154143000Y-94964250D01*
X154301750Y-95123000D01*
X155151000Y-95123000D01*
X155151000Y-95103000D01*
X155405000Y-95103000D01*
X155405000Y-95123000D01*
X156254250Y-95123000D01*
X156413000Y-94964250D01*
X156413000Y-94473690D01*
X156322709Y-94255709D01*
X156420420Y-94190420D01*
X156884841Y-93726000D01*
X157112945Y-93726000D01*
X157124470Y-93787253D01*
X157124470Y-93787253D01*
G37*
X157124470Y-93787253D02*
X157186431Y-93883543D01*
X157068673Y-94001301D01*
X156972000Y-94234690D01*
X156972000Y-94710250D01*
X157130750Y-94869000D01*
X157988000Y-94869000D01*
X157988000Y-94964250D01*
X158146750Y-95123000D01*
X160147000Y-95123000D01*
X160147000Y-95103000D01*
X160401000Y-95103000D01*
X160401000Y-95123000D01*
X160421000Y-95123000D01*
X160421000Y-95377000D01*
X160401000Y-95377000D01*
X160401000Y-95397000D01*
X160147000Y-95397000D01*
X160147000Y-95377000D01*
X158146750Y-95377000D01*
X157988000Y-95535750D01*
X157988000Y-95631000D01*
X157130750Y-95631000D01*
X156972000Y-95789750D01*
X156972000Y-96265310D01*
X157068673Y-96498699D01*
X157186524Y-96616550D01*
X157129855Y-96699488D01*
X157089048Y-96901000D01*
X157089048Y-97155000D01*
X156092025Y-97155000D01*
X155405002Y-96467976D01*
X155405002Y-96376252D01*
X155563750Y-96535000D01*
X155904309Y-96535000D01*
X156137698Y-96438327D01*
X156316327Y-96259699D01*
X156413000Y-96026310D01*
X156413000Y-95535750D01*
X156254250Y-95377000D01*
X155405000Y-95377000D01*
X155405000Y-95397000D01*
X155151000Y-95397000D01*
X155151000Y-95377000D01*
X154301750Y-95377000D01*
X154143000Y-95535750D01*
X154143000Y-96026310D01*
X154156755Y-96059518D01*
X154063649Y-96059518D01*
X154095952Y-95900000D01*
X154095952Y-94600000D01*
X154074878Y-94488000D01*
X154143000Y-94488000D01*
X154143000Y-94964250D01*
X154301750Y-95123000D01*
X155151000Y-95123000D01*
X155151000Y-95103000D01*
X155405000Y-95103000D01*
X155405000Y-95123000D01*
X156254250Y-95123000D01*
X156413000Y-94964250D01*
X156413000Y-94473690D01*
X156322709Y-94255709D01*
X156420420Y-94190420D01*
X156884841Y-93726000D01*
X157112945Y-93726000D01*
X157124470Y-93787253D01*
G36*
X156026593Y-91225994D02*
X156464000Y-91313000D01*
X157166777Y-91313000D01*
X157235728Y-91420153D01*
X157262927Y-91438737D01*
X157245847Y-91449728D01*
X157129855Y-91619488D01*
X157114766Y-91694000D01*
X156464000Y-91694000D01*
X156139700Y-91758507D01*
X156075193Y-91771338D01*
X155745580Y-91991579D01*
X155281160Y-92456000D01*
X154122572Y-92456000D01*
X154127000Y-92445310D01*
X154127000Y-92165250D01*
X153968250Y-92006500D01*
X153217000Y-92006500D01*
X153217000Y-92095000D01*
X152667000Y-92095000D01*
X152667000Y-92006500D01*
X152541000Y-92006500D01*
X152541000Y-91381500D01*
X152667000Y-91381500D01*
X152667000Y-91293000D01*
X153217000Y-91293000D01*
X153217000Y-91381500D01*
X153968250Y-91381500D01*
X154127000Y-91222750D01*
X154127000Y-91059000D01*
X155776668Y-91059000D01*
X156026593Y-91225994D01*
X156026593Y-91225994D01*
G37*
X156026593Y-91225994D02*
X156464000Y-91313000D01*
X157166777Y-91313000D01*
X157235728Y-91420153D01*
X157262927Y-91438737D01*
X157245847Y-91449728D01*
X157129855Y-91619488D01*
X157114766Y-91694000D01*
X156464000Y-91694000D01*
X156139700Y-91758507D01*
X156075193Y-91771338D01*
X155745580Y-91991579D01*
X155281160Y-92456000D01*
X154122572Y-92456000D01*
X154127000Y-92445310D01*
X154127000Y-92165250D01*
X153968250Y-92006500D01*
X153217000Y-92006500D01*
X153217000Y-92095000D01*
X152667000Y-92095000D01*
X152667000Y-92006500D01*
X152541000Y-92006500D01*
X152541000Y-91381500D01*
X152667000Y-91381500D01*
X152667000Y-91293000D01*
X153217000Y-91293000D01*
X153217000Y-91381500D01*
X153968250Y-91381500D01*
X154127000Y-91222750D01*
X154127000Y-91059000D01*
X155776668Y-91059000D01*
X156026593Y-91225994D01*
G36*
X162002000Y-87936920D02*
X161911434Y-87997434D01*
X161790475Y-88178463D01*
X161748000Y-88392000D01*
X161748000Y-88763048D01*
X157607000Y-88763048D01*
X157418747Y-88798470D01*
X157245847Y-88909728D01*
X157165719Y-89027000D01*
X156897332Y-89027000D01*
X156647407Y-88860006D01*
X156210000Y-88773000D01*
X156060218Y-88773000D01*
X156247772Y-88321319D01*
X156248226Y-87800964D01*
X156049515Y-87320046D01*
X155681890Y-86951778D01*
X155201319Y-86752228D01*
X154680964Y-86751774D01*
X154200046Y-86950485D01*
X153831778Y-87318110D01*
X153669848Y-87708082D01*
X153509515Y-87320046D01*
X153141890Y-86951778D01*
X152661319Y-86752228D01*
X152140964Y-86751774D01*
X151660046Y-86950485D01*
X151291778Y-87318110D01*
X151129848Y-87708082D01*
X150969515Y-87320046D01*
X150601890Y-86951778D01*
X150121319Y-86752228D01*
X149600964Y-86751774D01*
X149120046Y-86950485D01*
X148751778Y-87318110D01*
X148589848Y-87708082D01*
X148429515Y-87320046D01*
X148061890Y-86951778D01*
X147581319Y-86752228D01*
X147060964Y-86751774D01*
X146580046Y-86950485D01*
X146211778Y-87318110D01*
X146049848Y-87708082D01*
X145889515Y-87320046D01*
X145521890Y-86951778D01*
X145041319Y-86752228D01*
X144520964Y-86751774D01*
X144040046Y-86950485D01*
X143946367Y-87044000D01*
X143073951Y-87044000D01*
X142981890Y-86951778D01*
X142501319Y-86752228D01*
X141980964Y-86751774D01*
X141500046Y-86950485D01*
X141131778Y-87318110D01*
X140969848Y-87708082D01*
X140809515Y-87320046D01*
X140441890Y-86951778D01*
X139961319Y-86752228D01*
X139440964Y-86751774D01*
X138960046Y-86950485D01*
X138591778Y-87318110D01*
X138429848Y-87708082D01*
X138269515Y-87320046D01*
X137901890Y-86951778D01*
X137421319Y-86752228D01*
X136900964Y-86751774D01*
X136420046Y-86950485D01*
X136051778Y-87318110D01*
X135889848Y-87708082D01*
X135729515Y-87320046D01*
X135361890Y-86951778D01*
X134881319Y-86752228D01*
X134360964Y-86751774D01*
X133880046Y-86950485D01*
X133511778Y-87318110D01*
X133312228Y-87798681D01*
X133311774Y-88319036D01*
X133499348Y-88773000D01*
X133096000Y-88773000D01*
X132658593Y-88860006D01*
X132408668Y-89027000D01*
X132393223Y-89027000D01*
X132324272Y-88919847D01*
X132154512Y-88803855D01*
X131953000Y-88763048D01*
X127812000Y-88763048D01*
X127812000Y-88392000D01*
X127769525Y-88178463D01*
X127648566Y-87997434D01*
X127558000Y-87936920D01*
X127558000Y-84378000D01*
X162002000Y-84378000D01*
X162002000Y-87936920D01*
X162002000Y-87936920D01*
G37*
X162002000Y-87936920D02*
X161911434Y-87997434D01*
X161790475Y-88178463D01*
X161748000Y-88392000D01*
X161748000Y-88763048D01*
X157607000Y-88763048D01*
X157418747Y-88798470D01*
X157245847Y-88909728D01*
X157165719Y-89027000D01*
X156897332Y-89027000D01*
X156647407Y-88860006D01*
X156210000Y-88773000D01*
X156060218Y-88773000D01*
X156247772Y-88321319D01*
X156248226Y-87800964D01*
X156049515Y-87320046D01*
X155681890Y-86951778D01*
X155201319Y-86752228D01*
X154680964Y-86751774D01*
X154200046Y-86950485D01*
X153831778Y-87318110D01*
X153669848Y-87708082D01*
X153509515Y-87320046D01*
X153141890Y-86951778D01*
X152661319Y-86752228D01*
X152140964Y-86751774D01*
X151660046Y-86950485D01*
X151291778Y-87318110D01*
X151129848Y-87708082D01*
X150969515Y-87320046D01*
X150601890Y-86951778D01*
X150121319Y-86752228D01*
X149600964Y-86751774D01*
X149120046Y-86950485D01*
X148751778Y-87318110D01*
X148589848Y-87708082D01*
X148429515Y-87320046D01*
X148061890Y-86951778D01*
X147581319Y-86752228D01*
X147060964Y-86751774D01*
X146580046Y-86950485D01*
X146211778Y-87318110D01*
X146049848Y-87708082D01*
X145889515Y-87320046D01*
X145521890Y-86951778D01*
X145041319Y-86752228D01*
X144520964Y-86751774D01*
X144040046Y-86950485D01*
X143946367Y-87044000D01*
X143073951Y-87044000D01*
X142981890Y-86951778D01*
X142501319Y-86752228D01*
X141980964Y-86751774D01*
X141500046Y-86950485D01*
X141131778Y-87318110D01*
X140969848Y-87708082D01*
X140809515Y-87320046D01*
X140441890Y-86951778D01*
X139961319Y-86752228D01*
X139440964Y-86751774D01*
X138960046Y-86950485D01*
X138591778Y-87318110D01*
X138429848Y-87708082D01*
X138269515Y-87320046D01*
X137901890Y-86951778D01*
X137421319Y-86752228D01*
X136900964Y-86751774D01*
X136420046Y-86950485D01*
X136051778Y-87318110D01*
X135889848Y-87708082D01*
X135729515Y-87320046D01*
X135361890Y-86951778D01*
X134881319Y-86752228D01*
X134360964Y-86751774D01*
X133880046Y-86950485D01*
X133511778Y-87318110D01*
X133312228Y-87798681D01*
X133311774Y-88319036D01*
X133499348Y-88773000D01*
X133096000Y-88773000D01*
X132658593Y-88860006D01*
X132408668Y-89027000D01*
X132393223Y-89027000D01*
X132324272Y-88919847D01*
X132154512Y-88803855D01*
X131953000Y-88763048D01*
X127812000Y-88763048D01*
X127812000Y-88392000D01*
X127769525Y-88178463D01*
X127648566Y-87997434D01*
X127558000Y-87936920D01*
X127558000Y-84378000D01*
X162002000Y-84378000D01*
X162002000Y-87936920D01*
M02*
