G04 #@! TF.FileFunction,Soldermask,Top*
%FSLAX46Y46*%
G04 Gerber Fmt 4.6, Leading zero omitted, Abs format (unit mm)*
G04 Created by KiCad (PCBNEW (2015-06-05 BZR 5717)-product) date Fri Jul 17 22:05:53 2015*
%MOMM*%
G01*
G04 APERTURE LIST*
%ADD10C,0.100000*%
%ADD11R,1.600000X2.000000*%
%ADD12R,1.500000X1.250000*%
%ADD13R,1.500000X1.300000*%
%ADD14R,1.400000X1.400000*%
%ADD15C,1.400000*%
%ADD16R,4.064000X1.778000*%
%ADD17R,2.032000X1.778000*%
%ADD18R,1.600000X0.400000*%
%ADD19C,1.143000*%
%ADD20C,0.889000*%
G04 APERTURE END LIST*
D10*
D11*
X137160000Y-87662000D03*
X137160000Y-91662000D03*
D12*
X145776000Y-88646000D03*
X143276000Y-88646000D03*
D11*
X134366000Y-86392000D03*
X134366000Y-90392000D03*
D12*
X150388000Y-87376000D03*
X152888000Y-87376000D03*
D13*
X152574000Y-90932000D03*
X155274000Y-90932000D03*
X152828000Y-99822000D03*
X155528000Y-99822000D03*
X155528000Y-102362000D03*
X152828000Y-102362000D03*
D14*
X154686000Y-105742000D03*
D15*
X152146000Y-105742000D03*
X149606000Y-105742000D03*
X147066000Y-105742000D03*
X144526000Y-105742000D03*
X141986000Y-105742000D03*
X139446000Y-105742000D03*
X136906000Y-105742000D03*
X134366000Y-105742000D03*
X134366000Y-83742000D03*
X136906000Y-83742000D03*
X139446000Y-83742000D03*
X141986000Y-83742000D03*
X144526000Y-83742000D03*
X147066000Y-83742000D03*
X149606000Y-83742000D03*
X152146000Y-83742000D03*
X154686000Y-83742000D03*
D16*
X128651000Y-103632000D03*
X128651000Y-101092000D03*
X128651000Y-98552000D03*
X128651000Y-96012000D03*
X128651000Y-93472000D03*
X128651000Y-90932000D03*
X128651000Y-88392000D03*
D17*
X130683000Y-85852000D03*
X130683000Y-88392000D03*
X130683000Y-90932000D03*
X130683000Y-93472000D03*
X130683000Y-96012000D03*
X130683000Y-98552000D03*
X130683000Y-101092000D03*
X130683000Y-103632000D03*
D16*
X128651000Y-85852000D03*
X160401000Y-85852000D03*
X160401000Y-88392000D03*
X160401000Y-90932000D03*
X160401000Y-93472000D03*
X160401000Y-96012000D03*
X160401000Y-98552000D03*
X160401000Y-101092000D03*
D17*
X158369000Y-103632000D03*
X158369000Y-101092000D03*
X158369000Y-98552000D03*
X158369000Y-96012000D03*
X158369000Y-93472000D03*
X158369000Y-90932000D03*
X158369000Y-88392000D03*
X158369000Y-85852000D03*
D16*
X160401000Y-103632000D03*
D18*
X141826000Y-91249500D03*
X141826000Y-91884500D03*
X141826000Y-92519500D03*
X141826000Y-93154500D03*
X141826000Y-93789500D03*
X141826000Y-94424500D03*
X141826000Y-95059500D03*
X141826000Y-95694500D03*
X141826000Y-96329500D03*
X141826000Y-96964500D03*
X141826000Y-97599500D03*
X141826000Y-98234500D03*
X147226000Y-98234500D03*
X147226000Y-97599500D03*
X147226000Y-96964500D03*
X147226000Y-96329500D03*
X147226000Y-95694500D03*
X147226000Y-95059500D03*
X147226000Y-94424500D03*
X147226000Y-93789500D03*
X147226000Y-93154500D03*
X147226000Y-92519500D03*
X147226000Y-91884500D03*
X147226000Y-91249500D03*
D19*
X151003000Y-89916000D03*
D20*
X151003000Y-99314000D03*
D19*
X145288000Y-101092000D03*
X147193000Y-99568000D03*
X132969000Y-94742000D03*
X158369000Y-107442000D03*
X144526000Y-107442000D03*
X130683000Y-107442000D03*
X130683000Y-82042000D03*
X144526000Y-82042000D03*
X158369000Y-82042000D03*
X141097000Y-88646000D03*
X141097000Y-89916000D03*
X154940000Y-87376000D03*
D20*
X143710052Y-94033948D03*
X149618230Y-93205770D03*
X156210000Y-105409990D03*
X144843520Y-102743000D03*
X141478006Y-100330000D03*
X143764000Y-95249998D03*
X139954000Y-95504000D03*
X137922000Y-99060000D03*
X139954000Y-98806000D03*
X149225000Y-98679000D03*
X152273000Y-98425000D03*
X153162010Y-97409000D03*
X155956000Y-98298000D03*
X155575000Y-96900996D03*
X154715819Y-95855181D03*
X144526000Y-91186000D03*
X145542000Y-90424000D03*
M02*
