M48
; DRILL file {KiCad 8.0.6} date 2025-01-27T08:56:53-0500
; FORMAT={-:-/ absolute / metric / decimal}
; #@! TF.CreationDate,2025-01-27T08:56:53-05:00
; #@! TF.GenerationSoftware,Kicad,Pcbnew,8.0.6
; #@! TF.FileFunction,MixedPlating,1,2
FMAT,2
METRIC
; #@! TA.AperFunction,Plated,PTH,ViaDrill
T1C0.330
; #@! TA.AperFunction,Plated,PTH,ViaDrill
T2C0.610
; #@! TA.AperFunction,Plated,PTH,ComponentDrill
T3C0.800
; #@! TA.AperFunction,Plated,PTH,ComponentDrill
T4C1.016
%
G90
G05
T1
X138.176Y-103.378
X138.811Y-100.711
X139.573Y-103.251
X141.732Y-104.648
X143.964Y-98.352
X144.018Y-99.568
X144.78Y-95.504
X145.098Y-107.061
X145.796Y-94.742
X149.479Y-102.997
X150.876Y-97.536
X151.13Y-102.362
X152.4Y-102.362
X154.686Y-99.949
X155.575Y-101.346
X155.892Y-104.14
X156.083Y-106.553
T2
X130.937Y-86.36
X130.937Y-111.76
X133.223Y-99.06
X140.97Y-86.36
X140.97Y-111.76
X141.478Y-92.964
X141.478Y-94.234
X145.542Y-105.41
X147.447Y-103.886
X148.59Y-86.36
X148.59Y-111.76
X155.194Y-91.694
X158.623Y-86.36
X158.623Y-111.76
T3
X134.62Y-88.06
X134.62Y-110.06
X137.16Y-88.06
X137.16Y-110.06
X139.7Y-88.06
X139.7Y-110.06
X142.24Y-88.06
X142.24Y-110.06
X144.78Y-88.06
X144.78Y-110.06
X147.32Y-88.06
X147.32Y-110.06
X149.86Y-88.06
X149.86Y-110.06
X152.4Y-88.06
X152.4Y-110.06
X154.94Y-88.06
X154.94Y-110.06
T4
X130.937Y-90.17
X130.937Y-92.71
X130.937Y-95.25
X130.937Y-97.79
X130.937Y-100.33
X130.937Y-102.87
X130.937Y-105.41
X130.937Y-107.95
X158.623Y-90.17
X158.623Y-92.71
X158.623Y-95.25
X158.623Y-97.79
X158.623Y-100.33
X158.623Y-102.87
X158.623Y-105.41
X158.623Y-107.95
M30
