M48
;DRILL file {KiCad (2015-06-05 BZR 5717)-product} date Tue Jul 14 22:13:58 2015
;FORMAT={3:3/ absolute / metric / keep zeros}
FMAT,2
METRIC,TZ
T1C0.330
T2C0.610
T3C0.700
T4C1.016
%
G90
G05
M71
T1
X137922Y-099060
X139954Y-095504
X139954Y-098806
X141478Y-100330
X143710Y-094034
X143764Y-095250
X144526Y-091186
X144844Y-102743
X145542Y-090424
X148971Y-098679
X149618Y-093206
X151003Y-099314
X152273Y-098425
X153162Y-097409
X154716Y-095855
X155575Y-096901
X155956Y-098298
X156210Y-105410
T2
X130683Y-082042
X130683Y-107442
X140589Y-090170
X140970Y-088646
X144526Y-082042
X144526Y-107442
X145288Y-101092
X151003Y-089916
X154940Y-087376
X158369Y-082042
X158369Y-107442
T3
X134366Y-083742
X134366Y-105742
X136906Y-083742
X136906Y-105742
X139446Y-083742
X139446Y-105742
X141986Y-083742
X141986Y-105742
X144526Y-083742
X144526Y-105742
X147066Y-083742
X147066Y-105742
X149606Y-083742
X149606Y-105742
X152146Y-083742
X152146Y-105742
X154686Y-083742
X154686Y-105742
T4
X130683Y-085852
X130683Y-088392
X130683Y-090932
X130683Y-093472
X130683Y-096012
X130683Y-098552
X130683Y-101092
X130683Y-103632
X158369Y-085852
X158369Y-088392
X158369Y-090932
X158369Y-093472
X158369Y-096012
X158369Y-098552
X158369Y-101092
X158369Y-103632
T0
M30
