G04 #@! TF.FileFunction,Legend,Bot*
%FSLAX46Y46*%
G04 Gerber Fmt 4.6, Leading zero omitted, Abs format (unit mm)*
G04 Created by KiCad (PCBNEW (2015-06-05 BZR 5717)-product) date Sat Jul 11 20:53:22 2015*
%MOMM*%
G01*
G04 APERTURE LIST*
%ADD10C,0.100000*%
%ADD11C,0.150000*%
%ADD12R,1.400000X1.400000*%
%ADD13C,1.400000*%
%ADD14R,2.032000X1.778000*%
%ADD15C,0.889000*%
%ADD16C,1.016000*%
G04 APERTURE END LIST*
D10*
D11*
X155393607Y-84582000D02*
X148082464Y-84582000D01*
X148082464Y-84582000D02*
X147336505Y-85471000D01*
X147336505Y-85471000D02*
X148395974Y-86360000D01*
X148395974Y-86360000D02*
X155707117Y-86360000D01*
X155707117Y-86360000D02*
X156453076Y-85471000D01*
X156453076Y-85471000D02*
X155393607Y-84582000D01*
X146395365Y-86693585D02*
X147615504Y-93613337D01*
X147615504Y-93613337D02*
X148674973Y-94502337D01*
X148674973Y-94502337D02*
X149420933Y-93613337D01*
X149420933Y-93613337D02*
X148200794Y-86693585D01*
X148200794Y-86693585D02*
X147141325Y-85804585D01*
X147141325Y-85804585D02*
X146395365Y-86693585D01*
X148030093Y-95964585D02*
X149250232Y-102884337D01*
X149250232Y-102884337D02*
X150309701Y-103773337D01*
X150309701Y-103773337D02*
X151055660Y-102884337D01*
X151055660Y-102884337D02*
X149835521Y-95964585D01*
X149835521Y-95964585D02*
X148776052Y-95075585D01*
X148776052Y-95075585D02*
X148030093Y-95964585D01*
X158663062Y-103124000D02*
X151351919Y-103124000D01*
X151351919Y-103124000D02*
X150605960Y-104013000D01*
X150605960Y-104013000D02*
X151665429Y-104902000D01*
X151665429Y-104902000D02*
X158976571Y-104902000D01*
X158976571Y-104902000D02*
X159722531Y-104013000D01*
X159722531Y-104013000D02*
X158663062Y-103124000D01*
X157638103Y-95870663D02*
X158858242Y-102790415D01*
X158858242Y-102790415D02*
X159917711Y-103679415D01*
X159917711Y-103679415D02*
X160663671Y-102790415D01*
X160663671Y-102790415D02*
X159443532Y-95870663D01*
X159443532Y-95870663D02*
X158384063Y-94981663D01*
X158384063Y-94981663D02*
X157638103Y-95870663D01*
X156003376Y-86599663D02*
X157223515Y-93519415D01*
X157223515Y-93519415D02*
X158282984Y-94408415D01*
X158282984Y-94408415D02*
X159028943Y-93519415D01*
X159028943Y-93519415D02*
X157808804Y-86599663D01*
X157808804Y-86599663D02*
X156749335Y-85710663D01*
X156749335Y-85710663D02*
X156003376Y-86599663D01*
X157028335Y-93853000D02*
X149717192Y-93853000D01*
X149717192Y-93853000D02*
X148971232Y-94742000D01*
X148971232Y-94742000D02*
X150030701Y-95631000D01*
X150030701Y-95631000D02*
X157341844Y-95631000D01*
X157341844Y-95631000D02*
X158087804Y-94742000D01*
X158087804Y-94742000D02*
X157028335Y-93853000D01*
X148082000Y-103886000D02*
G75*
G03X148082000Y-103886000I-1016000J0D01*
G01*
X137359607Y-84582000D02*
X130048464Y-84582000D01*
X130048464Y-84582000D02*
X129302505Y-85471000D01*
X129302505Y-85471000D02*
X130361974Y-86360000D01*
X130361974Y-86360000D02*
X137673117Y-86360000D01*
X137673117Y-86360000D02*
X138419076Y-85471000D01*
X138419076Y-85471000D02*
X137359607Y-84582000D01*
X128361365Y-86693585D02*
X129581504Y-93613337D01*
X129581504Y-93613337D02*
X130640973Y-94502337D01*
X130640973Y-94502337D02*
X131386933Y-93613337D01*
X131386933Y-93613337D02*
X130166794Y-86693585D01*
X130166794Y-86693585D02*
X129107325Y-85804585D01*
X129107325Y-85804585D02*
X128361365Y-86693585D01*
X129996093Y-95964585D02*
X131216232Y-102884337D01*
X131216232Y-102884337D02*
X132275701Y-103773337D01*
X132275701Y-103773337D02*
X133021660Y-102884337D01*
X133021660Y-102884337D02*
X131801521Y-95964585D01*
X131801521Y-95964585D02*
X130742052Y-95075585D01*
X130742052Y-95075585D02*
X129996093Y-95964585D01*
X140629062Y-103124000D02*
X133317919Y-103124000D01*
X133317919Y-103124000D02*
X132571960Y-104013000D01*
X132571960Y-104013000D02*
X133631429Y-104902000D01*
X133631429Y-104902000D02*
X140942571Y-104902000D01*
X140942571Y-104902000D02*
X141688531Y-104013000D01*
X141688531Y-104013000D02*
X140629062Y-103124000D01*
X139604103Y-95870663D02*
X140824242Y-102790415D01*
X140824242Y-102790415D02*
X141883711Y-103679415D01*
X141883711Y-103679415D02*
X142629671Y-102790415D01*
X142629671Y-102790415D02*
X141409532Y-95870663D01*
X141409532Y-95870663D02*
X140350063Y-94981663D01*
X140350063Y-94981663D02*
X139604103Y-95870663D01*
X137969376Y-86599663D02*
X139189515Y-93519415D01*
X139189515Y-93519415D02*
X140248984Y-94408415D01*
X140248984Y-94408415D02*
X140994943Y-93519415D01*
X140994943Y-93519415D02*
X139774804Y-86599663D01*
X139774804Y-86599663D02*
X138715335Y-85710663D01*
X138715335Y-85710663D02*
X137969376Y-86599663D01*
X138994335Y-93853000D02*
X131683192Y-93853000D01*
X131683192Y-93853000D02*
X130937232Y-94742000D01*
X130937232Y-94742000D02*
X131996701Y-95631000D01*
X131996701Y-95631000D02*
X139307844Y-95631000D01*
X139307844Y-95631000D02*
X140053804Y-94742000D01*
X140053804Y-94742000D02*
X138994335Y-93853000D01*
X130048000Y-103886000D02*
G75*
G03X130048000Y-103886000I-1016000J0D01*
G01*
X162426000Y-107642000D02*
X162426000Y-81842000D01*
X126626000Y-107642000D02*
X162426000Y-107642000D01*
X126626000Y-81842000D02*
X126626000Y-107642000D01*
X162426000Y-81842000D02*
X126626000Y-81842000D01*
X145287905Y-79970381D02*
X145287905Y-80779905D01*
X145240286Y-80875143D01*
X145192667Y-80922762D01*
X145097429Y-80970381D01*
X144906952Y-80970381D01*
X144811714Y-80922762D01*
X144764095Y-80875143D01*
X144716476Y-80779905D01*
X144716476Y-79970381D01*
X144287905Y-80065619D02*
X144240286Y-80018000D01*
X144145048Y-79970381D01*
X143906952Y-79970381D01*
X143811714Y-80018000D01*
X143764095Y-80065619D01*
X143716476Y-80160857D01*
X143716476Y-80256095D01*
X143764095Y-80398952D01*
X144335524Y-80970381D01*
X143716476Y-80970381D01*
%LPC*%
D12*
X154686000Y-105742000D03*
D13*
X152146000Y-105742000D03*
X149606000Y-105742000D03*
X147066000Y-105742000D03*
X144526000Y-105742000D03*
X141986000Y-105742000D03*
X139446000Y-105742000D03*
X136906000Y-105742000D03*
X134366000Y-105742000D03*
X134366000Y-83742000D03*
X136906000Y-83742000D03*
X139446000Y-83742000D03*
X141986000Y-83742000D03*
X144526000Y-83742000D03*
X147066000Y-83742000D03*
X149606000Y-83742000D03*
X152146000Y-83742000D03*
X154686000Y-83742000D03*
D14*
X130683000Y-85852000D03*
X130683000Y-88392000D03*
X130683000Y-90932000D03*
X130683000Y-93472000D03*
X130683000Y-96012000D03*
X130683000Y-98552000D03*
X130683000Y-101092000D03*
X130683000Y-103632000D03*
X158369000Y-103632000D03*
X158369000Y-101092000D03*
X158369000Y-98552000D03*
X158369000Y-96012000D03*
X158369000Y-93472000D03*
X158369000Y-90932000D03*
X158369000Y-88392000D03*
X158369000Y-85852000D03*
D15*
X151003000Y-99314000D03*
D16*
X151003000Y-90042980D03*
X145288000Y-101092000D03*
X140462000Y-90170000D03*
X140970000Y-88646000D03*
X158369000Y-82042000D03*
X144526000Y-82042000D03*
X130683000Y-82042000D03*
X154686000Y-87376000D03*
X130683000Y-107442000D03*
X144526000Y-107442000D03*
X158369000Y-107442000D03*
D15*
X149618230Y-93205770D03*
X143710052Y-94033948D03*
X144843520Y-102743000D03*
X156210000Y-105409990D03*
X143764000Y-95249998D03*
X141478006Y-100330000D03*
X139954000Y-95504000D03*
X137922000Y-99060000D03*
X139954000Y-98806000D03*
X148970996Y-98679000D03*
X152273000Y-98425000D03*
X153162010Y-97409000D03*
X155956000Y-98298000D03*
X155575000Y-96900996D03*
X154715819Y-95855181D03*
X144526000Y-91186000D03*
X145542000Y-90424000D03*
M02*
