M48
;DRILL file {KiCad (2015-12-09 BZR 6195)-product} date Sun Sep  4 13:43:48 2016
;FORMAT={3:3/ absolute / metric / keep zeros}
FMAT,2
METRIC,TZ
T1C0.330
T2C0.610
T3C0.800
T4C1.016
%
G90
G05
M71
T1
X138176Y-103378
X138811Y-100711
X139573Y-103251
X141732Y-104648
X143964Y-098352
X144018Y-099568
X144780Y-095504
X145098Y-107061
X145796Y-094742
X149479Y-102997
X150876Y-097536
X151130Y-102362
X152400Y-102362
X154686Y-099949
X155575Y-100965
X155702Y-103378
X156083Y-106553
T2
X130937Y-086360
X130937Y-111760
X133223Y-099060
X140970Y-086360
X140970Y-111760
X141478Y-092964
X141478Y-094234
X145542Y-105410
X147447Y-103886
X148590Y-086360
X148590Y-111760
X155194Y-091694
X158623Y-086360
X158623Y-111760
T3
X134620Y-088060
X134620Y-110060
X137160Y-088060
X137160Y-110060
X139700Y-088060
X139700Y-110060
X142240Y-088060
X142240Y-110060
X144780Y-088060
X144780Y-110060
X147320Y-088060
X147320Y-110060
X149860Y-088060
X149860Y-110060
X152400Y-088060
X152400Y-110060
X154940Y-088060
X154940Y-110060
T4
X130937Y-090170
X130937Y-092710
X130937Y-095250
X130937Y-097790
X130937Y-100330
X130937Y-102870
X130937Y-105410
X130937Y-107950
X158623Y-090170
X158623Y-092710
X158623Y-095250
X158623Y-097790
X158623Y-100330
X158623Y-102870
X158623Y-105410
X158623Y-107950
T0
M30
