G04 #@! TF.GenerationSoftware,KiCad,Pcbnew,(5.1.8)*
G04 #@! TF.CreationDate,2021-04-29T17:53:28-04:00*
G04 #@! TF.ProjectId,disp,64697370-2e6b-4696-9361-645f70636258,rev?*
G04 #@! TF.SameCoordinates,Original*
G04 #@! TF.FileFunction,Legend,Top*
G04 #@! TF.FilePolarity,Positive*
%FSLAX46Y46*%
G04 Gerber Fmt 4.6, Leading zero omitted, Abs format (unit mm)*
G04 Created by KiCad (PCBNEW (5.1.8)) date 2021-04-29 17:53:28*
%MOMM*%
%LPD*%
G01*
G04 APERTURE LIST*
%ADD10C,0.150000*%
%ADD11R,1.600000X0.400000*%
%ADD12R,1.600000X1.600000*%
%ADD13C,1.600000*%
%ADD14R,3.302000X1.778000*%
%ADD15R,2.032000X1.778000*%
%ADD16R,1.600000X1.200000*%
%ADD17R,1.100000X1.250000*%
%ADD18R,1.000000X1.300000*%
%ADD19C,1.143000*%
%ADD20C,0.889000*%
G04 APERTURE END LIST*
D10*
X155376071Y-107650000D02*
X155318928Y-107621428D01*
X155233214Y-107621428D01*
X155147500Y-107650000D01*
X155090357Y-107707142D01*
X155061785Y-107764285D01*
X155033214Y-107878571D01*
X155033214Y-107964285D01*
X155061785Y-108078571D01*
X155090357Y-108135714D01*
X155147500Y-108192857D01*
X155233214Y-108221428D01*
X155290357Y-108221428D01*
X155376071Y-108192857D01*
X155404642Y-108164285D01*
X155404642Y-107964285D01*
X155290357Y-107964285D01*
X155661785Y-108221428D02*
X155661785Y-107621428D01*
X156004642Y-108221428D01*
X156004642Y-107621428D01*
X156290357Y-108221428D02*
X156290357Y-107621428D01*
X156433214Y-107621428D01*
X156518928Y-107650000D01*
X156576071Y-107707142D01*
X156604642Y-107764285D01*
X156633214Y-107878571D01*
X156633214Y-107964285D01*
X156604642Y-108078571D01*
X156576071Y-108135714D01*
X156518928Y-108192857D01*
X156433214Y-108221428D01*
X156290357Y-108221428D01*
X154388785Y-102827142D02*
X154474500Y-102855714D01*
X154503071Y-102884285D01*
X154531642Y-102941428D01*
X154531642Y-103027142D01*
X154503071Y-103084285D01*
X154474500Y-103112857D01*
X154417357Y-103141428D01*
X154188785Y-103141428D01*
X154188785Y-102541428D01*
X154388785Y-102541428D01*
X154445928Y-102570000D01*
X154474500Y-102598571D01*
X154503071Y-102655714D01*
X154503071Y-102712857D01*
X154474500Y-102770000D01*
X154445928Y-102798571D01*
X154388785Y-102827142D01*
X154188785Y-102827142D01*
X155074500Y-103141428D02*
X154788785Y-103141428D01*
X154788785Y-102541428D01*
X155245928Y-102970000D02*
X155531642Y-102970000D01*
X155188785Y-103141428D02*
X155388785Y-102541428D01*
X155588785Y-103141428D01*
X155788785Y-103141428D02*
X155788785Y-102541428D01*
X156131642Y-103141428D01*
X156131642Y-102541428D01*
X156417357Y-103141428D02*
X156417357Y-102541428D01*
X156760214Y-103141428D02*
X156503071Y-102798571D01*
X156760214Y-102541428D02*
X156417357Y-102884285D01*
X156291000Y-95707142D02*
X156262428Y-95764285D01*
X156262428Y-95850000D01*
X156291000Y-95935714D01*
X156348142Y-95992857D01*
X156405285Y-96021428D01*
X156519571Y-96050000D01*
X156605285Y-96050000D01*
X156719571Y-96021428D01*
X156776714Y-95992857D01*
X156833857Y-95935714D01*
X156862428Y-95850000D01*
X156862428Y-95792857D01*
X156833857Y-95707142D01*
X156805285Y-95678571D01*
X156605285Y-95678571D01*
X156605285Y-95792857D01*
X156862428Y-95421428D02*
X156262428Y-95421428D01*
X156862428Y-95078571D01*
X156262428Y-95078571D01*
X156862428Y-94792857D02*
X156262428Y-94792857D01*
X156262428Y-94650000D01*
X156291000Y-94564285D01*
X156348142Y-94507142D01*
X156405285Y-94478571D01*
X156519571Y-94450000D01*
X156605285Y-94450000D01*
X156719571Y-94478571D01*
X156776714Y-94507142D01*
X156833857Y-94564285D01*
X156862428Y-94650000D01*
X156862428Y-94792857D01*
X154731642Y-105652857D02*
X154817357Y-105681428D01*
X154960214Y-105681428D01*
X155017357Y-105652857D01*
X155045928Y-105624285D01*
X155074500Y-105567142D01*
X155074500Y-105510000D01*
X155045928Y-105452857D01*
X155017357Y-105424285D01*
X154960214Y-105395714D01*
X154845928Y-105367142D01*
X154788785Y-105338571D01*
X154760214Y-105310000D01*
X154731642Y-105252857D01*
X154731642Y-105195714D01*
X154760214Y-105138571D01*
X154788785Y-105110000D01*
X154845928Y-105081428D01*
X154988785Y-105081428D01*
X155074500Y-105110000D01*
X155674500Y-105624285D02*
X155645928Y-105652857D01*
X155560214Y-105681428D01*
X155503071Y-105681428D01*
X155417357Y-105652857D01*
X155360214Y-105595714D01*
X155331642Y-105538571D01*
X155303071Y-105424285D01*
X155303071Y-105338571D01*
X155331642Y-105224285D01*
X155360214Y-105167142D01*
X155417357Y-105110000D01*
X155503071Y-105081428D01*
X155560214Y-105081428D01*
X155645928Y-105110000D01*
X155674500Y-105138571D01*
X156217357Y-105681428D02*
X155931642Y-105681428D01*
X155931642Y-105081428D01*
X156417357Y-105681428D02*
X156417357Y-105081428D01*
X156760214Y-105681428D02*
X156503071Y-105338571D01*
X156760214Y-105081428D02*
X156417357Y-105424285D01*
X155845928Y-100601428D02*
X155560214Y-100601428D01*
X155560214Y-100001428D01*
X156017357Y-100430000D02*
X156303071Y-100430000D01*
X155960214Y-100601428D02*
X156160214Y-100001428D01*
X156360214Y-100601428D01*
X156474500Y-100001428D02*
X156817357Y-100001428D01*
X156645928Y-100601428D02*
X156645928Y-100001428D01*
X157623000Y-109815380D02*
X157813476Y-109815380D01*
X157908714Y-109863000D01*
X158003952Y-109958238D01*
X158051571Y-110148714D01*
X158051571Y-110482047D01*
X158003952Y-110672523D01*
X157908714Y-110767761D01*
X157813476Y-110815380D01*
X157623000Y-110815380D01*
X157527761Y-110767761D01*
X157432523Y-110672523D01*
X157384904Y-110482047D01*
X157384904Y-110148714D01*
X157432523Y-109958238D01*
X157527761Y-109863000D01*
X157623000Y-109815380D01*
X158480142Y-109815380D02*
X158480142Y-110624904D01*
X158527761Y-110720142D01*
X158575380Y-110767761D01*
X158670619Y-110815380D01*
X158861095Y-110815380D01*
X158956333Y-110767761D01*
X159003952Y-110720142D01*
X159051571Y-110624904D01*
X159051571Y-109815380D01*
X159384904Y-109815380D02*
X159956333Y-109815380D01*
X159670619Y-110815380D02*
X159670619Y-109815380D01*
X130413190Y-110815380D02*
X130413190Y-109815380D01*
X130889380Y-110815380D02*
X130889380Y-109815380D01*
X131460809Y-110815380D01*
X131460809Y-109815380D01*
X132767428Y-90884285D02*
X133367428Y-90684285D01*
X132767428Y-90484285D01*
X133196000Y-90312857D02*
X133196000Y-90027142D01*
X133367428Y-90370000D02*
X132767428Y-90170000D01*
X133367428Y-89970000D01*
X133196000Y-89798571D02*
X133196000Y-89512857D01*
X133367428Y-89855714D02*
X132767428Y-89655714D01*
X133367428Y-89455714D01*
X132767428Y-93510000D02*
X133367428Y-93310000D01*
X132767428Y-93110000D01*
X133310285Y-92567142D02*
X133338857Y-92595714D01*
X133367428Y-92681428D01*
X133367428Y-92738571D01*
X133338857Y-92824285D01*
X133281714Y-92881428D01*
X133224571Y-92910000D01*
X133110285Y-92938571D01*
X133024571Y-92938571D01*
X132910285Y-92910000D01*
X132853142Y-92881428D01*
X132796000Y-92824285D01*
X132767428Y-92738571D01*
X132767428Y-92681428D01*
X132796000Y-92595714D01*
X132824571Y-92567142D01*
X133310285Y-91967142D02*
X133338857Y-91995714D01*
X133367428Y-92081428D01*
X133367428Y-92138571D01*
X133338857Y-92224285D01*
X133281714Y-92281428D01*
X133224571Y-92310000D01*
X133110285Y-92338571D01*
X133024571Y-92338571D01*
X132910285Y-92310000D01*
X132853142Y-92281428D01*
X132796000Y-92224285D01*
X132767428Y-92138571D01*
X132767428Y-92081428D01*
X132796000Y-91995714D01*
X132824571Y-91967142D01*
X150792857Y-86199285D02*
X150971428Y-86699285D01*
X151150000Y-86199285D01*
X151828571Y-86699285D02*
X151400000Y-86699285D01*
X151614285Y-86699285D02*
X151614285Y-85949285D01*
X151542857Y-86056428D01*
X151471428Y-86127857D01*
X151400000Y-86163571D01*
X152150000Y-86627857D02*
X152185714Y-86663571D01*
X152150000Y-86699285D01*
X152114285Y-86663571D01*
X152150000Y-86627857D01*
X152150000Y-86699285D01*
X152471428Y-86020714D02*
X152507142Y-85985000D01*
X152578571Y-85949285D01*
X152757142Y-85949285D01*
X152828571Y-85985000D01*
X152864285Y-86020714D01*
X152900000Y-86092142D01*
X152900000Y-86163571D01*
X152864285Y-86270714D01*
X152435714Y-86699285D01*
X152900000Y-86699285D01*
X153221428Y-86627857D02*
X153257142Y-86663571D01*
X153221428Y-86699285D01*
X153185714Y-86663571D01*
X153221428Y-86627857D01*
X153221428Y-86699285D01*
X153721428Y-85949285D02*
X153792857Y-85949285D01*
X153864285Y-85985000D01*
X153900000Y-86020714D01*
X153935714Y-86092142D01*
X153971428Y-86235000D01*
X153971428Y-86413571D01*
X153935714Y-86556428D01*
X153900000Y-86627857D01*
X153864285Y-86663571D01*
X153792857Y-86699285D01*
X153721428Y-86699285D01*
X153650000Y-86663571D01*
X153614285Y-86627857D01*
X153578571Y-86556428D01*
X153542857Y-86413571D01*
X153542857Y-86235000D01*
X153578571Y-86092142D01*
X153614285Y-86020714D01*
X153650000Y-85985000D01*
X153721428Y-85949285D01*
X131866571Y-86020714D02*
X131902285Y-85985000D01*
X131973714Y-85949285D01*
X132152285Y-85949285D01*
X132223714Y-85985000D01*
X132259428Y-86020714D01*
X132295142Y-86092142D01*
X132295142Y-86163571D01*
X132259428Y-86270714D01*
X131830857Y-86699285D01*
X132295142Y-86699285D01*
X133188000Y-86699285D02*
X133188000Y-85949285D01*
X133366571Y-85949285D01*
X133473714Y-85985000D01*
X133545142Y-86056428D01*
X133580857Y-86127857D01*
X133616571Y-86270714D01*
X133616571Y-86377857D01*
X133580857Y-86520714D01*
X133545142Y-86592142D01*
X133473714Y-86663571D01*
X133366571Y-86699285D01*
X133188000Y-86699285D01*
X133938000Y-86699285D02*
X133938000Y-86199285D01*
X133938000Y-85949285D02*
X133902285Y-85985000D01*
X133938000Y-86020714D01*
X133973714Y-85985000D01*
X133938000Y-85949285D01*
X133938000Y-86020714D01*
X134616571Y-86199285D02*
X134616571Y-86806428D01*
X134580857Y-86877857D01*
X134545142Y-86913571D01*
X134473714Y-86949285D01*
X134366571Y-86949285D01*
X134295142Y-86913571D01*
X134616571Y-86663571D02*
X134545142Y-86699285D01*
X134402285Y-86699285D01*
X134330857Y-86663571D01*
X134295142Y-86627857D01*
X134259428Y-86556428D01*
X134259428Y-86342142D01*
X134295142Y-86270714D01*
X134330857Y-86235000D01*
X134402285Y-86199285D01*
X134545142Y-86199285D01*
X134616571Y-86235000D01*
X134973714Y-86699285D02*
X134973714Y-86199285D01*
X134973714Y-85949285D02*
X134938000Y-85985000D01*
X134973714Y-86020714D01*
X135009428Y-85985000D01*
X134973714Y-85949285D01*
X134973714Y-86020714D01*
X135223714Y-86199285D02*
X135509428Y-86199285D01*
X135330857Y-85949285D02*
X135330857Y-86592142D01*
X135366571Y-86663571D01*
X135438000Y-86699285D01*
X135509428Y-86699285D01*
X136259428Y-85949285D02*
X136759428Y-85949285D01*
X136438000Y-86699285D01*
X137045142Y-86413571D02*
X137616571Y-86413571D01*
X137938000Y-86663571D02*
X138045142Y-86699285D01*
X138223714Y-86699285D01*
X138295142Y-86663571D01*
X138330857Y-86627857D01*
X138366571Y-86556428D01*
X138366571Y-86485000D01*
X138330857Y-86413571D01*
X138295142Y-86377857D01*
X138223714Y-86342142D01*
X138080857Y-86306428D01*
X138009428Y-86270714D01*
X137973714Y-86235000D01*
X137938000Y-86163571D01*
X137938000Y-86092142D01*
X137973714Y-86020714D01*
X138009428Y-85985000D01*
X138080857Y-85949285D01*
X138259428Y-85949285D01*
X138366571Y-85985000D01*
X138973714Y-86663571D02*
X138902285Y-86699285D01*
X138759428Y-86699285D01*
X138688000Y-86663571D01*
X138652285Y-86592142D01*
X138652285Y-86306428D01*
X138688000Y-86235000D01*
X138759428Y-86199285D01*
X138902285Y-86199285D01*
X138973714Y-86235000D01*
X139009428Y-86306428D01*
X139009428Y-86377857D01*
X138652285Y-86449285D01*
X139652285Y-86199285D02*
X139652285Y-86806428D01*
X139616571Y-86877857D01*
X139580857Y-86913571D01*
X139509428Y-86949285D01*
X139402285Y-86949285D01*
X139330857Y-86913571D01*
X139652285Y-86663571D02*
X139580857Y-86699285D01*
X139438000Y-86699285D01*
X139366571Y-86663571D01*
X139330857Y-86627857D01*
X139295142Y-86556428D01*
X139295142Y-86342142D01*
X139330857Y-86270714D01*
X139366571Y-86235000D01*
X139438000Y-86199285D01*
X139580857Y-86199285D01*
X139652285Y-86235000D01*
X142295142Y-86699285D02*
X142295142Y-85949285D01*
X142473714Y-85949285D01*
X142580857Y-85985000D01*
X142652285Y-86056428D01*
X142688000Y-86127857D01*
X142723714Y-86270714D01*
X142723714Y-86377857D01*
X142688000Y-86520714D01*
X142652285Y-86592142D01*
X142580857Y-86663571D01*
X142473714Y-86699285D01*
X142295142Y-86699285D01*
X143045142Y-86699285D02*
X143045142Y-86199285D01*
X143045142Y-85949285D02*
X143009428Y-85985000D01*
X143045142Y-86020714D01*
X143080857Y-85985000D01*
X143045142Y-85949285D01*
X143045142Y-86020714D01*
X143366571Y-86663571D02*
X143438000Y-86699285D01*
X143580857Y-86699285D01*
X143652285Y-86663571D01*
X143688000Y-86592142D01*
X143688000Y-86556428D01*
X143652285Y-86485000D01*
X143580857Y-86449285D01*
X143473714Y-86449285D01*
X143402285Y-86413571D01*
X143366571Y-86342142D01*
X143366571Y-86306428D01*
X143402285Y-86235000D01*
X143473714Y-86199285D01*
X143580857Y-86199285D01*
X143652285Y-86235000D01*
X144009428Y-86199285D02*
X144009428Y-86949285D01*
X144009428Y-86235000D02*
X144080857Y-86199285D01*
X144223714Y-86199285D01*
X144295142Y-86235000D01*
X144330857Y-86270714D01*
X144366571Y-86342142D01*
X144366571Y-86556428D01*
X144330857Y-86627857D01*
X144295142Y-86663571D01*
X144223714Y-86699285D01*
X144080857Y-86699285D01*
X144009428Y-86663571D01*
X144795142Y-86699285D02*
X144723714Y-86663571D01*
X144688000Y-86592142D01*
X144688000Y-85949285D01*
X145402285Y-86699285D02*
X145402285Y-86306428D01*
X145366571Y-86235000D01*
X145295142Y-86199285D01*
X145152285Y-86199285D01*
X145080857Y-86235000D01*
X145402285Y-86663571D02*
X145330857Y-86699285D01*
X145152285Y-86699285D01*
X145080857Y-86663571D01*
X145045142Y-86592142D01*
X145045142Y-86520714D01*
X145080857Y-86449285D01*
X145152285Y-86413571D01*
X145330857Y-86413571D01*
X145402285Y-86377857D01*
X145688000Y-86199285D02*
X145866571Y-86699285D01*
X146045142Y-86199285D02*
X145866571Y-86699285D01*
X145795142Y-86877857D01*
X145759428Y-86913571D01*
X145688000Y-86949285D01*
X132882571Y-112099285D02*
X132882571Y-111349285D01*
X132882571Y-112063571D02*
X132811142Y-112099285D01*
X132668285Y-112099285D01*
X132596857Y-112063571D01*
X132561142Y-112027857D01*
X132525428Y-111956428D01*
X132525428Y-111742142D01*
X132561142Y-111670714D01*
X132596857Y-111635000D01*
X132668285Y-111599285D01*
X132811142Y-111599285D01*
X132882571Y-111635000D01*
X133204000Y-112063571D02*
X133275428Y-112099285D01*
X133418285Y-112099285D01*
X133489714Y-112063571D01*
X133525428Y-111992142D01*
X133525428Y-111956428D01*
X133489714Y-111885000D01*
X133418285Y-111849285D01*
X133311142Y-111849285D01*
X133239714Y-111813571D01*
X133204000Y-111742142D01*
X133204000Y-111706428D01*
X133239714Y-111635000D01*
X133311142Y-111599285D01*
X133418285Y-111599285D01*
X133489714Y-111635000D01*
X134168285Y-111599285D02*
X134168285Y-112099285D01*
X133846857Y-111599285D02*
X133846857Y-111992142D01*
X133882571Y-112063571D01*
X133954000Y-112099285D01*
X134061142Y-112099285D01*
X134132571Y-112063571D01*
X134168285Y-112027857D01*
X134525428Y-111599285D02*
X134525428Y-112099285D01*
X134525428Y-111670714D02*
X134561142Y-111635000D01*
X134632571Y-111599285D01*
X134739714Y-111599285D01*
X134811142Y-111635000D01*
X134846857Y-111706428D01*
X134846857Y-112099285D01*
X135132571Y-111349285D02*
X135632571Y-111349285D01*
X135311142Y-112099285D01*
X136239714Y-112063571D02*
X136168285Y-112099285D01*
X136025428Y-112099285D01*
X135954000Y-112063571D01*
X135918285Y-112027857D01*
X135882571Y-111956428D01*
X135882571Y-111742142D01*
X135918285Y-111670714D01*
X135954000Y-111635000D01*
X136025428Y-111599285D01*
X136168285Y-111599285D01*
X136239714Y-111635000D01*
X136882571Y-111599285D02*
X136882571Y-112099285D01*
X136704000Y-111313571D02*
X136525428Y-111849285D01*
X136989714Y-111849285D01*
X137382571Y-112099285D02*
X137311142Y-112063571D01*
X137275428Y-112027857D01*
X137239714Y-111956428D01*
X137239714Y-111742142D01*
X137275428Y-111670714D01*
X137311142Y-111635000D01*
X137382571Y-111599285D01*
X137489714Y-111599285D01*
X137561142Y-111635000D01*
X137596857Y-111670714D01*
X137632571Y-111742142D01*
X137632571Y-111956428D01*
X137596857Y-112027857D01*
X137561142Y-112063571D01*
X137489714Y-112099285D01*
X137382571Y-112099285D01*
X137918285Y-112063571D02*
X137989714Y-112099285D01*
X138132571Y-112099285D01*
X138204000Y-112063571D01*
X138239714Y-111992142D01*
X138239714Y-111956428D01*
X138204000Y-111885000D01*
X138132571Y-111849285D01*
X138025428Y-111849285D01*
X137954000Y-111813571D01*
X137918285Y-111742142D01*
X137918285Y-111706428D01*
X137954000Y-111635000D01*
X138025428Y-111599285D01*
X138132571Y-111599285D01*
X138204000Y-111635000D01*
X138561142Y-112099285D02*
X138561142Y-111349285D01*
X138882571Y-112099285D02*
X138882571Y-111706428D01*
X138846857Y-111635000D01*
X138775428Y-111599285D01*
X138668285Y-111599285D01*
X138596857Y-111635000D01*
X138561142Y-111670714D01*
X139704000Y-111742142D02*
X139668285Y-111706428D01*
X139596857Y-111670714D01*
X139525428Y-111670714D01*
X139454000Y-111706428D01*
X139418285Y-111742142D01*
X139382571Y-111813571D01*
X139382571Y-111885000D01*
X139418285Y-111956428D01*
X139454000Y-111992142D01*
X139525428Y-112027857D01*
X139596857Y-112027857D01*
X139668285Y-111992142D01*
X139704000Y-111956428D01*
X139704000Y-111670714D02*
X139704000Y-111956428D01*
X139739714Y-111992142D01*
X139775428Y-111992142D01*
X139846857Y-111956428D01*
X139882571Y-111885000D01*
X139882571Y-111706428D01*
X139811142Y-111599285D01*
X139704000Y-111527857D01*
X139561142Y-111492142D01*
X139418285Y-111527857D01*
X139311142Y-111599285D01*
X139239714Y-111706428D01*
X139204000Y-111849285D01*
X139239714Y-111992142D01*
X139311142Y-112099285D01*
X139418285Y-112170714D01*
X139561142Y-112206428D01*
X139704000Y-112170714D01*
X139811142Y-112099285D01*
X142239714Y-111599285D02*
X142239714Y-112206428D01*
X142204000Y-112277857D01*
X142168285Y-112313571D01*
X142096857Y-112349285D01*
X141989714Y-112349285D01*
X141918285Y-112313571D01*
X142239714Y-112063571D02*
X142168285Y-112099285D01*
X142025428Y-112099285D01*
X141954000Y-112063571D01*
X141918285Y-112027857D01*
X141882571Y-111956428D01*
X141882571Y-111742142D01*
X141918285Y-111670714D01*
X141954000Y-111635000D01*
X142025428Y-111599285D01*
X142168285Y-111599285D01*
X142239714Y-111635000D01*
X142596857Y-112099285D02*
X142596857Y-111599285D01*
X142596857Y-111670714D02*
X142632571Y-111635000D01*
X142704000Y-111599285D01*
X142811142Y-111599285D01*
X142882571Y-111635000D01*
X142918285Y-111706428D01*
X142918285Y-112099285D01*
X142918285Y-111706428D02*
X142954000Y-111635000D01*
X143025428Y-111599285D01*
X143132571Y-111599285D01*
X143204000Y-111635000D01*
X143239714Y-111706428D01*
X143239714Y-112099285D01*
X143918285Y-112099285D02*
X143918285Y-111706428D01*
X143882571Y-111635000D01*
X143811142Y-111599285D01*
X143668285Y-111599285D01*
X143596857Y-111635000D01*
X143918285Y-112063571D02*
X143846857Y-112099285D01*
X143668285Y-112099285D01*
X143596857Y-112063571D01*
X143561142Y-111992142D01*
X143561142Y-111920714D01*
X143596857Y-111849285D01*
X143668285Y-111813571D01*
X143846857Y-111813571D01*
X143918285Y-111777857D01*
X144275428Y-112099285D02*
X144275428Y-111599285D01*
X144275428Y-111349285D02*
X144239714Y-111385000D01*
X144275428Y-111420714D01*
X144311142Y-111385000D01*
X144275428Y-111349285D01*
X144275428Y-111420714D01*
X144739714Y-112099285D02*
X144668285Y-112063571D01*
X144632571Y-111992142D01*
X144632571Y-111349285D01*
X145025428Y-112027857D02*
X145061142Y-112063571D01*
X145025428Y-112099285D01*
X144989714Y-112063571D01*
X145025428Y-112027857D01*
X145025428Y-112099285D01*
X145704000Y-112063571D02*
X145632571Y-112099285D01*
X145489714Y-112099285D01*
X145418285Y-112063571D01*
X145382571Y-112027857D01*
X145346857Y-111956428D01*
X145346857Y-111742142D01*
X145382571Y-111670714D01*
X145418285Y-111635000D01*
X145489714Y-111599285D01*
X145632571Y-111599285D01*
X145704000Y-111635000D01*
X146132571Y-112099285D02*
X146061142Y-112063571D01*
X146025428Y-112027857D01*
X145989714Y-111956428D01*
X145989714Y-111742142D01*
X146025428Y-111670714D01*
X146061142Y-111635000D01*
X146132571Y-111599285D01*
X146239714Y-111599285D01*
X146311142Y-111635000D01*
X146346857Y-111670714D01*
X146382571Y-111742142D01*
X146382571Y-111956428D01*
X146346857Y-112027857D01*
X146311142Y-112063571D01*
X146239714Y-112099285D01*
X146132571Y-112099285D01*
X146704000Y-112099285D02*
X146704000Y-111599285D01*
X146704000Y-111670714D02*
X146739714Y-111635000D01*
X146811142Y-111599285D01*
X146918285Y-111599285D01*
X146989714Y-111635000D01*
X147025428Y-111706428D01*
X147025428Y-112099285D01*
X147025428Y-111706428D02*
X147061142Y-111635000D01*
X147132571Y-111599285D01*
X147239714Y-111599285D01*
X147311142Y-111635000D01*
X147346857Y-111706428D01*
X147346857Y-112099285D01*
X154703071Y-98032857D02*
X154788785Y-98061428D01*
X154931642Y-98061428D01*
X154988785Y-98032857D01*
X155017357Y-98004285D01*
X155045928Y-97947142D01*
X155045928Y-97890000D01*
X155017357Y-97832857D01*
X154988785Y-97804285D01*
X154931642Y-97775714D01*
X154817357Y-97747142D01*
X154760214Y-97718571D01*
X154731642Y-97690000D01*
X154703071Y-97632857D01*
X154703071Y-97575714D01*
X154731642Y-97518571D01*
X154760214Y-97490000D01*
X154817357Y-97461428D01*
X154960214Y-97461428D01*
X155045928Y-97490000D01*
X155417357Y-97461428D02*
X155531642Y-97461428D01*
X155588785Y-97490000D01*
X155645928Y-97547142D01*
X155674500Y-97661428D01*
X155674500Y-97861428D01*
X155645928Y-97975714D01*
X155588785Y-98032857D01*
X155531642Y-98061428D01*
X155417357Y-98061428D01*
X155360214Y-98032857D01*
X155303071Y-97975714D01*
X155274500Y-97861428D01*
X155274500Y-97661428D01*
X155303071Y-97547142D01*
X155360214Y-97490000D01*
X155417357Y-97461428D01*
X155931642Y-97461428D02*
X155931642Y-97947142D01*
X155960214Y-98004285D01*
X155988785Y-98032857D01*
X156045928Y-98061428D01*
X156160214Y-98061428D01*
X156217357Y-98032857D01*
X156245928Y-98004285D01*
X156274500Y-97947142D01*
X156274500Y-97461428D01*
X156474500Y-97461428D02*
X156817357Y-97461428D01*
X156645928Y-98061428D02*
X156645928Y-97461428D01*
X155388785Y-89841428D02*
X155588785Y-90441428D01*
X155788785Y-89841428D01*
X155960214Y-90270000D02*
X156245928Y-90270000D01*
X155903071Y-90441428D02*
X156103071Y-89841428D01*
X156303071Y-90441428D01*
X156474500Y-90270000D02*
X156760214Y-90270000D01*
X156417357Y-90441428D02*
X156617357Y-89841428D01*
X156817357Y-90441428D01*
X155217357Y-92381428D02*
X155417357Y-92981428D01*
X155617357Y-92381428D01*
X156160214Y-92924285D02*
X156131642Y-92952857D01*
X156045928Y-92981428D01*
X155988785Y-92981428D01*
X155903071Y-92952857D01*
X155845928Y-92895714D01*
X155817357Y-92838571D01*
X155788785Y-92724285D01*
X155788785Y-92638571D01*
X155817357Y-92524285D01*
X155845928Y-92467142D01*
X155903071Y-92410000D01*
X155988785Y-92381428D01*
X156045928Y-92381428D01*
X156131642Y-92410000D01*
X156160214Y-92438571D01*
X156760214Y-92924285D02*
X156731642Y-92952857D01*
X156645928Y-92981428D01*
X156588785Y-92981428D01*
X156503071Y-92952857D01*
X156445928Y-92895714D01*
X156417357Y-92838571D01*
X156388785Y-92724285D01*
X156388785Y-92638571D01*
X156417357Y-92524285D01*
X156445928Y-92467142D01*
X156503071Y-92410000D01*
X156588785Y-92381428D01*
X156645928Y-92381428D01*
X156731642Y-92410000D01*
X156760214Y-92438571D01*
X132796000Y-95707142D02*
X132767428Y-95764285D01*
X132767428Y-95850000D01*
X132796000Y-95935714D01*
X132853142Y-95992857D01*
X132910285Y-96021428D01*
X133024571Y-96050000D01*
X133110285Y-96050000D01*
X133224571Y-96021428D01*
X133281714Y-95992857D01*
X133338857Y-95935714D01*
X133367428Y-95850000D01*
X133367428Y-95792857D01*
X133338857Y-95707142D01*
X133310285Y-95678571D01*
X133110285Y-95678571D01*
X133110285Y-95792857D01*
X133367428Y-95421428D02*
X132767428Y-95421428D01*
X133367428Y-95078571D01*
X132767428Y-95078571D01*
X133367428Y-94792857D02*
X132767428Y-94792857D01*
X132767428Y-94650000D01*
X132796000Y-94564285D01*
X132853142Y-94507142D01*
X132910285Y-94478571D01*
X133024571Y-94450000D01*
X133110285Y-94450000D01*
X133224571Y-94478571D01*
X133281714Y-94507142D01*
X133338857Y-94564285D01*
X133367428Y-94650000D01*
X133367428Y-94792857D01*
X132799785Y-98032857D02*
X132885500Y-98061428D01*
X133028357Y-98061428D01*
X133085500Y-98032857D01*
X133114071Y-98004285D01*
X133142642Y-97947142D01*
X133142642Y-97890000D01*
X133114071Y-97832857D01*
X133085500Y-97804285D01*
X133028357Y-97775714D01*
X132914071Y-97747142D01*
X132856928Y-97718571D01*
X132828357Y-97690000D01*
X132799785Y-97632857D01*
X132799785Y-97575714D01*
X132828357Y-97518571D01*
X132856928Y-97490000D01*
X132914071Y-97461428D01*
X133056928Y-97461428D01*
X133142642Y-97490000D01*
X133399785Y-98061428D02*
X133399785Y-97461428D01*
X133685500Y-98061428D02*
X133685500Y-97461428D01*
X134028357Y-98061428D01*
X134028357Y-97461428D01*
X133114071Y-100601428D02*
X132828357Y-100601428D01*
X132828357Y-100001428D01*
X133285500Y-100430000D02*
X133571214Y-100430000D01*
X133228357Y-100601428D02*
X133428357Y-100001428D01*
X133628357Y-100601428D01*
X133742642Y-100001428D02*
X134085500Y-100001428D01*
X133914071Y-100601428D02*
X133914071Y-100001428D01*
X133028357Y-102827142D02*
X133114071Y-102855714D01*
X133142642Y-102884285D01*
X133171214Y-102941428D01*
X133171214Y-103027142D01*
X133142642Y-103084285D01*
X133114071Y-103112857D01*
X133056928Y-103141428D01*
X132828357Y-103141428D01*
X132828357Y-102541428D01*
X133028357Y-102541428D01*
X133085500Y-102570000D01*
X133114071Y-102598571D01*
X133142642Y-102655714D01*
X133142642Y-102712857D01*
X133114071Y-102770000D01*
X133085500Y-102798571D01*
X133028357Y-102827142D01*
X132828357Y-102827142D01*
X133714071Y-103141428D02*
X133428357Y-103141428D01*
X133428357Y-102541428D01*
X133885500Y-102970000D02*
X134171214Y-102970000D01*
X133828357Y-103141428D02*
X134028357Y-102541428D01*
X134228357Y-103141428D01*
X134428357Y-103141428D02*
X134428357Y-102541428D01*
X134771214Y-103141428D01*
X134771214Y-102541428D01*
X135056928Y-103141428D02*
X135056928Y-102541428D01*
X135399785Y-103141428D02*
X135142642Y-102798571D01*
X135399785Y-102541428D02*
X135056928Y-102884285D01*
X132799785Y-105652857D02*
X132885500Y-105681428D01*
X133028357Y-105681428D01*
X133085500Y-105652857D01*
X133114071Y-105624285D01*
X133142642Y-105567142D01*
X133142642Y-105510000D01*
X133114071Y-105452857D01*
X133085500Y-105424285D01*
X133028357Y-105395714D01*
X132914071Y-105367142D01*
X132856928Y-105338571D01*
X132828357Y-105310000D01*
X132799785Y-105252857D01*
X132799785Y-105195714D01*
X132828357Y-105138571D01*
X132856928Y-105110000D01*
X132914071Y-105081428D01*
X133056928Y-105081428D01*
X133142642Y-105110000D01*
X133742642Y-105624285D02*
X133714071Y-105652857D01*
X133628357Y-105681428D01*
X133571214Y-105681428D01*
X133485500Y-105652857D01*
X133428357Y-105595714D01*
X133399785Y-105538571D01*
X133371214Y-105424285D01*
X133371214Y-105338571D01*
X133399785Y-105224285D01*
X133428357Y-105167142D01*
X133485500Y-105110000D01*
X133571214Y-105081428D01*
X133628357Y-105081428D01*
X133714071Y-105110000D01*
X133742642Y-105138571D01*
X134285500Y-105681428D02*
X133999785Y-105681428D01*
X133999785Y-105081428D01*
X134485500Y-105681428D02*
X134485500Y-105081428D01*
X134828357Y-105681428D02*
X134571214Y-105338571D01*
X134828357Y-105081428D02*
X134485500Y-105424285D01*
X133142642Y-107650000D02*
X133085500Y-107621428D01*
X132999785Y-107621428D01*
X132914071Y-107650000D01*
X132856928Y-107707142D01*
X132828357Y-107764285D01*
X132799785Y-107878571D01*
X132799785Y-107964285D01*
X132828357Y-108078571D01*
X132856928Y-108135714D01*
X132914071Y-108192857D01*
X132999785Y-108221428D01*
X133056928Y-108221428D01*
X133142642Y-108192857D01*
X133171214Y-108164285D01*
X133171214Y-107964285D01*
X133056928Y-107964285D01*
X133428357Y-108221428D02*
X133428357Y-107621428D01*
X133771214Y-108221428D01*
X133771214Y-107621428D01*
X134056928Y-108221428D02*
X134056928Y-107621428D01*
X134199785Y-107621428D01*
X134285500Y-107650000D01*
X134342642Y-107707142D01*
X134371214Y-107764285D01*
X134399785Y-107878571D01*
X134399785Y-107964285D01*
X134371214Y-108078571D01*
X134342642Y-108135714D01*
X134285500Y-108192857D01*
X134199785Y-108221428D01*
X134056928Y-108221428D01*
X142780000Y-95042500D02*
X141280000Y-95042500D01*
X142780000Y-103435000D02*
X146780000Y-103435000D01*
X142780000Y-94685000D02*
X146780000Y-94685000D01*
X142780000Y-103435000D02*
X142780000Y-103077500D01*
X146780000Y-103435000D02*
X146780000Y-103077500D01*
X146780000Y-94685000D02*
X146780000Y-95042500D01*
X142780000Y-94685000D02*
X142780000Y-95042500D01*
X127635000Y-88620000D02*
X132487000Y-88620000D01*
X132207000Y-91440000D02*
X127635000Y-91440000D01*
X132487000Y-88620000D02*
X132487000Y-90170000D01*
X132207000Y-109220000D02*
X127635000Y-109220000D01*
X132207000Y-91440000D02*
X132207000Y-109220000D01*
X161925000Y-109500000D02*
X157073000Y-109500000D01*
X157353000Y-106680000D02*
X161925000Y-106680000D01*
X157073000Y-109500000D02*
X157073000Y-107950000D01*
X157353000Y-88900000D02*
X161925000Y-88900000D01*
X157353000Y-106680000D02*
X157353000Y-88900000D01*
X136389000Y-92980000D02*
X136389000Y-94980000D01*
X138439000Y-94980000D02*
X138439000Y-92980000D01*
X145280000Y-92114000D02*
X144280000Y-92114000D01*
X144280000Y-93814000D02*
X145280000Y-93814000D01*
X133595000Y-91710000D02*
X133595000Y-93710000D01*
X135645000Y-93710000D02*
X135645000Y-91710000D01*
X151392000Y-92544000D02*
X152392000Y-92544000D01*
X152392000Y-90844000D02*
X151392000Y-90844000D01*
X153578000Y-94375000D02*
X154778000Y-94375000D01*
X154778000Y-96125000D02*
X153578000Y-96125000D01*
X139446095Y-94702380D02*
X139446095Y-95511904D01*
X139493714Y-95607142D01*
X139541333Y-95654761D01*
X139636571Y-95702380D01*
X139827047Y-95702380D01*
X139922285Y-95654761D01*
X139969904Y-95607142D01*
X140017523Y-95511904D01*
X140017523Y-94702380D01*
X141017523Y-95702380D02*
X140446095Y-95702380D01*
X140731809Y-95702380D02*
X140731809Y-94702380D01*
X140636571Y-94845238D01*
X140541333Y-94940476D01*
X140446095Y-94988095D01*
X130198904Y-88336380D02*
X130198904Y-87336380D01*
X130579857Y-87336380D01*
X130675095Y-87384000D01*
X130722714Y-87431619D01*
X130770333Y-87526857D01*
X130770333Y-87669714D01*
X130722714Y-87764952D01*
X130675095Y-87812571D01*
X130579857Y-87860190D01*
X130198904Y-87860190D01*
X131722714Y-88336380D02*
X131151285Y-88336380D01*
X131437000Y-88336380D02*
X131437000Y-87336380D01*
X131341761Y-87479238D01*
X131246523Y-87574476D01*
X131151285Y-87622095D01*
X157884904Y-88336380D02*
X157884904Y-87336380D01*
X158265857Y-87336380D01*
X158361095Y-87384000D01*
X158408714Y-87431619D01*
X158456333Y-87526857D01*
X158456333Y-87669714D01*
X158408714Y-87764952D01*
X158361095Y-87812571D01*
X158265857Y-87860190D01*
X157884904Y-87860190D01*
X158837285Y-87431619D02*
X158884904Y-87384000D01*
X158980142Y-87336380D01*
X159218238Y-87336380D01*
X159313476Y-87384000D01*
X159361095Y-87431619D01*
X159408714Y-87526857D01*
X159408714Y-87622095D01*
X159361095Y-87764952D01*
X158789666Y-88336380D01*
X159408714Y-88336380D01*
X137771142Y-97702666D02*
X137818761Y-97750285D01*
X137866380Y-97893142D01*
X137866380Y-97988380D01*
X137818761Y-98131238D01*
X137723523Y-98226476D01*
X137628285Y-98274095D01*
X137437809Y-98321714D01*
X137294952Y-98321714D01*
X137104476Y-98274095D01*
X137009238Y-98226476D01*
X136914000Y-98131238D01*
X136866380Y-97988380D01*
X136866380Y-97893142D01*
X136914000Y-97750285D01*
X136961619Y-97702666D01*
X137866380Y-96750285D02*
X137866380Y-97321714D01*
X137866380Y-97036000D02*
X136866380Y-97036000D01*
X137009238Y-97131238D01*
X137104476Y-97226476D01*
X137152095Y-97321714D01*
X144613333Y-91543142D02*
X144565714Y-91590761D01*
X144422857Y-91638380D01*
X144327619Y-91638380D01*
X144184761Y-91590761D01*
X144089523Y-91495523D01*
X144041904Y-91400285D01*
X143994285Y-91209809D01*
X143994285Y-91066952D01*
X144041904Y-90876476D01*
X144089523Y-90781238D01*
X144184761Y-90686000D01*
X144327619Y-90638380D01*
X144422857Y-90638380D01*
X144565714Y-90686000D01*
X144613333Y-90733619D01*
X144994285Y-90733619D02*
X145041904Y-90686000D01*
X145137142Y-90638380D01*
X145375238Y-90638380D01*
X145470476Y-90686000D01*
X145518095Y-90733619D01*
X145565714Y-90828857D01*
X145565714Y-90924095D01*
X145518095Y-91066952D01*
X144946666Y-91638380D01*
X145565714Y-91638380D01*
X134977142Y-96432666D02*
X135024761Y-96480285D01*
X135072380Y-96623142D01*
X135072380Y-96718380D01*
X135024761Y-96861238D01*
X134929523Y-96956476D01*
X134834285Y-97004095D01*
X134643809Y-97051714D01*
X134500952Y-97051714D01*
X134310476Y-97004095D01*
X134215238Y-96956476D01*
X134120000Y-96861238D01*
X134072380Y-96718380D01*
X134072380Y-96623142D01*
X134120000Y-96480285D01*
X134167619Y-96432666D01*
X134072380Y-96099333D02*
X134072380Y-95480285D01*
X134453333Y-95813619D01*
X134453333Y-95670761D01*
X134500952Y-95575523D01*
X134548571Y-95527904D01*
X134643809Y-95480285D01*
X134881904Y-95480285D01*
X134977142Y-95527904D01*
X135024761Y-95575523D01*
X135072380Y-95670761D01*
X135072380Y-95956476D01*
X135024761Y-96051714D01*
X134977142Y-96099333D01*
X148804333Y-92051142D02*
X148756714Y-92098761D01*
X148613857Y-92146380D01*
X148518619Y-92146380D01*
X148375761Y-92098761D01*
X148280523Y-92003523D01*
X148232904Y-91908285D01*
X148185285Y-91717809D01*
X148185285Y-91574952D01*
X148232904Y-91384476D01*
X148280523Y-91289238D01*
X148375761Y-91194000D01*
X148518619Y-91146380D01*
X148613857Y-91146380D01*
X148756714Y-91194000D01*
X148804333Y-91241619D01*
X149661476Y-91479714D02*
X149661476Y-92146380D01*
X149423380Y-91098761D02*
X149185285Y-91813047D01*
X149804333Y-91813047D01*
X151090333Y-95702380D02*
X150757000Y-95226190D01*
X150518904Y-95702380D02*
X150518904Y-94702380D01*
X150899857Y-94702380D01*
X150995095Y-94750000D01*
X151042714Y-94797619D01*
X151090333Y-94892857D01*
X151090333Y-95035714D01*
X151042714Y-95130952D01*
X150995095Y-95178571D01*
X150899857Y-95226190D01*
X150518904Y-95226190D01*
X152042714Y-95702380D02*
X151471285Y-95702380D01*
X151757000Y-95702380D02*
X151757000Y-94702380D01*
X151661761Y-94845238D01*
X151566523Y-94940476D01*
X151471285Y-94988095D01*
%LPC*%
D11*
X142080000Y-95567500D03*
X142080000Y-96202500D03*
X142080000Y-96837500D03*
X142080000Y-97472500D03*
X142080000Y-98107500D03*
X142080000Y-98742500D03*
X142080000Y-99377500D03*
X142080000Y-100012500D03*
X142080000Y-100647500D03*
X142080000Y-101282500D03*
X142080000Y-101917500D03*
X142080000Y-102552500D03*
X147480000Y-102552500D03*
X147480000Y-101917500D03*
X147480000Y-101282500D03*
X147480000Y-100647500D03*
X147480000Y-100012500D03*
X147480000Y-99377500D03*
X147480000Y-98742500D03*
X147480000Y-98107500D03*
X147480000Y-97472500D03*
X147480000Y-96837500D03*
X147480000Y-96202500D03*
X147480000Y-95567500D03*
D12*
X154940000Y-110060000D03*
D13*
X152400000Y-110060000D03*
X149860000Y-110060000D03*
X147320000Y-110060000D03*
X144780000Y-110060000D03*
X142240000Y-110060000D03*
X139700000Y-110060000D03*
X137160000Y-110060000D03*
X134620000Y-110060000D03*
X134620000Y-88060000D03*
X137160000Y-88060000D03*
X139700000Y-88060000D03*
X142240000Y-88060000D03*
X144780000Y-88060000D03*
X147320000Y-88060000D03*
X149860000Y-88060000D03*
X152400000Y-88060000D03*
X154940000Y-88060000D03*
D14*
X129286000Y-107950000D03*
X129286000Y-105410000D03*
X129286000Y-102870000D03*
X129286000Y-100330000D03*
X129286000Y-97790000D03*
X129286000Y-95250000D03*
X129286000Y-92710000D03*
D15*
X130937000Y-90170000D03*
X130937000Y-92710000D03*
X130937000Y-95250000D03*
X130937000Y-97790000D03*
X130937000Y-100330000D03*
X130937000Y-102870000D03*
X130937000Y-105410000D03*
X130937000Y-107950000D03*
D14*
X129286000Y-90170000D03*
X160274000Y-90170000D03*
X160274000Y-92710000D03*
X160274000Y-95250000D03*
X160274000Y-97790000D03*
X160274000Y-100330000D03*
X160274000Y-102870000D03*
X160274000Y-105410000D03*
D15*
X158623000Y-107950000D03*
X158623000Y-105410000D03*
X158623000Y-102870000D03*
X158623000Y-100330000D03*
X158623000Y-97790000D03*
X158623000Y-95250000D03*
X158623000Y-92710000D03*
X158623000Y-90170000D03*
D14*
X160274000Y-107950000D03*
D16*
X137414000Y-92380000D03*
X137414000Y-95580000D03*
D17*
X143730000Y-92964000D03*
X145830000Y-92964000D03*
D16*
X134620000Y-91110000D03*
X134620000Y-94310000D03*
D17*
X152942000Y-91694000D03*
X150842000Y-91694000D03*
D18*
X155278000Y-95250000D03*
X153078000Y-95250000D03*
D19*
X148590000Y-111760000D03*
X140970000Y-111760000D03*
X140970000Y-86360000D03*
X148590000Y-86360000D03*
X141478000Y-92964000D03*
X141478000Y-94234000D03*
X145542000Y-105410000D03*
X147447000Y-103886000D03*
X133223000Y-99060000D03*
X158623000Y-111760000D03*
X130937000Y-111760000D03*
X130937000Y-86360000D03*
X158623000Y-86360000D03*
X155194000Y-91694000D03*
D20*
X150876000Y-97536000D03*
X143964052Y-98351948D03*
X156083000Y-106553000D03*
X145097520Y-107061000D03*
X141732006Y-104648000D03*
X144018000Y-99567998D03*
X138811000Y-100711000D03*
X138176000Y-103378000D03*
X139573000Y-103251000D03*
X149479000Y-102997000D03*
X151130000Y-102362000D03*
X152400000Y-102362000D03*
X155702000Y-103378000D03*
X155575000Y-100965000D03*
X154686000Y-99949000D03*
X144780000Y-95504000D03*
X145796000Y-94742000D03*
M02*
