G04 #@! TF.GenerationSoftware,KiCad,Pcbnew,(5.1.5)*
G04 #@! TF.CreationDate,2019-12-06T17:14:53-05:00*
G04 #@! TF.ProjectId,term,7465726d-2e6b-4696-9361-645f70636258,rev?*
G04 #@! TF.SameCoordinates,Original*
G04 #@! TF.FileFunction,Legend,Bot*
G04 #@! TF.FilePolarity,Positive*
%FSLAX46Y46*%
G04 Gerber Fmt 4.6, Leading zero omitted, Abs format (unit mm)*
G04 Created by KiCad (PCBNEW (5.1.5)) date 2019-12-06 17:14:53*
%MOMM*%
%LPD*%
G04 APERTURE LIST*
%ADD10C,0.150000*%
%ADD11C,1.016000*%
%ADD12C,2.032000*%
%ADD13R,2.032000X1.778000*%
%ADD14C,2.286000*%
%ADD15R,1.270000X2.780000*%
%ADD16R,1.778000X1.778000*%
%ADD17C,1.778000*%
%ADD18R,1.000000X1.300000*%
%ADD19R,1.300000X1.000000*%
%ADD20R,1.300000X1.200000*%
%ADD21C,0.889000*%
G04 APERTURE END LIST*
D10*
X152154214Y-101715857D02*
X152068500Y-101744428D01*
X151925642Y-101744428D01*
X151868500Y-101715857D01*
X151839928Y-101687285D01*
X151811357Y-101630142D01*
X151811357Y-101573000D01*
X151839928Y-101515857D01*
X151868500Y-101487285D01*
X151925642Y-101458714D01*
X152039928Y-101430142D01*
X152097071Y-101401571D01*
X152125642Y-101373000D01*
X152154214Y-101315857D01*
X152154214Y-101258714D01*
X152125642Y-101201571D01*
X152097071Y-101173000D01*
X152039928Y-101144428D01*
X151897071Y-101144428D01*
X151811357Y-101173000D01*
X151639928Y-101144428D02*
X151297071Y-101144428D01*
X151468500Y-101744428D02*
X151468500Y-101144428D01*
X151125642Y-101573000D02*
X150839928Y-101573000D01*
X151182785Y-101744428D02*
X150982785Y-101144428D01*
X150782785Y-101744428D01*
X150668500Y-101144428D02*
X150325642Y-101144428D01*
X150497071Y-101744428D02*
X150497071Y-101144428D01*
X150125642Y-101144428D02*
X150125642Y-101630142D01*
X150097071Y-101687285D01*
X150068500Y-101715857D01*
X150011357Y-101744428D01*
X149897071Y-101744428D01*
X149839928Y-101715857D01*
X149811357Y-101687285D01*
X149782785Y-101630142D01*
X149782785Y-101144428D01*
X149525642Y-101715857D02*
X149439928Y-101744428D01*
X149297071Y-101744428D01*
X149239928Y-101715857D01*
X149211357Y-101687285D01*
X149182785Y-101630142D01*
X149182785Y-101573000D01*
X149211357Y-101515857D01*
X149239928Y-101487285D01*
X149297071Y-101458714D01*
X149411357Y-101430142D01*
X149468500Y-101401571D01*
X149497071Y-101373000D01*
X149525642Y-101315857D01*
X149525642Y-101258714D01*
X149497071Y-101201571D01*
X149468500Y-101173000D01*
X149411357Y-101144428D01*
X149268500Y-101144428D01*
X149182785Y-101173000D01*
X145651428Y-105046428D02*
X145851428Y-104760714D01*
X145994285Y-105046428D02*
X145994285Y-104446428D01*
X145765714Y-104446428D01*
X145708571Y-104475000D01*
X145680000Y-104503571D01*
X145651428Y-104560714D01*
X145651428Y-104646428D01*
X145680000Y-104703571D01*
X145708571Y-104732142D01*
X145765714Y-104760714D01*
X145994285Y-104760714D01*
X145394285Y-104732142D02*
X145194285Y-104732142D01*
X145108571Y-105046428D02*
X145394285Y-105046428D01*
X145394285Y-104446428D01*
X145108571Y-104446428D01*
X144880000Y-105017857D02*
X144794285Y-105046428D01*
X144651428Y-105046428D01*
X144594285Y-105017857D01*
X144565714Y-104989285D01*
X144537142Y-104932142D01*
X144537142Y-104875000D01*
X144565714Y-104817857D01*
X144594285Y-104789285D01*
X144651428Y-104760714D01*
X144765714Y-104732142D01*
X144822857Y-104703571D01*
X144851428Y-104675000D01*
X144880000Y-104617857D01*
X144880000Y-104560714D01*
X144851428Y-104503571D01*
X144822857Y-104475000D01*
X144765714Y-104446428D01*
X144622857Y-104446428D01*
X144537142Y-104475000D01*
X144280000Y-104732142D02*
X144080000Y-104732142D01*
X143994285Y-105046428D02*
X144280000Y-105046428D01*
X144280000Y-104446428D01*
X143994285Y-104446428D01*
X143822857Y-104446428D02*
X143480000Y-104446428D01*
X143651428Y-105046428D02*
X143651428Y-104446428D01*
X158957357Y-107650000D02*
X159014500Y-107621428D01*
X159100214Y-107621428D01*
X159185928Y-107650000D01*
X159243071Y-107707142D01*
X159271642Y-107764285D01*
X159300214Y-107878571D01*
X159300214Y-107964285D01*
X159271642Y-108078571D01*
X159243071Y-108135714D01*
X159185928Y-108192857D01*
X159100214Y-108221428D01*
X159043071Y-108221428D01*
X158957357Y-108192857D01*
X158928785Y-108164285D01*
X158928785Y-107964285D01*
X159043071Y-107964285D01*
X158671642Y-108221428D02*
X158671642Y-107621428D01*
X158328785Y-108221428D01*
X158328785Y-107621428D01*
X158043071Y-108221428D02*
X158043071Y-107621428D01*
X157900214Y-107621428D01*
X157814500Y-107650000D01*
X157757357Y-107707142D01*
X157728785Y-107764285D01*
X157700214Y-107878571D01*
X157700214Y-107964285D01*
X157728785Y-108078571D01*
X157757357Y-108135714D01*
X157814500Y-108192857D01*
X157900214Y-108221428D01*
X158043071Y-108221428D01*
X131389928Y-107650000D02*
X131447071Y-107621428D01*
X131532785Y-107621428D01*
X131618500Y-107650000D01*
X131675642Y-107707142D01*
X131704214Y-107764285D01*
X131732785Y-107878571D01*
X131732785Y-107964285D01*
X131704214Y-108078571D01*
X131675642Y-108135714D01*
X131618500Y-108192857D01*
X131532785Y-108221428D01*
X131475642Y-108221428D01*
X131389928Y-108192857D01*
X131361357Y-108164285D01*
X131361357Y-107964285D01*
X131475642Y-107964285D01*
X131104214Y-108221428D02*
X131104214Y-107621428D01*
X130761357Y-108221428D01*
X130761357Y-107621428D01*
X130475642Y-108221428D02*
X130475642Y-107621428D01*
X130332785Y-107621428D01*
X130247071Y-107650000D01*
X130189928Y-107707142D01*
X130161357Y-107764285D01*
X130132785Y-107878571D01*
X130132785Y-107964285D01*
X130161357Y-108078571D01*
X130189928Y-108135714D01*
X130247071Y-108192857D01*
X130332785Y-108221428D01*
X130475642Y-108221428D01*
X131389928Y-98032857D02*
X131304214Y-98061428D01*
X131161357Y-98061428D01*
X131104214Y-98032857D01*
X131075642Y-98004285D01*
X131047071Y-97947142D01*
X131047071Y-97890000D01*
X131075642Y-97832857D01*
X131104214Y-97804285D01*
X131161357Y-97775714D01*
X131275642Y-97747142D01*
X131332785Y-97718571D01*
X131361357Y-97690000D01*
X131389928Y-97632857D01*
X131389928Y-97575714D01*
X131361357Y-97518571D01*
X131332785Y-97490000D01*
X131275642Y-97461428D01*
X131132785Y-97461428D01*
X131047071Y-97490000D01*
X130789928Y-98061428D02*
X130789928Y-97461428D01*
X130504214Y-98061428D02*
X130504214Y-97461428D01*
X130161357Y-98061428D01*
X130161357Y-97461428D01*
X131504214Y-89841428D02*
X131304214Y-90441428D01*
X131104214Y-89841428D01*
X130932785Y-90270000D02*
X130647071Y-90270000D01*
X130989928Y-90441428D02*
X130789928Y-89841428D01*
X130589928Y-90441428D01*
X130418500Y-90270000D02*
X130132785Y-90270000D01*
X130475642Y-90441428D02*
X130275642Y-89841428D01*
X130075642Y-90441428D01*
X131675642Y-92381428D02*
X131475642Y-92981428D01*
X131275642Y-92381428D01*
X130732785Y-92924285D02*
X130761357Y-92952857D01*
X130847071Y-92981428D01*
X130904214Y-92981428D01*
X130989928Y-92952857D01*
X131047071Y-92895714D01*
X131075642Y-92838571D01*
X131104214Y-92724285D01*
X131104214Y-92638571D01*
X131075642Y-92524285D01*
X131047071Y-92467142D01*
X130989928Y-92410000D01*
X130904214Y-92381428D01*
X130847071Y-92381428D01*
X130761357Y-92410000D01*
X130732785Y-92438571D01*
X130132785Y-92924285D02*
X130161357Y-92952857D01*
X130247071Y-92981428D01*
X130304214Y-92981428D01*
X130389928Y-92952857D01*
X130447071Y-92895714D01*
X130475642Y-92838571D01*
X130504214Y-92724285D01*
X130504214Y-92638571D01*
X130475642Y-92524285D01*
X130447071Y-92467142D01*
X130389928Y-92410000D01*
X130304214Y-92381428D01*
X130247071Y-92381428D01*
X130161357Y-92410000D01*
X130132785Y-92438571D01*
X131047071Y-100601428D02*
X131332785Y-100601428D01*
X131332785Y-100001428D01*
X130875642Y-100430000D02*
X130589928Y-100430000D01*
X130932785Y-100601428D02*
X130732785Y-100001428D01*
X130532785Y-100601428D01*
X130418500Y-100001428D02*
X130075642Y-100001428D01*
X130247071Y-100601428D02*
X130247071Y-100001428D01*
X132504214Y-102827142D02*
X132418500Y-102855714D01*
X132389928Y-102884285D01*
X132361357Y-102941428D01*
X132361357Y-103027142D01*
X132389928Y-103084285D01*
X132418500Y-103112857D01*
X132475642Y-103141428D01*
X132704214Y-103141428D01*
X132704214Y-102541428D01*
X132504214Y-102541428D01*
X132447071Y-102570000D01*
X132418500Y-102598571D01*
X132389928Y-102655714D01*
X132389928Y-102712857D01*
X132418500Y-102770000D01*
X132447071Y-102798571D01*
X132504214Y-102827142D01*
X132704214Y-102827142D01*
X131818500Y-103141428D02*
X132104214Y-103141428D01*
X132104214Y-102541428D01*
X131647071Y-102970000D02*
X131361357Y-102970000D01*
X131704214Y-103141428D02*
X131504214Y-102541428D01*
X131304214Y-103141428D01*
X131104214Y-103141428D02*
X131104214Y-102541428D01*
X130761357Y-103141428D01*
X130761357Y-102541428D01*
X130475642Y-103141428D02*
X130475642Y-102541428D01*
X130132785Y-103141428D02*
X130389928Y-102798571D01*
X130132785Y-102541428D02*
X130475642Y-102884285D01*
X132161357Y-105652857D02*
X132075642Y-105681428D01*
X131932785Y-105681428D01*
X131875642Y-105652857D01*
X131847071Y-105624285D01*
X131818500Y-105567142D01*
X131818500Y-105510000D01*
X131847071Y-105452857D01*
X131875642Y-105424285D01*
X131932785Y-105395714D01*
X132047071Y-105367142D01*
X132104214Y-105338571D01*
X132132785Y-105310000D01*
X132161357Y-105252857D01*
X132161357Y-105195714D01*
X132132785Y-105138571D01*
X132104214Y-105110000D01*
X132047071Y-105081428D01*
X131904214Y-105081428D01*
X131818500Y-105110000D01*
X131218500Y-105624285D02*
X131247071Y-105652857D01*
X131332785Y-105681428D01*
X131389928Y-105681428D01*
X131475642Y-105652857D01*
X131532785Y-105595714D01*
X131561357Y-105538571D01*
X131589928Y-105424285D01*
X131589928Y-105338571D01*
X131561357Y-105224285D01*
X131532785Y-105167142D01*
X131475642Y-105110000D01*
X131389928Y-105081428D01*
X131332785Y-105081428D01*
X131247071Y-105110000D01*
X131218500Y-105138571D01*
X130675642Y-105681428D02*
X130961357Y-105681428D01*
X130961357Y-105081428D01*
X130475642Y-105681428D02*
X130475642Y-105081428D01*
X130132785Y-105681428D02*
X130389928Y-105338571D01*
X130132785Y-105081428D02*
X130475642Y-105424285D01*
X159484357Y-89841428D02*
X159284357Y-90441428D01*
X159084357Y-89841428D01*
X158912928Y-90270000D02*
X158627214Y-90270000D01*
X158970071Y-90441428D02*
X158770071Y-89841428D01*
X158570071Y-90441428D01*
X158398642Y-90270000D02*
X158112928Y-90270000D01*
X158455785Y-90441428D02*
X158255785Y-89841428D01*
X158055785Y-90441428D01*
X159484357Y-92381428D02*
X159284357Y-92981428D01*
X159084357Y-92381428D01*
X158541500Y-92924285D02*
X158570071Y-92952857D01*
X158655785Y-92981428D01*
X158712928Y-92981428D01*
X158798642Y-92952857D01*
X158855785Y-92895714D01*
X158884357Y-92838571D01*
X158912928Y-92724285D01*
X158912928Y-92638571D01*
X158884357Y-92524285D01*
X158855785Y-92467142D01*
X158798642Y-92410000D01*
X158712928Y-92381428D01*
X158655785Y-92381428D01*
X158570071Y-92410000D01*
X158541500Y-92438571D01*
X157941500Y-92924285D02*
X157970071Y-92952857D01*
X158055785Y-92981428D01*
X158112928Y-92981428D01*
X158198642Y-92952857D01*
X158255785Y-92895714D01*
X158284357Y-92838571D01*
X158312928Y-92724285D01*
X158312928Y-92638571D01*
X158284357Y-92524285D01*
X158255785Y-92467142D01*
X158198642Y-92410000D01*
X158112928Y-92381428D01*
X158055785Y-92381428D01*
X157970071Y-92410000D01*
X157941500Y-92438571D01*
X159427214Y-105652857D02*
X159341500Y-105681428D01*
X159198642Y-105681428D01*
X159141500Y-105652857D01*
X159112928Y-105624285D01*
X159084357Y-105567142D01*
X159084357Y-105510000D01*
X159112928Y-105452857D01*
X159141500Y-105424285D01*
X159198642Y-105395714D01*
X159312928Y-105367142D01*
X159370071Y-105338571D01*
X159398642Y-105310000D01*
X159427214Y-105252857D01*
X159427214Y-105195714D01*
X159398642Y-105138571D01*
X159370071Y-105110000D01*
X159312928Y-105081428D01*
X159170071Y-105081428D01*
X159084357Y-105110000D01*
X158484357Y-105624285D02*
X158512928Y-105652857D01*
X158598642Y-105681428D01*
X158655785Y-105681428D01*
X158741500Y-105652857D01*
X158798642Y-105595714D01*
X158827214Y-105538571D01*
X158855785Y-105424285D01*
X158855785Y-105338571D01*
X158827214Y-105224285D01*
X158798642Y-105167142D01*
X158741500Y-105110000D01*
X158655785Y-105081428D01*
X158598642Y-105081428D01*
X158512928Y-105110000D01*
X158484357Y-105138571D01*
X157941500Y-105681428D02*
X158227214Y-105681428D01*
X158227214Y-105081428D01*
X157741500Y-105681428D02*
X157741500Y-105081428D01*
X157398642Y-105681428D02*
X157655785Y-105338571D01*
X157398642Y-105081428D02*
X157741500Y-105424285D01*
X159198642Y-102827142D02*
X159112928Y-102855714D01*
X159084357Y-102884285D01*
X159055785Y-102941428D01*
X159055785Y-103027142D01*
X159084357Y-103084285D01*
X159112928Y-103112857D01*
X159170071Y-103141428D01*
X159398642Y-103141428D01*
X159398642Y-102541428D01*
X159198642Y-102541428D01*
X159141500Y-102570000D01*
X159112928Y-102598571D01*
X159084357Y-102655714D01*
X159084357Y-102712857D01*
X159112928Y-102770000D01*
X159141500Y-102798571D01*
X159198642Y-102827142D01*
X159398642Y-102827142D01*
X158512928Y-103141428D02*
X158798642Y-103141428D01*
X158798642Y-102541428D01*
X158341500Y-102970000D02*
X158055785Y-102970000D01*
X158398642Y-103141428D02*
X158198642Y-102541428D01*
X157998642Y-103141428D01*
X157798642Y-103141428D02*
X157798642Y-102541428D01*
X157455785Y-103141428D01*
X157455785Y-102541428D01*
X157170071Y-103141428D02*
X157170071Y-102541428D01*
X156827214Y-103141428D02*
X157084357Y-102798571D01*
X156827214Y-102541428D02*
X157170071Y-102884285D01*
X159112928Y-100601428D02*
X159398642Y-100601428D01*
X159398642Y-100001428D01*
X158941500Y-100430000D02*
X158655785Y-100430000D01*
X158998642Y-100601428D02*
X158798642Y-100001428D01*
X158598642Y-100601428D01*
X158484357Y-100001428D02*
X158141500Y-100001428D01*
X158312928Y-100601428D02*
X158312928Y-100001428D01*
X159427214Y-98032857D02*
X159341500Y-98061428D01*
X159198642Y-98061428D01*
X159141500Y-98032857D01*
X159112928Y-98004285D01*
X159084357Y-97947142D01*
X159084357Y-97890000D01*
X159112928Y-97832857D01*
X159141500Y-97804285D01*
X159198642Y-97775714D01*
X159312928Y-97747142D01*
X159370071Y-97718571D01*
X159398642Y-97690000D01*
X159427214Y-97632857D01*
X159427214Y-97575714D01*
X159398642Y-97518571D01*
X159370071Y-97490000D01*
X159312928Y-97461428D01*
X159170071Y-97461428D01*
X159084357Y-97490000D01*
X158712928Y-97461428D02*
X158598642Y-97461428D01*
X158541500Y-97490000D01*
X158484357Y-97547142D01*
X158455785Y-97661428D01*
X158455785Y-97861428D01*
X158484357Y-97975714D01*
X158541500Y-98032857D01*
X158598642Y-98061428D01*
X158712928Y-98061428D01*
X158770071Y-98032857D01*
X158827214Y-97975714D01*
X158855785Y-97861428D01*
X158855785Y-97661428D01*
X158827214Y-97547142D01*
X158770071Y-97490000D01*
X158712928Y-97461428D01*
X158198642Y-97461428D02*
X158198642Y-97947142D01*
X158170071Y-98004285D01*
X158141500Y-98032857D01*
X158084357Y-98061428D01*
X157970071Y-98061428D01*
X157912928Y-98032857D01*
X157884357Y-98004285D01*
X157855785Y-97947142D01*
X157855785Y-97461428D01*
X157655785Y-97461428D02*
X157312928Y-97461428D01*
X157484357Y-98061428D02*
X157484357Y-97461428D01*
X147280000Y-96560000D02*
X147030000Y-96560000D01*
X147280000Y-101560000D02*
X147030000Y-101560000D01*
X142530000Y-101560000D02*
X142530000Y-102060000D01*
X142280000Y-101560000D02*
X142530000Y-101560000D01*
X142530000Y-96560000D02*
X142530000Y-96060000D01*
X142280000Y-96560000D02*
X142530000Y-96560000D01*
X147280000Y-101560000D02*
X147280000Y-96560000D01*
X142280000Y-101560000D02*
X142280000Y-96560000D01*
X134839000Y-103265000D02*
X133639000Y-103265000D01*
X133639000Y-105015000D02*
X134839000Y-105015000D01*
X133639000Y-102475000D02*
X134839000Y-102475000D01*
X134839000Y-100725000D02*
X133639000Y-100725000D01*
X134839000Y-95645000D02*
X133639000Y-95645000D01*
X133639000Y-97395000D02*
X134839000Y-97395000D01*
X133639000Y-99935000D02*
X134839000Y-99935000D01*
X134839000Y-98185000D02*
X133639000Y-98185000D01*
X147990000Y-94855000D02*
X149190000Y-94855000D01*
X149190000Y-93105000D02*
X147990000Y-93105000D01*
X157212000Y-99914000D02*
X157212000Y-98714000D01*
X155462000Y-98714000D02*
X155462000Y-99914000D01*
X150460000Y-95137000D02*
X149260000Y-95137000D01*
X149260000Y-96887000D02*
X150460000Y-96887000D01*
X148971000Y-98810000D02*
X148971000Y-98560000D01*
X148971000Y-99310000D02*
X148971000Y-99560000D01*
X148971000Y-99310000D02*
X149321000Y-98810000D01*
X149321000Y-98810000D02*
X148621000Y-98810000D01*
X148621000Y-98810000D02*
X148971000Y-99310000D01*
X149321000Y-99310000D02*
X148621000Y-99310000D01*
X148096000Y-99660000D02*
X148096000Y-98460000D01*
X149846000Y-99660000D02*
X149846000Y-98460000D01*
X147065714Y-104036761D02*
X146922857Y-104084380D01*
X146684761Y-104084380D01*
X146589523Y-104036761D01*
X146541904Y-103989142D01*
X146494285Y-103893904D01*
X146494285Y-103798666D01*
X146541904Y-103703428D01*
X146589523Y-103655809D01*
X146684761Y-103608190D01*
X146875238Y-103560571D01*
X146970476Y-103512952D01*
X147018095Y-103465333D01*
X147065714Y-103370095D01*
X147065714Y-103274857D01*
X147018095Y-103179619D01*
X146970476Y-103132000D01*
X146875238Y-103084380D01*
X146637142Y-103084380D01*
X146494285Y-103132000D01*
X146160952Y-103084380D02*
X145922857Y-104084380D01*
X145732380Y-103370095D01*
X145541904Y-104084380D01*
X145303809Y-103084380D01*
X144399047Y-104084380D02*
X144970476Y-104084380D01*
X144684761Y-104084380D02*
X144684761Y-103084380D01*
X144780000Y-103227238D01*
X144875238Y-103322476D01*
X144970476Y-103370095D01*
X143780000Y-103084380D02*
X143684761Y-103084380D01*
X143589523Y-103132000D01*
X143541904Y-103179619D01*
X143494285Y-103274857D01*
X143446666Y-103465333D01*
X143446666Y-103703428D01*
X143494285Y-103893904D01*
X143541904Y-103989142D01*
X143589523Y-104036761D01*
X143684761Y-104084380D01*
X143780000Y-104084380D01*
X143875238Y-104036761D01*
X143922857Y-103989142D01*
X143970476Y-103893904D01*
X144018095Y-103703428D01*
X144018095Y-103465333D01*
X143970476Y-103274857D01*
X143922857Y-103179619D01*
X143875238Y-103132000D01*
X143780000Y-103084380D01*
X142494285Y-104084380D02*
X143065714Y-104084380D01*
X142780000Y-104084380D02*
X142780000Y-103084380D01*
X142875238Y-103227238D01*
X142970476Y-103322476D01*
X143065714Y-103370095D01*
X139168047Y-103449380D02*
X139501380Y-102973190D01*
X139739476Y-103449380D02*
X139739476Y-102449380D01*
X139358523Y-102449380D01*
X139263285Y-102497000D01*
X139215666Y-102544619D01*
X139168047Y-102639857D01*
X139168047Y-102782714D01*
X139215666Y-102877952D01*
X139263285Y-102925571D01*
X139358523Y-102973190D01*
X139739476Y-102973190D01*
X138215666Y-103449380D02*
X138787095Y-103449380D01*
X138501380Y-103449380D02*
X138501380Y-102449380D01*
X138596619Y-102592238D01*
X138691857Y-102687476D01*
X138787095Y-102735095D01*
X137596619Y-102449380D02*
X137501380Y-102449380D01*
X137406142Y-102497000D01*
X137358523Y-102544619D01*
X137310904Y-102639857D01*
X137263285Y-102830333D01*
X137263285Y-103068428D01*
X137310904Y-103258904D01*
X137358523Y-103354142D01*
X137406142Y-103401761D01*
X137501380Y-103449380D01*
X137596619Y-103449380D01*
X137691857Y-103401761D01*
X137739476Y-103354142D01*
X137787095Y-103258904D01*
X137834714Y-103068428D01*
X137834714Y-102830333D01*
X137787095Y-102639857D01*
X137739476Y-102544619D01*
X137691857Y-102497000D01*
X137596619Y-102449380D01*
X136929952Y-102449380D02*
X136310904Y-102449380D01*
X136644238Y-102830333D01*
X136501380Y-102830333D01*
X136406142Y-102877952D01*
X136358523Y-102925571D01*
X136310904Y-103020809D01*
X136310904Y-103258904D01*
X136358523Y-103354142D01*
X136406142Y-103401761D01*
X136501380Y-103449380D01*
X136787095Y-103449380D01*
X136882333Y-103401761D01*
X136929952Y-103354142D01*
X139168047Y-102052380D02*
X139501380Y-101576190D01*
X139739476Y-102052380D02*
X139739476Y-101052380D01*
X139358523Y-101052380D01*
X139263285Y-101100000D01*
X139215666Y-101147619D01*
X139168047Y-101242857D01*
X139168047Y-101385714D01*
X139215666Y-101480952D01*
X139263285Y-101528571D01*
X139358523Y-101576190D01*
X139739476Y-101576190D01*
X138215666Y-102052380D02*
X138787095Y-102052380D01*
X138501380Y-102052380D02*
X138501380Y-101052380D01*
X138596619Y-101195238D01*
X138691857Y-101290476D01*
X138787095Y-101338095D01*
X137596619Y-101052380D02*
X137501380Y-101052380D01*
X137406142Y-101100000D01*
X137358523Y-101147619D01*
X137310904Y-101242857D01*
X137263285Y-101433333D01*
X137263285Y-101671428D01*
X137310904Y-101861904D01*
X137358523Y-101957142D01*
X137406142Y-102004761D01*
X137501380Y-102052380D01*
X137596619Y-102052380D01*
X137691857Y-102004761D01*
X137739476Y-101957142D01*
X137787095Y-101861904D01*
X137834714Y-101671428D01*
X137834714Y-101433333D01*
X137787095Y-101242857D01*
X137739476Y-101147619D01*
X137691857Y-101100000D01*
X137596619Y-101052380D01*
X136406142Y-101385714D02*
X136406142Y-102052380D01*
X136644238Y-101004761D02*
X136882333Y-101719047D01*
X136263285Y-101719047D01*
X139168047Y-96972380D02*
X139501380Y-96496190D01*
X139739476Y-96972380D02*
X139739476Y-95972380D01*
X139358523Y-95972380D01*
X139263285Y-96020000D01*
X139215666Y-96067619D01*
X139168047Y-96162857D01*
X139168047Y-96305714D01*
X139215666Y-96400952D01*
X139263285Y-96448571D01*
X139358523Y-96496190D01*
X139739476Y-96496190D01*
X138215666Y-96972380D02*
X138787095Y-96972380D01*
X138501380Y-96972380D02*
X138501380Y-95972380D01*
X138596619Y-96115238D01*
X138691857Y-96210476D01*
X138787095Y-96258095D01*
X137596619Y-95972380D02*
X137501380Y-95972380D01*
X137406142Y-96020000D01*
X137358523Y-96067619D01*
X137310904Y-96162857D01*
X137263285Y-96353333D01*
X137263285Y-96591428D01*
X137310904Y-96781904D01*
X137358523Y-96877142D01*
X137406142Y-96924761D01*
X137501380Y-96972380D01*
X137596619Y-96972380D01*
X137691857Y-96924761D01*
X137739476Y-96877142D01*
X137787095Y-96781904D01*
X137834714Y-96591428D01*
X137834714Y-96353333D01*
X137787095Y-96162857D01*
X137739476Y-96067619D01*
X137691857Y-96020000D01*
X137596619Y-95972380D01*
X136929952Y-95972380D02*
X136263285Y-95972380D01*
X136691857Y-96972380D01*
X139168047Y-98369380D02*
X139501380Y-97893190D01*
X139739476Y-98369380D02*
X139739476Y-97369380D01*
X139358523Y-97369380D01*
X139263285Y-97417000D01*
X139215666Y-97464619D01*
X139168047Y-97559857D01*
X139168047Y-97702714D01*
X139215666Y-97797952D01*
X139263285Y-97845571D01*
X139358523Y-97893190D01*
X139739476Y-97893190D01*
X138215666Y-98369380D02*
X138787095Y-98369380D01*
X138501380Y-98369380D02*
X138501380Y-97369380D01*
X138596619Y-97512238D01*
X138691857Y-97607476D01*
X138787095Y-97655095D01*
X137596619Y-97369380D02*
X137501380Y-97369380D01*
X137406142Y-97417000D01*
X137358523Y-97464619D01*
X137310904Y-97559857D01*
X137263285Y-97750333D01*
X137263285Y-97988428D01*
X137310904Y-98178904D01*
X137358523Y-98274142D01*
X137406142Y-98321761D01*
X137501380Y-98369380D01*
X137596619Y-98369380D01*
X137691857Y-98321761D01*
X137739476Y-98274142D01*
X137787095Y-98178904D01*
X137834714Y-97988428D01*
X137834714Y-97750333D01*
X137787095Y-97559857D01*
X137739476Y-97464619D01*
X137691857Y-97417000D01*
X137596619Y-97369380D01*
X136691857Y-97797952D02*
X136787095Y-97750333D01*
X136834714Y-97702714D01*
X136882333Y-97607476D01*
X136882333Y-97559857D01*
X136834714Y-97464619D01*
X136787095Y-97417000D01*
X136691857Y-97369380D01*
X136501380Y-97369380D01*
X136406142Y-97417000D01*
X136358523Y-97464619D01*
X136310904Y-97559857D01*
X136310904Y-97607476D01*
X136358523Y-97702714D01*
X136406142Y-97750333D01*
X136501380Y-97797952D01*
X136691857Y-97797952D01*
X136787095Y-97845571D01*
X136834714Y-97893190D01*
X136882333Y-97988428D01*
X136882333Y-98178904D01*
X136834714Y-98274142D01*
X136787095Y-98321761D01*
X136691857Y-98369380D01*
X136501380Y-98369380D01*
X136406142Y-98321761D01*
X136358523Y-98274142D01*
X136310904Y-98178904D01*
X136310904Y-97988428D01*
X136358523Y-97893190D01*
X136406142Y-97845571D01*
X136501380Y-97797952D01*
X146026047Y-94432380D02*
X146359380Y-93956190D01*
X146597476Y-94432380D02*
X146597476Y-93432380D01*
X146216523Y-93432380D01*
X146121285Y-93480000D01*
X146073666Y-93527619D01*
X146026047Y-93622857D01*
X146026047Y-93765714D01*
X146073666Y-93860952D01*
X146121285Y-93908571D01*
X146216523Y-93956190D01*
X146597476Y-93956190D01*
X145073666Y-94432380D02*
X145645095Y-94432380D01*
X145359380Y-94432380D02*
X145359380Y-93432380D01*
X145454619Y-93575238D01*
X145549857Y-93670476D01*
X145645095Y-93718095D01*
X144454619Y-93432380D02*
X144359380Y-93432380D01*
X144264142Y-93480000D01*
X144216523Y-93527619D01*
X144168904Y-93622857D01*
X144121285Y-93813333D01*
X144121285Y-94051428D01*
X144168904Y-94241904D01*
X144216523Y-94337142D01*
X144264142Y-94384761D01*
X144359380Y-94432380D01*
X144454619Y-94432380D01*
X144549857Y-94384761D01*
X144597476Y-94337142D01*
X144645095Y-94241904D01*
X144692714Y-94051428D01*
X144692714Y-93813333D01*
X144645095Y-93622857D01*
X144597476Y-93527619D01*
X144549857Y-93480000D01*
X144454619Y-93432380D01*
X143645095Y-94432380D02*
X143454619Y-94432380D01*
X143359380Y-94384761D01*
X143311761Y-94337142D01*
X143216523Y-94194285D01*
X143168904Y-94003809D01*
X143168904Y-93622857D01*
X143216523Y-93527619D01*
X143264142Y-93480000D01*
X143359380Y-93432380D01*
X143549857Y-93432380D01*
X143645095Y-93480000D01*
X143692714Y-93527619D01*
X143740333Y-93622857D01*
X143740333Y-93860952D01*
X143692714Y-93956190D01*
X143645095Y-94003809D01*
X143549857Y-94051428D01*
X143359380Y-94051428D01*
X143264142Y-94003809D01*
X143216523Y-93956190D01*
X143168904Y-93860952D01*
X155138380Y-98194952D02*
X154662190Y-97861619D01*
X155138380Y-97623523D02*
X154138380Y-97623523D01*
X154138380Y-98004476D01*
X154186000Y-98099714D01*
X154233619Y-98147333D01*
X154328857Y-98194952D01*
X154471714Y-98194952D01*
X154566952Y-98147333D01*
X154614571Y-98099714D01*
X154662190Y-98004476D01*
X154662190Y-97623523D01*
X155138380Y-99147333D02*
X155138380Y-98575904D01*
X155138380Y-98861619D02*
X154138380Y-98861619D01*
X154281238Y-98766380D01*
X154376476Y-98671142D01*
X154424095Y-98575904D01*
X155138380Y-100099714D02*
X155138380Y-99528285D01*
X155138380Y-99814000D02*
X154138380Y-99814000D01*
X154281238Y-99718761D01*
X154376476Y-99623523D01*
X154424095Y-99528285D01*
X155138380Y-101052095D02*
X155138380Y-100480666D01*
X155138380Y-100766380D02*
X154138380Y-100766380D01*
X154281238Y-100671142D01*
X154376476Y-100575904D01*
X154424095Y-100480666D01*
X154662047Y-96464380D02*
X154995380Y-95988190D01*
X155233476Y-96464380D02*
X155233476Y-95464380D01*
X154852523Y-95464380D01*
X154757285Y-95512000D01*
X154709666Y-95559619D01*
X154662047Y-95654857D01*
X154662047Y-95797714D01*
X154709666Y-95892952D01*
X154757285Y-95940571D01*
X154852523Y-95988190D01*
X155233476Y-95988190D01*
X153709666Y-96464380D02*
X154281095Y-96464380D01*
X153995380Y-96464380D02*
X153995380Y-95464380D01*
X154090619Y-95607238D01*
X154185857Y-95702476D01*
X154281095Y-95750095D01*
X152757285Y-96464380D02*
X153328714Y-96464380D01*
X153043000Y-96464380D02*
X153043000Y-95464380D01*
X153138238Y-95607238D01*
X153233476Y-95702476D01*
X153328714Y-95750095D01*
X152376333Y-95559619D02*
X152328714Y-95512000D01*
X152233476Y-95464380D01*
X151995380Y-95464380D01*
X151900142Y-95512000D01*
X151852523Y-95559619D01*
X151804904Y-95654857D01*
X151804904Y-95750095D01*
X151852523Y-95892952D01*
X152423952Y-96464380D01*
X151804904Y-96464380D01*
X151201380Y-97369523D02*
X150201380Y-97369523D01*
X150201380Y-97607619D01*
X150249000Y-97750476D01*
X150344238Y-97845714D01*
X150439476Y-97893333D01*
X150629952Y-97940952D01*
X150772809Y-97940952D01*
X150963285Y-97893333D01*
X151058523Y-97845714D01*
X151153761Y-97750476D01*
X151201380Y-97607619D01*
X151201380Y-97369523D01*
X151201380Y-98893333D02*
X151201380Y-98321904D01*
X151201380Y-98607619D02*
X150201380Y-98607619D01*
X150344238Y-98512380D01*
X150439476Y-98417142D01*
X150487095Y-98321904D01*
X150201380Y-99512380D02*
X150201380Y-99607619D01*
X150249000Y-99702857D01*
X150296619Y-99750476D01*
X150391857Y-99798095D01*
X150582333Y-99845714D01*
X150820428Y-99845714D01*
X151010904Y-99798095D01*
X151106142Y-99750476D01*
X151153761Y-99702857D01*
X151201380Y-99607619D01*
X151201380Y-99512380D01*
X151153761Y-99417142D01*
X151106142Y-99369523D01*
X151010904Y-99321904D01*
X150820428Y-99274285D01*
X150582333Y-99274285D01*
X150391857Y-99321904D01*
X150296619Y-99369523D01*
X150249000Y-99417142D01*
X150201380Y-99512380D01*
X151201380Y-100798095D02*
X151201380Y-100226666D01*
X151201380Y-100512380D02*
X150201380Y-100512380D01*
X150344238Y-100417142D01*
X150439476Y-100321904D01*
X150487095Y-100226666D01*
%LPC*%
D11*
X138430000Y-93980000D03*
X140970000Y-96520000D03*
X158750000Y-106680000D03*
X130810000Y-106680000D03*
D12*
X158496000Y-96266000D03*
X131064000Y-96266000D03*
D11*
X152400000Y-109220000D03*
X152400000Y-104140000D03*
X140970000Y-106680000D03*
X140970000Y-101600000D03*
X130810000Y-104140000D03*
X130810000Y-101600000D03*
X130810000Y-99060000D03*
X158750000Y-104140000D03*
X158750000Y-101600000D03*
D13*
X128524000Y-90170000D03*
X128524000Y-92710000D03*
X128524000Y-95250000D03*
X128524000Y-97790000D03*
X128524000Y-100330000D03*
X128524000Y-102870000D03*
X128524000Y-105410000D03*
X128524000Y-107950000D03*
X161036000Y-107950000D03*
X161036000Y-105410000D03*
X161036000Y-102870000D03*
X161036000Y-100330000D03*
X161036000Y-97790000D03*
X161036000Y-95250000D03*
X161036000Y-92710000D03*
X161036000Y-90170000D03*
D11*
X158750000Y-99060000D03*
D14*
X129540000Y-87122000D03*
X160020000Y-87122000D03*
D15*
X143510000Y-101465000D03*
X146050000Y-101465000D03*
X143510000Y-96655000D03*
X146050000Y-96655000D03*
D16*
X135890000Y-91440000D03*
D17*
X135890000Y-88900000D03*
X138430000Y-91440000D03*
X138430000Y-88900000D03*
X140970000Y-91440000D03*
X140970000Y-88900000D03*
X143510000Y-91440000D03*
X143510000Y-88900000D03*
X146050000Y-91440000D03*
X146050000Y-88900000D03*
X148590000Y-91440000D03*
X148590000Y-88900000D03*
X151130000Y-91440000D03*
X151130000Y-88900000D03*
X153670000Y-91440000D03*
X153670000Y-88900000D03*
D18*
X135339000Y-104140000D03*
X133139000Y-104140000D03*
X133139000Y-101600000D03*
X135339000Y-101600000D03*
X135339000Y-96520000D03*
X133139000Y-96520000D03*
X133139000Y-99060000D03*
X135339000Y-99060000D03*
X147490000Y-93980000D03*
X149690000Y-93980000D03*
D19*
X156337000Y-100414000D03*
X156337000Y-98214000D03*
D18*
X150960000Y-96012000D03*
X148760000Y-96012000D03*
D20*
X148971000Y-100260000D03*
X148971000Y-97860000D03*
D11*
X137668000Y-99060000D03*
X137668000Y-104140000D03*
D21*
X148336000Y-102108000D03*
X149225000Y-102997000D03*
M02*
