M48
; DRILL file {KiCad (5.1.5)} date Fri Dec  6 17:14:55 2019
; FORMAT={3:3/ absolute / metric / keep zeros}
; #@! TF.CreationDate,2019-12-06T17:14:55-05:00
; #@! TF.GenerationSoftware,Kicad,Pcbnew,(5.1.5)
FMAT,2
METRIC
T1C0.330
T2C0.610
T3C1.016
%
G90
G05
T1
X148336Y-102108
X149225Y-102997
T2
X137668Y-099060
X137668Y-104140
X138430Y-093980
X158750Y-101600
X140970Y-106680
X130810Y-099060
X152400Y-104140
X140970Y-096520
X158750Y-104140
X158750Y-106680
X152400Y-109220
X130810Y-101600
X140970Y-101600
X130810Y-104140
X130810Y-106680
X158750Y-099060
T3
X160020Y-087122
X131064Y-096266
X161036Y-090170
X161036Y-092710
X161036Y-095250
X161036Y-097790
X161036Y-100330
X161036Y-102870
X161036Y-105410
X161036Y-107950
X128524Y-090170
X128524Y-092710
X128524Y-095250
X128524Y-097790
X128524Y-100330
X128524Y-102870
X128524Y-105410
X128524Y-107950
X135890Y-088900
X135890Y-091440
X138430Y-088900
X138430Y-091440
X140970Y-088900
X140970Y-091440
X143510Y-088900
X143510Y-091440
X146050Y-088900
X146050Y-091440
X148590Y-088900
X148590Y-091440
X151130Y-088900
X151130Y-091440
X153670Y-088900
X153670Y-091440
X158496Y-096266
X129540Y-087122
T0
M30
