M48
; DRILL file {KiCad 8.0.6} date 2025-01-27T09:49:26-0500
; FORMAT={-:-/ absolute / metric / decimal}
; #@! TF.CreationDate,2025-01-27T09:49:26-05:00
; #@! TF.GenerationSoftware,Kicad,Pcbnew,8.0.6
; #@! TF.FileFunction,MixedPlating,1,2
FMAT,2
METRIC
; #@! TA.AperFunction,Plated,PTH,ViaDrill
T1C0.330
; #@! TA.AperFunction,Plated,PTH,ViaDrill
T2C0.610
; #@! TA.AperFunction,Plated,PTH,ComponentDrill
T3C0.610
; #@! TA.AperFunction,Plated,PTH,ComponentDrill
T4C1.016
%
G90
G05
T1
X148.336Y-102.108
X149.225Y-102.997
T2
X137.668Y-99.06
X137.668Y-104.14
T3
X130.81Y-99.06
X130.81Y-101.6
X130.81Y-104.14
X130.81Y-106.68
X138.43Y-93.98
X140.97Y-96.52
X140.97Y-101.6
X140.97Y-106.68
X152.4Y-104.14
X152.4Y-109.22
X158.75Y-99.06
X158.75Y-101.6
X158.75Y-104.14
X158.75Y-106.68
T4
X128.524Y-90.17
X128.524Y-92.71
X128.524Y-95.25
X128.524Y-97.79
X128.524Y-100.33
X128.524Y-102.87
X128.524Y-105.41
X128.524Y-107.95
X129.54Y-87.122
X131.064Y-96.266
X135.89Y-88.9
X135.89Y-91.44
X138.43Y-88.9
X138.43Y-91.44
X140.97Y-88.9
X140.97Y-91.44
X143.51Y-88.9
X143.51Y-91.44
X146.05Y-88.9
X146.05Y-91.44
X148.59Y-88.9
X148.59Y-91.44
X151.13Y-88.9
X151.13Y-91.44
X153.67Y-88.9
X153.67Y-91.44
X158.496Y-96.266
X160.02Y-87.122
X161.036Y-90.17
X161.036Y-92.71
X161.036Y-95.25
X161.036Y-97.79
X161.036Y-100.33
X161.036Y-102.87
X161.036Y-105.41
X161.036Y-107.95
M30
