G04 #@! TF.FileFunction,Copper,L1,Top,Signal*
%FSLAX46Y46*%
G04 Gerber Fmt 4.6, Leading zero omitted, Abs format (unit mm)*
G04 Created by KiCad (PCBNEW (2015-12-09 BZR 6195)-product) date Sat Feb 25 21:50:35 2017*
%MOMM*%
G01*
G04 APERTURE LIST*
%ADD10C,0.100000*%
%ADD11C,1.016000*%
%ADD12C,2.032000*%
%ADD13R,2.032000X1.778000*%
%ADD14C,2.499360*%
%ADD15R,1.778000X1.778000*%
%ADD16C,1.778000*%
%ADD17R,1.000000X1.300000*%
%ADD18R,1.300000X1.000000*%
%ADD19R,1.300000X1.200000*%
%ADD20C,0.889000*%
%ADD21C,1.016000*%
%ADD22C,0.254000*%
G04 APERTURE END LIST*
D10*
D11*
X138430000Y-93980000D03*
X140970000Y-96520000D03*
X158750000Y-106680000D03*
X130810000Y-106680000D03*
D12*
X158496000Y-96266000D03*
X131064000Y-96266000D03*
D11*
X152400000Y-109220000D03*
X152400000Y-104140000D03*
X140970000Y-106680000D03*
X140970000Y-101600000D03*
X130810000Y-104140000D03*
X130810000Y-101600000D03*
X130810000Y-99060000D03*
X158750000Y-104140000D03*
X158750000Y-101600000D03*
D13*
X128524000Y-90170000D03*
X128524000Y-92710000D03*
X128524000Y-95250000D03*
X128524000Y-97790000D03*
X128524000Y-100330000D03*
X128524000Y-102870000D03*
X128524000Y-105410000D03*
X128524000Y-107950000D03*
X161036000Y-107950000D03*
X161036000Y-105410000D03*
X161036000Y-102870000D03*
X161036000Y-100330000D03*
X161036000Y-97790000D03*
X161036000Y-95250000D03*
X161036000Y-92710000D03*
X161036000Y-90170000D03*
D11*
X158750000Y-99060000D03*
D14*
X129540000Y-87122000D03*
X160020000Y-87122000D03*
D15*
X135890000Y-91440000D03*
D16*
X135890000Y-88900000D03*
X138430000Y-91440000D03*
X138430000Y-88900000D03*
X140970000Y-91440000D03*
X140970000Y-88900000D03*
X143510000Y-91440000D03*
X143510000Y-88900000D03*
X146050000Y-91440000D03*
X146050000Y-88900000D03*
X148590000Y-91440000D03*
X148590000Y-88900000D03*
X151130000Y-91440000D03*
X151130000Y-88900000D03*
X153670000Y-91440000D03*
X153670000Y-88900000D03*
D17*
X135339000Y-106680000D03*
X133139000Y-106680000D03*
X133139000Y-104140000D03*
X135339000Y-104140000D03*
X135339000Y-101600000D03*
X133139000Y-101600000D03*
X133139000Y-99060000D03*
X135339000Y-99060000D03*
D18*
X156337000Y-97366000D03*
X156337000Y-95166000D03*
D17*
X148209000Y-105156000D03*
X150409000Y-105156000D03*
D18*
X143510000Y-103335000D03*
X143510000Y-101135000D03*
D19*
X143510000Y-107626000D03*
X143510000Y-105226000D03*
X146050000Y-107626000D03*
X146050000Y-105226000D03*
D11*
X137668000Y-99060000D03*
X137668000Y-104140000D03*
D20*
X148336000Y-102108000D03*
X149225000Y-102997000D03*
D21*
X135339000Y-99060000D02*
X135339000Y-97493000D01*
X135339000Y-97493000D02*
X130556000Y-92710000D01*
X130556000Y-92710000D02*
X128524000Y-92710000D01*
X137668000Y-99060000D02*
X135339000Y-99060000D01*
X135339000Y-104140000D02*
X137668000Y-104140000D01*
D22*
X143510000Y-91440000D02*
X148336000Y-96266000D01*
X148336000Y-96266000D02*
X151130000Y-96266000D01*
X151130000Y-96266000D02*
X155194000Y-100330000D01*
X155194000Y-100330000D02*
X161036000Y-100330000D01*
X140970000Y-91440000D02*
X147320000Y-97790000D01*
X147320000Y-97790000D02*
X150622000Y-97790000D01*
X150622000Y-97790000D02*
X155702000Y-102870000D01*
X155702000Y-102870000D02*
X159766000Y-102870000D01*
X159766000Y-102870000D02*
X161036000Y-102870000D01*
X138430000Y-91440000D02*
X146304000Y-99314000D01*
X146304000Y-99314000D02*
X150114000Y-99314000D01*
X150114000Y-99314000D02*
X156210000Y-105410000D01*
X156210000Y-105410000D02*
X161036000Y-105410000D01*
X157734000Y-97790000D02*
X161036000Y-97790000D01*
X156337000Y-97366000D02*
X157310000Y-97366000D01*
X157310000Y-97366000D02*
X157734000Y-97790000D01*
X154686000Y-97790000D02*
X155067000Y-97790000D01*
X155491000Y-97366000D02*
X155067000Y-97790000D01*
X156337000Y-97366000D02*
X155491000Y-97366000D01*
X146050000Y-91440000D02*
X149352000Y-94742000D01*
X149352000Y-94742000D02*
X151638000Y-94742000D01*
X151638000Y-94742000D02*
X154686000Y-97790000D01*
X148336000Y-102108000D02*
X145542000Y-102108000D01*
X145542000Y-102108000D02*
X144569000Y-101135000D01*
X144569000Y-101135000D02*
X143510000Y-101135000D01*
D21*
X152781001Y-93091001D02*
X156337000Y-93091001D01*
X156337000Y-93091001D02*
X158368999Y-93091001D01*
D22*
X156337000Y-95166000D02*
X156337000Y-93091001D01*
D21*
X151130000Y-91440000D02*
X152781001Y-93091001D01*
X158750000Y-92710000D02*
X161036000Y-92710000D01*
X158368999Y-93091001D02*
X158750000Y-92710000D01*
D22*
X149225000Y-102997000D02*
X150409000Y-104181000D01*
X150409000Y-104181000D02*
X150409000Y-105156000D01*
D21*
X153670000Y-91440000D02*
X153670000Y-88900000D01*
X161036000Y-90170000D02*
X161036000Y-88138000D01*
X161036000Y-88138000D02*
X160020000Y-87122000D01*
X156210000Y-91440000D02*
X157480000Y-90170000D01*
X157480000Y-90170000D02*
X161036000Y-90170000D01*
X153670000Y-91440000D02*
X156210000Y-91440000D01*
X128524000Y-90170000D02*
X128524000Y-88138000D01*
X128524000Y-88138000D02*
X129540000Y-87122000D01*
D22*
X146050000Y-105226000D02*
X147123000Y-105226000D01*
X147123000Y-105226000D02*
X147193000Y-105156000D01*
X147193000Y-105156000D02*
X148209000Y-105156000D01*
X143510000Y-103335000D02*
X143510000Y-105226000D01*
X133139000Y-101600000D02*
X133139000Y-100627000D01*
X133139000Y-100627000D02*
X132842000Y-100330000D01*
X133139000Y-99060000D02*
X133139000Y-100033000D01*
X133139000Y-100033000D02*
X132842000Y-100330000D01*
X128524000Y-100330000D02*
X132842000Y-100330000D01*
X133139000Y-106680000D02*
X133139000Y-105707000D01*
X133139000Y-105707000D02*
X132842000Y-105410000D01*
X133139000Y-104140000D02*
X133139000Y-105113000D01*
X133139000Y-105113000D02*
X132842000Y-105410000D01*
X128524000Y-105410000D02*
X132842000Y-105410000D01*
G36*
X162002000Y-87886632D02*
X161974662Y-87749194D01*
X161974662Y-87749193D01*
X161777391Y-87453957D01*
X161777984Y-86773910D01*
X161510957Y-86127655D01*
X161016946Y-85632780D01*
X160371158Y-85364626D01*
X159671910Y-85364016D01*
X159025655Y-85631043D01*
X158530780Y-86125054D01*
X158262626Y-86770842D01*
X158262016Y-87470090D01*
X158529043Y-88116345D01*
X159023054Y-88611220D01*
X159668842Y-88879374D01*
X159705968Y-88879406D01*
X159658847Y-88909728D01*
X159542855Y-89079488D01*
X159527766Y-89154000D01*
X157480000Y-89154000D01*
X157091194Y-89231338D01*
X157091192Y-89231339D01*
X157091193Y-89231339D01*
X156761579Y-89451580D01*
X155789160Y-90424000D01*
X154686000Y-90424000D01*
X154686000Y-89859707D01*
X154853629Y-89692370D01*
X155066757Y-89179100D01*
X155067242Y-88623339D01*
X154855010Y-88109697D01*
X154462370Y-87716371D01*
X153949100Y-87503243D01*
X153393339Y-87502758D01*
X152879697Y-87714990D01*
X152486371Y-88107630D01*
X152475081Y-88134818D01*
X152457539Y-88092467D01*
X152202196Y-88007409D01*
X151309605Y-88900000D01*
X152202196Y-89792591D01*
X152457539Y-89707533D01*
X152473758Y-89663120D01*
X152484990Y-89690303D01*
X152654000Y-89859608D01*
X152654000Y-90480293D01*
X152486371Y-90647630D01*
X152400051Y-90855512D01*
X152315010Y-90649697D01*
X151922370Y-90256371D01*
X151895182Y-90245081D01*
X151937533Y-90227539D01*
X152022591Y-89972196D01*
X151130000Y-89079605D01*
X150237409Y-89972196D01*
X150322467Y-90227539D01*
X150366880Y-90243758D01*
X150339697Y-90254990D01*
X149946371Y-90647630D01*
X149860051Y-90855512D01*
X149775010Y-90649697D01*
X149382370Y-90256371D01*
X149355182Y-90245081D01*
X149397533Y-90227539D01*
X149482591Y-89972196D01*
X148590000Y-89079605D01*
X147697409Y-89972196D01*
X147782467Y-90227539D01*
X147826880Y-90243758D01*
X147799697Y-90254990D01*
X147406371Y-90647630D01*
X147320051Y-90855512D01*
X147235010Y-90649697D01*
X146842370Y-90256371D01*
X146815182Y-90245081D01*
X146857533Y-90227539D01*
X146942591Y-89972196D01*
X146050000Y-89079605D01*
X145157409Y-89972196D01*
X145242467Y-90227539D01*
X145286880Y-90243758D01*
X145259697Y-90254990D01*
X144866371Y-90647630D01*
X144780051Y-90855512D01*
X144695010Y-90649697D01*
X144302370Y-90256371D01*
X144275182Y-90245081D01*
X144317533Y-90227539D01*
X144402591Y-89972196D01*
X143510000Y-89079605D01*
X142617409Y-89972196D01*
X142702467Y-90227539D01*
X142746880Y-90243758D01*
X142719697Y-90254990D01*
X142326371Y-90647630D01*
X142240051Y-90855512D01*
X142155010Y-90649697D01*
X141762370Y-90256371D01*
X141735182Y-90245081D01*
X141777533Y-90227539D01*
X141862591Y-89972196D01*
X140970000Y-89079605D01*
X140077409Y-89972196D01*
X140162467Y-90227539D01*
X140206880Y-90243758D01*
X140179697Y-90254990D01*
X139786371Y-90647630D01*
X139700051Y-90855512D01*
X139615010Y-90649697D01*
X139222370Y-90256371D01*
X139195182Y-90245081D01*
X139237533Y-90227539D01*
X139322591Y-89972196D01*
X138430000Y-89079605D01*
X137537409Y-89972196D01*
X137622467Y-90227539D01*
X137666880Y-90243758D01*
X137639697Y-90254990D01*
X137296952Y-90597137D01*
X137296952Y-90551000D01*
X137261530Y-90362747D01*
X137150272Y-90189847D01*
X136980512Y-90073855D01*
X136779000Y-90033048D01*
X136732356Y-90033048D01*
X137073629Y-89692370D01*
X137084919Y-89665182D01*
X137102461Y-89707533D01*
X137357804Y-89792591D01*
X138250395Y-88900000D01*
X138609605Y-88900000D01*
X139502196Y-89792591D01*
X139700000Y-89726700D01*
X139897804Y-89792591D01*
X140790395Y-88900000D01*
X141149605Y-88900000D01*
X142042196Y-89792591D01*
X142240000Y-89726700D01*
X142437804Y-89792591D01*
X143330395Y-88900000D01*
X143689605Y-88900000D01*
X144582196Y-89792591D01*
X144780000Y-89726700D01*
X144977804Y-89792591D01*
X145870395Y-88900000D01*
X146229605Y-88900000D01*
X147122196Y-89792591D01*
X147320000Y-89726700D01*
X147517804Y-89792591D01*
X148410395Y-88900000D01*
X148769605Y-88900000D01*
X149662196Y-89792591D01*
X149860000Y-89726700D01*
X150057804Y-89792591D01*
X150950395Y-88900000D01*
X150057804Y-88007409D01*
X149860000Y-88073300D01*
X149662196Y-88007409D01*
X148769605Y-88900000D01*
X148410395Y-88900000D01*
X147517804Y-88007409D01*
X147320000Y-88073300D01*
X147122196Y-88007409D01*
X146229605Y-88900000D01*
X145870395Y-88900000D01*
X144977804Y-88007409D01*
X144780000Y-88073300D01*
X144582196Y-88007409D01*
X143689605Y-88900000D01*
X143330395Y-88900000D01*
X142437804Y-88007409D01*
X142240000Y-88073300D01*
X142042196Y-88007409D01*
X141149605Y-88900000D01*
X140790395Y-88900000D01*
X139897804Y-88007409D01*
X139700000Y-88073300D01*
X139502196Y-88007409D01*
X138609605Y-88900000D01*
X138250395Y-88900000D01*
X137357804Y-88007409D01*
X137102461Y-88092467D01*
X137086242Y-88136880D01*
X137075010Y-88109697D01*
X136793609Y-87827804D01*
X137537409Y-87827804D01*
X138430000Y-88720395D01*
X139322591Y-87827804D01*
X140077409Y-87827804D01*
X140970000Y-88720395D01*
X141862591Y-87827804D01*
X142617409Y-87827804D01*
X143510000Y-88720395D01*
X144402591Y-87827804D01*
X145157409Y-87827804D01*
X146050000Y-88720395D01*
X146942591Y-87827804D01*
X147697409Y-87827804D01*
X148590000Y-88720395D01*
X149482591Y-87827804D01*
X150237409Y-87827804D01*
X151130000Y-88720395D01*
X152022591Y-87827804D01*
X151937533Y-87572461D01*
X151368035Y-87364484D01*
X150762300Y-87390277D01*
X150322467Y-87572461D01*
X150237409Y-87827804D01*
X149482591Y-87827804D01*
X149397533Y-87572461D01*
X148828035Y-87364484D01*
X148222300Y-87390277D01*
X147782467Y-87572461D01*
X147697409Y-87827804D01*
X146942591Y-87827804D01*
X146857533Y-87572461D01*
X146288035Y-87364484D01*
X145682300Y-87390277D01*
X145242467Y-87572461D01*
X145157409Y-87827804D01*
X144402591Y-87827804D01*
X144317533Y-87572461D01*
X143748035Y-87364484D01*
X143142300Y-87390277D01*
X142702467Y-87572461D01*
X142617409Y-87827804D01*
X141862591Y-87827804D01*
X141777533Y-87572461D01*
X141208035Y-87364484D01*
X140602300Y-87390277D01*
X140162467Y-87572461D01*
X140077409Y-87827804D01*
X139322591Y-87827804D01*
X139237533Y-87572461D01*
X138668035Y-87364484D01*
X138062300Y-87390277D01*
X137622467Y-87572461D01*
X137537409Y-87827804D01*
X136793609Y-87827804D01*
X136682370Y-87716371D01*
X136169100Y-87503243D01*
X135613339Y-87502758D01*
X135099697Y-87714990D01*
X134706371Y-88107630D01*
X134493243Y-88620900D01*
X134492758Y-89176661D01*
X134704990Y-89690303D01*
X135047137Y-90033048D01*
X135001000Y-90033048D01*
X134812747Y-90068470D01*
X134639847Y-90179728D01*
X134523855Y-90349488D01*
X134483048Y-90551000D01*
X134483048Y-92329000D01*
X134518470Y-92517253D01*
X134629728Y-92690153D01*
X134799488Y-92806145D01*
X135001000Y-92846952D01*
X136779000Y-92846952D01*
X136967253Y-92811530D01*
X137140153Y-92700272D01*
X137256145Y-92530512D01*
X137296952Y-92329000D01*
X137296952Y-92282356D01*
X137637630Y-92623629D01*
X138150900Y-92836757D01*
X138706661Y-92837242D01*
X138864145Y-92772171D01*
X145854987Y-99763013D01*
X146060996Y-99900664D01*
X146304000Y-99949001D01*
X146304005Y-99949000D01*
X149850974Y-99949000D01*
X155760987Y-105859013D01*
X155966996Y-105996664D01*
X156210000Y-106045000D01*
X159502048Y-106045000D01*
X159502048Y-106299000D01*
X159537470Y-106487253D01*
X159599431Y-106583543D01*
X159481673Y-106701301D01*
X159385000Y-106934690D01*
X159385000Y-107537250D01*
X159543750Y-107696000D01*
X160782000Y-107696000D01*
X160782000Y-107676000D01*
X161290000Y-107676000D01*
X161290000Y-107696000D01*
X161310000Y-107696000D01*
X161310000Y-108204000D01*
X161290000Y-108204000D01*
X161290000Y-109315250D01*
X161448750Y-109474000D01*
X162002000Y-109474000D01*
X162002000Y-113742000D01*
X127558000Y-113742000D01*
X127558000Y-109474000D01*
X128111250Y-109474000D01*
X128270000Y-109315250D01*
X128270000Y-108204000D01*
X128778000Y-108204000D01*
X128778000Y-109315250D01*
X128936750Y-109474000D01*
X129666309Y-109474000D01*
X129899698Y-109377327D01*
X130078327Y-109198699D01*
X130175000Y-108965310D01*
X130175000Y-108362750D01*
X130016250Y-108204000D01*
X128778000Y-108204000D01*
X128270000Y-108204000D01*
X128250000Y-108204000D01*
X128250000Y-107696000D01*
X128270000Y-107696000D01*
X128270000Y-107676000D01*
X128778000Y-107676000D01*
X128778000Y-107696000D01*
X130016250Y-107696000D01*
X130175000Y-107537250D01*
X130175000Y-106934690D01*
X130078327Y-106701301D01*
X129960476Y-106583450D01*
X130017145Y-106500512D01*
X130057952Y-106299000D01*
X130057952Y-106045000D01*
X132121048Y-106045000D01*
X132121048Y-107330000D01*
X132156470Y-107518253D01*
X132267728Y-107691153D01*
X132437488Y-107807145D01*
X132639000Y-107847952D01*
X133639000Y-107847952D01*
X133827253Y-107812530D01*
X134000153Y-107701272D01*
X134116145Y-107531512D01*
X134156952Y-107330000D01*
X134156952Y-106965750D01*
X134204000Y-106965750D01*
X134204000Y-107456310D01*
X134300673Y-107689699D01*
X134479302Y-107868327D01*
X134712691Y-107965000D01*
X135053250Y-107965000D01*
X135212000Y-107806250D01*
X135212000Y-106807000D01*
X135466000Y-106807000D01*
X135466000Y-107806250D01*
X135624750Y-107965000D01*
X135965309Y-107965000D01*
X136093865Y-107911750D01*
X142225000Y-107911750D01*
X142225000Y-108352309D01*
X142321673Y-108585698D01*
X142500301Y-108764327D01*
X142733690Y-108861000D01*
X143224250Y-108861000D01*
X143383000Y-108702250D01*
X143383000Y-107753000D01*
X143637000Y-107753000D01*
X143637000Y-108702250D01*
X143795750Y-108861000D01*
X144286310Y-108861000D01*
X144519699Y-108764327D01*
X144698327Y-108585698D01*
X144780000Y-108388522D01*
X144861673Y-108585698D01*
X145040301Y-108764327D01*
X145273690Y-108861000D01*
X145764250Y-108861000D01*
X145923000Y-108702250D01*
X145923000Y-107753000D01*
X146177000Y-107753000D01*
X146177000Y-108702250D01*
X146335750Y-108861000D01*
X146826310Y-108861000D01*
X147059699Y-108764327D01*
X147238327Y-108585698D01*
X147330675Y-108362750D01*
X159385000Y-108362750D01*
X159385000Y-108965310D01*
X159481673Y-109198699D01*
X159660302Y-109377327D01*
X159893691Y-109474000D01*
X160623250Y-109474000D01*
X160782000Y-109315250D01*
X160782000Y-108204000D01*
X159543750Y-108204000D01*
X159385000Y-108362750D01*
X147330675Y-108362750D01*
X147335000Y-108352309D01*
X147335000Y-107911750D01*
X147176250Y-107753000D01*
X146177000Y-107753000D01*
X145923000Y-107753000D01*
X144923750Y-107753000D01*
X144780000Y-107896750D01*
X144636250Y-107753000D01*
X143637000Y-107753000D01*
X143383000Y-107753000D01*
X142383750Y-107753000D01*
X142225000Y-107911750D01*
X136093865Y-107911750D01*
X136198698Y-107868327D01*
X136377327Y-107689699D01*
X136474000Y-107456310D01*
X136474000Y-106965750D01*
X136407941Y-106899691D01*
X142225000Y-106899691D01*
X142225000Y-107340250D01*
X142383750Y-107499000D01*
X143383000Y-107499000D01*
X143383000Y-106549750D01*
X143637000Y-106549750D01*
X143637000Y-107499000D01*
X144636250Y-107499000D01*
X144780000Y-107355250D01*
X144923750Y-107499000D01*
X145923000Y-107499000D01*
X145923000Y-106549750D01*
X146177000Y-106549750D01*
X146177000Y-107499000D01*
X147176250Y-107499000D01*
X147335000Y-107340250D01*
X147335000Y-106899691D01*
X147238327Y-106666302D01*
X147059699Y-106487673D01*
X146826310Y-106391000D01*
X146335750Y-106391000D01*
X146177000Y-106549750D01*
X145923000Y-106549750D01*
X145764250Y-106391000D01*
X145273690Y-106391000D01*
X145040301Y-106487673D01*
X144861673Y-106666302D01*
X144780000Y-106863478D01*
X144698327Y-106666302D01*
X144519699Y-106487673D01*
X144286310Y-106391000D01*
X143795750Y-106391000D01*
X143637000Y-106549750D01*
X143383000Y-106549750D01*
X143224250Y-106391000D01*
X142733690Y-106391000D01*
X142500301Y-106487673D01*
X142321673Y-106666302D01*
X142225000Y-106899691D01*
X136407941Y-106899691D01*
X136315250Y-106807000D01*
X135466000Y-106807000D01*
X135212000Y-106807000D01*
X134362750Y-106807000D01*
X134204000Y-106965750D01*
X134156952Y-106965750D01*
X134156952Y-106030000D01*
X134133186Y-105903690D01*
X134204000Y-105903690D01*
X134204000Y-106394250D01*
X134362750Y-106553000D01*
X135212000Y-106553000D01*
X135212000Y-105553750D01*
X135466000Y-105553750D01*
X135466000Y-106553000D01*
X136315250Y-106553000D01*
X136474000Y-106394250D01*
X136474000Y-105903690D01*
X136377327Y-105670301D01*
X136198698Y-105491673D01*
X135965309Y-105395000D01*
X135624750Y-105395000D01*
X135466000Y-105553750D01*
X135212000Y-105553750D01*
X135053250Y-105395000D01*
X134712691Y-105395000D01*
X134479302Y-105491673D01*
X134300673Y-105670301D01*
X134204000Y-105903690D01*
X134133186Y-105903690D01*
X134121530Y-105841747D01*
X134010272Y-105668847D01*
X133840512Y-105552855D01*
X133739261Y-105532351D01*
X133725664Y-105463996D01*
X133725664Y-105463995D01*
X133689585Y-105410000D01*
X133725664Y-105356005D01*
X133738964Y-105289143D01*
X133827253Y-105272530D01*
X134000153Y-105161272D01*
X134116145Y-104991512D01*
X134156952Y-104790000D01*
X134156952Y-103490000D01*
X134321048Y-103490000D01*
X134321048Y-104790000D01*
X134356470Y-104978253D01*
X134467728Y-105151153D01*
X134637488Y-105267145D01*
X134839000Y-105307952D01*
X135839000Y-105307952D01*
X136027253Y-105272530D01*
X136200153Y-105161272D01*
X136203755Y-105156000D01*
X137667113Y-105156000D01*
X137869208Y-105156176D01*
X138242766Y-105001825D01*
X138528821Y-104716269D01*
X138683824Y-104342982D01*
X138684176Y-103938792D01*
X138529825Y-103565234D01*
X138244269Y-103279179D01*
X137870982Y-103124176D01*
X137466792Y-103123824D01*
X137466366Y-103124000D01*
X136203178Y-103124000D01*
X136040512Y-103012855D01*
X135839000Y-102972048D01*
X134839000Y-102972048D01*
X134650747Y-103007470D01*
X134477847Y-103118728D01*
X134361855Y-103288488D01*
X134321048Y-103490000D01*
X134156952Y-103490000D01*
X134121530Y-103301747D01*
X134010272Y-103128847D01*
X133840512Y-103012855D01*
X133639000Y-102972048D01*
X132639000Y-102972048D01*
X132450747Y-103007470D01*
X132277847Y-103118728D01*
X132161855Y-103288488D01*
X132121048Y-103490000D01*
X132121048Y-104775000D01*
X130057952Y-104775000D01*
X130057952Y-104521000D01*
X130022530Y-104332747D01*
X129911272Y-104159847D01*
X129884073Y-104141263D01*
X129901153Y-104130272D01*
X130017145Y-103960512D01*
X130057952Y-103759000D01*
X130057952Y-101981000D01*
X130022530Y-101792747D01*
X129911272Y-101619847D01*
X129884073Y-101601263D01*
X129901153Y-101590272D01*
X130017145Y-101420512D01*
X130057952Y-101219000D01*
X130057952Y-100965000D01*
X132121048Y-100965000D01*
X132121048Y-102250000D01*
X132156470Y-102438253D01*
X132267728Y-102611153D01*
X132437488Y-102727145D01*
X132639000Y-102767952D01*
X133639000Y-102767952D01*
X133827253Y-102732530D01*
X134000153Y-102621272D01*
X134116145Y-102451512D01*
X134156952Y-102250000D01*
X134156952Y-101885750D01*
X134204000Y-101885750D01*
X134204000Y-102376310D01*
X134300673Y-102609699D01*
X134479302Y-102788327D01*
X134712691Y-102885000D01*
X135053250Y-102885000D01*
X135212000Y-102726250D01*
X135212000Y-101727000D01*
X135466000Y-101727000D01*
X135466000Y-102726250D01*
X135624750Y-102885000D01*
X135965309Y-102885000D01*
X136086019Y-102835000D01*
X142342048Y-102835000D01*
X142342048Y-103835000D01*
X142377470Y-104023253D01*
X142488728Y-104196153D01*
X142537785Y-104229672D01*
X142498847Y-104254728D01*
X142382855Y-104424488D01*
X142342048Y-104626000D01*
X142342048Y-105826000D01*
X142377470Y-106014253D01*
X142488728Y-106187153D01*
X142658488Y-106303145D01*
X142860000Y-106343952D01*
X144160000Y-106343952D01*
X144348253Y-106308530D01*
X144521153Y-106197272D01*
X144637145Y-106027512D01*
X144677952Y-105826000D01*
X144677952Y-104626000D01*
X144882048Y-104626000D01*
X144882048Y-105826000D01*
X144917470Y-106014253D01*
X145028728Y-106187153D01*
X145198488Y-106303145D01*
X145400000Y-106343952D01*
X146700000Y-106343952D01*
X146888253Y-106308530D01*
X147061153Y-106197272D01*
X147177145Y-106027512D01*
X147205957Y-105885234D01*
X147226470Y-105994253D01*
X147337728Y-106167153D01*
X147507488Y-106283145D01*
X147709000Y-106323952D01*
X148709000Y-106323952D01*
X148897253Y-106288530D01*
X149070153Y-106177272D01*
X149186145Y-106007512D01*
X149226952Y-105806000D01*
X149226952Y-104506000D01*
X149191530Y-104317747D01*
X149080272Y-104144847D01*
X148910512Y-104028855D01*
X148709000Y-103988048D01*
X147709000Y-103988048D01*
X147520747Y-104023470D01*
X147347847Y-104134728D01*
X147231855Y-104304488D01*
X147193290Y-104494930D01*
X147182530Y-104437747D01*
X147071272Y-104264847D01*
X146901512Y-104148855D01*
X146700000Y-104108048D01*
X145400000Y-104108048D01*
X145211747Y-104143470D01*
X145038847Y-104254728D01*
X144922855Y-104424488D01*
X144882048Y-104626000D01*
X144677952Y-104626000D01*
X144642530Y-104437747D01*
X144531272Y-104264847D01*
X144482215Y-104231328D01*
X144521153Y-104206272D01*
X144637145Y-104036512D01*
X144677952Y-103835000D01*
X144677952Y-102835000D01*
X144642530Y-102646747D01*
X144531272Y-102473847D01*
X144361512Y-102357855D01*
X144160000Y-102317048D01*
X142860000Y-102317048D01*
X142671747Y-102352470D01*
X142498847Y-102463728D01*
X142382855Y-102633488D01*
X142342048Y-102835000D01*
X136086019Y-102835000D01*
X136198698Y-102788327D01*
X136377327Y-102609699D01*
X136474000Y-102376310D01*
X136474000Y-101885750D01*
X136315250Y-101727000D01*
X135466000Y-101727000D01*
X135212000Y-101727000D01*
X134362750Y-101727000D01*
X134204000Y-101885750D01*
X134156952Y-101885750D01*
X134156952Y-100950000D01*
X134133186Y-100823690D01*
X134204000Y-100823690D01*
X134204000Y-101314250D01*
X134362750Y-101473000D01*
X135212000Y-101473000D01*
X135212000Y-100473750D01*
X135466000Y-100473750D01*
X135466000Y-101473000D01*
X136315250Y-101473000D01*
X136474000Y-101314250D01*
X136474000Y-100823690D01*
X136395842Y-100635000D01*
X142342048Y-100635000D01*
X142342048Y-101635000D01*
X142377470Y-101823253D01*
X142488728Y-101996153D01*
X142658488Y-102112145D01*
X142860000Y-102152952D01*
X144160000Y-102152952D01*
X144348253Y-102117530D01*
X144521153Y-102006272D01*
X144529715Y-101993741D01*
X145092987Y-102557013D01*
X145298996Y-102694664D01*
X145542000Y-102743000D01*
X147624028Y-102743000D01*
X147795747Y-102915020D01*
X148145705Y-103060335D01*
X148272444Y-103060445D01*
X148272335Y-103185633D01*
X148417039Y-103535843D01*
X148684747Y-103804020D01*
X149034705Y-103949335D01*
X149279522Y-103949548D01*
X149514097Y-104184123D01*
X149431855Y-104304488D01*
X149391048Y-104506000D01*
X149391048Y-105806000D01*
X149426470Y-105994253D01*
X149537728Y-106167153D01*
X149707488Y-106283145D01*
X149909000Y-106323952D01*
X150909000Y-106323952D01*
X151097253Y-106288530D01*
X151270153Y-106177272D01*
X151386145Y-106007512D01*
X151426952Y-105806000D01*
X151426952Y-104506000D01*
X151391530Y-104317747D01*
X151280272Y-104144847D01*
X151110512Y-104028855D01*
X151009675Y-104008435D01*
X150995664Y-103937996D01*
X150858013Y-103731987D01*
X150177453Y-103051427D01*
X150177665Y-102808367D01*
X150032961Y-102458157D01*
X149765253Y-102189980D01*
X149415295Y-102044665D01*
X149288556Y-102044555D01*
X149288665Y-101919367D01*
X149143961Y-101569157D01*
X148876253Y-101300980D01*
X148526295Y-101155665D01*
X148147367Y-101155335D01*
X147797157Y-101300039D01*
X147623893Y-101473000D01*
X145805026Y-101473000D01*
X145018013Y-100685987D01*
X144812004Y-100548336D01*
X144655799Y-100517265D01*
X144642530Y-100446747D01*
X144531272Y-100273847D01*
X144361512Y-100157855D01*
X144160000Y-100117048D01*
X142860000Y-100117048D01*
X142671747Y-100152470D01*
X142498847Y-100263728D01*
X142382855Y-100433488D01*
X142342048Y-100635000D01*
X136395842Y-100635000D01*
X136377327Y-100590301D01*
X136198698Y-100411673D01*
X135965309Y-100315000D01*
X135624750Y-100315000D01*
X135466000Y-100473750D01*
X135212000Y-100473750D01*
X135053250Y-100315000D01*
X134712691Y-100315000D01*
X134479302Y-100411673D01*
X134300673Y-100590301D01*
X134204000Y-100823690D01*
X134133186Y-100823690D01*
X134121530Y-100761747D01*
X134010272Y-100588847D01*
X133840512Y-100472855D01*
X133739261Y-100452351D01*
X133738146Y-100446747D01*
X133725664Y-100383995D01*
X133689585Y-100330000D01*
X133725664Y-100276005D01*
X133738964Y-100209143D01*
X133827253Y-100192530D01*
X134000153Y-100081272D01*
X134116145Y-99911512D01*
X134156952Y-99710000D01*
X134156952Y-98410000D01*
X134121530Y-98221747D01*
X134010272Y-98048847D01*
X133840512Y-97932855D01*
X133639000Y-97892048D01*
X132639000Y-97892048D01*
X132450747Y-97927470D01*
X132277847Y-98038728D01*
X132161855Y-98208488D01*
X132121048Y-98410000D01*
X132121048Y-99695000D01*
X130057952Y-99695000D01*
X130057952Y-99441000D01*
X130022530Y-99252747D01*
X129911272Y-99079847D01*
X129884073Y-99061263D01*
X129901153Y-99050272D01*
X130017145Y-98880512D01*
X130057952Y-98679000D01*
X130057952Y-96901000D01*
X130022530Y-96712747D01*
X129960569Y-96616457D01*
X130078327Y-96498699D01*
X130175000Y-96265310D01*
X130175000Y-95662750D01*
X130016250Y-95504000D01*
X128778000Y-95504000D01*
X128778000Y-95524000D01*
X128270000Y-95524000D01*
X128270000Y-95504000D01*
X128250000Y-95504000D01*
X128250000Y-94996000D01*
X128270000Y-94996000D01*
X128270000Y-94976000D01*
X128778000Y-94976000D01*
X128778000Y-94996000D01*
X130016250Y-94996000D01*
X130175000Y-94837250D01*
X130175000Y-94234690D01*
X130078327Y-94001301D01*
X129960476Y-93883450D01*
X130017145Y-93800512D01*
X130032234Y-93726000D01*
X130135160Y-93726000D01*
X134323000Y-97913841D01*
X134323000Y-98400361D01*
X134321048Y-98410000D01*
X134321048Y-99710000D01*
X134356470Y-99898253D01*
X134467728Y-100071153D01*
X134637488Y-100187145D01*
X134839000Y-100227952D01*
X135839000Y-100227952D01*
X136027253Y-100192530D01*
X136200153Y-100081272D01*
X136203755Y-100076000D01*
X137667113Y-100076000D01*
X137869208Y-100076176D01*
X138242766Y-99921825D01*
X138528821Y-99636269D01*
X138683824Y-99262982D01*
X138684176Y-98858792D01*
X138529825Y-98485234D01*
X138244269Y-98199179D01*
X137870982Y-98044176D01*
X137466792Y-98043824D01*
X137466366Y-98044000D01*
X136355000Y-98044000D01*
X136355000Y-97493000D01*
X136277662Y-97104194D01*
X136141892Y-96901000D01*
X136057420Y-96774579D01*
X131274420Y-91991580D01*
X130944807Y-91771338D01*
X130880300Y-91758507D01*
X130556000Y-91694000D01*
X130034055Y-91694000D01*
X130022530Y-91632747D01*
X129911272Y-91459847D01*
X129884073Y-91441263D01*
X129901153Y-91430272D01*
X130017145Y-91260512D01*
X130057952Y-91059000D01*
X130057952Y-89281000D01*
X130022530Y-89092747D01*
X129911272Y-88919847D01*
X129852886Y-88879953D01*
X129888090Y-88879984D01*
X130534345Y-88612957D01*
X131029220Y-88118946D01*
X131297374Y-87473158D01*
X131297984Y-86773910D01*
X131030957Y-86127655D01*
X130536946Y-85632780D01*
X129891158Y-85364626D01*
X129191910Y-85364016D01*
X128545655Y-85631043D01*
X128050780Y-86125054D01*
X127782626Y-86770842D01*
X127782029Y-87454826D01*
X127585338Y-87749193D01*
X127585338Y-87749194D01*
X127558000Y-87886632D01*
X127558000Y-84378000D01*
X162002000Y-84378000D01*
X162002000Y-87886632D01*
X162002000Y-87886632D01*
G37*
X162002000Y-87886632D02*
X161974662Y-87749194D01*
X161974662Y-87749193D01*
X161777391Y-87453957D01*
X161777984Y-86773910D01*
X161510957Y-86127655D01*
X161016946Y-85632780D01*
X160371158Y-85364626D01*
X159671910Y-85364016D01*
X159025655Y-85631043D01*
X158530780Y-86125054D01*
X158262626Y-86770842D01*
X158262016Y-87470090D01*
X158529043Y-88116345D01*
X159023054Y-88611220D01*
X159668842Y-88879374D01*
X159705968Y-88879406D01*
X159658847Y-88909728D01*
X159542855Y-89079488D01*
X159527766Y-89154000D01*
X157480000Y-89154000D01*
X157091194Y-89231338D01*
X157091192Y-89231339D01*
X157091193Y-89231339D01*
X156761579Y-89451580D01*
X155789160Y-90424000D01*
X154686000Y-90424000D01*
X154686000Y-89859707D01*
X154853629Y-89692370D01*
X155066757Y-89179100D01*
X155067242Y-88623339D01*
X154855010Y-88109697D01*
X154462370Y-87716371D01*
X153949100Y-87503243D01*
X153393339Y-87502758D01*
X152879697Y-87714990D01*
X152486371Y-88107630D01*
X152475081Y-88134818D01*
X152457539Y-88092467D01*
X152202196Y-88007409D01*
X151309605Y-88900000D01*
X152202196Y-89792591D01*
X152457539Y-89707533D01*
X152473758Y-89663120D01*
X152484990Y-89690303D01*
X152654000Y-89859608D01*
X152654000Y-90480293D01*
X152486371Y-90647630D01*
X152400051Y-90855512D01*
X152315010Y-90649697D01*
X151922370Y-90256371D01*
X151895182Y-90245081D01*
X151937533Y-90227539D01*
X152022591Y-89972196D01*
X151130000Y-89079605D01*
X150237409Y-89972196D01*
X150322467Y-90227539D01*
X150366880Y-90243758D01*
X150339697Y-90254990D01*
X149946371Y-90647630D01*
X149860051Y-90855512D01*
X149775010Y-90649697D01*
X149382370Y-90256371D01*
X149355182Y-90245081D01*
X149397533Y-90227539D01*
X149482591Y-89972196D01*
X148590000Y-89079605D01*
X147697409Y-89972196D01*
X147782467Y-90227539D01*
X147826880Y-90243758D01*
X147799697Y-90254990D01*
X147406371Y-90647630D01*
X147320051Y-90855512D01*
X147235010Y-90649697D01*
X146842370Y-90256371D01*
X146815182Y-90245081D01*
X146857533Y-90227539D01*
X146942591Y-89972196D01*
X146050000Y-89079605D01*
X145157409Y-89972196D01*
X145242467Y-90227539D01*
X145286880Y-90243758D01*
X145259697Y-90254990D01*
X144866371Y-90647630D01*
X144780051Y-90855512D01*
X144695010Y-90649697D01*
X144302370Y-90256371D01*
X144275182Y-90245081D01*
X144317533Y-90227539D01*
X144402591Y-89972196D01*
X143510000Y-89079605D01*
X142617409Y-89972196D01*
X142702467Y-90227539D01*
X142746880Y-90243758D01*
X142719697Y-90254990D01*
X142326371Y-90647630D01*
X142240051Y-90855512D01*
X142155010Y-90649697D01*
X141762370Y-90256371D01*
X141735182Y-90245081D01*
X141777533Y-90227539D01*
X141862591Y-89972196D01*
X140970000Y-89079605D01*
X140077409Y-89972196D01*
X140162467Y-90227539D01*
X140206880Y-90243758D01*
X140179697Y-90254990D01*
X139786371Y-90647630D01*
X139700051Y-90855512D01*
X139615010Y-90649697D01*
X139222370Y-90256371D01*
X139195182Y-90245081D01*
X139237533Y-90227539D01*
X139322591Y-89972196D01*
X138430000Y-89079605D01*
X137537409Y-89972196D01*
X137622467Y-90227539D01*
X137666880Y-90243758D01*
X137639697Y-90254990D01*
X137296952Y-90597137D01*
X137296952Y-90551000D01*
X137261530Y-90362747D01*
X137150272Y-90189847D01*
X136980512Y-90073855D01*
X136779000Y-90033048D01*
X136732356Y-90033048D01*
X137073629Y-89692370D01*
X137084919Y-89665182D01*
X137102461Y-89707533D01*
X137357804Y-89792591D01*
X138250395Y-88900000D01*
X138609605Y-88900000D01*
X139502196Y-89792591D01*
X139700000Y-89726700D01*
X139897804Y-89792591D01*
X140790395Y-88900000D01*
X141149605Y-88900000D01*
X142042196Y-89792591D01*
X142240000Y-89726700D01*
X142437804Y-89792591D01*
X143330395Y-88900000D01*
X143689605Y-88900000D01*
X144582196Y-89792591D01*
X144780000Y-89726700D01*
X144977804Y-89792591D01*
X145870395Y-88900000D01*
X146229605Y-88900000D01*
X147122196Y-89792591D01*
X147320000Y-89726700D01*
X147517804Y-89792591D01*
X148410395Y-88900000D01*
X148769605Y-88900000D01*
X149662196Y-89792591D01*
X149860000Y-89726700D01*
X150057804Y-89792591D01*
X150950395Y-88900000D01*
X150057804Y-88007409D01*
X149860000Y-88073300D01*
X149662196Y-88007409D01*
X148769605Y-88900000D01*
X148410395Y-88900000D01*
X147517804Y-88007409D01*
X147320000Y-88073300D01*
X147122196Y-88007409D01*
X146229605Y-88900000D01*
X145870395Y-88900000D01*
X144977804Y-88007409D01*
X144780000Y-88073300D01*
X144582196Y-88007409D01*
X143689605Y-88900000D01*
X143330395Y-88900000D01*
X142437804Y-88007409D01*
X142240000Y-88073300D01*
X142042196Y-88007409D01*
X141149605Y-88900000D01*
X140790395Y-88900000D01*
X139897804Y-88007409D01*
X139700000Y-88073300D01*
X139502196Y-88007409D01*
X138609605Y-88900000D01*
X138250395Y-88900000D01*
X137357804Y-88007409D01*
X137102461Y-88092467D01*
X137086242Y-88136880D01*
X137075010Y-88109697D01*
X136793609Y-87827804D01*
X137537409Y-87827804D01*
X138430000Y-88720395D01*
X139322591Y-87827804D01*
X140077409Y-87827804D01*
X140970000Y-88720395D01*
X141862591Y-87827804D01*
X142617409Y-87827804D01*
X143510000Y-88720395D01*
X144402591Y-87827804D01*
X145157409Y-87827804D01*
X146050000Y-88720395D01*
X146942591Y-87827804D01*
X147697409Y-87827804D01*
X148590000Y-88720395D01*
X149482591Y-87827804D01*
X150237409Y-87827804D01*
X151130000Y-88720395D01*
X152022591Y-87827804D01*
X151937533Y-87572461D01*
X151368035Y-87364484D01*
X150762300Y-87390277D01*
X150322467Y-87572461D01*
X150237409Y-87827804D01*
X149482591Y-87827804D01*
X149397533Y-87572461D01*
X148828035Y-87364484D01*
X148222300Y-87390277D01*
X147782467Y-87572461D01*
X147697409Y-87827804D01*
X146942591Y-87827804D01*
X146857533Y-87572461D01*
X146288035Y-87364484D01*
X145682300Y-87390277D01*
X145242467Y-87572461D01*
X145157409Y-87827804D01*
X144402591Y-87827804D01*
X144317533Y-87572461D01*
X143748035Y-87364484D01*
X143142300Y-87390277D01*
X142702467Y-87572461D01*
X142617409Y-87827804D01*
X141862591Y-87827804D01*
X141777533Y-87572461D01*
X141208035Y-87364484D01*
X140602300Y-87390277D01*
X140162467Y-87572461D01*
X140077409Y-87827804D01*
X139322591Y-87827804D01*
X139237533Y-87572461D01*
X138668035Y-87364484D01*
X138062300Y-87390277D01*
X137622467Y-87572461D01*
X137537409Y-87827804D01*
X136793609Y-87827804D01*
X136682370Y-87716371D01*
X136169100Y-87503243D01*
X135613339Y-87502758D01*
X135099697Y-87714990D01*
X134706371Y-88107630D01*
X134493243Y-88620900D01*
X134492758Y-89176661D01*
X134704990Y-89690303D01*
X135047137Y-90033048D01*
X135001000Y-90033048D01*
X134812747Y-90068470D01*
X134639847Y-90179728D01*
X134523855Y-90349488D01*
X134483048Y-90551000D01*
X134483048Y-92329000D01*
X134518470Y-92517253D01*
X134629728Y-92690153D01*
X134799488Y-92806145D01*
X135001000Y-92846952D01*
X136779000Y-92846952D01*
X136967253Y-92811530D01*
X137140153Y-92700272D01*
X137256145Y-92530512D01*
X137296952Y-92329000D01*
X137296952Y-92282356D01*
X137637630Y-92623629D01*
X138150900Y-92836757D01*
X138706661Y-92837242D01*
X138864145Y-92772171D01*
X145854987Y-99763013D01*
X146060996Y-99900664D01*
X146304000Y-99949001D01*
X146304005Y-99949000D01*
X149850974Y-99949000D01*
X155760987Y-105859013D01*
X155966996Y-105996664D01*
X156210000Y-106045000D01*
X159502048Y-106045000D01*
X159502048Y-106299000D01*
X159537470Y-106487253D01*
X159599431Y-106583543D01*
X159481673Y-106701301D01*
X159385000Y-106934690D01*
X159385000Y-107537250D01*
X159543750Y-107696000D01*
X160782000Y-107696000D01*
X160782000Y-107676000D01*
X161290000Y-107676000D01*
X161290000Y-107696000D01*
X161310000Y-107696000D01*
X161310000Y-108204000D01*
X161290000Y-108204000D01*
X161290000Y-109315250D01*
X161448750Y-109474000D01*
X162002000Y-109474000D01*
X162002000Y-113742000D01*
X127558000Y-113742000D01*
X127558000Y-109474000D01*
X128111250Y-109474000D01*
X128270000Y-109315250D01*
X128270000Y-108204000D01*
X128778000Y-108204000D01*
X128778000Y-109315250D01*
X128936750Y-109474000D01*
X129666309Y-109474000D01*
X129899698Y-109377327D01*
X130078327Y-109198699D01*
X130175000Y-108965310D01*
X130175000Y-108362750D01*
X130016250Y-108204000D01*
X128778000Y-108204000D01*
X128270000Y-108204000D01*
X128250000Y-108204000D01*
X128250000Y-107696000D01*
X128270000Y-107696000D01*
X128270000Y-107676000D01*
X128778000Y-107676000D01*
X128778000Y-107696000D01*
X130016250Y-107696000D01*
X130175000Y-107537250D01*
X130175000Y-106934690D01*
X130078327Y-106701301D01*
X129960476Y-106583450D01*
X130017145Y-106500512D01*
X130057952Y-106299000D01*
X130057952Y-106045000D01*
X132121048Y-106045000D01*
X132121048Y-107330000D01*
X132156470Y-107518253D01*
X132267728Y-107691153D01*
X132437488Y-107807145D01*
X132639000Y-107847952D01*
X133639000Y-107847952D01*
X133827253Y-107812530D01*
X134000153Y-107701272D01*
X134116145Y-107531512D01*
X134156952Y-107330000D01*
X134156952Y-106965750D01*
X134204000Y-106965750D01*
X134204000Y-107456310D01*
X134300673Y-107689699D01*
X134479302Y-107868327D01*
X134712691Y-107965000D01*
X135053250Y-107965000D01*
X135212000Y-107806250D01*
X135212000Y-106807000D01*
X135466000Y-106807000D01*
X135466000Y-107806250D01*
X135624750Y-107965000D01*
X135965309Y-107965000D01*
X136093865Y-107911750D01*
X142225000Y-107911750D01*
X142225000Y-108352309D01*
X142321673Y-108585698D01*
X142500301Y-108764327D01*
X142733690Y-108861000D01*
X143224250Y-108861000D01*
X143383000Y-108702250D01*
X143383000Y-107753000D01*
X143637000Y-107753000D01*
X143637000Y-108702250D01*
X143795750Y-108861000D01*
X144286310Y-108861000D01*
X144519699Y-108764327D01*
X144698327Y-108585698D01*
X144780000Y-108388522D01*
X144861673Y-108585698D01*
X145040301Y-108764327D01*
X145273690Y-108861000D01*
X145764250Y-108861000D01*
X145923000Y-108702250D01*
X145923000Y-107753000D01*
X146177000Y-107753000D01*
X146177000Y-108702250D01*
X146335750Y-108861000D01*
X146826310Y-108861000D01*
X147059699Y-108764327D01*
X147238327Y-108585698D01*
X147330675Y-108362750D01*
X159385000Y-108362750D01*
X159385000Y-108965310D01*
X159481673Y-109198699D01*
X159660302Y-109377327D01*
X159893691Y-109474000D01*
X160623250Y-109474000D01*
X160782000Y-109315250D01*
X160782000Y-108204000D01*
X159543750Y-108204000D01*
X159385000Y-108362750D01*
X147330675Y-108362750D01*
X147335000Y-108352309D01*
X147335000Y-107911750D01*
X147176250Y-107753000D01*
X146177000Y-107753000D01*
X145923000Y-107753000D01*
X144923750Y-107753000D01*
X144780000Y-107896750D01*
X144636250Y-107753000D01*
X143637000Y-107753000D01*
X143383000Y-107753000D01*
X142383750Y-107753000D01*
X142225000Y-107911750D01*
X136093865Y-107911750D01*
X136198698Y-107868327D01*
X136377327Y-107689699D01*
X136474000Y-107456310D01*
X136474000Y-106965750D01*
X136407941Y-106899691D01*
X142225000Y-106899691D01*
X142225000Y-107340250D01*
X142383750Y-107499000D01*
X143383000Y-107499000D01*
X143383000Y-106549750D01*
X143637000Y-106549750D01*
X143637000Y-107499000D01*
X144636250Y-107499000D01*
X144780000Y-107355250D01*
X144923750Y-107499000D01*
X145923000Y-107499000D01*
X145923000Y-106549750D01*
X146177000Y-106549750D01*
X146177000Y-107499000D01*
X147176250Y-107499000D01*
X147335000Y-107340250D01*
X147335000Y-106899691D01*
X147238327Y-106666302D01*
X147059699Y-106487673D01*
X146826310Y-106391000D01*
X146335750Y-106391000D01*
X146177000Y-106549750D01*
X145923000Y-106549750D01*
X145764250Y-106391000D01*
X145273690Y-106391000D01*
X145040301Y-106487673D01*
X144861673Y-106666302D01*
X144780000Y-106863478D01*
X144698327Y-106666302D01*
X144519699Y-106487673D01*
X144286310Y-106391000D01*
X143795750Y-106391000D01*
X143637000Y-106549750D01*
X143383000Y-106549750D01*
X143224250Y-106391000D01*
X142733690Y-106391000D01*
X142500301Y-106487673D01*
X142321673Y-106666302D01*
X142225000Y-106899691D01*
X136407941Y-106899691D01*
X136315250Y-106807000D01*
X135466000Y-106807000D01*
X135212000Y-106807000D01*
X134362750Y-106807000D01*
X134204000Y-106965750D01*
X134156952Y-106965750D01*
X134156952Y-106030000D01*
X134133186Y-105903690D01*
X134204000Y-105903690D01*
X134204000Y-106394250D01*
X134362750Y-106553000D01*
X135212000Y-106553000D01*
X135212000Y-105553750D01*
X135466000Y-105553750D01*
X135466000Y-106553000D01*
X136315250Y-106553000D01*
X136474000Y-106394250D01*
X136474000Y-105903690D01*
X136377327Y-105670301D01*
X136198698Y-105491673D01*
X135965309Y-105395000D01*
X135624750Y-105395000D01*
X135466000Y-105553750D01*
X135212000Y-105553750D01*
X135053250Y-105395000D01*
X134712691Y-105395000D01*
X134479302Y-105491673D01*
X134300673Y-105670301D01*
X134204000Y-105903690D01*
X134133186Y-105903690D01*
X134121530Y-105841747D01*
X134010272Y-105668847D01*
X133840512Y-105552855D01*
X133739261Y-105532351D01*
X133725664Y-105463996D01*
X133725664Y-105463995D01*
X133689585Y-105410000D01*
X133725664Y-105356005D01*
X133738964Y-105289143D01*
X133827253Y-105272530D01*
X134000153Y-105161272D01*
X134116145Y-104991512D01*
X134156952Y-104790000D01*
X134156952Y-103490000D01*
X134321048Y-103490000D01*
X134321048Y-104790000D01*
X134356470Y-104978253D01*
X134467728Y-105151153D01*
X134637488Y-105267145D01*
X134839000Y-105307952D01*
X135839000Y-105307952D01*
X136027253Y-105272530D01*
X136200153Y-105161272D01*
X136203755Y-105156000D01*
X137667113Y-105156000D01*
X137869208Y-105156176D01*
X138242766Y-105001825D01*
X138528821Y-104716269D01*
X138683824Y-104342982D01*
X138684176Y-103938792D01*
X138529825Y-103565234D01*
X138244269Y-103279179D01*
X137870982Y-103124176D01*
X137466792Y-103123824D01*
X137466366Y-103124000D01*
X136203178Y-103124000D01*
X136040512Y-103012855D01*
X135839000Y-102972048D01*
X134839000Y-102972048D01*
X134650747Y-103007470D01*
X134477847Y-103118728D01*
X134361855Y-103288488D01*
X134321048Y-103490000D01*
X134156952Y-103490000D01*
X134121530Y-103301747D01*
X134010272Y-103128847D01*
X133840512Y-103012855D01*
X133639000Y-102972048D01*
X132639000Y-102972048D01*
X132450747Y-103007470D01*
X132277847Y-103118728D01*
X132161855Y-103288488D01*
X132121048Y-103490000D01*
X132121048Y-104775000D01*
X130057952Y-104775000D01*
X130057952Y-104521000D01*
X130022530Y-104332747D01*
X129911272Y-104159847D01*
X129884073Y-104141263D01*
X129901153Y-104130272D01*
X130017145Y-103960512D01*
X130057952Y-103759000D01*
X130057952Y-101981000D01*
X130022530Y-101792747D01*
X129911272Y-101619847D01*
X129884073Y-101601263D01*
X129901153Y-101590272D01*
X130017145Y-101420512D01*
X130057952Y-101219000D01*
X130057952Y-100965000D01*
X132121048Y-100965000D01*
X132121048Y-102250000D01*
X132156470Y-102438253D01*
X132267728Y-102611153D01*
X132437488Y-102727145D01*
X132639000Y-102767952D01*
X133639000Y-102767952D01*
X133827253Y-102732530D01*
X134000153Y-102621272D01*
X134116145Y-102451512D01*
X134156952Y-102250000D01*
X134156952Y-101885750D01*
X134204000Y-101885750D01*
X134204000Y-102376310D01*
X134300673Y-102609699D01*
X134479302Y-102788327D01*
X134712691Y-102885000D01*
X135053250Y-102885000D01*
X135212000Y-102726250D01*
X135212000Y-101727000D01*
X135466000Y-101727000D01*
X135466000Y-102726250D01*
X135624750Y-102885000D01*
X135965309Y-102885000D01*
X136086019Y-102835000D01*
X142342048Y-102835000D01*
X142342048Y-103835000D01*
X142377470Y-104023253D01*
X142488728Y-104196153D01*
X142537785Y-104229672D01*
X142498847Y-104254728D01*
X142382855Y-104424488D01*
X142342048Y-104626000D01*
X142342048Y-105826000D01*
X142377470Y-106014253D01*
X142488728Y-106187153D01*
X142658488Y-106303145D01*
X142860000Y-106343952D01*
X144160000Y-106343952D01*
X144348253Y-106308530D01*
X144521153Y-106197272D01*
X144637145Y-106027512D01*
X144677952Y-105826000D01*
X144677952Y-104626000D01*
X144882048Y-104626000D01*
X144882048Y-105826000D01*
X144917470Y-106014253D01*
X145028728Y-106187153D01*
X145198488Y-106303145D01*
X145400000Y-106343952D01*
X146700000Y-106343952D01*
X146888253Y-106308530D01*
X147061153Y-106197272D01*
X147177145Y-106027512D01*
X147205957Y-105885234D01*
X147226470Y-105994253D01*
X147337728Y-106167153D01*
X147507488Y-106283145D01*
X147709000Y-106323952D01*
X148709000Y-106323952D01*
X148897253Y-106288530D01*
X149070153Y-106177272D01*
X149186145Y-106007512D01*
X149226952Y-105806000D01*
X149226952Y-104506000D01*
X149191530Y-104317747D01*
X149080272Y-104144847D01*
X148910512Y-104028855D01*
X148709000Y-103988048D01*
X147709000Y-103988048D01*
X147520747Y-104023470D01*
X147347847Y-104134728D01*
X147231855Y-104304488D01*
X147193290Y-104494930D01*
X147182530Y-104437747D01*
X147071272Y-104264847D01*
X146901512Y-104148855D01*
X146700000Y-104108048D01*
X145400000Y-104108048D01*
X145211747Y-104143470D01*
X145038847Y-104254728D01*
X144922855Y-104424488D01*
X144882048Y-104626000D01*
X144677952Y-104626000D01*
X144642530Y-104437747D01*
X144531272Y-104264847D01*
X144482215Y-104231328D01*
X144521153Y-104206272D01*
X144637145Y-104036512D01*
X144677952Y-103835000D01*
X144677952Y-102835000D01*
X144642530Y-102646747D01*
X144531272Y-102473847D01*
X144361512Y-102357855D01*
X144160000Y-102317048D01*
X142860000Y-102317048D01*
X142671747Y-102352470D01*
X142498847Y-102463728D01*
X142382855Y-102633488D01*
X142342048Y-102835000D01*
X136086019Y-102835000D01*
X136198698Y-102788327D01*
X136377327Y-102609699D01*
X136474000Y-102376310D01*
X136474000Y-101885750D01*
X136315250Y-101727000D01*
X135466000Y-101727000D01*
X135212000Y-101727000D01*
X134362750Y-101727000D01*
X134204000Y-101885750D01*
X134156952Y-101885750D01*
X134156952Y-100950000D01*
X134133186Y-100823690D01*
X134204000Y-100823690D01*
X134204000Y-101314250D01*
X134362750Y-101473000D01*
X135212000Y-101473000D01*
X135212000Y-100473750D01*
X135466000Y-100473750D01*
X135466000Y-101473000D01*
X136315250Y-101473000D01*
X136474000Y-101314250D01*
X136474000Y-100823690D01*
X136395842Y-100635000D01*
X142342048Y-100635000D01*
X142342048Y-101635000D01*
X142377470Y-101823253D01*
X142488728Y-101996153D01*
X142658488Y-102112145D01*
X142860000Y-102152952D01*
X144160000Y-102152952D01*
X144348253Y-102117530D01*
X144521153Y-102006272D01*
X144529715Y-101993741D01*
X145092987Y-102557013D01*
X145298996Y-102694664D01*
X145542000Y-102743000D01*
X147624028Y-102743000D01*
X147795747Y-102915020D01*
X148145705Y-103060335D01*
X148272444Y-103060445D01*
X148272335Y-103185633D01*
X148417039Y-103535843D01*
X148684747Y-103804020D01*
X149034705Y-103949335D01*
X149279522Y-103949548D01*
X149514097Y-104184123D01*
X149431855Y-104304488D01*
X149391048Y-104506000D01*
X149391048Y-105806000D01*
X149426470Y-105994253D01*
X149537728Y-106167153D01*
X149707488Y-106283145D01*
X149909000Y-106323952D01*
X150909000Y-106323952D01*
X151097253Y-106288530D01*
X151270153Y-106177272D01*
X151386145Y-106007512D01*
X151426952Y-105806000D01*
X151426952Y-104506000D01*
X151391530Y-104317747D01*
X151280272Y-104144847D01*
X151110512Y-104028855D01*
X151009675Y-104008435D01*
X150995664Y-103937996D01*
X150858013Y-103731987D01*
X150177453Y-103051427D01*
X150177665Y-102808367D01*
X150032961Y-102458157D01*
X149765253Y-102189980D01*
X149415295Y-102044665D01*
X149288556Y-102044555D01*
X149288665Y-101919367D01*
X149143961Y-101569157D01*
X148876253Y-101300980D01*
X148526295Y-101155665D01*
X148147367Y-101155335D01*
X147797157Y-101300039D01*
X147623893Y-101473000D01*
X145805026Y-101473000D01*
X145018013Y-100685987D01*
X144812004Y-100548336D01*
X144655799Y-100517265D01*
X144642530Y-100446747D01*
X144531272Y-100273847D01*
X144361512Y-100157855D01*
X144160000Y-100117048D01*
X142860000Y-100117048D01*
X142671747Y-100152470D01*
X142498847Y-100263728D01*
X142382855Y-100433488D01*
X142342048Y-100635000D01*
X136395842Y-100635000D01*
X136377327Y-100590301D01*
X136198698Y-100411673D01*
X135965309Y-100315000D01*
X135624750Y-100315000D01*
X135466000Y-100473750D01*
X135212000Y-100473750D01*
X135053250Y-100315000D01*
X134712691Y-100315000D01*
X134479302Y-100411673D01*
X134300673Y-100590301D01*
X134204000Y-100823690D01*
X134133186Y-100823690D01*
X134121530Y-100761747D01*
X134010272Y-100588847D01*
X133840512Y-100472855D01*
X133739261Y-100452351D01*
X133738146Y-100446747D01*
X133725664Y-100383995D01*
X133689585Y-100330000D01*
X133725664Y-100276005D01*
X133738964Y-100209143D01*
X133827253Y-100192530D01*
X134000153Y-100081272D01*
X134116145Y-99911512D01*
X134156952Y-99710000D01*
X134156952Y-98410000D01*
X134121530Y-98221747D01*
X134010272Y-98048847D01*
X133840512Y-97932855D01*
X133639000Y-97892048D01*
X132639000Y-97892048D01*
X132450747Y-97927470D01*
X132277847Y-98038728D01*
X132161855Y-98208488D01*
X132121048Y-98410000D01*
X132121048Y-99695000D01*
X130057952Y-99695000D01*
X130057952Y-99441000D01*
X130022530Y-99252747D01*
X129911272Y-99079847D01*
X129884073Y-99061263D01*
X129901153Y-99050272D01*
X130017145Y-98880512D01*
X130057952Y-98679000D01*
X130057952Y-96901000D01*
X130022530Y-96712747D01*
X129960569Y-96616457D01*
X130078327Y-96498699D01*
X130175000Y-96265310D01*
X130175000Y-95662750D01*
X130016250Y-95504000D01*
X128778000Y-95504000D01*
X128778000Y-95524000D01*
X128270000Y-95524000D01*
X128270000Y-95504000D01*
X128250000Y-95504000D01*
X128250000Y-94996000D01*
X128270000Y-94996000D01*
X128270000Y-94976000D01*
X128778000Y-94976000D01*
X128778000Y-94996000D01*
X130016250Y-94996000D01*
X130175000Y-94837250D01*
X130175000Y-94234690D01*
X130078327Y-94001301D01*
X129960476Y-93883450D01*
X130017145Y-93800512D01*
X130032234Y-93726000D01*
X130135160Y-93726000D01*
X134323000Y-97913841D01*
X134323000Y-98400361D01*
X134321048Y-98410000D01*
X134321048Y-99710000D01*
X134356470Y-99898253D01*
X134467728Y-100071153D01*
X134637488Y-100187145D01*
X134839000Y-100227952D01*
X135839000Y-100227952D01*
X136027253Y-100192530D01*
X136200153Y-100081272D01*
X136203755Y-100076000D01*
X137667113Y-100076000D01*
X137869208Y-100076176D01*
X138242766Y-99921825D01*
X138528821Y-99636269D01*
X138683824Y-99262982D01*
X138684176Y-98858792D01*
X138529825Y-98485234D01*
X138244269Y-98199179D01*
X137870982Y-98044176D01*
X137466792Y-98043824D01*
X137466366Y-98044000D01*
X136355000Y-98044000D01*
X136355000Y-97493000D01*
X136277662Y-97104194D01*
X136141892Y-96901000D01*
X136057420Y-96774579D01*
X131274420Y-91991580D01*
X130944807Y-91771338D01*
X130880300Y-91758507D01*
X130556000Y-91694000D01*
X130034055Y-91694000D01*
X130022530Y-91632747D01*
X129911272Y-91459847D01*
X129884073Y-91441263D01*
X129901153Y-91430272D01*
X130017145Y-91260512D01*
X130057952Y-91059000D01*
X130057952Y-89281000D01*
X130022530Y-89092747D01*
X129911272Y-88919847D01*
X129852886Y-88879953D01*
X129888090Y-88879984D01*
X130534345Y-88612957D01*
X131029220Y-88118946D01*
X131297374Y-87473158D01*
X131297984Y-86773910D01*
X131030957Y-86127655D01*
X130536946Y-85632780D01*
X129891158Y-85364626D01*
X129191910Y-85364016D01*
X128545655Y-85631043D01*
X128050780Y-86125054D01*
X127782626Y-86770842D01*
X127782029Y-87454826D01*
X127585338Y-87749193D01*
X127585338Y-87749194D01*
X127558000Y-87886632D01*
X127558000Y-84378000D01*
X162002000Y-84378000D01*
X162002000Y-87886632D01*
G36*
X146870987Y-98239013D02*
X147076996Y-98376664D01*
X147320000Y-98425000D01*
X150358974Y-98425000D01*
X155252987Y-103319013D01*
X155458996Y-103456664D01*
X155702000Y-103505000D01*
X159502048Y-103505000D01*
X159502048Y-103759000D01*
X159537470Y-103947253D01*
X159648728Y-104120153D01*
X159675927Y-104138737D01*
X159658847Y-104149728D01*
X159542855Y-104319488D01*
X159502048Y-104521000D01*
X159502048Y-104775000D01*
X156473026Y-104775000D01*
X150563013Y-98864987D01*
X150357004Y-98727336D01*
X150114000Y-98679000D01*
X146567026Y-98679000D01*
X140724813Y-92836787D01*
X141246661Y-92837242D01*
X141404145Y-92772171D01*
X146870987Y-98239013D01*
X146870987Y-98239013D01*
G37*
X146870987Y-98239013D02*
X147076996Y-98376664D01*
X147320000Y-98425000D01*
X150358974Y-98425000D01*
X155252987Y-103319013D01*
X155458996Y-103456664D01*
X155702000Y-103505000D01*
X159502048Y-103505000D01*
X159502048Y-103759000D01*
X159537470Y-103947253D01*
X159648728Y-104120153D01*
X159675927Y-104138737D01*
X159658847Y-104149728D01*
X159542855Y-104319488D01*
X159502048Y-104521000D01*
X159502048Y-104775000D01*
X156473026Y-104775000D01*
X150563013Y-98864987D01*
X150357004Y-98727336D01*
X150114000Y-98679000D01*
X146567026Y-98679000D01*
X140724813Y-92836787D01*
X141246661Y-92837242D01*
X141404145Y-92772171D01*
X146870987Y-98239013D01*
G36*
X147886987Y-96715013D02*
X148092996Y-96852664D01*
X148336000Y-96901001D01*
X148336005Y-96901000D01*
X150866974Y-96901000D01*
X154744987Y-100779013D01*
X154950996Y-100916664D01*
X155194000Y-100965000D01*
X159502048Y-100965000D01*
X159502048Y-101219000D01*
X159537470Y-101407253D01*
X159648728Y-101580153D01*
X159675927Y-101598737D01*
X159658847Y-101609728D01*
X159542855Y-101779488D01*
X159502048Y-101981000D01*
X159502048Y-102235000D01*
X155965026Y-102235000D01*
X151071013Y-97340987D01*
X150865004Y-97203336D01*
X150622000Y-97155000D01*
X147583026Y-97155000D01*
X143264813Y-92836787D01*
X143786661Y-92837242D01*
X143944145Y-92772171D01*
X147886987Y-96715013D01*
X147886987Y-96715013D01*
G37*
X147886987Y-96715013D02*
X148092996Y-96852664D01*
X148336000Y-96901001D01*
X148336005Y-96901000D01*
X150866974Y-96901000D01*
X154744987Y-100779013D01*
X154950996Y-100916664D01*
X155194000Y-100965000D01*
X159502048Y-100965000D01*
X159502048Y-101219000D01*
X159537470Y-101407253D01*
X159648728Y-101580153D01*
X159675927Y-101598737D01*
X159658847Y-101609728D01*
X159542855Y-101779488D01*
X159502048Y-101981000D01*
X159502048Y-102235000D01*
X155965026Y-102235000D01*
X151071013Y-97340987D01*
X150865004Y-97203336D01*
X150622000Y-97155000D01*
X147583026Y-97155000D01*
X143264813Y-92836787D01*
X143786661Y-92837242D01*
X143944145Y-92772171D01*
X147886987Y-96715013D01*
G36*
X148902987Y-95191013D02*
X149108996Y-95328664D01*
X149352000Y-95377000D01*
X151374974Y-95377000D01*
X154236987Y-98239013D01*
X154442996Y-98376664D01*
X154686000Y-98425000D01*
X155067000Y-98425000D01*
X155310004Y-98376664D01*
X155423528Y-98300810D01*
X155485488Y-98343145D01*
X155687000Y-98383952D01*
X156987000Y-98383952D01*
X157175253Y-98348530D01*
X157314648Y-98258832D01*
X157448891Y-98348530D01*
X157490996Y-98376664D01*
X157734000Y-98425001D01*
X157734005Y-98425000D01*
X159502048Y-98425000D01*
X159502048Y-98679000D01*
X159537470Y-98867253D01*
X159648728Y-99040153D01*
X159675927Y-99058737D01*
X159658847Y-99069728D01*
X159542855Y-99239488D01*
X159502048Y-99441000D01*
X159502048Y-99695000D01*
X155457026Y-99695000D01*
X151579013Y-95816987D01*
X151373004Y-95679336D01*
X151130000Y-95631000D01*
X148599026Y-95631000D01*
X145804813Y-92836787D01*
X146326661Y-92837242D01*
X146484145Y-92772171D01*
X148902987Y-95191013D01*
X148902987Y-95191013D01*
G37*
X148902987Y-95191013D02*
X149108996Y-95328664D01*
X149352000Y-95377000D01*
X151374974Y-95377000D01*
X154236987Y-98239013D01*
X154442996Y-98376664D01*
X154686000Y-98425000D01*
X155067000Y-98425000D01*
X155310004Y-98376664D01*
X155423528Y-98300810D01*
X155485488Y-98343145D01*
X155687000Y-98383952D01*
X156987000Y-98383952D01*
X157175253Y-98348530D01*
X157314648Y-98258832D01*
X157448891Y-98348530D01*
X157490996Y-98376664D01*
X157734000Y-98425001D01*
X157734005Y-98425000D01*
X159502048Y-98425000D01*
X159502048Y-98679000D01*
X159537470Y-98867253D01*
X159648728Y-99040153D01*
X159675927Y-99058737D01*
X159658847Y-99069728D01*
X159542855Y-99239488D01*
X159502048Y-99441000D01*
X159502048Y-99695000D01*
X155457026Y-99695000D01*
X151579013Y-95816987D01*
X151373004Y-95679336D01*
X151130000Y-95631000D01*
X148599026Y-95631000D01*
X145804813Y-92836787D01*
X146326661Y-92837242D01*
X146484145Y-92772171D01*
X148902987Y-95191013D01*
G36*
X149944990Y-92230303D02*
X150337630Y-92623629D01*
X150850900Y-92836757D01*
X151090126Y-92836966D01*
X152062581Y-93809421D01*
X152392194Y-94029663D01*
X152456701Y-94042494D01*
X152781001Y-94107001D01*
X155702000Y-94107001D01*
X155702000Y-94148048D01*
X155687000Y-94148048D01*
X155498747Y-94183470D01*
X155325847Y-94294728D01*
X155209855Y-94464488D01*
X155169048Y-94666000D01*
X155169048Y-95666000D01*
X155204470Y-95854253D01*
X155315728Y-96027153D01*
X155485488Y-96143145D01*
X155687000Y-96183952D01*
X156987000Y-96183952D01*
X157175253Y-96148530D01*
X157348153Y-96037272D01*
X157464145Y-95867512D01*
X157504952Y-95666000D01*
X157504952Y-94666000D01*
X157469530Y-94477747D01*
X157358272Y-94304847D01*
X157188512Y-94188855D01*
X156987000Y-94148048D01*
X156972000Y-94148048D01*
X156972000Y-94107001D01*
X158368999Y-94107001D01*
X158693299Y-94042494D01*
X158757806Y-94029663D01*
X159087419Y-93809421D01*
X159170840Y-93726000D01*
X159525945Y-93726000D01*
X159537470Y-93787253D01*
X159599431Y-93883543D01*
X159481673Y-94001301D01*
X159385000Y-94234690D01*
X159385000Y-94837250D01*
X159543750Y-94996000D01*
X160782000Y-94996000D01*
X160782000Y-94976000D01*
X161290000Y-94976000D01*
X161290000Y-94996000D01*
X161310000Y-94996000D01*
X161310000Y-95504000D01*
X161290000Y-95504000D01*
X161290000Y-95524000D01*
X160782000Y-95524000D01*
X160782000Y-95504000D01*
X159543750Y-95504000D01*
X159385000Y-95662750D01*
X159385000Y-96265310D01*
X159481673Y-96498699D01*
X159599524Y-96616550D01*
X159542855Y-96699488D01*
X159502048Y-96901000D01*
X159502048Y-97155000D01*
X157997025Y-97155000D01*
X157759013Y-96916987D01*
X157553004Y-96779336D01*
X157486143Y-96766037D01*
X157469530Y-96677747D01*
X157358272Y-96504847D01*
X157188512Y-96388855D01*
X156987000Y-96348048D01*
X155687000Y-96348048D01*
X155498747Y-96383470D01*
X155325847Y-96494728D01*
X155209855Y-96664488D01*
X155176990Y-96826781D01*
X155041987Y-96916987D01*
X155041985Y-96916990D01*
X154876500Y-97082474D01*
X152087013Y-94292987D01*
X151881004Y-94155336D01*
X151638000Y-94107000D01*
X149615026Y-94107000D01*
X148344813Y-92836787D01*
X148866661Y-92837242D01*
X149380303Y-92625010D01*
X149773629Y-92232370D01*
X149859949Y-92024488D01*
X149944990Y-92230303D01*
X149944990Y-92230303D01*
G37*
X149944990Y-92230303D02*
X150337630Y-92623629D01*
X150850900Y-92836757D01*
X151090126Y-92836966D01*
X152062581Y-93809421D01*
X152392194Y-94029663D01*
X152456701Y-94042494D01*
X152781001Y-94107001D01*
X155702000Y-94107001D01*
X155702000Y-94148048D01*
X155687000Y-94148048D01*
X155498747Y-94183470D01*
X155325847Y-94294728D01*
X155209855Y-94464488D01*
X155169048Y-94666000D01*
X155169048Y-95666000D01*
X155204470Y-95854253D01*
X155315728Y-96027153D01*
X155485488Y-96143145D01*
X155687000Y-96183952D01*
X156987000Y-96183952D01*
X157175253Y-96148530D01*
X157348153Y-96037272D01*
X157464145Y-95867512D01*
X157504952Y-95666000D01*
X157504952Y-94666000D01*
X157469530Y-94477747D01*
X157358272Y-94304847D01*
X157188512Y-94188855D01*
X156987000Y-94148048D01*
X156972000Y-94148048D01*
X156972000Y-94107001D01*
X158368999Y-94107001D01*
X158693299Y-94042494D01*
X158757806Y-94029663D01*
X159087419Y-93809421D01*
X159170840Y-93726000D01*
X159525945Y-93726000D01*
X159537470Y-93787253D01*
X159599431Y-93883543D01*
X159481673Y-94001301D01*
X159385000Y-94234690D01*
X159385000Y-94837250D01*
X159543750Y-94996000D01*
X160782000Y-94996000D01*
X160782000Y-94976000D01*
X161290000Y-94976000D01*
X161290000Y-94996000D01*
X161310000Y-94996000D01*
X161310000Y-95504000D01*
X161290000Y-95504000D01*
X161290000Y-95524000D01*
X160782000Y-95524000D01*
X160782000Y-95504000D01*
X159543750Y-95504000D01*
X159385000Y-95662750D01*
X159385000Y-96265310D01*
X159481673Y-96498699D01*
X159599524Y-96616550D01*
X159542855Y-96699488D01*
X159502048Y-96901000D01*
X159502048Y-97155000D01*
X157997025Y-97155000D01*
X157759013Y-96916987D01*
X157553004Y-96779336D01*
X157486143Y-96766037D01*
X157469530Y-96677747D01*
X157358272Y-96504847D01*
X157188512Y-96388855D01*
X156987000Y-96348048D01*
X155687000Y-96348048D01*
X155498747Y-96383470D01*
X155325847Y-96494728D01*
X155209855Y-96664488D01*
X155176990Y-96826781D01*
X155041987Y-96916987D01*
X155041985Y-96916990D01*
X154876500Y-97082474D01*
X152087013Y-94292987D01*
X151881004Y-94155336D01*
X151638000Y-94107000D01*
X149615026Y-94107000D01*
X148344813Y-92836787D01*
X148866661Y-92837242D01*
X149380303Y-92625010D01*
X149773629Y-92232370D01*
X149859949Y-92024488D01*
X149944990Y-92230303D01*
M02*
