G04 #@! TF.GenerationSoftware,KiCad,Pcbnew,8.0.6*
G04 #@! TF.CreationDate,2025-01-21T13:52:22-05:00*
G04 #@! TF.ProjectId,term,7465726d-2e6b-4696-9361-645f70636258,rev?*
G04 #@! TF.SameCoordinates,Original*
G04 #@! TF.FileFunction,Copper,L1,Top*
G04 #@! TF.FilePolarity,Positive*
%FSLAX46Y46*%
G04 Gerber Fmt 4.6, Leading zero omitted, Abs format (unit mm)*
G04 Created by KiCad (PCBNEW 8.0.6) date 2025-01-21 13:52:22*
%MOMM*%
%LPD*%
G01*
G04 APERTURE LIST*
G04 Aperture macros list*
%AMRoundRect*
0 Rectangle with rounded corners*
0 $1 Rounding radius*
0 $2 $3 $4 $5 $6 $7 $8 $9 X,Y pos of 4 corners*
0 Add a 4 corners polygon primitive as box body*
4,1,4,$2,$3,$4,$5,$6,$7,$8,$9,$2,$3,0*
0 Add four circle primitives for the rounded corners*
1,1,$1+$1,$2,$3*
1,1,$1+$1,$4,$5*
1,1,$1+$1,$6,$7*
1,1,$1+$1,$8,$9*
0 Add four rect primitives between the rounded corners*
20,1,$1+$1,$2,$3,$4,$5,0*
20,1,$1+$1,$4,$5,$6,$7,0*
20,1,$1+$1,$6,$7,$8,$9,0*
20,1,$1+$1,$8,$9,$2,$3,0*%
G04 Aperture macros list end*
G04 #@! TA.AperFunction,ComponentPad*
%ADD10RoundRect,0.250000X0.639000X-0.639000X0.639000X0.639000X-0.639000X0.639000X-0.639000X-0.639000X0*%
G04 #@! TD*
G04 #@! TA.AperFunction,ComponentPad*
%ADD11C,1.778000*%
G04 #@! TD*
G04 #@! TA.AperFunction,ComponentPad*
%ADD12R,2.032000X1.778000*%
G04 #@! TD*
G04 #@! TA.AperFunction,ComponentPad*
%ADD13C,1.016000*%
G04 #@! TD*
G04 #@! TA.AperFunction,ComponentPad*
%ADD14C,2.032000*%
G04 #@! TD*
G04 #@! TA.AperFunction,ComponentPad*
%ADD15C,2.286000*%
G04 #@! TD*
G04 #@! TA.AperFunction,SMDPad,CuDef*
%ADD16RoundRect,0.250000X0.400000X-0.350000X0.400000X0.350000X-0.400000X0.350000X-0.400000X-0.350000X0*%
G04 #@! TD*
G04 #@! TA.AperFunction,SMDPad,CuDef*
%ADD17RoundRect,0.250000X-0.250000X-0.400000X0.250000X-0.400000X0.250000X0.400000X-0.250000X0.400000X0*%
G04 #@! TD*
G04 #@! TA.AperFunction,SMDPad,CuDef*
%ADD18RoundRect,0.250000X0.250000X0.400000X-0.250000X0.400000X-0.250000X-0.400000X0.250000X-0.400000X0*%
G04 #@! TD*
G04 #@! TA.AperFunction,SMDPad,CuDef*
%ADD19RoundRect,0.250000X-0.400000X0.250000X-0.400000X-0.250000X0.400000X-0.250000X0.400000X0.250000X0*%
G04 #@! TD*
G04 #@! TA.AperFunction,ViaPad*
%ADD20C,1.016000*%
G04 #@! TD*
G04 #@! TA.AperFunction,ViaPad*
%ADD21C,0.889000*%
G04 #@! TD*
G04 #@! TA.AperFunction,Conductor*
%ADD22C,1.016000*%
G04 #@! TD*
G04 #@! TA.AperFunction,Conductor*
%ADD23C,0.254000*%
G04 #@! TD*
G04 #@! TA.AperFunction,Conductor*
%ADD24C,1.524000*%
G04 #@! TD*
G04 APERTURE END LIST*
D10*
X135890000Y-91440000D03*
D11*
X135890000Y-88900000D03*
X138430000Y-91440000D03*
X138430000Y-88900000D03*
X140970000Y-91440000D03*
X140970000Y-88900000D03*
X143510000Y-91440000D03*
X143510000Y-88900000D03*
X146050000Y-91440000D03*
X146050000Y-88900000D03*
X148590000Y-91440000D03*
X148590000Y-88900000D03*
X151130000Y-91440000D03*
X151130000Y-88900000D03*
X153670000Y-91440000D03*
X153670000Y-88900000D03*
D12*
X128524000Y-90170000D03*
X128524000Y-92710000D03*
X128524000Y-95250000D03*
X128524000Y-97790000D03*
X128524000Y-100330000D03*
X128524000Y-102870000D03*
X128524000Y-105410000D03*
X128524000Y-107950000D03*
X161036000Y-107950000D03*
X161036000Y-105410000D03*
X161036000Y-102870000D03*
X161036000Y-100330000D03*
X161036000Y-97790000D03*
X161036000Y-95250000D03*
X161036000Y-92710000D03*
X161036000Y-90170000D03*
D13*
X158750000Y-99060000D03*
X158750000Y-101600000D03*
X158750000Y-104140000D03*
X130810000Y-99060000D03*
X130810000Y-101600000D03*
X130810000Y-104140000D03*
X140970000Y-101600000D03*
X140970000Y-106680000D03*
X152400000Y-104140000D03*
X152400000Y-109220000D03*
D14*
X131064000Y-96266000D03*
X158496000Y-96266000D03*
D15*
X129540000Y-87122000D03*
X160020000Y-87122000D03*
D16*
X146050000Y-107626000D03*
X146050000Y-105226000D03*
X143510000Y-107626000D03*
X143510000Y-105226000D03*
D17*
X133139000Y-106680000D03*
X135339000Y-106680000D03*
D18*
X135339000Y-104140000D03*
X133139000Y-104140000D03*
D17*
X133139000Y-101600000D03*
X135339000Y-101600000D03*
D18*
X135339000Y-99060000D03*
X133139000Y-99060000D03*
D19*
X156340000Y-95590000D03*
X156340000Y-97790000D03*
D18*
X150409000Y-105156000D03*
X148209000Y-105156000D03*
D19*
X143510000Y-101135000D03*
X143510000Y-103335000D03*
D13*
X130810000Y-106680000D03*
X158750000Y-106680000D03*
X140970000Y-96520000D03*
X138430000Y-93980000D03*
D20*
X137668000Y-99060000D03*
X137668000Y-104140000D03*
D21*
X148336000Y-102108000D03*
X149225000Y-102997000D03*
D22*
X130556000Y-92710000D02*
X128524000Y-92710000D01*
X135339000Y-104140000D02*
X137668000Y-104140000D01*
X135339000Y-97493000D02*
X130556000Y-92710000D01*
X135339000Y-99060000D02*
X135339000Y-97493000D01*
X137668000Y-99060000D02*
X135339000Y-99060000D01*
X128524000Y-95250000D02*
X129950000Y-95250000D01*
X161036000Y-95250000D02*
X159610000Y-95250000D01*
D23*
X151130000Y-96266000D02*
X155194000Y-100330000D01*
X155194000Y-100330000D02*
X161036000Y-100330000D01*
X143510000Y-91440000D02*
X148336000Y-96266000D01*
X148336000Y-96266000D02*
X151130000Y-96266000D01*
X150622000Y-97790000D02*
X155702000Y-102870000D01*
X147320000Y-97790000D02*
X150622000Y-97790000D01*
X140970000Y-91440000D02*
X147320000Y-97790000D01*
X159766000Y-102870000D02*
X161036000Y-102870000D01*
X155702000Y-102870000D02*
X159766000Y-102870000D01*
X156210000Y-105410000D02*
X161036000Y-105410000D01*
X138430000Y-91440000D02*
X146304000Y-99314000D01*
X150114000Y-99314000D02*
X156210000Y-105410000D01*
X146304000Y-99314000D02*
X150114000Y-99314000D01*
X156340000Y-97790000D02*
X161036000Y-97790000D01*
X151638000Y-94742000D02*
X149352000Y-94742000D01*
X149352000Y-94742000D02*
X146050000Y-91440000D01*
X156340000Y-97790000D02*
X154686000Y-97790000D01*
X154686000Y-97790000D02*
X151638000Y-94742000D01*
D22*
X158750000Y-92710000D02*
X158368999Y-93091001D01*
D23*
X145542000Y-102108000D02*
X144569000Y-101135000D01*
X156340000Y-95590000D02*
X156340000Y-93091001D01*
D22*
X152781001Y-93091001D02*
X151130000Y-91440000D01*
D23*
X144569000Y-101135000D02*
X143510000Y-101135000D01*
X148336000Y-102108000D02*
X145542000Y-102108000D01*
D22*
X158368999Y-93091001D02*
X156340000Y-93091001D01*
X161036000Y-92710000D02*
X158750000Y-92710000D01*
X156340000Y-93091001D02*
X152781001Y-93091001D01*
D24*
X161036000Y-88138000D02*
X160020000Y-87122000D01*
D23*
X149225000Y-102997000D02*
X150409000Y-104181000D01*
D22*
X153670000Y-91440000D02*
X156210000Y-91440000D01*
D24*
X161036000Y-90170000D02*
X161036000Y-88138000D01*
X157480000Y-90170000D02*
X161036000Y-90170000D01*
D22*
X156210000Y-88900000D02*
X157480000Y-90170000D01*
D23*
X150409000Y-104181000D02*
X150409000Y-105156000D01*
D22*
X156210000Y-91440000D02*
X157480000Y-90170000D01*
X153670000Y-88900000D02*
X156210000Y-88900000D01*
D24*
X128524000Y-90170000D02*
X128524000Y-88138000D01*
X128524000Y-88138000D02*
X129540000Y-87122000D01*
D23*
X146050000Y-105226000D02*
X147123000Y-105226000D01*
X147193000Y-105156000D02*
X148209000Y-105156000D01*
X147123000Y-105226000D02*
X147193000Y-105156000D01*
X143510000Y-103335000D02*
X143510000Y-105226000D01*
X133139000Y-100627000D02*
X132842000Y-100330000D01*
X133139000Y-100033000D02*
X132842000Y-100330000D01*
X128524000Y-100330000D02*
X132842000Y-100330000D01*
X133139000Y-101600000D02*
X133139000Y-100627000D01*
X133139000Y-99060000D02*
X133139000Y-100033000D01*
X133139000Y-105707000D02*
X132842000Y-105410000D01*
X128524000Y-105410000D02*
X132842000Y-105410000D01*
X133139000Y-105113000D02*
X132842000Y-105410000D01*
X133139000Y-106680000D02*
X133139000Y-105707000D01*
X133139000Y-104140000D02*
X133139000Y-105113000D01*
G04 #@! TA.AperFunction,Conductor*
G36*
X162451621Y-83890502D02*
G01*
X162498114Y-83944158D01*
X162509500Y-83996500D01*
X162509500Y-88894787D01*
X162489498Y-88962908D01*
X162435842Y-89009401D01*
X162365568Y-89019505D01*
X162300988Y-88990011D01*
X162294405Y-88983882D01*
X162276749Y-88966226D01*
X162276746Y-88966224D01*
X162250159Y-88953226D01*
X162197746Y-88905337D01*
X162179500Y-88840030D01*
X162179500Y-88048005D01*
X162173560Y-88010501D01*
X162167715Y-87973595D01*
X162151344Y-87870230D01*
X162097249Y-87703746D01*
X162096174Y-87699935D01*
X162095723Y-87699049D01*
X162095723Y-87699048D01*
X162014009Y-87538675D01*
X161908213Y-87393059D01*
X161908210Y-87393056D01*
X161908208Y-87393053D01*
X161574571Y-87059416D01*
X161540545Y-86997104D01*
X161538054Y-86980207D01*
X161530387Y-86882778D01*
X161474369Y-86649447D01*
X161382540Y-86427751D01*
X161257160Y-86223151D01*
X161101318Y-86040682D01*
X160918849Y-85884840D01*
X160714249Y-85759460D01*
X160492553Y-85667631D01*
X160492551Y-85667630D01*
X160332936Y-85629310D01*
X160259222Y-85611613D01*
X160020000Y-85592786D01*
X159780778Y-85611613D01*
X159547448Y-85667630D01*
X159325752Y-85759459D01*
X159121152Y-85884839D01*
X158938682Y-86040682D01*
X158782839Y-86223152D01*
X158657459Y-86427752D01*
X158565630Y-86649448D01*
X158509613Y-86882778D01*
X158490786Y-87122000D01*
X158509613Y-87361222D01*
X158527310Y-87434936D01*
X158565630Y-87594551D01*
X158610150Y-87702031D01*
X158657460Y-87816249D01*
X158782840Y-88020849D01*
X158938682Y-88203318D01*
X159121151Y-88359160D01*
X159325751Y-88484540D01*
X159547447Y-88576369D01*
X159780778Y-88632387D01*
X159780786Y-88632387D01*
X159780788Y-88632388D01*
X159785670Y-88633162D01*
X159785303Y-88635476D01*
X159842592Y-88657223D01*
X159884809Y-88714304D01*
X159892500Y-88757652D01*
X159892500Y-88840030D01*
X159872498Y-88908151D01*
X159821841Y-88953226D01*
X159795253Y-88966224D01*
X159795250Y-88966226D01*
X159771882Y-88989595D01*
X159709570Y-89023621D01*
X159682787Y-89026500D01*
X157646633Y-89026500D01*
X157578512Y-89006498D01*
X157557538Y-88989595D01*
X156777025Y-88209082D01*
X156777023Y-88209080D01*
X156631336Y-88111735D01*
X156469458Y-88044683D01*
X156297610Y-88010500D01*
X156297608Y-88010500D01*
X154629448Y-88010500D01*
X154561327Y-87990498D01*
X154540353Y-87973595D01*
X154489783Y-87923025D01*
X154489772Y-87923016D01*
X154307677Y-87795512D01*
X154307675Y-87795511D01*
X154106199Y-87701561D01*
X154106193Y-87701559D01*
X154064074Y-87690273D01*
X153891463Y-87644022D01*
X153670000Y-87624647D01*
X153448537Y-87644022D01*
X153333463Y-87674856D01*
X153233806Y-87701559D01*
X153233801Y-87701561D01*
X153032323Y-87795512D01*
X152850222Y-87923020D01*
X152850216Y-87923025D01*
X152693025Y-88080216D01*
X152693020Y-88080222D01*
X152565512Y-88262323D01*
X152513919Y-88372965D01*
X152467002Y-88426250D01*
X152398724Y-88445711D01*
X152330764Y-88425169D01*
X152285529Y-88372965D01*
X152234051Y-88262571D01*
X152189815Y-88199395D01*
X152189813Y-88199395D01*
X151620690Y-88768518D01*
X151603381Y-88703919D01*
X151536502Y-88588080D01*
X151441920Y-88493498D01*
X151326081Y-88426619D01*
X151261480Y-88409309D01*
X151830603Y-87840185D01*
X151830603Y-87840184D01*
X151767425Y-87795946D01*
X151566027Y-87702033D01*
X151566023Y-87702031D01*
X151351374Y-87644517D01*
X151130000Y-87625149D01*
X150908625Y-87644517D01*
X150693976Y-87702031D01*
X150693972Y-87702033D01*
X150492575Y-87795946D01*
X150429394Y-87840185D01*
X150998518Y-88409309D01*
X150933919Y-88426619D01*
X150818080Y-88493498D01*
X150723498Y-88588080D01*
X150656619Y-88703919D01*
X150639309Y-88768518D01*
X150070185Y-88199394D01*
X150025946Y-88262575D01*
X149974195Y-88373556D01*
X149927277Y-88426841D01*
X149859000Y-88446302D01*
X149791040Y-88425760D01*
X149745805Y-88373556D01*
X149694051Y-88262571D01*
X149649815Y-88199395D01*
X149649813Y-88199395D01*
X149080690Y-88768518D01*
X149063381Y-88703919D01*
X148996502Y-88588080D01*
X148901920Y-88493498D01*
X148786081Y-88426619D01*
X148721480Y-88409309D01*
X149290603Y-87840185D01*
X149290603Y-87840184D01*
X149227425Y-87795946D01*
X149026027Y-87702033D01*
X149026023Y-87702031D01*
X148811374Y-87644517D01*
X148590000Y-87625149D01*
X148368625Y-87644517D01*
X148153976Y-87702031D01*
X148153972Y-87702033D01*
X147952575Y-87795946D01*
X147889394Y-87840185D01*
X148458518Y-88409309D01*
X148393919Y-88426619D01*
X148278080Y-88493498D01*
X148183498Y-88588080D01*
X148116619Y-88703919D01*
X148099309Y-88768518D01*
X147530185Y-88199394D01*
X147485946Y-88262575D01*
X147434195Y-88373556D01*
X147387277Y-88426841D01*
X147319000Y-88446302D01*
X147251040Y-88425760D01*
X147205805Y-88373556D01*
X147154051Y-88262571D01*
X147109815Y-88199395D01*
X147109813Y-88199395D01*
X146540690Y-88768518D01*
X146523381Y-88703919D01*
X146456502Y-88588080D01*
X146361920Y-88493498D01*
X146246081Y-88426619D01*
X146181480Y-88409309D01*
X146750603Y-87840185D01*
X146750603Y-87840184D01*
X146687425Y-87795946D01*
X146486027Y-87702033D01*
X146486023Y-87702031D01*
X146271374Y-87644517D01*
X146050000Y-87625149D01*
X145828625Y-87644517D01*
X145613976Y-87702031D01*
X145613972Y-87702033D01*
X145412575Y-87795946D01*
X145349394Y-87840185D01*
X145918518Y-88409309D01*
X145853919Y-88426619D01*
X145738080Y-88493498D01*
X145643498Y-88588080D01*
X145576619Y-88703919D01*
X145559309Y-88768518D01*
X144990185Y-88199394D01*
X144945946Y-88262575D01*
X144894195Y-88373556D01*
X144847277Y-88426841D01*
X144779000Y-88446302D01*
X144711040Y-88425760D01*
X144665805Y-88373556D01*
X144614051Y-88262571D01*
X144569815Y-88199395D01*
X144569813Y-88199395D01*
X144000690Y-88768518D01*
X143983381Y-88703919D01*
X143916502Y-88588080D01*
X143821920Y-88493498D01*
X143706081Y-88426619D01*
X143641480Y-88409309D01*
X144210603Y-87840185D01*
X144210603Y-87840184D01*
X144147425Y-87795946D01*
X143946027Y-87702033D01*
X143946023Y-87702031D01*
X143731374Y-87644517D01*
X143510000Y-87625149D01*
X143288625Y-87644517D01*
X143073976Y-87702031D01*
X143073972Y-87702033D01*
X142872575Y-87795946D01*
X142809394Y-87840185D01*
X143378518Y-88409309D01*
X143313919Y-88426619D01*
X143198080Y-88493498D01*
X143103498Y-88588080D01*
X143036619Y-88703919D01*
X143019309Y-88768518D01*
X142450185Y-88199394D01*
X142405946Y-88262575D01*
X142354195Y-88373556D01*
X142307277Y-88426841D01*
X142239000Y-88446302D01*
X142171040Y-88425760D01*
X142125805Y-88373556D01*
X142074051Y-88262571D01*
X142029815Y-88199395D01*
X142029813Y-88199395D01*
X141460690Y-88768518D01*
X141443381Y-88703919D01*
X141376502Y-88588080D01*
X141281920Y-88493498D01*
X141166081Y-88426619D01*
X141101480Y-88409309D01*
X141670603Y-87840185D01*
X141670603Y-87840184D01*
X141607425Y-87795946D01*
X141406027Y-87702033D01*
X141406023Y-87702031D01*
X141191374Y-87644517D01*
X140970000Y-87625149D01*
X140748625Y-87644517D01*
X140533976Y-87702031D01*
X140533972Y-87702033D01*
X140332575Y-87795946D01*
X140269394Y-87840185D01*
X140838518Y-88409309D01*
X140773919Y-88426619D01*
X140658080Y-88493498D01*
X140563498Y-88588080D01*
X140496619Y-88703919D01*
X140479309Y-88768518D01*
X139910185Y-88199394D01*
X139865946Y-88262575D01*
X139814195Y-88373556D01*
X139767277Y-88426841D01*
X139699000Y-88446302D01*
X139631040Y-88425760D01*
X139585805Y-88373556D01*
X139534051Y-88262571D01*
X139489815Y-88199395D01*
X139489813Y-88199395D01*
X138920690Y-88768518D01*
X138903381Y-88703919D01*
X138836502Y-88588080D01*
X138741920Y-88493498D01*
X138626081Y-88426619D01*
X138561480Y-88409309D01*
X139130603Y-87840185D01*
X139130603Y-87840184D01*
X139067425Y-87795946D01*
X138866027Y-87702033D01*
X138866023Y-87702031D01*
X138651374Y-87644517D01*
X138430000Y-87625149D01*
X138208625Y-87644517D01*
X137993976Y-87702031D01*
X137993972Y-87702033D01*
X137792575Y-87795946D01*
X137729394Y-87840185D01*
X138298518Y-88409309D01*
X138233919Y-88426619D01*
X138118080Y-88493498D01*
X138023498Y-88588080D01*
X137956619Y-88703919D01*
X137939309Y-88768518D01*
X137370185Y-88199394D01*
X137325945Y-88262577D01*
X137274469Y-88372966D01*
X137227552Y-88426251D01*
X137159274Y-88445711D01*
X137091315Y-88425169D01*
X137046080Y-88372964D01*
X136994488Y-88262324D01*
X136866977Y-88080219D01*
X136709781Y-87923023D01*
X136709777Y-87923020D01*
X136709772Y-87923016D01*
X136527677Y-87795512D01*
X136527675Y-87795511D01*
X136326199Y-87701561D01*
X136326193Y-87701559D01*
X136284074Y-87690273D01*
X136111463Y-87644022D01*
X135890000Y-87624647D01*
X135668537Y-87644022D01*
X135553463Y-87674856D01*
X135453806Y-87701559D01*
X135453801Y-87701561D01*
X135252323Y-87795512D01*
X135070222Y-87923020D01*
X135070216Y-87923025D01*
X134913025Y-88080216D01*
X134913020Y-88080222D01*
X134785512Y-88262323D01*
X134691561Y-88463801D01*
X134691559Y-88463806D01*
X134683603Y-88493498D01*
X134634022Y-88678537D01*
X134614647Y-88900000D01*
X134634022Y-89121463D01*
X134680273Y-89294074D01*
X134691559Y-89336193D01*
X134691561Y-89336199D01*
X134785511Y-89537675D01*
X134785512Y-89537677D01*
X134913016Y-89719772D01*
X134913020Y-89719777D01*
X134913023Y-89719781D01*
X135070219Y-89876977D01*
X135070222Y-89876979D01*
X135176713Y-89951545D01*
X135221041Y-90007002D01*
X135228350Y-90077621D01*
X135196319Y-90140982D01*
X135139595Y-90175755D01*
X134998203Y-90216833D01*
X134860874Y-90298049D01*
X134860867Y-90298055D01*
X134748055Y-90410867D01*
X134748049Y-90410874D01*
X134666833Y-90548203D01*
X134622319Y-90701420D01*
X134622317Y-90701432D01*
X134619500Y-90737221D01*
X134619500Y-92142778D01*
X134622317Y-92178567D01*
X134622319Y-92178579D01*
X134666833Y-92331796D01*
X134748049Y-92469125D01*
X134748055Y-92469132D01*
X134860867Y-92581944D01*
X134860874Y-92581950D01*
X134998203Y-92663166D01*
X134998206Y-92663166D01*
X134998208Y-92663168D01*
X135151426Y-92707682D01*
X135166770Y-92708889D01*
X135187222Y-92710500D01*
X135187230Y-92710500D01*
X136592778Y-92710500D01*
X136611865Y-92708997D01*
X136628574Y-92707682D01*
X136781792Y-92663168D01*
X136781794Y-92663166D01*
X136781796Y-92663166D01*
X136919125Y-92581950D01*
X136919124Y-92581950D01*
X136919127Y-92581949D01*
X137031949Y-92469127D01*
X137113168Y-92331792D01*
X137154245Y-92190400D01*
X137192457Y-92130569D01*
X137256953Y-92100891D01*
X137327255Y-92110794D01*
X137378454Y-92153286D01*
X137453016Y-92259772D01*
X137453023Y-92259781D01*
X137610219Y-92416977D01*
X137610223Y-92416980D01*
X137610227Y-92416983D01*
X137684694Y-92469125D01*
X137792323Y-92544488D01*
X137993804Y-92638440D01*
X138208537Y-92695978D01*
X138430000Y-92715353D01*
X138651463Y-92695978D01*
X138829935Y-92648156D01*
X138900910Y-92649846D01*
X138951640Y-92680768D01*
X145897099Y-99626226D01*
X145991774Y-99720901D01*
X146107726Y-99787847D01*
X146237055Y-99822500D01*
X149851182Y-99822500D01*
X149919303Y-99842502D01*
X149940277Y-99859405D01*
X155897772Y-105816900D01*
X155897775Y-105816902D01*
X155918369Y-105828792D01*
X156013726Y-105883847D01*
X156143055Y-105918500D01*
X156276945Y-105918500D01*
X159512500Y-105918500D01*
X159580621Y-105938502D01*
X159627114Y-105992158D01*
X159638500Y-106044500D01*
X159638500Y-106335207D01*
X159649304Y-106409361D01*
X159649304Y-106409363D01*
X159705223Y-106523745D01*
X159705224Y-106523747D01*
X159772735Y-106591258D01*
X159806761Y-106653570D01*
X159801696Y-106724385D01*
X159772736Y-106769448D01*
X159705634Y-106836549D01*
X159649791Y-106950781D01*
X159649790Y-106950783D01*
X159639000Y-107024840D01*
X159639000Y-107442000D01*
X160969120Y-107442000D01*
X160839919Y-107476619D01*
X160724080Y-107543498D01*
X160629498Y-107638080D01*
X160562619Y-107753919D01*
X160528000Y-107883120D01*
X160528000Y-108016880D01*
X160562619Y-108146081D01*
X160629498Y-108261920D01*
X160724080Y-108356502D01*
X160839919Y-108423381D01*
X160969120Y-108458000D01*
X161102880Y-108458000D01*
X161232081Y-108423381D01*
X161347920Y-108356502D01*
X161442502Y-108261920D01*
X161509381Y-108146081D01*
X161544000Y-108016880D01*
X161544000Y-109220000D01*
X162088152Y-109220000D01*
X162088159Y-109219999D01*
X162162216Y-109209209D01*
X162162218Y-109209208D01*
X162276450Y-109153364D01*
X162276452Y-109153363D01*
X162294405Y-109135411D01*
X162356717Y-109101385D01*
X162427532Y-109106450D01*
X162484368Y-109148997D01*
X162509179Y-109215517D01*
X162509500Y-109224506D01*
X162509500Y-114123500D01*
X162489498Y-114191621D01*
X162435842Y-114238114D01*
X162383500Y-114249500D01*
X127176500Y-114249500D01*
X127108379Y-114229498D01*
X127061886Y-114175842D01*
X127050500Y-114123500D01*
X127050500Y-109224506D01*
X127070502Y-109156385D01*
X127124158Y-109109892D01*
X127194432Y-109099788D01*
X127259012Y-109129282D01*
X127265595Y-109135411D01*
X127283547Y-109153363D01*
X127283549Y-109153364D01*
X127397781Y-109209208D01*
X127397783Y-109209209D01*
X127471840Y-109219999D01*
X127471848Y-109220000D01*
X128016000Y-109220000D01*
X129032000Y-109220000D01*
X129576152Y-109220000D01*
X129576159Y-109219999D01*
X129650216Y-109209209D01*
X129650218Y-109209208D01*
X129764450Y-109153364D01*
X129764452Y-109153363D01*
X129854363Y-109063452D01*
X129854364Y-109063450D01*
X129910208Y-108949218D01*
X129910209Y-108949216D01*
X129920999Y-108875159D01*
X159639000Y-108875159D01*
X159649790Y-108949216D01*
X159649791Y-108949218D01*
X159705635Y-109063450D01*
X159705636Y-109063452D01*
X159795547Y-109153363D01*
X159795549Y-109153364D01*
X159909781Y-109209208D01*
X159909783Y-109209209D01*
X159983840Y-109219999D01*
X159983848Y-109220000D01*
X160528000Y-109220000D01*
X160528000Y-108458000D01*
X159639000Y-108458000D01*
X159639000Y-108875159D01*
X129920999Y-108875159D01*
X129921000Y-108875151D01*
X129921000Y-108458000D01*
X129032000Y-108458000D01*
X129032000Y-109220000D01*
X128016000Y-109220000D01*
X128016000Y-108016880D01*
X128050619Y-108146081D01*
X128117498Y-108261920D01*
X128212080Y-108356502D01*
X128327919Y-108423381D01*
X128457120Y-108458000D01*
X128590880Y-108458000D01*
X128720081Y-108423381D01*
X128835920Y-108356502D01*
X128930502Y-108261920D01*
X128997381Y-108146081D01*
X129025879Y-108039724D01*
X142479001Y-108039724D01*
X142481814Y-108075493D01*
X142526294Y-108228593D01*
X142607449Y-108365817D01*
X142607452Y-108365821D01*
X142720178Y-108478547D01*
X142720182Y-108478550D01*
X142857406Y-108559705D01*
X143010507Y-108604185D01*
X143046275Y-108606999D01*
X143256000Y-108606999D01*
X143764000Y-108606999D01*
X143973724Y-108606999D01*
X144009493Y-108604185D01*
X144162593Y-108559705D01*
X144299817Y-108478550D01*
X144299821Y-108478547D01*
X144412547Y-108365821D01*
X144412550Y-108365817D01*
X144493705Y-108228593D01*
X144538185Y-108075492D01*
X144541000Y-108039724D01*
X145019001Y-108039724D01*
X145021814Y-108075493D01*
X145066294Y-108228593D01*
X145147449Y-108365817D01*
X145147452Y-108365821D01*
X145260178Y-108478547D01*
X145260182Y-108478550D01*
X145397406Y-108559705D01*
X145550507Y-108604185D01*
X145586275Y-108606999D01*
X145796000Y-108606999D01*
X146304000Y-108606999D01*
X146513724Y-108606999D01*
X146549493Y-108604185D01*
X146702593Y-108559705D01*
X146839817Y-108478550D01*
X146839821Y-108478547D01*
X146952547Y-108365821D01*
X146952550Y-108365817D01*
X147033705Y-108228593D01*
X147078185Y-108075492D01*
X147081000Y-108039724D01*
X147081000Y-107880000D01*
X146304000Y-107880000D01*
X146304000Y-108606999D01*
X145796000Y-108606999D01*
X145796000Y-107880000D01*
X145019001Y-107880000D01*
X145019001Y-108039724D01*
X144541000Y-108039724D01*
X144541000Y-107880000D01*
X143764000Y-107880000D01*
X143764000Y-108606999D01*
X143256000Y-108606999D01*
X143256000Y-107880000D01*
X142479001Y-107880000D01*
X142479001Y-108039724D01*
X129025879Y-108039724D01*
X129032000Y-108016880D01*
X129032000Y-107883120D01*
X128997381Y-107753919D01*
X128930502Y-107638080D01*
X128835920Y-107543498D01*
X128720081Y-107476619D01*
X128590880Y-107442000D01*
X129921000Y-107442000D01*
X129921000Y-107024848D01*
X129920999Y-107024840D01*
X129910209Y-106950783D01*
X129910208Y-106950781D01*
X129854364Y-106836549D01*
X129854363Y-106836547D01*
X129787264Y-106769448D01*
X129753238Y-106707136D01*
X129758303Y-106636321D01*
X129787262Y-106591259D01*
X129854776Y-106523746D01*
X129910696Y-106409361D01*
X129921500Y-106335206D01*
X129921500Y-106044500D01*
X129941502Y-105976379D01*
X129995158Y-105929886D01*
X130047500Y-105918500D01*
X132168599Y-105918500D01*
X132236720Y-105938502D01*
X132283213Y-105992158D01*
X132293317Y-106062432D01*
X132289598Y-106079640D01*
X132266204Y-106160166D01*
X132260319Y-106180423D01*
X132260317Y-106180432D01*
X132257500Y-106216221D01*
X132257500Y-107143778D01*
X132260317Y-107179567D01*
X132260319Y-107179579D01*
X132304833Y-107332796D01*
X132386049Y-107470125D01*
X132386055Y-107470132D01*
X132498867Y-107582944D01*
X132498874Y-107582950D01*
X132636203Y-107664166D01*
X132636206Y-107664166D01*
X132636208Y-107664168D01*
X132789426Y-107708682D01*
X132804770Y-107709889D01*
X132825222Y-107711500D01*
X132825230Y-107711500D01*
X133452778Y-107711500D01*
X133471865Y-107709997D01*
X133488574Y-107708682D01*
X133641792Y-107664168D01*
X133641794Y-107664166D01*
X133641796Y-107664166D01*
X133779125Y-107582950D01*
X133779124Y-107582950D01*
X133779127Y-107582949D01*
X133891949Y-107470127D01*
X133973168Y-107332792D01*
X134017682Y-107179574D01*
X134018997Y-107162865D01*
X134020500Y-107143778D01*
X134020500Y-107143724D01*
X134458001Y-107143724D01*
X134460814Y-107179493D01*
X134505294Y-107332593D01*
X134586449Y-107469817D01*
X134586452Y-107469821D01*
X134699178Y-107582547D01*
X134699182Y-107582550D01*
X134836406Y-107663705D01*
X134989507Y-107708185D01*
X135025275Y-107710999D01*
X135593000Y-107710999D01*
X135652724Y-107710999D01*
X135688493Y-107708185D01*
X135841593Y-107663705D01*
X135978817Y-107582550D01*
X135978821Y-107582547D01*
X136091547Y-107469821D01*
X136091550Y-107469817D01*
X136172705Y-107332593D01*
X136207661Y-107212275D01*
X142479000Y-107212275D01*
X142479000Y-107372000D01*
X143256000Y-107372000D01*
X143764000Y-107372000D01*
X144540999Y-107372000D01*
X144540999Y-107212275D01*
X145019000Y-107212275D01*
X145019000Y-107372000D01*
X145796000Y-107372000D01*
X146304000Y-107372000D01*
X147080999Y-107372000D01*
X147080999Y-107212275D01*
X147078185Y-107176506D01*
X147033705Y-107023406D01*
X146952550Y-106886182D01*
X146952547Y-106886178D01*
X146839821Y-106773452D01*
X146839817Y-106773449D01*
X146702593Y-106692294D01*
X146549492Y-106647814D01*
X146513724Y-106645000D01*
X146304000Y-106645000D01*
X146304000Y-107372000D01*
X145796000Y-107372000D01*
X145796000Y-106645000D01*
X145586276Y-106645000D01*
X145550506Y-106647814D01*
X145397406Y-106692294D01*
X145260182Y-106773449D01*
X145260178Y-106773452D01*
X145147452Y-106886178D01*
X145147449Y-106886182D01*
X145066294Y-107023406D01*
X145021814Y-107176507D01*
X145019000Y-107212275D01*
X144540999Y-107212275D01*
X144538185Y-107176506D01*
X144493705Y-107023406D01*
X144412550Y-106886182D01*
X144412547Y-106886178D01*
X144299821Y-106773452D01*
X144299817Y-106773449D01*
X144162593Y-106692294D01*
X144009492Y-106647814D01*
X143973724Y-106645000D01*
X143764000Y-106645000D01*
X143764000Y-107372000D01*
X143256000Y-107372000D01*
X143256000Y-106645000D01*
X143046276Y-106645000D01*
X143010506Y-106647814D01*
X142857406Y-106692294D01*
X142720182Y-106773449D01*
X142720178Y-106773452D01*
X142607452Y-106886178D01*
X142607449Y-106886182D01*
X142526294Y-107023406D01*
X142481814Y-107176507D01*
X142479000Y-107212275D01*
X136207661Y-107212275D01*
X136217185Y-107179492D01*
X136220000Y-107143724D01*
X136220000Y-106934000D01*
X135593000Y-106934000D01*
X135593000Y-107710999D01*
X135025275Y-107710999D01*
X135084999Y-107710998D01*
X135085000Y-107710998D01*
X135085000Y-106934000D01*
X134458001Y-106934000D01*
X134458001Y-107143724D01*
X134020500Y-107143724D01*
X134020500Y-106216275D01*
X134458000Y-106216275D01*
X134458000Y-106426000D01*
X135085000Y-106426000D01*
X135593000Y-106426000D01*
X136219999Y-106426000D01*
X136219999Y-106216275D01*
X136217185Y-106180506D01*
X136172705Y-106027406D01*
X136091550Y-105890182D01*
X136091547Y-105890178D01*
X135978821Y-105777452D01*
X135978817Y-105777449D01*
X135841593Y-105696294D01*
X135688492Y-105651814D01*
X135652724Y-105649000D01*
X135593000Y-105649000D01*
X135593000Y-106426000D01*
X135085000Y-106426000D01*
X135085000Y-105649000D01*
X135084999Y-105648999D01*
X135025276Y-105649000D01*
X134989506Y-105651814D01*
X134836406Y-105696294D01*
X134699182Y-105777449D01*
X134699178Y-105777452D01*
X134586452Y-105890178D01*
X134586449Y-105890182D01*
X134505294Y-106027406D01*
X134460814Y-106180507D01*
X134458000Y-106216275D01*
X134020500Y-106216275D01*
X134020500Y-106216221D01*
X134018017Y-106184682D01*
X134017682Y-106180426D01*
X133973168Y-106027208D01*
X133973166Y-106027206D01*
X133973166Y-106027203D01*
X133891950Y-105889874D01*
X133891944Y-105889867D01*
X133779130Y-105777053D01*
X133779123Y-105777048D01*
X133708724Y-105735414D01*
X133660271Y-105683522D01*
X133647941Y-105643404D01*
X133647500Y-105640059D01*
X133647500Y-105640055D01*
X133612847Y-105510726D01*
X133612844Y-105510722D01*
X133612843Y-105510718D01*
X133591066Y-105473000D01*
X133574327Y-105404005D01*
X133591064Y-105347001D01*
X133612847Y-105309274D01*
X133635978Y-105222945D01*
X133647500Y-105179945D01*
X133647500Y-105179934D01*
X133647940Y-105176596D01*
X133649099Y-105173974D01*
X133649637Y-105171969D01*
X133649949Y-105172052D01*
X133676661Y-105111668D01*
X133708725Y-105084584D01*
X133779126Y-105042950D01*
X133891944Y-104930132D01*
X133891949Y-104930127D01*
X133950619Y-104830921D01*
X133973166Y-104792796D01*
X133973166Y-104792794D01*
X133973168Y-104792792D01*
X134017682Y-104639574D01*
X134019732Y-104613532D01*
X134020500Y-104603778D01*
X134020500Y-104052389D01*
X134449500Y-104052389D01*
X134449500Y-104052392D01*
X134449500Y-104227608D01*
X134453936Y-104249911D01*
X134455079Y-104255654D01*
X134457500Y-104280237D01*
X134457500Y-104603778D01*
X134460317Y-104639567D01*
X134460319Y-104639579D01*
X134504833Y-104792796D01*
X134586049Y-104930125D01*
X134586055Y-104930132D01*
X134698867Y-105042944D01*
X134698874Y-105042950D01*
X134836203Y-105124166D01*
X134836206Y-105124166D01*
X134836208Y-105124168D01*
X134989426Y-105168682D01*
X135004770Y-105169889D01*
X135025222Y-105171500D01*
X135025230Y-105171500D01*
X135652778Y-105171500D01*
X135671865Y-105169997D01*
X135688574Y-105168682D01*
X135841792Y-105124168D01*
X135841794Y-105124166D01*
X135841796Y-105124166D01*
X135972198Y-105047047D01*
X136036337Y-105029500D01*
X137761494Y-105029500D01*
X137846479Y-105011435D01*
X137848050Y-105011111D01*
X137927458Y-104995317D01*
X137927462Y-104995315D01*
X137933380Y-104993520D01*
X137933523Y-104993993D01*
X137944222Y-104990659D01*
X137944385Y-104990625D01*
X138017718Y-104957973D01*
X138020618Y-104956727D01*
X138089336Y-104928265D01*
X138090150Y-104927720D01*
X138108923Y-104917367D01*
X138115200Y-104914573D01*
X138174749Y-104871306D01*
X138178713Y-104868543D01*
X138235023Y-104830920D01*
X138240457Y-104825484D01*
X138255486Y-104812648D01*
X138266470Y-104804669D01*
X138311250Y-104754933D01*
X138315752Y-104750189D01*
X138358920Y-104707023D01*
X138366905Y-104695072D01*
X138378026Y-104680773D01*
X138391585Y-104665715D01*
X138421712Y-104613530D01*
X138426056Y-104606544D01*
X138456265Y-104561336D01*
X138464320Y-104541887D01*
X138471604Y-104527117D01*
X138485075Y-104503785D01*
X138485263Y-104503208D01*
X138491246Y-104484792D01*
X138501638Y-104452805D01*
X138505049Y-104443559D01*
X138523317Y-104399458D01*
X138528724Y-104372272D01*
X138532469Y-104357920D01*
X138538632Y-104338952D01*
X138542855Y-104325956D01*
X138547761Y-104279268D01*
X138549488Y-104267881D01*
X138557500Y-104227608D01*
X138557500Y-104193225D01*
X138558190Y-104180055D01*
X138560330Y-104159691D01*
X138562400Y-104140000D01*
X138558190Y-104099944D01*
X138557500Y-104086774D01*
X138557500Y-104052395D01*
X138557499Y-104052388D01*
X138549491Y-104012132D01*
X138547760Y-104000725D01*
X138542855Y-103954044D01*
X138542854Y-103954041D01*
X138542854Y-103954039D01*
X138532470Y-103922084D01*
X138528725Y-103907734D01*
X138523317Y-103880542D01*
X138505058Y-103836461D01*
X138501638Y-103827193D01*
X138485075Y-103776215D01*
X138471608Y-103752889D01*
X138464321Y-103738111D01*
X138456267Y-103718669D01*
X138456268Y-103718669D01*
X138454668Y-103716274D01*
X138426046Y-103673438D01*
X138421707Y-103666459D01*
X138391587Y-103614288D01*
X138391581Y-103614279D01*
X138378032Y-103599232D01*
X138366906Y-103584929D01*
X138358920Y-103572977D01*
X138315761Y-103529818D01*
X138311238Y-103525051D01*
X138266473Y-103475334D01*
X138266472Y-103475333D01*
X138266470Y-103475331D01*
X138255483Y-103467348D01*
X138240454Y-103454511D01*
X138235023Y-103449080D01*
X138178771Y-103411494D01*
X138174710Y-103408664D01*
X138115199Y-103365426D01*
X138115197Y-103365425D01*
X138108914Y-103362628D01*
X138090167Y-103352290D01*
X138089336Y-103351735D01*
X138089337Y-103351735D01*
X138046768Y-103334103D01*
X138020675Y-103323294D01*
X138017679Y-103322007D01*
X137944385Y-103289375D01*
X137944195Y-103289334D01*
X137933520Y-103286019D01*
X137933381Y-103286480D01*
X137927459Y-103284683D01*
X137848065Y-103268890D01*
X137846453Y-103268558D01*
X137761492Y-103250500D01*
X137761490Y-103250500D01*
X137755608Y-103250500D01*
X136036337Y-103250500D01*
X135972198Y-103232953D01*
X135841796Y-103155833D01*
X135688579Y-103111319D01*
X135688575Y-103111318D01*
X135688574Y-103111318D01*
X135688572Y-103111317D01*
X135688567Y-103111317D01*
X135652778Y-103108500D01*
X135652770Y-103108500D01*
X135025230Y-103108500D01*
X135025222Y-103108500D01*
X134989432Y-103111317D01*
X134989420Y-103111319D01*
X134836203Y-103155833D01*
X134698874Y-103237049D01*
X134698867Y-103237055D01*
X134586055Y-103349867D01*
X134586049Y-103349874D01*
X134504833Y-103487203D01*
X134460319Y-103640420D01*
X134460317Y-103640432D01*
X134457500Y-103676221D01*
X134457500Y-103999762D01*
X134455079Y-104024344D01*
X134449500Y-104052389D01*
X134020500Y-104052389D01*
X134020500Y-103676221D01*
X134017682Y-103640432D01*
X134017682Y-103640426D01*
X133973168Y-103487208D01*
X133973166Y-103487206D01*
X133973166Y-103487203D01*
X133891950Y-103349874D01*
X133891944Y-103349867D01*
X133779132Y-103237055D01*
X133779125Y-103237049D01*
X133641796Y-103155833D01*
X133488579Y-103111319D01*
X133488575Y-103111318D01*
X133488574Y-103111318D01*
X133488572Y-103111317D01*
X133488567Y-103111317D01*
X133452778Y-103108500D01*
X133452770Y-103108500D01*
X132825230Y-103108500D01*
X132825222Y-103108500D01*
X132789432Y-103111317D01*
X132789420Y-103111319D01*
X132636203Y-103155833D01*
X132498874Y-103237049D01*
X132498867Y-103237055D01*
X132386055Y-103349867D01*
X132386049Y-103349874D01*
X132304833Y-103487203D01*
X132260319Y-103640420D01*
X132260317Y-103640432D01*
X132257500Y-103676221D01*
X132257500Y-104603778D01*
X132260317Y-104639567D01*
X132260318Y-104639574D01*
X132289595Y-104740349D01*
X132289393Y-104811343D01*
X132250840Y-104870959D01*
X132186175Y-104900268D01*
X132168599Y-104901500D01*
X130047500Y-104901500D01*
X129979379Y-104881498D01*
X129932886Y-104827842D01*
X129921500Y-104775500D01*
X129921500Y-104484800D01*
X129921500Y-104484794D01*
X129910696Y-104410639D01*
X129891943Y-104372280D01*
X129854776Y-104296254D01*
X129854775Y-104296252D01*
X129787618Y-104229095D01*
X129753592Y-104166783D01*
X129758657Y-104095968D01*
X129787618Y-104050905D01*
X129854775Y-103983747D01*
X129854776Y-103983746D01*
X129910696Y-103869361D01*
X129921500Y-103795206D01*
X129921500Y-103021221D01*
X142478500Y-103021221D01*
X142478500Y-103648778D01*
X142481317Y-103684567D01*
X142481319Y-103684579D01*
X142525833Y-103837796D01*
X142607049Y-103975125D01*
X142607055Y-103975132D01*
X142719867Y-104087944D01*
X142719871Y-104087947D01*
X142719873Y-104087949D01*
X142777529Y-104122046D01*
X142825981Y-104173937D01*
X142838687Y-104243788D01*
X142811612Y-104309419D01*
X142777531Y-104338952D01*
X142719868Y-104373054D01*
X142607055Y-104485867D01*
X142607049Y-104485874D01*
X142525833Y-104623203D01*
X142481319Y-104776420D01*
X142481317Y-104776432D01*
X142478500Y-104812221D01*
X142478500Y-105639778D01*
X142481317Y-105675567D01*
X142481319Y-105675579D01*
X142525833Y-105828796D01*
X142607049Y-105966125D01*
X142607055Y-105966132D01*
X142719867Y-106078944D01*
X142719874Y-106078950D01*
X142857203Y-106160166D01*
X142857206Y-106160166D01*
X142857208Y-106160168D01*
X143010426Y-106204682D01*
X143025770Y-106205889D01*
X143046222Y-106207500D01*
X143046230Y-106207500D01*
X143973778Y-106207500D01*
X143992865Y-106205997D01*
X144009574Y-106204682D01*
X144162792Y-106160168D01*
X144162794Y-106160166D01*
X144162796Y-106160166D01*
X144300125Y-106078950D01*
X144300124Y-106078950D01*
X144300127Y-106078949D01*
X144412949Y-105966127D01*
X144461609Y-105883847D01*
X144494166Y-105828796D01*
X144494166Y-105828794D01*
X144494168Y-105828792D01*
X144538682Y-105675574D01*
X144541214Y-105643404D01*
X144541500Y-105639778D01*
X144541500Y-104812221D01*
X145018500Y-104812221D01*
X145018500Y-105639778D01*
X145021317Y-105675567D01*
X145021319Y-105675579D01*
X145065833Y-105828796D01*
X145147049Y-105966125D01*
X145147055Y-105966132D01*
X145259867Y-106078944D01*
X145259874Y-106078950D01*
X145397203Y-106160166D01*
X145397206Y-106160166D01*
X145397208Y-106160168D01*
X145550426Y-106204682D01*
X145565770Y-106205889D01*
X145586222Y-106207500D01*
X145586230Y-106207500D01*
X146513778Y-106207500D01*
X146532865Y-106205997D01*
X146549574Y-106204682D01*
X146702792Y-106160168D01*
X146702794Y-106160166D01*
X146702796Y-106160166D01*
X146840125Y-106078950D01*
X146840124Y-106078950D01*
X146840127Y-106078949D01*
X146952949Y-105966127D01*
X147034168Y-105828792D01*
X147035168Y-105825351D01*
X147036687Y-105822972D01*
X147037319Y-105821512D01*
X147037554Y-105821613D01*
X147073379Y-105765514D01*
X147137875Y-105735835D01*
X147156166Y-105734500D01*
X147189942Y-105734500D01*
X147189945Y-105734500D01*
X147222272Y-105725838D01*
X147293246Y-105727528D01*
X147352042Y-105767322D01*
X147370418Y-105802068D01*
X147371685Y-105801520D01*
X147374833Y-105808795D01*
X147456049Y-105946125D01*
X147456055Y-105946132D01*
X147568867Y-106058944D01*
X147568874Y-106058950D01*
X147706203Y-106140166D01*
X147706206Y-106140166D01*
X147706208Y-106140168D01*
X147859426Y-106184682D01*
X147874770Y-106185889D01*
X147895222Y-106187500D01*
X147895230Y-106187500D01*
X148522778Y-106187500D01*
X148541865Y-106185997D01*
X148558574Y-106184682D01*
X148711792Y-106140168D01*
X148711794Y-106140166D01*
X148711796Y-106140166D01*
X148815307Y-106078950D01*
X148849127Y-106058949D01*
X148961949Y-105946127D01*
X148989022Y-105900348D01*
X149043166Y-105808796D01*
X149043166Y-105808794D01*
X149043168Y-105808792D01*
X149087682Y-105655574D01*
X149088997Y-105638865D01*
X149090500Y-105619778D01*
X149090500Y-104692221D01*
X149087682Y-104656432D01*
X149087682Y-104656426D01*
X149043168Y-104503208D01*
X149043166Y-104503206D01*
X149043166Y-104503203D01*
X148961950Y-104365874D01*
X148961944Y-104365867D01*
X148849132Y-104253055D01*
X148849125Y-104253049D01*
X148711796Y-104171833D01*
X148558579Y-104127319D01*
X148558575Y-104127318D01*
X148558574Y-104127318D01*
X148558572Y-104127317D01*
X148558567Y-104127317D01*
X148522778Y-104124500D01*
X148522770Y-104124500D01*
X147895230Y-104124500D01*
X147895222Y-104124500D01*
X147859432Y-104127317D01*
X147859420Y-104127319D01*
X147706203Y-104171833D01*
X147568874Y-104253049D01*
X147568867Y-104253055D01*
X147456055Y-104365867D01*
X147456049Y-104365874D01*
X147374833Y-104503203D01*
X147359305Y-104556653D01*
X147321092Y-104616489D01*
X147256595Y-104646166D01*
X147238308Y-104647500D01*
X147120404Y-104647500D01*
X147052283Y-104627498D01*
X147011951Y-104585640D01*
X146981565Y-104534260D01*
X146952949Y-104485873D01*
X146952947Y-104485871D01*
X146952944Y-104485867D01*
X146840132Y-104373055D01*
X146840125Y-104373049D01*
X146702796Y-104291833D01*
X146549579Y-104247319D01*
X146549575Y-104247318D01*
X146549574Y-104247318D01*
X146549572Y-104247317D01*
X146549567Y-104247317D01*
X146513778Y-104244500D01*
X146513770Y-104244500D01*
X145586230Y-104244500D01*
X145586222Y-104244500D01*
X145550432Y-104247317D01*
X145550420Y-104247319D01*
X145397203Y-104291833D01*
X145259874Y-104373049D01*
X145259867Y-104373055D01*
X145147055Y-104485867D01*
X145147049Y-104485874D01*
X145065833Y-104623203D01*
X145021319Y-104776420D01*
X145021317Y-104776432D01*
X145018500Y-104812221D01*
X144541500Y-104812221D01*
X144538682Y-104776432D01*
X144538682Y-104776426D01*
X144494168Y-104623208D01*
X144494166Y-104623206D01*
X144494166Y-104623203D01*
X144412950Y-104485874D01*
X144412944Y-104485867D01*
X144300132Y-104373055D01*
X144300128Y-104373052D01*
X144300127Y-104373051D01*
X144253742Y-104345619D01*
X144242469Y-104338952D01*
X144194017Y-104287059D01*
X144181312Y-104217208D01*
X144208388Y-104151577D01*
X144242462Y-104122051D01*
X144300127Y-104087949D01*
X144412949Y-103975127D01*
X144448498Y-103915017D01*
X144494166Y-103837796D01*
X144494166Y-103837794D01*
X144494168Y-103837792D01*
X144538682Y-103684574D01*
X144540108Y-103666459D01*
X144541500Y-103648778D01*
X144541500Y-103021221D01*
X144538682Y-102985432D01*
X144538682Y-102985426D01*
X144494168Y-102832208D01*
X144494166Y-102832206D01*
X144494166Y-102832203D01*
X144412950Y-102694874D01*
X144412944Y-102694867D01*
X144300132Y-102582055D01*
X144300125Y-102582049D01*
X144162796Y-102500833D01*
X144009579Y-102456319D01*
X144009575Y-102456318D01*
X144009574Y-102456318D01*
X144009572Y-102456317D01*
X144009567Y-102456317D01*
X143973778Y-102453500D01*
X143973770Y-102453500D01*
X143046230Y-102453500D01*
X143046222Y-102453500D01*
X143010432Y-102456317D01*
X143010420Y-102456319D01*
X142857203Y-102500833D01*
X142719874Y-102582049D01*
X142719867Y-102582055D01*
X142607055Y-102694867D01*
X142607049Y-102694874D01*
X142525833Y-102832203D01*
X142481319Y-102985420D01*
X142481317Y-102985432D01*
X142478500Y-103021221D01*
X129921500Y-103021221D01*
X129921500Y-101944794D01*
X129910696Y-101870639D01*
X129861588Y-101770189D01*
X129854776Y-101756254D01*
X129854775Y-101756252D01*
X129787618Y-101689095D01*
X129753592Y-101626783D01*
X129758657Y-101555968D01*
X129787618Y-101510905D01*
X129854775Y-101443747D01*
X129854776Y-101443746D01*
X129910696Y-101329361D01*
X129921500Y-101255206D01*
X129921500Y-100964500D01*
X129941502Y-100896379D01*
X129995158Y-100849886D01*
X130047500Y-100838500D01*
X132168599Y-100838500D01*
X132236720Y-100858502D01*
X132283213Y-100912158D01*
X132293317Y-100982432D01*
X132289598Y-100999640D01*
X132260320Y-101100420D01*
X132260319Y-101100423D01*
X132260317Y-101100432D01*
X132257500Y-101136221D01*
X132257500Y-102063778D01*
X132260317Y-102099567D01*
X132260319Y-102099579D01*
X132304833Y-102252796D01*
X132386049Y-102390125D01*
X132386055Y-102390132D01*
X132498867Y-102502944D01*
X132498874Y-102502950D01*
X132636203Y-102584166D01*
X132636206Y-102584166D01*
X132636208Y-102584168D01*
X132789426Y-102628682D01*
X132804770Y-102629889D01*
X132825222Y-102631500D01*
X132825230Y-102631500D01*
X133452778Y-102631500D01*
X133471865Y-102629997D01*
X133488574Y-102628682D01*
X133641792Y-102584168D01*
X133641794Y-102584166D01*
X133641796Y-102584166D01*
X133769208Y-102508815D01*
X133779127Y-102502949D01*
X133891949Y-102390127D01*
X133973168Y-102252792D01*
X134017682Y-102099574D01*
X134018997Y-102082865D01*
X134020500Y-102063778D01*
X134020500Y-102063724D01*
X134458001Y-102063724D01*
X134460814Y-102099493D01*
X134505294Y-102252593D01*
X134586449Y-102389817D01*
X134586452Y-102389821D01*
X134699178Y-102502547D01*
X134699182Y-102502550D01*
X134836406Y-102583705D01*
X134989507Y-102628185D01*
X135025275Y-102630999D01*
X135593000Y-102630999D01*
X135652724Y-102630999D01*
X135688493Y-102628185D01*
X135841593Y-102583705D01*
X135978817Y-102502550D01*
X135978821Y-102502547D01*
X136091547Y-102389821D01*
X136091550Y-102389817D01*
X136172705Y-102252593D01*
X136217185Y-102099492D01*
X136220000Y-102063724D01*
X136220000Y-101854000D01*
X135593000Y-101854000D01*
X135593000Y-102630999D01*
X135025275Y-102630999D01*
X135084999Y-102630998D01*
X135085000Y-102630998D01*
X135085000Y-101854000D01*
X134458001Y-101854000D01*
X134458001Y-102063724D01*
X134020500Y-102063724D01*
X134020500Y-101136275D01*
X134458000Y-101136275D01*
X134458000Y-101346000D01*
X135085000Y-101346000D01*
X135593000Y-101346000D01*
X136219999Y-101346000D01*
X136219999Y-101136275D01*
X136217185Y-101100506D01*
X136172705Y-100947406D01*
X136098079Y-100821221D01*
X142478500Y-100821221D01*
X142478500Y-101448778D01*
X142481317Y-101484567D01*
X142481319Y-101484579D01*
X142525833Y-101637796D01*
X142607049Y-101775125D01*
X142607055Y-101775132D01*
X142719867Y-101887944D01*
X142719874Y-101887950D01*
X142857203Y-101969166D01*
X142857206Y-101969166D01*
X142857208Y-101969168D01*
X143010426Y-102013682D01*
X143025770Y-102014889D01*
X143046222Y-102016500D01*
X143046230Y-102016500D01*
X143973778Y-102016500D01*
X143992865Y-102014997D01*
X144009574Y-102013682D01*
X144162792Y-101969168D01*
X144162794Y-101969166D01*
X144162796Y-101969166D01*
X144300125Y-101887950D01*
X144300124Y-101887950D01*
X144300127Y-101887949D01*
X144362380Y-101825695D01*
X144424690Y-101791672D01*
X144495506Y-101796736D01*
X144540569Y-101825697D01*
X145135071Y-102420199D01*
X145135085Y-102420212D01*
X145135099Y-102420226D01*
X145229774Y-102514901D01*
X145345726Y-102581847D01*
X145475055Y-102616500D01*
X147626264Y-102616500D01*
X147694385Y-102636502D01*
X147719900Y-102658190D01*
X147780251Y-102725217D01*
X147920720Y-102827274D01*
X147920722Y-102827275D01*
X147920725Y-102827277D01*
X148079346Y-102897900D01*
X148249184Y-102934000D01*
X148274378Y-102934000D01*
X148342499Y-102954002D01*
X148388992Y-103007658D01*
X148399686Y-103046825D01*
X148412600Y-103169681D01*
X148412601Y-103169686D01*
X148466252Y-103334810D01*
X148466256Y-103334817D01*
X148553069Y-103485183D01*
X148553070Y-103485185D01*
X148669251Y-103614217D01*
X148809720Y-103716274D01*
X148809722Y-103716275D01*
X148809725Y-103716277D01*
X148968346Y-103786900D01*
X149138184Y-103823000D01*
X149279681Y-103823000D01*
X149347802Y-103843002D01*
X149368776Y-103859904D01*
X149533216Y-104024344D01*
X149676302Y-104167429D01*
X149710327Y-104229742D01*
X149705263Y-104300557D01*
X149676304Y-104345619D01*
X149656049Y-104365874D01*
X149574833Y-104503203D01*
X149530319Y-104656420D01*
X149530317Y-104656432D01*
X149527500Y-104692221D01*
X149527500Y-105619778D01*
X149530317Y-105655567D01*
X149530319Y-105655579D01*
X149574833Y-105808796D01*
X149656049Y-105946125D01*
X149656055Y-105946132D01*
X149768867Y-106058944D01*
X149768874Y-106058950D01*
X149906203Y-106140166D01*
X149906206Y-106140166D01*
X149906208Y-106140168D01*
X150059426Y-106184682D01*
X150074770Y-106185889D01*
X150095222Y-106187500D01*
X150095230Y-106187500D01*
X150722778Y-106187500D01*
X150741865Y-106185997D01*
X150758574Y-106184682D01*
X150911792Y-106140168D01*
X150911794Y-106140166D01*
X150911796Y-106140166D01*
X151015307Y-106078950D01*
X151049127Y-106058949D01*
X151161949Y-105946127D01*
X151189022Y-105900348D01*
X151243166Y-105808796D01*
X151243166Y-105808794D01*
X151243168Y-105808792D01*
X151287682Y-105655574D01*
X151288997Y-105638865D01*
X151290500Y-105619778D01*
X151290500Y-104692221D01*
X151287682Y-104656432D01*
X151287682Y-104656426D01*
X151243168Y-104503208D01*
X151243166Y-104503206D01*
X151243166Y-104503203D01*
X151161950Y-104365874D01*
X151161944Y-104365867D01*
X151049129Y-104253052D01*
X151033464Y-104243788D01*
X150979007Y-104211582D01*
X150930556Y-104159691D01*
X150918225Y-104119569D01*
X150917500Y-104114060D01*
X150917500Y-104114055D01*
X150882847Y-103984726D01*
X150815901Y-103868774D01*
X150721226Y-103774099D01*
X150408652Y-103461525D01*
X150087448Y-103140320D01*
X150053423Y-103078008D01*
X150051234Y-103038057D01*
X150055550Y-102997000D01*
X150037400Y-102824319D01*
X150005200Y-102725217D01*
X149983747Y-102659189D01*
X149983743Y-102659182D01*
X149983170Y-102658190D01*
X149939092Y-102581844D01*
X149896930Y-102508816D01*
X149896929Y-102508814D01*
X149780748Y-102379782D01*
X149640279Y-102277725D01*
X149481654Y-102207100D01*
X149311816Y-102171000D01*
X149286622Y-102171000D01*
X149218501Y-102150998D01*
X149172008Y-102097342D01*
X149161313Y-102058174D01*
X149148400Y-101935319D01*
X149133007Y-101887944D01*
X149094747Y-101770189D01*
X149094743Y-101770182D01*
X149007930Y-101619816D01*
X149007929Y-101619814D01*
X148891748Y-101490782D01*
X148751279Y-101388725D01*
X148592654Y-101318100D01*
X148422816Y-101282000D01*
X148249184Y-101282000D01*
X148079345Y-101318100D01*
X147920720Y-101388725D01*
X147780251Y-101490782D01*
X147719900Y-101557810D01*
X147659454Y-101595050D01*
X147626264Y-101599500D01*
X145804818Y-101599500D01*
X145736697Y-101579498D01*
X145715722Y-101562595D01*
X144881229Y-100728101D01*
X144881223Y-100728096D01*
X144765278Y-100661155D01*
X144765276Y-100661154D01*
X144765274Y-100661153D01*
X144635945Y-100626500D01*
X144635943Y-100626500D01*
X144562662Y-100626500D01*
X144494541Y-100606498D01*
X144454208Y-100564639D01*
X144449690Y-100556999D01*
X144412949Y-100494873D01*
X144412948Y-100494872D01*
X144412947Y-100494870D01*
X144300132Y-100382055D01*
X144300125Y-100382049D01*
X144162796Y-100300833D01*
X144009579Y-100256319D01*
X144009575Y-100256318D01*
X144009574Y-100256318D01*
X144009572Y-100256317D01*
X144009567Y-100256317D01*
X143973778Y-100253500D01*
X143973770Y-100253500D01*
X143046230Y-100253500D01*
X143046222Y-100253500D01*
X143010432Y-100256317D01*
X143010420Y-100256319D01*
X142857203Y-100300833D01*
X142719874Y-100382049D01*
X142719867Y-100382055D01*
X142607055Y-100494867D01*
X142607049Y-100494874D01*
X142525833Y-100632203D01*
X142481319Y-100785420D01*
X142481317Y-100785432D01*
X142478500Y-100821221D01*
X136098079Y-100821221D01*
X136091550Y-100810182D01*
X136091547Y-100810178D01*
X135978821Y-100697452D01*
X135978817Y-100697449D01*
X135841593Y-100616294D01*
X135688492Y-100571814D01*
X135652724Y-100569000D01*
X135593000Y-100569000D01*
X135593000Y-101346000D01*
X135085000Y-101346000D01*
X135085000Y-100569000D01*
X135084999Y-100568999D01*
X135025276Y-100569000D01*
X134989506Y-100571814D01*
X134836406Y-100616294D01*
X134699182Y-100697449D01*
X134699178Y-100697452D01*
X134586452Y-100810178D01*
X134586449Y-100810182D01*
X134505294Y-100947406D01*
X134460814Y-101100507D01*
X134458000Y-101136275D01*
X134020500Y-101136275D01*
X134020500Y-101136221D01*
X134017682Y-101100432D01*
X134017682Y-101100426D01*
X133973168Y-100947208D01*
X133973166Y-100947206D01*
X133973166Y-100947203D01*
X133891950Y-100809874D01*
X133891944Y-100809867D01*
X133779130Y-100697053D01*
X133779123Y-100697048D01*
X133708724Y-100655414D01*
X133660271Y-100603522D01*
X133647941Y-100563404D01*
X133647500Y-100560059D01*
X133647500Y-100560055D01*
X133612847Y-100430726D01*
X133591065Y-100392999D01*
X133574327Y-100324004D01*
X133591064Y-100267001D01*
X133612847Y-100229274D01*
X133633243Y-100153153D01*
X133647500Y-100099945D01*
X133647500Y-100099934D01*
X133647940Y-100096596D01*
X133649099Y-100093974D01*
X133649637Y-100091969D01*
X133649949Y-100092052D01*
X133676661Y-100031668D01*
X133708725Y-100004584D01*
X133779126Y-99962950D01*
X133891944Y-99850132D01*
X133891949Y-99850127D01*
X133950619Y-99750921D01*
X133973166Y-99712796D01*
X133973166Y-99712794D01*
X133973168Y-99712792D01*
X134017682Y-99559574D01*
X134019732Y-99533532D01*
X134020500Y-99523778D01*
X134020500Y-98596221D01*
X134017682Y-98560432D01*
X134017682Y-98560426D01*
X133973168Y-98407208D01*
X133973166Y-98407206D01*
X133973166Y-98407203D01*
X133891950Y-98269874D01*
X133891944Y-98269867D01*
X133779132Y-98157055D01*
X133779125Y-98157049D01*
X133641796Y-98075833D01*
X133488579Y-98031319D01*
X133488575Y-98031318D01*
X133488574Y-98031318D01*
X133488572Y-98031317D01*
X133488567Y-98031317D01*
X133452778Y-98028500D01*
X133452770Y-98028500D01*
X132825230Y-98028500D01*
X132825222Y-98028500D01*
X132789432Y-98031317D01*
X132789420Y-98031319D01*
X132636203Y-98075833D01*
X132498874Y-98157049D01*
X132498867Y-98157055D01*
X132386055Y-98269867D01*
X132386049Y-98269874D01*
X132304833Y-98407203D01*
X132260319Y-98560420D01*
X132260317Y-98560432D01*
X132257500Y-98596221D01*
X132257500Y-99523778D01*
X132258268Y-99533532D01*
X132260318Y-99559574D01*
X132289595Y-99660349D01*
X132289393Y-99731343D01*
X132250840Y-99790959D01*
X132186175Y-99820268D01*
X132168599Y-99821500D01*
X130047500Y-99821500D01*
X129979379Y-99801498D01*
X129932886Y-99747842D01*
X129921500Y-99695500D01*
X129921500Y-99404800D01*
X129921500Y-99404794D01*
X129910696Y-99330639D01*
X129891943Y-99292280D01*
X129854776Y-99216254D01*
X129854775Y-99216252D01*
X129787618Y-99149095D01*
X129753592Y-99086783D01*
X129758657Y-99015968D01*
X129787618Y-98970905D01*
X129854775Y-98903747D01*
X129854776Y-98903746D01*
X129910696Y-98789361D01*
X129921500Y-98715206D01*
X129921500Y-96864794D01*
X129910696Y-96790639D01*
X129854776Y-96676254D01*
X129854775Y-96676252D01*
X129787264Y-96608741D01*
X129753238Y-96546429D01*
X129758303Y-96475614D01*
X129787264Y-96430550D01*
X129854365Y-96363449D01*
X129910208Y-96249218D01*
X129910209Y-96249216D01*
X129920999Y-96175159D01*
X129921000Y-96175151D01*
X129921000Y-94324848D01*
X129920999Y-94324840D01*
X129910209Y-94250783D01*
X129910208Y-94250781D01*
X129854364Y-94136549D01*
X129854363Y-94136547D01*
X129787264Y-94069448D01*
X129753238Y-94007136D01*
X129758303Y-93936321D01*
X129787262Y-93891259D01*
X129854776Y-93823746D01*
X129910696Y-93709361D01*
X129910991Y-93707334D01*
X129912003Y-93705128D01*
X129913585Y-93700011D01*
X129914257Y-93700218D01*
X129940605Y-93642810D01*
X130000403Y-93604538D01*
X130035675Y-93599500D01*
X130135367Y-93599500D01*
X130203488Y-93619502D01*
X130224462Y-93636405D01*
X134412595Y-97824538D01*
X134446621Y-97886850D01*
X134449500Y-97913633D01*
X134449500Y-99147608D01*
X134455079Y-99175654D01*
X134457500Y-99200237D01*
X134457500Y-99523778D01*
X134460317Y-99559567D01*
X134460319Y-99559579D01*
X134504833Y-99712796D01*
X134586049Y-99850125D01*
X134586055Y-99850132D01*
X134698867Y-99962944D01*
X134698874Y-99962950D01*
X134836203Y-100044166D01*
X134836206Y-100044166D01*
X134836208Y-100044168D01*
X134989426Y-100088682D01*
X135004770Y-100089889D01*
X135025222Y-100091500D01*
X135025230Y-100091500D01*
X135652778Y-100091500D01*
X135671865Y-100089997D01*
X135688574Y-100088682D01*
X135841792Y-100044168D01*
X135841794Y-100044166D01*
X135841796Y-100044166D01*
X135972198Y-99967047D01*
X136036337Y-99949500D01*
X137761494Y-99949500D01*
X137846479Y-99931435D01*
X137848050Y-99931111D01*
X137927458Y-99915317D01*
X137927462Y-99915315D01*
X137933380Y-99913520D01*
X137933523Y-99913993D01*
X137944222Y-99910659D01*
X137944385Y-99910625D01*
X138017718Y-99877973D01*
X138020618Y-99876727D01*
X138089336Y-99848265D01*
X138090150Y-99847720D01*
X138108923Y-99837367D01*
X138115200Y-99834573D01*
X138174749Y-99791306D01*
X138178713Y-99788543D01*
X138235023Y-99750920D01*
X138240457Y-99745484D01*
X138255486Y-99732648D01*
X138266470Y-99724669D01*
X138311250Y-99674933D01*
X138315752Y-99670189D01*
X138358920Y-99627023D01*
X138366905Y-99615072D01*
X138378026Y-99600773D01*
X138391585Y-99585715D01*
X138421712Y-99533530D01*
X138426056Y-99526544D01*
X138456265Y-99481336D01*
X138464320Y-99461887D01*
X138471604Y-99447117D01*
X138485075Y-99423785D01*
X138501638Y-99372805D01*
X138505049Y-99363559D01*
X138523317Y-99319458D01*
X138528724Y-99292272D01*
X138532469Y-99277920D01*
X138535699Y-99267978D01*
X138542855Y-99245956D01*
X138547761Y-99199268D01*
X138549488Y-99187881D01*
X138557500Y-99147608D01*
X138557500Y-99113225D01*
X138558190Y-99100055D01*
X138559585Y-99086783D01*
X138562400Y-99060000D01*
X138558190Y-99019944D01*
X138557500Y-99006774D01*
X138557500Y-98972395D01*
X138557499Y-98972388D01*
X138549491Y-98932132D01*
X138547760Y-98920725D01*
X138542855Y-98874044D01*
X138542854Y-98874041D01*
X138542854Y-98874039D01*
X138532470Y-98842084D01*
X138528725Y-98827734D01*
X138523317Y-98800542D01*
X138505058Y-98756461D01*
X138501638Y-98747193D01*
X138485075Y-98696215D01*
X138471608Y-98672889D01*
X138464321Y-98658111D01*
X138456267Y-98638669D01*
X138456268Y-98638669D01*
X138456265Y-98638664D01*
X138426046Y-98593438D01*
X138421707Y-98586459D01*
X138391587Y-98534288D01*
X138391581Y-98534279D01*
X138378032Y-98519232D01*
X138366906Y-98504929D01*
X138358920Y-98492977D01*
X138315761Y-98449818D01*
X138311238Y-98445051D01*
X138266473Y-98395334D01*
X138266472Y-98395333D01*
X138266470Y-98395331D01*
X138255483Y-98387348D01*
X138240454Y-98374511D01*
X138235023Y-98369080D01*
X138178771Y-98331494D01*
X138174710Y-98328664D01*
X138115199Y-98285426D01*
X138115197Y-98285425D01*
X138108914Y-98282628D01*
X138090167Y-98272290D01*
X138089336Y-98271735D01*
X138089337Y-98271735D01*
X138046768Y-98254103D01*
X138020675Y-98243294D01*
X138017679Y-98242007D01*
X137944385Y-98209375D01*
X137944195Y-98209334D01*
X137933520Y-98206019D01*
X137933381Y-98206480D01*
X137927459Y-98204683D01*
X137848065Y-98188890D01*
X137846453Y-98188558D01*
X137761492Y-98170500D01*
X137761490Y-98170500D01*
X137755608Y-98170500D01*
X136354500Y-98170500D01*
X136286379Y-98150498D01*
X136239886Y-98096842D01*
X136228500Y-98044500D01*
X136228500Y-97405396D01*
X136228499Y-97405388D01*
X136221194Y-97368663D01*
X136203856Y-97281500D01*
X136194317Y-97233542D01*
X136127265Y-97071664D01*
X136029919Y-96925976D01*
X136029914Y-96925970D01*
X131123025Y-92019082D01*
X131123023Y-92019080D01*
X130977336Y-91921735D01*
X130815458Y-91854683D01*
X130643610Y-91820500D01*
X130643608Y-91820500D01*
X130035675Y-91820500D01*
X129967554Y-91800498D01*
X129921061Y-91746842D01*
X129910991Y-91712665D01*
X129910696Y-91710639D01*
X129854776Y-91596254D01*
X129854775Y-91596252D01*
X129787618Y-91529095D01*
X129753592Y-91466783D01*
X129758657Y-91395968D01*
X129787618Y-91350905D01*
X129854775Y-91283747D01*
X129854776Y-91283746D01*
X129910696Y-91169361D01*
X129921500Y-91095206D01*
X129921500Y-89244794D01*
X129910696Y-89170639D01*
X129874246Y-89096081D01*
X129854776Y-89056254D01*
X129854775Y-89056252D01*
X129764749Y-88966226D01*
X129764746Y-88966224D01*
X129738159Y-88953226D01*
X129685746Y-88905337D01*
X129667500Y-88840030D01*
X129667500Y-88757652D01*
X129687502Y-88689531D01*
X129741158Y-88643038D01*
X129774528Y-88634417D01*
X129774330Y-88633162D01*
X129779211Y-88632388D01*
X129779211Y-88632387D01*
X129779222Y-88632387D01*
X130012553Y-88576369D01*
X130234249Y-88484540D01*
X130438849Y-88359160D01*
X130621318Y-88203318D01*
X130777160Y-88020849D01*
X130902540Y-87816249D01*
X130994369Y-87594553D01*
X131050387Y-87361222D01*
X131069214Y-87122000D01*
X131050387Y-86882778D01*
X130994369Y-86649447D01*
X130902540Y-86427751D01*
X130777160Y-86223151D01*
X130621318Y-86040682D01*
X130438849Y-85884840D01*
X130234249Y-85759460D01*
X130012553Y-85667631D01*
X130012551Y-85667630D01*
X129852936Y-85629310D01*
X129779222Y-85611613D01*
X129540000Y-85592786D01*
X129300778Y-85611613D01*
X129067448Y-85667630D01*
X128845752Y-85759459D01*
X128641152Y-85884839D01*
X128458682Y-86040682D01*
X128302839Y-86223152D01*
X128177459Y-86427752D01*
X128085630Y-86649448D01*
X128029613Y-86882778D01*
X128021945Y-86980207D01*
X127996659Y-87046548D01*
X127985429Y-87059415D01*
X127651787Y-87393058D01*
X127545993Y-87538671D01*
X127463823Y-87699939D01*
X127462747Y-87703755D01*
X127408657Y-87870224D01*
X127386440Y-88010501D01*
X127380500Y-88048005D01*
X127380500Y-88840030D01*
X127360498Y-88908151D01*
X127309841Y-88953226D01*
X127283253Y-88966224D01*
X127283250Y-88966226D01*
X127265595Y-88983882D01*
X127203283Y-89017908D01*
X127132468Y-89012843D01*
X127075632Y-88970296D01*
X127050821Y-88903776D01*
X127050500Y-88894787D01*
X127050500Y-83996500D01*
X127070502Y-83928379D01*
X127124158Y-83881886D01*
X127176500Y-83870500D01*
X162383500Y-83870500D01*
X162451621Y-83890502D01*
G37*
G04 #@! TD.AperFunction*
G04 #@! TA.AperFunction,Conductor*
G36*
X128327919Y-107476619D02*
G01*
X128212080Y-107543498D01*
X128117498Y-107638080D01*
X128050619Y-107753919D01*
X128016000Y-107883120D01*
X128016000Y-107568000D01*
X128036002Y-107499879D01*
X128089658Y-107453386D01*
X128142000Y-107442000D01*
X128457120Y-107442000D01*
X128327919Y-107476619D01*
G37*
G04 #@! TD.AperFunction*
G04 #@! TA.AperFunction,Conductor*
G36*
X161486121Y-107462002D02*
G01*
X161532614Y-107515658D01*
X161544000Y-107568000D01*
X161544000Y-107883120D01*
X161509381Y-107753919D01*
X161442502Y-107638080D01*
X161347920Y-107543498D01*
X161232081Y-107476619D01*
X161102880Y-107442000D01*
X161418000Y-107442000D01*
X161486121Y-107462002D01*
G37*
G04 #@! TD.AperFunction*
G04 #@! TA.AperFunction,Conductor*
G36*
X141440910Y-92649846D02*
G01*
X141491640Y-92680768D01*
X147007766Y-98196895D01*
X147007771Y-98196899D01*
X147007773Y-98196901D01*
X147007774Y-98196902D01*
X147007776Y-98196903D01*
X147029378Y-98209375D01*
X147123726Y-98263847D01*
X147253055Y-98298500D01*
X150359182Y-98298500D01*
X150427303Y-98318502D01*
X150448277Y-98335405D01*
X155295099Y-103182226D01*
X155389774Y-103276901D01*
X155505726Y-103343847D01*
X155635055Y-103378500D01*
X159512500Y-103378500D01*
X159580621Y-103398502D01*
X159627114Y-103452158D01*
X159638500Y-103504500D01*
X159638500Y-103795207D01*
X159649304Y-103869361D01*
X159649304Y-103869363D01*
X159705223Y-103983745D01*
X159705224Y-103983747D01*
X159772382Y-104050905D01*
X159806408Y-104113217D01*
X159801343Y-104184032D01*
X159772382Y-104229095D01*
X159705224Y-104296252D01*
X159705223Y-104296254D01*
X159649304Y-104410636D01*
X159649304Y-104410638D01*
X159638500Y-104484792D01*
X159638500Y-104775500D01*
X159618498Y-104843621D01*
X159564842Y-104890114D01*
X159512500Y-104901500D01*
X156472817Y-104901500D01*
X156404696Y-104881498D01*
X156383722Y-104864595D01*
X150426233Y-98907104D01*
X150426223Y-98907096D01*
X150310278Y-98840155D01*
X150310276Y-98840154D01*
X150310274Y-98840153D01*
X150180945Y-98805500D01*
X150180943Y-98805500D01*
X146566817Y-98805500D01*
X146498696Y-98785498D01*
X146477722Y-98768595D01*
X140611908Y-92902780D01*
X140577882Y-92840468D01*
X140582947Y-92769653D01*
X140625494Y-92712817D01*
X140692014Y-92688006D01*
X140733610Y-92691978D01*
X140748537Y-92695978D01*
X140970000Y-92715353D01*
X141191463Y-92695978D01*
X141369935Y-92648156D01*
X141440910Y-92649846D01*
G37*
G04 #@! TD.AperFunction*
G04 #@! TA.AperFunction,Conductor*
G36*
X143980910Y-92649846D02*
G01*
X144031640Y-92680768D01*
X145988465Y-94637592D01*
X147929099Y-96578226D01*
X148023774Y-96672901D01*
X148139726Y-96739847D01*
X148269055Y-96774500D01*
X150867182Y-96774500D01*
X150935303Y-96794502D01*
X150956277Y-96811405D01*
X152892051Y-98747178D01*
X154787099Y-100642226D01*
X154881774Y-100736901D01*
X154997726Y-100803847D01*
X155127055Y-100838500D01*
X159512500Y-100838500D01*
X159580621Y-100858502D01*
X159627114Y-100912158D01*
X159638500Y-100964500D01*
X159638500Y-101255207D01*
X159649304Y-101329361D01*
X159649304Y-101329363D01*
X159705223Y-101443745D01*
X159705224Y-101443747D01*
X159772382Y-101510905D01*
X159806408Y-101573217D01*
X159801343Y-101644032D01*
X159772382Y-101689095D01*
X159705224Y-101756252D01*
X159705223Y-101756254D01*
X159649304Y-101870636D01*
X159649304Y-101870638D01*
X159638500Y-101944792D01*
X159638500Y-102235500D01*
X159618498Y-102303621D01*
X159564842Y-102350114D01*
X159512500Y-102361500D01*
X155964817Y-102361500D01*
X155896696Y-102341498D01*
X155875722Y-102324595D01*
X150934233Y-97383104D01*
X150934223Y-97383096D01*
X150818278Y-97316155D01*
X150818276Y-97316154D01*
X150818274Y-97316153D01*
X150688945Y-97281500D01*
X150688943Y-97281500D01*
X147582818Y-97281500D01*
X147514697Y-97261498D01*
X147493723Y-97244595D01*
X143151908Y-92902780D01*
X143117882Y-92840468D01*
X143122947Y-92769653D01*
X143165494Y-92712817D01*
X143232014Y-92688006D01*
X143273610Y-92691978D01*
X143288537Y-92695978D01*
X143510000Y-92715353D01*
X143731463Y-92695978D01*
X143909935Y-92648156D01*
X143980910Y-92649846D01*
G37*
G04 #@! TD.AperFunction*
G04 #@! TA.AperFunction,Conductor*
G36*
X146520910Y-92649846D02*
G01*
X146571640Y-92680768D01*
X149039766Y-95148895D01*
X149039771Y-95148899D01*
X149039773Y-95148901D01*
X149155726Y-95215847D01*
X149285055Y-95250500D01*
X151375182Y-95250500D01*
X151443303Y-95270502D01*
X151464277Y-95287405D01*
X154373772Y-98196900D01*
X154373775Y-98196902D01*
X154391144Y-98206930D01*
X154489726Y-98263847D01*
X154619055Y-98298500D01*
X154752945Y-98298500D01*
X155287338Y-98298500D01*
X155355459Y-98318502D01*
X155395792Y-98360361D01*
X155437052Y-98430129D01*
X155549867Y-98542944D01*
X155549874Y-98542950D01*
X155687203Y-98624166D01*
X155687206Y-98624166D01*
X155687208Y-98624168D01*
X155840426Y-98668682D01*
X155855770Y-98669889D01*
X155876222Y-98671500D01*
X155876230Y-98671500D01*
X156803778Y-98671500D01*
X156822865Y-98669997D01*
X156839574Y-98668682D01*
X156992792Y-98624168D01*
X156992794Y-98624166D01*
X156992796Y-98624166D01*
X157084348Y-98570022D01*
X157130127Y-98542949D01*
X157242949Y-98430127D01*
X157284208Y-98360361D01*
X157336101Y-98311909D01*
X157392662Y-98298500D01*
X159512500Y-98298500D01*
X159580621Y-98318502D01*
X159627114Y-98372158D01*
X159638500Y-98424500D01*
X159638500Y-98715207D01*
X159649304Y-98789361D01*
X159649304Y-98789363D01*
X159705223Y-98903745D01*
X159705224Y-98903747D01*
X159772382Y-98970905D01*
X159806408Y-99033217D01*
X159801343Y-99104032D01*
X159772382Y-99149095D01*
X159705224Y-99216252D01*
X159705223Y-99216254D01*
X159649304Y-99330636D01*
X159649304Y-99330638D01*
X159638500Y-99404792D01*
X159638500Y-99695500D01*
X159618498Y-99763621D01*
X159564842Y-99810114D01*
X159512500Y-99821500D01*
X155456817Y-99821500D01*
X155388696Y-99801498D01*
X155367722Y-99784595D01*
X151442233Y-95859104D01*
X151442223Y-95859096D01*
X151326278Y-95792155D01*
X151326276Y-95792154D01*
X151326274Y-95792153D01*
X151196945Y-95757500D01*
X151196943Y-95757500D01*
X148598817Y-95757500D01*
X148530696Y-95737498D01*
X148509722Y-95720595D01*
X145691908Y-92902780D01*
X145657882Y-92840468D01*
X145662947Y-92769652D01*
X145705494Y-92712817D01*
X145772014Y-92688006D01*
X145813610Y-92691978D01*
X145828537Y-92695978D01*
X146050000Y-92715353D01*
X146271463Y-92695978D01*
X146449935Y-92648156D01*
X146520910Y-92649846D01*
G37*
G04 #@! TD.AperFunction*
G04 #@! TA.AperFunction,Conductor*
G36*
X149928959Y-91915423D02*
G01*
X149974195Y-91967627D01*
X150025511Y-92077675D01*
X150025512Y-92077677D01*
X150153016Y-92259772D01*
X150153020Y-92259777D01*
X150153023Y-92259781D01*
X150310219Y-92416977D01*
X150310223Y-92416980D01*
X150310227Y-92416983D01*
X150384694Y-92469125D01*
X150492323Y-92544488D01*
X150693804Y-92638440D01*
X150908537Y-92695978D01*
X151103397Y-92713025D01*
X151169511Y-92738887D01*
X151181507Y-92749450D01*
X152090081Y-93658024D01*
X152213978Y-93781921D01*
X152359665Y-93879266D01*
X152521543Y-93946318D01*
X152693393Y-93980501D01*
X155705500Y-93980501D01*
X155773621Y-94000503D01*
X155820114Y-94054159D01*
X155831500Y-94106501D01*
X155831500Y-94619307D01*
X155811498Y-94687428D01*
X155757842Y-94733921D01*
X155740655Y-94740303D01*
X155687205Y-94755832D01*
X155687204Y-94755832D01*
X155549874Y-94837049D01*
X155549867Y-94837055D01*
X155437055Y-94949867D01*
X155437049Y-94949874D01*
X155355833Y-95087203D01*
X155311319Y-95240420D01*
X155311317Y-95240432D01*
X155308500Y-95276221D01*
X155308500Y-95903778D01*
X155311317Y-95939567D01*
X155311319Y-95939579D01*
X155355833Y-96092796D01*
X155437049Y-96230125D01*
X155437055Y-96230132D01*
X155549867Y-96342944D01*
X155549874Y-96342950D01*
X155687203Y-96424166D01*
X155687206Y-96424166D01*
X155687208Y-96424168D01*
X155840426Y-96468682D01*
X155855770Y-96469889D01*
X155876222Y-96471500D01*
X155876230Y-96471500D01*
X156803778Y-96471500D01*
X156822865Y-96469997D01*
X156839574Y-96468682D01*
X156992792Y-96424168D01*
X156992794Y-96424166D01*
X156992796Y-96424166D01*
X157130125Y-96342950D01*
X157130124Y-96342950D01*
X157130127Y-96342949D01*
X157242949Y-96230127D01*
X157324168Y-96092792D01*
X157368682Y-95939574D01*
X157369997Y-95922865D01*
X157371500Y-95903778D01*
X157371500Y-95276221D01*
X157368682Y-95240432D01*
X157368682Y-95240426D01*
X157324168Y-95087208D01*
X157324166Y-95087206D01*
X157324166Y-95087203D01*
X157242950Y-94949874D01*
X157242944Y-94949867D01*
X157130132Y-94837055D01*
X157130125Y-94837049D01*
X156992794Y-94755832D01*
X156939345Y-94740303D01*
X156879510Y-94702089D01*
X156849834Y-94637592D01*
X156848500Y-94619307D01*
X156848500Y-94106501D01*
X156868502Y-94038380D01*
X156922158Y-93991887D01*
X156974500Y-93980501D01*
X158456606Y-93980501D01*
X158456607Y-93980501D01*
X158628457Y-93946318D01*
X158790335Y-93879266D01*
X158936022Y-93781921D01*
X159081538Y-93636405D01*
X159143850Y-93602379D01*
X159170633Y-93599500D01*
X159524325Y-93599500D01*
X159592446Y-93619502D01*
X159638939Y-93673158D01*
X159649009Y-93707335D01*
X159649304Y-93709361D01*
X159649304Y-93709363D01*
X159705223Y-93823745D01*
X159705224Y-93823747D01*
X159772735Y-93891258D01*
X159806761Y-93953570D01*
X159801696Y-94024385D01*
X159772736Y-94069448D01*
X159705634Y-94136549D01*
X159649791Y-94250781D01*
X159649790Y-94250783D01*
X159639000Y-94324840D01*
X159639000Y-96175159D01*
X159649790Y-96249216D01*
X159649791Y-96249218D01*
X159705635Y-96363450D01*
X159705636Y-96363452D01*
X159772735Y-96430551D01*
X159806761Y-96492863D01*
X159801696Y-96563678D01*
X159772736Y-96608741D01*
X159705222Y-96676255D01*
X159649304Y-96790636D01*
X159649304Y-96790638D01*
X159638500Y-96864792D01*
X159638500Y-97155500D01*
X159618498Y-97223621D01*
X159564842Y-97270114D01*
X159512500Y-97281500D01*
X157392662Y-97281500D01*
X157324541Y-97261498D01*
X157284208Y-97219639D01*
X157242947Y-97149870D01*
X157130132Y-97037055D01*
X157130125Y-97037049D01*
X156992796Y-96955833D01*
X156839579Y-96911319D01*
X156839575Y-96911318D01*
X156839574Y-96911318D01*
X156839572Y-96911317D01*
X156839567Y-96911317D01*
X156803778Y-96908500D01*
X156803770Y-96908500D01*
X155876230Y-96908500D01*
X155876222Y-96908500D01*
X155840432Y-96911317D01*
X155840420Y-96911319D01*
X155687203Y-96955833D01*
X155549874Y-97037049D01*
X155549867Y-97037055D01*
X155437052Y-97149870D01*
X155395792Y-97219639D01*
X155343899Y-97268091D01*
X155287338Y-97281500D01*
X154948817Y-97281500D01*
X154880696Y-97261498D01*
X154859722Y-97244595D01*
X151950233Y-94335104D01*
X151950223Y-94335096D01*
X151834278Y-94268155D01*
X151834276Y-94268154D01*
X151834274Y-94268153D01*
X151704945Y-94233500D01*
X151704943Y-94233500D01*
X149614818Y-94233500D01*
X149546697Y-94213498D01*
X149525723Y-94196595D01*
X148231908Y-92902780D01*
X148197882Y-92840468D01*
X148202947Y-92769653D01*
X148245494Y-92712817D01*
X148312014Y-92688006D01*
X148353610Y-92691978D01*
X148368537Y-92695978D01*
X148590000Y-92715353D01*
X148811463Y-92695978D01*
X149026196Y-92638440D01*
X149227677Y-92544488D01*
X149409781Y-92416977D01*
X149566977Y-92259781D01*
X149694488Y-92077677D01*
X149745805Y-91967626D01*
X149792722Y-91914342D01*
X149860999Y-91894881D01*
X149928959Y-91915423D01*
G37*
G04 #@! TD.AperFunction*
G04 #@! TA.AperFunction,Conductor*
G36*
X140496619Y-89096081D02*
G01*
X140563498Y-89211920D01*
X140658080Y-89306502D01*
X140773919Y-89373381D01*
X140838519Y-89390690D01*
X140269395Y-89959813D01*
X140269395Y-89959814D01*
X140332575Y-90004053D01*
X140332574Y-90004053D01*
X140442964Y-90055529D01*
X140496249Y-90102447D01*
X140515710Y-90170724D01*
X140495168Y-90238684D01*
X140442964Y-90283919D01*
X140332323Y-90335512D01*
X140150222Y-90463020D01*
X140150216Y-90463025D01*
X139993025Y-90620216D01*
X139993020Y-90620222D01*
X139865512Y-90802323D01*
X139814195Y-90912373D01*
X139767277Y-90965658D01*
X139699000Y-90985119D01*
X139631040Y-90964577D01*
X139585805Y-90912373D01*
X139575964Y-90891269D01*
X139534488Y-90802324D01*
X139406977Y-90620219D01*
X139249781Y-90463023D01*
X139249777Y-90463020D01*
X139249772Y-90463016D01*
X139067677Y-90335512D01*
X139067675Y-90335511D01*
X138987350Y-90298055D01*
X138957034Y-90283918D01*
X138903750Y-90237002D01*
X138884289Y-90168725D01*
X138904831Y-90100765D01*
X138957035Y-90055529D01*
X139067425Y-90004053D01*
X139067426Y-90004052D01*
X139130603Y-89959814D01*
X139130603Y-89959812D01*
X138561481Y-89390690D01*
X138626081Y-89373381D01*
X138741920Y-89306502D01*
X138836502Y-89211920D01*
X138903381Y-89096081D01*
X138920690Y-89031481D01*
X139489812Y-89600603D01*
X139489814Y-89600603D01*
X139534052Y-89537426D01*
X139534053Y-89537425D01*
X139585805Y-89426443D01*
X139632722Y-89373158D01*
X139700999Y-89353697D01*
X139768959Y-89374239D01*
X139814195Y-89426443D01*
X139865946Y-89537425D01*
X139910184Y-89600603D01*
X139910185Y-89600603D01*
X140479309Y-89031479D01*
X140496619Y-89096081D01*
G37*
G04 #@! TD.AperFunction*
G04 #@! TA.AperFunction,Conductor*
G36*
X143036619Y-89096081D02*
G01*
X143103498Y-89211920D01*
X143198080Y-89306502D01*
X143313919Y-89373381D01*
X143378519Y-89390690D01*
X142809395Y-89959813D01*
X142809395Y-89959814D01*
X142872575Y-90004053D01*
X142872574Y-90004053D01*
X142982964Y-90055529D01*
X143036249Y-90102447D01*
X143055710Y-90170724D01*
X143035168Y-90238684D01*
X142982964Y-90283919D01*
X142872323Y-90335512D01*
X142690222Y-90463020D01*
X142690216Y-90463025D01*
X142533025Y-90620216D01*
X142533020Y-90620222D01*
X142405512Y-90802323D01*
X142354195Y-90912373D01*
X142307277Y-90965658D01*
X142239000Y-90985119D01*
X142171040Y-90964577D01*
X142125805Y-90912373D01*
X142115964Y-90891269D01*
X142074488Y-90802324D01*
X141946977Y-90620219D01*
X141789781Y-90463023D01*
X141789777Y-90463020D01*
X141789772Y-90463016D01*
X141607677Y-90335512D01*
X141607675Y-90335511D01*
X141527350Y-90298055D01*
X141497034Y-90283918D01*
X141443750Y-90237002D01*
X141424289Y-90168725D01*
X141444831Y-90100765D01*
X141497035Y-90055529D01*
X141607425Y-90004053D01*
X141607426Y-90004052D01*
X141670603Y-89959814D01*
X141670603Y-89959812D01*
X141101481Y-89390690D01*
X141166081Y-89373381D01*
X141281920Y-89306502D01*
X141376502Y-89211920D01*
X141443381Y-89096081D01*
X141460690Y-89031481D01*
X142029812Y-89600603D01*
X142029814Y-89600603D01*
X142074052Y-89537426D01*
X142074053Y-89537425D01*
X142125805Y-89426443D01*
X142172722Y-89373158D01*
X142240999Y-89353697D01*
X142308959Y-89374239D01*
X142354195Y-89426443D01*
X142405946Y-89537425D01*
X142450184Y-89600603D01*
X142450185Y-89600603D01*
X143019309Y-89031479D01*
X143036619Y-89096081D01*
G37*
G04 #@! TD.AperFunction*
G04 #@! TA.AperFunction,Conductor*
G36*
X145576619Y-89096081D02*
G01*
X145643498Y-89211920D01*
X145738080Y-89306502D01*
X145853919Y-89373381D01*
X145918519Y-89390690D01*
X145349395Y-89959813D01*
X145349395Y-89959814D01*
X145412575Y-90004053D01*
X145412574Y-90004053D01*
X145522964Y-90055529D01*
X145576249Y-90102447D01*
X145595710Y-90170724D01*
X145575168Y-90238684D01*
X145522964Y-90283919D01*
X145412323Y-90335512D01*
X145230222Y-90463020D01*
X145230216Y-90463025D01*
X145073025Y-90620216D01*
X145073020Y-90620222D01*
X144945512Y-90802323D01*
X144894195Y-90912373D01*
X144847277Y-90965658D01*
X144779000Y-90985119D01*
X144711040Y-90964577D01*
X144665805Y-90912373D01*
X144655964Y-90891269D01*
X144614488Y-90802324D01*
X144486977Y-90620219D01*
X144329781Y-90463023D01*
X144329777Y-90463020D01*
X144329772Y-90463016D01*
X144147677Y-90335512D01*
X144147675Y-90335511D01*
X144067350Y-90298055D01*
X144037034Y-90283918D01*
X143983750Y-90237002D01*
X143964289Y-90168725D01*
X143984831Y-90100765D01*
X144037035Y-90055529D01*
X144147425Y-90004053D01*
X144147426Y-90004052D01*
X144210603Y-89959814D01*
X144210603Y-89959812D01*
X143641481Y-89390690D01*
X143706081Y-89373381D01*
X143821920Y-89306502D01*
X143916502Y-89211920D01*
X143983381Y-89096081D01*
X144000690Y-89031481D01*
X144569812Y-89600603D01*
X144569814Y-89600603D01*
X144614052Y-89537426D01*
X144614053Y-89537425D01*
X144665805Y-89426443D01*
X144712722Y-89373158D01*
X144780999Y-89353697D01*
X144848959Y-89374239D01*
X144894195Y-89426443D01*
X144945946Y-89537425D01*
X144990184Y-89600603D01*
X144990185Y-89600603D01*
X145559309Y-89031479D01*
X145576619Y-89096081D01*
G37*
G04 #@! TD.AperFunction*
G04 #@! TA.AperFunction,Conductor*
G36*
X148116619Y-89096081D02*
G01*
X148183498Y-89211920D01*
X148278080Y-89306502D01*
X148393919Y-89373381D01*
X148458519Y-89390690D01*
X147889395Y-89959813D01*
X147889395Y-89959814D01*
X147952575Y-90004053D01*
X147952574Y-90004053D01*
X148062964Y-90055529D01*
X148116249Y-90102447D01*
X148135710Y-90170724D01*
X148115168Y-90238684D01*
X148062964Y-90283919D01*
X147952323Y-90335512D01*
X147770222Y-90463020D01*
X147770216Y-90463025D01*
X147613025Y-90620216D01*
X147613020Y-90620222D01*
X147485512Y-90802323D01*
X147434195Y-90912373D01*
X147387277Y-90965658D01*
X147319000Y-90985119D01*
X147251040Y-90964577D01*
X147205805Y-90912373D01*
X147195964Y-90891269D01*
X147154488Y-90802324D01*
X147026977Y-90620219D01*
X146869781Y-90463023D01*
X146869777Y-90463020D01*
X146869772Y-90463016D01*
X146687677Y-90335512D01*
X146687675Y-90335511D01*
X146607350Y-90298055D01*
X146577034Y-90283918D01*
X146523750Y-90237002D01*
X146504289Y-90168725D01*
X146524831Y-90100765D01*
X146577035Y-90055529D01*
X146687425Y-90004053D01*
X146687426Y-90004052D01*
X146750603Y-89959814D01*
X146750603Y-89959812D01*
X146181481Y-89390690D01*
X146246081Y-89373381D01*
X146361920Y-89306502D01*
X146456502Y-89211920D01*
X146523381Y-89096081D01*
X146540690Y-89031481D01*
X147109812Y-89600603D01*
X147109814Y-89600603D01*
X147154052Y-89537426D01*
X147154053Y-89537425D01*
X147205805Y-89426443D01*
X147252722Y-89373158D01*
X147320999Y-89353697D01*
X147388959Y-89374239D01*
X147434195Y-89426443D01*
X147485946Y-89537425D01*
X147530184Y-89600603D01*
X147530185Y-89600603D01*
X148099309Y-89031479D01*
X148116619Y-89096081D01*
G37*
G04 #@! TD.AperFunction*
G04 #@! TA.AperFunction,Conductor*
G36*
X150656619Y-89096081D02*
G01*
X150723498Y-89211920D01*
X150818080Y-89306502D01*
X150933919Y-89373381D01*
X150998519Y-89390690D01*
X150429395Y-89959813D01*
X150429395Y-89959814D01*
X150492575Y-90004053D01*
X150492574Y-90004053D01*
X150602964Y-90055529D01*
X150656249Y-90102447D01*
X150675710Y-90170724D01*
X150655168Y-90238684D01*
X150602964Y-90283919D01*
X150492323Y-90335512D01*
X150310222Y-90463020D01*
X150310216Y-90463025D01*
X150153025Y-90620216D01*
X150153020Y-90620222D01*
X150025512Y-90802323D01*
X149974195Y-90912373D01*
X149927277Y-90965658D01*
X149859000Y-90985119D01*
X149791040Y-90964577D01*
X149745805Y-90912373D01*
X149735964Y-90891269D01*
X149694488Y-90802324D01*
X149566977Y-90620219D01*
X149409781Y-90463023D01*
X149409777Y-90463020D01*
X149409772Y-90463016D01*
X149227677Y-90335512D01*
X149227675Y-90335511D01*
X149147350Y-90298055D01*
X149117034Y-90283918D01*
X149063750Y-90237002D01*
X149044289Y-90168725D01*
X149064831Y-90100765D01*
X149117035Y-90055529D01*
X149227425Y-90004053D01*
X149227426Y-90004052D01*
X149290603Y-89959814D01*
X149290603Y-89959812D01*
X148721481Y-89390690D01*
X148786081Y-89373381D01*
X148901920Y-89306502D01*
X148996502Y-89211920D01*
X149063381Y-89096081D01*
X149080690Y-89031481D01*
X149649812Y-89600603D01*
X149649814Y-89600603D01*
X149694052Y-89537426D01*
X149694053Y-89537425D01*
X149745805Y-89426443D01*
X149792722Y-89373158D01*
X149860999Y-89353697D01*
X149928959Y-89374239D01*
X149974195Y-89426443D01*
X150025946Y-89537425D01*
X150070184Y-89600603D01*
X150070185Y-89600603D01*
X150639309Y-89031479D01*
X150656619Y-89096081D01*
G37*
G04 #@! TD.AperFunction*
G04 #@! TA.AperFunction,Conductor*
G36*
X152189812Y-89600603D02*
G01*
X152189814Y-89600603D01*
X152234052Y-89537426D01*
X152234053Y-89537425D01*
X152285529Y-89427035D01*
X152332446Y-89373750D01*
X152400723Y-89354289D01*
X152468683Y-89374831D01*
X152513919Y-89427035D01*
X152565511Y-89537675D01*
X152565512Y-89537677D01*
X152693016Y-89719772D01*
X152693020Y-89719777D01*
X152693023Y-89719781D01*
X152850219Y-89876977D01*
X152850222Y-89876979D01*
X152850227Y-89876983D01*
X152954124Y-89949732D01*
X153032323Y-90004488D01*
X153141781Y-90055529D01*
X153142373Y-90055805D01*
X153195658Y-90102722D01*
X153215119Y-90170999D01*
X153194577Y-90238959D01*
X153142373Y-90284195D01*
X153032323Y-90335512D01*
X152850222Y-90463020D01*
X152850216Y-90463025D01*
X152693025Y-90620216D01*
X152693020Y-90620222D01*
X152565512Y-90802323D01*
X152514195Y-90912373D01*
X152467277Y-90965658D01*
X152399000Y-90985119D01*
X152331040Y-90964577D01*
X152285805Y-90912373D01*
X152275964Y-90891269D01*
X152234488Y-90802324D01*
X152106977Y-90620219D01*
X151949781Y-90463023D01*
X151949777Y-90463020D01*
X151949772Y-90463016D01*
X151767677Y-90335512D01*
X151767675Y-90335511D01*
X151687350Y-90298055D01*
X151657034Y-90283918D01*
X151603750Y-90237002D01*
X151584289Y-90168725D01*
X151604831Y-90100765D01*
X151657035Y-90055529D01*
X151767425Y-90004053D01*
X151767426Y-90004052D01*
X151830603Y-89959814D01*
X151830603Y-89959812D01*
X151261481Y-89390690D01*
X151326081Y-89373381D01*
X151441920Y-89306502D01*
X151536502Y-89211920D01*
X151603381Y-89096081D01*
X151620690Y-89031481D01*
X152189812Y-89600603D01*
G37*
G04 #@! TD.AperFunction*
G04 #@! TA.AperFunction,Conductor*
G36*
X137956619Y-89096081D02*
G01*
X138023498Y-89211920D01*
X138118080Y-89306502D01*
X138233919Y-89373381D01*
X138298519Y-89390690D01*
X137729395Y-89959813D01*
X137729395Y-89959814D01*
X137792575Y-90004053D01*
X137792574Y-90004053D01*
X137902964Y-90055529D01*
X137956249Y-90102447D01*
X137975710Y-90170724D01*
X137955168Y-90238684D01*
X137902964Y-90283919D01*
X137792323Y-90335512D01*
X137610222Y-90463020D01*
X137610216Y-90463025D01*
X137453025Y-90620216D01*
X137453020Y-90620222D01*
X137378454Y-90726713D01*
X137322996Y-90771041D01*
X137252377Y-90778350D01*
X137189017Y-90746319D01*
X137154245Y-90689597D01*
X137113168Y-90548208D01*
X137113166Y-90548206D01*
X137113166Y-90548203D01*
X137031950Y-90410874D01*
X137031944Y-90410867D01*
X136919132Y-90298055D01*
X136919125Y-90298049D01*
X136781796Y-90216833D01*
X136640404Y-90175755D01*
X136580568Y-90137542D01*
X136550891Y-90073045D01*
X136560795Y-90002743D01*
X136603287Y-89951545D01*
X136709772Y-89876983D01*
X136709781Y-89876977D01*
X136866977Y-89719781D01*
X136994488Y-89537677D01*
X137046081Y-89427034D01*
X137092996Y-89373751D01*
X137161273Y-89354289D01*
X137229234Y-89374830D01*
X137274469Y-89427034D01*
X137325943Y-89537420D01*
X137325946Y-89537425D01*
X137370184Y-89600603D01*
X137370185Y-89600603D01*
X137939309Y-89031479D01*
X137956619Y-89096081D01*
G37*
G04 #@! TD.AperFunction*
M02*
