G04 #@! TF.FileFunction,Legend,Bot*
%FSLAX46Y46*%
G04 Gerber Fmt 4.6, Leading zero omitted, Abs format (unit mm)*
G04 Created by KiCad (PCBNEW (2015-12-09 BZR 6195)-product) date Sat Feb 25 21:50:35 2017*
%MOMM*%
G01*
G04 APERTURE LIST*
%ADD10C,0.100000*%
%ADD11C,0.150000*%
%ADD12C,1.016000*%
%ADD13C,2.032000*%
%ADD14R,2.032000X1.778000*%
%ADD15C,2.499360*%
%ADD16R,1.270000X2.780000*%
%ADD17R,1.778000X1.778000*%
%ADD18C,1.778000*%
%ADD19R,1.000000X1.300000*%
%ADD20R,1.300000X1.000000*%
%ADD21R,1.300000X1.200000*%
%ADD22C,0.889000*%
G04 APERTURE END LIST*
D10*
D11*
X159581857Y-89841429D02*
X159381857Y-90441429D01*
X159181857Y-89841429D01*
X159010428Y-90270000D02*
X158724714Y-90270000D01*
X159067571Y-90441429D02*
X158867571Y-89841429D01*
X158667571Y-90441429D01*
X158496142Y-90270000D02*
X158210428Y-90270000D01*
X158553285Y-90441429D02*
X158353285Y-89841429D01*
X158153285Y-90441429D01*
X159581857Y-92381429D02*
X159381857Y-92981429D01*
X159181857Y-92381429D01*
X158639000Y-92924286D02*
X158667571Y-92952857D01*
X158753285Y-92981429D01*
X158810428Y-92981429D01*
X158896143Y-92952857D01*
X158953285Y-92895714D01*
X158981857Y-92838571D01*
X159010428Y-92724286D01*
X159010428Y-92638571D01*
X158981857Y-92524286D01*
X158953285Y-92467143D01*
X158896143Y-92410000D01*
X158810428Y-92381429D01*
X158753285Y-92381429D01*
X158667571Y-92410000D01*
X158639000Y-92438571D01*
X158039000Y-92924286D02*
X158067571Y-92952857D01*
X158153285Y-92981429D01*
X158210428Y-92981429D01*
X158296143Y-92952857D01*
X158353285Y-92895714D01*
X158381857Y-92838571D01*
X158410428Y-92724286D01*
X158410428Y-92638571D01*
X158381857Y-92524286D01*
X158353285Y-92467143D01*
X158296143Y-92410000D01*
X158210428Y-92381429D01*
X158153285Y-92381429D01*
X158067571Y-92410000D01*
X158039000Y-92438571D01*
X159524714Y-105652857D02*
X159439000Y-105681429D01*
X159296143Y-105681429D01*
X159239000Y-105652857D01*
X159210429Y-105624286D01*
X159181857Y-105567143D01*
X159181857Y-105510000D01*
X159210429Y-105452857D01*
X159239000Y-105424286D01*
X159296143Y-105395714D01*
X159410429Y-105367143D01*
X159467571Y-105338571D01*
X159496143Y-105310000D01*
X159524714Y-105252857D01*
X159524714Y-105195714D01*
X159496143Y-105138571D01*
X159467571Y-105110000D01*
X159410429Y-105081429D01*
X159267571Y-105081429D01*
X159181857Y-105110000D01*
X158581857Y-105624286D02*
X158610428Y-105652857D01*
X158696142Y-105681429D01*
X158753285Y-105681429D01*
X158839000Y-105652857D01*
X158896142Y-105595714D01*
X158924714Y-105538571D01*
X158953285Y-105424286D01*
X158953285Y-105338571D01*
X158924714Y-105224286D01*
X158896142Y-105167143D01*
X158839000Y-105110000D01*
X158753285Y-105081429D01*
X158696142Y-105081429D01*
X158610428Y-105110000D01*
X158581857Y-105138571D01*
X158039000Y-105681429D02*
X158324714Y-105681429D01*
X158324714Y-105081429D01*
X157839000Y-105681429D02*
X157839000Y-105081429D01*
X157496143Y-105681429D02*
X157753286Y-105338571D01*
X157496143Y-105081429D02*
X157839000Y-105424286D01*
X159296143Y-102827143D02*
X159210429Y-102855714D01*
X159181857Y-102884286D01*
X159153286Y-102941429D01*
X159153286Y-103027143D01*
X159181857Y-103084286D01*
X159210429Y-103112857D01*
X159267571Y-103141429D01*
X159496143Y-103141429D01*
X159496143Y-102541429D01*
X159296143Y-102541429D01*
X159239000Y-102570000D01*
X159210429Y-102598571D01*
X159181857Y-102655714D01*
X159181857Y-102712857D01*
X159210429Y-102770000D01*
X159239000Y-102798571D01*
X159296143Y-102827143D01*
X159496143Y-102827143D01*
X158610429Y-103141429D02*
X158896143Y-103141429D01*
X158896143Y-102541429D01*
X158439000Y-102970000D02*
X158153286Y-102970000D01*
X158496143Y-103141429D02*
X158296143Y-102541429D01*
X158096143Y-103141429D01*
X157896143Y-103141429D02*
X157896143Y-102541429D01*
X157553286Y-103141429D01*
X157553286Y-102541429D01*
X157267572Y-103141429D02*
X157267572Y-102541429D01*
X156924715Y-103141429D02*
X157181858Y-102798571D01*
X156924715Y-102541429D02*
X157267572Y-102884286D01*
X159210429Y-100601429D02*
X159496143Y-100601429D01*
X159496143Y-100001429D01*
X159039000Y-100430000D02*
X158753286Y-100430000D01*
X159096143Y-100601429D02*
X158896143Y-100001429D01*
X158696143Y-100601429D01*
X158581857Y-100001429D02*
X158239000Y-100001429D01*
X158410429Y-100601429D02*
X158410429Y-100001429D01*
X159524714Y-98032857D02*
X159439000Y-98061429D01*
X159296143Y-98061429D01*
X159239000Y-98032857D01*
X159210429Y-98004286D01*
X159181857Y-97947143D01*
X159181857Y-97890000D01*
X159210429Y-97832857D01*
X159239000Y-97804286D01*
X159296143Y-97775714D01*
X159410429Y-97747143D01*
X159467571Y-97718571D01*
X159496143Y-97690000D01*
X159524714Y-97632857D01*
X159524714Y-97575714D01*
X159496143Y-97518571D01*
X159467571Y-97490000D01*
X159410429Y-97461429D01*
X159267571Y-97461429D01*
X159181857Y-97490000D01*
X158810428Y-97461429D02*
X158696142Y-97461429D01*
X158639000Y-97490000D01*
X158581857Y-97547143D01*
X158553285Y-97661429D01*
X158553285Y-97861429D01*
X158581857Y-97975714D01*
X158639000Y-98032857D01*
X158696142Y-98061429D01*
X158810428Y-98061429D01*
X158867571Y-98032857D01*
X158924714Y-97975714D01*
X158953285Y-97861429D01*
X158953285Y-97661429D01*
X158924714Y-97547143D01*
X158867571Y-97490000D01*
X158810428Y-97461429D01*
X158296143Y-97461429D02*
X158296143Y-97947143D01*
X158267571Y-98004286D01*
X158239000Y-98032857D01*
X158181857Y-98061429D01*
X158067571Y-98061429D01*
X158010429Y-98032857D01*
X157981857Y-98004286D01*
X157953286Y-97947143D01*
X157953286Y-97461429D01*
X157753286Y-97461429D02*
X157410429Y-97461429D01*
X157581858Y-98061429D02*
X157581858Y-97461429D01*
X147280000Y-96560000D02*
X147030000Y-96560000D01*
X147280000Y-101560000D02*
X147030000Y-101560000D01*
X142530000Y-101560000D02*
X142530000Y-102060000D01*
X142280000Y-101560000D02*
X142530000Y-101560000D01*
X142530000Y-96560000D02*
X142530000Y-96060000D01*
X142280000Y-96560000D02*
X142530000Y-96560000D01*
X147280000Y-101560000D02*
X147280000Y-96560000D01*
X142280000Y-101560000D02*
X142280000Y-96560000D01*
X134839000Y-103265000D02*
X133639000Y-103265000D01*
X133639000Y-105015000D02*
X134839000Y-105015000D01*
X133639000Y-102475000D02*
X134839000Y-102475000D01*
X134839000Y-100725000D02*
X133639000Y-100725000D01*
X134839000Y-95645000D02*
X133639000Y-95645000D01*
X133639000Y-97395000D02*
X134839000Y-97395000D01*
X133639000Y-99935000D02*
X134839000Y-99935000D01*
X134839000Y-98185000D02*
X133639000Y-98185000D01*
X147990000Y-94855000D02*
X149190000Y-94855000D01*
X149190000Y-93105000D02*
X147990000Y-93105000D01*
X157212000Y-100676000D02*
X157212000Y-99476000D01*
X155462000Y-99476000D02*
X155462000Y-100676000D01*
X150460000Y-95137000D02*
X149260000Y-95137000D01*
X149260000Y-96887000D02*
X150460000Y-96887000D01*
X148971000Y-98810000D02*
X148971000Y-98560000D01*
X148971000Y-99310000D02*
X148971000Y-99560000D01*
X148971000Y-99310000D02*
X149321000Y-98810000D01*
X149321000Y-98810000D02*
X148621000Y-98810000D01*
X148621000Y-98810000D02*
X148971000Y-99310000D01*
X149321000Y-99310000D02*
X148621000Y-99310000D01*
X148096000Y-99660000D02*
X148096000Y-98460000D01*
X149846000Y-99660000D02*
X149846000Y-98460000D01*
X147065714Y-104036762D02*
X146922857Y-104084381D01*
X146684761Y-104084381D01*
X146589523Y-104036762D01*
X146541904Y-103989143D01*
X146494285Y-103893905D01*
X146494285Y-103798667D01*
X146541904Y-103703429D01*
X146589523Y-103655810D01*
X146684761Y-103608190D01*
X146875238Y-103560571D01*
X146970476Y-103512952D01*
X147018095Y-103465333D01*
X147065714Y-103370095D01*
X147065714Y-103274857D01*
X147018095Y-103179619D01*
X146970476Y-103132000D01*
X146875238Y-103084381D01*
X146637142Y-103084381D01*
X146494285Y-103132000D01*
X146160952Y-103084381D02*
X145922857Y-104084381D01*
X145732380Y-103370095D01*
X145541904Y-104084381D01*
X145303809Y-103084381D01*
X144399047Y-104084381D02*
X144970476Y-104084381D01*
X144684762Y-104084381D02*
X144684762Y-103084381D01*
X144780000Y-103227238D01*
X144875238Y-103322476D01*
X144970476Y-103370095D01*
X143780000Y-103084381D02*
X143684761Y-103084381D01*
X143589523Y-103132000D01*
X143541904Y-103179619D01*
X143494285Y-103274857D01*
X143446666Y-103465333D01*
X143446666Y-103703429D01*
X143494285Y-103893905D01*
X143541904Y-103989143D01*
X143589523Y-104036762D01*
X143684761Y-104084381D01*
X143780000Y-104084381D01*
X143875238Y-104036762D01*
X143922857Y-103989143D01*
X143970476Y-103893905D01*
X144018095Y-103703429D01*
X144018095Y-103465333D01*
X143970476Y-103274857D01*
X143922857Y-103179619D01*
X143875238Y-103132000D01*
X143780000Y-103084381D01*
X142494285Y-104084381D02*
X143065714Y-104084381D01*
X142780000Y-104084381D02*
X142780000Y-103084381D01*
X142875238Y-103227238D01*
X142970476Y-103322476D01*
X143065714Y-103370095D01*
X139168047Y-103449381D02*
X139501381Y-102973190D01*
X139739476Y-103449381D02*
X139739476Y-102449381D01*
X139358523Y-102449381D01*
X139263285Y-102497000D01*
X139215666Y-102544619D01*
X139168047Y-102639857D01*
X139168047Y-102782714D01*
X139215666Y-102877952D01*
X139263285Y-102925571D01*
X139358523Y-102973190D01*
X139739476Y-102973190D01*
X138215666Y-103449381D02*
X138787095Y-103449381D01*
X138501381Y-103449381D02*
X138501381Y-102449381D01*
X138596619Y-102592238D01*
X138691857Y-102687476D01*
X138787095Y-102735095D01*
X137596619Y-102449381D02*
X137501380Y-102449381D01*
X137406142Y-102497000D01*
X137358523Y-102544619D01*
X137310904Y-102639857D01*
X137263285Y-102830333D01*
X137263285Y-103068429D01*
X137310904Y-103258905D01*
X137358523Y-103354143D01*
X137406142Y-103401762D01*
X137501380Y-103449381D01*
X137596619Y-103449381D01*
X137691857Y-103401762D01*
X137739476Y-103354143D01*
X137787095Y-103258905D01*
X137834714Y-103068429D01*
X137834714Y-102830333D01*
X137787095Y-102639857D01*
X137739476Y-102544619D01*
X137691857Y-102497000D01*
X137596619Y-102449381D01*
X136929952Y-102449381D02*
X136310904Y-102449381D01*
X136644238Y-102830333D01*
X136501380Y-102830333D01*
X136406142Y-102877952D01*
X136358523Y-102925571D01*
X136310904Y-103020810D01*
X136310904Y-103258905D01*
X136358523Y-103354143D01*
X136406142Y-103401762D01*
X136501380Y-103449381D01*
X136787095Y-103449381D01*
X136882333Y-103401762D01*
X136929952Y-103354143D01*
X139168047Y-102052381D02*
X139501381Y-101576190D01*
X139739476Y-102052381D02*
X139739476Y-101052381D01*
X139358523Y-101052381D01*
X139263285Y-101100000D01*
X139215666Y-101147619D01*
X139168047Y-101242857D01*
X139168047Y-101385714D01*
X139215666Y-101480952D01*
X139263285Y-101528571D01*
X139358523Y-101576190D01*
X139739476Y-101576190D01*
X138215666Y-102052381D02*
X138787095Y-102052381D01*
X138501381Y-102052381D02*
X138501381Y-101052381D01*
X138596619Y-101195238D01*
X138691857Y-101290476D01*
X138787095Y-101338095D01*
X137596619Y-101052381D02*
X137501380Y-101052381D01*
X137406142Y-101100000D01*
X137358523Y-101147619D01*
X137310904Y-101242857D01*
X137263285Y-101433333D01*
X137263285Y-101671429D01*
X137310904Y-101861905D01*
X137358523Y-101957143D01*
X137406142Y-102004762D01*
X137501380Y-102052381D01*
X137596619Y-102052381D01*
X137691857Y-102004762D01*
X137739476Y-101957143D01*
X137787095Y-101861905D01*
X137834714Y-101671429D01*
X137834714Y-101433333D01*
X137787095Y-101242857D01*
X137739476Y-101147619D01*
X137691857Y-101100000D01*
X137596619Y-101052381D01*
X136406142Y-101385714D02*
X136406142Y-102052381D01*
X136644238Y-101004762D02*
X136882333Y-101719048D01*
X136263285Y-101719048D01*
X139168047Y-96972381D02*
X139501381Y-96496190D01*
X139739476Y-96972381D02*
X139739476Y-95972381D01*
X139358523Y-95972381D01*
X139263285Y-96020000D01*
X139215666Y-96067619D01*
X139168047Y-96162857D01*
X139168047Y-96305714D01*
X139215666Y-96400952D01*
X139263285Y-96448571D01*
X139358523Y-96496190D01*
X139739476Y-96496190D01*
X138215666Y-96972381D02*
X138787095Y-96972381D01*
X138501381Y-96972381D02*
X138501381Y-95972381D01*
X138596619Y-96115238D01*
X138691857Y-96210476D01*
X138787095Y-96258095D01*
X137596619Y-95972381D02*
X137501380Y-95972381D01*
X137406142Y-96020000D01*
X137358523Y-96067619D01*
X137310904Y-96162857D01*
X137263285Y-96353333D01*
X137263285Y-96591429D01*
X137310904Y-96781905D01*
X137358523Y-96877143D01*
X137406142Y-96924762D01*
X137501380Y-96972381D01*
X137596619Y-96972381D01*
X137691857Y-96924762D01*
X137739476Y-96877143D01*
X137787095Y-96781905D01*
X137834714Y-96591429D01*
X137834714Y-96353333D01*
X137787095Y-96162857D01*
X137739476Y-96067619D01*
X137691857Y-96020000D01*
X137596619Y-95972381D01*
X136929952Y-95972381D02*
X136263285Y-95972381D01*
X136691857Y-96972381D01*
X139168047Y-98369381D02*
X139501381Y-97893190D01*
X139739476Y-98369381D02*
X139739476Y-97369381D01*
X139358523Y-97369381D01*
X139263285Y-97417000D01*
X139215666Y-97464619D01*
X139168047Y-97559857D01*
X139168047Y-97702714D01*
X139215666Y-97797952D01*
X139263285Y-97845571D01*
X139358523Y-97893190D01*
X139739476Y-97893190D01*
X138215666Y-98369381D02*
X138787095Y-98369381D01*
X138501381Y-98369381D02*
X138501381Y-97369381D01*
X138596619Y-97512238D01*
X138691857Y-97607476D01*
X138787095Y-97655095D01*
X137596619Y-97369381D02*
X137501380Y-97369381D01*
X137406142Y-97417000D01*
X137358523Y-97464619D01*
X137310904Y-97559857D01*
X137263285Y-97750333D01*
X137263285Y-97988429D01*
X137310904Y-98178905D01*
X137358523Y-98274143D01*
X137406142Y-98321762D01*
X137501380Y-98369381D01*
X137596619Y-98369381D01*
X137691857Y-98321762D01*
X137739476Y-98274143D01*
X137787095Y-98178905D01*
X137834714Y-97988429D01*
X137834714Y-97750333D01*
X137787095Y-97559857D01*
X137739476Y-97464619D01*
X137691857Y-97417000D01*
X137596619Y-97369381D01*
X136691857Y-97797952D02*
X136787095Y-97750333D01*
X136834714Y-97702714D01*
X136882333Y-97607476D01*
X136882333Y-97559857D01*
X136834714Y-97464619D01*
X136787095Y-97417000D01*
X136691857Y-97369381D01*
X136501380Y-97369381D01*
X136406142Y-97417000D01*
X136358523Y-97464619D01*
X136310904Y-97559857D01*
X136310904Y-97607476D01*
X136358523Y-97702714D01*
X136406142Y-97750333D01*
X136501380Y-97797952D01*
X136691857Y-97797952D01*
X136787095Y-97845571D01*
X136834714Y-97893190D01*
X136882333Y-97988429D01*
X136882333Y-98178905D01*
X136834714Y-98274143D01*
X136787095Y-98321762D01*
X136691857Y-98369381D01*
X136501380Y-98369381D01*
X136406142Y-98321762D01*
X136358523Y-98274143D01*
X136310904Y-98178905D01*
X136310904Y-97988429D01*
X136358523Y-97893190D01*
X136406142Y-97845571D01*
X136501380Y-97797952D01*
X146026047Y-94432381D02*
X146359381Y-93956190D01*
X146597476Y-94432381D02*
X146597476Y-93432381D01*
X146216523Y-93432381D01*
X146121285Y-93480000D01*
X146073666Y-93527619D01*
X146026047Y-93622857D01*
X146026047Y-93765714D01*
X146073666Y-93860952D01*
X146121285Y-93908571D01*
X146216523Y-93956190D01*
X146597476Y-93956190D01*
X145073666Y-94432381D02*
X145645095Y-94432381D01*
X145359381Y-94432381D02*
X145359381Y-93432381D01*
X145454619Y-93575238D01*
X145549857Y-93670476D01*
X145645095Y-93718095D01*
X144454619Y-93432381D02*
X144359380Y-93432381D01*
X144264142Y-93480000D01*
X144216523Y-93527619D01*
X144168904Y-93622857D01*
X144121285Y-93813333D01*
X144121285Y-94051429D01*
X144168904Y-94241905D01*
X144216523Y-94337143D01*
X144264142Y-94384762D01*
X144359380Y-94432381D01*
X144454619Y-94432381D01*
X144549857Y-94384762D01*
X144597476Y-94337143D01*
X144645095Y-94241905D01*
X144692714Y-94051429D01*
X144692714Y-93813333D01*
X144645095Y-93622857D01*
X144597476Y-93527619D01*
X144549857Y-93480000D01*
X144454619Y-93432381D01*
X143645095Y-94432381D02*
X143454619Y-94432381D01*
X143359380Y-94384762D01*
X143311761Y-94337143D01*
X143216523Y-94194286D01*
X143168904Y-94003810D01*
X143168904Y-93622857D01*
X143216523Y-93527619D01*
X143264142Y-93480000D01*
X143359380Y-93432381D01*
X143549857Y-93432381D01*
X143645095Y-93480000D01*
X143692714Y-93527619D01*
X143740333Y-93622857D01*
X143740333Y-93860952D01*
X143692714Y-93956190D01*
X143645095Y-94003810D01*
X143549857Y-94051429D01*
X143359380Y-94051429D01*
X143264142Y-94003810D01*
X143216523Y-93956190D01*
X143168904Y-93860952D01*
X155138381Y-98956953D02*
X154662190Y-98623619D01*
X155138381Y-98385524D02*
X154138381Y-98385524D01*
X154138381Y-98766477D01*
X154186000Y-98861715D01*
X154233619Y-98909334D01*
X154328857Y-98956953D01*
X154471714Y-98956953D01*
X154566952Y-98909334D01*
X154614571Y-98861715D01*
X154662190Y-98766477D01*
X154662190Y-98385524D01*
X155138381Y-99909334D02*
X155138381Y-99337905D01*
X155138381Y-99623619D02*
X154138381Y-99623619D01*
X154281238Y-99528381D01*
X154376476Y-99433143D01*
X154424095Y-99337905D01*
X155138381Y-100861715D02*
X155138381Y-100290286D01*
X155138381Y-100576000D02*
X154138381Y-100576000D01*
X154281238Y-100480762D01*
X154376476Y-100385524D01*
X154424095Y-100290286D01*
X155138381Y-101814096D02*
X155138381Y-101242667D01*
X155138381Y-101528381D02*
X154138381Y-101528381D01*
X154281238Y-101433143D01*
X154376476Y-101337905D01*
X154424095Y-101242667D01*
X154662047Y-96464381D02*
X154995381Y-95988190D01*
X155233476Y-96464381D02*
X155233476Y-95464381D01*
X154852523Y-95464381D01*
X154757285Y-95512000D01*
X154709666Y-95559619D01*
X154662047Y-95654857D01*
X154662047Y-95797714D01*
X154709666Y-95892952D01*
X154757285Y-95940571D01*
X154852523Y-95988190D01*
X155233476Y-95988190D01*
X153709666Y-96464381D02*
X154281095Y-96464381D01*
X153995381Y-96464381D02*
X153995381Y-95464381D01*
X154090619Y-95607238D01*
X154185857Y-95702476D01*
X154281095Y-95750095D01*
X152757285Y-96464381D02*
X153328714Y-96464381D01*
X153043000Y-96464381D02*
X153043000Y-95464381D01*
X153138238Y-95607238D01*
X153233476Y-95702476D01*
X153328714Y-95750095D01*
X152376333Y-95559619D02*
X152328714Y-95512000D01*
X152233476Y-95464381D01*
X151995380Y-95464381D01*
X151900142Y-95512000D01*
X151852523Y-95559619D01*
X151804904Y-95654857D01*
X151804904Y-95750095D01*
X151852523Y-95892952D01*
X152423952Y-96464381D01*
X151804904Y-96464381D01*
X151201381Y-97369524D02*
X150201381Y-97369524D01*
X150201381Y-97607619D01*
X150249000Y-97750477D01*
X150344238Y-97845715D01*
X150439476Y-97893334D01*
X150629952Y-97940953D01*
X150772810Y-97940953D01*
X150963286Y-97893334D01*
X151058524Y-97845715D01*
X151153762Y-97750477D01*
X151201381Y-97607619D01*
X151201381Y-97369524D01*
X151201381Y-98893334D02*
X151201381Y-98321905D01*
X151201381Y-98607619D02*
X150201381Y-98607619D01*
X150344238Y-98512381D01*
X150439476Y-98417143D01*
X150487095Y-98321905D01*
X150201381Y-99512381D02*
X150201381Y-99607620D01*
X150249000Y-99702858D01*
X150296619Y-99750477D01*
X150391857Y-99798096D01*
X150582333Y-99845715D01*
X150820429Y-99845715D01*
X151010905Y-99798096D01*
X151106143Y-99750477D01*
X151153762Y-99702858D01*
X151201381Y-99607620D01*
X151201381Y-99512381D01*
X151153762Y-99417143D01*
X151106143Y-99369524D01*
X151010905Y-99321905D01*
X150820429Y-99274286D01*
X150582333Y-99274286D01*
X150391857Y-99321905D01*
X150296619Y-99369524D01*
X150249000Y-99417143D01*
X150201381Y-99512381D01*
X151201381Y-100798096D02*
X151201381Y-100226667D01*
X151201381Y-100512381D02*
X150201381Y-100512381D01*
X150344238Y-100417143D01*
X150439476Y-100321905D01*
X150487095Y-100226667D01*
%LPC*%
D12*
X138430000Y-93980000D03*
X140970000Y-96520000D03*
X158750000Y-106680000D03*
X130810000Y-106680000D03*
D13*
X158496000Y-96266000D03*
X131064000Y-96266000D03*
D12*
X152400000Y-109220000D03*
X152400000Y-104140000D03*
X140970000Y-106680000D03*
X140970000Y-101600000D03*
X130810000Y-104140000D03*
X130810000Y-101600000D03*
X130810000Y-99060000D03*
X158750000Y-104140000D03*
X158750000Y-101600000D03*
D14*
X128524000Y-90170000D03*
X128524000Y-92710000D03*
X128524000Y-95250000D03*
X128524000Y-97790000D03*
X128524000Y-100330000D03*
X128524000Y-102870000D03*
X128524000Y-105410000D03*
X128524000Y-107950000D03*
X161036000Y-107950000D03*
X161036000Y-105410000D03*
X161036000Y-102870000D03*
X161036000Y-100330000D03*
X161036000Y-97790000D03*
X161036000Y-95250000D03*
X161036000Y-92710000D03*
X161036000Y-90170000D03*
D12*
X158750000Y-99060000D03*
D15*
X129540000Y-87122000D03*
X160020000Y-87122000D03*
D16*
X143510000Y-101465000D03*
X146050000Y-101465000D03*
X143510000Y-96655000D03*
X146050000Y-96655000D03*
D17*
X135890000Y-91440000D03*
D18*
X135890000Y-88900000D03*
X138430000Y-91440000D03*
X138430000Y-88900000D03*
X140970000Y-91440000D03*
X140970000Y-88900000D03*
X143510000Y-91440000D03*
X143510000Y-88900000D03*
X146050000Y-91440000D03*
X146050000Y-88900000D03*
X148590000Y-91440000D03*
X148590000Y-88900000D03*
X151130000Y-91440000D03*
X151130000Y-88900000D03*
X153670000Y-91440000D03*
X153670000Y-88900000D03*
D19*
X135339000Y-104140000D03*
X133139000Y-104140000D03*
X133139000Y-101600000D03*
X135339000Y-101600000D03*
X135339000Y-96520000D03*
X133139000Y-96520000D03*
X133139000Y-99060000D03*
X135339000Y-99060000D03*
X147490000Y-93980000D03*
X149690000Y-93980000D03*
D20*
X156337000Y-101176000D03*
X156337000Y-98976000D03*
D19*
X150960000Y-96012000D03*
X148760000Y-96012000D03*
D21*
X148971000Y-100260000D03*
X148971000Y-97860000D03*
D12*
X137668000Y-99060000D03*
X137668000Y-104140000D03*
D22*
X148336000Y-102108000D03*
X149225000Y-102997000D03*
M02*
