G04 #@! TF.FileFunction,Legend,Top*
%FSLAX46Y46*%
G04 Gerber Fmt 4.6, Leading zero omitted, Abs format (unit mm)*
G04 Created by KiCad (PCBNEW (2015-12-09 BZR 6195)-product) date Sat Feb 25 21:50:35 2017*
%MOMM*%
G01*
G04 APERTURE LIST*
%ADD10C,0.100000*%
%ADD11C,0.150000*%
%ADD12C,1.016000*%
%ADD13C,2.032000*%
%ADD14R,2.032000X1.778000*%
%ADD15C,2.499360*%
%ADD16R,1.778000X1.778000*%
%ADD17C,1.778000*%
%ADD18R,1.000000X1.300000*%
%ADD19R,1.300000X1.000000*%
%ADD20R,1.300000X1.200000*%
%ADD21C,0.889000*%
G04 APERTURE END LIST*
D10*
D11*
X143563571Y-111827286D02*
X143563571Y-111255857D01*
X143849286Y-111541571D02*
X143277857Y-111541571D01*
X143099286Y-110970143D02*
X143099286Y-110505857D01*
X143385000Y-110755857D01*
X143385000Y-110648715D01*
X143420714Y-110577286D01*
X143456429Y-110541572D01*
X143527857Y-110505857D01*
X143706429Y-110505857D01*
X143777857Y-110541572D01*
X143813571Y-110577286D01*
X143849286Y-110648715D01*
X143849286Y-110863000D01*
X143813571Y-110934429D01*
X143777857Y-110970143D01*
X143777857Y-110184429D02*
X143813571Y-110148714D01*
X143849286Y-110184429D01*
X143813571Y-110220143D01*
X143777857Y-110184429D01*
X143849286Y-110184429D01*
X143099286Y-109898714D02*
X143099286Y-109434428D01*
X143385000Y-109684428D01*
X143385000Y-109577286D01*
X143420714Y-109505857D01*
X143456429Y-109470143D01*
X143527857Y-109434428D01*
X143706429Y-109434428D01*
X143777857Y-109470143D01*
X143813571Y-109505857D01*
X143849286Y-109577286D01*
X143849286Y-109791571D01*
X143813571Y-109863000D01*
X143777857Y-109898714D01*
X143349286Y-109184428D02*
X143849286Y-109005857D01*
X143349286Y-108827285D01*
X146103571Y-111827286D02*
X146103571Y-111255857D01*
X146389286Y-111541571D02*
X145817857Y-111541571D01*
X145639286Y-110970143D02*
X145639286Y-110505857D01*
X145925000Y-110755857D01*
X145925000Y-110648715D01*
X145960714Y-110577286D01*
X145996429Y-110541572D01*
X146067857Y-110505857D01*
X146246429Y-110505857D01*
X146317857Y-110541572D01*
X146353571Y-110577286D01*
X146389286Y-110648715D01*
X146389286Y-110863000D01*
X146353571Y-110934429D01*
X146317857Y-110970143D01*
X146317857Y-110184429D02*
X146353571Y-110148714D01*
X146389286Y-110184429D01*
X146353571Y-110220143D01*
X146317857Y-110184429D01*
X146389286Y-110184429D01*
X145639286Y-109684428D02*
X145639286Y-109613000D01*
X145675000Y-109541571D01*
X145710714Y-109505857D01*
X145782143Y-109470143D01*
X145925000Y-109434428D01*
X146103571Y-109434428D01*
X146246429Y-109470143D01*
X146317857Y-109505857D01*
X146353571Y-109541571D01*
X146389286Y-109613000D01*
X146389286Y-109684428D01*
X146353571Y-109755857D01*
X146317857Y-109791571D01*
X146246429Y-109827286D01*
X146103571Y-109863000D01*
X145925000Y-109863000D01*
X145782143Y-109827286D01*
X145710714Y-109791571D01*
X145675000Y-109755857D01*
X145639286Y-109684428D01*
X145889286Y-109184428D02*
X146389286Y-109005857D01*
X145889286Y-108827285D01*
X158267572Y-94442000D02*
X158210429Y-94413429D01*
X158124715Y-94413429D01*
X158039000Y-94442000D01*
X157981858Y-94499143D01*
X157953286Y-94556286D01*
X157924715Y-94670571D01*
X157924715Y-94756286D01*
X157953286Y-94870571D01*
X157981858Y-94927714D01*
X158039000Y-94984857D01*
X158124715Y-95013429D01*
X158181858Y-95013429D01*
X158267572Y-94984857D01*
X158296143Y-94956286D01*
X158296143Y-94756286D01*
X158181858Y-94756286D01*
X158553286Y-95013429D02*
X158553286Y-94413429D01*
X158896143Y-95013429D01*
X158896143Y-94413429D01*
X159181857Y-95013429D02*
X159181857Y-94413429D01*
X159324714Y-94413429D01*
X159410429Y-94442000D01*
X159467571Y-94499143D01*
X159496143Y-94556286D01*
X159524714Y-94670571D01*
X159524714Y-94756286D01*
X159496143Y-94870571D01*
X159467571Y-94927714D01*
X159410429Y-94984857D01*
X159324714Y-95013429D01*
X159181857Y-95013429D01*
X158013572Y-107650000D02*
X157956429Y-107621429D01*
X157870715Y-107621429D01*
X157785000Y-107650000D01*
X157727858Y-107707143D01*
X157699286Y-107764286D01*
X157670715Y-107878571D01*
X157670715Y-107964286D01*
X157699286Y-108078571D01*
X157727858Y-108135714D01*
X157785000Y-108192857D01*
X157870715Y-108221429D01*
X157927858Y-108221429D01*
X158013572Y-108192857D01*
X158042143Y-108164286D01*
X158042143Y-107964286D01*
X157927858Y-107964286D01*
X158299286Y-108221429D02*
X158299286Y-107621429D01*
X158642143Y-108221429D01*
X158642143Y-107621429D01*
X158927857Y-108221429D02*
X158927857Y-107621429D01*
X159070714Y-107621429D01*
X159156429Y-107650000D01*
X159213571Y-107707143D01*
X159242143Y-107764286D01*
X159270714Y-107878571D01*
X159270714Y-107964286D01*
X159242143Y-108078571D01*
X159213571Y-108135714D01*
X159156429Y-108192857D01*
X159070714Y-108221429D01*
X158927857Y-108221429D01*
X157153286Y-102827143D02*
X157239000Y-102855714D01*
X157267572Y-102884286D01*
X157296143Y-102941429D01*
X157296143Y-103027143D01*
X157267572Y-103084286D01*
X157239000Y-103112857D01*
X157181858Y-103141429D01*
X156953286Y-103141429D01*
X156953286Y-102541429D01*
X157153286Y-102541429D01*
X157210429Y-102570000D01*
X157239000Y-102598571D01*
X157267572Y-102655714D01*
X157267572Y-102712857D01*
X157239000Y-102770000D01*
X157210429Y-102798571D01*
X157153286Y-102827143D01*
X156953286Y-102827143D01*
X157839000Y-103141429D02*
X157553286Y-103141429D01*
X157553286Y-102541429D01*
X158010429Y-102970000D02*
X158296143Y-102970000D01*
X157953286Y-103141429D02*
X158153286Y-102541429D01*
X158353286Y-103141429D01*
X158553286Y-103141429D02*
X158553286Y-102541429D01*
X158896143Y-103141429D01*
X158896143Y-102541429D01*
X159181857Y-103141429D02*
X159181857Y-102541429D01*
X159524714Y-103141429D02*
X159267571Y-102798571D01*
X159524714Y-102541429D02*
X159181857Y-102884286D01*
X157496143Y-105652857D02*
X157581857Y-105681429D01*
X157724714Y-105681429D01*
X157781857Y-105652857D01*
X157810428Y-105624286D01*
X157839000Y-105567143D01*
X157839000Y-105510000D01*
X157810428Y-105452857D01*
X157781857Y-105424286D01*
X157724714Y-105395714D01*
X157610428Y-105367143D01*
X157553286Y-105338571D01*
X157524714Y-105310000D01*
X157496143Y-105252857D01*
X157496143Y-105195714D01*
X157524714Y-105138571D01*
X157553286Y-105110000D01*
X157610428Y-105081429D01*
X157753286Y-105081429D01*
X157839000Y-105110000D01*
X158439000Y-105624286D02*
X158410429Y-105652857D01*
X158324715Y-105681429D01*
X158267572Y-105681429D01*
X158181857Y-105652857D01*
X158124715Y-105595714D01*
X158096143Y-105538571D01*
X158067572Y-105424286D01*
X158067572Y-105338571D01*
X158096143Y-105224286D01*
X158124715Y-105167143D01*
X158181857Y-105110000D01*
X158267572Y-105081429D01*
X158324715Y-105081429D01*
X158410429Y-105110000D01*
X158439000Y-105138571D01*
X158981857Y-105681429D02*
X158696143Y-105681429D01*
X158696143Y-105081429D01*
X159181857Y-105681429D02*
X159181857Y-105081429D01*
X159524714Y-105681429D02*
X159267571Y-105338571D01*
X159524714Y-105081429D02*
X159181857Y-105424286D01*
X158610428Y-100601429D02*
X158324714Y-100601429D01*
X158324714Y-100001429D01*
X158781857Y-100430000D02*
X159067571Y-100430000D01*
X158724714Y-100601429D02*
X158924714Y-100001429D01*
X159124714Y-100601429D01*
X159239000Y-100001429D02*
X159581857Y-100001429D01*
X159410428Y-100601429D02*
X159410428Y-100001429D01*
X160036000Y-109942381D02*
X160226477Y-109942381D01*
X160321715Y-109990000D01*
X160416953Y-110085238D01*
X160464572Y-110275714D01*
X160464572Y-110609048D01*
X160416953Y-110799524D01*
X160321715Y-110894762D01*
X160226477Y-110942381D01*
X160036000Y-110942381D01*
X159940762Y-110894762D01*
X159845524Y-110799524D01*
X159797905Y-110609048D01*
X159797905Y-110275714D01*
X159845524Y-110085238D01*
X159940762Y-109990000D01*
X160036000Y-109942381D01*
X160893143Y-109942381D02*
X160893143Y-110751905D01*
X160940762Y-110847143D01*
X160988381Y-110894762D01*
X161083619Y-110942381D01*
X161274096Y-110942381D01*
X161369334Y-110894762D01*
X161416953Y-110847143D01*
X161464572Y-110751905D01*
X161464572Y-109942381D01*
X161797905Y-109942381D02*
X162369334Y-109942381D01*
X162083619Y-110942381D02*
X162083619Y-109942381D01*
X128000191Y-110942381D02*
X128000191Y-109942381D01*
X128476381Y-110942381D02*
X128476381Y-109942381D01*
X129047810Y-110942381D01*
X129047810Y-109942381D01*
X130227429Y-90874857D02*
X130827429Y-90674857D01*
X130227429Y-90474857D01*
X130656000Y-90303428D02*
X130656000Y-90017714D01*
X130827429Y-90360571D02*
X130227429Y-90160571D01*
X130827429Y-89960571D01*
X130656000Y-89789142D02*
X130656000Y-89503428D01*
X130827429Y-89846285D02*
X130227429Y-89646285D01*
X130827429Y-89446285D01*
X130227429Y-93414857D02*
X130827429Y-93214857D01*
X130227429Y-93014857D01*
X130770286Y-92472000D02*
X130798857Y-92500571D01*
X130827429Y-92586285D01*
X130827429Y-92643428D01*
X130798857Y-92729143D01*
X130741714Y-92786285D01*
X130684571Y-92814857D01*
X130570286Y-92843428D01*
X130484571Y-92843428D01*
X130370286Y-92814857D01*
X130313143Y-92786285D01*
X130256000Y-92729143D01*
X130227429Y-92643428D01*
X130227429Y-92586285D01*
X130256000Y-92500571D01*
X130284571Y-92472000D01*
X130770286Y-91872000D02*
X130798857Y-91900571D01*
X130827429Y-91986285D01*
X130827429Y-92043428D01*
X130798857Y-92129143D01*
X130741714Y-92186285D01*
X130684571Y-92214857D01*
X130570286Y-92243428D01*
X130484571Y-92243428D01*
X130370286Y-92214857D01*
X130313143Y-92186285D01*
X130256000Y-92129143D01*
X130227429Y-92043428D01*
X130227429Y-91986285D01*
X130256000Y-91900571D01*
X130284571Y-91872000D01*
X136568857Y-110329286D02*
X136747428Y-110829286D01*
X136926000Y-110329286D01*
X137604572Y-110829286D02*
X137176000Y-110829286D01*
X137390286Y-110829286D02*
X137390286Y-110079286D01*
X137318857Y-110186429D01*
X137247429Y-110257857D01*
X137176000Y-110293571D01*
X137926000Y-110757857D02*
X137961715Y-110793571D01*
X137926000Y-110829286D01*
X137890286Y-110793571D01*
X137926000Y-110757857D01*
X137926000Y-110829286D01*
X138676001Y-110829286D02*
X138247429Y-110829286D01*
X138461715Y-110829286D02*
X138461715Y-110079286D01*
X138390286Y-110186429D01*
X138318858Y-110257857D01*
X138247429Y-110293571D01*
X138997429Y-110757857D02*
X139033144Y-110793571D01*
X138997429Y-110829286D01*
X138961715Y-110793571D01*
X138997429Y-110757857D01*
X138997429Y-110829286D01*
X139497430Y-110079286D02*
X139568858Y-110079286D01*
X139640287Y-110115000D01*
X139676001Y-110150714D01*
X139711715Y-110222143D01*
X139747430Y-110365000D01*
X139747430Y-110543571D01*
X139711715Y-110686429D01*
X139676001Y-110757857D01*
X139640287Y-110793571D01*
X139568858Y-110829286D01*
X139497430Y-110829286D01*
X139426001Y-110793571D01*
X139390287Y-110757857D01*
X139354572Y-110686429D01*
X139318858Y-110543571D01*
X139318858Y-110365000D01*
X139354572Y-110222143D01*
X139390287Y-110150714D01*
X139426001Y-110115000D01*
X139497430Y-110079286D01*
X148811002Y-112027857D02*
X148775288Y-112063571D01*
X148668145Y-112099286D01*
X148596716Y-112099286D01*
X148489573Y-112063571D01*
X148418145Y-111992143D01*
X148382430Y-111920714D01*
X148346716Y-111777857D01*
X148346716Y-111670714D01*
X148382430Y-111527857D01*
X148418145Y-111456429D01*
X148489573Y-111385000D01*
X148596716Y-111349286D01*
X148668145Y-111349286D01*
X148775288Y-111385000D01*
X148811002Y-111420714D01*
X149239573Y-112099286D02*
X149168145Y-112063571D01*
X149132430Y-112027857D01*
X149096716Y-111956429D01*
X149096716Y-111742143D01*
X149132430Y-111670714D01*
X149168145Y-111635000D01*
X149239573Y-111599286D01*
X149346716Y-111599286D01*
X149418145Y-111635000D01*
X149453859Y-111670714D01*
X149489573Y-111742143D01*
X149489573Y-111956429D01*
X149453859Y-112027857D01*
X149418145Y-112063571D01*
X149346716Y-112099286D01*
X149239573Y-112099286D01*
X149811001Y-111599286D02*
X149811001Y-112099286D01*
X149811001Y-111670714D02*
X149846716Y-111635000D01*
X149918144Y-111599286D01*
X150025287Y-111599286D01*
X150096716Y-111635000D01*
X150132430Y-111706429D01*
X150132430Y-112099286D01*
X150489572Y-111599286D02*
X150489572Y-112099286D01*
X150489572Y-111670714D02*
X150525287Y-111635000D01*
X150596715Y-111599286D01*
X150703858Y-111599286D01*
X150775287Y-111635000D01*
X150811001Y-111706429D01*
X150811001Y-112099286D01*
X151453858Y-112063571D02*
X151382429Y-112099286D01*
X151239572Y-112099286D01*
X151168143Y-112063571D01*
X151132429Y-111992143D01*
X151132429Y-111706429D01*
X151168143Y-111635000D01*
X151239572Y-111599286D01*
X151382429Y-111599286D01*
X151453858Y-111635000D01*
X151489572Y-111706429D01*
X151489572Y-111777857D01*
X151132429Y-111849286D01*
X152132429Y-112063571D02*
X152061000Y-112099286D01*
X151918143Y-112099286D01*
X151846715Y-112063571D01*
X151811000Y-112027857D01*
X151775286Y-111956429D01*
X151775286Y-111742143D01*
X151811000Y-111670714D01*
X151846715Y-111635000D01*
X151918143Y-111599286D01*
X152061000Y-111599286D01*
X152132429Y-111635000D01*
X152346715Y-111599286D02*
X152632429Y-111599286D01*
X152453857Y-111349286D02*
X152453857Y-111992143D01*
X152489572Y-112063571D01*
X152561000Y-112099286D01*
X152632429Y-112099286D01*
X152989571Y-112099286D02*
X152918143Y-112063571D01*
X152882428Y-112027857D01*
X152846714Y-111956429D01*
X152846714Y-111742143D01*
X152882428Y-111670714D01*
X152918143Y-111635000D01*
X152989571Y-111599286D01*
X153096714Y-111599286D01*
X153168143Y-111635000D01*
X153203857Y-111670714D01*
X153239571Y-111742143D01*
X153239571Y-111956429D01*
X153203857Y-112027857D01*
X153168143Y-112063571D01*
X153096714Y-112099286D01*
X152989571Y-112099286D01*
X153560999Y-112099286D02*
X153560999Y-111599286D01*
X153560999Y-111742143D02*
X153596714Y-111670714D01*
X153632428Y-111635000D01*
X153703857Y-111599286D01*
X153775285Y-111599286D01*
X154561000Y-111313571D02*
X153918143Y-112277857D01*
X154703857Y-111349286D02*
X155132428Y-111349286D01*
X154918142Y-112099286D02*
X154918142Y-111349286D01*
X155668143Y-112063571D02*
X155596714Y-112099286D01*
X155453857Y-112099286D01*
X155382428Y-112063571D01*
X155346714Y-111992143D01*
X155346714Y-111706429D01*
X155382428Y-111635000D01*
X155453857Y-111599286D01*
X155596714Y-111599286D01*
X155668143Y-111635000D01*
X155703857Y-111706429D01*
X155703857Y-111777857D01*
X155346714Y-111849286D01*
X156025285Y-112099286D02*
X156025285Y-111599286D01*
X156025285Y-111742143D02*
X156061000Y-111670714D01*
X156096714Y-111635000D01*
X156168143Y-111599286D01*
X156239571Y-111599286D01*
X156489571Y-112099286D02*
X156489571Y-111599286D01*
X156489571Y-111670714D02*
X156525286Y-111635000D01*
X156596714Y-111599286D01*
X156703857Y-111599286D01*
X156775286Y-111635000D01*
X156811000Y-111706429D01*
X156811000Y-112099286D01*
X156811000Y-111706429D02*
X156846714Y-111635000D01*
X156918143Y-111599286D01*
X157025286Y-111599286D01*
X157096714Y-111635000D01*
X157132429Y-111706429D01*
X157132429Y-112099286D01*
X157489571Y-112099286D02*
X157489571Y-111599286D01*
X157489571Y-111349286D02*
X157453857Y-111385000D01*
X157489571Y-111420714D01*
X157525286Y-111385000D01*
X157489571Y-111349286D01*
X157489571Y-111420714D01*
X157846714Y-111599286D02*
X157846714Y-112099286D01*
X157846714Y-111670714D02*
X157882429Y-111635000D01*
X157953857Y-111599286D01*
X158061000Y-111599286D01*
X158132429Y-111635000D01*
X158168143Y-111706429D01*
X158168143Y-112099286D01*
X158846714Y-112099286D02*
X158846714Y-111706429D01*
X158811000Y-111635000D01*
X158739571Y-111599286D01*
X158596714Y-111599286D01*
X158525285Y-111635000D01*
X158846714Y-112063571D02*
X158775285Y-112099286D01*
X158596714Y-112099286D01*
X158525285Y-112063571D01*
X158489571Y-111992143D01*
X158489571Y-111920714D01*
X158525285Y-111849286D01*
X158596714Y-111813571D01*
X158775285Y-111813571D01*
X158846714Y-111777857D01*
X159096714Y-111599286D02*
X159382428Y-111599286D01*
X159203856Y-111349286D02*
X159203856Y-111992143D01*
X159239571Y-112063571D01*
X159310999Y-112099286D01*
X159382428Y-112099286D01*
X159632427Y-112099286D02*
X159632427Y-111599286D01*
X159632427Y-111349286D02*
X159596713Y-111385000D01*
X159632427Y-111420714D01*
X159668142Y-111385000D01*
X159632427Y-111349286D01*
X159632427Y-111420714D01*
X160096713Y-112099286D02*
X160025285Y-112063571D01*
X159989570Y-112027857D01*
X159953856Y-111956429D01*
X159953856Y-111742143D01*
X159989570Y-111670714D01*
X160025285Y-111635000D01*
X160096713Y-111599286D01*
X160203856Y-111599286D01*
X160275285Y-111635000D01*
X160310999Y-111670714D01*
X160346713Y-111742143D01*
X160346713Y-111956429D01*
X160310999Y-112027857D01*
X160275285Y-112063571D01*
X160203856Y-112099286D01*
X160096713Y-112099286D01*
X160668141Y-111599286D02*
X160668141Y-112099286D01*
X160668141Y-111670714D02*
X160703856Y-111635000D01*
X160775284Y-111599286D01*
X160882427Y-111599286D01*
X160953856Y-111635000D01*
X160989570Y-111706429D01*
X160989570Y-112099286D01*
X129421716Y-112099286D02*
X129421716Y-111349286D01*
X129421716Y-112063571D02*
X129350287Y-112099286D01*
X129207430Y-112099286D01*
X129136002Y-112063571D01*
X129100287Y-112027857D01*
X129064573Y-111956429D01*
X129064573Y-111742143D01*
X129100287Y-111670714D01*
X129136002Y-111635000D01*
X129207430Y-111599286D01*
X129350287Y-111599286D01*
X129421716Y-111635000D01*
X130100287Y-112063571D02*
X130028858Y-112099286D01*
X129886001Y-112099286D01*
X129814573Y-112063571D01*
X129778858Y-112027857D01*
X129743144Y-111956429D01*
X129743144Y-111742143D01*
X129778858Y-111670714D01*
X129814573Y-111635000D01*
X129886001Y-111599286D01*
X130028858Y-111599286D01*
X130100287Y-111635000D01*
X130386001Y-112063571D02*
X130457430Y-112099286D01*
X130600287Y-112099286D01*
X130671715Y-112063571D01*
X130707430Y-111992143D01*
X130707430Y-111956429D01*
X130671715Y-111885000D01*
X130600287Y-111849286D01*
X130493144Y-111849286D01*
X130421715Y-111813571D01*
X130386001Y-111742143D01*
X130386001Y-111706429D01*
X130421715Y-111635000D01*
X130493144Y-111599286D01*
X130600287Y-111599286D01*
X130671715Y-111635000D01*
X131350287Y-111599286D02*
X131350287Y-112099286D01*
X131028858Y-111599286D02*
X131028858Y-111992143D01*
X131064573Y-112063571D01*
X131136001Y-112099286D01*
X131243144Y-112099286D01*
X131314573Y-112063571D01*
X131350287Y-112027857D01*
X131707429Y-111599286D02*
X131707429Y-112099286D01*
X131707429Y-111670714D02*
X131743144Y-111635000D01*
X131814572Y-111599286D01*
X131921715Y-111599286D01*
X131993144Y-111635000D01*
X132028858Y-111706429D01*
X132028858Y-112099286D01*
X132493143Y-111670714D02*
X132421715Y-111635000D01*
X132386000Y-111599286D01*
X132350286Y-111527857D01*
X132350286Y-111492143D01*
X132386000Y-111420714D01*
X132421715Y-111385000D01*
X132493143Y-111349286D01*
X132636000Y-111349286D01*
X132707429Y-111385000D01*
X132743143Y-111420714D01*
X132778858Y-111492143D01*
X132778858Y-111527857D01*
X132743143Y-111599286D01*
X132707429Y-111635000D01*
X132636000Y-111670714D01*
X132493143Y-111670714D01*
X132421715Y-111706429D01*
X132386000Y-111742143D01*
X132350286Y-111813571D01*
X132350286Y-111956429D01*
X132386000Y-112027857D01*
X132421715Y-112063571D01*
X132493143Y-112099286D01*
X132636000Y-112099286D01*
X132707429Y-112063571D01*
X132743143Y-112027857D01*
X132778858Y-111956429D01*
X132778858Y-111813571D01*
X132743143Y-111742143D01*
X132707429Y-111706429D01*
X132636000Y-111670714D01*
X133207429Y-111670714D02*
X133136001Y-111635000D01*
X133100286Y-111599286D01*
X133064572Y-111527857D01*
X133064572Y-111492143D01*
X133100286Y-111420714D01*
X133136001Y-111385000D01*
X133207429Y-111349286D01*
X133350286Y-111349286D01*
X133421715Y-111385000D01*
X133457429Y-111420714D01*
X133493144Y-111492143D01*
X133493144Y-111527857D01*
X133457429Y-111599286D01*
X133421715Y-111635000D01*
X133350286Y-111670714D01*
X133207429Y-111670714D01*
X133136001Y-111706429D01*
X133100286Y-111742143D01*
X133064572Y-111813571D01*
X133064572Y-111956429D01*
X133100286Y-112027857D01*
X133136001Y-112063571D01*
X133207429Y-112099286D01*
X133350286Y-112099286D01*
X133421715Y-112063571D01*
X133457429Y-112027857D01*
X133493144Y-111956429D01*
X133493144Y-111813571D01*
X133457429Y-111742143D01*
X133421715Y-111706429D01*
X133350286Y-111670714D01*
X133921715Y-112099286D02*
X133850287Y-112063571D01*
X133814572Y-112027857D01*
X133778858Y-111956429D01*
X133778858Y-111742143D01*
X133814572Y-111670714D01*
X133850287Y-111635000D01*
X133921715Y-111599286D01*
X134028858Y-111599286D01*
X134100287Y-111635000D01*
X134136001Y-111670714D01*
X134171715Y-111742143D01*
X134171715Y-111956429D01*
X134136001Y-112027857D01*
X134100287Y-112063571D01*
X134028858Y-112099286D01*
X133921715Y-112099286D01*
X134457429Y-112063571D02*
X134528858Y-112099286D01*
X134671715Y-112099286D01*
X134743143Y-112063571D01*
X134778858Y-111992143D01*
X134778858Y-111956429D01*
X134743143Y-111885000D01*
X134671715Y-111849286D01*
X134564572Y-111849286D01*
X134493143Y-111813571D01*
X134457429Y-111742143D01*
X134457429Y-111706429D01*
X134493143Y-111635000D01*
X134564572Y-111599286D01*
X134671715Y-111599286D01*
X134743143Y-111635000D01*
X135100286Y-112099286D02*
X135100286Y-111349286D01*
X135421715Y-112099286D02*
X135421715Y-111706429D01*
X135386001Y-111635000D01*
X135314572Y-111599286D01*
X135207429Y-111599286D01*
X135136001Y-111635000D01*
X135100286Y-111670714D01*
X136243143Y-111742143D02*
X136207429Y-111706429D01*
X136136000Y-111670714D01*
X136064572Y-111670714D01*
X135993143Y-111706429D01*
X135957429Y-111742143D01*
X135921715Y-111813571D01*
X135921715Y-111885000D01*
X135957429Y-111956429D01*
X135993143Y-111992143D01*
X136064572Y-112027857D01*
X136136000Y-112027857D01*
X136207429Y-111992143D01*
X136243143Y-111956429D01*
X136243143Y-111670714D02*
X136243143Y-111956429D01*
X136278857Y-111992143D01*
X136314572Y-111992143D01*
X136386000Y-111956429D01*
X136421715Y-111885000D01*
X136421715Y-111706429D01*
X136350286Y-111599286D01*
X136243143Y-111527857D01*
X136100286Y-111492143D01*
X135957429Y-111527857D01*
X135850286Y-111599286D01*
X135778857Y-111706429D01*
X135743143Y-111849286D01*
X135778857Y-111992143D01*
X135850286Y-112099286D01*
X135957429Y-112170714D01*
X136100286Y-112206429D01*
X136243143Y-112170714D01*
X136350286Y-112099286D01*
X137064572Y-111599286D02*
X137064572Y-112206429D01*
X137028858Y-112277857D01*
X136993143Y-112313571D01*
X136921715Y-112349286D01*
X136814572Y-112349286D01*
X136743143Y-112313571D01*
X137064572Y-112063571D02*
X136993143Y-112099286D01*
X136850286Y-112099286D01*
X136778858Y-112063571D01*
X136743143Y-112027857D01*
X136707429Y-111956429D01*
X136707429Y-111742143D01*
X136743143Y-111670714D01*
X136778858Y-111635000D01*
X136850286Y-111599286D01*
X136993143Y-111599286D01*
X137064572Y-111635000D01*
X137421714Y-112099286D02*
X137421714Y-111599286D01*
X137421714Y-111670714D02*
X137457429Y-111635000D01*
X137528857Y-111599286D01*
X137636000Y-111599286D01*
X137707429Y-111635000D01*
X137743143Y-111706429D01*
X137743143Y-112099286D01*
X137743143Y-111706429D02*
X137778857Y-111635000D01*
X137850286Y-111599286D01*
X137957429Y-111599286D01*
X138028857Y-111635000D01*
X138064572Y-111706429D01*
X138064572Y-112099286D01*
X138743143Y-112099286D02*
X138743143Y-111706429D01*
X138707429Y-111635000D01*
X138636000Y-111599286D01*
X138493143Y-111599286D01*
X138421714Y-111635000D01*
X138743143Y-112063571D02*
X138671714Y-112099286D01*
X138493143Y-112099286D01*
X138421714Y-112063571D01*
X138386000Y-111992143D01*
X138386000Y-111920714D01*
X138421714Y-111849286D01*
X138493143Y-111813571D01*
X138671714Y-111813571D01*
X138743143Y-111777857D01*
X139100285Y-112099286D02*
X139100285Y-111599286D01*
X139100285Y-111349286D02*
X139064571Y-111385000D01*
X139100285Y-111420714D01*
X139136000Y-111385000D01*
X139100285Y-111349286D01*
X139100285Y-111420714D01*
X139564571Y-112099286D02*
X139493143Y-112063571D01*
X139457428Y-111992143D01*
X139457428Y-111349286D01*
X139850285Y-112027857D02*
X139886000Y-112063571D01*
X139850285Y-112099286D01*
X139814571Y-112063571D01*
X139850285Y-112027857D01*
X139850285Y-112099286D01*
X140528857Y-112063571D02*
X140457428Y-112099286D01*
X140314571Y-112099286D01*
X140243143Y-112063571D01*
X140207428Y-112027857D01*
X140171714Y-111956429D01*
X140171714Y-111742143D01*
X140207428Y-111670714D01*
X140243143Y-111635000D01*
X140314571Y-111599286D01*
X140457428Y-111599286D01*
X140528857Y-111635000D01*
X140957428Y-112099286D02*
X140886000Y-112063571D01*
X140850285Y-112027857D01*
X140814571Y-111956429D01*
X140814571Y-111742143D01*
X140850285Y-111670714D01*
X140886000Y-111635000D01*
X140957428Y-111599286D01*
X141064571Y-111599286D01*
X141136000Y-111635000D01*
X141171714Y-111670714D01*
X141207428Y-111742143D01*
X141207428Y-111956429D01*
X141171714Y-112027857D01*
X141136000Y-112063571D01*
X141064571Y-112099286D01*
X140957428Y-112099286D01*
X141528856Y-112099286D02*
X141528856Y-111599286D01*
X141528856Y-111670714D02*
X141564571Y-111635000D01*
X141635999Y-111599286D01*
X141743142Y-111599286D01*
X141814571Y-111635000D01*
X141850285Y-111706429D01*
X141850285Y-112099286D01*
X141850285Y-111706429D02*
X141885999Y-111635000D01*
X141957428Y-111599286D01*
X142064571Y-111599286D01*
X142135999Y-111635000D01*
X142171714Y-111706429D01*
X142171714Y-112099286D01*
X157340572Y-98032857D02*
X157426286Y-98061429D01*
X157569143Y-98061429D01*
X157626286Y-98032857D01*
X157654857Y-98004286D01*
X157683429Y-97947143D01*
X157683429Y-97890000D01*
X157654857Y-97832857D01*
X157626286Y-97804286D01*
X157569143Y-97775714D01*
X157454857Y-97747143D01*
X157397715Y-97718571D01*
X157369143Y-97690000D01*
X157340572Y-97632857D01*
X157340572Y-97575714D01*
X157369143Y-97518571D01*
X157397715Y-97490000D01*
X157454857Y-97461429D01*
X157597715Y-97461429D01*
X157683429Y-97490000D01*
X158054858Y-97461429D02*
X158169144Y-97461429D01*
X158226286Y-97490000D01*
X158283429Y-97547143D01*
X158312001Y-97661429D01*
X158312001Y-97861429D01*
X158283429Y-97975714D01*
X158226286Y-98032857D01*
X158169144Y-98061429D01*
X158054858Y-98061429D01*
X157997715Y-98032857D01*
X157940572Y-97975714D01*
X157912001Y-97861429D01*
X157912001Y-97661429D01*
X157940572Y-97547143D01*
X157997715Y-97490000D01*
X158054858Y-97461429D01*
X158569143Y-97461429D02*
X158569143Y-97947143D01*
X158597715Y-98004286D01*
X158626286Y-98032857D01*
X158683429Y-98061429D01*
X158797715Y-98061429D01*
X158854857Y-98032857D01*
X158883429Y-98004286D01*
X158912000Y-97947143D01*
X158912000Y-97461429D01*
X159112000Y-97461429D02*
X159454857Y-97461429D01*
X159283428Y-98061429D02*
X159283428Y-97461429D01*
X158929429Y-90893715D02*
X159529429Y-90693715D01*
X158929429Y-90493715D01*
X159358000Y-90322286D02*
X159358000Y-90036572D01*
X159529429Y-90379429D02*
X158929429Y-90179429D01*
X159529429Y-89979429D01*
X159358000Y-89808000D02*
X159358000Y-89522286D01*
X159529429Y-89865143D02*
X158929429Y-89665143D01*
X159529429Y-89465143D01*
X158929429Y-93605143D02*
X159529429Y-93405143D01*
X158929429Y-93205143D01*
X159472286Y-92662286D02*
X159500857Y-92690857D01*
X159529429Y-92776571D01*
X159529429Y-92833714D01*
X159500857Y-92919429D01*
X159443714Y-92976571D01*
X159386571Y-93005143D01*
X159272286Y-93033714D01*
X159186571Y-93033714D01*
X159072286Y-93005143D01*
X159015143Y-92976571D01*
X158958000Y-92919429D01*
X158929429Y-92833714D01*
X158929429Y-92776571D01*
X158958000Y-92690857D01*
X158986571Y-92662286D01*
X159472286Y-92062286D02*
X159500857Y-92090857D01*
X159529429Y-92176571D01*
X159529429Y-92233714D01*
X159500857Y-92319429D01*
X159443714Y-92376571D01*
X159386571Y-92405143D01*
X159272286Y-92433714D01*
X159186571Y-92433714D01*
X159072286Y-92405143D01*
X159015143Y-92376571D01*
X158958000Y-92319429D01*
X158929429Y-92233714D01*
X158929429Y-92176571D01*
X158958000Y-92090857D01*
X158986571Y-92062286D01*
X130505143Y-94442000D02*
X130448000Y-94413429D01*
X130362286Y-94413429D01*
X130276571Y-94442000D01*
X130219429Y-94499143D01*
X130190857Y-94556286D01*
X130162286Y-94670571D01*
X130162286Y-94756286D01*
X130190857Y-94870571D01*
X130219429Y-94927714D01*
X130276571Y-94984857D01*
X130362286Y-95013429D01*
X130419429Y-95013429D01*
X130505143Y-94984857D01*
X130533714Y-94956286D01*
X130533714Y-94756286D01*
X130419429Y-94756286D01*
X130790857Y-95013429D02*
X130790857Y-94413429D01*
X131133714Y-95013429D01*
X131133714Y-94413429D01*
X131419428Y-95013429D02*
X131419428Y-94413429D01*
X131562285Y-94413429D01*
X131648000Y-94442000D01*
X131705142Y-94499143D01*
X131733714Y-94556286D01*
X131762285Y-94670571D01*
X131762285Y-94756286D01*
X131733714Y-94870571D01*
X131705142Y-94927714D01*
X131648000Y-94984857D01*
X131562285Y-95013429D01*
X131419428Y-95013429D01*
X130035286Y-98032857D02*
X130121000Y-98061429D01*
X130263857Y-98061429D01*
X130321000Y-98032857D01*
X130349571Y-98004286D01*
X130378143Y-97947143D01*
X130378143Y-97890000D01*
X130349571Y-97832857D01*
X130321000Y-97804286D01*
X130263857Y-97775714D01*
X130149571Y-97747143D01*
X130092429Y-97718571D01*
X130063857Y-97690000D01*
X130035286Y-97632857D01*
X130035286Y-97575714D01*
X130063857Y-97518571D01*
X130092429Y-97490000D01*
X130149571Y-97461429D01*
X130292429Y-97461429D01*
X130378143Y-97490000D01*
X130635286Y-98061429D02*
X130635286Y-97461429D01*
X130921000Y-98061429D02*
X130921000Y-97461429D01*
X131263857Y-98061429D01*
X131263857Y-97461429D01*
X130349571Y-100601429D02*
X130063857Y-100601429D01*
X130063857Y-100001429D01*
X130521000Y-100430000D02*
X130806714Y-100430000D01*
X130463857Y-100601429D02*
X130663857Y-100001429D01*
X130863857Y-100601429D01*
X130978143Y-100001429D02*
X131321000Y-100001429D01*
X131149571Y-100601429D02*
X131149571Y-100001429D01*
X130263857Y-102827143D02*
X130349571Y-102855714D01*
X130378143Y-102884286D01*
X130406714Y-102941429D01*
X130406714Y-103027143D01*
X130378143Y-103084286D01*
X130349571Y-103112857D01*
X130292429Y-103141429D01*
X130063857Y-103141429D01*
X130063857Y-102541429D01*
X130263857Y-102541429D01*
X130321000Y-102570000D01*
X130349571Y-102598571D01*
X130378143Y-102655714D01*
X130378143Y-102712857D01*
X130349571Y-102770000D01*
X130321000Y-102798571D01*
X130263857Y-102827143D01*
X130063857Y-102827143D01*
X130949571Y-103141429D02*
X130663857Y-103141429D01*
X130663857Y-102541429D01*
X131121000Y-102970000D02*
X131406714Y-102970000D01*
X131063857Y-103141429D02*
X131263857Y-102541429D01*
X131463857Y-103141429D01*
X131663857Y-103141429D02*
X131663857Y-102541429D01*
X132006714Y-103141429D01*
X132006714Y-102541429D01*
X132292428Y-103141429D02*
X132292428Y-102541429D01*
X132635285Y-103141429D02*
X132378142Y-102798571D01*
X132635285Y-102541429D02*
X132292428Y-102884286D01*
X130035286Y-105652857D02*
X130121000Y-105681429D01*
X130263857Y-105681429D01*
X130321000Y-105652857D01*
X130349571Y-105624286D01*
X130378143Y-105567143D01*
X130378143Y-105510000D01*
X130349571Y-105452857D01*
X130321000Y-105424286D01*
X130263857Y-105395714D01*
X130149571Y-105367143D01*
X130092429Y-105338571D01*
X130063857Y-105310000D01*
X130035286Y-105252857D01*
X130035286Y-105195714D01*
X130063857Y-105138571D01*
X130092429Y-105110000D01*
X130149571Y-105081429D01*
X130292429Y-105081429D01*
X130378143Y-105110000D01*
X130978143Y-105624286D02*
X130949572Y-105652857D01*
X130863858Y-105681429D01*
X130806715Y-105681429D01*
X130721000Y-105652857D01*
X130663858Y-105595714D01*
X130635286Y-105538571D01*
X130606715Y-105424286D01*
X130606715Y-105338571D01*
X130635286Y-105224286D01*
X130663858Y-105167143D01*
X130721000Y-105110000D01*
X130806715Y-105081429D01*
X130863858Y-105081429D01*
X130949572Y-105110000D01*
X130978143Y-105138571D01*
X131521000Y-105681429D02*
X131235286Y-105681429D01*
X131235286Y-105081429D01*
X131721000Y-105681429D02*
X131721000Y-105081429D01*
X132063857Y-105681429D02*
X131806714Y-105338571D01*
X132063857Y-105081429D02*
X131721000Y-105424286D01*
X130378143Y-107650000D02*
X130321000Y-107621429D01*
X130235286Y-107621429D01*
X130149571Y-107650000D01*
X130092429Y-107707143D01*
X130063857Y-107764286D01*
X130035286Y-107878571D01*
X130035286Y-107964286D01*
X130063857Y-108078571D01*
X130092429Y-108135714D01*
X130149571Y-108192857D01*
X130235286Y-108221429D01*
X130292429Y-108221429D01*
X130378143Y-108192857D01*
X130406714Y-108164286D01*
X130406714Y-107964286D01*
X130292429Y-107964286D01*
X130663857Y-108221429D02*
X130663857Y-107621429D01*
X131006714Y-108221429D01*
X131006714Y-107621429D01*
X131292428Y-108221429D02*
X131292428Y-107621429D01*
X131435285Y-107621429D01*
X131521000Y-107650000D01*
X131578142Y-107707143D01*
X131606714Y-107764286D01*
X131635285Y-107878571D01*
X131635285Y-107964286D01*
X131606714Y-108078571D01*
X131578142Y-108135714D01*
X131521000Y-108192857D01*
X131435285Y-108221429D01*
X131292428Y-108221429D01*
X129794000Y-91440000D02*
X129794000Y-109220000D01*
X129794000Y-109220000D02*
X127254000Y-109220000D01*
X127254000Y-109220000D02*
X127254000Y-91440000D01*
X130074000Y-88620000D02*
X130074000Y-90170000D01*
X129794000Y-91440000D02*
X127254000Y-91440000D01*
X126974000Y-90170000D02*
X126974000Y-88620000D01*
X126974000Y-88620000D02*
X130074000Y-88620000D01*
X159766000Y-106680000D02*
X159766000Y-88900000D01*
X159766000Y-88900000D02*
X162306000Y-88900000D01*
X162306000Y-88900000D02*
X162306000Y-106680000D01*
X159486000Y-109500000D02*
X159486000Y-107950000D01*
X159766000Y-106680000D02*
X162306000Y-106680000D01*
X162586000Y-107950000D02*
X162586000Y-109500000D01*
X162586000Y-109500000D02*
X159486000Y-109500000D01*
X142240000Y-94270000D02*
X142240000Y-93370000D01*
X142240000Y-93370000D02*
X132180000Y-93370000D01*
X132180000Y-93370000D02*
X132180000Y-86970000D01*
X132180000Y-86970000D02*
X157380000Y-86970000D01*
X157380000Y-86970000D02*
X157380000Y-93370000D01*
X157380000Y-93370000D02*
X147320000Y-93370000D01*
X147320000Y-93370000D02*
X147320000Y-94270000D01*
X130980000Y-94270000D02*
X130980000Y-86070000D01*
X130980000Y-86070000D02*
X158580000Y-86070000D01*
X158580000Y-86070000D02*
X158580000Y-94270000D01*
X158580000Y-94270000D02*
X130980000Y-94270000D01*
X134366000Y-91440000D02*
X133096000Y-90678000D01*
X133096000Y-90678000D02*
X133096000Y-92202000D01*
X133096000Y-92202000D02*
X134366000Y-91440000D01*
X134839000Y-107555000D02*
X133639000Y-107555000D01*
X133639000Y-105805000D02*
X134839000Y-105805000D01*
X133639000Y-103265000D02*
X134839000Y-103265000D01*
X134839000Y-105015000D02*
X133639000Y-105015000D01*
X134839000Y-102475000D02*
X133639000Y-102475000D01*
X133639000Y-100725000D02*
X134839000Y-100725000D01*
X133639000Y-98185000D02*
X134839000Y-98185000D01*
X134839000Y-99935000D02*
X133639000Y-99935000D01*
X155462000Y-96866000D02*
X155462000Y-95666000D01*
X157212000Y-95666000D02*
X157212000Y-96866000D01*
X148709000Y-104281000D02*
X149909000Y-104281000D01*
X149909000Y-106031000D02*
X148709000Y-106031000D01*
X142635000Y-102835000D02*
X142635000Y-101635000D01*
X144385000Y-101635000D02*
X144385000Y-102835000D01*
X143510000Y-106176000D02*
X143510000Y-105926000D01*
X143510000Y-106676000D02*
X143510000Y-106926000D01*
X143510000Y-106676000D02*
X143160000Y-106176000D01*
X143160000Y-106176000D02*
X143860000Y-106176000D01*
X143860000Y-106176000D02*
X143510000Y-106676000D01*
X143160000Y-106676000D02*
X143860000Y-106676000D01*
X144385000Y-107026000D02*
X144385000Y-105826000D01*
X142635000Y-107026000D02*
X142635000Y-105826000D01*
X146050000Y-106176000D02*
X146050000Y-105926000D01*
X146050000Y-106676000D02*
X146050000Y-106926000D01*
X146050000Y-106676000D02*
X145700000Y-106176000D01*
X145700000Y-106176000D02*
X146400000Y-106176000D01*
X146400000Y-106176000D02*
X146050000Y-106676000D01*
X145700000Y-106676000D02*
X146400000Y-106676000D01*
X146925000Y-107026000D02*
X146925000Y-105826000D01*
X145175000Y-107026000D02*
X145175000Y-105826000D01*
X130389524Y-110942381D02*
X130389524Y-109942381D01*
X130770477Y-109942381D01*
X130865715Y-109990000D01*
X130913334Y-110037619D01*
X130960953Y-110132857D01*
X130960953Y-110275714D01*
X130913334Y-110370952D01*
X130865715Y-110418571D01*
X130770477Y-110466190D01*
X130389524Y-110466190D01*
X131913334Y-110942381D02*
X131341905Y-110942381D01*
X131627619Y-110942381D02*
X131627619Y-109942381D01*
X131532381Y-110085238D01*
X131437143Y-110180476D01*
X131341905Y-110228095D01*
X132532381Y-109942381D02*
X132627620Y-109942381D01*
X132722858Y-109990000D01*
X132770477Y-110037619D01*
X132818096Y-110132857D01*
X132865715Y-110323333D01*
X132865715Y-110561429D01*
X132818096Y-110751905D01*
X132770477Y-110847143D01*
X132722858Y-110894762D01*
X132627620Y-110942381D01*
X132532381Y-110942381D01*
X132437143Y-110894762D01*
X132389524Y-110847143D01*
X132341905Y-110751905D01*
X132294286Y-110561429D01*
X132294286Y-110323333D01*
X132341905Y-110132857D01*
X132389524Y-110037619D01*
X132437143Y-109990000D01*
X132532381Y-109942381D01*
X133818096Y-110942381D02*
X133246667Y-110942381D01*
X133532381Y-110942381D02*
X133532381Y-109942381D01*
X133437143Y-110085238D01*
X133341905Y-110180476D01*
X133246667Y-110228095D01*
X155281524Y-110942381D02*
X155281524Y-109942381D01*
X155662477Y-109942381D01*
X155757715Y-109990000D01*
X155805334Y-110037619D01*
X155852953Y-110132857D01*
X155852953Y-110275714D01*
X155805334Y-110370952D01*
X155757715Y-110418571D01*
X155662477Y-110466190D01*
X155281524Y-110466190D01*
X156805334Y-110942381D02*
X156233905Y-110942381D01*
X156519619Y-110942381D02*
X156519619Y-109942381D01*
X156424381Y-110085238D01*
X156329143Y-110180476D01*
X156233905Y-110228095D01*
X157424381Y-109942381D02*
X157519620Y-109942381D01*
X157614858Y-109990000D01*
X157662477Y-110037619D01*
X157710096Y-110132857D01*
X157757715Y-110323333D01*
X157757715Y-110561429D01*
X157710096Y-110751905D01*
X157662477Y-110847143D01*
X157614858Y-110894762D01*
X157519620Y-110942381D01*
X157424381Y-110942381D01*
X157329143Y-110894762D01*
X157281524Y-110847143D01*
X157233905Y-110751905D01*
X157186286Y-110561429D01*
X157186286Y-110323333D01*
X157233905Y-110132857D01*
X157281524Y-110037619D01*
X157329143Y-109990000D01*
X157424381Y-109942381D01*
X158091048Y-109942381D02*
X158710096Y-109942381D01*
X158376762Y-110323333D01*
X158519620Y-110323333D01*
X158614858Y-110370952D01*
X158662477Y-110418571D01*
X158710096Y-110513810D01*
X158710096Y-110751905D01*
X158662477Y-110847143D01*
X158614858Y-110894762D01*
X158519620Y-110942381D01*
X158233905Y-110942381D01*
X158138667Y-110894762D01*
X158091048Y-110847143D01*
X127682857Y-84542381D02*
X127920952Y-85542381D01*
X128111429Y-84828095D01*
X128301905Y-85542381D01*
X128540000Y-84542381D01*
X129444762Y-85542381D02*
X128873333Y-85542381D01*
X129159047Y-85542381D02*
X129159047Y-84542381D01*
X129063809Y-84685238D01*
X128968571Y-84780476D01*
X128873333Y-84828095D01*
X130063809Y-84542381D02*
X130159048Y-84542381D01*
X130254286Y-84590000D01*
X130301905Y-84637619D01*
X130349524Y-84732857D01*
X130397143Y-84923333D01*
X130397143Y-85161429D01*
X130349524Y-85351905D01*
X130301905Y-85447143D01*
X130254286Y-85494762D01*
X130159048Y-85542381D01*
X130063809Y-85542381D01*
X129968571Y-85494762D01*
X129920952Y-85447143D01*
X129873333Y-85351905D01*
X129825714Y-85161429D01*
X129825714Y-84923333D01*
X129873333Y-84732857D01*
X129920952Y-84637619D01*
X129968571Y-84590000D01*
X130063809Y-84542381D01*
X131349524Y-85542381D02*
X130778095Y-85542381D01*
X131063809Y-85542381D02*
X131063809Y-84542381D01*
X130968571Y-84685238D01*
X130873333Y-84780476D01*
X130778095Y-84828095D01*
X158162857Y-84542381D02*
X158400952Y-85542381D01*
X158591429Y-84828095D01*
X158781905Y-85542381D01*
X159020000Y-84542381D01*
X159924762Y-85542381D02*
X159353333Y-85542381D01*
X159639047Y-85542381D02*
X159639047Y-84542381D01*
X159543809Y-84685238D01*
X159448571Y-84780476D01*
X159353333Y-84828095D01*
X160543809Y-84542381D02*
X160639048Y-84542381D01*
X160734286Y-84590000D01*
X160781905Y-84637619D01*
X160829524Y-84732857D01*
X160877143Y-84923333D01*
X160877143Y-85161429D01*
X160829524Y-85351905D01*
X160781905Y-85447143D01*
X160734286Y-85494762D01*
X160639048Y-85542381D01*
X160543809Y-85542381D01*
X160448571Y-85494762D01*
X160400952Y-85447143D01*
X160353333Y-85351905D01*
X160305714Y-85161429D01*
X160305714Y-84923333D01*
X160353333Y-84732857D01*
X160400952Y-84637619D01*
X160448571Y-84590000D01*
X160543809Y-84542381D01*
X161258095Y-84637619D02*
X161305714Y-84590000D01*
X161400952Y-84542381D01*
X161639048Y-84542381D01*
X161734286Y-84590000D01*
X161781905Y-84637619D01*
X161829524Y-84732857D01*
X161829524Y-84828095D01*
X161781905Y-84970952D01*
X161210476Y-85542381D01*
X161829524Y-85542381D01*
X143089524Y-85796381D02*
X143089524Y-84796381D01*
X143470477Y-84796381D01*
X143565715Y-84844000D01*
X143613334Y-84891619D01*
X143660953Y-84986857D01*
X143660953Y-85129714D01*
X143613334Y-85224952D01*
X143565715Y-85272571D01*
X143470477Y-85320190D01*
X143089524Y-85320190D01*
X144613334Y-85796381D02*
X144041905Y-85796381D01*
X144327619Y-85796381D02*
X144327619Y-84796381D01*
X144232381Y-84939238D01*
X144137143Y-85034476D01*
X144041905Y-85082095D01*
X145232381Y-84796381D02*
X145327620Y-84796381D01*
X145422858Y-84844000D01*
X145470477Y-84891619D01*
X145518096Y-84986857D01*
X145565715Y-85177333D01*
X145565715Y-85415429D01*
X145518096Y-85605905D01*
X145470477Y-85701143D01*
X145422858Y-85748762D01*
X145327620Y-85796381D01*
X145232381Y-85796381D01*
X145137143Y-85748762D01*
X145089524Y-85701143D01*
X145041905Y-85605905D01*
X144994286Y-85415429D01*
X144994286Y-85177333D01*
X145041905Y-84986857D01*
X145089524Y-84891619D01*
X145137143Y-84844000D01*
X145232381Y-84796381D01*
X145946667Y-84891619D02*
X145994286Y-84844000D01*
X146089524Y-84796381D01*
X146327620Y-84796381D01*
X146422858Y-84844000D01*
X146470477Y-84891619D01*
X146518096Y-84986857D01*
X146518096Y-85082095D01*
X146470477Y-85224952D01*
X145899048Y-85796381D01*
X146518096Y-85796381D01*
X136802953Y-107132381D02*
X136469619Y-106656190D01*
X136231524Y-107132381D02*
X136231524Y-106132381D01*
X136612477Y-106132381D01*
X136707715Y-106180000D01*
X136755334Y-106227619D01*
X136802953Y-106322857D01*
X136802953Y-106465714D01*
X136755334Y-106560952D01*
X136707715Y-106608571D01*
X136612477Y-106656190D01*
X136231524Y-106656190D01*
X137755334Y-107132381D02*
X137183905Y-107132381D01*
X137469619Y-107132381D02*
X137469619Y-106132381D01*
X137374381Y-106275238D01*
X137279143Y-106370476D01*
X137183905Y-106418095D01*
X138374381Y-106132381D02*
X138469620Y-106132381D01*
X138564858Y-106180000D01*
X138612477Y-106227619D01*
X138660096Y-106322857D01*
X138707715Y-106513333D01*
X138707715Y-106751429D01*
X138660096Y-106941905D01*
X138612477Y-107037143D01*
X138564858Y-107084762D01*
X138469620Y-107132381D01*
X138374381Y-107132381D01*
X138279143Y-107084762D01*
X138231524Y-107037143D01*
X138183905Y-106941905D01*
X138136286Y-106751429D01*
X138136286Y-106513333D01*
X138183905Y-106322857D01*
X138231524Y-106227619D01*
X138279143Y-106180000D01*
X138374381Y-106132381D01*
X139660096Y-107132381D02*
X139088667Y-107132381D01*
X139374381Y-107132381D02*
X139374381Y-106132381D01*
X139279143Y-106275238D01*
X139183905Y-106370476D01*
X139088667Y-106418095D01*
X136802953Y-105735381D02*
X136469619Y-105259190D01*
X136231524Y-105735381D02*
X136231524Y-104735381D01*
X136612477Y-104735381D01*
X136707715Y-104783000D01*
X136755334Y-104830619D01*
X136802953Y-104925857D01*
X136802953Y-105068714D01*
X136755334Y-105163952D01*
X136707715Y-105211571D01*
X136612477Y-105259190D01*
X136231524Y-105259190D01*
X137755334Y-105735381D02*
X137183905Y-105735381D01*
X137469619Y-105735381D02*
X137469619Y-104735381D01*
X137374381Y-104878238D01*
X137279143Y-104973476D01*
X137183905Y-105021095D01*
X138374381Y-104735381D02*
X138469620Y-104735381D01*
X138564858Y-104783000D01*
X138612477Y-104830619D01*
X138660096Y-104925857D01*
X138707715Y-105116333D01*
X138707715Y-105354429D01*
X138660096Y-105544905D01*
X138612477Y-105640143D01*
X138564858Y-105687762D01*
X138469620Y-105735381D01*
X138374381Y-105735381D01*
X138279143Y-105687762D01*
X138231524Y-105640143D01*
X138183905Y-105544905D01*
X138136286Y-105354429D01*
X138136286Y-105116333D01*
X138183905Y-104925857D01*
X138231524Y-104830619D01*
X138279143Y-104783000D01*
X138374381Y-104735381D01*
X139088667Y-104830619D02*
X139136286Y-104783000D01*
X139231524Y-104735381D01*
X139469620Y-104735381D01*
X139564858Y-104783000D01*
X139612477Y-104830619D01*
X139660096Y-104925857D01*
X139660096Y-105021095D01*
X139612477Y-105163952D01*
X139041048Y-105735381D01*
X139660096Y-105735381D01*
X136802953Y-102052381D02*
X136469619Y-101576190D01*
X136231524Y-102052381D02*
X136231524Y-101052381D01*
X136612477Y-101052381D01*
X136707715Y-101100000D01*
X136755334Y-101147619D01*
X136802953Y-101242857D01*
X136802953Y-101385714D01*
X136755334Y-101480952D01*
X136707715Y-101528571D01*
X136612477Y-101576190D01*
X136231524Y-101576190D01*
X137755334Y-102052381D02*
X137183905Y-102052381D01*
X137469619Y-102052381D02*
X137469619Y-101052381D01*
X137374381Y-101195238D01*
X137279143Y-101290476D01*
X137183905Y-101338095D01*
X138374381Y-101052381D02*
X138469620Y-101052381D01*
X138564858Y-101100000D01*
X138612477Y-101147619D01*
X138660096Y-101242857D01*
X138707715Y-101433333D01*
X138707715Y-101671429D01*
X138660096Y-101861905D01*
X138612477Y-101957143D01*
X138564858Y-102004762D01*
X138469620Y-102052381D01*
X138374381Y-102052381D01*
X138279143Y-102004762D01*
X138231524Y-101957143D01*
X138183905Y-101861905D01*
X138136286Y-101671429D01*
X138136286Y-101433333D01*
X138183905Y-101242857D01*
X138231524Y-101147619D01*
X138279143Y-101100000D01*
X138374381Y-101052381D01*
X139612477Y-101052381D02*
X139136286Y-101052381D01*
X139088667Y-101528571D01*
X139136286Y-101480952D01*
X139231524Y-101433333D01*
X139469620Y-101433333D01*
X139564858Y-101480952D01*
X139612477Y-101528571D01*
X139660096Y-101623810D01*
X139660096Y-101861905D01*
X139612477Y-101957143D01*
X139564858Y-102004762D01*
X139469620Y-102052381D01*
X139231524Y-102052381D01*
X139136286Y-102004762D01*
X139088667Y-101957143D01*
X136802953Y-100782381D02*
X136469619Y-100306190D01*
X136231524Y-100782381D02*
X136231524Y-99782381D01*
X136612477Y-99782381D01*
X136707715Y-99830000D01*
X136755334Y-99877619D01*
X136802953Y-99972857D01*
X136802953Y-100115714D01*
X136755334Y-100210952D01*
X136707715Y-100258571D01*
X136612477Y-100306190D01*
X136231524Y-100306190D01*
X137755334Y-100782381D02*
X137183905Y-100782381D01*
X137469619Y-100782381D02*
X137469619Y-99782381D01*
X137374381Y-99925238D01*
X137279143Y-100020476D01*
X137183905Y-100068095D01*
X138374381Y-99782381D02*
X138469620Y-99782381D01*
X138564858Y-99830000D01*
X138612477Y-99877619D01*
X138660096Y-99972857D01*
X138707715Y-100163333D01*
X138707715Y-100401429D01*
X138660096Y-100591905D01*
X138612477Y-100687143D01*
X138564858Y-100734762D01*
X138469620Y-100782381D01*
X138374381Y-100782381D01*
X138279143Y-100734762D01*
X138231524Y-100687143D01*
X138183905Y-100591905D01*
X138136286Y-100401429D01*
X138136286Y-100163333D01*
X138183905Y-99972857D01*
X138231524Y-99877619D01*
X138279143Y-99830000D01*
X138374381Y-99782381D01*
X139564858Y-99782381D02*
X139374381Y-99782381D01*
X139279143Y-99830000D01*
X139231524Y-99877619D01*
X139136286Y-100020476D01*
X139088667Y-100210952D01*
X139088667Y-100591905D01*
X139136286Y-100687143D01*
X139183905Y-100734762D01*
X139279143Y-100782381D01*
X139469620Y-100782381D01*
X139564858Y-100734762D01*
X139612477Y-100687143D01*
X139660096Y-100591905D01*
X139660096Y-100353810D01*
X139612477Y-100258571D01*
X139564858Y-100210952D01*
X139469620Y-100163333D01*
X139279143Y-100163333D01*
X139183905Y-100210952D01*
X139136286Y-100258571D01*
X139088667Y-100353810D01*
X155138381Y-97385047D02*
X154662190Y-97718381D01*
X155138381Y-97956476D02*
X154138381Y-97956476D01*
X154138381Y-97575523D01*
X154186000Y-97480285D01*
X154233619Y-97432666D01*
X154328857Y-97385047D01*
X154471714Y-97385047D01*
X154566952Y-97432666D01*
X154614571Y-97480285D01*
X154662190Y-97575523D01*
X154662190Y-97956476D01*
X155138381Y-96432666D02*
X155138381Y-97004095D01*
X155138381Y-96718381D02*
X154138381Y-96718381D01*
X154281238Y-96813619D01*
X154376476Y-96908857D01*
X154424095Y-97004095D01*
X155138381Y-95480285D02*
X155138381Y-96051714D01*
X155138381Y-95766000D02*
X154138381Y-95766000D01*
X154281238Y-95861238D01*
X154376476Y-95956476D01*
X154424095Y-96051714D01*
X154138381Y-94861238D02*
X154138381Y-94765999D01*
X154186000Y-94670761D01*
X154233619Y-94623142D01*
X154328857Y-94575523D01*
X154519333Y-94527904D01*
X154757429Y-94527904D01*
X154947905Y-94575523D01*
X155043143Y-94623142D01*
X155090762Y-94670761D01*
X155138381Y-94765999D01*
X155138381Y-94861238D01*
X155090762Y-94956476D01*
X155043143Y-95004095D01*
X154947905Y-95051714D01*
X154757429Y-95099333D01*
X154519333Y-95099333D01*
X154328857Y-95051714D01*
X154233619Y-95004095D01*
X154186000Y-94956476D01*
X154138381Y-94861238D01*
X151915953Y-105862381D02*
X151582619Y-105386190D01*
X151344524Y-105862381D02*
X151344524Y-104862381D01*
X151725477Y-104862381D01*
X151820715Y-104910000D01*
X151868334Y-104957619D01*
X151915953Y-105052857D01*
X151915953Y-105195714D01*
X151868334Y-105290952D01*
X151820715Y-105338571D01*
X151725477Y-105386190D01*
X151344524Y-105386190D01*
X152868334Y-105862381D02*
X152296905Y-105862381D01*
X152582619Y-105862381D02*
X152582619Y-104862381D01*
X152487381Y-105005238D01*
X152392143Y-105100476D01*
X152296905Y-105148095D01*
X153820715Y-105862381D02*
X153249286Y-105862381D01*
X153535000Y-105862381D02*
X153535000Y-104862381D01*
X153439762Y-105005238D01*
X153344524Y-105100476D01*
X153249286Y-105148095D01*
X154154048Y-104862381D02*
X154773096Y-104862381D01*
X154439762Y-105243333D01*
X154582620Y-105243333D01*
X154677858Y-105290952D01*
X154725477Y-105338571D01*
X154773096Y-105433810D01*
X154773096Y-105671905D01*
X154725477Y-105767143D01*
X154677858Y-105814762D01*
X154582620Y-105862381D01*
X154296905Y-105862381D01*
X154201667Y-105814762D01*
X154154048Y-105767143D01*
X143962381Y-99671047D02*
X143486190Y-100004381D01*
X143962381Y-100242476D02*
X142962381Y-100242476D01*
X142962381Y-99861523D01*
X143010000Y-99766285D01*
X143057619Y-99718666D01*
X143152857Y-99671047D01*
X143295714Y-99671047D01*
X143390952Y-99718666D01*
X143438571Y-99766285D01*
X143486190Y-99861523D01*
X143486190Y-100242476D01*
X143962381Y-98718666D02*
X143962381Y-99290095D01*
X143962381Y-99004381D02*
X142962381Y-99004381D01*
X143105238Y-99099619D01*
X143200476Y-99194857D01*
X143248095Y-99290095D01*
X143962381Y-97766285D02*
X143962381Y-98337714D01*
X143962381Y-98052000D02*
X142962381Y-98052000D01*
X143105238Y-98147238D01*
X143200476Y-98242476D01*
X143248095Y-98337714D01*
X143295714Y-96909142D02*
X143962381Y-96909142D01*
X142914762Y-97147238D02*
X143629048Y-97385333D01*
X143629048Y-96766285D01*
X142438381Y-110656476D02*
X141438381Y-110656476D01*
X141438381Y-110418381D01*
X141486000Y-110275523D01*
X141581238Y-110180285D01*
X141676476Y-110132666D01*
X141866952Y-110085047D01*
X142009810Y-110085047D01*
X142200286Y-110132666D01*
X142295524Y-110180285D01*
X142390762Y-110275523D01*
X142438381Y-110418381D01*
X142438381Y-110656476D01*
X142438381Y-109132666D02*
X142438381Y-109704095D01*
X142438381Y-109418381D02*
X141438381Y-109418381D01*
X141581238Y-109513619D01*
X141676476Y-109608857D01*
X141724095Y-109704095D01*
X141438381Y-108513619D02*
X141438381Y-108418380D01*
X141486000Y-108323142D01*
X141533619Y-108275523D01*
X141628857Y-108227904D01*
X141819333Y-108180285D01*
X142057429Y-108180285D01*
X142247905Y-108227904D01*
X142343143Y-108275523D01*
X142390762Y-108323142D01*
X142438381Y-108418380D01*
X142438381Y-108513619D01*
X142390762Y-108608857D01*
X142343143Y-108656476D01*
X142247905Y-108704095D01*
X142057429Y-108751714D01*
X141819333Y-108751714D01*
X141628857Y-108704095D01*
X141533619Y-108656476D01*
X141486000Y-108608857D01*
X141438381Y-108513619D01*
X141438381Y-107846952D02*
X141438381Y-107227904D01*
X141819333Y-107561238D01*
X141819333Y-107418380D01*
X141866952Y-107323142D01*
X141914571Y-107275523D01*
X142009810Y-107227904D01*
X142247905Y-107227904D01*
X142343143Y-107275523D01*
X142390762Y-107323142D01*
X142438381Y-107418380D01*
X142438381Y-107704095D01*
X142390762Y-107799333D01*
X142343143Y-107846952D01*
X148153381Y-110656476D02*
X147153381Y-110656476D01*
X147153381Y-110418381D01*
X147201000Y-110275523D01*
X147296238Y-110180285D01*
X147391476Y-110132666D01*
X147581952Y-110085047D01*
X147724810Y-110085047D01*
X147915286Y-110132666D01*
X148010524Y-110180285D01*
X148105762Y-110275523D01*
X148153381Y-110418381D01*
X148153381Y-110656476D01*
X148153381Y-109132666D02*
X148153381Y-109704095D01*
X148153381Y-109418381D02*
X147153381Y-109418381D01*
X147296238Y-109513619D01*
X147391476Y-109608857D01*
X147439095Y-109704095D01*
X147153381Y-108513619D02*
X147153381Y-108418380D01*
X147201000Y-108323142D01*
X147248619Y-108275523D01*
X147343857Y-108227904D01*
X147534333Y-108180285D01*
X147772429Y-108180285D01*
X147962905Y-108227904D01*
X148058143Y-108275523D01*
X148105762Y-108323142D01*
X148153381Y-108418380D01*
X148153381Y-108513619D01*
X148105762Y-108608857D01*
X148058143Y-108656476D01*
X147962905Y-108704095D01*
X147772429Y-108751714D01*
X147534333Y-108751714D01*
X147343857Y-108704095D01*
X147248619Y-108656476D01*
X147201000Y-108608857D01*
X147153381Y-108513619D01*
X147248619Y-107799333D02*
X147201000Y-107751714D01*
X147153381Y-107656476D01*
X147153381Y-107418380D01*
X147201000Y-107323142D01*
X147248619Y-107275523D01*
X147343857Y-107227904D01*
X147439095Y-107227904D01*
X147581952Y-107275523D01*
X148153381Y-107846952D01*
X148153381Y-107227904D01*
%LPC*%
D12*
X138430000Y-93980000D03*
X140970000Y-96520000D03*
X158750000Y-106680000D03*
X130810000Y-106680000D03*
D13*
X158496000Y-96266000D03*
X131064000Y-96266000D03*
D12*
X152400000Y-109220000D03*
X152400000Y-104140000D03*
X140970000Y-106680000D03*
X140970000Y-101600000D03*
X130810000Y-104140000D03*
X130810000Y-101600000D03*
X130810000Y-99060000D03*
X158750000Y-104140000D03*
X158750000Y-101600000D03*
D14*
X128524000Y-90170000D03*
X128524000Y-92710000D03*
X128524000Y-95250000D03*
X128524000Y-97790000D03*
X128524000Y-100330000D03*
X128524000Y-102870000D03*
X128524000Y-105410000D03*
X128524000Y-107950000D03*
X161036000Y-107950000D03*
X161036000Y-105410000D03*
X161036000Y-102870000D03*
X161036000Y-100330000D03*
X161036000Y-97790000D03*
X161036000Y-95250000D03*
X161036000Y-92710000D03*
X161036000Y-90170000D03*
D12*
X158750000Y-99060000D03*
D15*
X129540000Y-87122000D03*
X160020000Y-87122000D03*
D16*
X135890000Y-91440000D03*
D17*
X135890000Y-88900000D03*
X138430000Y-91440000D03*
X138430000Y-88900000D03*
X140970000Y-91440000D03*
X140970000Y-88900000D03*
X143510000Y-91440000D03*
X143510000Y-88900000D03*
X146050000Y-91440000D03*
X146050000Y-88900000D03*
X148590000Y-91440000D03*
X148590000Y-88900000D03*
X151130000Y-91440000D03*
X151130000Y-88900000D03*
X153670000Y-91440000D03*
X153670000Y-88900000D03*
D18*
X135339000Y-106680000D03*
X133139000Y-106680000D03*
X133139000Y-104140000D03*
X135339000Y-104140000D03*
X135339000Y-101600000D03*
X133139000Y-101600000D03*
X133139000Y-99060000D03*
X135339000Y-99060000D03*
D19*
X156337000Y-97366000D03*
X156337000Y-95166000D03*
D18*
X148209000Y-105156000D03*
X150409000Y-105156000D03*
D19*
X143510000Y-103335000D03*
X143510000Y-101135000D03*
D20*
X143510000Y-107626000D03*
X143510000Y-105226000D03*
X146050000Y-107626000D03*
X146050000Y-105226000D03*
D12*
X137668000Y-99060000D03*
X137668000Y-104140000D03*
D21*
X148336000Y-102108000D03*
X149225000Y-102997000D03*
M02*
