G04 #@! TF.GenerationSoftware,KiCad,Pcbnew,(5.1.5)*
G04 #@! TF.CreationDate,2019-12-06T17:14:53-05:00*
G04 #@! TF.ProjectId,term,7465726d-2e6b-4696-9361-645f70636258,rev?*
G04 #@! TF.SameCoordinates,Original*
G04 #@! TF.FileFunction,Copper,L1,Top*
G04 #@! TF.FilePolarity,Positive*
%FSLAX46Y46*%
G04 Gerber Fmt 4.6, Leading zero omitted, Abs format (unit mm)*
G04 Created by KiCad (PCBNEW (5.1.5)) date 2019-12-06 17:14:53*
%MOMM*%
%LPD*%
G04 APERTURE LIST*
%ADD10C,1.016000*%
%ADD11C,2.032000*%
%ADD12R,2.032000X1.778000*%
%ADD13C,2.286000*%
%ADD14R,1.778000X1.778000*%
%ADD15C,1.778000*%
%ADD16R,1.000000X1.300000*%
%ADD17R,1.300000X1.000000*%
%ADD18R,1.300000X1.200000*%
%ADD19C,0.889000*%
%ADD20C,1.016000*%
%ADD21C,0.254000*%
%ADD22C,1.524000*%
G04 APERTURE END LIST*
D10*
X138430000Y-93980000D03*
X140970000Y-96520000D03*
X158750000Y-106680000D03*
X130810000Y-106680000D03*
D11*
X158496000Y-96266000D03*
X131064000Y-96266000D03*
D10*
X152400000Y-109220000D03*
X152400000Y-104140000D03*
X140970000Y-106680000D03*
X140970000Y-101600000D03*
X130810000Y-104140000D03*
X130810000Y-101600000D03*
X130810000Y-99060000D03*
X158750000Y-104140000D03*
X158750000Y-101600000D03*
D12*
X128524000Y-90170000D03*
X128524000Y-92710000D03*
X128524000Y-95250000D03*
X128524000Y-97790000D03*
X128524000Y-100330000D03*
X128524000Y-102870000D03*
X128524000Y-105410000D03*
X128524000Y-107950000D03*
X161036000Y-107950000D03*
X161036000Y-105410000D03*
X161036000Y-102870000D03*
X161036000Y-100330000D03*
X161036000Y-97790000D03*
X161036000Y-95250000D03*
X161036000Y-92710000D03*
X161036000Y-90170000D03*
D10*
X158750000Y-99060000D03*
D13*
X129540000Y-87122000D03*
X160020000Y-87122000D03*
D14*
X135890000Y-91440000D03*
D15*
X135890000Y-88900000D03*
X138430000Y-91440000D03*
X138430000Y-88900000D03*
X140970000Y-91440000D03*
X140970000Y-88900000D03*
X143510000Y-91440000D03*
X143510000Y-88900000D03*
X146050000Y-91440000D03*
X146050000Y-88900000D03*
X148590000Y-91440000D03*
X148590000Y-88900000D03*
X151130000Y-91440000D03*
X151130000Y-88900000D03*
X153670000Y-91440000D03*
X153670000Y-88900000D03*
D16*
X135339000Y-106680000D03*
X133139000Y-106680000D03*
X133139000Y-104140000D03*
X135339000Y-104140000D03*
X135339000Y-101600000D03*
X133139000Y-101600000D03*
X133139000Y-99060000D03*
X135339000Y-99060000D03*
D17*
X156337000Y-97366000D03*
X156337000Y-95166000D03*
D16*
X148209000Y-105156000D03*
X150409000Y-105156000D03*
D17*
X143510000Y-103335000D03*
X143510000Y-101135000D03*
D18*
X143510000Y-107626000D03*
X143510000Y-105226000D03*
X146050000Y-107626000D03*
X146050000Y-105226000D03*
D10*
X137668000Y-99060000D03*
X137668000Y-104140000D03*
D19*
X148336000Y-102108000D03*
X149225000Y-102997000D03*
D20*
X135339000Y-99060000D02*
X135339000Y-97493000D01*
X135339000Y-97493000D02*
X130556000Y-92710000D01*
X130556000Y-92710000D02*
X128524000Y-92710000D01*
X137668000Y-99060000D02*
X135339000Y-99060000D01*
X135339000Y-104140000D02*
X137668000Y-104140000D01*
D21*
X143510000Y-91440000D02*
X148336000Y-96266000D01*
X148336000Y-96266000D02*
X151130000Y-96266000D01*
X151130000Y-96266000D02*
X155194000Y-100330000D01*
X155194000Y-100330000D02*
X161036000Y-100330000D01*
X140970000Y-91440000D02*
X147320000Y-97790000D01*
X147320000Y-97790000D02*
X150622000Y-97790000D01*
X150622000Y-97790000D02*
X155702000Y-102870000D01*
X155702000Y-102870000D02*
X159766000Y-102870000D01*
X159766000Y-102870000D02*
X161036000Y-102870000D01*
X138430000Y-91440000D02*
X146304000Y-99314000D01*
X146304000Y-99314000D02*
X150114000Y-99314000D01*
X150114000Y-99314000D02*
X156210000Y-105410000D01*
X156210000Y-105410000D02*
X161036000Y-105410000D01*
X156337000Y-97366000D02*
X154262000Y-97366000D01*
X154262000Y-97366000D02*
X151638000Y-94742000D01*
X151638000Y-94742000D02*
X149352000Y-94742000D01*
X149352000Y-94742000D02*
X146050000Y-91440000D01*
X157734000Y-97790000D02*
X161036000Y-97790000D01*
X156337000Y-97366000D02*
X157310000Y-97366000D01*
X157310000Y-97366000D02*
X157734000Y-97790000D01*
X148336000Y-102108000D02*
X145542000Y-102108000D01*
X145542000Y-102108000D02*
X144569000Y-101135000D01*
X144569000Y-101135000D02*
X143510000Y-101135000D01*
D20*
X152781001Y-93091001D02*
X156337000Y-93091001D01*
X156337000Y-93091001D02*
X158368999Y-93091001D01*
D21*
X156337000Y-95166000D02*
X156337000Y-93091001D01*
D20*
X151130000Y-91440000D02*
X152781001Y-93091001D01*
X158750000Y-92710000D02*
X161036000Y-92710000D01*
X158368999Y-93091001D02*
X158750000Y-92710000D01*
X153670000Y-88900000D02*
X156210000Y-88900000D01*
X156210000Y-88900000D02*
X157480000Y-90170000D01*
D21*
X149225000Y-102997000D02*
X150409000Y-104181000D01*
X150409000Y-104181000D02*
X150409000Y-105156000D01*
D22*
X161036000Y-90170000D02*
X161036000Y-88138000D01*
X161036000Y-88138000D02*
X160020000Y-87122000D01*
D20*
X156210000Y-91440000D02*
X157480000Y-90170000D01*
D22*
X157480000Y-90170000D02*
X161036000Y-90170000D01*
D20*
X153670000Y-91440000D02*
X156210000Y-91440000D01*
D22*
X128524000Y-90170000D02*
X128524000Y-88138000D01*
X128524000Y-88138000D02*
X129540000Y-87122000D01*
D21*
X146050000Y-105226000D02*
X147123000Y-105226000D01*
X147123000Y-105226000D02*
X147193000Y-105156000D01*
X147193000Y-105156000D02*
X148209000Y-105156000D01*
X143510000Y-103335000D02*
X143510000Y-105226000D01*
X133139000Y-101600000D02*
X133139000Y-100627000D01*
X133139000Y-100627000D02*
X132842000Y-100330000D01*
X133139000Y-99060000D02*
X133139000Y-100033000D01*
X133139000Y-100033000D02*
X132842000Y-100330000D01*
X128524000Y-100330000D02*
X132842000Y-100330000D01*
X133139000Y-106680000D02*
X133139000Y-105707000D01*
X133139000Y-105707000D02*
X132842000Y-105410000D01*
X133139000Y-104140000D02*
X133139000Y-105113000D01*
X133139000Y-105113000D02*
X132842000Y-105410000D01*
X128524000Y-105410000D02*
X132842000Y-105410000D01*
G36*
X162002001Y-87313164D02*
G01*
X161938370Y-87235630D01*
X161889914Y-87195863D01*
X161671000Y-86976949D01*
X161671000Y-86959391D01*
X161607553Y-86640421D01*
X161483097Y-86339958D01*
X161302415Y-86069549D01*
X161072451Y-85839585D01*
X160802042Y-85658903D01*
X160501579Y-85534447D01*
X160182609Y-85471000D01*
X159857391Y-85471000D01*
X159538421Y-85534447D01*
X159237958Y-85658903D01*
X158967549Y-85839585D01*
X158737585Y-86069549D01*
X158556903Y-86339958D01*
X158432447Y-86640421D01*
X158369000Y-86959391D01*
X158369000Y-87284609D01*
X158432447Y-87603579D01*
X158556903Y-87904042D01*
X158737585Y-88174451D01*
X158967549Y-88404415D01*
X159237958Y-88585097D01*
X159538421Y-88709553D01*
X159766001Y-88754821D01*
X159766001Y-88840752D01*
X159736405Y-88856571D01*
X159683486Y-88900000D01*
X157646841Y-88900000D01*
X156963712Y-88216872D01*
X156931896Y-88178104D01*
X156777190Y-88051140D01*
X156600687Y-87956798D01*
X156409171Y-87898702D01*
X156259902Y-87884000D01*
X156210000Y-87879085D01*
X156160098Y-87884000D01*
X154629655Y-87884000D01*
X154560535Y-87814880D01*
X154331727Y-87661995D01*
X154077490Y-87556686D01*
X153807592Y-87503000D01*
X153532408Y-87503000D01*
X153262510Y-87556686D01*
X153008273Y-87661995D01*
X152779465Y-87814880D01*
X152584880Y-88009465D01*
X152431995Y-88238273D01*
X152402308Y-88309943D01*
X152397636Y-88296977D01*
X152335656Y-88181020D01*
X152118130Y-88091475D01*
X151309605Y-88900000D01*
X152118130Y-89708525D01*
X152335656Y-89618980D01*
X152399485Y-89483240D01*
X152431995Y-89561727D01*
X152584880Y-89790535D01*
X152779465Y-89985120D01*
X153008273Y-90138005D01*
X153085515Y-90170000D01*
X153008273Y-90201995D01*
X152779465Y-90354880D01*
X152584880Y-90549465D01*
X152431995Y-90778273D01*
X152400000Y-90855515D01*
X152368005Y-90778273D01*
X152215120Y-90549465D01*
X152020535Y-90354880D01*
X151791727Y-90201995D01*
X151720057Y-90172308D01*
X151733023Y-90167636D01*
X151848980Y-90105656D01*
X151938525Y-89888130D01*
X151130000Y-89079605D01*
X150321475Y-89888130D01*
X150411020Y-90105656D01*
X150546760Y-90169485D01*
X150468273Y-90201995D01*
X150239465Y-90354880D01*
X150044880Y-90549465D01*
X149891995Y-90778273D01*
X149860000Y-90855515D01*
X149828005Y-90778273D01*
X149675120Y-90549465D01*
X149480535Y-90354880D01*
X149251727Y-90201995D01*
X149180057Y-90172308D01*
X149193023Y-90167636D01*
X149308980Y-90105656D01*
X149398525Y-89888130D01*
X148590000Y-89079605D01*
X147781475Y-89888130D01*
X147871020Y-90105656D01*
X148006760Y-90169485D01*
X147928273Y-90201995D01*
X147699465Y-90354880D01*
X147504880Y-90549465D01*
X147351995Y-90778273D01*
X147320000Y-90855515D01*
X147288005Y-90778273D01*
X147135120Y-90549465D01*
X146940535Y-90354880D01*
X146711727Y-90201995D01*
X146640057Y-90172308D01*
X146653023Y-90167636D01*
X146768980Y-90105656D01*
X146858525Y-89888130D01*
X146050000Y-89079605D01*
X145241475Y-89888130D01*
X145331020Y-90105656D01*
X145466760Y-90169485D01*
X145388273Y-90201995D01*
X145159465Y-90354880D01*
X144964880Y-90549465D01*
X144811995Y-90778273D01*
X144780000Y-90855515D01*
X144748005Y-90778273D01*
X144595120Y-90549465D01*
X144400535Y-90354880D01*
X144171727Y-90201995D01*
X144100057Y-90172308D01*
X144113023Y-90167636D01*
X144228980Y-90105656D01*
X144318525Y-89888130D01*
X143510000Y-89079605D01*
X142701475Y-89888130D01*
X142791020Y-90105656D01*
X142926760Y-90169485D01*
X142848273Y-90201995D01*
X142619465Y-90354880D01*
X142424880Y-90549465D01*
X142271995Y-90778273D01*
X142240000Y-90855515D01*
X142208005Y-90778273D01*
X142055120Y-90549465D01*
X141860535Y-90354880D01*
X141631727Y-90201995D01*
X141560057Y-90172308D01*
X141573023Y-90167636D01*
X141688980Y-90105656D01*
X141778525Y-89888130D01*
X140970000Y-89079605D01*
X140161475Y-89888130D01*
X140251020Y-90105656D01*
X140386760Y-90169485D01*
X140308273Y-90201995D01*
X140079465Y-90354880D01*
X139884880Y-90549465D01*
X139731995Y-90778273D01*
X139700000Y-90855515D01*
X139668005Y-90778273D01*
X139515120Y-90549465D01*
X139320535Y-90354880D01*
X139091727Y-90201995D01*
X139020057Y-90172308D01*
X139033023Y-90167636D01*
X139148980Y-90105656D01*
X139238525Y-89888130D01*
X138430000Y-89079605D01*
X137621475Y-89888130D01*
X137711020Y-90105656D01*
X137846760Y-90169485D01*
X137768273Y-90201995D01*
X137539465Y-90354880D01*
X137344880Y-90549465D01*
X137289457Y-90632411D01*
X137289457Y-90551000D01*
X137279649Y-90451415D01*
X137250601Y-90355657D01*
X137203429Y-90267405D01*
X137139948Y-90190052D01*
X137062595Y-90126571D01*
X136974343Y-90079399D01*
X136878585Y-90050351D01*
X136779000Y-90040543D01*
X136697589Y-90040543D01*
X136780535Y-89985120D01*
X136975120Y-89790535D01*
X137128005Y-89561727D01*
X137157692Y-89490057D01*
X137162364Y-89503023D01*
X137224344Y-89618980D01*
X137441870Y-89708525D01*
X138250395Y-88900000D01*
X138609605Y-88900000D01*
X139418130Y-89708525D01*
X139635656Y-89618980D01*
X139697079Y-89488356D01*
X139702364Y-89503023D01*
X139764344Y-89618980D01*
X139981870Y-89708525D01*
X140790395Y-88900000D01*
X141149605Y-88900000D01*
X141958130Y-89708525D01*
X142175656Y-89618980D01*
X142237079Y-89488356D01*
X142242364Y-89503023D01*
X142304344Y-89618980D01*
X142521870Y-89708525D01*
X143330395Y-88900000D01*
X143689605Y-88900000D01*
X144498130Y-89708525D01*
X144715656Y-89618980D01*
X144777079Y-89488356D01*
X144782364Y-89503023D01*
X144844344Y-89618980D01*
X145061870Y-89708525D01*
X145870395Y-88900000D01*
X146229605Y-88900000D01*
X147038130Y-89708525D01*
X147255656Y-89618980D01*
X147317079Y-89488356D01*
X147322364Y-89503023D01*
X147384344Y-89618980D01*
X147601870Y-89708525D01*
X148410395Y-88900000D01*
X148769605Y-88900000D01*
X149578130Y-89708525D01*
X149795656Y-89618980D01*
X149857079Y-89488356D01*
X149862364Y-89503023D01*
X149924344Y-89618980D01*
X150141870Y-89708525D01*
X150950395Y-88900000D01*
X150141870Y-88091475D01*
X149924344Y-88181020D01*
X149862921Y-88311644D01*
X149857636Y-88296977D01*
X149795656Y-88181020D01*
X149578130Y-88091475D01*
X148769605Y-88900000D01*
X148410395Y-88900000D01*
X147601870Y-88091475D01*
X147384344Y-88181020D01*
X147322921Y-88311644D01*
X147317636Y-88296977D01*
X147255656Y-88181020D01*
X147038130Y-88091475D01*
X146229605Y-88900000D01*
X145870395Y-88900000D01*
X145061870Y-88091475D01*
X144844344Y-88181020D01*
X144782921Y-88311644D01*
X144777636Y-88296977D01*
X144715656Y-88181020D01*
X144498130Y-88091475D01*
X143689605Y-88900000D01*
X143330395Y-88900000D01*
X142521870Y-88091475D01*
X142304344Y-88181020D01*
X142242921Y-88311644D01*
X142237636Y-88296977D01*
X142175656Y-88181020D01*
X141958130Y-88091475D01*
X141149605Y-88900000D01*
X140790395Y-88900000D01*
X139981870Y-88091475D01*
X139764344Y-88181020D01*
X139702921Y-88311644D01*
X139697636Y-88296977D01*
X139635656Y-88181020D01*
X139418130Y-88091475D01*
X138609605Y-88900000D01*
X138250395Y-88900000D01*
X137441870Y-88091475D01*
X137224344Y-88181020D01*
X137160515Y-88316760D01*
X137128005Y-88238273D01*
X136975120Y-88009465D01*
X136877525Y-87911870D01*
X137621475Y-87911870D01*
X138430000Y-88720395D01*
X139238525Y-87911870D01*
X140161475Y-87911870D01*
X140970000Y-88720395D01*
X141778525Y-87911870D01*
X142701475Y-87911870D01*
X143510000Y-88720395D01*
X144318525Y-87911870D01*
X145241475Y-87911870D01*
X146050000Y-88720395D01*
X146858525Y-87911870D01*
X147781475Y-87911870D01*
X148590000Y-88720395D01*
X149398525Y-87911870D01*
X150321475Y-87911870D01*
X151130000Y-88720395D01*
X151938525Y-87911870D01*
X151848980Y-87694344D01*
X151599952Y-87577244D01*
X151332865Y-87510977D01*
X151057983Y-87498090D01*
X150785867Y-87539078D01*
X150526977Y-87632364D01*
X150411020Y-87694344D01*
X150321475Y-87911870D01*
X149398525Y-87911870D01*
X149308980Y-87694344D01*
X149059952Y-87577244D01*
X148792865Y-87510977D01*
X148517983Y-87498090D01*
X148245867Y-87539078D01*
X147986977Y-87632364D01*
X147871020Y-87694344D01*
X147781475Y-87911870D01*
X146858525Y-87911870D01*
X146768980Y-87694344D01*
X146519952Y-87577244D01*
X146252865Y-87510977D01*
X145977983Y-87498090D01*
X145705867Y-87539078D01*
X145446977Y-87632364D01*
X145331020Y-87694344D01*
X145241475Y-87911870D01*
X144318525Y-87911870D01*
X144228980Y-87694344D01*
X143979952Y-87577244D01*
X143712865Y-87510977D01*
X143437983Y-87498090D01*
X143165867Y-87539078D01*
X142906977Y-87632364D01*
X142791020Y-87694344D01*
X142701475Y-87911870D01*
X141778525Y-87911870D01*
X141688980Y-87694344D01*
X141439952Y-87577244D01*
X141172865Y-87510977D01*
X140897983Y-87498090D01*
X140625867Y-87539078D01*
X140366977Y-87632364D01*
X140251020Y-87694344D01*
X140161475Y-87911870D01*
X139238525Y-87911870D01*
X139148980Y-87694344D01*
X138899952Y-87577244D01*
X138632865Y-87510977D01*
X138357983Y-87498090D01*
X138085867Y-87539078D01*
X137826977Y-87632364D01*
X137711020Y-87694344D01*
X137621475Y-87911870D01*
X136877525Y-87911870D01*
X136780535Y-87814880D01*
X136551727Y-87661995D01*
X136297490Y-87556686D01*
X136027592Y-87503000D01*
X135752408Y-87503000D01*
X135482510Y-87556686D01*
X135228273Y-87661995D01*
X134999465Y-87814880D01*
X134804880Y-88009465D01*
X134651995Y-88238273D01*
X134546686Y-88492510D01*
X134493000Y-88762408D01*
X134493000Y-89037592D01*
X134546686Y-89307490D01*
X134651995Y-89561727D01*
X134804880Y-89790535D01*
X134999465Y-89985120D01*
X135082411Y-90040543D01*
X135001000Y-90040543D01*
X134901415Y-90050351D01*
X134805657Y-90079399D01*
X134717405Y-90126571D01*
X134640052Y-90190052D01*
X134576571Y-90267405D01*
X134529399Y-90355657D01*
X134500351Y-90451415D01*
X134490543Y-90551000D01*
X134490543Y-92329000D01*
X134500351Y-92428585D01*
X134529399Y-92524343D01*
X134576571Y-92612595D01*
X134640052Y-92689948D01*
X134717405Y-92753429D01*
X134805657Y-92800601D01*
X134901415Y-92829649D01*
X135001000Y-92839457D01*
X136779000Y-92839457D01*
X136878585Y-92829649D01*
X136974343Y-92800601D01*
X137062595Y-92753429D01*
X137139948Y-92689948D01*
X137203429Y-92612595D01*
X137250601Y-92524343D01*
X137279649Y-92428585D01*
X137289457Y-92329000D01*
X137289457Y-92247589D01*
X137344880Y-92330535D01*
X137539465Y-92525120D01*
X137768273Y-92678005D01*
X138022510Y-92783314D01*
X138292408Y-92837000D01*
X138567592Y-92837000D01*
X138837490Y-92783314D01*
X138864218Y-92772243D01*
X145832935Y-99740961D01*
X145852815Y-99765185D01*
X145877039Y-99785065D01*
X145877043Y-99785069D01*
X145949506Y-99844538D01*
X146058961Y-99903043D01*
X146059820Y-99903502D01*
X146179518Y-99939812D01*
X146272808Y-99949000D01*
X146272811Y-99949000D01*
X146304000Y-99952072D01*
X146335189Y-99949000D01*
X149850976Y-99949000D01*
X155738930Y-105836955D01*
X155758815Y-105861185D01*
X155783043Y-105881068D01*
X155855506Y-105940538D01*
X155965820Y-105999502D01*
X156085518Y-106035812D01*
X156178808Y-106045000D01*
X156178811Y-106045000D01*
X156210000Y-106048072D01*
X156241189Y-106045000D01*
X159509543Y-106045000D01*
X159509543Y-106299000D01*
X159519351Y-106398585D01*
X159548399Y-106494343D01*
X159595571Y-106582595D01*
X159659052Y-106659948D01*
X159683486Y-106680000D01*
X159659052Y-106700052D01*
X159595570Y-106777405D01*
X159548398Y-106865656D01*
X159519350Y-106961415D01*
X159509542Y-107061000D01*
X159512000Y-107442000D01*
X159639000Y-107569000D01*
X160655000Y-107569000D01*
X160655000Y-107549000D01*
X161417000Y-107549000D01*
X161417000Y-107569000D01*
X161437000Y-107569000D01*
X161437000Y-108331000D01*
X161417000Y-108331000D01*
X161417000Y-109220000D01*
X161544000Y-109347000D01*
X162002000Y-109349216D01*
X162002000Y-113742000D01*
X127558000Y-113742000D01*
X127558000Y-109349216D01*
X128016000Y-109347000D01*
X128143000Y-109220000D01*
X128143000Y-108331000D01*
X128905000Y-108331000D01*
X128905000Y-109220000D01*
X129032000Y-109347000D01*
X129540000Y-109349458D01*
X129639585Y-109339650D01*
X129735344Y-109310602D01*
X129823595Y-109263430D01*
X129900948Y-109199948D01*
X129964430Y-109122595D01*
X130011602Y-109034344D01*
X130040650Y-108938585D01*
X130050458Y-108839000D01*
X159509542Y-108839000D01*
X159519350Y-108938585D01*
X159548398Y-109034344D01*
X159595570Y-109122595D01*
X159659052Y-109199948D01*
X159736405Y-109263430D01*
X159824656Y-109310602D01*
X159920415Y-109339650D01*
X160020000Y-109349458D01*
X160528000Y-109347000D01*
X160655000Y-109220000D01*
X160655000Y-108331000D01*
X159639000Y-108331000D01*
X159512000Y-108458000D01*
X159509542Y-108839000D01*
X130050458Y-108839000D01*
X130048000Y-108458000D01*
X129921000Y-108331000D01*
X128905000Y-108331000D01*
X128143000Y-108331000D01*
X128123000Y-108331000D01*
X128123000Y-108226000D01*
X142349542Y-108226000D01*
X142359350Y-108325585D01*
X142388398Y-108421344D01*
X142435570Y-108509595D01*
X142499052Y-108586948D01*
X142576405Y-108650430D01*
X142664656Y-108697602D01*
X142760415Y-108726650D01*
X142860000Y-108736458D01*
X143256000Y-108734000D01*
X143383000Y-108607000D01*
X143383000Y-107753000D01*
X143637000Y-107753000D01*
X143637000Y-108607000D01*
X143764000Y-108734000D01*
X144160000Y-108736458D01*
X144259585Y-108726650D01*
X144355344Y-108697602D01*
X144443595Y-108650430D01*
X144520948Y-108586948D01*
X144584430Y-108509595D01*
X144631602Y-108421344D01*
X144660650Y-108325585D01*
X144670458Y-108226000D01*
X144889542Y-108226000D01*
X144899350Y-108325585D01*
X144928398Y-108421344D01*
X144975570Y-108509595D01*
X145039052Y-108586948D01*
X145116405Y-108650430D01*
X145204656Y-108697602D01*
X145300415Y-108726650D01*
X145400000Y-108736458D01*
X145796000Y-108734000D01*
X145923000Y-108607000D01*
X145923000Y-107753000D01*
X146177000Y-107753000D01*
X146177000Y-108607000D01*
X146304000Y-108734000D01*
X146700000Y-108736458D01*
X146799585Y-108726650D01*
X146895344Y-108697602D01*
X146983595Y-108650430D01*
X147060948Y-108586948D01*
X147124430Y-108509595D01*
X147171602Y-108421344D01*
X147200650Y-108325585D01*
X147210458Y-108226000D01*
X147208000Y-107880000D01*
X147081000Y-107753000D01*
X146177000Y-107753000D01*
X145923000Y-107753000D01*
X145019000Y-107753000D01*
X144892000Y-107880000D01*
X144889542Y-108226000D01*
X144670458Y-108226000D01*
X144668000Y-107880000D01*
X144541000Y-107753000D01*
X143637000Y-107753000D01*
X143383000Y-107753000D01*
X142479000Y-107753000D01*
X142352000Y-107880000D01*
X142349542Y-108226000D01*
X128123000Y-108226000D01*
X128123000Y-107569000D01*
X128143000Y-107569000D01*
X128143000Y-107549000D01*
X128905000Y-107549000D01*
X128905000Y-107569000D01*
X129921000Y-107569000D01*
X130048000Y-107442000D01*
X130050458Y-107061000D01*
X130040650Y-106961415D01*
X130011602Y-106865656D01*
X129964430Y-106777405D01*
X129900948Y-106700052D01*
X129876514Y-106680000D01*
X129900948Y-106659948D01*
X129964429Y-106582595D01*
X130011601Y-106494343D01*
X130040649Y-106398585D01*
X130050457Y-106299000D01*
X130050457Y-106045000D01*
X132128543Y-106045000D01*
X132128543Y-107330000D01*
X132138351Y-107429585D01*
X132167399Y-107525343D01*
X132214571Y-107613595D01*
X132278052Y-107690948D01*
X132355405Y-107754429D01*
X132443657Y-107801601D01*
X132539415Y-107830649D01*
X132639000Y-107840457D01*
X133639000Y-107840457D01*
X133738585Y-107830649D01*
X133834343Y-107801601D01*
X133922595Y-107754429D01*
X133999948Y-107690948D01*
X134063429Y-107613595D01*
X134110601Y-107525343D01*
X134139649Y-107429585D01*
X134149457Y-107330000D01*
X134328542Y-107330000D01*
X134338350Y-107429585D01*
X134367398Y-107525344D01*
X134414570Y-107613595D01*
X134478052Y-107690948D01*
X134555405Y-107754430D01*
X134643656Y-107801602D01*
X134739415Y-107830650D01*
X134839000Y-107840458D01*
X135085000Y-107838000D01*
X135212000Y-107711000D01*
X135212000Y-106807000D01*
X135466000Y-106807000D01*
X135466000Y-107711000D01*
X135593000Y-107838000D01*
X135839000Y-107840458D01*
X135938585Y-107830650D01*
X136034344Y-107801602D01*
X136122595Y-107754430D01*
X136199948Y-107690948D01*
X136263430Y-107613595D01*
X136310602Y-107525344D01*
X136339650Y-107429585D01*
X136349458Y-107330000D01*
X136347572Y-107026000D01*
X142349542Y-107026000D01*
X142352000Y-107372000D01*
X142479000Y-107499000D01*
X143383000Y-107499000D01*
X143383000Y-106645000D01*
X143637000Y-106645000D01*
X143637000Y-107499000D01*
X144541000Y-107499000D01*
X144668000Y-107372000D01*
X144670458Y-107026000D01*
X144889542Y-107026000D01*
X144892000Y-107372000D01*
X145019000Y-107499000D01*
X145923000Y-107499000D01*
X145923000Y-106645000D01*
X146177000Y-106645000D01*
X146177000Y-107499000D01*
X147081000Y-107499000D01*
X147208000Y-107372000D01*
X147210458Y-107026000D01*
X147200650Y-106926415D01*
X147171602Y-106830656D01*
X147124430Y-106742405D01*
X147060948Y-106665052D01*
X146983595Y-106601570D01*
X146895344Y-106554398D01*
X146799585Y-106525350D01*
X146700000Y-106515542D01*
X146304000Y-106518000D01*
X146177000Y-106645000D01*
X145923000Y-106645000D01*
X145796000Y-106518000D01*
X145400000Y-106515542D01*
X145300415Y-106525350D01*
X145204656Y-106554398D01*
X145116405Y-106601570D01*
X145039052Y-106665052D01*
X144975570Y-106742405D01*
X144928398Y-106830656D01*
X144899350Y-106926415D01*
X144889542Y-107026000D01*
X144670458Y-107026000D01*
X144660650Y-106926415D01*
X144631602Y-106830656D01*
X144584430Y-106742405D01*
X144520948Y-106665052D01*
X144443595Y-106601570D01*
X144355344Y-106554398D01*
X144259585Y-106525350D01*
X144160000Y-106515542D01*
X143764000Y-106518000D01*
X143637000Y-106645000D01*
X143383000Y-106645000D01*
X143256000Y-106518000D01*
X142860000Y-106515542D01*
X142760415Y-106525350D01*
X142664656Y-106554398D01*
X142576405Y-106601570D01*
X142499052Y-106665052D01*
X142435570Y-106742405D01*
X142388398Y-106830656D01*
X142359350Y-106926415D01*
X142349542Y-107026000D01*
X136347572Y-107026000D01*
X136347000Y-106934000D01*
X136220000Y-106807000D01*
X135466000Y-106807000D01*
X135212000Y-106807000D01*
X134458000Y-106807000D01*
X134331000Y-106934000D01*
X134328542Y-107330000D01*
X134149457Y-107330000D01*
X134149457Y-106030000D01*
X134328542Y-106030000D01*
X134331000Y-106426000D01*
X134458000Y-106553000D01*
X135212000Y-106553000D01*
X135212000Y-105649000D01*
X135466000Y-105649000D01*
X135466000Y-106553000D01*
X136220000Y-106553000D01*
X136347000Y-106426000D01*
X136349458Y-106030000D01*
X136339650Y-105930415D01*
X136310602Y-105834656D01*
X136263430Y-105746405D01*
X136199948Y-105669052D01*
X136122595Y-105605570D01*
X136034344Y-105558398D01*
X135938585Y-105529350D01*
X135839000Y-105519542D01*
X135593000Y-105522000D01*
X135466000Y-105649000D01*
X135212000Y-105649000D01*
X135085000Y-105522000D01*
X134839000Y-105519542D01*
X134739415Y-105529350D01*
X134643656Y-105558398D01*
X134555405Y-105605570D01*
X134478052Y-105669052D01*
X134414570Y-105746405D01*
X134367398Y-105834656D01*
X134338350Y-105930415D01*
X134328542Y-106030000D01*
X134149457Y-106030000D01*
X134139649Y-105930415D01*
X134110601Y-105834657D01*
X134063429Y-105746405D01*
X133999948Y-105669052D01*
X133922595Y-105605571D01*
X133834343Y-105558399D01*
X133749707Y-105532725D01*
X133728502Y-105462820D01*
X133700269Y-105410000D01*
X133728502Y-105357180D01*
X133749707Y-105287275D01*
X133834343Y-105261601D01*
X133922595Y-105214429D01*
X133999948Y-105150948D01*
X134063429Y-105073595D01*
X134110601Y-104985343D01*
X134139649Y-104889585D01*
X134149457Y-104790000D01*
X134149457Y-104140000D01*
X134318085Y-104140000D01*
X134328543Y-104246180D01*
X134328543Y-104790000D01*
X134338351Y-104889585D01*
X134367399Y-104985343D01*
X134414571Y-105073595D01*
X134478052Y-105150948D01*
X134555405Y-105214429D01*
X134643657Y-105261601D01*
X134739415Y-105290649D01*
X134839000Y-105300457D01*
X135839000Y-105300457D01*
X135938585Y-105290649D01*
X136034343Y-105261601D01*
X136122595Y-105214429D01*
X136193792Y-105156000D01*
X137768067Y-105156000D01*
X137817271Y-105146213D01*
X137867171Y-105141298D01*
X137915151Y-105126743D01*
X137964356Y-105116956D01*
X138010709Y-105097756D01*
X138058687Y-105083202D01*
X138102905Y-105059567D01*
X138149256Y-105040368D01*
X138190968Y-105012497D01*
X138235190Y-104988860D01*
X138273953Y-104957048D01*
X138315662Y-104929179D01*
X138351133Y-104893708D01*
X138389896Y-104861896D01*
X138421708Y-104823133D01*
X138457179Y-104787662D01*
X138485048Y-104745953D01*
X138516860Y-104707190D01*
X138540497Y-104662968D01*
X138568368Y-104621256D01*
X138587567Y-104574905D01*
X138611202Y-104530687D01*
X138625756Y-104482709D01*
X138644956Y-104436356D01*
X138654743Y-104387151D01*
X138669298Y-104339171D01*
X138674213Y-104289271D01*
X138684000Y-104240067D01*
X138684000Y-104189902D01*
X138688915Y-104140000D01*
X138684000Y-104090098D01*
X138684000Y-104039933D01*
X138674213Y-103990729D01*
X138669298Y-103940829D01*
X138654743Y-103892849D01*
X138644956Y-103843644D01*
X138625756Y-103797291D01*
X138611202Y-103749313D01*
X138587567Y-103705095D01*
X138568368Y-103658744D01*
X138540497Y-103617032D01*
X138516860Y-103572810D01*
X138485048Y-103534047D01*
X138457179Y-103492338D01*
X138421708Y-103456867D01*
X138389896Y-103418104D01*
X138351133Y-103386292D01*
X138315662Y-103350821D01*
X138273953Y-103322952D01*
X138235190Y-103291140D01*
X138190968Y-103267503D01*
X138149256Y-103239632D01*
X138102905Y-103220433D01*
X138058687Y-103196798D01*
X138010709Y-103182244D01*
X137964356Y-103163044D01*
X137915151Y-103153257D01*
X137867171Y-103138702D01*
X137817271Y-103133787D01*
X137768067Y-103124000D01*
X136193792Y-103124000D01*
X136122595Y-103065571D01*
X136034343Y-103018399D01*
X135938585Y-102989351D01*
X135839000Y-102979543D01*
X134839000Y-102979543D01*
X134739415Y-102989351D01*
X134643657Y-103018399D01*
X134555405Y-103065571D01*
X134478052Y-103129052D01*
X134414571Y-103206405D01*
X134367399Y-103294657D01*
X134338351Y-103390415D01*
X134328543Y-103490000D01*
X134328543Y-104033820D01*
X134318085Y-104140000D01*
X134149457Y-104140000D01*
X134149457Y-103490000D01*
X134139649Y-103390415D01*
X134110601Y-103294657D01*
X134063429Y-103206405D01*
X133999948Y-103129052D01*
X133922595Y-103065571D01*
X133834343Y-103018399D01*
X133738585Y-102989351D01*
X133639000Y-102979543D01*
X132639000Y-102979543D01*
X132539415Y-102989351D01*
X132443657Y-103018399D01*
X132355405Y-103065571D01*
X132278052Y-103129052D01*
X132214571Y-103206405D01*
X132167399Y-103294657D01*
X132138351Y-103390415D01*
X132128543Y-103490000D01*
X132128543Y-104775000D01*
X130050457Y-104775000D01*
X130050457Y-104521000D01*
X130040649Y-104421415D01*
X130011601Y-104325657D01*
X129964429Y-104237405D01*
X129900948Y-104160052D01*
X129876514Y-104140000D01*
X129900948Y-104119948D01*
X129964429Y-104042595D01*
X130011601Y-103954343D01*
X130040649Y-103858585D01*
X130050457Y-103759000D01*
X130050457Y-102835000D01*
X142349543Y-102835000D01*
X142349543Y-103835000D01*
X142359351Y-103934585D01*
X142388399Y-104030343D01*
X142435571Y-104118595D01*
X142499052Y-104195948D01*
X142541154Y-104230500D01*
X142499052Y-104265052D01*
X142435571Y-104342405D01*
X142388399Y-104430657D01*
X142359351Y-104526415D01*
X142349543Y-104626000D01*
X142349543Y-105826000D01*
X142359351Y-105925585D01*
X142388399Y-106021343D01*
X142435571Y-106109595D01*
X142499052Y-106186948D01*
X142576405Y-106250429D01*
X142664657Y-106297601D01*
X142760415Y-106326649D01*
X142860000Y-106336457D01*
X144160000Y-106336457D01*
X144259585Y-106326649D01*
X144355343Y-106297601D01*
X144443595Y-106250429D01*
X144520948Y-106186948D01*
X144584429Y-106109595D01*
X144631601Y-106021343D01*
X144660649Y-105925585D01*
X144670457Y-105826000D01*
X144670457Y-104626000D01*
X144889543Y-104626000D01*
X144889543Y-105826000D01*
X144899351Y-105925585D01*
X144928399Y-106021343D01*
X144975571Y-106109595D01*
X145039052Y-106186948D01*
X145116405Y-106250429D01*
X145204657Y-106297601D01*
X145300415Y-106326649D01*
X145400000Y-106336457D01*
X146700000Y-106336457D01*
X146799585Y-106326649D01*
X146895343Y-106297601D01*
X146983595Y-106250429D01*
X147060948Y-106186948D01*
X147124429Y-106109595D01*
X147171601Y-106021343D01*
X147200649Y-105925585D01*
X147205485Y-105876484D01*
X147208351Y-105905585D01*
X147237399Y-106001343D01*
X147284571Y-106089595D01*
X147348052Y-106166948D01*
X147425405Y-106230429D01*
X147513657Y-106277601D01*
X147609415Y-106306649D01*
X147709000Y-106316457D01*
X148709000Y-106316457D01*
X148808585Y-106306649D01*
X148904343Y-106277601D01*
X148992595Y-106230429D01*
X149069948Y-106166948D01*
X149133429Y-106089595D01*
X149180601Y-106001343D01*
X149209649Y-105905585D01*
X149219457Y-105806000D01*
X149219457Y-104506000D01*
X149209649Y-104406415D01*
X149180601Y-104310657D01*
X149133429Y-104222405D01*
X149069948Y-104145052D01*
X148992595Y-104081571D01*
X148904343Y-104034399D01*
X148808585Y-104005351D01*
X148709000Y-103995543D01*
X147709000Y-103995543D01*
X147609415Y-104005351D01*
X147513657Y-104034399D01*
X147425405Y-104081571D01*
X147348052Y-104145052D01*
X147284571Y-104222405D01*
X147237399Y-104310657D01*
X147208351Y-104406415D01*
X147198543Y-104506000D01*
X147198543Y-104518475D01*
X147198231Y-104518444D01*
X147171601Y-104430657D01*
X147124429Y-104342405D01*
X147060948Y-104265052D01*
X146983595Y-104201571D01*
X146895343Y-104154399D01*
X146799585Y-104125351D01*
X146700000Y-104115543D01*
X145400000Y-104115543D01*
X145300415Y-104125351D01*
X145204657Y-104154399D01*
X145116405Y-104201571D01*
X145039052Y-104265052D01*
X144975571Y-104342405D01*
X144928399Y-104430657D01*
X144899351Y-104526415D01*
X144889543Y-104626000D01*
X144670457Y-104626000D01*
X144660649Y-104526415D01*
X144631601Y-104430657D01*
X144584429Y-104342405D01*
X144520948Y-104265052D01*
X144478846Y-104230500D01*
X144520948Y-104195948D01*
X144584429Y-104118595D01*
X144631601Y-104030343D01*
X144660649Y-103934585D01*
X144670457Y-103835000D01*
X144670457Y-102835000D01*
X144660649Y-102735415D01*
X144631601Y-102639657D01*
X144584429Y-102551405D01*
X144520948Y-102474052D01*
X144443595Y-102410571D01*
X144355343Y-102363399D01*
X144259585Y-102334351D01*
X144160000Y-102324543D01*
X142860000Y-102324543D01*
X142760415Y-102334351D01*
X142664657Y-102363399D01*
X142576405Y-102410571D01*
X142499052Y-102474052D01*
X142435571Y-102551405D01*
X142388399Y-102639657D01*
X142359351Y-102735415D01*
X142349543Y-102835000D01*
X130050457Y-102835000D01*
X130050457Y-101981000D01*
X130040649Y-101881415D01*
X130011601Y-101785657D01*
X129964429Y-101697405D01*
X129900948Y-101620052D01*
X129876514Y-101600000D01*
X129900948Y-101579948D01*
X129964429Y-101502595D01*
X130011601Y-101414343D01*
X130040649Y-101318585D01*
X130050457Y-101219000D01*
X130050457Y-100965000D01*
X132128543Y-100965000D01*
X132128543Y-102250000D01*
X132138351Y-102349585D01*
X132167399Y-102445343D01*
X132214571Y-102533595D01*
X132278052Y-102610948D01*
X132355405Y-102674429D01*
X132443657Y-102721601D01*
X132539415Y-102750649D01*
X132639000Y-102760457D01*
X133639000Y-102760457D01*
X133738585Y-102750649D01*
X133834343Y-102721601D01*
X133922595Y-102674429D01*
X133999948Y-102610948D01*
X134063429Y-102533595D01*
X134110601Y-102445343D01*
X134139649Y-102349585D01*
X134149457Y-102250000D01*
X134328542Y-102250000D01*
X134338350Y-102349585D01*
X134367398Y-102445344D01*
X134414570Y-102533595D01*
X134478052Y-102610948D01*
X134555405Y-102674430D01*
X134643656Y-102721602D01*
X134739415Y-102750650D01*
X134839000Y-102760458D01*
X135085000Y-102758000D01*
X135212000Y-102631000D01*
X135212000Y-101727000D01*
X135466000Y-101727000D01*
X135466000Y-102631000D01*
X135593000Y-102758000D01*
X135839000Y-102760458D01*
X135938585Y-102750650D01*
X136034344Y-102721602D01*
X136122595Y-102674430D01*
X136199948Y-102610948D01*
X136263430Y-102533595D01*
X136310602Y-102445344D01*
X136339650Y-102349585D01*
X136349458Y-102250000D01*
X136347000Y-101854000D01*
X136220000Y-101727000D01*
X135466000Y-101727000D01*
X135212000Y-101727000D01*
X134458000Y-101727000D01*
X134331000Y-101854000D01*
X134328542Y-102250000D01*
X134149457Y-102250000D01*
X134149457Y-100950000D01*
X134328542Y-100950000D01*
X134331000Y-101346000D01*
X134458000Y-101473000D01*
X135212000Y-101473000D01*
X135212000Y-100569000D01*
X135466000Y-100569000D01*
X135466000Y-101473000D01*
X136220000Y-101473000D01*
X136347000Y-101346000D01*
X136349458Y-100950000D01*
X136339650Y-100850415D01*
X136310602Y-100754656D01*
X136263430Y-100666405D01*
X136237657Y-100635000D01*
X142349543Y-100635000D01*
X142349543Y-101635000D01*
X142359351Y-101734585D01*
X142388399Y-101830343D01*
X142435571Y-101918595D01*
X142499052Y-101995948D01*
X142576405Y-102059429D01*
X142664657Y-102106601D01*
X142760415Y-102135649D01*
X142860000Y-102145457D01*
X144160000Y-102145457D01*
X144259585Y-102135649D01*
X144355343Y-102106601D01*
X144443595Y-102059429D01*
X144520948Y-101995948D01*
X144525895Y-101989920D01*
X145070934Y-102534960D01*
X145090815Y-102559185D01*
X145115039Y-102579065D01*
X145115043Y-102579069D01*
X145187506Y-102638538D01*
X145296746Y-102696928D01*
X145297820Y-102697502D01*
X145417518Y-102733812D01*
X145510808Y-102743000D01*
X145510811Y-102743000D01*
X145542000Y-102746072D01*
X145573189Y-102743000D01*
X147623961Y-102743000D01*
X147728816Y-102847855D01*
X147884822Y-102952095D01*
X148058166Y-103023896D01*
X148242187Y-103060500D01*
X148272500Y-103060500D01*
X148272500Y-103090813D01*
X148309104Y-103274834D01*
X148380905Y-103448178D01*
X148485145Y-103604184D01*
X148617816Y-103736855D01*
X148773822Y-103841095D01*
X148947166Y-103912896D01*
X149131187Y-103949500D01*
X149279476Y-103949500D01*
X149515136Y-104185161D01*
X149484571Y-104222405D01*
X149437399Y-104310657D01*
X149408351Y-104406415D01*
X149398543Y-104506000D01*
X149398543Y-105806000D01*
X149408351Y-105905585D01*
X149437399Y-106001343D01*
X149484571Y-106089595D01*
X149548052Y-106166948D01*
X149625405Y-106230429D01*
X149713657Y-106277601D01*
X149809415Y-106306649D01*
X149909000Y-106316457D01*
X150909000Y-106316457D01*
X151008585Y-106306649D01*
X151104343Y-106277601D01*
X151192595Y-106230429D01*
X151269948Y-106166948D01*
X151333429Y-106089595D01*
X151380601Y-106001343D01*
X151409649Y-105905585D01*
X151419457Y-105806000D01*
X151419457Y-104506000D01*
X151409649Y-104406415D01*
X151380601Y-104310657D01*
X151333429Y-104222405D01*
X151269948Y-104145052D01*
X151192595Y-104081571D01*
X151104343Y-104034399D01*
X151020376Y-104008928D01*
X150998502Y-103936820D01*
X150985714Y-103912896D01*
X150939538Y-103826506D01*
X150880068Y-103754043D01*
X150860185Y-103729815D01*
X150835956Y-103709931D01*
X150177500Y-103051476D01*
X150177500Y-102903187D01*
X150140896Y-102719166D01*
X150069095Y-102545822D01*
X149964855Y-102389816D01*
X149832184Y-102257145D01*
X149676178Y-102152905D01*
X149502834Y-102081104D01*
X149318813Y-102044500D01*
X149288500Y-102044500D01*
X149288500Y-102014187D01*
X149251896Y-101830166D01*
X149180095Y-101656822D01*
X149075855Y-101500816D01*
X148943184Y-101368145D01*
X148787178Y-101263905D01*
X148613834Y-101192104D01*
X148429813Y-101155500D01*
X148242187Y-101155500D01*
X148058166Y-101192104D01*
X147884822Y-101263905D01*
X147728816Y-101368145D01*
X147623961Y-101473000D01*
X145805026Y-101473000D01*
X145040074Y-100708050D01*
X145020185Y-100683815D01*
X144923494Y-100604463D01*
X144813180Y-100545498D01*
X144693482Y-100509188D01*
X144651437Y-100505047D01*
X144631601Y-100439657D01*
X144584429Y-100351405D01*
X144520948Y-100274052D01*
X144443595Y-100210571D01*
X144355343Y-100163399D01*
X144259585Y-100134351D01*
X144160000Y-100124543D01*
X142860000Y-100124543D01*
X142760415Y-100134351D01*
X142664657Y-100163399D01*
X142576405Y-100210571D01*
X142499052Y-100274052D01*
X142435571Y-100351405D01*
X142388399Y-100439657D01*
X142359351Y-100535415D01*
X142349543Y-100635000D01*
X136237657Y-100635000D01*
X136199948Y-100589052D01*
X136122595Y-100525570D01*
X136034344Y-100478398D01*
X135938585Y-100449350D01*
X135839000Y-100439542D01*
X135593000Y-100442000D01*
X135466000Y-100569000D01*
X135212000Y-100569000D01*
X135085000Y-100442000D01*
X134839000Y-100439542D01*
X134739415Y-100449350D01*
X134643656Y-100478398D01*
X134555405Y-100525570D01*
X134478052Y-100589052D01*
X134414570Y-100666405D01*
X134367398Y-100754656D01*
X134338350Y-100850415D01*
X134328542Y-100950000D01*
X134149457Y-100950000D01*
X134139649Y-100850415D01*
X134110601Y-100754657D01*
X134063429Y-100666405D01*
X133999948Y-100589052D01*
X133922595Y-100525571D01*
X133834343Y-100478399D01*
X133749707Y-100452725D01*
X133728502Y-100382820D01*
X133700269Y-100330000D01*
X133728502Y-100277180D01*
X133749707Y-100207275D01*
X133834343Y-100181601D01*
X133922595Y-100134429D01*
X133999948Y-100070948D01*
X134063429Y-99993595D01*
X134110601Y-99905343D01*
X134139649Y-99809585D01*
X134149457Y-99710000D01*
X134149457Y-98410000D01*
X134139649Y-98310415D01*
X134110601Y-98214657D01*
X134063429Y-98126405D01*
X133999948Y-98049052D01*
X133922595Y-97985571D01*
X133834343Y-97938399D01*
X133738585Y-97909351D01*
X133639000Y-97899543D01*
X132639000Y-97899543D01*
X132539415Y-97909351D01*
X132443657Y-97938399D01*
X132355405Y-97985571D01*
X132278052Y-98049052D01*
X132214571Y-98126405D01*
X132167399Y-98214657D01*
X132138351Y-98310415D01*
X132128543Y-98410000D01*
X132128543Y-99695000D01*
X130050457Y-99695000D01*
X130050457Y-99441000D01*
X130040649Y-99341415D01*
X130011601Y-99245657D01*
X129964429Y-99157405D01*
X129900948Y-99080052D01*
X129876514Y-99060000D01*
X129900948Y-99039948D01*
X129964429Y-98962595D01*
X130011601Y-98874343D01*
X130040649Y-98778585D01*
X130050457Y-98679000D01*
X130050457Y-96901000D01*
X130040649Y-96801415D01*
X130011601Y-96705657D01*
X129964429Y-96617405D01*
X129900948Y-96540052D01*
X129876514Y-96520000D01*
X129900948Y-96499948D01*
X129964430Y-96422595D01*
X130011602Y-96334344D01*
X130040650Y-96238585D01*
X130050458Y-96139000D01*
X130048000Y-95758000D01*
X129921000Y-95631000D01*
X128905000Y-95631000D01*
X128905000Y-95651000D01*
X128143000Y-95651000D01*
X128143000Y-95631000D01*
X128123000Y-95631000D01*
X128123000Y-94869000D01*
X128143000Y-94869000D01*
X128143000Y-94849000D01*
X128905000Y-94849000D01*
X128905000Y-94869000D01*
X129921000Y-94869000D01*
X130048000Y-94742000D01*
X130050458Y-94361000D01*
X130040650Y-94261415D01*
X130011602Y-94165656D01*
X129964430Y-94077405D01*
X129900948Y-94000052D01*
X129876514Y-93980000D01*
X129900948Y-93959948D01*
X129964429Y-93882595D01*
X130011601Y-93794343D01*
X130032333Y-93726000D01*
X130135160Y-93726000D01*
X134323001Y-97913842D01*
X134323000Y-99010097D01*
X134318085Y-99060000D01*
X134328543Y-99166180D01*
X134328543Y-99710000D01*
X134338351Y-99809585D01*
X134367399Y-99905343D01*
X134414571Y-99993595D01*
X134478052Y-100070948D01*
X134555405Y-100134429D01*
X134643657Y-100181601D01*
X134739415Y-100210649D01*
X134839000Y-100220457D01*
X135839000Y-100220457D01*
X135938585Y-100210649D01*
X136034343Y-100181601D01*
X136122595Y-100134429D01*
X136193792Y-100076000D01*
X137768067Y-100076000D01*
X137817271Y-100066213D01*
X137867171Y-100061298D01*
X137915151Y-100046743D01*
X137964356Y-100036956D01*
X138010709Y-100017756D01*
X138058687Y-100003202D01*
X138102905Y-99979567D01*
X138149256Y-99960368D01*
X138190968Y-99932497D01*
X138235190Y-99908860D01*
X138273953Y-99877048D01*
X138315662Y-99849179D01*
X138351133Y-99813708D01*
X138389896Y-99781896D01*
X138421708Y-99743133D01*
X138457179Y-99707662D01*
X138485048Y-99665953D01*
X138516860Y-99627190D01*
X138540497Y-99582968D01*
X138568368Y-99541256D01*
X138587567Y-99494905D01*
X138611202Y-99450687D01*
X138625756Y-99402709D01*
X138644956Y-99356356D01*
X138654743Y-99307151D01*
X138669298Y-99259171D01*
X138674213Y-99209271D01*
X138684000Y-99160067D01*
X138684000Y-99109901D01*
X138688915Y-99060000D01*
X138684000Y-99010098D01*
X138684000Y-98959933D01*
X138674213Y-98910729D01*
X138669298Y-98860829D01*
X138654743Y-98812849D01*
X138644956Y-98763644D01*
X138625756Y-98717291D01*
X138611202Y-98669313D01*
X138587567Y-98625095D01*
X138568368Y-98578744D01*
X138540497Y-98537032D01*
X138516860Y-98492810D01*
X138485048Y-98454047D01*
X138457179Y-98412338D01*
X138421708Y-98376867D01*
X138389896Y-98338104D01*
X138351133Y-98306292D01*
X138315662Y-98270821D01*
X138273953Y-98242952D01*
X138235190Y-98211140D01*
X138190968Y-98187503D01*
X138149256Y-98159632D01*
X138102905Y-98140433D01*
X138058687Y-98116798D01*
X138010709Y-98102244D01*
X137964356Y-98083044D01*
X137915151Y-98073257D01*
X137867171Y-98058702D01*
X137817271Y-98053787D01*
X137768067Y-98044000D01*
X136355000Y-98044000D01*
X136355000Y-97542893D01*
X136359914Y-97492999D01*
X136355000Y-97443105D01*
X136355000Y-97443098D01*
X136340298Y-97293829D01*
X136282202Y-97102313D01*
X136187860Y-96925810D01*
X136060896Y-96771104D01*
X136022133Y-96739292D01*
X131309712Y-92026872D01*
X131277896Y-91988104D01*
X131123190Y-91861140D01*
X130946687Y-91766798D01*
X130755171Y-91708702D01*
X130605902Y-91694000D01*
X130556000Y-91689085D01*
X130506098Y-91694000D01*
X130032333Y-91694000D01*
X130011601Y-91625657D01*
X129964429Y-91537405D01*
X129900948Y-91460052D01*
X129876514Y-91440000D01*
X129900948Y-91419948D01*
X129964429Y-91342595D01*
X130011601Y-91254343D01*
X130040649Y-91158585D01*
X130050457Y-91059000D01*
X130050457Y-89281000D01*
X130040649Y-89181415D01*
X130011601Y-89085657D01*
X129964429Y-88997405D01*
X129900948Y-88920052D01*
X129823595Y-88856571D01*
X129794000Y-88840752D01*
X129794000Y-88754821D01*
X130021579Y-88709553D01*
X130322042Y-88585097D01*
X130592451Y-88404415D01*
X130822415Y-88174451D01*
X131003097Y-87904042D01*
X131127553Y-87603579D01*
X131191000Y-87284609D01*
X131191000Y-86959391D01*
X131127553Y-86640421D01*
X131003097Y-86339958D01*
X130822415Y-86069549D01*
X130592451Y-85839585D01*
X130322042Y-85658903D01*
X130021579Y-85534447D01*
X129702609Y-85471000D01*
X129377391Y-85471000D01*
X129058421Y-85534447D01*
X128757958Y-85658903D01*
X128487549Y-85839585D01*
X128257585Y-86069549D01*
X128076903Y-86339958D01*
X127952447Y-86640421D01*
X127889000Y-86959391D01*
X127889000Y-86976950D01*
X127670086Y-87195864D01*
X127621631Y-87235630D01*
X127558000Y-87313164D01*
X127558000Y-84378000D01*
X162002001Y-84378000D01*
X162002001Y-87313164D01*
G37*
X162002001Y-87313164D02*
X161938370Y-87235630D01*
X161889914Y-87195863D01*
X161671000Y-86976949D01*
X161671000Y-86959391D01*
X161607553Y-86640421D01*
X161483097Y-86339958D01*
X161302415Y-86069549D01*
X161072451Y-85839585D01*
X160802042Y-85658903D01*
X160501579Y-85534447D01*
X160182609Y-85471000D01*
X159857391Y-85471000D01*
X159538421Y-85534447D01*
X159237958Y-85658903D01*
X158967549Y-85839585D01*
X158737585Y-86069549D01*
X158556903Y-86339958D01*
X158432447Y-86640421D01*
X158369000Y-86959391D01*
X158369000Y-87284609D01*
X158432447Y-87603579D01*
X158556903Y-87904042D01*
X158737585Y-88174451D01*
X158967549Y-88404415D01*
X159237958Y-88585097D01*
X159538421Y-88709553D01*
X159766001Y-88754821D01*
X159766001Y-88840752D01*
X159736405Y-88856571D01*
X159683486Y-88900000D01*
X157646841Y-88900000D01*
X156963712Y-88216872D01*
X156931896Y-88178104D01*
X156777190Y-88051140D01*
X156600687Y-87956798D01*
X156409171Y-87898702D01*
X156259902Y-87884000D01*
X156210000Y-87879085D01*
X156160098Y-87884000D01*
X154629655Y-87884000D01*
X154560535Y-87814880D01*
X154331727Y-87661995D01*
X154077490Y-87556686D01*
X153807592Y-87503000D01*
X153532408Y-87503000D01*
X153262510Y-87556686D01*
X153008273Y-87661995D01*
X152779465Y-87814880D01*
X152584880Y-88009465D01*
X152431995Y-88238273D01*
X152402308Y-88309943D01*
X152397636Y-88296977D01*
X152335656Y-88181020D01*
X152118130Y-88091475D01*
X151309605Y-88900000D01*
X152118130Y-89708525D01*
X152335656Y-89618980D01*
X152399485Y-89483240D01*
X152431995Y-89561727D01*
X152584880Y-89790535D01*
X152779465Y-89985120D01*
X153008273Y-90138005D01*
X153085515Y-90170000D01*
X153008273Y-90201995D01*
X152779465Y-90354880D01*
X152584880Y-90549465D01*
X152431995Y-90778273D01*
X152400000Y-90855515D01*
X152368005Y-90778273D01*
X152215120Y-90549465D01*
X152020535Y-90354880D01*
X151791727Y-90201995D01*
X151720057Y-90172308D01*
X151733023Y-90167636D01*
X151848980Y-90105656D01*
X151938525Y-89888130D01*
X151130000Y-89079605D01*
X150321475Y-89888130D01*
X150411020Y-90105656D01*
X150546760Y-90169485D01*
X150468273Y-90201995D01*
X150239465Y-90354880D01*
X150044880Y-90549465D01*
X149891995Y-90778273D01*
X149860000Y-90855515D01*
X149828005Y-90778273D01*
X149675120Y-90549465D01*
X149480535Y-90354880D01*
X149251727Y-90201995D01*
X149180057Y-90172308D01*
X149193023Y-90167636D01*
X149308980Y-90105656D01*
X149398525Y-89888130D01*
X148590000Y-89079605D01*
X147781475Y-89888130D01*
X147871020Y-90105656D01*
X148006760Y-90169485D01*
X147928273Y-90201995D01*
X147699465Y-90354880D01*
X147504880Y-90549465D01*
X147351995Y-90778273D01*
X147320000Y-90855515D01*
X147288005Y-90778273D01*
X147135120Y-90549465D01*
X146940535Y-90354880D01*
X146711727Y-90201995D01*
X146640057Y-90172308D01*
X146653023Y-90167636D01*
X146768980Y-90105656D01*
X146858525Y-89888130D01*
X146050000Y-89079605D01*
X145241475Y-89888130D01*
X145331020Y-90105656D01*
X145466760Y-90169485D01*
X145388273Y-90201995D01*
X145159465Y-90354880D01*
X144964880Y-90549465D01*
X144811995Y-90778273D01*
X144780000Y-90855515D01*
X144748005Y-90778273D01*
X144595120Y-90549465D01*
X144400535Y-90354880D01*
X144171727Y-90201995D01*
X144100057Y-90172308D01*
X144113023Y-90167636D01*
X144228980Y-90105656D01*
X144318525Y-89888130D01*
X143510000Y-89079605D01*
X142701475Y-89888130D01*
X142791020Y-90105656D01*
X142926760Y-90169485D01*
X142848273Y-90201995D01*
X142619465Y-90354880D01*
X142424880Y-90549465D01*
X142271995Y-90778273D01*
X142240000Y-90855515D01*
X142208005Y-90778273D01*
X142055120Y-90549465D01*
X141860535Y-90354880D01*
X141631727Y-90201995D01*
X141560057Y-90172308D01*
X141573023Y-90167636D01*
X141688980Y-90105656D01*
X141778525Y-89888130D01*
X140970000Y-89079605D01*
X140161475Y-89888130D01*
X140251020Y-90105656D01*
X140386760Y-90169485D01*
X140308273Y-90201995D01*
X140079465Y-90354880D01*
X139884880Y-90549465D01*
X139731995Y-90778273D01*
X139700000Y-90855515D01*
X139668005Y-90778273D01*
X139515120Y-90549465D01*
X139320535Y-90354880D01*
X139091727Y-90201995D01*
X139020057Y-90172308D01*
X139033023Y-90167636D01*
X139148980Y-90105656D01*
X139238525Y-89888130D01*
X138430000Y-89079605D01*
X137621475Y-89888130D01*
X137711020Y-90105656D01*
X137846760Y-90169485D01*
X137768273Y-90201995D01*
X137539465Y-90354880D01*
X137344880Y-90549465D01*
X137289457Y-90632411D01*
X137289457Y-90551000D01*
X137279649Y-90451415D01*
X137250601Y-90355657D01*
X137203429Y-90267405D01*
X137139948Y-90190052D01*
X137062595Y-90126571D01*
X136974343Y-90079399D01*
X136878585Y-90050351D01*
X136779000Y-90040543D01*
X136697589Y-90040543D01*
X136780535Y-89985120D01*
X136975120Y-89790535D01*
X137128005Y-89561727D01*
X137157692Y-89490057D01*
X137162364Y-89503023D01*
X137224344Y-89618980D01*
X137441870Y-89708525D01*
X138250395Y-88900000D01*
X138609605Y-88900000D01*
X139418130Y-89708525D01*
X139635656Y-89618980D01*
X139697079Y-89488356D01*
X139702364Y-89503023D01*
X139764344Y-89618980D01*
X139981870Y-89708525D01*
X140790395Y-88900000D01*
X141149605Y-88900000D01*
X141958130Y-89708525D01*
X142175656Y-89618980D01*
X142237079Y-89488356D01*
X142242364Y-89503023D01*
X142304344Y-89618980D01*
X142521870Y-89708525D01*
X143330395Y-88900000D01*
X143689605Y-88900000D01*
X144498130Y-89708525D01*
X144715656Y-89618980D01*
X144777079Y-89488356D01*
X144782364Y-89503023D01*
X144844344Y-89618980D01*
X145061870Y-89708525D01*
X145870395Y-88900000D01*
X146229605Y-88900000D01*
X147038130Y-89708525D01*
X147255656Y-89618980D01*
X147317079Y-89488356D01*
X147322364Y-89503023D01*
X147384344Y-89618980D01*
X147601870Y-89708525D01*
X148410395Y-88900000D01*
X148769605Y-88900000D01*
X149578130Y-89708525D01*
X149795656Y-89618980D01*
X149857079Y-89488356D01*
X149862364Y-89503023D01*
X149924344Y-89618980D01*
X150141870Y-89708525D01*
X150950395Y-88900000D01*
X150141870Y-88091475D01*
X149924344Y-88181020D01*
X149862921Y-88311644D01*
X149857636Y-88296977D01*
X149795656Y-88181020D01*
X149578130Y-88091475D01*
X148769605Y-88900000D01*
X148410395Y-88900000D01*
X147601870Y-88091475D01*
X147384344Y-88181020D01*
X147322921Y-88311644D01*
X147317636Y-88296977D01*
X147255656Y-88181020D01*
X147038130Y-88091475D01*
X146229605Y-88900000D01*
X145870395Y-88900000D01*
X145061870Y-88091475D01*
X144844344Y-88181020D01*
X144782921Y-88311644D01*
X144777636Y-88296977D01*
X144715656Y-88181020D01*
X144498130Y-88091475D01*
X143689605Y-88900000D01*
X143330395Y-88900000D01*
X142521870Y-88091475D01*
X142304344Y-88181020D01*
X142242921Y-88311644D01*
X142237636Y-88296977D01*
X142175656Y-88181020D01*
X141958130Y-88091475D01*
X141149605Y-88900000D01*
X140790395Y-88900000D01*
X139981870Y-88091475D01*
X139764344Y-88181020D01*
X139702921Y-88311644D01*
X139697636Y-88296977D01*
X139635656Y-88181020D01*
X139418130Y-88091475D01*
X138609605Y-88900000D01*
X138250395Y-88900000D01*
X137441870Y-88091475D01*
X137224344Y-88181020D01*
X137160515Y-88316760D01*
X137128005Y-88238273D01*
X136975120Y-88009465D01*
X136877525Y-87911870D01*
X137621475Y-87911870D01*
X138430000Y-88720395D01*
X139238525Y-87911870D01*
X140161475Y-87911870D01*
X140970000Y-88720395D01*
X141778525Y-87911870D01*
X142701475Y-87911870D01*
X143510000Y-88720395D01*
X144318525Y-87911870D01*
X145241475Y-87911870D01*
X146050000Y-88720395D01*
X146858525Y-87911870D01*
X147781475Y-87911870D01*
X148590000Y-88720395D01*
X149398525Y-87911870D01*
X150321475Y-87911870D01*
X151130000Y-88720395D01*
X151938525Y-87911870D01*
X151848980Y-87694344D01*
X151599952Y-87577244D01*
X151332865Y-87510977D01*
X151057983Y-87498090D01*
X150785867Y-87539078D01*
X150526977Y-87632364D01*
X150411020Y-87694344D01*
X150321475Y-87911870D01*
X149398525Y-87911870D01*
X149308980Y-87694344D01*
X149059952Y-87577244D01*
X148792865Y-87510977D01*
X148517983Y-87498090D01*
X148245867Y-87539078D01*
X147986977Y-87632364D01*
X147871020Y-87694344D01*
X147781475Y-87911870D01*
X146858525Y-87911870D01*
X146768980Y-87694344D01*
X146519952Y-87577244D01*
X146252865Y-87510977D01*
X145977983Y-87498090D01*
X145705867Y-87539078D01*
X145446977Y-87632364D01*
X145331020Y-87694344D01*
X145241475Y-87911870D01*
X144318525Y-87911870D01*
X144228980Y-87694344D01*
X143979952Y-87577244D01*
X143712865Y-87510977D01*
X143437983Y-87498090D01*
X143165867Y-87539078D01*
X142906977Y-87632364D01*
X142791020Y-87694344D01*
X142701475Y-87911870D01*
X141778525Y-87911870D01*
X141688980Y-87694344D01*
X141439952Y-87577244D01*
X141172865Y-87510977D01*
X140897983Y-87498090D01*
X140625867Y-87539078D01*
X140366977Y-87632364D01*
X140251020Y-87694344D01*
X140161475Y-87911870D01*
X139238525Y-87911870D01*
X139148980Y-87694344D01*
X138899952Y-87577244D01*
X138632865Y-87510977D01*
X138357983Y-87498090D01*
X138085867Y-87539078D01*
X137826977Y-87632364D01*
X137711020Y-87694344D01*
X137621475Y-87911870D01*
X136877525Y-87911870D01*
X136780535Y-87814880D01*
X136551727Y-87661995D01*
X136297490Y-87556686D01*
X136027592Y-87503000D01*
X135752408Y-87503000D01*
X135482510Y-87556686D01*
X135228273Y-87661995D01*
X134999465Y-87814880D01*
X134804880Y-88009465D01*
X134651995Y-88238273D01*
X134546686Y-88492510D01*
X134493000Y-88762408D01*
X134493000Y-89037592D01*
X134546686Y-89307490D01*
X134651995Y-89561727D01*
X134804880Y-89790535D01*
X134999465Y-89985120D01*
X135082411Y-90040543D01*
X135001000Y-90040543D01*
X134901415Y-90050351D01*
X134805657Y-90079399D01*
X134717405Y-90126571D01*
X134640052Y-90190052D01*
X134576571Y-90267405D01*
X134529399Y-90355657D01*
X134500351Y-90451415D01*
X134490543Y-90551000D01*
X134490543Y-92329000D01*
X134500351Y-92428585D01*
X134529399Y-92524343D01*
X134576571Y-92612595D01*
X134640052Y-92689948D01*
X134717405Y-92753429D01*
X134805657Y-92800601D01*
X134901415Y-92829649D01*
X135001000Y-92839457D01*
X136779000Y-92839457D01*
X136878585Y-92829649D01*
X136974343Y-92800601D01*
X137062595Y-92753429D01*
X137139948Y-92689948D01*
X137203429Y-92612595D01*
X137250601Y-92524343D01*
X137279649Y-92428585D01*
X137289457Y-92329000D01*
X137289457Y-92247589D01*
X137344880Y-92330535D01*
X137539465Y-92525120D01*
X137768273Y-92678005D01*
X138022510Y-92783314D01*
X138292408Y-92837000D01*
X138567592Y-92837000D01*
X138837490Y-92783314D01*
X138864218Y-92772243D01*
X145832935Y-99740961D01*
X145852815Y-99765185D01*
X145877039Y-99785065D01*
X145877043Y-99785069D01*
X145949506Y-99844538D01*
X146058961Y-99903043D01*
X146059820Y-99903502D01*
X146179518Y-99939812D01*
X146272808Y-99949000D01*
X146272811Y-99949000D01*
X146304000Y-99952072D01*
X146335189Y-99949000D01*
X149850976Y-99949000D01*
X155738930Y-105836955D01*
X155758815Y-105861185D01*
X155783043Y-105881068D01*
X155855506Y-105940538D01*
X155965820Y-105999502D01*
X156085518Y-106035812D01*
X156178808Y-106045000D01*
X156178811Y-106045000D01*
X156210000Y-106048072D01*
X156241189Y-106045000D01*
X159509543Y-106045000D01*
X159509543Y-106299000D01*
X159519351Y-106398585D01*
X159548399Y-106494343D01*
X159595571Y-106582595D01*
X159659052Y-106659948D01*
X159683486Y-106680000D01*
X159659052Y-106700052D01*
X159595570Y-106777405D01*
X159548398Y-106865656D01*
X159519350Y-106961415D01*
X159509542Y-107061000D01*
X159512000Y-107442000D01*
X159639000Y-107569000D01*
X160655000Y-107569000D01*
X160655000Y-107549000D01*
X161417000Y-107549000D01*
X161417000Y-107569000D01*
X161437000Y-107569000D01*
X161437000Y-108331000D01*
X161417000Y-108331000D01*
X161417000Y-109220000D01*
X161544000Y-109347000D01*
X162002000Y-109349216D01*
X162002000Y-113742000D01*
X127558000Y-113742000D01*
X127558000Y-109349216D01*
X128016000Y-109347000D01*
X128143000Y-109220000D01*
X128143000Y-108331000D01*
X128905000Y-108331000D01*
X128905000Y-109220000D01*
X129032000Y-109347000D01*
X129540000Y-109349458D01*
X129639585Y-109339650D01*
X129735344Y-109310602D01*
X129823595Y-109263430D01*
X129900948Y-109199948D01*
X129964430Y-109122595D01*
X130011602Y-109034344D01*
X130040650Y-108938585D01*
X130050458Y-108839000D01*
X159509542Y-108839000D01*
X159519350Y-108938585D01*
X159548398Y-109034344D01*
X159595570Y-109122595D01*
X159659052Y-109199948D01*
X159736405Y-109263430D01*
X159824656Y-109310602D01*
X159920415Y-109339650D01*
X160020000Y-109349458D01*
X160528000Y-109347000D01*
X160655000Y-109220000D01*
X160655000Y-108331000D01*
X159639000Y-108331000D01*
X159512000Y-108458000D01*
X159509542Y-108839000D01*
X130050458Y-108839000D01*
X130048000Y-108458000D01*
X129921000Y-108331000D01*
X128905000Y-108331000D01*
X128143000Y-108331000D01*
X128123000Y-108331000D01*
X128123000Y-108226000D01*
X142349542Y-108226000D01*
X142359350Y-108325585D01*
X142388398Y-108421344D01*
X142435570Y-108509595D01*
X142499052Y-108586948D01*
X142576405Y-108650430D01*
X142664656Y-108697602D01*
X142760415Y-108726650D01*
X142860000Y-108736458D01*
X143256000Y-108734000D01*
X143383000Y-108607000D01*
X143383000Y-107753000D01*
X143637000Y-107753000D01*
X143637000Y-108607000D01*
X143764000Y-108734000D01*
X144160000Y-108736458D01*
X144259585Y-108726650D01*
X144355344Y-108697602D01*
X144443595Y-108650430D01*
X144520948Y-108586948D01*
X144584430Y-108509595D01*
X144631602Y-108421344D01*
X144660650Y-108325585D01*
X144670458Y-108226000D01*
X144889542Y-108226000D01*
X144899350Y-108325585D01*
X144928398Y-108421344D01*
X144975570Y-108509595D01*
X145039052Y-108586948D01*
X145116405Y-108650430D01*
X145204656Y-108697602D01*
X145300415Y-108726650D01*
X145400000Y-108736458D01*
X145796000Y-108734000D01*
X145923000Y-108607000D01*
X145923000Y-107753000D01*
X146177000Y-107753000D01*
X146177000Y-108607000D01*
X146304000Y-108734000D01*
X146700000Y-108736458D01*
X146799585Y-108726650D01*
X146895344Y-108697602D01*
X146983595Y-108650430D01*
X147060948Y-108586948D01*
X147124430Y-108509595D01*
X147171602Y-108421344D01*
X147200650Y-108325585D01*
X147210458Y-108226000D01*
X147208000Y-107880000D01*
X147081000Y-107753000D01*
X146177000Y-107753000D01*
X145923000Y-107753000D01*
X145019000Y-107753000D01*
X144892000Y-107880000D01*
X144889542Y-108226000D01*
X144670458Y-108226000D01*
X144668000Y-107880000D01*
X144541000Y-107753000D01*
X143637000Y-107753000D01*
X143383000Y-107753000D01*
X142479000Y-107753000D01*
X142352000Y-107880000D01*
X142349542Y-108226000D01*
X128123000Y-108226000D01*
X128123000Y-107569000D01*
X128143000Y-107569000D01*
X128143000Y-107549000D01*
X128905000Y-107549000D01*
X128905000Y-107569000D01*
X129921000Y-107569000D01*
X130048000Y-107442000D01*
X130050458Y-107061000D01*
X130040650Y-106961415D01*
X130011602Y-106865656D01*
X129964430Y-106777405D01*
X129900948Y-106700052D01*
X129876514Y-106680000D01*
X129900948Y-106659948D01*
X129964429Y-106582595D01*
X130011601Y-106494343D01*
X130040649Y-106398585D01*
X130050457Y-106299000D01*
X130050457Y-106045000D01*
X132128543Y-106045000D01*
X132128543Y-107330000D01*
X132138351Y-107429585D01*
X132167399Y-107525343D01*
X132214571Y-107613595D01*
X132278052Y-107690948D01*
X132355405Y-107754429D01*
X132443657Y-107801601D01*
X132539415Y-107830649D01*
X132639000Y-107840457D01*
X133639000Y-107840457D01*
X133738585Y-107830649D01*
X133834343Y-107801601D01*
X133922595Y-107754429D01*
X133999948Y-107690948D01*
X134063429Y-107613595D01*
X134110601Y-107525343D01*
X134139649Y-107429585D01*
X134149457Y-107330000D01*
X134328542Y-107330000D01*
X134338350Y-107429585D01*
X134367398Y-107525344D01*
X134414570Y-107613595D01*
X134478052Y-107690948D01*
X134555405Y-107754430D01*
X134643656Y-107801602D01*
X134739415Y-107830650D01*
X134839000Y-107840458D01*
X135085000Y-107838000D01*
X135212000Y-107711000D01*
X135212000Y-106807000D01*
X135466000Y-106807000D01*
X135466000Y-107711000D01*
X135593000Y-107838000D01*
X135839000Y-107840458D01*
X135938585Y-107830650D01*
X136034344Y-107801602D01*
X136122595Y-107754430D01*
X136199948Y-107690948D01*
X136263430Y-107613595D01*
X136310602Y-107525344D01*
X136339650Y-107429585D01*
X136349458Y-107330000D01*
X136347572Y-107026000D01*
X142349542Y-107026000D01*
X142352000Y-107372000D01*
X142479000Y-107499000D01*
X143383000Y-107499000D01*
X143383000Y-106645000D01*
X143637000Y-106645000D01*
X143637000Y-107499000D01*
X144541000Y-107499000D01*
X144668000Y-107372000D01*
X144670458Y-107026000D01*
X144889542Y-107026000D01*
X144892000Y-107372000D01*
X145019000Y-107499000D01*
X145923000Y-107499000D01*
X145923000Y-106645000D01*
X146177000Y-106645000D01*
X146177000Y-107499000D01*
X147081000Y-107499000D01*
X147208000Y-107372000D01*
X147210458Y-107026000D01*
X147200650Y-106926415D01*
X147171602Y-106830656D01*
X147124430Y-106742405D01*
X147060948Y-106665052D01*
X146983595Y-106601570D01*
X146895344Y-106554398D01*
X146799585Y-106525350D01*
X146700000Y-106515542D01*
X146304000Y-106518000D01*
X146177000Y-106645000D01*
X145923000Y-106645000D01*
X145796000Y-106518000D01*
X145400000Y-106515542D01*
X145300415Y-106525350D01*
X145204656Y-106554398D01*
X145116405Y-106601570D01*
X145039052Y-106665052D01*
X144975570Y-106742405D01*
X144928398Y-106830656D01*
X144899350Y-106926415D01*
X144889542Y-107026000D01*
X144670458Y-107026000D01*
X144660650Y-106926415D01*
X144631602Y-106830656D01*
X144584430Y-106742405D01*
X144520948Y-106665052D01*
X144443595Y-106601570D01*
X144355344Y-106554398D01*
X144259585Y-106525350D01*
X144160000Y-106515542D01*
X143764000Y-106518000D01*
X143637000Y-106645000D01*
X143383000Y-106645000D01*
X143256000Y-106518000D01*
X142860000Y-106515542D01*
X142760415Y-106525350D01*
X142664656Y-106554398D01*
X142576405Y-106601570D01*
X142499052Y-106665052D01*
X142435570Y-106742405D01*
X142388398Y-106830656D01*
X142359350Y-106926415D01*
X142349542Y-107026000D01*
X136347572Y-107026000D01*
X136347000Y-106934000D01*
X136220000Y-106807000D01*
X135466000Y-106807000D01*
X135212000Y-106807000D01*
X134458000Y-106807000D01*
X134331000Y-106934000D01*
X134328542Y-107330000D01*
X134149457Y-107330000D01*
X134149457Y-106030000D01*
X134328542Y-106030000D01*
X134331000Y-106426000D01*
X134458000Y-106553000D01*
X135212000Y-106553000D01*
X135212000Y-105649000D01*
X135466000Y-105649000D01*
X135466000Y-106553000D01*
X136220000Y-106553000D01*
X136347000Y-106426000D01*
X136349458Y-106030000D01*
X136339650Y-105930415D01*
X136310602Y-105834656D01*
X136263430Y-105746405D01*
X136199948Y-105669052D01*
X136122595Y-105605570D01*
X136034344Y-105558398D01*
X135938585Y-105529350D01*
X135839000Y-105519542D01*
X135593000Y-105522000D01*
X135466000Y-105649000D01*
X135212000Y-105649000D01*
X135085000Y-105522000D01*
X134839000Y-105519542D01*
X134739415Y-105529350D01*
X134643656Y-105558398D01*
X134555405Y-105605570D01*
X134478052Y-105669052D01*
X134414570Y-105746405D01*
X134367398Y-105834656D01*
X134338350Y-105930415D01*
X134328542Y-106030000D01*
X134149457Y-106030000D01*
X134139649Y-105930415D01*
X134110601Y-105834657D01*
X134063429Y-105746405D01*
X133999948Y-105669052D01*
X133922595Y-105605571D01*
X133834343Y-105558399D01*
X133749707Y-105532725D01*
X133728502Y-105462820D01*
X133700269Y-105410000D01*
X133728502Y-105357180D01*
X133749707Y-105287275D01*
X133834343Y-105261601D01*
X133922595Y-105214429D01*
X133999948Y-105150948D01*
X134063429Y-105073595D01*
X134110601Y-104985343D01*
X134139649Y-104889585D01*
X134149457Y-104790000D01*
X134149457Y-104140000D01*
X134318085Y-104140000D01*
X134328543Y-104246180D01*
X134328543Y-104790000D01*
X134338351Y-104889585D01*
X134367399Y-104985343D01*
X134414571Y-105073595D01*
X134478052Y-105150948D01*
X134555405Y-105214429D01*
X134643657Y-105261601D01*
X134739415Y-105290649D01*
X134839000Y-105300457D01*
X135839000Y-105300457D01*
X135938585Y-105290649D01*
X136034343Y-105261601D01*
X136122595Y-105214429D01*
X136193792Y-105156000D01*
X137768067Y-105156000D01*
X137817271Y-105146213D01*
X137867171Y-105141298D01*
X137915151Y-105126743D01*
X137964356Y-105116956D01*
X138010709Y-105097756D01*
X138058687Y-105083202D01*
X138102905Y-105059567D01*
X138149256Y-105040368D01*
X138190968Y-105012497D01*
X138235190Y-104988860D01*
X138273953Y-104957048D01*
X138315662Y-104929179D01*
X138351133Y-104893708D01*
X138389896Y-104861896D01*
X138421708Y-104823133D01*
X138457179Y-104787662D01*
X138485048Y-104745953D01*
X138516860Y-104707190D01*
X138540497Y-104662968D01*
X138568368Y-104621256D01*
X138587567Y-104574905D01*
X138611202Y-104530687D01*
X138625756Y-104482709D01*
X138644956Y-104436356D01*
X138654743Y-104387151D01*
X138669298Y-104339171D01*
X138674213Y-104289271D01*
X138684000Y-104240067D01*
X138684000Y-104189902D01*
X138688915Y-104140000D01*
X138684000Y-104090098D01*
X138684000Y-104039933D01*
X138674213Y-103990729D01*
X138669298Y-103940829D01*
X138654743Y-103892849D01*
X138644956Y-103843644D01*
X138625756Y-103797291D01*
X138611202Y-103749313D01*
X138587567Y-103705095D01*
X138568368Y-103658744D01*
X138540497Y-103617032D01*
X138516860Y-103572810D01*
X138485048Y-103534047D01*
X138457179Y-103492338D01*
X138421708Y-103456867D01*
X138389896Y-103418104D01*
X138351133Y-103386292D01*
X138315662Y-103350821D01*
X138273953Y-103322952D01*
X138235190Y-103291140D01*
X138190968Y-103267503D01*
X138149256Y-103239632D01*
X138102905Y-103220433D01*
X138058687Y-103196798D01*
X138010709Y-103182244D01*
X137964356Y-103163044D01*
X137915151Y-103153257D01*
X137867171Y-103138702D01*
X137817271Y-103133787D01*
X137768067Y-103124000D01*
X136193792Y-103124000D01*
X136122595Y-103065571D01*
X136034343Y-103018399D01*
X135938585Y-102989351D01*
X135839000Y-102979543D01*
X134839000Y-102979543D01*
X134739415Y-102989351D01*
X134643657Y-103018399D01*
X134555405Y-103065571D01*
X134478052Y-103129052D01*
X134414571Y-103206405D01*
X134367399Y-103294657D01*
X134338351Y-103390415D01*
X134328543Y-103490000D01*
X134328543Y-104033820D01*
X134318085Y-104140000D01*
X134149457Y-104140000D01*
X134149457Y-103490000D01*
X134139649Y-103390415D01*
X134110601Y-103294657D01*
X134063429Y-103206405D01*
X133999948Y-103129052D01*
X133922595Y-103065571D01*
X133834343Y-103018399D01*
X133738585Y-102989351D01*
X133639000Y-102979543D01*
X132639000Y-102979543D01*
X132539415Y-102989351D01*
X132443657Y-103018399D01*
X132355405Y-103065571D01*
X132278052Y-103129052D01*
X132214571Y-103206405D01*
X132167399Y-103294657D01*
X132138351Y-103390415D01*
X132128543Y-103490000D01*
X132128543Y-104775000D01*
X130050457Y-104775000D01*
X130050457Y-104521000D01*
X130040649Y-104421415D01*
X130011601Y-104325657D01*
X129964429Y-104237405D01*
X129900948Y-104160052D01*
X129876514Y-104140000D01*
X129900948Y-104119948D01*
X129964429Y-104042595D01*
X130011601Y-103954343D01*
X130040649Y-103858585D01*
X130050457Y-103759000D01*
X130050457Y-102835000D01*
X142349543Y-102835000D01*
X142349543Y-103835000D01*
X142359351Y-103934585D01*
X142388399Y-104030343D01*
X142435571Y-104118595D01*
X142499052Y-104195948D01*
X142541154Y-104230500D01*
X142499052Y-104265052D01*
X142435571Y-104342405D01*
X142388399Y-104430657D01*
X142359351Y-104526415D01*
X142349543Y-104626000D01*
X142349543Y-105826000D01*
X142359351Y-105925585D01*
X142388399Y-106021343D01*
X142435571Y-106109595D01*
X142499052Y-106186948D01*
X142576405Y-106250429D01*
X142664657Y-106297601D01*
X142760415Y-106326649D01*
X142860000Y-106336457D01*
X144160000Y-106336457D01*
X144259585Y-106326649D01*
X144355343Y-106297601D01*
X144443595Y-106250429D01*
X144520948Y-106186948D01*
X144584429Y-106109595D01*
X144631601Y-106021343D01*
X144660649Y-105925585D01*
X144670457Y-105826000D01*
X144670457Y-104626000D01*
X144889543Y-104626000D01*
X144889543Y-105826000D01*
X144899351Y-105925585D01*
X144928399Y-106021343D01*
X144975571Y-106109595D01*
X145039052Y-106186948D01*
X145116405Y-106250429D01*
X145204657Y-106297601D01*
X145300415Y-106326649D01*
X145400000Y-106336457D01*
X146700000Y-106336457D01*
X146799585Y-106326649D01*
X146895343Y-106297601D01*
X146983595Y-106250429D01*
X147060948Y-106186948D01*
X147124429Y-106109595D01*
X147171601Y-106021343D01*
X147200649Y-105925585D01*
X147205485Y-105876484D01*
X147208351Y-105905585D01*
X147237399Y-106001343D01*
X147284571Y-106089595D01*
X147348052Y-106166948D01*
X147425405Y-106230429D01*
X147513657Y-106277601D01*
X147609415Y-106306649D01*
X147709000Y-106316457D01*
X148709000Y-106316457D01*
X148808585Y-106306649D01*
X148904343Y-106277601D01*
X148992595Y-106230429D01*
X149069948Y-106166948D01*
X149133429Y-106089595D01*
X149180601Y-106001343D01*
X149209649Y-105905585D01*
X149219457Y-105806000D01*
X149219457Y-104506000D01*
X149209649Y-104406415D01*
X149180601Y-104310657D01*
X149133429Y-104222405D01*
X149069948Y-104145052D01*
X148992595Y-104081571D01*
X148904343Y-104034399D01*
X148808585Y-104005351D01*
X148709000Y-103995543D01*
X147709000Y-103995543D01*
X147609415Y-104005351D01*
X147513657Y-104034399D01*
X147425405Y-104081571D01*
X147348052Y-104145052D01*
X147284571Y-104222405D01*
X147237399Y-104310657D01*
X147208351Y-104406415D01*
X147198543Y-104506000D01*
X147198543Y-104518475D01*
X147198231Y-104518444D01*
X147171601Y-104430657D01*
X147124429Y-104342405D01*
X147060948Y-104265052D01*
X146983595Y-104201571D01*
X146895343Y-104154399D01*
X146799585Y-104125351D01*
X146700000Y-104115543D01*
X145400000Y-104115543D01*
X145300415Y-104125351D01*
X145204657Y-104154399D01*
X145116405Y-104201571D01*
X145039052Y-104265052D01*
X144975571Y-104342405D01*
X144928399Y-104430657D01*
X144899351Y-104526415D01*
X144889543Y-104626000D01*
X144670457Y-104626000D01*
X144660649Y-104526415D01*
X144631601Y-104430657D01*
X144584429Y-104342405D01*
X144520948Y-104265052D01*
X144478846Y-104230500D01*
X144520948Y-104195948D01*
X144584429Y-104118595D01*
X144631601Y-104030343D01*
X144660649Y-103934585D01*
X144670457Y-103835000D01*
X144670457Y-102835000D01*
X144660649Y-102735415D01*
X144631601Y-102639657D01*
X144584429Y-102551405D01*
X144520948Y-102474052D01*
X144443595Y-102410571D01*
X144355343Y-102363399D01*
X144259585Y-102334351D01*
X144160000Y-102324543D01*
X142860000Y-102324543D01*
X142760415Y-102334351D01*
X142664657Y-102363399D01*
X142576405Y-102410571D01*
X142499052Y-102474052D01*
X142435571Y-102551405D01*
X142388399Y-102639657D01*
X142359351Y-102735415D01*
X142349543Y-102835000D01*
X130050457Y-102835000D01*
X130050457Y-101981000D01*
X130040649Y-101881415D01*
X130011601Y-101785657D01*
X129964429Y-101697405D01*
X129900948Y-101620052D01*
X129876514Y-101600000D01*
X129900948Y-101579948D01*
X129964429Y-101502595D01*
X130011601Y-101414343D01*
X130040649Y-101318585D01*
X130050457Y-101219000D01*
X130050457Y-100965000D01*
X132128543Y-100965000D01*
X132128543Y-102250000D01*
X132138351Y-102349585D01*
X132167399Y-102445343D01*
X132214571Y-102533595D01*
X132278052Y-102610948D01*
X132355405Y-102674429D01*
X132443657Y-102721601D01*
X132539415Y-102750649D01*
X132639000Y-102760457D01*
X133639000Y-102760457D01*
X133738585Y-102750649D01*
X133834343Y-102721601D01*
X133922595Y-102674429D01*
X133999948Y-102610948D01*
X134063429Y-102533595D01*
X134110601Y-102445343D01*
X134139649Y-102349585D01*
X134149457Y-102250000D01*
X134328542Y-102250000D01*
X134338350Y-102349585D01*
X134367398Y-102445344D01*
X134414570Y-102533595D01*
X134478052Y-102610948D01*
X134555405Y-102674430D01*
X134643656Y-102721602D01*
X134739415Y-102750650D01*
X134839000Y-102760458D01*
X135085000Y-102758000D01*
X135212000Y-102631000D01*
X135212000Y-101727000D01*
X135466000Y-101727000D01*
X135466000Y-102631000D01*
X135593000Y-102758000D01*
X135839000Y-102760458D01*
X135938585Y-102750650D01*
X136034344Y-102721602D01*
X136122595Y-102674430D01*
X136199948Y-102610948D01*
X136263430Y-102533595D01*
X136310602Y-102445344D01*
X136339650Y-102349585D01*
X136349458Y-102250000D01*
X136347000Y-101854000D01*
X136220000Y-101727000D01*
X135466000Y-101727000D01*
X135212000Y-101727000D01*
X134458000Y-101727000D01*
X134331000Y-101854000D01*
X134328542Y-102250000D01*
X134149457Y-102250000D01*
X134149457Y-100950000D01*
X134328542Y-100950000D01*
X134331000Y-101346000D01*
X134458000Y-101473000D01*
X135212000Y-101473000D01*
X135212000Y-100569000D01*
X135466000Y-100569000D01*
X135466000Y-101473000D01*
X136220000Y-101473000D01*
X136347000Y-101346000D01*
X136349458Y-100950000D01*
X136339650Y-100850415D01*
X136310602Y-100754656D01*
X136263430Y-100666405D01*
X136237657Y-100635000D01*
X142349543Y-100635000D01*
X142349543Y-101635000D01*
X142359351Y-101734585D01*
X142388399Y-101830343D01*
X142435571Y-101918595D01*
X142499052Y-101995948D01*
X142576405Y-102059429D01*
X142664657Y-102106601D01*
X142760415Y-102135649D01*
X142860000Y-102145457D01*
X144160000Y-102145457D01*
X144259585Y-102135649D01*
X144355343Y-102106601D01*
X144443595Y-102059429D01*
X144520948Y-101995948D01*
X144525895Y-101989920D01*
X145070934Y-102534960D01*
X145090815Y-102559185D01*
X145115039Y-102579065D01*
X145115043Y-102579069D01*
X145187506Y-102638538D01*
X145296746Y-102696928D01*
X145297820Y-102697502D01*
X145417518Y-102733812D01*
X145510808Y-102743000D01*
X145510811Y-102743000D01*
X145542000Y-102746072D01*
X145573189Y-102743000D01*
X147623961Y-102743000D01*
X147728816Y-102847855D01*
X147884822Y-102952095D01*
X148058166Y-103023896D01*
X148242187Y-103060500D01*
X148272500Y-103060500D01*
X148272500Y-103090813D01*
X148309104Y-103274834D01*
X148380905Y-103448178D01*
X148485145Y-103604184D01*
X148617816Y-103736855D01*
X148773822Y-103841095D01*
X148947166Y-103912896D01*
X149131187Y-103949500D01*
X149279476Y-103949500D01*
X149515136Y-104185161D01*
X149484571Y-104222405D01*
X149437399Y-104310657D01*
X149408351Y-104406415D01*
X149398543Y-104506000D01*
X149398543Y-105806000D01*
X149408351Y-105905585D01*
X149437399Y-106001343D01*
X149484571Y-106089595D01*
X149548052Y-106166948D01*
X149625405Y-106230429D01*
X149713657Y-106277601D01*
X149809415Y-106306649D01*
X149909000Y-106316457D01*
X150909000Y-106316457D01*
X151008585Y-106306649D01*
X151104343Y-106277601D01*
X151192595Y-106230429D01*
X151269948Y-106166948D01*
X151333429Y-106089595D01*
X151380601Y-106001343D01*
X151409649Y-105905585D01*
X151419457Y-105806000D01*
X151419457Y-104506000D01*
X151409649Y-104406415D01*
X151380601Y-104310657D01*
X151333429Y-104222405D01*
X151269948Y-104145052D01*
X151192595Y-104081571D01*
X151104343Y-104034399D01*
X151020376Y-104008928D01*
X150998502Y-103936820D01*
X150985714Y-103912896D01*
X150939538Y-103826506D01*
X150880068Y-103754043D01*
X150860185Y-103729815D01*
X150835956Y-103709931D01*
X150177500Y-103051476D01*
X150177500Y-102903187D01*
X150140896Y-102719166D01*
X150069095Y-102545822D01*
X149964855Y-102389816D01*
X149832184Y-102257145D01*
X149676178Y-102152905D01*
X149502834Y-102081104D01*
X149318813Y-102044500D01*
X149288500Y-102044500D01*
X149288500Y-102014187D01*
X149251896Y-101830166D01*
X149180095Y-101656822D01*
X149075855Y-101500816D01*
X148943184Y-101368145D01*
X148787178Y-101263905D01*
X148613834Y-101192104D01*
X148429813Y-101155500D01*
X148242187Y-101155500D01*
X148058166Y-101192104D01*
X147884822Y-101263905D01*
X147728816Y-101368145D01*
X147623961Y-101473000D01*
X145805026Y-101473000D01*
X145040074Y-100708050D01*
X145020185Y-100683815D01*
X144923494Y-100604463D01*
X144813180Y-100545498D01*
X144693482Y-100509188D01*
X144651437Y-100505047D01*
X144631601Y-100439657D01*
X144584429Y-100351405D01*
X144520948Y-100274052D01*
X144443595Y-100210571D01*
X144355343Y-100163399D01*
X144259585Y-100134351D01*
X144160000Y-100124543D01*
X142860000Y-100124543D01*
X142760415Y-100134351D01*
X142664657Y-100163399D01*
X142576405Y-100210571D01*
X142499052Y-100274052D01*
X142435571Y-100351405D01*
X142388399Y-100439657D01*
X142359351Y-100535415D01*
X142349543Y-100635000D01*
X136237657Y-100635000D01*
X136199948Y-100589052D01*
X136122595Y-100525570D01*
X136034344Y-100478398D01*
X135938585Y-100449350D01*
X135839000Y-100439542D01*
X135593000Y-100442000D01*
X135466000Y-100569000D01*
X135212000Y-100569000D01*
X135085000Y-100442000D01*
X134839000Y-100439542D01*
X134739415Y-100449350D01*
X134643656Y-100478398D01*
X134555405Y-100525570D01*
X134478052Y-100589052D01*
X134414570Y-100666405D01*
X134367398Y-100754656D01*
X134338350Y-100850415D01*
X134328542Y-100950000D01*
X134149457Y-100950000D01*
X134139649Y-100850415D01*
X134110601Y-100754657D01*
X134063429Y-100666405D01*
X133999948Y-100589052D01*
X133922595Y-100525571D01*
X133834343Y-100478399D01*
X133749707Y-100452725D01*
X133728502Y-100382820D01*
X133700269Y-100330000D01*
X133728502Y-100277180D01*
X133749707Y-100207275D01*
X133834343Y-100181601D01*
X133922595Y-100134429D01*
X133999948Y-100070948D01*
X134063429Y-99993595D01*
X134110601Y-99905343D01*
X134139649Y-99809585D01*
X134149457Y-99710000D01*
X134149457Y-98410000D01*
X134139649Y-98310415D01*
X134110601Y-98214657D01*
X134063429Y-98126405D01*
X133999948Y-98049052D01*
X133922595Y-97985571D01*
X133834343Y-97938399D01*
X133738585Y-97909351D01*
X133639000Y-97899543D01*
X132639000Y-97899543D01*
X132539415Y-97909351D01*
X132443657Y-97938399D01*
X132355405Y-97985571D01*
X132278052Y-98049052D01*
X132214571Y-98126405D01*
X132167399Y-98214657D01*
X132138351Y-98310415D01*
X132128543Y-98410000D01*
X132128543Y-99695000D01*
X130050457Y-99695000D01*
X130050457Y-99441000D01*
X130040649Y-99341415D01*
X130011601Y-99245657D01*
X129964429Y-99157405D01*
X129900948Y-99080052D01*
X129876514Y-99060000D01*
X129900948Y-99039948D01*
X129964429Y-98962595D01*
X130011601Y-98874343D01*
X130040649Y-98778585D01*
X130050457Y-98679000D01*
X130050457Y-96901000D01*
X130040649Y-96801415D01*
X130011601Y-96705657D01*
X129964429Y-96617405D01*
X129900948Y-96540052D01*
X129876514Y-96520000D01*
X129900948Y-96499948D01*
X129964430Y-96422595D01*
X130011602Y-96334344D01*
X130040650Y-96238585D01*
X130050458Y-96139000D01*
X130048000Y-95758000D01*
X129921000Y-95631000D01*
X128905000Y-95631000D01*
X128905000Y-95651000D01*
X128143000Y-95651000D01*
X128143000Y-95631000D01*
X128123000Y-95631000D01*
X128123000Y-94869000D01*
X128143000Y-94869000D01*
X128143000Y-94849000D01*
X128905000Y-94849000D01*
X128905000Y-94869000D01*
X129921000Y-94869000D01*
X130048000Y-94742000D01*
X130050458Y-94361000D01*
X130040650Y-94261415D01*
X130011602Y-94165656D01*
X129964430Y-94077405D01*
X129900948Y-94000052D01*
X129876514Y-93980000D01*
X129900948Y-93959948D01*
X129964429Y-93882595D01*
X130011601Y-93794343D01*
X130032333Y-93726000D01*
X130135160Y-93726000D01*
X134323001Y-97913842D01*
X134323000Y-99010097D01*
X134318085Y-99060000D01*
X134328543Y-99166180D01*
X134328543Y-99710000D01*
X134338351Y-99809585D01*
X134367399Y-99905343D01*
X134414571Y-99993595D01*
X134478052Y-100070948D01*
X134555405Y-100134429D01*
X134643657Y-100181601D01*
X134739415Y-100210649D01*
X134839000Y-100220457D01*
X135839000Y-100220457D01*
X135938585Y-100210649D01*
X136034343Y-100181601D01*
X136122595Y-100134429D01*
X136193792Y-100076000D01*
X137768067Y-100076000D01*
X137817271Y-100066213D01*
X137867171Y-100061298D01*
X137915151Y-100046743D01*
X137964356Y-100036956D01*
X138010709Y-100017756D01*
X138058687Y-100003202D01*
X138102905Y-99979567D01*
X138149256Y-99960368D01*
X138190968Y-99932497D01*
X138235190Y-99908860D01*
X138273953Y-99877048D01*
X138315662Y-99849179D01*
X138351133Y-99813708D01*
X138389896Y-99781896D01*
X138421708Y-99743133D01*
X138457179Y-99707662D01*
X138485048Y-99665953D01*
X138516860Y-99627190D01*
X138540497Y-99582968D01*
X138568368Y-99541256D01*
X138587567Y-99494905D01*
X138611202Y-99450687D01*
X138625756Y-99402709D01*
X138644956Y-99356356D01*
X138654743Y-99307151D01*
X138669298Y-99259171D01*
X138674213Y-99209271D01*
X138684000Y-99160067D01*
X138684000Y-99109901D01*
X138688915Y-99060000D01*
X138684000Y-99010098D01*
X138684000Y-98959933D01*
X138674213Y-98910729D01*
X138669298Y-98860829D01*
X138654743Y-98812849D01*
X138644956Y-98763644D01*
X138625756Y-98717291D01*
X138611202Y-98669313D01*
X138587567Y-98625095D01*
X138568368Y-98578744D01*
X138540497Y-98537032D01*
X138516860Y-98492810D01*
X138485048Y-98454047D01*
X138457179Y-98412338D01*
X138421708Y-98376867D01*
X138389896Y-98338104D01*
X138351133Y-98306292D01*
X138315662Y-98270821D01*
X138273953Y-98242952D01*
X138235190Y-98211140D01*
X138190968Y-98187503D01*
X138149256Y-98159632D01*
X138102905Y-98140433D01*
X138058687Y-98116798D01*
X138010709Y-98102244D01*
X137964356Y-98083044D01*
X137915151Y-98073257D01*
X137867171Y-98058702D01*
X137817271Y-98053787D01*
X137768067Y-98044000D01*
X136355000Y-98044000D01*
X136355000Y-97542893D01*
X136359914Y-97492999D01*
X136355000Y-97443105D01*
X136355000Y-97443098D01*
X136340298Y-97293829D01*
X136282202Y-97102313D01*
X136187860Y-96925810D01*
X136060896Y-96771104D01*
X136022133Y-96739292D01*
X131309712Y-92026872D01*
X131277896Y-91988104D01*
X131123190Y-91861140D01*
X130946687Y-91766798D01*
X130755171Y-91708702D01*
X130605902Y-91694000D01*
X130556000Y-91689085D01*
X130506098Y-91694000D01*
X130032333Y-91694000D01*
X130011601Y-91625657D01*
X129964429Y-91537405D01*
X129900948Y-91460052D01*
X129876514Y-91440000D01*
X129900948Y-91419948D01*
X129964429Y-91342595D01*
X130011601Y-91254343D01*
X130040649Y-91158585D01*
X130050457Y-91059000D01*
X130050457Y-89281000D01*
X130040649Y-89181415D01*
X130011601Y-89085657D01*
X129964429Y-88997405D01*
X129900948Y-88920052D01*
X129823595Y-88856571D01*
X129794000Y-88840752D01*
X129794000Y-88754821D01*
X130021579Y-88709553D01*
X130322042Y-88585097D01*
X130592451Y-88404415D01*
X130822415Y-88174451D01*
X131003097Y-87904042D01*
X131127553Y-87603579D01*
X131191000Y-87284609D01*
X131191000Y-86959391D01*
X131127553Y-86640421D01*
X131003097Y-86339958D01*
X130822415Y-86069549D01*
X130592451Y-85839585D01*
X130322042Y-85658903D01*
X130021579Y-85534447D01*
X129702609Y-85471000D01*
X129377391Y-85471000D01*
X129058421Y-85534447D01*
X128757958Y-85658903D01*
X128487549Y-85839585D01*
X128257585Y-86069549D01*
X128076903Y-86339958D01*
X127952447Y-86640421D01*
X127889000Y-86959391D01*
X127889000Y-86976950D01*
X127670086Y-87195864D01*
X127621631Y-87235630D01*
X127558000Y-87313164D01*
X127558000Y-84378000D01*
X162002001Y-84378000D01*
X162002001Y-87313164D01*
G36*
X146848930Y-98216955D02*
G01*
X146868815Y-98241185D01*
X146965506Y-98320537D01*
X147075820Y-98379502D01*
X147195518Y-98415812D01*
X147288808Y-98425000D01*
X147288818Y-98425000D01*
X147319999Y-98428071D01*
X147351180Y-98425000D01*
X150358976Y-98425000D01*
X155230930Y-103296955D01*
X155250815Y-103321185D01*
X155275043Y-103341068D01*
X155347506Y-103400538D01*
X155457820Y-103459502D01*
X155577518Y-103495812D01*
X155670808Y-103505000D01*
X155670811Y-103505000D01*
X155702000Y-103508072D01*
X155733189Y-103505000D01*
X159509543Y-103505000D01*
X159509543Y-103759000D01*
X159519351Y-103858585D01*
X159548399Y-103954343D01*
X159595571Y-104042595D01*
X159659052Y-104119948D01*
X159683486Y-104140000D01*
X159659052Y-104160052D01*
X159595571Y-104237405D01*
X159548399Y-104325657D01*
X159519351Y-104421415D01*
X159509543Y-104521000D01*
X159509543Y-104775000D01*
X156473025Y-104775000D01*
X150585074Y-98887050D01*
X150565185Y-98862815D01*
X150468494Y-98783463D01*
X150358180Y-98724498D01*
X150238482Y-98688188D01*
X150145192Y-98679000D01*
X150145181Y-98679000D01*
X150114000Y-98675929D01*
X150082819Y-98679000D01*
X146567026Y-98679000D01*
X140698361Y-92810336D01*
X140832408Y-92837000D01*
X141107592Y-92837000D01*
X141377490Y-92783314D01*
X141404218Y-92772243D01*
X146848930Y-98216955D01*
G37*
X146848930Y-98216955D02*
X146868815Y-98241185D01*
X146965506Y-98320537D01*
X147075820Y-98379502D01*
X147195518Y-98415812D01*
X147288808Y-98425000D01*
X147288818Y-98425000D01*
X147319999Y-98428071D01*
X147351180Y-98425000D01*
X150358976Y-98425000D01*
X155230930Y-103296955D01*
X155250815Y-103321185D01*
X155275043Y-103341068D01*
X155347506Y-103400538D01*
X155457820Y-103459502D01*
X155577518Y-103495812D01*
X155670808Y-103505000D01*
X155670811Y-103505000D01*
X155702000Y-103508072D01*
X155733189Y-103505000D01*
X159509543Y-103505000D01*
X159509543Y-103759000D01*
X159519351Y-103858585D01*
X159548399Y-103954343D01*
X159595571Y-104042595D01*
X159659052Y-104119948D01*
X159683486Y-104140000D01*
X159659052Y-104160052D01*
X159595571Y-104237405D01*
X159548399Y-104325657D01*
X159519351Y-104421415D01*
X159509543Y-104521000D01*
X159509543Y-104775000D01*
X156473025Y-104775000D01*
X150585074Y-98887050D01*
X150565185Y-98862815D01*
X150468494Y-98783463D01*
X150358180Y-98724498D01*
X150238482Y-98688188D01*
X150145192Y-98679000D01*
X150145181Y-98679000D01*
X150114000Y-98675929D01*
X150082819Y-98679000D01*
X146567026Y-98679000D01*
X140698361Y-92810336D01*
X140832408Y-92837000D01*
X141107592Y-92837000D01*
X141377490Y-92783314D01*
X141404218Y-92772243D01*
X146848930Y-98216955D01*
G36*
X147864935Y-96692961D02*
G01*
X147884815Y-96717185D01*
X147909039Y-96737065D01*
X147909043Y-96737069D01*
X147981506Y-96796538D01*
X148054330Y-96835463D01*
X148091820Y-96855502D01*
X148211518Y-96891812D01*
X148304808Y-96901000D01*
X148304811Y-96901000D01*
X148336000Y-96904072D01*
X148367189Y-96901000D01*
X150866976Y-96901000D01*
X154722930Y-100756955D01*
X154742815Y-100781185D01*
X154767043Y-100801068D01*
X154839506Y-100860538D01*
X154896162Y-100890821D01*
X154949820Y-100919502D01*
X155069518Y-100955812D01*
X155162808Y-100965000D01*
X155162811Y-100965000D01*
X155194000Y-100968072D01*
X155225189Y-100965000D01*
X159509543Y-100965000D01*
X159509543Y-101219000D01*
X159519351Y-101318585D01*
X159548399Y-101414343D01*
X159595571Y-101502595D01*
X159659052Y-101579948D01*
X159683486Y-101600000D01*
X159659052Y-101620052D01*
X159595571Y-101697405D01*
X159548399Y-101785657D01*
X159519351Y-101881415D01*
X159509543Y-101981000D01*
X159509543Y-102235000D01*
X155965025Y-102235000D01*
X151093074Y-97363050D01*
X151073185Y-97338815D01*
X150976494Y-97259463D01*
X150866180Y-97200498D01*
X150746482Y-97164188D01*
X150653192Y-97155000D01*
X150653181Y-97155000D01*
X150622000Y-97151929D01*
X150590819Y-97155000D01*
X147583025Y-97155000D01*
X143238361Y-92810336D01*
X143372408Y-92837000D01*
X143647592Y-92837000D01*
X143917490Y-92783314D01*
X143944218Y-92772243D01*
X147864935Y-96692961D01*
G37*
X147864935Y-96692961D02*
X147884815Y-96717185D01*
X147909039Y-96737065D01*
X147909043Y-96737069D01*
X147981506Y-96796538D01*
X148054330Y-96835463D01*
X148091820Y-96855502D01*
X148211518Y-96891812D01*
X148304808Y-96901000D01*
X148304811Y-96901000D01*
X148336000Y-96904072D01*
X148367189Y-96901000D01*
X150866976Y-96901000D01*
X154722930Y-100756955D01*
X154742815Y-100781185D01*
X154767043Y-100801068D01*
X154839506Y-100860538D01*
X154896162Y-100890821D01*
X154949820Y-100919502D01*
X155069518Y-100955812D01*
X155162808Y-100965000D01*
X155162811Y-100965000D01*
X155194000Y-100968072D01*
X155225189Y-100965000D01*
X159509543Y-100965000D01*
X159509543Y-101219000D01*
X159519351Y-101318585D01*
X159548399Y-101414343D01*
X159595571Y-101502595D01*
X159659052Y-101579948D01*
X159683486Y-101600000D01*
X159659052Y-101620052D01*
X159595571Y-101697405D01*
X159548399Y-101785657D01*
X159519351Y-101881415D01*
X159509543Y-101981000D01*
X159509543Y-102235000D01*
X155965025Y-102235000D01*
X151093074Y-97363050D01*
X151073185Y-97338815D01*
X150976494Y-97259463D01*
X150866180Y-97200498D01*
X150746482Y-97164188D01*
X150653192Y-97155000D01*
X150653181Y-97155000D01*
X150622000Y-97151929D01*
X150590819Y-97155000D01*
X147583025Y-97155000D01*
X143238361Y-92810336D01*
X143372408Y-92837000D01*
X143647592Y-92837000D01*
X143917490Y-92783314D01*
X143944218Y-92772243D01*
X147864935Y-96692961D01*
G36*
X148880930Y-95168955D02*
G01*
X148900815Y-95193185D01*
X148997506Y-95272537D01*
X149107820Y-95331502D01*
X149227518Y-95367812D01*
X149320808Y-95377000D01*
X149320818Y-95377000D01*
X149351999Y-95380071D01*
X149383180Y-95377000D01*
X151374976Y-95377000D01*
X153790935Y-97792960D01*
X153810815Y-97817185D01*
X153835039Y-97837065D01*
X153835042Y-97837068D01*
X153907505Y-97896537D01*
X153931479Y-97909351D01*
X154017820Y-97955502D01*
X154137518Y-97991812D01*
X154230808Y-98001000D01*
X154230818Y-98001000D01*
X154261999Y-98004071D01*
X154293180Y-98001000D01*
X155197094Y-98001000D01*
X155215399Y-98061343D01*
X155262571Y-98149595D01*
X155326052Y-98226948D01*
X155403405Y-98290429D01*
X155491657Y-98337601D01*
X155587415Y-98366649D01*
X155687000Y-98376457D01*
X156987000Y-98376457D01*
X157086585Y-98366649D01*
X157182343Y-98337601D01*
X157270595Y-98290429D01*
X157306707Y-98260793D01*
X157307043Y-98261068D01*
X157307044Y-98261069D01*
X157379506Y-98320538D01*
X157465774Y-98366649D01*
X157489820Y-98379502D01*
X157609518Y-98415812D01*
X157702808Y-98425000D01*
X157702811Y-98425000D01*
X157734000Y-98428072D01*
X157765189Y-98425000D01*
X159509543Y-98425000D01*
X159509543Y-98679000D01*
X159519351Y-98778585D01*
X159548399Y-98874343D01*
X159595571Y-98962595D01*
X159659052Y-99039948D01*
X159683486Y-99060000D01*
X159659052Y-99080052D01*
X159595571Y-99157405D01*
X159548399Y-99245657D01*
X159519351Y-99341415D01*
X159509543Y-99441000D01*
X159509543Y-99695000D01*
X155457025Y-99695000D01*
X151601074Y-95839050D01*
X151581185Y-95814815D01*
X151484494Y-95735463D01*
X151374180Y-95676498D01*
X151254482Y-95640188D01*
X151161192Y-95631000D01*
X151161181Y-95631000D01*
X151130000Y-95627929D01*
X151098819Y-95631000D01*
X148599026Y-95631000D01*
X145778361Y-92810336D01*
X145912408Y-92837000D01*
X146187592Y-92837000D01*
X146457490Y-92783314D01*
X146484218Y-92772243D01*
X148880930Y-95168955D01*
G37*
X148880930Y-95168955D02*
X148900815Y-95193185D01*
X148997506Y-95272537D01*
X149107820Y-95331502D01*
X149227518Y-95367812D01*
X149320808Y-95377000D01*
X149320818Y-95377000D01*
X149351999Y-95380071D01*
X149383180Y-95377000D01*
X151374976Y-95377000D01*
X153790935Y-97792960D01*
X153810815Y-97817185D01*
X153835039Y-97837065D01*
X153835042Y-97837068D01*
X153907505Y-97896537D01*
X153931479Y-97909351D01*
X154017820Y-97955502D01*
X154137518Y-97991812D01*
X154230808Y-98001000D01*
X154230818Y-98001000D01*
X154261999Y-98004071D01*
X154293180Y-98001000D01*
X155197094Y-98001000D01*
X155215399Y-98061343D01*
X155262571Y-98149595D01*
X155326052Y-98226948D01*
X155403405Y-98290429D01*
X155491657Y-98337601D01*
X155587415Y-98366649D01*
X155687000Y-98376457D01*
X156987000Y-98376457D01*
X157086585Y-98366649D01*
X157182343Y-98337601D01*
X157270595Y-98290429D01*
X157306707Y-98260793D01*
X157307043Y-98261068D01*
X157307044Y-98261069D01*
X157379506Y-98320538D01*
X157465774Y-98366649D01*
X157489820Y-98379502D01*
X157609518Y-98415812D01*
X157702808Y-98425000D01*
X157702811Y-98425000D01*
X157734000Y-98428072D01*
X157765189Y-98425000D01*
X159509543Y-98425000D01*
X159509543Y-98679000D01*
X159519351Y-98778585D01*
X159548399Y-98874343D01*
X159595571Y-98962595D01*
X159659052Y-99039948D01*
X159683486Y-99060000D01*
X159659052Y-99080052D01*
X159595571Y-99157405D01*
X159548399Y-99245657D01*
X159519351Y-99341415D01*
X159509543Y-99441000D01*
X159509543Y-99695000D01*
X155457025Y-99695000D01*
X151601074Y-95839050D01*
X151581185Y-95814815D01*
X151484494Y-95735463D01*
X151374180Y-95676498D01*
X151254482Y-95640188D01*
X151161192Y-95631000D01*
X151161181Y-95631000D01*
X151130000Y-95627929D01*
X151098819Y-95631000D01*
X148599026Y-95631000D01*
X145778361Y-92810336D01*
X145912408Y-92837000D01*
X146187592Y-92837000D01*
X146457490Y-92783314D01*
X146484218Y-92772243D01*
X148880930Y-95168955D01*
G36*
X149891995Y-92101727D02*
G01*
X150044880Y-92330535D01*
X150239465Y-92525120D01*
X150468273Y-92678005D01*
X150722510Y-92783314D01*
X150992408Y-92837000D01*
X151090160Y-92837000D01*
X152027293Y-93774134D01*
X152059105Y-93812897D01*
X152213811Y-93939861D01*
X152390314Y-94034203D01*
X152581830Y-94092299D01*
X152781000Y-94111916D01*
X152830902Y-94107001D01*
X155702001Y-94107001D01*
X155702000Y-94155543D01*
X155687000Y-94155543D01*
X155587415Y-94165351D01*
X155491657Y-94194399D01*
X155403405Y-94241571D01*
X155326052Y-94305052D01*
X155262571Y-94382405D01*
X155215399Y-94470657D01*
X155186351Y-94566415D01*
X155176543Y-94666000D01*
X155176543Y-95666000D01*
X155186351Y-95765585D01*
X155215399Y-95861343D01*
X155262571Y-95949595D01*
X155326052Y-96026948D01*
X155403405Y-96090429D01*
X155491657Y-96137601D01*
X155587415Y-96166649D01*
X155687000Y-96176457D01*
X156987000Y-96176457D01*
X157086585Y-96166649D01*
X157182343Y-96137601D01*
X157270595Y-96090429D01*
X157347948Y-96026948D01*
X157411429Y-95949595D01*
X157458601Y-95861343D01*
X157487649Y-95765585D01*
X157497457Y-95666000D01*
X157497457Y-94666000D01*
X157487649Y-94566415D01*
X157458601Y-94470657D01*
X157411429Y-94382405D01*
X157347948Y-94305052D01*
X157270595Y-94241571D01*
X157182343Y-94194399D01*
X157086585Y-94165351D01*
X156987000Y-94155543D01*
X156972000Y-94155543D01*
X156972000Y-94107001D01*
X158319097Y-94107001D01*
X158368999Y-94111916D01*
X158418901Y-94107001D01*
X158568170Y-94092299D01*
X158759686Y-94034203D01*
X158936189Y-93939861D01*
X159090895Y-93812897D01*
X159122712Y-93774128D01*
X159170840Y-93726000D01*
X159527667Y-93726000D01*
X159548399Y-93794343D01*
X159595571Y-93882595D01*
X159659052Y-93959948D01*
X159683486Y-93980000D01*
X159659052Y-94000052D01*
X159595570Y-94077405D01*
X159548398Y-94165656D01*
X159519350Y-94261415D01*
X159509542Y-94361000D01*
X159512000Y-94742000D01*
X159639000Y-94869000D01*
X160655000Y-94869000D01*
X160655000Y-94849000D01*
X161417000Y-94849000D01*
X161417000Y-94869000D01*
X161437000Y-94869000D01*
X161437000Y-95631000D01*
X161417000Y-95631000D01*
X161417000Y-95651000D01*
X160655000Y-95651000D01*
X160655000Y-95631000D01*
X159639000Y-95631000D01*
X159512000Y-95758000D01*
X159509542Y-96139000D01*
X159519350Y-96238585D01*
X159548398Y-96334344D01*
X159595570Y-96422595D01*
X159659052Y-96499948D01*
X159683486Y-96520000D01*
X159659052Y-96540052D01*
X159595571Y-96617405D01*
X159548399Y-96705657D01*
X159519351Y-96801415D01*
X159509543Y-96901000D01*
X159509543Y-97155000D01*
X157997025Y-97155000D01*
X157781074Y-96939050D01*
X157761185Y-96914815D01*
X157664494Y-96835463D01*
X157554180Y-96776498D01*
X157484275Y-96755293D01*
X157458601Y-96670657D01*
X157411429Y-96582405D01*
X157347948Y-96505052D01*
X157270595Y-96441571D01*
X157182343Y-96394399D01*
X157086585Y-96365351D01*
X156987000Y-96355543D01*
X155687000Y-96355543D01*
X155587415Y-96365351D01*
X155491657Y-96394399D01*
X155403405Y-96441571D01*
X155326052Y-96505052D01*
X155262571Y-96582405D01*
X155215399Y-96670657D01*
X155197094Y-96731000D01*
X154525026Y-96731000D01*
X152109074Y-94315050D01*
X152089185Y-94290815D01*
X151992494Y-94211463D01*
X151882180Y-94152498D01*
X151762482Y-94116188D01*
X151669192Y-94107000D01*
X151669181Y-94107000D01*
X151638000Y-94103929D01*
X151606819Y-94107000D01*
X149615025Y-94107000D01*
X148318361Y-92810336D01*
X148452408Y-92837000D01*
X148727592Y-92837000D01*
X148997490Y-92783314D01*
X149251727Y-92678005D01*
X149480535Y-92525120D01*
X149675120Y-92330535D01*
X149828005Y-92101727D01*
X149860000Y-92024485D01*
X149891995Y-92101727D01*
G37*
X149891995Y-92101727D02*
X150044880Y-92330535D01*
X150239465Y-92525120D01*
X150468273Y-92678005D01*
X150722510Y-92783314D01*
X150992408Y-92837000D01*
X151090160Y-92837000D01*
X152027293Y-93774134D01*
X152059105Y-93812897D01*
X152213811Y-93939861D01*
X152390314Y-94034203D01*
X152581830Y-94092299D01*
X152781000Y-94111916D01*
X152830902Y-94107001D01*
X155702001Y-94107001D01*
X155702000Y-94155543D01*
X155687000Y-94155543D01*
X155587415Y-94165351D01*
X155491657Y-94194399D01*
X155403405Y-94241571D01*
X155326052Y-94305052D01*
X155262571Y-94382405D01*
X155215399Y-94470657D01*
X155186351Y-94566415D01*
X155176543Y-94666000D01*
X155176543Y-95666000D01*
X155186351Y-95765585D01*
X155215399Y-95861343D01*
X155262571Y-95949595D01*
X155326052Y-96026948D01*
X155403405Y-96090429D01*
X155491657Y-96137601D01*
X155587415Y-96166649D01*
X155687000Y-96176457D01*
X156987000Y-96176457D01*
X157086585Y-96166649D01*
X157182343Y-96137601D01*
X157270595Y-96090429D01*
X157347948Y-96026948D01*
X157411429Y-95949595D01*
X157458601Y-95861343D01*
X157487649Y-95765585D01*
X157497457Y-95666000D01*
X157497457Y-94666000D01*
X157487649Y-94566415D01*
X157458601Y-94470657D01*
X157411429Y-94382405D01*
X157347948Y-94305052D01*
X157270595Y-94241571D01*
X157182343Y-94194399D01*
X157086585Y-94165351D01*
X156987000Y-94155543D01*
X156972000Y-94155543D01*
X156972000Y-94107001D01*
X158319097Y-94107001D01*
X158368999Y-94111916D01*
X158418901Y-94107001D01*
X158568170Y-94092299D01*
X158759686Y-94034203D01*
X158936189Y-93939861D01*
X159090895Y-93812897D01*
X159122712Y-93774128D01*
X159170840Y-93726000D01*
X159527667Y-93726000D01*
X159548399Y-93794343D01*
X159595571Y-93882595D01*
X159659052Y-93959948D01*
X159683486Y-93980000D01*
X159659052Y-94000052D01*
X159595570Y-94077405D01*
X159548398Y-94165656D01*
X159519350Y-94261415D01*
X159509542Y-94361000D01*
X159512000Y-94742000D01*
X159639000Y-94869000D01*
X160655000Y-94869000D01*
X160655000Y-94849000D01*
X161417000Y-94849000D01*
X161417000Y-94869000D01*
X161437000Y-94869000D01*
X161437000Y-95631000D01*
X161417000Y-95631000D01*
X161417000Y-95651000D01*
X160655000Y-95651000D01*
X160655000Y-95631000D01*
X159639000Y-95631000D01*
X159512000Y-95758000D01*
X159509542Y-96139000D01*
X159519350Y-96238585D01*
X159548398Y-96334344D01*
X159595570Y-96422595D01*
X159659052Y-96499948D01*
X159683486Y-96520000D01*
X159659052Y-96540052D01*
X159595571Y-96617405D01*
X159548399Y-96705657D01*
X159519351Y-96801415D01*
X159509543Y-96901000D01*
X159509543Y-97155000D01*
X157997025Y-97155000D01*
X157781074Y-96939050D01*
X157761185Y-96914815D01*
X157664494Y-96835463D01*
X157554180Y-96776498D01*
X157484275Y-96755293D01*
X157458601Y-96670657D01*
X157411429Y-96582405D01*
X157347948Y-96505052D01*
X157270595Y-96441571D01*
X157182343Y-96394399D01*
X157086585Y-96365351D01*
X156987000Y-96355543D01*
X155687000Y-96355543D01*
X155587415Y-96365351D01*
X155491657Y-96394399D01*
X155403405Y-96441571D01*
X155326052Y-96505052D01*
X155262571Y-96582405D01*
X155215399Y-96670657D01*
X155197094Y-96731000D01*
X154525026Y-96731000D01*
X152109074Y-94315050D01*
X152089185Y-94290815D01*
X151992494Y-94211463D01*
X151882180Y-94152498D01*
X151762482Y-94116188D01*
X151669192Y-94107000D01*
X151669181Y-94107000D01*
X151638000Y-94103929D01*
X151606819Y-94107000D01*
X149615025Y-94107000D01*
X148318361Y-92810336D01*
X148452408Y-92837000D01*
X148727592Y-92837000D01*
X148997490Y-92783314D01*
X149251727Y-92678005D01*
X149480535Y-92525120D01*
X149675120Y-92330535D01*
X149828005Y-92101727D01*
X149860000Y-92024485D01*
X149891995Y-92101727D01*
M02*
