G04 #@! TF.FileFunction,Copper,L2,Bot,Signal*
%FSLAX46Y46*%
G04 Gerber Fmt 4.6, Leading zero omitted, Abs format (unit mm)*
G04 Created by KiCad (PCBNEW (2015-12-09 BZR 6195)-product) date Sat Jun 25 23:21:16 2016*
%MOMM*%
G01*
G04 APERTURE LIST*
%ADD10C,0.100000*%
%ADD11C,2.032000*%
%ADD12C,1.016000*%
%ADD13R,1.500000X1.300000*%
%ADD14R,2.032000X1.778000*%
%ADD15C,2.499360*%
%ADD16R,1.270000X2.780000*%
%ADD17R,1.778000X1.778000*%
%ADD18C,1.778000*%
%ADD19C,1.270000*%
%ADD20C,1.016000*%
%ADD21C,1.270000*%
%ADD22C,0.254000*%
G04 APERTURE END LIST*
D10*
D11*
X158496000Y-96266000D03*
X131064000Y-96266000D03*
D12*
X152400000Y-109220000D03*
X152400000Y-104140000D03*
X140970000Y-107950000D03*
X140970000Y-101600000D03*
X130810000Y-104140000D03*
X130810000Y-101600000D03*
X130810000Y-99060000D03*
X158750000Y-104140000D03*
X158750000Y-101600000D03*
D13*
X151718000Y-96520000D03*
X149018000Y-96520000D03*
D14*
X128524000Y-90170000D03*
X128524000Y-92710000D03*
X128524000Y-95250000D03*
X128524000Y-97790000D03*
X128524000Y-100330000D03*
X128524000Y-102870000D03*
X128524000Y-105410000D03*
X128524000Y-107950000D03*
X161036000Y-107950000D03*
X161036000Y-105410000D03*
X161036000Y-102870000D03*
X161036000Y-100330000D03*
X161036000Y-97790000D03*
X161036000Y-95250000D03*
X161036000Y-92710000D03*
X161036000Y-90170000D03*
D12*
X158750000Y-99060000D03*
D15*
X129540000Y-87122000D03*
X160020000Y-87122000D03*
D16*
X143510000Y-101465000D03*
X146050000Y-101465000D03*
X143510000Y-96655000D03*
X146050000Y-96655000D03*
D17*
X135890000Y-91440000D03*
D18*
X135890000Y-88900000D03*
X138430000Y-91440000D03*
X138430000Y-88900000D03*
X140970000Y-91440000D03*
X140970000Y-88900000D03*
X143510000Y-91440000D03*
X143510000Y-88900000D03*
X146050000Y-91440000D03*
X146050000Y-88900000D03*
X148590000Y-91440000D03*
X148590000Y-88900000D03*
X151130000Y-91440000D03*
X151130000Y-88900000D03*
X153670000Y-91440000D03*
X153670000Y-88900000D03*
D19*
X134620000Y-95250000D03*
D12*
X138430000Y-109220000D03*
X149860000Y-102870000D03*
X149860000Y-106680000D03*
X149860000Y-110490000D03*
X138430000Y-104140000D03*
X138430012Y-99060000D03*
D20*
X134620012Y-95250000D02*
X134620000Y-95250000D01*
X138430012Y-99060000D02*
X134620012Y-95250000D01*
X138430000Y-104140000D02*
X138430000Y-109220000D01*
X149860000Y-106680000D02*
X149860000Y-102870000D01*
X149860000Y-110490000D02*
X149860000Y-106680000D01*
D21*
X138430012Y-104139988D02*
X138430000Y-104140000D01*
D20*
X138430012Y-99060000D02*
X138430012Y-104139988D01*
D22*
X152400000Y-90170000D02*
X152400000Y-91948000D01*
X153670000Y-88900000D02*
X152400000Y-90170000D01*
X149018000Y-96520000D02*
X147574000Y-96520000D01*
X147574000Y-96520000D02*
X147439000Y-96655000D01*
X147439000Y-96655000D02*
X146050000Y-96655000D01*
X135890000Y-91440000D02*
X140716000Y-96266000D01*
X140716000Y-96266000D02*
X140716000Y-97282000D01*
X140716000Y-97282000D02*
X142494000Y-99060000D01*
X142494000Y-99060000D02*
X143510000Y-99060000D01*
X143510000Y-99060000D02*
X146050000Y-99060000D01*
X146050000Y-101465000D02*
X146050000Y-99060000D01*
X146050000Y-99060000D02*
X146050000Y-96655000D01*
X151130000Y-91440000D02*
X151130000Y-93218000D01*
X151130000Y-93218000D02*
X151718000Y-93806000D01*
X151718000Y-93806000D02*
X151718000Y-96520000D01*
G36*
X162002000Y-88763048D02*
X160651097Y-88763048D01*
X161014345Y-88612957D01*
X161509220Y-88118946D01*
X161777374Y-87473158D01*
X161777984Y-86773910D01*
X161510957Y-86127655D01*
X161016946Y-85632780D01*
X160371158Y-85364626D01*
X159671910Y-85364016D01*
X159025655Y-85631043D01*
X158530780Y-86125054D01*
X158262626Y-86770842D01*
X158262016Y-87470090D01*
X158529043Y-88116345D01*
X159023054Y-88611220D01*
X159668842Y-88879374D01*
X159705968Y-88879406D01*
X159658847Y-88909728D01*
X159542855Y-89079488D01*
X159502048Y-89281000D01*
X159502048Y-91059000D01*
X159537470Y-91247253D01*
X159648728Y-91420153D01*
X159675927Y-91438737D01*
X159658847Y-91449728D01*
X159542855Y-91619488D01*
X159502048Y-91821000D01*
X159502048Y-93599000D01*
X159537470Y-93787253D01*
X159599431Y-93883543D01*
X159481673Y-94001301D01*
X159385000Y-94234690D01*
X159385000Y-94837250D01*
X159543750Y-94996000D01*
X160782000Y-94996000D01*
X160782000Y-94976000D01*
X161290000Y-94976000D01*
X161290000Y-94996000D01*
X161310000Y-94996000D01*
X161310000Y-95504000D01*
X161290000Y-95504000D01*
X161290000Y-95524000D01*
X160782000Y-95524000D01*
X160782000Y-95504000D01*
X159543750Y-95504000D01*
X159385000Y-95662750D01*
X159385000Y-96265310D01*
X159481673Y-96498699D01*
X159599524Y-96616550D01*
X159542855Y-96699488D01*
X159502048Y-96901000D01*
X159502048Y-98679000D01*
X159537470Y-98867253D01*
X159648728Y-99040153D01*
X159675927Y-99058737D01*
X159658847Y-99069728D01*
X159542855Y-99239488D01*
X159502048Y-99441000D01*
X159502048Y-101219000D01*
X159537470Y-101407253D01*
X159648728Y-101580153D01*
X159675927Y-101598737D01*
X159658847Y-101609728D01*
X159542855Y-101779488D01*
X159502048Y-101981000D01*
X159502048Y-103759000D01*
X159537470Y-103947253D01*
X159648728Y-104120153D01*
X159675927Y-104138737D01*
X159658847Y-104149728D01*
X159542855Y-104319488D01*
X159502048Y-104521000D01*
X159502048Y-106299000D01*
X159537470Y-106487253D01*
X159599431Y-106583543D01*
X159481673Y-106701301D01*
X159385000Y-106934690D01*
X159385000Y-107537250D01*
X159543750Y-107696000D01*
X160782000Y-107696000D01*
X160782000Y-107676000D01*
X161290000Y-107676000D01*
X161290000Y-107696000D01*
X161310000Y-107696000D01*
X161310000Y-108204000D01*
X161290000Y-108204000D01*
X161290000Y-109315250D01*
X161448750Y-109474000D01*
X162002000Y-109474000D01*
X162002000Y-113742000D01*
X127558000Y-113742000D01*
X127558000Y-109474000D01*
X128111250Y-109474000D01*
X128270000Y-109315250D01*
X128270000Y-108204000D01*
X128778000Y-108204000D01*
X128778000Y-109315250D01*
X128936750Y-109474000D01*
X129666309Y-109474000D01*
X129899698Y-109377327D01*
X130078327Y-109198699D01*
X130175000Y-108965310D01*
X130175000Y-108362750D01*
X130016250Y-108204000D01*
X128778000Y-108204000D01*
X128270000Y-108204000D01*
X128250000Y-108204000D01*
X128250000Y-107696000D01*
X128270000Y-107696000D01*
X128270000Y-107676000D01*
X128778000Y-107676000D01*
X128778000Y-107696000D01*
X130016250Y-107696000D01*
X130175000Y-107537250D01*
X130175000Y-106934690D01*
X130078327Y-106701301D01*
X129960476Y-106583450D01*
X130017145Y-106500512D01*
X130057952Y-106299000D01*
X130057952Y-104521000D01*
X130022530Y-104332747D01*
X129911272Y-104159847D01*
X129884073Y-104141263D01*
X129901153Y-104130272D01*
X130017145Y-103960512D01*
X130057952Y-103759000D01*
X130057952Y-101981000D01*
X130022530Y-101792747D01*
X129911272Y-101619847D01*
X129884073Y-101601263D01*
X129901153Y-101590272D01*
X130017145Y-101420512D01*
X130057952Y-101219000D01*
X130057952Y-99441000D01*
X130022530Y-99252747D01*
X129911272Y-99079847D01*
X129884073Y-99061263D01*
X129901153Y-99050272D01*
X130017145Y-98880512D01*
X130057952Y-98679000D01*
X130057952Y-96901000D01*
X130022530Y-96712747D01*
X129960569Y-96616457D01*
X130078327Y-96498699D01*
X130175000Y-96265310D01*
X130175000Y-95662750D01*
X130016250Y-95504000D01*
X128778000Y-95504000D01*
X128778000Y-95524000D01*
X128270000Y-95524000D01*
X128270000Y-95504000D01*
X128250000Y-95504000D01*
X128250000Y-95476359D01*
X133476802Y-95476359D01*
X133650446Y-95896612D01*
X133971697Y-96218423D01*
X134279339Y-96346167D01*
X137414012Y-99480841D01*
X137414012Y-103642720D01*
X137374006Y-103702593D01*
X137287000Y-104140000D01*
X137374006Y-104577407D01*
X137414000Y-104637262D01*
X137414000Y-109219113D01*
X137413824Y-109421208D01*
X137568175Y-109794766D01*
X137853731Y-110080821D01*
X138227018Y-110235824D01*
X138631208Y-110236176D01*
X139004766Y-110081825D01*
X139290821Y-109796269D01*
X139445824Y-109422982D01*
X139446176Y-109018792D01*
X139446000Y-109018366D01*
X139446000Y-104637268D01*
X139486006Y-104577395D01*
X139573012Y-104139988D01*
X139486006Y-103702581D01*
X139446012Y-103642726D01*
X139446012Y-101750750D01*
X142240000Y-101750750D01*
X142240000Y-102981310D01*
X142336673Y-103214699D01*
X142515302Y-103393327D01*
X142748691Y-103490000D01*
X143224250Y-103490000D01*
X143383000Y-103331250D01*
X143383000Y-101592000D01*
X143637000Y-101592000D01*
X143637000Y-103331250D01*
X143795750Y-103490000D01*
X144271309Y-103490000D01*
X144504698Y-103393327D01*
X144683327Y-103214699D01*
X144780000Y-102981310D01*
X144780000Y-101750750D01*
X144621250Y-101592000D01*
X143637000Y-101592000D01*
X143383000Y-101592000D01*
X142398750Y-101592000D01*
X142240000Y-101750750D01*
X139446012Y-101750750D01*
X139446012Y-99060887D01*
X139446188Y-98858792D01*
X139291837Y-98485234D01*
X139006281Y-98199179D01*
X139005855Y-98199002D01*
X135715814Y-94908962D01*
X135589554Y-94603388D01*
X135268303Y-94281577D01*
X134848354Y-94107199D01*
X134393641Y-94106802D01*
X133973388Y-94280446D01*
X133651577Y-94601697D01*
X133477199Y-95021646D01*
X133476802Y-95476359D01*
X128250000Y-95476359D01*
X128250000Y-94996000D01*
X128270000Y-94996000D01*
X128270000Y-94976000D01*
X128778000Y-94976000D01*
X128778000Y-94996000D01*
X130016250Y-94996000D01*
X130175000Y-94837250D01*
X130175000Y-94234690D01*
X130078327Y-94001301D01*
X129960476Y-93883450D01*
X130017145Y-93800512D01*
X130057952Y-93599000D01*
X130057952Y-91821000D01*
X130022530Y-91632747D01*
X129911272Y-91459847D01*
X129884073Y-91441263D01*
X129901153Y-91430272D01*
X130017145Y-91260512D01*
X130057952Y-91059000D01*
X130057952Y-90551000D01*
X134483048Y-90551000D01*
X134483048Y-92329000D01*
X134518470Y-92517253D01*
X134629728Y-92690153D01*
X134799488Y-92806145D01*
X135001000Y-92846952D01*
X136398926Y-92846952D01*
X140081000Y-96529026D01*
X140081000Y-97282000D01*
X140129336Y-97525004D01*
X140266987Y-97731013D01*
X142044987Y-99509013D01*
X142250996Y-99646664D01*
X142379708Y-99672266D01*
X142336673Y-99715301D01*
X142240000Y-99948690D01*
X142240000Y-101179250D01*
X142398750Y-101338000D01*
X143383000Y-101338000D01*
X143383000Y-101318000D01*
X143637000Y-101318000D01*
X143637000Y-101338000D01*
X144621250Y-101338000D01*
X144780000Y-101179250D01*
X144780000Y-99948690D01*
X144683327Y-99715301D01*
X144663026Y-99695000D01*
X145067411Y-99695000D01*
X145053847Y-99703728D01*
X144937855Y-99873488D01*
X144897048Y-100075000D01*
X144897048Y-102855000D01*
X144932470Y-103043253D01*
X145043728Y-103216153D01*
X145213488Y-103332145D01*
X145415000Y-103372952D01*
X146685000Y-103372952D01*
X146873253Y-103337530D01*
X147046153Y-103226272D01*
X147152103Y-103071208D01*
X148843824Y-103071208D01*
X148844000Y-103071634D01*
X148844000Y-106679113D01*
X148843824Y-106881208D01*
X148844000Y-106881634D01*
X148844000Y-110489113D01*
X148843824Y-110691208D01*
X148998175Y-111064766D01*
X149283731Y-111350821D01*
X149657018Y-111505824D01*
X150061208Y-111506176D01*
X150434766Y-111351825D01*
X150720821Y-111066269D01*
X150875824Y-110692982D01*
X150876176Y-110288792D01*
X150876000Y-110288366D01*
X150876000Y-108362750D01*
X159385000Y-108362750D01*
X159385000Y-108965310D01*
X159481673Y-109198699D01*
X159660302Y-109377327D01*
X159893691Y-109474000D01*
X160623250Y-109474000D01*
X160782000Y-109315250D01*
X160782000Y-108204000D01*
X159543750Y-108204000D01*
X159385000Y-108362750D01*
X150876000Y-108362750D01*
X150876000Y-106680887D01*
X150876176Y-106478792D01*
X150876000Y-106478366D01*
X150876000Y-102870887D01*
X150876176Y-102668792D01*
X150721825Y-102295234D01*
X150436269Y-102009179D01*
X150062982Y-101854176D01*
X149658792Y-101853824D01*
X149285234Y-102008175D01*
X148999179Y-102293731D01*
X148844176Y-102667018D01*
X148843824Y-103071208D01*
X147152103Y-103071208D01*
X147162145Y-103056512D01*
X147202952Y-102855000D01*
X147202952Y-100075000D01*
X147167530Y-99886747D01*
X147056272Y-99713847D01*
X146886512Y-99597855D01*
X146685000Y-99557048D01*
X146685000Y-98562952D01*
X146873253Y-98527530D01*
X147046153Y-98416272D01*
X147162145Y-98246512D01*
X147202952Y-98045000D01*
X147202952Y-97290000D01*
X147439000Y-97290000D01*
X147682004Y-97241664D01*
X147754427Y-97193272D01*
X147785470Y-97358253D01*
X147896728Y-97531153D01*
X148066488Y-97647145D01*
X148268000Y-97687952D01*
X149768000Y-97687952D01*
X149956253Y-97652530D01*
X150129153Y-97541272D01*
X150245145Y-97371512D01*
X150285952Y-97170000D01*
X150285952Y-95870000D01*
X150250530Y-95681747D01*
X150139272Y-95508847D01*
X149969512Y-95392855D01*
X149768000Y-95352048D01*
X148268000Y-95352048D01*
X148079747Y-95387470D01*
X147906847Y-95498728D01*
X147790855Y-95668488D01*
X147750048Y-95870000D01*
X147750048Y-95885000D01*
X147574000Y-95885000D01*
X147330996Y-95933336D01*
X147202952Y-96018892D01*
X147202952Y-95265000D01*
X147167530Y-95076747D01*
X147056272Y-94903847D01*
X146886512Y-94787855D01*
X146685000Y-94747048D01*
X145415000Y-94747048D01*
X145226747Y-94782470D01*
X145053847Y-94893728D01*
X144937855Y-95063488D01*
X144897048Y-95265000D01*
X144897048Y-98045000D01*
X144932470Y-98233253D01*
X145043728Y-98406153D01*
X145071312Y-98425000D01*
X144663026Y-98425000D01*
X144683327Y-98404699D01*
X144780000Y-98171310D01*
X144780000Y-96940750D01*
X144621250Y-96782000D01*
X143637000Y-96782000D01*
X143637000Y-96802000D01*
X143383000Y-96802000D01*
X143383000Y-96782000D01*
X142398750Y-96782000D01*
X142240000Y-96940750D01*
X142240000Y-97907974D01*
X141351000Y-97018974D01*
X141351000Y-96266005D01*
X141351001Y-96266000D01*
X141302664Y-96022996D01*
X141165013Y-95816987D01*
X140486716Y-95138690D01*
X142240000Y-95138690D01*
X142240000Y-96369250D01*
X142398750Y-96528000D01*
X143383000Y-96528000D01*
X143383000Y-94788750D01*
X143637000Y-94788750D01*
X143637000Y-96528000D01*
X144621250Y-96528000D01*
X144780000Y-96369250D01*
X144780000Y-95138690D01*
X144683327Y-94905301D01*
X144504698Y-94726673D01*
X144271309Y-94630000D01*
X143795750Y-94630000D01*
X143637000Y-94788750D01*
X143383000Y-94788750D01*
X143224250Y-94630000D01*
X142748691Y-94630000D01*
X142515302Y-94726673D01*
X142336673Y-94905301D01*
X142240000Y-95138690D01*
X140486716Y-95138690D01*
X138184813Y-92836787D01*
X138706661Y-92837242D01*
X139220303Y-92625010D01*
X139613629Y-92232370D01*
X139699949Y-92024488D01*
X139784990Y-92230303D01*
X140177630Y-92623629D01*
X140690900Y-92836757D01*
X141246661Y-92837242D01*
X141760303Y-92625010D01*
X142153629Y-92232370D01*
X142239949Y-92024488D01*
X142324990Y-92230303D01*
X142717630Y-92623629D01*
X143230900Y-92836757D01*
X143786661Y-92837242D01*
X144300303Y-92625010D01*
X144693629Y-92232370D01*
X144779949Y-92024488D01*
X144864990Y-92230303D01*
X145257630Y-92623629D01*
X145770900Y-92836757D01*
X146326661Y-92837242D01*
X146840303Y-92625010D01*
X146953314Y-92512196D01*
X147697409Y-92512196D01*
X147782467Y-92767539D01*
X148351965Y-92975516D01*
X148957700Y-92949723D01*
X149397533Y-92767539D01*
X149482591Y-92512196D01*
X148590000Y-91619605D01*
X147697409Y-92512196D01*
X146953314Y-92512196D01*
X147233629Y-92232370D01*
X147244919Y-92205182D01*
X147262461Y-92247533D01*
X147517804Y-92332591D01*
X148410395Y-91440000D01*
X148769605Y-91440000D01*
X149662196Y-92332591D01*
X149917539Y-92247533D01*
X149933758Y-92203120D01*
X149944990Y-92230303D01*
X150337630Y-92623629D01*
X150495000Y-92688975D01*
X150495000Y-93218000D01*
X150543336Y-93461004D01*
X150680987Y-93667013D01*
X151083000Y-94069026D01*
X151083000Y-95352048D01*
X150968000Y-95352048D01*
X150779747Y-95387470D01*
X150606847Y-95498728D01*
X150490855Y-95668488D01*
X150450048Y-95870000D01*
X150450048Y-97170000D01*
X150485470Y-97358253D01*
X150596728Y-97531153D01*
X150766488Y-97647145D01*
X150968000Y-97687952D01*
X152468000Y-97687952D01*
X152656253Y-97652530D01*
X152829153Y-97541272D01*
X152945145Y-97371512D01*
X152985952Y-97170000D01*
X152985952Y-95870000D01*
X152950530Y-95681747D01*
X152839272Y-95508847D01*
X152669512Y-95392855D01*
X152468000Y-95352048D01*
X152353000Y-95352048D01*
X152353000Y-93806005D01*
X152353001Y-93806000D01*
X152304664Y-93562996D01*
X152167013Y-93356987D01*
X151765000Y-92954974D01*
X151765000Y-92689180D01*
X151920303Y-92625010D01*
X152313629Y-92232370D01*
X152399949Y-92024488D01*
X152484990Y-92230303D01*
X152877630Y-92623629D01*
X153390900Y-92836757D01*
X153946661Y-92837242D01*
X154460303Y-92625010D01*
X154853629Y-92232370D01*
X155066757Y-91719100D01*
X155067242Y-91163339D01*
X154855010Y-90649697D01*
X154462370Y-90256371D01*
X154435182Y-90245081D01*
X154477533Y-90227539D01*
X154562591Y-89972196D01*
X153670000Y-89079605D01*
X152777409Y-89972196D01*
X152862467Y-90227539D01*
X152906880Y-90243758D01*
X152879697Y-90254990D01*
X152486371Y-90647630D01*
X152400051Y-90855512D01*
X152315010Y-90649697D01*
X151922370Y-90256371D01*
X151895182Y-90245081D01*
X151937533Y-90227539D01*
X152022591Y-89972196D01*
X151130000Y-89079605D01*
X150237409Y-89972196D01*
X150322467Y-90227539D01*
X150366880Y-90243758D01*
X150339697Y-90254990D01*
X149946371Y-90647630D01*
X149935081Y-90674818D01*
X149917539Y-90632467D01*
X149662196Y-90547409D01*
X148769605Y-91440000D01*
X148410395Y-91440000D01*
X147517804Y-90547409D01*
X147262461Y-90632467D01*
X147246242Y-90676880D01*
X147235010Y-90649697D01*
X146842370Y-90256371D01*
X146815182Y-90245081D01*
X146857533Y-90227539D01*
X146942591Y-89972196D01*
X147697409Y-89972196D01*
X147763300Y-90170000D01*
X147697409Y-90367804D01*
X148590000Y-91260395D01*
X149482591Y-90367804D01*
X149416700Y-90170000D01*
X149482591Y-89972196D01*
X148590000Y-89079605D01*
X147697409Y-89972196D01*
X146942591Y-89972196D01*
X146050000Y-89079605D01*
X145157409Y-89972196D01*
X145242467Y-90227539D01*
X145286880Y-90243758D01*
X145259697Y-90254990D01*
X144866371Y-90647630D01*
X144780051Y-90855512D01*
X144695010Y-90649697D01*
X144302370Y-90256371D01*
X144275182Y-90245081D01*
X144317533Y-90227539D01*
X144402591Y-89972196D01*
X143510000Y-89079605D01*
X142617409Y-89972196D01*
X142702467Y-90227539D01*
X142746880Y-90243758D01*
X142719697Y-90254990D01*
X142326371Y-90647630D01*
X142240051Y-90855512D01*
X142155010Y-90649697D01*
X141762370Y-90256371D01*
X141735182Y-90245081D01*
X141777533Y-90227539D01*
X141862591Y-89972196D01*
X140970000Y-89079605D01*
X140077409Y-89972196D01*
X140162467Y-90227539D01*
X140206880Y-90243758D01*
X140179697Y-90254990D01*
X139786371Y-90647630D01*
X139700051Y-90855512D01*
X139615010Y-90649697D01*
X139222370Y-90256371D01*
X139195182Y-90245081D01*
X139237533Y-90227539D01*
X139322591Y-89972196D01*
X138430000Y-89079605D01*
X137537409Y-89972196D01*
X137622467Y-90227539D01*
X137666880Y-90243758D01*
X137639697Y-90254990D01*
X137296952Y-90597137D01*
X137296952Y-90551000D01*
X137261530Y-90362747D01*
X137150272Y-90189847D01*
X136980512Y-90073855D01*
X136779000Y-90033048D01*
X136762320Y-90033048D01*
X136782591Y-89972196D01*
X135890000Y-89079605D01*
X134997409Y-89972196D01*
X135017680Y-90033048D01*
X135001000Y-90033048D01*
X134812747Y-90068470D01*
X134639847Y-90179728D01*
X134523855Y-90349488D01*
X134483048Y-90551000D01*
X130057952Y-90551000D01*
X130057952Y-89281000D01*
X130022530Y-89092747D01*
X129911272Y-88919847D01*
X129852886Y-88879953D01*
X129888090Y-88879984D01*
X130415736Y-88661965D01*
X134354484Y-88661965D01*
X134380277Y-89267700D01*
X134562461Y-89707533D01*
X134817804Y-89792591D01*
X135710395Y-88900000D01*
X136069605Y-88900000D01*
X136962196Y-89792591D01*
X137160000Y-89726700D01*
X137357804Y-89792591D01*
X138250395Y-88900000D01*
X138609605Y-88900000D01*
X139502196Y-89792591D01*
X139700000Y-89726700D01*
X139897804Y-89792591D01*
X140790395Y-88900000D01*
X141149605Y-88900000D01*
X142042196Y-89792591D01*
X142240000Y-89726700D01*
X142437804Y-89792591D01*
X143330395Y-88900000D01*
X143689605Y-88900000D01*
X144582196Y-89792591D01*
X144780000Y-89726700D01*
X144977804Y-89792591D01*
X145870395Y-88900000D01*
X146229605Y-88900000D01*
X147122196Y-89792591D01*
X147320000Y-89726700D01*
X147517804Y-89792591D01*
X148410395Y-88900000D01*
X148769605Y-88900000D01*
X149662196Y-89792591D01*
X149860000Y-89726700D01*
X150057804Y-89792591D01*
X150950395Y-88900000D01*
X151309605Y-88900000D01*
X152202196Y-89792591D01*
X152400000Y-89726700D01*
X152597804Y-89792591D01*
X153490395Y-88900000D01*
X153849605Y-88900000D01*
X154742196Y-89792591D01*
X154997539Y-89707533D01*
X155205516Y-89138035D01*
X155179723Y-88532300D01*
X154997539Y-88092467D01*
X154742196Y-88007409D01*
X153849605Y-88900000D01*
X153490395Y-88900000D01*
X152597804Y-88007409D01*
X152400000Y-88073300D01*
X152202196Y-88007409D01*
X151309605Y-88900000D01*
X150950395Y-88900000D01*
X150057804Y-88007409D01*
X149860000Y-88073300D01*
X149662196Y-88007409D01*
X148769605Y-88900000D01*
X148410395Y-88900000D01*
X147517804Y-88007409D01*
X147320000Y-88073300D01*
X147122196Y-88007409D01*
X146229605Y-88900000D01*
X145870395Y-88900000D01*
X144977804Y-88007409D01*
X144780000Y-88073300D01*
X144582196Y-88007409D01*
X143689605Y-88900000D01*
X143330395Y-88900000D01*
X142437804Y-88007409D01*
X142240000Y-88073300D01*
X142042196Y-88007409D01*
X141149605Y-88900000D01*
X140790395Y-88900000D01*
X139897804Y-88007409D01*
X139700000Y-88073300D01*
X139502196Y-88007409D01*
X138609605Y-88900000D01*
X138250395Y-88900000D01*
X137357804Y-88007409D01*
X137160000Y-88073300D01*
X136962196Y-88007409D01*
X136069605Y-88900000D01*
X135710395Y-88900000D01*
X134817804Y-88007409D01*
X134562461Y-88092467D01*
X134354484Y-88661965D01*
X130415736Y-88661965D01*
X130534345Y-88612957D01*
X131029220Y-88118946D01*
X131150112Y-87827804D01*
X134997409Y-87827804D01*
X135890000Y-88720395D01*
X136782591Y-87827804D01*
X137537409Y-87827804D01*
X138430000Y-88720395D01*
X139322591Y-87827804D01*
X140077409Y-87827804D01*
X140970000Y-88720395D01*
X141862591Y-87827804D01*
X142617409Y-87827804D01*
X143510000Y-88720395D01*
X144402591Y-87827804D01*
X145157409Y-87827804D01*
X146050000Y-88720395D01*
X146942591Y-87827804D01*
X147697409Y-87827804D01*
X148590000Y-88720395D01*
X149482591Y-87827804D01*
X150237409Y-87827804D01*
X151130000Y-88720395D01*
X152022591Y-87827804D01*
X152777409Y-87827804D01*
X153670000Y-88720395D01*
X154562591Y-87827804D01*
X154477533Y-87572461D01*
X153908035Y-87364484D01*
X153302300Y-87390277D01*
X152862467Y-87572461D01*
X152777409Y-87827804D01*
X152022591Y-87827804D01*
X151937533Y-87572461D01*
X151368035Y-87364484D01*
X150762300Y-87390277D01*
X150322467Y-87572461D01*
X150237409Y-87827804D01*
X149482591Y-87827804D01*
X149397533Y-87572461D01*
X148828035Y-87364484D01*
X148222300Y-87390277D01*
X147782467Y-87572461D01*
X147697409Y-87827804D01*
X146942591Y-87827804D01*
X146857533Y-87572461D01*
X146288035Y-87364484D01*
X145682300Y-87390277D01*
X145242467Y-87572461D01*
X145157409Y-87827804D01*
X144402591Y-87827804D01*
X144317533Y-87572461D01*
X143748035Y-87364484D01*
X143142300Y-87390277D01*
X142702467Y-87572461D01*
X142617409Y-87827804D01*
X141862591Y-87827804D01*
X141777533Y-87572461D01*
X141208035Y-87364484D01*
X140602300Y-87390277D01*
X140162467Y-87572461D01*
X140077409Y-87827804D01*
X139322591Y-87827804D01*
X139237533Y-87572461D01*
X138668035Y-87364484D01*
X138062300Y-87390277D01*
X137622467Y-87572461D01*
X137537409Y-87827804D01*
X136782591Y-87827804D01*
X136697533Y-87572461D01*
X136128035Y-87364484D01*
X135522300Y-87390277D01*
X135082467Y-87572461D01*
X134997409Y-87827804D01*
X131150112Y-87827804D01*
X131297374Y-87473158D01*
X131297984Y-86773910D01*
X131030957Y-86127655D01*
X130536946Y-85632780D01*
X129891158Y-85364626D01*
X129191910Y-85364016D01*
X128545655Y-85631043D01*
X128050780Y-86125054D01*
X127782626Y-86770842D01*
X127782016Y-87470090D01*
X128049043Y-88116345D01*
X128543054Y-88611220D01*
X128908697Y-88763048D01*
X127558000Y-88763048D01*
X127558000Y-84378000D01*
X162002000Y-84378000D01*
X162002000Y-88763048D01*
X162002000Y-88763048D01*
G37*
X162002000Y-88763048D02*
X160651097Y-88763048D01*
X161014345Y-88612957D01*
X161509220Y-88118946D01*
X161777374Y-87473158D01*
X161777984Y-86773910D01*
X161510957Y-86127655D01*
X161016946Y-85632780D01*
X160371158Y-85364626D01*
X159671910Y-85364016D01*
X159025655Y-85631043D01*
X158530780Y-86125054D01*
X158262626Y-86770842D01*
X158262016Y-87470090D01*
X158529043Y-88116345D01*
X159023054Y-88611220D01*
X159668842Y-88879374D01*
X159705968Y-88879406D01*
X159658847Y-88909728D01*
X159542855Y-89079488D01*
X159502048Y-89281000D01*
X159502048Y-91059000D01*
X159537470Y-91247253D01*
X159648728Y-91420153D01*
X159675927Y-91438737D01*
X159658847Y-91449728D01*
X159542855Y-91619488D01*
X159502048Y-91821000D01*
X159502048Y-93599000D01*
X159537470Y-93787253D01*
X159599431Y-93883543D01*
X159481673Y-94001301D01*
X159385000Y-94234690D01*
X159385000Y-94837250D01*
X159543750Y-94996000D01*
X160782000Y-94996000D01*
X160782000Y-94976000D01*
X161290000Y-94976000D01*
X161290000Y-94996000D01*
X161310000Y-94996000D01*
X161310000Y-95504000D01*
X161290000Y-95504000D01*
X161290000Y-95524000D01*
X160782000Y-95524000D01*
X160782000Y-95504000D01*
X159543750Y-95504000D01*
X159385000Y-95662750D01*
X159385000Y-96265310D01*
X159481673Y-96498699D01*
X159599524Y-96616550D01*
X159542855Y-96699488D01*
X159502048Y-96901000D01*
X159502048Y-98679000D01*
X159537470Y-98867253D01*
X159648728Y-99040153D01*
X159675927Y-99058737D01*
X159658847Y-99069728D01*
X159542855Y-99239488D01*
X159502048Y-99441000D01*
X159502048Y-101219000D01*
X159537470Y-101407253D01*
X159648728Y-101580153D01*
X159675927Y-101598737D01*
X159658847Y-101609728D01*
X159542855Y-101779488D01*
X159502048Y-101981000D01*
X159502048Y-103759000D01*
X159537470Y-103947253D01*
X159648728Y-104120153D01*
X159675927Y-104138737D01*
X159658847Y-104149728D01*
X159542855Y-104319488D01*
X159502048Y-104521000D01*
X159502048Y-106299000D01*
X159537470Y-106487253D01*
X159599431Y-106583543D01*
X159481673Y-106701301D01*
X159385000Y-106934690D01*
X159385000Y-107537250D01*
X159543750Y-107696000D01*
X160782000Y-107696000D01*
X160782000Y-107676000D01*
X161290000Y-107676000D01*
X161290000Y-107696000D01*
X161310000Y-107696000D01*
X161310000Y-108204000D01*
X161290000Y-108204000D01*
X161290000Y-109315250D01*
X161448750Y-109474000D01*
X162002000Y-109474000D01*
X162002000Y-113742000D01*
X127558000Y-113742000D01*
X127558000Y-109474000D01*
X128111250Y-109474000D01*
X128270000Y-109315250D01*
X128270000Y-108204000D01*
X128778000Y-108204000D01*
X128778000Y-109315250D01*
X128936750Y-109474000D01*
X129666309Y-109474000D01*
X129899698Y-109377327D01*
X130078327Y-109198699D01*
X130175000Y-108965310D01*
X130175000Y-108362750D01*
X130016250Y-108204000D01*
X128778000Y-108204000D01*
X128270000Y-108204000D01*
X128250000Y-108204000D01*
X128250000Y-107696000D01*
X128270000Y-107696000D01*
X128270000Y-107676000D01*
X128778000Y-107676000D01*
X128778000Y-107696000D01*
X130016250Y-107696000D01*
X130175000Y-107537250D01*
X130175000Y-106934690D01*
X130078327Y-106701301D01*
X129960476Y-106583450D01*
X130017145Y-106500512D01*
X130057952Y-106299000D01*
X130057952Y-104521000D01*
X130022530Y-104332747D01*
X129911272Y-104159847D01*
X129884073Y-104141263D01*
X129901153Y-104130272D01*
X130017145Y-103960512D01*
X130057952Y-103759000D01*
X130057952Y-101981000D01*
X130022530Y-101792747D01*
X129911272Y-101619847D01*
X129884073Y-101601263D01*
X129901153Y-101590272D01*
X130017145Y-101420512D01*
X130057952Y-101219000D01*
X130057952Y-99441000D01*
X130022530Y-99252747D01*
X129911272Y-99079847D01*
X129884073Y-99061263D01*
X129901153Y-99050272D01*
X130017145Y-98880512D01*
X130057952Y-98679000D01*
X130057952Y-96901000D01*
X130022530Y-96712747D01*
X129960569Y-96616457D01*
X130078327Y-96498699D01*
X130175000Y-96265310D01*
X130175000Y-95662750D01*
X130016250Y-95504000D01*
X128778000Y-95504000D01*
X128778000Y-95524000D01*
X128270000Y-95524000D01*
X128270000Y-95504000D01*
X128250000Y-95504000D01*
X128250000Y-95476359D01*
X133476802Y-95476359D01*
X133650446Y-95896612D01*
X133971697Y-96218423D01*
X134279339Y-96346167D01*
X137414012Y-99480841D01*
X137414012Y-103642720D01*
X137374006Y-103702593D01*
X137287000Y-104140000D01*
X137374006Y-104577407D01*
X137414000Y-104637262D01*
X137414000Y-109219113D01*
X137413824Y-109421208D01*
X137568175Y-109794766D01*
X137853731Y-110080821D01*
X138227018Y-110235824D01*
X138631208Y-110236176D01*
X139004766Y-110081825D01*
X139290821Y-109796269D01*
X139445824Y-109422982D01*
X139446176Y-109018792D01*
X139446000Y-109018366D01*
X139446000Y-104637268D01*
X139486006Y-104577395D01*
X139573012Y-104139988D01*
X139486006Y-103702581D01*
X139446012Y-103642726D01*
X139446012Y-101750750D01*
X142240000Y-101750750D01*
X142240000Y-102981310D01*
X142336673Y-103214699D01*
X142515302Y-103393327D01*
X142748691Y-103490000D01*
X143224250Y-103490000D01*
X143383000Y-103331250D01*
X143383000Y-101592000D01*
X143637000Y-101592000D01*
X143637000Y-103331250D01*
X143795750Y-103490000D01*
X144271309Y-103490000D01*
X144504698Y-103393327D01*
X144683327Y-103214699D01*
X144780000Y-102981310D01*
X144780000Y-101750750D01*
X144621250Y-101592000D01*
X143637000Y-101592000D01*
X143383000Y-101592000D01*
X142398750Y-101592000D01*
X142240000Y-101750750D01*
X139446012Y-101750750D01*
X139446012Y-99060887D01*
X139446188Y-98858792D01*
X139291837Y-98485234D01*
X139006281Y-98199179D01*
X139005855Y-98199002D01*
X135715814Y-94908962D01*
X135589554Y-94603388D01*
X135268303Y-94281577D01*
X134848354Y-94107199D01*
X134393641Y-94106802D01*
X133973388Y-94280446D01*
X133651577Y-94601697D01*
X133477199Y-95021646D01*
X133476802Y-95476359D01*
X128250000Y-95476359D01*
X128250000Y-94996000D01*
X128270000Y-94996000D01*
X128270000Y-94976000D01*
X128778000Y-94976000D01*
X128778000Y-94996000D01*
X130016250Y-94996000D01*
X130175000Y-94837250D01*
X130175000Y-94234690D01*
X130078327Y-94001301D01*
X129960476Y-93883450D01*
X130017145Y-93800512D01*
X130057952Y-93599000D01*
X130057952Y-91821000D01*
X130022530Y-91632747D01*
X129911272Y-91459847D01*
X129884073Y-91441263D01*
X129901153Y-91430272D01*
X130017145Y-91260512D01*
X130057952Y-91059000D01*
X130057952Y-90551000D01*
X134483048Y-90551000D01*
X134483048Y-92329000D01*
X134518470Y-92517253D01*
X134629728Y-92690153D01*
X134799488Y-92806145D01*
X135001000Y-92846952D01*
X136398926Y-92846952D01*
X140081000Y-96529026D01*
X140081000Y-97282000D01*
X140129336Y-97525004D01*
X140266987Y-97731013D01*
X142044987Y-99509013D01*
X142250996Y-99646664D01*
X142379708Y-99672266D01*
X142336673Y-99715301D01*
X142240000Y-99948690D01*
X142240000Y-101179250D01*
X142398750Y-101338000D01*
X143383000Y-101338000D01*
X143383000Y-101318000D01*
X143637000Y-101318000D01*
X143637000Y-101338000D01*
X144621250Y-101338000D01*
X144780000Y-101179250D01*
X144780000Y-99948690D01*
X144683327Y-99715301D01*
X144663026Y-99695000D01*
X145067411Y-99695000D01*
X145053847Y-99703728D01*
X144937855Y-99873488D01*
X144897048Y-100075000D01*
X144897048Y-102855000D01*
X144932470Y-103043253D01*
X145043728Y-103216153D01*
X145213488Y-103332145D01*
X145415000Y-103372952D01*
X146685000Y-103372952D01*
X146873253Y-103337530D01*
X147046153Y-103226272D01*
X147152103Y-103071208D01*
X148843824Y-103071208D01*
X148844000Y-103071634D01*
X148844000Y-106679113D01*
X148843824Y-106881208D01*
X148844000Y-106881634D01*
X148844000Y-110489113D01*
X148843824Y-110691208D01*
X148998175Y-111064766D01*
X149283731Y-111350821D01*
X149657018Y-111505824D01*
X150061208Y-111506176D01*
X150434766Y-111351825D01*
X150720821Y-111066269D01*
X150875824Y-110692982D01*
X150876176Y-110288792D01*
X150876000Y-110288366D01*
X150876000Y-108362750D01*
X159385000Y-108362750D01*
X159385000Y-108965310D01*
X159481673Y-109198699D01*
X159660302Y-109377327D01*
X159893691Y-109474000D01*
X160623250Y-109474000D01*
X160782000Y-109315250D01*
X160782000Y-108204000D01*
X159543750Y-108204000D01*
X159385000Y-108362750D01*
X150876000Y-108362750D01*
X150876000Y-106680887D01*
X150876176Y-106478792D01*
X150876000Y-106478366D01*
X150876000Y-102870887D01*
X150876176Y-102668792D01*
X150721825Y-102295234D01*
X150436269Y-102009179D01*
X150062982Y-101854176D01*
X149658792Y-101853824D01*
X149285234Y-102008175D01*
X148999179Y-102293731D01*
X148844176Y-102667018D01*
X148843824Y-103071208D01*
X147152103Y-103071208D01*
X147162145Y-103056512D01*
X147202952Y-102855000D01*
X147202952Y-100075000D01*
X147167530Y-99886747D01*
X147056272Y-99713847D01*
X146886512Y-99597855D01*
X146685000Y-99557048D01*
X146685000Y-98562952D01*
X146873253Y-98527530D01*
X147046153Y-98416272D01*
X147162145Y-98246512D01*
X147202952Y-98045000D01*
X147202952Y-97290000D01*
X147439000Y-97290000D01*
X147682004Y-97241664D01*
X147754427Y-97193272D01*
X147785470Y-97358253D01*
X147896728Y-97531153D01*
X148066488Y-97647145D01*
X148268000Y-97687952D01*
X149768000Y-97687952D01*
X149956253Y-97652530D01*
X150129153Y-97541272D01*
X150245145Y-97371512D01*
X150285952Y-97170000D01*
X150285952Y-95870000D01*
X150250530Y-95681747D01*
X150139272Y-95508847D01*
X149969512Y-95392855D01*
X149768000Y-95352048D01*
X148268000Y-95352048D01*
X148079747Y-95387470D01*
X147906847Y-95498728D01*
X147790855Y-95668488D01*
X147750048Y-95870000D01*
X147750048Y-95885000D01*
X147574000Y-95885000D01*
X147330996Y-95933336D01*
X147202952Y-96018892D01*
X147202952Y-95265000D01*
X147167530Y-95076747D01*
X147056272Y-94903847D01*
X146886512Y-94787855D01*
X146685000Y-94747048D01*
X145415000Y-94747048D01*
X145226747Y-94782470D01*
X145053847Y-94893728D01*
X144937855Y-95063488D01*
X144897048Y-95265000D01*
X144897048Y-98045000D01*
X144932470Y-98233253D01*
X145043728Y-98406153D01*
X145071312Y-98425000D01*
X144663026Y-98425000D01*
X144683327Y-98404699D01*
X144780000Y-98171310D01*
X144780000Y-96940750D01*
X144621250Y-96782000D01*
X143637000Y-96782000D01*
X143637000Y-96802000D01*
X143383000Y-96802000D01*
X143383000Y-96782000D01*
X142398750Y-96782000D01*
X142240000Y-96940750D01*
X142240000Y-97907974D01*
X141351000Y-97018974D01*
X141351000Y-96266005D01*
X141351001Y-96266000D01*
X141302664Y-96022996D01*
X141165013Y-95816987D01*
X140486716Y-95138690D01*
X142240000Y-95138690D01*
X142240000Y-96369250D01*
X142398750Y-96528000D01*
X143383000Y-96528000D01*
X143383000Y-94788750D01*
X143637000Y-94788750D01*
X143637000Y-96528000D01*
X144621250Y-96528000D01*
X144780000Y-96369250D01*
X144780000Y-95138690D01*
X144683327Y-94905301D01*
X144504698Y-94726673D01*
X144271309Y-94630000D01*
X143795750Y-94630000D01*
X143637000Y-94788750D01*
X143383000Y-94788750D01*
X143224250Y-94630000D01*
X142748691Y-94630000D01*
X142515302Y-94726673D01*
X142336673Y-94905301D01*
X142240000Y-95138690D01*
X140486716Y-95138690D01*
X138184813Y-92836787D01*
X138706661Y-92837242D01*
X139220303Y-92625010D01*
X139613629Y-92232370D01*
X139699949Y-92024488D01*
X139784990Y-92230303D01*
X140177630Y-92623629D01*
X140690900Y-92836757D01*
X141246661Y-92837242D01*
X141760303Y-92625010D01*
X142153629Y-92232370D01*
X142239949Y-92024488D01*
X142324990Y-92230303D01*
X142717630Y-92623629D01*
X143230900Y-92836757D01*
X143786661Y-92837242D01*
X144300303Y-92625010D01*
X144693629Y-92232370D01*
X144779949Y-92024488D01*
X144864990Y-92230303D01*
X145257630Y-92623629D01*
X145770900Y-92836757D01*
X146326661Y-92837242D01*
X146840303Y-92625010D01*
X146953314Y-92512196D01*
X147697409Y-92512196D01*
X147782467Y-92767539D01*
X148351965Y-92975516D01*
X148957700Y-92949723D01*
X149397533Y-92767539D01*
X149482591Y-92512196D01*
X148590000Y-91619605D01*
X147697409Y-92512196D01*
X146953314Y-92512196D01*
X147233629Y-92232370D01*
X147244919Y-92205182D01*
X147262461Y-92247533D01*
X147517804Y-92332591D01*
X148410395Y-91440000D01*
X148769605Y-91440000D01*
X149662196Y-92332591D01*
X149917539Y-92247533D01*
X149933758Y-92203120D01*
X149944990Y-92230303D01*
X150337630Y-92623629D01*
X150495000Y-92688975D01*
X150495000Y-93218000D01*
X150543336Y-93461004D01*
X150680987Y-93667013D01*
X151083000Y-94069026D01*
X151083000Y-95352048D01*
X150968000Y-95352048D01*
X150779747Y-95387470D01*
X150606847Y-95498728D01*
X150490855Y-95668488D01*
X150450048Y-95870000D01*
X150450048Y-97170000D01*
X150485470Y-97358253D01*
X150596728Y-97531153D01*
X150766488Y-97647145D01*
X150968000Y-97687952D01*
X152468000Y-97687952D01*
X152656253Y-97652530D01*
X152829153Y-97541272D01*
X152945145Y-97371512D01*
X152985952Y-97170000D01*
X152985952Y-95870000D01*
X152950530Y-95681747D01*
X152839272Y-95508847D01*
X152669512Y-95392855D01*
X152468000Y-95352048D01*
X152353000Y-95352048D01*
X152353000Y-93806005D01*
X152353001Y-93806000D01*
X152304664Y-93562996D01*
X152167013Y-93356987D01*
X151765000Y-92954974D01*
X151765000Y-92689180D01*
X151920303Y-92625010D01*
X152313629Y-92232370D01*
X152399949Y-92024488D01*
X152484990Y-92230303D01*
X152877630Y-92623629D01*
X153390900Y-92836757D01*
X153946661Y-92837242D01*
X154460303Y-92625010D01*
X154853629Y-92232370D01*
X155066757Y-91719100D01*
X155067242Y-91163339D01*
X154855010Y-90649697D01*
X154462370Y-90256371D01*
X154435182Y-90245081D01*
X154477533Y-90227539D01*
X154562591Y-89972196D01*
X153670000Y-89079605D01*
X152777409Y-89972196D01*
X152862467Y-90227539D01*
X152906880Y-90243758D01*
X152879697Y-90254990D01*
X152486371Y-90647630D01*
X152400051Y-90855512D01*
X152315010Y-90649697D01*
X151922370Y-90256371D01*
X151895182Y-90245081D01*
X151937533Y-90227539D01*
X152022591Y-89972196D01*
X151130000Y-89079605D01*
X150237409Y-89972196D01*
X150322467Y-90227539D01*
X150366880Y-90243758D01*
X150339697Y-90254990D01*
X149946371Y-90647630D01*
X149935081Y-90674818D01*
X149917539Y-90632467D01*
X149662196Y-90547409D01*
X148769605Y-91440000D01*
X148410395Y-91440000D01*
X147517804Y-90547409D01*
X147262461Y-90632467D01*
X147246242Y-90676880D01*
X147235010Y-90649697D01*
X146842370Y-90256371D01*
X146815182Y-90245081D01*
X146857533Y-90227539D01*
X146942591Y-89972196D01*
X147697409Y-89972196D01*
X147763300Y-90170000D01*
X147697409Y-90367804D01*
X148590000Y-91260395D01*
X149482591Y-90367804D01*
X149416700Y-90170000D01*
X149482591Y-89972196D01*
X148590000Y-89079605D01*
X147697409Y-89972196D01*
X146942591Y-89972196D01*
X146050000Y-89079605D01*
X145157409Y-89972196D01*
X145242467Y-90227539D01*
X145286880Y-90243758D01*
X145259697Y-90254990D01*
X144866371Y-90647630D01*
X144780051Y-90855512D01*
X144695010Y-90649697D01*
X144302370Y-90256371D01*
X144275182Y-90245081D01*
X144317533Y-90227539D01*
X144402591Y-89972196D01*
X143510000Y-89079605D01*
X142617409Y-89972196D01*
X142702467Y-90227539D01*
X142746880Y-90243758D01*
X142719697Y-90254990D01*
X142326371Y-90647630D01*
X142240051Y-90855512D01*
X142155010Y-90649697D01*
X141762370Y-90256371D01*
X141735182Y-90245081D01*
X141777533Y-90227539D01*
X141862591Y-89972196D01*
X140970000Y-89079605D01*
X140077409Y-89972196D01*
X140162467Y-90227539D01*
X140206880Y-90243758D01*
X140179697Y-90254990D01*
X139786371Y-90647630D01*
X139700051Y-90855512D01*
X139615010Y-90649697D01*
X139222370Y-90256371D01*
X139195182Y-90245081D01*
X139237533Y-90227539D01*
X139322591Y-89972196D01*
X138430000Y-89079605D01*
X137537409Y-89972196D01*
X137622467Y-90227539D01*
X137666880Y-90243758D01*
X137639697Y-90254990D01*
X137296952Y-90597137D01*
X137296952Y-90551000D01*
X137261530Y-90362747D01*
X137150272Y-90189847D01*
X136980512Y-90073855D01*
X136779000Y-90033048D01*
X136762320Y-90033048D01*
X136782591Y-89972196D01*
X135890000Y-89079605D01*
X134997409Y-89972196D01*
X135017680Y-90033048D01*
X135001000Y-90033048D01*
X134812747Y-90068470D01*
X134639847Y-90179728D01*
X134523855Y-90349488D01*
X134483048Y-90551000D01*
X130057952Y-90551000D01*
X130057952Y-89281000D01*
X130022530Y-89092747D01*
X129911272Y-88919847D01*
X129852886Y-88879953D01*
X129888090Y-88879984D01*
X130415736Y-88661965D01*
X134354484Y-88661965D01*
X134380277Y-89267700D01*
X134562461Y-89707533D01*
X134817804Y-89792591D01*
X135710395Y-88900000D01*
X136069605Y-88900000D01*
X136962196Y-89792591D01*
X137160000Y-89726700D01*
X137357804Y-89792591D01*
X138250395Y-88900000D01*
X138609605Y-88900000D01*
X139502196Y-89792591D01*
X139700000Y-89726700D01*
X139897804Y-89792591D01*
X140790395Y-88900000D01*
X141149605Y-88900000D01*
X142042196Y-89792591D01*
X142240000Y-89726700D01*
X142437804Y-89792591D01*
X143330395Y-88900000D01*
X143689605Y-88900000D01*
X144582196Y-89792591D01*
X144780000Y-89726700D01*
X144977804Y-89792591D01*
X145870395Y-88900000D01*
X146229605Y-88900000D01*
X147122196Y-89792591D01*
X147320000Y-89726700D01*
X147517804Y-89792591D01*
X148410395Y-88900000D01*
X148769605Y-88900000D01*
X149662196Y-89792591D01*
X149860000Y-89726700D01*
X150057804Y-89792591D01*
X150950395Y-88900000D01*
X151309605Y-88900000D01*
X152202196Y-89792591D01*
X152400000Y-89726700D01*
X152597804Y-89792591D01*
X153490395Y-88900000D01*
X153849605Y-88900000D01*
X154742196Y-89792591D01*
X154997539Y-89707533D01*
X155205516Y-89138035D01*
X155179723Y-88532300D01*
X154997539Y-88092467D01*
X154742196Y-88007409D01*
X153849605Y-88900000D01*
X153490395Y-88900000D01*
X152597804Y-88007409D01*
X152400000Y-88073300D01*
X152202196Y-88007409D01*
X151309605Y-88900000D01*
X150950395Y-88900000D01*
X150057804Y-88007409D01*
X149860000Y-88073300D01*
X149662196Y-88007409D01*
X148769605Y-88900000D01*
X148410395Y-88900000D01*
X147517804Y-88007409D01*
X147320000Y-88073300D01*
X147122196Y-88007409D01*
X146229605Y-88900000D01*
X145870395Y-88900000D01*
X144977804Y-88007409D01*
X144780000Y-88073300D01*
X144582196Y-88007409D01*
X143689605Y-88900000D01*
X143330395Y-88900000D01*
X142437804Y-88007409D01*
X142240000Y-88073300D01*
X142042196Y-88007409D01*
X141149605Y-88900000D01*
X140790395Y-88900000D01*
X139897804Y-88007409D01*
X139700000Y-88073300D01*
X139502196Y-88007409D01*
X138609605Y-88900000D01*
X138250395Y-88900000D01*
X137357804Y-88007409D01*
X137160000Y-88073300D01*
X136962196Y-88007409D01*
X136069605Y-88900000D01*
X135710395Y-88900000D01*
X134817804Y-88007409D01*
X134562461Y-88092467D01*
X134354484Y-88661965D01*
X130415736Y-88661965D01*
X130534345Y-88612957D01*
X131029220Y-88118946D01*
X131150112Y-87827804D01*
X134997409Y-87827804D01*
X135890000Y-88720395D01*
X136782591Y-87827804D01*
X137537409Y-87827804D01*
X138430000Y-88720395D01*
X139322591Y-87827804D01*
X140077409Y-87827804D01*
X140970000Y-88720395D01*
X141862591Y-87827804D01*
X142617409Y-87827804D01*
X143510000Y-88720395D01*
X144402591Y-87827804D01*
X145157409Y-87827804D01*
X146050000Y-88720395D01*
X146942591Y-87827804D01*
X147697409Y-87827804D01*
X148590000Y-88720395D01*
X149482591Y-87827804D01*
X150237409Y-87827804D01*
X151130000Y-88720395D01*
X152022591Y-87827804D01*
X152777409Y-87827804D01*
X153670000Y-88720395D01*
X154562591Y-87827804D01*
X154477533Y-87572461D01*
X153908035Y-87364484D01*
X153302300Y-87390277D01*
X152862467Y-87572461D01*
X152777409Y-87827804D01*
X152022591Y-87827804D01*
X151937533Y-87572461D01*
X151368035Y-87364484D01*
X150762300Y-87390277D01*
X150322467Y-87572461D01*
X150237409Y-87827804D01*
X149482591Y-87827804D01*
X149397533Y-87572461D01*
X148828035Y-87364484D01*
X148222300Y-87390277D01*
X147782467Y-87572461D01*
X147697409Y-87827804D01*
X146942591Y-87827804D01*
X146857533Y-87572461D01*
X146288035Y-87364484D01*
X145682300Y-87390277D01*
X145242467Y-87572461D01*
X145157409Y-87827804D01*
X144402591Y-87827804D01*
X144317533Y-87572461D01*
X143748035Y-87364484D01*
X143142300Y-87390277D01*
X142702467Y-87572461D01*
X142617409Y-87827804D01*
X141862591Y-87827804D01*
X141777533Y-87572461D01*
X141208035Y-87364484D01*
X140602300Y-87390277D01*
X140162467Y-87572461D01*
X140077409Y-87827804D01*
X139322591Y-87827804D01*
X139237533Y-87572461D01*
X138668035Y-87364484D01*
X138062300Y-87390277D01*
X137622467Y-87572461D01*
X137537409Y-87827804D01*
X136782591Y-87827804D01*
X136697533Y-87572461D01*
X136128035Y-87364484D01*
X135522300Y-87390277D01*
X135082467Y-87572461D01*
X134997409Y-87827804D01*
X131150112Y-87827804D01*
X131297374Y-87473158D01*
X131297984Y-86773910D01*
X131030957Y-86127655D01*
X130536946Y-85632780D01*
X129891158Y-85364626D01*
X129191910Y-85364016D01*
X128545655Y-85631043D01*
X128050780Y-86125054D01*
X127782626Y-86770842D01*
X127782016Y-87470090D01*
X128049043Y-88116345D01*
X128543054Y-88611220D01*
X128908697Y-88763048D01*
X127558000Y-88763048D01*
X127558000Y-84378000D01*
X162002000Y-84378000D01*
X162002000Y-88763048D01*
M02*
