G04 #@! TF.FileFunction,Copper,L2,Bot,Signal*
%FSLAX46Y46*%
G04 Gerber Fmt 4.6, Leading zero omitted, Abs format (unit mm)*
G04 Created by KiCad (PCBNEW (2015-12-09 BZR 6195)-product) date Tue Nov 28 20:16:39 2017*
%MOMM*%
G01*
G04 APERTURE LIST*
%ADD10C,0.100000*%
%ADD11C,1.016000*%
%ADD12C,2.032000*%
%ADD13R,2.032000X1.778000*%
%ADD14C,2.286000*%
%ADD15R,1.270000X2.780000*%
%ADD16R,1.778000X1.778000*%
%ADD17C,1.778000*%
%ADD18R,1.000000X1.300000*%
%ADD19R,1.300000X1.000000*%
%ADD20R,1.300000X1.200000*%
%ADD21C,0.889000*%
%ADD22C,1.016000*%
%ADD23C,0.254000*%
G04 APERTURE END LIST*
D10*
D11*
X138430000Y-93980000D03*
X140970000Y-96520000D03*
X158750000Y-106680000D03*
X130810000Y-106680000D03*
D12*
X158496000Y-96266000D03*
X131064000Y-96266000D03*
D11*
X152400000Y-109220000D03*
X152400000Y-104140000D03*
X140970000Y-106680000D03*
X140970000Y-101600000D03*
X130810000Y-104140000D03*
X130810000Y-101600000D03*
X130810000Y-99060000D03*
X158750000Y-104140000D03*
X158750000Y-101600000D03*
D13*
X128524000Y-90170000D03*
X128524000Y-92710000D03*
X128524000Y-95250000D03*
X128524000Y-97790000D03*
X128524000Y-100330000D03*
X128524000Y-102870000D03*
X128524000Y-105410000D03*
X128524000Y-107950000D03*
X161036000Y-107950000D03*
X161036000Y-105410000D03*
X161036000Y-102870000D03*
X161036000Y-100330000D03*
X161036000Y-97790000D03*
X161036000Y-95250000D03*
X161036000Y-92710000D03*
X161036000Y-90170000D03*
D11*
X158750000Y-99060000D03*
D14*
X129540000Y-87122000D03*
X160020000Y-87122000D03*
D15*
X143510000Y-101465000D03*
X146050000Y-101465000D03*
X143510000Y-96655000D03*
X146050000Y-96655000D03*
D16*
X135890000Y-91440000D03*
D17*
X135890000Y-88900000D03*
X138430000Y-91440000D03*
X138430000Y-88900000D03*
X140970000Y-91440000D03*
X140970000Y-88900000D03*
X143510000Y-91440000D03*
X143510000Y-88900000D03*
X146050000Y-91440000D03*
X146050000Y-88900000D03*
X148590000Y-91440000D03*
X148590000Y-88900000D03*
X151130000Y-91440000D03*
X151130000Y-88900000D03*
X153670000Y-91440000D03*
X153670000Y-88900000D03*
D18*
X135339000Y-104140000D03*
X133139000Y-104140000D03*
X133139000Y-101600000D03*
X135339000Y-101600000D03*
X135339000Y-96520000D03*
X133139000Y-96520000D03*
X133139000Y-99060000D03*
X135339000Y-99060000D03*
X147490000Y-93980000D03*
X149690000Y-93980000D03*
D19*
X156337000Y-100414000D03*
X156337000Y-98214000D03*
D18*
X150960000Y-96012000D03*
X148760000Y-96012000D03*
D20*
X148971000Y-100260000D03*
X148971000Y-97860000D03*
D11*
X137668000Y-99060000D03*
X137668000Y-104140000D03*
D21*
X148336000Y-102108000D03*
X149225000Y-102997000D03*
D22*
X135339000Y-99060000D02*
X137668000Y-99060000D01*
X135339000Y-101600000D02*
X137668000Y-101600000D01*
X137668000Y-99060000D02*
X137668000Y-101600000D01*
X137668000Y-104140000D02*
X137668000Y-101600000D01*
D23*
X156337000Y-98214000D02*
X157310000Y-98214000D01*
X157734000Y-97790000D02*
X161036000Y-97790000D01*
X157310000Y-98214000D02*
X157734000Y-97790000D01*
X133139000Y-96520000D02*
X133139000Y-97493000D01*
X133139000Y-97493000D02*
X132842000Y-97790000D01*
X128524000Y-97790000D02*
X132842000Y-97790000D01*
X133139000Y-99060000D02*
X133139000Y-98087000D01*
X133139000Y-98087000D02*
X132842000Y-97790000D01*
X135890000Y-91440000D02*
X135890000Y-92964000D01*
X135890000Y-92964000D02*
X141986000Y-99060000D01*
X141986000Y-99060000D02*
X143510000Y-99060000D01*
X143510000Y-99060000D02*
X146050000Y-99060000D01*
X146558000Y-93980000D02*
X146050000Y-94488000D01*
X146050000Y-94488000D02*
X146050000Y-96655000D01*
X147490000Y-93980000D02*
X146558000Y-93980000D01*
X146050000Y-101465000D02*
X146050000Y-99060000D01*
X146050000Y-99060000D02*
X146050000Y-96655000D01*
X148336000Y-102108000D02*
X149098000Y-102108000D01*
X149098000Y-102108000D02*
X150241000Y-100965000D01*
X150241000Y-100965000D02*
X150241000Y-98933000D01*
X150241000Y-98933000D02*
X151892000Y-97282000D01*
X151892000Y-97282000D02*
X151892000Y-94742000D01*
X151892000Y-94742000D02*
X151130000Y-93980000D01*
X151130000Y-93980000D02*
X151130000Y-93218000D01*
X149690000Y-93980000D02*
X151130000Y-93980000D01*
X151130000Y-93218000D02*
X151130000Y-91440000D01*
X149225000Y-102997000D02*
X150876000Y-101346000D01*
X150876000Y-101346000D02*
X150876000Y-99187000D01*
X150876000Y-99187000D02*
X152527000Y-97536000D01*
X152527000Y-97536000D02*
X152527000Y-94742000D01*
X152527000Y-94742000D02*
X153670000Y-93599000D01*
X153670000Y-93599000D02*
X153670000Y-91440000D01*
X150960000Y-96012000D02*
X150960000Y-97198000D01*
X150960000Y-97198000D02*
X150298000Y-97860000D01*
X150298000Y-97860000D02*
X148971000Y-97860000D01*
X148760000Y-96012000D02*
X148760000Y-95166000D01*
X148760000Y-95166000D02*
X148590000Y-94996000D01*
X148590000Y-94996000D02*
X148590000Y-91440000D01*
X128524000Y-102870000D02*
X132842000Y-102870000D01*
X132842000Y-102870000D02*
X133139000Y-102573000D01*
X133139000Y-102573000D02*
X133139000Y-101600000D01*
X133139000Y-104140000D02*
X133139000Y-103167000D01*
X133139000Y-103167000D02*
X132842000Y-102870000D01*
G36*
X162002000Y-88763048D02*
X160371741Y-88763048D01*
X160953995Y-88522466D01*
X161418834Y-88058437D01*
X161670713Y-87451845D01*
X161671286Y-86795037D01*
X161420466Y-86188005D01*
X160956437Y-85723166D01*
X160349845Y-85471287D01*
X159693037Y-85470714D01*
X159086005Y-85721534D01*
X158621166Y-86185563D01*
X158369287Y-86792155D01*
X158368714Y-87448963D01*
X158619534Y-88055995D01*
X159083563Y-88520834D01*
X159690155Y-88772713D01*
X159967349Y-88772955D01*
X159831747Y-88798470D01*
X159658847Y-88909728D01*
X159542855Y-89079488D01*
X159502048Y-89281000D01*
X159502048Y-91059000D01*
X159537470Y-91247253D01*
X159648728Y-91420153D01*
X159675927Y-91438737D01*
X159658847Y-91449728D01*
X159542855Y-91619488D01*
X159502048Y-91821000D01*
X159502048Y-93599000D01*
X159537470Y-93787253D01*
X159648728Y-93960153D01*
X159680630Y-93981950D01*
X159589339Y-94073241D01*
X159512000Y-94259952D01*
X159512000Y-94742000D01*
X159639000Y-94869000D01*
X160655000Y-94869000D01*
X160655000Y-94849000D01*
X161417000Y-94849000D01*
X161417000Y-94869000D01*
X161437000Y-94869000D01*
X161437000Y-95631000D01*
X161417000Y-95631000D01*
X161417000Y-95651000D01*
X160655000Y-95651000D01*
X160655000Y-95631000D01*
X159639000Y-95631000D01*
X159512000Y-95758000D01*
X159512000Y-96240048D01*
X159589339Y-96426759D01*
X159679207Y-96516627D01*
X159658847Y-96529728D01*
X159542855Y-96699488D01*
X159502048Y-96901000D01*
X159502048Y-97155000D01*
X157734005Y-97155000D01*
X157734000Y-97154999D01*
X157517822Y-97198000D01*
X157490996Y-97203336D01*
X157313263Y-97322094D01*
X157188512Y-97236855D01*
X156987000Y-97196048D01*
X155687000Y-97196048D01*
X155498747Y-97231470D01*
X155325847Y-97342728D01*
X155209855Y-97512488D01*
X155169048Y-97714000D01*
X155169048Y-98714000D01*
X155204470Y-98902253D01*
X155315728Y-99075153D01*
X155485488Y-99191145D01*
X155687000Y-99231952D01*
X156987000Y-99231952D01*
X157175253Y-99196530D01*
X157348153Y-99085272D01*
X157464145Y-98915512D01*
X157484649Y-98814261D01*
X157553004Y-98800664D01*
X157759013Y-98663013D01*
X157997025Y-98425000D01*
X159502048Y-98425000D01*
X159502048Y-98679000D01*
X159537470Y-98867253D01*
X159648728Y-99040153D01*
X159675927Y-99058737D01*
X159658847Y-99069728D01*
X159542855Y-99239488D01*
X159502048Y-99441000D01*
X159502048Y-101219000D01*
X159537470Y-101407253D01*
X159648728Y-101580153D01*
X159675927Y-101598737D01*
X159658847Y-101609728D01*
X159542855Y-101779488D01*
X159502048Y-101981000D01*
X159502048Y-103759000D01*
X159537470Y-103947253D01*
X159648728Y-104120153D01*
X159675927Y-104138737D01*
X159658847Y-104149728D01*
X159542855Y-104319488D01*
X159502048Y-104521000D01*
X159502048Y-106299000D01*
X159537470Y-106487253D01*
X159648728Y-106660153D01*
X159680630Y-106681950D01*
X159589339Y-106773241D01*
X159512000Y-106959952D01*
X159512000Y-107442000D01*
X159639000Y-107569000D01*
X160655000Y-107569000D01*
X160655000Y-107549000D01*
X161417000Y-107549000D01*
X161417000Y-107569000D01*
X161437000Y-107569000D01*
X161437000Y-108331000D01*
X161417000Y-108331000D01*
X161417000Y-109220000D01*
X161544000Y-109347000D01*
X162002000Y-109347000D01*
X162002000Y-113742000D01*
X127558000Y-113742000D01*
X127558000Y-109347000D01*
X128016000Y-109347000D01*
X128143000Y-109220000D01*
X128143000Y-108331000D01*
X128905000Y-108331000D01*
X128905000Y-109220000D01*
X129032000Y-109347000D01*
X129641047Y-109347000D01*
X129827758Y-109269662D01*
X129970661Y-109126759D01*
X130048000Y-108940048D01*
X130048000Y-108458000D01*
X159512000Y-108458000D01*
X159512000Y-108940048D01*
X159589339Y-109126759D01*
X159732242Y-109269662D01*
X159918953Y-109347000D01*
X160528000Y-109347000D01*
X160655000Y-109220000D01*
X160655000Y-108331000D01*
X159639000Y-108331000D01*
X159512000Y-108458000D01*
X130048000Y-108458000D01*
X129921000Y-108331000D01*
X128905000Y-108331000D01*
X128143000Y-108331000D01*
X128123000Y-108331000D01*
X128123000Y-107569000D01*
X128143000Y-107569000D01*
X128143000Y-107549000D01*
X128905000Y-107549000D01*
X128905000Y-107569000D01*
X129921000Y-107569000D01*
X130048000Y-107442000D01*
X130048000Y-106959952D01*
X129970661Y-106773241D01*
X129880793Y-106683373D01*
X129901153Y-106670272D01*
X130017145Y-106500512D01*
X130057952Y-106299000D01*
X130057952Y-104521000D01*
X130022530Y-104332747D01*
X129911272Y-104159847D01*
X129884073Y-104141263D01*
X129901153Y-104130272D01*
X130017145Y-103960512D01*
X130057952Y-103759000D01*
X130057952Y-103505000D01*
X132121048Y-103505000D01*
X132121048Y-104790000D01*
X132156470Y-104978253D01*
X132267728Y-105151153D01*
X132437488Y-105267145D01*
X132639000Y-105307952D01*
X133639000Y-105307952D01*
X133827253Y-105272530D01*
X134000153Y-105161272D01*
X134116145Y-104991512D01*
X134156952Y-104790000D01*
X134156952Y-104394000D01*
X134331000Y-104394000D01*
X134331000Y-104891048D01*
X134408339Y-105077759D01*
X134551242Y-105220662D01*
X134737953Y-105298000D01*
X135085000Y-105298000D01*
X135212000Y-105171000D01*
X135212000Y-104267000D01*
X135466000Y-104267000D01*
X135466000Y-105171000D01*
X135593000Y-105298000D01*
X135940047Y-105298000D01*
X136126758Y-105220662D01*
X136269661Y-105077759D01*
X136347000Y-104891048D01*
X136347000Y-104394000D01*
X136220000Y-104267000D01*
X135466000Y-104267000D01*
X135212000Y-104267000D01*
X134458000Y-104267000D01*
X134331000Y-104394000D01*
X134156952Y-104394000D01*
X134156952Y-103490000D01*
X134137939Y-103388952D01*
X134331000Y-103388952D01*
X134331000Y-103886000D01*
X134458000Y-104013000D01*
X135212000Y-104013000D01*
X135212000Y-103109000D01*
X135466000Y-103109000D01*
X135466000Y-104013000D01*
X136220000Y-104013000D01*
X136347000Y-103886000D01*
X136347000Y-103388952D01*
X136269661Y-103202241D01*
X136126758Y-103059338D01*
X135940047Y-102982000D01*
X135593000Y-102982000D01*
X135466000Y-103109000D01*
X135212000Y-103109000D01*
X135085000Y-102982000D01*
X134737953Y-102982000D01*
X134551242Y-103059338D01*
X134408339Y-103202241D01*
X134331000Y-103388952D01*
X134137939Y-103388952D01*
X134121530Y-103301747D01*
X134010272Y-103128847D01*
X133840512Y-103012855D01*
X133739261Y-102992351D01*
X133725664Y-102923995D01*
X133689585Y-102870000D01*
X133725664Y-102816005D01*
X133738964Y-102749143D01*
X133827253Y-102732530D01*
X134000153Y-102621272D01*
X134116145Y-102451512D01*
X134156952Y-102250000D01*
X134156952Y-100950000D01*
X134121530Y-100761747D01*
X134010272Y-100588847D01*
X133840512Y-100472855D01*
X133639000Y-100432048D01*
X132639000Y-100432048D01*
X132450747Y-100467470D01*
X132277847Y-100578728D01*
X132161855Y-100748488D01*
X132121048Y-100950000D01*
X132121048Y-102235000D01*
X130057952Y-102235000D01*
X130057952Y-101981000D01*
X130022530Y-101792747D01*
X129911272Y-101619847D01*
X129884073Y-101601263D01*
X129901153Y-101590272D01*
X130017145Y-101420512D01*
X130057952Y-101219000D01*
X130057952Y-99441000D01*
X130022530Y-99252747D01*
X129911272Y-99079847D01*
X129884073Y-99061263D01*
X129901153Y-99050272D01*
X130017145Y-98880512D01*
X130057952Y-98679000D01*
X130057952Y-98425000D01*
X132121048Y-98425000D01*
X132121048Y-99710000D01*
X132156470Y-99898253D01*
X132267728Y-100071153D01*
X132437488Y-100187145D01*
X132639000Y-100227952D01*
X133639000Y-100227952D01*
X133827253Y-100192530D01*
X134000153Y-100081272D01*
X134116145Y-99911512D01*
X134156952Y-99710000D01*
X134156952Y-98410000D01*
X134321048Y-98410000D01*
X134321048Y-99710000D01*
X134356470Y-99898253D01*
X134467728Y-100071153D01*
X134637488Y-100187145D01*
X134839000Y-100227952D01*
X135839000Y-100227952D01*
X136027253Y-100192530D01*
X136200153Y-100081272D01*
X136203755Y-100076000D01*
X136652000Y-100076000D01*
X136652000Y-100584000D01*
X136203178Y-100584000D01*
X136040512Y-100472855D01*
X135839000Y-100432048D01*
X134839000Y-100432048D01*
X134650747Y-100467470D01*
X134477847Y-100578728D01*
X134361855Y-100748488D01*
X134321048Y-100950000D01*
X134321048Y-102250000D01*
X134356470Y-102438253D01*
X134467728Y-102611153D01*
X134637488Y-102727145D01*
X134839000Y-102767952D01*
X135839000Y-102767952D01*
X136027253Y-102732530D01*
X136200153Y-102621272D01*
X136203755Y-102616000D01*
X136652000Y-102616000D01*
X136652000Y-104139113D01*
X136651824Y-104341208D01*
X136806175Y-104714766D01*
X137091731Y-105000821D01*
X137465018Y-105155824D01*
X137869208Y-105156176D01*
X138242766Y-105001825D01*
X138528821Y-104716269D01*
X138683824Y-104342982D01*
X138684176Y-103938792D01*
X138684000Y-103938366D01*
X138684000Y-101719000D01*
X142367000Y-101719000D01*
X142367000Y-102956048D01*
X142444339Y-103142759D01*
X142587242Y-103285662D01*
X142773953Y-103363000D01*
X143256000Y-103363000D01*
X143383000Y-103236000D01*
X143383000Y-101592000D01*
X143637000Y-101592000D01*
X143637000Y-103236000D01*
X143764000Y-103363000D01*
X144246047Y-103363000D01*
X144432758Y-103285662D01*
X144575661Y-103142759D01*
X144653000Y-102956048D01*
X144653000Y-101719000D01*
X144526000Y-101592000D01*
X143637000Y-101592000D01*
X143383000Y-101592000D01*
X142494000Y-101592000D01*
X142367000Y-101719000D01*
X138684000Y-101719000D01*
X138684000Y-99060887D01*
X138684176Y-98858792D01*
X138529825Y-98485234D01*
X138244269Y-98199179D01*
X137870982Y-98044176D01*
X137466792Y-98043824D01*
X137466366Y-98044000D01*
X136203178Y-98044000D01*
X136040512Y-97932855D01*
X135839000Y-97892048D01*
X134839000Y-97892048D01*
X134650747Y-97927470D01*
X134477847Y-98038728D01*
X134361855Y-98208488D01*
X134321048Y-98410000D01*
X134156952Y-98410000D01*
X134121530Y-98221747D01*
X134010272Y-98048847D01*
X133840512Y-97932855D01*
X133739261Y-97912351D01*
X133730571Y-97868664D01*
X133725664Y-97843995D01*
X133689585Y-97790000D01*
X133725664Y-97736005D01*
X133738964Y-97669143D01*
X133827253Y-97652530D01*
X134000153Y-97541272D01*
X134116145Y-97371512D01*
X134156952Y-97170000D01*
X134156952Y-96774000D01*
X134331000Y-96774000D01*
X134331000Y-97271048D01*
X134408339Y-97457759D01*
X134551242Y-97600662D01*
X134737953Y-97678000D01*
X135085000Y-97678000D01*
X135212000Y-97551000D01*
X135212000Y-96647000D01*
X135466000Y-96647000D01*
X135466000Y-97551000D01*
X135593000Y-97678000D01*
X135940047Y-97678000D01*
X136126758Y-97600662D01*
X136269661Y-97457759D01*
X136347000Y-97271048D01*
X136347000Y-96774000D01*
X136220000Y-96647000D01*
X135466000Y-96647000D01*
X135212000Y-96647000D01*
X134458000Y-96647000D01*
X134331000Y-96774000D01*
X134156952Y-96774000D01*
X134156952Y-95870000D01*
X134137939Y-95768952D01*
X134331000Y-95768952D01*
X134331000Y-96266000D01*
X134458000Y-96393000D01*
X135212000Y-96393000D01*
X135212000Y-95489000D01*
X135466000Y-95489000D01*
X135466000Y-96393000D01*
X136220000Y-96393000D01*
X136347000Y-96266000D01*
X136347000Y-95768952D01*
X136269661Y-95582241D01*
X136126758Y-95439338D01*
X135940047Y-95362000D01*
X135593000Y-95362000D01*
X135466000Y-95489000D01*
X135212000Y-95489000D01*
X135085000Y-95362000D01*
X134737953Y-95362000D01*
X134551242Y-95439338D01*
X134408339Y-95582241D01*
X134331000Y-95768952D01*
X134137939Y-95768952D01*
X134121530Y-95681747D01*
X134010272Y-95508847D01*
X133840512Y-95392855D01*
X133639000Y-95352048D01*
X132639000Y-95352048D01*
X132450747Y-95387470D01*
X132277847Y-95498728D01*
X132161855Y-95668488D01*
X132121048Y-95870000D01*
X132121048Y-97155000D01*
X130057952Y-97155000D01*
X130057952Y-96901000D01*
X130022530Y-96712747D01*
X129911272Y-96539847D01*
X129879370Y-96518050D01*
X129970661Y-96426759D01*
X130048000Y-96240048D01*
X130048000Y-95758000D01*
X129921000Y-95631000D01*
X128905000Y-95631000D01*
X128905000Y-95651000D01*
X128143000Y-95651000D01*
X128143000Y-95631000D01*
X128123000Y-95631000D01*
X128123000Y-94869000D01*
X128143000Y-94869000D01*
X128143000Y-94849000D01*
X128905000Y-94849000D01*
X128905000Y-94869000D01*
X129921000Y-94869000D01*
X130048000Y-94742000D01*
X130048000Y-94259952D01*
X129970661Y-94073241D01*
X129880793Y-93983373D01*
X129901153Y-93970272D01*
X130017145Y-93800512D01*
X130057952Y-93599000D01*
X130057952Y-91821000D01*
X130022530Y-91632747D01*
X129911272Y-91459847D01*
X129884073Y-91441263D01*
X129901153Y-91430272D01*
X130017145Y-91260512D01*
X130057952Y-91059000D01*
X130057952Y-90551000D01*
X134483048Y-90551000D01*
X134483048Y-92329000D01*
X134518470Y-92517253D01*
X134629728Y-92690153D01*
X134799488Y-92806145D01*
X135001000Y-92846952D01*
X135255000Y-92846952D01*
X135255000Y-92964000D01*
X135303336Y-93207004D01*
X135440987Y-93413013D01*
X141536987Y-99509013D01*
X141742996Y-99646664D01*
X141986000Y-99695000D01*
X142536580Y-99695000D01*
X142444339Y-99787241D01*
X142367000Y-99973952D01*
X142367000Y-101211000D01*
X142494000Y-101338000D01*
X143383000Y-101338000D01*
X143383000Y-101318000D01*
X143637000Y-101318000D01*
X143637000Y-101338000D01*
X144526000Y-101338000D01*
X144653000Y-101211000D01*
X144653000Y-99973952D01*
X144575661Y-99787241D01*
X144483420Y-99695000D01*
X145067411Y-99695000D01*
X145053847Y-99703728D01*
X144937855Y-99873488D01*
X144897048Y-100075000D01*
X144897048Y-102855000D01*
X144932470Y-103043253D01*
X145043728Y-103216153D01*
X145213488Y-103332145D01*
X145415000Y-103372952D01*
X146685000Y-103372952D01*
X146873253Y-103337530D01*
X147046153Y-103226272D01*
X147162145Y-103056512D01*
X147202952Y-102855000D01*
X147202952Y-100075000D01*
X147167530Y-99886747D01*
X147056272Y-99713847D01*
X146886512Y-99597855D01*
X146694408Y-99558953D01*
X147813000Y-99558953D01*
X147813000Y-100006000D01*
X147940000Y-100133000D01*
X148844000Y-100133000D01*
X148844000Y-99279000D01*
X148717000Y-99152000D01*
X148219952Y-99152000D01*
X148033241Y-99229339D01*
X147890338Y-99372242D01*
X147813000Y-99558953D01*
X146694408Y-99558953D01*
X146685000Y-99557048D01*
X146685000Y-98562952D01*
X146873253Y-98527530D01*
X147046153Y-98416272D01*
X147162145Y-98246512D01*
X147202952Y-98045000D01*
X147202952Y-95265000D01*
X147180928Y-95147952D01*
X147791420Y-95147952D01*
X147782855Y-95160488D01*
X147742048Y-95362000D01*
X147742048Y-96662000D01*
X147777470Y-96850253D01*
X147878674Y-97007529D01*
X147843855Y-97058488D01*
X147803048Y-97260000D01*
X147803048Y-98460000D01*
X147838470Y-98648253D01*
X147949728Y-98821153D01*
X148119488Y-98937145D01*
X148321000Y-98977952D01*
X149606000Y-98977952D01*
X149606000Y-99152000D01*
X149225000Y-99152000D01*
X149098000Y-99279000D01*
X149098000Y-100133000D01*
X149118000Y-100133000D01*
X149118000Y-100387000D01*
X149098000Y-100387000D01*
X149098000Y-100407000D01*
X148844000Y-100407000D01*
X148844000Y-100387000D01*
X147940000Y-100387000D01*
X147813000Y-100514000D01*
X147813000Y-100961047D01*
X147890338Y-101147758D01*
X147970850Y-101228270D01*
X147797157Y-101300039D01*
X147528980Y-101567747D01*
X147383665Y-101917705D01*
X147383335Y-102296633D01*
X147528039Y-102646843D01*
X147795747Y-102915020D01*
X148145705Y-103060335D01*
X148272444Y-103060445D01*
X148272335Y-103185633D01*
X148417039Y-103535843D01*
X148684747Y-103804020D01*
X149034705Y-103949335D01*
X149413633Y-103949665D01*
X149763843Y-103804961D01*
X150032020Y-103537253D01*
X150177335Y-103187295D01*
X150177548Y-102942478D01*
X151325013Y-101795013D01*
X151462664Y-101589004D01*
X151511001Y-101346000D01*
X151511000Y-101345995D01*
X151511000Y-100668000D01*
X155179000Y-100668000D01*
X155179000Y-101015047D01*
X155256338Y-101201758D01*
X155399241Y-101344661D01*
X155585952Y-101422000D01*
X156083000Y-101422000D01*
X156210000Y-101295000D01*
X156210000Y-100541000D01*
X156464000Y-100541000D01*
X156464000Y-101295000D01*
X156591000Y-101422000D01*
X157088048Y-101422000D01*
X157274759Y-101344661D01*
X157417662Y-101201758D01*
X157495000Y-101015047D01*
X157495000Y-100668000D01*
X157368000Y-100541000D01*
X156464000Y-100541000D01*
X156210000Y-100541000D01*
X155306000Y-100541000D01*
X155179000Y-100668000D01*
X151511000Y-100668000D01*
X151511000Y-99812953D01*
X155179000Y-99812953D01*
X155179000Y-100160000D01*
X155306000Y-100287000D01*
X156210000Y-100287000D01*
X156210000Y-99533000D01*
X156464000Y-99533000D01*
X156464000Y-100287000D01*
X157368000Y-100287000D01*
X157495000Y-100160000D01*
X157495000Y-99812953D01*
X157417662Y-99626242D01*
X157274759Y-99483339D01*
X157088048Y-99406000D01*
X156591000Y-99406000D01*
X156464000Y-99533000D01*
X156210000Y-99533000D01*
X156083000Y-99406000D01*
X155585952Y-99406000D01*
X155399241Y-99483339D01*
X155256338Y-99626242D01*
X155179000Y-99812953D01*
X151511000Y-99812953D01*
X151511000Y-99450026D01*
X152976013Y-97985013D01*
X153113664Y-97779004D01*
X153162001Y-97536000D01*
X153162000Y-97535995D01*
X153162000Y-95005026D01*
X154119013Y-94048013D01*
X154256664Y-93842004D01*
X154305000Y-93599000D01*
X154305000Y-92689180D01*
X154460303Y-92625010D01*
X154853629Y-92232370D01*
X155066757Y-91719100D01*
X155067242Y-91163339D01*
X154855010Y-90649697D01*
X154462370Y-90256371D01*
X154254488Y-90170051D01*
X154460303Y-90085010D01*
X154853629Y-89692370D01*
X155066757Y-89179100D01*
X155067242Y-88623339D01*
X154855010Y-88109697D01*
X154462370Y-87716371D01*
X153949100Y-87503243D01*
X153393339Y-87502758D01*
X152879697Y-87714990D01*
X152486371Y-88107630D01*
X152406605Y-88299727D01*
X152352397Y-88168857D01*
X152132775Y-88076830D01*
X151309605Y-88900000D01*
X152132775Y-89723170D01*
X152352397Y-89631143D01*
X152402509Y-89490682D01*
X152484990Y-89690303D01*
X152877630Y-90083629D01*
X153085512Y-90169949D01*
X152879697Y-90254990D01*
X152486371Y-90647630D01*
X152400051Y-90855512D01*
X152315010Y-90649697D01*
X151922370Y-90256371D01*
X151730273Y-90176605D01*
X151861143Y-90122397D01*
X151953170Y-89902775D01*
X151130000Y-89079605D01*
X150306830Y-89902775D01*
X150398857Y-90122397D01*
X150539318Y-90172509D01*
X150339697Y-90254990D01*
X149946371Y-90647630D01*
X149860051Y-90855512D01*
X149775010Y-90649697D01*
X149382370Y-90256371D01*
X149190273Y-90176605D01*
X149321143Y-90122397D01*
X149413170Y-89902775D01*
X148590000Y-89079605D01*
X147766830Y-89902775D01*
X147858857Y-90122397D01*
X147999318Y-90172509D01*
X147799697Y-90254990D01*
X147406371Y-90647630D01*
X147320051Y-90855512D01*
X147235010Y-90649697D01*
X146842370Y-90256371D01*
X146650273Y-90176605D01*
X146781143Y-90122397D01*
X146873170Y-89902775D01*
X146050000Y-89079605D01*
X145226830Y-89902775D01*
X145318857Y-90122397D01*
X145459318Y-90172509D01*
X145259697Y-90254990D01*
X144866371Y-90647630D01*
X144780051Y-90855512D01*
X144695010Y-90649697D01*
X144302370Y-90256371D01*
X144110273Y-90176605D01*
X144241143Y-90122397D01*
X144333170Y-89902775D01*
X143510000Y-89079605D01*
X142686830Y-89902775D01*
X142778857Y-90122397D01*
X142919318Y-90172509D01*
X142719697Y-90254990D01*
X142326371Y-90647630D01*
X142240051Y-90855512D01*
X142155010Y-90649697D01*
X141762370Y-90256371D01*
X141570273Y-90176605D01*
X141701143Y-90122397D01*
X141793170Y-89902775D01*
X140970000Y-89079605D01*
X140146830Y-89902775D01*
X140238857Y-90122397D01*
X140379318Y-90172509D01*
X140179697Y-90254990D01*
X139786371Y-90647630D01*
X139700051Y-90855512D01*
X139615010Y-90649697D01*
X139222370Y-90256371D01*
X139030273Y-90176605D01*
X139161143Y-90122397D01*
X139253170Y-89902775D01*
X138430000Y-89079605D01*
X137606830Y-89902775D01*
X137698857Y-90122397D01*
X137839318Y-90172509D01*
X137639697Y-90254990D01*
X137296952Y-90597137D01*
X137296952Y-90551000D01*
X137261530Y-90362747D01*
X137150272Y-90189847D01*
X136980512Y-90073855D01*
X136779000Y-90033048D01*
X136732356Y-90033048D01*
X137073629Y-89692370D01*
X137153395Y-89500273D01*
X137207603Y-89631143D01*
X137427225Y-89723170D01*
X138250395Y-88900000D01*
X138609605Y-88900000D01*
X139432775Y-89723170D01*
X139652397Y-89631143D01*
X139696453Y-89507656D01*
X139747603Y-89631143D01*
X139967225Y-89723170D01*
X140790395Y-88900000D01*
X141149605Y-88900000D01*
X141972775Y-89723170D01*
X142192397Y-89631143D01*
X142236453Y-89507656D01*
X142287603Y-89631143D01*
X142507225Y-89723170D01*
X143330395Y-88900000D01*
X143689605Y-88900000D01*
X144512775Y-89723170D01*
X144732397Y-89631143D01*
X144776453Y-89507656D01*
X144827603Y-89631143D01*
X145047225Y-89723170D01*
X145870395Y-88900000D01*
X146229605Y-88900000D01*
X147052775Y-89723170D01*
X147272397Y-89631143D01*
X147316453Y-89507656D01*
X147367603Y-89631143D01*
X147587225Y-89723170D01*
X148410395Y-88900000D01*
X148769605Y-88900000D01*
X149592775Y-89723170D01*
X149812397Y-89631143D01*
X149856453Y-89507656D01*
X149907603Y-89631143D01*
X150127225Y-89723170D01*
X150950395Y-88900000D01*
X150127225Y-88076830D01*
X149907603Y-88168857D01*
X149863547Y-88292344D01*
X149812397Y-88168857D01*
X149592775Y-88076830D01*
X148769605Y-88900000D01*
X148410395Y-88900000D01*
X147587225Y-88076830D01*
X147367603Y-88168857D01*
X147323547Y-88292344D01*
X147272397Y-88168857D01*
X147052775Y-88076830D01*
X146229605Y-88900000D01*
X145870395Y-88900000D01*
X145047225Y-88076830D01*
X144827603Y-88168857D01*
X144783547Y-88292344D01*
X144732397Y-88168857D01*
X144512775Y-88076830D01*
X143689605Y-88900000D01*
X143330395Y-88900000D01*
X142507225Y-88076830D01*
X142287603Y-88168857D01*
X142243547Y-88292344D01*
X142192397Y-88168857D01*
X141972775Y-88076830D01*
X141149605Y-88900000D01*
X140790395Y-88900000D01*
X139967225Y-88076830D01*
X139747603Y-88168857D01*
X139703547Y-88292344D01*
X139652397Y-88168857D01*
X139432775Y-88076830D01*
X138609605Y-88900000D01*
X138250395Y-88900000D01*
X137427225Y-88076830D01*
X137207603Y-88168857D01*
X137157491Y-88309318D01*
X137075010Y-88109697D01*
X136862909Y-87897225D01*
X137606830Y-87897225D01*
X138430000Y-88720395D01*
X139253170Y-87897225D01*
X140146830Y-87897225D01*
X140970000Y-88720395D01*
X141793170Y-87897225D01*
X142686830Y-87897225D01*
X143510000Y-88720395D01*
X144333170Y-87897225D01*
X145226830Y-87897225D01*
X146050000Y-88720395D01*
X146873170Y-87897225D01*
X147766830Y-87897225D01*
X148590000Y-88720395D01*
X149413170Y-87897225D01*
X150306830Y-87897225D01*
X151130000Y-88720395D01*
X151953170Y-87897225D01*
X151861143Y-87677603D01*
X151337698Y-87490856D01*
X150782632Y-87518638D01*
X150398857Y-87677603D01*
X150306830Y-87897225D01*
X149413170Y-87897225D01*
X149321143Y-87677603D01*
X148797698Y-87490856D01*
X148242632Y-87518638D01*
X147858857Y-87677603D01*
X147766830Y-87897225D01*
X146873170Y-87897225D01*
X146781143Y-87677603D01*
X146257698Y-87490856D01*
X145702632Y-87518638D01*
X145318857Y-87677603D01*
X145226830Y-87897225D01*
X144333170Y-87897225D01*
X144241143Y-87677603D01*
X143717698Y-87490856D01*
X143162632Y-87518638D01*
X142778857Y-87677603D01*
X142686830Y-87897225D01*
X141793170Y-87897225D01*
X141701143Y-87677603D01*
X141177698Y-87490856D01*
X140622632Y-87518638D01*
X140238857Y-87677603D01*
X140146830Y-87897225D01*
X139253170Y-87897225D01*
X139161143Y-87677603D01*
X138637698Y-87490856D01*
X138082632Y-87518638D01*
X137698857Y-87677603D01*
X137606830Y-87897225D01*
X136862909Y-87897225D01*
X136682370Y-87716371D01*
X136169100Y-87503243D01*
X135613339Y-87502758D01*
X135099697Y-87714990D01*
X134706371Y-88107630D01*
X134493243Y-88620900D01*
X134492758Y-89176661D01*
X134704990Y-89690303D01*
X135047137Y-90033048D01*
X135001000Y-90033048D01*
X134812747Y-90068470D01*
X134639847Y-90179728D01*
X134523855Y-90349488D01*
X134483048Y-90551000D01*
X130057952Y-90551000D01*
X130057952Y-89281000D01*
X130022530Y-89092747D01*
X129911272Y-88919847D01*
X129741512Y-88803855D01*
X129589361Y-88773044D01*
X129866963Y-88773286D01*
X130473995Y-88522466D01*
X130938834Y-88058437D01*
X131190713Y-87451845D01*
X131191286Y-86795037D01*
X130940466Y-86188005D01*
X130476437Y-85723166D01*
X129869845Y-85471287D01*
X129213037Y-85470714D01*
X128606005Y-85721534D01*
X128141166Y-86185563D01*
X127889287Y-86792155D01*
X127888714Y-87448963D01*
X128139534Y-88055995D01*
X128603563Y-88520834D01*
X129186879Y-88763048D01*
X127558000Y-88763048D01*
X127558000Y-84378000D01*
X162002000Y-84378000D01*
X162002000Y-88763048D01*
X162002000Y-88763048D01*
G37*
X162002000Y-88763048D02*
X160371741Y-88763048D01*
X160953995Y-88522466D01*
X161418834Y-88058437D01*
X161670713Y-87451845D01*
X161671286Y-86795037D01*
X161420466Y-86188005D01*
X160956437Y-85723166D01*
X160349845Y-85471287D01*
X159693037Y-85470714D01*
X159086005Y-85721534D01*
X158621166Y-86185563D01*
X158369287Y-86792155D01*
X158368714Y-87448963D01*
X158619534Y-88055995D01*
X159083563Y-88520834D01*
X159690155Y-88772713D01*
X159967349Y-88772955D01*
X159831747Y-88798470D01*
X159658847Y-88909728D01*
X159542855Y-89079488D01*
X159502048Y-89281000D01*
X159502048Y-91059000D01*
X159537470Y-91247253D01*
X159648728Y-91420153D01*
X159675927Y-91438737D01*
X159658847Y-91449728D01*
X159542855Y-91619488D01*
X159502048Y-91821000D01*
X159502048Y-93599000D01*
X159537470Y-93787253D01*
X159648728Y-93960153D01*
X159680630Y-93981950D01*
X159589339Y-94073241D01*
X159512000Y-94259952D01*
X159512000Y-94742000D01*
X159639000Y-94869000D01*
X160655000Y-94869000D01*
X160655000Y-94849000D01*
X161417000Y-94849000D01*
X161417000Y-94869000D01*
X161437000Y-94869000D01*
X161437000Y-95631000D01*
X161417000Y-95631000D01*
X161417000Y-95651000D01*
X160655000Y-95651000D01*
X160655000Y-95631000D01*
X159639000Y-95631000D01*
X159512000Y-95758000D01*
X159512000Y-96240048D01*
X159589339Y-96426759D01*
X159679207Y-96516627D01*
X159658847Y-96529728D01*
X159542855Y-96699488D01*
X159502048Y-96901000D01*
X159502048Y-97155000D01*
X157734005Y-97155000D01*
X157734000Y-97154999D01*
X157517822Y-97198000D01*
X157490996Y-97203336D01*
X157313263Y-97322094D01*
X157188512Y-97236855D01*
X156987000Y-97196048D01*
X155687000Y-97196048D01*
X155498747Y-97231470D01*
X155325847Y-97342728D01*
X155209855Y-97512488D01*
X155169048Y-97714000D01*
X155169048Y-98714000D01*
X155204470Y-98902253D01*
X155315728Y-99075153D01*
X155485488Y-99191145D01*
X155687000Y-99231952D01*
X156987000Y-99231952D01*
X157175253Y-99196530D01*
X157348153Y-99085272D01*
X157464145Y-98915512D01*
X157484649Y-98814261D01*
X157553004Y-98800664D01*
X157759013Y-98663013D01*
X157997025Y-98425000D01*
X159502048Y-98425000D01*
X159502048Y-98679000D01*
X159537470Y-98867253D01*
X159648728Y-99040153D01*
X159675927Y-99058737D01*
X159658847Y-99069728D01*
X159542855Y-99239488D01*
X159502048Y-99441000D01*
X159502048Y-101219000D01*
X159537470Y-101407253D01*
X159648728Y-101580153D01*
X159675927Y-101598737D01*
X159658847Y-101609728D01*
X159542855Y-101779488D01*
X159502048Y-101981000D01*
X159502048Y-103759000D01*
X159537470Y-103947253D01*
X159648728Y-104120153D01*
X159675927Y-104138737D01*
X159658847Y-104149728D01*
X159542855Y-104319488D01*
X159502048Y-104521000D01*
X159502048Y-106299000D01*
X159537470Y-106487253D01*
X159648728Y-106660153D01*
X159680630Y-106681950D01*
X159589339Y-106773241D01*
X159512000Y-106959952D01*
X159512000Y-107442000D01*
X159639000Y-107569000D01*
X160655000Y-107569000D01*
X160655000Y-107549000D01*
X161417000Y-107549000D01*
X161417000Y-107569000D01*
X161437000Y-107569000D01*
X161437000Y-108331000D01*
X161417000Y-108331000D01*
X161417000Y-109220000D01*
X161544000Y-109347000D01*
X162002000Y-109347000D01*
X162002000Y-113742000D01*
X127558000Y-113742000D01*
X127558000Y-109347000D01*
X128016000Y-109347000D01*
X128143000Y-109220000D01*
X128143000Y-108331000D01*
X128905000Y-108331000D01*
X128905000Y-109220000D01*
X129032000Y-109347000D01*
X129641047Y-109347000D01*
X129827758Y-109269662D01*
X129970661Y-109126759D01*
X130048000Y-108940048D01*
X130048000Y-108458000D01*
X159512000Y-108458000D01*
X159512000Y-108940048D01*
X159589339Y-109126759D01*
X159732242Y-109269662D01*
X159918953Y-109347000D01*
X160528000Y-109347000D01*
X160655000Y-109220000D01*
X160655000Y-108331000D01*
X159639000Y-108331000D01*
X159512000Y-108458000D01*
X130048000Y-108458000D01*
X129921000Y-108331000D01*
X128905000Y-108331000D01*
X128143000Y-108331000D01*
X128123000Y-108331000D01*
X128123000Y-107569000D01*
X128143000Y-107569000D01*
X128143000Y-107549000D01*
X128905000Y-107549000D01*
X128905000Y-107569000D01*
X129921000Y-107569000D01*
X130048000Y-107442000D01*
X130048000Y-106959952D01*
X129970661Y-106773241D01*
X129880793Y-106683373D01*
X129901153Y-106670272D01*
X130017145Y-106500512D01*
X130057952Y-106299000D01*
X130057952Y-104521000D01*
X130022530Y-104332747D01*
X129911272Y-104159847D01*
X129884073Y-104141263D01*
X129901153Y-104130272D01*
X130017145Y-103960512D01*
X130057952Y-103759000D01*
X130057952Y-103505000D01*
X132121048Y-103505000D01*
X132121048Y-104790000D01*
X132156470Y-104978253D01*
X132267728Y-105151153D01*
X132437488Y-105267145D01*
X132639000Y-105307952D01*
X133639000Y-105307952D01*
X133827253Y-105272530D01*
X134000153Y-105161272D01*
X134116145Y-104991512D01*
X134156952Y-104790000D01*
X134156952Y-104394000D01*
X134331000Y-104394000D01*
X134331000Y-104891048D01*
X134408339Y-105077759D01*
X134551242Y-105220662D01*
X134737953Y-105298000D01*
X135085000Y-105298000D01*
X135212000Y-105171000D01*
X135212000Y-104267000D01*
X135466000Y-104267000D01*
X135466000Y-105171000D01*
X135593000Y-105298000D01*
X135940047Y-105298000D01*
X136126758Y-105220662D01*
X136269661Y-105077759D01*
X136347000Y-104891048D01*
X136347000Y-104394000D01*
X136220000Y-104267000D01*
X135466000Y-104267000D01*
X135212000Y-104267000D01*
X134458000Y-104267000D01*
X134331000Y-104394000D01*
X134156952Y-104394000D01*
X134156952Y-103490000D01*
X134137939Y-103388952D01*
X134331000Y-103388952D01*
X134331000Y-103886000D01*
X134458000Y-104013000D01*
X135212000Y-104013000D01*
X135212000Y-103109000D01*
X135466000Y-103109000D01*
X135466000Y-104013000D01*
X136220000Y-104013000D01*
X136347000Y-103886000D01*
X136347000Y-103388952D01*
X136269661Y-103202241D01*
X136126758Y-103059338D01*
X135940047Y-102982000D01*
X135593000Y-102982000D01*
X135466000Y-103109000D01*
X135212000Y-103109000D01*
X135085000Y-102982000D01*
X134737953Y-102982000D01*
X134551242Y-103059338D01*
X134408339Y-103202241D01*
X134331000Y-103388952D01*
X134137939Y-103388952D01*
X134121530Y-103301747D01*
X134010272Y-103128847D01*
X133840512Y-103012855D01*
X133739261Y-102992351D01*
X133725664Y-102923995D01*
X133689585Y-102870000D01*
X133725664Y-102816005D01*
X133738964Y-102749143D01*
X133827253Y-102732530D01*
X134000153Y-102621272D01*
X134116145Y-102451512D01*
X134156952Y-102250000D01*
X134156952Y-100950000D01*
X134121530Y-100761747D01*
X134010272Y-100588847D01*
X133840512Y-100472855D01*
X133639000Y-100432048D01*
X132639000Y-100432048D01*
X132450747Y-100467470D01*
X132277847Y-100578728D01*
X132161855Y-100748488D01*
X132121048Y-100950000D01*
X132121048Y-102235000D01*
X130057952Y-102235000D01*
X130057952Y-101981000D01*
X130022530Y-101792747D01*
X129911272Y-101619847D01*
X129884073Y-101601263D01*
X129901153Y-101590272D01*
X130017145Y-101420512D01*
X130057952Y-101219000D01*
X130057952Y-99441000D01*
X130022530Y-99252747D01*
X129911272Y-99079847D01*
X129884073Y-99061263D01*
X129901153Y-99050272D01*
X130017145Y-98880512D01*
X130057952Y-98679000D01*
X130057952Y-98425000D01*
X132121048Y-98425000D01*
X132121048Y-99710000D01*
X132156470Y-99898253D01*
X132267728Y-100071153D01*
X132437488Y-100187145D01*
X132639000Y-100227952D01*
X133639000Y-100227952D01*
X133827253Y-100192530D01*
X134000153Y-100081272D01*
X134116145Y-99911512D01*
X134156952Y-99710000D01*
X134156952Y-98410000D01*
X134321048Y-98410000D01*
X134321048Y-99710000D01*
X134356470Y-99898253D01*
X134467728Y-100071153D01*
X134637488Y-100187145D01*
X134839000Y-100227952D01*
X135839000Y-100227952D01*
X136027253Y-100192530D01*
X136200153Y-100081272D01*
X136203755Y-100076000D01*
X136652000Y-100076000D01*
X136652000Y-100584000D01*
X136203178Y-100584000D01*
X136040512Y-100472855D01*
X135839000Y-100432048D01*
X134839000Y-100432048D01*
X134650747Y-100467470D01*
X134477847Y-100578728D01*
X134361855Y-100748488D01*
X134321048Y-100950000D01*
X134321048Y-102250000D01*
X134356470Y-102438253D01*
X134467728Y-102611153D01*
X134637488Y-102727145D01*
X134839000Y-102767952D01*
X135839000Y-102767952D01*
X136027253Y-102732530D01*
X136200153Y-102621272D01*
X136203755Y-102616000D01*
X136652000Y-102616000D01*
X136652000Y-104139113D01*
X136651824Y-104341208D01*
X136806175Y-104714766D01*
X137091731Y-105000821D01*
X137465018Y-105155824D01*
X137869208Y-105156176D01*
X138242766Y-105001825D01*
X138528821Y-104716269D01*
X138683824Y-104342982D01*
X138684176Y-103938792D01*
X138684000Y-103938366D01*
X138684000Y-101719000D01*
X142367000Y-101719000D01*
X142367000Y-102956048D01*
X142444339Y-103142759D01*
X142587242Y-103285662D01*
X142773953Y-103363000D01*
X143256000Y-103363000D01*
X143383000Y-103236000D01*
X143383000Y-101592000D01*
X143637000Y-101592000D01*
X143637000Y-103236000D01*
X143764000Y-103363000D01*
X144246047Y-103363000D01*
X144432758Y-103285662D01*
X144575661Y-103142759D01*
X144653000Y-102956048D01*
X144653000Y-101719000D01*
X144526000Y-101592000D01*
X143637000Y-101592000D01*
X143383000Y-101592000D01*
X142494000Y-101592000D01*
X142367000Y-101719000D01*
X138684000Y-101719000D01*
X138684000Y-99060887D01*
X138684176Y-98858792D01*
X138529825Y-98485234D01*
X138244269Y-98199179D01*
X137870982Y-98044176D01*
X137466792Y-98043824D01*
X137466366Y-98044000D01*
X136203178Y-98044000D01*
X136040512Y-97932855D01*
X135839000Y-97892048D01*
X134839000Y-97892048D01*
X134650747Y-97927470D01*
X134477847Y-98038728D01*
X134361855Y-98208488D01*
X134321048Y-98410000D01*
X134156952Y-98410000D01*
X134121530Y-98221747D01*
X134010272Y-98048847D01*
X133840512Y-97932855D01*
X133739261Y-97912351D01*
X133730571Y-97868664D01*
X133725664Y-97843995D01*
X133689585Y-97790000D01*
X133725664Y-97736005D01*
X133738964Y-97669143D01*
X133827253Y-97652530D01*
X134000153Y-97541272D01*
X134116145Y-97371512D01*
X134156952Y-97170000D01*
X134156952Y-96774000D01*
X134331000Y-96774000D01*
X134331000Y-97271048D01*
X134408339Y-97457759D01*
X134551242Y-97600662D01*
X134737953Y-97678000D01*
X135085000Y-97678000D01*
X135212000Y-97551000D01*
X135212000Y-96647000D01*
X135466000Y-96647000D01*
X135466000Y-97551000D01*
X135593000Y-97678000D01*
X135940047Y-97678000D01*
X136126758Y-97600662D01*
X136269661Y-97457759D01*
X136347000Y-97271048D01*
X136347000Y-96774000D01*
X136220000Y-96647000D01*
X135466000Y-96647000D01*
X135212000Y-96647000D01*
X134458000Y-96647000D01*
X134331000Y-96774000D01*
X134156952Y-96774000D01*
X134156952Y-95870000D01*
X134137939Y-95768952D01*
X134331000Y-95768952D01*
X134331000Y-96266000D01*
X134458000Y-96393000D01*
X135212000Y-96393000D01*
X135212000Y-95489000D01*
X135466000Y-95489000D01*
X135466000Y-96393000D01*
X136220000Y-96393000D01*
X136347000Y-96266000D01*
X136347000Y-95768952D01*
X136269661Y-95582241D01*
X136126758Y-95439338D01*
X135940047Y-95362000D01*
X135593000Y-95362000D01*
X135466000Y-95489000D01*
X135212000Y-95489000D01*
X135085000Y-95362000D01*
X134737953Y-95362000D01*
X134551242Y-95439338D01*
X134408339Y-95582241D01*
X134331000Y-95768952D01*
X134137939Y-95768952D01*
X134121530Y-95681747D01*
X134010272Y-95508847D01*
X133840512Y-95392855D01*
X133639000Y-95352048D01*
X132639000Y-95352048D01*
X132450747Y-95387470D01*
X132277847Y-95498728D01*
X132161855Y-95668488D01*
X132121048Y-95870000D01*
X132121048Y-97155000D01*
X130057952Y-97155000D01*
X130057952Y-96901000D01*
X130022530Y-96712747D01*
X129911272Y-96539847D01*
X129879370Y-96518050D01*
X129970661Y-96426759D01*
X130048000Y-96240048D01*
X130048000Y-95758000D01*
X129921000Y-95631000D01*
X128905000Y-95631000D01*
X128905000Y-95651000D01*
X128143000Y-95651000D01*
X128143000Y-95631000D01*
X128123000Y-95631000D01*
X128123000Y-94869000D01*
X128143000Y-94869000D01*
X128143000Y-94849000D01*
X128905000Y-94849000D01*
X128905000Y-94869000D01*
X129921000Y-94869000D01*
X130048000Y-94742000D01*
X130048000Y-94259952D01*
X129970661Y-94073241D01*
X129880793Y-93983373D01*
X129901153Y-93970272D01*
X130017145Y-93800512D01*
X130057952Y-93599000D01*
X130057952Y-91821000D01*
X130022530Y-91632747D01*
X129911272Y-91459847D01*
X129884073Y-91441263D01*
X129901153Y-91430272D01*
X130017145Y-91260512D01*
X130057952Y-91059000D01*
X130057952Y-90551000D01*
X134483048Y-90551000D01*
X134483048Y-92329000D01*
X134518470Y-92517253D01*
X134629728Y-92690153D01*
X134799488Y-92806145D01*
X135001000Y-92846952D01*
X135255000Y-92846952D01*
X135255000Y-92964000D01*
X135303336Y-93207004D01*
X135440987Y-93413013D01*
X141536987Y-99509013D01*
X141742996Y-99646664D01*
X141986000Y-99695000D01*
X142536580Y-99695000D01*
X142444339Y-99787241D01*
X142367000Y-99973952D01*
X142367000Y-101211000D01*
X142494000Y-101338000D01*
X143383000Y-101338000D01*
X143383000Y-101318000D01*
X143637000Y-101318000D01*
X143637000Y-101338000D01*
X144526000Y-101338000D01*
X144653000Y-101211000D01*
X144653000Y-99973952D01*
X144575661Y-99787241D01*
X144483420Y-99695000D01*
X145067411Y-99695000D01*
X145053847Y-99703728D01*
X144937855Y-99873488D01*
X144897048Y-100075000D01*
X144897048Y-102855000D01*
X144932470Y-103043253D01*
X145043728Y-103216153D01*
X145213488Y-103332145D01*
X145415000Y-103372952D01*
X146685000Y-103372952D01*
X146873253Y-103337530D01*
X147046153Y-103226272D01*
X147162145Y-103056512D01*
X147202952Y-102855000D01*
X147202952Y-100075000D01*
X147167530Y-99886747D01*
X147056272Y-99713847D01*
X146886512Y-99597855D01*
X146694408Y-99558953D01*
X147813000Y-99558953D01*
X147813000Y-100006000D01*
X147940000Y-100133000D01*
X148844000Y-100133000D01*
X148844000Y-99279000D01*
X148717000Y-99152000D01*
X148219952Y-99152000D01*
X148033241Y-99229339D01*
X147890338Y-99372242D01*
X147813000Y-99558953D01*
X146694408Y-99558953D01*
X146685000Y-99557048D01*
X146685000Y-98562952D01*
X146873253Y-98527530D01*
X147046153Y-98416272D01*
X147162145Y-98246512D01*
X147202952Y-98045000D01*
X147202952Y-95265000D01*
X147180928Y-95147952D01*
X147791420Y-95147952D01*
X147782855Y-95160488D01*
X147742048Y-95362000D01*
X147742048Y-96662000D01*
X147777470Y-96850253D01*
X147878674Y-97007529D01*
X147843855Y-97058488D01*
X147803048Y-97260000D01*
X147803048Y-98460000D01*
X147838470Y-98648253D01*
X147949728Y-98821153D01*
X148119488Y-98937145D01*
X148321000Y-98977952D01*
X149606000Y-98977952D01*
X149606000Y-99152000D01*
X149225000Y-99152000D01*
X149098000Y-99279000D01*
X149098000Y-100133000D01*
X149118000Y-100133000D01*
X149118000Y-100387000D01*
X149098000Y-100387000D01*
X149098000Y-100407000D01*
X148844000Y-100407000D01*
X148844000Y-100387000D01*
X147940000Y-100387000D01*
X147813000Y-100514000D01*
X147813000Y-100961047D01*
X147890338Y-101147758D01*
X147970850Y-101228270D01*
X147797157Y-101300039D01*
X147528980Y-101567747D01*
X147383665Y-101917705D01*
X147383335Y-102296633D01*
X147528039Y-102646843D01*
X147795747Y-102915020D01*
X148145705Y-103060335D01*
X148272444Y-103060445D01*
X148272335Y-103185633D01*
X148417039Y-103535843D01*
X148684747Y-103804020D01*
X149034705Y-103949335D01*
X149413633Y-103949665D01*
X149763843Y-103804961D01*
X150032020Y-103537253D01*
X150177335Y-103187295D01*
X150177548Y-102942478D01*
X151325013Y-101795013D01*
X151462664Y-101589004D01*
X151511001Y-101346000D01*
X151511000Y-101345995D01*
X151511000Y-100668000D01*
X155179000Y-100668000D01*
X155179000Y-101015047D01*
X155256338Y-101201758D01*
X155399241Y-101344661D01*
X155585952Y-101422000D01*
X156083000Y-101422000D01*
X156210000Y-101295000D01*
X156210000Y-100541000D01*
X156464000Y-100541000D01*
X156464000Y-101295000D01*
X156591000Y-101422000D01*
X157088048Y-101422000D01*
X157274759Y-101344661D01*
X157417662Y-101201758D01*
X157495000Y-101015047D01*
X157495000Y-100668000D01*
X157368000Y-100541000D01*
X156464000Y-100541000D01*
X156210000Y-100541000D01*
X155306000Y-100541000D01*
X155179000Y-100668000D01*
X151511000Y-100668000D01*
X151511000Y-99812953D01*
X155179000Y-99812953D01*
X155179000Y-100160000D01*
X155306000Y-100287000D01*
X156210000Y-100287000D01*
X156210000Y-99533000D01*
X156464000Y-99533000D01*
X156464000Y-100287000D01*
X157368000Y-100287000D01*
X157495000Y-100160000D01*
X157495000Y-99812953D01*
X157417662Y-99626242D01*
X157274759Y-99483339D01*
X157088048Y-99406000D01*
X156591000Y-99406000D01*
X156464000Y-99533000D01*
X156210000Y-99533000D01*
X156083000Y-99406000D01*
X155585952Y-99406000D01*
X155399241Y-99483339D01*
X155256338Y-99626242D01*
X155179000Y-99812953D01*
X151511000Y-99812953D01*
X151511000Y-99450026D01*
X152976013Y-97985013D01*
X153113664Y-97779004D01*
X153162001Y-97536000D01*
X153162000Y-97535995D01*
X153162000Y-95005026D01*
X154119013Y-94048013D01*
X154256664Y-93842004D01*
X154305000Y-93599000D01*
X154305000Y-92689180D01*
X154460303Y-92625010D01*
X154853629Y-92232370D01*
X155066757Y-91719100D01*
X155067242Y-91163339D01*
X154855010Y-90649697D01*
X154462370Y-90256371D01*
X154254488Y-90170051D01*
X154460303Y-90085010D01*
X154853629Y-89692370D01*
X155066757Y-89179100D01*
X155067242Y-88623339D01*
X154855010Y-88109697D01*
X154462370Y-87716371D01*
X153949100Y-87503243D01*
X153393339Y-87502758D01*
X152879697Y-87714990D01*
X152486371Y-88107630D01*
X152406605Y-88299727D01*
X152352397Y-88168857D01*
X152132775Y-88076830D01*
X151309605Y-88900000D01*
X152132775Y-89723170D01*
X152352397Y-89631143D01*
X152402509Y-89490682D01*
X152484990Y-89690303D01*
X152877630Y-90083629D01*
X153085512Y-90169949D01*
X152879697Y-90254990D01*
X152486371Y-90647630D01*
X152400051Y-90855512D01*
X152315010Y-90649697D01*
X151922370Y-90256371D01*
X151730273Y-90176605D01*
X151861143Y-90122397D01*
X151953170Y-89902775D01*
X151130000Y-89079605D01*
X150306830Y-89902775D01*
X150398857Y-90122397D01*
X150539318Y-90172509D01*
X150339697Y-90254990D01*
X149946371Y-90647630D01*
X149860051Y-90855512D01*
X149775010Y-90649697D01*
X149382370Y-90256371D01*
X149190273Y-90176605D01*
X149321143Y-90122397D01*
X149413170Y-89902775D01*
X148590000Y-89079605D01*
X147766830Y-89902775D01*
X147858857Y-90122397D01*
X147999318Y-90172509D01*
X147799697Y-90254990D01*
X147406371Y-90647630D01*
X147320051Y-90855512D01*
X147235010Y-90649697D01*
X146842370Y-90256371D01*
X146650273Y-90176605D01*
X146781143Y-90122397D01*
X146873170Y-89902775D01*
X146050000Y-89079605D01*
X145226830Y-89902775D01*
X145318857Y-90122397D01*
X145459318Y-90172509D01*
X145259697Y-90254990D01*
X144866371Y-90647630D01*
X144780051Y-90855512D01*
X144695010Y-90649697D01*
X144302370Y-90256371D01*
X144110273Y-90176605D01*
X144241143Y-90122397D01*
X144333170Y-89902775D01*
X143510000Y-89079605D01*
X142686830Y-89902775D01*
X142778857Y-90122397D01*
X142919318Y-90172509D01*
X142719697Y-90254990D01*
X142326371Y-90647630D01*
X142240051Y-90855512D01*
X142155010Y-90649697D01*
X141762370Y-90256371D01*
X141570273Y-90176605D01*
X141701143Y-90122397D01*
X141793170Y-89902775D01*
X140970000Y-89079605D01*
X140146830Y-89902775D01*
X140238857Y-90122397D01*
X140379318Y-90172509D01*
X140179697Y-90254990D01*
X139786371Y-90647630D01*
X139700051Y-90855512D01*
X139615010Y-90649697D01*
X139222370Y-90256371D01*
X139030273Y-90176605D01*
X139161143Y-90122397D01*
X139253170Y-89902775D01*
X138430000Y-89079605D01*
X137606830Y-89902775D01*
X137698857Y-90122397D01*
X137839318Y-90172509D01*
X137639697Y-90254990D01*
X137296952Y-90597137D01*
X137296952Y-90551000D01*
X137261530Y-90362747D01*
X137150272Y-90189847D01*
X136980512Y-90073855D01*
X136779000Y-90033048D01*
X136732356Y-90033048D01*
X137073629Y-89692370D01*
X137153395Y-89500273D01*
X137207603Y-89631143D01*
X137427225Y-89723170D01*
X138250395Y-88900000D01*
X138609605Y-88900000D01*
X139432775Y-89723170D01*
X139652397Y-89631143D01*
X139696453Y-89507656D01*
X139747603Y-89631143D01*
X139967225Y-89723170D01*
X140790395Y-88900000D01*
X141149605Y-88900000D01*
X141972775Y-89723170D01*
X142192397Y-89631143D01*
X142236453Y-89507656D01*
X142287603Y-89631143D01*
X142507225Y-89723170D01*
X143330395Y-88900000D01*
X143689605Y-88900000D01*
X144512775Y-89723170D01*
X144732397Y-89631143D01*
X144776453Y-89507656D01*
X144827603Y-89631143D01*
X145047225Y-89723170D01*
X145870395Y-88900000D01*
X146229605Y-88900000D01*
X147052775Y-89723170D01*
X147272397Y-89631143D01*
X147316453Y-89507656D01*
X147367603Y-89631143D01*
X147587225Y-89723170D01*
X148410395Y-88900000D01*
X148769605Y-88900000D01*
X149592775Y-89723170D01*
X149812397Y-89631143D01*
X149856453Y-89507656D01*
X149907603Y-89631143D01*
X150127225Y-89723170D01*
X150950395Y-88900000D01*
X150127225Y-88076830D01*
X149907603Y-88168857D01*
X149863547Y-88292344D01*
X149812397Y-88168857D01*
X149592775Y-88076830D01*
X148769605Y-88900000D01*
X148410395Y-88900000D01*
X147587225Y-88076830D01*
X147367603Y-88168857D01*
X147323547Y-88292344D01*
X147272397Y-88168857D01*
X147052775Y-88076830D01*
X146229605Y-88900000D01*
X145870395Y-88900000D01*
X145047225Y-88076830D01*
X144827603Y-88168857D01*
X144783547Y-88292344D01*
X144732397Y-88168857D01*
X144512775Y-88076830D01*
X143689605Y-88900000D01*
X143330395Y-88900000D01*
X142507225Y-88076830D01*
X142287603Y-88168857D01*
X142243547Y-88292344D01*
X142192397Y-88168857D01*
X141972775Y-88076830D01*
X141149605Y-88900000D01*
X140790395Y-88900000D01*
X139967225Y-88076830D01*
X139747603Y-88168857D01*
X139703547Y-88292344D01*
X139652397Y-88168857D01*
X139432775Y-88076830D01*
X138609605Y-88900000D01*
X138250395Y-88900000D01*
X137427225Y-88076830D01*
X137207603Y-88168857D01*
X137157491Y-88309318D01*
X137075010Y-88109697D01*
X136862909Y-87897225D01*
X137606830Y-87897225D01*
X138430000Y-88720395D01*
X139253170Y-87897225D01*
X140146830Y-87897225D01*
X140970000Y-88720395D01*
X141793170Y-87897225D01*
X142686830Y-87897225D01*
X143510000Y-88720395D01*
X144333170Y-87897225D01*
X145226830Y-87897225D01*
X146050000Y-88720395D01*
X146873170Y-87897225D01*
X147766830Y-87897225D01*
X148590000Y-88720395D01*
X149413170Y-87897225D01*
X150306830Y-87897225D01*
X151130000Y-88720395D01*
X151953170Y-87897225D01*
X151861143Y-87677603D01*
X151337698Y-87490856D01*
X150782632Y-87518638D01*
X150398857Y-87677603D01*
X150306830Y-87897225D01*
X149413170Y-87897225D01*
X149321143Y-87677603D01*
X148797698Y-87490856D01*
X148242632Y-87518638D01*
X147858857Y-87677603D01*
X147766830Y-87897225D01*
X146873170Y-87897225D01*
X146781143Y-87677603D01*
X146257698Y-87490856D01*
X145702632Y-87518638D01*
X145318857Y-87677603D01*
X145226830Y-87897225D01*
X144333170Y-87897225D01*
X144241143Y-87677603D01*
X143717698Y-87490856D01*
X143162632Y-87518638D01*
X142778857Y-87677603D01*
X142686830Y-87897225D01*
X141793170Y-87897225D01*
X141701143Y-87677603D01*
X141177698Y-87490856D01*
X140622632Y-87518638D01*
X140238857Y-87677603D01*
X140146830Y-87897225D01*
X139253170Y-87897225D01*
X139161143Y-87677603D01*
X138637698Y-87490856D01*
X138082632Y-87518638D01*
X137698857Y-87677603D01*
X137606830Y-87897225D01*
X136862909Y-87897225D01*
X136682370Y-87716371D01*
X136169100Y-87503243D01*
X135613339Y-87502758D01*
X135099697Y-87714990D01*
X134706371Y-88107630D01*
X134493243Y-88620900D01*
X134492758Y-89176661D01*
X134704990Y-89690303D01*
X135047137Y-90033048D01*
X135001000Y-90033048D01*
X134812747Y-90068470D01*
X134639847Y-90179728D01*
X134523855Y-90349488D01*
X134483048Y-90551000D01*
X130057952Y-90551000D01*
X130057952Y-89281000D01*
X130022530Y-89092747D01*
X129911272Y-88919847D01*
X129741512Y-88803855D01*
X129589361Y-88773044D01*
X129866963Y-88773286D01*
X130473995Y-88522466D01*
X130938834Y-88058437D01*
X131190713Y-87451845D01*
X131191286Y-86795037D01*
X130940466Y-86188005D01*
X130476437Y-85723166D01*
X129869845Y-85471287D01*
X129213037Y-85470714D01*
X128606005Y-85721534D01*
X128141166Y-86185563D01*
X127889287Y-86792155D01*
X127888714Y-87448963D01*
X128139534Y-88055995D01*
X128603563Y-88520834D01*
X129186879Y-88763048D01*
X127558000Y-88763048D01*
X127558000Y-84378000D01*
X162002000Y-84378000D01*
X162002000Y-88763048D01*
G36*
X147404990Y-92230303D02*
X147797630Y-92623629D01*
X147955000Y-92688975D01*
X147955000Y-92812048D01*
X146990000Y-92812048D01*
X146801747Y-92847470D01*
X146628847Y-92958728D01*
X146512855Y-93128488D01*
X146472048Y-93330000D01*
X146472048Y-93362097D01*
X146314995Y-93393336D01*
X146285547Y-93413013D01*
X146108987Y-93530987D01*
X146108985Y-93530990D01*
X145600987Y-94038987D01*
X145463336Y-94244996D01*
X145415000Y-94488000D01*
X145415000Y-94747048D01*
X145226747Y-94782470D01*
X145053847Y-94893728D01*
X144937855Y-95063488D01*
X144897048Y-95265000D01*
X144897048Y-98045000D01*
X144932470Y-98233253D01*
X145043728Y-98406153D01*
X145071312Y-98425000D01*
X144483420Y-98425000D01*
X144575661Y-98332759D01*
X144653000Y-98146048D01*
X144653000Y-96909000D01*
X144526000Y-96782000D01*
X143637000Y-96782000D01*
X143637000Y-96802000D01*
X143383000Y-96802000D01*
X143383000Y-96782000D01*
X142494000Y-96782000D01*
X142367000Y-96909000D01*
X142367000Y-98146048D01*
X142444339Y-98332759D01*
X142536580Y-98425000D01*
X142249026Y-98425000D01*
X138987978Y-95163952D01*
X142367000Y-95163952D01*
X142367000Y-96401000D01*
X142494000Y-96528000D01*
X143383000Y-96528000D01*
X143383000Y-94884000D01*
X143637000Y-94884000D01*
X143637000Y-96528000D01*
X144526000Y-96528000D01*
X144653000Y-96401000D01*
X144653000Y-95163952D01*
X144575661Y-94977241D01*
X144432758Y-94834338D01*
X144246047Y-94757000D01*
X143764000Y-94757000D01*
X143637000Y-94884000D01*
X143383000Y-94884000D01*
X143256000Y-94757000D01*
X142773953Y-94757000D01*
X142587242Y-94834338D01*
X142444339Y-94977241D01*
X142367000Y-95163952D01*
X138987978Y-95163952D01*
X136670978Y-92846952D01*
X136779000Y-92846952D01*
X136967253Y-92811530D01*
X137140153Y-92700272D01*
X137256145Y-92530512D01*
X137296952Y-92329000D01*
X137296952Y-92282356D01*
X137637630Y-92623629D01*
X138150900Y-92836757D01*
X138706661Y-92837242D01*
X139220303Y-92625010D01*
X139613629Y-92232370D01*
X139699949Y-92024488D01*
X139784990Y-92230303D01*
X140177630Y-92623629D01*
X140690900Y-92836757D01*
X141246661Y-92837242D01*
X141760303Y-92625010D01*
X142153629Y-92232370D01*
X142239949Y-92024488D01*
X142324990Y-92230303D01*
X142717630Y-92623629D01*
X143230900Y-92836757D01*
X143786661Y-92837242D01*
X144300303Y-92625010D01*
X144693629Y-92232370D01*
X144779949Y-92024488D01*
X144864990Y-92230303D01*
X145257630Y-92623629D01*
X145770900Y-92836757D01*
X146326661Y-92837242D01*
X146840303Y-92625010D01*
X147233629Y-92232370D01*
X147319949Y-92024488D01*
X147404990Y-92230303D01*
X147404990Y-92230303D01*
G37*
X147404990Y-92230303D02*
X147797630Y-92623629D01*
X147955000Y-92688975D01*
X147955000Y-92812048D01*
X146990000Y-92812048D01*
X146801747Y-92847470D01*
X146628847Y-92958728D01*
X146512855Y-93128488D01*
X146472048Y-93330000D01*
X146472048Y-93362097D01*
X146314995Y-93393336D01*
X146285547Y-93413013D01*
X146108987Y-93530987D01*
X146108985Y-93530990D01*
X145600987Y-94038987D01*
X145463336Y-94244996D01*
X145415000Y-94488000D01*
X145415000Y-94747048D01*
X145226747Y-94782470D01*
X145053847Y-94893728D01*
X144937855Y-95063488D01*
X144897048Y-95265000D01*
X144897048Y-98045000D01*
X144932470Y-98233253D01*
X145043728Y-98406153D01*
X145071312Y-98425000D01*
X144483420Y-98425000D01*
X144575661Y-98332759D01*
X144653000Y-98146048D01*
X144653000Y-96909000D01*
X144526000Y-96782000D01*
X143637000Y-96782000D01*
X143637000Y-96802000D01*
X143383000Y-96802000D01*
X143383000Y-96782000D01*
X142494000Y-96782000D01*
X142367000Y-96909000D01*
X142367000Y-98146048D01*
X142444339Y-98332759D01*
X142536580Y-98425000D01*
X142249026Y-98425000D01*
X138987978Y-95163952D01*
X142367000Y-95163952D01*
X142367000Y-96401000D01*
X142494000Y-96528000D01*
X143383000Y-96528000D01*
X143383000Y-94884000D01*
X143637000Y-94884000D01*
X143637000Y-96528000D01*
X144526000Y-96528000D01*
X144653000Y-96401000D01*
X144653000Y-95163952D01*
X144575661Y-94977241D01*
X144432758Y-94834338D01*
X144246047Y-94757000D01*
X143764000Y-94757000D01*
X143637000Y-94884000D01*
X143383000Y-94884000D01*
X143256000Y-94757000D01*
X142773953Y-94757000D01*
X142587242Y-94834338D01*
X142444339Y-94977241D01*
X142367000Y-95163952D01*
X138987978Y-95163952D01*
X136670978Y-92846952D01*
X136779000Y-92846952D01*
X136967253Y-92811530D01*
X137140153Y-92700272D01*
X137256145Y-92530512D01*
X137296952Y-92329000D01*
X137296952Y-92282356D01*
X137637630Y-92623629D01*
X138150900Y-92836757D01*
X138706661Y-92837242D01*
X139220303Y-92625010D01*
X139613629Y-92232370D01*
X139699949Y-92024488D01*
X139784990Y-92230303D01*
X140177630Y-92623629D01*
X140690900Y-92836757D01*
X141246661Y-92837242D01*
X141760303Y-92625010D01*
X142153629Y-92232370D01*
X142239949Y-92024488D01*
X142324990Y-92230303D01*
X142717630Y-92623629D01*
X143230900Y-92836757D01*
X143786661Y-92837242D01*
X144300303Y-92625010D01*
X144693629Y-92232370D01*
X144779949Y-92024488D01*
X144864990Y-92230303D01*
X145257630Y-92623629D01*
X145770900Y-92836757D01*
X146326661Y-92837242D01*
X146840303Y-92625010D01*
X147233629Y-92232370D01*
X147319949Y-92024488D01*
X147404990Y-92230303D01*
M02*
