G04 #@! TF.GenerationSoftware,KiCad,Pcbnew,8.0.6*
G04 #@! TF.CreationDate,2025-01-21T13:52:22-05:00*
G04 #@! TF.ProjectId,term,7465726d-2e6b-4696-9361-645f70636258,rev?*
G04 #@! TF.SameCoordinates,Original*
G04 #@! TF.FileFunction,Copper,L2,Bot*
G04 #@! TF.FilePolarity,Positive*
%FSLAX46Y46*%
G04 Gerber Fmt 4.6, Leading zero omitted, Abs format (unit mm)*
G04 Created by KiCad (PCBNEW 8.0.6) date 2025-01-21 13:52:22*
%MOMM*%
%LPD*%
G01*
G04 APERTURE LIST*
G04 Aperture macros list*
%AMRoundRect*
0 Rectangle with rounded corners*
0 $1 Rounding radius*
0 $2 $3 $4 $5 $6 $7 $8 $9 X,Y pos of 4 corners*
0 Add a 4 corners polygon primitive as box body*
4,1,4,$2,$3,$4,$5,$6,$7,$8,$9,$2,$3,0*
0 Add four circle primitives for the rounded corners*
1,1,$1+$1,$2,$3*
1,1,$1+$1,$4,$5*
1,1,$1+$1,$6,$7*
1,1,$1+$1,$8,$9*
0 Add four rect primitives between the rounded corners*
20,1,$1+$1,$2,$3,$4,$5,0*
20,1,$1+$1,$4,$5,$6,$7,0*
20,1,$1+$1,$6,$7,$8,$9,0*
20,1,$1+$1,$8,$9,$2,$3,0*%
G04 Aperture macros list end*
G04 #@! TA.AperFunction,ComponentPad*
%ADD10RoundRect,0.250000X0.639000X-0.639000X0.639000X0.639000X-0.639000X0.639000X-0.639000X-0.639000X0*%
G04 #@! TD*
G04 #@! TA.AperFunction,ComponentPad*
%ADD11C,1.778000*%
G04 #@! TD*
G04 #@! TA.AperFunction,ComponentPad*
%ADD12R,2.032000X1.778000*%
G04 #@! TD*
G04 #@! TA.AperFunction,ComponentPad*
%ADD13C,1.016000*%
G04 #@! TD*
G04 #@! TA.AperFunction,ComponentPad*
%ADD14C,2.032000*%
G04 #@! TD*
G04 #@! TA.AperFunction,ComponentPad*
%ADD15C,2.286000*%
G04 #@! TD*
G04 #@! TA.AperFunction,SMDPad,CuDef*
%ADD16RoundRect,0.250000X-0.385000X-1.140000X0.385000X-1.140000X0.385000X1.140000X-0.385000X1.140000X0*%
G04 #@! TD*
G04 #@! TA.AperFunction,SMDPad,CuDef*
%ADD17RoundRect,0.250000X0.400000X-0.350000X0.400000X0.350000X-0.400000X0.350000X-0.400000X-0.350000X0*%
G04 #@! TD*
G04 #@! TA.AperFunction,SMDPad,CuDef*
%ADD18RoundRect,0.250000X-0.250000X-0.400000X0.250000X-0.400000X0.250000X0.400000X-0.250000X0.400000X0*%
G04 #@! TD*
G04 #@! TA.AperFunction,SMDPad,CuDef*
%ADD19RoundRect,0.250000X0.250000X0.400000X-0.250000X0.400000X-0.250000X-0.400000X0.250000X-0.400000X0*%
G04 #@! TD*
G04 #@! TA.AperFunction,SMDPad,CuDef*
%ADD20RoundRect,0.250000X-0.400000X0.250000X-0.400000X-0.250000X0.400000X-0.250000X0.400000X0.250000X0*%
G04 #@! TD*
G04 #@! TA.AperFunction,ViaPad*
%ADD21C,1.016000*%
G04 #@! TD*
G04 #@! TA.AperFunction,ViaPad*
%ADD22C,0.889000*%
G04 #@! TD*
G04 #@! TA.AperFunction,Conductor*
%ADD23C,1.016000*%
G04 #@! TD*
G04 #@! TA.AperFunction,Conductor*
%ADD24C,0.254000*%
G04 #@! TD*
G04 APERTURE END LIST*
D10*
X135890000Y-91440000D03*
D11*
X135890000Y-88900000D03*
X138430000Y-91440000D03*
X138430000Y-88900000D03*
X140970000Y-91440000D03*
X140970000Y-88900000D03*
X143510000Y-91440000D03*
X143510000Y-88900000D03*
X146050000Y-91440000D03*
X146050000Y-88900000D03*
X148590000Y-91440000D03*
X148590000Y-88900000D03*
X151130000Y-91440000D03*
X151130000Y-88900000D03*
X153670000Y-91440000D03*
X153670000Y-88900000D03*
D12*
X128524000Y-90170000D03*
X128524000Y-92710000D03*
X128524000Y-95250000D03*
X128524000Y-97790000D03*
X128524000Y-100330000D03*
X128524000Y-102870000D03*
X128524000Y-105410000D03*
X128524000Y-107950000D03*
X161036000Y-107950000D03*
X161036000Y-105410000D03*
X161036000Y-102870000D03*
X161036000Y-100330000D03*
X161036000Y-97790000D03*
X161036000Y-95250000D03*
X161036000Y-92710000D03*
X161036000Y-90170000D03*
D13*
X158750000Y-99060000D03*
X158750000Y-101600000D03*
X158750000Y-104140000D03*
X130810000Y-99060000D03*
X130810000Y-101600000D03*
X130810000Y-104140000D03*
X140970000Y-101600000D03*
X140970000Y-106680000D03*
X152400000Y-104140000D03*
X152400000Y-109220000D03*
D14*
X131064000Y-96266000D03*
X158496000Y-96266000D03*
D15*
X129540000Y-87122000D03*
X160020000Y-87122000D03*
D13*
X130810000Y-106680000D03*
X158750000Y-106680000D03*
X140970000Y-96520000D03*
X138430000Y-93980000D03*
D16*
X143510000Y-96655000D03*
X143510000Y-101465000D03*
X146050000Y-96655000D03*
X146050000Y-101465000D03*
D17*
X148971000Y-100260000D03*
X148971000Y-97860000D03*
D18*
X133139000Y-104140000D03*
X135339000Y-104140000D03*
D19*
X135339000Y-101600000D03*
X133139000Y-101600000D03*
D18*
X133139000Y-96520000D03*
X135339000Y-96520000D03*
D19*
X135339000Y-99060000D03*
X133139000Y-99060000D03*
X149690000Y-93980000D03*
X147490000Y-93980000D03*
D20*
X156337000Y-98214000D03*
X156337000Y-100414000D03*
D18*
X148760000Y-96012000D03*
X150960000Y-96012000D03*
D21*
X137668000Y-99060000D03*
X137668000Y-104140000D03*
D22*
X148336000Y-102108000D03*
X149225000Y-102997000D03*
D23*
X135339000Y-99060000D02*
X137668000Y-99060000D01*
X135339000Y-101600000D02*
X137668000Y-101600000D01*
X137668000Y-104140000D02*
X137668000Y-101600000D01*
X137668000Y-99060000D02*
X137668000Y-101600000D01*
X128524000Y-95250000D02*
X129950000Y-95250000D01*
X161036000Y-95250000D02*
X159610000Y-95250000D01*
D24*
X156337000Y-98214000D02*
X157310000Y-98214000D01*
X157310000Y-98214000D02*
X157734000Y-97790000D01*
X157734000Y-97790000D02*
X161036000Y-97790000D01*
X133139000Y-96520000D02*
X133139000Y-97493000D01*
X133139000Y-98087000D02*
X132842000Y-97790000D01*
X128524000Y-97790000D02*
X132842000Y-97790000D01*
X133139000Y-97493000D02*
X132842000Y-97790000D01*
X133139000Y-99060000D02*
X133139000Y-98087000D01*
X147490000Y-93980000D02*
X146558000Y-93980000D01*
X146050000Y-101465000D02*
X146050000Y-99060000D01*
X146050000Y-99060000D02*
X146050000Y-96655000D01*
X143510000Y-99060000D02*
X146050000Y-99060000D01*
X135890000Y-91440000D02*
X135890000Y-92964000D01*
X146558000Y-93980000D02*
X146050000Y-94488000D01*
X146050000Y-94488000D02*
X146050000Y-96655000D01*
X141986000Y-99060000D02*
X143510000Y-99060000D01*
X135890000Y-92964000D02*
X141986000Y-99060000D01*
X151892000Y-97282000D02*
X151892000Y-94742000D01*
X151892000Y-94742000D02*
X151130000Y-93980000D01*
X151130000Y-93218000D02*
X151130000Y-91440000D01*
X148336000Y-102108000D02*
X149098000Y-102108000D01*
X149690000Y-93980000D02*
X151130000Y-93980000D01*
X149098000Y-102108000D02*
X150241000Y-100965000D01*
X151130000Y-93980000D02*
X151130000Y-93218000D01*
X150241000Y-98933000D02*
X151892000Y-97282000D01*
X150241000Y-100965000D02*
X150241000Y-98933000D01*
X150876000Y-101346000D02*
X150876000Y-99187000D01*
X153670000Y-93599000D02*
X153670000Y-91440000D01*
X152527000Y-94742000D02*
X153670000Y-93599000D01*
X149225000Y-102997000D02*
X150876000Y-101346000D01*
X152527000Y-97536000D02*
X152527000Y-94742000D01*
X150876000Y-99187000D02*
X152527000Y-97536000D01*
X150298000Y-97860000D02*
X148971000Y-97860000D01*
X150960000Y-96012000D02*
X150960000Y-97198000D01*
X150960000Y-97198000D02*
X150298000Y-97860000D01*
X148760000Y-96012000D02*
X148760000Y-95166000D01*
X148590000Y-94996000D02*
X148590000Y-91440000D01*
X148760000Y-95166000D02*
X148590000Y-94996000D01*
X133139000Y-102573000D02*
X133139000Y-101600000D01*
X133139000Y-103167000D02*
X132842000Y-102870000D01*
X133139000Y-104140000D02*
X133139000Y-103167000D01*
X128524000Y-102870000D02*
X132842000Y-102870000D01*
X132842000Y-102870000D02*
X133139000Y-102573000D01*
G04 #@! TA.AperFunction,Conductor*
G36*
X147388959Y-91915423D02*
G01*
X147434195Y-91967627D01*
X147485511Y-92077675D01*
X147485512Y-92077677D01*
X147613016Y-92259772D01*
X147613020Y-92259777D01*
X147613023Y-92259781D01*
X147770219Y-92416977D01*
X147770222Y-92416979D01*
X147952324Y-92544489D01*
X148008749Y-92570800D01*
X148062035Y-92617717D01*
X148081500Y-92684995D01*
X148081500Y-92853788D01*
X148061498Y-92921909D01*
X148007842Y-92968402D01*
X147937568Y-92978506D01*
X147920350Y-92974785D01*
X147892009Y-92966551D01*
X147839579Y-92951319D01*
X147839575Y-92951318D01*
X147839574Y-92951318D01*
X147839572Y-92951317D01*
X147839567Y-92951317D01*
X147803778Y-92948500D01*
X147803770Y-92948500D01*
X147176230Y-92948500D01*
X147176222Y-92948500D01*
X147140432Y-92951317D01*
X147140420Y-92951319D01*
X146987203Y-92995833D01*
X146849874Y-93077049D01*
X146849867Y-93077055D01*
X146737055Y-93189867D01*
X146737049Y-93189874D01*
X146655833Y-93327203D01*
X146640305Y-93380653D01*
X146602092Y-93440489D01*
X146537595Y-93470166D01*
X146519308Y-93471500D01*
X146491055Y-93471500D01*
X146361726Y-93506153D01*
X146361724Y-93506154D01*
X146361721Y-93506155D01*
X146245776Y-93573096D01*
X146245766Y-93573104D01*
X145643099Y-94175771D01*
X145642836Y-94176229D01*
X145642810Y-94176273D01*
X145576155Y-94291721D01*
X145576154Y-94291724D01*
X145576153Y-94291726D01*
X145563119Y-94340372D01*
X145541500Y-94421056D01*
X145541500Y-94798665D01*
X145521498Y-94866786D01*
X145467842Y-94913279D01*
X145450656Y-94919661D01*
X145412204Y-94930833D01*
X145274874Y-95012049D01*
X145274867Y-95012055D01*
X145162055Y-95124867D01*
X145162049Y-95124874D01*
X145080833Y-95262203D01*
X145036319Y-95415420D01*
X145036317Y-95415432D01*
X145033500Y-95451221D01*
X145033500Y-97858778D01*
X145036317Y-97894567D01*
X145036319Y-97894579D01*
X145080833Y-98047796D01*
X145162049Y-98185125D01*
X145162055Y-98185132D01*
X145274868Y-98297945D01*
X145274870Y-98297946D01*
X145274873Y-98297949D01*
X145307167Y-98317047D01*
X145355619Y-98368939D01*
X145368324Y-98438790D01*
X145341249Y-98504421D01*
X145282989Y-98544995D01*
X145243027Y-98551500D01*
X144315991Y-98551500D01*
X144247870Y-98531498D01*
X144201377Y-98477842D01*
X144191273Y-98407568D01*
X144220767Y-98342988D01*
X144251851Y-98317047D01*
X144284817Y-98297550D01*
X144284821Y-98297547D01*
X144397547Y-98184821D01*
X144397550Y-98184817D01*
X144478705Y-98047593D01*
X144523185Y-97894492D01*
X144526000Y-97858724D01*
X144526000Y-96909000D01*
X142494001Y-96909000D01*
X142494001Y-97858724D01*
X142496814Y-97894493D01*
X142541294Y-98047593D01*
X142622449Y-98184817D01*
X142622452Y-98184821D01*
X142735178Y-98297547D01*
X142735182Y-98297550D01*
X142768149Y-98317047D01*
X142816601Y-98368940D01*
X142829306Y-98438790D01*
X142802230Y-98504421D01*
X142743970Y-98544995D01*
X142704009Y-98551500D01*
X142248817Y-98551500D01*
X142180696Y-98531498D01*
X142159722Y-98514595D01*
X139096403Y-95451275D01*
X142494000Y-95451275D01*
X142494000Y-96401000D01*
X143256000Y-96401000D01*
X143764000Y-96401000D01*
X144525999Y-96401000D01*
X144525999Y-95451275D01*
X144523185Y-95415506D01*
X144478705Y-95262406D01*
X144397550Y-95125182D01*
X144397547Y-95125178D01*
X144284821Y-95012452D01*
X144284817Y-95012449D01*
X144147593Y-94931294D01*
X143994492Y-94886814D01*
X143958724Y-94884000D01*
X143764000Y-94884000D01*
X143764000Y-96401000D01*
X143256000Y-96401000D01*
X143256000Y-94884000D01*
X143061276Y-94884000D01*
X143025506Y-94886814D01*
X142872406Y-94931294D01*
X142735182Y-95012449D01*
X142735178Y-95012452D01*
X142622452Y-95125178D01*
X142622449Y-95125182D01*
X142541294Y-95262406D01*
X142496814Y-95415507D01*
X142494000Y-95451275D01*
X139096403Y-95451275D01*
X136565277Y-92920149D01*
X136531251Y-92857837D01*
X136536316Y-92787022D01*
X136578863Y-92730186D01*
X136622832Y-92710994D01*
X136622392Y-92709478D01*
X136628581Y-92707680D01*
X136781792Y-92663168D01*
X136781794Y-92663166D01*
X136781796Y-92663166D01*
X136919125Y-92581950D01*
X136919124Y-92581950D01*
X136919127Y-92581949D01*
X137031949Y-92469127D01*
X137113168Y-92331792D01*
X137154245Y-92190400D01*
X137192457Y-92130569D01*
X137256953Y-92100891D01*
X137327255Y-92110794D01*
X137378454Y-92153286D01*
X137453016Y-92259772D01*
X137453023Y-92259781D01*
X137610219Y-92416977D01*
X137610222Y-92416979D01*
X137610227Y-92416983D01*
X137684694Y-92469125D01*
X137792323Y-92544488D01*
X137993804Y-92638440D01*
X138208537Y-92695978D01*
X138430000Y-92715353D01*
X138651463Y-92695978D01*
X138866196Y-92638440D01*
X139067677Y-92544488D01*
X139249781Y-92416977D01*
X139406977Y-92259781D01*
X139534488Y-92077677D01*
X139585805Y-91967626D01*
X139632722Y-91914342D01*
X139700999Y-91894881D01*
X139768959Y-91915423D01*
X139814195Y-91967627D01*
X139865511Y-92077675D01*
X139865512Y-92077677D01*
X139993016Y-92259772D01*
X139993020Y-92259777D01*
X139993023Y-92259781D01*
X140150219Y-92416977D01*
X140150222Y-92416979D01*
X140150227Y-92416983D01*
X140224694Y-92469125D01*
X140332323Y-92544488D01*
X140533804Y-92638440D01*
X140748537Y-92695978D01*
X140970000Y-92715353D01*
X141191463Y-92695978D01*
X141406196Y-92638440D01*
X141607677Y-92544488D01*
X141789781Y-92416977D01*
X141946977Y-92259781D01*
X142074488Y-92077677D01*
X142125805Y-91967626D01*
X142172722Y-91914342D01*
X142240999Y-91894881D01*
X142308959Y-91915423D01*
X142354195Y-91967627D01*
X142405511Y-92077675D01*
X142405512Y-92077677D01*
X142533016Y-92259772D01*
X142533020Y-92259777D01*
X142533023Y-92259781D01*
X142690219Y-92416977D01*
X142690222Y-92416979D01*
X142690227Y-92416983D01*
X142764694Y-92469125D01*
X142872323Y-92544488D01*
X143073804Y-92638440D01*
X143288537Y-92695978D01*
X143510000Y-92715353D01*
X143731463Y-92695978D01*
X143946196Y-92638440D01*
X144147677Y-92544488D01*
X144329781Y-92416977D01*
X144486977Y-92259781D01*
X144614488Y-92077677D01*
X144665805Y-91967626D01*
X144712722Y-91914342D01*
X144780999Y-91894881D01*
X144848959Y-91915423D01*
X144894195Y-91967627D01*
X144945511Y-92077675D01*
X144945512Y-92077677D01*
X145073016Y-92259772D01*
X145073020Y-92259777D01*
X145073023Y-92259781D01*
X145230219Y-92416977D01*
X145230222Y-92416979D01*
X145230227Y-92416983D01*
X145304694Y-92469125D01*
X145412323Y-92544488D01*
X145613804Y-92638440D01*
X145828537Y-92695978D01*
X146050000Y-92715353D01*
X146271463Y-92695978D01*
X146486196Y-92638440D01*
X146687677Y-92544488D01*
X146869781Y-92416977D01*
X147026977Y-92259781D01*
X147154488Y-92077677D01*
X147205805Y-91967626D01*
X147252722Y-91914342D01*
X147320999Y-91894881D01*
X147388959Y-91915423D01*
G37*
G04 #@! TD.AperFunction*
G04 #@! TA.AperFunction,Conductor*
G36*
X140496619Y-89096081D02*
G01*
X140563498Y-89211920D01*
X140658080Y-89306502D01*
X140773919Y-89373381D01*
X140838519Y-89390690D01*
X140269395Y-89959813D01*
X140269395Y-89959814D01*
X140332575Y-90004053D01*
X140332574Y-90004053D01*
X140442964Y-90055529D01*
X140496249Y-90102447D01*
X140515710Y-90170724D01*
X140495168Y-90238684D01*
X140442964Y-90283919D01*
X140332323Y-90335512D01*
X140150222Y-90463020D01*
X140150216Y-90463025D01*
X139993025Y-90620216D01*
X139993020Y-90620222D01*
X139865512Y-90802323D01*
X139814195Y-90912373D01*
X139767277Y-90965658D01*
X139699000Y-90985119D01*
X139631040Y-90964577D01*
X139585805Y-90912373D01*
X139575964Y-90891269D01*
X139534488Y-90802324D01*
X139406977Y-90620219D01*
X139249781Y-90463023D01*
X139249777Y-90463020D01*
X139249772Y-90463016D01*
X139067677Y-90335512D01*
X139067675Y-90335511D01*
X138987350Y-90298055D01*
X138957034Y-90283918D01*
X138903750Y-90237002D01*
X138884289Y-90168725D01*
X138904831Y-90100765D01*
X138957035Y-90055529D01*
X139067425Y-90004053D01*
X139067426Y-90004052D01*
X139130603Y-89959814D01*
X139130603Y-89959812D01*
X138561481Y-89390690D01*
X138626081Y-89373381D01*
X138741920Y-89306502D01*
X138836502Y-89211920D01*
X138903381Y-89096081D01*
X138920690Y-89031481D01*
X139489812Y-89600603D01*
X139489814Y-89600603D01*
X139534052Y-89537426D01*
X139534053Y-89537425D01*
X139585805Y-89426443D01*
X139632722Y-89373158D01*
X139700999Y-89353697D01*
X139768959Y-89374239D01*
X139814195Y-89426443D01*
X139865946Y-89537425D01*
X139910184Y-89600603D01*
X139910185Y-89600603D01*
X140479309Y-89031479D01*
X140496619Y-89096081D01*
G37*
G04 #@! TD.AperFunction*
G04 #@! TA.AperFunction,Conductor*
G36*
X143036619Y-89096081D02*
G01*
X143103498Y-89211920D01*
X143198080Y-89306502D01*
X143313919Y-89373381D01*
X143378519Y-89390690D01*
X142809395Y-89959813D01*
X142809395Y-89959814D01*
X142872575Y-90004053D01*
X142872574Y-90004053D01*
X142982964Y-90055529D01*
X143036249Y-90102447D01*
X143055710Y-90170724D01*
X143035168Y-90238684D01*
X142982964Y-90283919D01*
X142872323Y-90335512D01*
X142690222Y-90463020D01*
X142690216Y-90463025D01*
X142533025Y-90620216D01*
X142533020Y-90620222D01*
X142405512Y-90802323D01*
X142354195Y-90912373D01*
X142307277Y-90965658D01*
X142239000Y-90985119D01*
X142171040Y-90964577D01*
X142125805Y-90912373D01*
X142115964Y-90891269D01*
X142074488Y-90802324D01*
X141946977Y-90620219D01*
X141789781Y-90463023D01*
X141789777Y-90463020D01*
X141789772Y-90463016D01*
X141607677Y-90335512D01*
X141607675Y-90335511D01*
X141527350Y-90298055D01*
X141497034Y-90283918D01*
X141443750Y-90237002D01*
X141424289Y-90168725D01*
X141444831Y-90100765D01*
X141497035Y-90055529D01*
X141607425Y-90004053D01*
X141607426Y-90004052D01*
X141670603Y-89959814D01*
X141670603Y-89959812D01*
X141101481Y-89390690D01*
X141166081Y-89373381D01*
X141281920Y-89306502D01*
X141376502Y-89211920D01*
X141443381Y-89096081D01*
X141460690Y-89031481D01*
X142029812Y-89600603D01*
X142029814Y-89600603D01*
X142074052Y-89537426D01*
X142074053Y-89537425D01*
X142125805Y-89426443D01*
X142172722Y-89373158D01*
X142240999Y-89353697D01*
X142308959Y-89374239D01*
X142354195Y-89426443D01*
X142405946Y-89537425D01*
X142450184Y-89600603D01*
X142450185Y-89600603D01*
X143019309Y-89031479D01*
X143036619Y-89096081D01*
G37*
G04 #@! TD.AperFunction*
G04 #@! TA.AperFunction,Conductor*
G36*
X145576619Y-89096081D02*
G01*
X145643498Y-89211920D01*
X145738080Y-89306502D01*
X145853919Y-89373381D01*
X145918519Y-89390690D01*
X145349395Y-89959813D01*
X145349395Y-89959814D01*
X145412575Y-90004053D01*
X145412574Y-90004053D01*
X145522964Y-90055529D01*
X145576249Y-90102447D01*
X145595710Y-90170724D01*
X145575168Y-90238684D01*
X145522964Y-90283919D01*
X145412323Y-90335512D01*
X145230222Y-90463020D01*
X145230216Y-90463025D01*
X145073025Y-90620216D01*
X145073020Y-90620222D01*
X144945512Y-90802323D01*
X144894195Y-90912373D01*
X144847277Y-90965658D01*
X144779000Y-90985119D01*
X144711040Y-90964577D01*
X144665805Y-90912373D01*
X144655964Y-90891269D01*
X144614488Y-90802324D01*
X144486977Y-90620219D01*
X144329781Y-90463023D01*
X144329777Y-90463020D01*
X144329772Y-90463016D01*
X144147677Y-90335512D01*
X144147675Y-90335511D01*
X144067350Y-90298055D01*
X144037034Y-90283918D01*
X143983750Y-90237002D01*
X143964289Y-90168725D01*
X143984831Y-90100765D01*
X144037035Y-90055529D01*
X144147425Y-90004053D01*
X144147426Y-90004052D01*
X144210603Y-89959814D01*
X144210603Y-89959812D01*
X143641481Y-89390690D01*
X143706081Y-89373381D01*
X143821920Y-89306502D01*
X143916502Y-89211920D01*
X143983381Y-89096081D01*
X144000690Y-89031481D01*
X144569812Y-89600603D01*
X144569814Y-89600603D01*
X144614052Y-89537426D01*
X144614053Y-89537425D01*
X144665805Y-89426443D01*
X144712722Y-89373158D01*
X144780999Y-89353697D01*
X144848959Y-89374239D01*
X144894195Y-89426443D01*
X144945946Y-89537425D01*
X144990184Y-89600603D01*
X144990185Y-89600603D01*
X145559309Y-89031479D01*
X145576619Y-89096081D01*
G37*
G04 #@! TD.AperFunction*
G04 #@! TA.AperFunction,Conductor*
G36*
X148116619Y-89096081D02*
G01*
X148183498Y-89211920D01*
X148278080Y-89306502D01*
X148393919Y-89373381D01*
X148458519Y-89390690D01*
X147889395Y-89959813D01*
X147889395Y-89959814D01*
X147952575Y-90004053D01*
X147952574Y-90004053D01*
X148062964Y-90055529D01*
X148116249Y-90102447D01*
X148135710Y-90170724D01*
X148115168Y-90238684D01*
X148062964Y-90283919D01*
X147952323Y-90335512D01*
X147770222Y-90463020D01*
X147770216Y-90463025D01*
X147613025Y-90620216D01*
X147613020Y-90620222D01*
X147485512Y-90802323D01*
X147434195Y-90912373D01*
X147387277Y-90965658D01*
X147319000Y-90985119D01*
X147251040Y-90964577D01*
X147205805Y-90912373D01*
X147195964Y-90891269D01*
X147154488Y-90802324D01*
X147026977Y-90620219D01*
X146869781Y-90463023D01*
X146869777Y-90463020D01*
X146869772Y-90463016D01*
X146687677Y-90335512D01*
X146687675Y-90335511D01*
X146607350Y-90298055D01*
X146577034Y-90283918D01*
X146523750Y-90237002D01*
X146504289Y-90168725D01*
X146524831Y-90100765D01*
X146577035Y-90055529D01*
X146687425Y-90004053D01*
X146687426Y-90004052D01*
X146750603Y-89959814D01*
X146750603Y-89959812D01*
X146181481Y-89390690D01*
X146246081Y-89373381D01*
X146361920Y-89306502D01*
X146456502Y-89211920D01*
X146523381Y-89096081D01*
X146540690Y-89031481D01*
X147109812Y-89600603D01*
X147109814Y-89600603D01*
X147154052Y-89537426D01*
X147154053Y-89537425D01*
X147205805Y-89426443D01*
X147252722Y-89373158D01*
X147320999Y-89353697D01*
X147388959Y-89374239D01*
X147434195Y-89426443D01*
X147485946Y-89537425D01*
X147530184Y-89600603D01*
X147530185Y-89600603D01*
X148099309Y-89031479D01*
X148116619Y-89096081D01*
G37*
G04 #@! TD.AperFunction*
G04 #@! TA.AperFunction,Conductor*
G36*
X150656619Y-89096081D02*
G01*
X150723498Y-89211920D01*
X150818080Y-89306502D01*
X150933919Y-89373381D01*
X150998519Y-89390690D01*
X150429395Y-89959813D01*
X150429395Y-89959814D01*
X150492575Y-90004053D01*
X150492574Y-90004053D01*
X150602964Y-90055529D01*
X150656249Y-90102447D01*
X150675710Y-90170724D01*
X150655168Y-90238684D01*
X150602964Y-90283919D01*
X150492323Y-90335512D01*
X150310222Y-90463020D01*
X150310216Y-90463025D01*
X150153025Y-90620216D01*
X150153020Y-90620222D01*
X150025512Y-90802323D01*
X149974195Y-90912373D01*
X149927277Y-90965658D01*
X149859000Y-90985119D01*
X149791040Y-90964577D01*
X149745805Y-90912373D01*
X149735964Y-90891269D01*
X149694488Y-90802324D01*
X149566977Y-90620219D01*
X149409781Y-90463023D01*
X149409777Y-90463020D01*
X149409772Y-90463016D01*
X149227677Y-90335512D01*
X149227675Y-90335511D01*
X149147350Y-90298055D01*
X149117034Y-90283918D01*
X149063750Y-90237002D01*
X149044289Y-90168725D01*
X149064831Y-90100765D01*
X149117035Y-90055529D01*
X149227425Y-90004053D01*
X149227426Y-90004052D01*
X149290603Y-89959814D01*
X149290603Y-89959812D01*
X148721481Y-89390690D01*
X148786081Y-89373381D01*
X148901920Y-89306502D01*
X148996502Y-89211920D01*
X149063381Y-89096081D01*
X149080690Y-89031481D01*
X149649812Y-89600603D01*
X149649814Y-89600603D01*
X149694052Y-89537426D01*
X149694053Y-89537425D01*
X149745805Y-89426443D01*
X149792722Y-89373158D01*
X149860999Y-89353697D01*
X149928959Y-89374239D01*
X149974195Y-89426443D01*
X150025946Y-89537425D01*
X150070184Y-89600603D01*
X150070185Y-89600603D01*
X150639309Y-89031479D01*
X150656619Y-89096081D01*
G37*
G04 #@! TD.AperFunction*
G04 #@! TA.AperFunction,Conductor*
G36*
X152189812Y-89600603D02*
G01*
X152189814Y-89600603D01*
X152234052Y-89537426D01*
X152234053Y-89537425D01*
X152285529Y-89427035D01*
X152332446Y-89373750D01*
X152400723Y-89354289D01*
X152468683Y-89374831D01*
X152513919Y-89427035D01*
X152565511Y-89537675D01*
X152565512Y-89537677D01*
X152693016Y-89719772D01*
X152693020Y-89719777D01*
X152693023Y-89719781D01*
X152850219Y-89876977D01*
X152850222Y-89876979D01*
X152850227Y-89876983D01*
X152954124Y-89949732D01*
X153032323Y-90004488D01*
X153141781Y-90055529D01*
X153142373Y-90055805D01*
X153195658Y-90102722D01*
X153215119Y-90170999D01*
X153194577Y-90238959D01*
X153142373Y-90284195D01*
X153032323Y-90335512D01*
X152850222Y-90463020D01*
X152850216Y-90463025D01*
X152693025Y-90620216D01*
X152693020Y-90620222D01*
X152565512Y-90802323D01*
X152514195Y-90912373D01*
X152467277Y-90965658D01*
X152399000Y-90985119D01*
X152331040Y-90964577D01*
X152285805Y-90912373D01*
X152275964Y-90891269D01*
X152234488Y-90802324D01*
X152106977Y-90620219D01*
X151949781Y-90463023D01*
X151949777Y-90463020D01*
X151949772Y-90463016D01*
X151767677Y-90335512D01*
X151767675Y-90335511D01*
X151687350Y-90298055D01*
X151657034Y-90283918D01*
X151603750Y-90237002D01*
X151584289Y-90168725D01*
X151604831Y-90100765D01*
X151657035Y-90055529D01*
X151767425Y-90004053D01*
X151767426Y-90004052D01*
X151830603Y-89959814D01*
X151830603Y-89959812D01*
X151261481Y-89390690D01*
X151326081Y-89373381D01*
X151441920Y-89306502D01*
X151536502Y-89211920D01*
X151603381Y-89096081D01*
X151620690Y-89031481D01*
X152189812Y-89600603D01*
G37*
G04 #@! TD.AperFunction*
G04 #@! TA.AperFunction,Conductor*
G36*
X137956619Y-89096081D02*
G01*
X138023498Y-89211920D01*
X138118080Y-89306502D01*
X138233919Y-89373381D01*
X138298519Y-89390690D01*
X137729395Y-89959813D01*
X137729395Y-89959814D01*
X137792575Y-90004053D01*
X137792574Y-90004053D01*
X137902964Y-90055529D01*
X137956249Y-90102447D01*
X137975710Y-90170724D01*
X137955168Y-90238684D01*
X137902964Y-90283919D01*
X137792323Y-90335512D01*
X137610222Y-90463020D01*
X137610216Y-90463025D01*
X137453025Y-90620216D01*
X137453020Y-90620222D01*
X137378454Y-90726713D01*
X137322996Y-90771041D01*
X137252377Y-90778350D01*
X137189017Y-90746319D01*
X137154245Y-90689597D01*
X137113168Y-90548208D01*
X137113166Y-90548206D01*
X137113166Y-90548203D01*
X137031950Y-90410874D01*
X137031944Y-90410867D01*
X136919132Y-90298055D01*
X136919125Y-90298049D01*
X136781796Y-90216833D01*
X136640404Y-90175755D01*
X136580568Y-90137542D01*
X136550891Y-90073045D01*
X136560795Y-90002743D01*
X136603287Y-89951545D01*
X136709772Y-89876983D01*
X136709781Y-89876977D01*
X136866977Y-89719781D01*
X136994488Y-89537677D01*
X137046081Y-89427034D01*
X137092996Y-89373751D01*
X137161273Y-89354289D01*
X137229234Y-89374830D01*
X137274469Y-89427034D01*
X137325943Y-89537420D01*
X137325946Y-89537425D01*
X137370184Y-89600603D01*
X137370185Y-89600603D01*
X137939309Y-89031479D01*
X137956619Y-89096081D01*
G37*
G04 #@! TD.AperFunction*
G04 #@! TA.AperFunction,Conductor*
G36*
X162451621Y-83890502D02*
G01*
X162498114Y-83944158D01*
X162509500Y-83996500D01*
X162509500Y-88894787D01*
X162489498Y-88962908D01*
X162435842Y-89009401D01*
X162365568Y-89019505D01*
X162300988Y-88990011D01*
X162294405Y-88983882D01*
X162276747Y-88966224D01*
X162276745Y-88966223D01*
X162162362Y-88910304D01*
X162088207Y-88899500D01*
X162088206Y-88899500D01*
X160072142Y-88899500D01*
X160022276Y-88884858D01*
X159999215Y-88897238D01*
X159988295Y-88898773D01*
X159988306Y-88898843D01*
X159983796Y-88899500D01*
X159983794Y-88899500D01*
X159931647Y-88907097D01*
X159909638Y-88910304D01*
X159909636Y-88910304D01*
X159795254Y-88966223D01*
X159795252Y-88966224D01*
X159705224Y-89056252D01*
X159705223Y-89056254D01*
X159649304Y-89170636D01*
X159649304Y-89170638D01*
X159638500Y-89244792D01*
X159638500Y-91095207D01*
X159649304Y-91169361D01*
X159649304Y-91169363D01*
X159705223Y-91283745D01*
X159705224Y-91283747D01*
X159772382Y-91350905D01*
X159806408Y-91413217D01*
X159801343Y-91484032D01*
X159772382Y-91529095D01*
X159705224Y-91596252D01*
X159705223Y-91596254D01*
X159649304Y-91710636D01*
X159649304Y-91710638D01*
X159638500Y-91784792D01*
X159638500Y-93635207D01*
X159649304Y-93709361D01*
X159649304Y-93709363D01*
X159705223Y-93823745D01*
X159705224Y-93823747D01*
X159772735Y-93891258D01*
X159806761Y-93953570D01*
X159801696Y-94024385D01*
X159772736Y-94069448D01*
X159705634Y-94136549D01*
X159649791Y-94250781D01*
X159649790Y-94250783D01*
X159639000Y-94324840D01*
X159639000Y-96175159D01*
X159649790Y-96249216D01*
X159649791Y-96249218D01*
X159705635Y-96363450D01*
X159705636Y-96363452D01*
X159772735Y-96430551D01*
X159806761Y-96492863D01*
X159801696Y-96563678D01*
X159772736Y-96608741D01*
X159705222Y-96676255D01*
X159649304Y-96790636D01*
X159649304Y-96790638D01*
X159638500Y-96864792D01*
X159638500Y-97155500D01*
X159618498Y-97223621D01*
X159564842Y-97270114D01*
X159512500Y-97281500D01*
X157667055Y-97281500D01*
X157580835Y-97304602D01*
X157537725Y-97316153D01*
X157537724Y-97316153D01*
X157446776Y-97368664D01*
X157421775Y-97383098D01*
X157421771Y-97383101D01*
X157324569Y-97480303D01*
X157262257Y-97514328D01*
X157191441Y-97509262D01*
X157146379Y-97480302D01*
X157127132Y-97461055D01*
X157127125Y-97461049D01*
X156989796Y-97379833D01*
X156836579Y-97335319D01*
X156836575Y-97335318D01*
X156836574Y-97335318D01*
X156836572Y-97335317D01*
X156836567Y-97335317D01*
X156800778Y-97332500D01*
X156800770Y-97332500D01*
X155873230Y-97332500D01*
X155873222Y-97332500D01*
X155837432Y-97335317D01*
X155837420Y-97335319D01*
X155684203Y-97379833D01*
X155546874Y-97461049D01*
X155546867Y-97461055D01*
X155434055Y-97573867D01*
X155434049Y-97573874D01*
X155352833Y-97711203D01*
X155308319Y-97864420D01*
X155308317Y-97864432D01*
X155305500Y-97900221D01*
X155305500Y-98527778D01*
X155308317Y-98563567D01*
X155308319Y-98563579D01*
X155352833Y-98716796D01*
X155434049Y-98854125D01*
X155434055Y-98854132D01*
X155546867Y-98966944D01*
X155546874Y-98966950D01*
X155684203Y-99048166D01*
X155684206Y-99048166D01*
X155684208Y-99048168D01*
X155837426Y-99092682D01*
X155852770Y-99093889D01*
X155873222Y-99095500D01*
X155873230Y-99095500D01*
X156800778Y-99095500D01*
X156819865Y-99093997D01*
X156836574Y-99092682D01*
X156989792Y-99048168D01*
X156989794Y-99048166D01*
X156989796Y-99048166D01*
X157117930Y-98972388D01*
X157127127Y-98966949D01*
X157239949Y-98854127D01*
X157239951Y-98854125D01*
X157281584Y-98783725D01*
X157333476Y-98735272D01*
X157373596Y-98722940D01*
X157376932Y-98722500D01*
X157376945Y-98722500D01*
X157506274Y-98687847D01*
X157622227Y-98620901D01*
X157907722Y-98335404D01*
X157970035Y-98301380D01*
X157996818Y-98298500D01*
X159512500Y-98298500D01*
X159580621Y-98318502D01*
X159627114Y-98372158D01*
X159638500Y-98424500D01*
X159638500Y-98715207D01*
X159649304Y-98789361D01*
X159649304Y-98789363D01*
X159705223Y-98903745D01*
X159705224Y-98903747D01*
X159772382Y-98970905D01*
X159806408Y-99033217D01*
X159801343Y-99104032D01*
X159772382Y-99149095D01*
X159705224Y-99216252D01*
X159705223Y-99216254D01*
X159649304Y-99330636D01*
X159649304Y-99330638D01*
X159638500Y-99404792D01*
X159638500Y-101255207D01*
X159649304Y-101329361D01*
X159649304Y-101329363D01*
X159705223Y-101443745D01*
X159705224Y-101443747D01*
X159772382Y-101510905D01*
X159806408Y-101573217D01*
X159801343Y-101644032D01*
X159772382Y-101689095D01*
X159705224Y-101756252D01*
X159705223Y-101756254D01*
X159649304Y-101870636D01*
X159649304Y-101870638D01*
X159638500Y-101944792D01*
X159638500Y-103795207D01*
X159649304Y-103869361D01*
X159649304Y-103869363D01*
X159705223Y-103983745D01*
X159705224Y-103983747D01*
X159772382Y-104050905D01*
X159806408Y-104113217D01*
X159801343Y-104184032D01*
X159772382Y-104229095D01*
X159705224Y-104296252D01*
X159705223Y-104296254D01*
X159649304Y-104410636D01*
X159649304Y-104410638D01*
X159638500Y-104484792D01*
X159638500Y-106335207D01*
X159649304Y-106409361D01*
X159649304Y-106409363D01*
X159705223Y-106523745D01*
X159705224Y-106523747D01*
X159772735Y-106591258D01*
X159806761Y-106653570D01*
X159801696Y-106724385D01*
X159772736Y-106769448D01*
X159705634Y-106836549D01*
X159649791Y-106950781D01*
X159649790Y-106950783D01*
X159639000Y-107024840D01*
X159639000Y-107442000D01*
X160969120Y-107442000D01*
X160839919Y-107476619D01*
X160724080Y-107543498D01*
X160629498Y-107638080D01*
X160562619Y-107753919D01*
X160528000Y-107883120D01*
X160528000Y-108016880D01*
X160562619Y-108146081D01*
X160629498Y-108261920D01*
X160724080Y-108356502D01*
X160839919Y-108423381D01*
X160969120Y-108458000D01*
X161102880Y-108458000D01*
X161232081Y-108423381D01*
X161347920Y-108356502D01*
X161442502Y-108261920D01*
X161509381Y-108146081D01*
X161544000Y-108016880D01*
X161544000Y-109220000D01*
X162088152Y-109220000D01*
X162088159Y-109219999D01*
X162162216Y-109209209D01*
X162162218Y-109209208D01*
X162276450Y-109153364D01*
X162276452Y-109153363D01*
X162294405Y-109135411D01*
X162356717Y-109101385D01*
X162427532Y-109106450D01*
X162484368Y-109148997D01*
X162509179Y-109215517D01*
X162509500Y-109224506D01*
X162509500Y-114123500D01*
X162489498Y-114191621D01*
X162435842Y-114238114D01*
X162383500Y-114249500D01*
X127176500Y-114249500D01*
X127108379Y-114229498D01*
X127061886Y-114175842D01*
X127050500Y-114123500D01*
X127050500Y-109224506D01*
X127070502Y-109156385D01*
X127124158Y-109109892D01*
X127194432Y-109099788D01*
X127259012Y-109129282D01*
X127265595Y-109135411D01*
X127283547Y-109153363D01*
X127283549Y-109153364D01*
X127397781Y-109209208D01*
X127397783Y-109209209D01*
X127471840Y-109219999D01*
X127471848Y-109220000D01*
X128016000Y-109220000D01*
X129032000Y-109220000D01*
X129576152Y-109220000D01*
X129576159Y-109219999D01*
X129650216Y-109209209D01*
X129650218Y-109209208D01*
X129764450Y-109153364D01*
X129764452Y-109153363D01*
X129854363Y-109063452D01*
X129854364Y-109063450D01*
X129910208Y-108949218D01*
X129910209Y-108949216D01*
X129920999Y-108875159D01*
X159639000Y-108875159D01*
X159649790Y-108949216D01*
X159649791Y-108949218D01*
X159705635Y-109063450D01*
X159705636Y-109063452D01*
X159795547Y-109153363D01*
X159795549Y-109153364D01*
X159909781Y-109209208D01*
X159909783Y-109209209D01*
X159983840Y-109219999D01*
X159983848Y-109220000D01*
X160528000Y-109220000D01*
X160528000Y-108458000D01*
X159639000Y-108458000D01*
X159639000Y-108875159D01*
X129920999Y-108875159D01*
X129921000Y-108875151D01*
X129921000Y-108458000D01*
X129032000Y-108458000D01*
X129032000Y-109220000D01*
X128016000Y-109220000D01*
X128016000Y-108016880D01*
X128050619Y-108146081D01*
X128117498Y-108261920D01*
X128212080Y-108356502D01*
X128327919Y-108423381D01*
X128457120Y-108458000D01*
X128590880Y-108458000D01*
X128720081Y-108423381D01*
X128835920Y-108356502D01*
X128930502Y-108261920D01*
X128997381Y-108146081D01*
X129032000Y-108016880D01*
X129032000Y-107883120D01*
X128997381Y-107753919D01*
X128930502Y-107638080D01*
X128835920Y-107543498D01*
X128720081Y-107476619D01*
X128590880Y-107442000D01*
X129921000Y-107442000D01*
X129921000Y-107024848D01*
X129920999Y-107024840D01*
X129910209Y-106950783D01*
X129910208Y-106950781D01*
X129854364Y-106836549D01*
X129854363Y-106836547D01*
X129787264Y-106769448D01*
X129753238Y-106707136D01*
X129758303Y-106636321D01*
X129787262Y-106591259D01*
X129854776Y-106523746D01*
X129910696Y-106409361D01*
X129921500Y-106335206D01*
X129921500Y-104484794D01*
X129910696Y-104410639D01*
X129905231Y-104399461D01*
X129854776Y-104296254D01*
X129854775Y-104296252D01*
X129787618Y-104229095D01*
X129753592Y-104166783D01*
X129758657Y-104095968D01*
X129787618Y-104050905D01*
X129854775Y-103983747D01*
X129854776Y-103983746D01*
X129910696Y-103869361D01*
X129921500Y-103795206D01*
X129921500Y-103504500D01*
X129941502Y-103436379D01*
X129995158Y-103389886D01*
X130047500Y-103378500D01*
X132168599Y-103378500D01*
X132236720Y-103398502D01*
X132283213Y-103452158D01*
X132293317Y-103522432D01*
X132289598Y-103539640D01*
X132267932Y-103614219D01*
X132260319Y-103640423D01*
X132260317Y-103640432D01*
X132257500Y-103676221D01*
X132257500Y-104603778D01*
X132260317Y-104639567D01*
X132260319Y-104639579D01*
X132304833Y-104792796D01*
X132386049Y-104930125D01*
X132386055Y-104930132D01*
X132498867Y-105042944D01*
X132498874Y-105042950D01*
X132636203Y-105124166D01*
X132636206Y-105124166D01*
X132636208Y-105124168D01*
X132789426Y-105168682D01*
X132804770Y-105169889D01*
X132825222Y-105171500D01*
X132825230Y-105171500D01*
X133452778Y-105171500D01*
X133471865Y-105169997D01*
X133488574Y-105168682D01*
X133641792Y-105124168D01*
X133641794Y-105124166D01*
X133641796Y-105124166D01*
X133779125Y-105042950D01*
X133779124Y-105042950D01*
X133779127Y-105042949D01*
X133891949Y-104930127D01*
X133950619Y-104830921D01*
X133973166Y-104792796D01*
X133973166Y-104792794D01*
X133973168Y-104792792D01*
X134017682Y-104639574D01*
X134018997Y-104622865D01*
X134020500Y-104603778D01*
X134020500Y-104603724D01*
X134458001Y-104603724D01*
X134460814Y-104639493D01*
X134505294Y-104792593D01*
X134586449Y-104929817D01*
X134586452Y-104929821D01*
X134699178Y-105042547D01*
X134699182Y-105042550D01*
X134836406Y-105123705D01*
X134989507Y-105168185D01*
X135025275Y-105170999D01*
X135593000Y-105170999D01*
X135652724Y-105170999D01*
X135688493Y-105168185D01*
X135841593Y-105123705D01*
X135978817Y-105042550D01*
X135978821Y-105042547D01*
X136091547Y-104929821D01*
X136091550Y-104929817D01*
X136172705Y-104792593D01*
X136217185Y-104639492D01*
X136220000Y-104603724D01*
X136220000Y-104394000D01*
X135593000Y-104394000D01*
X135593000Y-105170999D01*
X135025275Y-105170999D01*
X135084999Y-105170998D01*
X135085000Y-105170998D01*
X135085000Y-104394000D01*
X134458001Y-104394000D01*
X134458001Y-104603724D01*
X134020500Y-104603724D01*
X134020500Y-103676275D01*
X134458000Y-103676275D01*
X134458000Y-103886000D01*
X135085000Y-103886000D01*
X135593000Y-103886000D01*
X136219999Y-103886000D01*
X136219999Y-103676275D01*
X136217185Y-103640506D01*
X136172705Y-103487406D01*
X136091550Y-103350182D01*
X136091547Y-103350178D01*
X135978821Y-103237452D01*
X135978817Y-103237449D01*
X135841593Y-103156294D01*
X135688492Y-103111814D01*
X135652724Y-103109000D01*
X135593000Y-103109000D01*
X135593000Y-103886000D01*
X135085000Y-103886000D01*
X135085000Y-103109000D01*
X135084999Y-103108999D01*
X135025276Y-103109000D01*
X134989506Y-103111814D01*
X134836406Y-103156294D01*
X134699182Y-103237449D01*
X134699178Y-103237452D01*
X134586452Y-103350178D01*
X134586449Y-103350182D01*
X134505294Y-103487406D01*
X134460814Y-103640507D01*
X134458000Y-103676275D01*
X134020500Y-103676275D01*
X134020500Y-103676221D01*
X134017682Y-103640432D01*
X134017682Y-103640426D01*
X133973168Y-103487208D01*
X133973166Y-103487206D01*
X133973166Y-103487203D01*
X133891950Y-103349874D01*
X133891944Y-103349867D01*
X133779130Y-103237053D01*
X133779123Y-103237048D01*
X133708724Y-103195414D01*
X133660271Y-103143522D01*
X133647941Y-103103404D01*
X133647500Y-103100059D01*
X133647500Y-103100055D01*
X133612847Y-102970726D01*
X133612844Y-102970722D01*
X133612843Y-102970718D01*
X133591066Y-102933000D01*
X133574327Y-102864005D01*
X133591064Y-102807001D01*
X133612847Y-102769274D01*
X133633243Y-102693153D01*
X133647500Y-102639945D01*
X133647500Y-102639934D01*
X133647940Y-102636596D01*
X133649099Y-102633974D01*
X133649637Y-102631969D01*
X133649949Y-102632052D01*
X133676661Y-102571668D01*
X133708725Y-102544584D01*
X133779126Y-102502950D01*
X133891944Y-102390132D01*
X133891949Y-102390127D01*
X133973168Y-102252792D01*
X134017682Y-102099574D01*
X134018997Y-102082865D01*
X134020500Y-102063778D01*
X134020500Y-101136221D01*
X134017682Y-101100432D01*
X134017682Y-101100426D01*
X133973168Y-100947208D01*
X133973166Y-100947206D01*
X133973166Y-100947203D01*
X133891950Y-100809874D01*
X133891944Y-100809867D01*
X133779132Y-100697055D01*
X133779125Y-100697049D01*
X133641796Y-100615833D01*
X133488579Y-100571319D01*
X133488575Y-100571318D01*
X133488574Y-100571318D01*
X133488572Y-100571317D01*
X133488567Y-100571317D01*
X133452778Y-100568500D01*
X133452770Y-100568500D01*
X132825230Y-100568500D01*
X132825222Y-100568500D01*
X132789432Y-100571317D01*
X132789420Y-100571319D01*
X132636203Y-100615833D01*
X132498874Y-100697049D01*
X132498867Y-100697055D01*
X132386055Y-100809867D01*
X132386049Y-100809874D01*
X132304833Y-100947203D01*
X132260319Y-101100420D01*
X132260317Y-101100432D01*
X132257500Y-101136221D01*
X132257500Y-102063778D01*
X132260317Y-102099567D01*
X132260318Y-102099574D01*
X132289595Y-102200349D01*
X132289393Y-102271343D01*
X132250840Y-102330959D01*
X132186175Y-102360268D01*
X132168599Y-102361500D01*
X130047500Y-102361500D01*
X129979379Y-102341498D01*
X129932886Y-102287842D01*
X129921500Y-102235500D01*
X129921500Y-101944800D01*
X129921500Y-101944794D01*
X129910696Y-101870639D01*
X129861588Y-101770189D01*
X129854776Y-101756254D01*
X129854775Y-101756252D01*
X129787618Y-101689095D01*
X129753592Y-101626783D01*
X129758657Y-101555968D01*
X129787618Y-101510905D01*
X129854775Y-101443747D01*
X129854776Y-101443746D01*
X129910696Y-101329361D01*
X129921500Y-101255206D01*
X129921500Y-99404794D01*
X129910696Y-99330639D01*
X129902970Y-99314836D01*
X129854776Y-99216254D01*
X129854775Y-99216252D01*
X129787618Y-99149095D01*
X129753592Y-99086783D01*
X129758657Y-99015968D01*
X129787618Y-98970905D01*
X129854775Y-98903747D01*
X129854776Y-98903746D01*
X129910696Y-98789361D01*
X129921500Y-98715206D01*
X129921500Y-98424500D01*
X129941502Y-98356379D01*
X129995158Y-98309886D01*
X130047500Y-98298500D01*
X132168599Y-98298500D01*
X132236720Y-98318502D01*
X132283213Y-98372158D01*
X132293317Y-98442432D01*
X132289598Y-98459640D01*
X132267913Y-98534285D01*
X132260319Y-98560423D01*
X132260317Y-98560432D01*
X132257500Y-98596221D01*
X132257500Y-99523778D01*
X132260317Y-99559567D01*
X132260319Y-99559579D01*
X132304833Y-99712796D01*
X132386049Y-99850125D01*
X132386055Y-99850132D01*
X132498867Y-99962944D01*
X132498874Y-99962950D01*
X132636203Y-100044166D01*
X132636206Y-100044166D01*
X132636208Y-100044168D01*
X132789426Y-100088682D01*
X132804770Y-100089889D01*
X132825222Y-100091500D01*
X132825230Y-100091500D01*
X133452778Y-100091500D01*
X133471865Y-100089997D01*
X133488574Y-100088682D01*
X133641792Y-100044168D01*
X133641794Y-100044166D01*
X133641796Y-100044166D01*
X133768046Y-99969502D01*
X133779127Y-99962949D01*
X133891949Y-99850127D01*
X133956585Y-99740833D01*
X133973166Y-99712796D01*
X133973166Y-99712794D01*
X133973168Y-99712792D01*
X134017682Y-99559574D01*
X134019774Y-99533000D01*
X134020500Y-99523778D01*
X134020500Y-98972389D01*
X134449500Y-98972389D01*
X134449500Y-99147608D01*
X134455079Y-99175654D01*
X134457500Y-99200237D01*
X134457500Y-99523778D01*
X134460317Y-99559567D01*
X134460319Y-99559579D01*
X134504833Y-99712796D01*
X134586049Y-99850125D01*
X134586055Y-99850132D01*
X134698867Y-99962944D01*
X134698874Y-99962950D01*
X134836203Y-100044166D01*
X134836206Y-100044166D01*
X134836208Y-100044168D01*
X134989426Y-100088682D01*
X135004770Y-100089889D01*
X135025222Y-100091500D01*
X135025230Y-100091500D01*
X135652778Y-100091500D01*
X135671865Y-100089997D01*
X135688574Y-100088682D01*
X135841792Y-100044168D01*
X135841794Y-100044166D01*
X135841796Y-100044166D01*
X135972198Y-99967047D01*
X136036337Y-99949500D01*
X136652500Y-99949500D01*
X136720621Y-99969502D01*
X136767114Y-100023158D01*
X136778500Y-100075500D01*
X136778500Y-100584500D01*
X136758498Y-100652621D01*
X136704842Y-100699114D01*
X136652500Y-100710500D01*
X136036337Y-100710500D01*
X135972198Y-100692953D01*
X135841796Y-100615833D01*
X135688579Y-100571319D01*
X135688575Y-100571318D01*
X135688574Y-100571318D01*
X135688572Y-100571317D01*
X135688567Y-100571317D01*
X135652778Y-100568500D01*
X135652770Y-100568500D01*
X135025230Y-100568500D01*
X135025222Y-100568500D01*
X134989432Y-100571317D01*
X134989420Y-100571319D01*
X134836203Y-100615833D01*
X134698874Y-100697049D01*
X134698867Y-100697055D01*
X134586055Y-100809867D01*
X134586049Y-100809874D01*
X134504833Y-100947203D01*
X134460319Y-101100420D01*
X134460317Y-101100432D01*
X134457500Y-101136221D01*
X134457500Y-101459762D01*
X134455079Y-101484344D01*
X134449500Y-101512389D01*
X134449500Y-101687608D01*
X134455079Y-101715654D01*
X134457500Y-101740237D01*
X134457500Y-102063778D01*
X134460317Y-102099567D01*
X134460319Y-102099579D01*
X134504833Y-102252796D01*
X134586049Y-102390125D01*
X134586055Y-102390132D01*
X134698867Y-102502944D01*
X134698874Y-102502950D01*
X134836203Y-102584166D01*
X134836206Y-102584166D01*
X134836208Y-102584168D01*
X134989426Y-102628682D01*
X135004770Y-102629889D01*
X135025222Y-102631500D01*
X135025230Y-102631500D01*
X135652778Y-102631500D01*
X135671865Y-102629997D01*
X135688574Y-102628682D01*
X135841792Y-102584168D01*
X135841794Y-102584166D01*
X135841796Y-102584166D01*
X135972198Y-102507047D01*
X136036337Y-102489500D01*
X136652500Y-102489500D01*
X136720621Y-102509502D01*
X136767114Y-102563158D01*
X136778500Y-102615500D01*
X136778500Y-104086774D01*
X136777810Y-104099944D01*
X136773600Y-104140000D01*
X136777810Y-104180055D01*
X136778500Y-104193225D01*
X136778500Y-104227613D01*
X136786507Y-104267864D01*
X136788238Y-104279274D01*
X136793144Y-104325954D01*
X136793144Y-104325955D01*
X136803528Y-104357913D01*
X136807272Y-104372261D01*
X136812682Y-104399454D01*
X136812684Y-104399461D01*
X136830938Y-104443530D01*
X136834361Y-104452809D01*
X136850925Y-104503787D01*
X136864389Y-104527106D01*
X136871676Y-104541882D01*
X136879735Y-104561336D01*
X136908094Y-104603778D01*
X136909936Y-104606535D01*
X136914290Y-104613537D01*
X136944415Y-104665716D01*
X136957968Y-104680768D01*
X136969093Y-104695070D01*
X136977080Y-104707023D01*
X137020228Y-104750171D01*
X137024751Y-104754938D01*
X137069527Y-104804667D01*
X137080507Y-104812644D01*
X137095542Y-104825485D01*
X137100977Y-104830920D01*
X137100980Y-104830922D01*
X137157243Y-104868515D01*
X137161306Y-104871347D01*
X137220791Y-104914567D01*
X137220794Y-104914569D01*
X137220800Y-104914573D01*
X137227084Y-104917370D01*
X137245835Y-104927711D01*
X137246664Y-104928265D01*
X137315309Y-104956698D01*
X137318336Y-104957998D01*
X137391615Y-104990625D01*
X137391780Y-104990660D01*
X137402480Y-104993985D01*
X137402622Y-104993520D01*
X137408535Y-104995314D01*
X137408542Y-104995317D01*
X137408548Y-104995318D01*
X137408551Y-104995319D01*
X137440053Y-105001585D01*
X137487947Y-105011111D01*
X137489519Y-105011435D01*
X137574506Y-105029500D01*
X137574510Y-105029500D01*
X137761494Y-105029500D01*
X137846479Y-105011435D01*
X137848050Y-105011111D01*
X137927458Y-104995317D01*
X137927462Y-104995315D01*
X137933380Y-104993520D01*
X137933523Y-104993993D01*
X137944222Y-104990659D01*
X137944385Y-104990625D01*
X138017718Y-104957973D01*
X138020618Y-104956727D01*
X138089336Y-104928265D01*
X138090150Y-104927720D01*
X138108923Y-104917367D01*
X138115200Y-104914573D01*
X138174749Y-104871306D01*
X138178713Y-104868543D01*
X138235023Y-104830920D01*
X138240457Y-104825484D01*
X138255486Y-104812648D01*
X138266470Y-104804669D01*
X138311250Y-104754933D01*
X138315752Y-104750189D01*
X138358920Y-104707023D01*
X138366905Y-104695072D01*
X138378026Y-104680773D01*
X138391585Y-104665715D01*
X138421712Y-104613530D01*
X138426063Y-104606535D01*
X138456265Y-104561336D01*
X138464323Y-104541882D01*
X138471604Y-104527117D01*
X138485075Y-104503785D01*
X138501638Y-104452805D01*
X138505049Y-104443559D01*
X138523317Y-104399458D01*
X138528724Y-104372272D01*
X138532469Y-104357920D01*
X138535699Y-104347978D01*
X138542855Y-104325956D01*
X138547761Y-104279268D01*
X138549488Y-104267881D01*
X138557500Y-104227608D01*
X138557500Y-104193225D01*
X138558190Y-104180055D01*
X138559585Y-104166783D01*
X138562400Y-104140000D01*
X138558190Y-104099944D01*
X138557500Y-104086774D01*
X138557500Y-102668724D01*
X142494001Y-102668724D01*
X142496814Y-102704493D01*
X142541294Y-102857593D01*
X142622449Y-102994817D01*
X142622452Y-102994821D01*
X142735178Y-103107547D01*
X142735182Y-103107550D01*
X142872406Y-103188705D01*
X143025507Y-103233185D01*
X143061275Y-103235999D01*
X143256000Y-103235999D01*
X143764000Y-103235999D01*
X143958724Y-103235999D01*
X143994493Y-103233185D01*
X144147593Y-103188705D01*
X144284817Y-103107550D01*
X144284821Y-103107547D01*
X144397547Y-102994821D01*
X144397550Y-102994817D01*
X144478705Y-102857593D01*
X144523185Y-102704492D01*
X144526000Y-102668724D01*
X144526000Y-101719000D01*
X143764000Y-101719000D01*
X143764000Y-103235999D01*
X143256000Y-103235999D01*
X143256000Y-101719000D01*
X142494001Y-101719000D01*
X142494001Y-102668724D01*
X138557500Y-102668724D01*
X138557500Y-99113225D01*
X138558190Y-99100055D01*
X138559585Y-99086783D01*
X138562400Y-99060000D01*
X138558190Y-99019944D01*
X138557500Y-99006774D01*
X138557500Y-98972395D01*
X138557499Y-98972388D01*
X138549491Y-98932132D01*
X138547760Y-98920725D01*
X138542855Y-98874044D01*
X138542854Y-98874041D01*
X138542854Y-98874039D01*
X138535624Y-98851790D01*
X138532468Y-98842079D01*
X138528725Y-98827734D01*
X138523317Y-98800542D01*
X138505058Y-98756461D01*
X138501638Y-98747193D01*
X138485075Y-98696215D01*
X138471608Y-98672889D01*
X138464321Y-98658111D01*
X138456267Y-98638669D01*
X138456268Y-98638669D01*
X138444397Y-98620903D01*
X138426046Y-98593438D01*
X138421707Y-98586459D01*
X138391587Y-98534288D01*
X138391581Y-98534279D01*
X138378032Y-98519232D01*
X138366906Y-98504929D01*
X138358920Y-98492977D01*
X138315761Y-98449818D01*
X138311238Y-98445051D01*
X138266473Y-98395334D01*
X138266472Y-98395333D01*
X138266470Y-98395331D01*
X138255483Y-98387348D01*
X138240454Y-98374511D01*
X138235023Y-98369080D01*
X138234813Y-98368940D01*
X138178771Y-98331494D01*
X138174710Y-98328664D01*
X138115199Y-98285426D01*
X138115197Y-98285425D01*
X138108914Y-98282628D01*
X138090167Y-98272290D01*
X138089336Y-98271735D01*
X138089337Y-98271735D01*
X138046768Y-98254103D01*
X138020675Y-98243294D01*
X138017679Y-98242007D01*
X137944385Y-98209375D01*
X137944195Y-98209334D01*
X137933520Y-98206019D01*
X137933381Y-98206480D01*
X137927459Y-98204683D01*
X137848065Y-98188890D01*
X137846453Y-98188558D01*
X137761492Y-98170500D01*
X137761490Y-98170500D01*
X137755608Y-98170500D01*
X136036337Y-98170500D01*
X135972198Y-98152953D01*
X135841796Y-98075833D01*
X135688579Y-98031319D01*
X135688575Y-98031318D01*
X135688574Y-98031318D01*
X135688572Y-98031317D01*
X135688567Y-98031317D01*
X135652778Y-98028500D01*
X135652770Y-98028500D01*
X135025230Y-98028500D01*
X135025222Y-98028500D01*
X134989432Y-98031317D01*
X134989420Y-98031319D01*
X134836203Y-98075833D01*
X134698874Y-98157049D01*
X134698867Y-98157055D01*
X134586055Y-98269867D01*
X134586049Y-98269874D01*
X134504833Y-98407203D01*
X134460319Y-98560420D01*
X134460317Y-98560432D01*
X134457500Y-98596221D01*
X134457500Y-98919762D01*
X134455079Y-98944344D01*
X134449500Y-98972389D01*
X134020500Y-98972389D01*
X134020500Y-98596221D01*
X134017930Y-98563579D01*
X134017682Y-98560426D01*
X133973168Y-98407208D01*
X133973166Y-98407206D01*
X133973166Y-98407203D01*
X133891950Y-98269874D01*
X133891944Y-98269867D01*
X133779130Y-98157053D01*
X133779123Y-98157048D01*
X133708724Y-98115414D01*
X133660271Y-98063522D01*
X133647941Y-98023404D01*
X133647500Y-98020059D01*
X133647500Y-98020055D01*
X133612847Y-97890726D01*
X133605273Y-97877608D01*
X133591065Y-97853000D01*
X133574327Y-97784007D01*
X133591066Y-97726999D01*
X133600186Y-97711203D01*
X133612847Y-97689274D01*
X133635978Y-97602945D01*
X133647500Y-97559945D01*
X133647500Y-97559934D01*
X133647940Y-97556596D01*
X133649099Y-97553974D01*
X133649637Y-97551969D01*
X133649949Y-97552052D01*
X133676661Y-97491668D01*
X133708725Y-97464584D01*
X133779126Y-97422950D01*
X133891944Y-97310132D01*
X133891949Y-97310127D01*
X133973168Y-97172792D01*
X134017682Y-97019574D01*
X134018997Y-97002865D01*
X134020500Y-96983778D01*
X134020500Y-96983724D01*
X134458001Y-96983724D01*
X134460814Y-97019493D01*
X134505294Y-97172593D01*
X134586449Y-97309817D01*
X134586452Y-97309821D01*
X134699178Y-97422547D01*
X134699182Y-97422550D01*
X134836406Y-97503705D01*
X134989507Y-97548185D01*
X135025275Y-97550999D01*
X135593000Y-97550999D01*
X135652724Y-97550999D01*
X135688493Y-97548185D01*
X135841593Y-97503705D01*
X135978817Y-97422550D01*
X135978821Y-97422547D01*
X136091547Y-97309821D01*
X136091550Y-97309817D01*
X136172705Y-97172593D01*
X136217185Y-97019492D01*
X136220000Y-96983724D01*
X136220000Y-96774000D01*
X135593000Y-96774000D01*
X135593000Y-97550999D01*
X135025275Y-97550999D01*
X135084999Y-97550998D01*
X135085000Y-97550998D01*
X135085000Y-96774000D01*
X134458001Y-96774000D01*
X134458001Y-96983724D01*
X134020500Y-96983724D01*
X134020500Y-96056275D01*
X134458000Y-96056275D01*
X134458000Y-96266000D01*
X135085000Y-96266000D01*
X135593000Y-96266000D01*
X136219999Y-96266000D01*
X136219999Y-96056275D01*
X136217185Y-96020506D01*
X136172705Y-95867406D01*
X136091550Y-95730182D01*
X136091547Y-95730178D01*
X135978821Y-95617452D01*
X135978817Y-95617449D01*
X135841593Y-95536294D01*
X135688492Y-95491814D01*
X135652724Y-95489000D01*
X135593000Y-95489000D01*
X135593000Y-96266000D01*
X135085000Y-96266000D01*
X135085000Y-95489000D01*
X135084999Y-95488999D01*
X135025276Y-95489000D01*
X134989506Y-95491814D01*
X134836406Y-95536294D01*
X134699182Y-95617449D01*
X134699178Y-95617452D01*
X134586452Y-95730178D01*
X134586449Y-95730182D01*
X134505294Y-95867406D01*
X134460814Y-96020507D01*
X134458000Y-96056275D01*
X134020500Y-96056275D01*
X134020500Y-96056221D01*
X134017682Y-96020432D01*
X134017682Y-96020426D01*
X133973168Y-95867208D01*
X133973166Y-95867206D01*
X133973166Y-95867203D01*
X133891950Y-95729874D01*
X133891944Y-95729867D01*
X133779132Y-95617055D01*
X133779125Y-95617049D01*
X133641796Y-95535833D01*
X133488579Y-95491319D01*
X133488575Y-95491318D01*
X133488574Y-95491318D01*
X133488572Y-95491317D01*
X133488567Y-95491317D01*
X133452778Y-95488500D01*
X133452770Y-95488500D01*
X132825230Y-95488500D01*
X132825222Y-95488500D01*
X132789432Y-95491317D01*
X132789420Y-95491319D01*
X132636203Y-95535833D01*
X132498874Y-95617049D01*
X132498867Y-95617055D01*
X132386055Y-95729867D01*
X132386049Y-95729874D01*
X132304833Y-95867203D01*
X132260319Y-96020420D01*
X132260317Y-96020432D01*
X132257500Y-96056221D01*
X132257500Y-96983778D01*
X132260317Y-97019567D01*
X132260318Y-97019574D01*
X132289595Y-97120349D01*
X132289393Y-97191343D01*
X132250840Y-97250959D01*
X132186175Y-97280268D01*
X132168599Y-97281500D01*
X130047500Y-97281500D01*
X129979379Y-97261498D01*
X129932886Y-97207842D01*
X129921500Y-97155500D01*
X129921500Y-96864800D01*
X129921500Y-96864794D01*
X129910696Y-96790639D01*
X129854776Y-96676254D01*
X129854775Y-96676252D01*
X129787264Y-96608741D01*
X129753238Y-96546429D01*
X129758303Y-96475614D01*
X129787264Y-96430550D01*
X129854365Y-96363449D01*
X129910208Y-96249218D01*
X129910209Y-96249216D01*
X129920999Y-96175159D01*
X129921000Y-96175151D01*
X129921000Y-94324848D01*
X129920999Y-94324840D01*
X129910209Y-94250783D01*
X129910208Y-94250781D01*
X129854364Y-94136549D01*
X129854363Y-94136547D01*
X129787264Y-94069448D01*
X129753238Y-94007136D01*
X129758303Y-93936321D01*
X129787262Y-93891259D01*
X129854776Y-93823746D01*
X129910696Y-93709361D01*
X129921500Y-93635206D01*
X129921500Y-91784794D01*
X129910696Y-91710639D01*
X129854776Y-91596254D01*
X129854775Y-91596252D01*
X129787618Y-91529095D01*
X129753592Y-91466783D01*
X129758657Y-91395968D01*
X129787618Y-91350905D01*
X129854775Y-91283747D01*
X129854776Y-91283746D01*
X129910696Y-91169361D01*
X129921500Y-91095206D01*
X129921500Y-89244794D01*
X129910696Y-89170639D01*
X129874246Y-89096081D01*
X129854776Y-89056254D01*
X129854775Y-89056252D01*
X129764747Y-88966224D01*
X129764745Y-88966223D01*
X129650362Y-88910304D01*
X129628352Y-88907097D01*
X129579638Y-88900000D01*
X134614647Y-88900000D01*
X134634022Y-89121463D01*
X134680273Y-89294074D01*
X134691559Y-89336193D01*
X134691561Y-89336199D01*
X134785511Y-89537675D01*
X134785512Y-89537677D01*
X134913016Y-89719772D01*
X134913020Y-89719777D01*
X134913023Y-89719781D01*
X135070219Y-89876977D01*
X135070222Y-89876979D01*
X135176713Y-89951545D01*
X135221041Y-90007002D01*
X135228350Y-90077621D01*
X135196319Y-90140982D01*
X135139595Y-90175755D01*
X134998203Y-90216833D01*
X134860874Y-90298049D01*
X134860867Y-90298055D01*
X134748055Y-90410867D01*
X134748049Y-90410874D01*
X134666833Y-90548203D01*
X134622319Y-90701420D01*
X134622317Y-90701432D01*
X134619500Y-90737221D01*
X134619500Y-92142778D01*
X134622317Y-92178567D01*
X134622319Y-92178579D01*
X134666833Y-92331796D01*
X134748049Y-92469125D01*
X134748055Y-92469132D01*
X134860867Y-92581944D01*
X134860874Y-92581950D01*
X134998203Y-92663166D01*
X134998206Y-92663166D01*
X134998208Y-92663168D01*
X135151426Y-92707682D01*
X135166770Y-92708889D01*
X135187222Y-92710500D01*
X135187230Y-92710500D01*
X135255500Y-92710500D01*
X135323621Y-92730502D01*
X135370114Y-92784158D01*
X135381500Y-92836500D01*
X135381500Y-92897055D01*
X135381500Y-93030945D01*
X135416153Y-93160274D01*
X135416154Y-93160276D01*
X135416155Y-93160278D01*
X135483096Y-93276223D01*
X135483104Y-93276233D01*
X141673772Y-99466900D01*
X141673775Y-99466902D01*
X141765226Y-99519701D01*
X141789726Y-99533847D01*
X141919055Y-99568500D01*
X142052945Y-99568500D01*
X142704009Y-99568500D01*
X142772130Y-99588502D01*
X142818623Y-99642158D01*
X142828727Y-99712432D01*
X142799233Y-99777012D01*
X142768149Y-99802953D01*
X142735182Y-99822449D01*
X142735178Y-99822452D01*
X142622452Y-99935178D01*
X142622449Y-99935182D01*
X142541294Y-100072406D01*
X142496814Y-100225507D01*
X142494000Y-100261275D01*
X142494000Y-101211000D01*
X144525999Y-101211000D01*
X144525999Y-100261275D01*
X144523185Y-100225506D01*
X144478705Y-100072406D01*
X144397550Y-99935182D01*
X144397547Y-99935178D01*
X144284821Y-99822452D01*
X144284817Y-99822449D01*
X144251851Y-99802953D01*
X144203399Y-99751060D01*
X144190694Y-99681210D01*
X144217770Y-99615579D01*
X144276030Y-99575005D01*
X144315991Y-99568500D01*
X145243027Y-99568500D01*
X145311148Y-99588502D01*
X145357641Y-99642158D01*
X145367745Y-99712432D01*
X145338251Y-99777012D01*
X145307169Y-99802951D01*
X145274876Y-99822049D01*
X145274868Y-99822054D01*
X145162055Y-99934867D01*
X145162049Y-99934874D01*
X145080833Y-100072203D01*
X145036319Y-100225420D01*
X145036317Y-100225432D01*
X145033500Y-100261221D01*
X145033500Y-102668778D01*
X145036317Y-102704567D01*
X145036319Y-102704579D01*
X145080833Y-102857796D01*
X145162049Y-102995125D01*
X145162055Y-102995132D01*
X145274867Y-103107944D01*
X145274874Y-103107950D01*
X145412203Y-103189166D01*
X145412206Y-103189166D01*
X145412208Y-103189168D01*
X145565426Y-103233682D01*
X145580770Y-103234889D01*
X145601222Y-103236500D01*
X145601230Y-103236500D01*
X146498778Y-103236500D01*
X146517865Y-103234997D01*
X146534574Y-103233682D01*
X146687792Y-103189168D01*
X146687794Y-103189166D01*
X146687796Y-103189166D01*
X146779348Y-103135022D01*
X146825127Y-103107949D01*
X146937949Y-102995127D01*
X146974099Y-102934000D01*
X147019166Y-102857796D01*
X147019166Y-102857794D01*
X147019168Y-102857792D01*
X147063682Y-102704574D01*
X147064997Y-102687865D01*
X147066500Y-102668778D01*
X147066500Y-100261221D01*
X147063682Y-100225432D01*
X147063682Y-100225426D01*
X147019168Y-100072208D01*
X147019166Y-100072206D01*
X147019166Y-100072203D01*
X146937950Y-99934874D01*
X146937944Y-99934867D01*
X146849352Y-99846275D01*
X147940000Y-99846275D01*
X147940000Y-100006000D01*
X148717000Y-100006000D01*
X148717000Y-99279000D01*
X148507276Y-99279000D01*
X148471506Y-99281814D01*
X148318406Y-99326294D01*
X148181182Y-99407449D01*
X148181178Y-99407452D01*
X148068452Y-99520178D01*
X148068449Y-99520182D01*
X147987294Y-99657406D01*
X147942814Y-99810507D01*
X147940000Y-99846275D01*
X146849352Y-99846275D01*
X146825132Y-99822055D01*
X146825125Y-99822049D01*
X146687795Y-99740833D01*
X146649344Y-99729661D01*
X146589510Y-99691447D01*
X146559834Y-99626950D01*
X146558500Y-99608665D01*
X146558500Y-98511334D01*
X146578502Y-98443213D01*
X146632158Y-98396720D01*
X146649342Y-98390338D01*
X146687792Y-98379168D01*
X146825127Y-98297949D01*
X146937949Y-98185127D01*
X146979177Y-98115414D01*
X147019166Y-98047796D01*
X147019166Y-98047794D01*
X147019168Y-98047792D01*
X147063682Y-97894574D01*
X147065017Y-97877608D01*
X147066500Y-97858778D01*
X147066500Y-95451221D01*
X147063682Y-95415432D01*
X147063682Y-95415426D01*
X147019168Y-95262208D01*
X146974967Y-95187468D01*
X146957508Y-95118653D01*
X146980024Y-95051322D01*
X147035369Y-95006853D01*
X147105969Y-94999364D01*
X147118562Y-95002330D01*
X147140426Y-95008682D01*
X147155770Y-95009889D01*
X147176222Y-95011500D01*
X147176230Y-95011500D01*
X147803778Y-95011500D01*
X147822865Y-95009997D01*
X147839574Y-95008682D01*
X147904872Y-94989711D01*
X147975865Y-94989912D01*
X148035482Y-95028465D01*
X148064792Y-95093129D01*
X148054489Y-95163374D01*
X148029123Y-95199799D01*
X148007053Y-95221870D01*
X148007049Y-95221874D01*
X147925833Y-95359203D01*
X147881319Y-95512420D01*
X147881317Y-95512432D01*
X147878500Y-95548221D01*
X147878500Y-96475778D01*
X147881317Y-96511567D01*
X147881319Y-96511579D01*
X147925833Y-96664796D01*
X148007049Y-96802125D01*
X148007055Y-96802132D01*
X148107328Y-96902405D01*
X148141354Y-96964717D01*
X148136289Y-97035532D01*
X148107328Y-97080595D01*
X148068055Y-97119867D01*
X148068049Y-97119874D01*
X147986833Y-97257203D01*
X147942319Y-97410420D01*
X147942317Y-97410432D01*
X147939500Y-97446221D01*
X147939500Y-98273778D01*
X147942317Y-98309567D01*
X147942319Y-98309579D01*
X147986833Y-98462796D01*
X148068049Y-98600125D01*
X148068055Y-98600132D01*
X148180867Y-98712944D01*
X148180874Y-98712950D01*
X148318203Y-98794166D01*
X148318206Y-98794166D01*
X148318208Y-98794168D01*
X148471426Y-98838682D01*
X148486770Y-98839889D01*
X148507222Y-98841500D01*
X148507230Y-98841500D01*
X149434778Y-98841500D01*
X149453865Y-98839997D01*
X149470574Y-98838682D01*
X149571349Y-98809404D01*
X149642343Y-98809607D01*
X149701959Y-98848160D01*
X149731268Y-98912825D01*
X149732500Y-98930401D01*
X149732500Y-99190118D01*
X149712498Y-99258239D01*
X149658842Y-99304732D01*
X149588568Y-99314836D01*
X149571348Y-99311115D01*
X149470494Y-99281814D01*
X149434724Y-99279000D01*
X149225000Y-99279000D01*
X149225000Y-101209681D01*
X149204998Y-101277802D01*
X149188097Y-101298773D01*
X149098148Y-101388723D01*
X149028276Y-101458595D01*
X148965964Y-101492620D01*
X148895148Y-101487555D01*
X148865121Y-101471436D01*
X148765215Y-101398851D01*
X148721860Y-101342629D01*
X148717613Y-101293190D01*
X148717000Y-101293190D01*
X148717000Y-101286048D01*
X148715784Y-101271892D01*
X148717000Y-101269587D01*
X148717000Y-100514000D01*
X147940001Y-100514000D01*
X147940001Y-100673724D01*
X147942814Y-100709493D01*
X147987294Y-100862593D01*
X148068449Y-100999817D01*
X148068452Y-100999821D01*
X148168754Y-101100123D01*
X148202780Y-101162435D01*
X148197715Y-101233250D01*
X148155168Y-101290086D01*
X148105857Y-101312464D01*
X148079349Y-101318098D01*
X147920720Y-101388725D01*
X147780251Y-101490782D01*
X147664070Y-101619814D01*
X147664069Y-101619816D01*
X147577256Y-101770182D01*
X147577252Y-101770189D01*
X147523601Y-101935313D01*
X147523600Y-101935317D01*
X147523600Y-101935319D01*
X147505450Y-102108000D01*
X147518851Y-102235500D01*
X147523601Y-102280686D01*
X147577252Y-102445810D01*
X147577256Y-102445817D01*
X147664069Y-102596183D01*
X147664070Y-102596185D01*
X147780251Y-102725217D01*
X147920720Y-102827274D01*
X147920722Y-102827275D01*
X147920725Y-102827277D01*
X148079346Y-102897900D01*
X148249184Y-102934000D01*
X148274378Y-102934000D01*
X148342499Y-102954002D01*
X148388992Y-103007658D01*
X148399686Y-103046825D01*
X148412600Y-103169681D01*
X148412601Y-103169686D01*
X148466252Y-103334810D01*
X148466256Y-103334817D01*
X148553069Y-103485183D01*
X148553070Y-103485185D01*
X148669251Y-103614217D01*
X148809720Y-103716274D01*
X148809722Y-103716275D01*
X148809725Y-103716277D01*
X148968346Y-103786900D01*
X149138184Y-103823000D01*
X149311816Y-103823000D01*
X149481654Y-103786900D01*
X149640275Y-103716277D01*
X149780746Y-103614219D01*
X149896929Y-103485185D01*
X149983745Y-103334815D01*
X150037400Y-103169681D01*
X150055550Y-102997000D01*
X150051234Y-102955942D01*
X150064006Y-102886105D01*
X150087443Y-102853683D01*
X151282901Y-101658226D01*
X151310569Y-101610304D01*
X151349847Y-101542274D01*
X151384500Y-101412945D01*
X151384500Y-100727724D01*
X155306001Y-100727724D01*
X155308814Y-100763493D01*
X155353294Y-100916593D01*
X155434449Y-101053817D01*
X155434452Y-101053821D01*
X155547178Y-101166547D01*
X155547182Y-101166550D01*
X155684406Y-101247705D01*
X155837507Y-101292185D01*
X155873275Y-101294999D01*
X156083000Y-101294999D01*
X156591000Y-101294999D01*
X156800724Y-101294999D01*
X156836493Y-101292185D01*
X156989593Y-101247705D01*
X157126817Y-101166550D01*
X157126821Y-101166547D01*
X157239547Y-101053821D01*
X157239550Y-101053817D01*
X157320705Y-100916593D01*
X157365185Y-100763492D01*
X157368000Y-100727724D01*
X157368000Y-100668000D01*
X156591000Y-100668000D01*
X156591000Y-101294999D01*
X156083000Y-101294999D01*
X156083000Y-100668000D01*
X155306001Y-100668000D01*
X155306001Y-100727724D01*
X151384500Y-100727724D01*
X151384500Y-100100275D01*
X155306000Y-100100275D01*
X155306000Y-100160000D01*
X156083000Y-100160000D01*
X156591000Y-100160000D01*
X157367999Y-100160000D01*
X157367999Y-100100275D01*
X157365185Y-100064506D01*
X157320705Y-99911406D01*
X157239550Y-99774182D01*
X157239547Y-99774178D01*
X157126821Y-99661452D01*
X157126817Y-99661449D01*
X156989593Y-99580294D01*
X156836492Y-99535814D01*
X156800724Y-99533000D01*
X156591000Y-99533000D01*
X156591000Y-100160000D01*
X156083000Y-100160000D01*
X156083000Y-99533000D01*
X155873276Y-99533000D01*
X155837506Y-99535814D01*
X155684406Y-99580294D01*
X155547182Y-99661449D01*
X155547178Y-99661452D01*
X155434452Y-99774178D01*
X155434449Y-99774182D01*
X155353294Y-99911406D01*
X155308814Y-100064507D01*
X155306000Y-100100275D01*
X151384500Y-100100275D01*
X151384500Y-99449817D01*
X151404502Y-99381696D01*
X151421405Y-99360722D01*
X152933895Y-97848232D01*
X152933901Y-97848226D01*
X152958727Y-97805226D01*
X153000847Y-97732274D01*
X153035500Y-97602945D01*
X153035500Y-95004818D01*
X153055502Y-94936697D01*
X153072405Y-94915723D01*
X154076895Y-93911233D01*
X154076901Y-93911227D01*
X154143847Y-93795274D01*
X154178500Y-93665945D01*
X154178500Y-93532055D01*
X154178500Y-92684995D01*
X154198502Y-92616874D01*
X154251251Y-92570800D01*
X154307675Y-92544489D01*
X154307675Y-92544488D01*
X154307677Y-92544488D01*
X154489781Y-92416977D01*
X154646977Y-92259781D01*
X154774488Y-92077677D01*
X154868440Y-91876196D01*
X154925978Y-91661463D01*
X154945353Y-91440000D01*
X154925978Y-91218537D01*
X154868440Y-91003804D01*
X154774488Y-90802324D01*
X154646977Y-90620219D01*
X154489781Y-90463023D01*
X154489777Y-90463020D01*
X154489772Y-90463016D01*
X154307677Y-90335512D01*
X154307675Y-90335511D01*
X154227350Y-90298055D01*
X154197626Y-90284194D01*
X154144342Y-90237278D01*
X154124881Y-90169001D01*
X154145423Y-90101041D01*
X154197627Y-90055805D01*
X154198219Y-90055529D01*
X154307677Y-90004488D01*
X154489781Y-89876977D01*
X154646977Y-89719781D01*
X154774488Y-89537677D01*
X154868440Y-89336196D01*
X154925978Y-89121463D01*
X154945353Y-88900000D01*
X154925978Y-88678537D01*
X154868440Y-88463804D01*
X154774488Y-88262324D01*
X154646977Y-88080219D01*
X154489781Y-87923023D01*
X154489777Y-87923020D01*
X154489772Y-87923016D01*
X154307677Y-87795512D01*
X154307675Y-87795511D01*
X154106199Y-87701561D01*
X154106193Y-87701559D01*
X154064074Y-87690273D01*
X153891463Y-87644022D01*
X153670000Y-87624647D01*
X153448537Y-87644022D01*
X153333463Y-87674856D01*
X153233806Y-87701559D01*
X153233801Y-87701561D01*
X153032323Y-87795512D01*
X152850222Y-87923020D01*
X152850216Y-87923025D01*
X152693025Y-88080216D01*
X152693020Y-88080222D01*
X152565512Y-88262323D01*
X152513919Y-88372965D01*
X152467002Y-88426250D01*
X152398724Y-88445711D01*
X152330764Y-88425169D01*
X152285529Y-88372965D01*
X152234051Y-88262571D01*
X152189815Y-88199395D01*
X152189813Y-88199395D01*
X151620690Y-88768518D01*
X151603381Y-88703919D01*
X151536502Y-88588080D01*
X151441920Y-88493498D01*
X151326081Y-88426619D01*
X151261480Y-88409309D01*
X151830603Y-87840185D01*
X151830603Y-87840184D01*
X151767425Y-87795946D01*
X151566027Y-87702033D01*
X151566023Y-87702031D01*
X151351374Y-87644517D01*
X151130000Y-87625149D01*
X150908625Y-87644517D01*
X150693976Y-87702031D01*
X150693972Y-87702033D01*
X150492575Y-87795946D01*
X150429394Y-87840185D01*
X150998518Y-88409309D01*
X150933919Y-88426619D01*
X150818080Y-88493498D01*
X150723498Y-88588080D01*
X150656619Y-88703919D01*
X150639309Y-88768518D01*
X150070185Y-88199394D01*
X150025946Y-88262575D01*
X149974195Y-88373556D01*
X149927277Y-88426841D01*
X149859000Y-88446302D01*
X149791040Y-88425760D01*
X149745805Y-88373556D01*
X149694051Y-88262571D01*
X149649815Y-88199395D01*
X149649813Y-88199395D01*
X149080690Y-88768518D01*
X149063381Y-88703919D01*
X148996502Y-88588080D01*
X148901920Y-88493498D01*
X148786081Y-88426619D01*
X148721480Y-88409309D01*
X149290603Y-87840185D01*
X149290603Y-87840184D01*
X149227425Y-87795946D01*
X149026027Y-87702033D01*
X149026023Y-87702031D01*
X148811374Y-87644517D01*
X148590000Y-87625149D01*
X148368625Y-87644517D01*
X148153976Y-87702031D01*
X148153972Y-87702033D01*
X147952575Y-87795946D01*
X147889394Y-87840185D01*
X148458518Y-88409309D01*
X148393919Y-88426619D01*
X148278080Y-88493498D01*
X148183498Y-88588080D01*
X148116619Y-88703919D01*
X148099309Y-88768518D01*
X147530185Y-88199394D01*
X147485946Y-88262575D01*
X147434195Y-88373556D01*
X147387277Y-88426841D01*
X147319000Y-88446302D01*
X147251040Y-88425760D01*
X147205805Y-88373556D01*
X147154051Y-88262571D01*
X147109815Y-88199395D01*
X147109813Y-88199395D01*
X146540690Y-88768518D01*
X146523381Y-88703919D01*
X146456502Y-88588080D01*
X146361920Y-88493498D01*
X146246081Y-88426619D01*
X146181480Y-88409309D01*
X146750603Y-87840185D01*
X146750603Y-87840184D01*
X146687425Y-87795946D01*
X146486027Y-87702033D01*
X146486023Y-87702031D01*
X146271374Y-87644517D01*
X146050000Y-87625149D01*
X145828625Y-87644517D01*
X145613976Y-87702031D01*
X145613972Y-87702033D01*
X145412575Y-87795946D01*
X145349394Y-87840185D01*
X145918518Y-88409309D01*
X145853919Y-88426619D01*
X145738080Y-88493498D01*
X145643498Y-88588080D01*
X145576619Y-88703919D01*
X145559309Y-88768518D01*
X144990185Y-88199394D01*
X144945946Y-88262575D01*
X144894195Y-88373556D01*
X144847277Y-88426841D01*
X144779000Y-88446302D01*
X144711040Y-88425760D01*
X144665805Y-88373556D01*
X144614051Y-88262571D01*
X144569815Y-88199395D01*
X144569813Y-88199395D01*
X144000690Y-88768518D01*
X143983381Y-88703919D01*
X143916502Y-88588080D01*
X143821920Y-88493498D01*
X143706081Y-88426619D01*
X143641480Y-88409309D01*
X144210603Y-87840185D01*
X144210603Y-87840184D01*
X144147425Y-87795946D01*
X143946027Y-87702033D01*
X143946023Y-87702031D01*
X143731374Y-87644517D01*
X143510000Y-87625149D01*
X143288625Y-87644517D01*
X143073976Y-87702031D01*
X143073972Y-87702033D01*
X142872575Y-87795946D01*
X142809394Y-87840185D01*
X143378518Y-88409309D01*
X143313919Y-88426619D01*
X143198080Y-88493498D01*
X143103498Y-88588080D01*
X143036619Y-88703919D01*
X143019309Y-88768518D01*
X142450185Y-88199394D01*
X142405946Y-88262575D01*
X142354195Y-88373556D01*
X142307277Y-88426841D01*
X142239000Y-88446302D01*
X142171040Y-88425760D01*
X142125805Y-88373556D01*
X142074051Y-88262571D01*
X142029815Y-88199395D01*
X142029813Y-88199395D01*
X141460690Y-88768518D01*
X141443381Y-88703919D01*
X141376502Y-88588080D01*
X141281920Y-88493498D01*
X141166081Y-88426619D01*
X141101480Y-88409309D01*
X141670603Y-87840185D01*
X141670603Y-87840184D01*
X141607425Y-87795946D01*
X141406027Y-87702033D01*
X141406023Y-87702031D01*
X141191374Y-87644517D01*
X140970000Y-87625149D01*
X140748625Y-87644517D01*
X140533976Y-87702031D01*
X140533972Y-87702033D01*
X140332575Y-87795946D01*
X140269394Y-87840185D01*
X140838518Y-88409309D01*
X140773919Y-88426619D01*
X140658080Y-88493498D01*
X140563498Y-88588080D01*
X140496619Y-88703919D01*
X140479309Y-88768518D01*
X139910185Y-88199394D01*
X139865946Y-88262575D01*
X139814195Y-88373556D01*
X139767277Y-88426841D01*
X139699000Y-88446302D01*
X139631040Y-88425760D01*
X139585805Y-88373556D01*
X139534051Y-88262571D01*
X139489815Y-88199395D01*
X139489813Y-88199395D01*
X138920690Y-88768518D01*
X138903381Y-88703919D01*
X138836502Y-88588080D01*
X138741920Y-88493498D01*
X138626081Y-88426619D01*
X138561480Y-88409309D01*
X139130603Y-87840185D01*
X139130603Y-87840184D01*
X139067425Y-87795946D01*
X138866027Y-87702033D01*
X138866023Y-87702031D01*
X138651374Y-87644517D01*
X138430000Y-87625149D01*
X138208625Y-87644517D01*
X137993976Y-87702031D01*
X137993972Y-87702033D01*
X137792575Y-87795946D01*
X137729394Y-87840185D01*
X138298518Y-88409309D01*
X138233919Y-88426619D01*
X138118080Y-88493498D01*
X138023498Y-88588080D01*
X137956619Y-88703919D01*
X137939309Y-88768518D01*
X137370185Y-88199394D01*
X137325945Y-88262577D01*
X137274469Y-88372966D01*
X137227552Y-88426251D01*
X137159274Y-88445711D01*
X137091315Y-88425169D01*
X137046080Y-88372964D01*
X136994488Y-88262324D01*
X136866977Y-88080219D01*
X136709781Y-87923023D01*
X136709777Y-87923020D01*
X136709772Y-87923016D01*
X136527677Y-87795512D01*
X136527675Y-87795511D01*
X136326199Y-87701561D01*
X136326193Y-87701559D01*
X136284074Y-87690273D01*
X136111463Y-87644022D01*
X135890000Y-87624647D01*
X135668537Y-87644022D01*
X135553463Y-87674856D01*
X135453806Y-87701559D01*
X135453801Y-87701561D01*
X135252323Y-87795512D01*
X135070222Y-87923020D01*
X135070216Y-87923025D01*
X134913025Y-88080216D01*
X134913020Y-88080222D01*
X134785512Y-88262323D01*
X134691561Y-88463801D01*
X134691559Y-88463806D01*
X134683603Y-88493498D01*
X134634022Y-88678537D01*
X134614647Y-88900000D01*
X129579638Y-88900000D01*
X129576206Y-88899500D01*
X129576204Y-88899500D01*
X129571694Y-88898843D01*
X129571893Y-88897473D01*
X129536905Y-88884384D01*
X129513761Y-88896809D01*
X129487858Y-88899500D01*
X127471792Y-88899500D01*
X127397638Y-88910304D01*
X127397636Y-88910304D01*
X127283254Y-88966223D01*
X127283252Y-88966224D01*
X127265595Y-88983882D01*
X127203283Y-89017908D01*
X127132468Y-89012843D01*
X127075632Y-88970296D01*
X127050821Y-88903776D01*
X127050500Y-88894787D01*
X127050500Y-87122000D01*
X128010786Y-87122000D01*
X128029613Y-87361221D01*
X128085630Y-87594551D01*
X128130150Y-87702031D01*
X128177460Y-87816249D01*
X128302840Y-88020849D01*
X128458682Y-88203318D01*
X128641151Y-88359160D01*
X128845751Y-88484540D01*
X129067447Y-88576369D01*
X129300778Y-88632387D01*
X129497745Y-88647888D01*
X129537513Y-88663046D01*
X129560026Y-88650782D01*
X129576792Y-88648318D01*
X129779222Y-88632387D01*
X130012553Y-88576369D01*
X130234249Y-88484540D01*
X130438849Y-88359160D01*
X130621318Y-88203318D01*
X130777160Y-88020849D01*
X130902540Y-87816249D01*
X130994369Y-87594553D01*
X131050387Y-87361222D01*
X131069214Y-87122000D01*
X158490786Y-87122000D01*
X158509613Y-87361221D01*
X158565630Y-87594551D01*
X158610150Y-87702031D01*
X158657460Y-87816249D01*
X158782840Y-88020849D01*
X158938682Y-88203318D01*
X159121151Y-88359160D01*
X159325751Y-88484540D01*
X159547447Y-88576369D01*
X159780778Y-88632387D01*
X159983198Y-88648317D01*
X160020934Y-88662700D01*
X160036644Y-88652604D01*
X160062252Y-88647888D01*
X160259222Y-88632387D01*
X160492553Y-88576369D01*
X160714249Y-88484540D01*
X160918849Y-88359160D01*
X161101318Y-88203318D01*
X161257160Y-88020849D01*
X161382540Y-87816249D01*
X161474369Y-87594553D01*
X161530387Y-87361222D01*
X161549214Y-87122000D01*
X161530387Y-86882778D01*
X161474369Y-86649447D01*
X161382540Y-86427751D01*
X161257160Y-86223151D01*
X161101318Y-86040682D01*
X160918849Y-85884840D01*
X160714249Y-85759460D01*
X160492553Y-85667631D01*
X160492551Y-85667630D01*
X160332936Y-85629310D01*
X160259222Y-85611613D01*
X160020000Y-85592786D01*
X159780778Y-85611613D01*
X159547448Y-85667630D01*
X159325752Y-85759459D01*
X159121152Y-85884839D01*
X158938682Y-86040682D01*
X158782839Y-86223152D01*
X158657459Y-86427752D01*
X158565630Y-86649448D01*
X158509613Y-86882778D01*
X158490786Y-87122000D01*
X131069214Y-87122000D01*
X131050387Y-86882778D01*
X130994369Y-86649447D01*
X130902540Y-86427751D01*
X130777160Y-86223151D01*
X130621318Y-86040682D01*
X130438849Y-85884840D01*
X130234249Y-85759460D01*
X130012553Y-85667631D01*
X130012551Y-85667630D01*
X129852936Y-85629310D01*
X129779222Y-85611613D01*
X129540000Y-85592786D01*
X129300778Y-85611613D01*
X129067448Y-85667630D01*
X128845752Y-85759459D01*
X128641152Y-85884839D01*
X128458682Y-86040682D01*
X128302839Y-86223152D01*
X128177459Y-86427752D01*
X128085630Y-86649448D01*
X128029613Y-86882778D01*
X128010786Y-87122000D01*
X127050500Y-87122000D01*
X127050500Y-83996500D01*
X127070502Y-83928379D01*
X127124158Y-83881886D01*
X127176500Y-83870500D01*
X162383500Y-83870500D01*
X162451621Y-83890502D01*
G37*
G04 #@! TD.AperFunction*
G04 #@! TA.AperFunction,Conductor*
G36*
X128327919Y-107476619D02*
G01*
X128212080Y-107543498D01*
X128117498Y-107638080D01*
X128050619Y-107753919D01*
X128016000Y-107883120D01*
X128016000Y-107568000D01*
X128036002Y-107499879D01*
X128089658Y-107453386D01*
X128142000Y-107442000D01*
X128457120Y-107442000D01*
X128327919Y-107476619D01*
G37*
G04 #@! TD.AperFunction*
G04 #@! TA.AperFunction,Conductor*
G36*
X161486121Y-107462002D02*
G01*
X161532614Y-107515658D01*
X161544000Y-107568000D01*
X161544000Y-107883120D01*
X161509381Y-107753919D01*
X161442502Y-107638080D01*
X161347920Y-107543498D01*
X161232081Y-107476619D01*
X161102880Y-107442000D01*
X161418000Y-107442000D01*
X161486121Y-107462002D01*
G37*
G04 #@! TD.AperFunction*
M02*
