G04 #@! TF.GenerationSoftware,KiCad,Pcbnew,(5.1.5)*
G04 #@! TF.CreationDate,2019-12-06T17:14:53-05:00*
G04 #@! TF.ProjectId,term,7465726d-2e6b-4696-9361-645f70636258,rev?*
G04 #@! TF.SameCoordinates,Original*
G04 #@! TF.FileFunction,Soldermask,Bot*
G04 #@! TF.FilePolarity,Negative*
%FSLAX46Y46*%
G04 Gerber Fmt 4.6, Leading zero omitted, Abs format (unit mm)*
G04 Created by KiCad (PCBNEW (5.1.5)) date 2019-12-06 17:14:53*
%MOMM*%
%LPD*%
G04 APERTURE LIST*
%ADD10C,1.016000*%
%ADD11C,2.032000*%
%ADD12R,2.032000X1.778000*%
%ADD13C,2.286000*%
%ADD14R,1.270000X2.780000*%
%ADD15R,1.778000X1.778000*%
%ADD16C,1.778000*%
%ADD17R,1.000000X1.300000*%
%ADD18R,1.300000X1.000000*%
%ADD19R,1.300000X1.200000*%
%ADD20C,0.889000*%
G04 APERTURE END LIST*
D10*
X138430000Y-93980000D03*
X140970000Y-96520000D03*
X158750000Y-106680000D03*
X130810000Y-106680000D03*
D11*
X158496000Y-96266000D03*
X131064000Y-96266000D03*
D10*
X152400000Y-109220000D03*
X152400000Y-104140000D03*
X140970000Y-106680000D03*
X140970000Y-101600000D03*
X130810000Y-104140000D03*
X130810000Y-101600000D03*
X130810000Y-99060000D03*
X158750000Y-104140000D03*
X158750000Y-101600000D03*
D12*
X128524000Y-90170000D03*
X128524000Y-92710000D03*
X128524000Y-95250000D03*
X128524000Y-97790000D03*
X128524000Y-100330000D03*
X128524000Y-102870000D03*
X128524000Y-105410000D03*
X128524000Y-107950000D03*
X161036000Y-107950000D03*
X161036000Y-105410000D03*
X161036000Y-102870000D03*
X161036000Y-100330000D03*
X161036000Y-97790000D03*
X161036000Y-95250000D03*
X161036000Y-92710000D03*
X161036000Y-90170000D03*
D10*
X158750000Y-99060000D03*
D13*
X129540000Y-87122000D03*
X160020000Y-87122000D03*
D14*
X143510000Y-101465000D03*
X146050000Y-101465000D03*
X143510000Y-96655000D03*
X146050000Y-96655000D03*
D15*
X135890000Y-91440000D03*
D16*
X135890000Y-88900000D03*
X138430000Y-91440000D03*
X138430000Y-88900000D03*
X140970000Y-91440000D03*
X140970000Y-88900000D03*
X143510000Y-91440000D03*
X143510000Y-88900000D03*
X146050000Y-91440000D03*
X146050000Y-88900000D03*
X148590000Y-91440000D03*
X148590000Y-88900000D03*
X151130000Y-91440000D03*
X151130000Y-88900000D03*
X153670000Y-91440000D03*
X153670000Y-88900000D03*
D17*
X135339000Y-104140000D03*
X133139000Y-104140000D03*
X133139000Y-101600000D03*
X135339000Y-101600000D03*
X135339000Y-96520000D03*
X133139000Y-96520000D03*
X133139000Y-99060000D03*
X135339000Y-99060000D03*
X147490000Y-93980000D03*
X149690000Y-93980000D03*
D18*
X156337000Y-100414000D03*
X156337000Y-98214000D03*
D17*
X150960000Y-96012000D03*
X148760000Y-96012000D03*
D19*
X148971000Y-100260000D03*
X148971000Y-97860000D03*
D10*
X137668000Y-99060000D03*
X137668000Y-104140000D03*
D20*
X148336000Y-102108000D03*
X149225000Y-102997000D03*
M02*
