G04 #@! TF.GenerationSoftware,KiCad,Pcbnew,8.0.6*
G04 #@! TF.CreationDate,2025-01-21T13:52:22-05:00*
G04 #@! TF.ProjectId,term,7465726d-2e6b-4696-9361-645f70636258,rev?*
G04 #@! TF.SameCoordinates,Original*
G04 #@! TF.FileFunction,Soldermask,Bot*
G04 #@! TF.FilePolarity,Negative*
%FSLAX46Y46*%
G04 Gerber Fmt 4.6, Leading zero omitted, Abs format (unit mm)*
G04 Created by KiCad (PCBNEW 8.0.6) date 2025-01-21 13:52:22*
%MOMM*%
%LPD*%
G01*
G04 APERTURE LIST*
G04 Aperture macros list*
%AMRoundRect*
0 Rectangle with rounded corners*
0 $1 Rounding radius*
0 $2 $3 $4 $5 $6 $7 $8 $9 X,Y pos of 4 corners*
0 Add a 4 corners polygon primitive as box body*
4,1,4,$2,$3,$4,$5,$6,$7,$8,$9,$2,$3,0*
0 Add four circle primitives for the rounded corners*
1,1,$1+$1,$2,$3*
1,1,$1+$1,$4,$5*
1,1,$1+$1,$6,$7*
1,1,$1+$1,$8,$9*
0 Add four rect primitives between the rounded corners*
20,1,$1+$1,$2,$3,$4,$5,0*
20,1,$1+$1,$4,$5,$6,$7,0*
20,1,$1+$1,$6,$7,$8,$9,0*
20,1,$1+$1,$8,$9,$2,$3,0*%
G04 Aperture macros list end*
%ADD10RoundRect,0.264286X0.675514X-0.675514X0.675514X0.675514X-0.675514X0.675514X-0.675514X-0.675514X0*%
%ADD11C,1.879600*%
%ADD12RoundRect,0.050800X-1.016000X-0.889000X1.016000X-0.889000X1.016000X0.889000X-1.016000X0.889000X0*%
%ADD13RoundRect,0.050800X1.016000X0.889000X-1.016000X0.889000X-1.016000X-0.889000X1.016000X-0.889000X0*%
%ADD14C,1.117600*%
%ADD15C,2.133600*%
%ADD16C,2.387600*%
%ADD17RoundRect,0.270000X-0.415800X-1.170800X0.415800X-1.170800X0.415800X1.170800X-0.415800X1.170800X0*%
%ADD18RoundRect,0.271167X0.429633X-0.379633X0.429633X0.379633X-0.429633X0.379633X-0.429633X-0.379633X0*%
%ADD19RoundRect,0.275400X-0.275400X-0.425400X0.275400X-0.425400X0.275400X0.425400X-0.275400X0.425400X0*%
%ADD20RoundRect,0.275400X0.275400X0.425400X-0.275400X0.425400X-0.275400X-0.425400X0.275400X-0.425400X0*%
%ADD21RoundRect,0.275400X-0.425400X0.275400X-0.425400X-0.275400X0.425400X-0.275400X0.425400X0.275400X0*%
%ADD22C,0.990600*%
G04 APERTURE END LIST*
D10*
X135890000Y-91440000D03*
D11*
X135890000Y-88900000D03*
X138430000Y-91440000D03*
X138430000Y-88900000D03*
X140970000Y-91440000D03*
X140970000Y-88900000D03*
X143510000Y-91440000D03*
X143510000Y-88900000D03*
X146050000Y-91440000D03*
X146050000Y-88900000D03*
X148590000Y-91440000D03*
X148590000Y-88900000D03*
X151130000Y-91440000D03*
X151130000Y-88900000D03*
X153670000Y-91440000D03*
X153670000Y-88900000D03*
D12*
X128524000Y-90170000D03*
X128524000Y-92710000D03*
X128524000Y-95250000D03*
X128524000Y-97790000D03*
X128524000Y-100330000D03*
X128524000Y-102870000D03*
X128524000Y-105410000D03*
X128524000Y-107950000D03*
D13*
X161036000Y-107950000D03*
X161036000Y-105410000D03*
X161036000Y-102870000D03*
X161036000Y-100330000D03*
X161036000Y-97790000D03*
X161036000Y-95250000D03*
X161036000Y-92710000D03*
X161036000Y-90170000D03*
D14*
X158750000Y-99060000D03*
X158750000Y-101600000D03*
X158750000Y-104140000D03*
X130810000Y-99060000D03*
X130810000Y-101600000D03*
X130810000Y-104140000D03*
X140970000Y-101600000D03*
X140970000Y-106680000D03*
X152400000Y-104140000D03*
X152400000Y-109220000D03*
D15*
X131064000Y-96266000D03*
X158496000Y-96266000D03*
D16*
X129540000Y-87122000D03*
X160020000Y-87122000D03*
D14*
X130810000Y-106680000D03*
X158750000Y-106680000D03*
X140970000Y-96520000D03*
X138430000Y-93980000D03*
D17*
X143510000Y-96655000D03*
X143510000Y-101465000D03*
X146050000Y-96655000D03*
X146050000Y-101465000D03*
D18*
X148971000Y-100260000D03*
X148971000Y-97860000D03*
D19*
X133139000Y-104140000D03*
X135339000Y-104140000D03*
D20*
X135339000Y-101600000D03*
X133139000Y-101600000D03*
D19*
X133139000Y-96520000D03*
X135339000Y-96520000D03*
D20*
X135339000Y-99060000D03*
X133139000Y-99060000D03*
X149690000Y-93980000D03*
X147490000Y-93980000D03*
D21*
X156337000Y-98214000D03*
X156337000Y-100414000D03*
D19*
X148760000Y-96012000D03*
X150960000Y-96012000D03*
D14*
X137668000Y-99060000D03*
X137668000Y-104140000D03*
D22*
X148336000Y-102108000D03*
X149225000Y-102997000D03*
M02*
