G04 #@! TF.GenerationSoftware,KiCad,Pcbnew,8.0.6*
G04 #@! TF.CreationDate,2025-01-27T09:49:23-05:00*
G04 #@! TF.ProjectId,term,7465726d-2e6b-4696-9361-645f70636258,v1.2.0*
G04 #@! TF.SameCoordinates,Original*
G04 #@! TF.FileFunction,Legend,Bot*
G04 #@! TF.FilePolarity,Positive*
%FSLAX46Y46*%
G04 Gerber Fmt 4.6, Leading zero omitted, Abs format (unit mm)*
G04 Created by KiCad (PCBNEW 8.0.6) date 2025-01-27 09:49:23*
%MOMM*%
%LPD*%
G01*
G04 APERTURE LIST*
G04 Aperture macros list*
%AMRoundRect*
0 Rectangle with rounded corners*
0 $1 Rounding radius*
0 $2 $3 $4 $5 $6 $7 $8 $9 X,Y pos of 4 corners*
0 Add a 4 corners polygon primitive as box body*
4,1,4,$2,$3,$4,$5,$6,$7,$8,$9,$2,$3,0*
0 Add four circle primitives for the rounded corners*
1,1,$1+$1,$2,$3*
1,1,$1+$1,$4,$5*
1,1,$1+$1,$6,$7*
1,1,$1+$1,$8,$9*
0 Add four rect primitives between the rounded corners*
20,1,$1+$1,$2,$3,$4,$5,0*
20,1,$1+$1,$4,$5,$6,$7,0*
20,1,$1+$1,$6,$7,$8,$9,0*
20,1,$1+$1,$8,$9,$2,$3,0*%
G04 Aperture macros list end*
%ADD10C,0.150000*%
%ADD11RoundRect,0.264286X0.675514X-0.675514X0.675514X0.675514X-0.675514X0.675514X-0.675514X-0.675514X0*%
%ADD12C,1.879600*%
%ADD13RoundRect,0.050800X-1.016000X-0.889000X1.016000X-0.889000X1.016000X0.889000X-1.016000X0.889000X0*%
%ADD14RoundRect,0.050800X1.016000X0.889000X-1.016000X0.889000X-1.016000X-0.889000X1.016000X-0.889000X0*%
%ADD15C,1.117600*%
%ADD16C,2.133600*%
%ADD17C,2.387600*%
%ADD18RoundRect,0.270000X-0.415800X-1.170800X0.415800X-1.170800X0.415800X1.170800X-0.415800X1.170800X0*%
%ADD19RoundRect,0.271167X0.429633X-0.379633X0.429633X0.379633X-0.429633X0.379633X-0.429633X-0.379633X0*%
%ADD20RoundRect,0.275400X-0.275400X-0.425400X0.275400X-0.425400X0.275400X0.425400X-0.275400X0.425400X0*%
%ADD21RoundRect,0.275400X0.275400X0.425400X-0.275400X0.425400X-0.275400X-0.425400X0.275400X-0.425400X0*%
%ADD22RoundRect,0.275400X-0.425400X0.275400X-0.425400X-0.275400X0.425400X-0.275400X0.425400X0.275400X0*%
%ADD23C,0.990600*%
G04 APERTURE END LIST*
D10*
X159426030Y-98031200D02*
X159340316Y-98059771D01*
X159340316Y-98059771D02*
X159197458Y-98059771D01*
X159197458Y-98059771D02*
X159140316Y-98031200D01*
X159140316Y-98031200D02*
X159111744Y-98002628D01*
X159111744Y-98002628D02*
X159083173Y-97945485D01*
X159083173Y-97945485D02*
X159083173Y-97888342D01*
X159083173Y-97888342D02*
X159111744Y-97831200D01*
X159111744Y-97831200D02*
X159140316Y-97802628D01*
X159140316Y-97802628D02*
X159197458Y-97774057D01*
X159197458Y-97774057D02*
X159311744Y-97745485D01*
X159311744Y-97745485D02*
X159368887Y-97716914D01*
X159368887Y-97716914D02*
X159397458Y-97688342D01*
X159397458Y-97688342D02*
X159426030Y-97631200D01*
X159426030Y-97631200D02*
X159426030Y-97574057D01*
X159426030Y-97574057D02*
X159397458Y-97516914D01*
X159397458Y-97516914D02*
X159368887Y-97488342D01*
X159368887Y-97488342D02*
X159311744Y-97459771D01*
X159311744Y-97459771D02*
X159168887Y-97459771D01*
X159168887Y-97459771D02*
X159083173Y-97488342D01*
X158711744Y-97459771D02*
X158597458Y-97459771D01*
X158597458Y-97459771D02*
X158540315Y-97488342D01*
X158540315Y-97488342D02*
X158483172Y-97545485D01*
X158483172Y-97545485D02*
X158454601Y-97659771D01*
X158454601Y-97659771D02*
X158454601Y-97859771D01*
X158454601Y-97859771D02*
X158483172Y-97974057D01*
X158483172Y-97974057D02*
X158540315Y-98031200D01*
X158540315Y-98031200D02*
X158597458Y-98059771D01*
X158597458Y-98059771D02*
X158711744Y-98059771D01*
X158711744Y-98059771D02*
X158768887Y-98031200D01*
X158768887Y-98031200D02*
X158826029Y-97974057D01*
X158826029Y-97974057D02*
X158854601Y-97859771D01*
X158854601Y-97859771D02*
X158854601Y-97659771D01*
X158854601Y-97659771D02*
X158826029Y-97545485D01*
X158826029Y-97545485D02*
X158768887Y-97488342D01*
X158768887Y-97488342D02*
X158711744Y-97459771D01*
X158197458Y-97459771D02*
X158197458Y-97945485D01*
X158197458Y-97945485D02*
X158168887Y-98002628D01*
X158168887Y-98002628D02*
X158140316Y-98031200D01*
X158140316Y-98031200D02*
X158083173Y-98059771D01*
X158083173Y-98059771D02*
X157968887Y-98059771D01*
X157968887Y-98059771D02*
X157911744Y-98031200D01*
X157911744Y-98031200D02*
X157883173Y-98002628D01*
X157883173Y-98002628D02*
X157854601Y-97945485D01*
X157854601Y-97945485D02*
X157854601Y-97459771D01*
X157654602Y-97459771D02*
X157311745Y-97459771D01*
X157483173Y-98059771D02*
X157483173Y-97459771D01*
X159111744Y-100599771D02*
X159397458Y-100599771D01*
X159397458Y-100599771D02*
X159397458Y-99999771D01*
X158940316Y-100428342D02*
X158654602Y-100428342D01*
X158997459Y-100599771D02*
X158797459Y-99999771D01*
X158797459Y-99999771D02*
X158597459Y-100599771D01*
X158483173Y-99999771D02*
X158140316Y-99999771D01*
X158311744Y-100599771D02*
X158311744Y-99999771D01*
X159197458Y-102825485D02*
X159111744Y-102854057D01*
X159111744Y-102854057D02*
X159083173Y-102882628D01*
X159083173Y-102882628D02*
X159054601Y-102939771D01*
X159054601Y-102939771D02*
X159054601Y-103025485D01*
X159054601Y-103025485D02*
X159083173Y-103082628D01*
X159083173Y-103082628D02*
X159111744Y-103111200D01*
X159111744Y-103111200D02*
X159168887Y-103139771D01*
X159168887Y-103139771D02*
X159397458Y-103139771D01*
X159397458Y-103139771D02*
X159397458Y-102539771D01*
X159397458Y-102539771D02*
X159197458Y-102539771D01*
X159197458Y-102539771D02*
X159140316Y-102568342D01*
X159140316Y-102568342D02*
X159111744Y-102596914D01*
X159111744Y-102596914D02*
X159083173Y-102654057D01*
X159083173Y-102654057D02*
X159083173Y-102711200D01*
X159083173Y-102711200D02*
X159111744Y-102768342D01*
X159111744Y-102768342D02*
X159140316Y-102796914D01*
X159140316Y-102796914D02*
X159197458Y-102825485D01*
X159197458Y-102825485D02*
X159397458Y-102825485D01*
X158511744Y-103139771D02*
X158797458Y-103139771D01*
X158797458Y-103139771D02*
X158797458Y-102539771D01*
X158340316Y-102968342D02*
X158054602Y-102968342D01*
X158397459Y-103139771D02*
X158197459Y-102539771D01*
X158197459Y-102539771D02*
X157997459Y-103139771D01*
X157797458Y-103139771D02*
X157797458Y-102539771D01*
X157797458Y-102539771D02*
X157454601Y-103139771D01*
X157454601Y-103139771D02*
X157454601Y-102539771D01*
X157168887Y-103139771D02*
X157168887Y-102539771D01*
X156826030Y-103139771D02*
X157083173Y-102796914D01*
X156826030Y-102539771D02*
X157168887Y-102882628D01*
X159426030Y-105651200D02*
X159340316Y-105679771D01*
X159340316Y-105679771D02*
X159197458Y-105679771D01*
X159197458Y-105679771D02*
X159140316Y-105651200D01*
X159140316Y-105651200D02*
X159111744Y-105622628D01*
X159111744Y-105622628D02*
X159083173Y-105565485D01*
X159083173Y-105565485D02*
X159083173Y-105508342D01*
X159083173Y-105508342D02*
X159111744Y-105451200D01*
X159111744Y-105451200D02*
X159140316Y-105422628D01*
X159140316Y-105422628D02*
X159197458Y-105394057D01*
X159197458Y-105394057D02*
X159311744Y-105365485D01*
X159311744Y-105365485D02*
X159368887Y-105336914D01*
X159368887Y-105336914D02*
X159397458Y-105308342D01*
X159397458Y-105308342D02*
X159426030Y-105251200D01*
X159426030Y-105251200D02*
X159426030Y-105194057D01*
X159426030Y-105194057D02*
X159397458Y-105136914D01*
X159397458Y-105136914D02*
X159368887Y-105108342D01*
X159368887Y-105108342D02*
X159311744Y-105079771D01*
X159311744Y-105079771D02*
X159168887Y-105079771D01*
X159168887Y-105079771D02*
X159083173Y-105108342D01*
X158483172Y-105622628D02*
X158511744Y-105651200D01*
X158511744Y-105651200D02*
X158597458Y-105679771D01*
X158597458Y-105679771D02*
X158654601Y-105679771D01*
X158654601Y-105679771D02*
X158740315Y-105651200D01*
X158740315Y-105651200D02*
X158797458Y-105594057D01*
X158797458Y-105594057D02*
X158826029Y-105536914D01*
X158826029Y-105536914D02*
X158854601Y-105422628D01*
X158854601Y-105422628D02*
X158854601Y-105336914D01*
X158854601Y-105336914D02*
X158826029Y-105222628D01*
X158826029Y-105222628D02*
X158797458Y-105165485D01*
X158797458Y-105165485D02*
X158740315Y-105108342D01*
X158740315Y-105108342D02*
X158654601Y-105079771D01*
X158654601Y-105079771D02*
X158597458Y-105079771D01*
X158597458Y-105079771D02*
X158511744Y-105108342D01*
X158511744Y-105108342D02*
X158483172Y-105136914D01*
X157940315Y-105679771D02*
X158226029Y-105679771D01*
X158226029Y-105679771D02*
X158226029Y-105079771D01*
X157740315Y-105679771D02*
X157740315Y-105079771D01*
X157397458Y-105679771D02*
X157654601Y-105336914D01*
X157397458Y-105079771D02*
X157740315Y-105422628D01*
X159483173Y-92379771D02*
X159283173Y-92979771D01*
X159283173Y-92979771D02*
X159083173Y-92379771D01*
X158540315Y-92922628D02*
X158568887Y-92951200D01*
X158568887Y-92951200D02*
X158654601Y-92979771D01*
X158654601Y-92979771D02*
X158711744Y-92979771D01*
X158711744Y-92979771D02*
X158797458Y-92951200D01*
X158797458Y-92951200D02*
X158854601Y-92894057D01*
X158854601Y-92894057D02*
X158883172Y-92836914D01*
X158883172Y-92836914D02*
X158911744Y-92722628D01*
X158911744Y-92722628D02*
X158911744Y-92636914D01*
X158911744Y-92636914D02*
X158883172Y-92522628D01*
X158883172Y-92522628D02*
X158854601Y-92465485D01*
X158854601Y-92465485D02*
X158797458Y-92408342D01*
X158797458Y-92408342D02*
X158711744Y-92379771D01*
X158711744Y-92379771D02*
X158654601Y-92379771D01*
X158654601Y-92379771D02*
X158568887Y-92408342D01*
X158568887Y-92408342D02*
X158540315Y-92436914D01*
X157940315Y-92922628D02*
X157968887Y-92951200D01*
X157968887Y-92951200D02*
X158054601Y-92979771D01*
X158054601Y-92979771D02*
X158111744Y-92979771D01*
X158111744Y-92979771D02*
X158197458Y-92951200D01*
X158197458Y-92951200D02*
X158254601Y-92894057D01*
X158254601Y-92894057D02*
X158283172Y-92836914D01*
X158283172Y-92836914D02*
X158311744Y-92722628D01*
X158311744Y-92722628D02*
X158311744Y-92636914D01*
X158311744Y-92636914D02*
X158283172Y-92522628D01*
X158283172Y-92522628D02*
X158254601Y-92465485D01*
X158254601Y-92465485D02*
X158197458Y-92408342D01*
X158197458Y-92408342D02*
X158111744Y-92379771D01*
X158111744Y-92379771D02*
X158054601Y-92379771D01*
X158054601Y-92379771D02*
X157968887Y-92408342D01*
X157968887Y-92408342D02*
X157940315Y-92436914D01*
X159483173Y-89839771D02*
X159283173Y-90439771D01*
X159283173Y-90439771D02*
X159083173Y-89839771D01*
X158911744Y-90268342D02*
X158626030Y-90268342D01*
X158968887Y-90439771D02*
X158768887Y-89839771D01*
X158768887Y-89839771D02*
X158568887Y-90439771D01*
X158397458Y-90268342D02*
X158111744Y-90268342D01*
X158454601Y-90439771D02*
X158254601Y-89839771D01*
X158254601Y-89839771D02*
X158054601Y-90439771D01*
X132162541Y-105651200D02*
X132076827Y-105679771D01*
X132076827Y-105679771D02*
X131933969Y-105679771D01*
X131933969Y-105679771D02*
X131876827Y-105651200D01*
X131876827Y-105651200D02*
X131848255Y-105622628D01*
X131848255Y-105622628D02*
X131819684Y-105565485D01*
X131819684Y-105565485D02*
X131819684Y-105508342D01*
X131819684Y-105508342D02*
X131848255Y-105451200D01*
X131848255Y-105451200D02*
X131876827Y-105422628D01*
X131876827Y-105422628D02*
X131933969Y-105394057D01*
X131933969Y-105394057D02*
X132048255Y-105365485D01*
X132048255Y-105365485D02*
X132105398Y-105336914D01*
X132105398Y-105336914D02*
X132133969Y-105308342D01*
X132133969Y-105308342D02*
X132162541Y-105251200D01*
X132162541Y-105251200D02*
X132162541Y-105194057D01*
X132162541Y-105194057D02*
X132133969Y-105136914D01*
X132133969Y-105136914D02*
X132105398Y-105108342D01*
X132105398Y-105108342D02*
X132048255Y-105079771D01*
X132048255Y-105079771D02*
X131905398Y-105079771D01*
X131905398Y-105079771D02*
X131819684Y-105108342D01*
X131219683Y-105622628D02*
X131248255Y-105651200D01*
X131248255Y-105651200D02*
X131333969Y-105679771D01*
X131333969Y-105679771D02*
X131391112Y-105679771D01*
X131391112Y-105679771D02*
X131476826Y-105651200D01*
X131476826Y-105651200D02*
X131533969Y-105594057D01*
X131533969Y-105594057D02*
X131562540Y-105536914D01*
X131562540Y-105536914D02*
X131591112Y-105422628D01*
X131591112Y-105422628D02*
X131591112Y-105336914D01*
X131591112Y-105336914D02*
X131562540Y-105222628D01*
X131562540Y-105222628D02*
X131533969Y-105165485D01*
X131533969Y-105165485D02*
X131476826Y-105108342D01*
X131476826Y-105108342D02*
X131391112Y-105079771D01*
X131391112Y-105079771D02*
X131333969Y-105079771D01*
X131333969Y-105079771D02*
X131248255Y-105108342D01*
X131248255Y-105108342D02*
X131219683Y-105136914D01*
X130676826Y-105679771D02*
X130962540Y-105679771D01*
X130962540Y-105679771D02*
X130962540Y-105079771D01*
X130476826Y-105679771D02*
X130476826Y-105079771D01*
X130133969Y-105679771D02*
X130391112Y-105336914D01*
X130133969Y-105079771D02*
X130476826Y-105422628D01*
X132505397Y-102825485D02*
X132419683Y-102854057D01*
X132419683Y-102854057D02*
X132391112Y-102882628D01*
X132391112Y-102882628D02*
X132362540Y-102939771D01*
X132362540Y-102939771D02*
X132362540Y-103025485D01*
X132362540Y-103025485D02*
X132391112Y-103082628D01*
X132391112Y-103082628D02*
X132419683Y-103111200D01*
X132419683Y-103111200D02*
X132476826Y-103139771D01*
X132476826Y-103139771D02*
X132705397Y-103139771D01*
X132705397Y-103139771D02*
X132705397Y-102539771D01*
X132705397Y-102539771D02*
X132505397Y-102539771D01*
X132505397Y-102539771D02*
X132448255Y-102568342D01*
X132448255Y-102568342D02*
X132419683Y-102596914D01*
X132419683Y-102596914D02*
X132391112Y-102654057D01*
X132391112Y-102654057D02*
X132391112Y-102711200D01*
X132391112Y-102711200D02*
X132419683Y-102768342D01*
X132419683Y-102768342D02*
X132448255Y-102796914D01*
X132448255Y-102796914D02*
X132505397Y-102825485D01*
X132505397Y-102825485D02*
X132705397Y-102825485D01*
X131819683Y-103139771D02*
X132105397Y-103139771D01*
X132105397Y-103139771D02*
X132105397Y-102539771D01*
X131648255Y-102968342D02*
X131362541Y-102968342D01*
X131705398Y-103139771D02*
X131505398Y-102539771D01*
X131505398Y-102539771D02*
X131305398Y-103139771D01*
X131105397Y-103139771D02*
X131105397Y-102539771D01*
X131105397Y-102539771D02*
X130762540Y-103139771D01*
X130762540Y-103139771D02*
X130762540Y-102539771D01*
X130476826Y-103139771D02*
X130476826Y-102539771D01*
X130133969Y-103139771D02*
X130391112Y-102796914D01*
X130133969Y-102539771D02*
X130476826Y-102882628D01*
X131048255Y-100599771D02*
X131333969Y-100599771D01*
X131333969Y-100599771D02*
X131333969Y-99999771D01*
X130876827Y-100428342D02*
X130591113Y-100428342D01*
X130933970Y-100599771D02*
X130733970Y-99999771D01*
X130733970Y-99999771D02*
X130533970Y-100599771D01*
X130419684Y-99999771D02*
X130076827Y-99999771D01*
X130248255Y-100599771D02*
X130248255Y-99999771D01*
X131676827Y-92379771D02*
X131476827Y-92979771D01*
X131476827Y-92979771D02*
X131276827Y-92379771D01*
X130733969Y-92922628D02*
X130762541Y-92951200D01*
X130762541Y-92951200D02*
X130848255Y-92979771D01*
X130848255Y-92979771D02*
X130905398Y-92979771D01*
X130905398Y-92979771D02*
X130991112Y-92951200D01*
X130991112Y-92951200D02*
X131048255Y-92894057D01*
X131048255Y-92894057D02*
X131076826Y-92836914D01*
X131076826Y-92836914D02*
X131105398Y-92722628D01*
X131105398Y-92722628D02*
X131105398Y-92636914D01*
X131105398Y-92636914D02*
X131076826Y-92522628D01*
X131076826Y-92522628D02*
X131048255Y-92465485D01*
X131048255Y-92465485D02*
X130991112Y-92408342D01*
X130991112Y-92408342D02*
X130905398Y-92379771D01*
X130905398Y-92379771D02*
X130848255Y-92379771D01*
X130848255Y-92379771D02*
X130762541Y-92408342D01*
X130762541Y-92408342D02*
X130733969Y-92436914D01*
X130133969Y-92922628D02*
X130162541Y-92951200D01*
X130162541Y-92951200D02*
X130248255Y-92979771D01*
X130248255Y-92979771D02*
X130305398Y-92979771D01*
X130305398Y-92979771D02*
X130391112Y-92951200D01*
X130391112Y-92951200D02*
X130448255Y-92894057D01*
X130448255Y-92894057D02*
X130476826Y-92836914D01*
X130476826Y-92836914D02*
X130505398Y-92722628D01*
X130505398Y-92722628D02*
X130505398Y-92636914D01*
X130505398Y-92636914D02*
X130476826Y-92522628D01*
X130476826Y-92522628D02*
X130448255Y-92465485D01*
X130448255Y-92465485D02*
X130391112Y-92408342D01*
X130391112Y-92408342D02*
X130305398Y-92379771D01*
X130305398Y-92379771D02*
X130248255Y-92379771D01*
X130248255Y-92379771D02*
X130162541Y-92408342D01*
X130162541Y-92408342D02*
X130133969Y-92436914D01*
X131505399Y-89839771D02*
X131305399Y-90439771D01*
X131305399Y-90439771D02*
X131105399Y-89839771D01*
X130933970Y-90268342D02*
X130648256Y-90268342D01*
X130991113Y-90439771D02*
X130791113Y-89839771D01*
X130791113Y-89839771D02*
X130591113Y-90439771D01*
X130419684Y-90268342D02*
X130133970Y-90268342D01*
X130476827Y-90439771D02*
X130276827Y-89839771D01*
X130276827Y-89839771D02*
X130076827Y-90439771D01*
X131391112Y-98031200D02*
X131305398Y-98059771D01*
X131305398Y-98059771D02*
X131162540Y-98059771D01*
X131162540Y-98059771D02*
X131105398Y-98031200D01*
X131105398Y-98031200D02*
X131076826Y-98002628D01*
X131076826Y-98002628D02*
X131048255Y-97945485D01*
X131048255Y-97945485D02*
X131048255Y-97888342D01*
X131048255Y-97888342D02*
X131076826Y-97831200D01*
X131076826Y-97831200D02*
X131105398Y-97802628D01*
X131105398Y-97802628D02*
X131162540Y-97774057D01*
X131162540Y-97774057D02*
X131276826Y-97745485D01*
X131276826Y-97745485D02*
X131333969Y-97716914D01*
X131333969Y-97716914D02*
X131362540Y-97688342D01*
X131362540Y-97688342D02*
X131391112Y-97631200D01*
X131391112Y-97631200D02*
X131391112Y-97574057D01*
X131391112Y-97574057D02*
X131362540Y-97516914D01*
X131362540Y-97516914D02*
X131333969Y-97488342D01*
X131333969Y-97488342D02*
X131276826Y-97459771D01*
X131276826Y-97459771D02*
X131133969Y-97459771D01*
X131133969Y-97459771D02*
X131048255Y-97488342D01*
X130791111Y-98059771D02*
X130791111Y-97459771D01*
X130505397Y-98059771D02*
X130505397Y-97459771D01*
X130505397Y-97459771D02*
X130162540Y-98059771D01*
X130162540Y-98059771D02*
X130162540Y-97459771D01*
X131391112Y-107648342D02*
X131448255Y-107619771D01*
X131448255Y-107619771D02*
X131533969Y-107619771D01*
X131533969Y-107619771D02*
X131619683Y-107648342D01*
X131619683Y-107648342D02*
X131676826Y-107705485D01*
X131676826Y-107705485D02*
X131705397Y-107762628D01*
X131705397Y-107762628D02*
X131733969Y-107876914D01*
X131733969Y-107876914D02*
X131733969Y-107962628D01*
X131733969Y-107962628D02*
X131705397Y-108076914D01*
X131705397Y-108076914D02*
X131676826Y-108134057D01*
X131676826Y-108134057D02*
X131619683Y-108191200D01*
X131619683Y-108191200D02*
X131533969Y-108219771D01*
X131533969Y-108219771D02*
X131476826Y-108219771D01*
X131476826Y-108219771D02*
X131391112Y-108191200D01*
X131391112Y-108191200D02*
X131362540Y-108162628D01*
X131362540Y-108162628D02*
X131362540Y-107962628D01*
X131362540Y-107962628D02*
X131476826Y-107962628D01*
X131105397Y-108219771D02*
X131105397Y-107619771D01*
X131105397Y-107619771D02*
X130762540Y-108219771D01*
X130762540Y-108219771D02*
X130762540Y-107619771D01*
X130476826Y-108219771D02*
X130476826Y-107619771D01*
X130476826Y-107619771D02*
X130333969Y-107619771D01*
X130333969Y-107619771D02*
X130248255Y-107648342D01*
X130248255Y-107648342D02*
X130191112Y-107705485D01*
X130191112Y-107705485D02*
X130162541Y-107762628D01*
X130162541Y-107762628D02*
X130133969Y-107876914D01*
X130133969Y-107876914D02*
X130133969Y-107962628D01*
X130133969Y-107962628D02*
X130162541Y-108076914D01*
X130162541Y-108076914D02*
X130191112Y-108134057D01*
X130191112Y-108134057D02*
X130248255Y-108191200D01*
X130248255Y-108191200D02*
X130333969Y-108219771D01*
X130333969Y-108219771D02*
X130476826Y-108219771D01*
X158956173Y-107648342D02*
X159013316Y-107619771D01*
X159013316Y-107619771D02*
X159099030Y-107619771D01*
X159099030Y-107619771D02*
X159184744Y-107648342D01*
X159184744Y-107648342D02*
X159241887Y-107705485D01*
X159241887Y-107705485D02*
X159270458Y-107762628D01*
X159270458Y-107762628D02*
X159299030Y-107876914D01*
X159299030Y-107876914D02*
X159299030Y-107962628D01*
X159299030Y-107962628D02*
X159270458Y-108076914D01*
X159270458Y-108076914D02*
X159241887Y-108134057D01*
X159241887Y-108134057D02*
X159184744Y-108191200D01*
X159184744Y-108191200D02*
X159099030Y-108219771D01*
X159099030Y-108219771D02*
X159041887Y-108219771D01*
X159041887Y-108219771D02*
X158956173Y-108191200D01*
X158956173Y-108191200D02*
X158927601Y-108162628D01*
X158927601Y-108162628D02*
X158927601Y-107962628D01*
X158927601Y-107962628D02*
X159041887Y-107962628D01*
X158670458Y-108219771D02*
X158670458Y-107619771D01*
X158670458Y-107619771D02*
X158327601Y-108219771D01*
X158327601Y-108219771D02*
X158327601Y-107619771D01*
X158041887Y-108219771D02*
X158041887Y-107619771D01*
X158041887Y-107619771D02*
X157899030Y-107619771D01*
X157899030Y-107619771D02*
X157813316Y-107648342D01*
X157813316Y-107648342D02*
X157756173Y-107705485D01*
X157756173Y-107705485D02*
X157727602Y-107762628D01*
X157727602Y-107762628D02*
X157699030Y-107876914D01*
X157699030Y-107876914D02*
X157699030Y-107962628D01*
X157699030Y-107962628D02*
X157727602Y-108076914D01*
X157727602Y-108076914D02*
X157756173Y-108134057D01*
X157756173Y-108134057D02*
X157813316Y-108191200D01*
X157813316Y-108191200D02*
X157899030Y-108219771D01*
X157899030Y-108219771D02*
X158041887Y-108219771D01*
X145651428Y-105044771D02*
X145851428Y-104759057D01*
X145994285Y-105044771D02*
X145994285Y-104444771D01*
X145994285Y-104444771D02*
X145765714Y-104444771D01*
X145765714Y-104444771D02*
X145708571Y-104473342D01*
X145708571Y-104473342D02*
X145680000Y-104501914D01*
X145680000Y-104501914D02*
X145651428Y-104559057D01*
X145651428Y-104559057D02*
X145651428Y-104644771D01*
X145651428Y-104644771D02*
X145680000Y-104701914D01*
X145680000Y-104701914D02*
X145708571Y-104730485D01*
X145708571Y-104730485D02*
X145765714Y-104759057D01*
X145765714Y-104759057D02*
X145994285Y-104759057D01*
X145394285Y-104730485D02*
X145194285Y-104730485D01*
X145108571Y-105044771D02*
X145394285Y-105044771D01*
X145394285Y-105044771D02*
X145394285Y-104444771D01*
X145394285Y-104444771D02*
X145108571Y-104444771D01*
X144880000Y-105016200D02*
X144794286Y-105044771D01*
X144794286Y-105044771D02*
X144651428Y-105044771D01*
X144651428Y-105044771D02*
X144594286Y-105016200D01*
X144594286Y-105016200D02*
X144565714Y-104987628D01*
X144565714Y-104987628D02*
X144537143Y-104930485D01*
X144537143Y-104930485D02*
X144537143Y-104873342D01*
X144537143Y-104873342D02*
X144565714Y-104816200D01*
X144565714Y-104816200D02*
X144594286Y-104787628D01*
X144594286Y-104787628D02*
X144651428Y-104759057D01*
X144651428Y-104759057D02*
X144765714Y-104730485D01*
X144765714Y-104730485D02*
X144822857Y-104701914D01*
X144822857Y-104701914D02*
X144851428Y-104673342D01*
X144851428Y-104673342D02*
X144880000Y-104616200D01*
X144880000Y-104616200D02*
X144880000Y-104559057D01*
X144880000Y-104559057D02*
X144851428Y-104501914D01*
X144851428Y-104501914D02*
X144822857Y-104473342D01*
X144822857Y-104473342D02*
X144765714Y-104444771D01*
X144765714Y-104444771D02*
X144622857Y-104444771D01*
X144622857Y-104444771D02*
X144537143Y-104473342D01*
X144279999Y-104730485D02*
X144079999Y-104730485D01*
X143994285Y-105044771D02*
X144279999Y-105044771D01*
X144279999Y-105044771D02*
X144279999Y-104444771D01*
X144279999Y-104444771D02*
X143994285Y-104444771D01*
X143822857Y-104444771D02*
X143480000Y-104444771D01*
X143651428Y-105044771D02*
X143651428Y-104444771D01*
X152155399Y-101714200D02*
X152069685Y-101742771D01*
X152069685Y-101742771D02*
X151926827Y-101742771D01*
X151926827Y-101742771D02*
X151869685Y-101714200D01*
X151869685Y-101714200D02*
X151841113Y-101685628D01*
X151841113Y-101685628D02*
X151812542Y-101628485D01*
X151812542Y-101628485D02*
X151812542Y-101571342D01*
X151812542Y-101571342D02*
X151841113Y-101514200D01*
X151841113Y-101514200D02*
X151869685Y-101485628D01*
X151869685Y-101485628D02*
X151926827Y-101457057D01*
X151926827Y-101457057D02*
X152041113Y-101428485D01*
X152041113Y-101428485D02*
X152098256Y-101399914D01*
X152098256Y-101399914D02*
X152126827Y-101371342D01*
X152126827Y-101371342D02*
X152155399Y-101314200D01*
X152155399Y-101314200D02*
X152155399Y-101257057D01*
X152155399Y-101257057D02*
X152126827Y-101199914D01*
X152126827Y-101199914D02*
X152098256Y-101171342D01*
X152098256Y-101171342D02*
X152041113Y-101142771D01*
X152041113Y-101142771D02*
X151898256Y-101142771D01*
X151898256Y-101142771D02*
X151812542Y-101171342D01*
X151641113Y-101142771D02*
X151298256Y-101142771D01*
X151469684Y-101742771D02*
X151469684Y-101142771D01*
X151126827Y-101571342D02*
X150841113Y-101571342D01*
X151183970Y-101742771D02*
X150983970Y-101142771D01*
X150983970Y-101142771D02*
X150783970Y-101742771D01*
X150669684Y-101142771D02*
X150326827Y-101142771D01*
X150498255Y-101742771D02*
X150498255Y-101142771D01*
X150126826Y-101142771D02*
X150126826Y-101628485D01*
X150126826Y-101628485D02*
X150098255Y-101685628D01*
X150098255Y-101685628D02*
X150069684Y-101714200D01*
X150069684Y-101714200D02*
X150012541Y-101742771D01*
X150012541Y-101742771D02*
X149898255Y-101742771D01*
X149898255Y-101742771D02*
X149841112Y-101714200D01*
X149841112Y-101714200D02*
X149812541Y-101685628D01*
X149812541Y-101685628D02*
X149783969Y-101628485D01*
X149783969Y-101628485D02*
X149783969Y-101142771D01*
X149526827Y-101714200D02*
X149441113Y-101742771D01*
X149441113Y-101742771D02*
X149298255Y-101742771D01*
X149298255Y-101742771D02*
X149241113Y-101714200D01*
X149241113Y-101714200D02*
X149212541Y-101685628D01*
X149212541Y-101685628D02*
X149183970Y-101628485D01*
X149183970Y-101628485D02*
X149183970Y-101571342D01*
X149183970Y-101571342D02*
X149212541Y-101514200D01*
X149212541Y-101514200D02*
X149241113Y-101485628D01*
X149241113Y-101485628D02*
X149298255Y-101457057D01*
X149298255Y-101457057D02*
X149412541Y-101428485D01*
X149412541Y-101428485D02*
X149469684Y-101399914D01*
X149469684Y-101399914D02*
X149498255Y-101371342D01*
X149498255Y-101371342D02*
X149526827Y-101314200D01*
X149526827Y-101314200D02*
X149526827Y-101257057D01*
X149526827Y-101257057D02*
X149498255Y-101199914D01*
X149498255Y-101199914D02*
X149469684Y-101171342D01*
X149469684Y-101171342D02*
X149412541Y-101142771D01*
X149412541Y-101142771D02*
X149269684Y-101142771D01*
X149269684Y-101142771D02*
X149183970Y-101171342D01*
X147065713Y-104039200D02*
X146922856Y-104086819D01*
X146922856Y-104086819D02*
X146684761Y-104086819D01*
X146684761Y-104086819D02*
X146589523Y-104039200D01*
X146589523Y-104039200D02*
X146541904Y-103991580D01*
X146541904Y-103991580D02*
X146494285Y-103896342D01*
X146494285Y-103896342D02*
X146494285Y-103801104D01*
X146494285Y-103801104D02*
X146541904Y-103705866D01*
X146541904Y-103705866D02*
X146589523Y-103658247D01*
X146589523Y-103658247D02*
X146684761Y-103610628D01*
X146684761Y-103610628D02*
X146875237Y-103563009D01*
X146875237Y-103563009D02*
X146970475Y-103515390D01*
X146970475Y-103515390D02*
X147018094Y-103467771D01*
X147018094Y-103467771D02*
X147065713Y-103372533D01*
X147065713Y-103372533D02*
X147065713Y-103277295D01*
X147065713Y-103277295D02*
X147018094Y-103182057D01*
X147018094Y-103182057D02*
X146970475Y-103134438D01*
X146970475Y-103134438D02*
X146875237Y-103086819D01*
X146875237Y-103086819D02*
X146637142Y-103086819D01*
X146637142Y-103086819D02*
X146494285Y-103134438D01*
X146160951Y-103086819D02*
X145922856Y-104086819D01*
X145922856Y-104086819D02*
X145732380Y-103372533D01*
X145732380Y-103372533D02*
X145541904Y-104086819D01*
X145541904Y-104086819D02*
X145303809Y-103086819D01*
X144399047Y-104086819D02*
X144970475Y-104086819D01*
X144684761Y-104086819D02*
X144684761Y-103086819D01*
X144684761Y-103086819D02*
X144779999Y-103229676D01*
X144779999Y-103229676D02*
X144875237Y-103324914D01*
X144875237Y-103324914D02*
X144970475Y-103372533D01*
X143779999Y-103086819D02*
X143684761Y-103086819D01*
X143684761Y-103086819D02*
X143589523Y-103134438D01*
X143589523Y-103134438D02*
X143541904Y-103182057D01*
X143541904Y-103182057D02*
X143494285Y-103277295D01*
X143494285Y-103277295D02*
X143446666Y-103467771D01*
X143446666Y-103467771D02*
X143446666Y-103705866D01*
X143446666Y-103705866D02*
X143494285Y-103896342D01*
X143494285Y-103896342D02*
X143541904Y-103991580D01*
X143541904Y-103991580D02*
X143589523Y-104039200D01*
X143589523Y-104039200D02*
X143684761Y-104086819D01*
X143684761Y-104086819D02*
X143779999Y-104086819D01*
X143779999Y-104086819D02*
X143875237Y-104039200D01*
X143875237Y-104039200D02*
X143922856Y-103991580D01*
X143922856Y-103991580D02*
X143970475Y-103896342D01*
X143970475Y-103896342D02*
X144018094Y-103705866D01*
X144018094Y-103705866D02*
X144018094Y-103467771D01*
X144018094Y-103467771D02*
X143970475Y-103277295D01*
X143970475Y-103277295D02*
X143922856Y-103182057D01*
X143922856Y-103182057D02*
X143875237Y-103134438D01*
X143875237Y-103134438D02*
X143779999Y-103086819D01*
X142494285Y-104086819D02*
X143065713Y-104086819D01*
X142779999Y-104086819D02*
X142779999Y-103086819D01*
X142779999Y-103086819D02*
X142875237Y-103229676D01*
X142875237Y-103229676D02*
X142970475Y-103324914D01*
X142970475Y-103324914D02*
X143065713Y-103372533D01*
X151203819Y-97369524D02*
X150203819Y-97369524D01*
X150203819Y-97369524D02*
X150203819Y-97607619D01*
X150203819Y-97607619D02*
X150251438Y-97750476D01*
X150251438Y-97750476D02*
X150346676Y-97845714D01*
X150346676Y-97845714D02*
X150441914Y-97893333D01*
X150441914Y-97893333D02*
X150632390Y-97940952D01*
X150632390Y-97940952D02*
X150775247Y-97940952D01*
X150775247Y-97940952D02*
X150965723Y-97893333D01*
X150965723Y-97893333D02*
X151060961Y-97845714D01*
X151060961Y-97845714D02*
X151156200Y-97750476D01*
X151156200Y-97750476D02*
X151203819Y-97607619D01*
X151203819Y-97607619D02*
X151203819Y-97369524D01*
X151203819Y-98893333D02*
X151203819Y-98321905D01*
X151203819Y-98607619D02*
X150203819Y-98607619D01*
X150203819Y-98607619D02*
X150346676Y-98512381D01*
X150346676Y-98512381D02*
X150441914Y-98417143D01*
X150441914Y-98417143D02*
X150489533Y-98321905D01*
X150203819Y-99512381D02*
X150203819Y-99607619D01*
X150203819Y-99607619D02*
X150251438Y-99702857D01*
X150251438Y-99702857D02*
X150299057Y-99750476D01*
X150299057Y-99750476D02*
X150394295Y-99798095D01*
X150394295Y-99798095D02*
X150584771Y-99845714D01*
X150584771Y-99845714D02*
X150822866Y-99845714D01*
X150822866Y-99845714D02*
X151013342Y-99798095D01*
X151013342Y-99798095D02*
X151108580Y-99750476D01*
X151108580Y-99750476D02*
X151156200Y-99702857D01*
X151156200Y-99702857D02*
X151203819Y-99607619D01*
X151203819Y-99607619D02*
X151203819Y-99512381D01*
X151203819Y-99512381D02*
X151156200Y-99417143D01*
X151156200Y-99417143D02*
X151108580Y-99369524D01*
X151108580Y-99369524D02*
X151013342Y-99321905D01*
X151013342Y-99321905D02*
X150822866Y-99274286D01*
X150822866Y-99274286D02*
X150584771Y-99274286D01*
X150584771Y-99274286D02*
X150394295Y-99321905D01*
X150394295Y-99321905D02*
X150299057Y-99369524D01*
X150299057Y-99369524D02*
X150251438Y-99417143D01*
X150251438Y-99417143D02*
X150203819Y-99512381D01*
X151203819Y-100798095D02*
X151203819Y-100226667D01*
X151203819Y-100512381D02*
X150203819Y-100512381D01*
X150203819Y-100512381D02*
X150346676Y-100417143D01*
X150346676Y-100417143D02*
X150441914Y-100321905D01*
X150441914Y-100321905D02*
X150489533Y-100226667D01*
X139168047Y-103451819D02*
X139501380Y-102975628D01*
X139739475Y-103451819D02*
X139739475Y-102451819D01*
X139739475Y-102451819D02*
X139358523Y-102451819D01*
X139358523Y-102451819D02*
X139263285Y-102499438D01*
X139263285Y-102499438D02*
X139215666Y-102547057D01*
X139215666Y-102547057D02*
X139168047Y-102642295D01*
X139168047Y-102642295D02*
X139168047Y-102785152D01*
X139168047Y-102785152D02*
X139215666Y-102880390D01*
X139215666Y-102880390D02*
X139263285Y-102928009D01*
X139263285Y-102928009D02*
X139358523Y-102975628D01*
X139358523Y-102975628D02*
X139739475Y-102975628D01*
X138215666Y-103451819D02*
X138787094Y-103451819D01*
X138501380Y-103451819D02*
X138501380Y-102451819D01*
X138501380Y-102451819D02*
X138596618Y-102594676D01*
X138596618Y-102594676D02*
X138691856Y-102689914D01*
X138691856Y-102689914D02*
X138787094Y-102737533D01*
X137596618Y-102451819D02*
X137501380Y-102451819D01*
X137501380Y-102451819D02*
X137406142Y-102499438D01*
X137406142Y-102499438D02*
X137358523Y-102547057D01*
X137358523Y-102547057D02*
X137310904Y-102642295D01*
X137310904Y-102642295D02*
X137263285Y-102832771D01*
X137263285Y-102832771D02*
X137263285Y-103070866D01*
X137263285Y-103070866D02*
X137310904Y-103261342D01*
X137310904Y-103261342D02*
X137358523Y-103356580D01*
X137358523Y-103356580D02*
X137406142Y-103404200D01*
X137406142Y-103404200D02*
X137501380Y-103451819D01*
X137501380Y-103451819D02*
X137596618Y-103451819D01*
X137596618Y-103451819D02*
X137691856Y-103404200D01*
X137691856Y-103404200D02*
X137739475Y-103356580D01*
X137739475Y-103356580D02*
X137787094Y-103261342D01*
X137787094Y-103261342D02*
X137834713Y-103070866D01*
X137834713Y-103070866D02*
X137834713Y-102832771D01*
X137834713Y-102832771D02*
X137787094Y-102642295D01*
X137787094Y-102642295D02*
X137739475Y-102547057D01*
X137739475Y-102547057D02*
X137691856Y-102499438D01*
X137691856Y-102499438D02*
X137596618Y-102451819D01*
X136929951Y-102451819D02*
X136310904Y-102451819D01*
X136310904Y-102451819D02*
X136644237Y-102832771D01*
X136644237Y-102832771D02*
X136501380Y-102832771D01*
X136501380Y-102832771D02*
X136406142Y-102880390D01*
X136406142Y-102880390D02*
X136358523Y-102928009D01*
X136358523Y-102928009D02*
X136310904Y-103023247D01*
X136310904Y-103023247D02*
X136310904Y-103261342D01*
X136310904Y-103261342D02*
X136358523Y-103356580D01*
X136358523Y-103356580D02*
X136406142Y-103404200D01*
X136406142Y-103404200D02*
X136501380Y-103451819D01*
X136501380Y-103451819D02*
X136787094Y-103451819D01*
X136787094Y-103451819D02*
X136882332Y-103404200D01*
X136882332Y-103404200D02*
X136929951Y-103356580D01*
X139168047Y-102054819D02*
X139501380Y-101578628D01*
X139739475Y-102054819D02*
X139739475Y-101054819D01*
X139739475Y-101054819D02*
X139358523Y-101054819D01*
X139358523Y-101054819D02*
X139263285Y-101102438D01*
X139263285Y-101102438D02*
X139215666Y-101150057D01*
X139215666Y-101150057D02*
X139168047Y-101245295D01*
X139168047Y-101245295D02*
X139168047Y-101388152D01*
X139168047Y-101388152D02*
X139215666Y-101483390D01*
X139215666Y-101483390D02*
X139263285Y-101531009D01*
X139263285Y-101531009D02*
X139358523Y-101578628D01*
X139358523Y-101578628D02*
X139739475Y-101578628D01*
X138215666Y-102054819D02*
X138787094Y-102054819D01*
X138501380Y-102054819D02*
X138501380Y-101054819D01*
X138501380Y-101054819D02*
X138596618Y-101197676D01*
X138596618Y-101197676D02*
X138691856Y-101292914D01*
X138691856Y-101292914D02*
X138787094Y-101340533D01*
X137596618Y-101054819D02*
X137501380Y-101054819D01*
X137501380Y-101054819D02*
X137406142Y-101102438D01*
X137406142Y-101102438D02*
X137358523Y-101150057D01*
X137358523Y-101150057D02*
X137310904Y-101245295D01*
X137310904Y-101245295D02*
X137263285Y-101435771D01*
X137263285Y-101435771D02*
X137263285Y-101673866D01*
X137263285Y-101673866D02*
X137310904Y-101864342D01*
X137310904Y-101864342D02*
X137358523Y-101959580D01*
X137358523Y-101959580D02*
X137406142Y-102007200D01*
X137406142Y-102007200D02*
X137501380Y-102054819D01*
X137501380Y-102054819D02*
X137596618Y-102054819D01*
X137596618Y-102054819D02*
X137691856Y-102007200D01*
X137691856Y-102007200D02*
X137739475Y-101959580D01*
X137739475Y-101959580D02*
X137787094Y-101864342D01*
X137787094Y-101864342D02*
X137834713Y-101673866D01*
X137834713Y-101673866D02*
X137834713Y-101435771D01*
X137834713Y-101435771D02*
X137787094Y-101245295D01*
X137787094Y-101245295D02*
X137739475Y-101150057D01*
X137739475Y-101150057D02*
X137691856Y-101102438D01*
X137691856Y-101102438D02*
X137596618Y-101054819D01*
X136406142Y-101388152D02*
X136406142Y-102054819D01*
X136644237Y-101007200D02*
X136882332Y-101721485D01*
X136882332Y-101721485D02*
X136263285Y-101721485D01*
X139168047Y-96974819D02*
X139501380Y-96498628D01*
X139739475Y-96974819D02*
X139739475Y-95974819D01*
X139739475Y-95974819D02*
X139358523Y-95974819D01*
X139358523Y-95974819D02*
X139263285Y-96022438D01*
X139263285Y-96022438D02*
X139215666Y-96070057D01*
X139215666Y-96070057D02*
X139168047Y-96165295D01*
X139168047Y-96165295D02*
X139168047Y-96308152D01*
X139168047Y-96308152D02*
X139215666Y-96403390D01*
X139215666Y-96403390D02*
X139263285Y-96451009D01*
X139263285Y-96451009D02*
X139358523Y-96498628D01*
X139358523Y-96498628D02*
X139739475Y-96498628D01*
X138215666Y-96974819D02*
X138787094Y-96974819D01*
X138501380Y-96974819D02*
X138501380Y-95974819D01*
X138501380Y-95974819D02*
X138596618Y-96117676D01*
X138596618Y-96117676D02*
X138691856Y-96212914D01*
X138691856Y-96212914D02*
X138787094Y-96260533D01*
X137596618Y-95974819D02*
X137501380Y-95974819D01*
X137501380Y-95974819D02*
X137406142Y-96022438D01*
X137406142Y-96022438D02*
X137358523Y-96070057D01*
X137358523Y-96070057D02*
X137310904Y-96165295D01*
X137310904Y-96165295D02*
X137263285Y-96355771D01*
X137263285Y-96355771D02*
X137263285Y-96593866D01*
X137263285Y-96593866D02*
X137310904Y-96784342D01*
X137310904Y-96784342D02*
X137358523Y-96879580D01*
X137358523Y-96879580D02*
X137406142Y-96927200D01*
X137406142Y-96927200D02*
X137501380Y-96974819D01*
X137501380Y-96974819D02*
X137596618Y-96974819D01*
X137596618Y-96974819D02*
X137691856Y-96927200D01*
X137691856Y-96927200D02*
X137739475Y-96879580D01*
X137739475Y-96879580D02*
X137787094Y-96784342D01*
X137787094Y-96784342D02*
X137834713Y-96593866D01*
X137834713Y-96593866D02*
X137834713Y-96355771D01*
X137834713Y-96355771D02*
X137787094Y-96165295D01*
X137787094Y-96165295D02*
X137739475Y-96070057D01*
X137739475Y-96070057D02*
X137691856Y-96022438D01*
X137691856Y-96022438D02*
X137596618Y-95974819D01*
X136929951Y-95974819D02*
X136263285Y-95974819D01*
X136263285Y-95974819D02*
X136691856Y-96974819D01*
X139168047Y-98371819D02*
X139501380Y-97895628D01*
X139739475Y-98371819D02*
X139739475Y-97371819D01*
X139739475Y-97371819D02*
X139358523Y-97371819D01*
X139358523Y-97371819D02*
X139263285Y-97419438D01*
X139263285Y-97419438D02*
X139215666Y-97467057D01*
X139215666Y-97467057D02*
X139168047Y-97562295D01*
X139168047Y-97562295D02*
X139168047Y-97705152D01*
X139168047Y-97705152D02*
X139215666Y-97800390D01*
X139215666Y-97800390D02*
X139263285Y-97848009D01*
X139263285Y-97848009D02*
X139358523Y-97895628D01*
X139358523Y-97895628D02*
X139739475Y-97895628D01*
X138215666Y-98371819D02*
X138787094Y-98371819D01*
X138501380Y-98371819D02*
X138501380Y-97371819D01*
X138501380Y-97371819D02*
X138596618Y-97514676D01*
X138596618Y-97514676D02*
X138691856Y-97609914D01*
X138691856Y-97609914D02*
X138787094Y-97657533D01*
X137596618Y-97371819D02*
X137501380Y-97371819D01*
X137501380Y-97371819D02*
X137406142Y-97419438D01*
X137406142Y-97419438D02*
X137358523Y-97467057D01*
X137358523Y-97467057D02*
X137310904Y-97562295D01*
X137310904Y-97562295D02*
X137263285Y-97752771D01*
X137263285Y-97752771D02*
X137263285Y-97990866D01*
X137263285Y-97990866D02*
X137310904Y-98181342D01*
X137310904Y-98181342D02*
X137358523Y-98276580D01*
X137358523Y-98276580D02*
X137406142Y-98324200D01*
X137406142Y-98324200D02*
X137501380Y-98371819D01*
X137501380Y-98371819D02*
X137596618Y-98371819D01*
X137596618Y-98371819D02*
X137691856Y-98324200D01*
X137691856Y-98324200D02*
X137739475Y-98276580D01*
X137739475Y-98276580D02*
X137787094Y-98181342D01*
X137787094Y-98181342D02*
X137834713Y-97990866D01*
X137834713Y-97990866D02*
X137834713Y-97752771D01*
X137834713Y-97752771D02*
X137787094Y-97562295D01*
X137787094Y-97562295D02*
X137739475Y-97467057D01*
X137739475Y-97467057D02*
X137691856Y-97419438D01*
X137691856Y-97419438D02*
X137596618Y-97371819D01*
X136691856Y-97800390D02*
X136787094Y-97752771D01*
X136787094Y-97752771D02*
X136834713Y-97705152D01*
X136834713Y-97705152D02*
X136882332Y-97609914D01*
X136882332Y-97609914D02*
X136882332Y-97562295D01*
X136882332Y-97562295D02*
X136834713Y-97467057D01*
X136834713Y-97467057D02*
X136787094Y-97419438D01*
X136787094Y-97419438D02*
X136691856Y-97371819D01*
X136691856Y-97371819D02*
X136501380Y-97371819D01*
X136501380Y-97371819D02*
X136406142Y-97419438D01*
X136406142Y-97419438D02*
X136358523Y-97467057D01*
X136358523Y-97467057D02*
X136310904Y-97562295D01*
X136310904Y-97562295D02*
X136310904Y-97609914D01*
X136310904Y-97609914D02*
X136358523Y-97705152D01*
X136358523Y-97705152D02*
X136406142Y-97752771D01*
X136406142Y-97752771D02*
X136501380Y-97800390D01*
X136501380Y-97800390D02*
X136691856Y-97800390D01*
X136691856Y-97800390D02*
X136787094Y-97848009D01*
X136787094Y-97848009D02*
X136834713Y-97895628D01*
X136834713Y-97895628D02*
X136882332Y-97990866D01*
X136882332Y-97990866D02*
X136882332Y-98181342D01*
X136882332Y-98181342D02*
X136834713Y-98276580D01*
X136834713Y-98276580D02*
X136787094Y-98324200D01*
X136787094Y-98324200D02*
X136691856Y-98371819D01*
X136691856Y-98371819D02*
X136501380Y-98371819D01*
X136501380Y-98371819D02*
X136406142Y-98324200D01*
X136406142Y-98324200D02*
X136358523Y-98276580D01*
X136358523Y-98276580D02*
X136310904Y-98181342D01*
X136310904Y-98181342D02*
X136310904Y-97990866D01*
X136310904Y-97990866D02*
X136358523Y-97895628D01*
X136358523Y-97895628D02*
X136406142Y-97848009D01*
X136406142Y-97848009D02*
X136501380Y-97800390D01*
X146026047Y-94434819D02*
X146359380Y-93958628D01*
X146597475Y-94434819D02*
X146597475Y-93434819D01*
X146597475Y-93434819D02*
X146216523Y-93434819D01*
X146216523Y-93434819D02*
X146121285Y-93482438D01*
X146121285Y-93482438D02*
X146073666Y-93530057D01*
X146073666Y-93530057D02*
X146026047Y-93625295D01*
X146026047Y-93625295D02*
X146026047Y-93768152D01*
X146026047Y-93768152D02*
X146073666Y-93863390D01*
X146073666Y-93863390D02*
X146121285Y-93911009D01*
X146121285Y-93911009D02*
X146216523Y-93958628D01*
X146216523Y-93958628D02*
X146597475Y-93958628D01*
X145073666Y-94434819D02*
X145645094Y-94434819D01*
X145359380Y-94434819D02*
X145359380Y-93434819D01*
X145359380Y-93434819D02*
X145454618Y-93577676D01*
X145454618Y-93577676D02*
X145549856Y-93672914D01*
X145549856Y-93672914D02*
X145645094Y-93720533D01*
X144454618Y-93434819D02*
X144359380Y-93434819D01*
X144359380Y-93434819D02*
X144264142Y-93482438D01*
X144264142Y-93482438D02*
X144216523Y-93530057D01*
X144216523Y-93530057D02*
X144168904Y-93625295D01*
X144168904Y-93625295D02*
X144121285Y-93815771D01*
X144121285Y-93815771D02*
X144121285Y-94053866D01*
X144121285Y-94053866D02*
X144168904Y-94244342D01*
X144168904Y-94244342D02*
X144216523Y-94339580D01*
X144216523Y-94339580D02*
X144264142Y-94387200D01*
X144264142Y-94387200D02*
X144359380Y-94434819D01*
X144359380Y-94434819D02*
X144454618Y-94434819D01*
X144454618Y-94434819D02*
X144549856Y-94387200D01*
X144549856Y-94387200D02*
X144597475Y-94339580D01*
X144597475Y-94339580D02*
X144645094Y-94244342D01*
X144645094Y-94244342D02*
X144692713Y-94053866D01*
X144692713Y-94053866D02*
X144692713Y-93815771D01*
X144692713Y-93815771D02*
X144645094Y-93625295D01*
X144645094Y-93625295D02*
X144597475Y-93530057D01*
X144597475Y-93530057D02*
X144549856Y-93482438D01*
X144549856Y-93482438D02*
X144454618Y-93434819D01*
X143645094Y-94434819D02*
X143454618Y-94434819D01*
X143454618Y-94434819D02*
X143359380Y-94387200D01*
X143359380Y-94387200D02*
X143311761Y-94339580D01*
X143311761Y-94339580D02*
X143216523Y-94196723D01*
X143216523Y-94196723D02*
X143168904Y-94006247D01*
X143168904Y-94006247D02*
X143168904Y-93625295D01*
X143168904Y-93625295D02*
X143216523Y-93530057D01*
X143216523Y-93530057D02*
X143264142Y-93482438D01*
X143264142Y-93482438D02*
X143359380Y-93434819D01*
X143359380Y-93434819D02*
X143549856Y-93434819D01*
X143549856Y-93434819D02*
X143645094Y-93482438D01*
X143645094Y-93482438D02*
X143692713Y-93530057D01*
X143692713Y-93530057D02*
X143740332Y-93625295D01*
X143740332Y-93625295D02*
X143740332Y-93863390D01*
X143740332Y-93863390D02*
X143692713Y-93958628D01*
X143692713Y-93958628D02*
X143645094Y-94006247D01*
X143645094Y-94006247D02*
X143549856Y-94053866D01*
X143549856Y-94053866D02*
X143359380Y-94053866D01*
X143359380Y-94053866D02*
X143264142Y-94006247D01*
X143264142Y-94006247D02*
X143216523Y-93958628D01*
X143216523Y-93958628D02*
X143168904Y-93863390D01*
X155140819Y-98194952D02*
X154664628Y-97861619D01*
X155140819Y-97623524D02*
X154140819Y-97623524D01*
X154140819Y-97623524D02*
X154140819Y-98004476D01*
X154140819Y-98004476D02*
X154188438Y-98099714D01*
X154188438Y-98099714D02*
X154236057Y-98147333D01*
X154236057Y-98147333D02*
X154331295Y-98194952D01*
X154331295Y-98194952D02*
X154474152Y-98194952D01*
X154474152Y-98194952D02*
X154569390Y-98147333D01*
X154569390Y-98147333D02*
X154617009Y-98099714D01*
X154617009Y-98099714D02*
X154664628Y-98004476D01*
X154664628Y-98004476D02*
X154664628Y-97623524D01*
X155140819Y-99147333D02*
X155140819Y-98575905D01*
X155140819Y-98861619D02*
X154140819Y-98861619D01*
X154140819Y-98861619D02*
X154283676Y-98766381D01*
X154283676Y-98766381D02*
X154378914Y-98671143D01*
X154378914Y-98671143D02*
X154426533Y-98575905D01*
X155140819Y-100099714D02*
X155140819Y-99528286D01*
X155140819Y-99814000D02*
X154140819Y-99814000D01*
X154140819Y-99814000D02*
X154283676Y-99718762D01*
X154283676Y-99718762D02*
X154378914Y-99623524D01*
X154378914Y-99623524D02*
X154426533Y-99528286D01*
X155140819Y-101052095D02*
X155140819Y-100480667D01*
X155140819Y-100766381D02*
X154140819Y-100766381D01*
X154140819Y-100766381D02*
X154283676Y-100671143D01*
X154283676Y-100671143D02*
X154378914Y-100575905D01*
X154378914Y-100575905D02*
X154426533Y-100480667D01*
X154662047Y-96466819D02*
X154995380Y-95990628D01*
X155233475Y-96466819D02*
X155233475Y-95466819D01*
X155233475Y-95466819D02*
X154852523Y-95466819D01*
X154852523Y-95466819D02*
X154757285Y-95514438D01*
X154757285Y-95514438D02*
X154709666Y-95562057D01*
X154709666Y-95562057D02*
X154662047Y-95657295D01*
X154662047Y-95657295D02*
X154662047Y-95800152D01*
X154662047Y-95800152D02*
X154709666Y-95895390D01*
X154709666Y-95895390D02*
X154757285Y-95943009D01*
X154757285Y-95943009D02*
X154852523Y-95990628D01*
X154852523Y-95990628D02*
X155233475Y-95990628D01*
X153709666Y-96466819D02*
X154281094Y-96466819D01*
X153995380Y-96466819D02*
X153995380Y-95466819D01*
X153995380Y-95466819D02*
X154090618Y-95609676D01*
X154090618Y-95609676D02*
X154185856Y-95704914D01*
X154185856Y-95704914D02*
X154281094Y-95752533D01*
X152757285Y-96466819D02*
X153328713Y-96466819D01*
X153042999Y-96466819D02*
X153042999Y-95466819D01*
X153042999Y-95466819D02*
X153138237Y-95609676D01*
X153138237Y-95609676D02*
X153233475Y-95704914D01*
X153233475Y-95704914D02*
X153328713Y-95752533D01*
X152376332Y-95562057D02*
X152328713Y-95514438D01*
X152328713Y-95514438D02*
X152233475Y-95466819D01*
X152233475Y-95466819D02*
X151995380Y-95466819D01*
X151995380Y-95466819D02*
X151900142Y-95514438D01*
X151900142Y-95514438D02*
X151852523Y-95562057D01*
X151852523Y-95562057D02*
X151804904Y-95657295D01*
X151804904Y-95657295D02*
X151804904Y-95752533D01*
X151804904Y-95752533D02*
X151852523Y-95895390D01*
X151852523Y-95895390D02*
X152423951Y-96466819D01*
X152423951Y-96466819D02*
X151804904Y-96466819D01*
X142280000Y-96560000D02*
X142280000Y-101560000D01*
X142530000Y-96060000D02*
X142530000Y-96560000D01*
X142530000Y-96560000D02*
X142280000Y-96560000D01*
X142530000Y-101560000D02*
X142280000Y-101560000D01*
X142530000Y-102060000D02*
X142530000Y-101560000D01*
X147030000Y-96560000D02*
X147280000Y-96560000D01*
X147030000Y-101560000D02*
X147280000Y-101560000D01*
X147280000Y-96560000D02*
X147280000Y-101560000D01*
X148271000Y-98714000D02*
X148271000Y-99406000D01*
X148621000Y-98810000D02*
X149321000Y-98810000D01*
X148621000Y-99310000D02*
X149321000Y-99310000D01*
X148971000Y-98600000D02*
X148971000Y-98810000D01*
X148971000Y-99310000D02*
X148621000Y-98810000D01*
X148971000Y-99520000D02*
X148971000Y-99310000D01*
X149321000Y-98810000D02*
X148971000Y-99310000D01*
X149671000Y-98714000D02*
X149671000Y-99406000D01*
X133639000Y-103265000D02*
X134839000Y-103265000D01*
X134839000Y-105015000D02*
X133639000Y-105015000D01*
X133639000Y-100725000D02*
X134839000Y-100725000D01*
X134839000Y-102475000D02*
X133639000Y-102475000D01*
X133639000Y-95645000D02*
X134839000Y-95645000D01*
X134839000Y-97395000D02*
X133639000Y-97395000D01*
X133639000Y-98185000D02*
X134839000Y-98185000D01*
X134839000Y-99935000D02*
X133639000Y-99935000D01*
X147990000Y-93105000D02*
X149190000Y-93105000D01*
X149190000Y-94855000D02*
X147990000Y-94855000D01*
X155462000Y-99914000D02*
X155462000Y-98714000D01*
X157212000Y-98714000D02*
X157212000Y-99914000D01*
X149260000Y-95137000D02*
X150460000Y-95137000D01*
X150460000Y-96887000D02*
X149260000Y-96887000D01*
%LPC*%
D11*
X135890000Y-91440000D03*
D12*
X135890000Y-88900000D03*
X138430000Y-91440000D03*
X138430000Y-88900000D03*
X140970000Y-91440000D03*
X140970000Y-88900000D03*
X143510000Y-91440000D03*
X143510000Y-88900000D03*
X146050000Y-91440000D03*
X146050000Y-88900000D03*
X148590000Y-91440000D03*
X148590000Y-88900000D03*
X151130000Y-91440000D03*
X151130000Y-88900000D03*
X153670000Y-91440000D03*
X153670000Y-88900000D03*
D13*
X128524000Y-90170000D03*
X128524000Y-92710000D03*
X128524000Y-95250000D03*
X128524000Y-97790000D03*
X128524000Y-100330000D03*
X128524000Y-102870000D03*
X128524000Y-105410000D03*
X128524000Y-107950000D03*
D14*
X161036000Y-107950000D03*
X161036000Y-105410000D03*
X161036000Y-102870000D03*
X161036000Y-100330000D03*
X161036000Y-97790000D03*
X161036000Y-95250000D03*
X161036000Y-92710000D03*
X161036000Y-90170000D03*
D15*
X158750000Y-99060000D03*
X158750000Y-101600000D03*
X158750000Y-104140000D03*
X130810000Y-99060000D03*
X130810000Y-101600000D03*
X130810000Y-104140000D03*
X140970000Y-101600000D03*
X140970000Y-106680000D03*
X152400000Y-104140000D03*
X152400000Y-109220000D03*
D16*
X131064000Y-96266000D03*
X158496000Y-96266000D03*
D17*
X129540000Y-87122000D03*
X160020000Y-87122000D03*
D15*
X130810000Y-106680000D03*
X158750000Y-106680000D03*
X140970000Y-96520000D03*
X138430000Y-93980000D03*
D18*
X143510000Y-96655000D03*
X143510000Y-101465000D03*
X146050000Y-96655000D03*
X146050000Y-101465000D03*
D19*
X148971000Y-100260000D03*
X148971000Y-97860000D03*
D20*
X133139000Y-104140000D03*
X135339000Y-104140000D03*
D21*
X135339000Y-101600000D03*
X133139000Y-101600000D03*
D20*
X133139000Y-96520000D03*
X135339000Y-96520000D03*
D21*
X135339000Y-99060000D03*
X133139000Y-99060000D03*
X149690000Y-93980000D03*
X147490000Y-93980000D03*
D22*
X156337000Y-98214000D03*
X156337000Y-100414000D03*
D20*
X148760000Y-96012000D03*
X150960000Y-96012000D03*
D15*
X137668000Y-99060000D03*
X137668000Y-104140000D03*
D23*
X148336000Y-102108000D03*
X149225000Y-102997000D03*
%LPD*%
M02*
