G04 #@! TF.GenerationSoftware,KiCad,Pcbnew,(5.1.5)*
G04 #@! TF.CreationDate,2019-12-06T17:14:53-05:00*
G04 #@! TF.ProjectId,term,7465726d-2e6b-4696-9361-645f70636258,rev?*
G04 #@! TF.SameCoordinates,Original*
G04 #@! TF.FileFunction,Legend,Top*
G04 #@! TF.FilePolarity,Positive*
%FSLAX46Y46*%
G04 Gerber Fmt 4.6, Leading zero omitted, Abs format (unit mm)*
G04 Created by KiCad (PCBNEW (5.1.5)) date 2019-12-06 17:14:53*
%MOMM*%
%LPD*%
G04 APERTURE LIST*
%ADD10C,0.150000*%
%ADD11C,1.016000*%
%ADD12C,2.032000*%
%ADD13R,2.032000X1.778000*%
%ADD14C,2.286000*%
%ADD15R,1.778000X1.778000*%
%ADD16C,1.778000*%
%ADD17R,1.000000X1.300000*%
%ADD18R,1.300000X1.000000*%
%ADD19R,1.300000X1.200000*%
%ADD20C,0.889000*%
G04 APERTURE END LIST*
D10*
X143563571Y-111827285D02*
X143563571Y-111255857D01*
X143849285Y-111541571D02*
X143277857Y-111541571D01*
X143099285Y-110970142D02*
X143099285Y-110505857D01*
X143385000Y-110755857D01*
X143385000Y-110648714D01*
X143420714Y-110577285D01*
X143456428Y-110541571D01*
X143527857Y-110505857D01*
X143706428Y-110505857D01*
X143777857Y-110541571D01*
X143813571Y-110577285D01*
X143849285Y-110648714D01*
X143849285Y-110863000D01*
X143813571Y-110934428D01*
X143777857Y-110970142D01*
X143777857Y-110184428D02*
X143813571Y-110148714D01*
X143849285Y-110184428D01*
X143813571Y-110220142D01*
X143777857Y-110184428D01*
X143849285Y-110184428D01*
X143099285Y-109898714D02*
X143099285Y-109434428D01*
X143385000Y-109684428D01*
X143385000Y-109577285D01*
X143420714Y-109505857D01*
X143456428Y-109470142D01*
X143527857Y-109434428D01*
X143706428Y-109434428D01*
X143777857Y-109470142D01*
X143813571Y-109505857D01*
X143849285Y-109577285D01*
X143849285Y-109791571D01*
X143813571Y-109863000D01*
X143777857Y-109898714D01*
X143349285Y-109184428D02*
X143849285Y-109005857D01*
X143349285Y-108827285D01*
X146103571Y-111827285D02*
X146103571Y-111255857D01*
X146389285Y-111541571D02*
X145817857Y-111541571D01*
X145639285Y-110970142D02*
X145639285Y-110505857D01*
X145925000Y-110755857D01*
X145925000Y-110648714D01*
X145960714Y-110577285D01*
X145996428Y-110541571D01*
X146067857Y-110505857D01*
X146246428Y-110505857D01*
X146317857Y-110541571D01*
X146353571Y-110577285D01*
X146389285Y-110648714D01*
X146389285Y-110863000D01*
X146353571Y-110934428D01*
X146317857Y-110970142D01*
X146317857Y-110184428D02*
X146353571Y-110148714D01*
X146389285Y-110184428D01*
X146353571Y-110220142D01*
X146317857Y-110184428D01*
X146389285Y-110184428D01*
X145639285Y-109684428D02*
X145639285Y-109613000D01*
X145675000Y-109541571D01*
X145710714Y-109505857D01*
X145782142Y-109470142D01*
X145925000Y-109434428D01*
X146103571Y-109434428D01*
X146246428Y-109470142D01*
X146317857Y-109505857D01*
X146353571Y-109541571D01*
X146389285Y-109613000D01*
X146389285Y-109684428D01*
X146353571Y-109755857D01*
X146317857Y-109791571D01*
X146246428Y-109827285D01*
X146103571Y-109863000D01*
X145925000Y-109863000D01*
X145782142Y-109827285D01*
X145710714Y-109791571D01*
X145675000Y-109755857D01*
X145639285Y-109684428D01*
X145889285Y-109184428D02*
X146389285Y-109005857D01*
X145889285Y-108827285D01*
X158170071Y-94442000D02*
X158112928Y-94413428D01*
X158027214Y-94413428D01*
X157941500Y-94442000D01*
X157884357Y-94499142D01*
X157855785Y-94556285D01*
X157827214Y-94670571D01*
X157827214Y-94756285D01*
X157855785Y-94870571D01*
X157884357Y-94927714D01*
X157941500Y-94984857D01*
X158027214Y-95013428D01*
X158084357Y-95013428D01*
X158170071Y-94984857D01*
X158198642Y-94956285D01*
X158198642Y-94756285D01*
X158084357Y-94756285D01*
X158455785Y-95013428D02*
X158455785Y-94413428D01*
X158798642Y-95013428D01*
X158798642Y-94413428D01*
X159084357Y-95013428D02*
X159084357Y-94413428D01*
X159227214Y-94413428D01*
X159312928Y-94442000D01*
X159370071Y-94499142D01*
X159398642Y-94556285D01*
X159427214Y-94670571D01*
X159427214Y-94756285D01*
X159398642Y-94870571D01*
X159370071Y-94927714D01*
X159312928Y-94984857D01*
X159227214Y-95013428D01*
X159084357Y-95013428D01*
X157916071Y-107650000D02*
X157858928Y-107621428D01*
X157773214Y-107621428D01*
X157687500Y-107650000D01*
X157630357Y-107707142D01*
X157601785Y-107764285D01*
X157573214Y-107878571D01*
X157573214Y-107964285D01*
X157601785Y-108078571D01*
X157630357Y-108135714D01*
X157687500Y-108192857D01*
X157773214Y-108221428D01*
X157830357Y-108221428D01*
X157916071Y-108192857D01*
X157944642Y-108164285D01*
X157944642Y-107964285D01*
X157830357Y-107964285D01*
X158201785Y-108221428D02*
X158201785Y-107621428D01*
X158544642Y-108221428D01*
X158544642Y-107621428D01*
X158830357Y-108221428D02*
X158830357Y-107621428D01*
X158973214Y-107621428D01*
X159058928Y-107650000D01*
X159116071Y-107707142D01*
X159144642Y-107764285D01*
X159173214Y-107878571D01*
X159173214Y-107964285D01*
X159144642Y-108078571D01*
X159116071Y-108135714D01*
X159058928Y-108192857D01*
X158973214Y-108221428D01*
X158830357Y-108221428D01*
X157055785Y-102827142D02*
X157141500Y-102855714D01*
X157170071Y-102884285D01*
X157198642Y-102941428D01*
X157198642Y-103027142D01*
X157170071Y-103084285D01*
X157141500Y-103112857D01*
X157084357Y-103141428D01*
X156855785Y-103141428D01*
X156855785Y-102541428D01*
X157055785Y-102541428D01*
X157112928Y-102570000D01*
X157141500Y-102598571D01*
X157170071Y-102655714D01*
X157170071Y-102712857D01*
X157141500Y-102770000D01*
X157112928Y-102798571D01*
X157055785Y-102827142D01*
X156855785Y-102827142D01*
X157741500Y-103141428D02*
X157455785Y-103141428D01*
X157455785Y-102541428D01*
X157912928Y-102970000D02*
X158198642Y-102970000D01*
X157855785Y-103141428D02*
X158055785Y-102541428D01*
X158255785Y-103141428D01*
X158455785Y-103141428D02*
X158455785Y-102541428D01*
X158798642Y-103141428D01*
X158798642Y-102541428D01*
X159084357Y-103141428D02*
X159084357Y-102541428D01*
X159427214Y-103141428D02*
X159170071Y-102798571D01*
X159427214Y-102541428D02*
X159084357Y-102884285D01*
X157398642Y-105652857D02*
X157484357Y-105681428D01*
X157627214Y-105681428D01*
X157684357Y-105652857D01*
X157712928Y-105624285D01*
X157741500Y-105567142D01*
X157741500Y-105510000D01*
X157712928Y-105452857D01*
X157684357Y-105424285D01*
X157627214Y-105395714D01*
X157512928Y-105367142D01*
X157455785Y-105338571D01*
X157427214Y-105310000D01*
X157398642Y-105252857D01*
X157398642Y-105195714D01*
X157427214Y-105138571D01*
X157455785Y-105110000D01*
X157512928Y-105081428D01*
X157655785Y-105081428D01*
X157741500Y-105110000D01*
X158341500Y-105624285D02*
X158312928Y-105652857D01*
X158227214Y-105681428D01*
X158170071Y-105681428D01*
X158084357Y-105652857D01*
X158027214Y-105595714D01*
X157998642Y-105538571D01*
X157970071Y-105424285D01*
X157970071Y-105338571D01*
X157998642Y-105224285D01*
X158027214Y-105167142D01*
X158084357Y-105110000D01*
X158170071Y-105081428D01*
X158227214Y-105081428D01*
X158312928Y-105110000D01*
X158341500Y-105138571D01*
X158884357Y-105681428D02*
X158598642Y-105681428D01*
X158598642Y-105081428D01*
X159084357Y-105681428D02*
X159084357Y-105081428D01*
X159427214Y-105681428D02*
X159170071Y-105338571D01*
X159427214Y-105081428D02*
X159084357Y-105424285D01*
X158512928Y-100601428D02*
X158227214Y-100601428D01*
X158227214Y-100001428D01*
X158684357Y-100430000D02*
X158970071Y-100430000D01*
X158627214Y-100601428D02*
X158827214Y-100001428D01*
X159027214Y-100601428D01*
X159141500Y-100001428D02*
X159484357Y-100001428D01*
X159312928Y-100601428D02*
X159312928Y-100001428D01*
X160036000Y-109942380D02*
X160226476Y-109942380D01*
X160321714Y-109990000D01*
X160416952Y-110085238D01*
X160464571Y-110275714D01*
X160464571Y-110609047D01*
X160416952Y-110799523D01*
X160321714Y-110894761D01*
X160226476Y-110942380D01*
X160036000Y-110942380D01*
X159940761Y-110894761D01*
X159845523Y-110799523D01*
X159797904Y-110609047D01*
X159797904Y-110275714D01*
X159845523Y-110085238D01*
X159940761Y-109990000D01*
X160036000Y-109942380D01*
X160893142Y-109942380D02*
X160893142Y-110751904D01*
X160940761Y-110847142D01*
X160988380Y-110894761D01*
X161083619Y-110942380D01*
X161274095Y-110942380D01*
X161369333Y-110894761D01*
X161416952Y-110847142D01*
X161464571Y-110751904D01*
X161464571Y-109942380D01*
X161797904Y-109942380D02*
X162369333Y-109942380D01*
X162083619Y-110942380D02*
X162083619Y-109942380D01*
X128000190Y-110942380D02*
X128000190Y-109942380D01*
X128476380Y-110942380D02*
X128476380Y-109942380D01*
X129047809Y-110942380D01*
X129047809Y-109942380D01*
X130227428Y-90777357D02*
X130827428Y-90577357D01*
X130227428Y-90377357D01*
X130656000Y-90205928D02*
X130656000Y-89920214D01*
X130827428Y-90263071D02*
X130227428Y-90063071D01*
X130827428Y-89863071D01*
X130656000Y-89691642D02*
X130656000Y-89405928D01*
X130827428Y-89748785D02*
X130227428Y-89548785D01*
X130827428Y-89348785D01*
X130227428Y-93317357D02*
X130827428Y-93117357D01*
X130227428Y-92917357D01*
X130770285Y-92374500D02*
X130798857Y-92403071D01*
X130827428Y-92488785D01*
X130827428Y-92545928D01*
X130798857Y-92631642D01*
X130741714Y-92688785D01*
X130684571Y-92717357D01*
X130570285Y-92745928D01*
X130484571Y-92745928D01*
X130370285Y-92717357D01*
X130313142Y-92688785D01*
X130256000Y-92631642D01*
X130227428Y-92545928D01*
X130227428Y-92488785D01*
X130256000Y-92403071D01*
X130284571Y-92374500D01*
X130770285Y-91774500D02*
X130798857Y-91803071D01*
X130827428Y-91888785D01*
X130827428Y-91945928D01*
X130798857Y-92031642D01*
X130741714Y-92088785D01*
X130684571Y-92117357D01*
X130570285Y-92145928D01*
X130484571Y-92145928D01*
X130370285Y-92117357D01*
X130313142Y-92088785D01*
X130256000Y-92031642D01*
X130227428Y-91945928D01*
X130227428Y-91888785D01*
X130256000Y-91803071D01*
X130284571Y-91774500D01*
X136568857Y-110329285D02*
X136747428Y-110829285D01*
X136926000Y-110329285D01*
X137604571Y-110829285D02*
X137176000Y-110829285D01*
X137390285Y-110829285D02*
X137390285Y-110079285D01*
X137318857Y-110186428D01*
X137247428Y-110257857D01*
X137176000Y-110293571D01*
X137926000Y-110757857D02*
X137961714Y-110793571D01*
X137926000Y-110829285D01*
X137890285Y-110793571D01*
X137926000Y-110757857D01*
X137926000Y-110829285D01*
X138676000Y-110829285D02*
X138247428Y-110829285D01*
X138461714Y-110829285D02*
X138461714Y-110079285D01*
X138390285Y-110186428D01*
X138318857Y-110257857D01*
X138247428Y-110293571D01*
X138997428Y-110757857D02*
X139033142Y-110793571D01*
X138997428Y-110829285D01*
X138961714Y-110793571D01*
X138997428Y-110757857D01*
X138997428Y-110829285D01*
X139497428Y-110079285D02*
X139568857Y-110079285D01*
X139640285Y-110115000D01*
X139676000Y-110150714D01*
X139711714Y-110222142D01*
X139747428Y-110365000D01*
X139747428Y-110543571D01*
X139711714Y-110686428D01*
X139676000Y-110757857D01*
X139640285Y-110793571D01*
X139568857Y-110829285D01*
X139497428Y-110829285D01*
X139426000Y-110793571D01*
X139390285Y-110757857D01*
X139354571Y-110686428D01*
X139318857Y-110543571D01*
X139318857Y-110365000D01*
X139354571Y-110222142D01*
X139390285Y-110150714D01*
X139426000Y-110115000D01*
X139497428Y-110079285D01*
X148811000Y-112027857D02*
X148775285Y-112063571D01*
X148668142Y-112099285D01*
X148596714Y-112099285D01*
X148489571Y-112063571D01*
X148418142Y-111992142D01*
X148382428Y-111920714D01*
X148346714Y-111777857D01*
X148346714Y-111670714D01*
X148382428Y-111527857D01*
X148418142Y-111456428D01*
X148489571Y-111385000D01*
X148596714Y-111349285D01*
X148668142Y-111349285D01*
X148775285Y-111385000D01*
X148811000Y-111420714D01*
X149239571Y-112099285D02*
X149168142Y-112063571D01*
X149132428Y-112027857D01*
X149096714Y-111956428D01*
X149096714Y-111742142D01*
X149132428Y-111670714D01*
X149168142Y-111635000D01*
X149239571Y-111599285D01*
X149346714Y-111599285D01*
X149418142Y-111635000D01*
X149453857Y-111670714D01*
X149489571Y-111742142D01*
X149489571Y-111956428D01*
X149453857Y-112027857D01*
X149418142Y-112063571D01*
X149346714Y-112099285D01*
X149239571Y-112099285D01*
X149811000Y-111599285D02*
X149811000Y-112099285D01*
X149811000Y-111670714D02*
X149846714Y-111635000D01*
X149918142Y-111599285D01*
X150025285Y-111599285D01*
X150096714Y-111635000D01*
X150132428Y-111706428D01*
X150132428Y-112099285D01*
X150489571Y-111599285D02*
X150489571Y-112099285D01*
X150489571Y-111670714D02*
X150525285Y-111635000D01*
X150596714Y-111599285D01*
X150703857Y-111599285D01*
X150775285Y-111635000D01*
X150811000Y-111706428D01*
X150811000Y-112099285D01*
X151453857Y-112063571D02*
X151382428Y-112099285D01*
X151239571Y-112099285D01*
X151168142Y-112063571D01*
X151132428Y-111992142D01*
X151132428Y-111706428D01*
X151168142Y-111635000D01*
X151239571Y-111599285D01*
X151382428Y-111599285D01*
X151453857Y-111635000D01*
X151489571Y-111706428D01*
X151489571Y-111777857D01*
X151132428Y-111849285D01*
X152132428Y-112063571D02*
X152061000Y-112099285D01*
X151918142Y-112099285D01*
X151846714Y-112063571D01*
X151811000Y-112027857D01*
X151775285Y-111956428D01*
X151775285Y-111742142D01*
X151811000Y-111670714D01*
X151846714Y-111635000D01*
X151918142Y-111599285D01*
X152061000Y-111599285D01*
X152132428Y-111635000D01*
X152346714Y-111599285D02*
X152632428Y-111599285D01*
X152453857Y-111349285D02*
X152453857Y-111992142D01*
X152489571Y-112063571D01*
X152561000Y-112099285D01*
X152632428Y-112099285D01*
X152989571Y-112099285D02*
X152918142Y-112063571D01*
X152882428Y-112027857D01*
X152846714Y-111956428D01*
X152846714Y-111742142D01*
X152882428Y-111670714D01*
X152918142Y-111635000D01*
X152989571Y-111599285D01*
X153096714Y-111599285D01*
X153168142Y-111635000D01*
X153203857Y-111670714D01*
X153239571Y-111742142D01*
X153239571Y-111956428D01*
X153203857Y-112027857D01*
X153168142Y-112063571D01*
X153096714Y-112099285D01*
X152989571Y-112099285D01*
X153561000Y-112099285D02*
X153561000Y-111599285D01*
X153561000Y-111742142D02*
X153596714Y-111670714D01*
X153632428Y-111635000D01*
X153703857Y-111599285D01*
X153775285Y-111599285D01*
X154561000Y-111313571D02*
X153918142Y-112277857D01*
X154703857Y-111349285D02*
X155132428Y-111349285D01*
X154918142Y-112099285D02*
X154918142Y-111349285D01*
X155668142Y-112063571D02*
X155596714Y-112099285D01*
X155453857Y-112099285D01*
X155382428Y-112063571D01*
X155346714Y-111992142D01*
X155346714Y-111706428D01*
X155382428Y-111635000D01*
X155453857Y-111599285D01*
X155596714Y-111599285D01*
X155668142Y-111635000D01*
X155703857Y-111706428D01*
X155703857Y-111777857D01*
X155346714Y-111849285D01*
X156025285Y-112099285D02*
X156025285Y-111599285D01*
X156025285Y-111742142D02*
X156061000Y-111670714D01*
X156096714Y-111635000D01*
X156168142Y-111599285D01*
X156239571Y-111599285D01*
X156489571Y-112099285D02*
X156489571Y-111599285D01*
X156489571Y-111670714D02*
X156525285Y-111635000D01*
X156596714Y-111599285D01*
X156703857Y-111599285D01*
X156775285Y-111635000D01*
X156811000Y-111706428D01*
X156811000Y-112099285D01*
X156811000Y-111706428D02*
X156846714Y-111635000D01*
X156918142Y-111599285D01*
X157025285Y-111599285D01*
X157096714Y-111635000D01*
X157132428Y-111706428D01*
X157132428Y-112099285D01*
X157489571Y-112099285D02*
X157489571Y-111599285D01*
X157489571Y-111349285D02*
X157453857Y-111385000D01*
X157489571Y-111420714D01*
X157525285Y-111385000D01*
X157489571Y-111349285D01*
X157489571Y-111420714D01*
X157846714Y-111599285D02*
X157846714Y-112099285D01*
X157846714Y-111670714D02*
X157882428Y-111635000D01*
X157953857Y-111599285D01*
X158061000Y-111599285D01*
X158132428Y-111635000D01*
X158168142Y-111706428D01*
X158168142Y-112099285D01*
X158846714Y-112099285D02*
X158846714Y-111706428D01*
X158811000Y-111635000D01*
X158739571Y-111599285D01*
X158596714Y-111599285D01*
X158525285Y-111635000D01*
X158846714Y-112063571D02*
X158775285Y-112099285D01*
X158596714Y-112099285D01*
X158525285Y-112063571D01*
X158489571Y-111992142D01*
X158489571Y-111920714D01*
X158525285Y-111849285D01*
X158596714Y-111813571D01*
X158775285Y-111813571D01*
X158846714Y-111777857D01*
X159096714Y-111599285D02*
X159382428Y-111599285D01*
X159203857Y-111349285D02*
X159203857Y-111992142D01*
X159239571Y-112063571D01*
X159311000Y-112099285D01*
X159382428Y-112099285D01*
X159632428Y-112099285D02*
X159632428Y-111599285D01*
X159632428Y-111349285D02*
X159596714Y-111385000D01*
X159632428Y-111420714D01*
X159668142Y-111385000D01*
X159632428Y-111349285D01*
X159632428Y-111420714D01*
X160096714Y-112099285D02*
X160025285Y-112063571D01*
X159989571Y-112027857D01*
X159953857Y-111956428D01*
X159953857Y-111742142D01*
X159989571Y-111670714D01*
X160025285Y-111635000D01*
X160096714Y-111599285D01*
X160203857Y-111599285D01*
X160275285Y-111635000D01*
X160311000Y-111670714D01*
X160346714Y-111742142D01*
X160346714Y-111956428D01*
X160311000Y-112027857D01*
X160275285Y-112063571D01*
X160203857Y-112099285D01*
X160096714Y-112099285D01*
X160668142Y-111599285D02*
X160668142Y-112099285D01*
X160668142Y-111670714D02*
X160703857Y-111635000D01*
X160775285Y-111599285D01*
X160882428Y-111599285D01*
X160953857Y-111635000D01*
X160989571Y-111706428D01*
X160989571Y-112099285D01*
X129421714Y-112099285D02*
X129421714Y-111349285D01*
X129421714Y-112063571D02*
X129350285Y-112099285D01*
X129207428Y-112099285D01*
X129136000Y-112063571D01*
X129100285Y-112027857D01*
X129064571Y-111956428D01*
X129064571Y-111742142D01*
X129100285Y-111670714D01*
X129136000Y-111635000D01*
X129207428Y-111599285D01*
X129350285Y-111599285D01*
X129421714Y-111635000D01*
X130100285Y-112063571D02*
X130028857Y-112099285D01*
X129886000Y-112099285D01*
X129814571Y-112063571D01*
X129778857Y-112027857D01*
X129743142Y-111956428D01*
X129743142Y-111742142D01*
X129778857Y-111670714D01*
X129814571Y-111635000D01*
X129886000Y-111599285D01*
X130028857Y-111599285D01*
X130100285Y-111635000D01*
X130386000Y-112063571D02*
X130457428Y-112099285D01*
X130600285Y-112099285D01*
X130671714Y-112063571D01*
X130707428Y-111992142D01*
X130707428Y-111956428D01*
X130671714Y-111885000D01*
X130600285Y-111849285D01*
X130493142Y-111849285D01*
X130421714Y-111813571D01*
X130386000Y-111742142D01*
X130386000Y-111706428D01*
X130421714Y-111635000D01*
X130493142Y-111599285D01*
X130600285Y-111599285D01*
X130671714Y-111635000D01*
X131350285Y-111599285D02*
X131350285Y-112099285D01*
X131028857Y-111599285D02*
X131028857Y-111992142D01*
X131064571Y-112063571D01*
X131136000Y-112099285D01*
X131243142Y-112099285D01*
X131314571Y-112063571D01*
X131350285Y-112027857D01*
X131707428Y-111599285D02*
X131707428Y-112099285D01*
X131707428Y-111670714D02*
X131743142Y-111635000D01*
X131814571Y-111599285D01*
X131921714Y-111599285D01*
X131993142Y-111635000D01*
X132028857Y-111706428D01*
X132028857Y-112099285D01*
X132493142Y-111670714D02*
X132421714Y-111635000D01*
X132386000Y-111599285D01*
X132350285Y-111527857D01*
X132350285Y-111492142D01*
X132386000Y-111420714D01*
X132421714Y-111385000D01*
X132493142Y-111349285D01*
X132636000Y-111349285D01*
X132707428Y-111385000D01*
X132743142Y-111420714D01*
X132778857Y-111492142D01*
X132778857Y-111527857D01*
X132743142Y-111599285D01*
X132707428Y-111635000D01*
X132636000Y-111670714D01*
X132493142Y-111670714D01*
X132421714Y-111706428D01*
X132386000Y-111742142D01*
X132350285Y-111813571D01*
X132350285Y-111956428D01*
X132386000Y-112027857D01*
X132421714Y-112063571D01*
X132493142Y-112099285D01*
X132636000Y-112099285D01*
X132707428Y-112063571D01*
X132743142Y-112027857D01*
X132778857Y-111956428D01*
X132778857Y-111813571D01*
X132743142Y-111742142D01*
X132707428Y-111706428D01*
X132636000Y-111670714D01*
X133207428Y-111670714D02*
X133136000Y-111635000D01*
X133100285Y-111599285D01*
X133064571Y-111527857D01*
X133064571Y-111492142D01*
X133100285Y-111420714D01*
X133136000Y-111385000D01*
X133207428Y-111349285D01*
X133350285Y-111349285D01*
X133421714Y-111385000D01*
X133457428Y-111420714D01*
X133493142Y-111492142D01*
X133493142Y-111527857D01*
X133457428Y-111599285D01*
X133421714Y-111635000D01*
X133350285Y-111670714D01*
X133207428Y-111670714D01*
X133136000Y-111706428D01*
X133100285Y-111742142D01*
X133064571Y-111813571D01*
X133064571Y-111956428D01*
X133100285Y-112027857D01*
X133136000Y-112063571D01*
X133207428Y-112099285D01*
X133350285Y-112099285D01*
X133421714Y-112063571D01*
X133457428Y-112027857D01*
X133493142Y-111956428D01*
X133493142Y-111813571D01*
X133457428Y-111742142D01*
X133421714Y-111706428D01*
X133350285Y-111670714D01*
X133921714Y-112099285D02*
X133850285Y-112063571D01*
X133814571Y-112027857D01*
X133778857Y-111956428D01*
X133778857Y-111742142D01*
X133814571Y-111670714D01*
X133850285Y-111635000D01*
X133921714Y-111599285D01*
X134028857Y-111599285D01*
X134100285Y-111635000D01*
X134136000Y-111670714D01*
X134171714Y-111742142D01*
X134171714Y-111956428D01*
X134136000Y-112027857D01*
X134100285Y-112063571D01*
X134028857Y-112099285D01*
X133921714Y-112099285D01*
X134457428Y-112063571D02*
X134528857Y-112099285D01*
X134671714Y-112099285D01*
X134743142Y-112063571D01*
X134778857Y-111992142D01*
X134778857Y-111956428D01*
X134743142Y-111885000D01*
X134671714Y-111849285D01*
X134564571Y-111849285D01*
X134493142Y-111813571D01*
X134457428Y-111742142D01*
X134457428Y-111706428D01*
X134493142Y-111635000D01*
X134564571Y-111599285D01*
X134671714Y-111599285D01*
X134743142Y-111635000D01*
X135100285Y-112099285D02*
X135100285Y-111349285D01*
X135421714Y-112099285D02*
X135421714Y-111706428D01*
X135386000Y-111635000D01*
X135314571Y-111599285D01*
X135207428Y-111599285D01*
X135136000Y-111635000D01*
X135100285Y-111670714D01*
X136243142Y-111742142D02*
X136207428Y-111706428D01*
X136136000Y-111670714D01*
X136064571Y-111670714D01*
X135993142Y-111706428D01*
X135957428Y-111742142D01*
X135921714Y-111813571D01*
X135921714Y-111885000D01*
X135957428Y-111956428D01*
X135993142Y-111992142D01*
X136064571Y-112027857D01*
X136136000Y-112027857D01*
X136207428Y-111992142D01*
X136243142Y-111956428D01*
X136243142Y-111670714D02*
X136243142Y-111956428D01*
X136278857Y-111992142D01*
X136314571Y-111992142D01*
X136386000Y-111956428D01*
X136421714Y-111885000D01*
X136421714Y-111706428D01*
X136350285Y-111599285D01*
X136243142Y-111527857D01*
X136100285Y-111492142D01*
X135957428Y-111527857D01*
X135850285Y-111599285D01*
X135778857Y-111706428D01*
X135743142Y-111849285D01*
X135778857Y-111992142D01*
X135850285Y-112099285D01*
X135957428Y-112170714D01*
X136100285Y-112206428D01*
X136243142Y-112170714D01*
X136350285Y-112099285D01*
X137064571Y-111599285D02*
X137064571Y-112206428D01*
X137028857Y-112277857D01*
X136993142Y-112313571D01*
X136921714Y-112349285D01*
X136814571Y-112349285D01*
X136743142Y-112313571D01*
X137064571Y-112063571D02*
X136993142Y-112099285D01*
X136850285Y-112099285D01*
X136778857Y-112063571D01*
X136743142Y-112027857D01*
X136707428Y-111956428D01*
X136707428Y-111742142D01*
X136743142Y-111670714D01*
X136778857Y-111635000D01*
X136850285Y-111599285D01*
X136993142Y-111599285D01*
X137064571Y-111635000D01*
X137421714Y-112099285D02*
X137421714Y-111599285D01*
X137421714Y-111670714D02*
X137457428Y-111635000D01*
X137528857Y-111599285D01*
X137636000Y-111599285D01*
X137707428Y-111635000D01*
X137743142Y-111706428D01*
X137743142Y-112099285D01*
X137743142Y-111706428D02*
X137778857Y-111635000D01*
X137850285Y-111599285D01*
X137957428Y-111599285D01*
X138028857Y-111635000D01*
X138064571Y-111706428D01*
X138064571Y-112099285D01*
X138743142Y-112099285D02*
X138743142Y-111706428D01*
X138707428Y-111635000D01*
X138636000Y-111599285D01*
X138493142Y-111599285D01*
X138421714Y-111635000D01*
X138743142Y-112063571D02*
X138671714Y-112099285D01*
X138493142Y-112099285D01*
X138421714Y-112063571D01*
X138386000Y-111992142D01*
X138386000Y-111920714D01*
X138421714Y-111849285D01*
X138493142Y-111813571D01*
X138671714Y-111813571D01*
X138743142Y-111777857D01*
X139100285Y-112099285D02*
X139100285Y-111599285D01*
X139100285Y-111349285D02*
X139064571Y-111385000D01*
X139100285Y-111420714D01*
X139136000Y-111385000D01*
X139100285Y-111349285D01*
X139100285Y-111420714D01*
X139564571Y-112099285D02*
X139493142Y-112063571D01*
X139457428Y-111992142D01*
X139457428Y-111349285D01*
X139850285Y-112027857D02*
X139886000Y-112063571D01*
X139850285Y-112099285D01*
X139814571Y-112063571D01*
X139850285Y-112027857D01*
X139850285Y-112099285D01*
X140528857Y-112063571D02*
X140457428Y-112099285D01*
X140314571Y-112099285D01*
X140243142Y-112063571D01*
X140207428Y-112027857D01*
X140171714Y-111956428D01*
X140171714Y-111742142D01*
X140207428Y-111670714D01*
X140243142Y-111635000D01*
X140314571Y-111599285D01*
X140457428Y-111599285D01*
X140528857Y-111635000D01*
X140957428Y-112099285D02*
X140886000Y-112063571D01*
X140850285Y-112027857D01*
X140814571Y-111956428D01*
X140814571Y-111742142D01*
X140850285Y-111670714D01*
X140886000Y-111635000D01*
X140957428Y-111599285D01*
X141064571Y-111599285D01*
X141136000Y-111635000D01*
X141171714Y-111670714D01*
X141207428Y-111742142D01*
X141207428Y-111956428D01*
X141171714Y-112027857D01*
X141136000Y-112063571D01*
X141064571Y-112099285D01*
X140957428Y-112099285D01*
X141528857Y-112099285D02*
X141528857Y-111599285D01*
X141528857Y-111670714D02*
X141564571Y-111635000D01*
X141636000Y-111599285D01*
X141743142Y-111599285D01*
X141814571Y-111635000D01*
X141850285Y-111706428D01*
X141850285Y-112099285D01*
X141850285Y-111706428D02*
X141886000Y-111635000D01*
X141957428Y-111599285D01*
X142064571Y-111599285D01*
X142136000Y-111635000D01*
X142171714Y-111706428D01*
X142171714Y-112099285D01*
X157243071Y-98032857D02*
X157328785Y-98061428D01*
X157471642Y-98061428D01*
X157528785Y-98032857D01*
X157557357Y-98004285D01*
X157585928Y-97947142D01*
X157585928Y-97890000D01*
X157557357Y-97832857D01*
X157528785Y-97804285D01*
X157471642Y-97775714D01*
X157357357Y-97747142D01*
X157300214Y-97718571D01*
X157271642Y-97690000D01*
X157243071Y-97632857D01*
X157243071Y-97575714D01*
X157271642Y-97518571D01*
X157300214Y-97490000D01*
X157357357Y-97461428D01*
X157500214Y-97461428D01*
X157585928Y-97490000D01*
X157957357Y-97461428D02*
X158071642Y-97461428D01*
X158128785Y-97490000D01*
X158185928Y-97547142D01*
X158214500Y-97661428D01*
X158214500Y-97861428D01*
X158185928Y-97975714D01*
X158128785Y-98032857D01*
X158071642Y-98061428D01*
X157957357Y-98061428D01*
X157900214Y-98032857D01*
X157843071Y-97975714D01*
X157814500Y-97861428D01*
X157814500Y-97661428D01*
X157843071Y-97547142D01*
X157900214Y-97490000D01*
X157957357Y-97461428D01*
X158471642Y-97461428D02*
X158471642Y-97947142D01*
X158500214Y-98004285D01*
X158528785Y-98032857D01*
X158585928Y-98061428D01*
X158700214Y-98061428D01*
X158757357Y-98032857D01*
X158785928Y-98004285D01*
X158814500Y-97947142D01*
X158814500Y-97461428D01*
X159014500Y-97461428D02*
X159357357Y-97461428D01*
X159185928Y-98061428D02*
X159185928Y-97461428D01*
X158929428Y-90991214D02*
X159529428Y-90791214D01*
X158929428Y-90591214D01*
X159358000Y-90419785D02*
X159358000Y-90134071D01*
X159529428Y-90476928D02*
X158929428Y-90276928D01*
X159529428Y-90076928D01*
X159358000Y-89905500D02*
X159358000Y-89619785D01*
X159529428Y-89962642D02*
X158929428Y-89762642D01*
X159529428Y-89562642D01*
X158929428Y-93702642D02*
X159529428Y-93502642D01*
X158929428Y-93302642D01*
X159472285Y-92759785D02*
X159500857Y-92788357D01*
X159529428Y-92874071D01*
X159529428Y-92931214D01*
X159500857Y-93016928D01*
X159443714Y-93074071D01*
X159386571Y-93102642D01*
X159272285Y-93131214D01*
X159186571Y-93131214D01*
X159072285Y-93102642D01*
X159015142Y-93074071D01*
X158958000Y-93016928D01*
X158929428Y-92931214D01*
X158929428Y-92874071D01*
X158958000Y-92788357D01*
X158986571Y-92759785D01*
X159472285Y-92159785D02*
X159500857Y-92188357D01*
X159529428Y-92274071D01*
X159529428Y-92331214D01*
X159500857Y-92416928D01*
X159443714Y-92474071D01*
X159386571Y-92502642D01*
X159272285Y-92531214D01*
X159186571Y-92531214D01*
X159072285Y-92502642D01*
X159015142Y-92474071D01*
X158958000Y-92416928D01*
X158929428Y-92331214D01*
X158929428Y-92274071D01*
X158958000Y-92188357D01*
X158986571Y-92159785D01*
X130602642Y-94442000D02*
X130545500Y-94413428D01*
X130459785Y-94413428D01*
X130374071Y-94442000D01*
X130316928Y-94499142D01*
X130288357Y-94556285D01*
X130259785Y-94670571D01*
X130259785Y-94756285D01*
X130288357Y-94870571D01*
X130316928Y-94927714D01*
X130374071Y-94984857D01*
X130459785Y-95013428D01*
X130516928Y-95013428D01*
X130602642Y-94984857D01*
X130631214Y-94956285D01*
X130631214Y-94756285D01*
X130516928Y-94756285D01*
X130888357Y-95013428D02*
X130888357Y-94413428D01*
X131231214Y-95013428D01*
X131231214Y-94413428D01*
X131516928Y-95013428D02*
X131516928Y-94413428D01*
X131659785Y-94413428D01*
X131745500Y-94442000D01*
X131802642Y-94499142D01*
X131831214Y-94556285D01*
X131859785Y-94670571D01*
X131859785Y-94756285D01*
X131831214Y-94870571D01*
X131802642Y-94927714D01*
X131745500Y-94984857D01*
X131659785Y-95013428D01*
X131516928Y-95013428D01*
X130132785Y-98032857D02*
X130218500Y-98061428D01*
X130361357Y-98061428D01*
X130418500Y-98032857D01*
X130447071Y-98004285D01*
X130475642Y-97947142D01*
X130475642Y-97890000D01*
X130447071Y-97832857D01*
X130418500Y-97804285D01*
X130361357Y-97775714D01*
X130247071Y-97747142D01*
X130189928Y-97718571D01*
X130161357Y-97690000D01*
X130132785Y-97632857D01*
X130132785Y-97575714D01*
X130161357Y-97518571D01*
X130189928Y-97490000D01*
X130247071Y-97461428D01*
X130389928Y-97461428D01*
X130475642Y-97490000D01*
X130732785Y-98061428D02*
X130732785Y-97461428D01*
X131018500Y-98061428D02*
X131018500Y-97461428D01*
X131361357Y-98061428D01*
X131361357Y-97461428D01*
X130447071Y-100601428D02*
X130161357Y-100601428D01*
X130161357Y-100001428D01*
X130618500Y-100430000D02*
X130904214Y-100430000D01*
X130561357Y-100601428D02*
X130761357Y-100001428D01*
X130961357Y-100601428D01*
X131075642Y-100001428D02*
X131418500Y-100001428D01*
X131247071Y-100601428D02*
X131247071Y-100001428D01*
X130361357Y-102827142D02*
X130447071Y-102855714D01*
X130475642Y-102884285D01*
X130504214Y-102941428D01*
X130504214Y-103027142D01*
X130475642Y-103084285D01*
X130447071Y-103112857D01*
X130389928Y-103141428D01*
X130161357Y-103141428D01*
X130161357Y-102541428D01*
X130361357Y-102541428D01*
X130418500Y-102570000D01*
X130447071Y-102598571D01*
X130475642Y-102655714D01*
X130475642Y-102712857D01*
X130447071Y-102770000D01*
X130418500Y-102798571D01*
X130361357Y-102827142D01*
X130161357Y-102827142D01*
X131047071Y-103141428D02*
X130761357Y-103141428D01*
X130761357Y-102541428D01*
X131218500Y-102970000D02*
X131504214Y-102970000D01*
X131161357Y-103141428D02*
X131361357Y-102541428D01*
X131561357Y-103141428D01*
X131761357Y-103141428D02*
X131761357Y-102541428D01*
X132104214Y-103141428D01*
X132104214Y-102541428D01*
X132389928Y-103141428D02*
X132389928Y-102541428D01*
X132732785Y-103141428D02*
X132475642Y-102798571D01*
X132732785Y-102541428D02*
X132389928Y-102884285D01*
X130132785Y-105652857D02*
X130218500Y-105681428D01*
X130361357Y-105681428D01*
X130418500Y-105652857D01*
X130447071Y-105624285D01*
X130475642Y-105567142D01*
X130475642Y-105510000D01*
X130447071Y-105452857D01*
X130418500Y-105424285D01*
X130361357Y-105395714D01*
X130247071Y-105367142D01*
X130189928Y-105338571D01*
X130161357Y-105310000D01*
X130132785Y-105252857D01*
X130132785Y-105195714D01*
X130161357Y-105138571D01*
X130189928Y-105110000D01*
X130247071Y-105081428D01*
X130389928Y-105081428D01*
X130475642Y-105110000D01*
X131075642Y-105624285D02*
X131047071Y-105652857D01*
X130961357Y-105681428D01*
X130904214Y-105681428D01*
X130818500Y-105652857D01*
X130761357Y-105595714D01*
X130732785Y-105538571D01*
X130704214Y-105424285D01*
X130704214Y-105338571D01*
X130732785Y-105224285D01*
X130761357Y-105167142D01*
X130818500Y-105110000D01*
X130904214Y-105081428D01*
X130961357Y-105081428D01*
X131047071Y-105110000D01*
X131075642Y-105138571D01*
X131618500Y-105681428D02*
X131332785Y-105681428D01*
X131332785Y-105081428D01*
X131818500Y-105681428D02*
X131818500Y-105081428D01*
X132161357Y-105681428D02*
X131904214Y-105338571D01*
X132161357Y-105081428D02*
X131818500Y-105424285D01*
X130475642Y-107650000D02*
X130418500Y-107621428D01*
X130332785Y-107621428D01*
X130247071Y-107650000D01*
X130189928Y-107707142D01*
X130161357Y-107764285D01*
X130132785Y-107878571D01*
X130132785Y-107964285D01*
X130161357Y-108078571D01*
X130189928Y-108135714D01*
X130247071Y-108192857D01*
X130332785Y-108221428D01*
X130389928Y-108221428D01*
X130475642Y-108192857D01*
X130504214Y-108164285D01*
X130504214Y-107964285D01*
X130389928Y-107964285D01*
X130761357Y-108221428D02*
X130761357Y-107621428D01*
X131104214Y-108221428D01*
X131104214Y-107621428D01*
X131389928Y-108221428D02*
X131389928Y-107621428D01*
X131532785Y-107621428D01*
X131618500Y-107650000D01*
X131675642Y-107707142D01*
X131704214Y-107764285D01*
X131732785Y-107878571D01*
X131732785Y-107964285D01*
X131704214Y-108078571D01*
X131675642Y-108135714D01*
X131618500Y-108192857D01*
X131532785Y-108221428D01*
X131389928Y-108221428D01*
X129794000Y-91440000D02*
X129794000Y-109220000D01*
X129794000Y-109220000D02*
X127254000Y-109220000D01*
X127254000Y-109220000D02*
X127254000Y-91440000D01*
X130074000Y-88620000D02*
X130074000Y-90170000D01*
X129794000Y-91440000D02*
X127254000Y-91440000D01*
X126974000Y-90170000D02*
X126974000Y-88620000D01*
X126974000Y-88620000D02*
X130074000Y-88620000D01*
X159766000Y-106680000D02*
X159766000Y-88900000D01*
X159766000Y-88900000D02*
X162306000Y-88900000D01*
X162306000Y-88900000D02*
X162306000Y-106680000D01*
X159486000Y-109500000D02*
X159486000Y-107950000D01*
X159766000Y-106680000D02*
X162306000Y-106680000D01*
X162586000Y-107950000D02*
X162586000Y-109500000D01*
X162586000Y-109500000D02*
X159486000Y-109500000D01*
X142240000Y-94270000D02*
X142240000Y-93370000D01*
X142240000Y-93370000D02*
X132180000Y-93370000D01*
X132180000Y-93370000D02*
X132180000Y-86970000D01*
X132180000Y-86970000D02*
X157380000Y-86970000D01*
X157380000Y-86970000D02*
X157380000Y-93370000D01*
X157380000Y-93370000D02*
X147320000Y-93370000D01*
X147320000Y-93370000D02*
X147320000Y-94270000D01*
X130980000Y-94270000D02*
X130980000Y-86070000D01*
X130980000Y-86070000D02*
X158580000Y-86070000D01*
X158580000Y-86070000D02*
X158580000Y-94270000D01*
X158580000Y-94270000D02*
X130980000Y-94270000D01*
X134366000Y-91440000D02*
X133096000Y-90678000D01*
X133096000Y-90678000D02*
X133096000Y-92202000D01*
X133096000Y-92202000D02*
X134366000Y-91440000D01*
X134839000Y-107555000D02*
X133639000Y-107555000D01*
X133639000Y-105805000D02*
X134839000Y-105805000D01*
X133639000Y-103265000D02*
X134839000Y-103265000D01*
X134839000Y-105015000D02*
X133639000Y-105015000D01*
X134839000Y-102475000D02*
X133639000Y-102475000D01*
X133639000Y-100725000D02*
X134839000Y-100725000D01*
X133639000Y-98185000D02*
X134839000Y-98185000D01*
X134839000Y-99935000D02*
X133639000Y-99935000D01*
X155462000Y-96866000D02*
X155462000Y-95666000D01*
X157212000Y-95666000D02*
X157212000Y-96866000D01*
X148709000Y-104281000D02*
X149909000Y-104281000D01*
X149909000Y-106031000D02*
X148709000Y-106031000D01*
X142635000Y-102835000D02*
X142635000Y-101635000D01*
X144385000Y-101635000D02*
X144385000Y-102835000D01*
X143510000Y-106176000D02*
X143510000Y-105926000D01*
X143510000Y-106676000D02*
X143510000Y-106926000D01*
X143510000Y-106676000D02*
X143160000Y-106176000D01*
X143160000Y-106176000D02*
X143860000Y-106176000D01*
X143860000Y-106176000D02*
X143510000Y-106676000D01*
X143160000Y-106676000D02*
X143860000Y-106676000D01*
X144385000Y-107026000D02*
X144385000Y-105826000D01*
X142635000Y-107026000D02*
X142635000Y-105826000D01*
X146050000Y-106176000D02*
X146050000Y-105926000D01*
X146050000Y-106676000D02*
X146050000Y-106926000D01*
X146050000Y-106676000D02*
X145700000Y-106176000D01*
X145700000Y-106176000D02*
X146400000Y-106176000D01*
X146400000Y-106176000D02*
X146050000Y-106676000D01*
X145700000Y-106676000D02*
X146400000Y-106676000D01*
X146925000Y-107026000D02*
X146925000Y-105826000D01*
X145175000Y-107026000D02*
X145175000Y-105826000D01*
X130389523Y-110942380D02*
X130389523Y-109942380D01*
X130770476Y-109942380D01*
X130865714Y-109990000D01*
X130913333Y-110037619D01*
X130960952Y-110132857D01*
X130960952Y-110275714D01*
X130913333Y-110370952D01*
X130865714Y-110418571D01*
X130770476Y-110466190D01*
X130389523Y-110466190D01*
X131913333Y-110942380D02*
X131341904Y-110942380D01*
X131627619Y-110942380D02*
X131627619Y-109942380D01*
X131532380Y-110085238D01*
X131437142Y-110180476D01*
X131341904Y-110228095D01*
X132532380Y-109942380D02*
X132627619Y-109942380D01*
X132722857Y-109990000D01*
X132770476Y-110037619D01*
X132818095Y-110132857D01*
X132865714Y-110323333D01*
X132865714Y-110561428D01*
X132818095Y-110751904D01*
X132770476Y-110847142D01*
X132722857Y-110894761D01*
X132627619Y-110942380D01*
X132532380Y-110942380D01*
X132437142Y-110894761D01*
X132389523Y-110847142D01*
X132341904Y-110751904D01*
X132294285Y-110561428D01*
X132294285Y-110323333D01*
X132341904Y-110132857D01*
X132389523Y-110037619D01*
X132437142Y-109990000D01*
X132532380Y-109942380D01*
X133818095Y-110942380D02*
X133246666Y-110942380D01*
X133532380Y-110942380D02*
X133532380Y-109942380D01*
X133437142Y-110085238D01*
X133341904Y-110180476D01*
X133246666Y-110228095D01*
X155281523Y-110942380D02*
X155281523Y-109942380D01*
X155662476Y-109942380D01*
X155757714Y-109990000D01*
X155805333Y-110037619D01*
X155852952Y-110132857D01*
X155852952Y-110275714D01*
X155805333Y-110370952D01*
X155757714Y-110418571D01*
X155662476Y-110466190D01*
X155281523Y-110466190D01*
X156805333Y-110942380D02*
X156233904Y-110942380D01*
X156519619Y-110942380D02*
X156519619Y-109942380D01*
X156424380Y-110085238D01*
X156329142Y-110180476D01*
X156233904Y-110228095D01*
X157424380Y-109942380D02*
X157519619Y-109942380D01*
X157614857Y-109990000D01*
X157662476Y-110037619D01*
X157710095Y-110132857D01*
X157757714Y-110323333D01*
X157757714Y-110561428D01*
X157710095Y-110751904D01*
X157662476Y-110847142D01*
X157614857Y-110894761D01*
X157519619Y-110942380D01*
X157424380Y-110942380D01*
X157329142Y-110894761D01*
X157281523Y-110847142D01*
X157233904Y-110751904D01*
X157186285Y-110561428D01*
X157186285Y-110323333D01*
X157233904Y-110132857D01*
X157281523Y-110037619D01*
X157329142Y-109990000D01*
X157424380Y-109942380D01*
X158091047Y-109942380D02*
X158710095Y-109942380D01*
X158376761Y-110323333D01*
X158519619Y-110323333D01*
X158614857Y-110370952D01*
X158662476Y-110418571D01*
X158710095Y-110513809D01*
X158710095Y-110751904D01*
X158662476Y-110847142D01*
X158614857Y-110894761D01*
X158519619Y-110942380D01*
X158233904Y-110942380D01*
X158138666Y-110894761D01*
X158091047Y-110847142D01*
X127682857Y-84542380D02*
X127920952Y-85542380D01*
X128111428Y-84828095D01*
X128301904Y-85542380D01*
X128540000Y-84542380D01*
X129444761Y-85542380D02*
X128873333Y-85542380D01*
X129159047Y-85542380D02*
X129159047Y-84542380D01*
X129063809Y-84685238D01*
X128968571Y-84780476D01*
X128873333Y-84828095D01*
X130063809Y-84542380D02*
X130159047Y-84542380D01*
X130254285Y-84590000D01*
X130301904Y-84637619D01*
X130349523Y-84732857D01*
X130397142Y-84923333D01*
X130397142Y-85161428D01*
X130349523Y-85351904D01*
X130301904Y-85447142D01*
X130254285Y-85494761D01*
X130159047Y-85542380D01*
X130063809Y-85542380D01*
X129968571Y-85494761D01*
X129920952Y-85447142D01*
X129873333Y-85351904D01*
X129825714Y-85161428D01*
X129825714Y-84923333D01*
X129873333Y-84732857D01*
X129920952Y-84637619D01*
X129968571Y-84590000D01*
X130063809Y-84542380D01*
X131349523Y-85542380D02*
X130778095Y-85542380D01*
X131063809Y-85542380D02*
X131063809Y-84542380D01*
X130968571Y-84685238D01*
X130873333Y-84780476D01*
X130778095Y-84828095D01*
X158162857Y-84542380D02*
X158400952Y-85542380D01*
X158591428Y-84828095D01*
X158781904Y-85542380D01*
X159020000Y-84542380D01*
X159924761Y-85542380D02*
X159353333Y-85542380D01*
X159639047Y-85542380D02*
X159639047Y-84542380D01*
X159543809Y-84685238D01*
X159448571Y-84780476D01*
X159353333Y-84828095D01*
X160543809Y-84542380D02*
X160639047Y-84542380D01*
X160734285Y-84590000D01*
X160781904Y-84637619D01*
X160829523Y-84732857D01*
X160877142Y-84923333D01*
X160877142Y-85161428D01*
X160829523Y-85351904D01*
X160781904Y-85447142D01*
X160734285Y-85494761D01*
X160639047Y-85542380D01*
X160543809Y-85542380D01*
X160448571Y-85494761D01*
X160400952Y-85447142D01*
X160353333Y-85351904D01*
X160305714Y-85161428D01*
X160305714Y-84923333D01*
X160353333Y-84732857D01*
X160400952Y-84637619D01*
X160448571Y-84590000D01*
X160543809Y-84542380D01*
X161258095Y-84637619D02*
X161305714Y-84590000D01*
X161400952Y-84542380D01*
X161639047Y-84542380D01*
X161734285Y-84590000D01*
X161781904Y-84637619D01*
X161829523Y-84732857D01*
X161829523Y-84828095D01*
X161781904Y-84970952D01*
X161210476Y-85542380D01*
X161829523Y-85542380D01*
X143089523Y-85796380D02*
X143089523Y-84796380D01*
X143470476Y-84796380D01*
X143565714Y-84844000D01*
X143613333Y-84891619D01*
X143660952Y-84986857D01*
X143660952Y-85129714D01*
X143613333Y-85224952D01*
X143565714Y-85272571D01*
X143470476Y-85320190D01*
X143089523Y-85320190D01*
X144613333Y-85796380D02*
X144041904Y-85796380D01*
X144327619Y-85796380D02*
X144327619Y-84796380D01*
X144232380Y-84939238D01*
X144137142Y-85034476D01*
X144041904Y-85082095D01*
X145232380Y-84796380D02*
X145327619Y-84796380D01*
X145422857Y-84844000D01*
X145470476Y-84891619D01*
X145518095Y-84986857D01*
X145565714Y-85177333D01*
X145565714Y-85415428D01*
X145518095Y-85605904D01*
X145470476Y-85701142D01*
X145422857Y-85748761D01*
X145327619Y-85796380D01*
X145232380Y-85796380D01*
X145137142Y-85748761D01*
X145089523Y-85701142D01*
X145041904Y-85605904D01*
X144994285Y-85415428D01*
X144994285Y-85177333D01*
X145041904Y-84986857D01*
X145089523Y-84891619D01*
X145137142Y-84844000D01*
X145232380Y-84796380D01*
X145946666Y-84891619D02*
X145994285Y-84844000D01*
X146089523Y-84796380D01*
X146327619Y-84796380D01*
X146422857Y-84844000D01*
X146470476Y-84891619D01*
X146518095Y-84986857D01*
X146518095Y-85082095D01*
X146470476Y-85224952D01*
X145899047Y-85796380D01*
X146518095Y-85796380D01*
X136802952Y-107132380D02*
X136469619Y-106656190D01*
X136231523Y-107132380D02*
X136231523Y-106132380D01*
X136612476Y-106132380D01*
X136707714Y-106180000D01*
X136755333Y-106227619D01*
X136802952Y-106322857D01*
X136802952Y-106465714D01*
X136755333Y-106560952D01*
X136707714Y-106608571D01*
X136612476Y-106656190D01*
X136231523Y-106656190D01*
X137755333Y-107132380D02*
X137183904Y-107132380D01*
X137469619Y-107132380D02*
X137469619Y-106132380D01*
X137374380Y-106275238D01*
X137279142Y-106370476D01*
X137183904Y-106418095D01*
X138374380Y-106132380D02*
X138469619Y-106132380D01*
X138564857Y-106180000D01*
X138612476Y-106227619D01*
X138660095Y-106322857D01*
X138707714Y-106513333D01*
X138707714Y-106751428D01*
X138660095Y-106941904D01*
X138612476Y-107037142D01*
X138564857Y-107084761D01*
X138469619Y-107132380D01*
X138374380Y-107132380D01*
X138279142Y-107084761D01*
X138231523Y-107037142D01*
X138183904Y-106941904D01*
X138136285Y-106751428D01*
X138136285Y-106513333D01*
X138183904Y-106322857D01*
X138231523Y-106227619D01*
X138279142Y-106180000D01*
X138374380Y-106132380D01*
X139660095Y-107132380D02*
X139088666Y-107132380D01*
X139374380Y-107132380D02*
X139374380Y-106132380D01*
X139279142Y-106275238D01*
X139183904Y-106370476D01*
X139088666Y-106418095D01*
X136802952Y-105735380D02*
X136469619Y-105259190D01*
X136231523Y-105735380D02*
X136231523Y-104735380D01*
X136612476Y-104735380D01*
X136707714Y-104783000D01*
X136755333Y-104830619D01*
X136802952Y-104925857D01*
X136802952Y-105068714D01*
X136755333Y-105163952D01*
X136707714Y-105211571D01*
X136612476Y-105259190D01*
X136231523Y-105259190D01*
X137755333Y-105735380D02*
X137183904Y-105735380D01*
X137469619Y-105735380D02*
X137469619Y-104735380D01*
X137374380Y-104878238D01*
X137279142Y-104973476D01*
X137183904Y-105021095D01*
X138374380Y-104735380D02*
X138469619Y-104735380D01*
X138564857Y-104783000D01*
X138612476Y-104830619D01*
X138660095Y-104925857D01*
X138707714Y-105116333D01*
X138707714Y-105354428D01*
X138660095Y-105544904D01*
X138612476Y-105640142D01*
X138564857Y-105687761D01*
X138469619Y-105735380D01*
X138374380Y-105735380D01*
X138279142Y-105687761D01*
X138231523Y-105640142D01*
X138183904Y-105544904D01*
X138136285Y-105354428D01*
X138136285Y-105116333D01*
X138183904Y-104925857D01*
X138231523Y-104830619D01*
X138279142Y-104783000D01*
X138374380Y-104735380D01*
X139088666Y-104830619D02*
X139136285Y-104783000D01*
X139231523Y-104735380D01*
X139469619Y-104735380D01*
X139564857Y-104783000D01*
X139612476Y-104830619D01*
X139660095Y-104925857D01*
X139660095Y-105021095D01*
X139612476Y-105163952D01*
X139041047Y-105735380D01*
X139660095Y-105735380D01*
X136802952Y-102052380D02*
X136469619Y-101576190D01*
X136231523Y-102052380D02*
X136231523Y-101052380D01*
X136612476Y-101052380D01*
X136707714Y-101100000D01*
X136755333Y-101147619D01*
X136802952Y-101242857D01*
X136802952Y-101385714D01*
X136755333Y-101480952D01*
X136707714Y-101528571D01*
X136612476Y-101576190D01*
X136231523Y-101576190D01*
X137755333Y-102052380D02*
X137183904Y-102052380D01*
X137469619Y-102052380D02*
X137469619Y-101052380D01*
X137374380Y-101195238D01*
X137279142Y-101290476D01*
X137183904Y-101338095D01*
X138374380Y-101052380D02*
X138469619Y-101052380D01*
X138564857Y-101100000D01*
X138612476Y-101147619D01*
X138660095Y-101242857D01*
X138707714Y-101433333D01*
X138707714Y-101671428D01*
X138660095Y-101861904D01*
X138612476Y-101957142D01*
X138564857Y-102004761D01*
X138469619Y-102052380D01*
X138374380Y-102052380D01*
X138279142Y-102004761D01*
X138231523Y-101957142D01*
X138183904Y-101861904D01*
X138136285Y-101671428D01*
X138136285Y-101433333D01*
X138183904Y-101242857D01*
X138231523Y-101147619D01*
X138279142Y-101100000D01*
X138374380Y-101052380D01*
X139612476Y-101052380D02*
X139136285Y-101052380D01*
X139088666Y-101528571D01*
X139136285Y-101480952D01*
X139231523Y-101433333D01*
X139469619Y-101433333D01*
X139564857Y-101480952D01*
X139612476Y-101528571D01*
X139660095Y-101623809D01*
X139660095Y-101861904D01*
X139612476Y-101957142D01*
X139564857Y-102004761D01*
X139469619Y-102052380D01*
X139231523Y-102052380D01*
X139136285Y-102004761D01*
X139088666Y-101957142D01*
X136802952Y-100782380D02*
X136469619Y-100306190D01*
X136231523Y-100782380D02*
X136231523Y-99782380D01*
X136612476Y-99782380D01*
X136707714Y-99830000D01*
X136755333Y-99877619D01*
X136802952Y-99972857D01*
X136802952Y-100115714D01*
X136755333Y-100210952D01*
X136707714Y-100258571D01*
X136612476Y-100306190D01*
X136231523Y-100306190D01*
X137755333Y-100782380D02*
X137183904Y-100782380D01*
X137469619Y-100782380D02*
X137469619Y-99782380D01*
X137374380Y-99925238D01*
X137279142Y-100020476D01*
X137183904Y-100068095D01*
X138374380Y-99782380D02*
X138469619Y-99782380D01*
X138564857Y-99830000D01*
X138612476Y-99877619D01*
X138660095Y-99972857D01*
X138707714Y-100163333D01*
X138707714Y-100401428D01*
X138660095Y-100591904D01*
X138612476Y-100687142D01*
X138564857Y-100734761D01*
X138469619Y-100782380D01*
X138374380Y-100782380D01*
X138279142Y-100734761D01*
X138231523Y-100687142D01*
X138183904Y-100591904D01*
X138136285Y-100401428D01*
X138136285Y-100163333D01*
X138183904Y-99972857D01*
X138231523Y-99877619D01*
X138279142Y-99830000D01*
X138374380Y-99782380D01*
X139564857Y-99782380D02*
X139374380Y-99782380D01*
X139279142Y-99830000D01*
X139231523Y-99877619D01*
X139136285Y-100020476D01*
X139088666Y-100210952D01*
X139088666Y-100591904D01*
X139136285Y-100687142D01*
X139183904Y-100734761D01*
X139279142Y-100782380D01*
X139469619Y-100782380D01*
X139564857Y-100734761D01*
X139612476Y-100687142D01*
X139660095Y-100591904D01*
X139660095Y-100353809D01*
X139612476Y-100258571D01*
X139564857Y-100210952D01*
X139469619Y-100163333D01*
X139279142Y-100163333D01*
X139183904Y-100210952D01*
X139136285Y-100258571D01*
X139088666Y-100353809D01*
X155138380Y-97385047D02*
X154662190Y-97718380D01*
X155138380Y-97956476D02*
X154138380Y-97956476D01*
X154138380Y-97575523D01*
X154186000Y-97480285D01*
X154233619Y-97432666D01*
X154328857Y-97385047D01*
X154471714Y-97385047D01*
X154566952Y-97432666D01*
X154614571Y-97480285D01*
X154662190Y-97575523D01*
X154662190Y-97956476D01*
X155138380Y-96432666D02*
X155138380Y-97004095D01*
X155138380Y-96718380D02*
X154138380Y-96718380D01*
X154281238Y-96813619D01*
X154376476Y-96908857D01*
X154424095Y-97004095D01*
X155138380Y-95480285D02*
X155138380Y-96051714D01*
X155138380Y-95766000D02*
X154138380Y-95766000D01*
X154281238Y-95861238D01*
X154376476Y-95956476D01*
X154424095Y-96051714D01*
X154138380Y-94861238D02*
X154138380Y-94766000D01*
X154186000Y-94670761D01*
X154233619Y-94623142D01*
X154328857Y-94575523D01*
X154519333Y-94527904D01*
X154757428Y-94527904D01*
X154947904Y-94575523D01*
X155043142Y-94623142D01*
X155090761Y-94670761D01*
X155138380Y-94766000D01*
X155138380Y-94861238D01*
X155090761Y-94956476D01*
X155043142Y-95004095D01*
X154947904Y-95051714D01*
X154757428Y-95099333D01*
X154519333Y-95099333D01*
X154328857Y-95051714D01*
X154233619Y-95004095D01*
X154186000Y-94956476D01*
X154138380Y-94861238D01*
X151915952Y-105862380D02*
X151582619Y-105386190D01*
X151344523Y-105862380D02*
X151344523Y-104862380D01*
X151725476Y-104862380D01*
X151820714Y-104910000D01*
X151868333Y-104957619D01*
X151915952Y-105052857D01*
X151915952Y-105195714D01*
X151868333Y-105290952D01*
X151820714Y-105338571D01*
X151725476Y-105386190D01*
X151344523Y-105386190D01*
X152868333Y-105862380D02*
X152296904Y-105862380D01*
X152582619Y-105862380D02*
X152582619Y-104862380D01*
X152487380Y-105005238D01*
X152392142Y-105100476D01*
X152296904Y-105148095D01*
X153820714Y-105862380D02*
X153249285Y-105862380D01*
X153535000Y-105862380D02*
X153535000Y-104862380D01*
X153439761Y-105005238D01*
X153344523Y-105100476D01*
X153249285Y-105148095D01*
X154154047Y-104862380D02*
X154773095Y-104862380D01*
X154439761Y-105243333D01*
X154582619Y-105243333D01*
X154677857Y-105290952D01*
X154725476Y-105338571D01*
X154773095Y-105433809D01*
X154773095Y-105671904D01*
X154725476Y-105767142D01*
X154677857Y-105814761D01*
X154582619Y-105862380D01*
X154296904Y-105862380D01*
X154201666Y-105814761D01*
X154154047Y-105767142D01*
X143962380Y-99671047D02*
X143486190Y-100004380D01*
X143962380Y-100242476D02*
X142962380Y-100242476D01*
X142962380Y-99861523D01*
X143010000Y-99766285D01*
X143057619Y-99718666D01*
X143152857Y-99671047D01*
X143295714Y-99671047D01*
X143390952Y-99718666D01*
X143438571Y-99766285D01*
X143486190Y-99861523D01*
X143486190Y-100242476D01*
X143962380Y-98718666D02*
X143962380Y-99290095D01*
X143962380Y-99004380D02*
X142962380Y-99004380D01*
X143105238Y-99099619D01*
X143200476Y-99194857D01*
X143248095Y-99290095D01*
X143962380Y-97766285D02*
X143962380Y-98337714D01*
X143962380Y-98052000D02*
X142962380Y-98052000D01*
X143105238Y-98147238D01*
X143200476Y-98242476D01*
X143248095Y-98337714D01*
X143295714Y-96909142D02*
X143962380Y-96909142D01*
X142914761Y-97147238D02*
X143629047Y-97385333D01*
X143629047Y-96766285D01*
X142438380Y-110656476D02*
X141438380Y-110656476D01*
X141438380Y-110418380D01*
X141486000Y-110275523D01*
X141581238Y-110180285D01*
X141676476Y-110132666D01*
X141866952Y-110085047D01*
X142009809Y-110085047D01*
X142200285Y-110132666D01*
X142295523Y-110180285D01*
X142390761Y-110275523D01*
X142438380Y-110418380D01*
X142438380Y-110656476D01*
X142438380Y-109132666D02*
X142438380Y-109704095D01*
X142438380Y-109418380D02*
X141438380Y-109418380D01*
X141581238Y-109513619D01*
X141676476Y-109608857D01*
X141724095Y-109704095D01*
X141438380Y-108513619D02*
X141438380Y-108418380D01*
X141486000Y-108323142D01*
X141533619Y-108275523D01*
X141628857Y-108227904D01*
X141819333Y-108180285D01*
X142057428Y-108180285D01*
X142247904Y-108227904D01*
X142343142Y-108275523D01*
X142390761Y-108323142D01*
X142438380Y-108418380D01*
X142438380Y-108513619D01*
X142390761Y-108608857D01*
X142343142Y-108656476D01*
X142247904Y-108704095D01*
X142057428Y-108751714D01*
X141819333Y-108751714D01*
X141628857Y-108704095D01*
X141533619Y-108656476D01*
X141486000Y-108608857D01*
X141438380Y-108513619D01*
X141438380Y-107846952D02*
X141438380Y-107227904D01*
X141819333Y-107561238D01*
X141819333Y-107418380D01*
X141866952Y-107323142D01*
X141914571Y-107275523D01*
X142009809Y-107227904D01*
X142247904Y-107227904D01*
X142343142Y-107275523D01*
X142390761Y-107323142D01*
X142438380Y-107418380D01*
X142438380Y-107704095D01*
X142390761Y-107799333D01*
X142343142Y-107846952D01*
X148153380Y-110656476D02*
X147153380Y-110656476D01*
X147153380Y-110418380D01*
X147201000Y-110275523D01*
X147296238Y-110180285D01*
X147391476Y-110132666D01*
X147581952Y-110085047D01*
X147724809Y-110085047D01*
X147915285Y-110132666D01*
X148010523Y-110180285D01*
X148105761Y-110275523D01*
X148153380Y-110418380D01*
X148153380Y-110656476D01*
X148153380Y-109132666D02*
X148153380Y-109704095D01*
X148153380Y-109418380D02*
X147153380Y-109418380D01*
X147296238Y-109513619D01*
X147391476Y-109608857D01*
X147439095Y-109704095D01*
X147153380Y-108513619D02*
X147153380Y-108418380D01*
X147201000Y-108323142D01*
X147248619Y-108275523D01*
X147343857Y-108227904D01*
X147534333Y-108180285D01*
X147772428Y-108180285D01*
X147962904Y-108227904D01*
X148058142Y-108275523D01*
X148105761Y-108323142D01*
X148153380Y-108418380D01*
X148153380Y-108513619D01*
X148105761Y-108608857D01*
X148058142Y-108656476D01*
X147962904Y-108704095D01*
X147772428Y-108751714D01*
X147534333Y-108751714D01*
X147343857Y-108704095D01*
X147248619Y-108656476D01*
X147201000Y-108608857D01*
X147153380Y-108513619D01*
X147248619Y-107799333D02*
X147201000Y-107751714D01*
X147153380Y-107656476D01*
X147153380Y-107418380D01*
X147201000Y-107323142D01*
X147248619Y-107275523D01*
X147343857Y-107227904D01*
X147439095Y-107227904D01*
X147581952Y-107275523D01*
X148153380Y-107846952D01*
X148153380Y-107227904D01*
%LPC*%
D11*
X138430000Y-93980000D03*
X140970000Y-96520000D03*
X158750000Y-106680000D03*
X130810000Y-106680000D03*
D12*
X158496000Y-96266000D03*
X131064000Y-96266000D03*
D11*
X152400000Y-109220000D03*
X152400000Y-104140000D03*
X140970000Y-106680000D03*
X140970000Y-101600000D03*
X130810000Y-104140000D03*
X130810000Y-101600000D03*
X130810000Y-99060000D03*
X158750000Y-104140000D03*
X158750000Y-101600000D03*
D13*
X128524000Y-90170000D03*
X128524000Y-92710000D03*
X128524000Y-95250000D03*
X128524000Y-97790000D03*
X128524000Y-100330000D03*
X128524000Y-102870000D03*
X128524000Y-105410000D03*
X128524000Y-107950000D03*
X161036000Y-107950000D03*
X161036000Y-105410000D03*
X161036000Y-102870000D03*
X161036000Y-100330000D03*
X161036000Y-97790000D03*
X161036000Y-95250000D03*
X161036000Y-92710000D03*
X161036000Y-90170000D03*
D11*
X158750000Y-99060000D03*
D14*
X129540000Y-87122000D03*
X160020000Y-87122000D03*
D15*
X135890000Y-91440000D03*
D16*
X135890000Y-88900000D03*
X138430000Y-91440000D03*
X138430000Y-88900000D03*
X140970000Y-91440000D03*
X140970000Y-88900000D03*
X143510000Y-91440000D03*
X143510000Y-88900000D03*
X146050000Y-91440000D03*
X146050000Y-88900000D03*
X148590000Y-91440000D03*
X148590000Y-88900000D03*
X151130000Y-91440000D03*
X151130000Y-88900000D03*
X153670000Y-91440000D03*
X153670000Y-88900000D03*
D17*
X135339000Y-106680000D03*
X133139000Y-106680000D03*
X133139000Y-104140000D03*
X135339000Y-104140000D03*
X135339000Y-101600000D03*
X133139000Y-101600000D03*
X133139000Y-99060000D03*
X135339000Y-99060000D03*
D18*
X156337000Y-97366000D03*
X156337000Y-95166000D03*
D17*
X148209000Y-105156000D03*
X150409000Y-105156000D03*
D18*
X143510000Y-103335000D03*
X143510000Y-101135000D03*
D19*
X143510000Y-107626000D03*
X143510000Y-105226000D03*
X146050000Y-107626000D03*
X146050000Y-105226000D03*
D11*
X137668000Y-99060000D03*
X137668000Y-104140000D03*
D20*
X148336000Y-102108000D03*
X149225000Y-102997000D03*
M02*
