G04 #@! TF.FileFunction,Soldermask,Top*
%FSLAX46Y46*%
G04 Gerber Fmt 4.6, Leading zero omitted, Abs format (unit mm)*
G04 Created by KiCad (PCBNEW (2015-12-09 BZR 6195)-product) date Tue Nov 28 20:16:39 2017*
%MOMM*%
G01*
G04 APERTURE LIST*
%ADD10C,0.100000*%
%ADD11C,1.016000*%
%ADD12C,2.032000*%
%ADD13R,2.032000X1.778000*%
%ADD14C,2.286000*%
%ADD15R,1.778000X1.778000*%
%ADD16C,1.778000*%
%ADD17R,1.000000X1.300000*%
%ADD18R,1.300000X1.000000*%
%ADD19R,1.300000X1.200000*%
%ADD20C,0.889000*%
G04 APERTURE END LIST*
D10*
D11*
X138430000Y-93980000D03*
X140970000Y-96520000D03*
X158750000Y-106680000D03*
X130810000Y-106680000D03*
D12*
X158496000Y-96266000D03*
X131064000Y-96266000D03*
D11*
X152400000Y-109220000D03*
X152400000Y-104140000D03*
X140970000Y-106680000D03*
X140970000Y-101600000D03*
X130810000Y-104140000D03*
X130810000Y-101600000D03*
X130810000Y-99060000D03*
X158750000Y-104140000D03*
X158750000Y-101600000D03*
D13*
X128524000Y-90170000D03*
X128524000Y-92710000D03*
X128524000Y-95250000D03*
X128524000Y-97790000D03*
X128524000Y-100330000D03*
X128524000Y-102870000D03*
X128524000Y-105410000D03*
X128524000Y-107950000D03*
X161036000Y-107950000D03*
X161036000Y-105410000D03*
X161036000Y-102870000D03*
X161036000Y-100330000D03*
X161036000Y-97790000D03*
X161036000Y-95250000D03*
X161036000Y-92710000D03*
X161036000Y-90170000D03*
D11*
X158750000Y-99060000D03*
D14*
X129540000Y-87122000D03*
X160020000Y-87122000D03*
D15*
X135890000Y-91440000D03*
D16*
X135890000Y-88900000D03*
X138430000Y-91440000D03*
X138430000Y-88900000D03*
X140970000Y-91440000D03*
X140970000Y-88900000D03*
X143510000Y-91440000D03*
X143510000Y-88900000D03*
X146050000Y-91440000D03*
X146050000Y-88900000D03*
X148590000Y-91440000D03*
X148590000Y-88900000D03*
X151130000Y-91440000D03*
X151130000Y-88900000D03*
X153670000Y-91440000D03*
X153670000Y-88900000D03*
D17*
X135339000Y-106680000D03*
X133139000Y-106680000D03*
X133139000Y-104140000D03*
X135339000Y-104140000D03*
X135339000Y-101600000D03*
X133139000Y-101600000D03*
X133139000Y-99060000D03*
X135339000Y-99060000D03*
D18*
X156337000Y-97366000D03*
X156337000Y-95166000D03*
D17*
X148209000Y-105156000D03*
X150409000Y-105156000D03*
D18*
X143510000Y-103335000D03*
X143510000Y-101135000D03*
D19*
X143510000Y-107626000D03*
X143510000Y-105226000D03*
X146050000Y-107626000D03*
X146050000Y-105226000D03*
D11*
X137668000Y-99060000D03*
X137668000Y-104140000D03*
D20*
X148336000Y-102108000D03*
X149225000Y-102997000D03*
M02*
