M48
;DRILL file {KiCad (2015-12-09 BZR 6195)-product} date Sat Jun 25 23:21:20 2016
;FORMAT={3:3/ absolute / metric / keep zeros}
FMAT,2
METRIC,TZ
T1C0.610
T2C0.635
T3C1.001
T4C1.016
%
G90
G05
M71
T1
X130810Y-099060
X130810Y-101600
X130810Y-104140
X138430Y-104140
X138430Y-109220
X138430Y-099060
X140970Y-101600
X140970Y-107950
X149860Y-102870
X149860Y-106680
X149860Y-110490
X152400Y-104140
X152400Y-109220
X158750Y-099060
X158750Y-101600
X158750Y-104140
T2
X134620Y-095250
T3
X129540Y-087122
X160020Y-087122
T4
X128524Y-090170
X128524Y-092710
X128524Y-095250
X128524Y-097790
X128524Y-100330
X128524Y-102870
X128524Y-105410
X128524Y-107950
X131064Y-096266
X135890Y-088900
X135890Y-091440
X138430Y-088900
X138430Y-091440
X140970Y-088900
X140970Y-091440
X143510Y-088900
X143510Y-091440
X146050Y-088900
X146050Y-091440
X148590Y-088900
X148590Y-091440
X151130Y-088900
X151130Y-091440
X153670Y-088900
X153670Y-091440
X158496Y-096266
X161036Y-090170
X161036Y-092710
X161036Y-095250
X161036Y-097790
X161036Y-100330
X161036Y-102870
X161036Y-105410
X161036Y-107950
T0
M30
