G04 #@! TF.FileFunction,Legend,Bot*
%FSLAX46Y46*%
G04 Gerber Fmt 4.6, Leading zero omitted, Abs format (unit mm)*
G04 Created by KiCad (PCBNEW 4.0.7) date Sun Apr 29 12:05:11 2018*
%MOMM*%
%LPD*%
G01*
G04 APERTURE LIST*
%ADD10C,0.100000*%
%ADD11C,0.127000*%
%ADD12C,0.150000*%
%ADD13C,1.244600*%
%ADD14C,3.276600*%
%ADD15C,4.701600*%
%ADD16C,1.752600*%
%ADD17C,1.625600*%
G04 APERTURE END LIST*
D10*
D11*
X141589143Y-105452857D02*
X141132000Y-105452857D01*
X141360571Y-105681429D02*
X141360571Y-105224286D01*
X140560572Y-105081429D02*
X140846286Y-105081429D01*
X140874857Y-105367143D01*
X140846286Y-105338571D01*
X140789143Y-105310000D01*
X140646286Y-105310000D01*
X140589143Y-105338571D01*
X140560572Y-105367143D01*
X140532000Y-105424286D01*
X140532000Y-105567143D01*
X140560572Y-105624286D01*
X140589143Y-105652857D01*
X140646286Y-105681429D01*
X140789143Y-105681429D01*
X140846286Y-105652857D01*
X140874857Y-105624286D01*
X140332000Y-105281429D02*
X140189143Y-105681429D01*
X140046285Y-105281429D01*
X142163857Y-105681429D02*
X142506714Y-105681429D01*
X142335286Y-105681429D02*
X142335286Y-105081429D01*
X142392429Y-105167143D01*
X142449571Y-105224286D01*
X142506714Y-105252857D01*
X141274857Y-97490000D02*
X141332000Y-97461429D01*
X141417714Y-97461429D01*
X141503429Y-97490000D01*
X141560571Y-97547143D01*
X141589143Y-97604286D01*
X141617714Y-97718571D01*
X141617714Y-97804286D01*
X141589143Y-97918571D01*
X141560571Y-97975714D01*
X141503429Y-98032857D01*
X141417714Y-98061429D01*
X141360571Y-98061429D01*
X141274857Y-98032857D01*
X141246286Y-98004286D01*
X141246286Y-97804286D01*
X141360571Y-97804286D01*
X140989143Y-98061429D02*
X140989143Y-97461429D01*
X140646286Y-98061429D01*
X140646286Y-97461429D01*
X140360572Y-98061429D02*
X140360572Y-97461429D01*
X140217715Y-97461429D01*
X140132000Y-97490000D01*
X140074858Y-97547143D01*
X140046286Y-97604286D01*
X140017715Y-97718571D01*
X140017715Y-97804286D01*
X140046286Y-97918571D01*
X140074858Y-97975714D01*
X140132000Y-98032857D01*
X140217715Y-98061429D01*
X140360572Y-98061429D01*
X141589143Y-100601429D02*
X141589143Y-100001429D01*
X141446286Y-100001429D01*
X141360571Y-100030000D01*
X141303429Y-100087143D01*
X141274857Y-100144286D01*
X141246286Y-100258571D01*
X141246286Y-100344286D01*
X141274857Y-100458571D01*
X141303429Y-100515714D01*
X141360571Y-100572857D01*
X141446286Y-100601429D01*
X141589143Y-100601429D01*
X140989143Y-100372857D02*
X140532000Y-100372857D01*
X140760571Y-100601429D02*
X140760571Y-100144286D01*
X141589143Y-103141429D02*
X141589143Y-102541429D01*
X141446286Y-102541429D01*
X141360571Y-102570000D01*
X141303429Y-102627143D01*
X141274857Y-102684286D01*
X141246286Y-102798571D01*
X141246286Y-102884286D01*
X141274857Y-102998571D01*
X141303429Y-103055714D01*
X141360571Y-103112857D01*
X141446286Y-103141429D01*
X141589143Y-103141429D01*
X140989143Y-102912857D02*
X140532000Y-102912857D01*
X142506714Y-102598571D02*
X142478143Y-102570000D01*
X142421000Y-102541429D01*
X142278143Y-102541429D01*
X142221000Y-102570000D01*
X142192429Y-102598571D01*
X142163857Y-102655714D01*
X142163857Y-102712857D01*
X142192429Y-102798571D01*
X142535286Y-103141429D01*
X142163857Y-103141429D01*
X142535286Y-100001429D02*
X142163857Y-100001429D01*
X142363857Y-100230000D01*
X142278143Y-100230000D01*
X142221000Y-100258571D01*
X142192429Y-100287143D01*
X142163857Y-100344286D01*
X142163857Y-100487143D01*
X142192429Y-100544286D01*
X142221000Y-100572857D01*
X142278143Y-100601429D01*
X142449571Y-100601429D01*
X142506714Y-100572857D01*
X142535286Y-100544286D01*
X142221000Y-97661429D02*
X142221000Y-98061429D01*
X142363857Y-97432857D02*
X142506714Y-97861429D01*
X142135286Y-97861429D01*
X133400857Y-98760000D02*
X133458000Y-98731429D01*
X133543714Y-98731429D01*
X133629429Y-98760000D01*
X133686571Y-98817143D01*
X133715143Y-98874286D01*
X133743714Y-98988571D01*
X133743714Y-99074286D01*
X133715143Y-99188571D01*
X133686571Y-99245714D01*
X133629429Y-99302857D01*
X133543714Y-99331429D01*
X133486571Y-99331429D01*
X133400857Y-99302857D01*
X133372286Y-99274286D01*
X133372286Y-99074286D01*
X133486571Y-99074286D01*
X133115143Y-99331429D02*
X133115143Y-98731429D01*
X132772286Y-99331429D01*
X132772286Y-98731429D01*
X132486572Y-99331429D02*
X132486572Y-98731429D01*
X132343715Y-98731429D01*
X132258000Y-98760000D01*
X132200858Y-98817143D01*
X132172286Y-98874286D01*
X132143715Y-98988571D01*
X132143715Y-99074286D01*
X132172286Y-99188571D01*
X132200858Y-99245714D01*
X132258000Y-99302857D01*
X132343715Y-99331429D01*
X132486572Y-99331429D01*
X133400857Y-101300000D02*
X133458000Y-101271429D01*
X133543714Y-101271429D01*
X133629429Y-101300000D01*
X133686571Y-101357143D01*
X133715143Y-101414286D01*
X133743714Y-101528571D01*
X133743714Y-101614286D01*
X133715143Y-101728571D01*
X133686571Y-101785714D01*
X133629429Y-101842857D01*
X133543714Y-101871429D01*
X133486571Y-101871429D01*
X133400857Y-101842857D01*
X133372286Y-101814286D01*
X133372286Y-101614286D01*
X133486571Y-101614286D01*
X133115143Y-101871429D02*
X133115143Y-101271429D01*
X132772286Y-101871429D01*
X132772286Y-101271429D01*
X132486572Y-101871429D02*
X132486572Y-101271429D01*
X132343715Y-101271429D01*
X132258000Y-101300000D01*
X132200858Y-101357143D01*
X132172286Y-101414286D01*
X132143715Y-101528571D01*
X132143715Y-101614286D01*
X132172286Y-101728571D01*
X132200858Y-101785714D01*
X132258000Y-101842857D01*
X132343715Y-101871429D01*
X132486572Y-101871429D01*
X133400857Y-103840000D02*
X133458000Y-103811429D01*
X133543714Y-103811429D01*
X133629429Y-103840000D01*
X133686571Y-103897143D01*
X133715143Y-103954286D01*
X133743714Y-104068571D01*
X133743714Y-104154286D01*
X133715143Y-104268571D01*
X133686571Y-104325714D01*
X133629429Y-104382857D01*
X133543714Y-104411429D01*
X133486571Y-104411429D01*
X133400857Y-104382857D01*
X133372286Y-104354286D01*
X133372286Y-104154286D01*
X133486571Y-104154286D01*
X133115143Y-104411429D02*
X133115143Y-103811429D01*
X132772286Y-104411429D01*
X132772286Y-103811429D01*
X132486572Y-104411429D02*
X132486572Y-103811429D01*
X132343715Y-103811429D01*
X132258000Y-103840000D01*
X132200858Y-103897143D01*
X132172286Y-103954286D01*
X132143715Y-104068571D01*
X132143715Y-104154286D01*
X132172286Y-104268571D01*
X132200858Y-104325714D01*
X132258000Y-104382857D01*
X132343715Y-104411429D01*
X132486572Y-104411429D01*
D12*
X148724191Y-92797381D02*
X148724191Y-93606905D01*
X148676572Y-93702143D01*
X148628953Y-93749762D01*
X148533715Y-93797381D01*
X148343238Y-93797381D01*
X148248000Y-93749762D01*
X148200381Y-93702143D01*
X148152762Y-93606905D01*
X148152762Y-92797381D01*
X147724191Y-93749762D02*
X147581334Y-93797381D01*
X147343238Y-93797381D01*
X147248000Y-93749762D01*
X147200381Y-93702143D01*
X147152762Y-93606905D01*
X147152762Y-93511667D01*
X147200381Y-93416429D01*
X147248000Y-93368810D01*
X147343238Y-93321190D01*
X147533715Y-93273571D01*
X147628953Y-93225952D01*
X147676572Y-93178333D01*
X147724191Y-93083095D01*
X147724191Y-92987857D01*
X147676572Y-92892619D01*
X147628953Y-92845000D01*
X147533715Y-92797381D01*
X147295619Y-92797381D01*
X147152762Y-92845000D01*
X146390857Y-93273571D02*
X146248000Y-93321190D01*
X146200381Y-93368810D01*
X146152762Y-93464048D01*
X146152762Y-93606905D01*
X146200381Y-93702143D01*
X146248000Y-93749762D01*
X146343238Y-93797381D01*
X146724191Y-93797381D01*
X146724191Y-92797381D01*
X146390857Y-92797381D01*
X146295619Y-92845000D01*
X146248000Y-92892619D01*
X146200381Y-92987857D01*
X146200381Y-93083095D01*
X146248000Y-93178333D01*
X146295619Y-93225952D01*
X146390857Y-93273571D01*
X146724191Y-93273571D01*
X145724191Y-93416429D02*
X144962286Y-93416429D01*
X144533715Y-93511667D02*
X144057524Y-93511667D01*
X144628953Y-93797381D02*
X144295620Y-92797381D01*
X143962286Y-93797381D01*
X142533714Y-93273571D02*
X142390857Y-93321190D01*
X142343238Y-93368810D01*
X142295619Y-93464048D01*
X142295619Y-93606905D01*
X142343238Y-93702143D01*
X142390857Y-93749762D01*
X142486095Y-93797381D01*
X142867048Y-93797381D01*
X142867048Y-92797381D01*
X142533714Y-92797381D01*
X142438476Y-92845000D01*
X142390857Y-92892619D01*
X142343238Y-92987857D01*
X142343238Y-93083095D01*
X142390857Y-93178333D01*
X142438476Y-93225952D01*
X142533714Y-93273571D01*
X142867048Y-93273571D01*
X141867048Y-93797381D02*
X141867048Y-93130714D01*
X141867048Y-93321190D02*
X141819429Y-93225952D01*
X141771810Y-93178333D01*
X141676572Y-93130714D01*
X141581333Y-93130714D01*
X140867047Y-93749762D02*
X140962285Y-93797381D01*
X141152762Y-93797381D01*
X141248000Y-93749762D01*
X141295619Y-93654524D01*
X141295619Y-93273571D01*
X141248000Y-93178333D01*
X141152762Y-93130714D01*
X140962285Y-93130714D01*
X140867047Y-93178333D01*
X140819428Y-93273571D01*
X140819428Y-93368810D01*
X141295619Y-93464048D01*
X139962285Y-93797381D02*
X139962285Y-93273571D01*
X140009904Y-93178333D01*
X140105142Y-93130714D01*
X140295619Y-93130714D01*
X140390857Y-93178333D01*
X139962285Y-93749762D02*
X140057523Y-93797381D01*
X140295619Y-93797381D01*
X140390857Y-93749762D01*
X140438476Y-93654524D01*
X140438476Y-93559286D01*
X140390857Y-93464048D01*
X140295619Y-93416429D01*
X140057523Y-93416429D01*
X139962285Y-93368810D01*
X139486095Y-93797381D02*
X139486095Y-92797381D01*
X139390857Y-93416429D02*
X139105142Y-93797381D01*
X139105142Y-93130714D02*
X139486095Y-93511667D01*
X138533714Y-93797381D02*
X138628952Y-93749762D01*
X138676571Y-93702143D01*
X138724190Y-93606905D01*
X138724190Y-93321190D01*
X138676571Y-93225952D01*
X138628952Y-93178333D01*
X138533714Y-93130714D01*
X138390856Y-93130714D01*
X138295618Y-93178333D01*
X138247999Y-93225952D01*
X138200380Y-93321190D01*
X138200380Y-93606905D01*
X138247999Y-93702143D01*
X138295618Y-93749762D01*
X138390856Y-93797381D01*
X138533714Y-93797381D01*
X137343237Y-93130714D02*
X137343237Y-93797381D01*
X137771809Y-93130714D02*
X137771809Y-93654524D01*
X137724190Y-93749762D01*
X137628952Y-93797381D01*
X137486094Y-93797381D01*
X137390856Y-93749762D01*
X137343237Y-93702143D01*
X137009904Y-93130714D02*
X136628952Y-93130714D01*
X136867047Y-92797381D02*
X136867047Y-93654524D01*
X136819428Y-93749762D01*
X136724190Y-93797381D01*
X136628952Y-93797381D01*
X154288857Y-101385714D02*
X154050762Y-102052381D01*
X153812666Y-101385714D01*
X152907904Y-102052381D02*
X153479333Y-102052381D01*
X153193619Y-102052381D02*
X153193619Y-101052381D01*
X153288857Y-101195238D01*
X153384095Y-101290476D01*
X153479333Y-101338095D01*
X152479333Y-101957143D02*
X152431714Y-102004762D01*
X152479333Y-102052381D01*
X152526952Y-102004762D01*
X152479333Y-101957143D01*
X152479333Y-102052381D01*
X151812667Y-101052381D02*
X151717428Y-101052381D01*
X151622190Y-101100000D01*
X151574571Y-101147619D01*
X151526952Y-101242857D01*
X151479333Y-101433333D01*
X151479333Y-101671429D01*
X151526952Y-101861905D01*
X151574571Y-101957143D01*
X151622190Y-102004762D01*
X151717428Y-102052381D01*
X151812667Y-102052381D01*
X151907905Y-102004762D01*
X151955524Y-101957143D01*
X152003143Y-101861905D01*
X152050762Y-101671429D01*
X152050762Y-101433333D01*
X152003143Y-101242857D01*
X151955524Y-101147619D01*
X151907905Y-101100000D01*
X151812667Y-101052381D01*
X151050762Y-101957143D02*
X151003143Y-102004762D01*
X151050762Y-102052381D01*
X151098381Y-102004762D01*
X151050762Y-101957143D01*
X151050762Y-102052381D01*
X150384096Y-101052381D02*
X150288857Y-101052381D01*
X150193619Y-101100000D01*
X150146000Y-101147619D01*
X150098381Y-101242857D01*
X150050762Y-101433333D01*
X150050762Y-101671429D01*
X150098381Y-101861905D01*
X150146000Y-101957143D01*
X150193619Y-102004762D01*
X150288857Y-102052381D01*
X150384096Y-102052381D01*
X150479334Y-102004762D01*
X150526953Y-101957143D01*
X150574572Y-101861905D01*
X150622191Y-101671429D01*
X150622191Y-101433333D01*
X150574572Y-101242857D01*
X150526953Y-101147619D01*
X150479334Y-101100000D01*
X150384096Y-101052381D01*
X148487573Y-110216905D02*
X148487573Y-109416905D01*
X148487573Y-110178810D02*
X148563763Y-110216905D01*
X148716144Y-110216905D01*
X148792335Y-110178810D01*
X148830430Y-110140714D01*
X148868525Y-110064524D01*
X148868525Y-109835952D01*
X148830430Y-109759762D01*
X148792335Y-109721667D01*
X148716144Y-109683571D01*
X148563763Y-109683571D01*
X148487573Y-109721667D01*
X147763763Y-110178810D02*
X147839953Y-110216905D01*
X147992334Y-110216905D01*
X148068525Y-110178810D01*
X148106620Y-110140714D01*
X148144715Y-110064524D01*
X148144715Y-109835952D01*
X148106620Y-109759762D01*
X148068525Y-109721667D01*
X147992334Y-109683571D01*
X147839953Y-109683571D01*
X147763763Y-109721667D01*
X147459001Y-110178810D02*
X147382811Y-110216905D01*
X147230430Y-110216905D01*
X147154239Y-110178810D01*
X147116144Y-110102619D01*
X147116144Y-110064524D01*
X147154239Y-109988333D01*
X147230430Y-109950238D01*
X147344715Y-109950238D01*
X147420906Y-109912143D01*
X147459001Y-109835952D01*
X147459001Y-109797857D01*
X147420906Y-109721667D01*
X147344715Y-109683571D01*
X147230430Y-109683571D01*
X147154239Y-109721667D01*
X146430430Y-109683571D02*
X146430430Y-110216905D01*
X146773287Y-109683571D02*
X146773287Y-110102619D01*
X146735192Y-110178810D01*
X146659001Y-110216905D01*
X146544715Y-110216905D01*
X146468525Y-110178810D01*
X146430430Y-110140714D01*
X146049477Y-109683571D02*
X146049477Y-110216905D01*
X146049477Y-109759762D02*
X146011382Y-109721667D01*
X145935191Y-109683571D01*
X145820905Y-109683571D01*
X145744715Y-109721667D01*
X145706620Y-109797857D01*
X145706620Y-110216905D01*
X145211381Y-109759762D02*
X145287572Y-109721667D01*
X145325667Y-109683571D01*
X145363762Y-109607381D01*
X145363762Y-109569286D01*
X145325667Y-109493095D01*
X145287572Y-109455000D01*
X145211381Y-109416905D01*
X145059000Y-109416905D01*
X144982810Y-109455000D01*
X144944714Y-109493095D01*
X144906619Y-109569286D01*
X144906619Y-109607381D01*
X144944714Y-109683571D01*
X144982810Y-109721667D01*
X145059000Y-109759762D01*
X145211381Y-109759762D01*
X145287572Y-109797857D01*
X145325667Y-109835952D01*
X145363762Y-109912143D01*
X145363762Y-110064524D01*
X145325667Y-110140714D01*
X145287572Y-110178810D01*
X145211381Y-110216905D01*
X145059000Y-110216905D01*
X144982810Y-110178810D01*
X144944714Y-110140714D01*
X144906619Y-110064524D01*
X144906619Y-109912143D01*
X144944714Y-109835952D01*
X144982810Y-109797857D01*
X145059000Y-109759762D01*
X144449476Y-109759762D02*
X144525667Y-109721667D01*
X144563762Y-109683571D01*
X144601857Y-109607381D01*
X144601857Y-109569286D01*
X144563762Y-109493095D01*
X144525667Y-109455000D01*
X144449476Y-109416905D01*
X144297095Y-109416905D01*
X144220905Y-109455000D01*
X144182809Y-109493095D01*
X144144714Y-109569286D01*
X144144714Y-109607381D01*
X144182809Y-109683571D01*
X144220905Y-109721667D01*
X144297095Y-109759762D01*
X144449476Y-109759762D01*
X144525667Y-109797857D01*
X144563762Y-109835952D01*
X144601857Y-109912143D01*
X144601857Y-110064524D01*
X144563762Y-110140714D01*
X144525667Y-110178810D01*
X144449476Y-110216905D01*
X144297095Y-110216905D01*
X144220905Y-110178810D01*
X144182809Y-110140714D01*
X144144714Y-110064524D01*
X144144714Y-109912143D01*
X144182809Y-109835952D01*
X144220905Y-109797857D01*
X144297095Y-109759762D01*
X143687571Y-110216905D02*
X143763762Y-110178810D01*
X143801857Y-110140714D01*
X143839952Y-110064524D01*
X143839952Y-109835952D01*
X143801857Y-109759762D01*
X143763762Y-109721667D01*
X143687571Y-109683571D01*
X143573285Y-109683571D01*
X143497095Y-109721667D01*
X143459000Y-109759762D01*
X143420904Y-109835952D01*
X143420904Y-110064524D01*
X143459000Y-110140714D01*
X143497095Y-110178810D01*
X143573285Y-110216905D01*
X143687571Y-110216905D01*
X143116142Y-110178810D02*
X143039952Y-110216905D01*
X142887571Y-110216905D01*
X142811380Y-110178810D01*
X142773285Y-110102619D01*
X142773285Y-110064524D01*
X142811380Y-109988333D01*
X142887571Y-109950238D01*
X143001856Y-109950238D01*
X143078047Y-109912143D01*
X143116142Y-109835952D01*
X143116142Y-109797857D01*
X143078047Y-109721667D01*
X143001856Y-109683571D01*
X142887571Y-109683571D01*
X142811380Y-109721667D01*
X142430428Y-110216905D02*
X142430428Y-109416905D01*
X142087571Y-110216905D02*
X142087571Y-109797857D01*
X142125666Y-109721667D01*
X142201856Y-109683571D01*
X142316142Y-109683571D01*
X142392333Y-109721667D01*
X142430428Y-109759762D01*
X141211380Y-109835952D02*
X141249475Y-109797857D01*
X141325665Y-109759762D01*
X141401856Y-109759762D01*
X141478046Y-109797857D01*
X141516142Y-109835952D01*
X141554237Y-109912143D01*
X141554237Y-109988333D01*
X141516142Y-110064524D01*
X141478046Y-110102619D01*
X141401856Y-110140714D01*
X141325665Y-110140714D01*
X141249475Y-110102619D01*
X141211380Y-110064524D01*
X141211380Y-109759762D02*
X141211380Y-110064524D01*
X141173284Y-110102619D01*
X141135189Y-110102619D01*
X141058999Y-110064524D01*
X141020904Y-109988333D01*
X141020904Y-109797857D01*
X141097094Y-109683571D01*
X141211380Y-109607381D01*
X141363761Y-109569286D01*
X141516142Y-109607381D01*
X141630427Y-109683571D01*
X141706618Y-109797857D01*
X141744713Y-109950238D01*
X141706618Y-110102619D01*
X141630427Y-110216905D01*
X141516142Y-110293095D01*
X141363761Y-110331190D01*
X141211380Y-110293095D01*
X141097094Y-110216905D01*
X140335190Y-109683571D02*
X140335190Y-110331190D01*
X140373285Y-110407381D01*
X140411380Y-110445476D01*
X140487571Y-110483571D01*
X140601856Y-110483571D01*
X140678047Y-110445476D01*
X140335190Y-110178810D02*
X140411380Y-110216905D01*
X140563761Y-110216905D01*
X140639952Y-110178810D01*
X140678047Y-110140714D01*
X140716142Y-110064524D01*
X140716142Y-109835952D01*
X140678047Y-109759762D01*
X140639952Y-109721667D01*
X140563761Y-109683571D01*
X140411380Y-109683571D01*
X140335190Y-109721667D01*
X139954237Y-110216905D02*
X139954237Y-109683571D01*
X139954237Y-109759762D02*
X139916142Y-109721667D01*
X139839951Y-109683571D01*
X139725665Y-109683571D01*
X139649475Y-109721667D01*
X139611380Y-109797857D01*
X139611380Y-110216905D01*
X139611380Y-109797857D02*
X139573284Y-109721667D01*
X139497094Y-109683571D01*
X139382808Y-109683571D01*
X139306618Y-109721667D01*
X139268523Y-109797857D01*
X139268523Y-110216905D01*
X138544713Y-110216905D02*
X138544713Y-109797857D01*
X138582808Y-109721667D01*
X138658998Y-109683571D01*
X138811379Y-109683571D01*
X138887570Y-109721667D01*
X138544713Y-110178810D02*
X138620903Y-110216905D01*
X138811379Y-110216905D01*
X138887570Y-110178810D01*
X138925665Y-110102619D01*
X138925665Y-110026429D01*
X138887570Y-109950238D01*
X138811379Y-109912143D01*
X138620903Y-109912143D01*
X138544713Y-109874048D01*
X138163760Y-110216905D02*
X138163760Y-109683571D01*
X138163760Y-109416905D02*
X138201855Y-109455000D01*
X138163760Y-109493095D01*
X138125665Y-109455000D01*
X138163760Y-109416905D01*
X138163760Y-109493095D01*
X137668522Y-110216905D02*
X137744713Y-110178810D01*
X137782808Y-110102619D01*
X137782808Y-109416905D01*
X137363760Y-110140714D02*
X137325665Y-110178810D01*
X137363760Y-110216905D01*
X137401855Y-110178810D01*
X137363760Y-110140714D01*
X137363760Y-110216905D01*
X136639951Y-110178810D02*
X136716141Y-110216905D01*
X136868522Y-110216905D01*
X136944713Y-110178810D01*
X136982808Y-110140714D01*
X137020903Y-110064524D01*
X137020903Y-109835952D01*
X136982808Y-109759762D01*
X136944713Y-109721667D01*
X136868522Y-109683571D01*
X136716141Y-109683571D01*
X136639951Y-109721667D01*
X136182808Y-110216905D02*
X136258999Y-110178810D01*
X136297094Y-110140714D01*
X136335189Y-110064524D01*
X136335189Y-109835952D01*
X136297094Y-109759762D01*
X136258999Y-109721667D01*
X136182808Y-109683571D01*
X136068522Y-109683571D01*
X135992332Y-109721667D01*
X135954237Y-109759762D01*
X135916141Y-109835952D01*
X135916141Y-110064524D01*
X135954237Y-110140714D01*
X135992332Y-110178810D01*
X136068522Y-110216905D01*
X136182808Y-110216905D01*
X135573284Y-110216905D02*
X135573284Y-109683571D01*
X135573284Y-109759762D02*
X135535189Y-109721667D01*
X135458998Y-109683571D01*
X135344712Y-109683571D01*
X135268522Y-109721667D01*
X135230427Y-109797857D01*
X135230427Y-110216905D01*
X135230427Y-109797857D02*
X135192331Y-109721667D01*
X135116141Y-109683571D01*
X135001855Y-109683571D01*
X134925665Y-109721667D01*
X134887570Y-109797857D01*
X134887570Y-110216905D01*
%LPC*%
D13*
X134620000Y-104140000D03*
X134620000Y-99060000D03*
X134620000Y-101600000D03*
D14*
X132080000Y-107950000D03*
X132080000Y-95250000D03*
D13*
X129540000Y-101600000D03*
D15*
X151080000Y-108170000D03*
X151080000Y-95030000D03*
D16*
X148750000Y-105100000D03*
X148750000Y-102600000D03*
X148750000Y-100600000D03*
X148750000Y-98100000D03*
D17*
X143510000Y-105410000D03*
X143510000Y-102870000D03*
X143510000Y-100330000D03*
X143510000Y-97790000D03*
X139700000Y-101600000D03*
M02*
