G04 #@! TF.GenerationSoftware,KiCad,Pcbnew,(5.1.5)*
G04 #@! TF.CreationDate,2019-12-08T12:18:22-05:00*
G04 #@! TF.ProjectId,usbabrkout,75736261-6272-46b6-9f75-742e6b696361,v1.0.0*
G04 #@! TF.SameCoordinates,Original*
G04 #@! TF.FileFunction,Copper,L2,Inr*
G04 #@! TF.FilePolarity,Positive*
%FSLAX46Y46*%
G04 Gerber Fmt 4.6, Leading zero omitted, Abs format (unit mm)*
G04 Created by KiCad (PCBNEW (5.1.5)) date 2019-12-08 12:18:22*
%MOMM*%
%LPD*%
G04 APERTURE LIST*
%ADD10C,1.143000*%
%ADD11C,4.600000*%
%ADD12C,1.651000*%
%ADD13C,1.524000*%
%ADD14C,0.254000*%
G04 APERTURE END LIST*
D10*
X134620000Y-104140000D03*
X134620000Y-99060000D03*
X134620000Y-101600000D03*
X129540000Y-101600000D03*
D11*
X151080000Y-108170000D03*
X151080000Y-95030000D03*
D12*
X148750000Y-105100000D03*
X148750000Y-102600000D03*
X148750000Y-100600000D03*
X148750000Y-98100000D03*
D13*
X143510000Y-105410000D03*
X143510000Y-102870000D03*
X143510000Y-100330000D03*
X143510000Y-97790000D03*
X139700000Y-101600000D03*
D14*
G36*
X133096255Y-92431053D02*
G01*
X133093798Y-92456000D01*
X133103601Y-92555535D01*
X133132635Y-92651246D01*
X133179783Y-92739453D01*
X133243233Y-92816767D01*
X133320547Y-92880217D01*
X133408754Y-92927365D01*
X133504465Y-92956399D01*
X133579063Y-92963746D01*
X133604000Y-92966202D01*
X133628937Y-92963746D01*
X138659063Y-92963746D01*
X138684000Y-92966202D01*
X138708937Y-92963746D01*
X138783535Y-92956399D01*
X138879246Y-92927365D01*
X138967453Y-92880217D01*
X139044767Y-92816767D01*
X139108217Y-92739453D01*
X139155365Y-92651246D01*
X139184399Y-92555535D01*
X139194202Y-92456000D01*
X139191746Y-92431063D01*
X139191746Y-91947746D01*
X149972255Y-91947746D01*
X149972255Y-92325053D01*
X149969798Y-92350000D01*
X149979601Y-92449535D01*
X150008635Y-92545246D01*
X150015069Y-92557282D01*
X149601178Y-92778511D01*
X149334559Y-93104954D01*
X151080000Y-94850395D01*
X152825441Y-93104954D01*
X152623536Y-92857746D01*
X155492254Y-92857746D01*
X155492255Y-111252254D01*
X139191746Y-111252254D01*
X139191746Y-110768937D01*
X139194202Y-110744000D01*
X139184399Y-110644465D01*
X139155365Y-110548754D01*
X139108217Y-110460547D01*
X139044767Y-110383233D01*
X138967453Y-110319783D01*
X138879246Y-110272635D01*
X138783535Y-110243601D01*
X138708937Y-110236254D01*
X138684000Y-110233798D01*
X138659063Y-110236254D01*
X133628937Y-110236254D01*
X133604000Y-110233798D01*
X133579063Y-110236254D01*
X133504465Y-110243601D01*
X133408754Y-110272635D01*
X133320547Y-110319783D01*
X133243233Y-110383233D01*
X133179783Y-110460547D01*
X133132635Y-110548754D01*
X133103601Y-110644465D01*
X133093798Y-110744000D01*
X133096255Y-110768947D01*
X133096254Y-111252254D01*
X128777746Y-111252254D01*
X128777746Y-107731103D01*
X129857500Y-107731103D01*
X129857500Y-108168897D01*
X129942909Y-108598279D01*
X130110446Y-109002749D01*
X130353671Y-109366761D01*
X130663239Y-109676329D01*
X131027251Y-109919554D01*
X131431721Y-110087091D01*
X131861103Y-110172500D01*
X132298897Y-110172500D01*
X132688286Y-110095046D01*
X149334559Y-110095046D01*
X149601178Y-110421489D01*
X150068837Y-110666731D01*
X150575354Y-110816025D01*
X151101264Y-110863634D01*
X151626357Y-110807729D01*
X152130454Y-110650456D01*
X152558822Y-110421489D01*
X152825441Y-110095046D01*
X151080000Y-108349605D01*
X149334559Y-110095046D01*
X132688286Y-110095046D01*
X132728279Y-110087091D01*
X133132749Y-109919554D01*
X133496761Y-109676329D01*
X133806329Y-109366761D01*
X134049554Y-109002749D01*
X134217091Y-108598279D01*
X134298050Y-108191264D01*
X148386366Y-108191264D01*
X148442271Y-108716357D01*
X148599544Y-109220454D01*
X148828511Y-109648822D01*
X149154954Y-109915441D01*
X150900395Y-108170000D01*
X151259605Y-108170000D01*
X153005046Y-109915441D01*
X153331489Y-109648822D01*
X153576731Y-109181163D01*
X153726025Y-108674646D01*
X153773634Y-108148736D01*
X153717729Y-107623643D01*
X153560456Y-107119546D01*
X153331489Y-106691178D01*
X153005046Y-106424559D01*
X151259605Y-108170000D01*
X150900395Y-108170000D01*
X149154954Y-106424559D01*
X148828511Y-106691178D01*
X148583269Y-107158837D01*
X148433975Y-107665354D01*
X148386366Y-108191264D01*
X134298050Y-108191264D01*
X134302500Y-108168897D01*
X134302500Y-107731103D01*
X134217091Y-107301721D01*
X134049554Y-106897251D01*
X133806329Y-106533239D01*
X133496761Y-106223671D01*
X133132749Y-105980446D01*
X132728279Y-105812909D01*
X132298897Y-105727500D01*
X131861103Y-105727500D01*
X131431721Y-105812909D01*
X131027251Y-105980446D01*
X130663239Y-106223671D01*
X130353671Y-106533239D01*
X130110446Y-106897251D01*
X129942909Y-107301721D01*
X129857500Y-107731103D01*
X128777746Y-107731103D01*
X128777746Y-105297449D01*
X142367254Y-105297449D01*
X142367254Y-105522551D01*
X142411169Y-105743327D01*
X142497312Y-105951293D01*
X142622371Y-106138458D01*
X142781542Y-106297629D01*
X142968707Y-106422688D01*
X143176673Y-106508831D01*
X143397449Y-106552746D01*
X143622551Y-106552746D01*
X143843327Y-106508831D01*
X144051293Y-106422688D01*
X144238458Y-106297629D01*
X144397629Y-106138458D01*
X144522688Y-105951293D01*
X144608831Y-105743327D01*
X144652746Y-105522551D01*
X144652746Y-105297449D01*
X144608831Y-105076673D01*
X144569283Y-104981195D01*
X147543754Y-104981195D01*
X147543754Y-105218805D01*
X147590109Y-105451849D01*
X147681038Y-105671372D01*
X147813047Y-105868937D01*
X147981063Y-106036953D01*
X148178628Y-106168962D01*
X148398151Y-106259891D01*
X148631195Y-106306246D01*
X148868805Y-106306246D01*
X149101849Y-106259891D01*
X149321372Y-106168962D01*
X149487028Y-106058274D01*
X149334559Y-106244954D01*
X151080000Y-107990395D01*
X152825441Y-106244954D01*
X152558822Y-105918511D01*
X152091163Y-105673269D01*
X151584646Y-105523975D01*
X151058736Y-105476366D01*
X150533643Y-105532271D01*
X150029546Y-105689544D01*
X149678948Y-105876942D01*
X149686953Y-105868937D01*
X149818962Y-105671372D01*
X149909891Y-105451849D01*
X149956246Y-105218805D01*
X149956246Y-104981195D01*
X149909891Y-104748151D01*
X149818962Y-104528628D01*
X149686953Y-104331063D01*
X149518937Y-104163047D01*
X149321372Y-104031038D01*
X149101849Y-103940109D01*
X148868805Y-103893754D01*
X148631195Y-103893754D01*
X148398151Y-103940109D01*
X148178628Y-104031038D01*
X147981063Y-104163047D01*
X147813047Y-104331063D01*
X147681038Y-104528628D01*
X147590109Y-104748151D01*
X147543754Y-104981195D01*
X144569283Y-104981195D01*
X144522688Y-104868707D01*
X144397629Y-104681542D01*
X144238458Y-104522371D01*
X144051293Y-104397312D01*
X143843327Y-104311169D01*
X143622551Y-104267254D01*
X143397449Y-104267254D01*
X143176673Y-104311169D01*
X142968707Y-104397312D01*
X142781542Y-104522371D01*
X142622371Y-104681542D01*
X142497312Y-104868707D01*
X142411169Y-105076673D01*
X142367254Y-105297449D01*
X128777746Y-105297449D01*
X128777746Y-104832439D01*
X134107166Y-104832439D01*
X134165296Y-104981911D01*
X134338282Y-105054443D01*
X134522094Y-105091832D01*
X134709668Y-105092644D01*
X134893797Y-105056845D01*
X135067403Y-104985813D01*
X135074704Y-104981911D01*
X135132834Y-104832439D01*
X134620000Y-104319605D01*
X134107166Y-104832439D01*
X128777746Y-104832439D01*
X128777746Y-104229668D01*
X133667356Y-104229668D01*
X133703155Y-104413797D01*
X133774187Y-104587403D01*
X133778089Y-104594704D01*
X133927561Y-104652834D01*
X134440395Y-104140000D01*
X134799605Y-104140000D01*
X135312439Y-104652834D01*
X135461911Y-104594704D01*
X135534443Y-104421718D01*
X135571832Y-104237906D01*
X135572644Y-104050332D01*
X135536845Y-103866203D01*
X135465813Y-103692597D01*
X135461911Y-103685296D01*
X135312439Y-103627166D01*
X134799605Y-104140000D01*
X134440395Y-104140000D01*
X133927561Y-103627166D01*
X133778089Y-103685296D01*
X133705557Y-103858282D01*
X133668168Y-104042094D01*
X133667356Y-104229668D01*
X128777746Y-104229668D01*
X128777746Y-103447561D01*
X134107166Y-103447561D01*
X134620000Y-103960395D01*
X135132834Y-103447561D01*
X135074704Y-103298089D01*
X134901718Y-103225557D01*
X134717906Y-103188168D01*
X134530332Y-103187356D01*
X134346203Y-103223155D01*
X134172597Y-103294187D01*
X134165296Y-103298089D01*
X134107166Y-103447561D01*
X128777746Y-103447561D01*
X128777746Y-102757449D01*
X142367254Y-102757449D01*
X142367254Y-102982551D01*
X142411169Y-103203327D01*
X142497312Y-103411293D01*
X142622371Y-103598458D01*
X142781542Y-103757629D01*
X142968707Y-103882688D01*
X143176673Y-103968831D01*
X143397449Y-104012746D01*
X143622551Y-104012746D01*
X143843327Y-103968831D01*
X144051293Y-103882688D01*
X144238458Y-103757629D01*
X144397629Y-103598458D01*
X144522688Y-103411293D01*
X144608831Y-103203327D01*
X144652746Y-102982551D01*
X144652746Y-102757449D01*
X144608831Y-102536673D01*
X144522688Y-102328707D01*
X144397629Y-102141542D01*
X144238458Y-101982371D01*
X144051293Y-101857312D01*
X143843327Y-101771169D01*
X143622551Y-101727254D01*
X143397449Y-101727254D01*
X143176673Y-101771169D01*
X142968707Y-101857312D01*
X142781542Y-101982371D01*
X142622371Y-102141542D01*
X142497312Y-102328707D01*
X142411169Y-102536673D01*
X142367254Y-102757449D01*
X128777746Y-102757449D01*
X128777746Y-102292439D01*
X134107166Y-102292439D01*
X134165296Y-102441911D01*
X134338282Y-102514443D01*
X134522094Y-102551832D01*
X134709668Y-102552644D01*
X134893797Y-102516845D01*
X135067403Y-102445813D01*
X135074704Y-102441911D01*
X135132834Y-102292439D01*
X134620000Y-101779605D01*
X134107166Y-102292439D01*
X128777746Y-102292439D01*
X128777746Y-101689668D01*
X133667356Y-101689668D01*
X133703155Y-101873797D01*
X133774187Y-102047403D01*
X133778089Y-102054704D01*
X133927561Y-102112834D01*
X134440395Y-101600000D01*
X134799605Y-101600000D01*
X135312439Y-102112834D01*
X135461911Y-102054704D01*
X135534443Y-101881718D01*
X135571832Y-101697906D01*
X135572644Y-101510332D01*
X135568196Y-101487449D01*
X138557254Y-101487449D01*
X138557254Y-101712551D01*
X138601169Y-101933327D01*
X138687312Y-102141293D01*
X138812371Y-102328458D01*
X138971542Y-102487629D01*
X139158707Y-102612688D01*
X139366673Y-102698831D01*
X139587449Y-102742746D01*
X139812551Y-102742746D01*
X140033327Y-102698831D01*
X140241293Y-102612688D01*
X140428458Y-102487629D01*
X140587629Y-102328458D01*
X140712688Y-102141293D01*
X140798831Y-101933327D01*
X140842746Y-101712551D01*
X140842746Y-101487449D01*
X140798831Y-101266673D01*
X140712688Y-101058707D01*
X140587629Y-100871542D01*
X140428458Y-100712371D01*
X140241293Y-100587312D01*
X140033327Y-100501169D01*
X139812551Y-100457254D01*
X139587449Y-100457254D01*
X139366673Y-100501169D01*
X139158707Y-100587312D01*
X138971542Y-100712371D01*
X138812371Y-100871542D01*
X138687312Y-101058707D01*
X138601169Y-101266673D01*
X138557254Y-101487449D01*
X135568196Y-101487449D01*
X135536845Y-101326203D01*
X135465813Y-101152597D01*
X135461911Y-101145296D01*
X135312439Y-101087166D01*
X134799605Y-101600000D01*
X134440395Y-101600000D01*
X133927561Y-101087166D01*
X133778089Y-101145296D01*
X133705557Y-101318282D01*
X133668168Y-101502094D01*
X133667356Y-101689668D01*
X128777746Y-101689668D01*
X128777746Y-100907561D01*
X134107166Y-100907561D01*
X134620000Y-101420395D01*
X135132834Y-100907561D01*
X135074704Y-100758089D01*
X134901718Y-100685557D01*
X134717906Y-100648168D01*
X134530332Y-100647356D01*
X134346203Y-100683155D01*
X134172597Y-100754187D01*
X134165296Y-100758089D01*
X134107166Y-100907561D01*
X128777746Y-100907561D01*
X128777746Y-100217449D01*
X142367254Y-100217449D01*
X142367254Y-100442551D01*
X142411169Y-100663327D01*
X142497312Y-100871293D01*
X142622371Y-101058458D01*
X142781542Y-101217629D01*
X142968707Y-101342688D01*
X143176673Y-101428831D01*
X143397449Y-101472746D01*
X143622551Y-101472746D01*
X143843327Y-101428831D01*
X144051293Y-101342688D01*
X144238458Y-101217629D01*
X144397629Y-101058458D01*
X144522688Y-100871293D01*
X144608831Y-100663327D01*
X144645059Y-100481195D01*
X147543754Y-100481195D01*
X147543754Y-100718805D01*
X147590109Y-100951849D01*
X147681038Y-101171372D01*
X147813047Y-101368937D01*
X147981063Y-101536953D01*
X148075419Y-101600000D01*
X147981063Y-101663047D01*
X147813047Y-101831063D01*
X147681038Y-102028628D01*
X147590109Y-102248151D01*
X147543754Y-102481195D01*
X147543754Y-102718805D01*
X147590109Y-102951849D01*
X147681038Y-103171372D01*
X147813047Y-103368937D01*
X147981063Y-103536953D01*
X148178628Y-103668962D01*
X148398151Y-103759891D01*
X148631195Y-103806246D01*
X148868805Y-103806246D01*
X149101849Y-103759891D01*
X149321372Y-103668962D01*
X149518937Y-103536953D01*
X149686953Y-103368937D01*
X149818962Y-103171372D01*
X149909891Y-102951849D01*
X149956246Y-102718805D01*
X149956246Y-102481195D01*
X149909891Y-102248151D01*
X149818962Y-102028628D01*
X149686953Y-101831063D01*
X149518937Y-101663047D01*
X149424581Y-101600000D01*
X149518937Y-101536953D01*
X149686953Y-101368937D01*
X149818962Y-101171372D01*
X149909891Y-100951849D01*
X149956246Y-100718805D01*
X149956246Y-100481195D01*
X149909891Y-100248151D01*
X149818962Y-100028628D01*
X149686953Y-99831063D01*
X149518937Y-99663047D01*
X149321372Y-99531038D01*
X149101849Y-99440109D01*
X148868805Y-99393754D01*
X148631195Y-99393754D01*
X148398151Y-99440109D01*
X148178628Y-99531038D01*
X147981063Y-99663047D01*
X147813047Y-99831063D01*
X147681038Y-100028628D01*
X147590109Y-100248151D01*
X147543754Y-100481195D01*
X144645059Y-100481195D01*
X144652746Y-100442551D01*
X144652746Y-100217449D01*
X144608831Y-99996673D01*
X144522688Y-99788707D01*
X144397629Y-99601542D01*
X144238458Y-99442371D01*
X144051293Y-99317312D01*
X143843327Y-99231169D01*
X143622551Y-99187254D01*
X143397449Y-99187254D01*
X143176673Y-99231169D01*
X142968707Y-99317312D01*
X142781542Y-99442371D01*
X142622371Y-99601542D01*
X142497312Y-99788707D01*
X142411169Y-99996673D01*
X142367254Y-100217449D01*
X128777746Y-100217449D01*
X128777746Y-99752439D01*
X134107166Y-99752439D01*
X134165296Y-99901911D01*
X134338282Y-99974443D01*
X134522094Y-100011832D01*
X134709668Y-100012644D01*
X134893797Y-99976845D01*
X135067403Y-99905813D01*
X135074704Y-99901911D01*
X135132834Y-99752439D01*
X134620000Y-99239605D01*
X134107166Y-99752439D01*
X128777746Y-99752439D01*
X128777746Y-99149668D01*
X133667356Y-99149668D01*
X133703155Y-99333797D01*
X133774187Y-99507403D01*
X133778089Y-99514704D01*
X133927561Y-99572834D01*
X134440395Y-99060000D01*
X134799605Y-99060000D01*
X135312439Y-99572834D01*
X135461911Y-99514704D01*
X135534443Y-99341718D01*
X135571832Y-99157906D01*
X135572626Y-98974446D01*
X148055159Y-98974446D01*
X148144222Y-99149846D01*
X148360677Y-99247855D01*
X148592093Y-99301752D01*
X148829578Y-99309467D01*
X149064004Y-99270702D01*
X149286364Y-99186948D01*
X149355778Y-99149846D01*
X149444841Y-98974446D01*
X148750000Y-98279605D01*
X148055159Y-98974446D01*
X135572626Y-98974446D01*
X135572644Y-98970332D01*
X135536845Y-98786203D01*
X135468439Y-98619014D01*
X142860591Y-98619014D01*
X142941947Y-98787923D01*
X143147547Y-98879570D01*
X143367076Y-98929345D01*
X143592097Y-98935336D01*
X143813963Y-98897312D01*
X144024149Y-98816735D01*
X144078053Y-98787923D01*
X144159409Y-98619014D01*
X143510000Y-97969605D01*
X142860591Y-98619014D01*
X135468439Y-98619014D01*
X135465813Y-98612597D01*
X135461911Y-98605296D01*
X135312439Y-98547166D01*
X134799605Y-99060000D01*
X134440395Y-99060000D01*
X133927561Y-98547166D01*
X133778089Y-98605296D01*
X133705557Y-98778282D01*
X133668168Y-98962094D01*
X133667356Y-99149668D01*
X128777746Y-99149668D01*
X128777746Y-98367561D01*
X134107166Y-98367561D01*
X134620000Y-98880395D01*
X135132834Y-98367561D01*
X135074704Y-98218089D01*
X134901718Y-98145557D01*
X134717906Y-98108168D01*
X134530332Y-98107356D01*
X134346203Y-98143155D01*
X134172597Y-98214187D01*
X134165296Y-98218089D01*
X134107166Y-98367561D01*
X128777746Y-98367561D01*
X128777746Y-97872097D01*
X142364664Y-97872097D01*
X142402688Y-98093963D01*
X142483265Y-98304149D01*
X142512077Y-98358053D01*
X142680986Y-98439409D01*
X143330395Y-97790000D01*
X143689605Y-97790000D01*
X144339014Y-98439409D01*
X144507923Y-98358053D01*
X144587478Y-98179578D01*
X147540533Y-98179578D01*
X147579298Y-98414004D01*
X147663052Y-98636364D01*
X147700154Y-98705778D01*
X147875554Y-98794841D01*
X148570395Y-98100000D01*
X147875554Y-97405159D01*
X147700154Y-97494222D01*
X147602145Y-97710677D01*
X147548248Y-97942093D01*
X147540533Y-98179578D01*
X144587478Y-98179578D01*
X144599570Y-98152453D01*
X144649345Y-97932924D01*
X144655336Y-97707903D01*
X144617312Y-97486037D01*
X144536735Y-97275851D01*
X144509851Y-97225554D01*
X148055159Y-97225554D01*
X148750000Y-97920395D01*
X148764143Y-97906253D01*
X148943748Y-98085858D01*
X148929605Y-98100000D01*
X149624446Y-98794841D01*
X149799846Y-98705778D01*
X149897855Y-98489323D01*
X149951752Y-98257907D01*
X149959467Y-98020422D01*
X149920702Y-97785996D01*
X149836948Y-97563636D01*
X149799846Y-97494222D01*
X149624448Y-97405160D01*
X149696441Y-97333167D01*
X149692821Y-97329547D01*
X150068837Y-97526731D01*
X150575354Y-97676025D01*
X151101264Y-97723634D01*
X151626357Y-97667729D01*
X152130454Y-97510456D01*
X152558822Y-97281489D01*
X152825441Y-96955046D01*
X151080000Y-95209605D01*
X149334559Y-96955046D01*
X149505747Y-97164645D01*
X149444840Y-97225552D01*
X149355778Y-97050154D01*
X149139323Y-96952145D01*
X148907907Y-96898248D01*
X148670422Y-96890533D01*
X148435996Y-96929298D01*
X148213636Y-97013052D01*
X148144222Y-97050154D01*
X148055159Y-97225554D01*
X144509851Y-97225554D01*
X144507923Y-97221947D01*
X144339014Y-97140591D01*
X143689605Y-97790000D01*
X143330395Y-97790000D01*
X142680986Y-97140591D01*
X142512077Y-97221947D01*
X142420430Y-97427547D01*
X142370655Y-97647076D01*
X142364664Y-97872097D01*
X128777746Y-97872097D01*
X128777746Y-95031103D01*
X129857500Y-95031103D01*
X129857500Y-95468897D01*
X129942909Y-95898279D01*
X130110446Y-96302749D01*
X130353671Y-96666761D01*
X130663239Y-96976329D01*
X131027251Y-97219554D01*
X131431721Y-97387091D01*
X131861103Y-97472500D01*
X132298897Y-97472500D01*
X132728279Y-97387091D01*
X133132749Y-97219554D01*
X133496761Y-96976329D01*
X133512104Y-96960986D01*
X142860591Y-96960986D01*
X143510000Y-97610395D01*
X144159409Y-96960986D01*
X144078053Y-96792077D01*
X143872453Y-96700430D01*
X143652924Y-96650655D01*
X143427903Y-96644664D01*
X143206037Y-96682688D01*
X142995851Y-96763265D01*
X142941947Y-96792077D01*
X142860591Y-96960986D01*
X133512104Y-96960986D01*
X133806329Y-96666761D01*
X134049554Y-96302749D01*
X134217091Y-95898279D01*
X134302500Y-95468897D01*
X134302500Y-95051264D01*
X148386366Y-95051264D01*
X148442271Y-95576357D01*
X148599544Y-96080454D01*
X148828511Y-96508822D01*
X149154954Y-96775441D01*
X150900395Y-95030000D01*
X151259605Y-95030000D01*
X153005046Y-96775441D01*
X153331489Y-96508822D01*
X153576731Y-96041163D01*
X153726025Y-95534646D01*
X153773634Y-95008736D01*
X153717729Y-94483643D01*
X153560456Y-93979546D01*
X153331489Y-93551178D01*
X153005046Y-93284559D01*
X151259605Y-95030000D01*
X150900395Y-95030000D01*
X149154954Y-93284559D01*
X148828511Y-93551178D01*
X148583269Y-94018837D01*
X148433975Y-94525354D01*
X148386366Y-95051264D01*
X134302500Y-95051264D01*
X134302500Y-95031103D01*
X134217091Y-94601721D01*
X134049554Y-94197251D01*
X133806329Y-93833239D01*
X133496761Y-93523671D01*
X133132749Y-93280446D01*
X132728279Y-93112909D01*
X132298897Y-93027500D01*
X131861103Y-93027500D01*
X131431721Y-93112909D01*
X131027251Y-93280446D01*
X130663239Y-93523671D01*
X130353671Y-93833239D01*
X130110446Y-94197251D01*
X129942909Y-94601721D01*
X129857500Y-95031103D01*
X128777746Y-95031103D01*
X128777746Y-91947746D01*
X133096254Y-91947746D01*
X133096255Y-92431053D01*
G37*
X133096255Y-92431053D02*
X133093798Y-92456000D01*
X133103601Y-92555535D01*
X133132635Y-92651246D01*
X133179783Y-92739453D01*
X133243233Y-92816767D01*
X133320547Y-92880217D01*
X133408754Y-92927365D01*
X133504465Y-92956399D01*
X133579063Y-92963746D01*
X133604000Y-92966202D01*
X133628937Y-92963746D01*
X138659063Y-92963746D01*
X138684000Y-92966202D01*
X138708937Y-92963746D01*
X138783535Y-92956399D01*
X138879246Y-92927365D01*
X138967453Y-92880217D01*
X139044767Y-92816767D01*
X139108217Y-92739453D01*
X139155365Y-92651246D01*
X139184399Y-92555535D01*
X139194202Y-92456000D01*
X139191746Y-92431063D01*
X139191746Y-91947746D01*
X149972255Y-91947746D01*
X149972255Y-92325053D01*
X149969798Y-92350000D01*
X149979601Y-92449535D01*
X150008635Y-92545246D01*
X150015069Y-92557282D01*
X149601178Y-92778511D01*
X149334559Y-93104954D01*
X151080000Y-94850395D01*
X152825441Y-93104954D01*
X152623536Y-92857746D01*
X155492254Y-92857746D01*
X155492255Y-111252254D01*
X139191746Y-111252254D01*
X139191746Y-110768937D01*
X139194202Y-110744000D01*
X139184399Y-110644465D01*
X139155365Y-110548754D01*
X139108217Y-110460547D01*
X139044767Y-110383233D01*
X138967453Y-110319783D01*
X138879246Y-110272635D01*
X138783535Y-110243601D01*
X138708937Y-110236254D01*
X138684000Y-110233798D01*
X138659063Y-110236254D01*
X133628937Y-110236254D01*
X133604000Y-110233798D01*
X133579063Y-110236254D01*
X133504465Y-110243601D01*
X133408754Y-110272635D01*
X133320547Y-110319783D01*
X133243233Y-110383233D01*
X133179783Y-110460547D01*
X133132635Y-110548754D01*
X133103601Y-110644465D01*
X133093798Y-110744000D01*
X133096255Y-110768947D01*
X133096254Y-111252254D01*
X128777746Y-111252254D01*
X128777746Y-107731103D01*
X129857500Y-107731103D01*
X129857500Y-108168897D01*
X129942909Y-108598279D01*
X130110446Y-109002749D01*
X130353671Y-109366761D01*
X130663239Y-109676329D01*
X131027251Y-109919554D01*
X131431721Y-110087091D01*
X131861103Y-110172500D01*
X132298897Y-110172500D01*
X132688286Y-110095046D01*
X149334559Y-110095046D01*
X149601178Y-110421489D01*
X150068837Y-110666731D01*
X150575354Y-110816025D01*
X151101264Y-110863634D01*
X151626357Y-110807729D01*
X152130454Y-110650456D01*
X152558822Y-110421489D01*
X152825441Y-110095046D01*
X151080000Y-108349605D01*
X149334559Y-110095046D01*
X132688286Y-110095046D01*
X132728279Y-110087091D01*
X133132749Y-109919554D01*
X133496761Y-109676329D01*
X133806329Y-109366761D01*
X134049554Y-109002749D01*
X134217091Y-108598279D01*
X134298050Y-108191264D01*
X148386366Y-108191264D01*
X148442271Y-108716357D01*
X148599544Y-109220454D01*
X148828511Y-109648822D01*
X149154954Y-109915441D01*
X150900395Y-108170000D01*
X151259605Y-108170000D01*
X153005046Y-109915441D01*
X153331489Y-109648822D01*
X153576731Y-109181163D01*
X153726025Y-108674646D01*
X153773634Y-108148736D01*
X153717729Y-107623643D01*
X153560456Y-107119546D01*
X153331489Y-106691178D01*
X153005046Y-106424559D01*
X151259605Y-108170000D01*
X150900395Y-108170000D01*
X149154954Y-106424559D01*
X148828511Y-106691178D01*
X148583269Y-107158837D01*
X148433975Y-107665354D01*
X148386366Y-108191264D01*
X134298050Y-108191264D01*
X134302500Y-108168897D01*
X134302500Y-107731103D01*
X134217091Y-107301721D01*
X134049554Y-106897251D01*
X133806329Y-106533239D01*
X133496761Y-106223671D01*
X133132749Y-105980446D01*
X132728279Y-105812909D01*
X132298897Y-105727500D01*
X131861103Y-105727500D01*
X131431721Y-105812909D01*
X131027251Y-105980446D01*
X130663239Y-106223671D01*
X130353671Y-106533239D01*
X130110446Y-106897251D01*
X129942909Y-107301721D01*
X129857500Y-107731103D01*
X128777746Y-107731103D01*
X128777746Y-105297449D01*
X142367254Y-105297449D01*
X142367254Y-105522551D01*
X142411169Y-105743327D01*
X142497312Y-105951293D01*
X142622371Y-106138458D01*
X142781542Y-106297629D01*
X142968707Y-106422688D01*
X143176673Y-106508831D01*
X143397449Y-106552746D01*
X143622551Y-106552746D01*
X143843327Y-106508831D01*
X144051293Y-106422688D01*
X144238458Y-106297629D01*
X144397629Y-106138458D01*
X144522688Y-105951293D01*
X144608831Y-105743327D01*
X144652746Y-105522551D01*
X144652746Y-105297449D01*
X144608831Y-105076673D01*
X144569283Y-104981195D01*
X147543754Y-104981195D01*
X147543754Y-105218805D01*
X147590109Y-105451849D01*
X147681038Y-105671372D01*
X147813047Y-105868937D01*
X147981063Y-106036953D01*
X148178628Y-106168962D01*
X148398151Y-106259891D01*
X148631195Y-106306246D01*
X148868805Y-106306246D01*
X149101849Y-106259891D01*
X149321372Y-106168962D01*
X149487028Y-106058274D01*
X149334559Y-106244954D01*
X151080000Y-107990395D01*
X152825441Y-106244954D01*
X152558822Y-105918511D01*
X152091163Y-105673269D01*
X151584646Y-105523975D01*
X151058736Y-105476366D01*
X150533643Y-105532271D01*
X150029546Y-105689544D01*
X149678948Y-105876942D01*
X149686953Y-105868937D01*
X149818962Y-105671372D01*
X149909891Y-105451849D01*
X149956246Y-105218805D01*
X149956246Y-104981195D01*
X149909891Y-104748151D01*
X149818962Y-104528628D01*
X149686953Y-104331063D01*
X149518937Y-104163047D01*
X149321372Y-104031038D01*
X149101849Y-103940109D01*
X148868805Y-103893754D01*
X148631195Y-103893754D01*
X148398151Y-103940109D01*
X148178628Y-104031038D01*
X147981063Y-104163047D01*
X147813047Y-104331063D01*
X147681038Y-104528628D01*
X147590109Y-104748151D01*
X147543754Y-104981195D01*
X144569283Y-104981195D01*
X144522688Y-104868707D01*
X144397629Y-104681542D01*
X144238458Y-104522371D01*
X144051293Y-104397312D01*
X143843327Y-104311169D01*
X143622551Y-104267254D01*
X143397449Y-104267254D01*
X143176673Y-104311169D01*
X142968707Y-104397312D01*
X142781542Y-104522371D01*
X142622371Y-104681542D01*
X142497312Y-104868707D01*
X142411169Y-105076673D01*
X142367254Y-105297449D01*
X128777746Y-105297449D01*
X128777746Y-104832439D01*
X134107166Y-104832439D01*
X134165296Y-104981911D01*
X134338282Y-105054443D01*
X134522094Y-105091832D01*
X134709668Y-105092644D01*
X134893797Y-105056845D01*
X135067403Y-104985813D01*
X135074704Y-104981911D01*
X135132834Y-104832439D01*
X134620000Y-104319605D01*
X134107166Y-104832439D01*
X128777746Y-104832439D01*
X128777746Y-104229668D01*
X133667356Y-104229668D01*
X133703155Y-104413797D01*
X133774187Y-104587403D01*
X133778089Y-104594704D01*
X133927561Y-104652834D01*
X134440395Y-104140000D01*
X134799605Y-104140000D01*
X135312439Y-104652834D01*
X135461911Y-104594704D01*
X135534443Y-104421718D01*
X135571832Y-104237906D01*
X135572644Y-104050332D01*
X135536845Y-103866203D01*
X135465813Y-103692597D01*
X135461911Y-103685296D01*
X135312439Y-103627166D01*
X134799605Y-104140000D01*
X134440395Y-104140000D01*
X133927561Y-103627166D01*
X133778089Y-103685296D01*
X133705557Y-103858282D01*
X133668168Y-104042094D01*
X133667356Y-104229668D01*
X128777746Y-104229668D01*
X128777746Y-103447561D01*
X134107166Y-103447561D01*
X134620000Y-103960395D01*
X135132834Y-103447561D01*
X135074704Y-103298089D01*
X134901718Y-103225557D01*
X134717906Y-103188168D01*
X134530332Y-103187356D01*
X134346203Y-103223155D01*
X134172597Y-103294187D01*
X134165296Y-103298089D01*
X134107166Y-103447561D01*
X128777746Y-103447561D01*
X128777746Y-102757449D01*
X142367254Y-102757449D01*
X142367254Y-102982551D01*
X142411169Y-103203327D01*
X142497312Y-103411293D01*
X142622371Y-103598458D01*
X142781542Y-103757629D01*
X142968707Y-103882688D01*
X143176673Y-103968831D01*
X143397449Y-104012746D01*
X143622551Y-104012746D01*
X143843327Y-103968831D01*
X144051293Y-103882688D01*
X144238458Y-103757629D01*
X144397629Y-103598458D01*
X144522688Y-103411293D01*
X144608831Y-103203327D01*
X144652746Y-102982551D01*
X144652746Y-102757449D01*
X144608831Y-102536673D01*
X144522688Y-102328707D01*
X144397629Y-102141542D01*
X144238458Y-101982371D01*
X144051293Y-101857312D01*
X143843327Y-101771169D01*
X143622551Y-101727254D01*
X143397449Y-101727254D01*
X143176673Y-101771169D01*
X142968707Y-101857312D01*
X142781542Y-101982371D01*
X142622371Y-102141542D01*
X142497312Y-102328707D01*
X142411169Y-102536673D01*
X142367254Y-102757449D01*
X128777746Y-102757449D01*
X128777746Y-102292439D01*
X134107166Y-102292439D01*
X134165296Y-102441911D01*
X134338282Y-102514443D01*
X134522094Y-102551832D01*
X134709668Y-102552644D01*
X134893797Y-102516845D01*
X135067403Y-102445813D01*
X135074704Y-102441911D01*
X135132834Y-102292439D01*
X134620000Y-101779605D01*
X134107166Y-102292439D01*
X128777746Y-102292439D01*
X128777746Y-101689668D01*
X133667356Y-101689668D01*
X133703155Y-101873797D01*
X133774187Y-102047403D01*
X133778089Y-102054704D01*
X133927561Y-102112834D01*
X134440395Y-101600000D01*
X134799605Y-101600000D01*
X135312439Y-102112834D01*
X135461911Y-102054704D01*
X135534443Y-101881718D01*
X135571832Y-101697906D01*
X135572644Y-101510332D01*
X135568196Y-101487449D01*
X138557254Y-101487449D01*
X138557254Y-101712551D01*
X138601169Y-101933327D01*
X138687312Y-102141293D01*
X138812371Y-102328458D01*
X138971542Y-102487629D01*
X139158707Y-102612688D01*
X139366673Y-102698831D01*
X139587449Y-102742746D01*
X139812551Y-102742746D01*
X140033327Y-102698831D01*
X140241293Y-102612688D01*
X140428458Y-102487629D01*
X140587629Y-102328458D01*
X140712688Y-102141293D01*
X140798831Y-101933327D01*
X140842746Y-101712551D01*
X140842746Y-101487449D01*
X140798831Y-101266673D01*
X140712688Y-101058707D01*
X140587629Y-100871542D01*
X140428458Y-100712371D01*
X140241293Y-100587312D01*
X140033327Y-100501169D01*
X139812551Y-100457254D01*
X139587449Y-100457254D01*
X139366673Y-100501169D01*
X139158707Y-100587312D01*
X138971542Y-100712371D01*
X138812371Y-100871542D01*
X138687312Y-101058707D01*
X138601169Y-101266673D01*
X138557254Y-101487449D01*
X135568196Y-101487449D01*
X135536845Y-101326203D01*
X135465813Y-101152597D01*
X135461911Y-101145296D01*
X135312439Y-101087166D01*
X134799605Y-101600000D01*
X134440395Y-101600000D01*
X133927561Y-101087166D01*
X133778089Y-101145296D01*
X133705557Y-101318282D01*
X133668168Y-101502094D01*
X133667356Y-101689668D01*
X128777746Y-101689668D01*
X128777746Y-100907561D01*
X134107166Y-100907561D01*
X134620000Y-101420395D01*
X135132834Y-100907561D01*
X135074704Y-100758089D01*
X134901718Y-100685557D01*
X134717906Y-100648168D01*
X134530332Y-100647356D01*
X134346203Y-100683155D01*
X134172597Y-100754187D01*
X134165296Y-100758089D01*
X134107166Y-100907561D01*
X128777746Y-100907561D01*
X128777746Y-100217449D01*
X142367254Y-100217449D01*
X142367254Y-100442551D01*
X142411169Y-100663327D01*
X142497312Y-100871293D01*
X142622371Y-101058458D01*
X142781542Y-101217629D01*
X142968707Y-101342688D01*
X143176673Y-101428831D01*
X143397449Y-101472746D01*
X143622551Y-101472746D01*
X143843327Y-101428831D01*
X144051293Y-101342688D01*
X144238458Y-101217629D01*
X144397629Y-101058458D01*
X144522688Y-100871293D01*
X144608831Y-100663327D01*
X144645059Y-100481195D01*
X147543754Y-100481195D01*
X147543754Y-100718805D01*
X147590109Y-100951849D01*
X147681038Y-101171372D01*
X147813047Y-101368937D01*
X147981063Y-101536953D01*
X148075419Y-101600000D01*
X147981063Y-101663047D01*
X147813047Y-101831063D01*
X147681038Y-102028628D01*
X147590109Y-102248151D01*
X147543754Y-102481195D01*
X147543754Y-102718805D01*
X147590109Y-102951849D01*
X147681038Y-103171372D01*
X147813047Y-103368937D01*
X147981063Y-103536953D01*
X148178628Y-103668962D01*
X148398151Y-103759891D01*
X148631195Y-103806246D01*
X148868805Y-103806246D01*
X149101849Y-103759891D01*
X149321372Y-103668962D01*
X149518937Y-103536953D01*
X149686953Y-103368937D01*
X149818962Y-103171372D01*
X149909891Y-102951849D01*
X149956246Y-102718805D01*
X149956246Y-102481195D01*
X149909891Y-102248151D01*
X149818962Y-102028628D01*
X149686953Y-101831063D01*
X149518937Y-101663047D01*
X149424581Y-101600000D01*
X149518937Y-101536953D01*
X149686953Y-101368937D01*
X149818962Y-101171372D01*
X149909891Y-100951849D01*
X149956246Y-100718805D01*
X149956246Y-100481195D01*
X149909891Y-100248151D01*
X149818962Y-100028628D01*
X149686953Y-99831063D01*
X149518937Y-99663047D01*
X149321372Y-99531038D01*
X149101849Y-99440109D01*
X148868805Y-99393754D01*
X148631195Y-99393754D01*
X148398151Y-99440109D01*
X148178628Y-99531038D01*
X147981063Y-99663047D01*
X147813047Y-99831063D01*
X147681038Y-100028628D01*
X147590109Y-100248151D01*
X147543754Y-100481195D01*
X144645059Y-100481195D01*
X144652746Y-100442551D01*
X144652746Y-100217449D01*
X144608831Y-99996673D01*
X144522688Y-99788707D01*
X144397629Y-99601542D01*
X144238458Y-99442371D01*
X144051293Y-99317312D01*
X143843327Y-99231169D01*
X143622551Y-99187254D01*
X143397449Y-99187254D01*
X143176673Y-99231169D01*
X142968707Y-99317312D01*
X142781542Y-99442371D01*
X142622371Y-99601542D01*
X142497312Y-99788707D01*
X142411169Y-99996673D01*
X142367254Y-100217449D01*
X128777746Y-100217449D01*
X128777746Y-99752439D01*
X134107166Y-99752439D01*
X134165296Y-99901911D01*
X134338282Y-99974443D01*
X134522094Y-100011832D01*
X134709668Y-100012644D01*
X134893797Y-99976845D01*
X135067403Y-99905813D01*
X135074704Y-99901911D01*
X135132834Y-99752439D01*
X134620000Y-99239605D01*
X134107166Y-99752439D01*
X128777746Y-99752439D01*
X128777746Y-99149668D01*
X133667356Y-99149668D01*
X133703155Y-99333797D01*
X133774187Y-99507403D01*
X133778089Y-99514704D01*
X133927561Y-99572834D01*
X134440395Y-99060000D01*
X134799605Y-99060000D01*
X135312439Y-99572834D01*
X135461911Y-99514704D01*
X135534443Y-99341718D01*
X135571832Y-99157906D01*
X135572626Y-98974446D01*
X148055159Y-98974446D01*
X148144222Y-99149846D01*
X148360677Y-99247855D01*
X148592093Y-99301752D01*
X148829578Y-99309467D01*
X149064004Y-99270702D01*
X149286364Y-99186948D01*
X149355778Y-99149846D01*
X149444841Y-98974446D01*
X148750000Y-98279605D01*
X148055159Y-98974446D01*
X135572626Y-98974446D01*
X135572644Y-98970332D01*
X135536845Y-98786203D01*
X135468439Y-98619014D01*
X142860591Y-98619014D01*
X142941947Y-98787923D01*
X143147547Y-98879570D01*
X143367076Y-98929345D01*
X143592097Y-98935336D01*
X143813963Y-98897312D01*
X144024149Y-98816735D01*
X144078053Y-98787923D01*
X144159409Y-98619014D01*
X143510000Y-97969605D01*
X142860591Y-98619014D01*
X135468439Y-98619014D01*
X135465813Y-98612597D01*
X135461911Y-98605296D01*
X135312439Y-98547166D01*
X134799605Y-99060000D01*
X134440395Y-99060000D01*
X133927561Y-98547166D01*
X133778089Y-98605296D01*
X133705557Y-98778282D01*
X133668168Y-98962094D01*
X133667356Y-99149668D01*
X128777746Y-99149668D01*
X128777746Y-98367561D01*
X134107166Y-98367561D01*
X134620000Y-98880395D01*
X135132834Y-98367561D01*
X135074704Y-98218089D01*
X134901718Y-98145557D01*
X134717906Y-98108168D01*
X134530332Y-98107356D01*
X134346203Y-98143155D01*
X134172597Y-98214187D01*
X134165296Y-98218089D01*
X134107166Y-98367561D01*
X128777746Y-98367561D01*
X128777746Y-97872097D01*
X142364664Y-97872097D01*
X142402688Y-98093963D01*
X142483265Y-98304149D01*
X142512077Y-98358053D01*
X142680986Y-98439409D01*
X143330395Y-97790000D01*
X143689605Y-97790000D01*
X144339014Y-98439409D01*
X144507923Y-98358053D01*
X144587478Y-98179578D01*
X147540533Y-98179578D01*
X147579298Y-98414004D01*
X147663052Y-98636364D01*
X147700154Y-98705778D01*
X147875554Y-98794841D01*
X148570395Y-98100000D01*
X147875554Y-97405159D01*
X147700154Y-97494222D01*
X147602145Y-97710677D01*
X147548248Y-97942093D01*
X147540533Y-98179578D01*
X144587478Y-98179578D01*
X144599570Y-98152453D01*
X144649345Y-97932924D01*
X144655336Y-97707903D01*
X144617312Y-97486037D01*
X144536735Y-97275851D01*
X144509851Y-97225554D01*
X148055159Y-97225554D01*
X148750000Y-97920395D01*
X148764143Y-97906253D01*
X148943748Y-98085858D01*
X148929605Y-98100000D01*
X149624446Y-98794841D01*
X149799846Y-98705778D01*
X149897855Y-98489323D01*
X149951752Y-98257907D01*
X149959467Y-98020422D01*
X149920702Y-97785996D01*
X149836948Y-97563636D01*
X149799846Y-97494222D01*
X149624448Y-97405160D01*
X149696441Y-97333167D01*
X149692821Y-97329547D01*
X150068837Y-97526731D01*
X150575354Y-97676025D01*
X151101264Y-97723634D01*
X151626357Y-97667729D01*
X152130454Y-97510456D01*
X152558822Y-97281489D01*
X152825441Y-96955046D01*
X151080000Y-95209605D01*
X149334559Y-96955046D01*
X149505747Y-97164645D01*
X149444840Y-97225552D01*
X149355778Y-97050154D01*
X149139323Y-96952145D01*
X148907907Y-96898248D01*
X148670422Y-96890533D01*
X148435996Y-96929298D01*
X148213636Y-97013052D01*
X148144222Y-97050154D01*
X148055159Y-97225554D01*
X144509851Y-97225554D01*
X144507923Y-97221947D01*
X144339014Y-97140591D01*
X143689605Y-97790000D01*
X143330395Y-97790000D01*
X142680986Y-97140591D01*
X142512077Y-97221947D01*
X142420430Y-97427547D01*
X142370655Y-97647076D01*
X142364664Y-97872097D01*
X128777746Y-97872097D01*
X128777746Y-95031103D01*
X129857500Y-95031103D01*
X129857500Y-95468897D01*
X129942909Y-95898279D01*
X130110446Y-96302749D01*
X130353671Y-96666761D01*
X130663239Y-96976329D01*
X131027251Y-97219554D01*
X131431721Y-97387091D01*
X131861103Y-97472500D01*
X132298897Y-97472500D01*
X132728279Y-97387091D01*
X133132749Y-97219554D01*
X133496761Y-96976329D01*
X133512104Y-96960986D01*
X142860591Y-96960986D01*
X143510000Y-97610395D01*
X144159409Y-96960986D01*
X144078053Y-96792077D01*
X143872453Y-96700430D01*
X143652924Y-96650655D01*
X143427903Y-96644664D01*
X143206037Y-96682688D01*
X142995851Y-96763265D01*
X142941947Y-96792077D01*
X142860591Y-96960986D01*
X133512104Y-96960986D01*
X133806329Y-96666761D01*
X134049554Y-96302749D01*
X134217091Y-95898279D01*
X134302500Y-95468897D01*
X134302500Y-95051264D01*
X148386366Y-95051264D01*
X148442271Y-95576357D01*
X148599544Y-96080454D01*
X148828511Y-96508822D01*
X149154954Y-96775441D01*
X150900395Y-95030000D01*
X151259605Y-95030000D01*
X153005046Y-96775441D01*
X153331489Y-96508822D01*
X153576731Y-96041163D01*
X153726025Y-95534646D01*
X153773634Y-95008736D01*
X153717729Y-94483643D01*
X153560456Y-93979546D01*
X153331489Y-93551178D01*
X153005046Y-93284559D01*
X151259605Y-95030000D01*
X150900395Y-95030000D01*
X149154954Y-93284559D01*
X148828511Y-93551178D01*
X148583269Y-94018837D01*
X148433975Y-94525354D01*
X148386366Y-95051264D01*
X134302500Y-95051264D01*
X134302500Y-95031103D01*
X134217091Y-94601721D01*
X134049554Y-94197251D01*
X133806329Y-93833239D01*
X133496761Y-93523671D01*
X133132749Y-93280446D01*
X132728279Y-93112909D01*
X132298897Y-93027500D01*
X131861103Y-93027500D01*
X131431721Y-93112909D01*
X131027251Y-93280446D01*
X130663239Y-93523671D01*
X130353671Y-93833239D01*
X130110446Y-94197251D01*
X129942909Y-94601721D01*
X129857500Y-95031103D01*
X128777746Y-95031103D01*
X128777746Y-91947746D01*
X133096254Y-91947746D01*
X133096255Y-92431053D01*
M02*
