G04 #@! TF.FileFunction,Legend,Bot*
%FSLAX46Y46*%
G04 Gerber Fmt 4.6, Leading zero omitted, Abs format (unit mm)*
G04 Created by KiCad (PCBNEW 4.0.7) date Sat May  5 17:11:00 2018*
%MOMM*%
%LPD*%
G01*
G04 APERTURE LIST*
%ADD10C,0.100000*%
%ADD11C,0.127000*%
%ADD12C,0.150000*%
%ADD13C,1.244600*%
%ADD14C,3.276600*%
%ADD15C,4.701600*%
%ADD16C,1.752600*%
%ADD17C,1.625600*%
G04 APERTURE END LIST*
D10*
D11*
X141589143Y-105452857D02*
X141132000Y-105452857D01*
X141360571Y-105681429D02*
X141360571Y-105224286D01*
X140560572Y-105081429D02*
X140846286Y-105081429D01*
X140874857Y-105367143D01*
X140846286Y-105338571D01*
X140789143Y-105310000D01*
X140646286Y-105310000D01*
X140589143Y-105338571D01*
X140560572Y-105367143D01*
X140532000Y-105424286D01*
X140532000Y-105567143D01*
X140560572Y-105624286D01*
X140589143Y-105652857D01*
X140646286Y-105681429D01*
X140789143Y-105681429D01*
X140846286Y-105652857D01*
X140874857Y-105624286D01*
X140332000Y-105281429D02*
X140189143Y-105681429D01*
X140046285Y-105281429D01*
X142163857Y-105681429D02*
X142506714Y-105681429D01*
X142335286Y-105681429D02*
X142335286Y-105081429D01*
X142392429Y-105167143D01*
X142449571Y-105224286D01*
X142506714Y-105252857D01*
X141274857Y-97490000D02*
X141332000Y-97461429D01*
X141417714Y-97461429D01*
X141503429Y-97490000D01*
X141560571Y-97547143D01*
X141589143Y-97604286D01*
X141617714Y-97718571D01*
X141617714Y-97804286D01*
X141589143Y-97918571D01*
X141560571Y-97975714D01*
X141503429Y-98032857D01*
X141417714Y-98061429D01*
X141360571Y-98061429D01*
X141274857Y-98032857D01*
X141246286Y-98004286D01*
X141246286Y-97804286D01*
X141360571Y-97804286D01*
X140989143Y-98061429D02*
X140989143Y-97461429D01*
X140646286Y-98061429D01*
X140646286Y-97461429D01*
X140360572Y-98061429D02*
X140360572Y-97461429D01*
X140217715Y-97461429D01*
X140132000Y-97490000D01*
X140074858Y-97547143D01*
X140046286Y-97604286D01*
X140017715Y-97718571D01*
X140017715Y-97804286D01*
X140046286Y-97918571D01*
X140074858Y-97975714D01*
X140132000Y-98032857D01*
X140217715Y-98061429D01*
X140360572Y-98061429D01*
X141589143Y-100601429D02*
X141589143Y-100001429D01*
X141446286Y-100001429D01*
X141360571Y-100030000D01*
X141303429Y-100087143D01*
X141274857Y-100144286D01*
X141246286Y-100258571D01*
X141246286Y-100344286D01*
X141274857Y-100458571D01*
X141303429Y-100515714D01*
X141360571Y-100572857D01*
X141446286Y-100601429D01*
X141589143Y-100601429D01*
X140989143Y-100372857D02*
X140532000Y-100372857D01*
X140760571Y-100601429D02*
X140760571Y-100144286D01*
X141589143Y-103141429D02*
X141589143Y-102541429D01*
X141446286Y-102541429D01*
X141360571Y-102570000D01*
X141303429Y-102627143D01*
X141274857Y-102684286D01*
X141246286Y-102798571D01*
X141246286Y-102884286D01*
X141274857Y-102998571D01*
X141303429Y-103055714D01*
X141360571Y-103112857D01*
X141446286Y-103141429D01*
X141589143Y-103141429D01*
X140989143Y-102912857D02*
X140532000Y-102912857D01*
X142506714Y-102598571D02*
X142478143Y-102570000D01*
X142421000Y-102541429D01*
X142278143Y-102541429D01*
X142221000Y-102570000D01*
X142192429Y-102598571D01*
X142163857Y-102655714D01*
X142163857Y-102712857D01*
X142192429Y-102798571D01*
X142535286Y-103141429D01*
X142163857Y-103141429D01*
X142535286Y-100001429D02*
X142163857Y-100001429D01*
X142363857Y-100230000D01*
X142278143Y-100230000D01*
X142221000Y-100258571D01*
X142192429Y-100287143D01*
X142163857Y-100344286D01*
X142163857Y-100487143D01*
X142192429Y-100544286D01*
X142221000Y-100572857D01*
X142278143Y-100601429D01*
X142449571Y-100601429D01*
X142506714Y-100572857D01*
X142535286Y-100544286D01*
X142221000Y-97661429D02*
X142221000Y-98061429D01*
X142363857Y-97432857D02*
X142506714Y-97861429D01*
X142135286Y-97861429D01*
X133400857Y-98760000D02*
X133458000Y-98731429D01*
X133543714Y-98731429D01*
X133629429Y-98760000D01*
X133686571Y-98817143D01*
X133715143Y-98874286D01*
X133743714Y-98988571D01*
X133743714Y-99074286D01*
X133715143Y-99188571D01*
X133686571Y-99245714D01*
X133629429Y-99302857D01*
X133543714Y-99331429D01*
X133486571Y-99331429D01*
X133400857Y-99302857D01*
X133372286Y-99274286D01*
X133372286Y-99074286D01*
X133486571Y-99074286D01*
X133115143Y-99331429D02*
X133115143Y-98731429D01*
X132772286Y-99331429D01*
X132772286Y-98731429D01*
X132486572Y-99331429D02*
X132486572Y-98731429D01*
X132343715Y-98731429D01*
X132258000Y-98760000D01*
X132200858Y-98817143D01*
X132172286Y-98874286D01*
X132143715Y-98988571D01*
X132143715Y-99074286D01*
X132172286Y-99188571D01*
X132200858Y-99245714D01*
X132258000Y-99302857D01*
X132343715Y-99331429D01*
X132486572Y-99331429D01*
X133400857Y-101300000D02*
X133458000Y-101271429D01*
X133543714Y-101271429D01*
X133629429Y-101300000D01*
X133686571Y-101357143D01*
X133715143Y-101414286D01*
X133743714Y-101528571D01*
X133743714Y-101614286D01*
X133715143Y-101728571D01*
X133686571Y-101785714D01*
X133629429Y-101842857D01*
X133543714Y-101871429D01*
X133486571Y-101871429D01*
X133400857Y-101842857D01*
X133372286Y-101814286D01*
X133372286Y-101614286D01*
X133486571Y-101614286D01*
X133115143Y-101871429D02*
X133115143Y-101271429D01*
X132772286Y-101871429D01*
X132772286Y-101271429D01*
X132486572Y-101871429D02*
X132486572Y-101271429D01*
X132343715Y-101271429D01*
X132258000Y-101300000D01*
X132200858Y-101357143D01*
X132172286Y-101414286D01*
X132143715Y-101528571D01*
X132143715Y-101614286D01*
X132172286Y-101728571D01*
X132200858Y-101785714D01*
X132258000Y-101842857D01*
X132343715Y-101871429D01*
X132486572Y-101871429D01*
X133400857Y-103840000D02*
X133458000Y-103811429D01*
X133543714Y-103811429D01*
X133629429Y-103840000D01*
X133686571Y-103897143D01*
X133715143Y-103954286D01*
X133743714Y-104068571D01*
X133743714Y-104154286D01*
X133715143Y-104268571D01*
X133686571Y-104325714D01*
X133629429Y-104382857D01*
X133543714Y-104411429D01*
X133486571Y-104411429D01*
X133400857Y-104382857D01*
X133372286Y-104354286D01*
X133372286Y-104154286D01*
X133486571Y-104154286D01*
X133115143Y-104411429D02*
X133115143Y-103811429D01*
X132772286Y-104411429D01*
X132772286Y-103811429D01*
X132486572Y-104411429D02*
X132486572Y-103811429D01*
X132343715Y-103811429D01*
X132258000Y-103840000D01*
X132200858Y-103897143D01*
X132172286Y-103954286D01*
X132143715Y-104068571D01*
X132143715Y-104154286D01*
X132172286Y-104268571D01*
X132200858Y-104325714D01*
X132258000Y-104382857D01*
X132343715Y-104411429D01*
X132486572Y-104411429D01*
D12*
X148216191Y-93432381D02*
X148216191Y-94241905D01*
X148168572Y-94337143D01*
X148120953Y-94384762D01*
X148025715Y-94432381D01*
X147835238Y-94432381D01*
X147740000Y-94384762D01*
X147692381Y-94337143D01*
X147644762Y-94241905D01*
X147644762Y-93432381D01*
X147216191Y-94384762D02*
X147073334Y-94432381D01*
X146835238Y-94432381D01*
X146740000Y-94384762D01*
X146692381Y-94337143D01*
X146644762Y-94241905D01*
X146644762Y-94146667D01*
X146692381Y-94051429D01*
X146740000Y-94003810D01*
X146835238Y-93956190D01*
X147025715Y-93908571D01*
X147120953Y-93860952D01*
X147168572Y-93813333D01*
X147216191Y-93718095D01*
X147216191Y-93622857D01*
X147168572Y-93527619D01*
X147120953Y-93480000D01*
X147025715Y-93432381D01*
X146787619Y-93432381D01*
X146644762Y-93480000D01*
X145882857Y-93908571D02*
X145740000Y-93956190D01*
X145692381Y-94003810D01*
X145644762Y-94099048D01*
X145644762Y-94241905D01*
X145692381Y-94337143D01*
X145740000Y-94384762D01*
X145835238Y-94432381D01*
X146216191Y-94432381D01*
X146216191Y-93432381D01*
X145882857Y-93432381D01*
X145787619Y-93480000D01*
X145740000Y-93527619D01*
X145692381Y-93622857D01*
X145692381Y-93718095D01*
X145740000Y-93813333D01*
X145787619Y-93860952D01*
X145882857Y-93908571D01*
X146216191Y-93908571D01*
X145216191Y-94051429D02*
X144454286Y-94051429D01*
X144025715Y-94146667D02*
X143549524Y-94146667D01*
X144120953Y-94432381D02*
X143787620Y-93432381D01*
X143454286Y-94432381D01*
X142025714Y-93908571D02*
X141882857Y-93956190D01*
X141835238Y-94003810D01*
X141787619Y-94099048D01*
X141787619Y-94241905D01*
X141835238Y-94337143D01*
X141882857Y-94384762D01*
X141978095Y-94432381D01*
X142359048Y-94432381D01*
X142359048Y-93432381D01*
X142025714Y-93432381D01*
X141930476Y-93480000D01*
X141882857Y-93527619D01*
X141835238Y-93622857D01*
X141835238Y-93718095D01*
X141882857Y-93813333D01*
X141930476Y-93860952D01*
X142025714Y-93908571D01*
X142359048Y-93908571D01*
X141359048Y-94432381D02*
X141359048Y-93765714D01*
X141359048Y-93956190D02*
X141311429Y-93860952D01*
X141263810Y-93813333D01*
X141168572Y-93765714D01*
X141073333Y-93765714D01*
X140359047Y-94384762D02*
X140454285Y-94432381D01*
X140644762Y-94432381D01*
X140740000Y-94384762D01*
X140787619Y-94289524D01*
X140787619Y-93908571D01*
X140740000Y-93813333D01*
X140644762Y-93765714D01*
X140454285Y-93765714D01*
X140359047Y-93813333D01*
X140311428Y-93908571D01*
X140311428Y-94003810D01*
X140787619Y-94099048D01*
X139454285Y-94432381D02*
X139454285Y-93908571D01*
X139501904Y-93813333D01*
X139597142Y-93765714D01*
X139787619Y-93765714D01*
X139882857Y-93813333D01*
X139454285Y-94384762D02*
X139549523Y-94432381D01*
X139787619Y-94432381D01*
X139882857Y-94384762D01*
X139930476Y-94289524D01*
X139930476Y-94194286D01*
X139882857Y-94099048D01*
X139787619Y-94051429D01*
X139549523Y-94051429D01*
X139454285Y-94003810D01*
X138978095Y-94432381D02*
X138978095Y-93432381D01*
X138882857Y-94051429D02*
X138597142Y-94432381D01*
X138597142Y-93765714D02*
X138978095Y-94146667D01*
X138025714Y-94432381D02*
X138120952Y-94384762D01*
X138168571Y-94337143D01*
X138216190Y-94241905D01*
X138216190Y-93956190D01*
X138168571Y-93860952D01*
X138120952Y-93813333D01*
X138025714Y-93765714D01*
X137882856Y-93765714D01*
X137787618Y-93813333D01*
X137739999Y-93860952D01*
X137692380Y-93956190D01*
X137692380Y-94241905D01*
X137739999Y-94337143D01*
X137787618Y-94384762D01*
X137882856Y-94432381D01*
X138025714Y-94432381D01*
X136835237Y-93765714D02*
X136835237Y-94432381D01*
X137263809Y-93765714D02*
X137263809Y-94289524D01*
X137216190Y-94384762D01*
X137120952Y-94432381D01*
X136978094Y-94432381D01*
X136882856Y-94384762D01*
X136835237Y-94337143D01*
X136501904Y-93765714D02*
X136120952Y-93765714D01*
X136359047Y-93432381D02*
X136359047Y-94289524D01*
X136311428Y-94384762D01*
X136216190Y-94432381D01*
X136120952Y-94432381D01*
X144382857Y-95035714D02*
X144144762Y-95702381D01*
X143906666Y-95035714D01*
X143001904Y-95702381D02*
X143573333Y-95702381D01*
X143287619Y-95702381D02*
X143287619Y-94702381D01*
X143382857Y-94845238D01*
X143478095Y-94940476D01*
X143573333Y-94988095D01*
X142573333Y-95607143D02*
X142525714Y-95654762D01*
X142573333Y-95702381D01*
X142620952Y-95654762D01*
X142573333Y-95607143D01*
X142573333Y-95702381D01*
X141906667Y-94702381D02*
X141811428Y-94702381D01*
X141716190Y-94750000D01*
X141668571Y-94797619D01*
X141620952Y-94892857D01*
X141573333Y-95083333D01*
X141573333Y-95321429D01*
X141620952Y-95511905D01*
X141668571Y-95607143D01*
X141716190Y-95654762D01*
X141811428Y-95702381D01*
X141906667Y-95702381D01*
X142001905Y-95654762D01*
X142049524Y-95607143D01*
X142097143Y-95511905D01*
X142144762Y-95321429D01*
X142144762Y-95083333D01*
X142097143Y-94892857D01*
X142049524Y-94797619D01*
X142001905Y-94750000D01*
X141906667Y-94702381D01*
X141144762Y-95607143D02*
X141097143Y-95654762D01*
X141144762Y-95702381D01*
X141192381Y-95654762D01*
X141144762Y-95607143D01*
X141144762Y-95702381D01*
X140478096Y-94702381D02*
X140382857Y-94702381D01*
X140287619Y-94750000D01*
X140240000Y-94797619D01*
X140192381Y-94892857D01*
X140144762Y-95083333D01*
X140144762Y-95321429D01*
X140192381Y-95511905D01*
X140240000Y-95607143D01*
X140287619Y-95654762D01*
X140382857Y-95702381D01*
X140478096Y-95702381D01*
X140573334Y-95654762D01*
X140620953Y-95607143D01*
X140668572Y-95511905D01*
X140716191Y-95321429D01*
X140716191Y-95083333D01*
X140668572Y-94892857D01*
X140620953Y-94797619D01*
X140573334Y-94750000D01*
X140478096Y-94702381D01*
X148106573Y-109581905D02*
X148106573Y-108781905D01*
X148106573Y-109543810D02*
X148182763Y-109581905D01*
X148335144Y-109581905D01*
X148411335Y-109543810D01*
X148449430Y-109505714D01*
X148487525Y-109429524D01*
X148487525Y-109200952D01*
X148449430Y-109124762D01*
X148411335Y-109086667D01*
X148335144Y-109048571D01*
X148182763Y-109048571D01*
X148106573Y-109086667D01*
X147382763Y-109543810D02*
X147458953Y-109581905D01*
X147611334Y-109581905D01*
X147687525Y-109543810D01*
X147725620Y-109505714D01*
X147763715Y-109429524D01*
X147763715Y-109200952D01*
X147725620Y-109124762D01*
X147687525Y-109086667D01*
X147611334Y-109048571D01*
X147458953Y-109048571D01*
X147382763Y-109086667D01*
X147078001Y-109543810D02*
X147001811Y-109581905D01*
X146849430Y-109581905D01*
X146773239Y-109543810D01*
X146735144Y-109467619D01*
X146735144Y-109429524D01*
X146773239Y-109353333D01*
X146849430Y-109315238D01*
X146963715Y-109315238D01*
X147039906Y-109277143D01*
X147078001Y-109200952D01*
X147078001Y-109162857D01*
X147039906Y-109086667D01*
X146963715Y-109048571D01*
X146849430Y-109048571D01*
X146773239Y-109086667D01*
X146049430Y-109048571D02*
X146049430Y-109581905D01*
X146392287Y-109048571D02*
X146392287Y-109467619D01*
X146354192Y-109543810D01*
X146278001Y-109581905D01*
X146163715Y-109581905D01*
X146087525Y-109543810D01*
X146049430Y-109505714D01*
X145668477Y-109048571D02*
X145668477Y-109581905D01*
X145668477Y-109124762D02*
X145630382Y-109086667D01*
X145554191Y-109048571D01*
X145439905Y-109048571D01*
X145363715Y-109086667D01*
X145325620Y-109162857D01*
X145325620Y-109581905D01*
X144830381Y-109124762D02*
X144906572Y-109086667D01*
X144944667Y-109048571D01*
X144982762Y-108972381D01*
X144982762Y-108934286D01*
X144944667Y-108858095D01*
X144906572Y-108820000D01*
X144830381Y-108781905D01*
X144678000Y-108781905D01*
X144601810Y-108820000D01*
X144563714Y-108858095D01*
X144525619Y-108934286D01*
X144525619Y-108972381D01*
X144563714Y-109048571D01*
X144601810Y-109086667D01*
X144678000Y-109124762D01*
X144830381Y-109124762D01*
X144906572Y-109162857D01*
X144944667Y-109200952D01*
X144982762Y-109277143D01*
X144982762Y-109429524D01*
X144944667Y-109505714D01*
X144906572Y-109543810D01*
X144830381Y-109581905D01*
X144678000Y-109581905D01*
X144601810Y-109543810D01*
X144563714Y-109505714D01*
X144525619Y-109429524D01*
X144525619Y-109277143D01*
X144563714Y-109200952D01*
X144601810Y-109162857D01*
X144678000Y-109124762D01*
X144068476Y-109124762D02*
X144144667Y-109086667D01*
X144182762Y-109048571D01*
X144220857Y-108972381D01*
X144220857Y-108934286D01*
X144182762Y-108858095D01*
X144144667Y-108820000D01*
X144068476Y-108781905D01*
X143916095Y-108781905D01*
X143839905Y-108820000D01*
X143801809Y-108858095D01*
X143763714Y-108934286D01*
X143763714Y-108972381D01*
X143801809Y-109048571D01*
X143839905Y-109086667D01*
X143916095Y-109124762D01*
X144068476Y-109124762D01*
X144144667Y-109162857D01*
X144182762Y-109200952D01*
X144220857Y-109277143D01*
X144220857Y-109429524D01*
X144182762Y-109505714D01*
X144144667Y-109543810D01*
X144068476Y-109581905D01*
X143916095Y-109581905D01*
X143839905Y-109543810D01*
X143801809Y-109505714D01*
X143763714Y-109429524D01*
X143763714Y-109277143D01*
X143801809Y-109200952D01*
X143839905Y-109162857D01*
X143916095Y-109124762D01*
X143306571Y-109581905D02*
X143382762Y-109543810D01*
X143420857Y-109505714D01*
X143458952Y-109429524D01*
X143458952Y-109200952D01*
X143420857Y-109124762D01*
X143382762Y-109086667D01*
X143306571Y-109048571D01*
X143192285Y-109048571D01*
X143116095Y-109086667D01*
X143078000Y-109124762D01*
X143039904Y-109200952D01*
X143039904Y-109429524D01*
X143078000Y-109505714D01*
X143116095Y-109543810D01*
X143192285Y-109581905D01*
X143306571Y-109581905D01*
X142735142Y-109543810D02*
X142658952Y-109581905D01*
X142506571Y-109581905D01*
X142430380Y-109543810D01*
X142392285Y-109467619D01*
X142392285Y-109429524D01*
X142430380Y-109353333D01*
X142506571Y-109315238D01*
X142620856Y-109315238D01*
X142697047Y-109277143D01*
X142735142Y-109200952D01*
X142735142Y-109162857D01*
X142697047Y-109086667D01*
X142620856Y-109048571D01*
X142506571Y-109048571D01*
X142430380Y-109086667D01*
X142049428Y-109581905D02*
X142049428Y-108781905D01*
X141706571Y-109581905D02*
X141706571Y-109162857D01*
X141744666Y-109086667D01*
X141820856Y-109048571D01*
X141935142Y-109048571D01*
X142011333Y-109086667D01*
X142049428Y-109124762D01*
X140830380Y-109200952D02*
X140868475Y-109162857D01*
X140944665Y-109124762D01*
X141020856Y-109124762D01*
X141097046Y-109162857D01*
X141135142Y-109200952D01*
X141173237Y-109277143D01*
X141173237Y-109353333D01*
X141135142Y-109429524D01*
X141097046Y-109467619D01*
X141020856Y-109505714D01*
X140944665Y-109505714D01*
X140868475Y-109467619D01*
X140830380Y-109429524D01*
X140830380Y-109124762D02*
X140830380Y-109429524D01*
X140792284Y-109467619D01*
X140754189Y-109467619D01*
X140677999Y-109429524D01*
X140639904Y-109353333D01*
X140639904Y-109162857D01*
X140716094Y-109048571D01*
X140830380Y-108972381D01*
X140982761Y-108934286D01*
X141135142Y-108972381D01*
X141249427Y-109048571D01*
X141325618Y-109162857D01*
X141363713Y-109315238D01*
X141325618Y-109467619D01*
X141249427Y-109581905D01*
X141135142Y-109658095D01*
X140982761Y-109696190D01*
X140830380Y-109658095D01*
X140716094Y-109581905D01*
X139954190Y-109048571D02*
X139954190Y-109696190D01*
X139992285Y-109772381D01*
X140030380Y-109810476D01*
X140106571Y-109848571D01*
X140220856Y-109848571D01*
X140297047Y-109810476D01*
X139954190Y-109543810D02*
X140030380Y-109581905D01*
X140182761Y-109581905D01*
X140258952Y-109543810D01*
X140297047Y-109505714D01*
X140335142Y-109429524D01*
X140335142Y-109200952D01*
X140297047Y-109124762D01*
X140258952Y-109086667D01*
X140182761Y-109048571D01*
X140030380Y-109048571D01*
X139954190Y-109086667D01*
X139573237Y-109581905D02*
X139573237Y-109048571D01*
X139573237Y-109124762D02*
X139535142Y-109086667D01*
X139458951Y-109048571D01*
X139344665Y-109048571D01*
X139268475Y-109086667D01*
X139230380Y-109162857D01*
X139230380Y-109581905D01*
X139230380Y-109162857D02*
X139192284Y-109086667D01*
X139116094Y-109048571D01*
X139001808Y-109048571D01*
X138925618Y-109086667D01*
X138887523Y-109162857D01*
X138887523Y-109581905D01*
X138163713Y-109581905D02*
X138163713Y-109162857D01*
X138201808Y-109086667D01*
X138277998Y-109048571D01*
X138430379Y-109048571D01*
X138506570Y-109086667D01*
X138163713Y-109543810D02*
X138239903Y-109581905D01*
X138430379Y-109581905D01*
X138506570Y-109543810D01*
X138544665Y-109467619D01*
X138544665Y-109391429D01*
X138506570Y-109315238D01*
X138430379Y-109277143D01*
X138239903Y-109277143D01*
X138163713Y-109239048D01*
X137782760Y-109581905D02*
X137782760Y-109048571D01*
X137782760Y-108781905D02*
X137820855Y-108820000D01*
X137782760Y-108858095D01*
X137744665Y-108820000D01*
X137782760Y-108781905D01*
X137782760Y-108858095D01*
X137287522Y-109581905D02*
X137363713Y-109543810D01*
X137401808Y-109467619D01*
X137401808Y-108781905D01*
X136982760Y-109505714D02*
X136944665Y-109543810D01*
X136982760Y-109581905D01*
X137020855Y-109543810D01*
X136982760Y-109505714D01*
X136982760Y-109581905D01*
X136258951Y-109543810D02*
X136335141Y-109581905D01*
X136487522Y-109581905D01*
X136563713Y-109543810D01*
X136601808Y-109505714D01*
X136639903Y-109429524D01*
X136639903Y-109200952D01*
X136601808Y-109124762D01*
X136563713Y-109086667D01*
X136487522Y-109048571D01*
X136335141Y-109048571D01*
X136258951Y-109086667D01*
X135801808Y-109581905D02*
X135877999Y-109543810D01*
X135916094Y-109505714D01*
X135954189Y-109429524D01*
X135954189Y-109200952D01*
X135916094Y-109124762D01*
X135877999Y-109086667D01*
X135801808Y-109048571D01*
X135687522Y-109048571D01*
X135611332Y-109086667D01*
X135573237Y-109124762D01*
X135535141Y-109200952D01*
X135535141Y-109429524D01*
X135573237Y-109505714D01*
X135611332Y-109543810D01*
X135687522Y-109581905D01*
X135801808Y-109581905D01*
X135192284Y-109581905D02*
X135192284Y-109048571D01*
X135192284Y-109124762D02*
X135154189Y-109086667D01*
X135077998Y-109048571D01*
X134963712Y-109048571D01*
X134887522Y-109086667D01*
X134849427Y-109162857D01*
X134849427Y-109581905D01*
X134849427Y-109162857D02*
X134811331Y-109086667D01*
X134735141Y-109048571D01*
X134620855Y-109048571D01*
X134544665Y-109086667D01*
X134506570Y-109162857D01*
X134506570Y-109581905D01*
%LPC*%
D13*
X134620000Y-104140000D03*
X134620000Y-99060000D03*
X134620000Y-101600000D03*
D14*
X132080000Y-107950000D03*
X132080000Y-95250000D03*
D13*
X129540000Y-101600000D03*
D15*
X151080000Y-108170000D03*
X151080000Y-95030000D03*
D16*
X148750000Y-105100000D03*
X148750000Y-102600000D03*
X148750000Y-100600000D03*
X148750000Y-98100000D03*
D17*
X143510000Y-105410000D03*
X143510000Y-102870000D03*
X143510000Y-100330000D03*
X143510000Y-97790000D03*
X139700000Y-101600000D03*
M02*
