G04 #@! TF.FileFunction,Copper,L2,Inr,Plane*
%FSLAX46Y46*%
G04 Gerber Fmt 4.6, Leading zero omitted, Abs format (unit mm)*
G04 Created by KiCad (PCBNEW 4.0.7) date Sun Apr 29 12:05:11 2018*
%MOMM*%
%LPD*%
G01*
G04 APERTURE LIST*
%ADD10C,0.100000*%
%ADD11C,1.143000*%
%ADD12C,4.600000*%
%ADD13C,1.651000*%
%ADD14C,1.524000*%
%ADD15C,0.254000*%
G04 APERTURE END LIST*
D10*
D11*
X134620000Y-104140000D03*
X134620000Y-99060000D03*
X134620000Y-101600000D03*
X129540000Y-101600000D03*
D12*
X151080000Y-108170000D03*
X151080000Y-95030000D03*
D13*
X148750000Y-105100000D03*
X148750000Y-102600000D03*
X148750000Y-100600000D03*
X148750000Y-98100000D03*
D14*
X143510000Y-105410000D03*
X143510000Y-102870000D03*
X143510000Y-100330000D03*
X143510000Y-97790000D03*
X139700000Y-101600000D03*
D15*
G36*
X133173254Y-92456000D02*
X133206043Y-92620839D01*
X133299417Y-92760583D01*
X133439161Y-92853957D01*
X133604000Y-92886746D01*
X138684000Y-92886746D01*
X138848839Y-92853957D01*
X138988583Y-92760583D01*
X139081957Y-92620839D01*
X139114746Y-92456000D01*
X139114746Y-91870746D01*
X150049254Y-91870746D01*
X150049254Y-92350000D01*
X150082043Y-92514839D01*
X150093987Y-92532715D01*
X149577907Y-92746482D01*
X149306562Y-93076957D01*
X151080000Y-94850395D01*
X152853438Y-93076957D01*
X152610226Y-92780746D01*
X155569254Y-92780746D01*
X155569254Y-111329254D01*
X139114746Y-111329254D01*
X139114746Y-110744000D01*
X139081957Y-110579161D01*
X138988583Y-110439417D01*
X138848839Y-110346043D01*
X138684000Y-110313254D01*
X133604000Y-110313254D01*
X133439161Y-110346043D01*
X133299417Y-110439417D01*
X133206043Y-110579161D01*
X133173254Y-110744000D01*
X133173254Y-111329254D01*
X128700746Y-111329254D01*
X128700746Y-110123043D01*
X149306562Y-110123043D01*
X149577907Y-110453518D01*
X150566112Y-110854521D01*
X151632550Y-110846831D01*
X152582093Y-110453518D01*
X152853438Y-110123043D01*
X151080000Y-108349605D01*
X149306562Y-110123043D01*
X128700746Y-110123043D01*
X128700746Y-108339791D01*
X130111413Y-108339791D01*
X130410429Y-109063465D01*
X130963623Y-109617625D01*
X131686774Y-109917903D01*
X132469791Y-109918587D01*
X133193465Y-109619571D01*
X133747625Y-109066377D01*
X134047903Y-108343226D01*
X134048587Y-107560209D01*
X133749571Y-106836535D01*
X133196377Y-106282375D01*
X132473226Y-105982097D01*
X131690209Y-105981413D01*
X130966535Y-106280429D01*
X130412375Y-106833623D01*
X130112097Y-107556774D01*
X130111413Y-108339791D01*
X128700746Y-108339791D01*
X128700746Y-105636309D01*
X142367056Y-105636309D01*
X142540662Y-106056468D01*
X142861841Y-106378208D01*
X143281696Y-106552547D01*
X143736309Y-106552944D01*
X144156468Y-106379338D01*
X144478208Y-106058159D01*
X144652547Y-105638304D01*
X144652808Y-105338885D01*
X147543545Y-105338885D01*
X147726798Y-105782391D01*
X148065824Y-106122010D01*
X148509010Y-106306036D01*
X148988885Y-106306455D01*
X149146957Y-106241141D01*
X149059245Y-106328853D01*
X149126955Y-106396563D01*
X148796482Y-106667907D01*
X148395479Y-107656112D01*
X148403169Y-108722550D01*
X148796482Y-109672093D01*
X149126957Y-109943438D01*
X150900395Y-108170000D01*
X151259605Y-108170000D01*
X153033043Y-109943438D01*
X153363518Y-109672093D01*
X153764521Y-108683888D01*
X153756831Y-107617450D01*
X153363518Y-106667907D01*
X153033043Y-106396562D01*
X151259605Y-108170000D01*
X150900395Y-108170000D01*
X150886253Y-108155858D01*
X151065858Y-107976253D01*
X151080000Y-107990395D01*
X152853438Y-106216957D01*
X152582093Y-105886482D01*
X151593888Y-105485479D01*
X150527450Y-105493169D01*
X149734502Y-105821618D01*
X149772010Y-105784176D01*
X149956036Y-105340990D01*
X149956455Y-104861115D01*
X149773202Y-104417609D01*
X149434176Y-104077990D01*
X148990990Y-103893964D01*
X148511115Y-103893545D01*
X148067609Y-104076798D01*
X147727990Y-104415824D01*
X147543964Y-104859010D01*
X147543545Y-105338885D01*
X144652808Y-105338885D01*
X144652944Y-105183691D01*
X144479338Y-104763532D01*
X144158159Y-104441792D01*
X143738304Y-104267453D01*
X143283691Y-104267056D01*
X142863532Y-104440662D01*
X142541792Y-104761841D01*
X142367453Y-105181696D01*
X142367056Y-105636309D01*
X128700746Y-105636309D01*
X128700746Y-104842481D01*
X134097124Y-104842481D01*
X134156967Y-104993376D01*
X134518785Y-105105612D01*
X134896013Y-105070842D01*
X135083033Y-104993376D01*
X135142876Y-104842481D01*
X134620000Y-104319605D01*
X134097124Y-104842481D01*
X128700746Y-104842481D01*
X128700746Y-104038785D01*
X133654388Y-104038785D01*
X133689158Y-104416013D01*
X133766624Y-104603033D01*
X133917519Y-104662876D01*
X134440395Y-104140000D01*
X134799605Y-104140000D01*
X135322481Y-104662876D01*
X135473376Y-104603033D01*
X135585612Y-104241215D01*
X135550842Y-103863987D01*
X135473376Y-103676967D01*
X135322481Y-103617124D01*
X134799605Y-104140000D01*
X134440395Y-104140000D01*
X133917519Y-103617124D01*
X133766624Y-103676967D01*
X133654388Y-104038785D01*
X128700746Y-104038785D01*
X128700746Y-103437519D01*
X134097124Y-103437519D01*
X134620000Y-103960395D01*
X135142876Y-103437519D01*
X135083033Y-103286624D01*
X134721215Y-103174388D01*
X134343987Y-103209158D01*
X134156967Y-103286624D01*
X134097124Y-103437519D01*
X128700746Y-103437519D01*
X128700746Y-103096309D01*
X142367056Y-103096309D01*
X142540662Y-103516468D01*
X142861841Y-103838208D01*
X143281696Y-104012547D01*
X143736309Y-104012944D01*
X144156468Y-103839338D01*
X144478208Y-103518159D01*
X144652547Y-103098304D01*
X144652944Y-102643691D01*
X144479338Y-102223532D01*
X144158159Y-101901792D01*
X143738304Y-101727453D01*
X143283691Y-101727056D01*
X142863532Y-101900662D01*
X142541792Y-102221841D01*
X142367453Y-102641696D01*
X142367056Y-103096309D01*
X128700746Y-103096309D01*
X128700746Y-102302481D01*
X134097124Y-102302481D01*
X134156967Y-102453376D01*
X134518785Y-102565612D01*
X134896013Y-102530842D01*
X135083033Y-102453376D01*
X135142876Y-102302481D01*
X134620000Y-101779605D01*
X134097124Y-102302481D01*
X128700746Y-102302481D01*
X128700746Y-101498785D01*
X133654388Y-101498785D01*
X133689158Y-101876013D01*
X133766624Y-102063033D01*
X133917519Y-102122876D01*
X134440395Y-101600000D01*
X134799605Y-101600000D01*
X135322481Y-102122876D01*
X135473376Y-102063033D01*
X135546807Y-101826309D01*
X138557056Y-101826309D01*
X138730662Y-102246468D01*
X139051841Y-102568208D01*
X139471696Y-102742547D01*
X139926309Y-102742944D01*
X140346468Y-102569338D01*
X140668208Y-102248159D01*
X140842547Y-101828304D01*
X140842944Y-101373691D01*
X140669338Y-100953532D01*
X140348159Y-100631792D01*
X140166376Y-100556309D01*
X142367056Y-100556309D01*
X142540662Y-100976468D01*
X142861841Y-101298208D01*
X143281696Y-101472547D01*
X143736309Y-101472944D01*
X144156468Y-101299338D01*
X144478208Y-100978159D01*
X144536039Y-100838885D01*
X147543545Y-100838885D01*
X147726798Y-101282391D01*
X148044109Y-101600257D01*
X147727990Y-101915824D01*
X147543964Y-102359010D01*
X147543545Y-102838885D01*
X147726798Y-103282391D01*
X148065824Y-103622010D01*
X148509010Y-103806036D01*
X148988885Y-103806455D01*
X149432391Y-103623202D01*
X149772010Y-103284176D01*
X149956036Y-102840990D01*
X149956455Y-102361115D01*
X149773202Y-101917609D01*
X149455891Y-101599743D01*
X149772010Y-101284176D01*
X149956036Y-100840990D01*
X149956455Y-100361115D01*
X149773202Y-99917609D01*
X149434176Y-99577990D01*
X148990990Y-99393964D01*
X148511115Y-99393545D01*
X148067609Y-99576798D01*
X147727990Y-99915824D01*
X147543964Y-100359010D01*
X147543545Y-100838885D01*
X144536039Y-100838885D01*
X144652547Y-100558304D01*
X144652944Y-100103691D01*
X144479338Y-99683532D01*
X144158159Y-99361792D01*
X143738304Y-99187453D01*
X143283691Y-99187056D01*
X142863532Y-99360662D01*
X142541792Y-99681841D01*
X142367453Y-100101696D01*
X142367056Y-100556309D01*
X140166376Y-100556309D01*
X139928304Y-100457453D01*
X139473691Y-100457056D01*
X139053532Y-100630662D01*
X138731792Y-100951841D01*
X138557453Y-101371696D01*
X138557056Y-101826309D01*
X135546807Y-101826309D01*
X135585612Y-101701215D01*
X135550842Y-101323987D01*
X135473376Y-101136967D01*
X135322481Y-101077124D01*
X134799605Y-101600000D01*
X134440395Y-101600000D01*
X133917519Y-101077124D01*
X133766624Y-101136967D01*
X133654388Y-101498785D01*
X128700746Y-101498785D01*
X128700746Y-100897519D01*
X134097124Y-100897519D01*
X134620000Y-101420395D01*
X135142876Y-100897519D01*
X135083033Y-100746624D01*
X134721215Y-100634388D01*
X134343987Y-100669158D01*
X134156967Y-100746624D01*
X134097124Y-100897519D01*
X128700746Y-100897519D01*
X128700746Y-99762481D01*
X134097124Y-99762481D01*
X134156967Y-99913376D01*
X134518785Y-100025612D01*
X134896013Y-99990842D01*
X135083033Y-99913376D01*
X135142876Y-99762481D01*
X134620000Y-99239605D01*
X134097124Y-99762481D01*
X128700746Y-99762481D01*
X128700746Y-98958785D01*
X133654388Y-98958785D01*
X133689158Y-99336013D01*
X133766624Y-99523033D01*
X133917519Y-99582876D01*
X134440395Y-99060000D01*
X134799605Y-99060000D01*
X135322481Y-99582876D01*
X135473376Y-99523033D01*
X135585612Y-99161215D01*
X135569565Y-98987109D01*
X148042496Y-98987109D01*
X148133706Y-99164322D01*
X148587916Y-99319150D01*
X149066803Y-99288374D01*
X149366294Y-99164322D01*
X149457504Y-98987109D01*
X148750000Y-98279605D01*
X148042496Y-98987109D01*
X135569565Y-98987109D01*
X135550842Y-98783987D01*
X135487482Y-98631021D01*
X142848584Y-98631021D01*
X142931977Y-98801646D01*
X143363117Y-98945840D01*
X143816618Y-98914066D01*
X144088023Y-98801646D01*
X144171416Y-98631021D01*
X143510000Y-97969605D01*
X142848584Y-98631021D01*
X135487482Y-98631021D01*
X135473376Y-98596967D01*
X135322481Y-98537124D01*
X134799605Y-99060000D01*
X134440395Y-99060000D01*
X133917519Y-98537124D01*
X133766624Y-98596967D01*
X133654388Y-98958785D01*
X128700746Y-98958785D01*
X128700746Y-98357519D01*
X134097124Y-98357519D01*
X134620000Y-98880395D01*
X135142876Y-98357519D01*
X135083033Y-98206624D01*
X134721215Y-98094388D01*
X134343987Y-98129158D01*
X134156967Y-98206624D01*
X134097124Y-98357519D01*
X128700746Y-98357519D01*
X128700746Y-97643117D01*
X142354160Y-97643117D01*
X142385934Y-98096618D01*
X142498354Y-98368023D01*
X142668979Y-98451416D01*
X143330395Y-97790000D01*
X143689605Y-97790000D01*
X144351021Y-98451416D01*
X144521646Y-98368023D01*
X144665494Y-97937916D01*
X147530850Y-97937916D01*
X147561626Y-98416803D01*
X147685678Y-98716294D01*
X147862891Y-98807504D01*
X148570395Y-98100000D01*
X147862891Y-97392496D01*
X147685678Y-97483706D01*
X147530850Y-97937916D01*
X144665494Y-97937916D01*
X144665840Y-97936883D01*
X144634066Y-97483382D01*
X144522025Y-97212891D01*
X148042496Y-97212891D01*
X148750000Y-97920395D01*
X148764143Y-97906253D01*
X148943748Y-98085858D01*
X148929605Y-98100000D01*
X149637109Y-98807504D01*
X149814322Y-98716294D01*
X149969150Y-98262084D01*
X149938374Y-97783197D01*
X149814322Y-97483706D01*
X149637111Y-97392497D01*
X149676203Y-97353405D01*
X150566112Y-97714521D01*
X151632550Y-97706831D01*
X152582093Y-97313518D01*
X152853438Y-96983043D01*
X151080000Y-95209605D01*
X149306562Y-96983043D01*
X149343361Y-97027861D01*
X148912084Y-96880850D01*
X148433197Y-96911626D01*
X148133706Y-97035678D01*
X148042496Y-97212891D01*
X144522025Y-97212891D01*
X144521646Y-97211977D01*
X144351021Y-97128584D01*
X143689605Y-97790000D01*
X143330395Y-97790000D01*
X142668979Y-97128584D01*
X142498354Y-97211977D01*
X142354160Y-97643117D01*
X128700746Y-97643117D01*
X128700746Y-95639791D01*
X130111413Y-95639791D01*
X130410429Y-96363465D01*
X130963623Y-96917625D01*
X131686774Y-97217903D01*
X132469791Y-97218587D01*
X133122292Y-96948979D01*
X142848584Y-96948979D01*
X143510000Y-97610395D01*
X144171416Y-96948979D01*
X144088023Y-96778354D01*
X143656883Y-96634160D01*
X143203382Y-96665934D01*
X142931977Y-96778354D01*
X142848584Y-96948979D01*
X133122292Y-96948979D01*
X133193465Y-96919571D01*
X133747625Y-96366377D01*
X134047903Y-95643226D01*
X134048587Y-94860209D01*
X133906410Y-94516112D01*
X148395479Y-94516112D01*
X148403169Y-95582550D01*
X148796482Y-96532093D01*
X149126957Y-96803438D01*
X150900395Y-95030000D01*
X151259605Y-95030000D01*
X153033043Y-96803438D01*
X153363518Y-96532093D01*
X153764521Y-95543888D01*
X153756831Y-94477450D01*
X153363518Y-93527907D01*
X153033043Y-93256562D01*
X151259605Y-95030000D01*
X150900395Y-95030000D01*
X149126957Y-93256562D01*
X148796482Y-93527907D01*
X148395479Y-94516112D01*
X133906410Y-94516112D01*
X133749571Y-94136535D01*
X133196377Y-93582375D01*
X132473226Y-93282097D01*
X131690209Y-93281413D01*
X130966535Y-93580429D01*
X130412375Y-94133623D01*
X130112097Y-94856774D01*
X130111413Y-95639791D01*
X128700746Y-95639791D01*
X128700746Y-91870746D01*
X133173254Y-91870746D01*
X133173254Y-92456000D01*
X133173254Y-92456000D01*
G37*
X133173254Y-92456000D02*
X133206043Y-92620839D01*
X133299417Y-92760583D01*
X133439161Y-92853957D01*
X133604000Y-92886746D01*
X138684000Y-92886746D01*
X138848839Y-92853957D01*
X138988583Y-92760583D01*
X139081957Y-92620839D01*
X139114746Y-92456000D01*
X139114746Y-91870746D01*
X150049254Y-91870746D01*
X150049254Y-92350000D01*
X150082043Y-92514839D01*
X150093987Y-92532715D01*
X149577907Y-92746482D01*
X149306562Y-93076957D01*
X151080000Y-94850395D01*
X152853438Y-93076957D01*
X152610226Y-92780746D01*
X155569254Y-92780746D01*
X155569254Y-111329254D01*
X139114746Y-111329254D01*
X139114746Y-110744000D01*
X139081957Y-110579161D01*
X138988583Y-110439417D01*
X138848839Y-110346043D01*
X138684000Y-110313254D01*
X133604000Y-110313254D01*
X133439161Y-110346043D01*
X133299417Y-110439417D01*
X133206043Y-110579161D01*
X133173254Y-110744000D01*
X133173254Y-111329254D01*
X128700746Y-111329254D01*
X128700746Y-110123043D01*
X149306562Y-110123043D01*
X149577907Y-110453518D01*
X150566112Y-110854521D01*
X151632550Y-110846831D01*
X152582093Y-110453518D01*
X152853438Y-110123043D01*
X151080000Y-108349605D01*
X149306562Y-110123043D01*
X128700746Y-110123043D01*
X128700746Y-108339791D01*
X130111413Y-108339791D01*
X130410429Y-109063465D01*
X130963623Y-109617625D01*
X131686774Y-109917903D01*
X132469791Y-109918587D01*
X133193465Y-109619571D01*
X133747625Y-109066377D01*
X134047903Y-108343226D01*
X134048587Y-107560209D01*
X133749571Y-106836535D01*
X133196377Y-106282375D01*
X132473226Y-105982097D01*
X131690209Y-105981413D01*
X130966535Y-106280429D01*
X130412375Y-106833623D01*
X130112097Y-107556774D01*
X130111413Y-108339791D01*
X128700746Y-108339791D01*
X128700746Y-105636309D01*
X142367056Y-105636309D01*
X142540662Y-106056468D01*
X142861841Y-106378208D01*
X143281696Y-106552547D01*
X143736309Y-106552944D01*
X144156468Y-106379338D01*
X144478208Y-106058159D01*
X144652547Y-105638304D01*
X144652808Y-105338885D01*
X147543545Y-105338885D01*
X147726798Y-105782391D01*
X148065824Y-106122010D01*
X148509010Y-106306036D01*
X148988885Y-106306455D01*
X149146957Y-106241141D01*
X149059245Y-106328853D01*
X149126955Y-106396563D01*
X148796482Y-106667907D01*
X148395479Y-107656112D01*
X148403169Y-108722550D01*
X148796482Y-109672093D01*
X149126957Y-109943438D01*
X150900395Y-108170000D01*
X151259605Y-108170000D01*
X153033043Y-109943438D01*
X153363518Y-109672093D01*
X153764521Y-108683888D01*
X153756831Y-107617450D01*
X153363518Y-106667907D01*
X153033043Y-106396562D01*
X151259605Y-108170000D01*
X150900395Y-108170000D01*
X150886253Y-108155858D01*
X151065858Y-107976253D01*
X151080000Y-107990395D01*
X152853438Y-106216957D01*
X152582093Y-105886482D01*
X151593888Y-105485479D01*
X150527450Y-105493169D01*
X149734502Y-105821618D01*
X149772010Y-105784176D01*
X149956036Y-105340990D01*
X149956455Y-104861115D01*
X149773202Y-104417609D01*
X149434176Y-104077990D01*
X148990990Y-103893964D01*
X148511115Y-103893545D01*
X148067609Y-104076798D01*
X147727990Y-104415824D01*
X147543964Y-104859010D01*
X147543545Y-105338885D01*
X144652808Y-105338885D01*
X144652944Y-105183691D01*
X144479338Y-104763532D01*
X144158159Y-104441792D01*
X143738304Y-104267453D01*
X143283691Y-104267056D01*
X142863532Y-104440662D01*
X142541792Y-104761841D01*
X142367453Y-105181696D01*
X142367056Y-105636309D01*
X128700746Y-105636309D01*
X128700746Y-104842481D01*
X134097124Y-104842481D01*
X134156967Y-104993376D01*
X134518785Y-105105612D01*
X134896013Y-105070842D01*
X135083033Y-104993376D01*
X135142876Y-104842481D01*
X134620000Y-104319605D01*
X134097124Y-104842481D01*
X128700746Y-104842481D01*
X128700746Y-104038785D01*
X133654388Y-104038785D01*
X133689158Y-104416013D01*
X133766624Y-104603033D01*
X133917519Y-104662876D01*
X134440395Y-104140000D01*
X134799605Y-104140000D01*
X135322481Y-104662876D01*
X135473376Y-104603033D01*
X135585612Y-104241215D01*
X135550842Y-103863987D01*
X135473376Y-103676967D01*
X135322481Y-103617124D01*
X134799605Y-104140000D01*
X134440395Y-104140000D01*
X133917519Y-103617124D01*
X133766624Y-103676967D01*
X133654388Y-104038785D01*
X128700746Y-104038785D01*
X128700746Y-103437519D01*
X134097124Y-103437519D01*
X134620000Y-103960395D01*
X135142876Y-103437519D01*
X135083033Y-103286624D01*
X134721215Y-103174388D01*
X134343987Y-103209158D01*
X134156967Y-103286624D01*
X134097124Y-103437519D01*
X128700746Y-103437519D01*
X128700746Y-103096309D01*
X142367056Y-103096309D01*
X142540662Y-103516468D01*
X142861841Y-103838208D01*
X143281696Y-104012547D01*
X143736309Y-104012944D01*
X144156468Y-103839338D01*
X144478208Y-103518159D01*
X144652547Y-103098304D01*
X144652944Y-102643691D01*
X144479338Y-102223532D01*
X144158159Y-101901792D01*
X143738304Y-101727453D01*
X143283691Y-101727056D01*
X142863532Y-101900662D01*
X142541792Y-102221841D01*
X142367453Y-102641696D01*
X142367056Y-103096309D01*
X128700746Y-103096309D01*
X128700746Y-102302481D01*
X134097124Y-102302481D01*
X134156967Y-102453376D01*
X134518785Y-102565612D01*
X134896013Y-102530842D01*
X135083033Y-102453376D01*
X135142876Y-102302481D01*
X134620000Y-101779605D01*
X134097124Y-102302481D01*
X128700746Y-102302481D01*
X128700746Y-101498785D01*
X133654388Y-101498785D01*
X133689158Y-101876013D01*
X133766624Y-102063033D01*
X133917519Y-102122876D01*
X134440395Y-101600000D01*
X134799605Y-101600000D01*
X135322481Y-102122876D01*
X135473376Y-102063033D01*
X135546807Y-101826309D01*
X138557056Y-101826309D01*
X138730662Y-102246468D01*
X139051841Y-102568208D01*
X139471696Y-102742547D01*
X139926309Y-102742944D01*
X140346468Y-102569338D01*
X140668208Y-102248159D01*
X140842547Y-101828304D01*
X140842944Y-101373691D01*
X140669338Y-100953532D01*
X140348159Y-100631792D01*
X140166376Y-100556309D01*
X142367056Y-100556309D01*
X142540662Y-100976468D01*
X142861841Y-101298208D01*
X143281696Y-101472547D01*
X143736309Y-101472944D01*
X144156468Y-101299338D01*
X144478208Y-100978159D01*
X144536039Y-100838885D01*
X147543545Y-100838885D01*
X147726798Y-101282391D01*
X148044109Y-101600257D01*
X147727990Y-101915824D01*
X147543964Y-102359010D01*
X147543545Y-102838885D01*
X147726798Y-103282391D01*
X148065824Y-103622010D01*
X148509010Y-103806036D01*
X148988885Y-103806455D01*
X149432391Y-103623202D01*
X149772010Y-103284176D01*
X149956036Y-102840990D01*
X149956455Y-102361115D01*
X149773202Y-101917609D01*
X149455891Y-101599743D01*
X149772010Y-101284176D01*
X149956036Y-100840990D01*
X149956455Y-100361115D01*
X149773202Y-99917609D01*
X149434176Y-99577990D01*
X148990990Y-99393964D01*
X148511115Y-99393545D01*
X148067609Y-99576798D01*
X147727990Y-99915824D01*
X147543964Y-100359010D01*
X147543545Y-100838885D01*
X144536039Y-100838885D01*
X144652547Y-100558304D01*
X144652944Y-100103691D01*
X144479338Y-99683532D01*
X144158159Y-99361792D01*
X143738304Y-99187453D01*
X143283691Y-99187056D01*
X142863532Y-99360662D01*
X142541792Y-99681841D01*
X142367453Y-100101696D01*
X142367056Y-100556309D01*
X140166376Y-100556309D01*
X139928304Y-100457453D01*
X139473691Y-100457056D01*
X139053532Y-100630662D01*
X138731792Y-100951841D01*
X138557453Y-101371696D01*
X138557056Y-101826309D01*
X135546807Y-101826309D01*
X135585612Y-101701215D01*
X135550842Y-101323987D01*
X135473376Y-101136967D01*
X135322481Y-101077124D01*
X134799605Y-101600000D01*
X134440395Y-101600000D01*
X133917519Y-101077124D01*
X133766624Y-101136967D01*
X133654388Y-101498785D01*
X128700746Y-101498785D01*
X128700746Y-100897519D01*
X134097124Y-100897519D01*
X134620000Y-101420395D01*
X135142876Y-100897519D01*
X135083033Y-100746624D01*
X134721215Y-100634388D01*
X134343987Y-100669158D01*
X134156967Y-100746624D01*
X134097124Y-100897519D01*
X128700746Y-100897519D01*
X128700746Y-99762481D01*
X134097124Y-99762481D01*
X134156967Y-99913376D01*
X134518785Y-100025612D01*
X134896013Y-99990842D01*
X135083033Y-99913376D01*
X135142876Y-99762481D01*
X134620000Y-99239605D01*
X134097124Y-99762481D01*
X128700746Y-99762481D01*
X128700746Y-98958785D01*
X133654388Y-98958785D01*
X133689158Y-99336013D01*
X133766624Y-99523033D01*
X133917519Y-99582876D01*
X134440395Y-99060000D01*
X134799605Y-99060000D01*
X135322481Y-99582876D01*
X135473376Y-99523033D01*
X135585612Y-99161215D01*
X135569565Y-98987109D01*
X148042496Y-98987109D01*
X148133706Y-99164322D01*
X148587916Y-99319150D01*
X149066803Y-99288374D01*
X149366294Y-99164322D01*
X149457504Y-98987109D01*
X148750000Y-98279605D01*
X148042496Y-98987109D01*
X135569565Y-98987109D01*
X135550842Y-98783987D01*
X135487482Y-98631021D01*
X142848584Y-98631021D01*
X142931977Y-98801646D01*
X143363117Y-98945840D01*
X143816618Y-98914066D01*
X144088023Y-98801646D01*
X144171416Y-98631021D01*
X143510000Y-97969605D01*
X142848584Y-98631021D01*
X135487482Y-98631021D01*
X135473376Y-98596967D01*
X135322481Y-98537124D01*
X134799605Y-99060000D01*
X134440395Y-99060000D01*
X133917519Y-98537124D01*
X133766624Y-98596967D01*
X133654388Y-98958785D01*
X128700746Y-98958785D01*
X128700746Y-98357519D01*
X134097124Y-98357519D01*
X134620000Y-98880395D01*
X135142876Y-98357519D01*
X135083033Y-98206624D01*
X134721215Y-98094388D01*
X134343987Y-98129158D01*
X134156967Y-98206624D01*
X134097124Y-98357519D01*
X128700746Y-98357519D01*
X128700746Y-97643117D01*
X142354160Y-97643117D01*
X142385934Y-98096618D01*
X142498354Y-98368023D01*
X142668979Y-98451416D01*
X143330395Y-97790000D01*
X143689605Y-97790000D01*
X144351021Y-98451416D01*
X144521646Y-98368023D01*
X144665494Y-97937916D01*
X147530850Y-97937916D01*
X147561626Y-98416803D01*
X147685678Y-98716294D01*
X147862891Y-98807504D01*
X148570395Y-98100000D01*
X147862891Y-97392496D01*
X147685678Y-97483706D01*
X147530850Y-97937916D01*
X144665494Y-97937916D01*
X144665840Y-97936883D01*
X144634066Y-97483382D01*
X144522025Y-97212891D01*
X148042496Y-97212891D01*
X148750000Y-97920395D01*
X148764143Y-97906253D01*
X148943748Y-98085858D01*
X148929605Y-98100000D01*
X149637109Y-98807504D01*
X149814322Y-98716294D01*
X149969150Y-98262084D01*
X149938374Y-97783197D01*
X149814322Y-97483706D01*
X149637111Y-97392497D01*
X149676203Y-97353405D01*
X150566112Y-97714521D01*
X151632550Y-97706831D01*
X152582093Y-97313518D01*
X152853438Y-96983043D01*
X151080000Y-95209605D01*
X149306562Y-96983043D01*
X149343361Y-97027861D01*
X148912084Y-96880850D01*
X148433197Y-96911626D01*
X148133706Y-97035678D01*
X148042496Y-97212891D01*
X144522025Y-97212891D01*
X144521646Y-97211977D01*
X144351021Y-97128584D01*
X143689605Y-97790000D01*
X143330395Y-97790000D01*
X142668979Y-97128584D01*
X142498354Y-97211977D01*
X142354160Y-97643117D01*
X128700746Y-97643117D01*
X128700746Y-95639791D01*
X130111413Y-95639791D01*
X130410429Y-96363465D01*
X130963623Y-96917625D01*
X131686774Y-97217903D01*
X132469791Y-97218587D01*
X133122292Y-96948979D01*
X142848584Y-96948979D01*
X143510000Y-97610395D01*
X144171416Y-96948979D01*
X144088023Y-96778354D01*
X143656883Y-96634160D01*
X143203382Y-96665934D01*
X142931977Y-96778354D01*
X142848584Y-96948979D01*
X133122292Y-96948979D01*
X133193465Y-96919571D01*
X133747625Y-96366377D01*
X134047903Y-95643226D01*
X134048587Y-94860209D01*
X133906410Y-94516112D01*
X148395479Y-94516112D01*
X148403169Y-95582550D01*
X148796482Y-96532093D01*
X149126957Y-96803438D01*
X150900395Y-95030000D01*
X151259605Y-95030000D01*
X153033043Y-96803438D01*
X153363518Y-96532093D01*
X153764521Y-95543888D01*
X153756831Y-94477450D01*
X153363518Y-93527907D01*
X153033043Y-93256562D01*
X151259605Y-95030000D01*
X150900395Y-95030000D01*
X149126957Y-93256562D01*
X148796482Y-93527907D01*
X148395479Y-94516112D01*
X133906410Y-94516112D01*
X133749571Y-94136535D01*
X133196377Y-93582375D01*
X132473226Y-93282097D01*
X131690209Y-93281413D01*
X130966535Y-93580429D01*
X130412375Y-94133623D01*
X130112097Y-94856774D01*
X130111413Y-95639791D01*
X128700746Y-95639791D01*
X128700746Y-91870746D01*
X133173254Y-91870746D01*
X133173254Y-92456000D01*
M02*
