G04 #@! TF.FileFunction,Copper,L3,Inr,Plane*
%FSLAX46Y46*%
G04 Gerber Fmt 4.6, Leading zero omitted, Abs format (unit mm)*
G04 Created by KiCad (PCBNEW 4.0.7) date Sun Apr 29 12:05:11 2018*
%MOMM*%
%LPD*%
G01*
G04 APERTURE LIST*
%ADD10C,0.100000*%
%ADD11C,1.143000*%
%ADD12C,4.600000*%
%ADD13C,1.651000*%
%ADD14C,1.524000*%
%ADD15C,0.254000*%
G04 APERTURE END LIST*
D10*
D11*
X134620000Y-104140000D03*
X134620000Y-99060000D03*
X134620000Y-101600000D03*
X129540000Y-101600000D03*
D12*
X151080000Y-108170000D03*
X151080000Y-95030000D03*
D13*
X148750000Y-105100000D03*
X148750000Y-102600000D03*
X148750000Y-100600000D03*
X148750000Y-98100000D03*
D14*
X143510000Y-105410000D03*
X143510000Y-102870000D03*
X143510000Y-100330000D03*
X143510000Y-97790000D03*
X139700000Y-101600000D03*
D15*
G36*
X133173254Y-92456000D02*
X133206043Y-92620839D01*
X133299417Y-92760583D01*
X133439161Y-92853957D01*
X133604000Y-92886746D01*
X138684000Y-92886746D01*
X138848839Y-92853957D01*
X138988583Y-92760583D01*
X139081957Y-92620839D01*
X139114746Y-92456000D01*
X139114746Y-91870746D01*
X150049254Y-91870746D01*
X150049254Y-92280221D01*
X149419628Y-92540377D01*
X148593279Y-93365285D01*
X148145511Y-94443631D01*
X148144492Y-95611246D01*
X148590377Y-96690372D01*
X148793442Y-96893792D01*
X148511115Y-96893545D01*
X148067609Y-97076798D01*
X147727990Y-97415824D01*
X147543964Y-97859010D01*
X147543545Y-98338885D01*
X147726798Y-98782391D01*
X148065824Y-99122010D01*
X148509010Y-99306036D01*
X148988885Y-99306455D01*
X149432391Y-99123202D01*
X149772010Y-98784176D01*
X149956036Y-98340990D01*
X149956455Y-97861115D01*
X149896762Y-97716648D01*
X150493631Y-97964489D01*
X151661246Y-97965508D01*
X152740372Y-97519623D01*
X153566721Y-96694715D01*
X154014489Y-95616369D01*
X154015508Y-94448754D01*
X153569623Y-93369628D01*
X152981768Y-92780746D01*
X155569254Y-92780746D01*
X155569254Y-111329254D01*
X139114746Y-111329254D01*
X139114746Y-110744000D01*
X139081957Y-110579161D01*
X138988583Y-110439417D01*
X138848839Y-110346043D01*
X138684000Y-110313254D01*
X133604000Y-110313254D01*
X133439161Y-110346043D01*
X133299417Y-110439417D01*
X133206043Y-110579161D01*
X133173254Y-110744000D01*
X133173254Y-111329254D01*
X128700746Y-111329254D01*
X128700746Y-108339791D01*
X130111413Y-108339791D01*
X130410429Y-109063465D01*
X130963623Y-109617625D01*
X131686774Y-109917903D01*
X132469791Y-109918587D01*
X133193465Y-109619571D01*
X133747625Y-109066377D01*
X134047903Y-108343226D01*
X134048587Y-107560209D01*
X133749571Y-106836535D01*
X133196377Y-106282375D01*
X132473226Y-105982097D01*
X131690209Y-105981413D01*
X130966535Y-106280429D01*
X130412375Y-106833623D01*
X130112097Y-107556774D01*
X130111413Y-108339791D01*
X128700746Y-108339791D01*
X128700746Y-105636309D01*
X142367056Y-105636309D01*
X142540662Y-106056468D01*
X142861841Y-106378208D01*
X143281696Y-106552547D01*
X143736309Y-106552944D01*
X144156468Y-106379338D01*
X144478208Y-106058159D01*
X144507710Y-105987109D01*
X148042496Y-105987109D01*
X148133706Y-106164322D01*
X148587916Y-106319150D01*
X148792938Y-106305974D01*
X148593279Y-106505285D01*
X148145511Y-107583631D01*
X148144492Y-108751246D01*
X148590377Y-109830372D01*
X149415285Y-110656721D01*
X150493631Y-111104489D01*
X151661246Y-111105508D01*
X152740372Y-110659623D01*
X153566721Y-109834715D01*
X154014489Y-108756369D01*
X154015508Y-107588754D01*
X153569623Y-106509628D01*
X152744715Y-105683279D01*
X151666369Y-105235511D01*
X150498754Y-105234492D01*
X149893276Y-105484670D01*
X149969150Y-105262084D01*
X149938374Y-104783197D01*
X149814322Y-104483706D01*
X149637109Y-104392496D01*
X148929605Y-105100000D01*
X148943748Y-105114143D01*
X148764143Y-105293748D01*
X148750000Y-105279605D01*
X148042496Y-105987109D01*
X144507710Y-105987109D01*
X144652547Y-105638304D01*
X144652944Y-105183691D01*
X144551392Y-104937916D01*
X147530850Y-104937916D01*
X147561626Y-105416803D01*
X147685678Y-105716294D01*
X147862891Y-105807504D01*
X148570395Y-105100000D01*
X147862891Y-104392496D01*
X147685678Y-104483706D01*
X147530850Y-104937916D01*
X144551392Y-104937916D01*
X144479338Y-104763532D01*
X144158159Y-104441792D01*
X143738304Y-104267453D01*
X143283691Y-104267056D01*
X142863532Y-104440662D01*
X142541792Y-104761841D01*
X142367453Y-105181696D01*
X142367056Y-105636309D01*
X128700746Y-105636309D01*
X128700746Y-104328583D01*
X133667589Y-104328583D01*
X133812254Y-104678700D01*
X134079891Y-104946804D01*
X134429755Y-105092081D01*
X134808583Y-105092411D01*
X135158700Y-104947746D01*
X135426804Y-104680109D01*
X135572081Y-104330245D01*
X135572183Y-104212891D01*
X148042496Y-104212891D01*
X148750000Y-104920395D01*
X149457504Y-104212891D01*
X149366294Y-104035678D01*
X148912084Y-103880850D01*
X148433197Y-103911626D01*
X148133706Y-104035678D01*
X148042496Y-104212891D01*
X135572183Y-104212891D01*
X135572411Y-103951417D01*
X135427746Y-103601300D01*
X135160109Y-103333196D01*
X134810245Y-103187919D01*
X134431417Y-103187589D01*
X134081300Y-103332254D01*
X133813196Y-103599891D01*
X133667919Y-103949755D01*
X133667589Y-104328583D01*
X128700746Y-104328583D01*
X128700746Y-103096309D01*
X142367056Y-103096309D01*
X142540662Y-103516468D01*
X142861841Y-103838208D01*
X143281696Y-104012547D01*
X143736309Y-104012944D01*
X144156468Y-103839338D01*
X144478208Y-103518159D01*
X144652547Y-103098304D01*
X144652944Y-102643691D01*
X144479338Y-102223532D01*
X144158159Y-101901792D01*
X143738304Y-101727453D01*
X143283691Y-101727056D01*
X142863532Y-101900662D01*
X142541792Y-102221841D01*
X142367453Y-102641696D01*
X142367056Y-103096309D01*
X128700746Y-103096309D01*
X128700746Y-102062445D01*
X128732254Y-102138700D01*
X128999891Y-102406804D01*
X129349755Y-102552081D01*
X129728583Y-102552411D01*
X130078700Y-102407746D01*
X130346804Y-102140109D01*
X130492081Y-101790245D01*
X130492082Y-101788583D01*
X133667589Y-101788583D01*
X133812254Y-102138700D01*
X134079891Y-102406804D01*
X134429755Y-102552081D01*
X134808583Y-102552411D01*
X135158700Y-102407746D01*
X135426804Y-102140109D01*
X135572081Y-101790245D01*
X135572411Y-101411417D01*
X135427746Y-101061300D01*
X135160109Y-100793196D01*
X134810245Y-100647919D01*
X134431417Y-100647589D01*
X134081300Y-100792254D01*
X133813196Y-101059891D01*
X133667919Y-101409755D01*
X133667589Y-101788583D01*
X130492082Y-101788583D01*
X130492411Y-101411417D01*
X130347746Y-101061300D01*
X130080109Y-100793196D01*
X129730245Y-100647919D01*
X129351417Y-100647589D01*
X129001300Y-100792254D01*
X128733196Y-101059891D01*
X128700746Y-101138039D01*
X128700746Y-100556309D01*
X142367056Y-100556309D01*
X142540662Y-100976468D01*
X142861841Y-101298208D01*
X143281696Y-101472547D01*
X143736309Y-101472944D01*
X144156468Y-101299338D01*
X144478208Y-100978159D01*
X144536039Y-100838885D01*
X147543545Y-100838885D01*
X147726798Y-101282391D01*
X148044109Y-101600257D01*
X147727990Y-101915824D01*
X147543964Y-102359010D01*
X147543545Y-102838885D01*
X147726798Y-103282391D01*
X148065824Y-103622010D01*
X148509010Y-103806036D01*
X148988885Y-103806455D01*
X149432391Y-103623202D01*
X149772010Y-103284176D01*
X149956036Y-102840990D01*
X149956455Y-102361115D01*
X149773202Y-101917609D01*
X149455891Y-101599743D01*
X149772010Y-101284176D01*
X149956036Y-100840990D01*
X149956455Y-100361115D01*
X149773202Y-99917609D01*
X149434176Y-99577990D01*
X148990990Y-99393964D01*
X148511115Y-99393545D01*
X148067609Y-99576798D01*
X147727990Y-99915824D01*
X147543964Y-100359010D01*
X147543545Y-100838885D01*
X144536039Y-100838885D01*
X144652547Y-100558304D01*
X144652944Y-100103691D01*
X144479338Y-99683532D01*
X144158159Y-99361792D01*
X143738304Y-99187453D01*
X143283691Y-99187056D01*
X142863532Y-99360662D01*
X142541792Y-99681841D01*
X142367453Y-100101696D01*
X142367056Y-100556309D01*
X128700746Y-100556309D01*
X128700746Y-99248583D01*
X133667589Y-99248583D01*
X133812254Y-99598700D01*
X134079891Y-99866804D01*
X134429755Y-100012081D01*
X134808583Y-100012411D01*
X135158700Y-99867746D01*
X135426804Y-99600109D01*
X135572081Y-99250245D01*
X135572411Y-98871417D01*
X135427746Y-98521300D01*
X135160109Y-98253196D01*
X134810245Y-98107919D01*
X134431417Y-98107589D01*
X134081300Y-98252254D01*
X133813196Y-98519891D01*
X133667919Y-98869755D01*
X133667589Y-99248583D01*
X128700746Y-99248583D01*
X128700746Y-98016309D01*
X142367056Y-98016309D01*
X142540662Y-98436468D01*
X142861841Y-98758208D01*
X143281696Y-98932547D01*
X143736309Y-98932944D01*
X144156468Y-98759338D01*
X144478208Y-98438159D01*
X144652547Y-98018304D01*
X144652944Y-97563691D01*
X144479338Y-97143532D01*
X144158159Y-96821792D01*
X143738304Y-96647453D01*
X143283691Y-96647056D01*
X142863532Y-96820662D01*
X142541792Y-97141841D01*
X142367453Y-97561696D01*
X142367056Y-98016309D01*
X128700746Y-98016309D01*
X128700746Y-95639791D01*
X130111413Y-95639791D01*
X130410429Y-96363465D01*
X130963623Y-96917625D01*
X131686774Y-97217903D01*
X132469791Y-97218587D01*
X133193465Y-96919571D01*
X133747625Y-96366377D01*
X134047903Y-95643226D01*
X134048587Y-94860209D01*
X133749571Y-94136535D01*
X133196377Y-93582375D01*
X132473226Y-93282097D01*
X131690209Y-93281413D01*
X130966535Y-93580429D01*
X130412375Y-94133623D01*
X130112097Y-94856774D01*
X130111413Y-95639791D01*
X128700746Y-95639791D01*
X128700746Y-91870746D01*
X133173254Y-91870746D01*
X133173254Y-92456000D01*
X133173254Y-92456000D01*
G37*
X133173254Y-92456000D02*
X133206043Y-92620839D01*
X133299417Y-92760583D01*
X133439161Y-92853957D01*
X133604000Y-92886746D01*
X138684000Y-92886746D01*
X138848839Y-92853957D01*
X138988583Y-92760583D01*
X139081957Y-92620839D01*
X139114746Y-92456000D01*
X139114746Y-91870746D01*
X150049254Y-91870746D01*
X150049254Y-92280221D01*
X149419628Y-92540377D01*
X148593279Y-93365285D01*
X148145511Y-94443631D01*
X148144492Y-95611246D01*
X148590377Y-96690372D01*
X148793442Y-96893792D01*
X148511115Y-96893545D01*
X148067609Y-97076798D01*
X147727990Y-97415824D01*
X147543964Y-97859010D01*
X147543545Y-98338885D01*
X147726798Y-98782391D01*
X148065824Y-99122010D01*
X148509010Y-99306036D01*
X148988885Y-99306455D01*
X149432391Y-99123202D01*
X149772010Y-98784176D01*
X149956036Y-98340990D01*
X149956455Y-97861115D01*
X149896762Y-97716648D01*
X150493631Y-97964489D01*
X151661246Y-97965508D01*
X152740372Y-97519623D01*
X153566721Y-96694715D01*
X154014489Y-95616369D01*
X154015508Y-94448754D01*
X153569623Y-93369628D01*
X152981768Y-92780746D01*
X155569254Y-92780746D01*
X155569254Y-111329254D01*
X139114746Y-111329254D01*
X139114746Y-110744000D01*
X139081957Y-110579161D01*
X138988583Y-110439417D01*
X138848839Y-110346043D01*
X138684000Y-110313254D01*
X133604000Y-110313254D01*
X133439161Y-110346043D01*
X133299417Y-110439417D01*
X133206043Y-110579161D01*
X133173254Y-110744000D01*
X133173254Y-111329254D01*
X128700746Y-111329254D01*
X128700746Y-108339791D01*
X130111413Y-108339791D01*
X130410429Y-109063465D01*
X130963623Y-109617625D01*
X131686774Y-109917903D01*
X132469791Y-109918587D01*
X133193465Y-109619571D01*
X133747625Y-109066377D01*
X134047903Y-108343226D01*
X134048587Y-107560209D01*
X133749571Y-106836535D01*
X133196377Y-106282375D01*
X132473226Y-105982097D01*
X131690209Y-105981413D01*
X130966535Y-106280429D01*
X130412375Y-106833623D01*
X130112097Y-107556774D01*
X130111413Y-108339791D01*
X128700746Y-108339791D01*
X128700746Y-105636309D01*
X142367056Y-105636309D01*
X142540662Y-106056468D01*
X142861841Y-106378208D01*
X143281696Y-106552547D01*
X143736309Y-106552944D01*
X144156468Y-106379338D01*
X144478208Y-106058159D01*
X144507710Y-105987109D01*
X148042496Y-105987109D01*
X148133706Y-106164322D01*
X148587916Y-106319150D01*
X148792938Y-106305974D01*
X148593279Y-106505285D01*
X148145511Y-107583631D01*
X148144492Y-108751246D01*
X148590377Y-109830372D01*
X149415285Y-110656721D01*
X150493631Y-111104489D01*
X151661246Y-111105508D01*
X152740372Y-110659623D01*
X153566721Y-109834715D01*
X154014489Y-108756369D01*
X154015508Y-107588754D01*
X153569623Y-106509628D01*
X152744715Y-105683279D01*
X151666369Y-105235511D01*
X150498754Y-105234492D01*
X149893276Y-105484670D01*
X149969150Y-105262084D01*
X149938374Y-104783197D01*
X149814322Y-104483706D01*
X149637109Y-104392496D01*
X148929605Y-105100000D01*
X148943748Y-105114143D01*
X148764143Y-105293748D01*
X148750000Y-105279605D01*
X148042496Y-105987109D01*
X144507710Y-105987109D01*
X144652547Y-105638304D01*
X144652944Y-105183691D01*
X144551392Y-104937916D01*
X147530850Y-104937916D01*
X147561626Y-105416803D01*
X147685678Y-105716294D01*
X147862891Y-105807504D01*
X148570395Y-105100000D01*
X147862891Y-104392496D01*
X147685678Y-104483706D01*
X147530850Y-104937916D01*
X144551392Y-104937916D01*
X144479338Y-104763532D01*
X144158159Y-104441792D01*
X143738304Y-104267453D01*
X143283691Y-104267056D01*
X142863532Y-104440662D01*
X142541792Y-104761841D01*
X142367453Y-105181696D01*
X142367056Y-105636309D01*
X128700746Y-105636309D01*
X128700746Y-104328583D01*
X133667589Y-104328583D01*
X133812254Y-104678700D01*
X134079891Y-104946804D01*
X134429755Y-105092081D01*
X134808583Y-105092411D01*
X135158700Y-104947746D01*
X135426804Y-104680109D01*
X135572081Y-104330245D01*
X135572183Y-104212891D01*
X148042496Y-104212891D01*
X148750000Y-104920395D01*
X149457504Y-104212891D01*
X149366294Y-104035678D01*
X148912084Y-103880850D01*
X148433197Y-103911626D01*
X148133706Y-104035678D01*
X148042496Y-104212891D01*
X135572183Y-104212891D01*
X135572411Y-103951417D01*
X135427746Y-103601300D01*
X135160109Y-103333196D01*
X134810245Y-103187919D01*
X134431417Y-103187589D01*
X134081300Y-103332254D01*
X133813196Y-103599891D01*
X133667919Y-103949755D01*
X133667589Y-104328583D01*
X128700746Y-104328583D01*
X128700746Y-103096309D01*
X142367056Y-103096309D01*
X142540662Y-103516468D01*
X142861841Y-103838208D01*
X143281696Y-104012547D01*
X143736309Y-104012944D01*
X144156468Y-103839338D01*
X144478208Y-103518159D01*
X144652547Y-103098304D01*
X144652944Y-102643691D01*
X144479338Y-102223532D01*
X144158159Y-101901792D01*
X143738304Y-101727453D01*
X143283691Y-101727056D01*
X142863532Y-101900662D01*
X142541792Y-102221841D01*
X142367453Y-102641696D01*
X142367056Y-103096309D01*
X128700746Y-103096309D01*
X128700746Y-102062445D01*
X128732254Y-102138700D01*
X128999891Y-102406804D01*
X129349755Y-102552081D01*
X129728583Y-102552411D01*
X130078700Y-102407746D01*
X130346804Y-102140109D01*
X130492081Y-101790245D01*
X130492082Y-101788583D01*
X133667589Y-101788583D01*
X133812254Y-102138700D01*
X134079891Y-102406804D01*
X134429755Y-102552081D01*
X134808583Y-102552411D01*
X135158700Y-102407746D01*
X135426804Y-102140109D01*
X135572081Y-101790245D01*
X135572411Y-101411417D01*
X135427746Y-101061300D01*
X135160109Y-100793196D01*
X134810245Y-100647919D01*
X134431417Y-100647589D01*
X134081300Y-100792254D01*
X133813196Y-101059891D01*
X133667919Y-101409755D01*
X133667589Y-101788583D01*
X130492082Y-101788583D01*
X130492411Y-101411417D01*
X130347746Y-101061300D01*
X130080109Y-100793196D01*
X129730245Y-100647919D01*
X129351417Y-100647589D01*
X129001300Y-100792254D01*
X128733196Y-101059891D01*
X128700746Y-101138039D01*
X128700746Y-100556309D01*
X142367056Y-100556309D01*
X142540662Y-100976468D01*
X142861841Y-101298208D01*
X143281696Y-101472547D01*
X143736309Y-101472944D01*
X144156468Y-101299338D01*
X144478208Y-100978159D01*
X144536039Y-100838885D01*
X147543545Y-100838885D01*
X147726798Y-101282391D01*
X148044109Y-101600257D01*
X147727990Y-101915824D01*
X147543964Y-102359010D01*
X147543545Y-102838885D01*
X147726798Y-103282391D01*
X148065824Y-103622010D01*
X148509010Y-103806036D01*
X148988885Y-103806455D01*
X149432391Y-103623202D01*
X149772010Y-103284176D01*
X149956036Y-102840990D01*
X149956455Y-102361115D01*
X149773202Y-101917609D01*
X149455891Y-101599743D01*
X149772010Y-101284176D01*
X149956036Y-100840990D01*
X149956455Y-100361115D01*
X149773202Y-99917609D01*
X149434176Y-99577990D01*
X148990990Y-99393964D01*
X148511115Y-99393545D01*
X148067609Y-99576798D01*
X147727990Y-99915824D01*
X147543964Y-100359010D01*
X147543545Y-100838885D01*
X144536039Y-100838885D01*
X144652547Y-100558304D01*
X144652944Y-100103691D01*
X144479338Y-99683532D01*
X144158159Y-99361792D01*
X143738304Y-99187453D01*
X143283691Y-99187056D01*
X142863532Y-99360662D01*
X142541792Y-99681841D01*
X142367453Y-100101696D01*
X142367056Y-100556309D01*
X128700746Y-100556309D01*
X128700746Y-99248583D01*
X133667589Y-99248583D01*
X133812254Y-99598700D01*
X134079891Y-99866804D01*
X134429755Y-100012081D01*
X134808583Y-100012411D01*
X135158700Y-99867746D01*
X135426804Y-99600109D01*
X135572081Y-99250245D01*
X135572411Y-98871417D01*
X135427746Y-98521300D01*
X135160109Y-98253196D01*
X134810245Y-98107919D01*
X134431417Y-98107589D01*
X134081300Y-98252254D01*
X133813196Y-98519891D01*
X133667919Y-98869755D01*
X133667589Y-99248583D01*
X128700746Y-99248583D01*
X128700746Y-98016309D01*
X142367056Y-98016309D01*
X142540662Y-98436468D01*
X142861841Y-98758208D01*
X143281696Y-98932547D01*
X143736309Y-98932944D01*
X144156468Y-98759338D01*
X144478208Y-98438159D01*
X144652547Y-98018304D01*
X144652944Y-97563691D01*
X144479338Y-97143532D01*
X144158159Y-96821792D01*
X143738304Y-96647453D01*
X143283691Y-96647056D01*
X142863532Y-96820662D01*
X142541792Y-97141841D01*
X142367453Y-97561696D01*
X142367056Y-98016309D01*
X128700746Y-98016309D01*
X128700746Y-95639791D01*
X130111413Y-95639791D01*
X130410429Y-96363465D01*
X130963623Y-96917625D01*
X131686774Y-97217903D01*
X132469791Y-97218587D01*
X133193465Y-96919571D01*
X133747625Y-96366377D01*
X134047903Y-95643226D01*
X134048587Y-94860209D01*
X133749571Y-94136535D01*
X133196377Y-93582375D01*
X132473226Y-93282097D01*
X131690209Y-93281413D01*
X130966535Y-93580429D01*
X130412375Y-94133623D01*
X130112097Y-94856774D01*
X130111413Y-95639791D01*
X128700746Y-95639791D01*
X128700746Y-91870746D01*
X133173254Y-91870746D01*
X133173254Y-92456000D01*
M02*
