G04 #@! TF.GenerationSoftware,KiCad,Pcbnew,(5.1.5)*
G04 #@! TF.CreationDate,2019-12-08T12:18:22-05:00*
G04 #@! TF.ProjectId,usbabrkout,75736261-6272-46b6-9f75-742e6b696361,v1.0.0*
G04 #@! TF.SameCoordinates,Original*
G04 #@! TF.FileFunction,Legend,Bot*
G04 #@! TF.FilePolarity,Positive*
%FSLAX46Y46*%
G04 Gerber Fmt 4.6, Leading zero omitted, Abs format (unit mm)*
G04 Created by KiCad (PCBNEW (5.1.5)) date 2019-12-08 12:18:22*
%MOMM*%
%LPD*%
G04 APERTURE LIST*
%ADD10C,0.127000*%
%ADD11C,0.150000*%
%ADD12C,1.244600*%
%ADD13C,3.276600*%
%ADD14C,4.701600*%
%ADD15C,1.752600*%
%ADD16C,1.625600*%
G04 APERTURE END LIST*
D10*
X141506592Y-105452857D02*
X141049450Y-105452857D01*
X141278021Y-105681428D02*
X141278021Y-105224285D01*
X140478021Y-105081428D02*
X140763735Y-105081428D01*
X140792307Y-105367142D01*
X140763735Y-105338571D01*
X140706592Y-105310000D01*
X140563735Y-105310000D01*
X140506592Y-105338571D01*
X140478021Y-105367142D01*
X140449450Y-105424285D01*
X140449450Y-105567142D01*
X140478021Y-105624285D01*
X140506592Y-105652857D01*
X140563735Y-105681428D01*
X140706592Y-105681428D01*
X140763735Y-105652857D01*
X140792307Y-105624285D01*
X140249450Y-105281428D02*
X140106592Y-105681428D01*
X139963735Y-105281428D01*
X142081307Y-105681428D02*
X142424164Y-105681428D01*
X142252735Y-105681428D02*
X142252735Y-105081428D01*
X142309878Y-105167142D01*
X142367021Y-105224285D01*
X142424164Y-105252857D01*
X141192307Y-97490000D02*
X141249450Y-97461428D01*
X141335164Y-97461428D01*
X141420878Y-97490000D01*
X141478021Y-97547142D01*
X141506592Y-97604285D01*
X141535164Y-97718571D01*
X141535164Y-97804285D01*
X141506592Y-97918571D01*
X141478021Y-97975714D01*
X141420878Y-98032857D01*
X141335164Y-98061428D01*
X141278021Y-98061428D01*
X141192307Y-98032857D01*
X141163735Y-98004285D01*
X141163735Y-97804285D01*
X141278021Y-97804285D01*
X140906592Y-98061428D02*
X140906592Y-97461428D01*
X140563735Y-98061428D01*
X140563735Y-97461428D01*
X140278021Y-98061428D02*
X140278021Y-97461428D01*
X140135164Y-97461428D01*
X140049450Y-97490000D01*
X139992307Y-97547142D01*
X139963735Y-97604285D01*
X139935164Y-97718571D01*
X139935164Y-97804285D01*
X139963735Y-97918571D01*
X139992307Y-97975714D01*
X140049450Y-98032857D01*
X140135164Y-98061428D01*
X140278021Y-98061428D01*
X141506592Y-100601428D02*
X141506592Y-100001428D01*
X141363735Y-100001428D01*
X141278021Y-100030000D01*
X141220878Y-100087142D01*
X141192307Y-100144285D01*
X141163735Y-100258571D01*
X141163735Y-100344285D01*
X141192307Y-100458571D01*
X141220878Y-100515714D01*
X141278021Y-100572857D01*
X141363735Y-100601428D01*
X141506592Y-100601428D01*
X140906592Y-100372857D02*
X140449450Y-100372857D01*
X140678021Y-100601428D02*
X140678021Y-100144285D01*
X141506592Y-103141428D02*
X141506592Y-102541428D01*
X141363735Y-102541428D01*
X141278021Y-102570000D01*
X141220878Y-102627142D01*
X141192307Y-102684285D01*
X141163735Y-102798571D01*
X141163735Y-102884285D01*
X141192307Y-102998571D01*
X141220878Y-103055714D01*
X141278021Y-103112857D01*
X141363735Y-103141428D01*
X141506592Y-103141428D01*
X140906592Y-102912857D02*
X140449450Y-102912857D01*
X142424164Y-102598571D02*
X142395592Y-102570000D01*
X142338450Y-102541428D01*
X142195592Y-102541428D01*
X142138450Y-102570000D01*
X142109878Y-102598571D01*
X142081307Y-102655714D01*
X142081307Y-102712857D01*
X142109878Y-102798571D01*
X142452735Y-103141428D01*
X142081307Y-103141428D01*
X142452735Y-100001428D02*
X142081307Y-100001428D01*
X142281307Y-100230000D01*
X142195592Y-100230000D01*
X142138450Y-100258571D01*
X142109878Y-100287142D01*
X142081307Y-100344285D01*
X142081307Y-100487142D01*
X142109878Y-100544285D01*
X142138450Y-100572857D01*
X142195592Y-100601428D01*
X142367021Y-100601428D01*
X142424164Y-100572857D01*
X142452735Y-100544285D01*
X142138450Y-97661428D02*
X142138450Y-98061428D01*
X142281307Y-97432857D02*
X142424164Y-97861428D01*
X142052735Y-97861428D01*
X133318307Y-98760000D02*
X133375450Y-98731428D01*
X133461164Y-98731428D01*
X133546878Y-98760000D01*
X133604021Y-98817142D01*
X133632592Y-98874285D01*
X133661164Y-98988571D01*
X133661164Y-99074285D01*
X133632592Y-99188571D01*
X133604021Y-99245714D01*
X133546878Y-99302857D01*
X133461164Y-99331428D01*
X133404021Y-99331428D01*
X133318307Y-99302857D01*
X133289735Y-99274285D01*
X133289735Y-99074285D01*
X133404021Y-99074285D01*
X133032592Y-99331428D02*
X133032592Y-98731428D01*
X132689735Y-99331428D01*
X132689735Y-98731428D01*
X132404021Y-99331428D02*
X132404021Y-98731428D01*
X132261164Y-98731428D01*
X132175450Y-98760000D01*
X132118307Y-98817142D01*
X132089735Y-98874285D01*
X132061164Y-98988571D01*
X132061164Y-99074285D01*
X132089735Y-99188571D01*
X132118307Y-99245714D01*
X132175450Y-99302857D01*
X132261164Y-99331428D01*
X132404021Y-99331428D01*
X133318307Y-101300000D02*
X133375450Y-101271428D01*
X133461164Y-101271428D01*
X133546878Y-101300000D01*
X133604021Y-101357142D01*
X133632592Y-101414285D01*
X133661164Y-101528571D01*
X133661164Y-101614285D01*
X133632592Y-101728571D01*
X133604021Y-101785714D01*
X133546878Y-101842857D01*
X133461164Y-101871428D01*
X133404021Y-101871428D01*
X133318307Y-101842857D01*
X133289735Y-101814285D01*
X133289735Y-101614285D01*
X133404021Y-101614285D01*
X133032592Y-101871428D02*
X133032592Y-101271428D01*
X132689735Y-101871428D01*
X132689735Y-101271428D01*
X132404021Y-101871428D02*
X132404021Y-101271428D01*
X132261164Y-101271428D01*
X132175450Y-101300000D01*
X132118307Y-101357142D01*
X132089735Y-101414285D01*
X132061164Y-101528571D01*
X132061164Y-101614285D01*
X132089735Y-101728571D01*
X132118307Y-101785714D01*
X132175450Y-101842857D01*
X132261164Y-101871428D01*
X132404021Y-101871428D01*
X133318307Y-103840000D02*
X133375450Y-103811428D01*
X133461164Y-103811428D01*
X133546878Y-103840000D01*
X133604021Y-103897142D01*
X133632592Y-103954285D01*
X133661164Y-104068571D01*
X133661164Y-104154285D01*
X133632592Y-104268571D01*
X133604021Y-104325714D01*
X133546878Y-104382857D01*
X133461164Y-104411428D01*
X133404021Y-104411428D01*
X133318307Y-104382857D01*
X133289735Y-104354285D01*
X133289735Y-104154285D01*
X133404021Y-104154285D01*
X133032592Y-104411428D02*
X133032592Y-103811428D01*
X132689735Y-104411428D01*
X132689735Y-103811428D01*
X132404021Y-104411428D02*
X132404021Y-103811428D01*
X132261164Y-103811428D01*
X132175450Y-103840000D01*
X132118307Y-103897142D01*
X132089735Y-103954285D01*
X132061164Y-104068571D01*
X132061164Y-104154285D01*
X132089735Y-104268571D01*
X132118307Y-104325714D01*
X132175450Y-104382857D01*
X132261164Y-104411428D01*
X132404021Y-104411428D01*
D11*
X148216190Y-93432380D02*
X148216190Y-94241904D01*
X148168571Y-94337142D01*
X148120952Y-94384761D01*
X148025714Y-94432380D01*
X147835238Y-94432380D01*
X147740000Y-94384761D01*
X147692380Y-94337142D01*
X147644761Y-94241904D01*
X147644761Y-93432380D01*
X147216190Y-94384761D02*
X147073333Y-94432380D01*
X146835238Y-94432380D01*
X146740000Y-94384761D01*
X146692380Y-94337142D01*
X146644761Y-94241904D01*
X146644761Y-94146666D01*
X146692380Y-94051428D01*
X146740000Y-94003809D01*
X146835238Y-93956190D01*
X147025714Y-93908571D01*
X147120952Y-93860952D01*
X147168571Y-93813333D01*
X147216190Y-93718095D01*
X147216190Y-93622857D01*
X147168571Y-93527619D01*
X147120952Y-93480000D01*
X147025714Y-93432380D01*
X146787619Y-93432380D01*
X146644761Y-93480000D01*
X145882857Y-93908571D02*
X145740000Y-93956190D01*
X145692380Y-94003809D01*
X145644761Y-94099047D01*
X145644761Y-94241904D01*
X145692380Y-94337142D01*
X145740000Y-94384761D01*
X145835238Y-94432380D01*
X146216190Y-94432380D01*
X146216190Y-93432380D01*
X145882857Y-93432380D01*
X145787619Y-93480000D01*
X145740000Y-93527619D01*
X145692380Y-93622857D01*
X145692380Y-93718095D01*
X145740000Y-93813333D01*
X145787619Y-93860952D01*
X145882857Y-93908571D01*
X146216190Y-93908571D01*
X145216190Y-94051428D02*
X144454285Y-94051428D01*
X144025714Y-94146666D02*
X143549523Y-94146666D01*
X144120952Y-94432380D02*
X143787619Y-93432380D01*
X143454285Y-94432380D01*
X142025714Y-93908571D02*
X141882857Y-93956190D01*
X141835238Y-94003809D01*
X141787619Y-94099047D01*
X141787619Y-94241904D01*
X141835238Y-94337142D01*
X141882857Y-94384761D01*
X141978095Y-94432380D01*
X142359047Y-94432380D01*
X142359047Y-93432380D01*
X142025714Y-93432380D01*
X141930476Y-93480000D01*
X141882857Y-93527619D01*
X141835238Y-93622857D01*
X141835238Y-93718095D01*
X141882857Y-93813333D01*
X141930476Y-93860952D01*
X142025714Y-93908571D01*
X142359047Y-93908571D01*
X141359047Y-94432380D02*
X141359047Y-93765714D01*
X141359047Y-93956190D02*
X141311428Y-93860952D01*
X141263809Y-93813333D01*
X141168571Y-93765714D01*
X141073333Y-93765714D01*
X140359047Y-94384761D02*
X140454285Y-94432380D01*
X140644761Y-94432380D01*
X140740000Y-94384761D01*
X140787619Y-94289523D01*
X140787619Y-93908571D01*
X140740000Y-93813333D01*
X140644761Y-93765714D01*
X140454285Y-93765714D01*
X140359047Y-93813333D01*
X140311428Y-93908571D01*
X140311428Y-94003809D01*
X140787619Y-94099047D01*
X139454285Y-94432380D02*
X139454285Y-93908571D01*
X139501904Y-93813333D01*
X139597142Y-93765714D01*
X139787619Y-93765714D01*
X139882857Y-93813333D01*
X139454285Y-94384761D02*
X139549523Y-94432380D01*
X139787619Y-94432380D01*
X139882857Y-94384761D01*
X139930476Y-94289523D01*
X139930476Y-94194285D01*
X139882857Y-94099047D01*
X139787619Y-94051428D01*
X139549523Y-94051428D01*
X139454285Y-94003809D01*
X138978095Y-94432380D02*
X138978095Y-93432380D01*
X138882857Y-94051428D02*
X138597142Y-94432380D01*
X138597142Y-93765714D02*
X138978095Y-94146666D01*
X138025714Y-94432380D02*
X138120952Y-94384761D01*
X138168571Y-94337142D01*
X138216190Y-94241904D01*
X138216190Y-93956190D01*
X138168571Y-93860952D01*
X138120952Y-93813333D01*
X138025714Y-93765714D01*
X137882857Y-93765714D01*
X137787619Y-93813333D01*
X137740000Y-93860952D01*
X137692380Y-93956190D01*
X137692380Y-94241904D01*
X137740000Y-94337142D01*
X137787619Y-94384761D01*
X137882857Y-94432380D01*
X138025714Y-94432380D01*
X136835238Y-93765714D02*
X136835238Y-94432380D01*
X137263809Y-93765714D02*
X137263809Y-94289523D01*
X137216190Y-94384761D01*
X137120952Y-94432380D01*
X136978095Y-94432380D01*
X136882857Y-94384761D01*
X136835238Y-94337142D01*
X136501904Y-93765714D02*
X136120952Y-93765714D01*
X136359047Y-93432380D02*
X136359047Y-94289523D01*
X136311428Y-94384761D01*
X136216190Y-94432380D01*
X136120952Y-94432380D01*
X144382857Y-95035714D02*
X144144761Y-95702380D01*
X143906666Y-95035714D01*
X143001904Y-95702380D02*
X143573333Y-95702380D01*
X143287619Y-95702380D02*
X143287619Y-94702380D01*
X143382857Y-94845238D01*
X143478095Y-94940476D01*
X143573333Y-94988095D01*
X142573333Y-95607142D02*
X142525714Y-95654761D01*
X142573333Y-95702380D01*
X142620952Y-95654761D01*
X142573333Y-95607142D01*
X142573333Y-95702380D01*
X141906666Y-94702380D02*
X141811428Y-94702380D01*
X141716190Y-94750000D01*
X141668571Y-94797619D01*
X141620952Y-94892857D01*
X141573333Y-95083333D01*
X141573333Y-95321428D01*
X141620952Y-95511904D01*
X141668571Y-95607142D01*
X141716190Y-95654761D01*
X141811428Y-95702380D01*
X141906666Y-95702380D01*
X142001904Y-95654761D01*
X142049523Y-95607142D01*
X142097142Y-95511904D01*
X142144761Y-95321428D01*
X142144761Y-95083333D01*
X142097142Y-94892857D01*
X142049523Y-94797619D01*
X142001904Y-94750000D01*
X141906666Y-94702380D01*
X141144761Y-95607142D02*
X141097142Y-95654761D01*
X141144761Y-95702380D01*
X141192380Y-95654761D01*
X141144761Y-95607142D01*
X141144761Y-95702380D01*
X140478095Y-94702380D02*
X140382857Y-94702380D01*
X140287619Y-94750000D01*
X140240000Y-94797619D01*
X140192380Y-94892857D01*
X140144761Y-95083333D01*
X140144761Y-95321428D01*
X140192380Y-95511904D01*
X140240000Y-95607142D01*
X140287619Y-95654761D01*
X140382857Y-95702380D01*
X140478095Y-95702380D01*
X140573333Y-95654761D01*
X140620952Y-95607142D01*
X140668571Y-95511904D01*
X140716190Y-95321428D01*
X140716190Y-95083333D01*
X140668571Y-94892857D01*
X140620952Y-94797619D01*
X140573333Y-94750000D01*
X140478095Y-94702380D01*
X148106571Y-109581904D02*
X148106571Y-108781904D01*
X148106571Y-109543809D02*
X148182761Y-109581904D01*
X148335142Y-109581904D01*
X148411333Y-109543809D01*
X148449428Y-109505714D01*
X148487523Y-109429523D01*
X148487523Y-109200952D01*
X148449428Y-109124761D01*
X148411333Y-109086666D01*
X148335142Y-109048571D01*
X148182761Y-109048571D01*
X148106571Y-109086666D01*
X147382761Y-109543809D02*
X147458952Y-109581904D01*
X147611333Y-109581904D01*
X147687523Y-109543809D01*
X147725619Y-109505714D01*
X147763714Y-109429523D01*
X147763714Y-109200952D01*
X147725619Y-109124761D01*
X147687523Y-109086666D01*
X147611333Y-109048571D01*
X147458952Y-109048571D01*
X147382761Y-109086666D01*
X147078000Y-109543809D02*
X147001809Y-109581904D01*
X146849428Y-109581904D01*
X146773238Y-109543809D01*
X146735142Y-109467619D01*
X146735142Y-109429523D01*
X146773238Y-109353333D01*
X146849428Y-109315238D01*
X146963714Y-109315238D01*
X147039904Y-109277142D01*
X147078000Y-109200952D01*
X147078000Y-109162857D01*
X147039904Y-109086666D01*
X146963714Y-109048571D01*
X146849428Y-109048571D01*
X146773238Y-109086666D01*
X146049428Y-109048571D02*
X146049428Y-109581904D01*
X146392285Y-109048571D02*
X146392285Y-109467619D01*
X146354190Y-109543809D01*
X146278000Y-109581904D01*
X146163714Y-109581904D01*
X146087523Y-109543809D01*
X146049428Y-109505714D01*
X145668476Y-109048571D02*
X145668476Y-109581904D01*
X145668476Y-109124761D02*
X145630380Y-109086666D01*
X145554190Y-109048571D01*
X145439904Y-109048571D01*
X145363714Y-109086666D01*
X145325619Y-109162857D01*
X145325619Y-109581904D01*
X144830380Y-109124761D02*
X144906571Y-109086666D01*
X144944666Y-109048571D01*
X144982761Y-108972380D01*
X144982761Y-108934285D01*
X144944666Y-108858095D01*
X144906571Y-108820000D01*
X144830380Y-108781904D01*
X144678000Y-108781904D01*
X144601809Y-108820000D01*
X144563714Y-108858095D01*
X144525619Y-108934285D01*
X144525619Y-108972380D01*
X144563714Y-109048571D01*
X144601809Y-109086666D01*
X144678000Y-109124761D01*
X144830380Y-109124761D01*
X144906571Y-109162857D01*
X144944666Y-109200952D01*
X144982761Y-109277142D01*
X144982761Y-109429523D01*
X144944666Y-109505714D01*
X144906571Y-109543809D01*
X144830380Y-109581904D01*
X144678000Y-109581904D01*
X144601809Y-109543809D01*
X144563714Y-109505714D01*
X144525619Y-109429523D01*
X144525619Y-109277142D01*
X144563714Y-109200952D01*
X144601809Y-109162857D01*
X144678000Y-109124761D01*
X144068476Y-109124761D02*
X144144666Y-109086666D01*
X144182761Y-109048571D01*
X144220857Y-108972380D01*
X144220857Y-108934285D01*
X144182761Y-108858095D01*
X144144666Y-108820000D01*
X144068476Y-108781904D01*
X143916095Y-108781904D01*
X143839904Y-108820000D01*
X143801809Y-108858095D01*
X143763714Y-108934285D01*
X143763714Y-108972380D01*
X143801809Y-109048571D01*
X143839904Y-109086666D01*
X143916095Y-109124761D01*
X144068476Y-109124761D01*
X144144666Y-109162857D01*
X144182761Y-109200952D01*
X144220857Y-109277142D01*
X144220857Y-109429523D01*
X144182761Y-109505714D01*
X144144666Y-109543809D01*
X144068476Y-109581904D01*
X143916095Y-109581904D01*
X143839904Y-109543809D01*
X143801809Y-109505714D01*
X143763714Y-109429523D01*
X143763714Y-109277142D01*
X143801809Y-109200952D01*
X143839904Y-109162857D01*
X143916095Y-109124761D01*
X143306571Y-109581904D02*
X143382761Y-109543809D01*
X143420857Y-109505714D01*
X143458952Y-109429523D01*
X143458952Y-109200952D01*
X143420857Y-109124761D01*
X143382761Y-109086666D01*
X143306571Y-109048571D01*
X143192285Y-109048571D01*
X143116095Y-109086666D01*
X143078000Y-109124761D01*
X143039904Y-109200952D01*
X143039904Y-109429523D01*
X143078000Y-109505714D01*
X143116095Y-109543809D01*
X143192285Y-109581904D01*
X143306571Y-109581904D01*
X142735142Y-109543809D02*
X142658952Y-109581904D01*
X142506571Y-109581904D01*
X142430380Y-109543809D01*
X142392285Y-109467619D01*
X142392285Y-109429523D01*
X142430380Y-109353333D01*
X142506571Y-109315238D01*
X142620857Y-109315238D01*
X142697047Y-109277142D01*
X142735142Y-109200952D01*
X142735142Y-109162857D01*
X142697047Y-109086666D01*
X142620857Y-109048571D01*
X142506571Y-109048571D01*
X142430380Y-109086666D01*
X142049428Y-109581904D02*
X142049428Y-108781904D01*
X141706571Y-109581904D02*
X141706571Y-109162857D01*
X141744666Y-109086666D01*
X141820857Y-109048571D01*
X141935142Y-109048571D01*
X142011333Y-109086666D01*
X142049428Y-109124761D01*
X140830380Y-109200952D02*
X140868476Y-109162857D01*
X140944666Y-109124761D01*
X141020857Y-109124761D01*
X141097047Y-109162857D01*
X141135142Y-109200952D01*
X141173238Y-109277142D01*
X141173238Y-109353333D01*
X141135142Y-109429523D01*
X141097047Y-109467619D01*
X141020857Y-109505714D01*
X140944666Y-109505714D01*
X140868476Y-109467619D01*
X140830380Y-109429523D01*
X140830380Y-109124761D02*
X140830380Y-109429523D01*
X140792285Y-109467619D01*
X140754190Y-109467619D01*
X140678000Y-109429523D01*
X140639904Y-109353333D01*
X140639904Y-109162857D01*
X140716095Y-109048571D01*
X140830380Y-108972380D01*
X140982761Y-108934285D01*
X141135142Y-108972380D01*
X141249428Y-109048571D01*
X141325619Y-109162857D01*
X141363714Y-109315238D01*
X141325619Y-109467619D01*
X141249428Y-109581904D01*
X141135142Y-109658095D01*
X140982761Y-109696190D01*
X140830380Y-109658095D01*
X140716095Y-109581904D01*
X139954190Y-109048571D02*
X139954190Y-109696190D01*
X139992285Y-109772380D01*
X140030380Y-109810476D01*
X140106571Y-109848571D01*
X140220857Y-109848571D01*
X140297047Y-109810476D01*
X139954190Y-109543809D02*
X140030380Y-109581904D01*
X140182761Y-109581904D01*
X140258952Y-109543809D01*
X140297047Y-109505714D01*
X140335142Y-109429523D01*
X140335142Y-109200952D01*
X140297047Y-109124761D01*
X140258952Y-109086666D01*
X140182761Y-109048571D01*
X140030380Y-109048571D01*
X139954190Y-109086666D01*
X139573238Y-109581904D02*
X139573238Y-109048571D01*
X139573238Y-109124761D02*
X139535142Y-109086666D01*
X139458952Y-109048571D01*
X139344666Y-109048571D01*
X139268476Y-109086666D01*
X139230380Y-109162857D01*
X139230380Y-109581904D01*
X139230380Y-109162857D02*
X139192285Y-109086666D01*
X139116095Y-109048571D01*
X139001809Y-109048571D01*
X138925619Y-109086666D01*
X138887523Y-109162857D01*
X138887523Y-109581904D01*
X138163714Y-109581904D02*
X138163714Y-109162857D01*
X138201809Y-109086666D01*
X138278000Y-109048571D01*
X138430380Y-109048571D01*
X138506571Y-109086666D01*
X138163714Y-109543809D02*
X138239904Y-109581904D01*
X138430380Y-109581904D01*
X138506571Y-109543809D01*
X138544666Y-109467619D01*
X138544666Y-109391428D01*
X138506571Y-109315238D01*
X138430380Y-109277142D01*
X138239904Y-109277142D01*
X138163714Y-109239047D01*
X137782761Y-109581904D02*
X137782761Y-109048571D01*
X137782761Y-108781904D02*
X137820857Y-108820000D01*
X137782761Y-108858095D01*
X137744666Y-108820000D01*
X137782761Y-108781904D01*
X137782761Y-108858095D01*
X137287523Y-109581904D02*
X137363714Y-109543809D01*
X137401809Y-109467619D01*
X137401809Y-108781904D01*
X136982761Y-109505714D02*
X136944666Y-109543809D01*
X136982761Y-109581904D01*
X137020857Y-109543809D01*
X136982761Y-109505714D01*
X136982761Y-109581904D01*
X136258952Y-109543809D02*
X136335142Y-109581904D01*
X136487523Y-109581904D01*
X136563714Y-109543809D01*
X136601809Y-109505714D01*
X136639904Y-109429523D01*
X136639904Y-109200952D01*
X136601809Y-109124761D01*
X136563714Y-109086666D01*
X136487523Y-109048571D01*
X136335142Y-109048571D01*
X136258952Y-109086666D01*
X135801809Y-109581904D02*
X135878000Y-109543809D01*
X135916095Y-109505714D01*
X135954190Y-109429523D01*
X135954190Y-109200952D01*
X135916095Y-109124761D01*
X135878000Y-109086666D01*
X135801809Y-109048571D01*
X135687523Y-109048571D01*
X135611333Y-109086666D01*
X135573238Y-109124761D01*
X135535142Y-109200952D01*
X135535142Y-109429523D01*
X135573238Y-109505714D01*
X135611333Y-109543809D01*
X135687523Y-109581904D01*
X135801809Y-109581904D01*
X135192285Y-109581904D02*
X135192285Y-109048571D01*
X135192285Y-109124761D02*
X135154190Y-109086666D01*
X135078000Y-109048571D01*
X134963714Y-109048571D01*
X134887523Y-109086666D01*
X134849428Y-109162857D01*
X134849428Y-109581904D01*
X134849428Y-109162857D02*
X134811333Y-109086666D01*
X134735142Y-109048571D01*
X134620857Y-109048571D01*
X134544666Y-109086666D01*
X134506571Y-109162857D01*
X134506571Y-109581904D01*
%LPC*%
D12*
X134620000Y-104140000D03*
X134620000Y-99060000D03*
X134620000Y-101600000D03*
D13*
X132080000Y-107950000D03*
X132080000Y-95250000D03*
D12*
X129540000Y-101600000D03*
D14*
X151080000Y-108170000D03*
X151080000Y-95030000D03*
D15*
X148750000Y-105100000D03*
X148750000Y-102600000D03*
X148750000Y-100600000D03*
X148750000Y-98100000D03*
D16*
X143510000Y-105410000D03*
X143510000Y-102870000D03*
X143510000Y-100330000D03*
X143510000Y-97790000D03*
X139700000Y-101600000D03*
M02*
