G04 #@! TF.GenerationSoftware,KiCad,Pcbnew,(5.1.5)*
G04 #@! TF.CreationDate,2019-12-08T12:18:22-05:00*
G04 #@! TF.ProjectId,usbabrkout,75736261-6272-46b6-9f75-742e6b696361,v1.0.0*
G04 #@! TF.SameCoordinates,Original*
G04 #@! TF.FileFunction,Copper,L3,Inr*
G04 #@! TF.FilePolarity,Positive*
%FSLAX46Y46*%
G04 Gerber Fmt 4.6, Leading zero omitted, Abs format (unit mm)*
G04 Created by KiCad (PCBNEW (5.1.5)) date 2019-12-08 12:18:22*
%MOMM*%
%LPD*%
G04 APERTURE LIST*
%ADD10C,1.143000*%
%ADD11C,4.600000*%
%ADD12C,1.651000*%
%ADD13C,1.524000*%
%ADD14C,0.254000*%
G04 APERTURE END LIST*
D10*
X134620000Y-104140000D03*
X134620000Y-99060000D03*
X134620000Y-101600000D03*
X129540000Y-101600000D03*
D11*
X151080000Y-108170000D03*
X151080000Y-95030000D03*
D12*
X148750000Y-105100000D03*
X148750000Y-102600000D03*
X148750000Y-100600000D03*
X148750000Y-98100000D03*
D13*
X143510000Y-105410000D03*
X143510000Y-102870000D03*
X143510000Y-100330000D03*
X143510000Y-97790000D03*
X139700000Y-101600000D03*
D14*
G36*
X133096255Y-92431053D02*
G01*
X133093798Y-92456000D01*
X133103601Y-92555535D01*
X133132635Y-92651246D01*
X133179783Y-92739453D01*
X133243233Y-92816767D01*
X133320547Y-92880217D01*
X133408754Y-92927365D01*
X133504465Y-92956399D01*
X133579063Y-92963746D01*
X133604000Y-92966202D01*
X133628937Y-92963746D01*
X138659063Y-92963746D01*
X138684000Y-92966202D01*
X138708937Y-92963746D01*
X138783535Y-92956399D01*
X138879246Y-92927365D01*
X138967453Y-92880217D01*
X139044767Y-92816767D01*
X139108217Y-92739453D01*
X139155365Y-92651246D01*
X139184399Y-92555535D01*
X139194202Y-92456000D01*
X139191746Y-92431063D01*
X139191746Y-91947746D01*
X149972255Y-91947746D01*
X149972255Y-92312022D01*
X149689756Y-92429037D01*
X149209047Y-92750237D01*
X148800237Y-93159047D01*
X148479037Y-93639756D01*
X148257791Y-94173892D01*
X148145000Y-94740928D01*
X148145000Y-95319072D01*
X148257791Y-95886108D01*
X148479037Y-96420244D01*
X148795427Y-96893754D01*
X148631195Y-96893754D01*
X148398151Y-96940109D01*
X148178628Y-97031038D01*
X147981063Y-97163047D01*
X147813047Y-97331063D01*
X147681038Y-97528628D01*
X147590109Y-97748151D01*
X147543754Y-97981195D01*
X147543754Y-98218805D01*
X147590109Y-98451849D01*
X147681038Y-98671372D01*
X147813047Y-98868937D01*
X147981063Y-99036953D01*
X148178628Y-99168962D01*
X148398151Y-99259891D01*
X148631195Y-99306246D01*
X148868805Y-99306246D01*
X149101849Y-99259891D01*
X149321372Y-99168962D01*
X149518937Y-99036953D01*
X149686953Y-98868937D01*
X149818962Y-98671372D01*
X149909891Y-98451849D01*
X149956246Y-98218805D01*
X149956246Y-97981195D01*
X149909891Y-97748151D01*
X149896888Y-97716760D01*
X150223892Y-97852209D01*
X150790928Y-97965000D01*
X151369072Y-97965000D01*
X151936108Y-97852209D01*
X152470244Y-97630963D01*
X152950953Y-97309763D01*
X153359763Y-96900953D01*
X153680963Y-96420244D01*
X153902209Y-95886108D01*
X154015000Y-95319072D01*
X154015000Y-94740928D01*
X153902209Y-94173892D01*
X153680963Y-93639756D01*
X153359763Y-93159047D01*
X153058462Y-92857746D01*
X155492254Y-92857746D01*
X155492255Y-111252254D01*
X139191746Y-111252254D01*
X139191746Y-110768937D01*
X139194202Y-110744000D01*
X139184399Y-110644465D01*
X139155365Y-110548754D01*
X139108217Y-110460547D01*
X139044767Y-110383233D01*
X138967453Y-110319783D01*
X138879246Y-110272635D01*
X138783535Y-110243601D01*
X138708937Y-110236254D01*
X138684000Y-110233798D01*
X138659063Y-110236254D01*
X133628937Y-110236254D01*
X133604000Y-110233798D01*
X133579063Y-110236254D01*
X133504465Y-110243601D01*
X133408754Y-110272635D01*
X133320547Y-110319783D01*
X133243233Y-110383233D01*
X133179783Y-110460547D01*
X133132635Y-110548754D01*
X133103601Y-110644465D01*
X133093798Y-110744000D01*
X133096255Y-110768947D01*
X133096254Y-111252254D01*
X128777746Y-111252254D01*
X128777746Y-107731103D01*
X129857500Y-107731103D01*
X129857500Y-108168897D01*
X129942909Y-108598279D01*
X130110446Y-109002749D01*
X130353671Y-109366761D01*
X130663239Y-109676329D01*
X131027251Y-109919554D01*
X131431721Y-110087091D01*
X131861103Y-110172500D01*
X132298897Y-110172500D01*
X132728279Y-110087091D01*
X133132749Y-109919554D01*
X133496761Y-109676329D01*
X133806329Y-109366761D01*
X134049554Y-109002749D01*
X134217091Y-108598279D01*
X134302500Y-108168897D01*
X134302500Y-107731103D01*
X134217091Y-107301721D01*
X134049554Y-106897251D01*
X133806329Y-106533239D01*
X133496761Y-106223671D01*
X133132749Y-105980446D01*
X132728279Y-105812909D01*
X132298897Y-105727500D01*
X131861103Y-105727500D01*
X131431721Y-105812909D01*
X131027251Y-105980446D01*
X130663239Y-106223671D01*
X130353671Y-106533239D01*
X130110446Y-106897251D01*
X129942909Y-107301721D01*
X129857500Y-107731103D01*
X128777746Y-107731103D01*
X128777746Y-105297449D01*
X142367254Y-105297449D01*
X142367254Y-105522551D01*
X142411169Y-105743327D01*
X142497312Y-105951293D01*
X142622371Y-106138458D01*
X142781542Y-106297629D01*
X142968707Y-106422688D01*
X143176673Y-106508831D01*
X143397449Y-106552746D01*
X143622551Y-106552746D01*
X143843327Y-106508831D01*
X144051293Y-106422688D01*
X144238458Y-106297629D01*
X144397629Y-106138458D01*
X144507217Y-105974446D01*
X148055159Y-105974446D01*
X148144222Y-106149846D01*
X148360677Y-106247855D01*
X148592093Y-106301752D01*
X148794046Y-106308313D01*
X148479037Y-106779756D01*
X148257791Y-107313892D01*
X148145000Y-107880928D01*
X148145000Y-108459072D01*
X148257791Y-109026108D01*
X148479037Y-109560244D01*
X148800237Y-110040953D01*
X149209047Y-110449763D01*
X149689756Y-110770963D01*
X150223892Y-110992209D01*
X150790928Y-111105000D01*
X151369072Y-111105000D01*
X151936108Y-110992209D01*
X152470244Y-110770963D01*
X152950953Y-110449763D01*
X153359763Y-110040953D01*
X153680963Y-109560244D01*
X153902209Y-109026108D01*
X154015000Y-108459072D01*
X154015000Y-107880928D01*
X153902209Y-107313892D01*
X153680963Y-106779756D01*
X153359763Y-106299047D01*
X152950953Y-105890237D01*
X152470244Y-105569037D01*
X151936108Y-105347791D01*
X151369072Y-105235000D01*
X150790928Y-105235000D01*
X150223892Y-105347791D01*
X149899526Y-105482147D01*
X149951752Y-105257907D01*
X149959467Y-105020422D01*
X149920702Y-104785996D01*
X149836948Y-104563636D01*
X149799846Y-104494222D01*
X149624446Y-104405159D01*
X148929605Y-105100000D01*
X148943748Y-105114143D01*
X148764143Y-105293748D01*
X148750000Y-105279605D01*
X148055159Y-105974446D01*
X144507217Y-105974446D01*
X144522688Y-105951293D01*
X144608831Y-105743327D01*
X144652746Y-105522551D01*
X144652746Y-105297449D01*
X144629301Y-105179578D01*
X147540533Y-105179578D01*
X147579298Y-105414004D01*
X147663052Y-105636364D01*
X147700154Y-105705778D01*
X147875554Y-105794841D01*
X148570395Y-105100000D01*
X147875554Y-104405159D01*
X147700154Y-104494222D01*
X147602145Y-104710677D01*
X147548248Y-104942093D01*
X147540533Y-105179578D01*
X144629301Y-105179578D01*
X144608831Y-105076673D01*
X144522688Y-104868707D01*
X144397629Y-104681542D01*
X144238458Y-104522371D01*
X144051293Y-104397312D01*
X143843327Y-104311169D01*
X143622551Y-104267254D01*
X143397449Y-104267254D01*
X143176673Y-104311169D01*
X142968707Y-104397312D01*
X142781542Y-104522371D01*
X142622371Y-104681542D01*
X142497312Y-104868707D01*
X142411169Y-105076673D01*
X142367254Y-105297449D01*
X128777746Y-105297449D01*
X128777746Y-104046212D01*
X133667754Y-104046212D01*
X133667754Y-104233788D01*
X133704348Y-104417760D01*
X133776130Y-104591058D01*
X133880342Y-104747022D01*
X134012978Y-104879658D01*
X134168942Y-104983870D01*
X134342240Y-105055652D01*
X134526212Y-105092246D01*
X134713788Y-105092246D01*
X134897760Y-105055652D01*
X135071058Y-104983870D01*
X135227022Y-104879658D01*
X135359658Y-104747022D01*
X135463870Y-104591058D01*
X135535652Y-104417760D01*
X135572246Y-104233788D01*
X135572246Y-104225554D01*
X148055159Y-104225554D01*
X148750000Y-104920395D01*
X149444841Y-104225554D01*
X149355778Y-104050154D01*
X149139323Y-103952145D01*
X148907907Y-103898248D01*
X148670422Y-103890533D01*
X148435996Y-103929298D01*
X148213636Y-104013052D01*
X148144222Y-104050154D01*
X148055159Y-104225554D01*
X135572246Y-104225554D01*
X135572246Y-104046212D01*
X135535652Y-103862240D01*
X135463870Y-103688942D01*
X135359658Y-103532978D01*
X135227022Y-103400342D01*
X135071058Y-103296130D01*
X134897760Y-103224348D01*
X134713788Y-103187754D01*
X134526212Y-103187754D01*
X134342240Y-103224348D01*
X134168942Y-103296130D01*
X134012978Y-103400342D01*
X133880342Y-103532978D01*
X133776130Y-103688942D01*
X133704348Y-103862240D01*
X133667754Y-104046212D01*
X128777746Y-104046212D01*
X128777746Y-102757449D01*
X142367254Y-102757449D01*
X142367254Y-102982551D01*
X142411169Y-103203327D01*
X142497312Y-103411293D01*
X142622371Y-103598458D01*
X142781542Y-103757629D01*
X142968707Y-103882688D01*
X143176673Y-103968831D01*
X143397449Y-104012746D01*
X143622551Y-104012746D01*
X143843327Y-103968831D01*
X144051293Y-103882688D01*
X144238458Y-103757629D01*
X144397629Y-103598458D01*
X144522688Y-103411293D01*
X144608831Y-103203327D01*
X144652746Y-102982551D01*
X144652746Y-102757449D01*
X144608831Y-102536673D01*
X144522688Y-102328707D01*
X144397629Y-102141542D01*
X144238458Y-101982371D01*
X144051293Y-101857312D01*
X143843327Y-101771169D01*
X143622551Y-101727254D01*
X143397449Y-101727254D01*
X143176673Y-101771169D01*
X142968707Y-101857312D01*
X142781542Y-101982371D01*
X142622371Y-102141542D01*
X142497312Y-102328707D01*
X142411169Y-102536673D01*
X142367254Y-102757449D01*
X128777746Y-102757449D01*
X128777746Y-102173205D01*
X128800342Y-102207022D01*
X128932978Y-102339658D01*
X129088942Y-102443870D01*
X129262240Y-102515652D01*
X129446212Y-102552246D01*
X129633788Y-102552246D01*
X129817760Y-102515652D01*
X129991058Y-102443870D01*
X130147022Y-102339658D01*
X130279658Y-102207022D01*
X130383870Y-102051058D01*
X130455652Y-101877760D01*
X130492246Y-101693788D01*
X130492246Y-101506212D01*
X133667754Y-101506212D01*
X133667754Y-101693788D01*
X133704348Y-101877760D01*
X133776130Y-102051058D01*
X133880342Y-102207022D01*
X134012978Y-102339658D01*
X134168942Y-102443870D01*
X134342240Y-102515652D01*
X134526212Y-102552246D01*
X134713788Y-102552246D01*
X134897760Y-102515652D01*
X135071058Y-102443870D01*
X135227022Y-102339658D01*
X135359658Y-102207022D01*
X135463870Y-102051058D01*
X135535652Y-101877760D01*
X135572246Y-101693788D01*
X135572246Y-101506212D01*
X135535652Y-101322240D01*
X135463870Y-101148942D01*
X135359658Y-100992978D01*
X135227022Y-100860342D01*
X135071058Y-100756130D01*
X134897760Y-100684348D01*
X134713788Y-100647754D01*
X134526212Y-100647754D01*
X134342240Y-100684348D01*
X134168942Y-100756130D01*
X134012978Y-100860342D01*
X133880342Y-100992978D01*
X133776130Y-101148942D01*
X133704348Y-101322240D01*
X133667754Y-101506212D01*
X130492246Y-101506212D01*
X130455652Y-101322240D01*
X130383870Y-101148942D01*
X130279658Y-100992978D01*
X130147022Y-100860342D01*
X129991058Y-100756130D01*
X129817760Y-100684348D01*
X129633788Y-100647754D01*
X129446212Y-100647754D01*
X129262240Y-100684348D01*
X129088942Y-100756130D01*
X128932978Y-100860342D01*
X128800342Y-100992978D01*
X128777746Y-101026795D01*
X128777746Y-100217449D01*
X142367254Y-100217449D01*
X142367254Y-100442551D01*
X142411169Y-100663327D01*
X142497312Y-100871293D01*
X142622371Y-101058458D01*
X142781542Y-101217629D01*
X142968707Y-101342688D01*
X143176673Y-101428831D01*
X143397449Y-101472746D01*
X143622551Y-101472746D01*
X143843327Y-101428831D01*
X144051293Y-101342688D01*
X144238458Y-101217629D01*
X144397629Y-101058458D01*
X144522688Y-100871293D01*
X144608831Y-100663327D01*
X144645059Y-100481195D01*
X147543754Y-100481195D01*
X147543754Y-100718805D01*
X147590109Y-100951849D01*
X147681038Y-101171372D01*
X147813047Y-101368937D01*
X147981063Y-101536953D01*
X148075419Y-101600000D01*
X147981063Y-101663047D01*
X147813047Y-101831063D01*
X147681038Y-102028628D01*
X147590109Y-102248151D01*
X147543754Y-102481195D01*
X147543754Y-102718805D01*
X147590109Y-102951849D01*
X147681038Y-103171372D01*
X147813047Y-103368937D01*
X147981063Y-103536953D01*
X148178628Y-103668962D01*
X148398151Y-103759891D01*
X148631195Y-103806246D01*
X148868805Y-103806246D01*
X149101849Y-103759891D01*
X149321372Y-103668962D01*
X149518937Y-103536953D01*
X149686953Y-103368937D01*
X149818962Y-103171372D01*
X149909891Y-102951849D01*
X149956246Y-102718805D01*
X149956246Y-102481195D01*
X149909891Y-102248151D01*
X149818962Y-102028628D01*
X149686953Y-101831063D01*
X149518937Y-101663047D01*
X149424581Y-101600000D01*
X149518937Y-101536953D01*
X149686953Y-101368937D01*
X149818962Y-101171372D01*
X149909891Y-100951849D01*
X149956246Y-100718805D01*
X149956246Y-100481195D01*
X149909891Y-100248151D01*
X149818962Y-100028628D01*
X149686953Y-99831063D01*
X149518937Y-99663047D01*
X149321372Y-99531038D01*
X149101849Y-99440109D01*
X148868805Y-99393754D01*
X148631195Y-99393754D01*
X148398151Y-99440109D01*
X148178628Y-99531038D01*
X147981063Y-99663047D01*
X147813047Y-99831063D01*
X147681038Y-100028628D01*
X147590109Y-100248151D01*
X147543754Y-100481195D01*
X144645059Y-100481195D01*
X144652746Y-100442551D01*
X144652746Y-100217449D01*
X144608831Y-99996673D01*
X144522688Y-99788707D01*
X144397629Y-99601542D01*
X144238458Y-99442371D01*
X144051293Y-99317312D01*
X143843327Y-99231169D01*
X143622551Y-99187254D01*
X143397449Y-99187254D01*
X143176673Y-99231169D01*
X142968707Y-99317312D01*
X142781542Y-99442371D01*
X142622371Y-99601542D01*
X142497312Y-99788707D01*
X142411169Y-99996673D01*
X142367254Y-100217449D01*
X128777746Y-100217449D01*
X128777746Y-98966212D01*
X133667754Y-98966212D01*
X133667754Y-99153788D01*
X133704348Y-99337760D01*
X133776130Y-99511058D01*
X133880342Y-99667022D01*
X134012978Y-99799658D01*
X134168942Y-99903870D01*
X134342240Y-99975652D01*
X134526212Y-100012246D01*
X134713788Y-100012246D01*
X134897760Y-99975652D01*
X135071058Y-99903870D01*
X135227022Y-99799658D01*
X135359658Y-99667022D01*
X135463870Y-99511058D01*
X135535652Y-99337760D01*
X135572246Y-99153788D01*
X135572246Y-98966212D01*
X135535652Y-98782240D01*
X135463870Y-98608942D01*
X135359658Y-98452978D01*
X135227022Y-98320342D01*
X135071058Y-98216130D01*
X134897760Y-98144348D01*
X134713788Y-98107754D01*
X134526212Y-98107754D01*
X134342240Y-98144348D01*
X134168942Y-98216130D01*
X134012978Y-98320342D01*
X133880342Y-98452978D01*
X133776130Y-98608942D01*
X133704348Y-98782240D01*
X133667754Y-98966212D01*
X128777746Y-98966212D01*
X128777746Y-97677449D01*
X142367254Y-97677449D01*
X142367254Y-97902551D01*
X142411169Y-98123327D01*
X142497312Y-98331293D01*
X142622371Y-98518458D01*
X142781542Y-98677629D01*
X142968707Y-98802688D01*
X143176673Y-98888831D01*
X143397449Y-98932746D01*
X143622551Y-98932746D01*
X143843327Y-98888831D01*
X144051293Y-98802688D01*
X144238458Y-98677629D01*
X144397629Y-98518458D01*
X144522688Y-98331293D01*
X144608831Y-98123327D01*
X144652746Y-97902551D01*
X144652746Y-97677449D01*
X144608831Y-97456673D01*
X144522688Y-97248707D01*
X144397629Y-97061542D01*
X144238458Y-96902371D01*
X144051293Y-96777312D01*
X143843327Y-96691169D01*
X143622551Y-96647254D01*
X143397449Y-96647254D01*
X143176673Y-96691169D01*
X142968707Y-96777312D01*
X142781542Y-96902371D01*
X142622371Y-97061542D01*
X142497312Y-97248707D01*
X142411169Y-97456673D01*
X142367254Y-97677449D01*
X128777746Y-97677449D01*
X128777746Y-95031103D01*
X129857500Y-95031103D01*
X129857500Y-95468897D01*
X129942909Y-95898279D01*
X130110446Y-96302749D01*
X130353671Y-96666761D01*
X130663239Y-96976329D01*
X131027251Y-97219554D01*
X131431721Y-97387091D01*
X131861103Y-97472500D01*
X132298897Y-97472500D01*
X132728279Y-97387091D01*
X133132749Y-97219554D01*
X133496761Y-96976329D01*
X133806329Y-96666761D01*
X134049554Y-96302749D01*
X134217091Y-95898279D01*
X134302500Y-95468897D01*
X134302500Y-95031103D01*
X134217091Y-94601721D01*
X134049554Y-94197251D01*
X133806329Y-93833239D01*
X133496761Y-93523671D01*
X133132749Y-93280446D01*
X132728279Y-93112909D01*
X132298897Y-93027500D01*
X131861103Y-93027500D01*
X131431721Y-93112909D01*
X131027251Y-93280446D01*
X130663239Y-93523671D01*
X130353671Y-93833239D01*
X130110446Y-94197251D01*
X129942909Y-94601721D01*
X129857500Y-95031103D01*
X128777746Y-95031103D01*
X128777746Y-91947746D01*
X133096254Y-91947746D01*
X133096255Y-92431053D01*
G37*
X133096255Y-92431053D02*
X133093798Y-92456000D01*
X133103601Y-92555535D01*
X133132635Y-92651246D01*
X133179783Y-92739453D01*
X133243233Y-92816767D01*
X133320547Y-92880217D01*
X133408754Y-92927365D01*
X133504465Y-92956399D01*
X133579063Y-92963746D01*
X133604000Y-92966202D01*
X133628937Y-92963746D01*
X138659063Y-92963746D01*
X138684000Y-92966202D01*
X138708937Y-92963746D01*
X138783535Y-92956399D01*
X138879246Y-92927365D01*
X138967453Y-92880217D01*
X139044767Y-92816767D01*
X139108217Y-92739453D01*
X139155365Y-92651246D01*
X139184399Y-92555535D01*
X139194202Y-92456000D01*
X139191746Y-92431063D01*
X139191746Y-91947746D01*
X149972255Y-91947746D01*
X149972255Y-92312022D01*
X149689756Y-92429037D01*
X149209047Y-92750237D01*
X148800237Y-93159047D01*
X148479037Y-93639756D01*
X148257791Y-94173892D01*
X148145000Y-94740928D01*
X148145000Y-95319072D01*
X148257791Y-95886108D01*
X148479037Y-96420244D01*
X148795427Y-96893754D01*
X148631195Y-96893754D01*
X148398151Y-96940109D01*
X148178628Y-97031038D01*
X147981063Y-97163047D01*
X147813047Y-97331063D01*
X147681038Y-97528628D01*
X147590109Y-97748151D01*
X147543754Y-97981195D01*
X147543754Y-98218805D01*
X147590109Y-98451849D01*
X147681038Y-98671372D01*
X147813047Y-98868937D01*
X147981063Y-99036953D01*
X148178628Y-99168962D01*
X148398151Y-99259891D01*
X148631195Y-99306246D01*
X148868805Y-99306246D01*
X149101849Y-99259891D01*
X149321372Y-99168962D01*
X149518937Y-99036953D01*
X149686953Y-98868937D01*
X149818962Y-98671372D01*
X149909891Y-98451849D01*
X149956246Y-98218805D01*
X149956246Y-97981195D01*
X149909891Y-97748151D01*
X149896888Y-97716760D01*
X150223892Y-97852209D01*
X150790928Y-97965000D01*
X151369072Y-97965000D01*
X151936108Y-97852209D01*
X152470244Y-97630963D01*
X152950953Y-97309763D01*
X153359763Y-96900953D01*
X153680963Y-96420244D01*
X153902209Y-95886108D01*
X154015000Y-95319072D01*
X154015000Y-94740928D01*
X153902209Y-94173892D01*
X153680963Y-93639756D01*
X153359763Y-93159047D01*
X153058462Y-92857746D01*
X155492254Y-92857746D01*
X155492255Y-111252254D01*
X139191746Y-111252254D01*
X139191746Y-110768937D01*
X139194202Y-110744000D01*
X139184399Y-110644465D01*
X139155365Y-110548754D01*
X139108217Y-110460547D01*
X139044767Y-110383233D01*
X138967453Y-110319783D01*
X138879246Y-110272635D01*
X138783535Y-110243601D01*
X138708937Y-110236254D01*
X138684000Y-110233798D01*
X138659063Y-110236254D01*
X133628937Y-110236254D01*
X133604000Y-110233798D01*
X133579063Y-110236254D01*
X133504465Y-110243601D01*
X133408754Y-110272635D01*
X133320547Y-110319783D01*
X133243233Y-110383233D01*
X133179783Y-110460547D01*
X133132635Y-110548754D01*
X133103601Y-110644465D01*
X133093798Y-110744000D01*
X133096255Y-110768947D01*
X133096254Y-111252254D01*
X128777746Y-111252254D01*
X128777746Y-107731103D01*
X129857500Y-107731103D01*
X129857500Y-108168897D01*
X129942909Y-108598279D01*
X130110446Y-109002749D01*
X130353671Y-109366761D01*
X130663239Y-109676329D01*
X131027251Y-109919554D01*
X131431721Y-110087091D01*
X131861103Y-110172500D01*
X132298897Y-110172500D01*
X132728279Y-110087091D01*
X133132749Y-109919554D01*
X133496761Y-109676329D01*
X133806329Y-109366761D01*
X134049554Y-109002749D01*
X134217091Y-108598279D01*
X134302500Y-108168897D01*
X134302500Y-107731103D01*
X134217091Y-107301721D01*
X134049554Y-106897251D01*
X133806329Y-106533239D01*
X133496761Y-106223671D01*
X133132749Y-105980446D01*
X132728279Y-105812909D01*
X132298897Y-105727500D01*
X131861103Y-105727500D01*
X131431721Y-105812909D01*
X131027251Y-105980446D01*
X130663239Y-106223671D01*
X130353671Y-106533239D01*
X130110446Y-106897251D01*
X129942909Y-107301721D01*
X129857500Y-107731103D01*
X128777746Y-107731103D01*
X128777746Y-105297449D01*
X142367254Y-105297449D01*
X142367254Y-105522551D01*
X142411169Y-105743327D01*
X142497312Y-105951293D01*
X142622371Y-106138458D01*
X142781542Y-106297629D01*
X142968707Y-106422688D01*
X143176673Y-106508831D01*
X143397449Y-106552746D01*
X143622551Y-106552746D01*
X143843327Y-106508831D01*
X144051293Y-106422688D01*
X144238458Y-106297629D01*
X144397629Y-106138458D01*
X144507217Y-105974446D01*
X148055159Y-105974446D01*
X148144222Y-106149846D01*
X148360677Y-106247855D01*
X148592093Y-106301752D01*
X148794046Y-106308313D01*
X148479037Y-106779756D01*
X148257791Y-107313892D01*
X148145000Y-107880928D01*
X148145000Y-108459072D01*
X148257791Y-109026108D01*
X148479037Y-109560244D01*
X148800237Y-110040953D01*
X149209047Y-110449763D01*
X149689756Y-110770963D01*
X150223892Y-110992209D01*
X150790928Y-111105000D01*
X151369072Y-111105000D01*
X151936108Y-110992209D01*
X152470244Y-110770963D01*
X152950953Y-110449763D01*
X153359763Y-110040953D01*
X153680963Y-109560244D01*
X153902209Y-109026108D01*
X154015000Y-108459072D01*
X154015000Y-107880928D01*
X153902209Y-107313892D01*
X153680963Y-106779756D01*
X153359763Y-106299047D01*
X152950953Y-105890237D01*
X152470244Y-105569037D01*
X151936108Y-105347791D01*
X151369072Y-105235000D01*
X150790928Y-105235000D01*
X150223892Y-105347791D01*
X149899526Y-105482147D01*
X149951752Y-105257907D01*
X149959467Y-105020422D01*
X149920702Y-104785996D01*
X149836948Y-104563636D01*
X149799846Y-104494222D01*
X149624446Y-104405159D01*
X148929605Y-105100000D01*
X148943748Y-105114143D01*
X148764143Y-105293748D01*
X148750000Y-105279605D01*
X148055159Y-105974446D01*
X144507217Y-105974446D01*
X144522688Y-105951293D01*
X144608831Y-105743327D01*
X144652746Y-105522551D01*
X144652746Y-105297449D01*
X144629301Y-105179578D01*
X147540533Y-105179578D01*
X147579298Y-105414004D01*
X147663052Y-105636364D01*
X147700154Y-105705778D01*
X147875554Y-105794841D01*
X148570395Y-105100000D01*
X147875554Y-104405159D01*
X147700154Y-104494222D01*
X147602145Y-104710677D01*
X147548248Y-104942093D01*
X147540533Y-105179578D01*
X144629301Y-105179578D01*
X144608831Y-105076673D01*
X144522688Y-104868707D01*
X144397629Y-104681542D01*
X144238458Y-104522371D01*
X144051293Y-104397312D01*
X143843327Y-104311169D01*
X143622551Y-104267254D01*
X143397449Y-104267254D01*
X143176673Y-104311169D01*
X142968707Y-104397312D01*
X142781542Y-104522371D01*
X142622371Y-104681542D01*
X142497312Y-104868707D01*
X142411169Y-105076673D01*
X142367254Y-105297449D01*
X128777746Y-105297449D01*
X128777746Y-104046212D01*
X133667754Y-104046212D01*
X133667754Y-104233788D01*
X133704348Y-104417760D01*
X133776130Y-104591058D01*
X133880342Y-104747022D01*
X134012978Y-104879658D01*
X134168942Y-104983870D01*
X134342240Y-105055652D01*
X134526212Y-105092246D01*
X134713788Y-105092246D01*
X134897760Y-105055652D01*
X135071058Y-104983870D01*
X135227022Y-104879658D01*
X135359658Y-104747022D01*
X135463870Y-104591058D01*
X135535652Y-104417760D01*
X135572246Y-104233788D01*
X135572246Y-104225554D01*
X148055159Y-104225554D01*
X148750000Y-104920395D01*
X149444841Y-104225554D01*
X149355778Y-104050154D01*
X149139323Y-103952145D01*
X148907907Y-103898248D01*
X148670422Y-103890533D01*
X148435996Y-103929298D01*
X148213636Y-104013052D01*
X148144222Y-104050154D01*
X148055159Y-104225554D01*
X135572246Y-104225554D01*
X135572246Y-104046212D01*
X135535652Y-103862240D01*
X135463870Y-103688942D01*
X135359658Y-103532978D01*
X135227022Y-103400342D01*
X135071058Y-103296130D01*
X134897760Y-103224348D01*
X134713788Y-103187754D01*
X134526212Y-103187754D01*
X134342240Y-103224348D01*
X134168942Y-103296130D01*
X134012978Y-103400342D01*
X133880342Y-103532978D01*
X133776130Y-103688942D01*
X133704348Y-103862240D01*
X133667754Y-104046212D01*
X128777746Y-104046212D01*
X128777746Y-102757449D01*
X142367254Y-102757449D01*
X142367254Y-102982551D01*
X142411169Y-103203327D01*
X142497312Y-103411293D01*
X142622371Y-103598458D01*
X142781542Y-103757629D01*
X142968707Y-103882688D01*
X143176673Y-103968831D01*
X143397449Y-104012746D01*
X143622551Y-104012746D01*
X143843327Y-103968831D01*
X144051293Y-103882688D01*
X144238458Y-103757629D01*
X144397629Y-103598458D01*
X144522688Y-103411293D01*
X144608831Y-103203327D01*
X144652746Y-102982551D01*
X144652746Y-102757449D01*
X144608831Y-102536673D01*
X144522688Y-102328707D01*
X144397629Y-102141542D01*
X144238458Y-101982371D01*
X144051293Y-101857312D01*
X143843327Y-101771169D01*
X143622551Y-101727254D01*
X143397449Y-101727254D01*
X143176673Y-101771169D01*
X142968707Y-101857312D01*
X142781542Y-101982371D01*
X142622371Y-102141542D01*
X142497312Y-102328707D01*
X142411169Y-102536673D01*
X142367254Y-102757449D01*
X128777746Y-102757449D01*
X128777746Y-102173205D01*
X128800342Y-102207022D01*
X128932978Y-102339658D01*
X129088942Y-102443870D01*
X129262240Y-102515652D01*
X129446212Y-102552246D01*
X129633788Y-102552246D01*
X129817760Y-102515652D01*
X129991058Y-102443870D01*
X130147022Y-102339658D01*
X130279658Y-102207022D01*
X130383870Y-102051058D01*
X130455652Y-101877760D01*
X130492246Y-101693788D01*
X130492246Y-101506212D01*
X133667754Y-101506212D01*
X133667754Y-101693788D01*
X133704348Y-101877760D01*
X133776130Y-102051058D01*
X133880342Y-102207022D01*
X134012978Y-102339658D01*
X134168942Y-102443870D01*
X134342240Y-102515652D01*
X134526212Y-102552246D01*
X134713788Y-102552246D01*
X134897760Y-102515652D01*
X135071058Y-102443870D01*
X135227022Y-102339658D01*
X135359658Y-102207022D01*
X135463870Y-102051058D01*
X135535652Y-101877760D01*
X135572246Y-101693788D01*
X135572246Y-101506212D01*
X135535652Y-101322240D01*
X135463870Y-101148942D01*
X135359658Y-100992978D01*
X135227022Y-100860342D01*
X135071058Y-100756130D01*
X134897760Y-100684348D01*
X134713788Y-100647754D01*
X134526212Y-100647754D01*
X134342240Y-100684348D01*
X134168942Y-100756130D01*
X134012978Y-100860342D01*
X133880342Y-100992978D01*
X133776130Y-101148942D01*
X133704348Y-101322240D01*
X133667754Y-101506212D01*
X130492246Y-101506212D01*
X130455652Y-101322240D01*
X130383870Y-101148942D01*
X130279658Y-100992978D01*
X130147022Y-100860342D01*
X129991058Y-100756130D01*
X129817760Y-100684348D01*
X129633788Y-100647754D01*
X129446212Y-100647754D01*
X129262240Y-100684348D01*
X129088942Y-100756130D01*
X128932978Y-100860342D01*
X128800342Y-100992978D01*
X128777746Y-101026795D01*
X128777746Y-100217449D01*
X142367254Y-100217449D01*
X142367254Y-100442551D01*
X142411169Y-100663327D01*
X142497312Y-100871293D01*
X142622371Y-101058458D01*
X142781542Y-101217629D01*
X142968707Y-101342688D01*
X143176673Y-101428831D01*
X143397449Y-101472746D01*
X143622551Y-101472746D01*
X143843327Y-101428831D01*
X144051293Y-101342688D01*
X144238458Y-101217629D01*
X144397629Y-101058458D01*
X144522688Y-100871293D01*
X144608831Y-100663327D01*
X144645059Y-100481195D01*
X147543754Y-100481195D01*
X147543754Y-100718805D01*
X147590109Y-100951849D01*
X147681038Y-101171372D01*
X147813047Y-101368937D01*
X147981063Y-101536953D01*
X148075419Y-101600000D01*
X147981063Y-101663047D01*
X147813047Y-101831063D01*
X147681038Y-102028628D01*
X147590109Y-102248151D01*
X147543754Y-102481195D01*
X147543754Y-102718805D01*
X147590109Y-102951849D01*
X147681038Y-103171372D01*
X147813047Y-103368937D01*
X147981063Y-103536953D01*
X148178628Y-103668962D01*
X148398151Y-103759891D01*
X148631195Y-103806246D01*
X148868805Y-103806246D01*
X149101849Y-103759891D01*
X149321372Y-103668962D01*
X149518937Y-103536953D01*
X149686953Y-103368937D01*
X149818962Y-103171372D01*
X149909891Y-102951849D01*
X149956246Y-102718805D01*
X149956246Y-102481195D01*
X149909891Y-102248151D01*
X149818962Y-102028628D01*
X149686953Y-101831063D01*
X149518937Y-101663047D01*
X149424581Y-101600000D01*
X149518937Y-101536953D01*
X149686953Y-101368937D01*
X149818962Y-101171372D01*
X149909891Y-100951849D01*
X149956246Y-100718805D01*
X149956246Y-100481195D01*
X149909891Y-100248151D01*
X149818962Y-100028628D01*
X149686953Y-99831063D01*
X149518937Y-99663047D01*
X149321372Y-99531038D01*
X149101849Y-99440109D01*
X148868805Y-99393754D01*
X148631195Y-99393754D01*
X148398151Y-99440109D01*
X148178628Y-99531038D01*
X147981063Y-99663047D01*
X147813047Y-99831063D01*
X147681038Y-100028628D01*
X147590109Y-100248151D01*
X147543754Y-100481195D01*
X144645059Y-100481195D01*
X144652746Y-100442551D01*
X144652746Y-100217449D01*
X144608831Y-99996673D01*
X144522688Y-99788707D01*
X144397629Y-99601542D01*
X144238458Y-99442371D01*
X144051293Y-99317312D01*
X143843327Y-99231169D01*
X143622551Y-99187254D01*
X143397449Y-99187254D01*
X143176673Y-99231169D01*
X142968707Y-99317312D01*
X142781542Y-99442371D01*
X142622371Y-99601542D01*
X142497312Y-99788707D01*
X142411169Y-99996673D01*
X142367254Y-100217449D01*
X128777746Y-100217449D01*
X128777746Y-98966212D01*
X133667754Y-98966212D01*
X133667754Y-99153788D01*
X133704348Y-99337760D01*
X133776130Y-99511058D01*
X133880342Y-99667022D01*
X134012978Y-99799658D01*
X134168942Y-99903870D01*
X134342240Y-99975652D01*
X134526212Y-100012246D01*
X134713788Y-100012246D01*
X134897760Y-99975652D01*
X135071058Y-99903870D01*
X135227022Y-99799658D01*
X135359658Y-99667022D01*
X135463870Y-99511058D01*
X135535652Y-99337760D01*
X135572246Y-99153788D01*
X135572246Y-98966212D01*
X135535652Y-98782240D01*
X135463870Y-98608942D01*
X135359658Y-98452978D01*
X135227022Y-98320342D01*
X135071058Y-98216130D01*
X134897760Y-98144348D01*
X134713788Y-98107754D01*
X134526212Y-98107754D01*
X134342240Y-98144348D01*
X134168942Y-98216130D01*
X134012978Y-98320342D01*
X133880342Y-98452978D01*
X133776130Y-98608942D01*
X133704348Y-98782240D01*
X133667754Y-98966212D01*
X128777746Y-98966212D01*
X128777746Y-97677449D01*
X142367254Y-97677449D01*
X142367254Y-97902551D01*
X142411169Y-98123327D01*
X142497312Y-98331293D01*
X142622371Y-98518458D01*
X142781542Y-98677629D01*
X142968707Y-98802688D01*
X143176673Y-98888831D01*
X143397449Y-98932746D01*
X143622551Y-98932746D01*
X143843327Y-98888831D01*
X144051293Y-98802688D01*
X144238458Y-98677629D01*
X144397629Y-98518458D01*
X144522688Y-98331293D01*
X144608831Y-98123327D01*
X144652746Y-97902551D01*
X144652746Y-97677449D01*
X144608831Y-97456673D01*
X144522688Y-97248707D01*
X144397629Y-97061542D01*
X144238458Y-96902371D01*
X144051293Y-96777312D01*
X143843327Y-96691169D01*
X143622551Y-96647254D01*
X143397449Y-96647254D01*
X143176673Y-96691169D01*
X142968707Y-96777312D01*
X142781542Y-96902371D01*
X142622371Y-97061542D01*
X142497312Y-97248707D01*
X142411169Y-97456673D01*
X142367254Y-97677449D01*
X128777746Y-97677449D01*
X128777746Y-95031103D01*
X129857500Y-95031103D01*
X129857500Y-95468897D01*
X129942909Y-95898279D01*
X130110446Y-96302749D01*
X130353671Y-96666761D01*
X130663239Y-96976329D01*
X131027251Y-97219554D01*
X131431721Y-97387091D01*
X131861103Y-97472500D01*
X132298897Y-97472500D01*
X132728279Y-97387091D01*
X133132749Y-97219554D01*
X133496761Y-96976329D01*
X133806329Y-96666761D01*
X134049554Y-96302749D01*
X134217091Y-95898279D01*
X134302500Y-95468897D01*
X134302500Y-95031103D01*
X134217091Y-94601721D01*
X134049554Y-94197251D01*
X133806329Y-93833239D01*
X133496761Y-93523671D01*
X133132749Y-93280446D01*
X132728279Y-93112909D01*
X132298897Y-93027500D01*
X131861103Y-93027500D01*
X131431721Y-93112909D01*
X131027251Y-93280446D01*
X130663239Y-93523671D01*
X130353671Y-93833239D01*
X130110446Y-94197251D01*
X129942909Y-94601721D01*
X129857500Y-95031103D01*
X128777746Y-95031103D01*
X128777746Y-91947746D01*
X133096254Y-91947746D01*
X133096255Y-92431053D01*
M02*
