G04 #@! TF.GenerationSoftware,KiCad,Pcbnew,8.0.6*
G04 #@! TF.CreationDate,2025-01-27T10:09:21-05:00*
G04 #@! TF.ProjectId,usbabrkout,75736261-6272-46b6-9f75-742e6b696361,v1.1.0*
G04 #@! TF.SameCoordinates,Original*
G04 #@! TF.FileFunction,Copper,L3,Inr*
G04 #@! TF.FilePolarity,Positive*
%FSLAX46Y46*%
G04 Gerber Fmt 4.6, Leading zero omitted, Abs format (unit mm)*
G04 Created by KiCad (PCBNEW 8.0.6) date 2025-01-27 10:09:21*
%MOMM*%
%LPD*%
G01*
G04 APERTURE LIST*
G04 Aperture macros list*
%AMRoundRect*
0 Rectangle with rounded corners*
0 $1 Rounding radius*
0 $2 $3 $4 $5 $6 $7 $8 $9 X,Y pos of 4 corners*
0 Add a 4 corners polygon primitive as box body*
4,1,4,$2,$3,$4,$5,$6,$7,$8,$9,$2,$3,0*
0 Add four circle primitives for the rounded corners*
1,1,$1+$1,$2,$3*
1,1,$1+$1,$4,$5*
1,1,$1+$1,$6,$7*
1,1,$1+$1,$8,$9*
0 Add four rect primitives between the rounded corners*
20,1,$1+$1,$2,$3,$4,$5,0*
20,1,$1+$1,$4,$5,$6,$7,0*
20,1,$1+$1,$6,$7,$8,$9,0*
20,1,$1+$1,$8,$9,$2,$3,0*%
G04 Aperture macros list end*
G04 #@! TA.AperFunction,ComponentPad*
%ADD10RoundRect,0.250000X0.575500X-0.575500X0.575500X0.575500X-0.575500X0.575500X-0.575500X-0.575500X0*%
G04 #@! TD*
G04 #@! TA.AperFunction,ComponentPad*
%ADD11C,1.651000*%
G04 #@! TD*
G04 #@! TA.AperFunction,ComponentPad*
%ADD12C,4.600000*%
G04 #@! TD*
G04 #@! TA.AperFunction,ComponentPad*
%ADD13C,1.016000*%
G04 #@! TD*
G04 #@! TA.AperFunction,ComponentPad*
%ADD14C,1.524000*%
G04 #@! TD*
G04 #@! TA.AperFunction,ViaPad*
%ADD15C,1.524000*%
G04 #@! TD*
G04 APERTURE END LIST*
D10*
X148750000Y-105100000D03*
D11*
X148750000Y-102600000D03*
X148750000Y-100600000D03*
X148750000Y-98100000D03*
D12*
X151080000Y-108170000D03*
X151080000Y-95030000D03*
D13*
X129540000Y-101600000D03*
X134620000Y-101600000D03*
X134620000Y-99060000D03*
X134620000Y-104140000D03*
D14*
X143510000Y-105410000D03*
X143510000Y-102870000D03*
X143510000Y-100330000D03*
X143510000Y-97790000D03*
D15*
X139700000Y-101600000D03*
G04 #@! TA.AperFunction,Conductor*
G36*
X133418621Y-91587502D02*
G01*
X133465114Y-91641158D01*
X133476500Y-91693500D01*
X133476500Y-92481361D01*
X133495911Y-92528224D01*
X133531775Y-92564088D01*
X133531776Y-92564088D01*
X133531777Y-92564089D01*
X133578639Y-92583500D01*
X138709361Y-92583500D01*
X138756223Y-92564089D01*
X138792089Y-92528223D01*
X138811500Y-92481361D01*
X138811500Y-91693500D01*
X138831502Y-91625379D01*
X138885158Y-91578886D01*
X138937500Y-91567500D01*
X150226500Y-91567500D01*
X150294621Y-91587502D01*
X150341114Y-91641158D01*
X150352500Y-91693500D01*
X150352500Y-92375361D01*
X150373435Y-92425903D01*
X150381024Y-92496493D01*
X150349245Y-92559980D01*
X150292564Y-92593674D01*
X150292910Y-92594738D01*
X150289141Y-92595962D01*
X149990305Y-92714280D01*
X149708658Y-92869116D01*
X149448644Y-93058028D01*
X149448643Y-93058028D01*
X149214356Y-93278039D01*
X149214346Y-93278050D01*
X149009484Y-93525685D01*
X149009482Y-93525688D01*
X148837277Y-93797040D01*
X148837269Y-93797054D01*
X148700430Y-94087853D01*
X148700426Y-94087862D01*
X148601111Y-94393520D01*
X148601108Y-94393533D01*
X148540884Y-94709240D01*
X148520704Y-95029994D01*
X148520704Y-95030005D01*
X148540884Y-95350759D01*
X148540884Y-95350763D01*
X148540885Y-95350765D01*
X148547870Y-95387381D01*
X148601108Y-95666466D01*
X148601111Y-95666479D01*
X148700426Y-95972137D01*
X148700430Y-95972146D01*
X148837269Y-96262945D01*
X148837277Y-96262959D01*
X149009482Y-96534311D01*
X149009484Y-96534314D01*
X149009486Y-96534316D01*
X149214354Y-96781959D01*
X149358654Y-96917466D01*
X149394619Y-96978678D01*
X149391781Y-97049618D01*
X149351041Y-97107762D01*
X149285333Y-97134650D01*
X149226885Y-97126807D01*
X149046753Y-97057023D01*
X148981185Y-97044766D01*
X148850053Y-97020254D01*
X148649947Y-97020254D01*
X148492862Y-97049618D01*
X148453243Y-97057024D01*
X148266660Y-97129307D01*
X148266653Y-97129310D01*
X148096517Y-97234653D01*
X147948637Y-97369463D01*
X147828049Y-97529149D01*
X147738851Y-97708284D01*
X147684091Y-97900745D01*
X147665628Y-98100000D01*
X147684091Y-98299254D01*
X147738851Y-98491715D01*
X147738852Y-98491717D01*
X147738853Y-98491720D01*
X147828048Y-98670848D01*
X147828049Y-98670850D01*
X147948637Y-98830536D01*
X148096517Y-98965346D01*
X148096519Y-98965347D01*
X148096520Y-98965348D01*
X148266654Y-99070690D01*
X148453248Y-99142977D01*
X148649947Y-99179746D01*
X148649949Y-99179746D01*
X148850051Y-99179746D01*
X148850053Y-99179746D01*
X149046752Y-99142977D01*
X149233346Y-99070690D01*
X149403480Y-98965348D01*
X149551361Y-98830537D01*
X149671952Y-98670848D01*
X149761147Y-98491720D01*
X149815909Y-98299253D01*
X149834372Y-98100000D01*
X149815909Y-97900747D01*
X149761147Y-97708280D01*
X149671952Y-97529152D01*
X149671950Y-97529149D01*
X149564197Y-97386460D01*
X149539107Y-97320044D01*
X149553907Y-97250607D01*
X149603898Y-97200195D01*
X149673208Y-97184812D01*
X149725445Y-97200112D01*
X149990305Y-97345720D01*
X150289134Y-97464035D01*
X150289139Y-97464036D01*
X150289141Y-97464037D01*
X150289147Y-97464039D01*
X150527472Y-97525230D01*
X150600436Y-97543964D01*
X150600439Y-97543964D01*
X150600442Y-97543965D01*
X150919284Y-97584244D01*
X150919300Y-97584246D01*
X150919303Y-97584246D01*
X151240697Y-97584246D01*
X151240700Y-97584246D01*
X151392453Y-97565075D01*
X151559557Y-97543965D01*
X151559558Y-97543964D01*
X151559564Y-97543964D01*
X151724939Y-97501502D01*
X151870852Y-97464039D01*
X151870858Y-97464037D01*
X151870857Y-97464037D01*
X151870866Y-97464035D01*
X152169695Y-97345720D01*
X152451339Y-97190885D01*
X152711357Y-97001971D01*
X152945646Y-96781959D01*
X153150514Y-96534316D01*
X153322728Y-96262950D01*
X153459573Y-95972140D01*
X153558891Y-95666471D01*
X153619115Y-95350765D01*
X153630122Y-95175802D01*
X153639296Y-95030005D01*
X153639296Y-95029994D01*
X153627356Y-94840220D01*
X153619115Y-94709235D01*
X153558891Y-94393529D01*
X153459573Y-94087860D01*
X153322728Y-93797050D01*
X153150514Y-93525684D01*
X152945646Y-93278041D01*
X152711357Y-93058029D01*
X152711356Y-93058028D01*
X152451341Y-92869116D01*
X152410397Y-92846606D01*
X152169695Y-92714280D01*
X152169691Y-92714278D01*
X152169030Y-92713915D01*
X152118971Y-92663569D01*
X152104078Y-92594152D01*
X152129079Y-92527703D01*
X152186036Y-92485319D01*
X152229731Y-92477500D01*
X155746500Y-92477500D01*
X155814621Y-92497502D01*
X155861114Y-92551158D01*
X155872500Y-92603500D01*
X155872500Y-111506500D01*
X155852498Y-111574621D01*
X155798842Y-111621114D01*
X155746500Y-111632500D01*
X138937500Y-111632500D01*
X138869379Y-111612498D01*
X138822886Y-111558842D01*
X138811500Y-111506500D01*
X138811500Y-110718638D01*
X138792088Y-110671775D01*
X138756224Y-110635911D01*
X138709361Y-110616500D01*
X133629361Y-110616500D01*
X133578639Y-110616500D01*
X133531775Y-110635911D01*
X133495911Y-110671775D01*
X133476500Y-110718638D01*
X133476500Y-111506500D01*
X133456498Y-111574621D01*
X133402842Y-111621114D01*
X133350500Y-111632500D01*
X128523500Y-111632500D01*
X128455379Y-111612498D01*
X128408886Y-111558842D01*
X128397500Y-111506500D01*
X128397500Y-107812618D01*
X129984000Y-107812618D01*
X129984000Y-108087381D01*
X130019861Y-108359779D01*
X130019862Y-108359785D01*
X130019863Y-108359787D01*
X130090976Y-108625183D01*
X130196121Y-108879026D01*
X130196122Y-108879027D01*
X130196127Y-108879037D01*
X130333498Y-109116970D01*
X130333503Y-109116977D01*
X130500758Y-109334948D01*
X130500777Y-109334969D01*
X130695030Y-109529222D01*
X130695040Y-109529231D01*
X130695046Y-109529237D01*
X130695049Y-109529239D01*
X130695051Y-109529241D01*
X130913022Y-109696496D01*
X130913026Y-109696499D01*
X131150974Y-109833879D01*
X131404817Y-109939024D01*
X131670213Y-110010137D01*
X131670219Y-110010137D01*
X131670220Y-110010138D01*
X131701480Y-110014253D01*
X131942621Y-110046000D01*
X131942628Y-110046000D01*
X132217372Y-110046000D01*
X132217379Y-110046000D01*
X132489787Y-110010137D01*
X132755183Y-109939024D01*
X133009026Y-109833879D01*
X133246974Y-109696499D01*
X133464954Y-109529237D01*
X133659237Y-109334954D01*
X133826499Y-109116974D01*
X133963879Y-108879026D01*
X134069024Y-108625183D01*
X134140137Y-108359787D01*
X134176000Y-108087379D01*
X134176000Y-107812621D01*
X134140137Y-107540213D01*
X134069024Y-107274817D01*
X133963879Y-107020974D01*
X133826499Y-106783026D01*
X133659237Y-106565046D01*
X133659231Y-106565040D01*
X133659222Y-106565030D01*
X133464969Y-106370777D01*
X133464948Y-106370758D01*
X133246977Y-106203503D01*
X133246970Y-106203498D01*
X133009037Y-106066127D01*
X133009032Y-106066124D01*
X133009026Y-106066121D01*
X132755183Y-105960976D01*
X132489787Y-105889863D01*
X132489785Y-105889862D01*
X132489779Y-105889861D01*
X132217381Y-105854000D01*
X132217379Y-105854000D01*
X131942621Y-105854000D01*
X131942618Y-105854000D01*
X131670220Y-105889861D01*
X131404821Y-105960975D01*
X131404817Y-105960976D01*
X131150972Y-106066122D01*
X131150962Y-106066127D01*
X130913029Y-106203498D01*
X130913022Y-106203503D01*
X130695051Y-106370758D01*
X130695030Y-106370777D01*
X130500777Y-106565030D01*
X130500758Y-106565051D01*
X130333503Y-106783022D01*
X130333498Y-106783029D01*
X130196127Y-107020962D01*
X130196122Y-107020972D01*
X130090976Y-107274817D01*
X130090975Y-107274821D01*
X130019861Y-107540220D01*
X129984000Y-107812618D01*
X128397500Y-107812618D01*
X128397500Y-105409996D01*
X142488837Y-105409996D01*
X142488837Y-105410003D01*
X142508456Y-105609212D01*
X142508457Y-105609218D01*
X142508458Y-105609219D01*
X142566568Y-105800782D01*
X142660934Y-105977328D01*
X142787929Y-106132071D01*
X142942672Y-106259066D01*
X143119218Y-106353432D01*
X143310781Y-106411542D01*
X143310785Y-106411542D01*
X143310787Y-106411543D01*
X143509997Y-106431163D01*
X143510000Y-106431163D01*
X143510003Y-106431163D01*
X143709212Y-106411543D01*
X143709213Y-106411542D01*
X143709219Y-106411542D01*
X143900782Y-106353432D01*
X144077328Y-106259066D01*
X144232071Y-106132071D01*
X144359066Y-105977328D01*
X144453432Y-105800782D01*
X144511542Y-105609219D01*
X144531163Y-105410000D01*
X144531163Y-105409996D01*
X144511543Y-105210787D01*
X144511542Y-105210785D01*
X144511542Y-105210781D01*
X144453432Y-105019218D01*
X144359066Y-104842672D01*
X144232071Y-104687929D01*
X144077328Y-104560934D01*
X143919014Y-104476313D01*
X147670754Y-104476313D01*
X147670754Y-104846000D01*
X148365486Y-104846000D01*
X148321349Y-104922447D01*
X148290000Y-105039440D01*
X148290000Y-105160560D01*
X148321349Y-105277553D01*
X148365486Y-105354000D01*
X147670755Y-105354000D01*
X147670755Y-105723670D01*
X147670756Y-105723691D01*
X147677204Y-105783677D01*
X147677204Y-105783678D01*
X147727825Y-105919401D01*
X147814634Y-106035365D01*
X147930598Y-106122174D01*
X148066319Y-106172794D01*
X148066317Y-106172794D01*
X148126319Y-106179245D01*
X148496000Y-106179245D01*
X148496000Y-105484514D01*
X148572447Y-105528651D01*
X148689440Y-105560000D01*
X148810560Y-105560000D01*
X148927553Y-105528651D01*
X149004000Y-105484514D01*
X149004000Y-106179245D01*
X149150407Y-106179245D01*
X149218528Y-106199247D01*
X149265021Y-106252903D01*
X149275125Y-106323177D01*
X149245631Y-106387757D01*
X149236667Y-106397087D01*
X149221275Y-106411542D01*
X149214356Y-106418039D01*
X149214346Y-106418050D01*
X149009484Y-106665685D01*
X149009482Y-106665688D01*
X148837277Y-106937040D01*
X148837269Y-106937054D01*
X148700430Y-107227853D01*
X148700426Y-107227862D01*
X148601111Y-107533520D01*
X148601108Y-107533533D01*
X148540884Y-107849240D01*
X148520704Y-108169994D01*
X148520704Y-108170005D01*
X148540884Y-108490759D01*
X148601108Y-108806466D01*
X148601111Y-108806479D01*
X148700426Y-109112137D01*
X148700430Y-109112146D01*
X148837269Y-109402945D01*
X148837277Y-109402959D01*
X149009482Y-109674311D01*
X149009484Y-109674314D01*
X149009486Y-109674316D01*
X149214354Y-109921959D01*
X149448643Y-110141971D01*
X149708661Y-110330885D01*
X149990305Y-110485720D01*
X150289134Y-110604035D01*
X150289139Y-110604036D01*
X150289141Y-110604037D01*
X150289147Y-110604039D01*
X150527472Y-110665230D01*
X150600436Y-110683964D01*
X150600439Y-110683964D01*
X150600442Y-110683965D01*
X150874908Y-110718638D01*
X150919300Y-110724246D01*
X150919303Y-110724246D01*
X151240697Y-110724246D01*
X151240700Y-110724246D01*
X151392453Y-110705075D01*
X151559557Y-110683965D01*
X151559558Y-110683964D01*
X151559564Y-110683964D01*
X151746718Y-110635911D01*
X151870852Y-110604039D01*
X151870858Y-110604037D01*
X151870857Y-110604037D01*
X151870866Y-110604035D01*
X152169695Y-110485720D01*
X152451339Y-110330885D01*
X152711357Y-110141971D01*
X152945646Y-109921959D01*
X153150514Y-109674316D01*
X153322728Y-109402950D01*
X153459573Y-109112140D01*
X153558891Y-108806471D01*
X153619115Y-108490765D01*
X153639296Y-108170000D01*
X153634097Y-108087372D01*
X153619115Y-107849240D01*
X153619115Y-107849235D01*
X153558891Y-107533529D01*
X153459573Y-107227860D01*
X153322728Y-106937050D01*
X153322722Y-106937040D01*
X153150517Y-106665688D01*
X153150515Y-106665685D01*
X152945653Y-106418050D01*
X152945646Y-106418041D01*
X152711357Y-106198029D01*
X152620574Y-106132071D01*
X152451341Y-106009116D01*
X152363774Y-105960976D01*
X152169695Y-105854280D01*
X151870866Y-105735965D01*
X151870864Y-105735964D01*
X151870858Y-105735962D01*
X151870852Y-105735960D01*
X151559570Y-105656037D01*
X151559557Y-105656034D01*
X151240715Y-105615755D01*
X151240702Y-105615754D01*
X151240700Y-105615754D01*
X150919300Y-105615754D01*
X150919297Y-105615754D01*
X150919284Y-105615755D01*
X150600442Y-105656034D01*
X150600429Y-105656037D01*
X150289147Y-105735960D01*
X150289136Y-105735964D01*
X150001323Y-105849917D01*
X149930623Y-105856396D01*
X149867643Y-105823624D01*
X149832379Y-105762004D01*
X149829120Y-105726023D01*
X149829246Y-105723671D01*
X149829246Y-105354000D01*
X149134514Y-105354000D01*
X149178651Y-105277553D01*
X149210000Y-105160560D01*
X149210000Y-105039440D01*
X149178651Y-104922447D01*
X149134514Y-104846000D01*
X149829245Y-104846000D01*
X149829245Y-104476329D01*
X149829243Y-104476308D01*
X149822795Y-104416322D01*
X149822795Y-104416321D01*
X149772174Y-104280598D01*
X149685365Y-104164634D01*
X149569401Y-104077825D01*
X149433680Y-104027205D01*
X149433682Y-104027205D01*
X149373686Y-104020754D01*
X149004000Y-104020754D01*
X149004000Y-104715485D01*
X148927553Y-104671349D01*
X148810560Y-104640000D01*
X148689440Y-104640000D01*
X148572447Y-104671349D01*
X148496000Y-104715485D01*
X148496000Y-104020754D01*
X148126329Y-104020754D01*
X148126308Y-104020756D01*
X148066322Y-104027204D01*
X148066321Y-104027204D01*
X147930598Y-104077825D01*
X147814634Y-104164634D01*
X147727825Y-104280598D01*
X147677205Y-104416318D01*
X147670754Y-104476313D01*
X143919014Y-104476313D01*
X143900782Y-104466568D01*
X143709219Y-104408458D01*
X143709218Y-104408457D01*
X143709212Y-104408456D01*
X143510003Y-104388837D01*
X143509997Y-104388837D01*
X143310787Y-104408456D01*
X143119217Y-104466568D01*
X142942671Y-104560934D01*
X142787929Y-104687929D01*
X142660934Y-104842671D01*
X142566568Y-105019217D01*
X142508456Y-105210787D01*
X142488837Y-105409996D01*
X128397500Y-105409996D01*
X128397500Y-104140000D01*
X133852931Y-104140000D01*
X133872163Y-104310689D01*
X133872164Y-104310691D01*
X133928893Y-104472815D01*
X133928894Y-104472817D01*
X133928895Y-104472819D01*
X133984261Y-104560934D01*
X134020284Y-104618264D01*
X134141735Y-104739715D01*
X134141737Y-104739716D01*
X134141740Y-104739719D01*
X134287181Y-104831105D01*
X134449311Y-104887837D01*
X134620000Y-104907069D01*
X134790689Y-104887837D01*
X134952819Y-104831105D01*
X135098260Y-104739719D01*
X135219719Y-104618260D01*
X135311105Y-104472819D01*
X135367837Y-104310689D01*
X135387069Y-104140000D01*
X135367837Y-103969311D01*
X135311105Y-103807181D01*
X135219719Y-103661740D01*
X135219716Y-103661737D01*
X135219715Y-103661735D01*
X135098264Y-103540284D01*
X135098261Y-103540282D01*
X135098260Y-103540281D01*
X134952819Y-103448895D01*
X134952817Y-103448894D01*
X134952815Y-103448893D01*
X134844732Y-103411073D01*
X134790689Y-103392163D01*
X134620000Y-103372931D01*
X134449311Y-103392163D01*
X134449308Y-103392163D01*
X134449308Y-103392164D01*
X134287184Y-103448893D01*
X134141735Y-103540284D01*
X134020284Y-103661735D01*
X133928893Y-103807184D01*
X133899508Y-103891163D01*
X133872163Y-103969311D01*
X133852931Y-104140000D01*
X128397500Y-104140000D01*
X128397500Y-102869996D01*
X142488837Y-102869996D01*
X142488837Y-102870003D01*
X142508456Y-103069212D01*
X142508457Y-103069218D01*
X142508458Y-103069219D01*
X142566568Y-103260782D01*
X142660934Y-103437328D01*
X142787929Y-103592071D01*
X142942672Y-103719066D01*
X143119218Y-103813432D01*
X143310781Y-103871542D01*
X143310785Y-103871542D01*
X143310787Y-103871543D01*
X143509997Y-103891163D01*
X143510000Y-103891163D01*
X143510003Y-103891163D01*
X143709212Y-103871543D01*
X143709213Y-103871542D01*
X143709219Y-103871542D01*
X143900782Y-103813432D01*
X144077328Y-103719066D01*
X144232071Y-103592071D01*
X144359066Y-103437328D01*
X144453432Y-103260782D01*
X144511542Y-103069219D01*
X144519176Y-102991715D01*
X144531163Y-102870003D01*
X144531163Y-102869996D01*
X144511543Y-102670787D01*
X144511542Y-102670785D01*
X144511542Y-102670781D01*
X144453432Y-102479218D01*
X144359066Y-102302672D01*
X144232071Y-102147929D01*
X144077328Y-102020934D01*
X143900782Y-101926568D01*
X143709219Y-101868458D01*
X143709218Y-101868457D01*
X143709212Y-101868456D01*
X143510003Y-101848837D01*
X143509997Y-101848837D01*
X143310787Y-101868456D01*
X143119217Y-101926568D01*
X142942671Y-102020934D01*
X142787929Y-102147929D01*
X142660934Y-102302671D01*
X142566568Y-102479217D01*
X142508456Y-102670787D01*
X142488837Y-102869996D01*
X128397500Y-102869996D01*
X128397500Y-101600000D01*
X128772931Y-101600000D01*
X128792163Y-101770689D01*
X128792164Y-101770691D01*
X128848893Y-101932815D01*
X128848894Y-101932817D01*
X128848895Y-101932819D01*
X128904261Y-102020934D01*
X128940284Y-102078264D01*
X129061735Y-102199715D01*
X129061737Y-102199716D01*
X129061740Y-102199719D01*
X129207181Y-102291105D01*
X129369311Y-102347837D01*
X129540000Y-102367069D01*
X129710689Y-102347837D01*
X129872819Y-102291105D01*
X130018260Y-102199719D01*
X130139719Y-102078260D01*
X130231105Y-101932819D01*
X130287837Y-101770689D01*
X130307069Y-101600000D01*
X133852931Y-101600000D01*
X133872163Y-101770689D01*
X133872164Y-101770691D01*
X133928893Y-101932815D01*
X133928894Y-101932817D01*
X133928895Y-101932819D01*
X133984261Y-102020934D01*
X134020284Y-102078264D01*
X134141735Y-102199715D01*
X134141737Y-102199716D01*
X134141740Y-102199719D01*
X134287181Y-102291105D01*
X134449311Y-102347837D01*
X134620000Y-102367069D01*
X134790689Y-102347837D01*
X134952819Y-102291105D01*
X135098260Y-102199719D01*
X135219719Y-102078260D01*
X135311105Y-101932819D01*
X135367837Y-101770689D01*
X135387069Y-101600000D01*
X135367837Y-101429311D01*
X135311105Y-101267181D01*
X135219719Y-101121740D01*
X135219716Y-101121737D01*
X135219715Y-101121735D01*
X135098264Y-101000284D01*
X135098261Y-101000282D01*
X135098260Y-101000281D01*
X134952819Y-100908895D01*
X134952817Y-100908894D01*
X134952815Y-100908893D01*
X134844732Y-100871073D01*
X134790689Y-100852163D01*
X134620000Y-100832931D01*
X134449311Y-100852163D01*
X134449308Y-100852163D01*
X134449308Y-100852164D01*
X134287184Y-100908893D01*
X134141735Y-101000284D01*
X134020284Y-101121735D01*
X133928893Y-101267184D01*
X133899508Y-101351163D01*
X133872163Y-101429311D01*
X133852931Y-101600000D01*
X130307069Y-101600000D01*
X130287837Y-101429311D01*
X130231105Y-101267181D01*
X130139719Y-101121740D01*
X130139716Y-101121737D01*
X130139715Y-101121735D01*
X130018264Y-101000284D01*
X130018261Y-101000282D01*
X130018260Y-101000281D01*
X129872819Y-100908895D01*
X129872817Y-100908894D01*
X129872815Y-100908893D01*
X129764732Y-100871073D01*
X129710689Y-100852163D01*
X129540000Y-100832931D01*
X129369311Y-100852163D01*
X129369308Y-100852163D01*
X129369308Y-100852164D01*
X129207184Y-100908893D01*
X129061735Y-101000284D01*
X128940284Y-101121735D01*
X128848893Y-101267184D01*
X128819508Y-101351163D01*
X128792163Y-101429311D01*
X128772931Y-101600000D01*
X128397500Y-101600000D01*
X128397500Y-100329996D01*
X142488837Y-100329996D01*
X142488837Y-100330003D01*
X142508456Y-100529212D01*
X142508457Y-100529218D01*
X142508458Y-100529219D01*
X142566568Y-100720782D01*
X142660934Y-100897328D01*
X142787929Y-101052071D01*
X142942672Y-101179066D01*
X143119218Y-101273432D01*
X143310781Y-101331542D01*
X143310785Y-101331542D01*
X143310787Y-101331543D01*
X143509997Y-101351163D01*
X143510000Y-101351163D01*
X143510003Y-101351163D01*
X143709212Y-101331543D01*
X143709213Y-101331542D01*
X143709219Y-101331542D01*
X143900782Y-101273432D01*
X144077328Y-101179066D01*
X144232071Y-101052071D01*
X144359066Y-100897328D01*
X144453432Y-100720782D01*
X144490071Y-100600000D01*
X147665628Y-100600000D01*
X147684091Y-100799254D01*
X147738851Y-100991715D01*
X147738852Y-100991717D01*
X147738853Y-100991720D01*
X147803593Y-101121735D01*
X147828049Y-101170850D01*
X147948637Y-101330536D01*
X148096518Y-101465347D01*
X148140974Y-101492873D01*
X148188361Y-101545740D01*
X148199644Y-101615834D01*
X148171240Y-101680901D01*
X148140974Y-101707127D01*
X148096518Y-101734652D01*
X147948637Y-101869463D01*
X147828049Y-102029149D01*
X147738851Y-102208284D01*
X147684091Y-102400745D01*
X147665628Y-102600000D01*
X147684091Y-102799254D01*
X147738851Y-102991715D01*
X147738852Y-102991717D01*
X147738853Y-102991720D01*
X147777443Y-103069219D01*
X147828049Y-103170850D01*
X147948637Y-103330536D01*
X148096517Y-103465346D01*
X148096519Y-103465347D01*
X148096520Y-103465348D01*
X148266654Y-103570690D01*
X148453248Y-103642977D01*
X148649947Y-103679746D01*
X148649949Y-103679746D01*
X148850051Y-103679746D01*
X148850053Y-103679746D01*
X149046752Y-103642977D01*
X149233346Y-103570690D01*
X149403480Y-103465348D01*
X149551361Y-103330537D01*
X149671952Y-103170848D01*
X149761147Y-102991720D01*
X149815909Y-102799253D01*
X149834372Y-102600000D01*
X149815909Y-102400747D01*
X149761147Y-102208280D01*
X149671952Y-102029152D01*
X149665746Y-102020934D01*
X149551362Y-101869463D01*
X149403482Y-101734653D01*
X149391101Y-101726987D01*
X149359024Y-101707126D01*
X149311638Y-101654261D01*
X149300355Y-101584167D01*
X149328758Y-101519100D01*
X149359025Y-101492873D01*
X149403480Y-101465348D01*
X149551361Y-101330537D01*
X149671952Y-101170848D01*
X149761147Y-100991720D01*
X149815909Y-100799253D01*
X149834372Y-100600000D01*
X149815909Y-100400747D01*
X149761147Y-100208280D01*
X149671952Y-100029152D01*
X149671950Y-100029149D01*
X149551362Y-99869463D01*
X149403482Y-99734653D01*
X149233346Y-99629310D01*
X149233339Y-99629307D01*
X149046755Y-99557024D01*
X149046756Y-99557024D01*
X149046753Y-99557023D01*
X149046752Y-99557023D01*
X148850053Y-99520254D01*
X148649947Y-99520254D01*
X148453248Y-99557023D01*
X148453243Y-99557024D01*
X148266660Y-99629307D01*
X148266653Y-99629310D01*
X148096517Y-99734653D01*
X147948637Y-99869463D01*
X147828049Y-100029149D01*
X147738851Y-100208284D01*
X147684091Y-100400745D01*
X147665628Y-100600000D01*
X144490071Y-100600000D01*
X144511542Y-100529219D01*
X144524196Y-100400745D01*
X144531163Y-100330003D01*
X144531163Y-100329996D01*
X144511543Y-100130787D01*
X144511542Y-100130785D01*
X144511542Y-100130781D01*
X144453432Y-99939218D01*
X144359066Y-99762672D01*
X144232071Y-99607929D01*
X144077328Y-99480934D01*
X143900782Y-99386568D01*
X143709219Y-99328458D01*
X143709218Y-99328457D01*
X143709212Y-99328456D01*
X143510003Y-99308837D01*
X143509997Y-99308837D01*
X143310787Y-99328456D01*
X143119217Y-99386568D01*
X142942671Y-99480934D01*
X142787929Y-99607929D01*
X142660934Y-99762671D01*
X142566568Y-99939217D01*
X142508456Y-100130787D01*
X142488837Y-100329996D01*
X128397500Y-100329996D01*
X128397500Y-99060000D01*
X133852931Y-99060000D01*
X133872163Y-99230689D01*
X133872164Y-99230691D01*
X133928893Y-99392815D01*
X133928894Y-99392817D01*
X133928895Y-99392819D01*
X134020281Y-99538260D01*
X134020284Y-99538264D01*
X134141735Y-99659715D01*
X134141737Y-99659716D01*
X134141740Y-99659719D01*
X134287181Y-99751105D01*
X134449311Y-99807837D01*
X134620000Y-99827069D01*
X134790689Y-99807837D01*
X134952819Y-99751105D01*
X135098260Y-99659719D01*
X135219719Y-99538260D01*
X135311105Y-99392819D01*
X135367837Y-99230689D01*
X135387069Y-99060000D01*
X135367837Y-98889311D01*
X135311105Y-98727181D01*
X135219719Y-98581740D01*
X135219716Y-98581737D01*
X135219715Y-98581735D01*
X135098264Y-98460284D01*
X135098261Y-98460282D01*
X135098260Y-98460281D01*
X134952819Y-98368895D01*
X134952817Y-98368894D01*
X134952815Y-98368893D01*
X134844732Y-98331073D01*
X134790689Y-98312163D01*
X134620000Y-98292931D01*
X134449311Y-98312163D01*
X134449308Y-98312163D01*
X134449308Y-98312164D01*
X134287184Y-98368893D01*
X134141735Y-98460284D01*
X134020284Y-98581735D01*
X133928893Y-98727184D01*
X133899508Y-98811163D01*
X133872163Y-98889311D01*
X133852931Y-99060000D01*
X128397500Y-99060000D01*
X128397500Y-97789996D01*
X142488837Y-97789996D01*
X142488837Y-97790003D01*
X142508456Y-97989212D01*
X142508457Y-97989218D01*
X142508458Y-97989219D01*
X142566568Y-98180782D01*
X142660934Y-98357328D01*
X142787929Y-98512071D01*
X142942672Y-98639066D01*
X143119218Y-98733432D01*
X143310781Y-98791542D01*
X143310785Y-98791542D01*
X143310787Y-98791543D01*
X143509997Y-98811163D01*
X143510000Y-98811163D01*
X143510003Y-98811163D01*
X143709212Y-98791543D01*
X143709213Y-98791542D01*
X143709219Y-98791542D01*
X143900782Y-98733432D01*
X144077328Y-98639066D01*
X144232071Y-98512071D01*
X144359066Y-98357328D01*
X144453432Y-98180782D01*
X144511542Y-97989219D01*
X144531163Y-97790000D01*
X144523115Y-97708284D01*
X144511543Y-97590787D01*
X144511542Y-97590785D01*
X144511542Y-97590781D01*
X144453432Y-97399218D01*
X144359066Y-97222672D01*
X144232071Y-97067929D01*
X144077328Y-96940934D01*
X143900782Y-96846568D01*
X143709219Y-96788458D01*
X143709218Y-96788457D01*
X143709212Y-96788456D01*
X143510003Y-96768837D01*
X143509997Y-96768837D01*
X143310787Y-96788456D01*
X143119217Y-96846568D01*
X142942671Y-96940934D01*
X142787929Y-97067929D01*
X142660934Y-97222671D01*
X142566568Y-97399217D01*
X142508456Y-97590787D01*
X142488837Y-97789996D01*
X128397500Y-97789996D01*
X128397500Y-95112618D01*
X129984000Y-95112618D01*
X129984000Y-95387381D01*
X130019861Y-95659779D01*
X130019862Y-95659785D01*
X130019863Y-95659787D01*
X130090976Y-95925183D01*
X130196121Y-96179026D01*
X130196122Y-96179027D01*
X130196127Y-96179037D01*
X130333498Y-96416970D01*
X130333503Y-96416977D01*
X130500758Y-96634948D01*
X130500777Y-96634969D01*
X130695030Y-96829222D01*
X130695040Y-96829231D01*
X130695046Y-96829237D01*
X130695049Y-96829239D01*
X130695051Y-96829241D01*
X130913022Y-96996496D01*
X130913029Y-96996501D01*
X131005030Y-97049618D01*
X131150974Y-97133879D01*
X131404817Y-97239024D01*
X131670213Y-97310137D01*
X131670219Y-97310137D01*
X131670220Y-97310138D01*
X131701480Y-97314253D01*
X131942621Y-97346000D01*
X131942628Y-97346000D01*
X132217372Y-97346000D01*
X132217379Y-97346000D01*
X132489787Y-97310137D01*
X132755183Y-97239024D01*
X133009026Y-97133879D01*
X133246974Y-96996499D01*
X133464954Y-96829237D01*
X133659237Y-96634954D01*
X133826499Y-96416974D01*
X133963879Y-96179026D01*
X134069024Y-95925183D01*
X134140137Y-95659787D01*
X134176000Y-95387379D01*
X134176000Y-95112621D01*
X134140137Y-94840213D01*
X134069024Y-94574817D01*
X133963879Y-94320974D01*
X133826499Y-94083026D01*
X133659237Y-93865046D01*
X133659231Y-93865040D01*
X133659222Y-93865030D01*
X133464969Y-93670777D01*
X133464948Y-93670758D01*
X133246977Y-93503503D01*
X133246970Y-93503498D01*
X133009037Y-93366127D01*
X133009032Y-93366124D01*
X133009026Y-93366121D01*
X132755183Y-93260976D01*
X132489787Y-93189863D01*
X132489785Y-93189862D01*
X132489779Y-93189861D01*
X132217381Y-93154000D01*
X132217379Y-93154000D01*
X131942621Y-93154000D01*
X131942618Y-93154000D01*
X131670220Y-93189861D01*
X131404821Y-93260975D01*
X131404817Y-93260976D01*
X131150972Y-93366122D01*
X131150962Y-93366127D01*
X130913029Y-93503498D01*
X130913022Y-93503503D01*
X130695051Y-93670758D01*
X130695030Y-93670777D01*
X130500777Y-93865030D01*
X130500758Y-93865051D01*
X130333503Y-94083022D01*
X130333498Y-94083029D01*
X130196127Y-94320962D01*
X130196122Y-94320972D01*
X130090976Y-94574817D01*
X130090975Y-94574821D01*
X130019861Y-94840220D01*
X129984000Y-95112618D01*
X128397500Y-95112618D01*
X128397500Y-91693500D01*
X128417502Y-91625379D01*
X128471158Y-91578886D01*
X128523500Y-91567500D01*
X133350500Y-91567500D01*
X133418621Y-91587502D01*
G37*
G04 #@! TD.AperFunction*
M02*
