G04 #@! TF.GenerationSoftware,KiCad,Pcbnew,(5.1.5)*
G04 #@! TF.CreationDate,2019-12-08T12:18:22-05:00*
G04 #@! TF.ProjectId,usbabrkout,75736261-6272-46b6-9f75-742e6b696361,v1.0.0*
G04 #@! TF.SameCoordinates,Original*
G04 #@! TF.FileFunction,Legend,Top*
G04 #@! TF.FilePolarity,Positive*
%FSLAX46Y46*%
G04 Gerber Fmt 4.6, Leading zero omitted, Abs format (unit mm)*
G04 Created by KiCad (PCBNEW (5.1.5)) date 2019-12-08 12:18:22*
%MOMM*%
%LPD*%
G04 APERTURE LIST*
%ADD10C,0.127000*%
%ADD11C,0.150000*%
%ADD12C,0.120000*%
%ADD13C,1.244600*%
%ADD14C,3.276600*%
%ADD15C,4.701600*%
%ADD16C,1.752600*%
%ADD17C,1.625600*%
%ADD18R,1.301600X1.801600*%
G04 APERTURE END LIST*
D10*
X143148142Y-106849857D02*
X143605285Y-106849857D01*
X143376714Y-107078428D02*
X143376714Y-106621285D01*
X144176714Y-106478428D02*
X143891000Y-106478428D01*
X143862428Y-106764142D01*
X143891000Y-106735571D01*
X143948142Y-106707000D01*
X144091000Y-106707000D01*
X144148142Y-106735571D01*
X144176714Y-106764142D01*
X144205285Y-106821285D01*
X144205285Y-106964142D01*
X144176714Y-107021285D01*
X144148142Y-107049857D01*
X144091000Y-107078428D01*
X143948142Y-107078428D01*
X143891000Y-107049857D01*
X143862428Y-107021285D01*
X144405285Y-106678428D02*
X144548142Y-107078428D01*
X144691000Y-106678428D01*
X140449450Y-103141428D02*
X140449450Y-102541428D01*
X140592307Y-102541428D01*
X140678021Y-102570000D01*
X140735164Y-102627142D01*
X140763735Y-102684285D01*
X140792307Y-102798571D01*
X140792307Y-102884285D01*
X140763735Y-102998571D01*
X140735164Y-103055714D01*
X140678021Y-103112857D01*
X140592307Y-103141428D01*
X140449450Y-103141428D01*
X141049450Y-102912857D02*
X141506592Y-102912857D01*
X140449450Y-100601428D02*
X140449450Y-100001428D01*
X140592307Y-100001428D01*
X140678021Y-100030000D01*
X140735164Y-100087142D01*
X140763735Y-100144285D01*
X140792307Y-100258571D01*
X140792307Y-100344285D01*
X140763735Y-100458571D01*
X140735164Y-100515714D01*
X140678021Y-100572857D01*
X140592307Y-100601428D01*
X140449450Y-100601428D01*
X141049450Y-100372857D02*
X141506592Y-100372857D01*
X141278021Y-100601428D02*
X141278021Y-100144285D01*
X142367021Y-97661428D02*
X142367021Y-98061428D01*
X142224164Y-97432857D02*
X142081307Y-97861428D01*
X142452735Y-97861428D01*
X142052735Y-100001428D02*
X142424164Y-100001428D01*
X142224164Y-100230000D01*
X142309878Y-100230000D01*
X142367021Y-100258571D01*
X142395592Y-100287142D01*
X142424164Y-100344285D01*
X142424164Y-100487142D01*
X142395592Y-100544285D01*
X142367021Y-100572857D01*
X142309878Y-100601428D01*
X142138450Y-100601428D01*
X142081307Y-100572857D01*
X142052735Y-100544285D01*
X142081307Y-102598571D02*
X142109878Y-102570000D01*
X142167021Y-102541428D01*
X142309878Y-102541428D01*
X142367021Y-102570000D01*
X142395592Y-102598571D01*
X142424164Y-102655714D01*
X142424164Y-102712857D01*
X142395592Y-102798571D01*
X142052735Y-103141428D01*
X142424164Y-103141428D01*
X145065692Y-105681428D02*
X144722835Y-105681428D01*
X144894264Y-105681428D02*
X144894264Y-105081428D01*
X144837121Y-105167142D01*
X144779978Y-105224285D01*
X144722835Y-105252857D01*
X140278021Y-97490000D02*
X140220878Y-97461428D01*
X140135164Y-97461428D01*
X140049450Y-97490000D01*
X139992307Y-97547142D01*
X139963735Y-97604285D01*
X139935164Y-97718571D01*
X139935164Y-97804285D01*
X139963735Y-97918571D01*
X139992307Y-97975714D01*
X140049450Y-98032857D01*
X140135164Y-98061428D01*
X140192307Y-98061428D01*
X140278021Y-98032857D01*
X140306592Y-98004285D01*
X140306592Y-97804285D01*
X140192307Y-97804285D01*
X140563735Y-98061428D02*
X140563735Y-97461428D01*
X140906592Y-98061428D01*
X140906592Y-97461428D01*
X141192307Y-98061428D02*
X141192307Y-97461428D01*
X141335164Y-97461428D01*
X141420878Y-97490000D01*
X141478021Y-97547142D01*
X141506592Y-97604285D01*
X141535164Y-97718571D01*
X141535164Y-97804285D01*
X141506592Y-97918571D01*
X141478021Y-97975714D01*
X141420878Y-98032857D01*
X141335164Y-98061428D01*
X141192307Y-98061428D01*
X132404021Y-103840000D02*
X132346878Y-103811428D01*
X132261164Y-103811428D01*
X132175450Y-103840000D01*
X132118307Y-103897142D01*
X132089735Y-103954285D01*
X132061164Y-104068571D01*
X132061164Y-104154285D01*
X132089735Y-104268571D01*
X132118307Y-104325714D01*
X132175450Y-104382857D01*
X132261164Y-104411428D01*
X132318307Y-104411428D01*
X132404021Y-104382857D01*
X132432592Y-104354285D01*
X132432592Y-104154285D01*
X132318307Y-104154285D01*
X132689735Y-104411428D02*
X132689735Y-103811428D01*
X133032592Y-104411428D01*
X133032592Y-103811428D01*
X133318307Y-104411428D02*
X133318307Y-103811428D01*
X133461164Y-103811428D01*
X133546878Y-103840000D01*
X133604021Y-103897142D01*
X133632592Y-103954285D01*
X133661164Y-104068571D01*
X133661164Y-104154285D01*
X133632592Y-104268571D01*
X133604021Y-104325714D01*
X133546878Y-104382857D01*
X133461164Y-104411428D01*
X133318307Y-104411428D01*
X132404021Y-101300000D02*
X132346878Y-101271428D01*
X132261164Y-101271428D01*
X132175450Y-101300000D01*
X132118307Y-101357142D01*
X132089735Y-101414285D01*
X132061164Y-101528571D01*
X132061164Y-101614285D01*
X132089735Y-101728571D01*
X132118307Y-101785714D01*
X132175450Y-101842857D01*
X132261164Y-101871428D01*
X132318307Y-101871428D01*
X132404021Y-101842857D01*
X132432592Y-101814285D01*
X132432592Y-101614285D01*
X132318307Y-101614285D01*
X132689735Y-101871428D02*
X132689735Y-101271428D01*
X133032592Y-101871428D01*
X133032592Y-101271428D01*
X133318307Y-101871428D02*
X133318307Y-101271428D01*
X133461164Y-101271428D01*
X133546878Y-101300000D01*
X133604021Y-101357142D01*
X133632592Y-101414285D01*
X133661164Y-101528571D01*
X133661164Y-101614285D01*
X133632592Y-101728571D01*
X133604021Y-101785714D01*
X133546878Y-101842857D01*
X133461164Y-101871428D01*
X133318307Y-101871428D01*
X132404021Y-98760000D02*
X132346878Y-98731428D01*
X132261164Y-98731428D01*
X132175450Y-98760000D01*
X132118307Y-98817142D01*
X132089735Y-98874285D01*
X132061164Y-98988571D01*
X132061164Y-99074285D01*
X132089735Y-99188571D01*
X132118307Y-99245714D01*
X132175450Y-99302857D01*
X132261164Y-99331428D01*
X132318307Y-99331428D01*
X132404021Y-99302857D01*
X132432592Y-99274285D01*
X132432592Y-99074285D01*
X132318307Y-99074285D01*
X132689735Y-99331428D02*
X132689735Y-98731428D01*
X133032592Y-99331428D01*
X133032592Y-98731428D01*
X133318307Y-99331428D02*
X133318307Y-98731428D01*
X133461164Y-98731428D01*
X133546878Y-98760000D01*
X133604021Y-98817142D01*
X133632592Y-98874285D01*
X133661164Y-98988571D01*
X133661164Y-99074285D01*
X133632592Y-99188571D01*
X133604021Y-99245714D01*
X133546878Y-99302857D01*
X133461164Y-99331428D01*
X133318307Y-99331428D01*
D11*
X158750000Y-109600000D02*
X158750000Y-116600000D01*
X162750000Y-109600000D02*
X158750000Y-109600000D01*
X162750000Y-93600000D02*
X162750000Y-109600000D01*
X158750000Y-93600000D02*
X162750000Y-93600000D01*
X158750000Y-86600000D02*
X158750000Y-93600000D01*
X156750000Y-86600000D02*
X158750000Y-86600000D01*
X156750000Y-93600000D02*
X156750000Y-86600000D01*
X146550000Y-93600000D02*
X156750000Y-93600000D01*
X146550000Y-109600000D02*
X146550000Y-93600000D01*
X156750000Y-109600000D02*
X146550000Y-109600000D01*
X156750000Y-116600000D02*
X156750000Y-109600000D01*
X158750000Y-116600000D02*
X156750000Y-116600000D01*
D12*
X140700000Y-106480000D02*
X138700000Y-106480000D01*
X138700000Y-104340000D02*
X140700000Y-104340000D01*
D11*
X146202380Y-103290476D02*
X145202380Y-103290476D01*
X145202380Y-102909523D01*
X145250000Y-102814285D01*
X145297619Y-102766666D01*
X145392857Y-102719047D01*
X145535714Y-102719047D01*
X145630952Y-102766666D01*
X145678571Y-102814285D01*
X145726190Y-102909523D01*
X145726190Y-103290476D01*
X146202380Y-101766666D02*
X146202380Y-102338095D01*
X146202380Y-102052380D02*
X145202380Y-102052380D01*
X145345238Y-102147619D01*
X145440476Y-102242857D01*
X145488095Y-102338095D01*
X145202380Y-101147619D02*
X145202380Y-101052380D01*
X145250000Y-100957142D01*
X145297619Y-100909523D01*
X145392857Y-100861904D01*
X145583333Y-100814285D01*
X145821428Y-100814285D01*
X146011904Y-100861904D01*
X146107142Y-100909523D01*
X146154761Y-100957142D01*
X146202380Y-101052380D01*
X146202380Y-101147619D01*
X146154761Y-101242857D01*
X146107142Y-101290476D01*
X146011904Y-101338095D01*
X145821428Y-101385714D01*
X145583333Y-101385714D01*
X145392857Y-101338095D01*
X145297619Y-101290476D01*
X145250000Y-101242857D01*
X145202380Y-101147619D01*
X145202380Y-99909523D02*
X145202380Y-100385714D01*
X145678571Y-100433333D01*
X145630952Y-100385714D01*
X145583333Y-100290476D01*
X145583333Y-100052380D01*
X145630952Y-99957142D01*
X145678571Y-99909523D01*
X145773809Y-99861904D01*
X146011904Y-99861904D01*
X146107142Y-99909523D01*
X146154761Y-99957142D01*
X146202380Y-100052380D01*
X146202380Y-100290476D01*
X146154761Y-100385714D01*
X146107142Y-100433333D01*
X137128571Y-107894380D02*
X137128571Y-106894380D01*
X137509523Y-106894380D01*
X137604761Y-106942000D01*
X137652380Y-106989619D01*
X137700000Y-107084857D01*
X137700000Y-107227714D01*
X137652380Y-107322952D01*
X137604761Y-107370571D01*
X137509523Y-107418190D01*
X137128571Y-107418190D01*
X137985714Y-106894380D02*
X138557142Y-106894380D01*
X138271428Y-107894380D02*
X138271428Y-106894380D01*
X139461904Y-107799142D02*
X139414285Y-107846761D01*
X139271428Y-107894380D01*
X139176190Y-107894380D01*
X139033333Y-107846761D01*
X138938095Y-107751523D01*
X138890476Y-107656285D01*
X138842857Y-107465809D01*
X138842857Y-107322952D01*
X138890476Y-107132476D01*
X138938095Y-107037238D01*
X139033333Y-106942000D01*
X139176190Y-106894380D01*
X139271428Y-106894380D01*
X139414285Y-106942000D01*
X139461904Y-106989619D01*
X140414285Y-107894380D02*
X139842857Y-107894380D01*
X140128571Y-107894380D02*
X140128571Y-106894380D01*
X140033333Y-107037238D01*
X139938095Y-107132476D01*
X139842857Y-107180095D01*
X141033333Y-106894380D02*
X141128571Y-106894380D01*
X141223809Y-106942000D01*
X141271428Y-106989619D01*
X141319047Y-107084857D01*
X141366666Y-107275333D01*
X141366666Y-107513428D01*
X141319047Y-107703904D01*
X141271428Y-107799142D01*
X141223809Y-107846761D01*
X141128571Y-107894380D01*
X141033333Y-107894380D01*
X140938095Y-107846761D01*
X140890476Y-107799142D01*
X140842857Y-107703904D01*
X140795238Y-107513428D01*
X140795238Y-107275333D01*
X140842857Y-107084857D01*
X140890476Y-106989619D01*
X140938095Y-106942000D01*
X141033333Y-106894380D01*
X142319047Y-107894380D02*
X141747619Y-107894380D01*
X142033333Y-107894380D02*
X142033333Y-106894380D01*
X141938095Y-107037238D01*
X141842857Y-107132476D01*
X141747619Y-107180095D01*
%LPC*%
D13*
X134620000Y-104140000D03*
X134620000Y-99060000D03*
X134620000Y-101600000D03*
D14*
X132080000Y-107950000D03*
X132080000Y-95250000D03*
D13*
X129540000Y-101600000D03*
D15*
X151080000Y-108170000D03*
X151080000Y-95030000D03*
D16*
X148750000Y-105100000D03*
X148750000Y-102600000D03*
X148750000Y-100600000D03*
X148750000Y-98100000D03*
D17*
X143510000Y-105410000D03*
X143510000Y-102870000D03*
X143510000Y-100330000D03*
X143510000Y-97790000D03*
D18*
X138100000Y-105410000D03*
X141300000Y-105410000D03*
D17*
X139700000Y-101600000D03*
M02*
