M48
;DRILL file {KiCad 4.0.7} date Thu Apr 25 18:18:34 2019
;FORMAT={3:3/ absolute / metric / keep zeros}
FMAT,2
METRIC,TZ
T1C0.330
T2C0.508
T3C0.610
T4C0.635
T5C0.762
T6C1.016
T7C1.020
T8C1.143
T9C1.300
T10C2.032
T11C2.667
T12C3.200
T13C0.800
T14C1.200
T15C1.250
T16C2.200
T17C3.000
T18C3.175
%
G90
G05
M71
T1
X201803Y-201168
X202184Y-178054
X203454Y-178054
X212217Y-213233
X212598Y-202184
X212979Y-214122
X213487Y-211455
X214122Y-202184
X214249Y-212344
X214757Y-209677
X215519Y-210566
X216027Y-207899
X216789Y-208788
X221615Y-201168
X222377Y-185547
X224409Y-234315
X224409Y-245364
X224663Y-201930
X224917Y-219329
X225044Y-207899
X225806Y-208788
X226314Y-232029
X226568Y-209677
X227330Y-210566
X227584Y-231013
X228092Y-211455
X228346Y-230124
X228854Y-212344
X229108Y-229235
X229616Y-213233
X229870Y-228346
X230378Y-214122
X230632Y-227457
X230886Y-185547
X231394Y-226568
X231521Y-182245
X232156Y-225679
X232918Y-224790
X234569Y-209550
X235458Y-190119
X238506Y-208915
X238887Y-185547
X239649Y-221869
X239903Y-187833
X240665Y-205740
X240792Y-213106
X240792Y-214376
X241935Y-215138
X242570Y-216281
X242824Y-221869
X244475Y-219329
X245999Y-207645
X245999Y-215138
X245999Y-225933
X246126Y-176530
X246380Y-216281
X246507Y-223901
X246888Y-184912
X246888Y-206756
X247142Y-226060
X247904Y-212852
X248539Y-178943
X249682Y-225425
X249809Y-216916
X249809Y-227584
X250698Y-216027
X250698Y-228727
X254127Y-211836
X254127Y-229616
X255143Y-210947
X256159Y-216027
X256159Y-217424
X257429Y-233553
X261112Y-178181
X264795Y-216789
X264795Y-217932
X265049Y-219202
X265303Y-179705
X265811Y-232029
X267081Y-218440
X268224Y-212598
X269113Y-213741
X271145Y-228727
X271780Y-223139
X272288Y-229108
X272669Y-191643
X273558Y-192532
X274574Y-176530
X274955Y-212090
X274955Y-214249
X275336Y-187833
X275463Y-209169
X275590Y-223139
X276733Y-209169
X276860Y-178943
X280924Y-229870
X282956Y-228473
X285369Y-235331
X285496Y-196596
X286766Y-222377
X286766Y-214122
X286766Y-215392
X286766Y-216789
X286766Y-218186
X286766Y-219583
X286766Y-220980
X287655Y-198882
X288544Y-197993
X289560Y-178181
X289687Y-229997
X293751Y-179705
X295402Y-196215
X296291Y-195326
X296799Y-192278
X297434Y-196723
X298577Y-190627
X298704Y-196723
X301752Y-189738
X303784Y-188087
X303784Y-190246
X304800Y-168783
X305054Y-190246
X305308Y-178943
X318008Y-178181
X322199Y-179705
X326136Y-196215
X329946Y-187579
X330835Y-188468
X331851Y-189357
X331978Y-177292
X337058Y-187706
X337947Y-188722
X338201Y-184404
X339090Y-183515
X341122Y-208280
X341122Y-199390
X341630Y-239141
X341884Y-217551
X346329Y-228854
X351917Y-201549
X353187Y-201168
X354076Y-199771
X355600Y-197485
X355600Y-198755
X355600Y-200025
X355600Y-201295
X355600Y-239522
X363982Y-201295
T2
X213360Y-203200
X226187Y-245364
X235458Y-220599
X243586Y-245364
X252476Y-220599
X252476Y-202819
X253492Y-245364
X255382Y-177516
X255382Y-180116
X256682Y-177516
X256682Y-180116
X259207Y-175260
X259334Y-221107
X259334Y-245364
X263017Y-204470
X266700Y-187833
X266700Y-202819
X267208Y-213487
X269748Y-232918
X276225Y-215138
X278511Y-199771
X282448Y-233807
X282956Y-230378
X283210Y-237490
X283830Y-177516
X283830Y-180116
X285130Y-177516
X285130Y-180116
X287655Y-175260
X300482Y-200406
X312278Y-177516
X312278Y-180116
X313578Y-177516
X313578Y-180116
X316611Y-175260
X324739Y-199898
X335788Y-185293
X338328Y-191135
X338328Y-197993
X339090Y-236982
X339217Y-186436
X342519Y-207010
X345567Y-219456
X350647Y-194437
X361061Y-192913
X362966Y-218059
T3
X197866Y-178562
X197866Y-181102
X197866Y-183642
X198120Y-193040
X198120Y-195580
X198120Y-198120
X198120Y-203200
X203200Y-193040
X203200Y-195580
X203200Y-198120
X203200Y-203200
X204470Y-181610
X204470Y-186182
X204470Y-188722
X205740Y-203200
X205740Y-218440
X205740Y-223520
X205740Y-233680
X207010Y-186182
X207264Y-178816
X209804Y-178816
X212344Y-178816
X213360Y-186944
X213360Y-218440
X213360Y-223520
X213360Y-233680
X214884Y-178816
X214884Y-181356
X214884Y-183896
X215392Y-186944
X217424Y-181356
X217424Y-183896
X218440Y-200025
X220980Y-187960
X220980Y-205740
X220980Y-218440
X220980Y-223520
X220980Y-233680
X225044Y-178816
X226695Y-233680
X227584Y-178816
X228600Y-187960
X228600Y-218440
X228600Y-223520
X229870Y-180340
X233680Y-185420
X233680Y-187960
X236220Y-185420
X236220Y-201168
X236220Y-208280
X236220Y-210820
X238506Y-187960
X238506Y-190246
X238760Y-201168
X238760Y-210820
X238760Y-228600
X238760Y-233680
X240792Y-190246
X241300Y-180340
X241300Y-201168
X241300Y-208280
X241300Y-210820
X241300Y-218440
X241300Y-228600
X241300Y-233680
X243459Y-182499
X245237Y-184277
X246126Y-245364
X246380Y-201168
X248920Y-201168
X248920Y-208280
X248920Y-210820
X248920Y-218440
X250698Y-245364
X254000Y-168656
X254000Y-170688
X254000Y-173228
X254000Y-175260
X254000Y-182372
X254000Y-184404
X254000Y-186436
X254000Y-214630
X254000Y-218440
X255270Y-226060
X255270Y-230632
X255270Y-233172
X255382Y-178816
X256032Y-168656
X256032Y-175260
X256032Y-182372
X256032Y-186436
X256540Y-201168
X256540Y-208280
X256682Y-178816
X258064Y-168656
X258064Y-182372
X258064Y-186436
X259080Y-208280
X260096Y-182372
X260096Y-186436
X260350Y-226060
X260350Y-230632
X261620Y-201168
X262128Y-182372
X262128Y-184404
X262128Y-186436
X262890Y-226060
X262890Y-230632
X263525Y-219202
X264160Y-182372
X264160Y-184404
X264160Y-186436
X264160Y-189230
X264160Y-201168
X264922Y-214630
X266700Y-241300
X267208Y-186436
X267970Y-208280
X267970Y-226060
X267970Y-230632
X270256Y-182372
X270256Y-184404
X270256Y-186436
X270510Y-195072
X271780Y-236220
X271780Y-241300
X274320Y-236220
X275590Y-195072
X276860Y-236220
X276860Y-241300
X277114Y-228600
X278130Y-195072
X279400Y-204470
X280670Y-195072
X280670Y-198120
X281940Y-204470
X282448Y-168656
X282448Y-170688
X282448Y-173228
X282448Y-175260
X282448Y-182372
X282448Y-184404
X282448Y-186436
X283830Y-178816
X284353Y-212090
X284480Y-168656
X284480Y-175260
X284480Y-182372
X284480Y-186436
X284480Y-204470
X285130Y-178816
X286512Y-168656
X286512Y-182372
X286512Y-186436
X288544Y-182372
X288544Y-186436
X290576Y-182372
X290576Y-184404
X290576Y-186436
X292608Y-182372
X292608Y-184404
X292608Y-186436
X293370Y-190500
X294640Y-205740
X294640Y-208280
X294640Y-210820
X294640Y-223520
X294640Y-226060
X294640Y-228600
X295656Y-186436
X298704Y-182372
X298704Y-184404
X298704Y-186436
X299720Y-243840
X302260Y-228600
X304673Y-207645
X304800Y-201676
X307340Y-201676
X309753Y-207645
X310896Y-182372
X310896Y-184404
X310896Y-186436
X311404Y-168656
X311404Y-170688
X311404Y-173228
X311404Y-175260
X312278Y-178816
X312420Y-201676
X312928Y-182372
X312928Y-186436
X313436Y-168656
X313436Y-175260
X313578Y-178816
X314960Y-182372
X314960Y-186436
X314960Y-201676
X315468Y-168656
X316992Y-182372
X316992Y-186436
X319024Y-182372
X319024Y-184404
X319024Y-186436
X320040Y-201676
X321056Y-182372
X321056Y-184404
X321056Y-186436
X322571Y-196859
X322580Y-201676
X324104Y-186436
X327152Y-182372
X327152Y-184404
X327152Y-186436
X330200Y-167132
X330200Y-215900
X330200Y-218440
X330200Y-226060
X330200Y-228600
X332740Y-167132
X332740Y-175260
X332740Y-205740
X332740Y-243840
X334010Y-189230
X335280Y-167132
X336550Y-196596
X336550Y-206756
X339090Y-206756
X339598Y-179578
X339852Y-189230
X339852Y-197612
X340360Y-167132
X340360Y-215900
X340360Y-218440
X340360Y-226060
X341376Y-195834
X341630Y-236220
X342900Y-167132
X343916Y-186690
X343916Y-189230
X343916Y-196850
X343916Y-199390
X343916Y-201930
X344170Y-224790
X345440Y-167132
X345440Y-236220
X347980Y-208280
X348488Y-194310
X348488Y-201930
X350520Y-167132
X350520Y-208280
X353060Y-167132
X353060Y-218440
X353060Y-243840
X354584Y-203962
X355600Y-167132
X355600Y-194310
X358140Y-243840
X359156Y-216535
X363220Y-208280
T4
X328803Y-234422
T5
X244475Y-204470
X268605Y-189484
X268605Y-204470
T6
X195580Y-213360
X195580Y-215900
X195580Y-218440
X195580Y-220980
X195580Y-223520
X195580Y-226060
X195580Y-228600
X195580Y-231140
X195580Y-233680
X195580Y-236220
X213614Y-172847
X213614Y-175387
X216154Y-172847
X216154Y-175387
X218694Y-172847
X218694Y-175387
X221234Y-172847
X221234Y-175387
X223774Y-172847
X223774Y-175387
X226314Y-172847
X226314Y-175387
X228854Y-172847
X228854Y-175387
X231394Y-172847
X231394Y-175387
X247904Y-173736
X250444Y-173736
X276352Y-173736
X278892Y-173736
X343027Y-213217
X345567Y-213217
X348107Y-213217
X350647Y-213217
X353187Y-213217
X355727Y-213217
X358267Y-213217
X360807Y-213217
X363347Y-213217
T7
X204470Y-183769
X207010Y-183769
X209550Y-183769
X212090Y-183769
X350092Y-205232
X355092Y-208832
X360092Y-205232
T8
X342240Y-178206
X342240Y-181610
X342240Y-185014
X346240Y-179908
X346240Y-183312
T9
X194564Y-176022
X194564Y-181102
X194564Y-186182
T10
X358648Y-176530
X358648Y-181610
X358648Y-186690
X363728Y-176530
X363728Y-181610
X363728Y-186690
T11
X353974Y-176467
X353974Y-186754
T12
X204704Y-174387
X240304Y-174387
T13
X219147Y-195593
X219147Y-240043
T14
X263347Y-195593
X263347Y-240043
T15
X209550Y-181609
T16
X343027Y-242570
T17
X355892Y-228927
T18
X194335Y-169037
X194335Y-193040
X194335Y-242570
X288315Y-193040
X288315Y-242570
X295275Y-201676
X295275Y-243332
X336931Y-201676
X336931Y-243332
X363347Y-169037
X363347Y-242570
T0
M30
