G04 #@! TF.FileFunction,Profile,NP*
%FSLAX46Y46*%
G04 Gerber Fmt 4.6, Leading zero omitted, Abs format (unit mm)*
G04 Created by KiCad (PCBNEW (2015-09-12 BZR 6188)-product) date Sun Dec  6 19:48:42 2015*
%MOMM*%
G01*
G04 APERTURE LIST*
%ADD10C,0.100000*%
G04 APERTURE END LIST*
D10*
X331978000Y-209804000D02*
X331978000Y-235204000D01*
X335153000Y-209804000D02*
X331978000Y-209804000D01*
X335153000Y-235204000D02*
X335153000Y-209804000D01*
X331978000Y-235204000D02*
X335153000Y-235204000D01*
X328803000Y-241554000D02*
X303403000Y-241554000D01*
X328803000Y-238379000D02*
X328803000Y-241554000D01*
X303403000Y-238379000D02*
X328803000Y-238379000D01*
X303403000Y-241554000D02*
X303403000Y-238379000D01*
X328803000Y-206629000D02*
X303403000Y-206629000D01*
X328803000Y-203454000D02*
X328803000Y-206629000D01*
X303403000Y-203454000D02*
X328803000Y-203454000D01*
X303403000Y-206629000D02*
X303403000Y-203454000D01*
X297053000Y-209804000D02*
X297053000Y-235204000D01*
X300228000Y-209804000D02*
X297053000Y-209804000D01*
X300228000Y-235204000D02*
X300228000Y-209804000D01*
X297053000Y-235204000D02*
X300228000Y-235204000D01*
X190500000Y-165100000D02*
X190500000Y-246380000D01*
X367284000Y-165100000D02*
X190500000Y-165100000D01*
X367284000Y-246380000D02*
X367284000Y-165100000D01*
X190500000Y-246380000D02*
X367284000Y-246380000D01*
M02*
