M48
;DRILL file {KiCad (2015-09-12 BZR 6188)-product} date Sat Nov 21 23:19:19 2015
;FORMAT={3:3/ absolute / metric / keep zeros}
FMAT,2
METRIC,TZ
T1C0.330
T2C0.508
T3C0.610
T4C0.635
T5C0.762
T6C0.800
T7C0.914
T8C1.016
T9C1.020
T10C1.143
T11C1.200
T12C1.250
T13C1.300
T14C2.200
T15C2.616
T16C2.692
T17C3.175
%
G90
G05
M71
T1
X200660Y-175514
X201803Y-177673
X201803Y-201168
X212217Y-213233
X212979Y-214122
X213487Y-211455
X214249Y-212344
X214757Y-209677
X215519Y-210566
X216027Y-207899
X216789Y-208788
X221615Y-201168
X222123Y-185547
X223774Y-201168
X223774Y-189992
X224409Y-234315
X224409Y-245364
X224663Y-201930
X225044Y-207899
X225806Y-208788
X226314Y-232029
X226441Y-181737
X226568Y-209677
X227330Y-210566
X228092Y-211455
X228600Y-227711
X228854Y-212344
X229489Y-228600
X229616Y-213233
X230378Y-214122
X231013Y-184912
X231013Y-229489
X231373Y-182318
X233426Y-222504
X234315Y-223393
X235331Y-220599
X235458Y-190119
X235458Y-201168
X235839Y-223647
X236728Y-224663
X238506Y-208915
X239014Y-185420
X239395Y-190373
X240665Y-205994
X240792Y-213106
X240792Y-214376
X241427Y-201168
X241935Y-215138
X242570Y-216281
X245949Y-187529
X245999Y-207772
X245999Y-215138
X246126Y-176530
X246380Y-216281
X246888Y-206883
X248539Y-178943
X248666Y-217297
X249428Y-218567
X252476Y-213591
X252476Y-220581
X254047Y-210981
X255016Y-210376
X255905Y-217297
X255905Y-218567
X257429Y-233553
X259334Y-221107
X261112Y-178181
X265176Y-204343
X265303Y-217170
X265303Y-218440
X265430Y-179705
X265811Y-232029
X267462Y-213360
X270129Y-201168
X271264Y-228590
X271272Y-220218
X272288Y-229108
X272669Y-193167
X273050Y-208661
X274574Y-176530
X274955Y-209042
X275365Y-188929
X275590Y-223139
X275844Y-205105
X276225Y-209042
X276860Y-178943
X278511Y-199834
X280912Y-229882
X282956Y-228473
X285877Y-197993
X286385Y-216789
X286766Y-215519
X286766Y-198882
X286893Y-218186
X286893Y-220980
X286893Y-222377
X286893Y-219583
X289560Y-178181
X293878Y-179705
X295402Y-196215
X296418Y-195326
X297561Y-196723
X299339Y-196850
X301371Y-190246
X303149Y-191008
X303769Y-188929
X304419Y-191008
X304546Y-168529
X305308Y-178943
X307213Y-230378
X318008Y-178181
X322326Y-179705
X325755Y-196279
X328930Y-197485
X329692Y-220599
X329933Y-187515
X330708Y-188468
X330962Y-202819
X331470Y-189357
X332105Y-177419
X337058Y-187706
X337947Y-188722
X338201Y-184404
X339090Y-183515
X340106Y-238252
X341122Y-208280
X341122Y-199390
X341630Y-228981
X341630Y-239141
X350139Y-194183
X351917Y-201549
X353187Y-201168
X354076Y-199771
X355600Y-197485
X355600Y-198755
X355600Y-200025
X355600Y-201295
T2
X213360Y-203200
X226187Y-245364
X243586Y-245364
X252476Y-202819
X253238Y-245364
X255382Y-177516
X255382Y-180116
X256682Y-177516
X256682Y-180116
X259334Y-175260
X259461Y-245237
X266673Y-188929
X266700Y-202819
X269748Y-233045
X276225Y-215138
X282448Y-233807
X282956Y-230378
X283337Y-237363
X283830Y-177516
X283830Y-180116
X285130Y-177516
X285130Y-180116
X287782Y-175260
X300355Y-200406
X312278Y-177516
X312278Y-180116
X313578Y-177516
X313578Y-180116
X316738Y-175260
X324739Y-199898
X324993Y-229235
X335788Y-185293
X338328Y-191008
X338328Y-197993
X339217Y-186436
X342519Y-207010
X345567Y-219456
X357886Y-222631
X361315Y-222631
X361315Y-193167
T3
X196850Y-203962
X197866Y-178562
X197866Y-181102
X197866Y-183642
X197866Y-188722
X197866Y-191262
X197866Y-193802
X197866Y-196342
X197866Y-198882
X197866Y-201422
X199390Y-203962
X201930Y-203962
X204470Y-186182
X204470Y-188722
X204470Y-191262
X204470Y-193802
X204470Y-196342
X204470Y-198882
X204470Y-203962
X207010Y-186182
X207010Y-188722
X207264Y-168656
X207264Y-178816
X209804Y-168656
X209804Y-178816
X212344Y-168656
X212344Y-178816
X213360Y-186944
X214884Y-168656
X214884Y-178816
X214884Y-181356
X214884Y-183896
X215392Y-186944
X217424Y-168656
X217424Y-181356
X217424Y-183896
X220472Y-188468
X221742Y-205486
X221742Y-215900
X225044Y-220218
X227584Y-220218
X228092Y-188468
X230124Y-220218
X232664Y-220218
X233172Y-188468
X235712Y-185928
X236220Y-208280
X236220Y-210820
X238252Y-188468
X238760Y-210820
X238760Y-226060
X238760Y-230632
X238760Y-233172
X241046Y-189992
X241300Y-208280
X241300Y-210820
X241300Y-218440
X241300Y-226060
X241300Y-230632
X241300Y-233172
X241808Y-180848
X245237Y-184277
X246380Y-226060
X246380Y-230632
X246380Y-233172
X248920Y-210820
X248920Y-213360
X250190Y-226060
X250190Y-230632
X250190Y-233172
X254000Y-168656
X254000Y-170688
X254000Y-173228
X254000Y-175260
X254000Y-182372
X254000Y-184404
X254000Y-186436
X254508Y-215392
X254508Y-220472
X255270Y-230632
X255270Y-233172
X255382Y-178816
X256032Y-168656
X256032Y-175260
X256032Y-182372
X256032Y-186436
X256682Y-178816
X258064Y-168656
X258064Y-182372
X258064Y-186436
X260096Y-182372
X260096Y-186436
X260350Y-226060
X260350Y-230632
X262128Y-182372
X262128Y-184404
X262128Y-186436
X262382Y-199390
X262890Y-226060
X262890Y-230632
X264160Y-182372
X264160Y-184404
X264160Y-186436
X264668Y-220472
X264922Y-199390
X267208Y-186436
X267970Y-226060
X267970Y-230632
X268224Y-242570
X270256Y-182372
X270256Y-184404
X270256Y-186436
X270510Y-195072
X270764Y-242570
X273304Y-237490
X273304Y-242570
X275590Y-195072
X275844Y-237490
X275844Y-242570
X277368Y-228473
X278130Y-195072
X278384Y-237490
X278384Y-242570
X279146Y-204470
X280670Y-195072
X281686Y-204470
X282448Y-168656
X282448Y-170688
X282448Y-173228
X282448Y-175260
X282448Y-182372
X282448Y-184404
X282448Y-186436
X283210Y-195072
X283830Y-178816
X284226Y-204470
X284480Y-168656
X284480Y-175260
X284480Y-182372
X284480Y-186436
X285130Y-178816
X286512Y-168656
X286512Y-182372
X286512Y-186436
X288544Y-182372
X288544Y-186436
X290576Y-182372
X290576Y-184404
X290576Y-186436
X292608Y-182372
X292608Y-184404
X292608Y-186436
X294640Y-205740
X294640Y-208280
X294640Y-210820
X294640Y-226060
X294640Y-228600
X294640Y-231140
X295656Y-186436
X298704Y-182372
X298704Y-184404
X298704Y-186436
X302768Y-226060
X302768Y-228600
X302768Y-231140
X308864Y-201676
X310896Y-182372
X310896Y-184404
X310896Y-186436
X310896Y-201676
X311404Y-168656
X311404Y-170688
X311404Y-173228
X311404Y-175260
X312278Y-178816
X312928Y-182372
X312928Y-186436
X312928Y-201676
X313436Y-168656
X313436Y-175260
X313578Y-178816
X314960Y-182372
X314960Y-186436
X314960Y-201676
X315468Y-168656
X316103Y-208280
X316992Y-182372
X316992Y-186436
X316992Y-201676
X319024Y-182372
X319024Y-184404
X319024Y-186436
X321056Y-182372
X321056Y-184404
X321056Y-186436
X322580Y-196850
X324104Y-186436
X324866Y-202438
X327152Y-182372
X327152Y-184404
X327152Y-186436
X329438Y-215392
X329438Y-226822
X329438Y-229362
X330200Y-167132
X332740Y-167132
X333121Y-202438
X334010Y-196596
X335280Y-167132
X336550Y-196596
X337820Y-167132
X339598Y-216662
X339598Y-219202
X339598Y-221742
X339598Y-224282
X339852Y-189230
X339852Y-197612
X340360Y-167132
X341376Y-195834
X342900Y-167132
X343916Y-186690
X343916Y-189230
X343916Y-196850
X343916Y-199390
X343916Y-201930
X345440Y-167132
X345948Y-209550
X347980Y-167132
X348488Y-194310
X348488Y-201930
X348488Y-209550
X350520Y-167132
X353060Y-167132
X354584Y-203962
X354584Y-216662
X355600Y-167132
T4
X307213Y-213614
T5
X244475Y-204343
X268605Y-191135
X268605Y-204343
T6
X219147Y-195593
X219147Y-240043
T7
X213614Y-172847
X213614Y-175387
X216154Y-172847
X216154Y-175387
X218694Y-172847
X218694Y-175387
X221234Y-172847
X221234Y-175387
X223774Y-172847
X223774Y-175387
X226314Y-172847
X226314Y-175387
X228854Y-172847
X228854Y-175387
X231394Y-172847
X231394Y-175387
T8
X247904Y-173736
X250444Y-173736
X276352Y-173736
X278892Y-173736
X343027Y-213090
X345567Y-213090
X348107Y-213090
X350647Y-213090
X353187Y-213090
X355727Y-213090
X358267Y-213090
X360807Y-213090
X363347Y-213090
T9
X204470Y-183769
X207010Y-183769
X209550Y-183769
X212090Y-183769
X350092Y-205232
X355092Y-208832
X360092Y-205232
T10
X341998Y-178206
X341998Y-181610
X341998Y-185110
X346240Y-179908
X346240Y-183312
T11
X263347Y-195593
X263347Y-240043
X355892Y-228927
T12
X209550Y-181609
T13
X194564Y-176022
X194564Y-181102
X194564Y-186182
T14
X343027Y-242443
T15
X353974Y-176721
X353974Y-187008
T16
X204724Y-174117
X240284Y-174117
T17
X194335Y-193040
X194335Y-242570
X194564Y-169037
X288315Y-193040
X288315Y-242570
X295275Y-201676
X295275Y-243332
X336931Y-201676
X336931Y-243332
X363347Y-169037
X363347Y-242443
T0
M30
