M48
; DRILL file {KiCad (5.1.8)} date Wed Apr 28 10:49:14 2021
; FORMAT={-:-/ absolute / metric / decimal}
; #@! TF.CreationDate,2021-04-28T10:49:14-04:00
; #@! TF.GenerationSoftware,Kicad,Pcbnew,(5.1.8)
FMAT,2
METRIC
T1C0.330
T2C0.508
T3C0.610
T4C0.635
T5C0.762
T6C1.016
T7C1.020
T8C1.143
T9C1.300
T10C2.032
T11C2.667
T12C3.200
T13C0.800
T14C1.200
T15C1.250
T16C2.200
T17C3.000
T18C3.175
%
G90
G05
T1
X201.803Y-201.168
X202.184Y-178.054
X203.454Y-178.054
X212.217Y-213.233
X212.598Y-202.184
X212.979Y-214.122
X213.487Y-211.455
X214.122Y-202.184
X214.249Y-212.344
X214.757Y-209.677
X215.519Y-210.566
X216.027Y-207.899
X216.789Y-208.788
X221.615Y-201.168
X222.377Y-185.547
X224.409Y-234.315
X224.409Y-245.364
X224.663Y-201.93
X224.917Y-219.329
X225.044Y-207.899
X225.806Y-208.788
X226.314Y-232.029
X226.568Y-209.677
X227.33Y-210.566
X227.584Y-231.013
X228.092Y-211.455
X228.346Y-230.124
X228.854Y-212.344
X229.108Y-229.235
X229.616Y-213.233
X229.87Y-228.346
X230.378Y-214.122
X230.632Y-227.457
X230.886Y-185.547
X231.394Y-226.568
X231.521Y-182.245
X232.156Y-225.679
X232.918Y-224.79
X234.569Y-209.55
X235.458Y-190.119
X238.506Y-208.915
X238.887Y-185.547
X239.649Y-221.869
X239.903Y-187.833
X240.665Y-205.74
X240.792Y-213.106
X240.792Y-214.376
X241.935Y-215.138
X242.57Y-216.281
X242.824Y-221.869
X244.475Y-219.329
X245.999Y-207.645
X245.999Y-215.138
X245.999Y-225.933
X246.126Y-176.53
X246.38Y-216.281
X246.507Y-223.901
X246.888Y-184.912
X246.888Y-206.756
X247.142Y-226.06
X247.904Y-212.852
X248.539Y-178.943
X249.682Y-225.425
X249.809Y-216.916
X249.809Y-227.584
X250.698Y-216.027
X250.698Y-228.727
X254.127Y-211.836
X254.127Y-229.616
X255.143Y-210.947
X256.159Y-216.027
X256.159Y-217.424
X257.429Y-233.553
X261.112Y-178.181
X264.795Y-216.789
X264.795Y-217.932
X265.049Y-219.202
X265.303Y-179.705
X265.811Y-232.029
X267.081Y-218.44
X268.224Y-212.598
X269.113Y-213.741
X271.145Y-228.727
X271.78Y-223.139
X272.288Y-229.108
X272.669Y-191.643
X273.558Y-192.532
X274.574Y-176.53
X274.955Y-212.09
X274.955Y-214.249
X275.336Y-187.833
X275.463Y-209.169
X275.59Y-223.139
X276.733Y-209.169
X276.86Y-178.943
X280.924Y-229.87
X282.956Y-228.473
X285.369Y-235.331
X285.496Y-196.596
X286.766Y-222.377
X286.766Y-214.122
X286.766Y-215.392
X286.766Y-216.789
X286.766Y-218.186
X286.766Y-219.583
X286.766Y-220.98
X287.655Y-198.882
X288.544Y-197.993
X289.56Y-178.181
X289.687Y-229.997
X293.751Y-179.705
X295.402Y-196.215
X296.291Y-195.326
X296.799Y-192.278
X297.434Y-196.723
X298.577Y-190.627
X298.704Y-196.723
X301.752Y-189.738
X303.784Y-188.087
X303.784Y-190.246
X304.8Y-168.783
X305.054Y-190.246
X305.308Y-178.943
X318.008Y-178.181
X322.199Y-179.705
X326.136Y-196.215
X329.946Y-187.579
X330.835Y-188.468
X331.851Y-189.357
X331.978Y-177.292
X337.058Y-187.706
X337.947Y-188.722
X338.201Y-184.404
X339.09Y-183.515
X341.122Y-208.28
X341.122Y-199.39
X341.63Y-239.141
X341.884Y-217.551
X346.329Y-228.854
X351.917Y-201.549
X353.187Y-201.168
X354.076Y-199.771
X355.6Y-197.485
X355.6Y-198.755
X355.6Y-200.025
X355.6Y-201.295
X355.6Y-239.522
X363.982Y-201.295
T2
X213.36Y-203.2
X226.187Y-245.364
X235.458Y-220.599
X243.586Y-245.364
X252.476Y-220.599
X252.476Y-202.819
X253.492Y-245.364
X259.207Y-175.26
X259.334Y-221.107
X259.334Y-245.364
X263.017Y-204.47
X266.7Y-187.833
X266.7Y-202.819
X267.208Y-213.487
X269.748Y-232.918
X276.225Y-215.138
X278.511Y-199.771
X282.448Y-233.807
X282.956Y-230.378
X283.21Y-237.49
X287.655Y-175.26
X300.482Y-200.406
X316.611Y-175.26
X324.739Y-199.898
X335.788Y-185.293
X338.328Y-191.135
X338.328Y-197.993
X339.09Y-236.982
X339.217Y-186.436
X342.519Y-207.01
X345.567Y-219.456
X350.647Y-194.437
X361.061Y-192.913
X362.966Y-218.059
X283.83Y-177.516
X283.83Y-180.116
X285.13Y-177.516
X285.13Y-180.116
X255.382Y-177.516
X255.382Y-180.116
X256.682Y-177.516
X256.682Y-180.116
X312.278Y-177.516
X312.278Y-180.116
X313.578Y-177.516
X313.578Y-180.116
T3
X254.0Y-168.656
X254.0Y-170.688
X254.0Y-173.228
X254.0Y-175.26
X254.0Y-182.372
X254.0Y-184.404
X254.0Y-186.436
X256.032Y-168.656
X256.032Y-175.26
X256.032Y-182.372
X256.032Y-186.436
X258.064Y-168.656
X258.064Y-182.372
X258.064Y-186.436
X260.096Y-182.372
X260.096Y-186.436
X262.128Y-182.372
X262.128Y-184.404
X262.128Y-186.436
X264.16Y-182.372
X264.16Y-184.404
X264.16Y-186.436
X267.208Y-186.436
X270.256Y-182.372
X270.256Y-184.404
X270.256Y-186.436
X282.448Y-168.656
X282.448Y-170.688
X282.448Y-173.228
X282.448Y-175.26
X282.448Y-182.372
X282.448Y-184.404
X282.448Y-186.436
X284.48Y-168.656
X284.48Y-175.26
X284.48Y-182.372
X284.48Y-186.436
X286.512Y-168.656
X286.512Y-182.372
X286.512Y-186.436
X288.544Y-182.372
X288.544Y-186.436
X290.576Y-182.372
X290.576Y-184.404
X290.576Y-186.436
X292.608Y-182.372
X292.608Y-184.404
X292.608Y-186.436
X295.656Y-186.436
X298.704Y-182.372
X298.704Y-184.404
X298.704Y-186.436
X310.896Y-182.372
X310.896Y-184.404
X310.896Y-186.436
X311.404Y-168.656
X311.404Y-170.688
X311.404Y-173.228
X311.404Y-175.26
X312.928Y-182.372
X312.928Y-186.436
X313.436Y-168.656
X313.436Y-175.26
X314.96Y-182.372
X314.96Y-186.436
X315.468Y-168.656
X316.992Y-182.372
X316.992Y-186.436
X319.024Y-182.372
X319.024Y-184.404
X319.024Y-186.436
X321.056Y-182.372
X321.056Y-184.404
X321.056Y-186.436
X324.104Y-186.436
X327.152Y-182.372
X327.152Y-184.404
X327.152Y-186.436
X322.58Y-201.676
X267.97Y-230.632
X198.12Y-195.58
X241.3Y-208.28
X212.344Y-178.816
X241.3Y-233.68
X343.916Y-196.85
X205.74Y-218.44
X348.488Y-201.93
X204.47Y-186.182
X339.09Y-206.756
X312.42Y-201.676
X358.14Y-243.84
X203.2Y-203.2
X256.54Y-201.168
X217.424Y-181.356
X241.3Y-180.34
X241.3Y-228.6
X220.98Y-218.44
X341.376Y-195.834
X248.92Y-208.28
X314.96Y-201.676
X203.2Y-195.58
X215.392Y-186.944
X266.7Y-241.3
X197.866Y-183.642
X340.36Y-167.132
X267.97Y-208.28
X353.06Y-243.84
X283.83Y-178.816
X285.13Y-178.816
X248.92Y-201.168
X264.922Y-214.63
X304.8Y-201.676
X294.64Y-226.06
X274.32Y-236.22
X248.92Y-218.44
X309.753Y-207.645
X340.36Y-226.06
X359.156Y-216.535
X250.698Y-245.364
X220.98Y-187.96
X353.06Y-167.132
X334.01Y-189.23
X243.459Y-182.499
X213.36Y-223.52
X294.64Y-205.74
X260.35Y-230.632
X270.51Y-195.072
X363.22Y-208.28
X238.506Y-187.96
X280.67Y-195.072
X342.9Y-167.132
X228.6Y-218.44
X347.98Y-208.28
X238.76Y-201.168
X254.0Y-218.44
X205.74Y-233.68
X260.35Y-226.06
X241.3Y-210.82
X355.6Y-194.31
X330.2Y-226.06
X343.916Y-186.69
X336.55Y-196.596
X204.47Y-188.722
X279.4Y-204.47
X236.22Y-210.82
X205.74Y-203.2
X255.382Y-178.816
X256.682Y-178.816
X197.866Y-181.102
X214.884Y-183.896
X241.3Y-218.44
X207.264Y-178.816
X220.98Y-205.74
X343.916Y-201.93
X330.2Y-167.132
X322.571Y-196.859
X203.2Y-193.04
X213.36Y-186.944
X214.884Y-178.816
X332.74Y-205.74
X238.76Y-233.68
X259.08Y-208.28
X225.044Y-178.816
X246.38Y-201.168
X227.584Y-178.816
X277.114Y-228.6
X198.12Y-193.04
X294.64Y-210.82
X344.17Y-224.79
X339.598Y-179.578
X340.36Y-218.44
X238.506Y-190.246
X228.6Y-187.96
X330.2Y-228.6
X246.126Y-245.364
X280.67Y-198.12
X284.353Y-212.09
X220.98Y-233.68
X294.64Y-223.52
X271.78Y-241.3
X255.27Y-230.632
X240.792Y-190.246
X278.13Y-195.072
X335.28Y-167.132
X228.6Y-223.52
X220.98Y-223.52
X350.52Y-208.28
X245.237Y-184.277
X302.26Y-228.6
X261.62Y-201.168
X276.86Y-236.22
X262.89Y-226.06
X332.74Y-175.26
X281.94Y-204.47
X350.52Y-167.132
X353.06Y-218.44
X336.55Y-206.756
X343.916Y-189.23
X339.852Y-197.612
X233.68Y-185.42
X198.12Y-198.12
X304.673Y-207.645
X217.424Y-183.896
X236.22Y-208.28
X209.804Y-178.816
X340.36Y-215.9
X312.278Y-178.816
X313.578Y-178.816
X255.27Y-233.172
X343.916Y-199.39
X348.488Y-194.31
X207.01Y-186.182
X299.72Y-243.84
X320.04Y-201.676
X198.12Y-203.2
X214.884Y-181.356
X236.22Y-185.42
X238.76Y-228.6
X248.92Y-210.82
X256.54Y-208.28
X307.34Y-201.676
X204.47Y-181.61
X203.2Y-198.12
X254.0Y-214.63
X276.86Y-241.3
X345.44Y-236.22
X197.866Y-178.562
X294.64Y-208.28
X236.22Y-201.168
X218.44Y-200.025
X233.68Y-187.96
X264.16Y-189.23
X255.27Y-226.06
X263.525Y-219.202
X213.36Y-233.68
X229.87Y-180.34
X294.64Y-228.6
X271.78Y-236.22
X226.695Y-233.68
X332.74Y-243.84
X275.59Y-195.072
X332.74Y-167.132
X341.63Y-236.22
X330.2Y-218.44
X205.74Y-223.52
X264.16Y-201.168
X355.6Y-167.132
X293.37Y-190.5
X238.76Y-210.82
X330.2Y-215.9
X213.36Y-218.44
X267.97Y-226.06
X262.89Y-230.632
X284.48Y-204.47
X345.44Y-167.132
X354.584Y-203.962
X241.3Y-201.168
X339.852Y-189.23
T4
X328.803Y-234.422
T5
X244.475Y-204.47
X268.605Y-189.484
X268.605Y-204.47
T6
X195.58Y-213.36
X195.58Y-215.9
X195.58Y-218.44
X195.58Y-220.98
X195.58Y-223.52
X195.58Y-226.06
X195.58Y-228.6
X195.58Y-231.14
X195.58Y-233.68
X195.58Y-236.22
X247.904Y-173.736
X250.444Y-173.736
X213.614Y-172.847
X213.614Y-175.387
X216.154Y-172.847
X216.154Y-175.387
X218.694Y-172.847
X218.694Y-175.387
X221.234Y-172.847
X221.234Y-175.387
X223.774Y-172.847
X223.774Y-175.387
X226.314Y-172.847
X226.314Y-175.387
X228.854Y-172.847
X228.854Y-175.387
X231.394Y-172.847
X231.394Y-175.387
X343.027Y-213.217
X345.567Y-213.217
X348.107Y-213.217
X350.647Y-213.217
X353.187Y-213.217
X355.727Y-213.217
X358.267Y-213.217
X360.807Y-213.217
X363.347Y-213.217
X276.352Y-173.736
X278.892Y-173.736
T7
X204.47Y-183.769
X207.01Y-183.769
X209.55Y-183.769
X212.09Y-183.769
X350.092Y-205.232
X355.092Y-208.832
X360.092Y-205.232
T8
X342.24Y-178.206
X342.24Y-181.61
X342.24Y-185.014
X346.24Y-179.908
X346.24Y-183.312
T9
X194.564Y-176.022
X194.564Y-181.102
X194.564Y-186.182
T10
X363.728Y-181.61
X363.728Y-186.69
X358.648Y-176.53
X363.728Y-176.53
X358.648Y-181.61
X358.648Y-186.69
T11
X353.974Y-176.466
X353.974Y-186.754
T12
X204.704Y-174.387
X240.304Y-174.387
T13
X219.147Y-195.593
X219.147Y-240.043
T14
X263.347Y-195.593
X263.347Y-240.043
T15
X209.55Y-181.609
T16
X343.027Y-242.57
T17
X355.892Y-228.927
T18
X363.347Y-169.037
X295.275Y-201.676
X295.275Y-243.332
X336.931Y-201.676
X336.931Y-243.332
X194.335Y-193.04
X194.335Y-242.57
X288.315Y-193.04
X288.315Y-242.57
X363.347Y-242.57
X194.335Y-169.037
T0
M30
