G04 #@! TF.GenerationSoftware,KiCad,Pcbnew,8.0.6*
G04 #@! TF.CreationDate,2025-01-27T09:26:18-05:00*
G04 #@! TF.ProjectId,clock,636c6f63-6b2e-46b6-9963-61645f706362,v1.2.0*
G04 #@! TF.SameCoordinates,Original*
G04 #@! TF.FileFunction,Profile,NP*
%FSLAX46Y46*%
G04 Gerber Fmt 4.6, Leading zero omitted, Abs format (unit mm)*
G04 Created by KiCad (PCBNEW 8.0.6) date 2025-01-27 09:26:18*
%MOMM*%
%LPD*%
G01*
G04 APERTURE LIST*
G04 #@! TA.AperFunction,Profile*
%ADD10C,0.100000*%
G04 #@! TD*
G04 APERTURE END LIST*
D10*
X204470000Y-165100000D02*
X192087500Y-165100000D01*
X192087500Y-246380000D02*
G75*
G02*
X190500000Y-244792500I0J1587500D01*
G01*
X190500000Y-166687500D02*
G75*
G02*
X192087500Y-165100000I1587500J0D01*
G01*
X365696500Y-165100000D02*
X240538000Y-165100000D01*
X367284000Y-244792500D02*
G75*
G02*
X365696500Y-246380000I-1587500J0D01*
G01*
X303403000Y-238379000D02*
X328803000Y-238379000D01*
X328803000Y-238379000D02*
X328803000Y-241554000D01*
X335153000Y-209804000D02*
X331978000Y-209804000D01*
X367284000Y-244792500D02*
X367284000Y-166687500D01*
X297053000Y-209804000D02*
X297053000Y-235204000D01*
X303403000Y-203454000D02*
X328803000Y-203454000D01*
X365696500Y-165100000D02*
G75*
G02*
X367284000Y-166687500I0J-1587500D01*
G01*
X328803000Y-241554000D02*
X303403000Y-241554000D01*
X331978000Y-235204000D02*
X335153000Y-235204000D01*
X297053000Y-235204000D02*
X300228000Y-235204000D01*
X204470000Y-166370000D02*
X240538000Y-166370000D01*
X328803000Y-206629000D02*
X303403000Y-206629000D01*
X335153000Y-235204000D02*
X335153000Y-209804000D01*
X328803000Y-203454000D02*
X328803000Y-206629000D01*
X240538000Y-166370000D02*
X240538000Y-165100000D01*
X300228000Y-235204000D02*
X300228000Y-209804000D01*
X303403000Y-206629000D02*
X303403000Y-203454000D01*
X204470000Y-165100000D02*
X204470000Y-166370000D01*
X190500000Y-166687500D02*
X190500000Y-244792500D01*
X303403000Y-241554000D02*
X303403000Y-238379000D01*
X300228000Y-209804000D02*
X297053000Y-209804000D01*
X331978000Y-209804000D02*
X331978000Y-235204000D01*
X192087500Y-246380000D02*
X365696500Y-246380000D01*
X297053000Y-209804000D02*
X297053000Y-235204000D01*
X297053000Y-209804000D02*
X300228000Y-209804000D01*
X297053000Y-235204000D02*
X300228000Y-235204000D01*
X300228000Y-209804000D02*
X300228000Y-235204000D01*
X303403000Y-203454000D02*
X328803000Y-203454000D01*
X303403000Y-206629000D02*
X303403000Y-203454000D01*
X303403000Y-206629000D02*
X328803000Y-206629000D01*
X303403000Y-238379000D02*
X303403000Y-241554000D01*
X303403000Y-238379000D02*
X328803000Y-238379000D01*
X303403000Y-241554000D02*
X328803000Y-241554000D01*
X328803000Y-206629000D02*
X328803000Y-203454000D01*
X328803000Y-238379000D02*
X328803000Y-241554000D01*
X331978000Y-209804000D02*
X331978000Y-235204000D01*
X335153000Y-209804000D02*
X331978000Y-209804000D01*
X335153000Y-209804000D02*
X335153000Y-235204000D01*
X335153000Y-235204000D02*
X331978000Y-235204000D01*
M02*
