G04 #@! TF.GenerationSoftware,KiCad,Pcbnew,(5.1.8)*
G04 #@! TF.CreationDate,2021-04-28T10:49:12-04:00*
G04 #@! TF.ProjectId,clock,636c6f63-6b2e-46b6-9963-61645f706362,rev?*
G04 #@! TF.SameCoordinates,Original*
G04 #@! TF.FileFunction,Legend,Bot*
G04 #@! TF.FilePolarity,Positive*
%FSLAX46Y46*%
G04 Gerber Fmt 4.6, Leading zero omitted, Abs format (unit mm)*
G04 Created by KiCad (PCBNEW (5.1.8)) date 2021-04-28 10:49:12*
%MOMM*%
%LPD*%
G01*
G04 APERTURE LIST*
%ADD10C,0.127000*%
%ADD11C,0.150000*%
%ADD12C,1.016000*%
%ADD13C,3.000000*%
%ADD14C,3.175000*%
%ADD15R,1.778000X1.778000*%
%ADD16C,2.200000*%
%ADD17C,1.778000*%
%ADD18C,2.540000*%
%ADD19R,2.000000X1.600000*%
%ADD20C,5.080000*%
%ADD21R,3.000000X3.000000*%
%ADD22C,2.040000*%
%ADD23R,2.040000X2.040000*%
%ADD24C,1.250000*%
%ADD25R,1.300000X1.300000*%
%ADD26R,2.032000X2.032000*%
%ADD27O,2.032000X2.032000*%
%ADD28C,1.200000*%
%ADD29C,0.800000*%
%ADD30C,2.032000*%
%ADD31R,2.032000X1.727200*%
%ADD32O,2.032000X1.727200*%
%ADD33C,6.000000*%
%ADD34R,1.400000X0.600000*%
%ADD35R,1.000000X1.300000*%
%ADD36R,1.300000X1.000000*%
%ADD37R,1.250000X1.300000*%
%ADD38R,1.300000X1.250000*%
%ADD39R,1.500000X1.300000*%
%ADD40R,0.700000X1.200000*%
%ADD41R,1.260000X0.830000*%
%ADD42C,0.889000*%
%ADD43C,1.524000*%
%ADD44C,1.270000*%
G04 APERTURE END LIST*
D10*
X233000428Y-209968900D02*
X232714714Y-209968900D01*
X232857571Y-210837428D02*
X232857571Y-210237428D01*
X232714714Y-209968900D02*
X232086142Y-209968900D01*
X232571857Y-210837428D02*
X232571857Y-210237428D01*
X232229000Y-210837428D01*
X232229000Y-210237428D01*
X232086142Y-209968900D02*
X231629000Y-209968900D01*
X232029000Y-210237428D02*
X231686142Y-210237428D01*
X231857571Y-210837428D02*
X231857571Y-210237428D01*
X231629000Y-209968900D02*
X231057571Y-209968900D01*
X231171857Y-210837428D02*
X231514714Y-210837428D01*
X231343285Y-210837428D02*
X231343285Y-210237428D01*
X231400428Y-210323142D01*
X231457571Y-210380285D01*
X231514714Y-210408857D01*
D11*
X234569000Y-209550000D02*
X233172000Y-210439000D01*
D10*
X290785428Y-213524900D02*
X290499714Y-213524900D01*
X290642571Y-214393428D02*
X290642571Y-213793428D01*
X290499714Y-213524900D02*
X289871142Y-213524900D01*
X290356857Y-214393428D02*
X290356857Y-213793428D01*
X290014000Y-214393428D01*
X290014000Y-213793428D01*
X289871142Y-213524900D02*
X289414000Y-213524900D01*
X289814000Y-213793428D02*
X289471142Y-213793428D01*
X289642571Y-214393428D02*
X289642571Y-213793428D01*
X289414000Y-213524900D02*
X288842571Y-213524900D01*
X289299714Y-213850571D02*
X289271142Y-213822000D01*
X289214000Y-213793428D01*
X289071142Y-213793428D01*
X289014000Y-213822000D01*
X288985428Y-213850571D01*
X288956857Y-213907714D01*
X288956857Y-213964857D01*
X288985428Y-214050571D01*
X289328285Y-214393428D01*
X288956857Y-214393428D01*
D11*
X273939000Y-212090000D02*
X274955000Y-212090000D01*
D10*
X273903857Y-211492900D02*
X273303857Y-211492900D01*
X273418142Y-212361428D02*
X273618142Y-212075714D01*
X273761000Y-212361428D02*
X273761000Y-211761428D01*
X273532428Y-211761428D01*
X273475285Y-211790000D01*
X273446714Y-211818571D01*
X273418142Y-211875714D01*
X273418142Y-211961428D01*
X273446714Y-212018571D01*
X273475285Y-212047142D01*
X273532428Y-212075714D01*
X273761000Y-212075714D01*
X273303857Y-211492900D02*
X272846714Y-211492900D01*
X273246714Y-211761428D02*
X272903857Y-211761428D01*
X273075285Y-212361428D02*
X273075285Y-211761428D01*
X272846714Y-211492900D02*
X272246714Y-211492900D01*
X272361000Y-212304285D02*
X272389571Y-212332857D01*
X272475285Y-212361428D01*
X272532428Y-212361428D01*
X272618142Y-212332857D01*
X272675285Y-212275714D01*
X272703857Y-212218571D01*
X272732428Y-212104285D01*
X272732428Y-212018571D01*
X272703857Y-211904285D01*
X272675285Y-211847142D01*
X272618142Y-211790000D01*
X272532428Y-211761428D01*
X272475285Y-211761428D01*
X272389571Y-211790000D01*
X272361000Y-211818571D01*
X272246714Y-211492900D02*
X271789571Y-211492900D01*
X272246714Y-212418571D02*
X271789571Y-212418571D01*
X271789571Y-211492900D02*
X271503857Y-211492900D01*
X271646714Y-212361428D02*
X271646714Y-211761428D01*
X271503857Y-211492900D02*
X270875285Y-211492900D01*
X271361000Y-212361428D02*
X271361000Y-211761428D01*
X271018142Y-212361428D01*
X271018142Y-211761428D01*
X270875285Y-211492900D02*
X270418142Y-211492900D01*
X270818142Y-211761428D02*
X270475285Y-211761428D01*
X270646714Y-212361428D02*
X270646714Y-211761428D01*
D11*
X286258000Y-235966000D02*
X285369000Y-235331000D01*
D10*
X291907571Y-236237428D02*
X291907571Y-235637428D01*
X291764714Y-235637428D01*
X291679000Y-235666000D01*
X291621857Y-235723142D01*
X291593285Y-235780285D01*
X291564714Y-235894571D01*
X291564714Y-235980285D01*
X291593285Y-236094571D01*
X291621857Y-236151714D01*
X291679000Y-236208857D01*
X291764714Y-236237428D01*
X291907571Y-236237428D01*
X291336142Y-236066000D02*
X291050428Y-236066000D01*
X291393285Y-236237428D02*
X291193285Y-235637428D01*
X290993285Y-236237428D01*
X290450428Y-236180285D02*
X290479000Y-236208857D01*
X290564714Y-236237428D01*
X290621857Y-236237428D01*
X290707571Y-236208857D01*
X290764714Y-236151714D01*
X290793285Y-236094571D01*
X290821857Y-235980285D01*
X290821857Y-235894571D01*
X290793285Y-235780285D01*
X290764714Y-235723142D01*
X290707571Y-235666000D01*
X290621857Y-235637428D01*
X290564714Y-235637428D01*
X290479000Y-235666000D01*
X290450428Y-235694571D01*
X290336142Y-236294571D02*
X289879000Y-236294571D01*
X289621857Y-235637428D02*
X289507571Y-235637428D01*
X289450428Y-235666000D01*
X289393285Y-235723142D01*
X289364714Y-235837428D01*
X289364714Y-236037428D01*
X289393285Y-236151714D01*
X289450428Y-236208857D01*
X289507571Y-236237428D01*
X289621857Y-236237428D01*
X289679000Y-236208857D01*
X289736142Y-236151714D01*
X289764714Y-236037428D01*
X289764714Y-235837428D01*
X289736142Y-235723142D01*
X289679000Y-235666000D01*
X289621857Y-235637428D01*
X289107571Y-235637428D02*
X289107571Y-236123142D01*
X289079000Y-236180285D01*
X289050428Y-236208857D01*
X288993285Y-236237428D01*
X288879000Y-236237428D01*
X288821857Y-236208857D01*
X288793285Y-236180285D01*
X288764714Y-236123142D01*
X288764714Y-235637428D01*
X288564714Y-235637428D02*
X288221857Y-235637428D01*
X288393285Y-236237428D02*
X288393285Y-235637428D01*
X288164714Y-236294571D02*
X287707571Y-236294571D01*
X287564714Y-236237428D02*
X287564714Y-235637428D01*
X287421857Y-235637428D01*
X287336142Y-235666000D01*
X287279000Y-235723142D01*
X287250428Y-235780285D01*
X287221857Y-235894571D01*
X287221857Y-235980285D01*
X287250428Y-236094571D01*
X287279000Y-236151714D01*
X287336142Y-236208857D01*
X287421857Y-236237428D01*
X287564714Y-236237428D01*
X286964714Y-236237428D02*
X286964714Y-235637428D01*
X286764714Y-235637428D02*
X286564714Y-236237428D01*
X286364714Y-235637428D01*
D11*
X275717000Y-207772000D02*
X276733000Y-209169000D01*
D10*
X275226285Y-208043428D02*
X275426285Y-207757714D01*
X275569142Y-208043428D02*
X275569142Y-207443428D01*
X275340571Y-207443428D01*
X275283428Y-207472000D01*
X275254857Y-207500571D01*
X275226285Y-207557714D01*
X275226285Y-207643428D01*
X275254857Y-207700571D01*
X275283428Y-207729142D01*
X275340571Y-207757714D01*
X275569142Y-207757714D01*
X275054857Y-207443428D02*
X274712000Y-207443428D01*
X274883428Y-208043428D02*
X274883428Y-207443428D01*
X274169142Y-207986285D02*
X274197714Y-208014857D01*
X274283428Y-208043428D01*
X274340571Y-208043428D01*
X274426285Y-208014857D01*
X274483428Y-207957714D01*
X274512000Y-207900571D01*
X274540571Y-207786285D01*
X274540571Y-207700571D01*
X274512000Y-207586285D01*
X274483428Y-207529142D01*
X274426285Y-207472000D01*
X274340571Y-207443428D01*
X274283428Y-207443428D01*
X274197714Y-207472000D01*
X274169142Y-207500571D01*
X274054857Y-208100571D02*
X273597714Y-208100571D01*
X273483428Y-208014857D02*
X273397714Y-208043428D01*
X273254857Y-208043428D01*
X273197714Y-208014857D01*
X273169142Y-207986285D01*
X273140571Y-207929142D01*
X273140571Y-207872000D01*
X273169142Y-207814857D01*
X273197714Y-207786285D01*
X273254857Y-207757714D01*
X273369142Y-207729142D01*
X273426285Y-207700571D01*
X273454857Y-207672000D01*
X273483428Y-207614857D01*
X273483428Y-207557714D01*
X273454857Y-207500571D01*
X273426285Y-207472000D01*
X273369142Y-207443428D01*
X273226285Y-207443428D01*
X273140571Y-207472000D01*
X272883428Y-208043428D02*
X272883428Y-207443428D01*
X272740571Y-207443428D01*
X272654857Y-207472000D01*
X272597714Y-207529142D01*
X272569142Y-207586285D01*
X272540571Y-207700571D01*
X272540571Y-207786285D01*
X272569142Y-207900571D01*
X272597714Y-207957714D01*
X272654857Y-208014857D01*
X272740571Y-208043428D01*
X272883428Y-208043428D01*
X272312000Y-207872000D02*
X272026285Y-207872000D01*
X272369142Y-208043428D02*
X272169142Y-207443428D01*
X271969142Y-208043428D01*
D11*
X274701000Y-208661000D02*
X275463000Y-209169000D01*
D10*
X274196000Y-208932428D02*
X274396000Y-208646714D01*
X274538857Y-208932428D02*
X274538857Y-208332428D01*
X274310285Y-208332428D01*
X274253142Y-208361000D01*
X274224571Y-208389571D01*
X274196000Y-208446714D01*
X274196000Y-208532428D01*
X274224571Y-208589571D01*
X274253142Y-208618142D01*
X274310285Y-208646714D01*
X274538857Y-208646714D01*
X274024571Y-208332428D02*
X273681714Y-208332428D01*
X273853142Y-208932428D02*
X273853142Y-208332428D01*
X273138857Y-208875285D02*
X273167428Y-208903857D01*
X273253142Y-208932428D01*
X273310285Y-208932428D01*
X273396000Y-208903857D01*
X273453142Y-208846714D01*
X273481714Y-208789571D01*
X273510285Y-208675285D01*
X273510285Y-208589571D01*
X273481714Y-208475285D01*
X273453142Y-208418142D01*
X273396000Y-208361000D01*
X273310285Y-208332428D01*
X273253142Y-208332428D01*
X273167428Y-208361000D01*
X273138857Y-208389571D01*
X273024571Y-208989571D02*
X272567428Y-208989571D01*
X272453142Y-208903857D02*
X272367428Y-208932428D01*
X272224571Y-208932428D01*
X272167428Y-208903857D01*
X272138857Y-208875285D01*
X272110285Y-208818142D01*
X272110285Y-208761000D01*
X272138857Y-208703857D01*
X272167428Y-208675285D01*
X272224571Y-208646714D01*
X272338857Y-208618142D01*
X272396000Y-208589571D01*
X272424571Y-208561000D01*
X272453142Y-208503857D01*
X272453142Y-208446714D01*
X272424571Y-208389571D01*
X272396000Y-208361000D01*
X272338857Y-208332428D01*
X272196000Y-208332428D01*
X272110285Y-208361000D01*
X271510285Y-208875285D02*
X271538857Y-208903857D01*
X271624571Y-208932428D01*
X271681714Y-208932428D01*
X271767428Y-208903857D01*
X271824571Y-208846714D01*
X271853142Y-208789571D01*
X271881714Y-208675285D01*
X271881714Y-208589571D01*
X271853142Y-208475285D01*
X271824571Y-208418142D01*
X271767428Y-208361000D01*
X271681714Y-208332428D01*
X271624571Y-208332428D01*
X271538857Y-208361000D01*
X271510285Y-208389571D01*
X270967428Y-208932428D02*
X271253142Y-208932428D01*
X271253142Y-208332428D01*
D11*
X273812000Y-214630000D02*
X274955000Y-214249000D01*
D10*
X273673714Y-214301428D02*
X273302285Y-214301428D01*
X273502285Y-214530000D01*
X273416571Y-214530000D01*
X273359428Y-214558571D01*
X273330857Y-214587142D01*
X273302285Y-214644285D01*
X273302285Y-214787142D01*
X273330857Y-214844285D01*
X273359428Y-214872857D01*
X273416571Y-214901428D01*
X273588000Y-214901428D01*
X273645142Y-214872857D01*
X273673714Y-214844285D01*
X273073714Y-214358571D02*
X273045142Y-214330000D01*
X272988000Y-214301428D01*
X272845142Y-214301428D01*
X272788000Y-214330000D01*
X272759428Y-214358571D01*
X272730857Y-214415714D01*
X272730857Y-214472857D01*
X272759428Y-214558571D01*
X273102285Y-214901428D01*
X272730857Y-214901428D01*
X272473714Y-214901428D02*
X272473714Y-214301428D01*
X272130857Y-214901428D02*
X272388000Y-214558571D01*
X272130857Y-214301428D02*
X272473714Y-214644285D01*
X271873714Y-214901428D02*
X271873714Y-214301428D01*
X271873714Y-214587142D02*
X271530857Y-214587142D01*
X271530857Y-214901428D02*
X271530857Y-214301428D01*
X271302285Y-214301428D02*
X270902285Y-214301428D01*
X271302285Y-214901428D01*
X270902285Y-214901428D01*
D11*
X275590000Y-223139000D02*
X276479000Y-223139000D01*
D10*
X280184000Y-223410428D02*
X280184000Y-222810428D01*
X280041142Y-222810428D01*
X279955428Y-222839000D01*
X279898285Y-222896142D01*
X279869714Y-222953285D01*
X279841142Y-223067571D01*
X279841142Y-223153285D01*
X279869714Y-223267571D01*
X279898285Y-223324714D01*
X279955428Y-223381857D01*
X280041142Y-223410428D01*
X280184000Y-223410428D01*
X279612571Y-223239000D02*
X279326857Y-223239000D01*
X279669714Y-223410428D02*
X279469714Y-222810428D01*
X279269714Y-223410428D01*
X278726857Y-223353285D02*
X278755428Y-223381857D01*
X278841142Y-223410428D01*
X278898285Y-223410428D01*
X278984000Y-223381857D01*
X279041142Y-223324714D01*
X279069714Y-223267571D01*
X279098285Y-223153285D01*
X279098285Y-223067571D01*
X279069714Y-222953285D01*
X279041142Y-222896142D01*
X278984000Y-222839000D01*
X278898285Y-222810428D01*
X278841142Y-222810428D01*
X278755428Y-222839000D01*
X278726857Y-222867571D01*
X278612571Y-223467571D02*
X278155428Y-223467571D01*
X277898285Y-222810428D02*
X277784000Y-222810428D01*
X277726857Y-222839000D01*
X277669714Y-222896142D01*
X277641142Y-223010428D01*
X277641142Y-223210428D01*
X277669714Y-223324714D01*
X277726857Y-223381857D01*
X277784000Y-223410428D01*
X277898285Y-223410428D01*
X277955428Y-223381857D01*
X278012571Y-223324714D01*
X278041142Y-223210428D01*
X278041142Y-223010428D01*
X278012571Y-222896142D01*
X277955428Y-222839000D01*
X277898285Y-222810428D01*
X277384000Y-222810428D02*
X277384000Y-223296142D01*
X277355428Y-223353285D01*
X277326857Y-223381857D01*
X277269714Y-223410428D01*
X277155428Y-223410428D01*
X277098285Y-223381857D01*
X277069714Y-223353285D01*
X277041142Y-223296142D01*
X277041142Y-222810428D01*
X276841142Y-222810428D02*
X276498285Y-222810428D01*
X276669714Y-223410428D02*
X276669714Y-222810428D01*
D11*
X282956000Y-228473000D02*
X283972000Y-228473000D01*
D10*
X289366000Y-228144428D02*
X289166000Y-228744428D01*
X288966000Y-228144428D01*
X288451714Y-228173000D02*
X288508857Y-228144428D01*
X288594571Y-228144428D01*
X288680285Y-228173000D01*
X288737428Y-228230142D01*
X288766000Y-228287285D01*
X288794571Y-228401571D01*
X288794571Y-228487285D01*
X288766000Y-228601571D01*
X288737428Y-228658714D01*
X288680285Y-228715857D01*
X288594571Y-228744428D01*
X288537428Y-228744428D01*
X288451714Y-228715857D01*
X288423142Y-228687285D01*
X288423142Y-228487285D01*
X288537428Y-228487285D01*
X288166000Y-228744428D02*
X288166000Y-228144428D01*
X287823142Y-228744428D01*
X287823142Y-228144428D01*
X287537428Y-228744428D02*
X287537428Y-228144428D01*
X287394571Y-228144428D01*
X287308857Y-228173000D01*
X287251714Y-228230142D01*
X287223142Y-228287285D01*
X287194571Y-228401571D01*
X287194571Y-228487285D01*
X287223142Y-228601571D01*
X287251714Y-228658714D01*
X287308857Y-228715857D01*
X287394571Y-228744428D01*
X287537428Y-228744428D01*
X287080285Y-228801571D02*
X286623142Y-228801571D01*
X286166000Y-228744428D02*
X286508857Y-228744428D01*
X286337428Y-228744428D02*
X286337428Y-228144428D01*
X286394571Y-228230142D01*
X286451714Y-228287285D01*
X286508857Y-228315857D01*
X285908857Y-228687285D02*
X285880285Y-228715857D01*
X285908857Y-228744428D01*
X285937428Y-228715857D01*
X285908857Y-228687285D01*
X285908857Y-228744428D01*
X285366000Y-228144428D02*
X285480285Y-228144428D01*
X285537428Y-228173000D01*
X285566000Y-228201571D01*
X285623142Y-228287285D01*
X285651714Y-228401571D01*
X285651714Y-228630142D01*
X285623142Y-228687285D01*
X285594571Y-228715857D01*
X285537428Y-228744428D01*
X285423142Y-228744428D01*
X285366000Y-228715857D01*
X285337428Y-228687285D01*
X285308857Y-228630142D01*
X285308857Y-228487285D01*
X285337428Y-228430142D01*
X285366000Y-228401571D01*
X285423142Y-228373000D01*
X285537428Y-228373000D01*
X285594571Y-228401571D01*
X285623142Y-228430142D01*
X285651714Y-228487285D01*
X284766000Y-228144428D02*
X285051714Y-228144428D01*
X285080285Y-228430142D01*
X285051714Y-228401571D01*
X284994571Y-228373000D01*
X284851714Y-228373000D01*
X284794571Y-228401571D01*
X284766000Y-228430142D01*
X284737428Y-228487285D01*
X284737428Y-228630142D01*
X284766000Y-228687285D01*
X284794571Y-228715857D01*
X284851714Y-228744428D01*
X284994571Y-228744428D01*
X285051714Y-228715857D01*
X285080285Y-228687285D01*
X284566000Y-228144428D02*
X284366000Y-228744428D01*
X284166000Y-228144428D01*
D11*
X290576000Y-230632000D02*
X289687000Y-229997000D01*
X238506000Y-208915000D02*
X239268000Y-209423000D01*
X249809000Y-216916000D02*
X248793000Y-217551000D01*
X251206000Y-214884000D02*
X250698000Y-216027000D01*
X271145000Y-228727000D02*
X272796000Y-227330000D01*
X272288000Y-229108000D02*
X273558000Y-229743000D01*
X271780000Y-223139000D02*
X273050000Y-221869000D01*
X243840000Y-214503000D02*
X242570000Y-216281000D01*
X242951000Y-213487000D02*
X241935000Y-215138000D01*
D10*
X248014857Y-213666428D02*
X247672000Y-213666428D01*
X247843428Y-214266428D02*
X247843428Y-213666428D01*
X247472000Y-213952142D02*
X247272000Y-213952142D01*
X247186285Y-214266428D02*
X247472000Y-214266428D01*
X247472000Y-213666428D01*
X247186285Y-213666428D01*
X246929142Y-214266428D02*
X246929142Y-213666428D01*
X246729142Y-214095000D01*
X246529142Y-213666428D01*
X246529142Y-214266428D01*
X246243428Y-214266428D02*
X246243428Y-213666428D01*
X246014857Y-213666428D01*
X245957714Y-213695000D01*
X245929142Y-213723571D01*
X245900571Y-213780714D01*
X245900571Y-213866428D01*
X245929142Y-213923571D01*
X245957714Y-213952142D01*
X246014857Y-213980714D01*
X246243428Y-213980714D01*
X245786285Y-214323571D02*
X245329142Y-214323571D01*
X245214857Y-214237857D02*
X245129142Y-214266428D01*
X244986285Y-214266428D01*
X244929142Y-214237857D01*
X244900571Y-214209285D01*
X244872000Y-214152142D01*
X244872000Y-214095000D01*
X244900571Y-214037857D01*
X244929142Y-214009285D01*
X244986285Y-213980714D01*
X245100571Y-213952142D01*
X245157714Y-213923571D01*
X245186285Y-213895000D01*
X245214857Y-213837857D01*
X245214857Y-213780714D01*
X245186285Y-213723571D01*
X245157714Y-213695000D01*
X245100571Y-213666428D01*
X244957714Y-213666428D01*
X244872000Y-213695000D01*
X244272000Y-214209285D02*
X244300571Y-214237857D01*
X244386285Y-214266428D01*
X244443428Y-214266428D01*
X244529142Y-214237857D01*
X244586285Y-214180714D01*
X244614857Y-214123571D01*
X244643428Y-214009285D01*
X244643428Y-213923571D01*
X244614857Y-213809285D01*
X244586285Y-213752142D01*
X244529142Y-213695000D01*
X244443428Y-213666428D01*
X244386285Y-213666428D01*
X244300571Y-213695000D01*
X244272000Y-213723571D01*
X243729142Y-214266428D02*
X244014857Y-214266428D01*
X244014857Y-213666428D01*
X247140142Y-212650428D02*
X246797285Y-212650428D01*
X246968714Y-213250428D02*
X246968714Y-212650428D01*
X246597285Y-212936142D02*
X246397285Y-212936142D01*
X246311571Y-213250428D02*
X246597285Y-213250428D01*
X246597285Y-212650428D01*
X246311571Y-212650428D01*
X246054428Y-213250428D02*
X246054428Y-212650428D01*
X245854428Y-213079000D01*
X245654428Y-212650428D01*
X245654428Y-213250428D01*
X245368714Y-213250428D02*
X245368714Y-212650428D01*
X245140142Y-212650428D01*
X245083000Y-212679000D01*
X245054428Y-212707571D01*
X245025857Y-212764714D01*
X245025857Y-212850428D01*
X245054428Y-212907571D01*
X245083000Y-212936142D01*
X245140142Y-212964714D01*
X245368714Y-212964714D01*
X244911571Y-213307571D02*
X244454428Y-213307571D01*
X244340142Y-213221857D02*
X244254428Y-213250428D01*
X244111571Y-213250428D01*
X244054428Y-213221857D01*
X244025857Y-213193285D01*
X243997285Y-213136142D01*
X243997285Y-213079000D01*
X244025857Y-213021857D01*
X244054428Y-212993285D01*
X244111571Y-212964714D01*
X244225857Y-212936142D01*
X244283000Y-212907571D01*
X244311571Y-212879000D01*
X244340142Y-212821857D01*
X244340142Y-212764714D01*
X244311571Y-212707571D01*
X244283000Y-212679000D01*
X244225857Y-212650428D01*
X244083000Y-212650428D01*
X243997285Y-212679000D01*
X243740142Y-213250428D02*
X243740142Y-212650428D01*
X243597285Y-212650428D01*
X243511571Y-212679000D01*
X243454428Y-212736142D01*
X243425857Y-212793285D01*
X243397285Y-212907571D01*
X243397285Y-212993285D01*
X243425857Y-213107571D01*
X243454428Y-213164714D01*
X243511571Y-213221857D01*
X243597285Y-213250428D01*
X243740142Y-213250428D01*
X243168714Y-213079000D02*
X242883000Y-213079000D01*
X243225857Y-213250428D02*
X243025857Y-212650428D01*
X242825857Y-213250428D01*
X241976142Y-209694428D02*
X242319000Y-209694428D01*
X242147571Y-209694428D02*
X242147571Y-209094428D01*
X242204714Y-209180142D01*
X242261857Y-209237285D01*
X242319000Y-209265857D01*
X241604714Y-209094428D02*
X241547571Y-209094428D01*
X241490428Y-209123000D01*
X241461857Y-209151571D01*
X241433285Y-209208714D01*
X241404714Y-209323000D01*
X241404714Y-209465857D01*
X241433285Y-209580142D01*
X241461857Y-209637285D01*
X241490428Y-209665857D01*
X241547571Y-209694428D01*
X241604714Y-209694428D01*
X241661857Y-209665857D01*
X241690428Y-209637285D01*
X241719000Y-209580142D01*
X241747571Y-209465857D01*
X241747571Y-209323000D01*
X241719000Y-209208714D01*
X241690428Y-209151571D01*
X241661857Y-209123000D01*
X241604714Y-209094428D01*
X241147571Y-209694428D02*
X241147571Y-209094428D01*
X240947571Y-209523000D01*
X240747571Y-209094428D01*
X240747571Y-209694428D01*
X240461857Y-209694428D02*
X240461857Y-209094428D01*
X240461857Y-209380142D02*
X240119000Y-209380142D01*
X240119000Y-209694428D02*
X240119000Y-209094428D01*
X239890428Y-209094428D02*
X239490428Y-209094428D01*
X239890428Y-209694428D01*
X239490428Y-209694428D01*
X248408571Y-217222428D02*
X248294285Y-217222428D01*
X248237142Y-217251000D01*
X248180000Y-217308142D01*
X248151428Y-217422428D01*
X248151428Y-217622428D01*
X248180000Y-217736714D01*
X248237142Y-217793857D01*
X248294285Y-217822428D01*
X248408571Y-217822428D01*
X248465714Y-217793857D01*
X248522857Y-217736714D01*
X248551428Y-217622428D01*
X248551428Y-217422428D01*
X248522857Y-217308142D01*
X248465714Y-217251000D01*
X248408571Y-217222428D01*
X247551428Y-217765285D02*
X247580000Y-217793857D01*
X247665714Y-217822428D01*
X247722857Y-217822428D01*
X247808571Y-217793857D01*
X247865714Y-217736714D01*
X247894285Y-217679571D01*
X247922857Y-217565285D01*
X247922857Y-217479571D01*
X247894285Y-217365285D01*
X247865714Y-217308142D01*
X247808571Y-217251000D01*
X247722857Y-217222428D01*
X247665714Y-217222428D01*
X247580000Y-217251000D01*
X247551428Y-217279571D01*
X247351428Y-217222428D02*
X246951428Y-217822428D01*
X246951428Y-217222428D02*
X247351428Y-217822428D01*
X246608571Y-217222428D02*
X246494285Y-217222428D01*
X246437142Y-217251000D01*
X246380000Y-217308142D01*
X246351428Y-217422428D01*
X246351428Y-217622428D01*
X246380000Y-217736714D01*
X246437142Y-217793857D01*
X246494285Y-217822428D01*
X246608571Y-217822428D01*
X246665714Y-217793857D01*
X246722857Y-217736714D01*
X246751428Y-217622428D01*
X246751428Y-217422428D01*
X246722857Y-217308142D01*
X246665714Y-217251000D01*
X246608571Y-217222428D01*
X246237142Y-217879571D02*
X245780000Y-217879571D01*
X245665714Y-217793857D02*
X245580000Y-217822428D01*
X245437142Y-217822428D01*
X245380000Y-217793857D01*
X245351428Y-217765285D01*
X245322857Y-217708142D01*
X245322857Y-217651000D01*
X245351428Y-217593857D01*
X245380000Y-217565285D01*
X245437142Y-217536714D01*
X245551428Y-217508142D01*
X245608571Y-217479571D01*
X245637142Y-217451000D01*
X245665714Y-217393857D01*
X245665714Y-217336714D01*
X245637142Y-217279571D01*
X245608571Y-217251000D01*
X245551428Y-217222428D01*
X245408571Y-217222428D01*
X245322857Y-217251000D01*
X245065714Y-217822428D02*
X245065714Y-217222428D01*
X244922857Y-217222428D01*
X244837142Y-217251000D01*
X244780000Y-217308142D01*
X244751428Y-217365285D01*
X244722857Y-217479571D01*
X244722857Y-217565285D01*
X244751428Y-217679571D01*
X244780000Y-217736714D01*
X244837142Y-217793857D01*
X244922857Y-217822428D01*
X245065714Y-217822428D01*
X244494285Y-217651000D02*
X244208571Y-217651000D01*
X244551428Y-217822428D02*
X244351428Y-217222428D01*
X244151428Y-217822428D01*
X253093285Y-213920428D02*
X252979000Y-213920428D01*
X252921857Y-213949000D01*
X252864714Y-214006142D01*
X252836142Y-214120428D01*
X252836142Y-214320428D01*
X252864714Y-214434714D01*
X252921857Y-214491857D01*
X252979000Y-214520428D01*
X253093285Y-214520428D01*
X253150428Y-214491857D01*
X253207571Y-214434714D01*
X253236142Y-214320428D01*
X253236142Y-214120428D01*
X253207571Y-214006142D01*
X253150428Y-213949000D01*
X253093285Y-213920428D01*
X252236142Y-214463285D02*
X252264714Y-214491857D01*
X252350428Y-214520428D01*
X252407571Y-214520428D01*
X252493285Y-214491857D01*
X252550428Y-214434714D01*
X252579000Y-214377571D01*
X252607571Y-214263285D01*
X252607571Y-214177571D01*
X252579000Y-214063285D01*
X252550428Y-214006142D01*
X252493285Y-213949000D01*
X252407571Y-213920428D01*
X252350428Y-213920428D01*
X252264714Y-213949000D01*
X252236142Y-213977571D01*
X252036142Y-213920428D02*
X251636142Y-214520428D01*
X251636142Y-213920428D02*
X252036142Y-214520428D01*
X251293285Y-213920428D02*
X251179000Y-213920428D01*
X251121857Y-213949000D01*
X251064714Y-214006142D01*
X251036142Y-214120428D01*
X251036142Y-214320428D01*
X251064714Y-214434714D01*
X251121857Y-214491857D01*
X251179000Y-214520428D01*
X251293285Y-214520428D01*
X251350428Y-214491857D01*
X251407571Y-214434714D01*
X251436142Y-214320428D01*
X251436142Y-214120428D01*
X251407571Y-214006142D01*
X251350428Y-213949000D01*
X251293285Y-213920428D01*
X250921857Y-214577571D02*
X250464714Y-214577571D01*
X250350428Y-214491857D02*
X250264714Y-214520428D01*
X250121857Y-214520428D01*
X250064714Y-214491857D01*
X250036142Y-214463285D01*
X250007571Y-214406142D01*
X250007571Y-214349000D01*
X250036142Y-214291857D01*
X250064714Y-214263285D01*
X250121857Y-214234714D01*
X250236142Y-214206142D01*
X250293285Y-214177571D01*
X250321857Y-214149000D01*
X250350428Y-214091857D01*
X250350428Y-214034714D01*
X250321857Y-213977571D01*
X250293285Y-213949000D01*
X250236142Y-213920428D01*
X250093285Y-213920428D01*
X250007571Y-213949000D01*
X249407571Y-214463285D02*
X249436142Y-214491857D01*
X249521857Y-214520428D01*
X249579000Y-214520428D01*
X249664714Y-214491857D01*
X249721857Y-214434714D01*
X249750428Y-214377571D01*
X249779000Y-214263285D01*
X249779000Y-214177571D01*
X249750428Y-214063285D01*
X249721857Y-214006142D01*
X249664714Y-213949000D01*
X249579000Y-213920428D01*
X249521857Y-213920428D01*
X249436142Y-213949000D01*
X249407571Y-213977571D01*
X248864714Y-214520428D02*
X249150428Y-214520428D01*
X249150428Y-213920428D01*
X290528285Y-222775428D02*
X290871142Y-222775428D01*
X290699714Y-222775428D02*
X290699714Y-222175428D01*
X290756857Y-222261142D01*
X290814000Y-222318285D01*
X290871142Y-222346857D01*
X290271142Y-222775428D02*
X290271142Y-222175428D01*
X290042571Y-222175428D01*
X289985428Y-222204000D01*
X289956857Y-222232571D01*
X289928285Y-222289714D01*
X289928285Y-222375428D01*
X289956857Y-222432571D01*
X289985428Y-222461142D01*
X290042571Y-222489714D01*
X290271142Y-222489714D01*
X289671142Y-222775428D02*
X289671142Y-222175428D01*
X289442571Y-222175428D01*
X289385428Y-222204000D01*
X289356857Y-222232571D01*
X289328285Y-222289714D01*
X289328285Y-222375428D01*
X289356857Y-222432571D01*
X289385428Y-222461142D01*
X289442571Y-222489714D01*
X289671142Y-222489714D01*
X289099714Y-222746857D02*
X289014000Y-222775428D01*
X288871142Y-222775428D01*
X288814000Y-222746857D01*
X288785428Y-222718285D01*
X288756857Y-222661142D01*
X288756857Y-222604000D01*
X288785428Y-222546857D01*
X288814000Y-222518285D01*
X288871142Y-222489714D01*
X288985428Y-222461142D01*
X289042571Y-222432571D01*
X289071142Y-222404000D01*
X289099714Y-222346857D01*
X289099714Y-222289714D01*
X289071142Y-222232571D01*
X289042571Y-222204000D01*
X288985428Y-222175428D01*
X288842571Y-222175428D01*
X288756857Y-222204000D01*
X291056857Y-220680000D02*
X291114000Y-220651428D01*
X291199714Y-220651428D01*
X291285428Y-220680000D01*
X291342571Y-220737142D01*
X291371142Y-220794285D01*
X291399714Y-220908571D01*
X291399714Y-220994285D01*
X291371142Y-221108571D01*
X291342571Y-221165714D01*
X291285428Y-221222857D01*
X291199714Y-221251428D01*
X291142571Y-221251428D01*
X291056857Y-221222857D01*
X291028285Y-221194285D01*
X291028285Y-220994285D01*
X291142571Y-220994285D01*
X290771142Y-221251428D02*
X290771142Y-220651428D01*
X290542571Y-220651428D01*
X290485428Y-220680000D01*
X290456857Y-220708571D01*
X290428285Y-220765714D01*
X290428285Y-220851428D01*
X290456857Y-220908571D01*
X290485428Y-220937142D01*
X290542571Y-220965714D01*
X290771142Y-220965714D01*
X290199714Y-221222857D02*
X290114000Y-221251428D01*
X289971142Y-221251428D01*
X289914000Y-221222857D01*
X289885428Y-221194285D01*
X289856857Y-221137142D01*
X289856857Y-221080000D01*
X289885428Y-221022857D01*
X289914000Y-220994285D01*
X289971142Y-220965714D01*
X290085428Y-220937142D01*
X290142571Y-220908571D01*
X290171142Y-220880000D01*
X290199714Y-220822857D01*
X290199714Y-220765714D01*
X290171142Y-220708571D01*
X290142571Y-220680000D01*
X290085428Y-220651428D01*
X289942571Y-220651428D01*
X289856857Y-220680000D01*
X289742571Y-221308571D02*
X289285428Y-221308571D01*
X288799714Y-221251428D02*
X288999714Y-220965714D01*
X289142571Y-221251428D02*
X289142571Y-220651428D01*
X288914000Y-220651428D01*
X288856857Y-220680000D01*
X288828285Y-220708571D01*
X288799714Y-220765714D01*
X288799714Y-220851428D01*
X288828285Y-220908571D01*
X288856857Y-220937142D01*
X288914000Y-220965714D01*
X289142571Y-220965714D01*
X288599714Y-220651428D02*
X288199714Y-221251428D01*
X288199714Y-220651428D02*
X288599714Y-221251428D01*
X290985428Y-219156000D02*
X291042571Y-219127428D01*
X291128285Y-219127428D01*
X291214000Y-219156000D01*
X291271142Y-219213142D01*
X291299714Y-219270285D01*
X291328285Y-219384571D01*
X291328285Y-219470285D01*
X291299714Y-219584571D01*
X291271142Y-219641714D01*
X291214000Y-219698857D01*
X291128285Y-219727428D01*
X291071142Y-219727428D01*
X290985428Y-219698857D01*
X290956857Y-219670285D01*
X290956857Y-219470285D01*
X291071142Y-219470285D01*
X290699714Y-219727428D02*
X290699714Y-219127428D01*
X290471142Y-219127428D01*
X290414000Y-219156000D01*
X290385428Y-219184571D01*
X290356857Y-219241714D01*
X290356857Y-219327428D01*
X290385428Y-219384571D01*
X290414000Y-219413142D01*
X290471142Y-219441714D01*
X290699714Y-219441714D01*
X290128285Y-219698857D02*
X290042571Y-219727428D01*
X289899714Y-219727428D01*
X289842571Y-219698857D01*
X289814000Y-219670285D01*
X289785428Y-219613142D01*
X289785428Y-219556000D01*
X289814000Y-219498857D01*
X289842571Y-219470285D01*
X289899714Y-219441714D01*
X290014000Y-219413142D01*
X290071142Y-219384571D01*
X290099714Y-219356000D01*
X290128285Y-219298857D01*
X290128285Y-219241714D01*
X290099714Y-219184571D01*
X290071142Y-219156000D01*
X290014000Y-219127428D01*
X289871142Y-219127428D01*
X289785428Y-219156000D01*
X289671142Y-219784571D02*
X289214000Y-219784571D01*
X289156857Y-219127428D02*
X288814000Y-219127428D01*
X288985428Y-219727428D02*
X288985428Y-219127428D01*
X288671142Y-219127428D02*
X288271142Y-219727428D01*
X288271142Y-219127428D02*
X288671142Y-219727428D01*
X290856857Y-217603428D02*
X290485428Y-217603428D01*
X290685428Y-217832000D01*
X290599714Y-217832000D01*
X290542571Y-217860571D01*
X290514000Y-217889142D01*
X290485428Y-217946285D01*
X290485428Y-218089142D01*
X290514000Y-218146285D01*
X290542571Y-218174857D01*
X290599714Y-218203428D01*
X290771142Y-218203428D01*
X290828285Y-218174857D01*
X290856857Y-218146285D01*
X290228285Y-218203428D02*
X290228285Y-217603428D01*
X290085428Y-217603428D01*
X289999714Y-217632000D01*
X289942571Y-217689142D01*
X289914000Y-217746285D01*
X289885428Y-217860571D01*
X289885428Y-217946285D01*
X289914000Y-218060571D01*
X289942571Y-218117714D01*
X289999714Y-218174857D01*
X290085428Y-218203428D01*
X290228285Y-218203428D01*
X289428285Y-217889142D02*
X289628285Y-217889142D01*
X289628285Y-218203428D02*
X289628285Y-217603428D01*
X289342571Y-217603428D01*
X289171142Y-217603428D02*
X288771142Y-218203428D01*
X288771142Y-217603428D02*
X289171142Y-218203428D01*
X290828285Y-216904857D02*
X290742571Y-216933428D01*
X290599714Y-216933428D01*
X290542571Y-216904857D01*
X290514000Y-216876285D01*
X290485428Y-216819142D01*
X290485428Y-216762000D01*
X290514000Y-216704857D01*
X290542571Y-216676285D01*
X290599714Y-216647714D01*
X290714000Y-216619142D01*
X290771142Y-216590571D01*
X290799714Y-216562000D01*
X290828285Y-216504857D01*
X290828285Y-216447714D01*
X290799714Y-216390571D01*
X290771142Y-216362000D01*
X290714000Y-216333428D01*
X290571142Y-216333428D01*
X290485428Y-216362000D01*
X290228285Y-216933428D02*
X290228285Y-216333428D01*
X290085428Y-216333428D01*
X289999714Y-216362000D01*
X289942571Y-216419142D01*
X289914000Y-216476285D01*
X289885428Y-216590571D01*
X289885428Y-216676285D01*
X289914000Y-216790571D01*
X289942571Y-216847714D01*
X289999714Y-216904857D01*
X290085428Y-216933428D01*
X290228285Y-216933428D01*
X289656857Y-216762000D02*
X289371142Y-216762000D01*
X289714000Y-216933428D02*
X289514000Y-216333428D01*
X289314000Y-216933428D01*
X288828285Y-216333428D02*
X289114000Y-216333428D01*
X289142571Y-216619142D01*
X289114000Y-216590571D01*
X289056857Y-216562000D01*
X288914000Y-216562000D01*
X288856857Y-216590571D01*
X288828285Y-216619142D01*
X288799714Y-216676285D01*
X288799714Y-216819142D01*
X288828285Y-216876285D01*
X288856857Y-216904857D01*
X288914000Y-216933428D01*
X289056857Y-216933428D01*
X289114000Y-216904857D01*
X289142571Y-216876285D01*
X290814000Y-215634857D02*
X290728285Y-215663428D01*
X290585428Y-215663428D01*
X290528285Y-215634857D01*
X290499714Y-215606285D01*
X290471142Y-215549142D01*
X290471142Y-215492000D01*
X290499714Y-215434857D01*
X290528285Y-215406285D01*
X290585428Y-215377714D01*
X290699714Y-215349142D01*
X290756857Y-215320571D01*
X290785428Y-215292000D01*
X290814000Y-215234857D01*
X290814000Y-215177714D01*
X290785428Y-215120571D01*
X290756857Y-215092000D01*
X290699714Y-215063428D01*
X290556857Y-215063428D01*
X290471142Y-215092000D01*
X289871142Y-215606285D02*
X289899714Y-215634857D01*
X289985428Y-215663428D01*
X290042571Y-215663428D01*
X290128285Y-215634857D01*
X290185428Y-215577714D01*
X290214000Y-215520571D01*
X290242571Y-215406285D01*
X290242571Y-215320571D01*
X290214000Y-215206285D01*
X290185428Y-215149142D01*
X290128285Y-215092000D01*
X290042571Y-215063428D01*
X289985428Y-215063428D01*
X289899714Y-215092000D01*
X289871142Y-215120571D01*
X289328285Y-215663428D02*
X289614000Y-215663428D01*
X289614000Y-215063428D01*
X288842571Y-215063428D02*
X289128285Y-215063428D01*
X289156857Y-215349142D01*
X289128285Y-215320571D01*
X289071142Y-215292000D01*
X288928285Y-215292000D01*
X288871142Y-215320571D01*
X288842571Y-215349142D01*
X288814000Y-215406285D01*
X288814000Y-215549142D01*
X288842571Y-215606285D01*
X288871142Y-215634857D01*
X288928285Y-215663428D01*
X289071142Y-215663428D01*
X289128285Y-215634857D01*
X289156857Y-215606285D01*
X276499428Y-221271900D02*
X275899428Y-221271900D01*
X276356571Y-222140428D02*
X276356571Y-221540428D01*
X276213714Y-221540428D01*
X276128000Y-221569000D01*
X276070857Y-221626142D01*
X276042285Y-221683285D01*
X276013714Y-221797571D01*
X276013714Y-221883285D01*
X276042285Y-221997571D01*
X276070857Y-222054714D01*
X276128000Y-222111857D01*
X276213714Y-222140428D01*
X276356571Y-222140428D01*
X275899428Y-221271900D02*
X275385142Y-221271900D01*
X275785142Y-221969000D02*
X275499428Y-221969000D01*
X275842285Y-222140428D02*
X275642285Y-221540428D01*
X275442285Y-222140428D01*
X275385142Y-221271900D02*
X274785142Y-221271900D01*
X274899428Y-222083285D02*
X274928000Y-222111857D01*
X275013714Y-222140428D01*
X275070857Y-222140428D01*
X275156571Y-222111857D01*
X275213714Y-222054714D01*
X275242285Y-221997571D01*
X275270857Y-221883285D01*
X275270857Y-221797571D01*
X275242285Y-221683285D01*
X275213714Y-221626142D01*
X275156571Y-221569000D01*
X275070857Y-221540428D01*
X275013714Y-221540428D01*
X274928000Y-221569000D01*
X274899428Y-221597571D01*
X274785142Y-221271900D02*
X274328000Y-221271900D01*
X274785142Y-222197571D02*
X274328000Y-222197571D01*
X274328000Y-221271900D02*
X273728000Y-221271900D01*
X273842285Y-222083285D02*
X273870857Y-222111857D01*
X273956571Y-222140428D01*
X274013714Y-222140428D01*
X274099428Y-222111857D01*
X274156571Y-222054714D01*
X274185142Y-221997571D01*
X274213714Y-221883285D01*
X274213714Y-221797571D01*
X274185142Y-221683285D01*
X274156571Y-221626142D01*
X274099428Y-221569000D01*
X274013714Y-221540428D01*
X273956571Y-221540428D01*
X273870857Y-221569000D01*
X273842285Y-221597571D01*
X273728000Y-221271900D02*
X273156571Y-221271900D01*
X273613714Y-222111857D02*
X273528000Y-222140428D01*
X273385142Y-222140428D01*
X273328000Y-222111857D01*
X273299428Y-222083285D01*
X273270857Y-222026142D01*
X273270857Y-221969000D01*
X273299428Y-221911857D01*
X273328000Y-221883285D01*
X273385142Y-221854714D01*
X273499428Y-221826142D01*
X273556571Y-221797571D01*
X273585142Y-221769000D01*
X273613714Y-221711857D01*
X273613714Y-221654714D01*
X273585142Y-221597571D01*
X273556571Y-221569000D01*
X273499428Y-221540428D01*
X273356571Y-221540428D01*
X273270857Y-221569000D01*
X276656571Y-227601428D02*
X276656571Y-227001428D01*
X276513714Y-227001428D01*
X276428000Y-227030000D01*
X276370857Y-227087142D01*
X276342285Y-227144285D01*
X276313714Y-227258571D01*
X276313714Y-227344285D01*
X276342285Y-227458571D01*
X276370857Y-227515714D01*
X276428000Y-227572857D01*
X276513714Y-227601428D01*
X276656571Y-227601428D01*
X276085142Y-227430000D02*
X275799428Y-227430000D01*
X276142285Y-227601428D02*
X275942285Y-227001428D01*
X275742285Y-227601428D01*
X275199428Y-227544285D02*
X275228000Y-227572857D01*
X275313714Y-227601428D01*
X275370857Y-227601428D01*
X275456571Y-227572857D01*
X275513714Y-227515714D01*
X275542285Y-227458571D01*
X275570857Y-227344285D01*
X275570857Y-227258571D01*
X275542285Y-227144285D01*
X275513714Y-227087142D01*
X275456571Y-227030000D01*
X275370857Y-227001428D01*
X275313714Y-227001428D01*
X275228000Y-227030000D01*
X275199428Y-227058571D01*
X275085142Y-227658571D02*
X274628000Y-227658571D01*
X274513714Y-227572857D02*
X274428000Y-227601428D01*
X274285142Y-227601428D01*
X274228000Y-227572857D01*
X274199428Y-227544285D01*
X274170857Y-227487142D01*
X274170857Y-227430000D01*
X274199428Y-227372857D01*
X274228000Y-227344285D01*
X274285142Y-227315714D01*
X274399428Y-227287142D01*
X274456571Y-227258571D01*
X274485142Y-227230000D01*
X274513714Y-227172857D01*
X274513714Y-227115714D01*
X274485142Y-227058571D01*
X274456571Y-227030000D01*
X274399428Y-227001428D01*
X274256571Y-227001428D01*
X274170857Y-227030000D01*
X273570857Y-227544285D02*
X273599428Y-227572857D01*
X273685142Y-227601428D01*
X273742285Y-227601428D01*
X273828000Y-227572857D01*
X273885142Y-227515714D01*
X273913714Y-227458571D01*
X273942285Y-227344285D01*
X273942285Y-227258571D01*
X273913714Y-227144285D01*
X273885142Y-227087142D01*
X273828000Y-227030000D01*
X273742285Y-227001428D01*
X273685142Y-227001428D01*
X273599428Y-227030000D01*
X273570857Y-227058571D01*
X273313714Y-227601428D02*
X273313714Y-227001428D01*
X272970857Y-227601428D02*
X273228000Y-227258571D01*
X272970857Y-227001428D02*
X273313714Y-227344285D01*
X277134428Y-230014428D02*
X277134428Y-229414428D01*
X276991571Y-229414428D01*
X276905857Y-229443000D01*
X276848714Y-229500142D01*
X276820142Y-229557285D01*
X276791571Y-229671571D01*
X276791571Y-229757285D01*
X276820142Y-229871571D01*
X276848714Y-229928714D01*
X276905857Y-229985857D01*
X276991571Y-230014428D01*
X277134428Y-230014428D01*
X276563000Y-229843000D02*
X276277285Y-229843000D01*
X276620142Y-230014428D02*
X276420142Y-229414428D01*
X276220142Y-230014428D01*
X275677285Y-229957285D02*
X275705857Y-229985857D01*
X275791571Y-230014428D01*
X275848714Y-230014428D01*
X275934428Y-229985857D01*
X275991571Y-229928714D01*
X276020142Y-229871571D01*
X276048714Y-229757285D01*
X276048714Y-229671571D01*
X276020142Y-229557285D01*
X275991571Y-229500142D01*
X275934428Y-229443000D01*
X275848714Y-229414428D01*
X275791571Y-229414428D01*
X275705857Y-229443000D01*
X275677285Y-229471571D01*
X275563000Y-230071571D02*
X275105857Y-230071571D01*
X274991571Y-229985857D02*
X274905857Y-230014428D01*
X274763000Y-230014428D01*
X274705857Y-229985857D01*
X274677285Y-229957285D01*
X274648714Y-229900142D01*
X274648714Y-229843000D01*
X274677285Y-229785857D01*
X274705857Y-229757285D01*
X274763000Y-229728714D01*
X274877285Y-229700142D01*
X274934428Y-229671571D01*
X274963000Y-229643000D01*
X274991571Y-229585857D01*
X274991571Y-229528714D01*
X274963000Y-229471571D01*
X274934428Y-229443000D01*
X274877285Y-229414428D01*
X274734428Y-229414428D01*
X274648714Y-229443000D01*
X274391571Y-230014428D02*
X274391571Y-229414428D01*
X274248714Y-229414428D01*
X274163000Y-229443000D01*
X274105857Y-229500142D01*
X274077285Y-229557285D01*
X274048714Y-229671571D01*
X274048714Y-229757285D01*
X274077285Y-229871571D01*
X274105857Y-229928714D01*
X274163000Y-229985857D01*
X274248714Y-230014428D01*
X274391571Y-230014428D01*
X273791571Y-230014428D02*
X273791571Y-229414428D01*
X291584000Y-230303428D02*
X291384000Y-230903428D01*
X291184000Y-230303428D01*
X290641142Y-230846285D02*
X290669714Y-230874857D01*
X290755428Y-230903428D01*
X290812571Y-230903428D01*
X290898285Y-230874857D01*
X290955428Y-230817714D01*
X290984000Y-230760571D01*
X291012571Y-230646285D01*
X291012571Y-230560571D01*
X290984000Y-230446285D01*
X290955428Y-230389142D01*
X290898285Y-230332000D01*
X290812571Y-230303428D01*
X290755428Y-230303428D01*
X290669714Y-230332000D01*
X290641142Y-230360571D01*
D11*
X349615000Y-225688000D02*
X347615000Y-225688000D01*
X347615000Y-223638000D02*
X349615000Y-223638000D01*
X358664000Y-223638000D02*
X360664000Y-223638000D01*
X360664000Y-225688000D02*
X358664000Y-225688000D01*
X257064000Y-183379000D02*
X259064000Y-183379000D01*
X259064000Y-185429000D02*
X257064000Y-185429000D01*
X313960000Y-183379000D02*
X315960000Y-183379000D01*
X315960000Y-185429000D02*
X313960000Y-185429000D01*
X285512000Y-183379000D02*
X287512000Y-183379000D01*
X287512000Y-185429000D02*
X285512000Y-185429000D01*
X196880000Y-211810000D02*
X196880000Y-213360000D01*
X195580000Y-211810000D02*
X196880000Y-211810000D01*
X191389000Y-213233000D02*
X185547000Y-213233000D01*
X185547000Y-213233000D02*
X185547000Y-213487000D01*
X185547000Y-213487000D02*
X191389000Y-213487000D01*
X191389000Y-213487000D02*
X191389000Y-213360000D01*
X191389000Y-213360000D02*
X185547000Y-213360000D01*
X194056000Y-230886000D02*
X194437000Y-230886000D01*
X194056000Y-231394000D02*
X194437000Y-231394000D01*
X194056000Y-233426000D02*
X194437000Y-233426000D01*
X194056000Y-233934000D02*
X194437000Y-233934000D01*
X194056000Y-235966000D02*
X194437000Y-235966000D01*
X194056000Y-236474000D02*
X194437000Y-236474000D01*
X194056000Y-213106000D02*
X194437000Y-213106000D01*
X194056000Y-213614000D02*
X194437000Y-213614000D01*
X194056000Y-215646000D02*
X194437000Y-215646000D01*
X194056000Y-216154000D02*
X194437000Y-216154000D01*
X194056000Y-218186000D02*
X194437000Y-218186000D01*
X194056000Y-218694000D02*
X194437000Y-218694000D01*
X194056000Y-228854000D02*
X194437000Y-228854000D01*
X194056000Y-228346000D02*
X194437000Y-228346000D01*
X194056000Y-226314000D02*
X194437000Y-226314000D01*
X194056000Y-225806000D02*
X194437000Y-225806000D01*
X194056000Y-223774000D02*
X194437000Y-223774000D01*
X194056000Y-223266000D02*
X194437000Y-223266000D01*
X194056000Y-221234000D02*
X194437000Y-221234000D01*
X194056000Y-220726000D02*
X194437000Y-220726000D01*
X194056000Y-227330000D02*
X191516000Y-227330000D01*
X194056000Y-227330000D02*
X194056000Y-229870000D01*
X194056000Y-229870000D02*
X191516000Y-229870000D01*
X191516000Y-228346000D02*
X185420000Y-228346000D01*
X185420000Y-228346000D02*
X185420000Y-228854000D01*
X185420000Y-228854000D02*
X191516000Y-228854000D01*
X191516000Y-229870000D02*
X191516000Y-227330000D01*
X191516000Y-232410000D02*
X191516000Y-229870000D01*
X185420000Y-231394000D02*
X191516000Y-231394000D01*
X185420000Y-230886000D02*
X185420000Y-231394000D01*
X191516000Y-230886000D02*
X185420000Y-230886000D01*
X194056000Y-232410000D02*
X191516000Y-232410000D01*
X194056000Y-229870000D02*
X194056000Y-232410000D01*
X194056000Y-229870000D02*
X191516000Y-229870000D01*
X194056000Y-234950000D02*
X191516000Y-234950000D01*
X194056000Y-234950000D02*
X194056000Y-237490000D01*
X191516000Y-235966000D02*
X185420000Y-235966000D01*
X185420000Y-235966000D02*
X185420000Y-236474000D01*
X185420000Y-236474000D02*
X191516000Y-236474000D01*
X191516000Y-237490000D02*
X191516000Y-234950000D01*
X191516000Y-234950000D02*
X191516000Y-232410000D01*
X185420000Y-233934000D02*
X191516000Y-233934000D01*
X185420000Y-233426000D02*
X185420000Y-233934000D01*
X191516000Y-233426000D02*
X185420000Y-233426000D01*
X194056000Y-234950000D02*
X191516000Y-234950000D01*
X194056000Y-232410000D02*
X194056000Y-234950000D01*
X194056000Y-232410000D02*
X191516000Y-232410000D01*
X194056000Y-237490000D02*
X191516000Y-237490000D01*
X194056000Y-212090000D02*
X191516000Y-212090000D01*
X194056000Y-214630000D02*
X191516000Y-214630000D01*
X194056000Y-214630000D02*
X194056000Y-217170000D01*
X194056000Y-217170000D02*
X191516000Y-217170000D01*
X191516000Y-215646000D02*
X185420000Y-215646000D01*
X185420000Y-215646000D02*
X185420000Y-216154000D01*
X185420000Y-216154000D02*
X191516000Y-216154000D01*
X191516000Y-217170000D02*
X191516000Y-214630000D01*
X191516000Y-214630000D02*
X191516000Y-212090000D01*
X185420000Y-213614000D02*
X191516000Y-213614000D01*
X185420000Y-213106000D02*
X185420000Y-213614000D01*
X191516000Y-213106000D02*
X185420000Y-213106000D01*
X194056000Y-214630000D02*
X191516000Y-214630000D01*
X194056000Y-212090000D02*
X194056000Y-214630000D01*
X194056000Y-222250000D02*
X191516000Y-222250000D01*
X194056000Y-222250000D02*
X194056000Y-224790000D01*
X194056000Y-224790000D02*
X191516000Y-224790000D01*
X191516000Y-223266000D02*
X185420000Y-223266000D01*
X185420000Y-223266000D02*
X185420000Y-223774000D01*
X185420000Y-223774000D02*
X191516000Y-223774000D01*
X191516000Y-224790000D02*
X191516000Y-222250000D01*
X191516000Y-227330000D02*
X191516000Y-224790000D01*
X185420000Y-226314000D02*
X191516000Y-226314000D01*
X185420000Y-225806000D02*
X185420000Y-226314000D01*
X191516000Y-225806000D02*
X185420000Y-225806000D01*
X194056000Y-227330000D02*
X191516000Y-227330000D01*
X194056000Y-224790000D02*
X194056000Y-227330000D01*
X194056000Y-224790000D02*
X191516000Y-224790000D01*
X194056000Y-219710000D02*
X191516000Y-219710000D01*
X194056000Y-219710000D02*
X194056000Y-222250000D01*
X194056000Y-222250000D02*
X191516000Y-222250000D01*
X191516000Y-220726000D02*
X185420000Y-220726000D01*
X185420000Y-220726000D02*
X185420000Y-221234000D01*
X185420000Y-221234000D02*
X191516000Y-221234000D01*
X191516000Y-222250000D02*
X191516000Y-219710000D01*
X191516000Y-219710000D02*
X191516000Y-217170000D01*
X185420000Y-218694000D02*
X191516000Y-218694000D01*
X185420000Y-218186000D02*
X185420000Y-218694000D01*
X191516000Y-218186000D02*
X185420000Y-218186000D01*
X194056000Y-219710000D02*
X191516000Y-219710000D01*
X194056000Y-217170000D02*
X194056000Y-219710000D01*
X194056000Y-217170000D02*
X191516000Y-217170000D01*
X354950000Y-217731000D02*
X356250000Y-217731000D01*
X356250000Y-217731000D02*
X356250000Y-216756000D01*
X356250000Y-215806000D02*
X356250000Y-214831000D01*
X356250000Y-214831000D02*
X354950000Y-214831000D01*
X354950000Y-216756000D02*
X354950000Y-215806000D01*
X350632000Y-217731000D02*
X351932000Y-217731000D01*
X351932000Y-217731000D02*
X351932000Y-216756000D01*
X351932000Y-215806000D02*
X351932000Y-214831000D01*
X351932000Y-214831000D02*
X350632000Y-214831000D01*
X350632000Y-216756000D02*
X350632000Y-215806000D01*
X260004000Y-218299000D02*
X261204000Y-218299000D01*
X261204000Y-216549000D02*
X260004000Y-216549000D01*
X260004000Y-216267000D02*
X261204000Y-216267000D01*
X261204000Y-214517000D02*
X260004000Y-214517000D01*
X237709000Y-204865000D02*
X236509000Y-204865000D01*
X236509000Y-206615000D02*
X237709000Y-206615000D01*
X335880000Y-178830000D02*
X334680000Y-178830000D01*
X334680000Y-180580000D02*
X335880000Y-180580000D01*
X335880000Y-180862000D02*
X334680000Y-180862000D01*
X334680000Y-182612000D02*
X335880000Y-182612000D01*
X335880000Y-176417000D02*
X334680000Y-176417000D01*
X334680000Y-178167000D02*
X335880000Y-178167000D01*
X345983000Y-217156000D02*
X347183000Y-217156000D01*
X347183000Y-215406000D02*
X345983000Y-215406000D01*
X225771000Y-184672000D02*
X224571000Y-184672000D01*
X224571000Y-186422000D02*
X225771000Y-186422000D01*
X276895000Y-177405000D02*
X278095000Y-177405000D01*
X278095000Y-175655000D02*
X276895000Y-175655000D01*
X248447000Y-177405000D02*
X249647000Y-177405000D01*
X249647000Y-175655000D02*
X248447000Y-175655000D01*
X305322000Y-184820000D02*
X305322000Y-186020000D01*
X307072000Y-186020000D02*
X307072000Y-184820000D01*
X307940000Y-181497000D02*
X306740000Y-181497000D01*
X306740000Y-183247000D02*
X307940000Y-183247000D01*
X276874000Y-184820000D02*
X276874000Y-186020000D01*
X278624000Y-186020000D02*
X278624000Y-184820000D01*
X279492000Y-181497000D02*
X278292000Y-181497000D01*
X278292000Y-183247000D02*
X279492000Y-183247000D01*
X248426000Y-184820000D02*
X248426000Y-186020000D01*
X250176000Y-186020000D02*
X250176000Y-184820000D01*
X251044000Y-181497000D02*
X249844000Y-181497000D01*
X249844000Y-183247000D02*
X251044000Y-183247000D01*
X236001000Y-216140000D02*
X237201000Y-216140000D01*
X237201000Y-214390000D02*
X236001000Y-214390000D01*
X236001000Y-213981000D02*
X237201000Y-213981000D01*
X237201000Y-212231000D02*
X236001000Y-212231000D01*
X279054000Y-208266000D02*
X280254000Y-208266000D01*
X280254000Y-206516000D02*
X279054000Y-206516000D01*
X279054000Y-210298000D02*
X280254000Y-210298000D01*
X280254000Y-208548000D02*
X279054000Y-208548000D01*
X359191000Y-195693000D02*
X360391000Y-195693000D01*
X360391000Y-193943000D02*
X359191000Y-193943000D01*
X359191000Y-197852000D02*
X360391000Y-197852000D01*
X360391000Y-196102000D02*
X359191000Y-196102000D01*
X359191000Y-200011000D02*
X360391000Y-200011000D01*
X360391000Y-198261000D02*
X359191000Y-198261000D01*
X360391000Y-200420000D02*
X359191000Y-200420000D01*
X359191000Y-202170000D02*
X360391000Y-202170000D01*
X278222000Y-212612000D02*
X277022000Y-212612000D01*
X277022000Y-214362000D02*
X278222000Y-214362000D01*
X278222000Y-210580000D02*
X277022000Y-210580000D01*
X277022000Y-212330000D02*
X278222000Y-212330000D01*
X252437000Y-184920000D02*
X252437000Y-185920000D01*
X250737000Y-185920000D02*
X250737000Y-184920000D01*
X280885000Y-184920000D02*
X280885000Y-185920000D01*
X279185000Y-185920000D02*
X279185000Y-184920000D01*
X309333000Y-184920000D02*
X309333000Y-185920000D01*
X307633000Y-185920000D02*
X307633000Y-184920000D01*
X264660000Y-179031000D02*
X263660000Y-179031000D01*
X263660000Y-177331000D02*
X264660000Y-177331000D01*
X293108000Y-179031000D02*
X292108000Y-179031000D01*
X292108000Y-177331000D02*
X293108000Y-177331000D01*
X321556000Y-179031000D02*
X320556000Y-179031000D01*
X320556000Y-177331000D02*
X321556000Y-177331000D01*
X257564000Y-172378000D02*
X258564000Y-172378000D01*
X258564000Y-174078000D02*
X257564000Y-174078000D01*
X286012000Y-172378000D02*
X287012000Y-172378000D01*
X287012000Y-174078000D02*
X286012000Y-174078000D01*
X314968000Y-172378000D02*
X315968000Y-172378000D01*
X315968000Y-174078000D02*
X314968000Y-174078000D01*
X329653000Y-230894000D02*
X329653000Y-231894000D01*
X327953000Y-231894000D02*
X327953000Y-230894000D01*
X351628000Y-231916000D02*
X350428000Y-231916000D01*
X350428000Y-233666000D02*
X351628000Y-233666000D01*
X349070000Y-227881000D02*
X349070000Y-227281000D01*
X349070000Y-229781000D02*
X349070000Y-228181000D01*
X351020000Y-229781000D02*
X350020000Y-229781000D01*
X351970000Y-228181000D02*
X351970000Y-229781000D01*
X356475000Y-234407000D02*
X356475000Y-233207000D01*
X354725000Y-233207000D02*
X354725000Y-234407000D01*
X224540000Y-187579000D02*
X224290000Y-187579000D01*
X225040000Y-187579000D02*
X225290000Y-187579000D01*
X225040000Y-187579000D02*
X224540000Y-187229000D01*
X224540000Y-187229000D02*
X224540000Y-187929000D01*
X224540000Y-187929000D02*
X225040000Y-187579000D01*
X225040000Y-187229000D02*
X225040000Y-187929000D01*
X225640000Y-188204000D02*
X223940000Y-188204000D01*
X225640000Y-186954000D02*
X223940000Y-186954000D01*
X349734047Y-223242142D02*
X349781666Y-223289761D01*
X349924523Y-223337380D01*
X350019761Y-223337380D01*
X350162619Y-223289761D01*
X350257857Y-223194523D01*
X350305476Y-223099285D01*
X350353095Y-222908809D01*
X350353095Y-222765952D01*
X350305476Y-222575476D01*
X350257857Y-222480238D01*
X350162619Y-222385000D01*
X350019761Y-222337380D01*
X349924523Y-222337380D01*
X349781666Y-222385000D01*
X349734047Y-222432619D01*
X349400714Y-222337380D02*
X348781666Y-222337380D01*
X349115000Y-222718333D01*
X348972142Y-222718333D01*
X348876904Y-222765952D01*
X348829285Y-222813571D01*
X348781666Y-222908809D01*
X348781666Y-223146904D01*
X348829285Y-223242142D01*
X348876904Y-223289761D01*
X348972142Y-223337380D01*
X349257857Y-223337380D01*
X349353095Y-223289761D01*
X349400714Y-223242142D01*
X348162619Y-222337380D02*
X348067380Y-222337380D01*
X347972142Y-222385000D01*
X347924523Y-222432619D01*
X347876904Y-222527857D01*
X347829285Y-222718333D01*
X347829285Y-222956428D01*
X347876904Y-223146904D01*
X347924523Y-223242142D01*
X347972142Y-223289761D01*
X348067380Y-223337380D01*
X348162619Y-223337380D01*
X348257857Y-223289761D01*
X348305476Y-223242142D01*
X348353095Y-223146904D01*
X348400714Y-222956428D01*
X348400714Y-222718333D01*
X348353095Y-222527857D01*
X348305476Y-222432619D01*
X348257857Y-222385000D01*
X348162619Y-222337380D01*
X346876904Y-223337380D02*
X347448333Y-223337380D01*
X347162619Y-223337380D02*
X347162619Y-222337380D01*
X347257857Y-222480238D01*
X347353095Y-222575476D01*
X347448333Y-222623095D01*
X360783047Y-226975942D02*
X360830666Y-227023561D01*
X360973523Y-227071180D01*
X361068761Y-227071180D01*
X361211619Y-227023561D01*
X361306857Y-226928323D01*
X361354476Y-226833085D01*
X361402095Y-226642609D01*
X361402095Y-226499752D01*
X361354476Y-226309276D01*
X361306857Y-226214038D01*
X361211619Y-226118800D01*
X361068761Y-226071180D01*
X360973523Y-226071180D01*
X360830666Y-226118800D01*
X360783047Y-226166419D01*
X360449714Y-226071180D02*
X359830666Y-226071180D01*
X360164000Y-226452133D01*
X360021142Y-226452133D01*
X359925904Y-226499752D01*
X359878285Y-226547371D01*
X359830666Y-226642609D01*
X359830666Y-226880704D01*
X359878285Y-226975942D01*
X359925904Y-227023561D01*
X360021142Y-227071180D01*
X360306857Y-227071180D01*
X360402095Y-227023561D01*
X360449714Y-226975942D01*
X359211619Y-226071180D02*
X359116380Y-226071180D01*
X359021142Y-226118800D01*
X358973523Y-226166419D01*
X358925904Y-226261657D01*
X358878285Y-226452133D01*
X358878285Y-226690228D01*
X358925904Y-226880704D01*
X358973523Y-226975942D01*
X359021142Y-227023561D01*
X359116380Y-227071180D01*
X359211619Y-227071180D01*
X359306857Y-227023561D01*
X359354476Y-226975942D01*
X359402095Y-226880704D01*
X359449714Y-226690228D01*
X359449714Y-226452133D01*
X359402095Y-226261657D01*
X359354476Y-226166419D01*
X359306857Y-226118800D01*
X359211619Y-226071180D01*
X358497333Y-226166419D02*
X358449714Y-226118800D01*
X358354476Y-226071180D01*
X358116380Y-226071180D01*
X358021142Y-226118800D01*
X357973523Y-226166419D01*
X357925904Y-226261657D01*
X357925904Y-226356895D01*
X357973523Y-226499752D01*
X358544952Y-227071180D01*
X357925904Y-227071180D01*
X259183047Y-188063142D02*
X259230666Y-188110761D01*
X259373523Y-188158380D01*
X259468761Y-188158380D01*
X259611619Y-188110761D01*
X259706857Y-188015523D01*
X259754476Y-187920285D01*
X259802095Y-187729809D01*
X259802095Y-187586952D01*
X259754476Y-187396476D01*
X259706857Y-187301238D01*
X259611619Y-187206000D01*
X259468761Y-187158380D01*
X259373523Y-187158380D01*
X259230666Y-187206000D01*
X259183047Y-187253619D01*
X258278285Y-187158380D02*
X258754476Y-187158380D01*
X258802095Y-187634571D01*
X258754476Y-187586952D01*
X258659238Y-187539333D01*
X258421142Y-187539333D01*
X258325904Y-187586952D01*
X258278285Y-187634571D01*
X258230666Y-187729809D01*
X258230666Y-187967904D01*
X258278285Y-188063142D01*
X258325904Y-188110761D01*
X258421142Y-188158380D01*
X258659238Y-188158380D01*
X258754476Y-188110761D01*
X258802095Y-188063142D01*
X257849714Y-187253619D02*
X257802095Y-187206000D01*
X257706857Y-187158380D01*
X257468761Y-187158380D01*
X257373523Y-187206000D01*
X257325904Y-187253619D01*
X257278285Y-187348857D01*
X257278285Y-187444095D01*
X257325904Y-187586952D01*
X257897333Y-188158380D01*
X257278285Y-188158380D01*
X256325904Y-188158380D02*
X256897333Y-188158380D01*
X256611619Y-188158380D02*
X256611619Y-187158380D01*
X256706857Y-187301238D01*
X256802095Y-187396476D01*
X256897333Y-187444095D01*
X316079047Y-188063142D02*
X316126666Y-188110761D01*
X316269523Y-188158380D01*
X316364761Y-188158380D01*
X316507619Y-188110761D01*
X316602857Y-188015523D01*
X316650476Y-187920285D01*
X316698095Y-187729809D01*
X316698095Y-187586952D01*
X316650476Y-187396476D01*
X316602857Y-187301238D01*
X316507619Y-187206000D01*
X316364761Y-187158380D01*
X316269523Y-187158380D01*
X316126666Y-187206000D01*
X316079047Y-187253619D01*
X315174285Y-187158380D02*
X315650476Y-187158380D01*
X315698095Y-187634571D01*
X315650476Y-187586952D01*
X315555238Y-187539333D01*
X315317142Y-187539333D01*
X315221904Y-187586952D01*
X315174285Y-187634571D01*
X315126666Y-187729809D01*
X315126666Y-187967904D01*
X315174285Y-188063142D01*
X315221904Y-188110761D01*
X315317142Y-188158380D01*
X315555238Y-188158380D01*
X315650476Y-188110761D01*
X315698095Y-188063142D01*
X314745714Y-187253619D02*
X314698095Y-187206000D01*
X314602857Y-187158380D01*
X314364761Y-187158380D01*
X314269523Y-187206000D01*
X314221904Y-187253619D01*
X314174285Y-187348857D01*
X314174285Y-187444095D01*
X314221904Y-187586952D01*
X314793333Y-188158380D01*
X314174285Y-188158380D01*
X313793333Y-187253619D02*
X313745714Y-187206000D01*
X313650476Y-187158380D01*
X313412380Y-187158380D01*
X313317142Y-187206000D01*
X313269523Y-187253619D01*
X313221904Y-187348857D01*
X313221904Y-187444095D01*
X313269523Y-187586952D01*
X313840952Y-188158380D01*
X313221904Y-188158380D01*
X287631047Y-188063142D02*
X287678666Y-188110761D01*
X287821523Y-188158380D01*
X287916761Y-188158380D01*
X288059619Y-188110761D01*
X288154857Y-188015523D01*
X288202476Y-187920285D01*
X288250095Y-187729809D01*
X288250095Y-187586952D01*
X288202476Y-187396476D01*
X288154857Y-187301238D01*
X288059619Y-187206000D01*
X287916761Y-187158380D01*
X287821523Y-187158380D01*
X287678666Y-187206000D01*
X287631047Y-187253619D01*
X286726285Y-187158380D02*
X287202476Y-187158380D01*
X287250095Y-187634571D01*
X287202476Y-187586952D01*
X287107238Y-187539333D01*
X286869142Y-187539333D01*
X286773904Y-187586952D01*
X286726285Y-187634571D01*
X286678666Y-187729809D01*
X286678666Y-187967904D01*
X286726285Y-188063142D01*
X286773904Y-188110761D01*
X286869142Y-188158380D01*
X287107238Y-188158380D01*
X287202476Y-188110761D01*
X287250095Y-188063142D01*
X286297714Y-187253619D02*
X286250095Y-187206000D01*
X286154857Y-187158380D01*
X285916761Y-187158380D01*
X285821523Y-187206000D01*
X285773904Y-187253619D01*
X285726285Y-187348857D01*
X285726285Y-187444095D01*
X285773904Y-187586952D01*
X286345333Y-188158380D01*
X285726285Y-188158380D01*
X285392952Y-187158380D02*
X284773904Y-187158380D01*
X285107238Y-187539333D01*
X284964380Y-187539333D01*
X284869142Y-187586952D01*
X284821523Y-187634571D01*
X284773904Y-187729809D01*
X284773904Y-187967904D01*
X284821523Y-188063142D01*
X284869142Y-188110761D01*
X284964380Y-188158380D01*
X285250095Y-188158380D01*
X285345333Y-188110761D01*
X285392952Y-188063142D01*
X197270476Y-211145380D02*
X197270476Y-210145380D01*
X196889523Y-210145380D01*
X196794285Y-210193000D01*
X196746666Y-210240619D01*
X196699047Y-210335857D01*
X196699047Y-210478714D01*
X196746666Y-210573952D01*
X196794285Y-210621571D01*
X196889523Y-210669190D01*
X197270476Y-210669190D01*
X195841904Y-210478714D02*
X195841904Y-211145380D01*
X196080000Y-210097761D02*
X196318095Y-210812047D01*
X195699047Y-210812047D01*
X195127619Y-210145380D02*
X195032380Y-210145380D01*
X194937142Y-210193000D01*
X194889523Y-210240619D01*
X194841904Y-210335857D01*
X194794285Y-210526333D01*
X194794285Y-210764428D01*
X194841904Y-210954904D01*
X194889523Y-211050142D01*
X194937142Y-211097761D01*
X195032380Y-211145380D01*
X195127619Y-211145380D01*
X195222857Y-211097761D01*
X195270476Y-211050142D01*
X195318095Y-210954904D01*
X195365714Y-210764428D01*
X195365714Y-210526333D01*
X195318095Y-210335857D01*
X195270476Y-210240619D01*
X195222857Y-210193000D01*
X195127619Y-210145380D01*
X193841904Y-211145380D02*
X194413333Y-211145380D01*
X194127619Y-211145380D02*
X194127619Y-210145380D01*
X194222857Y-210288238D01*
X194318095Y-210383476D01*
X194413333Y-210431095D01*
X356647619Y-219241619D02*
X356742857Y-219194000D01*
X356838095Y-219098761D01*
X356980952Y-218955904D01*
X357076190Y-218908285D01*
X357171428Y-218908285D01*
X357123809Y-219146380D02*
X357219047Y-219098761D01*
X357314285Y-219003523D01*
X357361904Y-218813047D01*
X357361904Y-218479714D01*
X357314285Y-218289238D01*
X357219047Y-218194000D01*
X357123809Y-218146380D01*
X356933333Y-218146380D01*
X356838095Y-218194000D01*
X356742857Y-218289238D01*
X356695238Y-218479714D01*
X356695238Y-218813047D01*
X356742857Y-219003523D01*
X356838095Y-219098761D01*
X356933333Y-219146380D01*
X357123809Y-219146380D01*
X356361904Y-218146380D02*
X355742857Y-218146380D01*
X356076190Y-218527333D01*
X355933333Y-218527333D01*
X355838095Y-218574952D01*
X355790476Y-218622571D01*
X355742857Y-218717809D01*
X355742857Y-218955904D01*
X355790476Y-219051142D01*
X355838095Y-219098761D01*
X355933333Y-219146380D01*
X356219047Y-219146380D01*
X356314285Y-219098761D01*
X356361904Y-219051142D01*
X355123809Y-218146380D02*
X355028571Y-218146380D01*
X354933333Y-218194000D01*
X354885714Y-218241619D01*
X354838095Y-218336857D01*
X354790476Y-218527333D01*
X354790476Y-218765428D01*
X354838095Y-218955904D01*
X354885714Y-219051142D01*
X354933333Y-219098761D01*
X355028571Y-219146380D01*
X355123809Y-219146380D01*
X355219047Y-219098761D01*
X355266666Y-219051142D01*
X355314285Y-218955904D01*
X355361904Y-218765428D01*
X355361904Y-218527333D01*
X355314285Y-218336857D01*
X355266666Y-218241619D01*
X355219047Y-218194000D01*
X355123809Y-218146380D01*
X353838095Y-219146380D02*
X354409523Y-219146380D01*
X354123809Y-219146380D02*
X354123809Y-218146380D01*
X354219047Y-218289238D01*
X354314285Y-218384476D01*
X354409523Y-218432095D01*
X351567619Y-219241619D02*
X351662857Y-219194000D01*
X351758095Y-219098761D01*
X351900952Y-218955904D01*
X351996190Y-218908285D01*
X352091428Y-218908285D01*
X352043809Y-219146380D02*
X352139047Y-219098761D01*
X352234285Y-219003523D01*
X352281904Y-218813047D01*
X352281904Y-218479714D01*
X352234285Y-218289238D01*
X352139047Y-218194000D01*
X352043809Y-218146380D01*
X351853333Y-218146380D01*
X351758095Y-218194000D01*
X351662857Y-218289238D01*
X351615238Y-218479714D01*
X351615238Y-218813047D01*
X351662857Y-219003523D01*
X351758095Y-219098761D01*
X351853333Y-219146380D01*
X352043809Y-219146380D01*
X351281904Y-218146380D02*
X350662857Y-218146380D01*
X350996190Y-218527333D01*
X350853333Y-218527333D01*
X350758095Y-218574952D01*
X350710476Y-218622571D01*
X350662857Y-218717809D01*
X350662857Y-218955904D01*
X350710476Y-219051142D01*
X350758095Y-219098761D01*
X350853333Y-219146380D01*
X351139047Y-219146380D01*
X351234285Y-219098761D01*
X351281904Y-219051142D01*
X350043809Y-218146380D02*
X349948571Y-218146380D01*
X349853333Y-218194000D01*
X349805714Y-218241619D01*
X349758095Y-218336857D01*
X349710476Y-218527333D01*
X349710476Y-218765428D01*
X349758095Y-218955904D01*
X349805714Y-219051142D01*
X349853333Y-219098761D01*
X349948571Y-219146380D01*
X350043809Y-219146380D01*
X350139047Y-219098761D01*
X350186666Y-219051142D01*
X350234285Y-218955904D01*
X350281904Y-218765428D01*
X350281904Y-218527333D01*
X350234285Y-218336857D01*
X350186666Y-218241619D01*
X350139047Y-218194000D01*
X350043809Y-218146380D01*
X349329523Y-218241619D02*
X349281904Y-218194000D01*
X349186666Y-218146380D01*
X348948571Y-218146380D01*
X348853333Y-218194000D01*
X348805714Y-218241619D01*
X348758095Y-218336857D01*
X348758095Y-218432095D01*
X348805714Y-218574952D01*
X349377142Y-219146380D01*
X348758095Y-219146380D01*
X261723047Y-219654380D02*
X262056380Y-219178190D01*
X262294476Y-219654380D02*
X262294476Y-218654380D01*
X261913523Y-218654380D01*
X261818285Y-218702000D01*
X261770666Y-218749619D01*
X261723047Y-218844857D01*
X261723047Y-218987714D01*
X261770666Y-219082952D01*
X261818285Y-219130571D01*
X261913523Y-219178190D01*
X262294476Y-219178190D01*
X261342095Y-218749619D02*
X261294476Y-218702000D01*
X261199238Y-218654380D01*
X260961142Y-218654380D01*
X260865904Y-218702000D01*
X260818285Y-218749619D01*
X260770666Y-218844857D01*
X260770666Y-218940095D01*
X260818285Y-219082952D01*
X261389714Y-219654380D01*
X260770666Y-219654380D01*
X260151619Y-218654380D02*
X260056380Y-218654380D01*
X259961142Y-218702000D01*
X259913523Y-218749619D01*
X259865904Y-218844857D01*
X259818285Y-219035333D01*
X259818285Y-219273428D01*
X259865904Y-219463904D01*
X259913523Y-219559142D01*
X259961142Y-219606761D01*
X260056380Y-219654380D01*
X260151619Y-219654380D01*
X260246857Y-219606761D01*
X260294476Y-219559142D01*
X260342095Y-219463904D01*
X260389714Y-219273428D01*
X260389714Y-219035333D01*
X260342095Y-218844857D01*
X260294476Y-218749619D01*
X260246857Y-218702000D01*
X260151619Y-218654380D01*
X258865904Y-219654380D02*
X259437333Y-219654380D01*
X259151619Y-219654380D02*
X259151619Y-218654380D01*
X259246857Y-218797238D01*
X259342095Y-218892476D01*
X259437333Y-218940095D01*
X261723047Y-214193380D02*
X262056380Y-213717190D01*
X262294476Y-214193380D02*
X262294476Y-213193380D01*
X261913523Y-213193380D01*
X261818285Y-213241000D01*
X261770666Y-213288619D01*
X261723047Y-213383857D01*
X261723047Y-213526714D01*
X261770666Y-213621952D01*
X261818285Y-213669571D01*
X261913523Y-213717190D01*
X262294476Y-213717190D01*
X261342095Y-213288619D02*
X261294476Y-213241000D01*
X261199238Y-213193380D01*
X260961142Y-213193380D01*
X260865904Y-213241000D01*
X260818285Y-213288619D01*
X260770666Y-213383857D01*
X260770666Y-213479095D01*
X260818285Y-213621952D01*
X261389714Y-214193380D01*
X260770666Y-214193380D01*
X260151619Y-213193380D02*
X260056380Y-213193380D01*
X259961142Y-213241000D01*
X259913523Y-213288619D01*
X259865904Y-213383857D01*
X259818285Y-213574333D01*
X259818285Y-213812428D01*
X259865904Y-214002904D01*
X259913523Y-214098142D01*
X259961142Y-214145761D01*
X260056380Y-214193380D01*
X260151619Y-214193380D01*
X260246857Y-214145761D01*
X260294476Y-214098142D01*
X260342095Y-214002904D01*
X260389714Y-213812428D01*
X260389714Y-213574333D01*
X260342095Y-213383857D01*
X260294476Y-213288619D01*
X260246857Y-213241000D01*
X260151619Y-213193380D01*
X259437333Y-213288619D02*
X259389714Y-213241000D01*
X259294476Y-213193380D01*
X259056380Y-213193380D01*
X258961142Y-213241000D01*
X258913523Y-213288619D01*
X258865904Y-213383857D01*
X258865904Y-213479095D01*
X258913523Y-213621952D01*
X259484952Y-214193380D01*
X258865904Y-214193380D01*
X238228047Y-204541380D02*
X238561380Y-204065190D01*
X238799476Y-204541380D02*
X238799476Y-203541380D01*
X238418523Y-203541380D01*
X238323285Y-203589000D01*
X238275666Y-203636619D01*
X238228047Y-203731857D01*
X238228047Y-203874714D01*
X238275666Y-203969952D01*
X238323285Y-204017571D01*
X238418523Y-204065190D01*
X238799476Y-204065190D01*
X237847095Y-203636619D02*
X237799476Y-203589000D01*
X237704238Y-203541380D01*
X237466142Y-203541380D01*
X237370904Y-203589000D01*
X237323285Y-203636619D01*
X237275666Y-203731857D01*
X237275666Y-203827095D01*
X237323285Y-203969952D01*
X237894714Y-204541380D01*
X237275666Y-204541380D01*
X236656619Y-203541380D02*
X236561380Y-203541380D01*
X236466142Y-203589000D01*
X236418523Y-203636619D01*
X236370904Y-203731857D01*
X236323285Y-203922333D01*
X236323285Y-204160428D01*
X236370904Y-204350904D01*
X236418523Y-204446142D01*
X236466142Y-204493761D01*
X236561380Y-204541380D01*
X236656619Y-204541380D01*
X236751857Y-204493761D01*
X236799476Y-204446142D01*
X236847095Y-204350904D01*
X236894714Y-204160428D01*
X236894714Y-203922333D01*
X236847095Y-203731857D01*
X236799476Y-203636619D01*
X236751857Y-203589000D01*
X236656619Y-203541380D01*
X235466142Y-203541380D02*
X235656619Y-203541380D01*
X235751857Y-203589000D01*
X235799476Y-203636619D01*
X235894714Y-203779476D01*
X235942333Y-203969952D01*
X235942333Y-204350904D01*
X235894714Y-204446142D01*
X235847095Y-204493761D01*
X235751857Y-204541380D01*
X235561380Y-204541380D01*
X235466142Y-204493761D01*
X235418523Y-204446142D01*
X235370904Y-204350904D01*
X235370904Y-204112809D01*
X235418523Y-204017571D01*
X235466142Y-203969952D01*
X235561380Y-203922333D01*
X235751857Y-203922333D01*
X235847095Y-203969952D01*
X235894714Y-204017571D01*
X235942333Y-204112809D01*
X332589047Y-180157380D02*
X332922380Y-179681190D01*
X333160476Y-180157380D02*
X333160476Y-179157380D01*
X332779523Y-179157380D01*
X332684285Y-179205000D01*
X332636666Y-179252619D01*
X332589047Y-179347857D01*
X332589047Y-179490714D01*
X332636666Y-179585952D01*
X332684285Y-179633571D01*
X332779523Y-179681190D01*
X333160476Y-179681190D01*
X332208095Y-179252619D02*
X332160476Y-179205000D01*
X332065238Y-179157380D01*
X331827142Y-179157380D01*
X331731904Y-179205000D01*
X331684285Y-179252619D01*
X331636666Y-179347857D01*
X331636666Y-179443095D01*
X331684285Y-179585952D01*
X332255714Y-180157380D01*
X331636666Y-180157380D01*
X331017619Y-179157380D02*
X330922380Y-179157380D01*
X330827142Y-179205000D01*
X330779523Y-179252619D01*
X330731904Y-179347857D01*
X330684285Y-179538333D01*
X330684285Y-179776428D01*
X330731904Y-179966904D01*
X330779523Y-180062142D01*
X330827142Y-180109761D01*
X330922380Y-180157380D01*
X331017619Y-180157380D01*
X331112857Y-180109761D01*
X331160476Y-180062142D01*
X331208095Y-179966904D01*
X331255714Y-179776428D01*
X331255714Y-179538333D01*
X331208095Y-179347857D01*
X331160476Y-179252619D01*
X331112857Y-179205000D01*
X331017619Y-179157380D01*
X330350952Y-179157380D02*
X329684285Y-179157380D01*
X330112857Y-180157380D01*
X332589047Y-182189380D02*
X332922380Y-181713190D01*
X333160476Y-182189380D02*
X333160476Y-181189380D01*
X332779523Y-181189380D01*
X332684285Y-181237000D01*
X332636666Y-181284619D01*
X332589047Y-181379857D01*
X332589047Y-181522714D01*
X332636666Y-181617952D01*
X332684285Y-181665571D01*
X332779523Y-181713190D01*
X333160476Y-181713190D01*
X332208095Y-181284619D02*
X332160476Y-181237000D01*
X332065238Y-181189380D01*
X331827142Y-181189380D01*
X331731904Y-181237000D01*
X331684285Y-181284619D01*
X331636666Y-181379857D01*
X331636666Y-181475095D01*
X331684285Y-181617952D01*
X332255714Y-182189380D01*
X331636666Y-182189380D01*
X330684285Y-182189380D02*
X331255714Y-182189380D01*
X330970000Y-182189380D02*
X330970000Y-181189380D01*
X331065238Y-181332238D01*
X331160476Y-181427476D01*
X331255714Y-181475095D01*
X329731904Y-182189380D02*
X330303333Y-182189380D01*
X330017619Y-182189380D02*
X330017619Y-181189380D01*
X330112857Y-181332238D01*
X330208095Y-181427476D01*
X330303333Y-181475095D01*
X336399047Y-176093380D02*
X336732380Y-175617190D01*
X336970476Y-176093380D02*
X336970476Y-175093380D01*
X336589523Y-175093380D01*
X336494285Y-175141000D01*
X336446666Y-175188619D01*
X336399047Y-175283857D01*
X336399047Y-175426714D01*
X336446666Y-175521952D01*
X336494285Y-175569571D01*
X336589523Y-175617190D01*
X336970476Y-175617190D01*
X336018095Y-175188619D02*
X335970476Y-175141000D01*
X335875238Y-175093380D01*
X335637142Y-175093380D01*
X335541904Y-175141000D01*
X335494285Y-175188619D01*
X335446666Y-175283857D01*
X335446666Y-175379095D01*
X335494285Y-175521952D01*
X336065714Y-176093380D01*
X335446666Y-176093380D01*
X334494285Y-176093380D02*
X335065714Y-176093380D01*
X334780000Y-176093380D02*
X334780000Y-175093380D01*
X334875238Y-175236238D01*
X334970476Y-175331476D01*
X335065714Y-175379095D01*
X333589523Y-175093380D02*
X334065714Y-175093380D01*
X334113333Y-175569571D01*
X334065714Y-175521952D01*
X333970476Y-175474333D01*
X333732380Y-175474333D01*
X333637142Y-175521952D01*
X333589523Y-175569571D01*
X333541904Y-175664809D01*
X333541904Y-175902904D01*
X333589523Y-175998142D01*
X333637142Y-176045761D01*
X333732380Y-176093380D01*
X333970476Y-176093380D01*
X334065714Y-176045761D01*
X334113333Y-175998142D01*
X344019047Y-216733380D02*
X344352380Y-216257190D01*
X344590476Y-216733380D02*
X344590476Y-215733380D01*
X344209523Y-215733380D01*
X344114285Y-215781000D01*
X344066666Y-215828619D01*
X344019047Y-215923857D01*
X344019047Y-216066714D01*
X344066666Y-216161952D01*
X344114285Y-216209571D01*
X344209523Y-216257190D01*
X344590476Y-216257190D01*
X343685714Y-215733380D02*
X343066666Y-215733380D01*
X343400000Y-216114333D01*
X343257142Y-216114333D01*
X343161904Y-216161952D01*
X343114285Y-216209571D01*
X343066666Y-216304809D01*
X343066666Y-216542904D01*
X343114285Y-216638142D01*
X343161904Y-216685761D01*
X343257142Y-216733380D01*
X343542857Y-216733380D01*
X343638095Y-216685761D01*
X343685714Y-216638142D01*
X342447619Y-215733380D02*
X342352380Y-215733380D01*
X342257142Y-215781000D01*
X342209523Y-215828619D01*
X342161904Y-215923857D01*
X342114285Y-216114333D01*
X342114285Y-216352428D01*
X342161904Y-216542904D01*
X342209523Y-216638142D01*
X342257142Y-216685761D01*
X342352380Y-216733380D01*
X342447619Y-216733380D01*
X342542857Y-216685761D01*
X342590476Y-216638142D01*
X342638095Y-216542904D01*
X342685714Y-216352428D01*
X342685714Y-216114333D01*
X342638095Y-215923857D01*
X342590476Y-215828619D01*
X342542857Y-215781000D01*
X342447619Y-215733380D01*
X341257142Y-216066714D02*
X341257142Y-216733380D01*
X341495238Y-215685761D02*
X341733333Y-216400047D01*
X341114285Y-216400047D01*
X226290047Y-184411880D02*
X226623380Y-183935690D01*
X226861476Y-184411880D02*
X226861476Y-183411880D01*
X226480523Y-183411880D01*
X226385285Y-183459500D01*
X226337666Y-183507119D01*
X226290047Y-183602357D01*
X226290047Y-183745214D01*
X226337666Y-183840452D01*
X226385285Y-183888071D01*
X226480523Y-183935690D01*
X226861476Y-183935690D01*
X225432904Y-183745214D02*
X225432904Y-184411880D01*
X225671000Y-183364261D02*
X225909095Y-184078547D01*
X225290047Y-184078547D01*
X224718619Y-183411880D02*
X224623380Y-183411880D01*
X224528142Y-183459500D01*
X224480523Y-183507119D01*
X224432904Y-183602357D01*
X224385285Y-183792833D01*
X224385285Y-184030928D01*
X224432904Y-184221404D01*
X224480523Y-184316642D01*
X224528142Y-184364261D01*
X224623380Y-184411880D01*
X224718619Y-184411880D01*
X224813857Y-184364261D01*
X224861476Y-184316642D01*
X224909095Y-184221404D01*
X224956714Y-184030928D01*
X224956714Y-183792833D01*
X224909095Y-183602357D01*
X224861476Y-183507119D01*
X224813857Y-183459500D01*
X224718619Y-183411880D01*
X223432904Y-184411880D02*
X224004333Y-184411880D01*
X223718619Y-184411880D02*
X223718619Y-183411880D01*
X223813857Y-183554738D01*
X223909095Y-183649976D01*
X224004333Y-183697595D01*
X275566047Y-178633380D02*
X275899380Y-178157190D01*
X276137476Y-178633380D02*
X276137476Y-177633380D01*
X275756523Y-177633380D01*
X275661285Y-177681000D01*
X275613666Y-177728619D01*
X275566047Y-177823857D01*
X275566047Y-177966714D01*
X275613666Y-178061952D01*
X275661285Y-178109571D01*
X275756523Y-178157190D01*
X276137476Y-178157190D01*
X274661285Y-177633380D02*
X275137476Y-177633380D01*
X275185095Y-178109571D01*
X275137476Y-178061952D01*
X275042238Y-178014333D01*
X274804142Y-178014333D01*
X274708904Y-178061952D01*
X274661285Y-178109571D01*
X274613666Y-178204809D01*
X274613666Y-178442904D01*
X274661285Y-178538142D01*
X274708904Y-178585761D01*
X274804142Y-178633380D01*
X275042238Y-178633380D01*
X275137476Y-178585761D01*
X275185095Y-178538142D01*
X273994619Y-177633380D02*
X273899380Y-177633380D01*
X273804142Y-177681000D01*
X273756523Y-177728619D01*
X273708904Y-177823857D01*
X273661285Y-178014333D01*
X273661285Y-178252428D01*
X273708904Y-178442904D01*
X273756523Y-178538142D01*
X273804142Y-178585761D01*
X273899380Y-178633380D01*
X273994619Y-178633380D01*
X274089857Y-178585761D01*
X274137476Y-178538142D01*
X274185095Y-178442904D01*
X274232714Y-178252428D01*
X274232714Y-178014333D01*
X274185095Y-177823857D01*
X274137476Y-177728619D01*
X274089857Y-177681000D01*
X273994619Y-177633380D01*
X273280333Y-177728619D02*
X273232714Y-177681000D01*
X273137476Y-177633380D01*
X272899380Y-177633380D01*
X272804142Y-177681000D01*
X272756523Y-177728619D01*
X272708904Y-177823857D01*
X272708904Y-177919095D01*
X272756523Y-178061952D01*
X273327952Y-178633380D01*
X272708904Y-178633380D01*
X247372047Y-178633380D02*
X247705380Y-178157190D01*
X247943476Y-178633380D02*
X247943476Y-177633380D01*
X247562523Y-177633380D01*
X247467285Y-177681000D01*
X247419666Y-177728619D01*
X247372047Y-177823857D01*
X247372047Y-177966714D01*
X247419666Y-178061952D01*
X247467285Y-178109571D01*
X247562523Y-178157190D01*
X247943476Y-178157190D01*
X246467285Y-177633380D02*
X246943476Y-177633380D01*
X246991095Y-178109571D01*
X246943476Y-178061952D01*
X246848238Y-178014333D01*
X246610142Y-178014333D01*
X246514904Y-178061952D01*
X246467285Y-178109571D01*
X246419666Y-178204809D01*
X246419666Y-178442904D01*
X246467285Y-178538142D01*
X246514904Y-178585761D01*
X246610142Y-178633380D01*
X246848238Y-178633380D01*
X246943476Y-178585761D01*
X246991095Y-178538142D01*
X245800619Y-177633380D02*
X245705380Y-177633380D01*
X245610142Y-177681000D01*
X245562523Y-177728619D01*
X245514904Y-177823857D01*
X245467285Y-178014333D01*
X245467285Y-178252428D01*
X245514904Y-178442904D01*
X245562523Y-178538142D01*
X245610142Y-178585761D01*
X245705380Y-178633380D01*
X245800619Y-178633380D01*
X245895857Y-178585761D01*
X245943476Y-178538142D01*
X245991095Y-178442904D01*
X246038714Y-178252428D01*
X246038714Y-178014333D01*
X245991095Y-177823857D01*
X245943476Y-177728619D01*
X245895857Y-177681000D01*
X245800619Y-177633380D01*
X245133952Y-177633380D02*
X244514904Y-177633380D01*
X244848238Y-178014333D01*
X244705380Y-178014333D01*
X244610142Y-178061952D01*
X244562523Y-178109571D01*
X244514904Y-178204809D01*
X244514904Y-178442904D01*
X244562523Y-178538142D01*
X244610142Y-178585761D01*
X244705380Y-178633380D01*
X244991095Y-178633380D01*
X245086333Y-178585761D01*
X245133952Y-178538142D01*
X306649380Y-188110952D02*
X306173190Y-187777619D01*
X306649380Y-187539523D02*
X305649380Y-187539523D01*
X305649380Y-187920476D01*
X305697000Y-188015714D01*
X305744619Y-188063333D01*
X305839857Y-188110952D01*
X305982714Y-188110952D01*
X306077952Y-188063333D01*
X306125571Y-188015714D01*
X306173190Y-187920476D01*
X306173190Y-187539523D01*
X305649380Y-189015714D02*
X305649380Y-188539523D01*
X306125571Y-188491904D01*
X306077952Y-188539523D01*
X306030333Y-188634761D01*
X306030333Y-188872857D01*
X306077952Y-188968095D01*
X306125571Y-189015714D01*
X306220809Y-189063333D01*
X306458904Y-189063333D01*
X306554142Y-189015714D01*
X306601761Y-188968095D01*
X306649380Y-188872857D01*
X306649380Y-188634761D01*
X306601761Y-188539523D01*
X306554142Y-188491904D01*
X305649380Y-189682380D02*
X305649380Y-189777619D01*
X305697000Y-189872857D01*
X305744619Y-189920476D01*
X305839857Y-189968095D01*
X306030333Y-190015714D01*
X306268428Y-190015714D01*
X306458904Y-189968095D01*
X306554142Y-189920476D01*
X306601761Y-189872857D01*
X306649380Y-189777619D01*
X306649380Y-189682380D01*
X306601761Y-189587142D01*
X306554142Y-189539523D01*
X306458904Y-189491904D01*
X306268428Y-189444285D01*
X306030333Y-189444285D01*
X305839857Y-189491904D01*
X305744619Y-189539523D01*
X305697000Y-189587142D01*
X305649380Y-189682380D01*
X305649380Y-190349047D02*
X305649380Y-191015714D01*
X306649380Y-190587142D01*
X308459047Y-181173380D02*
X308792380Y-180697190D01*
X309030476Y-181173380D02*
X309030476Y-180173380D01*
X308649523Y-180173380D01*
X308554285Y-180221000D01*
X308506666Y-180268619D01*
X308459047Y-180363857D01*
X308459047Y-180506714D01*
X308506666Y-180601952D01*
X308554285Y-180649571D01*
X308649523Y-180697190D01*
X309030476Y-180697190D01*
X307554285Y-180173380D02*
X308030476Y-180173380D01*
X308078095Y-180649571D01*
X308030476Y-180601952D01*
X307935238Y-180554333D01*
X307697142Y-180554333D01*
X307601904Y-180601952D01*
X307554285Y-180649571D01*
X307506666Y-180744809D01*
X307506666Y-180982904D01*
X307554285Y-181078142D01*
X307601904Y-181125761D01*
X307697142Y-181173380D01*
X307935238Y-181173380D01*
X308030476Y-181125761D01*
X308078095Y-181078142D01*
X306887619Y-180173380D02*
X306792380Y-180173380D01*
X306697142Y-180221000D01*
X306649523Y-180268619D01*
X306601904Y-180363857D01*
X306554285Y-180554333D01*
X306554285Y-180792428D01*
X306601904Y-180982904D01*
X306649523Y-181078142D01*
X306697142Y-181125761D01*
X306792380Y-181173380D01*
X306887619Y-181173380D01*
X306982857Y-181125761D01*
X307030476Y-181078142D01*
X307078095Y-180982904D01*
X307125714Y-180792428D01*
X307125714Y-180554333D01*
X307078095Y-180363857D01*
X307030476Y-180268619D01*
X306982857Y-180221000D01*
X306887619Y-180173380D01*
X305982857Y-180601952D02*
X306078095Y-180554333D01*
X306125714Y-180506714D01*
X306173333Y-180411476D01*
X306173333Y-180363857D01*
X306125714Y-180268619D01*
X306078095Y-180221000D01*
X305982857Y-180173380D01*
X305792380Y-180173380D01*
X305697142Y-180221000D01*
X305649523Y-180268619D01*
X305601904Y-180363857D01*
X305601904Y-180411476D01*
X305649523Y-180506714D01*
X305697142Y-180554333D01*
X305792380Y-180601952D01*
X305982857Y-180601952D01*
X306078095Y-180649571D01*
X306125714Y-180697190D01*
X306173333Y-180792428D01*
X306173333Y-180982904D01*
X306125714Y-181078142D01*
X306078095Y-181125761D01*
X305982857Y-181173380D01*
X305792380Y-181173380D01*
X305697142Y-181125761D01*
X305649523Y-181078142D01*
X305601904Y-180982904D01*
X305601904Y-180792428D01*
X305649523Y-180697190D01*
X305697142Y-180649571D01*
X305792380Y-180601952D01*
X278201380Y-188110952D02*
X277725190Y-187777619D01*
X278201380Y-187539523D02*
X277201380Y-187539523D01*
X277201380Y-187920476D01*
X277249000Y-188015714D01*
X277296619Y-188063333D01*
X277391857Y-188110952D01*
X277534714Y-188110952D01*
X277629952Y-188063333D01*
X277677571Y-188015714D01*
X277725190Y-187920476D01*
X277725190Y-187539523D01*
X277201380Y-189015714D02*
X277201380Y-188539523D01*
X277677571Y-188491904D01*
X277629952Y-188539523D01*
X277582333Y-188634761D01*
X277582333Y-188872857D01*
X277629952Y-188968095D01*
X277677571Y-189015714D01*
X277772809Y-189063333D01*
X278010904Y-189063333D01*
X278106142Y-189015714D01*
X278153761Y-188968095D01*
X278201380Y-188872857D01*
X278201380Y-188634761D01*
X278153761Y-188539523D01*
X278106142Y-188491904D01*
X277201380Y-189682380D02*
X277201380Y-189777619D01*
X277249000Y-189872857D01*
X277296619Y-189920476D01*
X277391857Y-189968095D01*
X277582333Y-190015714D01*
X277820428Y-190015714D01*
X278010904Y-189968095D01*
X278106142Y-189920476D01*
X278153761Y-189872857D01*
X278201380Y-189777619D01*
X278201380Y-189682380D01*
X278153761Y-189587142D01*
X278106142Y-189539523D01*
X278010904Y-189491904D01*
X277820428Y-189444285D01*
X277582333Y-189444285D01*
X277391857Y-189491904D01*
X277296619Y-189539523D01*
X277249000Y-189587142D01*
X277201380Y-189682380D01*
X278201380Y-190491904D02*
X278201380Y-190682380D01*
X278153761Y-190777619D01*
X278106142Y-190825238D01*
X277963285Y-190920476D01*
X277772809Y-190968095D01*
X277391857Y-190968095D01*
X277296619Y-190920476D01*
X277249000Y-190872857D01*
X277201380Y-190777619D01*
X277201380Y-190587142D01*
X277249000Y-190491904D01*
X277296619Y-190444285D01*
X277391857Y-190396666D01*
X277629952Y-190396666D01*
X277725190Y-190444285D01*
X277772809Y-190491904D01*
X277820428Y-190587142D01*
X277820428Y-190777619D01*
X277772809Y-190872857D01*
X277725190Y-190920476D01*
X277629952Y-190968095D01*
X280011047Y-181173380D02*
X280344380Y-180697190D01*
X280582476Y-181173380D02*
X280582476Y-180173380D01*
X280201523Y-180173380D01*
X280106285Y-180221000D01*
X280058666Y-180268619D01*
X280011047Y-180363857D01*
X280011047Y-180506714D01*
X280058666Y-180601952D01*
X280106285Y-180649571D01*
X280201523Y-180697190D01*
X280582476Y-180697190D01*
X279106285Y-180173380D02*
X279582476Y-180173380D01*
X279630095Y-180649571D01*
X279582476Y-180601952D01*
X279487238Y-180554333D01*
X279249142Y-180554333D01*
X279153904Y-180601952D01*
X279106285Y-180649571D01*
X279058666Y-180744809D01*
X279058666Y-180982904D01*
X279106285Y-181078142D01*
X279153904Y-181125761D01*
X279249142Y-181173380D01*
X279487238Y-181173380D01*
X279582476Y-181125761D01*
X279630095Y-181078142D01*
X278106285Y-181173380D02*
X278677714Y-181173380D01*
X278392000Y-181173380D02*
X278392000Y-180173380D01*
X278487238Y-180316238D01*
X278582476Y-180411476D01*
X278677714Y-180459095D01*
X277487238Y-180173380D02*
X277392000Y-180173380D01*
X277296761Y-180221000D01*
X277249142Y-180268619D01*
X277201523Y-180363857D01*
X277153904Y-180554333D01*
X277153904Y-180792428D01*
X277201523Y-180982904D01*
X277249142Y-181078142D01*
X277296761Y-181125761D01*
X277392000Y-181173380D01*
X277487238Y-181173380D01*
X277582476Y-181125761D01*
X277630095Y-181078142D01*
X277677714Y-180982904D01*
X277725333Y-180792428D01*
X277725333Y-180554333D01*
X277677714Y-180363857D01*
X277630095Y-180268619D01*
X277582476Y-180221000D01*
X277487238Y-180173380D01*
X249753380Y-188110952D02*
X249277190Y-187777619D01*
X249753380Y-187539523D02*
X248753380Y-187539523D01*
X248753380Y-187920476D01*
X248801000Y-188015714D01*
X248848619Y-188063333D01*
X248943857Y-188110952D01*
X249086714Y-188110952D01*
X249181952Y-188063333D01*
X249229571Y-188015714D01*
X249277190Y-187920476D01*
X249277190Y-187539523D01*
X248753380Y-189015714D02*
X248753380Y-188539523D01*
X249229571Y-188491904D01*
X249181952Y-188539523D01*
X249134333Y-188634761D01*
X249134333Y-188872857D01*
X249181952Y-188968095D01*
X249229571Y-189015714D01*
X249324809Y-189063333D01*
X249562904Y-189063333D01*
X249658142Y-189015714D01*
X249705761Y-188968095D01*
X249753380Y-188872857D01*
X249753380Y-188634761D01*
X249705761Y-188539523D01*
X249658142Y-188491904D01*
X249753380Y-190015714D02*
X249753380Y-189444285D01*
X249753380Y-189730000D02*
X248753380Y-189730000D01*
X248896238Y-189634761D01*
X248991476Y-189539523D01*
X249039095Y-189444285D01*
X249753380Y-190968095D02*
X249753380Y-190396666D01*
X249753380Y-190682380D02*
X248753380Y-190682380D01*
X248896238Y-190587142D01*
X248991476Y-190491904D01*
X249039095Y-190396666D01*
X251563047Y-181173380D02*
X251896380Y-180697190D01*
X252134476Y-181173380D02*
X252134476Y-180173380D01*
X251753523Y-180173380D01*
X251658285Y-180221000D01*
X251610666Y-180268619D01*
X251563047Y-180363857D01*
X251563047Y-180506714D01*
X251610666Y-180601952D01*
X251658285Y-180649571D01*
X251753523Y-180697190D01*
X252134476Y-180697190D01*
X250658285Y-180173380D02*
X251134476Y-180173380D01*
X251182095Y-180649571D01*
X251134476Y-180601952D01*
X251039238Y-180554333D01*
X250801142Y-180554333D01*
X250705904Y-180601952D01*
X250658285Y-180649571D01*
X250610666Y-180744809D01*
X250610666Y-180982904D01*
X250658285Y-181078142D01*
X250705904Y-181125761D01*
X250801142Y-181173380D01*
X251039238Y-181173380D01*
X251134476Y-181125761D01*
X251182095Y-181078142D01*
X249658285Y-181173380D02*
X250229714Y-181173380D01*
X249944000Y-181173380D02*
X249944000Y-180173380D01*
X250039238Y-180316238D01*
X250134476Y-180411476D01*
X250229714Y-180459095D01*
X249277333Y-180268619D02*
X249229714Y-180221000D01*
X249134476Y-180173380D01*
X248896380Y-180173380D01*
X248801142Y-180221000D01*
X248753523Y-180268619D01*
X248705904Y-180363857D01*
X248705904Y-180459095D01*
X248753523Y-180601952D01*
X249324952Y-181173380D01*
X248705904Y-181173380D01*
X234037047Y-215717380D02*
X234370380Y-215241190D01*
X234608476Y-215717380D02*
X234608476Y-214717380D01*
X234227523Y-214717380D01*
X234132285Y-214765000D01*
X234084666Y-214812619D01*
X234037047Y-214907857D01*
X234037047Y-215050714D01*
X234084666Y-215145952D01*
X234132285Y-215193571D01*
X234227523Y-215241190D01*
X234608476Y-215241190D01*
X233179904Y-214717380D02*
X233370380Y-214717380D01*
X233465619Y-214765000D01*
X233513238Y-214812619D01*
X233608476Y-214955476D01*
X233656095Y-215145952D01*
X233656095Y-215526904D01*
X233608476Y-215622142D01*
X233560857Y-215669761D01*
X233465619Y-215717380D01*
X233275142Y-215717380D01*
X233179904Y-215669761D01*
X233132285Y-215622142D01*
X233084666Y-215526904D01*
X233084666Y-215288809D01*
X233132285Y-215193571D01*
X233179904Y-215145952D01*
X233275142Y-215098333D01*
X233465619Y-215098333D01*
X233560857Y-215145952D01*
X233608476Y-215193571D01*
X233656095Y-215288809D01*
X232465619Y-214717380D02*
X232370380Y-214717380D01*
X232275142Y-214765000D01*
X232227523Y-214812619D01*
X232179904Y-214907857D01*
X232132285Y-215098333D01*
X232132285Y-215336428D01*
X232179904Y-215526904D01*
X232227523Y-215622142D01*
X232275142Y-215669761D01*
X232370380Y-215717380D01*
X232465619Y-215717380D01*
X232560857Y-215669761D01*
X232608476Y-215622142D01*
X232656095Y-215526904D01*
X232703714Y-215336428D01*
X232703714Y-215098333D01*
X232656095Y-214907857D01*
X232608476Y-214812619D01*
X232560857Y-214765000D01*
X232465619Y-214717380D01*
X231179904Y-215717380D02*
X231751333Y-215717380D01*
X231465619Y-215717380D02*
X231465619Y-214717380D01*
X231560857Y-214860238D01*
X231656095Y-214955476D01*
X231751333Y-215003095D01*
X234037047Y-213558380D02*
X234370380Y-213082190D01*
X234608476Y-213558380D02*
X234608476Y-212558380D01*
X234227523Y-212558380D01*
X234132285Y-212606000D01*
X234084666Y-212653619D01*
X234037047Y-212748857D01*
X234037047Y-212891714D01*
X234084666Y-212986952D01*
X234132285Y-213034571D01*
X234227523Y-213082190D01*
X234608476Y-213082190D01*
X233179904Y-212558380D02*
X233370380Y-212558380D01*
X233465619Y-212606000D01*
X233513238Y-212653619D01*
X233608476Y-212796476D01*
X233656095Y-212986952D01*
X233656095Y-213367904D01*
X233608476Y-213463142D01*
X233560857Y-213510761D01*
X233465619Y-213558380D01*
X233275142Y-213558380D01*
X233179904Y-213510761D01*
X233132285Y-213463142D01*
X233084666Y-213367904D01*
X233084666Y-213129809D01*
X233132285Y-213034571D01*
X233179904Y-212986952D01*
X233275142Y-212939333D01*
X233465619Y-212939333D01*
X233560857Y-212986952D01*
X233608476Y-213034571D01*
X233656095Y-213129809D01*
X232465619Y-212558380D02*
X232370380Y-212558380D01*
X232275142Y-212606000D01*
X232227523Y-212653619D01*
X232179904Y-212748857D01*
X232132285Y-212939333D01*
X232132285Y-213177428D01*
X232179904Y-213367904D01*
X232227523Y-213463142D01*
X232275142Y-213510761D01*
X232370380Y-213558380D01*
X232465619Y-213558380D01*
X232560857Y-213510761D01*
X232608476Y-213463142D01*
X232656095Y-213367904D01*
X232703714Y-213177428D01*
X232703714Y-212939333D01*
X232656095Y-212748857D01*
X232608476Y-212653619D01*
X232560857Y-212606000D01*
X232465619Y-212558380D01*
X231751333Y-212653619D02*
X231703714Y-212606000D01*
X231608476Y-212558380D01*
X231370380Y-212558380D01*
X231275142Y-212606000D01*
X231227523Y-212653619D01*
X231179904Y-212748857D01*
X231179904Y-212844095D01*
X231227523Y-212986952D01*
X231798952Y-213558380D01*
X231179904Y-213558380D01*
X284456047Y-207843380D02*
X284789380Y-207367190D01*
X285027476Y-207843380D02*
X285027476Y-206843380D01*
X284646523Y-206843380D01*
X284551285Y-206891000D01*
X284503666Y-206938619D01*
X284456047Y-207033857D01*
X284456047Y-207176714D01*
X284503666Y-207271952D01*
X284551285Y-207319571D01*
X284646523Y-207367190D01*
X285027476Y-207367190D01*
X283598904Y-206843380D02*
X283789380Y-206843380D01*
X283884619Y-206891000D01*
X283932238Y-206938619D01*
X284027476Y-207081476D01*
X284075095Y-207271952D01*
X284075095Y-207652904D01*
X284027476Y-207748142D01*
X283979857Y-207795761D01*
X283884619Y-207843380D01*
X283694142Y-207843380D01*
X283598904Y-207795761D01*
X283551285Y-207748142D01*
X283503666Y-207652904D01*
X283503666Y-207414809D01*
X283551285Y-207319571D01*
X283598904Y-207271952D01*
X283694142Y-207224333D01*
X283884619Y-207224333D01*
X283979857Y-207271952D01*
X284027476Y-207319571D01*
X284075095Y-207414809D01*
X282884619Y-206843380D02*
X282789380Y-206843380D01*
X282694142Y-206891000D01*
X282646523Y-206938619D01*
X282598904Y-207033857D01*
X282551285Y-207224333D01*
X282551285Y-207462428D01*
X282598904Y-207652904D01*
X282646523Y-207748142D01*
X282694142Y-207795761D01*
X282789380Y-207843380D01*
X282884619Y-207843380D01*
X282979857Y-207795761D01*
X283027476Y-207748142D01*
X283075095Y-207652904D01*
X283122714Y-207462428D01*
X283122714Y-207224333D01*
X283075095Y-207033857D01*
X283027476Y-206938619D01*
X282979857Y-206891000D01*
X282884619Y-206843380D01*
X282217952Y-206843380D02*
X281598904Y-206843380D01*
X281932238Y-207224333D01*
X281789380Y-207224333D01*
X281694142Y-207271952D01*
X281646523Y-207319571D01*
X281598904Y-207414809D01*
X281598904Y-207652904D01*
X281646523Y-207748142D01*
X281694142Y-207795761D01*
X281789380Y-207843380D01*
X282075095Y-207843380D01*
X282170333Y-207795761D01*
X282217952Y-207748142D01*
X284583047Y-209875380D02*
X284916380Y-209399190D01*
X285154476Y-209875380D02*
X285154476Y-208875380D01*
X284773523Y-208875380D01*
X284678285Y-208923000D01*
X284630666Y-208970619D01*
X284583047Y-209065857D01*
X284583047Y-209208714D01*
X284630666Y-209303952D01*
X284678285Y-209351571D01*
X284773523Y-209399190D01*
X285154476Y-209399190D01*
X283725904Y-208875380D02*
X283916380Y-208875380D01*
X284011619Y-208923000D01*
X284059238Y-208970619D01*
X284154476Y-209113476D01*
X284202095Y-209303952D01*
X284202095Y-209684904D01*
X284154476Y-209780142D01*
X284106857Y-209827761D01*
X284011619Y-209875380D01*
X283821142Y-209875380D01*
X283725904Y-209827761D01*
X283678285Y-209780142D01*
X283630666Y-209684904D01*
X283630666Y-209446809D01*
X283678285Y-209351571D01*
X283725904Y-209303952D01*
X283821142Y-209256333D01*
X284011619Y-209256333D01*
X284106857Y-209303952D01*
X284154476Y-209351571D01*
X284202095Y-209446809D01*
X283011619Y-208875380D02*
X282916380Y-208875380D01*
X282821142Y-208923000D01*
X282773523Y-208970619D01*
X282725904Y-209065857D01*
X282678285Y-209256333D01*
X282678285Y-209494428D01*
X282725904Y-209684904D01*
X282773523Y-209780142D01*
X282821142Y-209827761D01*
X282916380Y-209875380D01*
X283011619Y-209875380D01*
X283106857Y-209827761D01*
X283154476Y-209780142D01*
X283202095Y-209684904D01*
X283249714Y-209494428D01*
X283249714Y-209256333D01*
X283202095Y-209065857D01*
X283154476Y-208970619D01*
X283106857Y-208923000D01*
X283011619Y-208875380D01*
X281821142Y-209208714D02*
X281821142Y-209875380D01*
X282059238Y-208827761D02*
X282297333Y-209542047D01*
X281678285Y-209542047D01*
X364847047Y-195270380D02*
X365180380Y-194794190D01*
X365418476Y-195270380D02*
X365418476Y-194270380D01*
X365037523Y-194270380D01*
X364942285Y-194318000D01*
X364894666Y-194365619D01*
X364847047Y-194460857D01*
X364847047Y-194603714D01*
X364894666Y-194698952D01*
X364942285Y-194746571D01*
X365037523Y-194794190D01*
X365418476Y-194794190D01*
X363989904Y-194270380D02*
X364180380Y-194270380D01*
X364275619Y-194318000D01*
X364323238Y-194365619D01*
X364418476Y-194508476D01*
X364466095Y-194698952D01*
X364466095Y-195079904D01*
X364418476Y-195175142D01*
X364370857Y-195222761D01*
X364275619Y-195270380D01*
X364085142Y-195270380D01*
X363989904Y-195222761D01*
X363942285Y-195175142D01*
X363894666Y-195079904D01*
X363894666Y-194841809D01*
X363942285Y-194746571D01*
X363989904Y-194698952D01*
X364085142Y-194651333D01*
X364275619Y-194651333D01*
X364370857Y-194698952D01*
X364418476Y-194746571D01*
X364466095Y-194841809D01*
X363275619Y-194270380D02*
X363180380Y-194270380D01*
X363085142Y-194318000D01*
X363037523Y-194365619D01*
X362989904Y-194460857D01*
X362942285Y-194651333D01*
X362942285Y-194889428D01*
X362989904Y-195079904D01*
X363037523Y-195175142D01*
X363085142Y-195222761D01*
X363180380Y-195270380D01*
X363275619Y-195270380D01*
X363370857Y-195222761D01*
X363418476Y-195175142D01*
X363466095Y-195079904D01*
X363513714Y-194889428D01*
X363513714Y-194651333D01*
X363466095Y-194460857D01*
X363418476Y-194365619D01*
X363370857Y-194318000D01*
X363275619Y-194270380D01*
X362037523Y-194270380D02*
X362513714Y-194270380D01*
X362561333Y-194746571D01*
X362513714Y-194698952D01*
X362418476Y-194651333D01*
X362180380Y-194651333D01*
X362085142Y-194698952D01*
X362037523Y-194746571D01*
X361989904Y-194841809D01*
X361989904Y-195079904D01*
X362037523Y-195175142D01*
X362085142Y-195222761D01*
X362180380Y-195270380D01*
X362418476Y-195270380D01*
X362513714Y-195222761D01*
X362561333Y-195175142D01*
X364847047Y-197429380D02*
X365180380Y-196953190D01*
X365418476Y-197429380D02*
X365418476Y-196429380D01*
X365037523Y-196429380D01*
X364942285Y-196477000D01*
X364894666Y-196524619D01*
X364847047Y-196619857D01*
X364847047Y-196762714D01*
X364894666Y-196857952D01*
X364942285Y-196905571D01*
X365037523Y-196953190D01*
X365418476Y-196953190D01*
X363989904Y-196429380D02*
X364180380Y-196429380D01*
X364275619Y-196477000D01*
X364323238Y-196524619D01*
X364418476Y-196667476D01*
X364466095Y-196857952D01*
X364466095Y-197238904D01*
X364418476Y-197334142D01*
X364370857Y-197381761D01*
X364275619Y-197429380D01*
X364085142Y-197429380D01*
X363989904Y-197381761D01*
X363942285Y-197334142D01*
X363894666Y-197238904D01*
X363894666Y-197000809D01*
X363942285Y-196905571D01*
X363989904Y-196857952D01*
X364085142Y-196810333D01*
X364275619Y-196810333D01*
X364370857Y-196857952D01*
X364418476Y-196905571D01*
X364466095Y-197000809D01*
X363275619Y-196429380D02*
X363180380Y-196429380D01*
X363085142Y-196477000D01*
X363037523Y-196524619D01*
X362989904Y-196619857D01*
X362942285Y-196810333D01*
X362942285Y-197048428D01*
X362989904Y-197238904D01*
X363037523Y-197334142D01*
X363085142Y-197381761D01*
X363180380Y-197429380D01*
X363275619Y-197429380D01*
X363370857Y-197381761D01*
X363418476Y-197334142D01*
X363466095Y-197238904D01*
X363513714Y-197048428D01*
X363513714Y-196810333D01*
X363466095Y-196619857D01*
X363418476Y-196524619D01*
X363370857Y-196477000D01*
X363275619Y-196429380D01*
X362085142Y-196429380D02*
X362275619Y-196429380D01*
X362370857Y-196477000D01*
X362418476Y-196524619D01*
X362513714Y-196667476D01*
X362561333Y-196857952D01*
X362561333Y-197238904D01*
X362513714Y-197334142D01*
X362466095Y-197381761D01*
X362370857Y-197429380D01*
X362180380Y-197429380D01*
X362085142Y-197381761D01*
X362037523Y-197334142D01*
X361989904Y-197238904D01*
X361989904Y-197000809D01*
X362037523Y-196905571D01*
X362085142Y-196857952D01*
X362180380Y-196810333D01*
X362370857Y-196810333D01*
X362466095Y-196857952D01*
X362513714Y-196905571D01*
X362561333Y-197000809D01*
X364847047Y-199588380D02*
X365180380Y-199112190D01*
X365418476Y-199588380D02*
X365418476Y-198588380D01*
X365037523Y-198588380D01*
X364942285Y-198636000D01*
X364894666Y-198683619D01*
X364847047Y-198778857D01*
X364847047Y-198921714D01*
X364894666Y-199016952D01*
X364942285Y-199064571D01*
X365037523Y-199112190D01*
X365418476Y-199112190D01*
X363989904Y-198588380D02*
X364180380Y-198588380D01*
X364275619Y-198636000D01*
X364323238Y-198683619D01*
X364418476Y-198826476D01*
X364466095Y-199016952D01*
X364466095Y-199397904D01*
X364418476Y-199493142D01*
X364370857Y-199540761D01*
X364275619Y-199588380D01*
X364085142Y-199588380D01*
X363989904Y-199540761D01*
X363942285Y-199493142D01*
X363894666Y-199397904D01*
X363894666Y-199159809D01*
X363942285Y-199064571D01*
X363989904Y-199016952D01*
X364085142Y-198969333D01*
X364275619Y-198969333D01*
X364370857Y-199016952D01*
X364418476Y-199064571D01*
X364466095Y-199159809D01*
X363275619Y-198588380D02*
X363180380Y-198588380D01*
X363085142Y-198636000D01*
X363037523Y-198683619D01*
X362989904Y-198778857D01*
X362942285Y-198969333D01*
X362942285Y-199207428D01*
X362989904Y-199397904D01*
X363037523Y-199493142D01*
X363085142Y-199540761D01*
X363180380Y-199588380D01*
X363275619Y-199588380D01*
X363370857Y-199540761D01*
X363418476Y-199493142D01*
X363466095Y-199397904D01*
X363513714Y-199207428D01*
X363513714Y-198969333D01*
X363466095Y-198778857D01*
X363418476Y-198683619D01*
X363370857Y-198636000D01*
X363275619Y-198588380D01*
X362608952Y-198588380D02*
X361942285Y-198588380D01*
X362370857Y-199588380D01*
X360910047Y-203525380D02*
X361243380Y-203049190D01*
X361481476Y-203525380D02*
X361481476Y-202525380D01*
X361100523Y-202525380D01*
X361005285Y-202573000D01*
X360957666Y-202620619D01*
X360910047Y-202715857D01*
X360910047Y-202858714D01*
X360957666Y-202953952D01*
X361005285Y-203001571D01*
X361100523Y-203049190D01*
X361481476Y-203049190D01*
X360052904Y-202525380D02*
X360243380Y-202525380D01*
X360338619Y-202573000D01*
X360386238Y-202620619D01*
X360481476Y-202763476D01*
X360529095Y-202953952D01*
X360529095Y-203334904D01*
X360481476Y-203430142D01*
X360433857Y-203477761D01*
X360338619Y-203525380D01*
X360148142Y-203525380D01*
X360052904Y-203477761D01*
X360005285Y-203430142D01*
X359957666Y-203334904D01*
X359957666Y-203096809D01*
X360005285Y-203001571D01*
X360052904Y-202953952D01*
X360148142Y-202906333D01*
X360338619Y-202906333D01*
X360433857Y-202953952D01*
X360481476Y-203001571D01*
X360529095Y-203096809D01*
X359338619Y-202525380D02*
X359243380Y-202525380D01*
X359148142Y-202573000D01*
X359100523Y-202620619D01*
X359052904Y-202715857D01*
X359005285Y-202906333D01*
X359005285Y-203144428D01*
X359052904Y-203334904D01*
X359100523Y-203430142D01*
X359148142Y-203477761D01*
X359243380Y-203525380D01*
X359338619Y-203525380D01*
X359433857Y-203477761D01*
X359481476Y-203430142D01*
X359529095Y-203334904D01*
X359576714Y-203144428D01*
X359576714Y-202906333D01*
X359529095Y-202715857D01*
X359481476Y-202620619D01*
X359433857Y-202573000D01*
X359338619Y-202525380D01*
X358433857Y-202953952D02*
X358529095Y-202906333D01*
X358576714Y-202858714D01*
X358624333Y-202763476D01*
X358624333Y-202715857D01*
X358576714Y-202620619D01*
X358529095Y-202573000D01*
X358433857Y-202525380D01*
X358243380Y-202525380D01*
X358148142Y-202573000D01*
X358100523Y-202620619D01*
X358052904Y-202715857D01*
X358052904Y-202763476D01*
X358100523Y-202858714D01*
X358148142Y-202906333D01*
X358243380Y-202953952D01*
X358433857Y-202953952D01*
X358529095Y-203001571D01*
X358576714Y-203049190D01*
X358624333Y-203144428D01*
X358624333Y-203334904D01*
X358576714Y-203430142D01*
X358529095Y-203477761D01*
X358433857Y-203525380D01*
X358243380Y-203525380D01*
X358148142Y-203477761D01*
X358100523Y-203430142D01*
X358052904Y-203334904D01*
X358052904Y-203144428D01*
X358100523Y-203049190D01*
X358148142Y-203001571D01*
X358243380Y-202953952D01*
X282551047Y-213939380D02*
X282884380Y-213463190D01*
X283122476Y-213939380D02*
X283122476Y-212939380D01*
X282741523Y-212939380D01*
X282646285Y-212987000D01*
X282598666Y-213034619D01*
X282551047Y-213129857D01*
X282551047Y-213272714D01*
X282598666Y-213367952D01*
X282646285Y-213415571D01*
X282741523Y-213463190D01*
X283122476Y-213463190D01*
X281693904Y-212939380D02*
X281884380Y-212939380D01*
X281979619Y-212987000D01*
X282027238Y-213034619D01*
X282122476Y-213177476D01*
X282170095Y-213367952D01*
X282170095Y-213748904D01*
X282122476Y-213844142D01*
X282074857Y-213891761D01*
X281979619Y-213939380D01*
X281789142Y-213939380D01*
X281693904Y-213891761D01*
X281646285Y-213844142D01*
X281598666Y-213748904D01*
X281598666Y-213510809D01*
X281646285Y-213415571D01*
X281693904Y-213367952D01*
X281789142Y-213320333D01*
X281979619Y-213320333D01*
X282074857Y-213367952D01*
X282122476Y-213415571D01*
X282170095Y-213510809D01*
X280979619Y-212939380D02*
X280884380Y-212939380D01*
X280789142Y-212987000D01*
X280741523Y-213034619D01*
X280693904Y-213129857D01*
X280646285Y-213320333D01*
X280646285Y-213558428D01*
X280693904Y-213748904D01*
X280741523Y-213844142D01*
X280789142Y-213891761D01*
X280884380Y-213939380D01*
X280979619Y-213939380D01*
X281074857Y-213891761D01*
X281122476Y-213844142D01*
X281170095Y-213748904D01*
X281217714Y-213558428D01*
X281217714Y-213320333D01*
X281170095Y-213129857D01*
X281122476Y-213034619D01*
X281074857Y-212987000D01*
X280979619Y-212939380D01*
X280170095Y-213939380D02*
X279979619Y-213939380D01*
X279884380Y-213891761D01*
X279836761Y-213844142D01*
X279741523Y-213701285D01*
X279693904Y-213510809D01*
X279693904Y-213129857D01*
X279741523Y-213034619D01*
X279789142Y-212987000D01*
X279884380Y-212939380D01*
X280074857Y-212939380D01*
X280170095Y-212987000D01*
X280217714Y-213034619D01*
X280265333Y-213129857D01*
X280265333Y-213367952D01*
X280217714Y-213463190D01*
X280170095Y-213510809D01*
X280074857Y-213558428D01*
X279884380Y-213558428D01*
X279789142Y-213510809D01*
X279741523Y-213463190D01*
X279693904Y-213367952D01*
X282551047Y-211907380D02*
X282884380Y-211431190D01*
X283122476Y-211907380D02*
X283122476Y-210907380D01*
X282741523Y-210907380D01*
X282646285Y-210955000D01*
X282598666Y-211002619D01*
X282551047Y-211097857D01*
X282551047Y-211240714D01*
X282598666Y-211335952D01*
X282646285Y-211383571D01*
X282741523Y-211431190D01*
X283122476Y-211431190D01*
X281693904Y-210907380D02*
X281884380Y-210907380D01*
X281979619Y-210955000D01*
X282027238Y-211002619D01*
X282122476Y-211145476D01*
X282170095Y-211335952D01*
X282170095Y-211716904D01*
X282122476Y-211812142D01*
X282074857Y-211859761D01*
X281979619Y-211907380D01*
X281789142Y-211907380D01*
X281693904Y-211859761D01*
X281646285Y-211812142D01*
X281598666Y-211716904D01*
X281598666Y-211478809D01*
X281646285Y-211383571D01*
X281693904Y-211335952D01*
X281789142Y-211288333D01*
X281979619Y-211288333D01*
X282074857Y-211335952D01*
X282122476Y-211383571D01*
X282170095Y-211478809D01*
X280646285Y-211907380D02*
X281217714Y-211907380D01*
X280932000Y-211907380D02*
X280932000Y-210907380D01*
X281027238Y-211050238D01*
X281122476Y-211145476D01*
X281217714Y-211193095D01*
X280027238Y-210907380D02*
X279932000Y-210907380D01*
X279836761Y-210955000D01*
X279789142Y-211002619D01*
X279741523Y-211097857D01*
X279693904Y-211288333D01*
X279693904Y-211526428D01*
X279741523Y-211716904D01*
X279789142Y-211812142D01*
X279836761Y-211859761D01*
X279932000Y-211907380D01*
X280027238Y-211907380D01*
X280122476Y-211859761D01*
X280170095Y-211812142D01*
X280217714Y-211716904D01*
X280265333Y-211526428D01*
X280265333Y-211288333D01*
X280217714Y-211097857D01*
X280170095Y-211002619D01*
X280122476Y-210955000D01*
X280027238Y-210907380D01*
X251944142Y-188110952D02*
X251991761Y-188063333D01*
X252039380Y-187920476D01*
X252039380Y-187825238D01*
X251991761Y-187682380D01*
X251896523Y-187587142D01*
X251801285Y-187539523D01*
X251610809Y-187491904D01*
X251467952Y-187491904D01*
X251277476Y-187539523D01*
X251182238Y-187587142D01*
X251087000Y-187682380D01*
X251039380Y-187825238D01*
X251039380Y-187920476D01*
X251087000Y-188063333D01*
X251134619Y-188110952D01*
X251039380Y-189015714D02*
X251039380Y-188539523D01*
X251515571Y-188491904D01*
X251467952Y-188539523D01*
X251420333Y-188634761D01*
X251420333Y-188872857D01*
X251467952Y-188968095D01*
X251515571Y-189015714D01*
X251610809Y-189063333D01*
X251848904Y-189063333D01*
X251944142Y-189015714D01*
X251991761Y-188968095D01*
X252039380Y-188872857D01*
X252039380Y-188634761D01*
X251991761Y-188539523D01*
X251944142Y-188491904D01*
X252039380Y-190015714D02*
X252039380Y-189444285D01*
X252039380Y-189730000D02*
X251039380Y-189730000D01*
X251182238Y-189634761D01*
X251277476Y-189539523D01*
X251325095Y-189444285D01*
X251467952Y-190587142D02*
X251420333Y-190491904D01*
X251372714Y-190444285D01*
X251277476Y-190396666D01*
X251229857Y-190396666D01*
X251134619Y-190444285D01*
X251087000Y-190491904D01*
X251039380Y-190587142D01*
X251039380Y-190777619D01*
X251087000Y-190872857D01*
X251134619Y-190920476D01*
X251229857Y-190968095D01*
X251277476Y-190968095D01*
X251372714Y-190920476D01*
X251420333Y-190872857D01*
X251467952Y-190777619D01*
X251467952Y-190587142D01*
X251515571Y-190491904D01*
X251563190Y-190444285D01*
X251658428Y-190396666D01*
X251848904Y-190396666D01*
X251944142Y-190444285D01*
X251991761Y-190491904D01*
X252039380Y-190587142D01*
X252039380Y-190777619D01*
X251991761Y-190872857D01*
X251944142Y-190920476D01*
X251848904Y-190968095D01*
X251658428Y-190968095D01*
X251563190Y-190920476D01*
X251515571Y-190872857D01*
X251467952Y-190777619D01*
X280392142Y-188110952D02*
X280439761Y-188063333D01*
X280487380Y-187920476D01*
X280487380Y-187825238D01*
X280439761Y-187682380D01*
X280344523Y-187587142D01*
X280249285Y-187539523D01*
X280058809Y-187491904D01*
X279915952Y-187491904D01*
X279725476Y-187539523D01*
X279630238Y-187587142D01*
X279535000Y-187682380D01*
X279487380Y-187825238D01*
X279487380Y-187920476D01*
X279535000Y-188063333D01*
X279582619Y-188110952D01*
X279487380Y-189015714D02*
X279487380Y-188539523D01*
X279963571Y-188491904D01*
X279915952Y-188539523D01*
X279868333Y-188634761D01*
X279868333Y-188872857D01*
X279915952Y-188968095D01*
X279963571Y-189015714D01*
X280058809Y-189063333D01*
X280296904Y-189063333D01*
X280392142Y-189015714D01*
X280439761Y-188968095D01*
X280487380Y-188872857D01*
X280487380Y-188634761D01*
X280439761Y-188539523D01*
X280392142Y-188491904D01*
X280487380Y-190015714D02*
X280487380Y-189444285D01*
X280487380Y-189730000D02*
X279487380Y-189730000D01*
X279630238Y-189634761D01*
X279725476Y-189539523D01*
X279773095Y-189444285D01*
X279487380Y-190349047D02*
X279487380Y-191015714D01*
X280487380Y-190587142D01*
X308840142Y-188110952D02*
X308887761Y-188063333D01*
X308935380Y-187920476D01*
X308935380Y-187825238D01*
X308887761Y-187682380D01*
X308792523Y-187587142D01*
X308697285Y-187539523D01*
X308506809Y-187491904D01*
X308363952Y-187491904D01*
X308173476Y-187539523D01*
X308078238Y-187587142D01*
X307983000Y-187682380D01*
X307935380Y-187825238D01*
X307935380Y-187920476D01*
X307983000Y-188063333D01*
X308030619Y-188110952D01*
X307935380Y-189015714D02*
X307935380Y-188539523D01*
X308411571Y-188491904D01*
X308363952Y-188539523D01*
X308316333Y-188634761D01*
X308316333Y-188872857D01*
X308363952Y-188968095D01*
X308411571Y-189015714D01*
X308506809Y-189063333D01*
X308744904Y-189063333D01*
X308840142Y-189015714D01*
X308887761Y-188968095D01*
X308935380Y-188872857D01*
X308935380Y-188634761D01*
X308887761Y-188539523D01*
X308840142Y-188491904D01*
X308935380Y-190015714D02*
X308935380Y-189444285D01*
X308935380Y-189730000D02*
X307935380Y-189730000D01*
X308078238Y-189634761D01*
X308173476Y-189539523D01*
X308221095Y-189444285D01*
X307935380Y-190872857D02*
X307935380Y-190682380D01*
X307983000Y-190587142D01*
X308030619Y-190539523D01*
X308173476Y-190444285D01*
X308363952Y-190396666D01*
X308744904Y-190396666D01*
X308840142Y-190444285D01*
X308887761Y-190491904D01*
X308935380Y-190587142D01*
X308935380Y-190777619D01*
X308887761Y-190872857D01*
X308840142Y-190920476D01*
X308744904Y-190968095D01*
X308506809Y-190968095D01*
X308411571Y-190920476D01*
X308363952Y-190872857D01*
X308316333Y-190777619D01*
X308316333Y-190587142D01*
X308363952Y-190491904D01*
X308411571Y-190444285D01*
X308506809Y-190396666D01*
X265279047Y-176887142D02*
X265326666Y-176934761D01*
X265469523Y-176982380D01*
X265564761Y-176982380D01*
X265707619Y-176934761D01*
X265802857Y-176839523D01*
X265850476Y-176744285D01*
X265898095Y-176553809D01*
X265898095Y-176410952D01*
X265850476Y-176220476D01*
X265802857Y-176125238D01*
X265707619Y-176030000D01*
X265564761Y-175982380D01*
X265469523Y-175982380D01*
X265326666Y-176030000D01*
X265279047Y-176077619D01*
X264374285Y-175982380D02*
X264850476Y-175982380D01*
X264898095Y-176458571D01*
X264850476Y-176410952D01*
X264755238Y-176363333D01*
X264517142Y-176363333D01*
X264421904Y-176410952D01*
X264374285Y-176458571D01*
X264326666Y-176553809D01*
X264326666Y-176791904D01*
X264374285Y-176887142D01*
X264421904Y-176934761D01*
X264517142Y-176982380D01*
X264755238Y-176982380D01*
X264850476Y-176934761D01*
X264898095Y-176887142D01*
X263374285Y-176982380D02*
X263945714Y-176982380D01*
X263660000Y-176982380D02*
X263660000Y-175982380D01*
X263755238Y-176125238D01*
X263850476Y-176220476D01*
X263945714Y-176268095D01*
X262993333Y-176077619D02*
X262945714Y-176030000D01*
X262850476Y-175982380D01*
X262612380Y-175982380D01*
X262517142Y-176030000D01*
X262469523Y-176077619D01*
X262421904Y-176172857D01*
X262421904Y-176268095D01*
X262469523Y-176410952D01*
X263040952Y-176982380D01*
X262421904Y-176982380D01*
X293727047Y-176887142D02*
X293774666Y-176934761D01*
X293917523Y-176982380D01*
X294012761Y-176982380D01*
X294155619Y-176934761D01*
X294250857Y-176839523D01*
X294298476Y-176744285D01*
X294346095Y-176553809D01*
X294346095Y-176410952D01*
X294298476Y-176220476D01*
X294250857Y-176125238D01*
X294155619Y-176030000D01*
X294012761Y-175982380D01*
X293917523Y-175982380D01*
X293774666Y-176030000D01*
X293727047Y-176077619D01*
X292822285Y-175982380D02*
X293298476Y-175982380D01*
X293346095Y-176458571D01*
X293298476Y-176410952D01*
X293203238Y-176363333D01*
X292965142Y-176363333D01*
X292869904Y-176410952D01*
X292822285Y-176458571D01*
X292774666Y-176553809D01*
X292774666Y-176791904D01*
X292822285Y-176887142D01*
X292869904Y-176934761D01*
X292965142Y-176982380D01*
X293203238Y-176982380D01*
X293298476Y-176934761D01*
X293346095Y-176887142D01*
X291822285Y-176982380D02*
X292393714Y-176982380D01*
X292108000Y-176982380D02*
X292108000Y-175982380D01*
X292203238Y-176125238D01*
X292298476Y-176220476D01*
X292393714Y-176268095D01*
X290869904Y-176982380D02*
X291441333Y-176982380D01*
X291155619Y-176982380D02*
X291155619Y-175982380D01*
X291250857Y-176125238D01*
X291346095Y-176220476D01*
X291441333Y-176268095D01*
X322175047Y-176887142D02*
X322222666Y-176934761D01*
X322365523Y-176982380D01*
X322460761Y-176982380D01*
X322603619Y-176934761D01*
X322698857Y-176839523D01*
X322746476Y-176744285D01*
X322794095Y-176553809D01*
X322794095Y-176410952D01*
X322746476Y-176220476D01*
X322698857Y-176125238D01*
X322603619Y-176030000D01*
X322460761Y-175982380D01*
X322365523Y-175982380D01*
X322222666Y-176030000D01*
X322175047Y-176077619D01*
X321270285Y-175982380D02*
X321746476Y-175982380D01*
X321794095Y-176458571D01*
X321746476Y-176410952D01*
X321651238Y-176363333D01*
X321413142Y-176363333D01*
X321317904Y-176410952D01*
X321270285Y-176458571D01*
X321222666Y-176553809D01*
X321222666Y-176791904D01*
X321270285Y-176887142D01*
X321317904Y-176934761D01*
X321413142Y-176982380D01*
X321651238Y-176982380D01*
X321746476Y-176934761D01*
X321794095Y-176887142D01*
X320270285Y-176982380D02*
X320841714Y-176982380D01*
X320556000Y-176982380D02*
X320556000Y-175982380D01*
X320651238Y-176125238D01*
X320746476Y-176220476D01*
X320841714Y-176268095D01*
X319651238Y-175982380D02*
X319556000Y-175982380D01*
X319460761Y-176030000D01*
X319413142Y-176077619D01*
X319365523Y-176172857D01*
X319317904Y-176363333D01*
X319317904Y-176601428D01*
X319365523Y-176791904D01*
X319413142Y-176887142D01*
X319460761Y-176934761D01*
X319556000Y-176982380D01*
X319651238Y-176982380D01*
X319746476Y-176934761D01*
X319794095Y-176887142D01*
X319841714Y-176791904D01*
X319889333Y-176601428D01*
X319889333Y-176363333D01*
X319841714Y-176172857D01*
X319794095Y-176077619D01*
X319746476Y-176030000D01*
X319651238Y-175982380D01*
X259183047Y-171934142D02*
X259230666Y-171981761D01*
X259373523Y-172029380D01*
X259468761Y-172029380D01*
X259611619Y-171981761D01*
X259706857Y-171886523D01*
X259754476Y-171791285D01*
X259802095Y-171600809D01*
X259802095Y-171457952D01*
X259754476Y-171267476D01*
X259706857Y-171172238D01*
X259611619Y-171077000D01*
X259468761Y-171029380D01*
X259373523Y-171029380D01*
X259230666Y-171077000D01*
X259183047Y-171124619D01*
X258278285Y-171029380D02*
X258754476Y-171029380D01*
X258802095Y-171505571D01*
X258754476Y-171457952D01*
X258659238Y-171410333D01*
X258421142Y-171410333D01*
X258325904Y-171457952D01*
X258278285Y-171505571D01*
X258230666Y-171600809D01*
X258230666Y-171838904D01*
X258278285Y-171934142D01*
X258325904Y-171981761D01*
X258421142Y-172029380D01*
X258659238Y-172029380D01*
X258754476Y-171981761D01*
X258802095Y-171934142D01*
X257611619Y-171029380D02*
X257516380Y-171029380D01*
X257421142Y-171077000D01*
X257373523Y-171124619D01*
X257325904Y-171219857D01*
X257278285Y-171410333D01*
X257278285Y-171648428D01*
X257325904Y-171838904D01*
X257373523Y-171934142D01*
X257421142Y-171981761D01*
X257516380Y-172029380D01*
X257611619Y-172029380D01*
X257706857Y-171981761D01*
X257754476Y-171934142D01*
X257802095Y-171838904D01*
X257849714Y-171648428D01*
X257849714Y-171410333D01*
X257802095Y-171219857D01*
X257754476Y-171124619D01*
X257706857Y-171077000D01*
X257611619Y-171029380D01*
X256802095Y-172029380D02*
X256611619Y-172029380D01*
X256516380Y-171981761D01*
X256468761Y-171934142D01*
X256373523Y-171791285D01*
X256325904Y-171600809D01*
X256325904Y-171219857D01*
X256373523Y-171124619D01*
X256421142Y-171077000D01*
X256516380Y-171029380D01*
X256706857Y-171029380D01*
X256802095Y-171077000D01*
X256849714Y-171124619D01*
X256897333Y-171219857D01*
X256897333Y-171457952D01*
X256849714Y-171553190D01*
X256802095Y-171600809D01*
X256706857Y-171648428D01*
X256516380Y-171648428D01*
X256421142Y-171600809D01*
X256373523Y-171553190D01*
X256325904Y-171457952D01*
X287631047Y-171934142D02*
X287678666Y-171981761D01*
X287821523Y-172029380D01*
X287916761Y-172029380D01*
X288059619Y-171981761D01*
X288154857Y-171886523D01*
X288202476Y-171791285D01*
X288250095Y-171600809D01*
X288250095Y-171457952D01*
X288202476Y-171267476D01*
X288154857Y-171172238D01*
X288059619Y-171077000D01*
X287916761Y-171029380D01*
X287821523Y-171029380D01*
X287678666Y-171077000D01*
X287631047Y-171124619D01*
X286726285Y-171029380D02*
X287202476Y-171029380D01*
X287250095Y-171505571D01*
X287202476Y-171457952D01*
X287107238Y-171410333D01*
X286869142Y-171410333D01*
X286773904Y-171457952D01*
X286726285Y-171505571D01*
X286678666Y-171600809D01*
X286678666Y-171838904D01*
X286726285Y-171934142D01*
X286773904Y-171981761D01*
X286869142Y-172029380D01*
X287107238Y-172029380D01*
X287202476Y-171981761D01*
X287250095Y-171934142D01*
X286059619Y-171029380D02*
X285964380Y-171029380D01*
X285869142Y-171077000D01*
X285821523Y-171124619D01*
X285773904Y-171219857D01*
X285726285Y-171410333D01*
X285726285Y-171648428D01*
X285773904Y-171838904D01*
X285821523Y-171934142D01*
X285869142Y-171981761D01*
X285964380Y-172029380D01*
X286059619Y-172029380D01*
X286154857Y-171981761D01*
X286202476Y-171934142D01*
X286250095Y-171838904D01*
X286297714Y-171648428D01*
X286297714Y-171410333D01*
X286250095Y-171219857D01*
X286202476Y-171124619D01*
X286154857Y-171077000D01*
X286059619Y-171029380D01*
X285154857Y-171457952D02*
X285250095Y-171410333D01*
X285297714Y-171362714D01*
X285345333Y-171267476D01*
X285345333Y-171219857D01*
X285297714Y-171124619D01*
X285250095Y-171077000D01*
X285154857Y-171029380D01*
X284964380Y-171029380D01*
X284869142Y-171077000D01*
X284821523Y-171124619D01*
X284773904Y-171219857D01*
X284773904Y-171267476D01*
X284821523Y-171362714D01*
X284869142Y-171410333D01*
X284964380Y-171457952D01*
X285154857Y-171457952D01*
X285250095Y-171505571D01*
X285297714Y-171553190D01*
X285345333Y-171648428D01*
X285345333Y-171838904D01*
X285297714Y-171934142D01*
X285250095Y-171981761D01*
X285154857Y-172029380D01*
X284964380Y-172029380D01*
X284869142Y-171981761D01*
X284821523Y-171934142D01*
X284773904Y-171838904D01*
X284773904Y-171648428D01*
X284821523Y-171553190D01*
X284869142Y-171505571D01*
X284964380Y-171457952D01*
X316587047Y-171934142D02*
X316634666Y-171981761D01*
X316777523Y-172029380D01*
X316872761Y-172029380D01*
X317015619Y-171981761D01*
X317110857Y-171886523D01*
X317158476Y-171791285D01*
X317206095Y-171600809D01*
X317206095Y-171457952D01*
X317158476Y-171267476D01*
X317110857Y-171172238D01*
X317015619Y-171077000D01*
X316872761Y-171029380D01*
X316777523Y-171029380D01*
X316634666Y-171077000D01*
X316587047Y-171124619D01*
X315682285Y-171029380D02*
X316158476Y-171029380D01*
X316206095Y-171505571D01*
X316158476Y-171457952D01*
X316063238Y-171410333D01*
X315825142Y-171410333D01*
X315729904Y-171457952D01*
X315682285Y-171505571D01*
X315634666Y-171600809D01*
X315634666Y-171838904D01*
X315682285Y-171934142D01*
X315729904Y-171981761D01*
X315825142Y-172029380D01*
X316063238Y-172029380D01*
X316158476Y-171981761D01*
X316206095Y-171934142D01*
X315015619Y-171029380D02*
X314920380Y-171029380D01*
X314825142Y-171077000D01*
X314777523Y-171124619D01*
X314729904Y-171219857D01*
X314682285Y-171410333D01*
X314682285Y-171648428D01*
X314729904Y-171838904D01*
X314777523Y-171934142D01*
X314825142Y-171981761D01*
X314920380Y-172029380D01*
X315015619Y-172029380D01*
X315110857Y-171981761D01*
X315158476Y-171934142D01*
X315206095Y-171838904D01*
X315253714Y-171648428D01*
X315253714Y-171410333D01*
X315206095Y-171219857D01*
X315158476Y-171124619D01*
X315110857Y-171077000D01*
X315015619Y-171029380D01*
X314348952Y-171029380D02*
X313682285Y-171029380D01*
X314110857Y-172029380D01*
X327509142Y-230274952D02*
X327556761Y-230227333D01*
X327604380Y-230084476D01*
X327604380Y-229989238D01*
X327556761Y-229846380D01*
X327461523Y-229751142D01*
X327366285Y-229703523D01*
X327175809Y-229655904D01*
X327032952Y-229655904D01*
X326842476Y-229703523D01*
X326747238Y-229751142D01*
X326652000Y-229846380D01*
X326604380Y-229989238D01*
X326604380Y-230084476D01*
X326652000Y-230227333D01*
X326699619Y-230274952D01*
X326699619Y-230655904D02*
X326652000Y-230703523D01*
X326604380Y-230798761D01*
X326604380Y-231036857D01*
X326652000Y-231132095D01*
X326699619Y-231179714D01*
X326794857Y-231227333D01*
X326890095Y-231227333D01*
X327032952Y-231179714D01*
X327604380Y-230608285D01*
X327604380Y-231227333D01*
X327604380Y-232179714D02*
X327604380Y-231608285D01*
X327604380Y-231894000D02*
X326604380Y-231894000D01*
X326747238Y-231798761D01*
X326842476Y-231703523D01*
X326890095Y-231608285D01*
X326604380Y-232513047D02*
X326604380Y-233132095D01*
X326985333Y-232798761D01*
X326985333Y-232941619D01*
X327032952Y-233036857D01*
X327080571Y-233084476D01*
X327175809Y-233132095D01*
X327413904Y-233132095D01*
X327509142Y-233084476D01*
X327556761Y-233036857D01*
X327604380Y-232941619D01*
X327604380Y-232655904D01*
X327556761Y-232560666D01*
X327509142Y-232513047D01*
X352813714Y-234497571D02*
X353147047Y-234497571D01*
X353147047Y-235021380D02*
X353147047Y-234021380D01*
X352670857Y-234021380D01*
X351956571Y-234497571D02*
X351813714Y-234545190D01*
X351766095Y-234592809D01*
X351718476Y-234688047D01*
X351718476Y-234830904D01*
X351766095Y-234926142D01*
X351813714Y-234973761D01*
X351908952Y-235021380D01*
X352289904Y-235021380D01*
X352289904Y-234021380D01*
X351956571Y-234021380D01*
X351861333Y-234069000D01*
X351813714Y-234116619D01*
X351766095Y-234211857D01*
X351766095Y-234307095D01*
X351813714Y-234402333D01*
X351861333Y-234449952D01*
X351956571Y-234497571D01*
X352289904Y-234497571D01*
X351385142Y-234021380D02*
X350766095Y-234021380D01*
X351099428Y-234402333D01*
X350956571Y-234402333D01*
X350861333Y-234449952D01*
X350813714Y-234497571D01*
X350766095Y-234592809D01*
X350766095Y-234830904D01*
X350813714Y-234926142D01*
X350861333Y-234973761D01*
X350956571Y-235021380D01*
X351242285Y-235021380D01*
X351337523Y-234973761D01*
X351385142Y-234926142D01*
X350147047Y-234021380D02*
X350051809Y-234021380D01*
X349956571Y-234069000D01*
X349908952Y-234116619D01*
X349861333Y-234211857D01*
X349813714Y-234402333D01*
X349813714Y-234640428D01*
X349861333Y-234830904D01*
X349908952Y-234926142D01*
X349956571Y-234973761D01*
X350051809Y-235021380D01*
X350147047Y-235021380D01*
X350242285Y-234973761D01*
X350289904Y-234926142D01*
X350337523Y-234830904D01*
X350385142Y-234640428D01*
X350385142Y-234402333D01*
X350337523Y-234211857D01*
X350289904Y-234116619D01*
X350242285Y-234069000D01*
X350147047Y-234021380D01*
X348861333Y-235021380D02*
X349432761Y-235021380D01*
X349147047Y-235021380D02*
X349147047Y-234021380D01*
X349242285Y-234164238D01*
X349337523Y-234259476D01*
X349432761Y-234307095D01*
X347422380Y-227216714D02*
X348231904Y-227216714D01*
X348327142Y-227264333D01*
X348374761Y-227311952D01*
X348422380Y-227407190D01*
X348422380Y-227597666D01*
X348374761Y-227692904D01*
X348327142Y-227740523D01*
X348231904Y-227788142D01*
X347422380Y-227788142D01*
X347422380Y-228169095D02*
X347422380Y-228788142D01*
X347803333Y-228454809D01*
X347803333Y-228597666D01*
X347850952Y-228692904D01*
X347898571Y-228740523D01*
X347993809Y-228788142D01*
X348231904Y-228788142D01*
X348327142Y-228740523D01*
X348374761Y-228692904D01*
X348422380Y-228597666D01*
X348422380Y-228311952D01*
X348374761Y-228216714D01*
X348327142Y-228169095D01*
X347422380Y-229407190D02*
X347422380Y-229502428D01*
X347470000Y-229597666D01*
X347517619Y-229645285D01*
X347612857Y-229692904D01*
X347803333Y-229740523D01*
X348041428Y-229740523D01*
X348231904Y-229692904D01*
X348327142Y-229645285D01*
X348374761Y-229597666D01*
X348422380Y-229502428D01*
X348422380Y-229407190D01*
X348374761Y-229311952D01*
X348327142Y-229264333D01*
X348231904Y-229216714D01*
X348041428Y-229169095D01*
X347803333Y-229169095D01*
X347612857Y-229216714D01*
X347517619Y-229264333D01*
X347470000Y-229311952D01*
X347422380Y-229407190D01*
X347517619Y-230121476D02*
X347470000Y-230169095D01*
X347422380Y-230264333D01*
X347422380Y-230502428D01*
X347470000Y-230597666D01*
X347517619Y-230645285D01*
X347612857Y-230692904D01*
X347708095Y-230692904D01*
X347850952Y-230645285D01*
X348422380Y-230073857D01*
X348422380Y-230692904D01*
X357830380Y-232687952D02*
X357354190Y-232354619D01*
X357830380Y-232116523D02*
X356830380Y-232116523D01*
X356830380Y-232497476D01*
X356878000Y-232592714D01*
X356925619Y-232640333D01*
X357020857Y-232687952D01*
X357163714Y-232687952D01*
X357258952Y-232640333D01*
X357306571Y-232592714D01*
X357354190Y-232497476D01*
X357354190Y-232116523D01*
X356830380Y-233021285D02*
X356830380Y-233640333D01*
X357211333Y-233307000D01*
X357211333Y-233449857D01*
X357258952Y-233545095D01*
X357306571Y-233592714D01*
X357401809Y-233640333D01*
X357639904Y-233640333D01*
X357735142Y-233592714D01*
X357782761Y-233545095D01*
X357830380Y-233449857D01*
X357830380Y-233164142D01*
X357782761Y-233068904D01*
X357735142Y-233021285D01*
X356830380Y-234259380D02*
X356830380Y-234354619D01*
X356878000Y-234449857D01*
X356925619Y-234497476D01*
X357020857Y-234545095D01*
X357211333Y-234592714D01*
X357449428Y-234592714D01*
X357639904Y-234545095D01*
X357735142Y-234497476D01*
X357782761Y-234449857D01*
X357830380Y-234354619D01*
X357830380Y-234259380D01*
X357782761Y-234164142D01*
X357735142Y-234116523D01*
X357639904Y-234068904D01*
X357449428Y-234021285D01*
X357211333Y-234021285D01*
X357020857Y-234068904D01*
X356925619Y-234116523D01*
X356878000Y-234164142D01*
X356830380Y-234259380D01*
X356830380Y-235497476D02*
X356830380Y-235021285D01*
X357306571Y-234973666D01*
X357258952Y-235021285D01*
X357211333Y-235116523D01*
X357211333Y-235354619D01*
X357258952Y-235449857D01*
X357306571Y-235497476D01*
X357401809Y-235545095D01*
X357639904Y-235545095D01*
X357735142Y-235497476D01*
X357782761Y-235449857D01*
X357830380Y-235354619D01*
X357830380Y-235116523D01*
X357782761Y-235021285D01*
X357735142Y-234973666D01*
X226607476Y-189682380D02*
X226607476Y-188682380D01*
X226369380Y-188682380D01*
X226226523Y-188730000D01*
X226131285Y-188825238D01*
X226083666Y-188920476D01*
X226036047Y-189110952D01*
X226036047Y-189253809D01*
X226083666Y-189444285D01*
X226131285Y-189539523D01*
X226226523Y-189634761D01*
X226369380Y-189682380D01*
X226607476Y-189682380D01*
X225178904Y-189015714D02*
X225178904Y-189682380D01*
X225417000Y-188634761D02*
X225655095Y-189349047D01*
X225036047Y-189349047D01*
X224464619Y-188682380D02*
X224369380Y-188682380D01*
X224274142Y-188730000D01*
X224226523Y-188777619D01*
X224178904Y-188872857D01*
X224131285Y-189063333D01*
X224131285Y-189301428D01*
X224178904Y-189491904D01*
X224226523Y-189587142D01*
X224274142Y-189634761D01*
X224369380Y-189682380D01*
X224464619Y-189682380D01*
X224559857Y-189634761D01*
X224607476Y-189587142D01*
X224655095Y-189491904D01*
X224702714Y-189301428D01*
X224702714Y-189063333D01*
X224655095Y-188872857D01*
X224607476Y-188777619D01*
X224559857Y-188730000D01*
X224464619Y-188682380D01*
X223178904Y-189682380D02*
X223750333Y-189682380D01*
X223464619Y-189682380D02*
X223464619Y-188682380D01*
X223559857Y-188825238D01*
X223655095Y-188920476D01*
X223750333Y-188968095D01*
%LPC*%
D12*
X264160000Y-189230000D03*
X254000000Y-214630000D03*
X264922000Y-214630000D03*
X256540000Y-201168000D03*
X229870000Y-180340000D03*
X246380000Y-201168000D03*
D13*
X355892000Y-228927000D03*
D12*
X218440000Y-200025000D03*
X226695000Y-233680000D03*
X248920000Y-218440000D03*
X355600000Y-194310000D03*
D14*
X363347000Y-242570000D03*
D15*
X343027000Y-213217000D03*
D16*
X343027000Y-242570000D03*
D17*
X345567000Y-213217000D03*
X348107000Y-213217000D03*
X350647000Y-213217000D03*
X353187000Y-213217000D03*
X355727000Y-213217000D03*
X358267000Y-213217000D03*
X360807000Y-213217000D03*
X363347000Y-213217000D03*
D12*
X345440000Y-236220000D03*
X359156000Y-216535000D03*
X238506000Y-190246000D03*
X243459000Y-182499000D03*
X280670000Y-198120000D03*
X293370000Y-190500000D03*
X334010000Y-189230000D03*
X332740000Y-175260000D03*
X339598000Y-179578000D03*
X233680000Y-185420000D03*
X322580000Y-201676000D03*
X320040000Y-201676000D03*
X312420000Y-201676000D03*
X363220000Y-208280000D03*
X255270000Y-230632000D03*
X332740000Y-243840000D03*
X299720000Y-243840000D03*
X339090000Y-206756000D03*
X336550000Y-206756000D03*
X241300000Y-201168000D03*
X238760000Y-201168000D03*
X236220000Y-201168000D03*
X248920000Y-201168000D03*
X227584000Y-178816000D03*
X225044000Y-178816000D03*
X204470000Y-181610000D03*
X304673000Y-207645000D03*
X309753000Y-207645000D03*
X344170000Y-224790000D03*
X358140000Y-243840000D03*
X353060000Y-243840000D03*
X228600000Y-218440000D03*
X228600000Y-223520000D03*
X330200000Y-218440000D03*
X220980000Y-233680000D03*
X213360000Y-233680000D03*
X205740000Y-233680000D03*
X205740000Y-218440000D03*
X213360000Y-218440000D03*
X213360000Y-223520000D03*
X220980000Y-223520000D03*
X205740000Y-223520000D03*
X250698000Y-245364000D03*
X246126000Y-245364000D03*
X255270000Y-226060000D03*
X304800000Y-201676000D03*
X307340000Y-201676000D03*
X314960000Y-201676000D03*
X322571329Y-196858671D03*
D18*
X358648000Y-176530000D03*
X358648000Y-181610000D03*
X358648000Y-186690000D03*
X363728000Y-186690000D03*
X363728000Y-176530000D03*
D12*
X284353000Y-212090000D03*
X267970000Y-208280000D03*
X259080000Y-208280000D03*
X256540000Y-208280000D03*
X248920000Y-208280000D03*
X340360000Y-167132000D03*
X341630000Y-236220000D03*
X340360000Y-226060000D03*
X340360000Y-218440000D03*
X340360000Y-215900000D03*
X302260000Y-228600000D03*
X330200000Y-215900000D03*
X330200000Y-226060000D03*
X330200000Y-228600000D03*
X332740000Y-205740000D03*
X236220000Y-185420000D03*
X241300000Y-180340000D03*
X245237000Y-184277000D03*
X277114000Y-228600000D03*
X276860000Y-241300000D03*
X266700000Y-241300000D03*
X271780000Y-241300000D03*
X271780000Y-236220000D03*
X274320000Y-236220000D03*
X276860000Y-236220000D03*
X267970000Y-226060000D03*
X267970000Y-230632000D03*
X263525000Y-219202000D03*
X254000000Y-218440000D03*
X261620000Y-201168000D03*
X264160000Y-201168000D03*
X220980000Y-187960000D03*
X228600000Y-187960000D03*
X233680000Y-187960000D03*
X238506000Y-187960000D03*
X240792000Y-190246000D03*
X279400000Y-204470000D03*
X270510000Y-195072000D03*
X294640000Y-223520000D03*
X294640000Y-228600000D03*
X294640000Y-226060000D03*
X294640000Y-210820000D03*
X294640000Y-208280000D03*
X294640000Y-205740000D03*
X281940000Y-204470000D03*
X284480000Y-204470000D03*
X280670000Y-195072000D03*
X278130000Y-195072000D03*
X275590000Y-195072000D03*
X260350000Y-226060000D03*
X262890000Y-226060000D03*
X262890000Y-230632000D03*
X260350000Y-230632000D03*
X248920000Y-210820000D03*
X220980000Y-218440000D03*
X220980000Y-205740000D03*
X255270000Y-233172000D03*
X241300000Y-233680000D03*
X238760000Y-233680000D03*
X238760000Y-228600000D03*
X241300000Y-228600000D03*
X241300000Y-218440000D03*
X236220000Y-208280000D03*
X241300000Y-208280000D03*
X236220000Y-210820000D03*
X238760000Y-210820000D03*
X241300000Y-210820000D03*
X353060000Y-218440000D03*
X354584000Y-203962000D03*
X347980000Y-208280000D03*
X350520000Y-208280000D03*
X355600000Y-167132000D03*
X353060000Y-167132000D03*
X350520000Y-167132000D03*
X345440000Y-167132000D03*
X342900000Y-167132000D03*
X335280000Y-167132000D03*
X332740000Y-167132000D03*
X330200000Y-167132000D03*
X348488000Y-194310000D03*
X348488000Y-201930000D03*
X336550000Y-196596000D03*
X339852000Y-197612000D03*
X341376000Y-195834000D03*
X343916000Y-201930000D03*
X343916000Y-199390000D03*
X343916000Y-196850000D03*
X343916000Y-186690000D03*
X343916000Y-189230000D03*
X339852000Y-189230000D03*
X207264000Y-178816000D03*
X209804000Y-178816000D03*
X212344000Y-178816000D03*
X214884000Y-178816000D03*
X214884000Y-181356000D03*
X217424000Y-181356000D03*
X214884000Y-183896000D03*
X217424000Y-183896000D03*
X215392000Y-186944000D03*
X213360000Y-186944000D03*
X198120000Y-203200000D03*
X203200000Y-203200000D03*
X205740000Y-203200000D03*
X203200000Y-198120000D03*
X203200000Y-195580000D03*
X203200000Y-193040000D03*
X207010000Y-186182000D03*
X204470000Y-186182000D03*
X204470000Y-188722000D03*
X198120000Y-198120000D03*
X198120000Y-195580000D03*
X198120000Y-193040000D03*
X197866000Y-178562000D03*
X197866000Y-183642000D03*
D14*
X288315400Y-242570000D03*
X288315400Y-193040000D03*
X194335400Y-193040000D03*
X194335400Y-242570000D03*
X363347000Y-169037000D03*
D19*
X346615000Y-224663000D03*
X350615000Y-224663000D03*
X361664000Y-224663000D03*
X357664000Y-224663000D03*
X260064000Y-184404000D03*
X256064000Y-184404000D03*
X316960000Y-184404000D03*
X312960000Y-184404000D03*
X288512000Y-184404000D03*
X284512000Y-184404000D03*
D20*
X353974400Y-186753500D03*
X353974400Y-176466500D03*
D21*
X194564000Y-176022000D03*
D13*
X194564000Y-181102000D03*
X194564000Y-186182000D03*
D22*
X212090000Y-183769000D03*
X209550000Y-183769000D03*
D23*
X204470000Y-183769000D03*
D22*
X207010000Y-183769000D03*
D24*
X209550000Y-181609000D03*
D25*
X313578000Y-180116000D03*
X313578000Y-177516000D03*
X312278000Y-180116000D03*
X312278000Y-177516000D03*
X312278000Y-178816000D03*
X313578000Y-178816000D03*
X285130000Y-180116000D03*
X285130000Y-177516000D03*
X283830000Y-180116000D03*
X283830000Y-177516000D03*
X283830000Y-178816000D03*
X285130000Y-178816000D03*
X256682000Y-180116000D03*
X256682000Y-177516000D03*
X255382000Y-180116000D03*
X255382000Y-177516000D03*
X255382000Y-178816000D03*
X256682000Y-178816000D03*
D26*
X276352000Y-173736000D03*
D27*
X278892000Y-173736000D03*
D26*
X247904000Y-173736000D03*
D27*
X250444000Y-173736000D03*
D28*
X263347200Y-195592700D03*
D29*
X219147200Y-195592700D03*
D28*
X263347200Y-240042700D03*
D29*
X219147200Y-240042700D03*
D14*
X194335400Y-169037000D03*
X336931000Y-243332000D03*
X295275000Y-243332000D03*
X295275000Y-201676000D03*
X336931000Y-201676000D03*
D12*
X197866000Y-181102000D03*
D18*
X363728000Y-181610000D03*
D30*
X342239600Y-181610000D03*
D26*
X342239600Y-178206400D03*
D30*
X342239600Y-185013600D03*
X346240100Y-183311800D03*
X346240100Y-179908200D03*
D31*
X195580000Y-213360000D03*
D32*
X195580000Y-215900000D03*
X195580000Y-218440000D03*
X195580000Y-220980000D03*
X195580000Y-223520000D03*
X195580000Y-226060000D03*
X195580000Y-228600000D03*
X195580000Y-231140000D03*
X195580000Y-233680000D03*
X195580000Y-236220000D03*
D22*
X355092000Y-208832000D03*
X350092000Y-205232000D03*
X360092000Y-205232000D03*
D33*
X204704000Y-174387000D03*
X240304000Y-174387000D03*
D15*
X213614000Y-175387000D03*
D17*
X213614000Y-172847000D03*
X216154000Y-175387000D03*
X216154000Y-172847000D03*
X218694000Y-175387000D03*
X218694000Y-172847000D03*
X221234000Y-175387000D03*
X221234000Y-172847000D03*
X223774000Y-175387000D03*
X223774000Y-172847000D03*
X226314000Y-175387000D03*
X226314000Y-172847000D03*
X228854000Y-175387000D03*
X228854000Y-172847000D03*
X231394000Y-175387000D03*
X231394000Y-172847000D03*
D34*
X354250000Y-217231000D03*
X354250000Y-215331000D03*
X356950000Y-216281000D03*
X349932000Y-217231000D03*
X349932000Y-215331000D03*
X352632000Y-216281000D03*
D35*
X259504000Y-217424000D03*
X261704000Y-217424000D03*
X259504000Y-215392000D03*
X261704000Y-215392000D03*
X238209000Y-205740000D03*
X236009000Y-205740000D03*
X336380000Y-179705000D03*
X334180000Y-179705000D03*
X336380000Y-181737000D03*
X334180000Y-181737000D03*
X336380000Y-177292000D03*
X334180000Y-177292000D03*
X345483000Y-216281000D03*
X347683000Y-216281000D03*
X226271000Y-185547000D03*
X224071000Y-185547000D03*
X276395000Y-176530000D03*
X278595000Y-176530000D03*
X247947000Y-176530000D03*
X250147000Y-176530000D03*
D36*
X306197000Y-184320000D03*
X306197000Y-186520000D03*
D35*
X308440000Y-182372000D03*
X306240000Y-182372000D03*
D36*
X277749000Y-184320000D03*
X277749000Y-186520000D03*
D35*
X279992000Y-182372000D03*
X277792000Y-182372000D03*
D36*
X249301000Y-184320000D03*
X249301000Y-186520000D03*
D35*
X251544000Y-182372000D03*
X249344000Y-182372000D03*
X235501000Y-215265000D03*
X237701000Y-215265000D03*
X235501000Y-213106000D03*
X237701000Y-213106000D03*
X278554000Y-207391000D03*
X280754000Y-207391000D03*
X278554000Y-209423000D03*
X280754000Y-209423000D03*
X358691000Y-194818000D03*
X360891000Y-194818000D03*
X358691000Y-196977000D03*
X360891000Y-196977000D03*
X358691000Y-199136000D03*
X360891000Y-199136000D03*
X360891000Y-201295000D03*
X358691000Y-201295000D03*
X278722000Y-213487000D03*
X276522000Y-213487000D03*
X278722000Y-211455000D03*
X276522000Y-211455000D03*
D37*
X251587000Y-184270000D03*
X251587000Y-186570000D03*
X280035000Y-184270000D03*
X280035000Y-186570000D03*
X308483000Y-184270000D03*
X308483000Y-186570000D03*
D38*
X265310000Y-178181000D03*
X263010000Y-178181000D03*
X293758000Y-178181000D03*
X291458000Y-178181000D03*
X322206000Y-178181000D03*
X319906000Y-178181000D03*
X256914000Y-173228000D03*
X259214000Y-173228000D03*
X285362000Y-173228000D03*
X287662000Y-173228000D03*
X314318000Y-173228000D03*
X316618000Y-173228000D03*
D37*
X328803000Y-230244000D03*
X328803000Y-232544000D03*
D39*
X349678000Y-232791000D03*
X352378000Y-232791000D03*
D40*
X349570000Y-227581000D03*
X350520000Y-227581000D03*
X351470000Y-227581000D03*
X351470000Y-230381000D03*
X349570000Y-230381000D03*
D36*
X355600000Y-234907000D03*
X355600000Y-232707000D03*
D41*
X226220000Y-187579000D03*
X223360000Y-187579000D03*
D12*
X339090000Y-236982000D03*
X269748000Y-232918000D03*
X283210000Y-237490000D03*
X282956056Y-230378000D03*
X282448000Y-233807006D03*
X286512000Y-168656000D03*
X284480000Y-168656000D03*
X282448000Y-168656000D03*
X314960000Y-186436000D03*
X312928000Y-186436000D03*
X310896000Y-186436000D03*
X286512000Y-186436000D03*
X284480000Y-186436000D03*
X282448000Y-186436000D03*
X254000000Y-186436000D03*
X256032000Y-186436000D03*
X258064000Y-186436000D03*
X315468000Y-168656000D03*
X313436000Y-168656000D03*
X311404000Y-168656000D03*
X311404000Y-170688000D03*
X313436000Y-175260000D03*
X311404000Y-175260000D03*
X311404000Y-173228000D03*
X314960000Y-182372000D03*
X312928000Y-182372000D03*
X310896000Y-182372000D03*
X310896000Y-184404000D03*
X286512000Y-182372000D03*
X284480000Y-182372000D03*
X282448000Y-182372000D03*
X282448000Y-184404000D03*
X282448000Y-170688000D03*
X284480000Y-175260000D03*
X282448000Y-175260000D03*
X282448000Y-173228000D03*
X254000000Y-168655992D03*
X258064000Y-168656000D03*
X256032000Y-168656000D03*
X254000000Y-170688000D03*
X256032000Y-175260000D03*
X254000000Y-175260000D03*
X254000000Y-173228000D03*
X258064000Y-182372000D03*
X256032000Y-182372000D03*
X254000000Y-182372000D03*
X254000000Y-184404000D03*
X361061000Y-192913000D03*
X267208000Y-213487000D03*
X300482000Y-200406000D03*
X338328000Y-191135000D03*
X235458000Y-220599000D03*
X266700000Y-187833000D03*
D42*
X275336000Y-187833000D03*
D12*
X253492000Y-245364000D03*
X259334000Y-245364000D03*
X338328000Y-197993000D03*
X259334000Y-221107000D03*
X252476006Y-202818980D03*
X266700000Y-202818980D03*
X213360000Y-203200000D03*
X324739000Y-199898000D03*
X298704000Y-182372000D03*
X298704000Y-184404000D03*
X298704000Y-186436000D03*
X292608000Y-182372000D03*
X292608000Y-184404000D03*
X292608000Y-186436000D03*
X295656000Y-186436000D03*
X288544000Y-186436000D03*
X290576000Y-186436000D03*
X288544000Y-182372000D03*
X290576000Y-182372000D03*
X290576000Y-184404000D03*
X276225000Y-215138000D03*
X252476000Y-220598978D03*
X263017000Y-204470000D03*
D43*
X268605000Y-204470000D03*
X244475000Y-204470000D03*
D42*
X244475000Y-219329000D03*
X224917000Y-219329000D03*
D43*
X268605000Y-189484000D03*
D42*
X303784000Y-188087000D03*
D12*
X243586000Y-245364000D03*
X226187020Y-245364000D03*
X335788000Y-185293001D03*
X324104000Y-186436000D03*
X327152000Y-186436000D03*
X327152000Y-184404000D03*
X327152000Y-182372000D03*
X316992000Y-186436000D03*
X319024000Y-186436000D03*
X321056000Y-182372000D03*
X321056000Y-184404000D03*
X321056000Y-186436000D03*
X316992000Y-182372000D03*
X319024000Y-182372000D03*
X319024000Y-184404000D03*
X339217000Y-186436000D03*
X342519000Y-207010010D03*
X345567000Y-219456006D03*
D42*
X318008000Y-178181000D03*
X322199000Y-179705000D03*
X289560000Y-178181000D03*
X293751000Y-179705000D03*
X261112000Y-178181000D03*
X265303000Y-179705000D03*
X305308000Y-178943000D03*
X276860000Y-178943000D03*
X246888000Y-184912000D03*
D12*
X270256000Y-182372000D03*
X270256000Y-184404000D03*
X270256000Y-186436000D03*
X264160000Y-182372000D03*
X264160000Y-184404000D03*
X264160000Y-186436000D03*
X267208000Y-186436000D03*
X260096000Y-182372000D03*
X262128000Y-182372000D03*
X260096000Y-186436000D03*
X262128000Y-186436000D03*
X262128000Y-184404000D03*
D42*
X248539000Y-178943000D03*
X256159000Y-217424000D03*
X249808994Y-216916000D03*
X256159000Y-216027000D03*
X250698000Y-216027000D03*
X326136000Y-196215000D03*
X238506006Y-208915000D03*
X257429000Y-233553000D03*
X341630000Y-239141000D03*
X222377000Y-185547000D03*
X304800000Y-168783000D03*
X202184000Y-178054000D03*
X272669000Y-191643000D03*
X238887000Y-185547000D03*
X274574000Y-176530000D03*
X246126000Y-176530000D03*
X235458000Y-190119006D03*
X224663000Y-201930000D03*
X231521000Y-182245000D03*
X301752000Y-189738000D03*
X273558000Y-192532000D03*
X239903000Y-187833000D03*
X226314000Y-232029000D03*
X265811000Y-232029000D03*
X255143000Y-210947000D03*
X276733000Y-209169000D03*
X254127000Y-211836000D03*
X275463000Y-209169000D03*
X246888000Y-206756000D03*
X246380000Y-216281000D03*
X242570000Y-216281000D03*
X355600000Y-197485000D03*
X245999000Y-207645000D03*
X245999000Y-215138000D03*
X241935000Y-215138000D03*
X355600000Y-198755000D03*
X297434000Y-196723000D03*
X247142000Y-226060000D03*
X351917000Y-201549000D03*
X286766000Y-220980000D03*
X295402000Y-196215000D03*
X245999000Y-225933000D03*
X286766000Y-219583000D03*
X353187000Y-201168000D03*
X285496000Y-196596000D03*
X329946000Y-187579000D03*
X298577000Y-190627000D03*
X240665000Y-205740000D03*
X331978004Y-177292000D03*
X271780000Y-223139000D03*
X249809000Y-227584000D03*
X250698000Y-228727000D03*
X271145000Y-228727000D03*
X254127000Y-229616000D03*
X272288000Y-229108000D03*
X298704000Y-196723000D03*
X249682000Y-225425000D03*
X286765994Y-222377000D03*
X341122000Y-208280000D03*
X341122002Y-199390000D03*
X296291000Y-195326000D03*
X246507000Y-223901000D03*
X286766000Y-218186000D03*
X354076000Y-199771000D03*
D12*
X278511000Y-199771000D03*
X350647000Y-194437000D03*
D42*
X230886000Y-185547000D03*
X213487000Y-211455000D03*
X228092000Y-211455000D03*
X215519000Y-210566000D03*
X227330000Y-210566000D03*
X214757000Y-209677000D03*
X226568000Y-209677000D03*
X216789000Y-208788000D03*
X225806000Y-208788000D03*
X230378000Y-214122000D03*
X212979000Y-214122000D03*
X285369000Y-235331000D03*
X280923990Y-229870000D03*
X282956000Y-228473000D03*
X305054000Y-190246000D03*
X330835000Y-188468000D03*
X303784000Y-190246000D03*
X331851000Y-189357000D03*
D12*
X362966006Y-218059000D03*
D42*
X287655000Y-198882000D03*
X264795000Y-216789000D03*
X286766000Y-215392000D03*
X337947000Y-188722000D03*
X339090000Y-183515000D03*
X275590000Y-223138996D03*
X288544000Y-197993000D03*
X264795000Y-217932000D03*
X286766000Y-216789000D03*
X337058006Y-187706000D03*
X338201000Y-184404000D03*
X240792000Y-214376000D03*
X240792000Y-213106000D03*
X355600000Y-200024990D03*
X355600000Y-201294994D03*
X289687000Y-229997000D03*
D44*
X328803000Y-234422000D03*
D12*
X259207000Y-175260000D03*
X316611000Y-175260000D03*
X287655000Y-175260000D03*
D42*
X228854000Y-212344000D03*
X214249000Y-212344000D03*
X212217000Y-213233000D03*
X229616000Y-213233000D03*
X214122000Y-202184000D03*
X212598000Y-202184000D03*
X232918000Y-224790000D03*
X232156000Y-225679004D03*
X231394000Y-226568000D03*
X230632000Y-227457000D03*
X229870002Y-228345998D03*
X229108001Y-229234999D03*
X228346000Y-230124000D03*
X227584008Y-231013000D03*
X216027000Y-207899000D03*
X225044000Y-207899000D03*
X224409000Y-245364000D03*
X224409000Y-234315000D03*
X239649000Y-221869000D03*
X269113000Y-213741000D03*
X267081000Y-218440000D03*
X274955000Y-214248990D03*
X341884000Y-217551000D03*
X346329000Y-228854000D03*
X355600000Y-239522000D03*
X234569000Y-209550000D03*
X296799000Y-192278000D03*
X247904000Y-212852000D03*
X363982000Y-201295000D03*
X286766000Y-214122000D03*
X242824000Y-221869000D03*
X265049000Y-219202000D03*
X268224000Y-212598000D03*
X274955000Y-212090000D03*
X203454000Y-178054000D03*
X201803000Y-201168000D03*
X221615000Y-201167984D03*
M02*
