G04 #@! TF.FileFunction,Legend,Bot*
%FSLAX46Y46*%
G04 Gerber Fmt 4.6, Leading zero omitted, Abs format (unit mm)*
G04 Created by KiCad (PCBNEW (2015-09-12 BZR 6188)-product) date Sat Nov 21 23:19:16 2015*
%MOMM*%
G01*
G04 APERTURE LIST*
%ADD10C,0.100000*%
%ADD11C,0.150000*%
%ADD12C,0.127000*%
%ADD13C,1.016000*%
%ADD14C,3.175000*%
%ADD15R,1.500000X1.300000*%
%ADD16R,1.250000X1.500000*%
%ADD17R,1.600000X2.000000*%
%ADD18R,2.000000X1.600000*%
%ADD19R,1.500000X1.250000*%
%ADD20C,5.080000*%
%ADD21R,3.000000X3.000000*%
%ADD22C,3.000000*%
%ADD23C,2.040000*%
%ADD24C,1.250000*%
%ADD25R,1.300000X1.500000*%
%ADD26C,1.200000*%
%ADD27R,1.300000X1.300000*%
%ADD28R,2.032000X2.032000*%
%ADD29O,2.032000X2.032000*%
%ADD30C,5.461000*%
%ADD31R,1.524000X1.524000*%
%ADD32C,1.524000*%
%ADD33C,2.032000*%
%ADD34R,2.290000X0.800000*%
%ADD35R,2.290000X1.240000*%
%ADD36O,1.290000X1.240000*%
%ADD37R,1.645000X1.240000*%
%ADD38R,0.700000X1.000000*%
%ADD39C,0.800000*%
%ADD40R,1.778000X1.778000*%
%ADD41C,2.200000*%
%ADD42C,1.778000*%
%ADD43R,0.630000X0.830000*%
%ADD44C,0.889000*%
%ADD45C,1.270000*%
G04 APERTURE END LIST*
D10*
D11*
X275590000Y-223139000D02*
X276479000Y-223139000D01*
D12*
X280184000Y-223410429D02*
X280184000Y-222810429D01*
X280041143Y-222810429D01*
X279955428Y-222839000D01*
X279898286Y-222896143D01*
X279869714Y-222953286D01*
X279841143Y-223067571D01*
X279841143Y-223153286D01*
X279869714Y-223267571D01*
X279898286Y-223324714D01*
X279955428Y-223381857D01*
X280041143Y-223410429D01*
X280184000Y-223410429D01*
X279612571Y-223239000D02*
X279326857Y-223239000D01*
X279669714Y-223410429D02*
X279469714Y-222810429D01*
X279269714Y-223410429D01*
X278726857Y-223353286D02*
X278755428Y-223381857D01*
X278841142Y-223410429D01*
X278898285Y-223410429D01*
X278984000Y-223381857D01*
X279041142Y-223324714D01*
X279069714Y-223267571D01*
X279098285Y-223153286D01*
X279098285Y-223067571D01*
X279069714Y-222953286D01*
X279041142Y-222896143D01*
X278984000Y-222839000D01*
X278898285Y-222810429D01*
X278841142Y-222810429D01*
X278755428Y-222839000D01*
X278726857Y-222867571D01*
X278612571Y-223467571D02*
X278155428Y-223467571D01*
X277898285Y-222810429D02*
X277783999Y-222810429D01*
X277726857Y-222839000D01*
X277669714Y-222896143D01*
X277641142Y-223010429D01*
X277641142Y-223210429D01*
X277669714Y-223324714D01*
X277726857Y-223381857D01*
X277783999Y-223410429D01*
X277898285Y-223410429D01*
X277955428Y-223381857D01*
X278012571Y-223324714D01*
X278041142Y-223210429D01*
X278041142Y-223010429D01*
X278012571Y-222896143D01*
X277955428Y-222839000D01*
X277898285Y-222810429D01*
X277384000Y-222810429D02*
X277384000Y-223296143D01*
X277355428Y-223353286D01*
X277326857Y-223381857D01*
X277269714Y-223410429D01*
X277155428Y-223410429D01*
X277098286Y-223381857D01*
X277069714Y-223353286D01*
X277041143Y-223296143D01*
X277041143Y-222810429D01*
X276841143Y-222810429D02*
X276498286Y-222810429D01*
X276669715Y-223410429D02*
X276669715Y-222810429D01*
D11*
X282956000Y-228473000D02*
X283972000Y-228473000D01*
D12*
X289239000Y-228144429D02*
X289039000Y-228744429D01*
X288839000Y-228144429D01*
X288324714Y-228173000D02*
X288381857Y-228144429D01*
X288467571Y-228144429D01*
X288553286Y-228173000D01*
X288610428Y-228230143D01*
X288639000Y-228287286D01*
X288667571Y-228401571D01*
X288667571Y-228487286D01*
X288639000Y-228601571D01*
X288610428Y-228658714D01*
X288553286Y-228715857D01*
X288467571Y-228744429D01*
X288410428Y-228744429D01*
X288324714Y-228715857D01*
X288296143Y-228687286D01*
X288296143Y-228487286D01*
X288410428Y-228487286D01*
X288039000Y-228744429D02*
X288039000Y-228144429D01*
X287696143Y-228744429D01*
X287696143Y-228144429D01*
X287410429Y-228744429D02*
X287410429Y-228144429D01*
X287267572Y-228144429D01*
X287181857Y-228173000D01*
X287124715Y-228230143D01*
X287096143Y-228287286D01*
X287067572Y-228401571D01*
X287067572Y-228487286D01*
X287096143Y-228601571D01*
X287124715Y-228658714D01*
X287181857Y-228715857D01*
X287267572Y-228744429D01*
X287410429Y-228744429D01*
X286953286Y-228801571D02*
X286496143Y-228801571D01*
X286039000Y-228744429D02*
X286381857Y-228744429D01*
X286210429Y-228744429D02*
X286210429Y-228144429D01*
X286267572Y-228230143D01*
X286324714Y-228287286D01*
X286381857Y-228315857D01*
X285781857Y-228687286D02*
X285753285Y-228715857D01*
X285781857Y-228744429D01*
X285810428Y-228715857D01*
X285781857Y-228687286D01*
X285781857Y-228744429D01*
X285239000Y-228144429D02*
X285353286Y-228144429D01*
X285410429Y-228173000D01*
X285439000Y-228201571D01*
X285496143Y-228287286D01*
X285524714Y-228401571D01*
X285524714Y-228630143D01*
X285496143Y-228687286D01*
X285467571Y-228715857D01*
X285410429Y-228744429D01*
X285296143Y-228744429D01*
X285239000Y-228715857D01*
X285210429Y-228687286D01*
X285181857Y-228630143D01*
X285181857Y-228487286D01*
X285210429Y-228430143D01*
X285239000Y-228401571D01*
X285296143Y-228373000D01*
X285410429Y-228373000D01*
X285467571Y-228401571D01*
X285496143Y-228430143D01*
X285524714Y-228487286D01*
X284639000Y-228144429D02*
X284924714Y-228144429D01*
X284953285Y-228430143D01*
X284924714Y-228401571D01*
X284867571Y-228373000D01*
X284724714Y-228373000D01*
X284667571Y-228401571D01*
X284639000Y-228430143D01*
X284610428Y-228487286D01*
X284610428Y-228630143D01*
X284639000Y-228687286D01*
X284667571Y-228715857D01*
X284724714Y-228744429D01*
X284867571Y-228744429D01*
X284924714Y-228715857D01*
X284953285Y-228687286D01*
X284438999Y-228144429D02*
X284238999Y-228744429D01*
X284038999Y-228144429D01*
D11*
X307213000Y-230378000D02*
X308737000Y-230378000D01*
X238506000Y-208915000D02*
X237871000Y-209550000D01*
X249428000Y-218567000D02*
X249047000Y-219456000D01*
X248666000Y-217297000D02*
X248285000Y-218186000D01*
X271272000Y-228600000D02*
X272796000Y-227330000D01*
X272288000Y-229108000D02*
X273558000Y-229489000D01*
X271272000Y-220218000D02*
X272796000Y-220218000D01*
X243713000Y-214757000D02*
X242570000Y-216281000D01*
X242824000Y-213868000D02*
X241935000Y-215138000D01*
D12*
X248014857Y-213920429D02*
X247672000Y-213920429D01*
X247843429Y-214520429D02*
X247843429Y-213920429D01*
X247472000Y-214206143D02*
X247272000Y-214206143D01*
X247186286Y-214520429D02*
X247472000Y-214520429D01*
X247472000Y-213920429D01*
X247186286Y-213920429D01*
X246929143Y-214520429D02*
X246929143Y-213920429D01*
X246729143Y-214349000D01*
X246529143Y-213920429D01*
X246529143Y-214520429D01*
X246243429Y-214520429D02*
X246243429Y-213920429D01*
X246014857Y-213920429D01*
X245957715Y-213949000D01*
X245929143Y-213977571D01*
X245900572Y-214034714D01*
X245900572Y-214120429D01*
X245929143Y-214177571D01*
X245957715Y-214206143D01*
X246014857Y-214234714D01*
X246243429Y-214234714D01*
X245786286Y-214577571D02*
X245329143Y-214577571D01*
X245214857Y-214491857D02*
X245129143Y-214520429D01*
X244986286Y-214520429D01*
X244929143Y-214491857D01*
X244900572Y-214463286D01*
X244872000Y-214406143D01*
X244872000Y-214349000D01*
X244900572Y-214291857D01*
X244929143Y-214263286D01*
X244986286Y-214234714D01*
X245100572Y-214206143D01*
X245157714Y-214177571D01*
X245186286Y-214149000D01*
X245214857Y-214091857D01*
X245214857Y-214034714D01*
X245186286Y-213977571D01*
X245157714Y-213949000D01*
X245100572Y-213920429D01*
X244957714Y-213920429D01*
X244872000Y-213949000D01*
X244272000Y-214463286D02*
X244300571Y-214491857D01*
X244386285Y-214520429D01*
X244443428Y-214520429D01*
X244529143Y-214491857D01*
X244586285Y-214434714D01*
X244614857Y-214377571D01*
X244643428Y-214263286D01*
X244643428Y-214177571D01*
X244614857Y-214063286D01*
X244586285Y-214006143D01*
X244529143Y-213949000D01*
X244443428Y-213920429D01*
X244386285Y-213920429D01*
X244300571Y-213949000D01*
X244272000Y-213977571D01*
X243729143Y-214520429D02*
X244014857Y-214520429D01*
X244014857Y-213920429D01*
X247013143Y-213031429D02*
X246670286Y-213031429D01*
X246841715Y-213631429D02*
X246841715Y-213031429D01*
X246470286Y-213317143D02*
X246270286Y-213317143D01*
X246184572Y-213631429D02*
X246470286Y-213631429D01*
X246470286Y-213031429D01*
X246184572Y-213031429D01*
X245927429Y-213631429D02*
X245927429Y-213031429D01*
X245727429Y-213460000D01*
X245527429Y-213031429D01*
X245527429Y-213631429D01*
X245241715Y-213631429D02*
X245241715Y-213031429D01*
X245013143Y-213031429D01*
X244956001Y-213060000D01*
X244927429Y-213088571D01*
X244898858Y-213145714D01*
X244898858Y-213231429D01*
X244927429Y-213288571D01*
X244956001Y-213317143D01*
X245013143Y-213345714D01*
X245241715Y-213345714D01*
X244784572Y-213688571D02*
X244327429Y-213688571D01*
X244213143Y-213602857D02*
X244127429Y-213631429D01*
X243984572Y-213631429D01*
X243927429Y-213602857D01*
X243898858Y-213574286D01*
X243870286Y-213517143D01*
X243870286Y-213460000D01*
X243898858Y-213402857D01*
X243927429Y-213374286D01*
X243984572Y-213345714D01*
X244098858Y-213317143D01*
X244156000Y-213288571D01*
X244184572Y-213260000D01*
X244213143Y-213202857D01*
X244213143Y-213145714D01*
X244184572Y-213088571D01*
X244156000Y-213060000D01*
X244098858Y-213031429D01*
X243956000Y-213031429D01*
X243870286Y-213060000D01*
X243613143Y-213631429D02*
X243613143Y-213031429D01*
X243470286Y-213031429D01*
X243384571Y-213060000D01*
X243327429Y-213117143D01*
X243298857Y-213174286D01*
X243270286Y-213288571D01*
X243270286Y-213374286D01*
X243298857Y-213488571D01*
X243327429Y-213545714D01*
X243384571Y-213602857D01*
X243470286Y-213631429D01*
X243613143Y-213631429D01*
X243041714Y-213460000D02*
X242756000Y-213460000D01*
X243098857Y-213631429D02*
X242898857Y-213031429D01*
X242698857Y-213631429D01*
X237277143Y-209821429D02*
X237620000Y-209821429D01*
X237448572Y-209821429D02*
X237448572Y-209221429D01*
X237505715Y-209307143D01*
X237562857Y-209364286D01*
X237620000Y-209392857D01*
X236905714Y-209221429D02*
X236848571Y-209221429D01*
X236791428Y-209250000D01*
X236762857Y-209278571D01*
X236734286Y-209335714D01*
X236705714Y-209450000D01*
X236705714Y-209592857D01*
X236734286Y-209707143D01*
X236762857Y-209764286D01*
X236791428Y-209792857D01*
X236848571Y-209821429D01*
X236905714Y-209821429D01*
X236962857Y-209792857D01*
X236991428Y-209764286D01*
X237020000Y-209707143D01*
X237048571Y-209592857D01*
X237048571Y-209450000D01*
X237020000Y-209335714D01*
X236991428Y-209278571D01*
X236962857Y-209250000D01*
X236905714Y-209221429D01*
X236448571Y-209821429D02*
X236448571Y-209221429D01*
X236248571Y-209650000D01*
X236048571Y-209221429D01*
X236048571Y-209821429D01*
X235762857Y-209821429D02*
X235762857Y-209221429D01*
X235762857Y-209507143D02*
X235420000Y-209507143D01*
X235420000Y-209821429D02*
X235420000Y-209221429D01*
X235191429Y-209221429D02*
X234791429Y-209221429D01*
X235191429Y-209821429D01*
X234791429Y-209821429D01*
X248662571Y-219127429D02*
X248548285Y-219127429D01*
X248491143Y-219156000D01*
X248434000Y-219213143D01*
X248405428Y-219327429D01*
X248405428Y-219527429D01*
X248434000Y-219641714D01*
X248491143Y-219698857D01*
X248548285Y-219727429D01*
X248662571Y-219727429D01*
X248719714Y-219698857D01*
X248776857Y-219641714D01*
X248805428Y-219527429D01*
X248805428Y-219327429D01*
X248776857Y-219213143D01*
X248719714Y-219156000D01*
X248662571Y-219127429D01*
X247805429Y-219670286D02*
X247834000Y-219698857D01*
X247919714Y-219727429D01*
X247976857Y-219727429D01*
X248062572Y-219698857D01*
X248119714Y-219641714D01*
X248148286Y-219584571D01*
X248176857Y-219470286D01*
X248176857Y-219384571D01*
X248148286Y-219270286D01*
X248119714Y-219213143D01*
X248062572Y-219156000D01*
X247976857Y-219127429D01*
X247919714Y-219127429D01*
X247834000Y-219156000D01*
X247805429Y-219184571D01*
X247605429Y-219127429D02*
X247205429Y-219727429D01*
X247205429Y-219127429D02*
X247605429Y-219727429D01*
X246862571Y-219127429D02*
X246748285Y-219127429D01*
X246691143Y-219156000D01*
X246634000Y-219213143D01*
X246605428Y-219327429D01*
X246605428Y-219527429D01*
X246634000Y-219641714D01*
X246691143Y-219698857D01*
X246748285Y-219727429D01*
X246862571Y-219727429D01*
X246919714Y-219698857D01*
X246976857Y-219641714D01*
X247005428Y-219527429D01*
X247005428Y-219327429D01*
X246976857Y-219213143D01*
X246919714Y-219156000D01*
X246862571Y-219127429D01*
X246491143Y-219784571D02*
X246034000Y-219784571D01*
X245919714Y-219698857D02*
X245834000Y-219727429D01*
X245691143Y-219727429D01*
X245634000Y-219698857D01*
X245605429Y-219670286D01*
X245576857Y-219613143D01*
X245576857Y-219556000D01*
X245605429Y-219498857D01*
X245634000Y-219470286D01*
X245691143Y-219441714D01*
X245805429Y-219413143D01*
X245862571Y-219384571D01*
X245891143Y-219356000D01*
X245919714Y-219298857D01*
X245919714Y-219241714D01*
X245891143Y-219184571D01*
X245862571Y-219156000D01*
X245805429Y-219127429D01*
X245662571Y-219127429D01*
X245576857Y-219156000D01*
X245319714Y-219727429D02*
X245319714Y-219127429D01*
X245176857Y-219127429D01*
X245091142Y-219156000D01*
X245034000Y-219213143D01*
X245005428Y-219270286D01*
X244976857Y-219384571D01*
X244976857Y-219470286D01*
X245005428Y-219584571D01*
X245034000Y-219641714D01*
X245091142Y-219698857D01*
X245176857Y-219727429D01*
X245319714Y-219727429D01*
X244748285Y-219556000D02*
X244462571Y-219556000D01*
X244805428Y-219727429D02*
X244605428Y-219127429D01*
X244405428Y-219727429D01*
X247886285Y-217857429D02*
X247771999Y-217857429D01*
X247714857Y-217886000D01*
X247657714Y-217943143D01*
X247629142Y-218057429D01*
X247629142Y-218257429D01*
X247657714Y-218371714D01*
X247714857Y-218428857D01*
X247771999Y-218457429D01*
X247886285Y-218457429D01*
X247943428Y-218428857D01*
X248000571Y-218371714D01*
X248029142Y-218257429D01*
X248029142Y-218057429D01*
X248000571Y-217943143D01*
X247943428Y-217886000D01*
X247886285Y-217857429D01*
X247029143Y-218400286D02*
X247057714Y-218428857D01*
X247143428Y-218457429D01*
X247200571Y-218457429D01*
X247286286Y-218428857D01*
X247343428Y-218371714D01*
X247372000Y-218314571D01*
X247400571Y-218200286D01*
X247400571Y-218114571D01*
X247372000Y-218000286D01*
X247343428Y-217943143D01*
X247286286Y-217886000D01*
X247200571Y-217857429D01*
X247143428Y-217857429D01*
X247057714Y-217886000D01*
X247029143Y-217914571D01*
X246829143Y-217857429D02*
X246429143Y-218457429D01*
X246429143Y-217857429D02*
X246829143Y-218457429D01*
X246086285Y-217857429D02*
X245971999Y-217857429D01*
X245914857Y-217886000D01*
X245857714Y-217943143D01*
X245829142Y-218057429D01*
X245829142Y-218257429D01*
X245857714Y-218371714D01*
X245914857Y-218428857D01*
X245971999Y-218457429D01*
X246086285Y-218457429D01*
X246143428Y-218428857D01*
X246200571Y-218371714D01*
X246229142Y-218257429D01*
X246229142Y-218057429D01*
X246200571Y-217943143D01*
X246143428Y-217886000D01*
X246086285Y-217857429D01*
X245714857Y-218514571D02*
X245257714Y-218514571D01*
X245143428Y-218428857D02*
X245057714Y-218457429D01*
X244914857Y-218457429D01*
X244857714Y-218428857D01*
X244829143Y-218400286D01*
X244800571Y-218343143D01*
X244800571Y-218286000D01*
X244829143Y-218228857D01*
X244857714Y-218200286D01*
X244914857Y-218171714D01*
X245029143Y-218143143D01*
X245086285Y-218114571D01*
X245114857Y-218086000D01*
X245143428Y-218028857D01*
X245143428Y-217971714D01*
X245114857Y-217914571D01*
X245086285Y-217886000D01*
X245029143Y-217857429D01*
X244886285Y-217857429D01*
X244800571Y-217886000D01*
X244200571Y-218400286D02*
X244229142Y-218428857D01*
X244314856Y-218457429D01*
X244371999Y-218457429D01*
X244457714Y-218428857D01*
X244514856Y-218371714D01*
X244543428Y-218314571D01*
X244571999Y-218200286D01*
X244571999Y-218114571D01*
X244543428Y-218000286D01*
X244514856Y-217943143D01*
X244457714Y-217886000D01*
X244371999Y-217857429D01*
X244314856Y-217857429D01*
X244229142Y-217886000D01*
X244200571Y-217914571D01*
X243657714Y-218457429D02*
X243943428Y-218457429D01*
X243943428Y-217857429D01*
X290528286Y-222775429D02*
X290871143Y-222775429D01*
X290699715Y-222775429D02*
X290699715Y-222175429D01*
X290756858Y-222261143D01*
X290814000Y-222318286D01*
X290871143Y-222346857D01*
X290271143Y-222775429D02*
X290271143Y-222175429D01*
X290042571Y-222175429D01*
X289985429Y-222204000D01*
X289956857Y-222232571D01*
X289928286Y-222289714D01*
X289928286Y-222375429D01*
X289956857Y-222432571D01*
X289985429Y-222461143D01*
X290042571Y-222489714D01*
X290271143Y-222489714D01*
X289671143Y-222775429D02*
X289671143Y-222175429D01*
X289442571Y-222175429D01*
X289385429Y-222204000D01*
X289356857Y-222232571D01*
X289328286Y-222289714D01*
X289328286Y-222375429D01*
X289356857Y-222432571D01*
X289385429Y-222461143D01*
X289442571Y-222489714D01*
X289671143Y-222489714D01*
X289099714Y-222746857D02*
X289014000Y-222775429D01*
X288871143Y-222775429D01*
X288814000Y-222746857D01*
X288785429Y-222718286D01*
X288756857Y-222661143D01*
X288756857Y-222604000D01*
X288785429Y-222546857D01*
X288814000Y-222518286D01*
X288871143Y-222489714D01*
X288985429Y-222461143D01*
X289042571Y-222432571D01*
X289071143Y-222404000D01*
X289099714Y-222346857D01*
X289099714Y-222289714D01*
X289071143Y-222232571D01*
X289042571Y-222204000D01*
X288985429Y-222175429D01*
X288842571Y-222175429D01*
X288756857Y-222204000D01*
X291056857Y-220680000D02*
X291114000Y-220651429D01*
X291199714Y-220651429D01*
X291285429Y-220680000D01*
X291342571Y-220737143D01*
X291371143Y-220794286D01*
X291399714Y-220908571D01*
X291399714Y-220994286D01*
X291371143Y-221108571D01*
X291342571Y-221165714D01*
X291285429Y-221222857D01*
X291199714Y-221251429D01*
X291142571Y-221251429D01*
X291056857Y-221222857D01*
X291028286Y-221194286D01*
X291028286Y-220994286D01*
X291142571Y-220994286D01*
X290771143Y-221251429D02*
X290771143Y-220651429D01*
X290542571Y-220651429D01*
X290485429Y-220680000D01*
X290456857Y-220708571D01*
X290428286Y-220765714D01*
X290428286Y-220851429D01*
X290456857Y-220908571D01*
X290485429Y-220937143D01*
X290542571Y-220965714D01*
X290771143Y-220965714D01*
X290199714Y-221222857D02*
X290114000Y-221251429D01*
X289971143Y-221251429D01*
X289914000Y-221222857D01*
X289885429Y-221194286D01*
X289856857Y-221137143D01*
X289856857Y-221080000D01*
X289885429Y-221022857D01*
X289914000Y-220994286D01*
X289971143Y-220965714D01*
X290085429Y-220937143D01*
X290142571Y-220908571D01*
X290171143Y-220880000D01*
X290199714Y-220822857D01*
X290199714Y-220765714D01*
X290171143Y-220708571D01*
X290142571Y-220680000D01*
X290085429Y-220651429D01*
X289942571Y-220651429D01*
X289856857Y-220680000D01*
X289742571Y-221308571D02*
X289285428Y-221308571D01*
X288799714Y-221251429D02*
X288999714Y-220965714D01*
X289142571Y-221251429D02*
X289142571Y-220651429D01*
X288913999Y-220651429D01*
X288856857Y-220680000D01*
X288828285Y-220708571D01*
X288799714Y-220765714D01*
X288799714Y-220851429D01*
X288828285Y-220908571D01*
X288856857Y-220937143D01*
X288913999Y-220965714D01*
X289142571Y-220965714D01*
X288599714Y-220651429D02*
X288199714Y-221251429D01*
X288199714Y-220651429D02*
X288599714Y-221251429D01*
X290985429Y-219156000D02*
X291042572Y-219127429D01*
X291128286Y-219127429D01*
X291214001Y-219156000D01*
X291271143Y-219213143D01*
X291299715Y-219270286D01*
X291328286Y-219384571D01*
X291328286Y-219470286D01*
X291299715Y-219584571D01*
X291271143Y-219641714D01*
X291214001Y-219698857D01*
X291128286Y-219727429D01*
X291071143Y-219727429D01*
X290985429Y-219698857D01*
X290956858Y-219670286D01*
X290956858Y-219470286D01*
X291071143Y-219470286D01*
X290699715Y-219727429D02*
X290699715Y-219127429D01*
X290471143Y-219127429D01*
X290414001Y-219156000D01*
X290385429Y-219184571D01*
X290356858Y-219241714D01*
X290356858Y-219327429D01*
X290385429Y-219384571D01*
X290414001Y-219413143D01*
X290471143Y-219441714D01*
X290699715Y-219441714D01*
X290128286Y-219698857D02*
X290042572Y-219727429D01*
X289899715Y-219727429D01*
X289842572Y-219698857D01*
X289814001Y-219670286D01*
X289785429Y-219613143D01*
X289785429Y-219556000D01*
X289814001Y-219498857D01*
X289842572Y-219470286D01*
X289899715Y-219441714D01*
X290014001Y-219413143D01*
X290071143Y-219384571D01*
X290099715Y-219356000D01*
X290128286Y-219298857D01*
X290128286Y-219241714D01*
X290099715Y-219184571D01*
X290071143Y-219156000D01*
X290014001Y-219127429D01*
X289871143Y-219127429D01*
X289785429Y-219156000D01*
X289671143Y-219784571D02*
X289214000Y-219784571D01*
X289156857Y-219127429D02*
X288814000Y-219127429D01*
X288985429Y-219727429D02*
X288985429Y-219127429D01*
X288671143Y-219127429D02*
X288271143Y-219727429D01*
X288271143Y-219127429D02*
X288671143Y-219727429D01*
X290856858Y-217603429D02*
X290485429Y-217603429D01*
X290685429Y-217832000D01*
X290599715Y-217832000D01*
X290542572Y-217860571D01*
X290514001Y-217889143D01*
X290485429Y-217946286D01*
X290485429Y-218089143D01*
X290514001Y-218146286D01*
X290542572Y-218174857D01*
X290599715Y-218203429D01*
X290771143Y-218203429D01*
X290828286Y-218174857D01*
X290856858Y-218146286D01*
X290228286Y-218203429D02*
X290228286Y-217603429D01*
X290085429Y-217603429D01*
X289999714Y-217632000D01*
X289942572Y-217689143D01*
X289914000Y-217746286D01*
X289885429Y-217860571D01*
X289885429Y-217946286D01*
X289914000Y-218060571D01*
X289942572Y-218117714D01*
X289999714Y-218174857D01*
X290085429Y-218203429D01*
X290228286Y-218203429D01*
X289428286Y-217889143D02*
X289628286Y-217889143D01*
X289628286Y-218203429D02*
X289628286Y-217603429D01*
X289342572Y-217603429D01*
X289171143Y-217603429D02*
X288771143Y-218203429D01*
X288771143Y-217603429D02*
X289171143Y-218203429D01*
X290828286Y-216904857D02*
X290742572Y-216933429D01*
X290599715Y-216933429D01*
X290542572Y-216904857D01*
X290514001Y-216876286D01*
X290485429Y-216819143D01*
X290485429Y-216762000D01*
X290514001Y-216704857D01*
X290542572Y-216676286D01*
X290599715Y-216647714D01*
X290714001Y-216619143D01*
X290771143Y-216590571D01*
X290799715Y-216562000D01*
X290828286Y-216504857D01*
X290828286Y-216447714D01*
X290799715Y-216390571D01*
X290771143Y-216362000D01*
X290714001Y-216333429D01*
X290571143Y-216333429D01*
X290485429Y-216362000D01*
X290228286Y-216933429D02*
X290228286Y-216333429D01*
X290085429Y-216333429D01*
X289999714Y-216362000D01*
X289942572Y-216419143D01*
X289914000Y-216476286D01*
X289885429Y-216590571D01*
X289885429Y-216676286D01*
X289914000Y-216790571D01*
X289942572Y-216847714D01*
X289999714Y-216904857D01*
X290085429Y-216933429D01*
X290228286Y-216933429D01*
X289656857Y-216762000D02*
X289371143Y-216762000D01*
X289714000Y-216933429D02*
X289514000Y-216333429D01*
X289314000Y-216933429D01*
X288828286Y-216333429D02*
X289114000Y-216333429D01*
X289142571Y-216619143D01*
X289114000Y-216590571D01*
X289056857Y-216562000D01*
X288914000Y-216562000D01*
X288856857Y-216590571D01*
X288828286Y-216619143D01*
X288799714Y-216676286D01*
X288799714Y-216819143D01*
X288828286Y-216876286D01*
X288856857Y-216904857D01*
X288914000Y-216933429D01*
X289056857Y-216933429D01*
X289114000Y-216904857D01*
X289142571Y-216876286D01*
X290814000Y-215634857D02*
X290728286Y-215663429D01*
X290585429Y-215663429D01*
X290528286Y-215634857D01*
X290499715Y-215606286D01*
X290471143Y-215549143D01*
X290471143Y-215492000D01*
X290499715Y-215434857D01*
X290528286Y-215406286D01*
X290585429Y-215377714D01*
X290699715Y-215349143D01*
X290756857Y-215320571D01*
X290785429Y-215292000D01*
X290814000Y-215234857D01*
X290814000Y-215177714D01*
X290785429Y-215120571D01*
X290756857Y-215092000D01*
X290699715Y-215063429D01*
X290556857Y-215063429D01*
X290471143Y-215092000D01*
X289871143Y-215606286D02*
X289899714Y-215634857D01*
X289985428Y-215663429D01*
X290042571Y-215663429D01*
X290128286Y-215634857D01*
X290185428Y-215577714D01*
X290214000Y-215520571D01*
X290242571Y-215406286D01*
X290242571Y-215320571D01*
X290214000Y-215206286D01*
X290185428Y-215149143D01*
X290128286Y-215092000D01*
X290042571Y-215063429D01*
X289985428Y-215063429D01*
X289899714Y-215092000D01*
X289871143Y-215120571D01*
X289328286Y-215663429D02*
X289614000Y-215663429D01*
X289614000Y-215063429D01*
X288842572Y-215063429D02*
X289128286Y-215063429D01*
X289156857Y-215349143D01*
X289128286Y-215320571D01*
X289071143Y-215292000D01*
X288928286Y-215292000D01*
X288871143Y-215320571D01*
X288842572Y-215349143D01*
X288814000Y-215406286D01*
X288814000Y-215549143D01*
X288842572Y-215606286D01*
X288871143Y-215634857D01*
X288928286Y-215663429D01*
X289071143Y-215663429D01*
X289128286Y-215634857D01*
X289156857Y-215606286D01*
X276102572Y-220489429D02*
X276102572Y-219889429D01*
X275959715Y-219889429D01*
X275874000Y-219918000D01*
X275816858Y-219975143D01*
X275788286Y-220032286D01*
X275759715Y-220146571D01*
X275759715Y-220232286D01*
X275788286Y-220346571D01*
X275816858Y-220403714D01*
X275874000Y-220460857D01*
X275959715Y-220489429D01*
X276102572Y-220489429D01*
X275531143Y-220318000D02*
X275245429Y-220318000D01*
X275588286Y-220489429D02*
X275388286Y-219889429D01*
X275188286Y-220489429D01*
X274645429Y-220432286D02*
X274674000Y-220460857D01*
X274759714Y-220489429D01*
X274816857Y-220489429D01*
X274902572Y-220460857D01*
X274959714Y-220403714D01*
X274988286Y-220346571D01*
X275016857Y-220232286D01*
X275016857Y-220146571D01*
X274988286Y-220032286D01*
X274959714Y-219975143D01*
X274902572Y-219918000D01*
X274816857Y-219889429D01*
X274759714Y-219889429D01*
X274674000Y-219918000D01*
X274645429Y-219946571D01*
X274531143Y-220546571D02*
X274074000Y-220546571D01*
X273588286Y-220432286D02*
X273616857Y-220460857D01*
X273702571Y-220489429D01*
X273759714Y-220489429D01*
X273845429Y-220460857D01*
X273902571Y-220403714D01*
X273931143Y-220346571D01*
X273959714Y-220232286D01*
X273959714Y-220146571D01*
X273931143Y-220032286D01*
X273902571Y-219975143D01*
X273845429Y-219918000D01*
X273759714Y-219889429D01*
X273702571Y-219889429D01*
X273616857Y-219918000D01*
X273588286Y-219946571D01*
X273359714Y-220460857D02*
X273274000Y-220489429D01*
X273131143Y-220489429D01*
X273074000Y-220460857D01*
X273045429Y-220432286D01*
X273016857Y-220375143D01*
X273016857Y-220318000D01*
X273045429Y-220260857D01*
X273074000Y-220232286D01*
X273131143Y-220203714D01*
X273245429Y-220175143D01*
X273302571Y-220146571D01*
X273331143Y-220118000D01*
X273359714Y-220060857D01*
X273359714Y-220003714D01*
X273331143Y-219946571D01*
X273302571Y-219918000D01*
X273245429Y-219889429D01*
X273102571Y-219889429D01*
X273016857Y-219918000D01*
X276245429Y-219786000D02*
X272902571Y-219786000D01*
X276656572Y-227601429D02*
X276656572Y-227001429D01*
X276513715Y-227001429D01*
X276428000Y-227030000D01*
X276370858Y-227087143D01*
X276342286Y-227144286D01*
X276313715Y-227258571D01*
X276313715Y-227344286D01*
X276342286Y-227458571D01*
X276370858Y-227515714D01*
X276428000Y-227572857D01*
X276513715Y-227601429D01*
X276656572Y-227601429D01*
X276085143Y-227430000D02*
X275799429Y-227430000D01*
X276142286Y-227601429D02*
X275942286Y-227001429D01*
X275742286Y-227601429D01*
X275199429Y-227544286D02*
X275228000Y-227572857D01*
X275313714Y-227601429D01*
X275370857Y-227601429D01*
X275456572Y-227572857D01*
X275513714Y-227515714D01*
X275542286Y-227458571D01*
X275570857Y-227344286D01*
X275570857Y-227258571D01*
X275542286Y-227144286D01*
X275513714Y-227087143D01*
X275456572Y-227030000D01*
X275370857Y-227001429D01*
X275313714Y-227001429D01*
X275228000Y-227030000D01*
X275199429Y-227058571D01*
X275085143Y-227658571D02*
X274628000Y-227658571D01*
X274513714Y-227572857D02*
X274428000Y-227601429D01*
X274285143Y-227601429D01*
X274228000Y-227572857D01*
X274199429Y-227544286D01*
X274170857Y-227487143D01*
X274170857Y-227430000D01*
X274199429Y-227372857D01*
X274228000Y-227344286D01*
X274285143Y-227315714D01*
X274399429Y-227287143D01*
X274456571Y-227258571D01*
X274485143Y-227230000D01*
X274513714Y-227172857D01*
X274513714Y-227115714D01*
X274485143Y-227058571D01*
X274456571Y-227030000D01*
X274399429Y-227001429D01*
X274256571Y-227001429D01*
X274170857Y-227030000D01*
X273570857Y-227544286D02*
X273599428Y-227572857D01*
X273685142Y-227601429D01*
X273742285Y-227601429D01*
X273828000Y-227572857D01*
X273885142Y-227515714D01*
X273913714Y-227458571D01*
X273942285Y-227344286D01*
X273942285Y-227258571D01*
X273913714Y-227144286D01*
X273885142Y-227087143D01*
X273828000Y-227030000D01*
X273742285Y-227001429D01*
X273685142Y-227001429D01*
X273599428Y-227030000D01*
X273570857Y-227058571D01*
X273313714Y-227601429D02*
X273313714Y-227001429D01*
X272970857Y-227601429D02*
X273228000Y-227258571D01*
X272970857Y-227001429D02*
X273313714Y-227344286D01*
X277134429Y-229760429D02*
X277134429Y-229160429D01*
X276991572Y-229160429D01*
X276905857Y-229189000D01*
X276848715Y-229246143D01*
X276820143Y-229303286D01*
X276791572Y-229417571D01*
X276791572Y-229503286D01*
X276820143Y-229617571D01*
X276848715Y-229674714D01*
X276905857Y-229731857D01*
X276991572Y-229760429D01*
X277134429Y-229760429D01*
X276563000Y-229589000D02*
X276277286Y-229589000D01*
X276620143Y-229760429D02*
X276420143Y-229160429D01*
X276220143Y-229760429D01*
X275677286Y-229703286D02*
X275705857Y-229731857D01*
X275791571Y-229760429D01*
X275848714Y-229760429D01*
X275934429Y-229731857D01*
X275991571Y-229674714D01*
X276020143Y-229617571D01*
X276048714Y-229503286D01*
X276048714Y-229417571D01*
X276020143Y-229303286D01*
X275991571Y-229246143D01*
X275934429Y-229189000D01*
X275848714Y-229160429D01*
X275791571Y-229160429D01*
X275705857Y-229189000D01*
X275677286Y-229217571D01*
X275563000Y-229817571D02*
X275105857Y-229817571D01*
X274991571Y-229731857D02*
X274905857Y-229760429D01*
X274763000Y-229760429D01*
X274705857Y-229731857D01*
X274677286Y-229703286D01*
X274648714Y-229646143D01*
X274648714Y-229589000D01*
X274677286Y-229531857D01*
X274705857Y-229503286D01*
X274763000Y-229474714D01*
X274877286Y-229446143D01*
X274934428Y-229417571D01*
X274963000Y-229389000D01*
X274991571Y-229331857D01*
X274991571Y-229274714D01*
X274963000Y-229217571D01*
X274934428Y-229189000D01*
X274877286Y-229160429D01*
X274734428Y-229160429D01*
X274648714Y-229189000D01*
X274391571Y-229760429D02*
X274391571Y-229160429D01*
X274248714Y-229160429D01*
X274162999Y-229189000D01*
X274105857Y-229246143D01*
X274077285Y-229303286D01*
X274048714Y-229417571D01*
X274048714Y-229503286D01*
X274077285Y-229617571D01*
X274105857Y-229674714D01*
X274162999Y-229731857D01*
X274248714Y-229760429D01*
X274391571Y-229760429D01*
X273791571Y-229760429D02*
X273791571Y-229160429D01*
X309872000Y-230049429D02*
X309672000Y-230649429D01*
X309472000Y-230049429D01*
X308929143Y-230592286D02*
X308957714Y-230620857D01*
X309043428Y-230649429D01*
X309100571Y-230649429D01*
X309186286Y-230620857D01*
X309243428Y-230563714D01*
X309272000Y-230506571D01*
X309300571Y-230392286D01*
X309300571Y-230306571D01*
X309272000Y-230192286D01*
X309243428Y-230135143D01*
X309186286Y-230078000D01*
X309100571Y-230049429D01*
X309043428Y-230049429D01*
X308957714Y-230078000D01*
X308929143Y-230106571D01*
D11*
X251044000Y-183275000D02*
X249844000Y-183275000D01*
X249844000Y-185025000D02*
X251044000Y-185025000D01*
X321525000Y-220734000D02*
X321525000Y-221734000D01*
X319825000Y-221734000D02*
X319825000Y-220734000D01*
X349495000Y-224139000D02*
X349495000Y-222139000D01*
X351545000Y-222139000D02*
X351545000Y-224139000D01*
X358664000Y-223638000D02*
X360664000Y-223638000D01*
X360664000Y-225688000D02*
X358664000Y-225688000D01*
X314968000Y-172378000D02*
X315968000Y-172378000D01*
X315968000Y-174078000D02*
X314968000Y-174078000D01*
X286012000Y-172378000D02*
X287012000Y-172378000D01*
X287012000Y-174078000D02*
X286012000Y-174078000D01*
X257564000Y-172378000D02*
X258564000Y-172378000D01*
X258564000Y-174078000D02*
X257564000Y-174078000D01*
X321556000Y-179031000D02*
X320556000Y-179031000D01*
X320556000Y-177331000D02*
X321556000Y-177331000D01*
X293108000Y-179031000D02*
X292108000Y-179031000D01*
X292108000Y-177331000D02*
X293108000Y-177331000D01*
X264660000Y-179031000D02*
X263660000Y-179031000D01*
X263660000Y-177331000D02*
X264660000Y-177331000D01*
X309587000Y-186952000D02*
X309587000Y-187952000D01*
X307887000Y-187952000D02*
X307887000Y-186952000D01*
X281139000Y-186952000D02*
X281139000Y-187952000D01*
X279439000Y-187952000D02*
X279439000Y-186952000D01*
X252691000Y-186952000D02*
X252691000Y-187952000D01*
X250991000Y-187952000D02*
X250991000Y-186952000D01*
X257064000Y-183379000D02*
X259064000Y-183379000D01*
X259064000Y-185429000D02*
X257064000Y-185429000D01*
X313960000Y-183379000D02*
X315960000Y-183379000D01*
X315960000Y-185429000D02*
X313960000Y-185429000D01*
X285512000Y-183379000D02*
X287512000Y-183379000D01*
X287512000Y-185429000D02*
X285512000Y-185429000D01*
X260004000Y-218299000D02*
X261204000Y-218299000D01*
X261204000Y-216549000D02*
X260004000Y-216549000D01*
X260004000Y-216267000D02*
X261204000Y-216267000D01*
X261204000Y-214517000D02*
X260004000Y-214517000D01*
X236128000Y-206869000D02*
X237328000Y-206869000D01*
X237328000Y-205119000D02*
X236128000Y-205119000D01*
X335880000Y-178880800D02*
X334680000Y-178880800D01*
X334680000Y-180630800D02*
X335880000Y-180630800D01*
X335880000Y-180912800D02*
X334680000Y-180912800D01*
X334680000Y-182662800D02*
X335880000Y-182662800D01*
X276895000Y-177405000D02*
X278095000Y-177405000D01*
X278095000Y-175655000D02*
X276895000Y-175655000D01*
X248447000Y-177405000D02*
X249647000Y-177405000D01*
X249647000Y-175655000D02*
X248447000Y-175655000D01*
X305068000Y-186979000D02*
X305068000Y-188179000D01*
X306818000Y-188179000D02*
X306818000Y-186979000D01*
X307940000Y-183275000D02*
X306740000Y-183275000D01*
X306740000Y-185025000D02*
X307940000Y-185025000D01*
X276620000Y-186979000D02*
X276620000Y-188179000D01*
X278370000Y-188179000D02*
X278370000Y-186979000D01*
X279492000Y-183275000D02*
X278292000Y-183275000D01*
X278292000Y-185025000D02*
X279492000Y-185025000D01*
X248172000Y-186979000D02*
X248172000Y-188179000D01*
X249922000Y-188179000D02*
X249922000Y-186979000D01*
X236001000Y-216140000D02*
X237201000Y-216140000D01*
X237201000Y-214390000D02*
X236001000Y-214390000D01*
X236001000Y-213981000D02*
X237201000Y-213981000D01*
X237201000Y-212231000D02*
X236001000Y-212231000D01*
X276493000Y-211490000D02*
X276493000Y-212690000D01*
X278243000Y-212690000D02*
X278243000Y-211490000D01*
X274334000Y-211490000D02*
X274334000Y-212690000D01*
X276084000Y-212690000D02*
X276084000Y-211490000D01*
X359191000Y-195693000D02*
X360391000Y-195693000D01*
X360391000Y-193943000D02*
X359191000Y-193943000D01*
X359191000Y-197852000D02*
X360391000Y-197852000D01*
X360391000Y-196102000D02*
X359191000Y-196102000D01*
X359191000Y-200011000D02*
X360391000Y-200011000D01*
X360391000Y-198261000D02*
X359191000Y-198261000D01*
X360391000Y-200420000D02*
X359191000Y-200420000D01*
X359191000Y-202170000D02*
X360391000Y-202170000D01*
X317778000Y-225079000D02*
X314428000Y-225079000D01*
X314428000Y-225079000D02*
X314428000Y-219929000D01*
X314428000Y-219929000D02*
X317778000Y-219929000D01*
X317778000Y-219929000D02*
X317778000Y-225079000D01*
X330747000Y-200398000D02*
X330747000Y-199398000D01*
X332447000Y-199398000D02*
X332447000Y-200398000D01*
X310656000Y-223174000D02*
X310656000Y-224374000D01*
X312406000Y-224374000D02*
X312406000Y-223174000D01*
X330380000Y-200998000D02*
X330380000Y-201598000D01*
X330380000Y-199098000D02*
X330380000Y-200698000D01*
X328430000Y-199098000D02*
X329430000Y-199098000D01*
X327480000Y-200698000D02*
X327480000Y-199098000D01*
X349070000Y-227881000D02*
X349070000Y-227281000D01*
X349070000Y-229781000D02*
X349070000Y-228181000D01*
X351020000Y-229781000D02*
X350020000Y-229781000D01*
X351970000Y-228181000D02*
X351970000Y-229781000D01*
X351628000Y-231916000D02*
X350428000Y-231916000D01*
X350428000Y-233666000D02*
X351628000Y-233666000D01*
X223270000Y-181737000D02*
X223020000Y-181737000D01*
X223770000Y-181737000D02*
X224020000Y-181737000D01*
X223770000Y-181737000D02*
X223270000Y-181387000D01*
X223270000Y-181387000D02*
X223270000Y-182087000D01*
X223270000Y-182087000D02*
X223770000Y-181737000D01*
X223770000Y-181387000D02*
X223770000Y-182087000D01*
X224370000Y-182362000D02*
X222670000Y-182362000D01*
X224370000Y-181112000D02*
X222670000Y-181112000D01*
X251563047Y-182875181D02*
X251896381Y-182398990D01*
X252134476Y-182875181D02*
X252134476Y-181875181D01*
X251753523Y-181875181D01*
X251658285Y-181922800D01*
X251610666Y-181970419D01*
X251563047Y-182065657D01*
X251563047Y-182208514D01*
X251610666Y-182303752D01*
X251658285Y-182351371D01*
X251753523Y-182398990D01*
X252134476Y-182398990D01*
X250658285Y-181875181D02*
X251134476Y-181875181D01*
X251182095Y-182351371D01*
X251134476Y-182303752D01*
X251039238Y-182256133D01*
X250801142Y-182256133D01*
X250705904Y-182303752D01*
X250658285Y-182351371D01*
X250610666Y-182446610D01*
X250610666Y-182684705D01*
X250658285Y-182779943D01*
X250705904Y-182827562D01*
X250801142Y-182875181D01*
X251039238Y-182875181D01*
X251134476Y-182827562D01*
X251182095Y-182779943D01*
X249658285Y-182875181D02*
X250229714Y-182875181D01*
X249944000Y-182875181D02*
X249944000Y-181875181D01*
X250039238Y-182018038D01*
X250134476Y-182113276D01*
X250229714Y-182160895D01*
X249277333Y-181970419D02*
X249229714Y-181922800D01*
X249134476Y-181875181D01*
X248896380Y-181875181D01*
X248801142Y-181922800D01*
X248753523Y-181970419D01*
X248705904Y-182065657D01*
X248705904Y-182160895D01*
X248753523Y-182303752D01*
X249324952Y-182875181D01*
X248705904Y-182875181D01*
X322784743Y-220114953D02*
X322832362Y-220067334D01*
X322879981Y-219924477D01*
X322879981Y-219829239D01*
X322832362Y-219686381D01*
X322737124Y-219591143D01*
X322641886Y-219543524D01*
X322451410Y-219495905D01*
X322308552Y-219495905D01*
X322118076Y-219543524D01*
X322022838Y-219591143D01*
X321927600Y-219686381D01*
X321879981Y-219829239D01*
X321879981Y-219924477D01*
X321927600Y-220067334D01*
X321975219Y-220114953D01*
X321975219Y-220495905D02*
X321927600Y-220543524D01*
X321879981Y-220638762D01*
X321879981Y-220876858D01*
X321927600Y-220972096D01*
X321975219Y-221019715D01*
X322070457Y-221067334D01*
X322165695Y-221067334D01*
X322308552Y-221019715D01*
X322879981Y-220448286D01*
X322879981Y-221067334D01*
X321879981Y-221686381D02*
X321879981Y-221781620D01*
X321927600Y-221876858D01*
X321975219Y-221924477D01*
X322070457Y-221972096D01*
X322260933Y-222019715D01*
X322499029Y-222019715D01*
X322689505Y-221972096D01*
X322784743Y-221924477D01*
X322832362Y-221876858D01*
X322879981Y-221781620D01*
X322879981Y-221686381D01*
X322832362Y-221591143D01*
X322784743Y-221543524D01*
X322689505Y-221495905D01*
X322499029Y-221448286D01*
X322260933Y-221448286D01*
X322070457Y-221495905D01*
X321975219Y-221543524D01*
X321927600Y-221591143D01*
X321879981Y-221686381D01*
X322879981Y-222495905D02*
X322879981Y-222686381D01*
X322832362Y-222781620D01*
X322784743Y-222829239D01*
X322641886Y-222924477D01*
X322451410Y-222972096D01*
X322070457Y-222972096D01*
X321975219Y-222924477D01*
X321927600Y-222876858D01*
X321879981Y-222781620D01*
X321879981Y-222591143D01*
X321927600Y-222495905D01*
X321975219Y-222448286D01*
X322070457Y-222400667D01*
X322308552Y-222400667D01*
X322403790Y-222448286D01*
X322451410Y-222495905D01*
X322499029Y-222591143D01*
X322499029Y-222781620D01*
X322451410Y-222876858D01*
X322403790Y-222924477D01*
X322308552Y-222972096D01*
X349048343Y-222019953D02*
X349095962Y-221972334D01*
X349143581Y-221829477D01*
X349143581Y-221734239D01*
X349095962Y-221591381D01*
X349000724Y-221496143D01*
X348905486Y-221448524D01*
X348715010Y-221400905D01*
X348572152Y-221400905D01*
X348381676Y-221448524D01*
X348286438Y-221496143D01*
X348191200Y-221591381D01*
X348143581Y-221734239D01*
X348143581Y-221829477D01*
X348191200Y-221972334D01*
X348238819Y-222019953D01*
X348143581Y-222353286D02*
X348143581Y-222972334D01*
X348524533Y-222639000D01*
X348524533Y-222781858D01*
X348572152Y-222877096D01*
X348619771Y-222924715D01*
X348715010Y-222972334D01*
X348953105Y-222972334D01*
X349048343Y-222924715D01*
X349095962Y-222877096D01*
X349143581Y-222781858D01*
X349143581Y-222496143D01*
X349095962Y-222400905D01*
X349048343Y-222353286D01*
X348143581Y-223591381D02*
X348143581Y-223686620D01*
X348191200Y-223781858D01*
X348238819Y-223829477D01*
X348334057Y-223877096D01*
X348524533Y-223924715D01*
X348762629Y-223924715D01*
X348953105Y-223877096D01*
X349048343Y-223829477D01*
X349095962Y-223781858D01*
X349143581Y-223686620D01*
X349143581Y-223591381D01*
X349095962Y-223496143D01*
X349048343Y-223448524D01*
X348953105Y-223400905D01*
X348762629Y-223353286D01*
X348524533Y-223353286D01*
X348334057Y-223400905D01*
X348238819Y-223448524D01*
X348191200Y-223496143D01*
X348143581Y-223591381D01*
X349143581Y-224877096D02*
X349143581Y-224305667D01*
X349143581Y-224591381D02*
X348143581Y-224591381D01*
X348286438Y-224496143D01*
X348381676Y-224400905D01*
X348429295Y-224305667D01*
X360783047Y-226975943D02*
X360830666Y-227023562D01*
X360973523Y-227071181D01*
X361068761Y-227071181D01*
X361211619Y-227023562D01*
X361306857Y-226928324D01*
X361354476Y-226833086D01*
X361402095Y-226642610D01*
X361402095Y-226499752D01*
X361354476Y-226309276D01*
X361306857Y-226214038D01*
X361211619Y-226118800D01*
X361068761Y-226071181D01*
X360973523Y-226071181D01*
X360830666Y-226118800D01*
X360783047Y-226166419D01*
X360449714Y-226071181D02*
X359830666Y-226071181D01*
X360164000Y-226452133D01*
X360021142Y-226452133D01*
X359925904Y-226499752D01*
X359878285Y-226547371D01*
X359830666Y-226642610D01*
X359830666Y-226880705D01*
X359878285Y-226975943D01*
X359925904Y-227023562D01*
X360021142Y-227071181D01*
X360306857Y-227071181D01*
X360402095Y-227023562D01*
X360449714Y-226975943D01*
X359211619Y-226071181D02*
X359116380Y-226071181D01*
X359021142Y-226118800D01*
X358973523Y-226166419D01*
X358925904Y-226261657D01*
X358878285Y-226452133D01*
X358878285Y-226690229D01*
X358925904Y-226880705D01*
X358973523Y-226975943D01*
X359021142Y-227023562D01*
X359116380Y-227071181D01*
X359211619Y-227071181D01*
X359306857Y-227023562D01*
X359354476Y-226975943D01*
X359402095Y-226880705D01*
X359449714Y-226690229D01*
X359449714Y-226452133D01*
X359402095Y-226261657D01*
X359354476Y-226166419D01*
X359306857Y-226118800D01*
X359211619Y-226071181D01*
X358497333Y-226166419D02*
X358449714Y-226118800D01*
X358354476Y-226071181D01*
X358116380Y-226071181D01*
X358021142Y-226118800D01*
X357973523Y-226166419D01*
X357925904Y-226261657D01*
X357925904Y-226356895D01*
X357973523Y-226499752D01*
X358544952Y-227071181D01*
X357925904Y-227071181D01*
X316587047Y-171485143D02*
X316634666Y-171532762D01*
X316777523Y-171580381D01*
X316872761Y-171580381D01*
X317015619Y-171532762D01*
X317110857Y-171437524D01*
X317158476Y-171342286D01*
X317206095Y-171151810D01*
X317206095Y-171008952D01*
X317158476Y-170818476D01*
X317110857Y-170723238D01*
X317015619Y-170628000D01*
X316872761Y-170580381D01*
X316777523Y-170580381D01*
X316634666Y-170628000D01*
X316587047Y-170675619D01*
X315682285Y-170580381D02*
X316158476Y-170580381D01*
X316206095Y-171056571D01*
X316158476Y-171008952D01*
X316063238Y-170961333D01*
X315825142Y-170961333D01*
X315729904Y-171008952D01*
X315682285Y-171056571D01*
X315634666Y-171151810D01*
X315634666Y-171389905D01*
X315682285Y-171485143D01*
X315729904Y-171532762D01*
X315825142Y-171580381D01*
X316063238Y-171580381D01*
X316158476Y-171532762D01*
X316206095Y-171485143D01*
X315015619Y-170580381D02*
X314920380Y-170580381D01*
X314825142Y-170628000D01*
X314777523Y-170675619D01*
X314729904Y-170770857D01*
X314682285Y-170961333D01*
X314682285Y-171199429D01*
X314729904Y-171389905D01*
X314777523Y-171485143D01*
X314825142Y-171532762D01*
X314920380Y-171580381D01*
X315015619Y-171580381D01*
X315110857Y-171532762D01*
X315158476Y-171485143D01*
X315206095Y-171389905D01*
X315253714Y-171199429D01*
X315253714Y-170961333D01*
X315206095Y-170770857D01*
X315158476Y-170675619D01*
X315110857Y-170628000D01*
X315015619Y-170580381D01*
X314348952Y-170580381D02*
X313682285Y-170580381D01*
X314110857Y-171580381D01*
X291898247Y-173635943D02*
X291945866Y-173683562D01*
X292088723Y-173731181D01*
X292183961Y-173731181D01*
X292326819Y-173683562D01*
X292422057Y-173588324D01*
X292469676Y-173493086D01*
X292517295Y-173302610D01*
X292517295Y-173159752D01*
X292469676Y-172969276D01*
X292422057Y-172874038D01*
X292326819Y-172778800D01*
X292183961Y-172731181D01*
X292088723Y-172731181D01*
X291945866Y-172778800D01*
X291898247Y-172826419D01*
X290993485Y-172731181D02*
X291469676Y-172731181D01*
X291517295Y-173207371D01*
X291469676Y-173159752D01*
X291374438Y-173112133D01*
X291136342Y-173112133D01*
X291041104Y-173159752D01*
X290993485Y-173207371D01*
X290945866Y-173302610D01*
X290945866Y-173540705D01*
X290993485Y-173635943D01*
X291041104Y-173683562D01*
X291136342Y-173731181D01*
X291374438Y-173731181D01*
X291469676Y-173683562D01*
X291517295Y-173635943D01*
X290326819Y-172731181D02*
X290231580Y-172731181D01*
X290136342Y-172778800D01*
X290088723Y-172826419D01*
X290041104Y-172921657D01*
X289993485Y-173112133D01*
X289993485Y-173350229D01*
X290041104Y-173540705D01*
X290088723Y-173635943D01*
X290136342Y-173683562D01*
X290231580Y-173731181D01*
X290326819Y-173731181D01*
X290422057Y-173683562D01*
X290469676Y-173635943D01*
X290517295Y-173540705D01*
X290564914Y-173350229D01*
X290564914Y-173112133D01*
X290517295Y-172921657D01*
X290469676Y-172826419D01*
X290422057Y-172778800D01*
X290326819Y-172731181D01*
X289422057Y-173159752D02*
X289517295Y-173112133D01*
X289564914Y-173064514D01*
X289612533Y-172969276D01*
X289612533Y-172921657D01*
X289564914Y-172826419D01*
X289517295Y-172778800D01*
X289422057Y-172731181D01*
X289231580Y-172731181D01*
X289136342Y-172778800D01*
X289088723Y-172826419D01*
X289041104Y-172921657D01*
X289041104Y-172969276D01*
X289088723Y-173064514D01*
X289136342Y-173112133D01*
X289231580Y-173159752D01*
X289422057Y-173159752D01*
X289517295Y-173207371D01*
X289564914Y-173254990D01*
X289612533Y-173350229D01*
X289612533Y-173540705D01*
X289564914Y-173635943D01*
X289517295Y-173683562D01*
X289422057Y-173731181D01*
X289231580Y-173731181D01*
X289136342Y-173683562D01*
X289088723Y-173635943D01*
X289041104Y-173540705D01*
X289041104Y-173350229D01*
X289088723Y-173254990D01*
X289136342Y-173207371D01*
X289231580Y-173159752D01*
X263450247Y-173635943D02*
X263497866Y-173683562D01*
X263640723Y-173731181D01*
X263735961Y-173731181D01*
X263878819Y-173683562D01*
X263974057Y-173588324D01*
X264021676Y-173493086D01*
X264069295Y-173302610D01*
X264069295Y-173159752D01*
X264021676Y-172969276D01*
X263974057Y-172874038D01*
X263878819Y-172778800D01*
X263735961Y-172731181D01*
X263640723Y-172731181D01*
X263497866Y-172778800D01*
X263450247Y-172826419D01*
X262545485Y-172731181D02*
X263021676Y-172731181D01*
X263069295Y-173207371D01*
X263021676Y-173159752D01*
X262926438Y-173112133D01*
X262688342Y-173112133D01*
X262593104Y-173159752D01*
X262545485Y-173207371D01*
X262497866Y-173302610D01*
X262497866Y-173540705D01*
X262545485Y-173635943D01*
X262593104Y-173683562D01*
X262688342Y-173731181D01*
X262926438Y-173731181D01*
X263021676Y-173683562D01*
X263069295Y-173635943D01*
X261878819Y-172731181D02*
X261783580Y-172731181D01*
X261688342Y-172778800D01*
X261640723Y-172826419D01*
X261593104Y-172921657D01*
X261545485Y-173112133D01*
X261545485Y-173350229D01*
X261593104Y-173540705D01*
X261640723Y-173635943D01*
X261688342Y-173683562D01*
X261783580Y-173731181D01*
X261878819Y-173731181D01*
X261974057Y-173683562D01*
X262021676Y-173635943D01*
X262069295Y-173540705D01*
X262116914Y-173350229D01*
X262116914Y-173112133D01*
X262069295Y-172921657D01*
X262021676Y-172826419D01*
X261974057Y-172778800D01*
X261878819Y-172731181D01*
X261069295Y-173731181D02*
X260878819Y-173731181D01*
X260783580Y-173683562D01*
X260735961Y-173635943D01*
X260640723Y-173493086D01*
X260593104Y-173302610D01*
X260593104Y-172921657D01*
X260640723Y-172826419D01*
X260688342Y-172778800D01*
X260783580Y-172731181D01*
X260974057Y-172731181D01*
X261069295Y-172778800D01*
X261116914Y-172826419D01*
X261164533Y-172921657D01*
X261164533Y-173159752D01*
X261116914Y-173254990D01*
X261069295Y-173302610D01*
X260974057Y-173350229D01*
X260783580Y-173350229D01*
X260688342Y-173302610D01*
X260640723Y-173254990D01*
X260593104Y-173159752D01*
X326340647Y-178563543D02*
X326388266Y-178611162D01*
X326531123Y-178658781D01*
X326626361Y-178658781D01*
X326769219Y-178611162D01*
X326864457Y-178515924D01*
X326912076Y-178420686D01*
X326959695Y-178230210D01*
X326959695Y-178087352D01*
X326912076Y-177896876D01*
X326864457Y-177801638D01*
X326769219Y-177706400D01*
X326626361Y-177658781D01*
X326531123Y-177658781D01*
X326388266Y-177706400D01*
X326340647Y-177754019D01*
X325435885Y-177658781D02*
X325912076Y-177658781D01*
X325959695Y-178134971D01*
X325912076Y-178087352D01*
X325816838Y-178039733D01*
X325578742Y-178039733D01*
X325483504Y-178087352D01*
X325435885Y-178134971D01*
X325388266Y-178230210D01*
X325388266Y-178468305D01*
X325435885Y-178563543D01*
X325483504Y-178611162D01*
X325578742Y-178658781D01*
X325816838Y-178658781D01*
X325912076Y-178611162D01*
X325959695Y-178563543D01*
X324435885Y-178658781D02*
X325007314Y-178658781D01*
X324721600Y-178658781D02*
X324721600Y-177658781D01*
X324816838Y-177801638D01*
X324912076Y-177896876D01*
X325007314Y-177944495D01*
X323816838Y-177658781D02*
X323721599Y-177658781D01*
X323626361Y-177706400D01*
X323578742Y-177754019D01*
X323531123Y-177849257D01*
X323483504Y-178039733D01*
X323483504Y-178277829D01*
X323531123Y-178468305D01*
X323578742Y-178563543D01*
X323626361Y-178611162D01*
X323721599Y-178658781D01*
X323816838Y-178658781D01*
X323912076Y-178611162D01*
X323959695Y-178563543D01*
X324007314Y-178468305D01*
X324054933Y-178277829D01*
X324054933Y-178039733D01*
X324007314Y-177849257D01*
X323959695Y-177754019D01*
X323912076Y-177706400D01*
X323816838Y-177658781D01*
X297943447Y-178614343D02*
X297991066Y-178661962D01*
X298133923Y-178709581D01*
X298229161Y-178709581D01*
X298372019Y-178661962D01*
X298467257Y-178566724D01*
X298514876Y-178471486D01*
X298562495Y-178281010D01*
X298562495Y-178138152D01*
X298514876Y-177947676D01*
X298467257Y-177852438D01*
X298372019Y-177757200D01*
X298229161Y-177709581D01*
X298133923Y-177709581D01*
X297991066Y-177757200D01*
X297943447Y-177804819D01*
X297038685Y-177709581D02*
X297514876Y-177709581D01*
X297562495Y-178185771D01*
X297514876Y-178138152D01*
X297419638Y-178090533D01*
X297181542Y-178090533D01*
X297086304Y-178138152D01*
X297038685Y-178185771D01*
X296991066Y-178281010D01*
X296991066Y-178519105D01*
X297038685Y-178614343D01*
X297086304Y-178661962D01*
X297181542Y-178709581D01*
X297419638Y-178709581D01*
X297514876Y-178661962D01*
X297562495Y-178614343D01*
X296038685Y-178709581D02*
X296610114Y-178709581D01*
X296324400Y-178709581D02*
X296324400Y-177709581D01*
X296419638Y-177852438D01*
X296514876Y-177947676D01*
X296610114Y-177995295D01*
X295086304Y-178709581D02*
X295657733Y-178709581D01*
X295372019Y-178709581D02*
X295372019Y-177709581D01*
X295467257Y-177852438D01*
X295562495Y-177947676D01*
X295657733Y-177995295D01*
X269495447Y-178563543D02*
X269543066Y-178611162D01*
X269685923Y-178658781D01*
X269781161Y-178658781D01*
X269924019Y-178611162D01*
X270019257Y-178515924D01*
X270066876Y-178420686D01*
X270114495Y-178230210D01*
X270114495Y-178087352D01*
X270066876Y-177896876D01*
X270019257Y-177801638D01*
X269924019Y-177706400D01*
X269781161Y-177658781D01*
X269685923Y-177658781D01*
X269543066Y-177706400D01*
X269495447Y-177754019D01*
X268590685Y-177658781D02*
X269066876Y-177658781D01*
X269114495Y-178134971D01*
X269066876Y-178087352D01*
X268971638Y-178039733D01*
X268733542Y-178039733D01*
X268638304Y-178087352D01*
X268590685Y-178134971D01*
X268543066Y-178230210D01*
X268543066Y-178468305D01*
X268590685Y-178563543D01*
X268638304Y-178611162D01*
X268733542Y-178658781D01*
X268971638Y-178658781D01*
X269066876Y-178611162D01*
X269114495Y-178563543D01*
X267590685Y-178658781D02*
X268162114Y-178658781D01*
X267876400Y-178658781D02*
X267876400Y-177658781D01*
X267971638Y-177801638D01*
X268066876Y-177896876D01*
X268162114Y-177944495D01*
X267209733Y-177754019D02*
X267162114Y-177706400D01*
X267066876Y-177658781D01*
X266828780Y-177658781D01*
X266733542Y-177706400D01*
X266685923Y-177754019D01*
X266638304Y-177849257D01*
X266638304Y-177944495D01*
X266685923Y-178087352D01*
X267257352Y-178658781D01*
X266638304Y-178658781D01*
X309119543Y-190498553D02*
X309167162Y-190450934D01*
X309214781Y-190308077D01*
X309214781Y-190212839D01*
X309167162Y-190069981D01*
X309071924Y-189974743D01*
X308976686Y-189927124D01*
X308786210Y-189879505D01*
X308643352Y-189879505D01*
X308452876Y-189927124D01*
X308357638Y-189974743D01*
X308262400Y-190069981D01*
X308214781Y-190212839D01*
X308214781Y-190308077D01*
X308262400Y-190450934D01*
X308310019Y-190498553D01*
X308214781Y-191403315D02*
X308214781Y-190927124D01*
X308690971Y-190879505D01*
X308643352Y-190927124D01*
X308595733Y-191022362D01*
X308595733Y-191260458D01*
X308643352Y-191355696D01*
X308690971Y-191403315D01*
X308786210Y-191450934D01*
X309024305Y-191450934D01*
X309119543Y-191403315D01*
X309167162Y-191355696D01*
X309214781Y-191260458D01*
X309214781Y-191022362D01*
X309167162Y-190927124D01*
X309119543Y-190879505D01*
X309214781Y-192403315D02*
X309214781Y-191831886D01*
X309214781Y-192117600D02*
X308214781Y-192117600D01*
X308357638Y-192022362D01*
X308452876Y-191927124D01*
X308500495Y-191831886D01*
X308214781Y-193260458D02*
X308214781Y-193069981D01*
X308262400Y-192974743D01*
X308310019Y-192927124D01*
X308452876Y-192831886D01*
X308643352Y-192784267D01*
X309024305Y-192784267D01*
X309119543Y-192831886D01*
X309167162Y-192879505D01*
X309214781Y-192974743D01*
X309214781Y-193165220D01*
X309167162Y-193260458D01*
X309119543Y-193308077D01*
X309024305Y-193355696D01*
X308786210Y-193355696D01*
X308690971Y-193308077D01*
X308643352Y-193260458D01*
X308595733Y-193165220D01*
X308595733Y-192974743D01*
X308643352Y-192879505D01*
X308690971Y-192831886D01*
X308786210Y-192784267D01*
X280671543Y-190498553D02*
X280719162Y-190450934D01*
X280766781Y-190308077D01*
X280766781Y-190212839D01*
X280719162Y-190069981D01*
X280623924Y-189974743D01*
X280528686Y-189927124D01*
X280338210Y-189879505D01*
X280195352Y-189879505D01*
X280004876Y-189927124D01*
X279909638Y-189974743D01*
X279814400Y-190069981D01*
X279766781Y-190212839D01*
X279766781Y-190308077D01*
X279814400Y-190450934D01*
X279862019Y-190498553D01*
X279766781Y-191403315D02*
X279766781Y-190927124D01*
X280242971Y-190879505D01*
X280195352Y-190927124D01*
X280147733Y-191022362D01*
X280147733Y-191260458D01*
X280195352Y-191355696D01*
X280242971Y-191403315D01*
X280338210Y-191450934D01*
X280576305Y-191450934D01*
X280671543Y-191403315D01*
X280719162Y-191355696D01*
X280766781Y-191260458D01*
X280766781Y-191022362D01*
X280719162Y-190927124D01*
X280671543Y-190879505D01*
X280766781Y-192403315D02*
X280766781Y-191831886D01*
X280766781Y-192117600D02*
X279766781Y-192117600D01*
X279909638Y-192022362D01*
X280004876Y-191927124D01*
X280052495Y-191831886D01*
X279766781Y-192736648D02*
X279766781Y-193403315D01*
X280766781Y-192974743D01*
X252172743Y-190498553D02*
X252220362Y-190450934D01*
X252267981Y-190308077D01*
X252267981Y-190212839D01*
X252220362Y-190069981D01*
X252125124Y-189974743D01*
X252029886Y-189927124D01*
X251839410Y-189879505D01*
X251696552Y-189879505D01*
X251506076Y-189927124D01*
X251410838Y-189974743D01*
X251315600Y-190069981D01*
X251267981Y-190212839D01*
X251267981Y-190308077D01*
X251315600Y-190450934D01*
X251363219Y-190498553D01*
X251267981Y-191403315D02*
X251267981Y-190927124D01*
X251744171Y-190879505D01*
X251696552Y-190927124D01*
X251648933Y-191022362D01*
X251648933Y-191260458D01*
X251696552Y-191355696D01*
X251744171Y-191403315D01*
X251839410Y-191450934D01*
X252077505Y-191450934D01*
X252172743Y-191403315D01*
X252220362Y-191355696D01*
X252267981Y-191260458D01*
X252267981Y-191022362D01*
X252220362Y-190927124D01*
X252172743Y-190879505D01*
X252267981Y-192403315D02*
X252267981Y-191831886D01*
X252267981Y-192117600D02*
X251267981Y-192117600D01*
X251410838Y-192022362D01*
X251506076Y-191927124D01*
X251553695Y-191831886D01*
X251696552Y-192974743D02*
X251648933Y-192879505D01*
X251601314Y-192831886D01*
X251506076Y-192784267D01*
X251458457Y-192784267D01*
X251363219Y-192831886D01*
X251315600Y-192879505D01*
X251267981Y-192974743D01*
X251267981Y-193165220D01*
X251315600Y-193260458D01*
X251363219Y-193308077D01*
X251458457Y-193355696D01*
X251506076Y-193355696D01*
X251601314Y-193308077D01*
X251648933Y-193260458D01*
X251696552Y-193165220D01*
X251696552Y-192974743D01*
X251744171Y-192879505D01*
X251791790Y-192831886D01*
X251887029Y-192784267D01*
X252077505Y-192784267D01*
X252172743Y-192831886D01*
X252220362Y-192879505D01*
X252267981Y-192974743D01*
X252267981Y-193165220D01*
X252220362Y-193260458D01*
X252172743Y-193308077D01*
X252077505Y-193355696D01*
X251887029Y-193355696D01*
X251791790Y-193308077D01*
X251744171Y-193260458D01*
X251696552Y-193165220D01*
X261875447Y-188164743D02*
X261923066Y-188212362D01*
X262065923Y-188259981D01*
X262161161Y-188259981D01*
X262304019Y-188212362D01*
X262399257Y-188117124D01*
X262446876Y-188021886D01*
X262494495Y-187831410D01*
X262494495Y-187688552D01*
X262446876Y-187498076D01*
X262399257Y-187402838D01*
X262304019Y-187307600D01*
X262161161Y-187259981D01*
X262065923Y-187259981D01*
X261923066Y-187307600D01*
X261875447Y-187355219D01*
X260970685Y-187259981D02*
X261446876Y-187259981D01*
X261494495Y-187736171D01*
X261446876Y-187688552D01*
X261351638Y-187640933D01*
X261113542Y-187640933D01*
X261018304Y-187688552D01*
X260970685Y-187736171D01*
X260923066Y-187831410D01*
X260923066Y-188069505D01*
X260970685Y-188164743D01*
X261018304Y-188212362D01*
X261113542Y-188259981D01*
X261351638Y-188259981D01*
X261446876Y-188212362D01*
X261494495Y-188164743D01*
X260542114Y-187355219D02*
X260494495Y-187307600D01*
X260399257Y-187259981D01*
X260161161Y-187259981D01*
X260065923Y-187307600D01*
X260018304Y-187355219D01*
X259970685Y-187450457D01*
X259970685Y-187545695D01*
X260018304Y-187688552D01*
X260589733Y-188259981D01*
X259970685Y-188259981D01*
X259018304Y-188259981D02*
X259589733Y-188259981D01*
X259304019Y-188259981D02*
X259304019Y-187259981D01*
X259399257Y-187402838D01*
X259494495Y-187498076D01*
X259589733Y-187545695D01*
X318771447Y-188215543D02*
X318819066Y-188263162D01*
X318961923Y-188310781D01*
X319057161Y-188310781D01*
X319200019Y-188263162D01*
X319295257Y-188167924D01*
X319342876Y-188072686D01*
X319390495Y-187882210D01*
X319390495Y-187739352D01*
X319342876Y-187548876D01*
X319295257Y-187453638D01*
X319200019Y-187358400D01*
X319057161Y-187310781D01*
X318961923Y-187310781D01*
X318819066Y-187358400D01*
X318771447Y-187406019D01*
X317866685Y-187310781D02*
X318342876Y-187310781D01*
X318390495Y-187786971D01*
X318342876Y-187739352D01*
X318247638Y-187691733D01*
X318009542Y-187691733D01*
X317914304Y-187739352D01*
X317866685Y-187786971D01*
X317819066Y-187882210D01*
X317819066Y-188120305D01*
X317866685Y-188215543D01*
X317914304Y-188263162D01*
X318009542Y-188310781D01*
X318247638Y-188310781D01*
X318342876Y-188263162D01*
X318390495Y-188215543D01*
X317438114Y-187406019D02*
X317390495Y-187358400D01*
X317295257Y-187310781D01*
X317057161Y-187310781D01*
X316961923Y-187358400D01*
X316914304Y-187406019D01*
X316866685Y-187501257D01*
X316866685Y-187596495D01*
X316914304Y-187739352D01*
X317485733Y-188310781D01*
X316866685Y-188310781D01*
X316485733Y-187406019D02*
X316438114Y-187358400D01*
X316342876Y-187310781D01*
X316104780Y-187310781D01*
X316009542Y-187358400D01*
X315961923Y-187406019D01*
X315914304Y-187501257D01*
X315914304Y-187596495D01*
X315961923Y-187739352D01*
X316533352Y-188310781D01*
X315914304Y-188310781D01*
X290272647Y-188113943D02*
X290320266Y-188161562D01*
X290463123Y-188209181D01*
X290558361Y-188209181D01*
X290701219Y-188161562D01*
X290796457Y-188066324D01*
X290844076Y-187971086D01*
X290891695Y-187780610D01*
X290891695Y-187637752D01*
X290844076Y-187447276D01*
X290796457Y-187352038D01*
X290701219Y-187256800D01*
X290558361Y-187209181D01*
X290463123Y-187209181D01*
X290320266Y-187256800D01*
X290272647Y-187304419D01*
X289367885Y-187209181D02*
X289844076Y-187209181D01*
X289891695Y-187685371D01*
X289844076Y-187637752D01*
X289748838Y-187590133D01*
X289510742Y-187590133D01*
X289415504Y-187637752D01*
X289367885Y-187685371D01*
X289320266Y-187780610D01*
X289320266Y-188018705D01*
X289367885Y-188113943D01*
X289415504Y-188161562D01*
X289510742Y-188209181D01*
X289748838Y-188209181D01*
X289844076Y-188161562D01*
X289891695Y-188113943D01*
X288939314Y-187304419D02*
X288891695Y-187256800D01*
X288796457Y-187209181D01*
X288558361Y-187209181D01*
X288463123Y-187256800D01*
X288415504Y-187304419D01*
X288367885Y-187399657D01*
X288367885Y-187494895D01*
X288415504Y-187637752D01*
X288986933Y-188209181D01*
X288367885Y-188209181D01*
X288034552Y-187209181D02*
X287415504Y-187209181D01*
X287748838Y-187590133D01*
X287605980Y-187590133D01*
X287510742Y-187637752D01*
X287463123Y-187685371D01*
X287415504Y-187780610D01*
X287415504Y-188018705D01*
X287463123Y-188113943D01*
X287510742Y-188161562D01*
X287605980Y-188209181D01*
X287891695Y-188209181D01*
X287986933Y-188161562D01*
X288034552Y-188113943D01*
X261723047Y-219654381D02*
X262056381Y-219178190D01*
X262294476Y-219654381D02*
X262294476Y-218654381D01*
X261913523Y-218654381D01*
X261818285Y-218702000D01*
X261770666Y-218749619D01*
X261723047Y-218844857D01*
X261723047Y-218987714D01*
X261770666Y-219082952D01*
X261818285Y-219130571D01*
X261913523Y-219178190D01*
X262294476Y-219178190D01*
X261342095Y-218749619D02*
X261294476Y-218702000D01*
X261199238Y-218654381D01*
X260961142Y-218654381D01*
X260865904Y-218702000D01*
X260818285Y-218749619D01*
X260770666Y-218844857D01*
X260770666Y-218940095D01*
X260818285Y-219082952D01*
X261389714Y-219654381D01*
X260770666Y-219654381D01*
X260151619Y-218654381D02*
X260056380Y-218654381D01*
X259961142Y-218702000D01*
X259913523Y-218749619D01*
X259865904Y-218844857D01*
X259818285Y-219035333D01*
X259818285Y-219273429D01*
X259865904Y-219463905D01*
X259913523Y-219559143D01*
X259961142Y-219606762D01*
X260056380Y-219654381D01*
X260151619Y-219654381D01*
X260246857Y-219606762D01*
X260294476Y-219559143D01*
X260342095Y-219463905D01*
X260389714Y-219273429D01*
X260389714Y-219035333D01*
X260342095Y-218844857D01*
X260294476Y-218749619D01*
X260246857Y-218702000D01*
X260151619Y-218654381D01*
X258865904Y-219654381D02*
X259437333Y-219654381D01*
X259151619Y-219654381D02*
X259151619Y-218654381D01*
X259246857Y-218797238D01*
X259342095Y-218892476D01*
X259437333Y-218940095D01*
X261723047Y-214218781D02*
X262056381Y-213742590D01*
X262294476Y-214218781D02*
X262294476Y-213218781D01*
X261913523Y-213218781D01*
X261818285Y-213266400D01*
X261770666Y-213314019D01*
X261723047Y-213409257D01*
X261723047Y-213552114D01*
X261770666Y-213647352D01*
X261818285Y-213694971D01*
X261913523Y-213742590D01*
X262294476Y-213742590D01*
X261342095Y-213314019D02*
X261294476Y-213266400D01*
X261199238Y-213218781D01*
X260961142Y-213218781D01*
X260865904Y-213266400D01*
X260818285Y-213314019D01*
X260770666Y-213409257D01*
X260770666Y-213504495D01*
X260818285Y-213647352D01*
X261389714Y-214218781D01*
X260770666Y-214218781D01*
X260151619Y-213218781D02*
X260056380Y-213218781D01*
X259961142Y-213266400D01*
X259913523Y-213314019D01*
X259865904Y-213409257D01*
X259818285Y-213599733D01*
X259818285Y-213837829D01*
X259865904Y-214028305D01*
X259913523Y-214123543D01*
X259961142Y-214171162D01*
X260056380Y-214218781D01*
X260151619Y-214218781D01*
X260246857Y-214171162D01*
X260294476Y-214123543D01*
X260342095Y-214028305D01*
X260389714Y-213837829D01*
X260389714Y-213599733D01*
X260342095Y-213409257D01*
X260294476Y-213314019D01*
X260246857Y-213266400D01*
X260151619Y-213218781D01*
X259437333Y-213314019D02*
X259389714Y-213266400D01*
X259294476Y-213218781D01*
X259056380Y-213218781D01*
X258961142Y-213266400D01*
X258913523Y-213314019D01*
X258865904Y-213409257D01*
X258865904Y-213504495D01*
X258913523Y-213647352D01*
X259484952Y-214218781D01*
X258865904Y-214218781D01*
X237847047Y-204820781D02*
X238180381Y-204344590D01*
X238418476Y-204820781D02*
X238418476Y-203820781D01*
X238037523Y-203820781D01*
X237942285Y-203868400D01*
X237894666Y-203916019D01*
X237847047Y-204011257D01*
X237847047Y-204154114D01*
X237894666Y-204249352D01*
X237942285Y-204296971D01*
X238037523Y-204344590D01*
X238418476Y-204344590D01*
X237466095Y-203916019D02*
X237418476Y-203868400D01*
X237323238Y-203820781D01*
X237085142Y-203820781D01*
X236989904Y-203868400D01*
X236942285Y-203916019D01*
X236894666Y-204011257D01*
X236894666Y-204106495D01*
X236942285Y-204249352D01*
X237513714Y-204820781D01*
X236894666Y-204820781D01*
X236275619Y-203820781D02*
X236180380Y-203820781D01*
X236085142Y-203868400D01*
X236037523Y-203916019D01*
X235989904Y-204011257D01*
X235942285Y-204201733D01*
X235942285Y-204439829D01*
X235989904Y-204630305D01*
X236037523Y-204725543D01*
X236085142Y-204773162D01*
X236180380Y-204820781D01*
X236275619Y-204820781D01*
X236370857Y-204773162D01*
X236418476Y-204725543D01*
X236466095Y-204630305D01*
X236513714Y-204439829D01*
X236513714Y-204201733D01*
X236466095Y-204011257D01*
X236418476Y-203916019D01*
X236370857Y-203868400D01*
X236275619Y-203820781D01*
X235085142Y-203820781D02*
X235275619Y-203820781D01*
X235370857Y-203868400D01*
X235418476Y-203916019D01*
X235513714Y-204058876D01*
X235561333Y-204249352D01*
X235561333Y-204630305D01*
X235513714Y-204725543D01*
X235466095Y-204773162D01*
X235370857Y-204820781D01*
X235180380Y-204820781D01*
X235085142Y-204773162D01*
X235037523Y-204725543D01*
X234989904Y-204630305D01*
X234989904Y-204392210D01*
X235037523Y-204296971D01*
X235085142Y-204249352D01*
X235180380Y-204201733D01*
X235370857Y-204201733D01*
X235466095Y-204249352D01*
X235513714Y-204296971D01*
X235561333Y-204392210D01*
X332131847Y-180233581D02*
X332465181Y-179757390D01*
X332703276Y-180233581D02*
X332703276Y-179233581D01*
X332322323Y-179233581D01*
X332227085Y-179281200D01*
X332179466Y-179328819D01*
X332131847Y-179424057D01*
X332131847Y-179566914D01*
X332179466Y-179662152D01*
X332227085Y-179709771D01*
X332322323Y-179757390D01*
X332703276Y-179757390D01*
X331750895Y-179328819D02*
X331703276Y-179281200D01*
X331608038Y-179233581D01*
X331369942Y-179233581D01*
X331274704Y-179281200D01*
X331227085Y-179328819D01*
X331179466Y-179424057D01*
X331179466Y-179519295D01*
X331227085Y-179662152D01*
X331798514Y-180233581D01*
X331179466Y-180233581D01*
X330560419Y-179233581D02*
X330465180Y-179233581D01*
X330369942Y-179281200D01*
X330322323Y-179328819D01*
X330274704Y-179424057D01*
X330227085Y-179614533D01*
X330227085Y-179852629D01*
X330274704Y-180043105D01*
X330322323Y-180138343D01*
X330369942Y-180185962D01*
X330465180Y-180233581D01*
X330560419Y-180233581D01*
X330655657Y-180185962D01*
X330703276Y-180138343D01*
X330750895Y-180043105D01*
X330798514Y-179852629D01*
X330798514Y-179614533D01*
X330750895Y-179424057D01*
X330703276Y-179328819D01*
X330655657Y-179281200D01*
X330560419Y-179233581D01*
X329893752Y-179233581D02*
X329227085Y-179233581D01*
X329655657Y-180233581D01*
X332131847Y-182265581D02*
X332465181Y-181789390D01*
X332703276Y-182265581D02*
X332703276Y-181265581D01*
X332322323Y-181265581D01*
X332227085Y-181313200D01*
X332179466Y-181360819D01*
X332131847Y-181456057D01*
X332131847Y-181598914D01*
X332179466Y-181694152D01*
X332227085Y-181741771D01*
X332322323Y-181789390D01*
X332703276Y-181789390D01*
X331750895Y-181360819D02*
X331703276Y-181313200D01*
X331608038Y-181265581D01*
X331369942Y-181265581D01*
X331274704Y-181313200D01*
X331227085Y-181360819D01*
X331179466Y-181456057D01*
X331179466Y-181551295D01*
X331227085Y-181694152D01*
X331798514Y-182265581D01*
X331179466Y-182265581D01*
X330227085Y-182265581D02*
X330798514Y-182265581D01*
X330512800Y-182265581D02*
X330512800Y-181265581D01*
X330608038Y-181408438D01*
X330703276Y-181503676D01*
X330798514Y-181551295D01*
X329274704Y-182265581D02*
X329846133Y-182265581D01*
X329560419Y-182265581D02*
X329560419Y-181265581D01*
X329655657Y-181408438D01*
X329750895Y-181503676D01*
X329846133Y-181551295D01*
X275591447Y-178709581D02*
X275924781Y-178233390D01*
X276162876Y-178709581D02*
X276162876Y-177709581D01*
X275781923Y-177709581D01*
X275686685Y-177757200D01*
X275639066Y-177804819D01*
X275591447Y-177900057D01*
X275591447Y-178042914D01*
X275639066Y-178138152D01*
X275686685Y-178185771D01*
X275781923Y-178233390D01*
X276162876Y-178233390D01*
X274686685Y-177709581D02*
X275162876Y-177709581D01*
X275210495Y-178185771D01*
X275162876Y-178138152D01*
X275067638Y-178090533D01*
X274829542Y-178090533D01*
X274734304Y-178138152D01*
X274686685Y-178185771D01*
X274639066Y-178281010D01*
X274639066Y-178519105D01*
X274686685Y-178614343D01*
X274734304Y-178661962D01*
X274829542Y-178709581D01*
X275067638Y-178709581D01*
X275162876Y-178661962D01*
X275210495Y-178614343D01*
X274020019Y-177709581D02*
X273924780Y-177709581D01*
X273829542Y-177757200D01*
X273781923Y-177804819D01*
X273734304Y-177900057D01*
X273686685Y-178090533D01*
X273686685Y-178328629D01*
X273734304Y-178519105D01*
X273781923Y-178614343D01*
X273829542Y-178661962D01*
X273924780Y-178709581D01*
X274020019Y-178709581D01*
X274115257Y-178661962D01*
X274162876Y-178614343D01*
X274210495Y-178519105D01*
X274258114Y-178328629D01*
X274258114Y-178090533D01*
X274210495Y-177900057D01*
X274162876Y-177804819D01*
X274115257Y-177757200D01*
X274020019Y-177709581D01*
X273305733Y-177804819D02*
X273258114Y-177757200D01*
X273162876Y-177709581D01*
X272924780Y-177709581D01*
X272829542Y-177757200D01*
X272781923Y-177804819D01*
X272734304Y-177900057D01*
X272734304Y-177995295D01*
X272781923Y-178138152D01*
X273353352Y-178709581D01*
X272734304Y-178709581D01*
X247245047Y-178811181D02*
X247578381Y-178334990D01*
X247816476Y-178811181D02*
X247816476Y-177811181D01*
X247435523Y-177811181D01*
X247340285Y-177858800D01*
X247292666Y-177906419D01*
X247245047Y-178001657D01*
X247245047Y-178144514D01*
X247292666Y-178239752D01*
X247340285Y-178287371D01*
X247435523Y-178334990D01*
X247816476Y-178334990D01*
X246340285Y-177811181D02*
X246816476Y-177811181D01*
X246864095Y-178287371D01*
X246816476Y-178239752D01*
X246721238Y-178192133D01*
X246483142Y-178192133D01*
X246387904Y-178239752D01*
X246340285Y-178287371D01*
X246292666Y-178382610D01*
X246292666Y-178620705D01*
X246340285Y-178715943D01*
X246387904Y-178763562D01*
X246483142Y-178811181D01*
X246721238Y-178811181D01*
X246816476Y-178763562D01*
X246864095Y-178715943D01*
X245673619Y-177811181D02*
X245578380Y-177811181D01*
X245483142Y-177858800D01*
X245435523Y-177906419D01*
X245387904Y-178001657D01*
X245340285Y-178192133D01*
X245340285Y-178430229D01*
X245387904Y-178620705D01*
X245435523Y-178715943D01*
X245483142Y-178763562D01*
X245578380Y-178811181D01*
X245673619Y-178811181D01*
X245768857Y-178763562D01*
X245816476Y-178715943D01*
X245864095Y-178620705D01*
X245911714Y-178430229D01*
X245911714Y-178192133D01*
X245864095Y-178001657D01*
X245816476Y-177906419D01*
X245768857Y-177858800D01*
X245673619Y-177811181D01*
X245006952Y-177811181D02*
X244387904Y-177811181D01*
X244721238Y-178192133D01*
X244578380Y-178192133D01*
X244483142Y-178239752D01*
X244435523Y-178287371D01*
X244387904Y-178382610D01*
X244387904Y-178620705D01*
X244435523Y-178715943D01*
X244483142Y-178763562D01*
X244578380Y-178811181D01*
X244864095Y-178811181D01*
X244959333Y-178763562D01*
X245006952Y-178715943D01*
X306369981Y-190650953D02*
X305893790Y-190317619D01*
X306369981Y-190079524D02*
X305369981Y-190079524D01*
X305369981Y-190460477D01*
X305417600Y-190555715D01*
X305465219Y-190603334D01*
X305560457Y-190650953D01*
X305703314Y-190650953D01*
X305798552Y-190603334D01*
X305846171Y-190555715D01*
X305893790Y-190460477D01*
X305893790Y-190079524D01*
X305369981Y-191555715D02*
X305369981Y-191079524D01*
X305846171Y-191031905D01*
X305798552Y-191079524D01*
X305750933Y-191174762D01*
X305750933Y-191412858D01*
X305798552Y-191508096D01*
X305846171Y-191555715D01*
X305941410Y-191603334D01*
X306179505Y-191603334D01*
X306274743Y-191555715D01*
X306322362Y-191508096D01*
X306369981Y-191412858D01*
X306369981Y-191174762D01*
X306322362Y-191079524D01*
X306274743Y-191031905D01*
X305369981Y-192222381D02*
X305369981Y-192317620D01*
X305417600Y-192412858D01*
X305465219Y-192460477D01*
X305560457Y-192508096D01*
X305750933Y-192555715D01*
X305989029Y-192555715D01*
X306179505Y-192508096D01*
X306274743Y-192460477D01*
X306322362Y-192412858D01*
X306369981Y-192317620D01*
X306369981Y-192222381D01*
X306322362Y-192127143D01*
X306274743Y-192079524D01*
X306179505Y-192031905D01*
X305989029Y-191984286D01*
X305750933Y-191984286D01*
X305560457Y-192031905D01*
X305465219Y-192079524D01*
X305417600Y-192127143D01*
X305369981Y-192222381D01*
X305369981Y-192889048D02*
X305369981Y-193555715D01*
X306369981Y-193127143D01*
X308459047Y-183027581D02*
X308792381Y-182551390D01*
X309030476Y-183027581D02*
X309030476Y-182027581D01*
X308649523Y-182027581D01*
X308554285Y-182075200D01*
X308506666Y-182122819D01*
X308459047Y-182218057D01*
X308459047Y-182360914D01*
X308506666Y-182456152D01*
X308554285Y-182503771D01*
X308649523Y-182551390D01*
X309030476Y-182551390D01*
X307554285Y-182027581D02*
X308030476Y-182027581D01*
X308078095Y-182503771D01*
X308030476Y-182456152D01*
X307935238Y-182408533D01*
X307697142Y-182408533D01*
X307601904Y-182456152D01*
X307554285Y-182503771D01*
X307506666Y-182599010D01*
X307506666Y-182837105D01*
X307554285Y-182932343D01*
X307601904Y-182979962D01*
X307697142Y-183027581D01*
X307935238Y-183027581D01*
X308030476Y-182979962D01*
X308078095Y-182932343D01*
X306887619Y-182027581D02*
X306792380Y-182027581D01*
X306697142Y-182075200D01*
X306649523Y-182122819D01*
X306601904Y-182218057D01*
X306554285Y-182408533D01*
X306554285Y-182646629D01*
X306601904Y-182837105D01*
X306649523Y-182932343D01*
X306697142Y-182979962D01*
X306792380Y-183027581D01*
X306887619Y-183027581D01*
X306982857Y-182979962D01*
X307030476Y-182932343D01*
X307078095Y-182837105D01*
X307125714Y-182646629D01*
X307125714Y-182408533D01*
X307078095Y-182218057D01*
X307030476Y-182122819D01*
X306982857Y-182075200D01*
X306887619Y-182027581D01*
X305982857Y-182456152D02*
X306078095Y-182408533D01*
X306125714Y-182360914D01*
X306173333Y-182265676D01*
X306173333Y-182218057D01*
X306125714Y-182122819D01*
X306078095Y-182075200D01*
X305982857Y-182027581D01*
X305792380Y-182027581D01*
X305697142Y-182075200D01*
X305649523Y-182122819D01*
X305601904Y-182218057D01*
X305601904Y-182265676D01*
X305649523Y-182360914D01*
X305697142Y-182408533D01*
X305792380Y-182456152D01*
X305982857Y-182456152D01*
X306078095Y-182503771D01*
X306125714Y-182551390D01*
X306173333Y-182646629D01*
X306173333Y-182837105D01*
X306125714Y-182932343D01*
X306078095Y-182979962D01*
X305982857Y-183027581D01*
X305792380Y-183027581D01*
X305697142Y-182979962D01*
X305649523Y-182932343D01*
X305601904Y-182837105D01*
X305601904Y-182646629D01*
X305649523Y-182551390D01*
X305697142Y-182503771D01*
X305792380Y-182456152D01*
X277972781Y-190650953D02*
X277496590Y-190317619D01*
X277972781Y-190079524D02*
X276972781Y-190079524D01*
X276972781Y-190460477D01*
X277020400Y-190555715D01*
X277068019Y-190603334D01*
X277163257Y-190650953D01*
X277306114Y-190650953D01*
X277401352Y-190603334D01*
X277448971Y-190555715D01*
X277496590Y-190460477D01*
X277496590Y-190079524D01*
X276972781Y-191555715D02*
X276972781Y-191079524D01*
X277448971Y-191031905D01*
X277401352Y-191079524D01*
X277353733Y-191174762D01*
X277353733Y-191412858D01*
X277401352Y-191508096D01*
X277448971Y-191555715D01*
X277544210Y-191603334D01*
X277782305Y-191603334D01*
X277877543Y-191555715D01*
X277925162Y-191508096D01*
X277972781Y-191412858D01*
X277972781Y-191174762D01*
X277925162Y-191079524D01*
X277877543Y-191031905D01*
X276972781Y-192222381D02*
X276972781Y-192317620D01*
X277020400Y-192412858D01*
X277068019Y-192460477D01*
X277163257Y-192508096D01*
X277353733Y-192555715D01*
X277591829Y-192555715D01*
X277782305Y-192508096D01*
X277877543Y-192460477D01*
X277925162Y-192412858D01*
X277972781Y-192317620D01*
X277972781Y-192222381D01*
X277925162Y-192127143D01*
X277877543Y-192079524D01*
X277782305Y-192031905D01*
X277591829Y-191984286D01*
X277353733Y-191984286D01*
X277163257Y-192031905D01*
X277068019Y-192079524D01*
X277020400Y-192127143D01*
X276972781Y-192222381D01*
X277972781Y-193031905D02*
X277972781Y-193222381D01*
X277925162Y-193317620D01*
X277877543Y-193365239D01*
X277734686Y-193460477D01*
X277544210Y-193508096D01*
X277163257Y-193508096D01*
X277068019Y-193460477D01*
X277020400Y-193412858D01*
X276972781Y-193317620D01*
X276972781Y-193127143D01*
X277020400Y-193031905D01*
X277068019Y-192984286D01*
X277163257Y-192936667D01*
X277401352Y-192936667D01*
X277496590Y-192984286D01*
X277544210Y-193031905D01*
X277591829Y-193127143D01*
X277591829Y-193317620D01*
X277544210Y-193412858D01*
X277496590Y-193460477D01*
X277401352Y-193508096D01*
X280011047Y-182925981D02*
X280344381Y-182449790D01*
X280582476Y-182925981D02*
X280582476Y-181925981D01*
X280201523Y-181925981D01*
X280106285Y-181973600D01*
X280058666Y-182021219D01*
X280011047Y-182116457D01*
X280011047Y-182259314D01*
X280058666Y-182354552D01*
X280106285Y-182402171D01*
X280201523Y-182449790D01*
X280582476Y-182449790D01*
X279106285Y-181925981D02*
X279582476Y-181925981D01*
X279630095Y-182402171D01*
X279582476Y-182354552D01*
X279487238Y-182306933D01*
X279249142Y-182306933D01*
X279153904Y-182354552D01*
X279106285Y-182402171D01*
X279058666Y-182497410D01*
X279058666Y-182735505D01*
X279106285Y-182830743D01*
X279153904Y-182878362D01*
X279249142Y-182925981D01*
X279487238Y-182925981D01*
X279582476Y-182878362D01*
X279630095Y-182830743D01*
X278106285Y-182925981D02*
X278677714Y-182925981D01*
X278392000Y-182925981D02*
X278392000Y-181925981D01*
X278487238Y-182068838D01*
X278582476Y-182164076D01*
X278677714Y-182211695D01*
X277487238Y-181925981D02*
X277391999Y-181925981D01*
X277296761Y-181973600D01*
X277249142Y-182021219D01*
X277201523Y-182116457D01*
X277153904Y-182306933D01*
X277153904Y-182545029D01*
X277201523Y-182735505D01*
X277249142Y-182830743D01*
X277296761Y-182878362D01*
X277391999Y-182925981D01*
X277487238Y-182925981D01*
X277582476Y-182878362D01*
X277630095Y-182830743D01*
X277677714Y-182735505D01*
X277725333Y-182545029D01*
X277725333Y-182306933D01*
X277677714Y-182116457D01*
X277630095Y-182021219D01*
X277582476Y-181973600D01*
X277487238Y-181925981D01*
X249524781Y-190701753D02*
X249048590Y-190368419D01*
X249524781Y-190130324D02*
X248524781Y-190130324D01*
X248524781Y-190511277D01*
X248572400Y-190606515D01*
X248620019Y-190654134D01*
X248715257Y-190701753D01*
X248858114Y-190701753D01*
X248953352Y-190654134D01*
X249000971Y-190606515D01*
X249048590Y-190511277D01*
X249048590Y-190130324D01*
X248524781Y-191606515D02*
X248524781Y-191130324D01*
X249000971Y-191082705D01*
X248953352Y-191130324D01*
X248905733Y-191225562D01*
X248905733Y-191463658D01*
X248953352Y-191558896D01*
X249000971Y-191606515D01*
X249096210Y-191654134D01*
X249334305Y-191654134D01*
X249429543Y-191606515D01*
X249477162Y-191558896D01*
X249524781Y-191463658D01*
X249524781Y-191225562D01*
X249477162Y-191130324D01*
X249429543Y-191082705D01*
X249524781Y-192606515D02*
X249524781Y-192035086D01*
X249524781Y-192320800D02*
X248524781Y-192320800D01*
X248667638Y-192225562D01*
X248762876Y-192130324D01*
X248810495Y-192035086D01*
X249524781Y-193558896D02*
X249524781Y-192987467D01*
X249524781Y-193273181D02*
X248524781Y-193273181D01*
X248667638Y-193177943D01*
X248762876Y-193082705D01*
X248810495Y-192987467D01*
X237720047Y-217419181D02*
X238053381Y-216942990D01*
X238291476Y-217419181D02*
X238291476Y-216419181D01*
X237910523Y-216419181D01*
X237815285Y-216466800D01*
X237767666Y-216514419D01*
X237720047Y-216609657D01*
X237720047Y-216752514D01*
X237767666Y-216847752D01*
X237815285Y-216895371D01*
X237910523Y-216942990D01*
X238291476Y-216942990D01*
X236862904Y-216419181D02*
X237053381Y-216419181D01*
X237148619Y-216466800D01*
X237196238Y-216514419D01*
X237291476Y-216657276D01*
X237339095Y-216847752D01*
X237339095Y-217228705D01*
X237291476Y-217323943D01*
X237243857Y-217371562D01*
X237148619Y-217419181D01*
X236958142Y-217419181D01*
X236862904Y-217371562D01*
X236815285Y-217323943D01*
X236767666Y-217228705D01*
X236767666Y-216990610D01*
X236815285Y-216895371D01*
X236862904Y-216847752D01*
X236958142Y-216800133D01*
X237148619Y-216800133D01*
X237243857Y-216847752D01*
X237291476Y-216895371D01*
X237339095Y-216990610D01*
X236148619Y-216419181D02*
X236053380Y-216419181D01*
X235958142Y-216466800D01*
X235910523Y-216514419D01*
X235862904Y-216609657D01*
X235815285Y-216800133D01*
X235815285Y-217038229D01*
X235862904Y-217228705D01*
X235910523Y-217323943D01*
X235958142Y-217371562D01*
X236053380Y-217419181D01*
X236148619Y-217419181D01*
X236243857Y-217371562D01*
X236291476Y-217323943D01*
X236339095Y-217228705D01*
X236386714Y-217038229D01*
X236386714Y-216800133D01*
X236339095Y-216609657D01*
X236291476Y-216514419D01*
X236243857Y-216466800D01*
X236148619Y-216419181D01*
X234862904Y-217419181D02*
X235434333Y-217419181D01*
X235148619Y-217419181D02*
X235148619Y-216419181D01*
X235243857Y-216562038D01*
X235339095Y-216657276D01*
X235434333Y-216704895D01*
X234799047Y-211907381D02*
X235132381Y-211431190D01*
X235370476Y-211907381D02*
X235370476Y-210907381D01*
X234989523Y-210907381D01*
X234894285Y-210955000D01*
X234846666Y-211002619D01*
X234799047Y-211097857D01*
X234799047Y-211240714D01*
X234846666Y-211335952D01*
X234894285Y-211383571D01*
X234989523Y-211431190D01*
X235370476Y-211431190D01*
X233941904Y-210907381D02*
X234132381Y-210907381D01*
X234227619Y-210955000D01*
X234275238Y-211002619D01*
X234370476Y-211145476D01*
X234418095Y-211335952D01*
X234418095Y-211716905D01*
X234370476Y-211812143D01*
X234322857Y-211859762D01*
X234227619Y-211907381D01*
X234037142Y-211907381D01*
X233941904Y-211859762D01*
X233894285Y-211812143D01*
X233846666Y-211716905D01*
X233846666Y-211478810D01*
X233894285Y-211383571D01*
X233941904Y-211335952D01*
X234037142Y-211288333D01*
X234227619Y-211288333D01*
X234322857Y-211335952D01*
X234370476Y-211383571D01*
X234418095Y-211478810D01*
X233227619Y-210907381D02*
X233132380Y-210907381D01*
X233037142Y-210955000D01*
X232989523Y-211002619D01*
X232941904Y-211097857D01*
X232894285Y-211288333D01*
X232894285Y-211526429D01*
X232941904Y-211716905D01*
X232989523Y-211812143D01*
X233037142Y-211859762D01*
X233132380Y-211907381D01*
X233227619Y-211907381D01*
X233322857Y-211859762D01*
X233370476Y-211812143D01*
X233418095Y-211716905D01*
X233465714Y-211526429D01*
X233465714Y-211288333D01*
X233418095Y-211097857D01*
X233370476Y-211002619D01*
X233322857Y-210955000D01*
X233227619Y-210907381D01*
X232513333Y-211002619D02*
X232465714Y-210955000D01*
X232370476Y-210907381D01*
X232132380Y-210907381D01*
X232037142Y-210955000D01*
X231989523Y-211002619D01*
X231941904Y-211097857D01*
X231941904Y-211193095D01*
X231989523Y-211335952D01*
X232560952Y-211907381D01*
X231941904Y-211907381D01*
X279598381Y-210970953D02*
X279122190Y-210637619D01*
X279598381Y-210399524D02*
X278598381Y-210399524D01*
X278598381Y-210780477D01*
X278646000Y-210875715D01*
X278693619Y-210923334D01*
X278788857Y-210970953D01*
X278931714Y-210970953D01*
X279026952Y-210923334D01*
X279074571Y-210875715D01*
X279122190Y-210780477D01*
X279122190Y-210399524D01*
X278598381Y-211828096D02*
X278598381Y-211637619D01*
X278646000Y-211542381D01*
X278693619Y-211494762D01*
X278836476Y-211399524D01*
X279026952Y-211351905D01*
X279407905Y-211351905D01*
X279503143Y-211399524D01*
X279550762Y-211447143D01*
X279598381Y-211542381D01*
X279598381Y-211732858D01*
X279550762Y-211828096D01*
X279503143Y-211875715D01*
X279407905Y-211923334D01*
X279169810Y-211923334D01*
X279074571Y-211875715D01*
X279026952Y-211828096D01*
X278979333Y-211732858D01*
X278979333Y-211542381D01*
X279026952Y-211447143D01*
X279074571Y-211399524D01*
X279169810Y-211351905D01*
X278598381Y-212542381D02*
X278598381Y-212637620D01*
X278646000Y-212732858D01*
X278693619Y-212780477D01*
X278788857Y-212828096D01*
X278979333Y-212875715D01*
X279217429Y-212875715D01*
X279407905Y-212828096D01*
X279503143Y-212780477D01*
X279550762Y-212732858D01*
X279598381Y-212637620D01*
X279598381Y-212542381D01*
X279550762Y-212447143D01*
X279503143Y-212399524D01*
X279407905Y-212351905D01*
X279217429Y-212304286D01*
X278979333Y-212304286D01*
X278788857Y-212351905D01*
X278693619Y-212399524D01*
X278646000Y-212447143D01*
X278598381Y-212542381D01*
X278598381Y-213209048D02*
X278598381Y-213828096D01*
X278979333Y-213494762D01*
X278979333Y-213637620D01*
X279026952Y-213732858D01*
X279074571Y-213780477D01*
X279169810Y-213828096D01*
X279407905Y-213828096D01*
X279503143Y-213780477D01*
X279550762Y-213732858D01*
X279598381Y-213637620D01*
X279598381Y-213351905D01*
X279550762Y-213256667D01*
X279503143Y-213209048D01*
X274010381Y-210970953D02*
X273534190Y-210637619D01*
X274010381Y-210399524D02*
X273010381Y-210399524D01*
X273010381Y-210780477D01*
X273058000Y-210875715D01*
X273105619Y-210923334D01*
X273200857Y-210970953D01*
X273343714Y-210970953D01*
X273438952Y-210923334D01*
X273486571Y-210875715D01*
X273534190Y-210780477D01*
X273534190Y-210399524D01*
X273010381Y-211828096D02*
X273010381Y-211637619D01*
X273058000Y-211542381D01*
X273105619Y-211494762D01*
X273248476Y-211399524D01*
X273438952Y-211351905D01*
X273819905Y-211351905D01*
X273915143Y-211399524D01*
X273962762Y-211447143D01*
X274010381Y-211542381D01*
X274010381Y-211732858D01*
X273962762Y-211828096D01*
X273915143Y-211875715D01*
X273819905Y-211923334D01*
X273581810Y-211923334D01*
X273486571Y-211875715D01*
X273438952Y-211828096D01*
X273391333Y-211732858D01*
X273391333Y-211542381D01*
X273438952Y-211447143D01*
X273486571Y-211399524D01*
X273581810Y-211351905D01*
X273010381Y-212542381D02*
X273010381Y-212637620D01*
X273058000Y-212732858D01*
X273105619Y-212780477D01*
X273200857Y-212828096D01*
X273391333Y-212875715D01*
X273629429Y-212875715D01*
X273819905Y-212828096D01*
X273915143Y-212780477D01*
X273962762Y-212732858D01*
X274010381Y-212637620D01*
X274010381Y-212542381D01*
X273962762Y-212447143D01*
X273915143Y-212399524D01*
X273819905Y-212351905D01*
X273629429Y-212304286D01*
X273391333Y-212304286D01*
X273200857Y-212351905D01*
X273105619Y-212399524D01*
X273058000Y-212447143D01*
X273010381Y-212542381D01*
X273343714Y-213732858D02*
X274010381Y-213732858D01*
X272962762Y-213494762D02*
X273677048Y-213256667D01*
X273677048Y-213875715D01*
X365202647Y-195270381D02*
X365535981Y-194794190D01*
X365774076Y-195270381D02*
X365774076Y-194270381D01*
X365393123Y-194270381D01*
X365297885Y-194318000D01*
X365250266Y-194365619D01*
X365202647Y-194460857D01*
X365202647Y-194603714D01*
X365250266Y-194698952D01*
X365297885Y-194746571D01*
X365393123Y-194794190D01*
X365774076Y-194794190D01*
X364345504Y-194270381D02*
X364535981Y-194270381D01*
X364631219Y-194318000D01*
X364678838Y-194365619D01*
X364774076Y-194508476D01*
X364821695Y-194698952D01*
X364821695Y-195079905D01*
X364774076Y-195175143D01*
X364726457Y-195222762D01*
X364631219Y-195270381D01*
X364440742Y-195270381D01*
X364345504Y-195222762D01*
X364297885Y-195175143D01*
X364250266Y-195079905D01*
X364250266Y-194841810D01*
X364297885Y-194746571D01*
X364345504Y-194698952D01*
X364440742Y-194651333D01*
X364631219Y-194651333D01*
X364726457Y-194698952D01*
X364774076Y-194746571D01*
X364821695Y-194841810D01*
X363631219Y-194270381D02*
X363535980Y-194270381D01*
X363440742Y-194318000D01*
X363393123Y-194365619D01*
X363345504Y-194460857D01*
X363297885Y-194651333D01*
X363297885Y-194889429D01*
X363345504Y-195079905D01*
X363393123Y-195175143D01*
X363440742Y-195222762D01*
X363535980Y-195270381D01*
X363631219Y-195270381D01*
X363726457Y-195222762D01*
X363774076Y-195175143D01*
X363821695Y-195079905D01*
X363869314Y-194889429D01*
X363869314Y-194651333D01*
X363821695Y-194460857D01*
X363774076Y-194365619D01*
X363726457Y-194318000D01*
X363631219Y-194270381D01*
X362393123Y-194270381D02*
X362869314Y-194270381D01*
X362916933Y-194746571D01*
X362869314Y-194698952D01*
X362774076Y-194651333D01*
X362535980Y-194651333D01*
X362440742Y-194698952D01*
X362393123Y-194746571D01*
X362345504Y-194841810D01*
X362345504Y-195079905D01*
X362393123Y-195175143D01*
X362440742Y-195222762D01*
X362535980Y-195270381D01*
X362774076Y-195270381D01*
X362869314Y-195222762D01*
X362916933Y-195175143D01*
X365202647Y-197505581D02*
X365535981Y-197029390D01*
X365774076Y-197505581D02*
X365774076Y-196505581D01*
X365393123Y-196505581D01*
X365297885Y-196553200D01*
X365250266Y-196600819D01*
X365202647Y-196696057D01*
X365202647Y-196838914D01*
X365250266Y-196934152D01*
X365297885Y-196981771D01*
X365393123Y-197029390D01*
X365774076Y-197029390D01*
X364345504Y-196505581D02*
X364535981Y-196505581D01*
X364631219Y-196553200D01*
X364678838Y-196600819D01*
X364774076Y-196743676D01*
X364821695Y-196934152D01*
X364821695Y-197315105D01*
X364774076Y-197410343D01*
X364726457Y-197457962D01*
X364631219Y-197505581D01*
X364440742Y-197505581D01*
X364345504Y-197457962D01*
X364297885Y-197410343D01*
X364250266Y-197315105D01*
X364250266Y-197077010D01*
X364297885Y-196981771D01*
X364345504Y-196934152D01*
X364440742Y-196886533D01*
X364631219Y-196886533D01*
X364726457Y-196934152D01*
X364774076Y-196981771D01*
X364821695Y-197077010D01*
X363631219Y-196505581D02*
X363535980Y-196505581D01*
X363440742Y-196553200D01*
X363393123Y-196600819D01*
X363345504Y-196696057D01*
X363297885Y-196886533D01*
X363297885Y-197124629D01*
X363345504Y-197315105D01*
X363393123Y-197410343D01*
X363440742Y-197457962D01*
X363535980Y-197505581D01*
X363631219Y-197505581D01*
X363726457Y-197457962D01*
X363774076Y-197410343D01*
X363821695Y-197315105D01*
X363869314Y-197124629D01*
X363869314Y-196886533D01*
X363821695Y-196696057D01*
X363774076Y-196600819D01*
X363726457Y-196553200D01*
X363631219Y-196505581D01*
X362440742Y-196505581D02*
X362631219Y-196505581D01*
X362726457Y-196553200D01*
X362774076Y-196600819D01*
X362869314Y-196743676D01*
X362916933Y-196934152D01*
X362916933Y-197315105D01*
X362869314Y-197410343D01*
X362821695Y-197457962D01*
X362726457Y-197505581D01*
X362535980Y-197505581D01*
X362440742Y-197457962D01*
X362393123Y-197410343D01*
X362345504Y-197315105D01*
X362345504Y-197077010D01*
X362393123Y-196981771D01*
X362440742Y-196934152D01*
X362535980Y-196886533D01*
X362726457Y-196886533D01*
X362821695Y-196934152D01*
X362869314Y-196981771D01*
X362916933Y-197077010D01*
X365253447Y-199639181D02*
X365586781Y-199162990D01*
X365824876Y-199639181D02*
X365824876Y-198639181D01*
X365443923Y-198639181D01*
X365348685Y-198686800D01*
X365301066Y-198734419D01*
X365253447Y-198829657D01*
X365253447Y-198972514D01*
X365301066Y-199067752D01*
X365348685Y-199115371D01*
X365443923Y-199162990D01*
X365824876Y-199162990D01*
X364396304Y-198639181D02*
X364586781Y-198639181D01*
X364682019Y-198686800D01*
X364729638Y-198734419D01*
X364824876Y-198877276D01*
X364872495Y-199067752D01*
X364872495Y-199448705D01*
X364824876Y-199543943D01*
X364777257Y-199591562D01*
X364682019Y-199639181D01*
X364491542Y-199639181D01*
X364396304Y-199591562D01*
X364348685Y-199543943D01*
X364301066Y-199448705D01*
X364301066Y-199210610D01*
X364348685Y-199115371D01*
X364396304Y-199067752D01*
X364491542Y-199020133D01*
X364682019Y-199020133D01*
X364777257Y-199067752D01*
X364824876Y-199115371D01*
X364872495Y-199210610D01*
X363682019Y-198639181D02*
X363586780Y-198639181D01*
X363491542Y-198686800D01*
X363443923Y-198734419D01*
X363396304Y-198829657D01*
X363348685Y-199020133D01*
X363348685Y-199258229D01*
X363396304Y-199448705D01*
X363443923Y-199543943D01*
X363491542Y-199591562D01*
X363586780Y-199639181D01*
X363682019Y-199639181D01*
X363777257Y-199591562D01*
X363824876Y-199543943D01*
X363872495Y-199448705D01*
X363920114Y-199258229D01*
X363920114Y-199020133D01*
X363872495Y-198829657D01*
X363824876Y-198734419D01*
X363777257Y-198686800D01*
X363682019Y-198639181D01*
X363015352Y-198639181D02*
X362348685Y-198639181D01*
X362777257Y-199639181D01*
X365202647Y-201772781D02*
X365535981Y-201296590D01*
X365774076Y-201772781D02*
X365774076Y-200772781D01*
X365393123Y-200772781D01*
X365297885Y-200820400D01*
X365250266Y-200868019D01*
X365202647Y-200963257D01*
X365202647Y-201106114D01*
X365250266Y-201201352D01*
X365297885Y-201248971D01*
X365393123Y-201296590D01*
X365774076Y-201296590D01*
X364345504Y-200772781D02*
X364535981Y-200772781D01*
X364631219Y-200820400D01*
X364678838Y-200868019D01*
X364774076Y-201010876D01*
X364821695Y-201201352D01*
X364821695Y-201582305D01*
X364774076Y-201677543D01*
X364726457Y-201725162D01*
X364631219Y-201772781D01*
X364440742Y-201772781D01*
X364345504Y-201725162D01*
X364297885Y-201677543D01*
X364250266Y-201582305D01*
X364250266Y-201344210D01*
X364297885Y-201248971D01*
X364345504Y-201201352D01*
X364440742Y-201153733D01*
X364631219Y-201153733D01*
X364726457Y-201201352D01*
X364774076Y-201248971D01*
X364821695Y-201344210D01*
X363631219Y-200772781D02*
X363535980Y-200772781D01*
X363440742Y-200820400D01*
X363393123Y-200868019D01*
X363345504Y-200963257D01*
X363297885Y-201153733D01*
X363297885Y-201391829D01*
X363345504Y-201582305D01*
X363393123Y-201677543D01*
X363440742Y-201725162D01*
X363535980Y-201772781D01*
X363631219Y-201772781D01*
X363726457Y-201725162D01*
X363774076Y-201677543D01*
X363821695Y-201582305D01*
X363869314Y-201391829D01*
X363869314Y-201153733D01*
X363821695Y-200963257D01*
X363774076Y-200868019D01*
X363726457Y-200820400D01*
X363631219Y-200772781D01*
X362726457Y-201201352D02*
X362821695Y-201153733D01*
X362869314Y-201106114D01*
X362916933Y-201010876D01*
X362916933Y-200963257D01*
X362869314Y-200868019D01*
X362821695Y-200820400D01*
X362726457Y-200772781D01*
X362535980Y-200772781D01*
X362440742Y-200820400D01*
X362393123Y-200868019D01*
X362345504Y-200963257D01*
X362345504Y-201010876D01*
X362393123Y-201106114D01*
X362440742Y-201153733D01*
X362535980Y-201201352D01*
X362726457Y-201201352D01*
X362821695Y-201248971D01*
X362869314Y-201296590D01*
X362916933Y-201391829D01*
X362916933Y-201582305D01*
X362869314Y-201677543D01*
X362821695Y-201725162D01*
X362726457Y-201772781D01*
X362535980Y-201772781D01*
X362440742Y-201725162D01*
X362393123Y-201677543D01*
X362345504Y-201582305D01*
X362345504Y-201391829D01*
X362393123Y-201296590D01*
X362440742Y-201248971D01*
X362535980Y-201201352D01*
X317556972Y-226290190D02*
X317556972Y-226766381D01*
X317890305Y-225766381D02*
X317556972Y-226290190D01*
X317223638Y-225766381D01*
X316937924Y-225861619D02*
X316890305Y-225814000D01*
X316795067Y-225766381D01*
X316556971Y-225766381D01*
X316461733Y-225814000D01*
X316414114Y-225861619D01*
X316366495Y-225956857D01*
X316366495Y-226052095D01*
X316414114Y-226194952D01*
X316985543Y-226766381D01*
X316366495Y-226766381D01*
X315747448Y-225766381D02*
X315652209Y-225766381D01*
X315556971Y-225814000D01*
X315509352Y-225861619D01*
X315461733Y-225956857D01*
X315414114Y-226147333D01*
X315414114Y-226385429D01*
X315461733Y-226575905D01*
X315509352Y-226671143D01*
X315556971Y-226718762D01*
X315652209Y-226766381D01*
X315747448Y-226766381D01*
X315842686Y-226718762D01*
X315890305Y-226671143D01*
X315937924Y-226575905D01*
X315985543Y-226385429D01*
X315985543Y-226147333D01*
X315937924Y-225956857D01*
X315890305Y-225861619D01*
X315842686Y-225814000D01*
X315747448Y-225766381D01*
X314461733Y-226766381D02*
X315033162Y-226766381D01*
X314747448Y-226766381D02*
X314747448Y-225766381D01*
X314842686Y-225909238D01*
X314937924Y-226004476D01*
X315033162Y-226052095D01*
X331928743Y-194460953D02*
X331976362Y-194413334D01*
X332023981Y-194270477D01*
X332023981Y-194175239D01*
X331976362Y-194032381D01*
X331881124Y-193937143D01*
X331785886Y-193889524D01*
X331595410Y-193841905D01*
X331452552Y-193841905D01*
X331262076Y-193889524D01*
X331166838Y-193937143D01*
X331071600Y-194032381D01*
X331023981Y-194175239D01*
X331023981Y-194270477D01*
X331071600Y-194413334D01*
X331119219Y-194460953D01*
X331119219Y-194841905D02*
X331071600Y-194889524D01*
X331023981Y-194984762D01*
X331023981Y-195222858D01*
X331071600Y-195318096D01*
X331119219Y-195365715D01*
X331214457Y-195413334D01*
X331309695Y-195413334D01*
X331452552Y-195365715D01*
X332023981Y-194794286D01*
X332023981Y-195413334D01*
X332023981Y-196365715D02*
X332023981Y-195794286D01*
X332023981Y-196080000D02*
X331023981Y-196080000D01*
X331166838Y-195984762D01*
X331262076Y-195889524D01*
X331309695Y-195794286D01*
X331023981Y-196699048D02*
X331023981Y-197365715D01*
X332023981Y-196937143D01*
X310383181Y-222654953D02*
X309906990Y-222321619D01*
X310383181Y-222083524D02*
X309383181Y-222083524D01*
X309383181Y-222464477D01*
X309430800Y-222559715D01*
X309478419Y-222607334D01*
X309573657Y-222654953D01*
X309716514Y-222654953D01*
X309811752Y-222607334D01*
X309859371Y-222559715D01*
X309906990Y-222464477D01*
X309906990Y-222083524D01*
X309478419Y-223035905D02*
X309430800Y-223083524D01*
X309383181Y-223178762D01*
X309383181Y-223416858D01*
X309430800Y-223512096D01*
X309478419Y-223559715D01*
X309573657Y-223607334D01*
X309668895Y-223607334D01*
X309811752Y-223559715D01*
X310383181Y-222988286D01*
X310383181Y-223607334D01*
X310383181Y-224559715D02*
X310383181Y-223988286D01*
X310383181Y-224274000D02*
X309383181Y-224274000D01*
X309526038Y-224178762D01*
X309621276Y-224083524D01*
X309668895Y-223988286D01*
X309383181Y-224893048D02*
X309383181Y-225512096D01*
X309764133Y-225178762D01*
X309764133Y-225321620D01*
X309811752Y-225416858D01*
X309859371Y-225464477D01*
X309954610Y-225512096D01*
X310192705Y-225512096D01*
X310287943Y-225464477D01*
X310335562Y-225416858D01*
X310383181Y-225321620D01*
X310383181Y-225035905D01*
X310335562Y-224940667D01*
X310287943Y-224893048D01*
X327037486Y-200772781D02*
X327037486Y-201582305D01*
X326989867Y-201677543D01*
X326942248Y-201725162D01*
X326847010Y-201772781D01*
X326656533Y-201772781D01*
X326561295Y-201725162D01*
X326513676Y-201677543D01*
X326466057Y-201582305D01*
X326466057Y-200772781D01*
X326037486Y-200868019D02*
X325989867Y-200820400D01*
X325894629Y-200772781D01*
X325656533Y-200772781D01*
X325561295Y-200820400D01*
X325513676Y-200868019D01*
X325466057Y-200963257D01*
X325466057Y-201058495D01*
X325513676Y-201201352D01*
X326085105Y-201772781D01*
X325466057Y-201772781D01*
X324847010Y-200772781D02*
X324751771Y-200772781D01*
X324656533Y-200820400D01*
X324608914Y-200868019D01*
X324561295Y-200963257D01*
X324513676Y-201153733D01*
X324513676Y-201391829D01*
X324561295Y-201582305D01*
X324608914Y-201677543D01*
X324656533Y-201725162D01*
X324751771Y-201772781D01*
X324847010Y-201772781D01*
X324942248Y-201725162D01*
X324989867Y-201677543D01*
X325037486Y-201582305D01*
X325085105Y-201391829D01*
X325085105Y-201153733D01*
X325037486Y-200963257D01*
X324989867Y-200868019D01*
X324942248Y-200820400D01*
X324847010Y-200772781D01*
X323656533Y-200772781D02*
X323847010Y-200772781D01*
X323942248Y-200820400D01*
X323989867Y-200868019D01*
X324085105Y-201010876D01*
X324132724Y-201201352D01*
X324132724Y-201582305D01*
X324085105Y-201677543D01*
X324037486Y-201725162D01*
X323942248Y-201772781D01*
X323751771Y-201772781D01*
X323656533Y-201725162D01*
X323608914Y-201677543D01*
X323561295Y-201582305D01*
X323561295Y-201344210D01*
X323608914Y-201248971D01*
X323656533Y-201201352D01*
X323751771Y-201153733D01*
X323942248Y-201153733D01*
X324037486Y-201201352D01*
X324085105Y-201248971D01*
X324132724Y-201344210D01*
X347635581Y-227241314D02*
X348445105Y-227241314D01*
X348540343Y-227288933D01*
X348587962Y-227336552D01*
X348635581Y-227431790D01*
X348635581Y-227622267D01*
X348587962Y-227717505D01*
X348540343Y-227765124D01*
X348445105Y-227812743D01*
X347635581Y-227812743D01*
X347635581Y-228193695D02*
X347635581Y-228812743D01*
X348016533Y-228479409D01*
X348016533Y-228622267D01*
X348064152Y-228717505D01*
X348111771Y-228765124D01*
X348207010Y-228812743D01*
X348445105Y-228812743D01*
X348540343Y-228765124D01*
X348587962Y-228717505D01*
X348635581Y-228622267D01*
X348635581Y-228336552D01*
X348587962Y-228241314D01*
X348540343Y-228193695D01*
X347635581Y-229431790D02*
X347635581Y-229527029D01*
X347683200Y-229622267D01*
X347730819Y-229669886D01*
X347826057Y-229717505D01*
X348016533Y-229765124D01*
X348254629Y-229765124D01*
X348445105Y-229717505D01*
X348540343Y-229669886D01*
X348587962Y-229622267D01*
X348635581Y-229527029D01*
X348635581Y-229431790D01*
X348587962Y-229336552D01*
X348540343Y-229288933D01*
X348445105Y-229241314D01*
X348254629Y-229193695D01*
X348016533Y-229193695D01*
X347826057Y-229241314D01*
X347730819Y-229288933D01*
X347683200Y-229336552D01*
X347635581Y-229431790D01*
X347730819Y-230146076D02*
X347683200Y-230193695D01*
X347635581Y-230288933D01*
X347635581Y-230527029D01*
X347683200Y-230622267D01*
X347730819Y-230669886D01*
X347826057Y-230717505D01*
X347921295Y-230717505D01*
X348064152Y-230669886D01*
X348635581Y-230098457D01*
X348635581Y-230717505D01*
X352762914Y-234573771D02*
X353096248Y-234573771D01*
X353096248Y-235097581D02*
X353096248Y-234097581D01*
X352620057Y-234097581D01*
X351905771Y-234573771D02*
X351762914Y-234621390D01*
X351715295Y-234669010D01*
X351667676Y-234764248D01*
X351667676Y-234907105D01*
X351715295Y-235002343D01*
X351762914Y-235049962D01*
X351858152Y-235097581D01*
X352239105Y-235097581D01*
X352239105Y-234097581D01*
X351905771Y-234097581D01*
X351810533Y-234145200D01*
X351762914Y-234192819D01*
X351715295Y-234288057D01*
X351715295Y-234383295D01*
X351762914Y-234478533D01*
X351810533Y-234526152D01*
X351905771Y-234573771D01*
X352239105Y-234573771D01*
X351334343Y-234097581D02*
X350715295Y-234097581D01*
X351048629Y-234478533D01*
X350905771Y-234478533D01*
X350810533Y-234526152D01*
X350762914Y-234573771D01*
X350715295Y-234669010D01*
X350715295Y-234907105D01*
X350762914Y-235002343D01*
X350810533Y-235049962D01*
X350905771Y-235097581D01*
X351191486Y-235097581D01*
X351286724Y-235049962D01*
X351334343Y-235002343D01*
X350096248Y-234097581D02*
X350001009Y-234097581D01*
X349905771Y-234145200D01*
X349858152Y-234192819D01*
X349810533Y-234288057D01*
X349762914Y-234478533D01*
X349762914Y-234716629D01*
X349810533Y-234907105D01*
X349858152Y-235002343D01*
X349905771Y-235049962D01*
X350001009Y-235097581D01*
X350096248Y-235097581D01*
X350191486Y-235049962D01*
X350239105Y-235002343D01*
X350286724Y-234907105D01*
X350334343Y-234716629D01*
X350334343Y-234478533D01*
X350286724Y-234288057D01*
X350239105Y-234192819D01*
X350191486Y-234145200D01*
X350096248Y-234097581D01*
X348810533Y-235097581D02*
X349381962Y-235097581D01*
X349096248Y-235097581D02*
X349096248Y-234097581D01*
X349191486Y-234240438D01*
X349286724Y-234335676D01*
X349381962Y-234383295D01*
X225210476Y-180339381D02*
X225210476Y-179339381D01*
X224972381Y-179339381D01*
X224829523Y-179387000D01*
X224734285Y-179482238D01*
X224686666Y-179577476D01*
X224639047Y-179767952D01*
X224639047Y-179910810D01*
X224686666Y-180101286D01*
X224734285Y-180196524D01*
X224829523Y-180291762D01*
X224972381Y-180339381D01*
X225210476Y-180339381D01*
X223781904Y-179672714D02*
X223781904Y-180339381D01*
X224020000Y-179291762D02*
X224258095Y-180006048D01*
X223639047Y-180006048D01*
X223067619Y-179339381D02*
X222972380Y-179339381D01*
X222877142Y-179387000D01*
X222829523Y-179434619D01*
X222781904Y-179529857D01*
X222734285Y-179720333D01*
X222734285Y-179958429D01*
X222781904Y-180148905D01*
X222829523Y-180244143D01*
X222877142Y-180291762D01*
X222972380Y-180339381D01*
X223067619Y-180339381D01*
X223162857Y-180291762D01*
X223210476Y-180244143D01*
X223258095Y-180148905D01*
X223305714Y-179958429D01*
X223305714Y-179720333D01*
X223258095Y-179529857D01*
X223210476Y-179434619D01*
X223162857Y-179387000D01*
X223067619Y-179339381D01*
X221781904Y-180339381D02*
X222353333Y-180339381D01*
X222067619Y-180339381D02*
X222067619Y-179339381D01*
X222162857Y-179482238D01*
X222258095Y-179577476D01*
X222353333Y-179625095D01*
%LPC*%
D13*
X339598000Y-224282000D03*
X339598000Y-221742000D03*
X339598000Y-219202000D03*
X339598000Y-216662000D03*
X316103000Y-208280000D03*
X302768000Y-231140000D03*
X302768000Y-228600000D03*
X302768000Y-226060000D03*
X329438000Y-215392000D03*
X329438000Y-226822000D03*
X329438000Y-229362000D03*
X324866000Y-202438000D03*
X333121000Y-202438000D03*
X235712000Y-185928000D03*
X241808000Y-180848000D03*
X245237000Y-184277000D03*
X277368000Y-228473000D03*
X268224000Y-242570000D03*
X270764000Y-242570000D03*
X278384000Y-242570000D03*
X275844000Y-242570000D03*
X273304000Y-242570000D03*
X273304000Y-237490000D03*
X275844000Y-237490000D03*
X278384000Y-237490000D03*
X267970000Y-226060000D03*
X267970000Y-230632000D03*
X264668000Y-220472000D03*
X254508000Y-220472000D03*
X254508000Y-215392000D03*
X262382000Y-199390000D03*
X264922000Y-199390000D03*
X220472000Y-188468000D03*
X228092000Y-188468000D03*
X233172000Y-188468000D03*
X238252000Y-188468000D03*
X241046000Y-189992000D03*
X279146000Y-204470000D03*
X270510000Y-195072000D03*
X294640000Y-231140000D03*
X294640000Y-228600000D03*
X294640000Y-226060000D03*
X294640000Y-210820000D03*
X294640000Y-208280000D03*
X294640000Y-205740000D03*
X281686000Y-204470000D03*
X284226000Y-204470000D03*
X283210000Y-195072000D03*
X280670000Y-195072000D03*
X278130000Y-195072000D03*
X275590000Y-195072000D03*
X260350000Y-226060000D03*
X262890000Y-226060000D03*
X262890000Y-230632000D03*
X260350000Y-230632000D03*
X248920000Y-213360000D03*
X248920000Y-210820000D03*
X232664000Y-220218000D03*
X230124000Y-220218000D03*
X227584000Y-220218000D03*
X225044000Y-220218000D03*
X221742000Y-215900000D03*
X221742000Y-205486000D03*
X255270000Y-230632000D03*
X255270000Y-233172000D03*
X250190000Y-233172000D03*
X246380000Y-233172000D03*
X241300000Y-233172000D03*
X238760000Y-233172000D03*
X238760000Y-230632000D03*
X241300000Y-230632000D03*
X246380000Y-230632000D03*
X250190000Y-230632000D03*
X250190000Y-226060000D03*
X246380000Y-226060000D03*
X238760000Y-226060000D03*
X241300000Y-226060000D03*
X241300000Y-218440000D03*
X236220000Y-208280000D03*
X241300000Y-208280000D03*
X236220000Y-210820000D03*
X238760000Y-210820000D03*
X241300000Y-210820000D03*
X354584000Y-216662000D03*
X354584000Y-203962000D03*
X345948000Y-209550000D03*
X348488000Y-209550000D03*
X355600000Y-167132000D03*
X353060000Y-167132000D03*
X350520000Y-167132000D03*
X347980000Y-167132000D03*
X345440000Y-167132000D03*
X342900000Y-167132000D03*
X340360000Y-167132000D03*
X337820000Y-167132000D03*
X335280000Y-167132000D03*
X332740000Y-167132000D03*
X330200000Y-167132000D03*
X348488000Y-194310000D03*
X348488000Y-201930000D03*
X334010000Y-196596000D03*
X336550000Y-196596000D03*
X339852000Y-197612000D03*
X341376000Y-195834000D03*
X343916000Y-201930000D03*
X343916000Y-199390000D03*
X343916000Y-196850000D03*
X343916000Y-186690000D03*
X343916000Y-189230000D03*
X339852000Y-189230000D03*
X217424000Y-168656000D03*
X214884000Y-168656000D03*
X212344000Y-168656000D03*
X209804000Y-168656000D03*
X207264000Y-168656000D03*
X207264000Y-178816000D03*
X209804000Y-178816000D03*
X212344000Y-178816000D03*
X214884000Y-178816000D03*
X214884000Y-181356000D03*
X217424000Y-181356000D03*
X214884000Y-183896000D03*
X217424000Y-183896000D03*
X215392000Y-186944000D03*
X213360000Y-186944000D03*
X196850000Y-203962000D03*
X199390000Y-203962000D03*
X201930000Y-203962000D03*
X204470000Y-203962000D03*
X204470000Y-198882000D03*
X204470000Y-196342000D03*
X204470000Y-193802000D03*
X204470000Y-191262000D03*
X207010000Y-188722000D03*
X207010000Y-186182000D03*
X204470000Y-186182000D03*
X204470000Y-188722000D03*
X197866000Y-201422000D03*
X197866000Y-198882000D03*
X197866000Y-196342000D03*
X197866000Y-193802000D03*
X197866000Y-191262000D03*
X197866000Y-188722000D03*
X197866000Y-178562000D03*
X197866000Y-183642000D03*
D14*
X288315400Y-242570000D03*
X288315400Y-193040000D03*
X194335400Y-193040000D03*
X194335400Y-242570000D03*
X363347000Y-169037000D03*
D15*
X249094000Y-184150000D03*
X251794000Y-184150000D03*
D16*
X320675000Y-222484000D03*
X320675000Y-219984000D03*
D17*
X350520000Y-221139000D03*
X350520000Y-225139000D03*
D18*
X361664000Y-224663000D03*
X357664000Y-224663000D03*
D19*
X316718000Y-173228000D03*
X314218000Y-173228000D03*
X287762000Y-173228000D03*
X285262000Y-173228000D03*
X259314000Y-173228000D03*
X256814000Y-173228000D03*
X319806000Y-178181000D03*
X322306000Y-178181000D03*
X291358000Y-178181000D03*
X293858000Y-178181000D03*
X262910000Y-178181000D03*
X265410000Y-178181000D03*
D16*
X308737000Y-188702000D03*
X308737000Y-186202000D03*
X280289000Y-188702000D03*
X280289000Y-186202000D03*
X251841000Y-188702000D03*
X251841000Y-186202000D03*
D18*
X260064000Y-184404000D03*
X256064000Y-184404000D03*
X316960000Y-184404000D03*
X312960000Y-184404000D03*
X288512000Y-184404000D03*
X284512000Y-184404000D03*
D20*
X353974400Y-187007500D03*
X353974400Y-176720500D03*
D21*
X194564000Y-176022000D03*
D22*
X194564000Y-181102000D03*
X194564000Y-186182000D03*
D23*
X212090000Y-183769000D03*
X209550000Y-183769000D03*
X204470000Y-183769000D03*
X207010000Y-183769000D03*
D24*
X209550000Y-181609000D03*
D15*
X261954000Y-217424000D03*
X259254000Y-217424000D03*
X261954000Y-215392000D03*
X259254000Y-215392000D03*
X238078000Y-205994000D03*
X235378000Y-205994000D03*
X333930000Y-179755800D03*
X336630000Y-179755800D03*
X333930000Y-181787800D03*
X336630000Y-181787800D03*
X278845000Y-176530000D03*
X276145000Y-176530000D03*
X250397000Y-176530000D03*
X247697000Y-176530000D03*
D25*
X305943000Y-188929000D03*
X305943000Y-186229000D03*
D15*
X305990000Y-184150000D03*
X308690000Y-184150000D03*
D25*
X277495000Y-188929000D03*
X277495000Y-186229000D03*
D15*
X277542000Y-184150000D03*
X280242000Y-184150000D03*
D25*
X249047000Y-188929000D03*
X249047000Y-186229000D03*
D15*
X237951000Y-215265000D03*
X235251000Y-215265000D03*
X237951000Y-213106000D03*
X235251000Y-213106000D03*
D25*
X277368000Y-213440000D03*
X277368000Y-210740000D03*
X275209000Y-213440000D03*
X275209000Y-210740000D03*
D15*
X361141000Y-194818000D03*
X358441000Y-194818000D03*
X361141000Y-196977000D03*
X358441000Y-196977000D03*
X361141000Y-199136000D03*
X358441000Y-199136000D03*
X358441000Y-201295000D03*
X361141000Y-201295000D03*
D26*
X355892000Y-228927000D03*
D27*
X313578000Y-180116000D03*
X313578000Y-177516000D03*
X312278000Y-180116000D03*
X312278000Y-177516000D03*
X312278000Y-178816000D03*
X313578000Y-178816000D03*
X285130000Y-180116000D03*
X285130000Y-177516000D03*
X283830000Y-180116000D03*
X283830000Y-177516000D03*
X283830000Y-178816000D03*
X285130000Y-178816000D03*
X256682000Y-180116000D03*
X256682000Y-177516000D03*
X255382000Y-180116000D03*
X255382000Y-177516000D03*
X255382000Y-178816000D03*
X256682000Y-178816000D03*
D28*
X276352000Y-173736000D03*
D29*
X278892000Y-173736000D03*
D28*
X247904000Y-173736000D03*
D29*
X250444000Y-173736000D03*
D30*
X204724000Y-174117000D03*
X240284000Y-174117000D03*
D31*
X213614000Y-175387000D03*
D32*
X213614000Y-172847000D03*
X216154000Y-175387000D03*
X216154000Y-172847000D03*
X218694000Y-175387000D03*
X218694000Y-172847000D03*
X221234000Y-175387000D03*
X221234000Y-172847000D03*
X223774000Y-175387000D03*
X223774000Y-172847000D03*
X226314000Y-175387000D03*
X226314000Y-172847000D03*
X228854000Y-175387000D03*
X228854000Y-172847000D03*
X231394000Y-175387000D03*
X231394000Y-172847000D03*
D33*
X341998300Y-181610000D03*
D28*
X341998300Y-178206400D03*
D33*
X341998300Y-185110120D03*
X346240100Y-183311800D03*
X346240100Y-179908200D03*
D34*
X317728000Y-222504000D03*
X314478000Y-222504000D03*
D35*
X317728000Y-223774000D03*
X317728000Y-221234000D03*
X314478000Y-221234000D03*
D36*
X314978000Y-223774000D03*
D37*
X314155500Y-223774000D03*
D16*
X331597000Y-198648000D03*
X331597000Y-201148000D03*
D25*
X311531000Y-225124000D03*
X311531000Y-222424000D03*
D38*
X329880000Y-201198000D03*
X328930000Y-201198000D03*
X327980000Y-201198000D03*
X327980000Y-198598000D03*
X329880000Y-198598000D03*
D26*
X263347200Y-195592700D03*
D39*
X219147200Y-195592700D03*
D26*
X263347200Y-240042700D03*
D39*
X219147200Y-240042700D03*
D38*
X349570000Y-227681000D03*
X350520000Y-227681000D03*
X351470000Y-227681000D03*
X351470000Y-230281000D03*
X349570000Y-230281000D03*
D15*
X349678000Y-232791000D03*
X352378000Y-232791000D03*
D23*
X355092000Y-208832000D03*
X350092000Y-205232000D03*
X360092000Y-205232000D03*
D14*
X194564000Y-169037000D03*
X363347000Y-242443000D03*
D40*
X343027000Y-213090000D03*
D41*
X343027000Y-242443000D03*
D42*
X345567000Y-213090000D03*
X348107000Y-213090000D03*
X350647000Y-213090000D03*
X353187000Y-213090000D03*
X355727000Y-213090000D03*
X358267000Y-213090000D03*
X360807000Y-213090000D03*
X363347000Y-213090000D03*
D14*
X336931000Y-243332000D03*
X295275000Y-243332000D03*
X295275000Y-201676000D03*
X336931000Y-201676000D03*
D43*
X224635000Y-181737000D03*
X222405000Y-181737000D03*
D13*
X197866000Y-181102000D03*
D44*
X340106000Y-238252000D03*
D13*
X283337000Y-237363000D03*
X282956056Y-230378000D03*
X269748000Y-233045000D03*
X282448000Y-233807006D03*
X322580000Y-196850000D03*
X316992000Y-201676000D03*
X308864000Y-201676000D03*
X310896000Y-201676000D03*
X312928000Y-201676000D03*
X314960000Y-201676000D03*
D45*
X307213000Y-213614000D03*
D13*
X286512000Y-168656000D03*
X284480000Y-168656000D03*
X282448000Y-168656000D03*
X314960000Y-186436000D03*
X312928000Y-186436000D03*
X310896000Y-186436000D03*
X286512000Y-186436000D03*
X284480000Y-186436000D03*
X282448000Y-186436000D03*
X254000000Y-186436000D03*
X256032000Y-186436000D03*
X258064000Y-186436000D03*
X315468000Y-168656000D03*
X313436000Y-168656000D03*
X311404000Y-168656000D03*
X311404000Y-170688000D03*
X313436000Y-175260000D03*
X311404000Y-175260000D03*
X311404000Y-173228000D03*
X314960000Y-182372000D03*
X312928000Y-182372000D03*
X310896000Y-182372000D03*
X310896000Y-184404000D03*
X357886000Y-222631000D03*
X286512000Y-182372000D03*
X284480000Y-182372000D03*
X282448000Y-182372000D03*
X282448000Y-184404000D03*
X282448000Y-170688000D03*
X284480000Y-175260000D03*
X282448000Y-175260000D03*
X282448000Y-173228000D03*
X254000000Y-168655992D03*
X258064000Y-168656000D03*
X256032000Y-168656000D03*
X254000000Y-170688000D03*
X256032000Y-175260000D03*
X254000000Y-175260000D03*
X254000000Y-173228000D03*
X258064000Y-182372000D03*
X256032000Y-182372000D03*
X254000000Y-182372000D03*
X254000000Y-184404000D03*
X300355000Y-200406000D03*
X338328000Y-191008000D03*
X338328000Y-197993000D03*
X259461000Y-245237000D03*
X253238000Y-245364000D03*
D44*
X259334000Y-221107000D03*
D13*
X252476006Y-202818980D03*
X266700000Y-202818980D03*
X213360000Y-203200000D03*
D44*
X275364695Y-188929000D03*
D13*
X324739000Y-199898000D03*
D44*
X267462000Y-213360000D03*
X252476000Y-220580920D03*
X235331000Y-220599000D03*
X252476000Y-213591498D03*
D13*
X361315000Y-193167000D03*
X266672622Y-188929000D03*
X298704000Y-182372000D03*
X298704000Y-184404000D03*
X298704000Y-186436000D03*
X292608000Y-182372000D03*
X292608000Y-184404000D03*
X292608000Y-186436000D03*
X295656000Y-186436000D03*
X288544000Y-186436000D03*
X290576000Y-186436000D03*
X288544000Y-182372000D03*
X290576000Y-182372000D03*
X290576000Y-184404000D03*
X276225000Y-215138000D03*
D44*
X265176000Y-204343000D03*
D32*
X244475000Y-204342980D03*
X268605006Y-204342980D03*
D13*
X243586000Y-245364000D03*
X226187020Y-245364000D03*
D32*
X268605000Y-191135020D03*
D13*
X342519000Y-207010010D03*
D44*
X303769000Y-188929000D03*
D13*
X339217000Y-186436000D03*
X345567000Y-219456006D03*
X335788000Y-185293001D03*
X324104000Y-186436000D03*
X327152000Y-186436000D03*
X327152000Y-184404000D03*
X327152000Y-182372000D03*
X316992000Y-186436000D03*
X319024000Y-186436000D03*
X321056000Y-182372000D03*
X321056000Y-184404000D03*
X321056000Y-186436000D03*
X316992000Y-182372000D03*
X319024000Y-182372000D03*
X319024000Y-184404000D03*
D44*
X318008000Y-178181000D03*
X322326000Y-179705000D03*
X289560000Y-178181000D03*
X293878000Y-179705000D03*
X261112000Y-178181000D03*
X265430000Y-179705000D03*
X305308000Y-178943000D03*
X276860000Y-178943000D03*
X245949426Y-187529426D03*
D13*
X270256000Y-182372000D03*
X270256000Y-184404000D03*
X270256000Y-186436000D03*
X264160000Y-182372000D03*
X264160000Y-184404000D03*
X264160000Y-186436000D03*
X267208000Y-186436000D03*
X260096000Y-182372000D03*
X262128000Y-182372000D03*
X260096000Y-186436000D03*
X262128000Y-186436000D03*
X262128000Y-184404000D03*
D44*
X248539000Y-178943000D03*
X249427994Y-218567000D03*
X255905000Y-218567000D03*
X248666000Y-217296994D03*
X255905000Y-217297000D03*
X238506006Y-208915000D03*
X325755000Y-196278553D03*
X257429000Y-233553000D03*
X341630000Y-239141000D03*
X341630000Y-228981000D03*
X222123000Y-185547000D03*
X304545992Y-168529000D03*
X200660000Y-175514000D03*
X274574000Y-176530000D03*
X246126000Y-176530000D03*
X224663000Y-201930000D03*
X235458000Y-190119006D03*
X235458000Y-201168000D03*
X239014000Y-185420000D03*
X272669002Y-193167000D03*
X224409000Y-245364000D03*
X224409000Y-234315000D03*
X231372924Y-182318041D03*
X223774000Y-201168000D03*
X223774012Y-189992000D03*
X301371000Y-190246000D03*
X241427002Y-201168000D03*
X226314000Y-232029000D03*
X265811000Y-232029000D03*
X270129004Y-201168000D03*
X239395000Y-190373000D03*
X255016000Y-210375520D03*
X275844010Y-205105000D03*
X276225000Y-209042000D03*
X254046558Y-210981043D03*
X273050000Y-208661000D03*
X274955000Y-209042000D03*
X246380000Y-216281000D03*
X242570000Y-216281000D03*
X246888004Y-206883000D03*
X355600000Y-197485000D03*
X245999000Y-215138000D03*
X241935000Y-215138000D03*
X245999000Y-207772000D03*
X355600000Y-198755000D03*
X286893006Y-219583000D03*
X234315038Y-223393000D03*
X295402000Y-196215000D03*
X353187000Y-201168000D03*
X286893000Y-220980000D03*
X235839000Y-223646990D03*
X297561000Y-196723000D03*
X351917000Y-201549000D03*
X240665000Y-205994002D03*
X329932609Y-187515480D03*
X332105000Y-177419000D03*
X228600014Y-227711000D03*
X271272000Y-220218000D03*
X229489000Y-228600000D03*
X271263583Y-228590338D03*
X272288000Y-229108000D03*
X231013000Y-229489000D03*
X286893000Y-222377000D03*
X236728004Y-224663000D03*
X299339000Y-196850000D03*
X341122000Y-208280000D03*
X341122002Y-199390000D03*
X286893000Y-218186000D03*
X233426000Y-222504000D03*
X296418000Y-195326008D03*
X354076000Y-199771000D03*
X278510994Y-199834470D03*
X350139000Y-194183000D03*
X231013000Y-184912000D03*
X226441000Y-181737000D03*
X215519000Y-210566000D03*
X227330000Y-210566000D03*
X214757000Y-209677000D03*
X226568000Y-209677000D03*
X216789000Y-208788000D03*
X225806000Y-208788000D03*
X216027000Y-207899000D03*
X225044000Y-207899000D03*
X230378000Y-214122000D03*
X212979000Y-214122000D03*
X282956000Y-228473000D03*
X280911770Y-229882230D03*
X304419000Y-191008000D03*
X330708016Y-188468000D03*
X303149000Y-191008000D03*
X331470000Y-189357000D03*
D13*
X361314996Y-222631000D03*
D44*
X286766006Y-198882000D03*
X286766000Y-215519000D03*
X337947000Y-188722000D03*
X265303000Y-217170000D03*
X339090000Y-183515000D03*
X275590000Y-223138996D03*
X265303000Y-218440000D03*
X286385008Y-216789000D03*
X285877012Y-197993000D03*
X337058006Y-187706000D03*
X338201000Y-184404000D03*
X328930000Y-197485020D03*
X240792000Y-214376000D03*
X240792000Y-213106000D03*
X355600000Y-200024990D03*
X355600000Y-201294994D03*
X307213000Y-230378000D03*
X330962000Y-202819000D03*
X329692000Y-220599000D03*
D13*
X324993000Y-229235004D03*
X316738000Y-175260000D03*
X287782000Y-175260000D03*
X259334000Y-175260000D03*
D44*
X201803000Y-177673004D03*
X201803000Y-201168000D03*
X221615000Y-201167984D03*
X213487000Y-211455000D03*
X228092000Y-211455000D03*
X228854000Y-212344000D03*
X214249000Y-212344000D03*
X212217000Y-213233000D03*
X229616000Y-213233000D03*
M02*
