G04 #@! TF.GenerationSoftware,KiCad,Pcbnew,(5.1.8)*
G04 #@! TF.CreationDate,2021-04-28T10:49:12-04:00*
G04 #@! TF.ProjectId,clock,636c6f63-6b2e-46b6-9963-61645f706362,rev?*
G04 #@! TF.SameCoordinates,Original*
G04 #@! TF.FileFunction,Soldermask,Bot*
G04 #@! TF.FilePolarity,Negative*
%FSLAX46Y46*%
G04 Gerber Fmt 4.6, Leading zero omitted, Abs format (unit mm)*
G04 Created by KiCad (PCBNEW (5.1.8)) date 2021-04-28 10:49:12*
%MOMM*%
%LPD*%
G01*
G04 APERTURE LIST*
%ADD10C,1.016000*%
%ADD11C,3.000000*%
%ADD12C,3.175000*%
%ADD13R,1.778000X1.778000*%
%ADD14C,2.200000*%
%ADD15C,1.778000*%
%ADD16C,2.540000*%
%ADD17R,2.000000X1.600000*%
%ADD18C,5.080000*%
%ADD19R,3.000000X3.000000*%
%ADD20C,2.040000*%
%ADD21R,2.040000X2.040000*%
%ADD22C,1.250000*%
%ADD23R,1.300000X1.300000*%
%ADD24R,2.032000X2.032000*%
%ADD25O,2.032000X2.032000*%
%ADD26C,1.200000*%
%ADD27C,0.800000*%
%ADD28C,2.032000*%
%ADD29R,2.032000X1.727200*%
%ADD30O,2.032000X1.727200*%
%ADD31C,6.000000*%
%ADD32R,1.400000X0.600000*%
%ADD33R,1.000000X1.300000*%
%ADD34R,1.300000X1.000000*%
%ADD35R,1.250000X1.300000*%
%ADD36R,1.300000X1.250000*%
%ADD37R,1.500000X1.300000*%
%ADD38R,0.700000X1.200000*%
%ADD39R,1.260000X0.830000*%
%ADD40C,0.889000*%
%ADD41C,1.524000*%
%ADD42C,1.270000*%
G04 APERTURE END LIST*
D10*
X264160000Y-189230000D03*
X254000000Y-214630000D03*
X264922000Y-214630000D03*
X256540000Y-201168000D03*
X229870000Y-180340000D03*
X246380000Y-201168000D03*
D11*
X355892000Y-228927000D03*
D10*
X218440000Y-200025000D03*
X226695000Y-233680000D03*
X248920000Y-218440000D03*
X355600000Y-194310000D03*
D12*
X363347000Y-242570000D03*
D13*
X343027000Y-213217000D03*
D14*
X343027000Y-242570000D03*
D15*
X345567000Y-213217000D03*
X348107000Y-213217000D03*
X350647000Y-213217000D03*
X353187000Y-213217000D03*
X355727000Y-213217000D03*
X358267000Y-213217000D03*
X360807000Y-213217000D03*
X363347000Y-213217000D03*
D10*
X345440000Y-236220000D03*
X359156000Y-216535000D03*
X238506000Y-190246000D03*
X243459000Y-182499000D03*
X280670000Y-198120000D03*
X293370000Y-190500000D03*
X334010000Y-189230000D03*
X332740000Y-175260000D03*
X339598000Y-179578000D03*
X233680000Y-185420000D03*
X322580000Y-201676000D03*
X320040000Y-201676000D03*
X312420000Y-201676000D03*
X363220000Y-208280000D03*
X255270000Y-230632000D03*
X332740000Y-243840000D03*
X299720000Y-243840000D03*
X339090000Y-206756000D03*
X336550000Y-206756000D03*
X241300000Y-201168000D03*
X238760000Y-201168000D03*
X236220000Y-201168000D03*
X248920000Y-201168000D03*
X227584000Y-178816000D03*
X225044000Y-178816000D03*
X204470000Y-181610000D03*
X304673000Y-207645000D03*
X309753000Y-207645000D03*
X344170000Y-224790000D03*
X358140000Y-243840000D03*
X353060000Y-243840000D03*
X228600000Y-218440000D03*
X228600000Y-223520000D03*
X330200000Y-218440000D03*
X220980000Y-233680000D03*
X213360000Y-233680000D03*
X205740000Y-233680000D03*
X205740000Y-218440000D03*
X213360000Y-218440000D03*
X213360000Y-223520000D03*
X220980000Y-223520000D03*
X205740000Y-223520000D03*
X250698000Y-245364000D03*
X246126000Y-245364000D03*
X255270000Y-226060000D03*
X304800000Y-201676000D03*
X307340000Y-201676000D03*
X314960000Y-201676000D03*
X322571329Y-196858671D03*
D16*
X358648000Y-176530000D03*
X358648000Y-181610000D03*
X358648000Y-186690000D03*
X363728000Y-186690000D03*
X363728000Y-176530000D03*
D10*
X284353000Y-212090000D03*
X267970000Y-208280000D03*
X259080000Y-208280000D03*
X256540000Y-208280000D03*
X248920000Y-208280000D03*
X340360000Y-167132000D03*
X341630000Y-236220000D03*
X340360000Y-226060000D03*
X340360000Y-218440000D03*
X340360000Y-215900000D03*
X302260000Y-228600000D03*
X330200000Y-215900000D03*
X330200000Y-226060000D03*
X330200000Y-228600000D03*
X332740000Y-205740000D03*
X236220000Y-185420000D03*
X241300000Y-180340000D03*
X245237000Y-184277000D03*
X277114000Y-228600000D03*
X276860000Y-241300000D03*
X266700000Y-241300000D03*
X271780000Y-241300000D03*
X271780000Y-236220000D03*
X274320000Y-236220000D03*
X276860000Y-236220000D03*
X267970000Y-226060000D03*
X267970000Y-230632000D03*
X263525000Y-219202000D03*
X254000000Y-218440000D03*
X261620000Y-201168000D03*
X264160000Y-201168000D03*
X220980000Y-187960000D03*
X228600000Y-187960000D03*
X233680000Y-187960000D03*
X238506000Y-187960000D03*
X240792000Y-190246000D03*
X279400000Y-204470000D03*
X270510000Y-195072000D03*
X294640000Y-223520000D03*
X294640000Y-228600000D03*
X294640000Y-226060000D03*
X294640000Y-210820000D03*
X294640000Y-208280000D03*
X294640000Y-205740000D03*
X281940000Y-204470000D03*
X284480000Y-204470000D03*
X280670000Y-195072000D03*
X278130000Y-195072000D03*
X275590000Y-195072000D03*
X260350000Y-226060000D03*
X262890000Y-226060000D03*
X262890000Y-230632000D03*
X260350000Y-230632000D03*
X248920000Y-210820000D03*
X220980000Y-218440000D03*
X220980000Y-205740000D03*
X255270000Y-233172000D03*
X241300000Y-233680000D03*
X238760000Y-233680000D03*
X238760000Y-228600000D03*
X241300000Y-228600000D03*
X241300000Y-218440000D03*
X236220000Y-208280000D03*
X241300000Y-208280000D03*
X236220000Y-210820000D03*
X238760000Y-210820000D03*
X241300000Y-210820000D03*
X353060000Y-218440000D03*
X354584000Y-203962000D03*
X347980000Y-208280000D03*
X350520000Y-208280000D03*
X355600000Y-167132000D03*
X353060000Y-167132000D03*
X350520000Y-167132000D03*
X345440000Y-167132000D03*
X342900000Y-167132000D03*
X335280000Y-167132000D03*
X332740000Y-167132000D03*
X330200000Y-167132000D03*
X348488000Y-194310000D03*
X348488000Y-201930000D03*
X336550000Y-196596000D03*
X339852000Y-197612000D03*
X341376000Y-195834000D03*
X343916000Y-201930000D03*
X343916000Y-199390000D03*
X343916000Y-196850000D03*
X343916000Y-186690000D03*
X343916000Y-189230000D03*
X339852000Y-189230000D03*
X207264000Y-178816000D03*
X209804000Y-178816000D03*
X212344000Y-178816000D03*
X214884000Y-178816000D03*
X214884000Y-181356000D03*
X217424000Y-181356000D03*
X214884000Y-183896000D03*
X217424000Y-183896000D03*
X215392000Y-186944000D03*
X213360000Y-186944000D03*
X198120000Y-203200000D03*
X203200000Y-203200000D03*
X205740000Y-203200000D03*
X203200000Y-198120000D03*
X203200000Y-195580000D03*
X203200000Y-193040000D03*
X207010000Y-186182000D03*
X204470000Y-186182000D03*
X204470000Y-188722000D03*
X198120000Y-198120000D03*
X198120000Y-195580000D03*
X198120000Y-193040000D03*
X197866000Y-178562000D03*
X197866000Y-183642000D03*
D12*
X288315400Y-242570000D03*
X288315400Y-193040000D03*
X194335400Y-193040000D03*
X194335400Y-242570000D03*
X363347000Y-169037000D03*
D17*
X346615000Y-224663000D03*
X350615000Y-224663000D03*
X361664000Y-224663000D03*
X357664000Y-224663000D03*
X260064000Y-184404000D03*
X256064000Y-184404000D03*
X316960000Y-184404000D03*
X312960000Y-184404000D03*
X288512000Y-184404000D03*
X284512000Y-184404000D03*
D18*
X353974400Y-186753500D03*
X353974400Y-176466500D03*
D19*
X194564000Y-176022000D03*
D11*
X194564000Y-181102000D03*
X194564000Y-186182000D03*
D20*
X212090000Y-183769000D03*
X209550000Y-183769000D03*
D21*
X204470000Y-183769000D03*
D20*
X207010000Y-183769000D03*
D22*
X209550000Y-181609000D03*
D23*
X313578000Y-180116000D03*
X313578000Y-177516000D03*
X312278000Y-180116000D03*
X312278000Y-177516000D03*
X312278000Y-178816000D03*
X313578000Y-178816000D03*
X285130000Y-180116000D03*
X285130000Y-177516000D03*
X283830000Y-180116000D03*
X283830000Y-177516000D03*
X283830000Y-178816000D03*
X285130000Y-178816000D03*
X256682000Y-180116000D03*
X256682000Y-177516000D03*
X255382000Y-180116000D03*
X255382000Y-177516000D03*
X255382000Y-178816000D03*
X256682000Y-178816000D03*
D24*
X276352000Y-173736000D03*
D25*
X278892000Y-173736000D03*
D24*
X247904000Y-173736000D03*
D25*
X250444000Y-173736000D03*
D26*
X263347200Y-195592700D03*
D27*
X219147200Y-195592700D03*
D26*
X263347200Y-240042700D03*
D27*
X219147200Y-240042700D03*
D12*
X194335400Y-169037000D03*
X336931000Y-243332000D03*
X295275000Y-243332000D03*
X295275000Y-201676000D03*
X336931000Y-201676000D03*
D10*
X197866000Y-181102000D03*
D16*
X363728000Y-181610000D03*
D28*
X342239600Y-181610000D03*
D24*
X342239600Y-178206400D03*
D28*
X342239600Y-185013600D03*
X346240100Y-183311800D03*
X346240100Y-179908200D03*
D29*
X195580000Y-213360000D03*
D30*
X195580000Y-215900000D03*
X195580000Y-218440000D03*
X195580000Y-220980000D03*
X195580000Y-223520000D03*
X195580000Y-226060000D03*
X195580000Y-228600000D03*
X195580000Y-231140000D03*
X195580000Y-233680000D03*
X195580000Y-236220000D03*
D20*
X355092000Y-208832000D03*
X350092000Y-205232000D03*
X360092000Y-205232000D03*
D31*
X204704000Y-174387000D03*
X240304000Y-174387000D03*
D13*
X213614000Y-175387000D03*
D15*
X213614000Y-172847000D03*
X216154000Y-175387000D03*
X216154000Y-172847000D03*
X218694000Y-175387000D03*
X218694000Y-172847000D03*
X221234000Y-175387000D03*
X221234000Y-172847000D03*
X223774000Y-175387000D03*
X223774000Y-172847000D03*
X226314000Y-175387000D03*
X226314000Y-172847000D03*
X228854000Y-175387000D03*
X228854000Y-172847000D03*
X231394000Y-175387000D03*
X231394000Y-172847000D03*
D32*
X354250000Y-217231000D03*
X354250000Y-215331000D03*
X356950000Y-216281000D03*
X349932000Y-217231000D03*
X349932000Y-215331000D03*
X352632000Y-216281000D03*
D33*
X259504000Y-217424000D03*
X261704000Y-217424000D03*
X259504000Y-215392000D03*
X261704000Y-215392000D03*
X238209000Y-205740000D03*
X236009000Y-205740000D03*
X336380000Y-179705000D03*
X334180000Y-179705000D03*
X336380000Y-181737000D03*
X334180000Y-181737000D03*
X336380000Y-177292000D03*
X334180000Y-177292000D03*
X345483000Y-216281000D03*
X347683000Y-216281000D03*
X226271000Y-185547000D03*
X224071000Y-185547000D03*
X276395000Y-176530000D03*
X278595000Y-176530000D03*
X247947000Y-176530000D03*
X250147000Y-176530000D03*
D34*
X306197000Y-184320000D03*
X306197000Y-186520000D03*
D33*
X308440000Y-182372000D03*
X306240000Y-182372000D03*
D34*
X277749000Y-184320000D03*
X277749000Y-186520000D03*
D33*
X279992000Y-182372000D03*
X277792000Y-182372000D03*
D34*
X249301000Y-184320000D03*
X249301000Y-186520000D03*
D33*
X251544000Y-182372000D03*
X249344000Y-182372000D03*
X235501000Y-215265000D03*
X237701000Y-215265000D03*
X235501000Y-213106000D03*
X237701000Y-213106000D03*
X278554000Y-207391000D03*
X280754000Y-207391000D03*
X278554000Y-209423000D03*
X280754000Y-209423000D03*
X358691000Y-194818000D03*
X360891000Y-194818000D03*
X358691000Y-196977000D03*
X360891000Y-196977000D03*
X358691000Y-199136000D03*
X360891000Y-199136000D03*
X360891000Y-201295000D03*
X358691000Y-201295000D03*
X278722000Y-213487000D03*
X276522000Y-213487000D03*
X278722000Y-211455000D03*
X276522000Y-211455000D03*
D35*
X251587000Y-184270000D03*
X251587000Y-186570000D03*
X280035000Y-184270000D03*
X280035000Y-186570000D03*
X308483000Y-184270000D03*
X308483000Y-186570000D03*
D36*
X265310000Y-178181000D03*
X263010000Y-178181000D03*
X293758000Y-178181000D03*
X291458000Y-178181000D03*
X322206000Y-178181000D03*
X319906000Y-178181000D03*
X256914000Y-173228000D03*
X259214000Y-173228000D03*
X285362000Y-173228000D03*
X287662000Y-173228000D03*
X314318000Y-173228000D03*
X316618000Y-173228000D03*
D35*
X328803000Y-230244000D03*
X328803000Y-232544000D03*
D37*
X349678000Y-232791000D03*
X352378000Y-232791000D03*
D38*
X349570000Y-227581000D03*
X350520000Y-227581000D03*
X351470000Y-227581000D03*
X351470000Y-230381000D03*
X349570000Y-230381000D03*
D34*
X355600000Y-234907000D03*
X355600000Y-232707000D03*
D39*
X226220000Y-187579000D03*
X223360000Y-187579000D03*
D10*
X339090000Y-236982000D03*
X269748000Y-232918000D03*
X283210000Y-237490000D03*
X282956056Y-230378000D03*
X282448000Y-233807006D03*
X286512000Y-168656000D03*
X284480000Y-168656000D03*
X282448000Y-168656000D03*
X314960000Y-186436000D03*
X312928000Y-186436000D03*
X310896000Y-186436000D03*
X286512000Y-186436000D03*
X284480000Y-186436000D03*
X282448000Y-186436000D03*
X254000000Y-186436000D03*
X256032000Y-186436000D03*
X258064000Y-186436000D03*
X315468000Y-168656000D03*
X313436000Y-168656000D03*
X311404000Y-168656000D03*
X311404000Y-170688000D03*
X313436000Y-175260000D03*
X311404000Y-175260000D03*
X311404000Y-173228000D03*
X314960000Y-182372000D03*
X312928000Y-182372000D03*
X310896000Y-182372000D03*
X310896000Y-184404000D03*
X286512000Y-182372000D03*
X284480000Y-182372000D03*
X282448000Y-182372000D03*
X282448000Y-184404000D03*
X282448000Y-170688000D03*
X284480000Y-175260000D03*
X282448000Y-175260000D03*
X282448000Y-173228000D03*
X254000000Y-168655992D03*
X258064000Y-168656000D03*
X256032000Y-168656000D03*
X254000000Y-170688000D03*
X256032000Y-175260000D03*
X254000000Y-175260000D03*
X254000000Y-173228000D03*
X258064000Y-182372000D03*
X256032000Y-182372000D03*
X254000000Y-182372000D03*
X254000000Y-184404000D03*
X361061000Y-192913000D03*
X267208000Y-213487000D03*
X300482000Y-200406000D03*
X338328000Y-191135000D03*
X235458000Y-220599000D03*
X266700000Y-187833000D03*
D40*
X275336000Y-187833000D03*
D10*
X253492000Y-245364000D03*
X259334000Y-245364000D03*
X338328000Y-197993000D03*
X259334000Y-221107000D03*
X252476006Y-202818980D03*
X266700000Y-202818980D03*
X213360000Y-203200000D03*
X324739000Y-199898000D03*
X298704000Y-182372000D03*
X298704000Y-184404000D03*
X298704000Y-186436000D03*
X292608000Y-182372000D03*
X292608000Y-184404000D03*
X292608000Y-186436000D03*
X295656000Y-186436000D03*
X288544000Y-186436000D03*
X290576000Y-186436000D03*
X288544000Y-182372000D03*
X290576000Y-182372000D03*
X290576000Y-184404000D03*
X276225000Y-215138000D03*
X252476000Y-220598978D03*
X263017000Y-204470000D03*
D41*
X268605000Y-204470000D03*
X244475000Y-204470000D03*
D40*
X244475000Y-219329000D03*
X224917000Y-219329000D03*
D41*
X268605000Y-189484000D03*
D40*
X303784000Y-188087000D03*
D10*
X243586000Y-245364000D03*
X226187020Y-245364000D03*
X335788000Y-185293001D03*
X324104000Y-186436000D03*
X327152000Y-186436000D03*
X327152000Y-184404000D03*
X327152000Y-182372000D03*
X316992000Y-186436000D03*
X319024000Y-186436000D03*
X321056000Y-182372000D03*
X321056000Y-184404000D03*
X321056000Y-186436000D03*
X316992000Y-182372000D03*
X319024000Y-182372000D03*
X319024000Y-184404000D03*
X339217000Y-186436000D03*
X342519000Y-207010010D03*
X345567000Y-219456006D03*
D40*
X318008000Y-178181000D03*
X322199000Y-179705000D03*
X289560000Y-178181000D03*
X293751000Y-179705000D03*
X261112000Y-178181000D03*
X265303000Y-179705000D03*
X305308000Y-178943000D03*
X276860000Y-178943000D03*
X246888000Y-184912000D03*
D10*
X270256000Y-182372000D03*
X270256000Y-184404000D03*
X270256000Y-186436000D03*
X264160000Y-182372000D03*
X264160000Y-184404000D03*
X264160000Y-186436000D03*
X267208000Y-186436000D03*
X260096000Y-182372000D03*
X262128000Y-182372000D03*
X260096000Y-186436000D03*
X262128000Y-186436000D03*
X262128000Y-184404000D03*
D40*
X248539000Y-178943000D03*
X256159000Y-217424000D03*
X249808994Y-216916000D03*
X256159000Y-216027000D03*
X250698000Y-216027000D03*
X326136000Y-196215000D03*
X238506006Y-208915000D03*
X257429000Y-233553000D03*
X341630000Y-239141000D03*
X222377000Y-185547000D03*
X304800000Y-168783000D03*
X202184000Y-178054000D03*
X272669000Y-191643000D03*
X238887000Y-185547000D03*
X274574000Y-176530000D03*
X246126000Y-176530000D03*
X235458000Y-190119006D03*
X224663000Y-201930000D03*
X231521000Y-182245000D03*
X301752000Y-189738000D03*
X273558000Y-192532000D03*
X239903000Y-187833000D03*
X226314000Y-232029000D03*
X265811000Y-232029000D03*
X255143000Y-210947000D03*
X276733000Y-209169000D03*
X254127000Y-211836000D03*
X275463000Y-209169000D03*
X246888000Y-206756000D03*
X246380000Y-216281000D03*
X242570000Y-216281000D03*
X355600000Y-197485000D03*
X245999000Y-207645000D03*
X245999000Y-215138000D03*
X241935000Y-215138000D03*
X355600000Y-198755000D03*
X297434000Y-196723000D03*
X247142000Y-226060000D03*
X351917000Y-201549000D03*
X286766000Y-220980000D03*
X295402000Y-196215000D03*
X245999000Y-225933000D03*
X286766000Y-219583000D03*
X353187000Y-201168000D03*
X285496000Y-196596000D03*
X329946000Y-187579000D03*
X298577000Y-190627000D03*
X240665000Y-205740000D03*
X331978004Y-177292000D03*
X271780000Y-223139000D03*
X249809000Y-227584000D03*
X250698000Y-228727000D03*
X271145000Y-228727000D03*
X254127000Y-229616000D03*
X272288000Y-229108000D03*
X298704000Y-196723000D03*
X249682000Y-225425000D03*
X286765994Y-222377000D03*
X341122000Y-208280000D03*
X341122002Y-199390000D03*
X296291000Y-195326000D03*
X246507000Y-223901000D03*
X286766000Y-218186000D03*
X354076000Y-199771000D03*
D10*
X278511000Y-199771000D03*
X350647000Y-194437000D03*
D40*
X230886000Y-185547000D03*
X213487000Y-211455000D03*
X228092000Y-211455000D03*
X215519000Y-210566000D03*
X227330000Y-210566000D03*
X214757000Y-209677000D03*
X226568000Y-209677000D03*
X216789000Y-208788000D03*
X225806000Y-208788000D03*
X230378000Y-214122000D03*
X212979000Y-214122000D03*
X285369000Y-235331000D03*
X280923990Y-229870000D03*
X282956000Y-228473000D03*
X305054000Y-190246000D03*
X330835000Y-188468000D03*
X303784000Y-190246000D03*
X331851000Y-189357000D03*
D10*
X362966006Y-218059000D03*
D40*
X287655000Y-198882000D03*
X264795000Y-216789000D03*
X286766000Y-215392000D03*
X337947000Y-188722000D03*
X339090000Y-183515000D03*
X275590000Y-223138996D03*
X288544000Y-197993000D03*
X264795000Y-217932000D03*
X286766000Y-216789000D03*
X337058006Y-187706000D03*
X338201000Y-184404000D03*
X240792000Y-214376000D03*
X240792000Y-213106000D03*
X355600000Y-200024990D03*
X355600000Y-201294994D03*
X289687000Y-229997000D03*
D42*
X328803000Y-234422000D03*
D10*
X259207000Y-175260000D03*
X316611000Y-175260000D03*
X287655000Y-175260000D03*
D40*
X228854000Y-212344000D03*
X214249000Y-212344000D03*
X212217000Y-213233000D03*
X229616000Y-213233000D03*
X214122000Y-202184000D03*
X212598000Y-202184000D03*
X232918000Y-224790000D03*
X232156000Y-225679004D03*
X231394000Y-226568000D03*
X230632000Y-227457000D03*
X229870002Y-228345998D03*
X229108001Y-229234999D03*
X228346000Y-230124000D03*
X227584008Y-231013000D03*
X216027000Y-207899000D03*
X225044000Y-207899000D03*
X224409000Y-245364000D03*
X224409000Y-234315000D03*
X239649000Y-221869000D03*
X269113000Y-213741000D03*
X267081000Y-218440000D03*
X274955000Y-214248990D03*
X341884000Y-217551000D03*
X346329000Y-228854000D03*
X355600000Y-239522000D03*
X234569000Y-209550000D03*
X296799000Y-192278000D03*
X247904000Y-212852000D03*
X363982000Y-201295000D03*
X286766000Y-214122000D03*
X242824000Y-221869000D03*
X265049000Y-219202000D03*
X268224000Y-212598000D03*
X274955000Y-212090000D03*
X203454000Y-178054000D03*
X201803000Y-201168000D03*
X221615000Y-201167984D03*
M02*
