M48
; DRILL file {KiCad 8.0.6} date 2025-01-27T16:53:50-0500
; FORMAT={-:-/ absolute / metric / decimal}
; #@! TF.CreationDate,2025-01-27T16:53:50-05:00
; #@! TF.GenerationSoftware,Kicad,Pcbnew,8.0.6
; #@! TF.FileFunction,MixedPlating,1,2
FMAT,2
METRIC
; #@! TA.AperFunction,Plated,PTH,ViaDrill
T1C0.330
; #@! TA.AperFunction,Plated,PTH,ViaDrill
T2C0.508
; #@! TA.AperFunction,Plated,PTH,ComponentDrill
T3C0.508
; #@! TA.AperFunction,Plated,PTH,ViaDrill
T4C0.610
; #@! TA.AperFunction,Plated,PTH,ComponentDrill
T5C0.610
; #@! TA.AperFunction,Plated,PTH,ViaDrill
T6C0.635
; #@! TA.AperFunction,Plated,PTH,ViaDrill
T7C0.762
; #@! TA.AperFunction,Plated,PTH,ComponentDrill
T8C1.000
; #@! TA.AperFunction,Plated,PTH,ComponentDrill
T9C1.016
; #@! TA.AperFunction,Plated,PTH,ComponentDrill
T10C1.020
; #@! TA.AperFunction,Plated,PTH,ComponentDrill
T11C1.143
; #@! TA.AperFunction,Plated,PTH,ComponentDrill
T12C1.300
; #@! TA.AperFunction,Plated,PTH,ComponentDrill
T13C2.032
; #@! TA.AperFunction,Plated,PTH,ComponentDrill
T14C2.667
; #@! TA.AperFunction,Plated,PTH,ComponentDrill
T15C3.200
; #@! TA.AperFunction,NonPlated,NPTH,ComponentDrill
T16C0.800
; #@! TA.AperFunction,NonPlated,NPTH,ComponentDrill
T17C1.200
; #@! TA.AperFunction,NonPlated,NPTH,ComponentDrill
T18C1.250
; #@! TA.AperFunction,NonPlated,NPTH,ComponentDrill
T19C2.200
; #@! TA.AperFunction,NonPlated,NPTH,ComponentDrill
T20C3.000
; #@! TA.AperFunction,NonPlated,NPTH,ComponentDrill
T21C3.175
%
G90
G05
T1
X69.723Y-94.488
X70.104Y-71.374
X71.374Y-71.374
X80.137Y-106.553
X80.518Y-95.504
X80.899Y-107.442
X81.407Y-104.775
X82.042Y-95.504
X82.169Y-105.664
X82.677Y-102.997
X83.439Y-103.886
X83.947Y-101.219
X84.709Y-102.108
X89.535Y-94.488
X90.297Y-78.867
X92.329Y-127.635
X92.329Y-138.684
X92.583Y-95.25
X92.837Y-112.649
X92.964Y-101.219
X93.726Y-102.108
X94.234Y-125.349
X94.488Y-102.997
X95.25Y-103.886
X95.504Y-124.333
X96.012Y-104.775
X96.266Y-123.444
X96.774Y-105.664
X97.028Y-122.555
X97.536Y-106.553
X97.79Y-121.666
X98.298Y-107.442
X98.552Y-120.777
X98.806Y-78.867
X99.314Y-119.888
X99.441Y-75.565
X100.076Y-118.999
X100.838Y-118.11
X102.489Y-102.87
X103.378Y-83.439
X106.426Y-102.235
X106.807Y-78.867
X107.569Y-115.189
X107.823Y-81.153
X108.585Y-99.06
X108.712Y-106.426
X108.712Y-107.696
X109.855Y-108.458
X110.49Y-109.601
X110.744Y-115.189
X112.395Y-112.649
X113.919Y-100.965
X113.919Y-108.458
X113.919Y-119.253
X114.046Y-69.85
X114.3Y-109.601
X114.427Y-117.221
X114.808Y-78.232
X114.808Y-100.076
X115.062Y-119.38
X115.824Y-106.172
X116.459Y-72.263
X117.602Y-118.745
X117.729Y-110.236
X117.729Y-120.904
X118.618Y-109.347
X118.618Y-122.047
X122.047Y-105.156
X122.047Y-122.936
X123.063Y-104.267
X124.079Y-109.347
X124.079Y-110.744
X125.349Y-126.873
X129.032Y-71.501
X132.715Y-110.109
X132.715Y-111.252
X132.969Y-112.522
X133.223Y-73.025
X133.731Y-125.349
X135.001Y-111.76
X136.144Y-105.918
X137.033Y-107.061
X139.065Y-122.047
X139.7Y-116.84
X140.208Y-122.428
X140.589Y-84.963
X141.478Y-85.852
X142.494Y-69.85
X142.875Y-105.41
X142.875Y-107.569
X143.256Y-81.153
X143.383Y-102.489
X143.51Y-116.84
X144.653Y-102.489
X144.78Y-72.263
X149.162Y-123.19
X150.876Y-121.793
X153.289Y-128.651
X153.416Y-89.916
X154.686Y-115.697
X154.686Y-107.442
X154.686Y-108.712
X154.686Y-110.109
X154.686Y-111.506
X154.686Y-112.903
X154.686Y-114.3
X155.575Y-92.202
X156.464Y-91.313
X157.48Y-71.501
X157.607Y-123.317
X161.671Y-73.025
X163.322Y-89.535
X164.211Y-88.646
X164.719Y-85.598
X165.354Y-90.043
X166.497Y-83.947
X166.624Y-90.043
X169.672Y-83.058
X171.704Y-81.407
X171.704Y-83.566
X172.72Y-62.103
X172.974Y-83.566
X173.228Y-72.263
X185.928Y-71.501
X190.119Y-73.025
X194.056Y-89.535
X197.866Y-80.899
X198.755Y-81.788
X199.771Y-82.677
X199.898Y-70.612
X204.978Y-81.026
X205.867Y-82.042
X206.121Y-77.724
X207.01Y-76.835
X209.042Y-101.6
X209.042Y-92.71
X209.55Y-132.461
X209.804Y-110.871
X214.249Y-122.174
X219.837Y-94.869
X221.107Y-94.488
X221.996Y-93.091
X223.52Y-90.805
X223.52Y-92.075
X223.52Y-93.345
X223.52Y-94.615
X223.52Y-132.842
X231.902Y-94.615
T2
X81.28Y-96.52
X94.107Y-138.684
X103.378Y-113.919
X111.506Y-138.684
X120.396Y-113.919
X120.396Y-96.139
X121.412Y-138.684
X127.127Y-68.58
X127.254Y-114.427
X127.254Y-138.684
X130.937Y-97.79
X134.62Y-81.153
X134.62Y-96.139
X135.128Y-106.807
X137.668Y-126.238
X144.145Y-108.458
X146.431Y-93.091
X149.987Y-127.127
X150.876Y-123.698
X151.13Y-130.81
X155.575Y-68.58
X168.402Y-93.726
X184.531Y-68.58
X192.659Y-93.218
X203.708Y-78.613
X206.248Y-84.455
X206.248Y-91.313
X207.01Y-130.302
X207.137Y-79.756
X210.439Y-100.33
X213.487Y-112.776
X218.567Y-87.757
X228.981Y-86.233
X230.886Y-111.379
T3
X123.302Y-70.836
X123.302Y-73.436
X124.602Y-70.836
X124.602Y-73.436
X151.75Y-70.836
X151.75Y-73.436
X153.05Y-70.836
X153.05Y-73.436
X180.198Y-70.836
X180.198Y-73.436
X181.498Y-70.836
X181.498Y-73.436
T4
X121.92Y-61.976
X121.92Y-64.008
X121.92Y-66.548
X121.92Y-68.58
X121.92Y-75.692
X121.92Y-77.724
X121.92Y-79.756
X123.952Y-61.976
X123.952Y-68.58
X123.952Y-75.692
X123.952Y-79.756
X125.984Y-61.976
X125.984Y-75.692
X125.984Y-79.756
X128.016Y-75.692
X128.016Y-79.756
X130.048Y-75.692
X130.048Y-77.724
X130.048Y-79.756
X132.08Y-75.692
X132.08Y-77.724
X132.08Y-79.756
X135.128Y-79.756
X138.176Y-75.692
X138.176Y-77.724
X138.176Y-79.756
X150.368Y-61.976
X150.368Y-64.008
X150.368Y-66.548
X150.368Y-68.58
X150.368Y-75.692
X150.368Y-77.724
X150.368Y-79.756
X152.4Y-61.976
X152.4Y-68.58
X152.4Y-75.692
X152.4Y-79.756
X154.432Y-61.976
X154.432Y-75.692
X154.432Y-79.756
X156.464Y-75.692
X156.464Y-79.756
X158.496Y-75.692
X158.496Y-77.724
X158.496Y-79.756
X160.528Y-75.692
X160.528Y-77.724
X160.528Y-79.756
X163.576Y-79.756
X166.624Y-75.692
X166.624Y-77.724
X166.624Y-79.756
X178.816Y-75.692
X178.816Y-77.724
X178.816Y-79.756
X179.324Y-61.976
X179.324Y-64.008
X179.324Y-66.548
X179.324Y-68.58
X180.848Y-75.692
X180.848Y-79.756
X181.356Y-61.976
X181.356Y-68.58
X182.88Y-75.692
X182.88Y-79.756
X183.388Y-61.976
X184.912Y-75.692
X184.912Y-79.756
X186.944Y-75.692
X186.944Y-77.724
X186.944Y-79.756
X188.976Y-75.692
X188.976Y-77.724
X188.976Y-79.756
X192.024Y-79.756
X195.072Y-75.692
X195.072Y-77.724
X195.072Y-79.756
T5
X65.786Y-71.882
X65.786Y-74.422
X65.786Y-76.962
X66.04Y-86.36
X66.04Y-88.9
X66.04Y-91.44
X66.04Y-96.52
X71.12Y-86.36
X71.12Y-88.9
X71.12Y-91.44
X71.12Y-96.52
X72.39Y-74.93
X72.39Y-79.502
X72.39Y-82.042
X73.66Y-96.52
X73.66Y-111.76
X73.66Y-116.84
X73.66Y-127.0
X74.93Y-79.502
X75.184Y-72.136
X77.724Y-72.136
X80.264Y-72.136
X81.28Y-80.264
X81.28Y-111.76
X81.28Y-116.84
X81.28Y-127.0
X82.804Y-72.136
X82.804Y-74.676
X82.804Y-77.216
X83.312Y-80.264
X85.344Y-74.676
X85.344Y-77.216
X86.36Y-93.345
X88.9Y-81.28
X88.9Y-99.06
X88.9Y-111.76
X88.9Y-116.84
X88.9Y-127.0
X92.964Y-72.136
X94.615Y-127.0
X95.504Y-72.136
X96.52Y-81.28
X96.52Y-111.76
X96.52Y-116.84
X97.79Y-73.66
X101.6Y-78.74
X101.6Y-81.28
X104.14Y-78.74
X104.14Y-94.488
X104.14Y-101.6
X104.14Y-104.14
X106.426Y-81.28
X106.426Y-83.566
X106.68Y-94.488
X106.68Y-104.14
X106.68Y-121.92
X106.68Y-127.0
X108.712Y-83.566
X109.22Y-73.66
X109.22Y-94.488
X109.22Y-101.6
X109.22Y-104.14
X109.22Y-111.76
X109.22Y-121.92
X109.22Y-127.0
X111.379Y-75.819
X113.157Y-77.597
X114.046Y-138.684
X114.3Y-94.488
X116.84Y-94.488
X116.84Y-101.6
X116.84Y-104.14
X116.84Y-111.76
X118.618Y-138.684
X121.92Y-107.95
X121.92Y-111.76
X123.19Y-119.38
X123.19Y-123.952
X123.19Y-126.492
X123.302Y-72.136
X124.46Y-94.488
X124.46Y-101.6
X124.602Y-72.136
X127.0Y-101.6
X128.27Y-119.38
X128.27Y-123.952
X129.54Y-94.488
X130.81Y-119.38
X130.81Y-123.952
X131.445Y-112.522
X132.08Y-82.55
X132.08Y-94.488
X132.842Y-107.95
X134.62Y-134.62
X135.89Y-101.6
X135.89Y-119.38
X135.89Y-123.952
X138.43Y-88.392
X139.7Y-129.54
X139.7Y-134.62
X142.24Y-129.54
X143.51Y-88.392
X144.78Y-129.54
X144.78Y-134.62
X145.034Y-121.92
X146.05Y-88.392
X147.32Y-97.79
X148.59Y-88.392
X148.59Y-91.44
X149.86Y-97.79
X151.75Y-72.136
X152.273Y-105.41
X152.4Y-97.79
X153.05Y-72.136
X161.29Y-83.82
X162.56Y-99.06
X162.56Y-101.6
X162.56Y-104.14
X162.56Y-116.84
X162.56Y-119.38
X162.56Y-121.92
X167.64Y-137.16
X170.18Y-121.92
X172.593Y-100.965
X172.72Y-94.996
X175.26Y-94.996
X177.673Y-100.965
X180.198Y-72.136
X180.34Y-94.996
X181.498Y-72.136
X182.88Y-94.996
X187.96Y-94.996
X190.491Y-90.179
X190.5Y-94.996
X198.12Y-60.452
X198.12Y-109.22
X198.12Y-111.76
X198.12Y-119.38
X198.12Y-121.92
X200.66Y-60.452
X200.66Y-68.58
X200.66Y-99.06
X200.66Y-137.16
X201.93Y-82.55
X203.2Y-60.452
X204.47Y-89.916
X204.47Y-100.076
X207.01Y-100.076
X207.518Y-72.898
X207.772Y-82.55
X207.772Y-90.932
X208.28Y-60.452
X208.28Y-109.22
X208.28Y-111.76
X208.28Y-119.38
X209.296Y-89.154
X209.55Y-129.54
X210.82Y-60.452
X211.836Y-80.01
X211.836Y-82.55
X211.836Y-90.17
X211.836Y-92.71
X211.836Y-95.25
X212.09Y-118.11
X213.36Y-60.452
X213.36Y-129.54
X215.9Y-101.6
X216.408Y-87.63
X216.408Y-95.25
X218.44Y-60.452
X218.44Y-101.6
X220.98Y-60.452
X220.98Y-111.76
X220.98Y-137.16
X222.504Y-97.282
X223.52Y-60.452
X223.52Y-87.63
X226.06Y-137.16
X227.076Y-109.855
X231.14Y-101.6
T6
X196.723Y-127.742
T7
X112.395Y-97.79
X136.525Y-82.804
X136.525Y-97.79
T8
X63.5Y-106.68
X63.5Y-109.22
X63.5Y-111.76
X63.5Y-114.3
X63.5Y-116.84
X63.5Y-119.38
X63.5Y-121.92
X63.5Y-124.46
X63.5Y-127.0
X63.5Y-129.54
X115.824Y-67.056
X118.364Y-67.056
X144.272Y-67.056
X146.812Y-67.056
T9
X81.534Y-66.167
X81.534Y-68.707
X84.074Y-66.167
X84.074Y-68.707
X86.614Y-66.167
X86.614Y-68.707
X89.154Y-66.167
X89.154Y-68.707
X91.694Y-66.167
X91.694Y-68.707
X94.234Y-66.167
X94.234Y-68.707
X96.774Y-66.167
X96.774Y-68.707
X99.314Y-66.167
X99.314Y-68.707
X210.947Y-106.426
X213.487Y-106.426
X216.027Y-106.426
X218.567Y-106.426
X221.107Y-106.426
X223.647Y-106.426
X226.187Y-106.426
X228.727Y-106.426
X231.267Y-106.426
T10
X72.39Y-77.089
X74.93Y-77.089
X77.47Y-77.089
X80.01Y-77.089
X218.012Y-98.552
X223.012Y-102.152
X228.012Y-98.552
T11
X210.16Y-71.526
X210.16Y-74.93
X210.16Y-78.334
X214.16Y-73.228
X214.16Y-76.632
T12
X62.484Y-69.342
X62.484Y-74.422
X62.484Y-79.502
T13
X226.822Y-69.85
X226.822Y-74.93
X226.822Y-80.01
X231.902Y-69.85
X231.902Y-74.93
X231.902Y-80.01
T14
X222.148Y-69.787
X222.148Y-80.073
T15
X72.624Y-67.707
X108.224Y-67.707
T16
X87.067Y-88.913
X87.067Y-133.363
T17
X131.267Y-88.913
X131.267Y-133.363
T18
X77.47Y-74.929
T19
X210.947Y-135.89
T20
X223.812Y-122.247
T21
X62.255Y-62.357
X62.255Y-86.36
X62.255Y-135.89
X156.235Y-86.36
X156.235Y-135.89
X163.195Y-94.996
X163.195Y-136.652
X204.851Y-94.996
X204.851Y-136.652
X231.267Y-62.357
X231.267Y-135.89
M30
