G04 #@! TF.FileFunction,Copper,L1,Top,Signal*
%FSLAX46Y46*%
G04 Gerber Fmt 4.6, Leading zero omitted, Abs format (unit mm)*
G04 Created by KiCad (PCBNEW 4.0.7) date Sun Apr 29 11:31:08 2018*
%MOMM*%
%LPD*%
G01*
G04 APERTURE LIST*
%ADD10C,0.100000*%
%ADD11C,1.143000*%
%ADD12C,1.524000*%
%ADD13C,4.600000*%
%ADD14C,1.651000*%
%ADD15R,1.200000X1.600000*%
%ADD16C,0.304800*%
%ADD17C,1.016000*%
G04 APERTURE END LIST*
D10*
D11*
X134620000Y-104140000D03*
X134620000Y-99060000D03*
X134620000Y-101600000D03*
X129540000Y-101600000D03*
D12*
X139065000Y-105410000D03*
X141605000Y-102870000D03*
X141605000Y-100330000D03*
X139065000Y-97790000D03*
D13*
X153250000Y-105600000D03*
X153250000Y-97600000D03*
D14*
X146760000Y-100350000D03*
X148760000Y-100350000D03*
X146760000Y-102850000D03*
X148760000Y-102850000D03*
D15*
X137465000Y-107823000D03*
X140665000Y-107823000D03*
D12*
X136525000Y-102870000D03*
D16*
X146760000Y-102850000D02*
X147493301Y-103583301D01*
X147493301Y-103583301D02*
X147493301Y-104042899D01*
X147493301Y-104042899D02*
X147091400Y-104444800D01*
X147091400Y-104444800D02*
X141274800Y-104444800D01*
X141274800Y-104444800D02*
X139700000Y-102870000D01*
X139700000Y-102870000D02*
X139700000Y-102235000D01*
X139700000Y-102235000D02*
X140068301Y-101866699D01*
X140068301Y-101866699D02*
X140601699Y-101866699D01*
X140601699Y-101866699D02*
X141605000Y-102870000D01*
X148760000Y-102850000D02*
X148026699Y-103583301D01*
X148026699Y-103583301D02*
X148026699Y-104271501D01*
X148026699Y-104271501D02*
X147320000Y-104978200D01*
X147320000Y-104978200D02*
X141020800Y-104978200D01*
X141020800Y-104978200D02*
X139166600Y-103124000D01*
X139166600Y-103124000D02*
X139166600Y-102006400D01*
X139166600Y-102006400D02*
X139852400Y-101320600D01*
X139852400Y-101320600D02*
X140614400Y-101320600D01*
X140614400Y-101320600D02*
X141605000Y-100330000D01*
D17*
X137465000Y-105842000D02*
X137465000Y-107823000D01*
X136525000Y-102870000D02*
X136525000Y-104902000D01*
X136525000Y-104902000D02*
X137465000Y-105842000D01*
X139065000Y-105410000D02*
X140081000Y-105410000D01*
X140081000Y-105410000D02*
X140665000Y-105994000D01*
X140665000Y-105994000D02*
X140665000Y-107823000D01*
M02*
