G04 #@! TF.GenerationSoftware,KiCad,Pcbnew,8.0.6*
G04 #@! TF.CreationDate,2025-01-18T08:25:15-05:00*
G04 #@! TF.ProjectId,usbbbrkout,75736262-6272-46b6-9f75-742e6b696361,v1.0.0*
G04 #@! TF.SameCoordinates,Original*
G04 #@! TF.FileFunction,Copper,L1,Top*
G04 #@! TF.FilePolarity,Positive*
%FSLAX46Y46*%
G04 Gerber Fmt 4.6, Leading zero omitted, Abs format (unit mm)*
G04 Created by KiCad (PCBNEW 8.0.6) date 2025-01-18 08:25:15*
%MOMM*%
%LPD*%
G01*
G04 APERTURE LIST*
G04 Aperture macros list*
%AMRoundRect*
0 Rectangle with rounded corners*
0 $1 Rounding radius*
0 $2 $3 $4 $5 $6 $7 $8 $9 X,Y pos of 4 corners*
0 Add a 4 corners polygon primitive as box body*
4,1,4,$2,$3,$4,$5,$6,$7,$8,$9,$2,$3,0*
0 Add four circle primitives for the rounded corners*
1,1,$1+$1,$2,$3*
1,1,$1+$1,$4,$5*
1,1,$1+$1,$6,$7*
1,1,$1+$1,$8,$9*
0 Add four rect primitives between the rounded corners*
20,1,$1+$1,$2,$3,$4,$5,0*
20,1,$1+$1,$4,$5,$6,$7,0*
20,1,$1+$1,$6,$7,$8,$9,0*
20,1,$1+$1,$8,$9,$2,$3,0*%
G04 Aperture macros list end*
G04 #@! TA.AperFunction,ComponentPad*
%ADD10C,1.016000*%
G04 #@! TD*
G04 #@! TA.AperFunction,ComponentPad*
%ADD11C,1.524000*%
G04 #@! TD*
G04 #@! TA.AperFunction,ComponentPad*
%ADD12RoundRect,0.250000X-0.575500X-0.575500X0.575500X-0.575500X0.575500X0.575500X-0.575500X0.575500X0*%
G04 #@! TD*
G04 #@! TA.AperFunction,ComponentPad*
%ADD13C,1.651000*%
G04 #@! TD*
G04 #@! TA.AperFunction,ComponentPad*
%ADD14C,4.600000*%
G04 #@! TD*
G04 #@! TA.AperFunction,SMDPad,CuDef*
%ADD15RoundRect,0.250000X-0.350000X-0.600000X0.350000X-0.600000X0.350000X0.600000X-0.350000X0.600000X0*%
G04 #@! TD*
G04 #@! TA.AperFunction,ViaPad*
%ADD16C,1.524000*%
G04 #@! TD*
G04 #@! TA.AperFunction,Conductor*
%ADD17C,0.304800*%
G04 #@! TD*
G04 #@! TA.AperFunction,Conductor*
%ADD18C,1.016000*%
G04 #@! TD*
G04 APERTURE END LIST*
D10*
X129540000Y-101600000D03*
X134620000Y-101600000D03*
X134620000Y-99060000D03*
X134620000Y-104140000D03*
D11*
X139065000Y-105410000D03*
X141605000Y-102870000D03*
X141605000Y-100330000D03*
X139065000Y-97790000D03*
D12*
X146760000Y-100350000D03*
D13*
X146760000Y-102850000D03*
X148760000Y-102850000D03*
X148760000Y-100350000D03*
D14*
X153250000Y-97600000D03*
X153250000Y-105600000D03*
D15*
X137465000Y-107823000D03*
X140665000Y-107823000D03*
D16*
X136525000Y-102870000D03*
D17*
X140068301Y-101866699D02*
X140601699Y-101866699D01*
X147091400Y-104444800D02*
X141274800Y-104444800D01*
X141274800Y-104444800D02*
X139700000Y-102870000D01*
X140601699Y-101866699D02*
X141605000Y-102870000D01*
X139700000Y-102870000D02*
X139700000Y-102235000D01*
X147493301Y-103583301D02*
X147493301Y-104042899D01*
X139700000Y-102235000D02*
X140068301Y-101866699D01*
X146760000Y-102850000D02*
X147493301Y-103583301D01*
X147493301Y-104042899D02*
X147091400Y-104444800D01*
X139166600Y-103124000D02*
X139166600Y-102006400D01*
X141020800Y-104978200D02*
X139166600Y-103124000D01*
X148026699Y-104271501D02*
X147320000Y-104978200D01*
X140614400Y-101320600D02*
X141605000Y-100330000D01*
X148760000Y-102850000D02*
X148026699Y-103583301D01*
X148026699Y-103583301D02*
X148026699Y-104271501D01*
X139166600Y-102006400D02*
X139852400Y-101320600D01*
X147320000Y-104978200D02*
X141020800Y-104978200D01*
X139852400Y-101320600D02*
X140614400Y-101320600D01*
D18*
X137465000Y-105842000D02*
X137465000Y-107823000D01*
X136525000Y-104902000D02*
X137465000Y-105842000D01*
X136525000Y-102870000D02*
X136525000Y-104902000D01*
X140665000Y-105994000D02*
X140665000Y-107823000D01*
X140081000Y-105410000D02*
X140665000Y-105994000D01*
X139065000Y-105410000D02*
X140081000Y-105410000D01*
M02*
