G04 #@! TF.GenerationSoftware,KiCad,Pcbnew,(5.1.5)*
G04 #@! TF.CreationDate,2019-12-08T12:45:36-05:00*
G04 #@! TF.ProjectId,usbbbrkout,75736262-6272-46b6-9f75-742e6b696361,v1.0.0*
G04 #@! TF.SameCoordinates,Original*
G04 #@! TF.FileFunction,Copper,L2,Inr*
G04 #@! TF.FilePolarity,Positive*
%FSLAX46Y46*%
G04 Gerber Fmt 4.6, Leading zero omitted, Abs format (unit mm)*
G04 Created by KiCad (PCBNEW (5.1.5)) date 2019-12-08 12:45:36*
%MOMM*%
%LPD*%
G04 APERTURE LIST*
%ADD10C,1.143000*%
%ADD11C,1.524000*%
%ADD12C,4.600000*%
%ADD13C,1.651000*%
%ADD14C,0.254000*%
G04 APERTURE END LIST*
D10*
X134620000Y-104140000D03*
X134620000Y-99060000D03*
X134620000Y-101600000D03*
X129540000Y-101600000D03*
D11*
X139065000Y-105410000D03*
X141605000Y-102870000D03*
X141605000Y-100330000D03*
X139065000Y-97790000D03*
D12*
X153250000Y-105600000D03*
X153250000Y-97600000D03*
D13*
X146760000Y-100350000D03*
X148760000Y-100350000D03*
X146760000Y-102850000D03*
X148760000Y-102850000D03*
D11*
X136525000Y-102870000D03*
D14*
G36*
X133096255Y-92431053D02*
G01*
X133093798Y-92456000D01*
X133103601Y-92555535D01*
X133132635Y-92651246D01*
X133179783Y-92739453D01*
X133243233Y-92816767D01*
X133320547Y-92880217D01*
X133408754Y-92927365D01*
X133504465Y-92956399D01*
X133579063Y-92963746D01*
X133604000Y-92966202D01*
X133628937Y-92963746D01*
X138659063Y-92963746D01*
X138684000Y-92966202D01*
X138708937Y-92963746D01*
X138783535Y-92956399D01*
X138879246Y-92927365D01*
X138967453Y-92880217D01*
X139044767Y-92816767D01*
X139108217Y-92739453D01*
X139155365Y-92651246D01*
X139184399Y-92555535D01*
X139194202Y-92456000D01*
X139191746Y-92431063D01*
X139191746Y-91947746D01*
X155492254Y-91947746D01*
X155492254Y-96113636D01*
X155175046Y-95854559D01*
X153429605Y-97600000D01*
X155175046Y-99345441D01*
X155492254Y-99086364D01*
X155492255Y-104113636D01*
X155175046Y-103854559D01*
X153429605Y-105600000D01*
X155175046Y-107345441D01*
X155492255Y-107086364D01*
X155492255Y-111252254D01*
X139191746Y-111252254D01*
X139191746Y-110768937D01*
X139194202Y-110744000D01*
X139184399Y-110644465D01*
X139155365Y-110548754D01*
X139108217Y-110460547D01*
X139044767Y-110383233D01*
X138967453Y-110319783D01*
X138879246Y-110272635D01*
X138783535Y-110243601D01*
X138708937Y-110236254D01*
X138684000Y-110233798D01*
X138659063Y-110236254D01*
X133628937Y-110236254D01*
X133604000Y-110233798D01*
X133579063Y-110236254D01*
X133504465Y-110243601D01*
X133408754Y-110272635D01*
X133320547Y-110319783D01*
X133243233Y-110383233D01*
X133179783Y-110460547D01*
X133132635Y-110548754D01*
X133103601Y-110644465D01*
X133093798Y-110744000D01*
X133096255Y-110768947D01*
X133096254Y-111252254D01*
X128777746Y-111252254D01*
X128777746Y-107731103D01*
X129857500Y-107731103D01*
X129857500Y-108168897D01*
X129942909Y-108598279D01*
X130110446Y-109002749D01*
X130353671Y-109366761D01*
X130663239Y-109676329D01*
X131027251Y-109919554D01*
X131431721Y-110087091D01*
X131861103Y-110172500D01*
X132298897Y-110172500D01*
X132728279Y-110087091D01*
X133132749Y-109919554D01*
X133496761Y-109676329D01*
X133806329Y-109366761D01*
X134049554Y-109002749D01*
X134217091Y-108598279D01*
X134302500Y-108168897D01*
X134302500Y-107731103D01*
X134261513Y-107525046D01*
X151504559Y-107525046D01*
X151771178Y-107851489D01*
X152238837Y-108096731D01*
X152745354Y-108246025D01*
X153271264Y-108293634D01*
X153796357Y-108237729D01*
X154300454Y-108080456D01*
X154728822Y-107851489D01*
X154995441Y-107525046D01*
X153250000Y-105779605D01*
X151504559Y-107525046D01*
X134261513Y-107525046D01*
X134217091Y-107301721D01*
X134049554Y-106897251D01*
X133806329Y-106533239D01*
X133496761Y-106223671D01*
X133132749Y-105980446D01*
X132728279Y-105812909D01*
X132298897Y-105727500D01*
X131861103Y-105727500D01*
X131431721Y-105812909D01*
X131027251Y-105980446D01*
X130663239Y-106223671D01*
X130353671Y-106533239D01*
X130110446Y-106897251D01*
X129942909Y-107301721D01*
X129857500Y-107731103D01*
X128777746Y-107731103D01*
X128777746Y-105297449D01*
X137922254Y-105297449D01*
X137922254Y-105522551D01*
X137966169Y-105743327D01*
X138052312Y-105951293D01*
X138177371Y-106138458D01*
X138336542Y-106297629D01*
X138523707Y-106422688D01*
X138731673Y-106508831D01*
X138952449Y-106552746D01*
X139177551Y-106552746D01*
X139398327Y-106508831D01*
X139606293Y-106422688D01*
X139793458Y-106297629D01*
X139952629Y-106138458D01*
X140077688Y-105951293D01*
X140163831Y-105743327D01*
X140188110Y-105621264D01*
X150556366Y-105621264D01*
X150612271Y-106146357D01*
X150769544Y-106650454D01*
X150998511Y-107078822D01*
X151324954Y-107345441D01*
X153070395Y-105600000D01*
X151324954Y-103854559D01*
X150998511Y-104121178D01*
X150753269Y-104588837D01*
X150603975Y-105095354D01*
X150556366Y-105621264D01*
X140188110Y-105621264D01*
X140207746Y-105522551D01*
X140207746Y-105297449D01*
X140163831Y-105076673D01*
X140077688Y-104868707D01*
X139952629Y-104681542D01*
X139793458Y-104522371D01*
X139606293Y-104397312D01*
X139398327Y-104311169D01*
X139177551Y-104267254D01*
X138952449Y-104267254D01*
X138731673Y-104311169D01*
X138523707Y-104397312D01*
X138336542Y-104522371D01*
X138177371Y-104681542D01*
X138052312Y-104868707D01*
X137966169Y-105076673D01*
X137922254Y-105297449D01*
X128777746Y-105297449D01*
X128777746Y-104832439D01*
X134107166Y-104832439D01*
X134165296Y-104981911D01*
X134338282Y-105054443D01*
X134522094Y-105091832D01*
X134709668Y-105092644D01*
X134893797Y-105056845D01*
X135067403Y-104985813D01*
X135074704Y-104981911D01*
X135132834Y-104832439D01*
X134620000Y-104319605D01*
X134107166Y-104832439D01*
X128777746Y-104832439D01*
X128777746Y-104229668D01*
X133667356Y-104229668D01*
X133703155Y-104413797D01*
X133774187Y-104587403D01*
X133778089Y-104594704D01*
X133927561Y-104652834D01*
X134440395Y-104140000D01*
X134799605Y-104140000D01*
X135312439Y-104652834D01*
X135461911Y-104594704D01*
X135534443Y-104421718D01*
X135571832Y-104237906D01*
X135572644Y-104050332D01*
X135536845Y-103866203D01*
X135465813Y-103692597D01*
X135461911Y-103685296D01*
X135312439Y-103627166D01*
X134799605Y-104140000D01*
X134440395Y-104140000D01*
X133927561Y-103627166D01*
X133778089Y-103685296D01*
X133705557Y-103858282D01*
X133668168Y-104042094D01*
X133667356Y-104229668D01*
X128777746Y-104229668D01*
X128777746Y-103447561D01*
X134107166Y-103447561D01*
X134620000Y-103960395D01*
X135132834Y-103447561D01*
X135074704Y-103298089D01*
X134901718Y-103225557D01*
X134717906Y-103188168D01*
X134530332Y-103187356D01*
X134346203Y-103223155D01*
X134172597Y-103294187D01*
X134165296Y-103298089D01*
X134107166Y-103447561D01*
X128777746Y-103447561D01*
X128777746Y-102757449D01*
X135382254Y-102757449D01*
X135382254Y-102982551D01*
X135426169Y-103203327D01*
X135512312Y-103411293D01*
X135637371Y-103598458D01*
X135796542Y-103757629D01*
X135983707Y-103882688D01*
X136191673Y-103968831D01*
X136412449Y-104012746D01*
X136637551Y-104012746D01*
X136858327Y-103968831D01*
X137066293Y-103882688D01*
X137253458Y-103757629D01*
X137412629Y-103598458D01*
X137537688Y-103411293D01*
X137623831Y-103203327D01*
X137667746Y-102982551D01*
X137667746Y-102757449D01*
X140462254Y-102757449D01*
X140462254Y-102982551D01*
X140506169Y-103203327D01*
X140592312Y-103411293D01*
X140717371Y-103598458D01*
X140876542Y-103757629D01*
X141063707Y-103882688D01*
X141271673Y-103968831D01*
X141492449Y-104012746D01*
X141717551Y-104012746D01*
X141938327Y-103968831D01*
X142146293Y-103882688D01*
X142333458Y-103757629D01*
X142492629Y-103598458D01*
X142617688Y-103411293D01*
X142703831Y-103203327D01*
X142747746Y-102982551D01*
X142747746Y-102757449D01*
X142742524Y-102731195D01*
X145553754Y-102731195D01*
X145553754Y-102968805D01*
X145600109Y-103201849D01*
X145691038Y-103421372D01*
X145823047Y-103618937D01*
X145991063Y-103786953D01*
X146188628Y-103918962D01*
X146408151Y-104009891D01*
X146641195Y-104056246D01*
X146878805Y-104056246D01*
X147111849Y-104009891D01*
X147331372Y-103918962D01*
X147528937Y-103786953D01*
X147696953Y-103618937D01*
X147760000Y-103524581D01*
X147823047Y-103618937D01*
X147991063Y-103786953D01*
X148188628Y-103918962D01*
X148408151Y-104009891D01*
X148641195Y-104056246D01*
X148878805Y-104056246D01*
X149111849Y-104009891D01*
X149331372Y-103918962D01*
X149528937Y-103786953D01*
X149640936Y-103674954D01*
X151504559Y-103674954D01*
X153250000Y-105420395D01*
X154995441Y-103674954D01*
X154728822Y-103348511D01*
X154261163Y-103103269D01*
X153754646Y-102953975D01*
X153228736Y-102906366D01*
X152703643Y-102962271D01*
X152199546Y-103119544D01*
X151771178Y-103348511D01*
X151504559Y-103674954D01*
X149640936Y-103674954D01*
X149696953Y-103618937D01*
X149828962Y-103421372D01*
X149919891Y-103201849D01*
X149966246Y-102968805D01*
X149966246Y-102731195D01*
X149919891Y-102498151D01*
X149828962Y-102278628D01*
X149696953Y-102081063D01*
X149528937Y-101913047D01*
X149331372Y-101781038D01*
X149111849Y-101690109D01*
X148878805Y-101643754D01*
X148641195Y-101643754D01*
X148408151Y-101690109D01*
X148188628Y-101781038D01*
X147991063Y-101913047D01*
X147823047Y-102081063D01*
X147760000Y-102175419D01*
X147696953Y-102081063D01*
X147528937Y-101913047D01*
X147331372Y-101781038D01*
X147111849Y-101690109D01*
X146878805Y-101643754D01*
X146641195Y-101643754D01*
X146408151Y-101690109D01*
X146188628Y-101781038D01*
X145991063Y-101913047D01*
X145823047Y-102081063D01*
X145691038Y-102278628D01*
X145600109Y-102498151D01*
X145553754Y-102731195D01*
X142742524Y-102731195D01*
X142703831Y-102536673D01*
X142617688Y-102328707D01*
X142492629Y-102141542D01*
X142333458Y-101982371D01*
X142146293Y-101857312D01*
X141938327Y-101771169D01*
X141717551Y-101727254D01*
X141492449Y-101727254D01*
X141271673Y-101771169D01*
X141063707Y-101857312D01*
X140876542Y-101982371D01*
X140717371Y-102141542D01*
X140592312Y-102328707D01*
X140506169Y-102536673D01*
X140462254Y-102757449D01*
X137667746Y-102757449D01*
X137623831Y-102536673D01*
X137537688Y-102328707D01*
X137412629Y-102141542D01*
X137253458Y-101982371D01*
X137066293Y-101857312D01*
X136858327Y-101771169D01*
X136637551Y-101727254D01*
X136412449Y-101727254D01*
X136191673Y-101771169D01*
X135983707Y-101857312D01*
X135796542Y-101982371D01*
X135637371Y-102141542D01*
X135512312Y-102328707D01*
X135426169Y-102536673D01*
X135382254Y-102757449D01*
X128777746Y-102757449D01*
X128777746Y-102292439D01*
X134107166Y-102292439D01*
X134165296Y-102441911D01*
X134338282Y-102514443D01*
X134522094Y-102551832D01*
X134709668Y-102552644D01*
X134893797Y-102516845D01*
X135067403Y-102445813D01*
X135074704Y-102441911D01*
X135132834Y-102292439D01*
X134620000Y-101779605D01*
X134107166Y-102292439D01*
X128777746Y-102292439D01*
X128777746Y-101689668D01*
X133667356Y-101689668D01*
X133703155Y-101873797D01*
X133774187Y-102047403D01*
X133778089Y-102054704D01*
X133927561Y-102112834D01*
X134440395Y-101600000D01*
X134799605Y-101600000D01*
X135312439Y-102112834D01*
X135461911Y-102054704D01*
X135534443Y-101881718D01*
X135571832Y-101697906D01*
X135572644Y-101510332D01*
X135536845Y-101326203D01*
X135465813Y-101152597D01*
X135461911Y-101145296D01*
X135312439Y-101087166D01*
X134799605Y-101600000D01*
X134440395Y-101600000D01*
X133927561Y-101087166D01*
X133778089Y-101145296D01*
X133705557Y-101318282D01*
X133668168Y-101502094D01*
X133667356Y-101689668D01*
X128777746Y-101689668D01*
X128777746Y-100907561D01*
X134107166Y-100907561D01*
X134620000Y-101420395D01*
X135132834Y-100907561D01*
X135074704Y-100758089D01*
X134901718Y-100685557D01*
X134717906Y-100648168D01*
X134530332Y-100647356D01*
X134346203Y-100683155D01*
X134172597Y-100754187D01*
X134165296Y-100758089D01*
X134107166Y-100907561D01*
X128777746Y-100907561D01*
X128777746Y-100217449D01*
X140462254Y-100217449D01*
X140462254Y-100442551D01*
X140506169Y-100663327D01*
X140592312Y-100871293D01*
X140717371Y-101058458D01*
X140876542Y-101217629D01*
X141063707Y-101342688D01*
X141271673Y-101428831D01*
X141492449Y-101472746D01*
X141717551Y-101472746D01*
X141938327Y-101428831D01*
X142146293Y-101342688D01*
X142333458Y-101217629D01*
X142492629Y-101058458D01*
X142617688Y-100871293D01*
X142703831Y-100663327D01*
X142747746Y-100442551D01*
X142747746Y-100231195D01*
X145553754Y-100231195D01*
X145553754Y-100468805D01*
X145600109Y-100701849D01*
X145691038Y-100921372D01*
X145823047Y-101118937D01*
X145991063Y-101286953D01*
X146188628Y-101418962D01*
X146408151Y-101509891D01*
X146641195Y-101556246D01*
X146878805Y-101556246D01*
X147111849Y-101509891D01*
X147331372Y-101418962D01*
X147528937Y-101286953D01*
X147591444Y-101224446D01*
X148065159Y-101224446D01*
X148154222Y-101399846D01*
X148370677Y-101497855D01*
X148602093Y-101551752D01*
X148839578Y-101559467D01*
X149074004Y-101520702D01*
X149296364Y-101436948D01*
X149365778Y-101399846D01*
X149454841Y-101224446D01*
X148760000Y-100529605D01*
X148065159Y-101224446D01*
X147591444Y-101224446D01*
X147696953Y-101118937D01*
X147781699Y-100992106D01*
X147885554Y-101044841D01*
X148580395Y-100350000D01*
X148939605Y-100350000D01*
X149634446Y-101044841D01*
X149809846Y-100955778D01*
X149907855Y-100739323D01*
X149961752Y-100507907D01*
X149969467Y-100270422D01*
X149930702Y-100035996D01*
X149846948Y-99813636D01*
X149809846Y-99744222D01*
X149634446Y-99655159D01*
X148939605Y-100350000D01*
X148580395Y-100350000D01*
X147885554Y-99655159D01*
X147781699Y-99707894D01*
X147696953Y-99581063D01*
X147591444Y-99475554D01*
X148065159Y-99475554D01*
X148760000Y-100170395D01*
X149405349Y-99525046D01*
X151504559Y-99525046D01*
X151771178Y-99851489D01*
X152238837Y-100096731D01*
X152745354Y-100246025D01*
X153271264Y-100293634D01*
X153796357Y-100237729D01*
X154300454Y-100080456D01*
X154728822Y-99851489D01*
X154995441Y-99525046D01*
X153250000Y-97779605D01*
X151504559Y-99525046D01*
X149405349Y-99525046D01*
X149454841Y-99475554D01*
X149365778Y-99300154D01*
X149149323Y-99202145D01*
X148917907Y-99148248D01*
X148680422Y-99140533D01*
X148445996Y-99179298D01*
X148223636Y-99263052D01*
X148154222Y-99300154D01*
X148065159Y-99475554D01*
X147591444Y-99475554D01*
X147528937Y-99413047D01*
X147331372Y-99281038D01*
X147111849Y-99190109D01*
X146878805Y-99143754D01*
X146641195Y-99143754D01*
X146408151Y-99190109D01*
X146188628Y-99281038D01*
X145991063Y-99413047D01*
X145823047Y-99581063D01*
X145691038Y-99778628D01*
X145600109Y-99998151D01*
X145553754Y-100231195D01*
X142747746Y-100231195D01*
X142747746Y-100217449D01*
X142703831Y-99996673D01*
X142617688Y-99788707D01*
X142492629Y-99601542D01*
X142333458Y-99442371D01*
X142146293Y-99317312D01*
X141938327Y-99231169D01*
X141717551Y-99187254D01*
X141492449Y-99187254D01*
X141271673Y-99231169D01*
X141063707Y-99317312D01*
X140876542Y-99442371D01*
X140717371Y-99601542D01*
X140592312Y-99788707D01*
X140506169Y-99996673D01*
X140462254Y-100217449D01*
X128777746Y-100217449D01*
X128777746Y-99752439D01*
X134107166Y-99752439D01*
X134165296Y-99901911D01*
X134338282Y-99974443D01*
X134522094Y-100011832D01*
X134709668Y-100012644D01*
X134893797Y-99976845D01*
X135067403Y-99905813D01*
X135074704Y-99901911D01*
X135132834Y-99752439D01*
X134620000Y-99239605D01*
X134107166Y-99752439D01*
X128777746Y-99752439D01*
X128777746Y-99149668D01*
X133667356Y-99149668D01*
X133703155Y-99333797D01*
X133774187Y-99507403D01*
X133778089Y-99514704D01*
X133927561Y-99572834D01*
X134440395Y-99060000D01*
X134799605Y-99060000D01*
X135312439Y-99572834D01*
X135461911Y-99514704D01*
X135534443Y-99341718D01*
X135571832Y-99157906D01*
X135572644Y-98970332D01*
X135536845Y-98786203D01*
X135468439Y-98619014D01*
X138415591Y-98619014D01*
X138496947Y-98787923D01*
X138702547Y-98879570D01*
X138922076Y-98929345D01*
X139147097Y-98935336D01*
X139368963Y-98897312D01*
X139579149Y-98816735D01*
X139633053Y-98787923D01*
X139714409Y-98619014D01*
X139065000Y-97969605D01*
X138415591Y-98619014D01*
X135468439Y-98619014D01*
X135465813Y-98612597D01*
X135461911Y-98605296D01*
X135312439Y-98547166D01*
X134799605Y-99060000D01*
X134440395Y-99060000D01*
X133927561Y-98547166D01*
X133778089Y-98605296D01*
X133705557Y-98778282D01*
X133668168Y-98962094D01*
X133667356Y-99149668D01*
X128777746Y-99149668D01*
X128777746Y-98367561D01*
X134107166Y-98367561D01*
X134620000Y-98880395D01*
X135132834Y-98367561D01*
X135074704Y-98218089D01*
X134901718Y-98145557D01*
X134717906Y-98108168D01*
X134530332Y-98107356D01*
X134346203Y-98143155D01*
X134172597Y-98214187D01*
X134165296Y-98218089D01*
X134107166Y-98367561D01*
X128777746Y-98367561D01*
X128777746Y-97872097D01*
X137919664Y-97872097D01*
X137957688Y-98093963D01*
X138038265Y-98304149D01*
X138067077Y-98358053D01*
X138235986Y-98439409D01*
X138885395Y-97790000D01*
X139244605Y-97790000D01*
X139894014Y-98439409D01*
X140062923Y-98358053D01*
X140154570Y-98152453D01*
X140204345Y-97932924D01*
X140210336Y-97707903D01*
X140195488Y-97621264D01*
X150556366Y-97621264D01*
X150612271Y-98146357D01*
X150769544Y-98650454D01*
X150998511Y-99078822D01*
X151324954Y-99345441D01*
X153070395Y-97600000D01*
X151324954Y-95854559D01*
X150998511Y-96121178D01*
X150753269Y-96588837D01*
X150603975Y-97095354D01*
X150556366Y-97621264D01*
X140195488Y-97621264D01*
X140172312Y-97486037D01*
X140091735Y-97275851D01*
X140062923Y-97221947D01*
X139894014Y-97140591D01*
X139244605Y-97790000D01*
X138885395Y-97790000D01*
X138235986Y-97140591D01*
X138067077Y-97221947D01*
X137975430Y-97427547D01*
X137925655Y-97647076D01*
X137919664Y-97872097D01*
X128777746Y-97872097D01*
X128777746Y-95031103D01*
X129857500Y-95031103D01*
X129857500Y-95468897D01*
X129942909Y-95898279D01*
X130110446Y-96302749D01*
X130353671Y-96666761D01*
X130663239Y-96976329D01*
X131027251Y-97219554D01*
X131431721Y-97387091D01*
X131861103Y-97472500D01*
X132298897Y-97472500D01*
X132728279Y-97387091D01*
X133132749Y-97219554D01*
X133496761Y-96976329D01*
X133512104Y-96960986D01*
X138415591Y-96960986D01*
X139065000Y-97610395D01*
X139714409Y-96960986D01*
X139633053Y-96792077D01*
X139427453Y-96700430D01*
X139207924Y-96650655D01*
X138982903Y-96644664D01*
X138761037Y-96682688D01*
X138550851Y-96763265D01*
X138496947Y-96792077D01*
X138415591Y-96960986D01*
X133512104Y-96960986D01*
X133806329Y-96666761D01*
X134049554Y-96302749D01*
X134217091Y-95898279D01*
X134261512Y-95674954D01*
X151504559Y-95674954D01*
X153250000Y-97420395D01*
X154995441Y-95674954D01*
X154728822Y-95348511D01*
X154261163Y-95103269D01*
X153754646Y-94953975D01*
X153228736Y-94906366D01*
X152703643Y-94962271D01*
X152199546Y-95119544D01*
X151771178Y-95348511D01*
X151504559Y-95674954D01*
X134261512Y-95674954D01*
X134302500Y-95468897D01*
X134302500Y-95031103D01*
X134217091Y-94601721D01*
X134049554Y-94197251D01*
X133806329Y-93833239D01*
X133496761Y-93523671D01*
X133132749Y-93280446D01*
X132728279Y-93112909D01*
X132298897Y-93027500D01*
X131861103Y-93027500D01*
X131431721Y-93112909D01*
X131027251Y-93280446D01*
X130663239Y-93523671D01*
X130353671Y-93833239D01*
X130110446Y-94197251D01*
X129942909Y-94601721D01*
X129857500Y-95031103D01*
X128777746Y-95031103D01*
X128777746Y-91947746D01*
X133096254Y-91947746D01*
X133096255Y-92431053D01*
G37*
X133096255Y-92431053D02*
X133093798Y-92456000D01*
X133103601Y-92555535D01*
X133132635Y-92651246D01*
X133179783Y-92739453D01*
X133243233Y-92816767D01*
X133320547Y-92880217D01*
X133408754Y-92927365D01*
X133504465Y-92956399D01*
X133579063Y-92963746D01*
X133604000Y-92966202D01*
X133628937Y-92963746D01*
X138659063Y-92963746D01*
X138684000Y-92966202D01*
X138708937Y-92963746D01*
X138783535Y-92956399D01*
X138879246Y-92927365D01*
X138967453Y-92880217D01*
X139044767Y-92816767D01*
X139108217Y-92739453D01*
X139155365Y-92651246D01*
X139184399Y-92555535D01*
X139194202Y-92456000D01*
X139191746Y-92431063D01*
X139191746Y-91947746D01*
X155492254Y-91947746D01*
X155492254Y-96113636D01*
X155175046Y-95854559D01*
X153429605Y-97600000D01*
X155175046Y-99345441D01*
X155492254Y-99086364D01*
X155492255Y-104113636D01*
X155175046Y-103854559D01*
X153429605Y-105600000D01*
X155175046Y-107345441D01*
X155492255Y-107086364D01*
X155492255Y-111252254D01*
X139191746Y-111252254D01*
X139191746Y-110768937D01*
X139194202Y-110744000D01*
X139184399Y-110644465D01*
X139155365Y-110548754D01*
X139108217Y-110460547D01*
X139044767Y-110383233D01*
X138967453Y-110319783D01*
X138879246Y-110272635D01*
X138783535Y-110243601D01*
X138708937Y-110236254D01*
X138684000Y-110233798D01*
X138659063Y-110236254D01*
X133628937Y-110236254D01*
X133604000Y-110233798D01*
X133579063Y-110236254D01*
X133504465Y-110243601D01*
X133408754Y-110272635D01*
X133320547Y-110319783D01*
X133243233Y-110383233D01*
X133179783Y-110460547D01*
X133132635Y-110548754D01*
X133103601Y-110644465D01*
X133093798Y-110744000D01*
X133096255Y-110768947D01*
X133096254Y-111252254D01*
X128777746Y-111252254D01*
X128777746Y-107731103D01*
X129857500Y-107731103D01*
X129857500Y-108168897D01*
X129942909Y-108598279D01*
X130110446Y-109002749D01*
X130353671Y-109366761D01*
X130663239Y-109676329D01*
X131027251Y-109919554D01*
X131431721Y-110087091D01*
X131861103Y-110172500D01*
X132298897Y-110172500D01*
X132728279Y-110087091D01*
X133132749Y-109919554D01*
X133496761Y-109676329D01*
X133806329Y-109366761D01*
X134049554Y-109002749D01*
X134217091Y-108598279D01*
X134302500Y-108168897D01*
X134302500Y-107731103D01*
X134261513Y-107525046D01*
X151504559Y-107525046D01*
X151771178Y-107851489D01*
X152238837Y-108096731D01*
X152745354Y-108246025D01*
X153271264Y-108293634D01*
X153796357Y-108237729D01*
X154300454Y-108080456D01*
X154728822Y-107851489D01*
X154995441Y-107525046D01*
X153250000Y-105779605D01*
X151504559Y-107525046D01*
X134261513Y-107525046D01*
X134217091Y-107301721D01*
X134049554Y-106897251D01*
X133806329Y-106533239D01*
X133496761Y-106223671D01*
X133132749Y-105980446D01*
X132728279Y-105812909D01*
X132298897Y-105727500D01*
X131861103Y-105727500D01*
X131431721Y-105812909D01*
X131027251Y-105980446D01*
X130663239Y-106223671D01*
X130353671Y-106533239D01*
X130110446Y-106897251D01*
X129942909Y-107301721D01*
X129857500Y-107731103D01*
X128777746Y-107731103D01*
X128777746Y-105297449D01*
X137922254Y-105297449D01*
X137922254Y-105522551D01*
X137966169Y-105743327D01*
X138052312Y-105951293D01*
X138177371Y-106138458D01*
X138336542Y-106297629D01*
X138523707Y-106422688D01*
X138731673Y-106508831D01*
X138952449Y-106552746D01*
X139177551Y-106552746D01*
X139398327Y-106508831D01*
X139606293Y-106422688D01*
X139793458Y-106297629D01*
X139952629Y-106138458D01*
X140077688Y-105951293D01*
X140163831Y-105743327D01*
X140188110Y-105621264D01*
X150556366Y-105621264D01*
X150612271Y-106146357D01*
X150769544Y-106650454D01*
X150998511Y-107078822D01*
X151324954Y-107345441D01*
X153070395Y-105600000D01*
X151324954Y-103854559D01*
X150998511Y-104121178D01*
X150753269Y-104588837D01*
X150603975Y-105095354D01*
X150556366Y-105621264D01*
X140188110Y-105621264D01*
X140207746Y-105522551D01*
X140207746Y-105297449D01*
X140163831Y-105076673D01*
X140077688Y-104868707D01*
X139952629Y-104681542D01*
X139793458Y-104522371D01*
X139606293Y-104397312D01*
X139398327Y-104311169D01*
X139177551Y-104267254D01*
X138952449Y-104267254D01*
X138731673Y-104311169D01*
X138523707Y-104397312D01*
X138336542Y-104522371D01*
X138177371Y-104681542D01*
X138052312Y-104868707D01*
X137966169Y-105076673D01*
X137922254Y-105297449D01*
X128777746Y-105297449D01*
X128777746Y-104832439D01*
X134107166Y-104832439D01*
X134165296Y-104981911D01*
X134338282Y-105054443D01*
X134522094Y-105091832D01*
X134709668Y-105092644D01*
X134893797Y-105056845D01*
X135067403Y-104985813D01*
X135074704Y-104981911D01*
X135132834Y-104832439D01*
X134620000Y-104319605D01*
X134107166Y-104832439D01*
X128777746Y-104832439D01*
X128777746Y-104229668D01*
X133667356Y-104229668D01*
X133703155Y-104413797D01*
X133774187Y-104587403D01*
X133778089Y-104594704D01*
X133927561Y-104652834D01*
X134440395Y-104140000D01*
X134799605Y-104140000D01*
X135312439Y-104652834D01*
X135461911Y-104594704D01*
X135534443Y-104421718D01*
X135571832Y-104237906D01*
X135572644Y-104050332D01*
X135536845Y-103866203D01*
X135465813Y-103692597D01*
X135461911Y-103685296D01*
X135312439Y-103627166D01*
X134799605Y-104140000D01*
X134440395Y-104140000D01*
X133927561Y-103627166D01*
X133778089Y-103685296D01*
X133705557Y-103858282D01*
X133668168Y-104042094D01*
X133667356Y-104229668D01*
X128777746Y-104229668D01*
X128777746Y-103447561D01*
X134107166Y-103447561D01*
X134620000Y-103960395D01*
X135132834Y-103447561D01*
X135074704Y-103298089D01*
X134901718Y-103225557D01*
X134717906Y-103188168D01*
X134530332Y-103187356D01*
X134346203Y-103223155D01*
X134172597Y-103294187D01*
X134165296Y-103298089D01*
X134107166Y-103447561D01*
X128777746Y-103447561D01*
X128777746Y-102757449D01*
X135382254Y-102757449D01*
X135382254Y-102982551D01*
X135426169Y-103203327D01*
X135512312Y-103411293D01*
X135637371Y-103598458D01*
X135796542Y-103757629D01*
X135983707Y-103882688D01*
X136191673Y-103968831D01*
X136412449Y-104012746D01*
X136637551Y-104012746D01*
X136858327Y-103968831D01*
X137066293Y-103882688D01*
X137253458Y-103757629D01*
X137412629Y-103598458D01*
X137537688Y-103411293D01*
X137623831Y-103203327D01*
X137667746Y-102982551D01*
X137667746Y-102757449D01*
X140462254Y-102757449D01*
X140462254Y-102982551D01*
X140506169Y-103203327D01*
X140592312Y-103411293D01*
X140717371Y-103598458D01*
X140876542Y-103757629D01*
X141063707Y-103882688D01*
X141271673Y-103968831D01*
X141492449Y-104012746D01*
X141717551Y-104012746D01*
X141938327Y-103968831D01*
X142146293Y-103882688D01*
X142333458Y-103757629D01*
X142492629Y-103598458D01*
X142617688Y-103411293D01*
X142703831Y-103203327D01*
X142747746Y-102982551D01*
X142747746Y-102757449D01*
X142742524Y-102731195D01*
X145553754Y-102731195D01*
X145553754Y-102968805D01*
X145600109Y-103201849D01*
X145691038Y-103421372D01*
X145823047Y-103618937D01*
X145991063Y-103786953D01*
X146188628Y-103918962D01*
X146408151Y-104009891D01*
X146641195Y-104056246D01*
X146878805Y-104056246D01*
X147111849Y-104009891D01*
X147331372Y-103918962D01*
X147528937Y-103786953D01*
X147696953Y-103618937D01*
X147760000Y-103524581D01*
X147823047Y-103618937D01*
X147991063Y-103786953D01*
X148188628Y-103918962D01*
X148408151Y-104009891D01*
X148641195Y-104056246D01*
X148878805Y-104056246D01*
X149111849Y-104009891D01*
X149331372Y-103918962D01*
X149528937Y-103786953D01*
X149640936Y-103674954D01*
X151504559Y-103674954D01*
X153250000Y-105420395D01*
X154995441Y-103674954D01*
X154728822Y-103348511D01*
X154261163Y-103103269D01*
X153754646Y-102953975D01*
X153228736Y-102906366D01*
X152703643Y-102962271D01*
X152199546Y-103119544D01*
X151771178Y-103348511D01*
X151504559Y-103674954D01*
X149640936Y-103674954D01*
X149696953Y-103618937D01*
X149828962Y-103421372D01*
X149919891Y-103201849D01*
X149966246Y-102968805D01*
X149966246Y-102731195D01*
X149919891Y-102498151D01*
X149828962Y-102278628D01*
X149696953Y-102081063D01*
X149528937Y-101913047D01*
X149331372Y-101781038D01*
X149111849Y-101690109D01*
X148878805Y-101643754D01*
X148641195Y-101643754D01*
X148408151Y-101690109D01*
X148188628Y-101781038D01*
X147991063Y-101913047D01*
X147823047Y-102081063D01*
X147760000Y-102175419D01*
X147696953Y-102081063D01*
X147528937Y-101913047D01*
X147331372Y-101781038D01*
X147111849Y-101690109D01*
X146878805Y-101643754D01*
X146641195Y-101643754D01*
X146408151Y-101690109D01*
X146188628Y-101781038D01*
X145991063Y-101913047D01*
X145823047Y-102081063D01*
X145691038Y-102278628D01*
X145600109Y-102498151D01*
X145553754Y-102731195D01*
X142742524Y-102731195D01*
X142703831Y-102536673D01*
X142617688Y-102328707D01*
X142492629Y-102141542D01*
X142333458Y-101982371D01*
X142146293Y-101857312D01*
X141938327Y-101771169D01*
X141717551Y-101727254D01*
X141492449Y-101727254D01*
X141271673Y-101771169D01*
X141063707Y-101857312D01*
X140876542Y-101982371D01*
X140717371Y-102141542D01*
X140592312Y-102328707D01*
X140506169Y-102536673D01*
X140462254Y-102757449D01*
X137667746Y-102757449D01*
X137623831Y-102536673D01*
X137537688Y-102328707D01*
X137412629Y-102141542D01*
X137253458Y-101982371D01*
X137066293Y-101857312D01*
X136858327Y-101771169D01*
X136637551Y-101727254D01*
X136412449Y-101727254D01*
X136191673Y-101771169D01*
X135983707Y-101857312D01*
X135796542Y-101982371D01*
X135637371Y-102141542D01*
X135512312Y-102328707D01*
X135426169Y-102536673D01*
X135382254Y-102757449D01*
X128777746Y-102757449D01*
X128777746Y-102292439D01*
X134107166Y-102292439D01*
X134165296Y-102441911D01*
X134338282Y-102514443D01*
X134522094Y-102551832D01*
X134709668Y-102552644D01*
X134893797Y-102516845D01*
X135067403Y-102445813D01*
X135074704Y-102441911D01*
X135132834Y-102292439D01*
X134620000Y-101779605D01*
X134107166Y-102292439D01*
X128777746Y-102292439D01*
X128777746Y-101689668D01*
X133667356Y-101689668D01*
X133703155Y-101873797D01*
X133774187Y-102047403D01*
X133778089Y-102054704D01*
X133927561Y-102112834D01*
X134440395Y-101600000D01*
X134799605Y-101600000D01*
X135312439Y-102112834D01*
X135461911Y-102054704D01*
X135534443Y-101881718D01*
X135571832Y-101697906D01*
X135572644Y-101510332D01*
X135536845Y-101326203D01*
X135465813Y-101152597D01*
X135461911Y-101145296D01*
X135312439Y-101087166D01*
X134799605Y-101600000D01*
X134440395Y-101600000D01*
X133927561Y-101087166D01*
X133778089Y-101145296D01*
X133705557Y-101318282D01*
X133668168Y-101502094D01*
X133667356Y-101689668D01*
X128777746Y-101689668D01*
X128777746Y-100907561D01*
X134107166Y-100907561D01*
X134620000Y-101420395D01*
X135132834Y-100907561D01*
X135074704Y-100758089D01*
X134901718Y-100685557D01*
X134717906Y-100648168D01*
X134530332Y-100647356D01*
X134346203Y-100683155D01*
X134172597Y-100754187D01*
X134165296Y-100758089D01*
X134107166Y-100907561D01*
X128777746Y-100907561D01*
X128777746Y-100217449D01*
X140462254Y-100217449D01*
X140462254Y-100442551D01*
X140506169Y-100663327D01*
X140592312Y-100871293D01*
X140717371Y-101058458D01*
X140876542Y-101217629D01*
X141063707Y-101342688D01*
X141271673Y-101428831D01*
X141492449Y-101472746D01*
X141717551Y-101472746D01*
X141938327Y-101428831D01*
X142146293Y-101342688D01*
X142333458Y-101217629D01*
X142492629Y-101058458D01*
X142617688Y-100871293D01*
X142703831Y-100663327D01*
X142747746Y-100442551D01*
X142747746Y-100231195D01*
X145553754Y-100231195D01*
X145553754Y-100468805D01*
X145600109Y-100701849D01*
X145691038Y-100921372D01*
X145823047Y-101118937D01*
X145991063Y-101286953D01*
X146188628Y-101418962D01*
X146408151Y-101509891D01*
X146641195Y-101556246D01*
X146878805Y-101556246D01*
X147111849Y-101509891D01*
X147331372Y-101418962D01*
X147528937Y-101286953D01*
X147591444Y-101224446D01*
X148065159Y-101224446D01*
X148154222Y-101399846D01*
X148370677Y-101497855D01*
X148602093Y-101551752D01*
X148839578Y-101559467D01*
X149074004Y-101520702D01*
X149296364Y-101436948D01*
X149365778Y-101399846D01*
X149454841Y-101224446D01*
X148760000Y-100529605D01*
X148065159Y-101224446D01*
X147591444Y-101224446D01*
X147696953Y-101118937D01*
X147781699Y-100992106D01*
X147885554Y-101044841D01*
X148580395Y-100350000D01*
X148939605Y-100350000D01*
X149634446Y-101044841D01*
X149809846Y-100955778D01*
X149907855Y-100739323D01*
X149961752Y-100507907D01*
X149969467Y-100270422D01*
X149930702Y-100035996D01*
X149846948Y-99813636D01*
X149809846Y-99744222D01*
X149634446Y-99655159D01*
X148939605Y-100350000D01*
X148580395Y-100350000D01*
X147885554Y-99655159D01*
X147781699Y-99707894D01*
X147696953Y-99581063D01*
X147591444Y-99475554D01*
X148065159Y-99475554D01*
X148760000Y-100170395D01*
X149405349Y-99525046D01*
X151504559Y-99525046D01*
X151771178Y-99851489D01*
X152238837Y-100096731D01*
X152745354Y-100246025D01*
X153271264Y-100293634D01*
X153796357Y-100237729D01*
X154300454Y-100080456D01*
X154728822Y-99851489D01*
X154995441Y-99525046D01*
X153250000Y-97779605D01*
X151504559Y-99525046D01*
X149405349Y-99525046D01*
X149454841Y-99475554D01*
X149365778Y-99300154D01*
X149149323Y-99202145D01*
X148917907Y-99148248D01*
X148680422Y-99140533D01*
X148445996Y-99179298D01*
X148223636Y-99263052D01*
X148154222Y-99300154D01*
X148065159Y-99475554D01*
X147591444Y-99475554D01*
X147528937Y-99413047D01*
X147331372Y-99281038D01*
X147111849Y-99190109D01*
X146878805Y-99143754D01*
X146641195Y-99143754D01*
X146408151Y-99190109D01*
X146188628Y-99281038D01*
X145991063Y-99413047D01*
X145823047Y-99581063D01*
X145691038Y-99778628D01*
X145600109Y-99998151D01*
X145553754Y-100231195D01*
X142747746Y-100231195D01*
X142747746Y-100217449D01*
X142703831Y-99996673D01*
X142617688Y-99788707D01*
X142492629Y-99601542D01*
X142333458Y-99442371D01*
X142146293Y-99317312D01*
X141938327Y-99231169D01*
X141717551Y-99187254D01*
X141492449Y-99187254D01*
X141271673Y-99231169D01*
X141063707Y-99317312D01*
X140876542Y-99442371D01*
X140717371Y-99601542D01*
X140592312Y-99788707D01*
X140506169Y-99996673D01*
X140462254Y-100217449D01*
X128777746Y-100217449D01*
X128777746Y-99752439D01*
X134107166Y-99752439D01*
X134165296Y-99901911D01*
X134338282Y-99974443D01*
X134522094Y-100011832D01*
X134709668Y-100012644D01*
X134893797Y-99976845D01*
X135067403Y-99905813D01*
X135074704Y-99901911D01*
X135132834Y-99752439D01*
X134620000Y-99239605D01*
X134107166Y-99752439D01*
X128777746Y-99752439D01*
X128777746Y-99149668D01*
X133667356Y-99149668D01*
X133703155Y-99333797D01*
X133774187Y-99507403D01*
X133778089Y-99514704D01*
X133927561Y-99572834D01*
X134440395Y-99060000D01*
X134799605Y-99060000D01*
X135312439Y-99572834D01*
X135461911Y-99514704D01*
X135534443Y-99341718D01*
X135571832Y-99157906D01*
X135572644Y-98970332D01*
X135536845Y-98786203D01*
X135468439Y-98619014D01*
X138415591Y-98619014D01*
X138496947Y-98787923D01*
X138702547Y-98879570D01*
X138922076Y-98929345D01*
X139147097Y-98935336D01*
X139368963Y-98897312D01*
X139579149Y-98816735D01*
X139633053Y-98787923D01*
X139714409Y-98619014D01*
X139065000Y-97969605D01*
X138415591Y-98619014D01*
X135468439Y-98619014D01*
X135465813Y-98612597D01*
X135461911Y-98605296D01*
X135312439Y-98547166D01*
X134799605Y-99060000D01*
X134440395Y-99060000D01*
X133927561Y-98547166D01*
X133778089Y-98605296D01*
X133705557Y-98778282D01*
X133668168Y-98962094D01*
X133667356Y-99149668D01*
X128777746Y-99149668D01*
X128777746Y-98367561D01*
X134107166Y-98367561D01*
X134620000Y-98880395D01*
X135132834Y-98367561D01*
X135074704Y-98218089D01*
X134901718Y-98145557D01*
X134717906Y-98108168D01*
X134530332Y-98107356D01*
X134346203Y-98143155D01*
X134172597Y-98214187D01*
X134165296Y-98218089D01*
X134107166Y-98367561D01*
X128777746Y-98367561D01*
X128777746Y-97872097D01*
X137919664Y-97872097D01*
X137957688Y-98093963D01*
X138038265Y-98304149D01*
X138067077Y-98358053D01*
X138235986Y-98439409D01*
X138885395Y-97790000D01*
X139244605Y-97790000D01*
X139894014Y-98439409D01*
X140062923Y-98358053D01*
X140154570Y-98152453D01*
X140204345Y-97932924D01*
X140210336Y-97707903D01*
X140195488Y-97621264D01*
X150556366Y-97621264D01*
X150612271Y-98146357D01*
X150769544Y-98650454D01*
X150998511Y-99078822D01*
X151324954Y-99345441D01*
X153070395Y-97600000D01*
X151324954Y-95854559D01*
X150998511Y-96121178D01*
X150753269Y-96588837D01*
X150603975Y-97095354D01*
X150556366Y-97621264D01*
X140195488Y-97621264D01*
X140172312Y-97486037D01*
X140091735Y-97275851D01*
X140062923Y-97221947D01*
X139894014Y-97140591D01*
X139244605Y-97790000D01*
X138885395Y-97790000D01*
X138235986Y-97140591D01*
X138067077Y-97221947D01*
X137975430Y-97427547D01*
X137925655Y-97647076D01*
X137919664Y-97872097D01*
X128777746Y-97872097D01*
X128777746Y-95031103D01*
X129857500Y-95031103D01*
X129857500Y-95468897D01*
X129942909Y-95898279D01*
X130110446Y-96302749D01*
X130353671Y-96666761D01*
X130663239Y-96976329D01*
X131027251Y-97219554D01*
X131431721Y-97387091D01*
X131861103Y-97472500D01*
X132298897Y-97472500D01*
X132728279Y-97387091D01*
X133132749Y-97219554D01*
X133496761Y-96976329D01*
X133512104Y-96960986D01*
X138415591Y-96960986D01*
X139065000Y-97610395D01*
X139714409Y-96960986D01*
X139633053Y-96792077D01*
X139427453Y-96700430D01*
X139207924Y-96650655D01*
X138982903Y-96644664D01*
X138761037Y-96682688D01*
X138550851Y-96763265D01*
X138496947Y-96792077D01*
X138415591Y-96960986D01*
X133512104Y-96960986D01*
X133806329Y-96666761D01*
X134049554Y-96302749D01*
X134217091Y-95898279D01*
X134261512Y-95674954D01*
X151504559Y-95674954D01*
X153250000Y-97420395D01*
X154995441Y-95674954D01*
X154728822Y-95348511D01*
X154261163Y-95103269D01*
X153754646Y-94953975D01*
X153228736Y-94906366D01*
X152703643Y-94962271D01*
X152199546Y-95119544D01*
X151771178Y-95348511D01*
X151504559Y-95674954D01*
X134261512Y-95674954D01*
X134302500Y-95468897D01*
X134302500Y-95031103D01*
X134217091Y-94601721D01*
X134049554Y-94197251D01*
X133806329Y-93833239D01*
X133496761Y-93523671D01*
X133132749Y-93280446D01*
X132728279Y-93112909D01*
X132298897Y-93027500D01*
X131861103Y-93027500D01*
X131431721Y-93112909D01*
X131027251Y-93280446D01*
X130663239Y-93523671D01*
X130353671Y-93833239D01*
X130110446Y-94197251D01*
X129942909Y-94601721D01*
X129857500Y-95031103D01*
X128777746Y-95031103D01*
X128777746Y-91947746D01*
X133096254Y-91947746D01*
X133096255Y-92431053D01*
M02*
