G04 #@! TF.FileFunction,Legend,Bot*
%FSLAX46Y46*%
G04 Gerber Fmt 4.6, Leading zero omitted, Abs format (unit mm)*
G04 Created by KiCad (PCBNEW 4.0.7) date Wed May 30 19:38:07 2018*
%MOMM*%
%LPD*%
G01*
G04 APERTURE LIST*
%ADD10C,0.100000*%
%ADD11C,0.127000*%
%ADD12C,0.150000*%
%ADD13C,1.244600*%
%ADD14C,3.276600*%
%ADD15C,1.625600*%
%ADD16C,4.701600*%
%ADD17C,1.752600*%
G04 APERTURE END LIST*
D10*
D11*
X141709572Y-105452857D02*
X141252429Y-105452857D01*
X141481000Y-105681429D02*
X141481000Y-105224286D01*
X140681001Y-105081429D02*
X140966715Y-105081429D01*
X140995286Y-105367143D01*
X140966715Y-105338571D01*
X140909572Y-105310000D01*
X140766715Y-105310000D01*
X140709572Y-105338571D01*
X140681001Y-105367143D01*
X140652429Y-105424286D01*
X140652429Y-105567143D01*
X140681001Y-105624286D01*
X140709572Y-105652857D01*
X140766715Y-105681429D01*
X140909572Y-105681429D01*
X140966715Y-105652857D01*
X140995286Y-105624286D01*
X140452429Y-105281429D02*
X140309572Y-105681429D01*
X140166714Y-105281429D01*
X139430143Y-103141429D02*
X139430143Y-102541429D01*
X139287286Y-102541429D01*
X139201571Y-102570000D01*
X139144429Y-102627143D01*
X139115857Y-102684286D01*
X139087286Y-102798571D01*
X139087286Y-102884286D01*
X139115857Y-102998571D01*
X139144429Y-103055714D01*
X139201571Y-103112857D01*
X139287286Y-103141429D01*
X139430143Y-103141429D01*
X138830143Y-102912857D02*
X138373000Y-102912857D01*
X139430143Y-100601429D02*
X139430143Y-100001429D01*
X139287286Y-100001429D01*
X139201571Y-100030000D01*
X139144429Y-100087143D01*
X139115857Y-100144286D01*
X139087286Y-100258571D01*
X139087286Y-100344286D01*
X139115857Y-100458571D01*
X139144429Y-100515714D01*
X139201571Y-100572857D01*
X139287286Y-100601429D01*
X139430143Y-100601429D01*
X138830143Y-100372857D02*
X138373000Y-100372857D01*
X138601571Y-100601429D02*
X138601571Y-100144286D01*
X141452428Y-97490000D02*
X141509571Y-97461429D01*
X141595285Y-97461429D01*
X141681000Y-97490000D01*
X141738142Y-97547143D01*
X141766714Y-97604286D01*
X141795285Y-97718571D01*
X141795285Y-97804286D01*
X141766714Y-97918571D01*
X141738142Y-97975714D01*
X141681000Y-98032857D01*
X141595285Y-98061429D01*
X141538142Y-98061429D01*
X141452428Y-98032857D01*
X141423857Y-98004286D01*
X141423857Y-97804286D01*
X141538142Y-97804286D01*
X141166714Y-98061429D02*
X141166714Y-97461429D01*
X140823857Y-98061429D01*
X140823857Y-97461429D01*
X140538143Y-98061429D02*
X140538143Y-97461429D01*
X140395286Y-97461429D01*
X140309571Y-97490000D01*
X140252429Y-97547143D01*
X140223857Y-97604286D01*
X140195286Y-97718571D01*
X140195286Y-97804286D01*
X140223857Y-97918571D01*
X140252429Y-97975714D01*
X140309571Y-98032857D01*
X140395286Y-98061429D01*
X140538143Y-98061429D01*
X137649000Y-97661429D02*
X137649000Y-98061429D01*
X137791857Y-97432857D02*
X137934714Y-97861429D01*
X137563286Y-97861429D01*
X140503286Y-100001429D02*
X140131857Y-100001429D01*
X140331857Y-100230000D01*
X140246143Y-100230000D01*
X140189000Y-100258571D01*
X140160429Y-100287143D01*
X140131857Y-100344286D01*
X140131857Y-100487143D01*
X140160429Y-100544286D01*
X140189000Y-100572857D01*
X140246143Y-100601429D01*
X140417571Y-100601429D01*
X140474714Y-100572857D01*
X140503286Y-100544286D01*
X140474714Y-102598571D02*
X140446143Y-102570000D01*
X140389000Y-102541429D01*
X140246143Y-102541429D01*
X140189000Y-102570000D01*
X140160429Y-102598571D01*
X140131857Y-102655714D01*
X140131857Y-102712857D01*
X140160429Y-102798571D01*
X140503286Y-103141429D01*
X140131857Y-103141429D01*
X137718857Y-105681429D02*
X138061714Y-105681429D01*
X137890286Y-105681429D02*
X137890286Y-105081429D01*
X137947429Y-105167143D01*
X138004571Y-105224286D01*
X138061714Y-105252857D01*
X133400857Y-98760000D02*
X133458000Y-98731429D01*
X133543714Y-98731429D01*
X133629429Y-98760000D01*
X133686571Y-98817143D01*
X133715143Y-98874286D01*
X133743714Y-98988571D01*
X133743714Y-99074286D01*
X133715143Y-99188571D01*
X133686571Y-99245714D01*
X133629429Y-99302857D01*
X133543714Y-99331429D01*
X133486571Y-99331429D01*
X133400857Y-99302857D01*
X133372286Y-99274286D01*
X133372286Y-99074286D01*
X133486571Y-99074286D01*
X133115143Y-99331429D02*
X133115143Y-98731429D01*
X132772286Y-99331429D01*
X132772286Y-98731429D01*
X132486572Y-99331429D02*
X132486572Y-98731429D01*
X132343715Y-98731429D01*
X132258000Y-98760000D01*
X132200858Y-98817143D01*
X132172286Y-98874286D01*
X132143715Y-98988571D01*
X132143715Y-99074286D01*
X132172286Y-99188571D01*
X132200858Y-99245714D01*
X132258000Y-99302857D01*
X132343715Y-99331429D01*
X132486572Y-99331429D01*
X133400857Y-101300000D02*
X133458000Y-101271429D01*
X133543714Y-101271429D01*
X133629429Y-101300000D01*
X133686571Y-101357143D01*
X133715143Y-101414286D01*
X133743714Y-101528571D01*
X133743714Y-101614286D01*
X133715143Y-101728571D01*
X133686571Y-101785714D01*
X133629429Y-101842857D01*
X133543714Y-101871429D01*
X133486571Y-101871429D01*
X133400857Y-101842857D01*
X133372286Y-101814286D01*
X133372286Y-101614286D01*
X133486571Y-101614286D01*
X133115143Y-101871429D02*
X133115143Y-101271429D01*
X132772286Y-101871429D01*
X132772286Y-101271429D01*
X132486572Y-101871429D02*
X132486572Y-101271429D01*
X132343715Y-101271429D01*
X132258000Y-101300000D01*
X132200858Y-101357143D01*
X132172286Y-101414286D01*
X132143715Y-101528571D01*
X132143715Y-101614286D01*
X132172286Y-101728571D01*
X132200858Y-101785714D01*
X132258000Y-101842857D01*
X132343715Y-101871429D01*
X132486572Y-101871429D01*
X133400857Y-103840000D02*
X133458000Y-103811429D01*
X133543714Y-103811429D01*
X133629429Y-103840000D01*
X133686571Y-103897143D01*
X133715143Y-103954286D01*
X133743714Y-104068571D01*
X133743714Y-104154286D01*
X133715143Y-104268571D01*
X133686571Y-104325714D01*
X133629429Y-104382857D01*
X133543714Y-104411429D01*
X133486571Y-104411429D01*
X133400857Y-104382857D01*
X133372286Y-104354286D01*
X133372286Y-104154286D01*
X133486571Y-104154286D01*
X133115143Y-104411429D02*
X133115143Y-103811429D01*
X132772286Y-104411429D01*
X132772286Y-103811429D01*
X132486572Y-104411429D02*
X132486572Y-103811429D01*
X132343715Y-103811429D01*
X132258000Y-103840000D01*
X132200858Y-103897143D01*
X132172286Y-103954286D01*
X132143715Y-104068571D01*
X132143715Y-104154286D01*
X132172286Y-104268571D01*
X132200858Y-104325714D01*
X132258000Y-104382857D01*
X132343715Y-104411429D01*
X132486572Y-104411429D01*
D12*
X148795620Y-93178381D02*
X148795620Y-93987905D01*
X148748001Y-94083143D01*
X148700382Y-94130762D01*
X148605144Y-94178381D01*
X148414667Y-94178381D01*
X148319429Y-94130762D01*
X148271810Y-94083143D01*
X148224191Y-93987905D01*
X148224191Y-93178381D01*
X147795620Y-94130762D02*
X147652763Y-94178381D01*
X147414667Y-94178381D01*
X147319429Y-94130762D01*
X147271810Y-94083143D01*
X147224191Y-93987905D01*
X147224191Y-93892667D01*
X147271810Y-93797429D01*
X147319429Y-93749810D01*
X147414667Y-93702190D01*
X147605144Y-93654571D01*
X147700382Y-93606952D01*
X147748001Y-93559333D01*
X147795620Y-93464095D01*
X147795620Y-93368857D01*
X147748001Y-93273619D01*
X147700382Y-93226000D01*
X147605144Y-93178381D01*
X147367048Y-93178381D01*
X147224191Y-93226000D01*
X146462286Y-93654571D02*
X146319429Y-93702190D01*
X146271810Y-93749810D01*
X146224191Y-93845048D01*
X146224191Y-93987905D01*
X146271810Y-94083143D01*
X146319429Y-94130762D01*
X146414667Y-94178381D01*
X146795620Y-94178381D01*
X146795620Y-93178381D01*
X146462286Y-93178381D01*
X146367048Y-93226000D01*
X146319429Y-93273619D01*
X146271810Y-93368857D01*
X146271810Y-93464095D01*
X146319429Y-93559333D01*
X146367048Y-93606952D01*
X146462286Y-93654571D01*
X146795620Y-93654571D01*
X145795620Y-93797429D02*
X145033715Y-93797429D01*
X144224191Y-93654571D02*
X144081334Y-93702190D01*
X144033715Y-93749810D01*
X143986096Y-93845048D01*
X143986096Y-93987905D01*
X144033715Y-94083143D01*
X144081334Y-94130762D01*
X144176572Y-94178381D01*
X144557525Y-94178381D01*
X144557525Y-93178381D01*
X144224191Y-93178381D01*
X144128953Y-93226000D01*
X144081334Y-93273619D01*
X144033715Y-93368857D01*
X144033715Y-93464095D01*
X144081334Y-93559333D01*
X144128953Y-93606952D01*
X144224191Y-93654571D01*
X144557525Y-93654571D01*
X142462286Y-93654571D02*
X142319429Y-93702190D01*
X142271810Y-93749810D01*
X142224191Y-93845048D01*
X142224191Y-93987905D01*
X142271810Y-94083143D01*
X142319429Y-94130762D01*
X142414667Y-94178381D01*
X142795620Y-94178381D01*
X142795620Y-93178381D01*
X142462286Y-93178381D01*
X142367048Y-93226000D01*
X142319429Y-93273619D01*
X142271810Y-93368857D01*
X142271810Y-93464095D01*
X142319429Y-93559333D01*
X142367048Y-93606952D01*
X142462286Y-93654571D01*
X142795620Y-93654571D01*
X141795620Y-94178381D02*
X141795620Y-93511714D01*
X141795620Y-93702190D02*
X141748001Y-93606952D01*
X141700382Y-93559333D01*
X141605144Y-93511714D01*
X141509905Y-93511714D01*
X140795619Y-94130762D02*
X140890857Y-94178381D01*
X141081334Y-94178381D01*
X141176572Y-94130762D01*
X141224191Y-94035524D01*
X141224191Y-93654571D01*
X141176572Y-93559333D01*
X141081334Y-93511714D01*
X140890857Y-93511714D01*
X140795619Y-93559333D01*
X140748000Y-93654571D01*
X140748000Y-93749810D01*
X141224191Y-93845048D01*
X139890857Y-94178381D02*
X139890857Y-93654571D01*
X139938476Y-93559333D01*
X140033714Y-93511714D01*
X140224191Y-93511714D01*
X140319429Y-93559333D01*
X139890857Y-94130762D02*
X139986095Y-94178381D01*
X140224191Y-94178381D01*
X140319429Y-94130762D01*
X140367048Y-94035524D01*
X140367048Y-93940286D01*
X140319429Y-93845048D01*
X140224191Y-93797429D01*
X139986095Y-93797429D01*
X139890857Y-93749810D01*
X139414667Y-94178381D02*
X139414667Y-93178381D01*
X139319429Y-93797429D02*
X139033714Y-94178381D01*
X139033714Y-93511714D02*
X139414667Y-93892667D01*
X138462286Y-94178381D02*
X138557524Y-94130762D01*
X138605143Y-94083143D01*
X138652762Y-93987905D01*
X138652762Y-93702190D01*
X138605143Y-93606952D01*
X138557524Y-93559333D01*
X138462286Y-93511714D01*
X138319428Y-93511714D01*
X138224190Y-93559333D01*
X138176571Y-93606952D01*
X138128952Y-93702190D01*
X138128952Y-93987905D01*
X138176571Y-94083143D01*
X138224190Y-94130762D01*
X138319428Y-94178381D01*
X138462286Y-94178381D01*
X137271809Y-93511714D02*
X137271809Y-94178381D01*
X137700381Y-93511714D02*
X137700381Y-94035524D01*
X137652762Y-94130762D01*
X137557524Y-94178381D01*
X137414666Y-94178381D01*
X137319428Y-94130762D01*
X137271809Y-94083143D01*
X136938476Y-93511714D02*
X136557524Y-93511714D01*
X136795619Y-93178381D02*
X136795619Y-94035524D01*
X136748000Y-94130762D01*
X136652762Y-94178381D01*
X136557524Y-94178381D01*
X144636857Y-94781714D02*
X144398762Y-95448381D01*
X144160666Y-94781714D01*
X143255904Y-95448381D02*
X143827333Y-95448381D01*
X143541619Y-95448381D02*
X143541619Y-94448381D01*
X143636857Y-94591238D01*
X143732095Y-94686476D01*
X143827333Y-94734095D01*
X142827333Y-95353143D02*
X142779714Y-95400762D01*
X142827333Y-95448381D01*
X142874952Y-95400762D01*
X142827333Y-95353143D01*
X142827333Y-95448381D01*
X142160667Y-94448381D02*
X142065428Y-94448381D01*
X141970190Y-94496000D01*
X141922571Y-94543619D01*
X141874952Y-94638857D01*
X141827333Y-94829333D01*
X141827333Y-95067429D01*
X141874952Y-95257905D01*
X141922571Y-95353143D01*
X141970190Y-95400762D01*
X142065428Y-95448381D01*
X142160667Y-95448381D01*
X142255905Y-95400762D01*
X142303524Y-95353143D01*
X142351143Y-95257905D01*
X142398762Y-95067429D01*
X142398762Y-94829333D01*
X142351143Y-94638857D01*
X142303524Y-94543619D01*
X142255905Y-94496000D01*
X142160667Y-94448381D01*
X141398762Y-95353143D02*
X141351143Y-95400762D01*
X141398762Y-95448381D01*
X141446381Y-95400762D01*
X141398762Y-95353143D01*
X141398762Y-95448381D01*
X140732096Y-94448381D02*
X140636857Y-94448381D01*
X140541619Y-94496000D01*
X140494000Y-94543619D01*
X140446381Y-94638857D01*
X140398762Y-94829333D01*
X140398762Y-95067429D01*
X140446381Y-95257905D01*
X140494000Y-95353143D01*
X140541619Y-95400762D01*
X140636857Y-95448381D01*
X140732096Y-95448381D01*
X140827334Y-95400762D01*
X140874953Y-95353143D01*
X140922572Y-95257905D01*
X140970191Y-95067429D01*
X140970191Y-94829333D01*
X140922572Y-94638857D01*
X140874953Y-94543619D01*
X140827334Y-94496000D01*
X140732096Y-94448381D01*
X149630573Y-109835905D02*
X149630573Y-109035905D01*
X149630573Y-109797810D02*
X149706763Y-109835905D01*
X149859144Y-109835905D01*
X149935335Y-109797810D01*
X149973430Y-109759714D01*
X150011525Y-109683524D01*
X150011525Y-109454952D01*
X149973430Y-109378762D01*
X149935335Y-109340667D01*
X149859144Y-109302571D01*
X149706763Y-109302571D01*
X149630573Y-109340667D01*
X148906763Y-109797810D02*
X148982953Y-109835905D01*
X149135334Y-109835905D01*
X149211525Y-109797810D01*
X149249620Y-109759714D01*
X149287715Y-109683524D01*
X149287715Y-109454952D01*
X149249620Y-109378762D01*
X149211525Y-109340667D01*
X149135334Y-109302571D01*
X148982953Y-109302571D01*
X148906763Y-109340667D01*
X148602001Y-109797810D02*
X148525811Y-109835905D01*
X148373430Y-109835905D01*
X148297239Y-109797810D01*
X148259144Y-109721619D01*
X148259144Y-109683524D01*
X148297239Y-109607333D01*
X148373430Y-109569238D01*
X148487715Y-109569238D01*
X148563906Y-109531143D01*
X148602001Y-109454952D01*
X148602001Y-109416857D01*
X148563906Y-109340667D01*
X148487715Y-109302571D01*
X148373430Y-109302571D01*
X148297239Y-109340667D01*
X147573430Y-109302571D02*
X147573430Y-109835905D01*
X147916287Y-109302571D02*
X147916287Y-109721619D01*
X147878192Y-109797810D01*
X147802001Y-109835905D01*
X147687715Y-109835905D01*
X147611525Y-109797810D01*
X147573430Y-109759714D01*
X147192477Y-109302571D02*
X147192477Y-109835905D01*
X147192477Y-109378762D02*
X147154382Y-109340667D01*
X147078191Y-109302571D01*
X146963905Y-109302571D01*
X146887715Y-109340667D01*
X146849620Y-109416857D01*
X146849620Y-109835905D01*
X146354381Y-109378762D02*
X146430572Y-109340667D01*
X146468667Y-109302571D01*
X146506762Y-109226381D01*
X146506762Y-109188286D01*
X146468667Y-109112095D01*
X146430572Y-109074000D01*
X146354381Y-109035905D01*
X146202000Y-109035905D01*
X146125810Y-109074000D01*
X146087714Y-109112095D01*
X146049619Y-109188286D01*
X146049619Y-109226381D01*
X146087714Y-109302571D01*
X146125810Y-109340667D01*
X146202000Y-109378762D01*
X146354381Y-109378762D01*
X146430572Y-109416857D01*
X146468667Y-109454952D01*
X146506762Y-109531143D01*
X146506762Y-109683524D01*
X146468667Y-109759714D01*
X146430572Y-109797810D01*
X146354381Y-109835905D01*
X146202000Y-109835905D01*
X146125810Y-109797810D01*
X146087714Y-109759714D01*
X146049619Y-109683524D01*
X146049619Y-109531143D01*
X146087714Y-109454952D01*
X146125810Y-109416857D01*
X146202000Y-109378762D01*
X145592476Y-109378762D02*
X145668667Y-109340667D01*
X145706762Y-109302571D01*
X145744857Y-109226381D01*
X145744857Y-109188286D01*
X145706762Y-109112095D01*
X145668667Y-109074000D01*
X145592476Y-109035905D01*
X145440095Y-109035905D01*
X145363905Y-109074000D01*
X145325809Y-109112095D01*
X145287714Y-109188286D01*
X145287714Y-109226381D01*
X145325809Y-109302571D01*
X145363905Y-109340667D01*
X145440095Y-109378762D01*
X145592476Y-109378762D01*
X145668667Y-109416857D01*
X145706762Y-109454952D01*
X145744857Y-109531143D01*
X145744857Y-109683524D01*
X145706762Y-109759714D01*
X145668667Y-109797810D01*
X145592476Y-109835905D01*
X145440095Y-109835905D01*
X145363905Y-109797810D01*
X145325809Y-109759714D01*
X145287714Y-109683524D01*
X145287714Y-109531143D01*
X145325809Y-109454952D01*
X145363905Y-109416857D01*
X145440095Y-109378762D01*
X144830571Y-109835905D02*
X144906762Y-109797810D01*
X144944857Y-109759714D01*
X144982952Y-109683524D01*
X144982952Y-109454952D01*
X144944857Y-109378762D01*
X144906762Y-109340667D01*
X144830571Y-109302571D01*
X144716285Y-109302571D01*
X144640095Y-109340667D01*
X144602000Y-109378762D01*
X144563904Y-109454952D01*
X144563904Y-109683524D01*
X144602000Y-109759714D01*
X144640095Y-109797810D01*
X144716285Y-109835905D01*
X144830571Y-109835905D01*
X144259142Y-109797810D02*
X144182952Y-109835905D01*
X144030571Y-109835905D01*
X143954380Y-109797810D01*
X143916285Y-109721619D01*
X143916285Y-109683524D01*
X143954380Y-109607333D01*
X144030571Y-109569238D01*
X144144856Y-109569238D01*
X144221047Y-109531143D01*
X144259142Y-109454952D01*
X144259142Y-109416857D01*
X144221047Y-109340667D01*
X144144856Y-109302571D01*
X144030571Y-109302571D01*
X143954380Y-109340667D01*
X143573428Y-109835905D02*
X143573428Y-109035905D01*
X143230571Y-109835905D02*
X143230571Y-109416857D01*
X143268666Y-109340667D01*
X143344856Y-109302571D01*
X143459142Y-109302571D01*
X143535333Y-109340667D01*
X143573428Y-109378762D01*
X142354380Y-109454952D02*
X142392475Y-109416857D01*
X142468665Y-109378762D01*
X142544856Y-109378762D01*
X142621046Y-109416857D01*
X142659142Y-109454952D01*
X142697237Y-109531143D01*
X142697237Y-109607333D01*
X142659142Y-109683524D01*
X142621046Y-109721619D01*
X142544856Y-109759714D01*
X142468665Y-109759714D01*
X142392475Y-109721619D01*
X142354380Y-109683524D01*
X142354380Y-109378762D02*
X142354380Y-109683524D01*
X142316284Y-109721619D01*
X142278189Y-109721619D01*
X142201999Y-109683524D01*
X142163904Y-109607333D01*
X142163904Y-109416857D01*
X142240094Y-109302571D01*
X142354380Y-109226381D01*
X142506761Y-109188286D01*
X142659142Y-109226381D01*
X142773427Y-109302571D01*
X142849618Y-109416857D01*
X142887713Y-109569238D01*
X142849618Y-109721619D01*
X142773427Y-109835905D01*
X142659142Y-109912095D01*
X142506761Y-109950190D01*
X142354380Y-109912095D01*
X142240094Y-109835905D01*
X141478190Y-109302571D02*
X141478190Y-109950190D01*
X141516285Y-110026381D01*
X141554380Y-110064476D01*
X141630571Y-110102571D01*
X141744856Y-110102571D01*
X141821047Y-110064476D01*
X141478190Y-109797810D02*
X141554380Y-109835905D01*
X141706761Y-109835905D01*
X141782952Y-109797810D01*
X141821047Y-109759714D01*
X141859142Y-109683524D01*
X141859142Y-109454952D01*
X141821047Y-109378762D01*
X141782952Y-109340667D01*
X141706761Y-109302571D01*
X141554380Y-109302571D01*
X141478190Y-109340667D01*
X141097237Y-109835905D02*
X141097237Y-109302571D01*
X141097237Y-109378762D02*
X141059142Y-109340667D01*
X140982951Y-109302571D01*
X140868665Y-109302571D01*
X140792475Y-109340667D01*
X140754380Y-109416857D01*
X140754380Y-109835905D01*
X140754380Y-109416857D02*
X140716284Y-109340667D01*
X140640094Y-109302571D01*
X140525808Y-109302571D01*
X140449618Y-109340667D01*
X140411523Y-109416857D01*
X140411523Y-109835905D01*
X139687713Y-109835905D02*
X139687713Y-109416857D01*
X139725808Y-109340667D01*
X139801998Y-109302571D01*
X139954379Y-109302571D01*
X140030570Y-109340667D01*
X139687713Y-109797810D02*
X139763903Y-109835905D01*
X139954379Y-109835905D01*
X140030570Y-109797810D01*
X140068665Y-109721619D01*
X140068665Y-109645429D01*
X140030570Y-109569238D01*
X139954379Y-109531143D01*
X139763903Y-109531143D01*
X139687713Y-109493048D01*
X139306760Y-109835905D02*
X139306760Y-109302571D01*
X139306760Y-109035905D02*
X139344855Y-109074000D01*
X139306760Y-109112095D01*
X139268665Y-109074000D01*
X139306760Y-109035905D01*
X139306760Y-109112095D01*
X138811522Y-109835905D02*
X138887713Y-109797810D01*
X138925808Y-109721619D01*
X138925808Y-109035905D01*
X138506760Y-109759714D02*
X138468665Y-109797810D01*
X138506760Y-109835905D01*
X138544855Y-109797810D01*
X138506760Y-109759714D01*
X138506760Y-109835905D01*
X137782951Y-109797810D02*
X137859141Y-109835905D01*
X138011522Y-109835905D01*
X138087713Y-109797810D01*
X138125808Y-109759714D01*
X138163903Y-109683524D01*
X138163903Y-109454952D01*
X138125808Y-109378762D01*
X138087713Y-109340667D01*
X138011522Y-109302571D01*
X137859141Y-109302571D01*
X137782951Y-109340667D01*
X137325808Y-109835905D02*
X137401999Y-109797810D01*
X137440094Y-109759714D01*
X137478189Y-109683524D01*
X137478189Y-109454952D01*
X137440094Y-109378762D01*
X137401999Y-109340667D01*
X137325808Y-109302571D01*
X137211522Y-109302571D01*
X137135332Y-109340667D01*
X137097237Y-109378762D01*
X137059141Y-109454952D01*
X137059141Y-109683524D01*
X137097237Y-109759714D01*
X137135332Y-109797810D01*
X137211522Y-109835905D01*
X137325808Y-109835905D01*
X136716284Y-109835905D02*
X136716284Y-109302571D01*
X136716284Y-109378762D02*
X136678189Y-109340667D01*
X136601998Y-109302571D01*
X136487712Y-109302571D01*
X136411522Y-109340667D01*
X136373427Y-109416857D01*
X136373427Y-109835905D01*
X136373427Y-109416857D02*
X136335331Y-109340667D01*
X136259141Y-109302571D01*
X136144855Y-109302571D01*
X136068665Y-109340667D01*
X136030570Y-109416857D01*
X136030570Y-109835905D01*
%LPC*%
D13*
X134620000Y-104140000D03*
X134620000Y-99060000D03*
X134620000Y-101600000D03*
D14*
X132080000Y-107950000D03*
X132080000Y-95250000D03*
D13*
X129540000Y-101600000D03*
D15*
X139065000Y-105410000D03*
X141605000Y-102870000D03*
X141605000Y-100330000D03*
X139065000Y-97790000D03*
D16*
X153250000Y-105600000D03*
X153250000Y-97600000D03*
D17*
X146760000Y-100350000D03*
X148760000Y-100350000D03*
X146760000Y-102850000D03*
X148760000Y-102850000D03*
D15*
X136525000Y-102870000D03*
M02*
