G04 #@! TF.FileFunction,Legend,Top*
%FSLAX46Y46*%
G04 Gerber Fmt 4.6, Leading zero omitted, Abs format (unit mm)*
G04 Created by KiCad (PCBNEW 4.0.7) date Wed May 30 19:38:07 2018*
%MOMM*%
%LPD*%
G01*
G04 APERTURE LIST*
%ADD10C,0.100000*%
%ADD11C,0.127000*%
%ADD12C,0.150000*%
%ADD13C,0.120000*%
%ADD14C,1.244600*%
%ADD15C,3.276600*%
%ADD16C,1.625600*%
%ADD17C,4.701600*%
%ADD18C,1.752600*%
%ADD19R,1.301600X1.801600*%
G04 APERTURE END LIST*
D10*
D11*
X138373000Y-103141429D02*
X138373000Y-102541429D01*
X138515857Y-102541429D01*
X138601572Y-102570000D01*
X138658714Y-102627143D01*
X138687286Y-102684286D01*
X138715857Y-102798571D01*
X138715857Y-102884286D01*
X138687286Y-102998571D01*
X138658714Y-103055714D01*
X138601572Y-103112857D01*
X138515857Y-103141429D01*
X138373000Y-103141429D01*
X138973000Y-102912857D02*
X139430143Y-102912857D01*
X138373000Y-100601429D02*
X138373000Y-100001429D01*
X138515857Y-100001429D01*
X138601572Y-100030000D01*
X138658714Y-100087143D01*
X138687286Y-100144286D01*
X138715857Y-100258571D01*
X138715857Y-100344286D01*
X138687286Y-100458571D01*
X138658714Y-100515714D01*
X138601572Y-100572857D01*
X138515857Y-100601429D01*
X138373000Y-100601429D01*
X138973000Y-100372857D02*
X139430143Y-100372857D01*
X139201572Y-100601429D02*
X139201572Y-100144286D01*
X140223857Y-105452857D02*
X140681000Y-105452857D01*
X140452429Y-105681429D02*
X140452429Y-105224286D01*
X141252428Y-105081429D02*
X140966714Y-105081429D01*
X140938143Y-105367143D01*
X140966714Y-105338571D01*
X141023857Y-105310000D01*
X141166714Y-105310000D01*
X141223857Y-105338571D01*
X141252428Y-105367143D01*
X141281000Y-105424286D01*
X141281000Y-105567143D01*
X141252428Y-105624286D01*
X141223857Y-105652857D01*
X141166714Y-105681429D01*
X141023857Y-105681429D01*
X140966714Y-105652857D01*
X140938143Y-105624286D01*
X141481000Y-105281429D02*
X141623857Y-105681429D01*
X141766715Y-105281429D01*
X140538143Y-97490000D02*
X140481000Y-97461429D01*
X140395286Y-97461429D01*
X140309571Y-97490000D01*
X140252429Y-97547143D01*
X140223857Y-97604286D01*
X140195286Y-97718571D01*
X140195286Y-97804286D01*
X140223857Y-97918571D01*
X140252429Y-97975714D01*
X140309571Y-98032857D01*
X140395286Y-98061429D01*
X140452429Y-98061429D01*
X140538143Y-98032857D01*
X140566714Y-98004286D01*
X140566714Y-97804286D01*
X140452429Y-97804286D01*
X140823857Y-98061429D02*
X140823857Y-97461429D01*
X141166714Y-98061429D01*
X141166714Y-97461429D01*
X141452428Y-98061429D02*
X141452428Y-97461429D01*
X141595285Y-97461429D01*
X141681000Y-97490000D01*
X141738142Y-97547143D01*
X141766714Y-97604286D01*
X141795285Y-97718571D01*
X141795285Y-97804286D01*
X141766714Y-97918571D01*
X141738142Y-97975714D01*
X141681000Y-98032857D01*
X141595285Y-98061429D01*
X141452428Y-98061429D01*
X137877571Y-97661429D02*
X137877571Y-98061429D01*
X137734714Y-97432857D02*
X137591857Y-97861429D01*
X137963285Y-97861429D01*
X140103285Y-100001429D02*
X140474714Y-100001429D01*
X140274714Y-100230000D01*
X140360428Y-100230000D01*
X140417571Y-100258571D01*
X140446142Y-100287143D01*
X140474714Y-100344286D01*
X140474714Y-100487143D01*
X140446142Y-100544286D01*
X140417571Y-100572857D01*
X140360428Y-100601429D01*
X140189000Y-100601429D01*
X140131857Y-100572857D01*
X140103285Y-100544286D01*
X140131857Y-102598571D02*
X140160428Y-102570000D01*
X140217571Y-102541429D01*
X140360428Y-102541429D01*
X140417571Y-102570000D01*
X140446142Y-102598571D01*
X140474714Y-102655714D01*
X140474714Y-102712857D01*
X140446142Y-102798571D01*
X140103285Y-103141429D01*
X140474714Y-103141429D01*
X138061714Y-105681429D02*
X137718857Y-105681429D01*
X137890285Y-105681429D02*
X137890285Y-105081429D01*
X137833142Y-105167143D01*
X137776000Y-105224286D01*
X137718857Y-105252857D01*
X132486572Y-103840000D02*
X132429429Y-103811429D01*
X132343715Y-103811429D01*
X132258000Y-103840000D01*
X132200858Y-103897143D01*
X132172286Y-103954286D01*
X132143715Y-104068571D01*
X132143715Y-104154286D01*
X132172286Y-104268571D01*
X132200858Y-104325714D01*
X132258000Y-104382857D01*
X132343715Y-104411429D01*
X132400858Y-104411429D01*
X132486572Y-104382857D01*
X132515143Y-104354286D01*
X132515143Y-104154286D01*
X132400858Y-104154286D01*
X132772286Y-104411429D02*
X132772286Y-103811429D01*
X133115143Y-104411429D01*
X133115143Y-103811429D01*
X133400857Y-104411429D02*
X133400857Y-103811429D01*
X133543714Y-103811429D01*
X133629429Y-103840000D01*
X133686571Y-103897143D01*
X133715143Y-103954286D01*
X133743714Y-104068571D01*
X133743714Y-104154286D01*
X133715143Y-104268571D01*
X133686571Y-104325714D01*
X133629429Y-104382857D01*
X133543714Y-104411429D01*
X133400857Y-104411429D01*
X132486572Y-101300000D02*
X132429429Y-101271429D01*
X132343715Y-101271429D01*
X132258000Y-101300000D01*
X132200858Y-101357143D01*
X132172286Y-101414286D01*
X132143715Y-101528571D01*
X132143715Y-101614286D01*
X132172286Y-101728571D01*
X132200858Y-101785714D01*
X132258000Y-101842857D01*
X132343715Y-101871429D01*
X132400858Y-101871429D01*
X132486572Y-101842857D01*
X132515143Y-101814286D01*
X132515143Y-101614286D01*
X132400858Y-101614286D01*
X132772286Y-101871429D02*
X132772286Y-101271429D01*
X133115143Y-101871429D01*
X133115143Y-101271429D01*
X133400857Y-101871429D02*
X133400857Y-101271429D01*
X133543714Y-101271429D01*
X133629429Y-101300000D01*
X133686571Y-101357143D01*
X133715143Y-101414286D01*
X133743714Y-101528571D01*
X133743714Y-101614286D01*
X133715143Y-101728571D01*
X133686571Y-101785714D01*
X133629429Y-101842857D01*
X133543714Y-101871429D01*
X133400857Y-101871429D01*
X132486572Y-98760000D02*
X132429429Y-98731429D01*
X132343715Y-98731429D01*
X132258000Y-98760000D01*
X132200858Y-98817143D01*
X132172286Y-98874286D01*
X132143715Y-98988571D01*
X132143715Y-99074286D01*
X132172286Y-99188571D01*
X132200858Y-99245714D01*
X132258000Y-99302857D01*
X132343715Y-99331429D01*
X132400858Y-99331429D01*
X132486572Y-99302857D01*
X132515143Y-99274286D01*
X132515143Y-99074286D01*
X132400858Y-99074286D01*
X132772286Y-99331429D02*
X132772286Y-98731429D01*
X133115143Y-99331429D01*
X133115143Y-98731429D01*
X133400857Y-99331429D02*
X133400857Y-98731429D01*
X133543714Y-98731429D01*
X133629429Y-98760000D01*
X133686571Y-98817143D01*
X133715143Y-98874286D01*
X133743714Y-98988571D01*
X133743714Y-99074286D01*
X133715143Y-99188571D01*
X133686571Y-99245714D01*
X133629429Y-99302857D01*
X133543714Y-99331429D01*
X133400857Y-99331429D01*
D12*
X158750000Y-108600000D02*
X158750000Y-115600000D01*
X162750000Y-108600000D02*
X158750000Y-108600000D01*
X162750000Y-94600000D02*
X162750000Y-108600000D01*
X158750000Y-94600000D02*
X162750000Y-94600000D01*
X158750000Y-87600000D02*
X158750000Y-94600000D01*
X156750000Y-87600000D02*
X158750000Y-87600000D01*
X156750000Y-94600000D02*
X156750000Y-87600000D01*
X144750000Y-94600000D02*
X156750000Y-94600000D01*
X144750000Y-108600000D02*
X144750000Y-94600000D01*
X156750000Y-108600000D02*
X144750000Y-108600000D01*
X156750000Y-115600000D02*
X156750000Y-108600000D01*
X158750000Y-115600000D02*
X156750000Y-115600000D01*
D13*
X140065000Y-108893000D02*
X138065000Y-108893000D01*
X138065000Y-106753000D02*
X140065000Y-106753000D01*
D12*
X143962381Y-103290476D02*
X142962381Y-103290476D01*
X142962381Y-102909523D01*
X143010000Y-102814285D01*
X143057619Y-102766666D01*
X143152857Y-102719047D01*
X143295714Y-102719047D01*
X143390952Y-102766666D01*
X143438571Y-102814285D01*
X143486190Y-102909523D01*
X143486190Y-103290476D01*
X143962381Y-101766666D02*
X143962381Y-102338095D01*
X143962381Y-102052381D02*
X142962381Y-102052381D01*
X143105238Y-102147619D01*
X143200476Y-102242857D01*
X143248095Y-102338095D01*
X142962381Y-101147619D02*
X142962381Y-101052380D01*
X143010000Y-100957142D01*
X143057619Y-100909523D01*
X143152857Y-100861904D01*
X143343333Y-100814285D01*
X143581429Y-100814285D01*
X143771905Y-100861904D01*
X143867143Y-100909523D01*
X143914762Y-100957142D01*
X143962381Y-101052380D01*
X143962381Y-101147619D01*
X143914762Y-101242857D01*
X143867143Y-101290476D01*
X143771905Y-101338095D01*
X143581429Y-101385714D01*
X143343333Y-101385714D01*
X143152857Y-101338095D01*
X143057619Y-101290476D01*
X143010000Y-101242857D01*
X142962381Y-101147619D01*
X142962381Y-99909523D02*
X142962381Y-100385714D01*
X143438571Y-100433333D01*
X143390952Y-100385714D01*
X143343333Y-100290476D01*
X143343333Y-100052380D01*
X143390952Y-99957142D01*
X143438571Y-99909523D01*
X143533810Y-99861904D01*
X143771905Y-99861904D01*
X143867143Y-99909523D01*
X143914762Y-99957142D01*
X143962381Y-100052380D01*
X143962381Y-100290476D01*
X143914762Y-100385714D01*
X143867143Y-100433333D01*
X137945953Y-110180381D02*
X137612619Y-109704190D01*
X137374524Y-110180381D02*
X137374524Y-109180381D01*
X137755477Y-109180381D01*
X137850715Y-109228000D01*
X137898334Y-109275619D01*
X137945953Y-109370857D01*
X137945953Y-109513714D01*
X137898334Y-109608952D01*
X137850715Y-109656571D01*
X137755477Y-109704190D01*
X137374524Y-109704190D01*
X138898334Y-110180381D02*
X138326905Y-110180381D01*
X138612619Y-110180381D02*
X138612619Y-109180381D01*
X138517381Y-109323238D01*
X138422143Y-109418476D01*
X138326905Y-109466095D01*
X139517381Y-109180381D02*
X139612620Y-109180381D01*
X139707858Y-109228000D01*
X139755477Y-109275619D01*
X139803096Y-109370857D01*
X139850715Y-109561333D01*
X139850715Y-109799429D01*
X139803096Y-109989905D01*
X139755477Y-110085143D01*
X139707858Y-110132762D01*
X139612620Y-110180381D01*
X139517381Y-110180381D01*
X139422143Y-110132762D01*
X139374524Y-110085143D01*
X139326905Y-109989905D01*
X139279286Y-109799429D01*
X139279286Y-109561333D01*
X139326905Y-109370857D01*
X139374524Y-109275619D01*
X139422143Y-109228000D01*
X139517381Y-109180381D01*
X140803096Y-110180381D02*
X140231667Y-110180381D01*
X140517381Y-110180381D02*
X140517381Y-109180381D01*
X140422143Y-109323238D01*
X140326905Y-109418476D01*
X140231667Y-109466095D01*
%LPC*%
D14*
X134620000Y-104140000D03*
X134620000Y-99060000D03*
X134620000Y-101600000D03*
D15*
X132080000Y-107950000D03*
X132080000Y-95250000D03*
D14*
X129540000Y-101600000D03*
D16*
X139065000Y-105410000D03*
X141605000Y-102870000D03*
X141605000Y-100330000D03*
X139065000Y-97790000D03*
D17*
X153250000Y-105600000D03*
X153250000Y-97600000D03*
D18*
X146760000Y-100350000D03*
X148760000Y-100350000D03*
X146760000Y-102850000D03*
X148760000Y-102850000D03*
D19*
X137465000Y-107823000D03*
X140665000Y-107823000D03*
D16*
X136525000Y-102870000D03*
M02*
