G04 #@! TF.GenerationSoftware,KiCad,Pcbnew,(5.1.5)*
G04 #@! TF.CreationDate,2019-12-08T12:45:36-05:00*
G04 #@! TF.ProjectId,usbbbrkout,75736262-6272-46b6-9f75-742e6b696361,v1.0.0*
G04 #@! TF.SameCoordinates,Original*
G04 #@! TF.FileFunction,Copper,L3,Inr*
G04 #@! TF.FilePolarity,Positive*
%FSLAX46Y46*%
G04 Gerber Fmt 4.6, Leading zero omitted, Abs format (unit mm)*
G04 Created by KiCad (PCBNEW (5.1.5)) date 2019-12-08 12:45:36*
%MOMM*%
%LPD*%
G04 APERTURE LIST*
%ADD10C,1.143000*%
%ADD11C,1.524000*%
%ADD12C,4.600000*%
%ADD13C,1.651000*%
%ADD14C,0.254000*%
G04 APERTURE END LIST*
D10*
X134620000Y-104140000D03*
X134620000Y-99060000D03*
X134620000Y-101600000D03*
X129540000Y-101600000D03*
D11*
X139065000Y-105410000D03*
X141605000Y-102870000D03*
X141605000Y-100330000D03*
X139065000Y-97790000D03*
D12*
X153250000Y-105600000D03*
X153250000Y-97600000D03*
D13*
X146760000Y-100350000D03*
X148760000Y-100350000D03*
X146760000Y-102850000D03*
X148760000Y-102850000D03*
D11*
X136525000Y-102870000D03*
D14*
G36*
X133096255Y-92431053D02*
G01*
X133093798Y-92456000D01*
X133103601Y-92555535D01*
X133132635Y-92651246D01*
X133179783Y-92739453D01*
X133243233Y-92816767D01*
X133320547Y-92880217D01*
X133408754Y-92927365D01*
X133504465Y-92956399D01*
X133579063Y-92963746D01*
X133604000Y-92966202D01*
X133628937Y-92963746D01*
X138659063Y-92963746D01*
X138684000Y-92966202D01*
X138708937Y-92963746D01*
X138783535Y-92956399D01*
X138879246Y-92927365D01*
X138967453Y-92880217D01*
X139044767Y-92816767D01*
X139108217Y-92739453D01*
X139155365Y-92651246D01*
X139184399Y-92555535D01*
X139194202Y-92456000D01*
X139191746Y-92431063D01*
X139191746Y-91947746D01*
X155492254Y-91947746D01*
X155492254Y-95691538D01*
X155120953Y-95320237D01*
X154640244Y-94999037D01*
X154106108Y-94777791D01*
X153539072Y-94665000D01*
X152960928Y-94665000D01*
X152393892Y-94777791D01*
X151859756Y-94999037D01*
X151379047Y-95320237D01*
X150970237Y-95729047D01*
X150649037Y-96209756D01*
X150427791Y-96743892D01*
X150315000Y-97310928D01*
X150315000Y-97889072D01*
X150427791Y-98456108D01*
X150649037Y-98990244D01*
X150970237Y-99470953D01*
X151379047Y-99879763D01*
X151859756Y-100200963D01*
X152393892Y-100422209D01*
X152960928Y-100535000D01*
X153539072Y-100535000D01*
X154106108Y-100422209D01*
X154640244Y-100200963D01*
X155120953Y-99879763D01*
X155492254Y-99508462D01*
X155492255Y-103691539D01*
X155120953Y-103320237D01*
X154640244Y-102999037D01*
X154106108Y-102777791D01*
X153539072Y-102665000D01*
X152960928Y-102665000D01*
X152393892Y-102777791D01*
X151859756Y-102999037D01*
X151379047Y-103320237D01*
X150970237Y-103729047D01*
X150649037Y-104209756D01*
X150427791Y-104743892D01*
X150315000Y-105310928D01*
X150315000Y-105889072D01*
X150427791Y-106456108D01*
X150649037Y-106990244D01*
X150970237Y-107470953D01*
X151379047Y-107879763D01*
X151859756Y-108200963D01*
X152393892Y-108422209D01*
X152960928Y-108535000D01*
X153539072Y-108535000D01*
X154106108Y-108422209D01*
X154640244Y-108200963D01*
X155120953Y-107879763D01*
X155492255Y-107508461D01*
X155492255Y-111252254D01*
X139191746Y-111252254D01*
X139191746Y-110768937D01*
X139194202Y-110744000D01*
X139184399Y-110644465D01*
X139155365Y-110548754D01*
X139108217Y-110460547D01*
X139044767Y-110383233D01*
X138967453Y-110319783D01*
X138879246Y-110272635D01*
X138783535Y-110243601D01*
X138708937Y-110236254D01*
X138684000Y-110233798D01*
X138659063Y-110236254D01*
X133628937Y-110236254D01*
X133604000Y-110233798D01*
X133579063Y-110236254D01*
X133504465Y-110243601D01*
X133408754Y-110272635D01*
X133320547Y-110319783D01*
X133243233Y-110383233D01*
X133179783Y-110460547D01*
X133132635Y-110548754D01*
X133103601Y-110644465D01*
X133093798Y-110744000D01*
X133096255Y-110768947D01*
X133096254Y-111252254D01*
X128777746Y-111252254D01*
X128777746Y-107731103D01*
X129857500Y-107731103D01*
X129857500Y-108168897D01*
X129942909Y-108598279D01*
X130110446Y-109002749D01*
X130353671Y-109366761D01*
X130663239Y-109676329D01*
X131027251Y-109919554D01*
X131431721Y-110087091D01*
X131861103Y-110172500D01*
X132298897Y-110172500D01*
X132728279Y-110087091D01*
X133132749Y-109919554D01*
X133496761Y-109676329D01*
X133806329Y-109366761D01*
X134049554Y-109002749D01*
X134217091Y-108598279D01*
X134302500Y-108168897D01*
X134302500Y-107731103D01*
X134217091Y-107301721D01*
X134049554Y-106897251D01*
X133806329Y-106533239D01*
X133496761Y-106223671D01*
X133132749Y-105980446D01*
X132728279Y-105812909D01*
X132298897Y-105727500D01*
X131861103Y-105727500D01*
X131431721Y-105812909D01*
X131027251Y-105980446D01*
X130663239Y-106223671D01*
X130353671Y-106533239D01*
X130110446Y-106897251D01*
X129942909Y-107301721D01*
X129857500Y-107731103D01*
X128777746Y-107731103D01*
X128777746Y-105297449D01*
X137922254Y-105297449D01*
X137922254Y-105522551D01*
X137966169Y-105743327D01*
X138052312Y-105951293D01*
X138177371Y-106138458D01*
X138336542Y-106297629D01*
X138523707Y-106422688D01*
X138731673Y-106508831D01*
X138952449Y-106552746D01*
X139177551Y-106552746D01*
X139398327Y-106508831D01*
X139606293Y-106422688D01*
X139793458Y-106297629D01*
X139952629Y-106138458D01*
X140077688Y-105951293D01*
X140163831Y-105743327D01*
X140207746Y-105522551D01*
X140207746Y-105297449D01*
X140163831Y-105076673D01*
X140077688Y-104868707D01*
X139952629Y-104681542D01*
X139793458Y-104522371D01*
X139606293Y-104397312D01*
X139398327Y-104311169D01*
X139177551Y-104267254D01*
X138952449Y-104267254D01*
X138731673Y-104311169D01*
X138523707Y-104397312D01*
X138336542Y-104522371D01*
X138177371Y-104681542D01*
X138052312Y-104868707D01*
X137966169Y-105076673D01*
X137922254Y-105297449D01*
X128777746Y-105297449D01*
X128777746Y-104046212D01*
X133667754Y-104046212D01*
X133667754Y-104233788D01*
X133704348Y-104417760D01*
X133776130Y-104591058D01*
X133880342Y-104747022D01*
X134012978Y-104879658D01*
X134168942Y-104983870D01*
X134342240Y-105055652D01*
X134526212Y-105092246D01*
X134713788Y-105092246D01*
X134897760Y-105055652D01*
X135071058Y-104983870D01*
X135227022Y-104879658D01*
X135359658Y-104747022D01*
X135463870Y-104591058D01*
X135535652Y-104417760D01*
X135572246Y-104233788D01*
X135572246Y-104046212D01*
X135535652Y-103862240D01*
X135463870Y-103688942D01*
X135359658Y-103532978D01*
X135227022Y-103400342D01*
X135071058Y-103296130D01*
X134897760Y-103224348D01*
X134713788Y-103187754D01*
X134526212Y-103187754D01*
X134342240Y-103224348D01*
X134168942Y-103296130D01*
X134012978Y-103400342D01*
X133880342Y-103532978D01*
X133776130Y-103688942D01*
X133704348Y-103862240D01*
X133667754Y-104046212D01*
X128777746Y-104046212D01*
X128777746Y-102757449D01*
X140462254Y-102757449D01*
X140462254Y-102982551D01*
X140506169Y-103203327D01*
X140592312Y-103411293D01*
X140717371Y-103598458D01*
X140876542Y-103757629D01*
X141063707Y-103882688D01*
X141271673Y-103968831D01*
X141492449Y-104012746D01*
X141717551Y-104012746D01*
X141938327Y-103968831D01*
X142146293Y-103882688D01*
X142333458Y-103757629D01*
X142492629Y-103598458D01*
X142617688Y-103411293D01*
X142703831Y-103203327D01*
X142747746Y-102982551D01*
X142747746Y-102757449D01*
X142742524Y-102731195D01*
X145553754Y-102731195D01*
X145553754Y-102968805D01*
X145600109Y-103201849D01*
X145691038Y-103421372D01*
X145823047Y-103618937D01*
X145991063Y-103786953D01*
X146188628Y-103918962D01*
X146408151Y-104009891D01*
X146641195Y-104056246D01*
X146878805Y-104056246D01*
X147111849Y-104009891D01*
X147331372Y-103918962D01*
X147528937Y-103786953D01*
X147696953Y-103618937D01*
X147760000Y-103524581D01*
X147823047Y-103618937D01*
X147991063Y-103786953D01*
X148188628Y-103918962D01*
X148408151Y-104009891D01*
X148641195Y-104056246D01*
X148878805Y-104056246D01*
X149111849Y-104009891D01*
X149331372Y-103918962D01*
X149528937Y-103786953D01*
X149696953Y-103618937D01*
X149828962Y-103421372D01*
X149919891Y-103201849D01*
X149966246Y-102968805D01*
X149966246Y-102731195D01*
X149919891Y-102498151D01*
X149828962Y-102278628D01*
X149696953Y-102081063D01*
X149528937Y-101913047D01*
X149331372Y-101781038D01*
X149111849Y-101690109D01*
X148878805Y-101643754D01*
X148641195Y-101643754D01*
X148408151Y-101690109D01*
X148188628Y-101781038D01*
X147991063Y-101913047D01*
X147823047Y-102081063D01*
X147760000Y-102175419D01*
X147696953Y-102081063D01*
X147528937Y-101913047D01*
X147331372Y-101781038D01*
X147111849Y-101690109D01*
X146878805Y-101643754D01*
X146641195Y-101643754D01*
X146408151Y-101690109D01*
X146188628Y-101781038D01*
X145991063Y-101913047D01*
X145823047Y-102081063D01*
X145691038Y-102278628D01*
X145600109Y-102498151D01*
X145553754Y-102731195D01*
X142742524Y-102731195D01*
X142703831Y-102536673D01*
X142617688Y-102328707D01*
X142492629Y-102141542D01*
X142333458Y-101982371D01*
X142146293Y-101857312D01*
X141938327Y-101771169D01*
X141717551Y-101727254D01*
X141492449Y-101727254D01*
X141271673Y-101771169D01*
X141063707Y-101857312D01*
X140876542Y-101982371D01*
X140717371Y-102141542D01*
X140592312Y-102328707D01*
X140506169Y-102536673D01*
X140462254Y-102757449D01*
X128777746Y-102757449D01*
X128777746Y-102173205D01*
X128800342Y-102207022D01*
X128932978Y-102339658D01*
X129088942Y-102443870D01*
X129262240Y-102515652D01*
X129446212Y-102552246D01*
X129633788Y-102552246D01*
X129817760Y-102515652D01*
X129991058Y-102443870D01*
X130147022Y-102339658D01*
X130279658Y-102207022D01*
X130383870Y-102051058D01*
X130455652Y-101877760D01*
X130492246Y-101693788D01*
X130492246Y-101506212D01*
X133667754Y-101506212D01*
X133667754Y-101693788D01*
X133704348Y-101877760D01*
X133776130Y-102051058D01*
X133880342Y-102207022D01*
X134012978Y-102339658D01*
X134168942Y-102443870D01*
X134342240Y-102515652D01*
X134526212Y-102552246D01*
X134713788Y-102552246D01*
X134897760Y-102515652D01*
X135071058Y-102443870D01*
X135227022Y-102339658D01*
X135359658Y-102207022D01*
X135463870Y-102051058D01*
X135535652Y-101877760D01*
X135572246Y-101693788D01*
X135572246Y-101506212D01*
X135535652Y-101322240D01*
X135463870Y-101148942D01*
X135359658Y-100992978D01*
X135227022Y-100860342D01*
X135071058Y-100756130D01*
X134897760Y-100684348D01*
X134713788Y-100647754D01*
X134526212Y-100647754D01*
X134342240Y-100684348D01*
X134168942Y-100756130D01*
X134012978Y-100860342D01*
X133880342Y-100992978D01*
X133776130Y-101148942D01*
X133704348Y-101322240D01*
X133667754Y-101506212D01*
X130492246Y-101506212D01*
X130455652Y-101322240D01*
X130383870Y-101148942D01*
X130279658Y-100992978D01*
X130147022Y-100860342D01*
X129991058Y-100756130D01*
X129817760Y-100684348D01*
X129633788Y-100647754D01*
X129446212Y-100647754D01*
X129262240Y-100684348D01*
X129088942Y-100756130D01*
X128932978Y-100860342D01*
X128800342Y-100992978D01*
X128777746Y-101026795D01*
X128777746Y-100217449D01*
X140462254Y-100217449D01*
X140462254Y-100442551D01*
X140506169Y-100663327D01*
X140592312Y-100871293D01*
X140717371Y-101058458D01*
X140876542Y-101217629D01*
X141063707Y-101342688D01*
X141271673Y-101428831D01*
X141492449Y-101472746D01*
X141717551Y-101472746D01*
X141938327Y-101428831D01*
X142146293Y-101342688D01*
X142323255Y-101224446D01*
X146065159Y-101224446D01*
X146154222Y-101399846D01*
X146370677Y-101497855D01*
X146602093Y-101551752D01*
X146839578Y-101559467D01*
X147074004Y-101520702D01*
X147296364Y-101436948D01*
X147365778Y-101399846D01*
X147454841Y-101224446D01*
X146760000Y-100529605D01*
X146065159Y-101224446D01*
X142323255Y-101224446D01*
X142333458Y-101217629D01*
X142492629Y-101058458D01*
X142617688Y-100871293D01*
X142703831Y-100663327D01*
X142747746Y-100442551D01*
X142747746Y-100429578D01*
X145550533Y-100429578D01*
X145589298Y-100664004D01*
X145673052Y-100886364D01*
X145710154Y-100955778D01*
X145885554Y-101044841D01*
X146580395Y-100350000D01*
X146939605Y-100350000D01*
X147634446Y-101044841D01*
X147738301Y-100992106D01*
X147823047Y-101118937D01*
X147991063Y-101286953D01*
X148188628Y-101418962D01*
X148408151Y-101509891D01*
X148641195Y-101556246D01*
X148878805Y-101556246D01*
X149111849Y-101509891D01*
X149331372Y-101418962D01*
X149528937Y-101286953D01*
X149696953Y-101118937D01*
X149828962Y-100921372D01*
X149919891Y-100701849D01*
X149966246Y-100468805D01*
X149966246Y-100231195D01*
X149919891Y-99998151D01*
X149828962Y-99778628D01*
X149696953Y-99581063D01*
X149528937Y-99413047D01*
X149331372Y-99281038D01*
X149111849Y-99190109D01*
X148878805Y-99143754D01*
X148641195Y-99143754D01*
X148408151Y-99190109D01*
X148188628Y-99281038D01*
X147991063Y-99413047D01*
X147823047Y-99581063D01*
X147738301Y-99707894D01*
X147634446Y-99655159D01*
X146939605Y-100350000D01*
X146580395Y-100350000D01*
X145885554Y-99655159D01*
X145710154Y-99744222D01*
X145612145Y-99960677D01*
X145558248Y-100192093D01*
X145550533Y-100429578D01*
X142747746Y-100429578D01*
X142747746Y-100217449D01*
X142703831Y-99996673D01*
X142617688Y-99788707D01*
X142492629Y-99601542D01*
X142366641Y-99475554D01*
X146065159Y-99475554D01*
X146760000Y-100170395D01*
X147454841Y-99475554D01*
X147365778Y-99300154D01*
X147149323Y-99202145D01*
X146917907Y-99148248D01*
X146680422Y-99140533D01*
X146445996Y-99179298D01*
X146223636Y-99263052D01*
X146154222Y-99300154D01*
X146065159Y-99475554D01*
X142366641Y-99475554D01*
X142333458Y-99442371D01*
X142146293Y-99317312D01*
X141938327Y-99231169D01*
X141717551Y-99187254D01*
X141492449Y-99187254D01*
X141271673Y-99231169D01*
X141063707Y-99317312D01*
X140876542Y-99442371D01*
X140717371Y-99601542D01*
X140592312Y-99788707D01*
X140506169Y-99996673D01*
X140462254Y-100217449D01*
X128777746Y-100217449D01*
X128777746Y-98966212D01*
X133667754Y-98966212D01*
X133667754Y-99153788D01*
X133704348Y-99337760D01*
X133776130Y-99511058D01*
X133880342Y-99667022D01*
X134012978Y-99799658D01*
X134168942Y-99903870D01*
X134342240Y-99975652D01*
X134526212Y-100012246D01*
X134713788Y-100012246D01*
X134897760Y-99975652D01*
X135071058Y-99903870D01*
X135227022Y-99799658D01*
X135359658Y-99667022D01*
X135463870Y-99511058D01*
X135535652Y-99337760D01*
X135572246Y-99153788D01*
X135572246Y-98966212D01*
X135535652Y-98782240D01*
X135463870Y-98608942D01*
X135359658Y-98452978D01*
X135227022Y-98320342D01*
X135071058Y-98216130D01*
X134897760Y-98144348D01*
X134713788Y-98107754D01*
X134526212Y-98107754D01*
X134342240Y-98144348D01*
X134168942Y-98216130D01*
X134012978Y-98320342D01*
X133880342Y-98452978D01*
X133776130Y-98608942D01*
X133704348Y-98782240D01*
X133667754Y-98966212D01*
X128777746Y-98966212D01*
X128777746Y-97677449D01*
X137922254Y-97677449D01*
X137922254Y-97902551D01*
X137966169Y-98123327D01*
X138052312Y-98331293D01*
X138177371Y-98518458D01*
X138336542Y-98677629D01*
X138523707Y-98802688D01*
X138731673Y-98888831D01*
X138952449Y-98932746D01*
X139177551Y-98932746D01*
X139398327Y-98888831D01*
X139606293Y-98802688D01*
X139793458Y-98677629D01*
X139952629Y-98518458D01*
X140077688Y-98331293D01*
X140163831Y-98123327D01*
X140207746Y-97902551D01*
X140207746Y-97677449D01*
X140163831Y-97456673D01*
X140077688Y-97248707D01*
X139952629Y-97061542D01*
X139793458Y-96902371D01*
X139606293Y-96777312D01*
X139398327Y-96691169D01*
X139177551Y-96647254D01*
X138952449Y-96647254D01*
X138731673Y-96691169D01*
X138523707Y-96777312D01*
X138336542Y-96902371D01*
X138177371Y-97061542D01*
X138052312Y-97248707D01*
X137966169Y-97456673D01*
X137922254Y-97677449D01*
X128777746Y-97677449D01*
X128777746Y-95031103D01*
X129857500Y-95031103D01*
X129857500Y-95468897D01*
X129942909Y-95898279D01*
X130110446Y-96302749D01*
X130353671Y-96666761D01*
X130663239Y-96976329D01*
X131027251Y-97219554D01*
X131431721Y-97387091D01*
X131861103Y-97472500D01*
X132298897Y-97472500D01*
X132728279Y-97387091D01*
X133132749Y-97219554D01*
X133496761Y-96976329D01*
X133806329Y-96666761D01*
X134049554Y-96302749D01*
X134217091Y-95898279D01*
X134302500Y-95468897D01*
X134302500Y-95031103D01*
X134217091Y-94601721D01*
X134049554Y-94197251D01*
X133806329Y-93833239D01*
X133496761Y-93523671D01*
X133132749Y-93280446D01*
X132728279Y-93112909D01*
X132298897Y-93027500D01*
X131861103Y-93027500D01*
X131431721Y-93112909D01*
X131027251Y-93280446D01*
X130663239Y-93523671D01*
X130353671Y-93833239D01*
X130110446Y-94197251D01*
X129942909Y-94601721D01*
X129857500Y-95031103D01*
X128777746Y-95031103D01*
X128777746Y-91947746D01*
X133096254Y-91947746D01*
X133096255Y-92431053D01*
G37*
X133096255Y-92431053D02*
X133093798Y-92456000D01*
X133103601Y-92555535D01*
X133132635Y-92651246D01*
X133179783Y-92739453D01*
X133243233Y-92816767D01*
X133320547Y-92880217D01*
X133408754Y-92927365D01*
X133504465Y-92956399D01*
X133579063Y-92963746D01*
X133604000Y-92966202D01*
X133628937Y-92963746D01*
X138659063Y-92963746D01*
X138684000Y-92966202D01*
X138708937Y-92963746D01*
X138783535Y-92956399D01*
X138879246Y-92927365D01*
X138967453Y-92880217D01*
X139044767Y-92816767D01*
X139108217Y-92739453D01*
X139155365Y-92651246D01*
X139184399Y-92555535D01*
X139194202Y-92456000D01*
X139191746Y-92431063D01*
X139191746Y-91947746D01*
X155492254Y-91947746D01*
X155492254Y-95691538D01*
X155120953Y-95320237D01*
X154640244Y-94999037D01*
X154106108Y-94777791D01*
X153539072Y-94665000D01*
X152960928Y-94665000D01*
X152393892Y-94777791D01*
X151859756Y-94999037D01*
X151379047Y-95320237D01*
X150970237Y-95729047D01*
X150649037Y-96209756D01*
X150427791Y-96743892D01*
X150315000Y-97310928D01*
X150315000Y-97889072D01*
X150427791Y-98456108D01*
X150649037Y-98990244D01*
X150970237Y-99470953D01*
X151379047Y-99879763D01*
X151859756Y-100200963D01*
X152393892Y-100422209D01*
X152960928Y-100535000D01*
X153539072Y-100535000D01*
X154106108Y-100422209D01*
X154640244Y-100200963D01*
X155120953Y-99879763D01*
X155492254Y-99508462D01*
X155492255Y-103691539D01*
X155120953Y-103320237D01*
X154640244Y-102999037D01*
X154106108Y-102777791D01*
X153539072Y-102665000D01*
X152960928Y-102665000D01*
X152393892Y-102777791D01*
X151859756Y-102999037D01*
X151379047Y-103320237D01*
X150970237Y-103729047D01*
X150649037Y-104209756D01*
X150427791Y-104743892D01*
X150315000Y-105310928D01*
X150315000Y-105889072D01*
X150427791Y-106456108D01*
X150649037Y-106990244D01*
X150970237Y-107470953D01*
X151379047Y-107879763D01*
X151859756Y-108200963D01*
X152393892Y-108422209D01*
X152960928Y-108535000D01*
X153539072Y-108535000D01*
X154106108Y-108422209D01*
X154640244Y-108200963D01*
X155120953Y-107879763D01*
X155492255Y-107508461D01*
X155492255Y-111252254D01*
X139191746Y-111252254D01*
X139191746Y-110768937D01*
X139194202Y-110744000D01*
X139184399Y-110644465D01*
X139155365Y-110548754D01*
X139108217Y-110460547D01*
X139044767Y-110383233D01*
X138967453Y-110319783D01*
X138879246Y-110272635D01*
X138783535Y-110243601D01*
X138708937Y-110236254D01*
X138684000Y-110233798D01*
X138659063Y-110236254D01*
X133628937Y-110236254D01*
X133604000Y-110233798D01*
X133579063Y-110236254D01*
X133504465Y-110243601D01*
X133408754Y-110272635D01*
X133320547Y-110319783D01*
X133243233Y-110383233D01*
X133179783Y-110460547D01*
X133132635Y-110548754D01*
X133103601Y-110644465D01*
X133093798Y-110744000D01*
X133096255Y-110768947D01*
X133096254Y-111252254D01*
X128777746Y-111252254D01*
X128777746Y-107731103D01*
X129857500Y-107731103D01*
X129857500Y-108168897D01*
X129942909Y-108598279D01*
X130110446Y-109002749D01*
X130353671Y-109366761D01*
X130663239Y-109676329D01*
X131027251Y-109919554D01*
X131431721Y-110087091D01*
X131861103Y-110172500D01*
X132298897Y-110172500D01*
X132728279Y-110087091D01*
X133132749Y-109919554D01*
X133496761Y-109676329D01*
X133806329Y-109366761D01*
X134049554Y-109002749D01*
X134217091Y-108598279D01*
X134302500Y-108168897D01*
X134302500Y-107731103D01*
X134217091Y-107301721D01*
X134049554Y-106897251D01*
X133806329Y-106533239D01*
X133496761Y-106223671D01*
X133132749Y-105980446D01*
X132728279Y-105812909D01*
X132298897Y-105727500D01*
X131861103Y-105727500D01*
X131431721Y-105812909D01*
X131027251Y-105980446D01*
X130663239Y-106223671D01*
X130353671Y-106533239D01*
X130110446Y-106897251D01*
X129942909Y-107301721D01*
X129857500Y-107731103D01*
X128777746Y-107731103D01*
X128777746Y-105297449D01*
X137922254Y-105297449D01*
X137922254Y-105522551D01*
X137966169Y-105743327D01*
X138052312Y-105951293D01*
X138177371Y-106138458D01*
X138336542Y-106297629D01*
X138523707Y-106422688D01*
X138731673Y-106508831D01*
X138952449Y-106552746D01*
X139177551Y-106552746D01*
X139398327Y-106508831D01*
X139606293Y-106422688D01*
X139793458Y-106297629D01*
X139952629Y-106138458D01*
X140077688Y-105951293D01*
X140163831Y-105743327D01*
X140207746Y-105522551D01*
X140207746Y-105297449D01*
X140163831Y-105076673D01*
X140077688Y-104868707D01*
X139952629Y-104681542D01*
X139793458Y-104522371D01*
X139606293Y-104397312D01*
X139398327Y-104311169D01*
X139177551Y-104267254D01*
X138952449Y-104267254D01*
X138731673Y-104311169D01*
X138523707Y-104397312D01*
X138336542Y-104522371D01*
X138177371Y-104681542D01*
X138052312Y-104868707D01*
X137966169Y-105076673D01*
X137922254Y-105297449D01*
X128777746Y-105297449D01*
X128777746Y-104046212D01*
X133667754Y-104046212D01*
X133667754Y-104233788D01*
X133704348Y-104417760D01*
X133776130Y-104591058D01*
X133880342Y-104747022D01*
X134012978Y-104879658D01*
X134168942Y-104983870D01*
X134342240Y-105055652D01*
X134526212Y-105092246D01*
X134713788Y-105092246D01*
X134897760Y-105055652D01*
X135071058Y-104983870D01*
X135227022Y-104879658D01*
X135359658Y-104747022D01*
X135463870Y-104591058D01*
X135535652Y-104417760D01*
X135572246Y-104233788D01*
X135572246Y-104046212D01*
X135535652Y-103862240D01*
X135463870Y-103688942D01*
X135359658Y-103532978D01*
X135227022Y-103400342D01*
X135071058Y-103296130D01*
X134897760Y-103224348D01*
X134713788Y-103187754D01*
X134526212Y-103187754D01*
X134342240Y-103224348D01*
X134168942Y-103296130D01*
X134012978Y-103400342D01*
X133880342Y-103532978D01*
X133776130Y-103688942D01*
X133704348Y-103862240D01*
X133667754Y-104046212D01*
X128777746Y-104046212D01*
X128777746Y-102757449D01*
X140462254Y-102757449D01*
X140462254Y-102982551D01*
X140506169Y-103203327D01*
X140592312Y-103411293D01*
X140717371Y-103598458D01*
X140876542Y-103757629D01*
X141063707Y-103882688D01*
X141271673Y-103968831D01*
X141492449Y-104012746D01*
X141717551Y-104012746D01*
X141938327Y-103968831D01*
X142146293Y-103882688D01*
X142333458Y-103757629D01*
X142492629Y-103598458D01*
X142617688Y-103411293D01*
X142703831Y-103203327D01*
X142747746Y-102982551D01*
X142747746Y-102757449D01*
X142742524Y-102731195D01*
X145553754Y-102731195D01*
X145553754Y-102968805D01*
X145600109Y-103201849D01*
X145691038Y-103421372D01*
X145823047Y-103618937D01*
X145991063Y-103786953D01*
X146188628Y-103918962D01*
X146408151Y-104009891D01*
X146641195Y-104056246D01*
X146878805Y-104056246D01*
X147111849Y-104009891D01*
X147331372Y-103918962D01*
X147528937Y-103786953D01*
X147696953Y-103618937D01*
X147760000Y-103524581D01*
X147823047Y-103618937D01*
X147991063Y-103786953D01*
X148188628Y-103918962D01*
X148408151Y-104009891D01*
X148641195Y-104056246D01*
X148878805Y-104056246D01*
X149111849Y-104009891D01*
X149331372Y-103918962D01*
X149528937Y-103786953D01*
X149696953Y-103618937D01*
X149828962Y-103421372D01*
X149919891Y-103201849D01*
X149966246Y-102968805D01*
X149966246Y-102731195D01*
X149919891Y-102498151D01*
X149828962Y-102278628D01*
X149696953Y-102081063D01*
X149528937Y-101913047D01*
X149331372Y-101781038D01*
X149111849Y-101690109D01*
X148878805Y-101643754D01*
X148641195Y-101643754D01*
X148408151Y-101690109D01*
X148188628Y-101781038D01*
X147991063Y-101913047D01*
X147823047Y-102081063D01*
X147760000Y-102175419D01*
X147696953Y-102081063D01*
X147528937Y-101913047D01*
X147331372Y-101781038D01*
X147111849Y-101690109D01*
X146878805Y-101643754D01*
X146641195Y-101643754D01*
X146408151Y-101690109D01*
X146188628Y-101781038D01*
X145991063Y-101913047D01*
X145823047Y-102081063D01*
X145691038Y-102278628D01*
X145600109Y-102498151D01*
X145553754Y-102731195D01*
X142742524Y-102731195D01*
X142703831Y-102536673D01*
X142617688Y-102328707D01*
X142492629Y-102141542D01*
X142333458Y-101982371D01*
X142146293Y-101857312D01*
X141938327Y-101771169D01*
X141717551Y-101727254D01*
X141492449Y-101727254D01*
X141271673Y-101771169D01*
X141063707Y-101857312D01*
X140876542Y-101982371D01*
X140717371Y-102141542D01*
X140592312Y-102328707D01*
X140506169Y-102536673D01*
X140462254Y-102757449D01*
X128777746Y-102757449D01*
X128777746Y-102173205D01*
X128800342Y-102207022D01*
X128932978Y-102339658D01*
X129088942Y-102443870D01*
X129262240Y-102515652D01*
X129446212Y-102552246D01*
X129633788Y-102552246D01*
X129817760Y-102515652D01*
X129991058Y-102443870D01*
X130147022Y-102339658D01*
X130279658Y-102207022D01*
X130383870Y-102051058D01*
X130455652Y-101877760D01*
X130492246Y-101693788D01*
X130492246Y-101506212D01*
X133667754Y-101506212D01*
X133667754Y-101693788D01*
X133704348Y-101877760D01*
X133776130Y-102051058D01*
X133880342Y-102207022D01*
X134012978Y-102339658D01*
X134168942Y-102443870D01*
X134342240Y-102515652D01*
X134526212Y-102552246D01*
X134713788Y-102552246D01*
X134897760Y-102515652D01*
X135071058Y-102443870D01*
X135227022Y-102339658D01*
X135359658Y-102207022D01*
X135463870Y-102051058D01*
X135535652Y-101877760D01*
X135572246Y-101693788D01*
X135572246Y-101506212D01*
X135535652Y-101322240D01*
X135463870Y-101148942D01*
X135359658Y-100992978D01*
X135227022Y-100860342D01*
X135071058Y-100756130D01*
X134897760Y-100684348D01*
X134713788Y-100647754D01*
X134526212Y-100647754D01*
X134342240Y-100684348D01*
X134168942Y-100756130D01*
X134012978Y-100860342D01*
X133880342Y-100992978D01*
X133776130Y-101148942D01*
X133704348Y-101322240D01*
X133667754Y-101506212D01*
X130492246Y-101506212D01*
X130455652Y-101322240D01*
X130383870Y-101148942D01*
X130279658Y-100992978D01*
X130147022Y-100860342D01*
X129991058Y-100756130D01*
X129817760Y-100684348D01*
X129633788Y-100647754D01*
X129446212Y-100647754D01*
X129262240Y-100684348D01*
X129088942Y-100756130D01*
X128932978Y-100860342D01*
X128800342Y-100992978D01*
X128777746Y-101026795D01*
X128777746Y-100217449D01*
X140462254Y-100217449D01*
X140462254Y-100442551D01*
X140506169Y-100663327D01*
X140592312Y-100871293D01*
X140717371Y-101058458D01*
X140876542Y-101217629D01*
X141063707Y-101342688D01*
X141271673Y-101428831D01*
X141492449Y-101472746D01*
X141717551Y-101472746D01*
X141938327Y-101428831D01*
X142146293Y-101342688D01*
X142323255Y-101224446D01*
X146065159Y-101224446D01*
X146154222Y-101399846D01*
X146370677Y-101497855D01*
X146602093Y-101551752D01*
X146839578Y-101559467D01*
X147074004Y-101520702D01*
X147296364Y-101436948D01*
X147365778Y-101399846D01*
X147454841Y-101224446D01*
X146760000Y-100529605D01*
X146065159Y-101224446D01*
X142323255Y-101224446D01*
X142333458Y-101217629D01*
X142492629Y-101058458D01*
X142617688Y-100871293D01*
X142703831Y-100663327D01*
X142747746Y-100442551D01*
X142747746Y-100429578D01*
X145550533Y-100429578D01*
X145589298Y-100664004D01*
X145673052Y-100886364D01*
X145710154Y-100955778D01*
X145885554Y-101044841D01*
X146580395Y-100350000D01*
X146939605Y-100350000D01*
X147634446Y-101044841D01*
X147738301Y-100992106D01*
X147823047Y-101118937D01*
X147991063Y-101286953D01*
X148188628Y-101418962D01*
X148408151Y-101509891D01*
X148641195Y-101556246D01*
X148878805Y-101556246D01*
X149111849Y-101509891D01*
X149331372Y-101418962D01*
X149528937Y-101286953D01*
X149696953Y-101118937D01*
X149828962Y-100921372D01*
X149919891Y-100701849D01*
X149966246Y-100468805D01*
X149966246Y-100231195D01*
X149919891Y-99998151D01*
X149828962Y-99778628D01*
X149696953Y-99581063D01*
X149528937Y-99413047D01*
X149331372Y-99281038D01*
X149111849Y-99190109D01*
X148878805Y-99143754D01*
X148641195Y-99143754D01*
X148408151Y-99190109D01*
X148188628Y-99281038D01*
X147991063Y-99413047D01*
X147823047Y-99581063D01*
X147738301Y-99707894D01*
X147634446Y-99655159D01*
X146939605Y-100350000D01*
X146580395Y-100350000D01*
X145885554Y-99655159D01*
X145710154Y-99744222D01*
X145612145Y-99960677D01*
X145558248Y-100192093D01*
X145550533Y-100429578D01*
X142747746Y-100429578D01*
X142747746Y-100217449D01*
X142703831Y-99996673D01*
X142617688Y-99788707D01*
X142492629Y-99601542D01*
X142366641Y-99475554D01*
X146065159Y-99475554D01*
X146760000Y-100170395D01*
X147454841Y-99475554D01*
X147365778Y-99300154D01*
X147149323Y-99202145D01*
X146917907Y-99148248D01*
X146680422Y-99140533D01*
X146445996Y-99179298D01*
X146223636Y-99263052D01*
X146154222Y-99300154D01*
X146065159Y-99475554D01*
X142366641Y-99475554D01*
X142333458Y-99442371D01*
X142146293Y-99317312D01*
X141938327Y-99231169D01*
X141717551Y-99187254D01*
X141492449Y-99187254D01*
X141271673Y-99231169D01*
X141063707Y-99317312D01*
X140876542Y-99442371D01*
X140717371Y-99601542D01*
X140592312Y-99788707D01*
X140506169Y-99996673D01*
X140462254Y-100217449D01*
X128777746Y-100217449D01*
X128777746Y-98966212D01*
X133667754Y-98966212D01*
X133667754Y-99153788D01*
X133704348Y-99337760D01*
X133776130Y-99511058D01*
X133880342Y-99667022D01*
X134012978Y-99799658D01*
X134168942Y-99903870D01*
X134342240Y-99975652D01*
X134526212Y-100012246D01*
X134713788Y-100012246D01*
X134897760Y-99975652D01*
X135071058Y-99903870D01*
X135227022Y-99799658D01*
X135359658Y-99667022D01*
X135463870Y-99511058D01*
X135535652Y-99337760D01*
X135572246Y-99153788D01*
X135572246Y-98966212D01*
X135535652Y-98782240D01*
X135463870Y-98608942D01*
X135359658Y-98452978D01*
X135227022Y-98320342D01*
X135071058Y-98216130D01*
X134897760Y-98144348D01*
X134713788Y-98107754D01*
X134526212Y-98107754D01*
X134342240Y-98144348D01*
X134168942Y-98216130D01*
X134012978Y-98320342D01*
X133880342Y-98452978D01*
X133776130Y-98608942D01*
X133704348Y-98782240D01*
X133667754Y-98966212D01*
X128777746Y-98966212D01*
X128777746Y-97677449D01*
X137922254Y-97677449D01*
X137922254Y-97902551D01*
X137966169Y-98123327D01*
X138052312Y-98331293D01*
X138177371Y-98518458D01*
X138336542Y-98677629D01*
X138523707Y-98802688D01*
X138731673Y-98888831D01*
X138952449Y-98932746D01*
X139177551Y-98932746D01*
X139398327Y-98888831D01*
X139606293Y-98802688D01*
X139793458Y-98677629D01*
X139952629Y-98518458D01*
X140077688Y-98331293D01*
X140163831Y-98123327D01*
X140207746Y-97902551D01*
X140207746Y-97677449D01*
X140163831Y-97456673D01*
X140077688Y-97248707D01*
X139952629Y-97061542D01*
X139793458Y-96902371D01*
X139606293Y-96777312D01*
X139398327Y-96691169D01*
X139177551Y-96647254D01*
X138952449Y-96647254D01*
X138731673Y-96691169D01*
X138523707Y-96777312D01*
X138336542Y-96902371D01*
X138177371Y-97061542D01*
X138052312Y-97248707D01*
X137966169Y-97456673D01*
X137922254Y-97677449D01*
X128777746Y-97677449D01*
X128777746Y-95031103D01*
X129857500Y-95031103D01*
X129857500Y-95468897D01*
X129942909Y-95898279D01*
X130110446Y-96302749D01*
X130353671Y-96666761D01*
X130663239Y-96976329D01*
X131027251Y-97219554D01*
X131431721Y-97387091D01*
X131861103Y-97472500D01*
X132298897Y-97472500D01*
X132728279Y-97387091D01*
X133132749Y-97219554D01*
X133496761Y-96976329D01*
X133806329Y-96666761D01*
X134049554Y-96302749D01*
X134217091Y-95898279D01*
X134302500Y-95468897D01*
X134302500Y-95031103D01*
X134217091Y-94601721D01*
X134049554Y-94197251D01*
X133806329Y-93833239D01*
X133496761Y-93523671D01*
X133132749Y-93280446D01*
X132728279Y-93112909D01*
X132298897Y-93027500D01*
X131861103Y-93027500D01*
X131431721Y-93112909D01*
X131027251Y-93280446D01*
X130663239Y-93523671D01*
X130353671Y-93833239D01*
X130110446Y-94197251D01*
X129942909Y-94601721D01*
X129857500Y-95031103D01*
X128777746Y-95031103D01*
X128777746Y-91947746D01*
X133096254Y-91947746D01*
X133096255Y-92431053D01*
M02*
