G04 #@! TF.GenerationSoftware,KiCad,Pcbnew,8.0.6*
G04 #@! TF.CreationDate,2025-01-27T10:14:47-05:00*
G04 #@! TF.ProjectId,usbbbrkout,75736262-6272-46b6-9f75-742e6b696361,v1.1.0*
G04 #@! TF.SameCoordinates,Original*
G04 #@! TF.FileFunction,Copper,L3,Inr*
G04 #@! TF.FilePolarity,Positive*
%FSLAX46Y46*%
G04 Gerber Fmt 4.6, Leading zero omitted, Abs format (unit mm)*
G04 Created by KiCad (PCBNEW 8.0.6) date 2025-01-27 10:14:47*
%MOMM*%
%LPD*%
G01*
G04 APERTURE LIST*
G04 Aperture macros list*
%AMRoundRect*
0 Rectangle with rounded corners*
0 $1 Rounding radius*
0 $2 $3 $4 $5 $6 $7 $8 $9 X,Y pos of 4 corners*
0 Add a 4 corners polygon primitive as box body*
4,1,4,$2,$3,$4,$5,$6,$7,$8,$9,$2,$3,0*
0 Add four circle primitives for the rounded corners*
1,1,$1+$1,$2,$3*
1,1,$1+$1,$4,$5*
1,1,$1+$1,$6,$7*
1,1,$1+$1,$8,$9*
0 Add four rect primitives between the rounded corners*
20,1,$1+$1,$2,$3,$4,$5,0*
20,1,$1+$1,$4,$5,$6,$7,0*
20,1,$1+$1,$6,$7,$8,$9,0*
20,1,$1+$1,$8,$9,$2,$3,0*%
G04 Aperture macros list end*
G04 #@! TA.AperFunction,ComponentPad*
%ADD10C,1.016000*%
G04 #@! TD*
G04 #@! TA.AperFunction,ComponentPad*
%ADD11C,1.524000*%
G04 #@! TD*
G04 #@! TA.AperFunction,ComponentPad*
%ADD12RoundRect,0.250000X-0.575500X-0.575500X0.575500X-0.575500X0.575500X0.575500X-0.575500X0.575500X0*%
G04 #@! TD*
G04 #@! TA.AperFunction,ComponentPad*
%ADD13C,1.651000*%
G04 #@! TD*
G04 #@! TA.AperFunction,ComponentPad*
%ADD14C,4.600000*%
G04 #@! TD*
G04 #@! TA.AperFunction,ViaPad*
%ADD15C,1.524000*%
G04 #@! TD*
G04 APERTURE END LIST*
D10*
X129540000Y-101600000D03*
X134620000Y-101600000D03*
X134620000Y-99060000D03*
X134620000Y-104140000D03*
D11*
X139065000Y-105410000D03*
X141605000Y-102870000D03*
X141605000Y-100330000D03*
X139065000Y-97790000D03*
D12*
X146760000Y-100350000D03*
D13*
X146760000Y-102850000D03*
X148760000Y-102850000D03*
X148760000Y-100350000D03*
D14*
X153250000Y-97600000D03*
X153250000Y-105600000D03*
D15*
X136525000Y-102870000D03*
G04 #@! TA.AperFunction,Conductor*
G36*
X133418621Y-91587502D02*
G01*
X133465114Y-91641158D01*
X133476500Y-91693500D01*
X133476500Y-92481361D01*
X133495911Y-92528224D01*
X133531775Y-92564088D01*
X133531776Y-92564088D01*
X133531777Y-92564089D01*
X133578639Y-92583500D01*
X138709361Y-92583500D01*
X138756223Y-92564089D01*
X138792089Y-92528223D01*
X138811500Y-92481361D01*
X138811500Y-91693500D01*
X138831502Y-91625379D01*
X138885158Y-91578886D01*
X138937500Y-91567500D01*
X155746500Y-91567500D01*
X155814621Y-91587502D01*
X155861114Y-91641158D01*
X155872500Y-91693500D01*
X155872500Y-96610909D01*
X155852498Y-96679030D01*
X155798842Y-96725523D01*
X155728568Y-96735627D01*
X155663988Y-96706133D01*
X155632032Y-96661078D01*
X155631259Y-96661443D01*
X155607479Y-96610909D01*
X155492728Y-96367050D01*
X155433251Y-96273329D01*
X155320517Y-96095688D01*
X155320515Y-96095685D01*
X155115653Y-95848050D01*
X155115646Y-95848041D01*
X154881357Y-95628029D01*
X154855631Y-95609338D01*
X154621341Y-95439116D01*
X154496472Y-95370469D01*
X154339695Y-95284280D01*
X154040866Y-95165965D01*
X154040864Y-95165964D01*
X154040858Y-95165962D01*
X154040852Y-95165960D01*
X153729570Y-95086037D01*
X153729557Y-95086034D01*
X153410715Y-95045755D01*
X153410702Y-95045754D01*
X153410700Y-95045754D01*
X153089300Y-95045754D01*
X153089297Y-95045754D01*
X153089284Y-95045755D01*
X152770442Y-95086034D01*
X152770429Y-95086037D01*
X152459147Y-95165960D01*
X152459141Y-95165962D01*
X152160305Y-95284280D01*
X151878658Y-95439116D01*
X151618644Y-95628028D01*
X151618643Y-95628028D01*
X151384356Y-95848039D01*
X151384346Y-95848050D01*
X151179484Y-96095685D01*
X151179482Y-96095688D01*
X151007277Y-96367040D01*
X151007269Y-96367054D01*
X150870430Y-96657853D01*
X150870426Y-96657862D01*
X150771111Y-96963520D01*
X150771108Y-96963533D01*
X150710884Y-97279240D01*
X150690704Y-97599994D01*
X150690704Y-97600005D01*
X150710884Y-97920759D01*
X150771108Y-98236466D01*
X150771111Y-98236479D01*
X150870426Y-98542137D01*
X150870430Y-98542146D01*
X151007269Y-98832945D01*
X151007277Y-98832959D01*
X151179482Y-99104311D01*
X151179484Y-99104314D01*
X151179486Y-99104316D01*
X151384354Y-99351959D01*
X151618643Y-99571971D01*
X151878661Y-99760885D01*
X152160305Y-99915720D01*
X152459134Y-100034035D01*
X152459139Y-100034036D01*
X152459141Y-100034037D01*
X152459147Y-100034039D01*
X152697472Y-100095230D01*
X152770436Y-100113964D01*
X152770439Y-100113964D01*
X152770442Y-100113965D01*
X153089284Y-100154244D01*
X153089300Y-100154246D01*
X153089303Y-100154246D01*
X153410697Y-100154246D01*
X153410700Y-100154246D01*
X153596444Y-100130781D01*
X153729557Y-100113965D01*
X153729558Y-100113964D01*
X153729564Y-100113964D01*
X153894939Y-100071502D01*
X154040852Y-100034039D01*
X154040858Y-100034037D01*
X154040857Y-100034037D01*
X154040866Y-100034035D01*
X154339695Y-99915720D01*
X154621339Y-99760885D01*
X154881357Y-99571971D01*
X155115646Y-99351959D01*
X155320514Y-99104316D01*
X155492728Y-98832950D01*
X155629573Y-98542140D01*
X155629574Y-98542137D01*
X155631259Y-98538557D01*
X155632232Y-98539014D01*
X155673014Y-98486739D01*
X155740014Y-98463257D01*
X155809074Y-98479726D01*
X155858267Y-98530918D01*
X155872500Y-98589090D01*
X155872500Y-104610909D01*
X155852498Y-104679030D01*
X155798842Y-104725523D01*
X155728568Y-104735627D01*
X155663988Y-104706133D01*
X155632032Y-104661078D01*
X155631259Y-104661443D01*
X155610940Y-104618264D01*
X155492728Y-104367050D01*
X155456962Y-104310691D01*
X155320517Y-104095688D01*
X155320515Y-104095685D01*
X155152820Y-103892977D01*
X155115646Y-103848041D01*
X154881357Y-103628029D01*
X154815990Y-103580537D01*
X154621341Y-103439116D01*
X154535935Y-103392164D01*
X154339695Y-103284280D01*
X154040866Y-103165965D01*
X154040864Y-103165964D01*
X154040858Y-103165962D01*
X154040852Y-103165960D01*
X153729570Y-103086037D01*
X153729557Y-103086034D01*
X153410715Y-103045755D01*
X153410702Y-103045754D01*
X153410700Y-103045754D01*
X153089300Y-103045754D01*
X153089297Y-103045754D01*
X153089284Y-103045755D01*
X152770442Y-103086034D01*
X152770429Y-103086037D01*
X152459147Y-103165960D01*
X152459141Y-103165962D01*
X152160305Y-103284280D01*
X151878658Y-103439116D01*
X151618644Y-103628028D01*
X151618643Y-103628028D01*
X151384356Y-103848039D01*
X151384346Y-103848050D01*
X151179484Y-104095685D01*
X151179482Y-104095688D01*
X151007277Y-104367040D01*
X151007269Y-104367054D01*
X150870430Y-104657853D01*
X150870426Y-104657862D01*
X150771111Y-104963520D01*
X150771108Y-104963533D01*
X150710884Y-105279240D01*
X150690704Y-105599994D01*
X150690704Y-105600005D01*
X150710884Y-105920759D01*
X150710884Y-105920763D01*
X150710885Y-105920765D01*
X150751194Y-106132071D01*
X150771108Y-106236466D01*
X150771111Y-106236479D01*
X150870426Y-106542137D01*
X150870430Y-106542146D01*
X151007269Y-106832945D01*
X151007277Y-106832959D01*
X151179482Y-107104311D01*
X151179484Y-107104314D01*
X151205142Y-107135329D01*
X151384354Y-107351959D01*
X151618643Y-107571971D01*
X151878661Y-107760885D01*
X152160305Y-107915720D01*
X152459134Y-108034035D01*
X152459139Y-108034036D01*
X152459141Y-108034037D01*
X152459147Y-108034039D01*
X152697472Y-108095230D01*
X152770436Y-108113964D01*
X152770439Y-108113964D01*
X152770442Y-108113965D01*
X153089284Y-108154244D01*
X153089300Y-108154246D01*
X153089303Y-108154246D01*
X153410697Y-108154246D01*
X153410700Y-108154246D01*
X153562453Y-108135075D01*
X153729557Y-108113965D01*
X153729558Y-108113964D01*
X153729564Y-108113964D01*
X153898993Y-108070462D01*
X154040852Y-108034039D01*
X154040858Y-108034037D01*
X154040857Y-108034037D01*
X154040866Y-108034035D01*
X154339695Y-107915720D01*
X154621339Y-107760885D01*
X154881357Y-107571971D01*
X155115646Y-107351959D01*
X155320514Y-107104316D01*
X155492728Y-106832950D01*
X155629573Y-106542140D01*
X155629574Y-106542137D01*
X155631259Y-106538557D01*
X155632232Y-106539014D01*
X155673014Y-106486739D01*
X155740014Y-106463257D01*
X155809074Y-106479726D01*
X155858267Y-106530918D01*
X155872500Y-106589090D01*
X155872500Y-111506500D01*
X155852498Y-111574621D01*
X155798842Y-111621114D01*
X155746500Y-111632500D01*
X138937500Y-111632500D01*
X138869379Y-111612498D01*
X138822886Y-111558842D01*
X138811500Y-111506500D01*
X138811500Y-110718638D01*
X138792088Y-110671775D01*
X138756224Y-110635911D01*
X138709361Y-110616500D01*
X133629361Y-110616500D01*
X133578639Y-110616500D01*
X133531775Y-110635911D01*
X133495911Y-110671775D01*
X133476500Y-110718638D01*
X133476500Y-111506500D01*
X133456498Y-111574621D01*
X133402842Y-111621114D01*
X133350500Y-111632500D01*
X128523500Y-111632500D01*
X128455379Y-111612498D01*
X128408886Y-111558842D01*
X128397500Y-111506500D01*
X128397500Y-107829528D01*
X130242000Y-107829528D01*
X130242000Y-108070471D01*
X130273446Y-108309338D01*
X130335806Y-108542068D01*
X130335807Y-108542070D01*
X130335808Y-108542073D01*
X130428011Y-108764671D01*
X130428012Y-108764672D01*
X130428017Y-108764682D01*
X130548477Y-108973325D01*
X130695153Y-109164478D01*
X130695162Y-109164488D01*
X130865511Y-109334837D01*
X130865521Y-109334846D01*
X130865522Y-109334847D01*
X131056671Y-109481520D01*
X131265329Y-109601989D01*
X131487927Y-109694192D01*
X131720655Y-109756552D01*
X131720659Y-109756552D01*
X131720661Y-109756553D01*
X131782227Y-109764658D01*
X131959531Y-109788000D01*
X131959538Y-109788000D01*
X132200462Y-109788000D01*
X132200469Y-109788000D01*
X132416349Y-109759579D01*
X132439338Y-109756553D01*
X132439338Y-109756552D01*
X132439345Y-109756552D01*
X132672073Y-109694192D01*
X132894671Y-109601989D01*
X133103329Y-109481520D01*
X133294478Y-109334847D01*
X133464847Y-109164478D01*
X133611520Y-108973329D01*
X133731989Y-108764671D01*
X133824192Y-108542073D01*
X133886552Y-108309345D01*
X133918000Y-108070469D01*
X133918000Y-107829531D01*
X133886552Y-107590655D01*
X133824192Y-107357927D01*
X133731989Y-107135329D01*
X133611520Y-106926671D01*
X133464847Y-106735522D01*
X133464846Y-106735521D01*
X133464837Y-106735511D01*
X133294488Y-106565162D01*
X133294478Y-106565153D01*
X133103325Y-106418477D01*
X132894682Y-106298017D01*
X132894677Y-106298014D01*
X132894671Y-106298011D01*
X132672073Y-106205808D01*
X132672070Y-106205807D01*
X132672068Y-106205806D01*
X132439338Y-106143446D01*
X132200471Y-106112000D01*
X132200469Y-106112000D01*
X131959531Y-106112000D01*
X131959528Y-106112000D01*
X131720661Y-106143446D01*
X131487931Y-106205806D01*
X131487927Y-106205808D01*
X131265327Y-106298012D01*
X131265317Y-106298017D01*
X131056674Y-106418477D01*
X130865521Y-106565153D01*
X130865511Y-106565162D01*
X130695162Y-106735511D01*
X130695153Y-106735521D01*
X130548477Y-106926674D01*
X130428017Y-107135317D01*
X130428012Y-107135327D01*
X130335808Y-107357927D01*
X130335806Y-107357931D01*
X130273446Y-107590661D01*
X130242000Y-107829528D01*
X128397500Y-107829528D01*
X128397500Y-105409996D01*
X138043837Y-105409996D01*
X138043837Y-105410003D01*
X138063456Y-105609212D01*
X138063457Y-105609218D01*
X138063458Y-105609219D01*
X138121568Y-105800782D01*
X138215934Y-105977328D01*
X138342929Y-106132071D01*
X138497672Y-106259066D01*
X138674218Y-106353432D01*
X138865781Y-106411542D01*
X138865785Y-106411542D01*
X138865787Y-106411543D01*
X139064997Y-106431163D01*
X139065000Y-106431163D01*
X139065003Y-106431163D01*
X139264212Y-106411543D01*
X139264213Y-106411542D01*
X139264219Y-106411542D01*
X139455782Y-106353432D01*
X139632328Y-106259066D01*
X139787071Y-106132071D01*
X139914066Y-105977328D01*
X140008432Y-105800782D01*
X140066542Y-105609219D01*
X140067450Y-105600005D01*
X140086163Y-105410003D01*
X140086163Y-105409996D01*
X140066543Y-105210787D01*
X140066542Y-105210785D01*
X140066542Y-105210781D01*
X140008432Y-105019218D01*
X139914066Y-104842672D01*
X139787071Y-104687929D01*
X139632328Y-104560934D01*
X139455782Y-104466568D01*
X139264219Y-104408458D01*
X139264218Y-104408457D01*
X139264212Y-104408456D01*
X139065003Y-104388837D01*
X139064997Y-104388837D01*
X138865787Y-104408456D01*
X138674217Y-104466568D01*
X138497671Y-104560934D01*
X138342929Y-104687929D01*
X138215934Y-104842671D01*
X138121568Y-105019217D01*
X138063456Y-105210787D01*
X138043837Y-105409996D01*
X128397500Y-105409996D01*
X128397500Y-104140000D01*
X133852931Y-104140000D01*
X133872163Y-104310689D01*
X133872164Y-104310691D01*
X133928893Y-104472815D01*
X133928894Y-104472817D01*
X133928895Y-104472819D01*
X134020281Y-104618260D01*
X134020284Y-104618264D01*
X134141735Y-104739715D01*
X134141737Y-104739716D01*
X134141740Y-104739719D01*
X134287181Y-104831105D01*
X134449311Y-104887837D01*
X134620000Y-104907069D01*
X134790689Y-104887837D01*
X134952819Y-104831105D01*
X135098260Y-104739719D01*
X135219719Y-104618260D01*
X135311105Y-104472819D01*
X135367837Y-104310689D01*
X135387069Y-104140000D01*
X135367837Y-103969311D01*
X135311105Y-103807181D01*
X135219719Y-103661740D01*
X135219716Y-103661737D01*
X135219715Y-103661735D01*
X135098264Y-103540284D01*
X135098261Y-103540282D01*
X135098260Y-103540281D01*
X134952819Y-103448895D01*
X134952817Y-103448894D01*
X134952815Y-103448893D01*
X134823291Y-103403571D01*
X134790689Y-103392163D01*
X134620000Y-103372931D01*
X134449311Y-103392163D01*
X134449308Y-103392163D01*
X134449308Y-103392164D01*
X134287184Y-103448893D01*
X134141735Y-103540284D01*
X134020284Y-103661735D01*
X133928893Y-103807184D01*
X133886007Y-103929746D01*
X133872163Y-103969311D01*
X133852931Y-104140000D01*
X128397500Y-104140000D01*
X128397500Y-102869996D01*
X140583837Y-102869996D01*
X140583837Y-102870003D01*
X140603456Y-103069212D01*
X140603457Y-103069218D01*
X140603458Y-103069219D01*
X140661568Y-103260782D01*
X140755934Y-103437328D01*
X140882929Y-103592071D01*
X141037672Y-103719066D01*
X141214218Y-103813432D01*
X141405781Y-103871542D01*
X141405785Y-103871542D01*
X141405787Y-103871543D01*
X141604997Y-103891163D01*
X141605000Y-103891163D01*
X141605003Y-103891163D01*
X141804212Y-103871543D01*
X141804213Y-103871542D01*
X141804219Y-103871542D01*
X141995782Y-103813432D01*
X142172328Y-103719066D01*
X142327071Y-103592071D01*
X142454066Y-103437328D01*
X142548432Y-103260782D01*
X142606542Y-103069219D01*
X142608509Y-103049254D01*
X142626163Y-102870003D01*
X142626163Y-102869996D01*
X142624194Y-102850000D01*
X145675628Y-102850000D01*
X145694091Y-103049254D01*
X145748851Y-103241715D01*
X145748852Y-103241717D01*
X145748853Y-103241720D01*
X145814188Y-103372931D01*
X145838049Y-103420850D01*
X145958637Y-103580536D01*
X146106517Y-103715346D01*
X146106519Y-103715347D01*
X146106520Y-103715348D01*
X146276654Y-103820690D01*
X146463248Y-103892977D01*
X146659947Y-103929746D01*
X146659949Y-103929746D01*
X146860051Y-103929746D01*
X146860053Y-103929746D01*
X147056752Y-103892977D01*
X147243346Y-103820690D01*
X147413480Y-103715348D01*
X147561361Y-103580537D01*
X147659450Y-103450646D01*
X147716463Y-103408339D01*
X147787300Y-103403571D01*
X147849468Y-103437857D01*
X147860550Y-103450646D01*
X147958637Y-103580536D01*
X148106517Y-103715346D01*
X148106519Y-103715347D01*
X148106520Y-103715348D01*
X148276654Y-103820690D01*
X148463248Y-103892977D01*
X148659947Y-103929746D01*
X148659949Y-103929746D01*
X148860051Y-103929746D01*
X148860053Y-103929746D01*
X149056752Y-103892977D01*
X149243346Y-103820690D01*
X149413480Y-103715348D01*
X149561361Y-103580537D01*
X149681952Y-103420848D01*
X149771147Y-103241720D01*
X149825909Y-103049253D01*
X149844372Y-102850000D01*
X149825909Y-102650747D01*
X149771147Y-102458280D01*
X149681952Y-102279152D01*
X149659449Y-102249353D01*
X149561362Y-102119463D01*
X149413482Y-101984653D01*
X149243346Y-101879310D01*
X149243339Y-101879307D01*
X149056755Y-101807024D01*
X149056756Y-101807024D01*
X149056753Y-101807023D01*
X149056752Y-101807023D01*
X148860053Y-101770254D01*
X148659947Y-101770254D01*
X148463248Y-101807023D01*
X148463243Y-101807024D01*
X148276660Y-101879307D01*
X148276653Y-101879310D01*
X148106517Y-101984653D01*
X147958637Y-102119463D01*
X147860550Y-102249353D01*
X147803536Y-102291661D01*
X147732700Y-102296428D01*
X147670531Y-102262142D01*
X147659450Y-102249353D01*
X147561362Y-102119463D01*
X147413482Y-101984653D01*
X147243346Y-101879310D01*
X147243339Y-101879307D01*
X147056755Y-101807024D01*
X147056756Y-101807024D01*
X147056753Y-101807023D01*
X147056752Y-101807023D01*
X146860053Y-101770254D01*
X146659947Y-101770254D01*
X146463248Y-101807023D01*
X146463243Y-101807024D01*
X146276660Y-101879307D01*
X146276653Y-101879310D01*
X146106517Y-101984653D01*
X145958637Y-102119463D01*
X145838049Y-102279149D01*
X145748851Y-102458284D01*
X145694091Y-102650745D01*
X145675628Y-102850000D01*
X142624194Y-102850000D01*
X142606543Y-102670787D01*
X142606542Y-102670785D01*
X142606542Y-102670781D01*
X142548432Y-102479218D01*
X142454066Y-102302672D01*
X142327071Y-102147929D01*
X142172328Y-102020934D01*
X141995782Y-101926568D01*
X141804219Y-101868458D01*
X141804218Y-101868457D01*
X141804212Y-101868456D01*
X141605003Y-101848837D01*
X141604997Y-101848837D01*
X141405787Y-101868456D01*
X141214217Y-101926568D01*
X141037671Y-102020934D01*
X140882929Y-102147929D01*
X140755934Y-102302671D01*
X140661568Y-102479217D01*
X140603456Y-102670787D01*
X140583837Y-102869996D01*
X128397500Y-102869996D01*
X128397500Y-101600000D01*
X128772931Y-101600000D01*
X128792163Y-101770689D01*
X128792164Y-101770691D01*
X128848893Y-101932815D01*
X128848894Y-101932817D01*
X128848895Y-101932819D01*
X128904261Y-102020934D01*
X128940284Y-102078264D01*
X129061735Y-102199715D01*
X129061737Y-102199716D01*
X129061740Y-102199719D01*
X129207181Y-102291105D01*
X129369311Y-102347837D01*
X129540000Y-102367069D01*
X129710689Y-102347837D01*
X129872819Y-102291105D01*
X130018260Y-102199719D01*
X130139719Y-102078260D01*
X130231105Y-101932819D01*
X130287837Y-101770689D01*
X130307069Y-101600000D01*
X133852931Y-101600000D01*
X133872163Y-101770689D01*
X133872164Y-101770691D01*
X133928893Y-101932815D01*
X133928894Y-101932817D01*
X133928895Y-101932819D01*
X133984261Y-102020934D01*
X134020284Y-102078264D01*
X134141735Y-102199715D01*
X134141737Y-102199716D01*
X134141740Y-102199719D01*
X134287181Y-102291105D01*
X134449311Y-102347837D01*
X134620000Y-102367069D01*
X134790689Y-102347837D01*
X134952819Y-102291105D01*
X135098260Y-102199719D01*
X135219719Y-102078260D01*
X135311105Y-101932819D01*
X135367837Y-101770689D01*
X135387069Y-101600000D01*
X135367837Y-101429311D01*
X135311105Y-101267181D01*
X135219719Y-101121740D01*
X135219716Y-101121737D01*
X135219715Y-101121735D01*
X135098264Y-101000284D01*
X135098261Y-101000282D01*
X135098260Y-101000281D01*
X134952819Y-100908895D01*
X134952817Y-100908894D01*
X134952815Y-100908893D01*
X134844732Y-100871073D01*
X134790689Y-100852163D01*
X134620000Y-100832931D01*
X134449311Y-100852163D01*
X134449308Y-100852163D01*
X134449308Y-100852164D01*
X134287184Y-100908893D01*
X134141735Y-101000284D01*
X134020284Y-101121735D01*
X133928893Y-101267184D01*
X133884877Y-101392977D01*
X133872163Y-101429311D01*
X133852931Y-101600000D01*
X130307069Y-101600000D01*
X130287837Y-101429311D01*
X130231105Y-101267181D01*
X130139719Y-101121740D01*
X130139716Y-101121737D01*
X130139715Y-101121735D01*
X130018264Y-101000284D01*
X130018261Y-101000282D01*
X130018260Y-101000281D01*
X129872819Y-100908895D01*
X129872817Y-100908894D01*
X129872815Y-100908893D01*
X129764732Y-100871073D01*
X129710689Y-100852163D01*
X129540000Y-100832931D01*
X129369311Y-100852163D01*
X129369308Y-100852163D01*
X129369308Y-100852164D01*
X129207184Y-100908893D01*
X129061735Y-101000284D01*
X128940284Y-101121735D01*
X128848893Y-101267184D01*
X128804877Y-101392977D01*
X128792163Y-101429311D01*
X128772931Y-101600000D01*
X128397500Y-101600000D01*
X128397500Y-100329996D01*
X140583837Y-100329996D01*
X140583837Y-100330003D01*
X140603456Y-100529212D01*
X140603457Y-100529218D01*
X140603458Y-100529219D01*
X140661568Y-100720782D01*
X140755934Y-100897328D01*
X140882929Y-101052071D01*
X141037672Y-101179066D01*
X141214218Y-101273432D01*
X141405781Y-101331542D01*
X141405785Y-101331542D01*
X141405787Y-101331543D01*
X141604997Y-101351163D01*
X141605000Y-101351163D01*
X141605003Y-101351163D01*
X141804212Y-101331543D01*
X141804213Y-101331542D01*
X141804219Y-101331542D01*
X141995782Y-101273432D01*
X142172328Y-101179066D01*
X142327071Y-101052071D01*
X142454066Y-100897328D01*
X142548432Y-100720782D01*
X142606542Y-100529219D01*
X142624194Y-100350000D01*
X142626163Y-100330003D01*
X142626163Y-100329996D01*
X142606543Y-100130787D01*
X142606542Y-100130785D01*
X142606542Y-100130781D01*
X142548432Y-99939218D01*
X142454066Y-99762672D01*
X142424225Y-99726311D01*
X145680754Y-99726311D01*
X145680754Y-100973670D01*
X145680756Y-100973691D01*
X145687204Y-101033677D01*
X145695328Y-101055460D01*
X146308501Y-100442287D01*
X146331349Y-100527553D01*
X146391909Y-100632446D01*
X146477554Y-100718091D01*
X146582447Y-100778651D01*
X146667711Y-100801498D01*
X146054538Y-101414670D01*
X146076317Y-101422793D01*
X146076322Y-101422794D01*
X146136319Y-101429245D01*
X147383670Y-101429245D01*
X147383691Y-101429243D01*
X147443676Y-101422795D01*
X147465460Y-101414670D01*
X147465460Y-101414669D01*
X146852289Y-100801498D01*
X146937553Y-100778651D01*
X147042446Y-100718091D01*
X147128091Y-100632446D01*
X147188651Y-100527553D01*
X147211498Y-100442289D01*
X147824669Y-101055460D01*
X147847038Y-101050595D01*
X147917854Y-101055659D01*
X147958708Y-101080600D01*
X148106517Y-101215346D01*
X148106519Y-101215347D01*
X148106520Y-101215348D01*
X148276654Y-101320690D01*
X148463248Y-101392977D01*
X148659947Y-101429746D01*
X148659949Y-101429746D01*
X148860051Y-101429746D01*
X148860053Y-101429746D01*
X149056752Y-101392977D01*
X149243346Y-101320690D01*
X149413480Y-101215348D01*
X149561361Y-101080537D01*
X149582858Y-101052071D01*
X149681950Y-100920850D01*
X149681952Y-100920848D01*
X149771147Y-100741720D01*
X149825909Y-100549253D01*
X149844372Y-100350000D01*
X149825909Y-100150747D01*
X149771147Y-99958280D01*
X149681952Y-99779152D01*
X149669507Y-99762672D01*
X149561362Y-99619463D01*
X149413482Y-99484653D01*
X149243346Y-99379310D01*
X149243339Y-99379307D01*
X149056755Y-99307024D01*
X149056756Y-99307024D01*
X149056753Y-99307023D01*
X149056752Y-99307023D01*
X148860053Y-99270254D01*
X148659947Y-99270254D01*
X148463248Y-99307023D01*
X148463243Y-99307024D01*
X148276660Y-99379307D01*
X148276653Y-99379310D01*
X148106514Y-99484655D01*
X147958708Y-99619398D01*
X147894891Y-99650509D01*
X147847039Y-99649403D01*
X147824671Y-99644537D01*
X147211497Y-100257710D01*
X147188651Y-100172447D01*
X147128091Y-100067554D01*
X147042446Y-99981909D01*
X146937553Y-99921349D01*
X146852288Y-99898501D01*
X147465460Y-99285328D01*
X147443676Y-99277204D01*
X147383681Y-99270754D01*
X146136329Y-99270754D01*
X146136308Y-99270756D01*
X146076321Y-99277204D01*
X146054538Y-99285328D01*
X146054537Y-99285328D01*
X146667710Y-99898501D01*
X146582447Y-99921349D01*
X146477554Y-99981909D01*
X146391909Y-100067554D01*
X146331349Y-100172447D01*
X146308501Y-100257710D01*
X145695328Y-99644537D01*
X145695328Y-99644538D01*
X145687204Y-99666322D01*
X145680754Y-99726311D01*
X142424225Y-99726311D01*
X142327071Y-99607929D01*
X142172328Y-99480934D01*
X141995782Y-99386568D01*
X141804219Y-99328458D01*
X141804218Y-99328457D01*
X141804212Y-99328456D01*
X141605003Y-99308837D01*
X141604997Y-99308837D01*
X141405787Y-99328456D01*
X141214217Y-99386568D01*
X141037671Y-99480934D01*
X140882929Y-99607929D01*
X140755934Y-99762671D01*
X140661568Y-99939217D01*
X140603456Y-100130787D01*
X140583837Y-100329996D01*
X128397500Y-100329996D01*
X128397500Y-99060000D01*
X133852931Y-99060000D01*
X133872163Y-99230689D01*
X133886182Y-99270754D01*
X133928893Y-99392815D01*
X133928894Y-99392817D01*
X133928895Y-99392819D01*
X133986598Y-99484653D01*
X134020284Y-99538264D01*
X134141735Y-99659715D01*
X134141737Y-99659716D01*
X134141740Y-99659719D01*
X134287181Y-99751105D01*
X134449311Y-99807837D01*
X134620000Y-99827069D01*
X134790689Y-99807837D01*
X134952819Y-99751105D01*
X135098260Y-99659719D01*
X135219719Y-99538260D01*
X135311105Y-99392819D01*
X135367837Y-99230689D01*
X135387069Y-99060000D01*
X135367837Y-98889311D01*
X135311105Y-98727181D01*
X135219719Y-98581740D01*
X135219716Y-98581737D01*
X135219715Y-98581735D01*
X135098264Y-98460284D01*
X135098261Y-98460282D01*
X135098260Y-98460281D01*
X134952819Y-98368895D01*
X134952817Y-98368894D01*
X134952815Y-98368893D01*
X134844732Y-98331073D01*
X134790689Y-98312163D01*
X134620000Y-98292931D01*
X134449311Y-98312163D01*
X134449308Y-98312163D01*
X134449308Y-98312164D01*
X134287184Y-98368893D01*
X134141735Y-98460284D01*
X134020284Y-98581735D01*
X133928893Y-98727184D01*
X133872164Y-98889308D01*
X133872163Y-98889311D01*
X133852931Y-99060000D01*
X128397500Y-99060000D01*
X128397500Y-97789996D01*
X138043837Y-97789996D01*
X138043837Y-97790003D01*
X138063456Y-97989212D01*
X138063457Y-97989218D01*
X138063458Y-97989219D01*
X138121568Y-98180782D01*
X138215934Y-98357328D01*
X138342929Y-98512071D01*
X138497672Y-98639066D01*
X138674218Y-98733432D01*
X138865781Y-98791542D01*
X138865785Y-98791542D01*
X138865787Y-98791543D01*
X139064997Y-98811163D01*
X139065000Y-98811163D01*
X139065003Y-98811163D01*
X139264212Y-98791543D01*
X139264213Y-98791542D01*
X139264219Y-98791542D01*
X139455782Y-98733432D01*
X139632328Y-98639066D01*
X139787071Y-98512071D01*
X139914066Y-98357328D01*
X140008432Y-98180782D01*
X140066542Y-97989219D01*
X140086163Y-97790000D01*
X140086163Y-97789996D01*
X140066543Y-97590787D01*
X140066542Y-97590785D01*
X140066542Y-97590781D01*
X140008432Y-97399218D01*
X139914066Y-97222672D01*
X139787071Y-97067929D01*
X139632328Y-96940934D01*
X139455782Y-96846568D01*
X139264219Y-96788458D01*
X139264218Y-96788457D01*
X139264212Y-96788456D01*
X139065003Y-96768837D01*
X139064997Y-96768837D01*
X138865787Y-96788456D01*
X138674217Y-96846568D01*
X138497671Y-96940934D01*
X138342929Y-97067929D01*
X138215934Y-97222671D01*
X138121568Y-97399217D01*
X138063456Y-97590787D01*
X138043837Y-97789996D01*
X128397500Y-97789996D01*
X128397500Y-95129528D01*
X130242000Y-95129528D01*
X130242000Y-95370471D01*
X130273446Y-95609338D01*
X130335806Y-95842068D01*
X130335807Y-95842070D01*
X130335808Y-95842073D01*
X130428011Y-96064671D01*
X130428012Y-96064672D01*
X130428017Y-96064682D01*
X130548477Y-96273325D01*
X130695153Y-96464478D01*
X130695162Y-96464488D01*
X130865511Y-96634837D01*
X130865521Y-96634846D01*
X130865522Y-96634847D01*
X131056671Y-96781520D01*
X131265329Y-96901989D01*
X131487927Y-96994192D01*
X131720655Y-97056552D01*
X131720659Y-97056552D01*
X131720661Y-97056553D01*
X131782227Y-97064658D01*
X131959531Y-97088000D01*
X131959538Y-97088000D01*
X132200462Y-97088000D01*
X132200469Y-97088000D01*
X132416349Y-97059579D01*
X132439338Y-97056553D01*
X132439338Y-97056552D01*
X132439345Y-97056552D01*
X132672073Y-96994192D01*
X132894671Y-96901989D01*
X133103329Y-96781520D01*
X133294478Y-96634847D01*
X133464847Y-96464478D01*
X133611520Y-96273329D01*
X133731989Y-96064671D01*
X133824192Y-95842073D01*
X133886552Y-95609345D01*
X133918000Y-95370469D01*
X133918000Y-95129531D01*
X133886552Y-94890655D01*
X133824192Y-94657927D01*
X133731989Y-94435329D01*
X133611520Y-94226671D01*
X133464847Y-94035522D01*
X133464846Y-94035521D01*
X133464837Y-94035511D01*
X133294488Y-93865162D01*
X133294478Y-93865153D01*
X133103325Y-93718477D01*
X132894682Y-93598017D01*
X132894677Y-93598014D01*
X132894671Y-93598011D01*
X132672073Y-93505808D01*
X132672070Y-93505807D01*
X132672068Y-93505806D01*
X132439338Y-93443446D01*
X132200471Y-93412000D01*
X132200469Y-93412000D01*
X131959531Y-93412000D01*
X131959528Y-93412000D01*
X131720661Y-93443446D01*
X131487931Y-93505806D01*
X131487927Y-93505808D01*
X131265327Y-93598012D01*
X131265317Y-93598017D01*
X131056674Y-93718477D01*
X130865521Y-93865153D01*
X130865511Y-93865162D01*
X130695162Y-94035511D01*
X130695153Y-94035521D01*
X130548477Y-94226674D01*
X130428017Y-94435317D01*
X130428012Y-94435327D01*
X130335808Y-94657927D01*
X130335806Y-94657931D01*
X130273446Y-94890661D01*
X130242000Y-95129528D01*
X128397500Y-95129528D01*
X128397500Y-91693500D01*
X128417502Y-91625379D01*
X128471158Y-91578886D01*
X128523500Y-91567500D01*
X133350500Y-91567500D01*
X133418621Y-91587502D01*
G37*
G04 #@! TD.AperFunction*
M02*
