G04 #@! TF.GenerationSoftware,KiCad,Pcbnew,8.0.6*
G04 #@! TF.CreationDate,2025-01-18T08:25:15-05:00*
G04 #@! TF.ProjectId,usbbbrkout,75736262-6272-46b6-9f75-742e6b696361,v1.0.0*
G04 #@! TF.SameCoordinates,Original*
G04 #@! TF.FileFunction,Legend,Top*
G04 #@! TF.FilePolarity,Positive*
%FSLAX46Y46*%
G04 Gerber Fmt 4.6, Leading zero omitted, Abs format (unit mm)*
G04 Created by KiCad (PCBNEW 8.0.6) date 2025-01-18 08:25:15*
%MOMM*%
%LPD*%
G01*
G04 APERTURE LIST*
G04 Aperture macros list*
%AMRoundRect*
0 Rectangle with rounded corners*
0 $1 Rounding radius*
0 $2 $3 $4 $5 $6 $7 $8 $9 X,Y pos of 4 corners*
0 Add a 4 corners polygon primitive as box body*
4,1,4,$2,$3,$4,$5,$6,$7,$8,$9,$2,$3,0*
0 Add four circle primitives for the rounded corners*
1,1,$1+$1,$2,$3*
1,1,$1+$1,$4,$5*
1,1,$1+$1,$6,$7*
1,1,$1+$1,$8,$9*
0 Add four rect primitives between the rounded corners*
20,1,$1+$1,$2,$3,$4,$5,0*
20,1,$1+$1,$4,$5,$6,$7,0*
20,1,$1+$1,$6,$7,$8,$9,0*
20,1,$1+$1,$8,$9,$2,$3,0*%
G04 Aperture macros list end*
%ADD10C,0.127000*%
%ADD11C,0.150000*%
%ADD12C,0.120000*%
%ADD13C,3.276600*%
%ADD14C,1.117600*%
%ADD15C,1.625600*%
%ADD16RoundRect,0.265385X-0.610915X-0.610915X0.610915X-0.610915X0.610915X0.610915X-0.610915X0.610915X0*%
%ADD17C,1.752600*%
%ADD18C,4.701600*%
%ADD19RoundRect,0.271167X-0.379633X-0.629633X0.379633X-0.629633X0.379633X0.629633X-0.379633X0.629633X0*%
G04 APERTURE END LIST*
D10*
X132403019Y-98759538D02*
X132345877Y-98730967D01*
X132345877Y-98730967D02*
X132260162Y-98730967D01*
X132260162Y-98730967D02*
X132174448Y-98759538D01*
X132174448Y-98759538D02*
X132117305Y-98816681D01*
X132117305Y-98816681D02*
X132088734Y-98873824D01*
X132088734Y-98873824D02*
X132060162Y-98988110D01*
X132060162Y-98988110D02*
X132060162Y-99073824D01*
X132060162Y-99073824D02*
X132088734Y-99188110D01*
X132088734Y-99188110D02*
X132117305Y-99245253D01*
X132117305Y-99245253D02*
X132174448Y-99302396D01*
X132174448Y-99302396D02*
X132260162Y-99330967D01*
X132260162Y-99330967D02*
X132317305Y-99330967D01*
X132317305Y-99330967D02*
X132403019Y-99302396D01*
X132403019Y-99302396D02*
X132431591Y-99273824D01*
X132431591Y-99273824D02*
X132431591Y-99073824D01*
X132431591Y-99073824D02*
X132317305Y-99073824D01*
X132688734Y-99330967D02*
X132688734Y-98730967D01*
X132688734Y-98730967D02*
X133031591Y-99330967D01*
X133031591Y-99330967D02*
X133031591Y-98730967D01*
X133317305Y-99330967D02*
X133317305Y-98730967D01*
X133317305Y-98730967D02*
X133460162Y-98730967D01*
X133460162Y-98730967D02*
X133545876Y-98759538D01*
X133545876Y-98759538D02*
X133603019Y-98816681D01*
X133603019Y-98816681D02*
X133631590Y-98873824D01*
X133631590Y-98873824D02*
X133660162Y-98988110D01*
X133660162Y-98988110D02*
X133660162Y-99073824D01*
X133660162Y-99073824D02*
X133631590Y-99188110D01*
X133631590Y-99188110D02*
X133603019Y-99245253D01*
X133603019Y-99245253D02*
X133545876Y-99302396D01*
X133545876Y-99302396D02*
X133460162Y-99330967D01*
X133460162Y-99330967D02*
X133317305Y-99330967D01*
X132403019Y-101299538D02*
X132345877Y-101270967D01*
X132345877Y-101270967D02*
X132260162Y-101270967D01*
X132260162Y-101270967D02*
X132174448Y-101299538D01*
X132174448Y-101299538D02*
X132117305Y-101356681D01*
X132117305Y-101356681D02*
X132088734Y-101413824D01*
X132088734Y-101413824D02*
X132060162Y-101528110D01*
X132060162Y-101528110D02*
X132060162Y-101613824D01*
X132060162Y-101613824D02*
X132088734Y-101728110D01*
X132088734Y-101728110D02*
X132117305Y-101785253D01*
X132117305Y-101785253D02*
X132174448Y-101842396D01*
X132174448Y-101842396D02*
X132260162Y-101870967D01*
X132260162Y-101870967D02*
X132317305Y-101870967D01*
X132317305Y-101870967D02*
X132403019Y-101842396D01*
X132403019Y-101842396D02*
X132431591Y-101813824D01*
X132431591Y-101813824D02*
X132431591Y-101613824D01*
X132431591Y-101613824D02*
X132317305Y-101613824D01*
X132688734Y-101870967D02*
X132688734Y-101270967D01*
X132688734Y-101270967D02*
X133031591Y-101870967D01*
X133031591Y-101870967D02*
X133031591Y-101270967D01*
X133317305Y-101870967D02*
X133317305Y-101270967D01*
X133317305Y-101270967D02*
X133460162Y-101270967D01*
X133460162Y-101270967D02*
X133545876Y-101299538D01*
X133545876Y-101299538D02*
X133603019Y-101356681D01*
X133603019Y-101356681D02*
X133631590Y-101413824D01*
X133631590Y-101413824D02*
X133660162Y-101528110D01*
X133660162Y-101528110D02*
X133660162Y-101613824D01*
X133660162Y-101613824D02*
X133631590Y-101728110D01*
X133631590Y-101728110D02*
X133603019Y-101785253D01*
X133603019Y-101785253D02*
X133545876Y-101842396D01*
X133545876Y-101842396D02*
X133460162Y-101870967D01*
X133460162Y-101870967D02*
X133317305Y-101870967D01*
X132403019Y-103839538D02*
X132345877Y-103810967D01*
X132345877Y-103810967D02*
X132260162Y-103810967D01*
X132260162Y-103810967D02*
X132174448Y-103839538D01*
X132174448Y-103839538D02*
X132117305Y-103896681D01*
X132117305Y-103896681D02*
X132088734Y-103953824D01*
X132088734Y-103953824D02*
X132060162Y-104068110D01*
X132060162Y-104068110D02*
X132060162Y-104153824D01*
X132060162Y-104153824D02*
X132088734Y-104268110D01*
X132088734Y-104268110D02*
X132117305Y-104325253D01*
X132117305Y-104325253D02*
X132174448Y-104382396D01*
X132174448Y-104382396D02*
X132260162Y-104410967D01*
X132260162Y-104410967D02*
X132317305Y-104410967D01*
X132317305Y-104410967D02*
X132403019Y-104382396D01*
X132403019Y-104382396D02*
X132431591Y-104353824D01*
X132431591Y-104353824D02*
X132431591Y-104153824D01*
X132431591Y-104153824D02*
X132317305Y-104153824D01*
X132688734Y-104410967D02*
X132688734Y-103810967D01*
X132688734Y-103810967D02*
X133031591Y-104410967D01*
X133031591Y-104410967D02*
X133031591Y-103810967D01*
X133317305Y-104410967D02*
X133317305Y-103810967D01*
X133317305Y-103810967D02*
X133460162Y-103810967D01*
X133460162Y-103810967D02*
X133545876Y-103839538D01*
X133545876Y-103839538D02*
X133603019Y-103896681D01*
X133603019Y-103896681D02*
X133631590Y-103953824D01*
X133631590Y-103953824D02*
X133660162Y-104068110D01*
X133660162Y-104068110D02*
X133660162Y-104153824D01*
X133660162Y-104153824D02*
X133631590Y-104268110D01*
X133631590Y-104268110D02*
X133603019Y-104325253D01*
X133603019Y-104325253D02*
X133545876Y-104382396D01*
X133545876Y-104382396D02*
X133460162Y-104410967D01*
X133460162Y-104410967D02*
X133317305Y-104410967D01*
X137978161Y-105680967D02*
X137635304Y-105680967D01*
X137806733Y-105680967D02*
X137806733Y-105080967D01*
X137806733Y-105080967D02*
X137749590Y-105166681D01*
X137749590Y-105166681D02*
X137692447Y-105223824D01*
X137692447Y-105223824D02*
X137635304Y-105252396D01*
X140048304Y-102598110D02*
X140076876Y-102569538D01*
X140076876Y-102569538D02*
X140134019Y-102540967D01*
X140134019Y-102540967D02*
X140276876Y-102540967D01*
X140276876Y-102540967D02*
X140334019Y-102569538D01*
X140334019Y-102569538D02*
X140362590Y-102598110D01*
X140362590Y-102598110D02*
X140391161Y-102655253D01*
X140391161Y-102655253D02*
X140391161Y-102712396D01*
X140391161Y-102712396D02*
X140362590Y-102798110D01*
X140362590Y-102798110D02*
X140019733Y-103140967D01*
X140019733Y-103140967D02*
X140391161Y-103140967D01*
X140019733Y-100000967D02*
X140391161Y-100000967D01*
X140391161Y-100000967D02*
X140191161Y-100229538D01*
X140191161Y-100229538D02*
X140276876Y-100229538D01*
X140276876Y-100229538D02*
X140334019Y-100258110D01*
X140334019Y-100258110D02*
X140362590Y-100286681D01*
X140362590Y-100286681D02*
X140391161Y-100343824D01*
X140391161Y-100343824D02*
X140391161Y-100486681D01*
X140391161Y-100486681D02*
X140362590Y-100543824D01*
X140362590Y-100543824D02*
X140334019Y-100572396D01*
X140334019Y-100572396D02*
X140276876Y-100600967D01*
X140276876Y-100600967D02*
X140105447Y-100600967D01*
X140105447Y-100600967D02*
X140048304Y-100572396D01*
X140048304Y-100572396D02*
X140019733Y-100543824D01*
X137794019Y-97660967D02*
X137794019Y-98060967D01*
X137651161Y-97432396D02*
X137508304Y-97860967D01*
X137508304Y-97860967D02*
X137879733Y-97860967D01*
X140621694Y-97489538D02*
X140564552Y-97460967D01*
X140564552Y-97460967D02*
X140478837Y-97460967D01*
X140478837Y-97460967D02*
X140393123Y-97489538D01*
X140393123Y-97489538D02*
X140335980Y-97546681D01*
X140335980Y-97546681D02*
X140307409Y-97603824D01*
X140307409Y-97603824D02*
X140278837Y-97718110D01*
X140278837Y-97718110D02*
X140278837Y-97803824D01*
X140278837Y-97803824D02*
X140307409Y-97918110D01*
X140307409Y-97918110D02*
X140335980Y-97975253D01*
X140335980Y-97975253D02*
X140393123Y-98032396D01*
X140393123Y-98032396D02*
X140478837Y-98060967D01*
X140478837Y-98060967D02*
X140535980Y-98060967D01*
X140535980Y-98060967D02*
X140621694Y-98032396D01*
X140621694Y-98032396D02*
X140650266Y-98003824D01*
X140650266Y-98003824D02*
X140650266Y-97803824D01*
X140650266Y-97803824D02*
X140535980Y-97803824D01*
X140907409Y-98060967D02*
X140907409Y-97460967D01*
X140907409Y-97460967D02*
X141250266Y-98060967D01*
X141250266Y-98060967D02*
X141250266Y-97460967D01*
X141535980Y-98060967D02*
X141535980Y-97460967D01*
X141535980Y-97460967D02*
X141678837Y-97460967D01*
X141678837Y-97460967D02*
X141764551Y-97489538D01*
X141764551Y-97489538D02*
X141821694Y-97546681D01*
X141821694Y-97546681D02*
X141850265Y-97603824D01*
X141850265Y-97603824D02*
X141878837Y-97718110D01*
X141878837Y-97718110D02*
X141878837Y-97803824D01*
X141878837Y-97803824D02*
X141850265Y-97918110D01*
X141850265Y-97918110D02*
X141821694Y-97975253D01*
X141821694Y-97975253D02*
X141764551Y-98032396D01*
X141764551Y-98032396D02*
X141678837Y-98060967D01*
X141678837Y-98060967D02*
X141535980Y-98060967D01*
X140307409Y-105452396D02*
X140764552Y-105452396D01*
X140535980Y-105680967D02*
X140535980Y-105223824D01*
X141335980Y-105080967D02*
X141050266Y-105080967D01*
X141050266Y-105080967D02*
X141021694Y-105366681D01*
X141021694Y-105366681D02*
X141050266Y-105338110D01*
X141050266Y-105338110D02*
X141107409Y-105309538D01*
X141107409Y-105309538D02*
X141250266Y-105309538D01*
X141250266Y-105309538D02*
X141307409Y-105338110D01*
X141307409Y-105338110D02*
X141335980Y-105366681D01*
X141335980Y-105366681D02*
X141364551Y-105423824D01*
X141364551Y-105423824D02*
X141364551Y-105566681D01*
X141364551Y-105566681D02*
X141335980Y-105623824D01*
X141335980Y-105623824D02*
X141307409Y-105652396D01*
X141307409Y-105652396D02*
X141250266Y-105680967D01*
X141250266Y-105680967D02*
X141107409Y-105680967D01*
X141107409Y-105680967D02*
X141050266Y-105652396D01*
X141050266Y-105652396D02*
X141021694Y-105623824D01*
X141564552Y-105280967D02*
X141707409Y-105680967D01*
X141707409Y-105680967D02*
X141850266Y-105280967D01*
X138289448Y-100600967D02*
X138289448Y-100000967D01*
X138289448Y-100000967D02*
X138432305Y-100000967D01*
X138432305Y-100000967D02*
X138518019Y-100029538D01*
X138518019Y-100029538D02*
X138575162Y-100086681D01*
X138575162Y-100086681D02*
X138603733Y-100143824D01*
X138603733Y-100143824D02*
X138632305Y-100258110D01*
X138632305Y-100258110D02*
X138632305Y-100343824D01*
X138632305Y-100343824D02*
X138603733Y-100458110D01*
X138603733Y-100458110D02*
X138575162Y-100515253D01*
X138575162Y-100515253D02*
X138518019Y-100572396D01*
X138518019Y-100572396D02*
X138432305Y-100600967D01*
X138432305Y-100600967D02*
X138289448Y-100600967D01*
X138889448Y-100372396D02*
X139346591Y-100372396D01*
X139118019Y-100600967D02*
X139118019Y-100143824D01*
X138289448Y-103140967D02*
X138289448Y-102540967D01*
X138289448Y-102540967D02*
X138432305Y-102540967D01*
X138432305Y-102540967D02*
X138518019Y-102569538D01*
X138518019Y-102569538D02*
X138575162Y-102626681D01*
X138575162Y-102626681D02*
X138603733Y-102683824D01*
X138603733Y-102683824D02*
X138632305Y-102798110D01*
X138632305Y-102798110D02*
X138632305Y-102883824D01*
X138632305Y-102883824D02*
X138603733Y-102998110D01*
X138603733Y-102998110D02*
X138575162Y-103055253D01*
X138575162Y-103055253D02*
X138518019Y-103112396D01*
X138518019Y-103112396D02*
X138432305Y-103140967D01*
X138432305Y-103140967D02*
X138289448Y-103140967D01*
X138889448Y-102912396D02*
X139346591Y-102912396D01*
D11*
X144354819Y-103290475D02*
X143354819Y-103290475D01*
X143354819Y-103290475D02*
X143354819Y-102909523D01*
X143354819Y-102909523D02*
X143402438Y-102814285D01*
X143402438Y-102814285D02*
X143450057Y-102766666D01*
X143450057Y-102766666D02*
X143545295Y-102719047D01*
X143545295Y-102719047D02*
X143688152Y-102719047D01*
X143688152Y-102719047D02*
X143783390Y-102766666D01*
X143783390Y-102766666D02*
X143831009Y-102814285D01*
X143831009Y-102814285D02*
X143878628Y-102909523D01*
X143878628Y-102909523D02*
X143878628Y-103290475D01*
X144354819Y-101766666D02*
X144354819Y-102338094D01*
X144354819Y-102052380D02*
X143354819Y-102052380D01*
X143354819Y-102052380D02*
X143497676Y-102147618D01*
X143497676Y-102147618D02*
X143592914Y-102242856D01*
X143592914Y-102242856D02*
X143640533Y-102338094D01*
X143354819Y-101147618D02*
X143354819Y-101052380D01*
X143354819Y-101052380D02*
X143402438Y-100957142D01*
X143402438Y-100957142D02*
X143450057Y-100909523D01*
X143450057Y-100909523D02*
X143545295Y-100861904D01*
X143545295Y-100861904D02*
X143735771Y-100814285D01*
X143735771Y-100814285D02*
X143973866Y-100814285D01*
X143973866Y-100814285D02*
X144164342Y-100861904D01*
X144164342Y-100861904D02*
X144259580Y-100909523D01*
X144259580Y-100909523D02*
X144307200Y-100957142D01*
X144307200Y-100957142D02*
X144354819Y-101052380D01*
X144354819Y-101052380D02*
X144354819Y-101147618D01*
X144354819Y-101147618D02*
X144307200Y-101242856D01*
X144307200Y-101242856D02*
X144259580Y-101290475D01*
X144259580Y-101290475D02*
X144164342Y-101338094D01*
X144164342Y-101338094D02*
X143973866Y-101385713D01*
X143973866Y-101385713D02*
X143735771Y-101385713D01*
X143735771Y-101385713D02*
X143545295Y-101338094D01*
X143545295Y-101338094D02*
X143450057Y-101290475D01*
X143450057Y-101290475D02*
X143402438Y-101242856D01*
X143402438Y-101242856D02*
X143354819Y-101147618D01*
X143354819Y-99909523D02*
X143354819Y-100385713D01*
X143354819Y-100385713D02*
X143831009Y-100433332D01*
X143831009Y-100433332D02*
X143783390Y-100385713D01*
X143783390Y-100385713D02*
X143735771Y-100290475D01*
X143735771Y-100290475D02*
X143735771Y-100052380D01*
X143735771Y-100052380D02*
X143783390Y-99957142D01*
X143783390Y-99957142D02*
X143831009Y-99909523D01*
X143831009Y-99909523D02*
X143926247Y-99861904D01*
X143926247Y-99861904D02*
X144164342Y-99861904D01*
X144164342Y-99861904D02*
X144259580Y-99909523D01*
X144259580Y-99909523D02*
X144307200Y-99957142D01*
X144307200Y-99957142D02*
X144354819Y-100052380D01*
X144354819Y-100052380D02*
X144354819Y-100290475D01*
X144354819Y-100290475D02*
X144307200Y-100385713D01*
X144307200Y-100385713D02*
X144259580Y-100433332D01*
X137945952Y-110054819D02*
X137612619Y-109578628D01*
X137374524Y-110054819D02*
X137374524Y-109054819D01*
X137374524Y-109054819D02*
X137755476Y-109054819D01*
X137755476Y-109054819D02*
X137850714Y-109102438D01*
X137850714Y-109102438D02*
X137898333Y-109150057D01*
X137898333Y-109150057D02*
X137945952Y-109245295D01*
X137945952Y-109245295D02*
X137945952Y-109388152D01*
X137945952Y-109388152D02*
X137898333Y-109483390D01*
X137898333Y-109483390D02*
X137850714Y-109531009D01*
X137850714Y-109531009D02*
X137755476Y-109578628D01*
X137755476Y-109578628D02*
X137374524Y-109578628D01*
X138898333Y-110054819D02*
X138326905Y-110054819D01*
X138612619Y-110054819D02*
X138612619Y-109054819D01*
X138612619Y-109054819D02*
X138517381Y-109197676D01*
X138517381Y-109197676D02*
X138422143Y-109292914D01*
X138422143Y-109292914D02*
X138326905Y-109340533D01*
X139517381Y-109054819D02*
X139612619Y-109054819D01*
X139612619Y-109054819D02*
X139707857Y-109102438D01*
X139707857Y-109102438D02*
X139755476Y-109150057D01*
X139755476Y-109150057D02*
X139803095Y-109245295D01*
X139803095Y-109245295D02*
X139850714Y-109435771D01*
X139850714Y-109435771D02*
X139850714Y-109673866D01*
X139850714Y-109673866D02*
X139803095Y-109864342D01*
X139803095Y-109864342D02*
X139755476Y-109959580D01*
X139755476Y-109959580D02*
X139707857Y-110007200D01*
X139707857Y-110007200D02*
X139612619Y-110054819D01*
X139612619Y-110054819D02*
X139517381Y-110054819D01*
X139517381Y-110054819D02*
X139422143Y-110007200D01*
X139422143Y-110007200D02*
X139374524Y-109959580D01*
X139374524Y-109959580D02*
X139326905Y-109864342D01*
X139326905Y-109864342D02*
X139279286Y-109673866D01*
X139279286Y-109673866D02*
X139279286Y-109435771D01*
X139279286Y-109435771D02*
X139326905Y-109245295D01*
X139326905Y-109245295D02*
X139374524Y-109150057D01*
X139374524Y-109150057D02*
X139422143Y-109102438D01*
X139422143Y-109102438D02*
X139517381Y-109054819D01*
X140803095Y-110054819D02*
X140231667Y-110054819D01*
X140517381Y-110054819D02*
X140517381Y-109054819D01*
X140517381Y-109054819D02*
X140422143Y-109197676D01*
X140422143Y-109197676D02*
X140326905Y-109292914D01*
X140326905Y-109292914D02*
X140231667Y-109340533D01*
X144750000Y-94600000D02*
X156246000Y-94600000D01*
X144750000Y-108600000D02*
X144750000Y-94600000D01*
X145998000Y-97580000D02*
X146760000Y-98850000D01*
X146760000Y-98850000D02*
X147522000Y-97580000D01*
X147522000Y-97580000D02*
X145998000Y-97580000D01*
X156246000Y-108600000D02*
X144750000Y-108600000D01*
D12*
X138065000Y-106753000D02*
X140065000Y-106753000D01*
X140065000Y-108893000D02*
X138065000Y-108893000D01*
%LPC*%
D13*
X132080000Y-95250000D03*
X132080000Y-107950000D03*
D14*
X129540000Y-101600000D03*
X134620000Y-101600000D03*
X134620000Y-99060000D03*
X134620000Y-104140000D03*
D15*
X139065000Y-105410000D03*
X141605000Y-102870000D03*
X141605000Y-100330000D03*
X139065000Y-97790000D03*
D16*
X146760000Y-100350000D03*
D17*
X146760000Y-102850000D03*
X148760000Y-102850000D03*
X148760000Y-100350000D03*
D18*
X153250000Y-97600000D03*
X153250000Y-105600000D03*
D19*
X137465000Y-107823000D03*
X140665000Y-107823000D03*
D15*
X136525000Y-102870000D03*
%LPD*%
M02*
