G04 #@! TF.FileFunction,Legend,Bot*
%FSLAX46Y46*%
G04 Gerber Fmt 4.6, Leading zero omitted, Abs format (unit mm)*
G04 Created by KiCad (PCBNEW 4.0.7) date Sun Apr 29 11:31:08 2018*
%MOMM*%
%LPD*%
G01*
G04 APERTURE LIST*
%ADD10C,0.100000*%
%ADD11C,0.127000*%
%ADD12C,0.150000*%
%ADD13C,1.244600*%
%ADD14C,3.276600*%
%ADD15C,1.625600*%
%ADD16C,4.701600*%
%ADD17C,1.752600*%
G04 APERTURE END LIST*
D10*
D11*
X141709572Y-105452857D02*
X141252429Y-105452857D01*
X141481000Y-105681429D02*
X141481000Y-105224286D01*
X140681001Y-105081429D02*
X140966715Y-105081429D01*
X140995286Y-105367143D01*
X140966715Y-105338571D01*
X140909572Y-105310000D01*
X140766715Y-105310000D01*
X140709572Y-105338571D01*
X140681001Y-105367143D01*
X140652429Y-105424286D01*
X140652429Y-105567143D01*
X140681001Y-105624286D01*
X140709572Y-105652857D01*
X140766715Y-105681429D01*
X140909572Y-105681429D01*
X140966715Y-105652857D01*
X140995286Y-105624286D01*
X140452429Y-105281429D02*
X140309572Y-105681429D01*
X140166714Y-105281429D01*
X139430143Y-103141429D02*
X139430143Y-102541429D01*
X139287286Y-102541429D01*
X139201571Y-102570000D01*
X139144429Y-102627143D01*
X139115857Y-102684286D01*
X139087286Y-102798571D01*
X139087286Y-102884286D01*
X139115857Y-102998571D01*
X139144429Y-103055714D01*
X139201571Y-103112857D01*
X139287286Y-103141429D01*
X139430143Y-103141429D01*
X138830143Y-102912857D02*
X138373000Y-102912857D01*
X139430143Y-100601429D02*
X139430143Y-100001429D01*
X139287286Y-100001429D01*
X139201571Y-100030000D01*
X139144429Y-100087143D01*
X139115857Y-100144286D01*
X139087286Y-100258571D01*
X139087286Y-100344286D01*
X139115857Y-100458571D01*
X139144429Y-100515714D01*
X139201571Y-100572857D01*
X139287286Y-100601429D01*
X139430143Y-100601429D01*
X138830143Y-100372857D02*
X138373000Y-100372857D01*
X138601571Y-100601429D02*
X138601571Y-100144286D01*
X141452428Y-97490000D02*
X141509571Y-97461429D01*
X141595285Y-97461429D01*
X141681000Y-97490000D01*
X141738142Y-97547143D01*
X141766714Y-97604286D01*
X141795285Y-97718571D01*
X141795285Y-97804286D01*
X141766714Y-97918571D01*
X141738142Y-97975714D01*
X141681000Y-98032857D01*
X141595285Y-98061429D01*
X141538142Y-98061429D01*
X141452428Y-98032857D01*
X141423857Y-98004286D01*
X141423857Y-97804286D01*
X141538142Y-97804286D01*
X141166714Y-98061429D02*
X141166714Y-97461429D01*
X140823857Y-98061429D01*
X140823857Y-97461429D01*
X140538143Y-98061429D02*
X140538143Y-97461429D01*
X140395286Y-97461429D01*
X140309571Y-97490000D01*
X140252429Y-97547143D01*
X140223857Y-97604286D01*
X140195286Y-97718571D01*
X140195286Y-97804286D01*
X140223857Y-97918571D01*
X140252429Y-97975714D01*
X140309571Y-98032857D01*
X140395286Y-98061429D01*
X140538143Y-98061429D01*
X137649000Y-97661429D02*
X137649000Y-98061429D01*
X137791857Y-97432857D02*
X137934714Y-97861429D01*
X137563286Y-97861429D01*
X140503286Y-100001429D02*
X140131857Y-100001429D01*
X140331857Y-100230000D01*
X140246143Y-100230000D01*
X140189000Y-100258571D01*
X140160429Y-100287143D01*
X140131857Y-100344286D01*
X140131857Y-100487143D01*
X140160429Y-100544286D01*
X140189000Y-100572857D01*
X140246143Y-100601429D01*
X140417571Y-100601429D01*
X140474714Y-100572857D01*
X140503286Y-100544286D01*
X140474714Y-102598571D02*
X140446143Y-102570000D01*
X140389000Y-102541429D01*
X140246143Y-102541429D01*
X140189000Y-102570000D01*
X140160429Y-102598571D01*
X140131857Y-102655714D01*
X140131857Y-102712857D01*
X140160429Y-102798571D01*
X140503286Y-103141429D01*
X140131857Y-103141429D01*
X137718857Y-105681429D02*
X138061714Y-105681429D01*
X137890286Y-105681429D02*
X137890286Y-105081429D01*
X137947429Y-105167143D01*
X138004571Y-105224286D01*
X138061714Y-105252857D01*
X133400857Y-98760000D02*
X133458000Y-98731429D01*
X133543714Y-98731429D01*
X133629429Y-98760000D01*
X133686571Y-98817143D01*
X133715143Y-98874286D01*
X133743714Y-98988571D01*
X133743714Y-99074286D01*
X133715143Y-99188571D01*
X133686571Y-99245714D01*
X133629429Y-99302857D01*
X133543714Y-99331429D01*
X133486571Y-99331429D01*
X133400857Y-99302857D01*
X133372286Y-99274286D01*
X133372286Y-99074286D01*
X133486571Y-99074286D01*
X133115143Y-99331429D02*
X133115143Y-98731429D01*
X132772286Y-99331429D01*
X132772286Y-98731429D01*
X132486572Y-99331429D02*
X132486572Y-98731429D01*
X132343715Y-98731429D01*
X132258000Y-98760000D01*
X132200858Y-98817143D01*
X132172286Y-98874286D01*
X132143715Y-98988571D01*
X132143715Y-99074286D01*
X132172286Y-99188571D01*
X132200858Y-99245714D01*
X132258000Y-99302857D01*
X132343715Y-99331429D01*
X132486572Y-99331429D01*
X133400857Y-101300000D02*
X133458000Y-101271429D01*
X133543714Y-101271429D01*
X133629429Y-101300000D01*
X133686571Y-101357143D01*
X133715143Y-101414286D01*
X133743714Y-101528571D01*
X133743714Y-101614286D01*
X133715143Y-101728571D01*
X133686571Y-101785714D01*
X133629429Y-101842857D01*
X133543714Y-101871429D01*
X133486571Y-101871429D01*
X133400857Y-101842857D01*
X133372286Y-101814286D01*
X133372286Y-101614286D01*
X133486571Y-101614286D01*
X133115143Y-101871429D02*
X133115143Y-101271429D01*
X132772286Y-101871429D01*
X132772286Y-101271429D01*
X132486572Y-101871429D02*
X132486572Y-101271429D01*
X132343715Y-101271429D01*
X132258000Y-101300000D01*
X132200858Y-101357143D01*
X132172286Y-101414286D01*
X132143715Y-101528571D01*
X132143715Y-101614286D01*
X132172286Y-101728571D01*
X132200858Y-101785714D01*
X132258000Y-101842857D01*
X132343715Y-101871429D01*
X132486572Y-101871429D01*
X133400857Y-103840000D02*
X133458000Y-103811429D01*
X133543714Y-103811429D01*
X133629429Y-103840000D01*
X133686571Y-103897143D01*
X133715143Y-103954286D01*
X133743714Y-104068571D01*
X133743714Y-104154286D01*
X133715143Y-104268571D01*
X133686571Y-104325714D01*
X133629429Y-104382857D01*
X133543714Y-104411429D01*
X133486571Y-104411429D01*
X133400857Y-104382857D01*
X133372286Y-104354286D01*
X133372286Y-104154286D01*
X133486571Y-104154286D01*
X133115143Y-104411429D02*
X133115143Y-103811429D01*
X132772286Y-104411429D01*
X132772286Y-103811429D01*
X132486572Y-104411429D02*
X132486572Y-103811429D01*
X132343715Y-103811429D01*
X132258000Y-103840000D01*
X132200858Y-103897143D01*
X132172286Y-103954286D01*
X132143715Y-104068571D01*
X132143715Y-104154286D01*
X132172286Y-104268571D01*
X132200858Y-104325714D01*
X132258000Y-104382857D01*
X132343715Y-104411429D01*
X132486572Y-104411429D01*
D12*
X148795620Y-92797381D02*
X148795620Y-93606905D01*
X148748001Y-93702143D01*
X148700382Y-93749762D01*
X148605144Y-93797381D01*
X148414667Y-93797381D01*
X148319429Y-93749762D01*
X148271810Y-93702143D01*
X148224191Y-93606905D01*
X148224191Y-92797381D01*
X147795620Y-93749762D02*
X147652763Y-93797381D01*
X147414667Y-93797381D01*
X147319429Y-93749762D01*
X147271810Y-93702143D01*
X147224191Y-93606905D01*
X147224191Y-93511667D01*
X147271810Y-93416429D01*
X147319429Y-93368810D01*
X147414667Y-93321190D01*
X147605144Y-93273571D01*
X147700382Y-93225952D01*
X147748001Y-93178333D01*
X147795620Y-93083095D01*
X147795620Y-92987857D01*
X147748001Y-92892619D01*
X147700382Y-92845000D01*
X147605144Y-92797381D01*
X147367048Y-92797381D01*
X147224191Y-92845000D01*
X146462286Y-93273571D02*
X146319429Y-93321190D01*
X146271810Y-93368810D01*
X146224191Y-93464048D01*
X146224191Y-93606905D01*
X146271810Y-93702143D01*
X146319429Y-93749762D01*
X146414667Y-93797381D01*
X146795620Y-93797381D01*
X146795620Y-92797381D01*
X146462286Y-92797381D01*
X146367048Y-92845000D01*
X146319429Y-92892619D01*
X146271810Y-92987857D01*
X146271810Y-93083095D01*
X146319429Y-93178333D01*
X146367048Y-93225952D01*
X146462286Y-93273571D01*
X146795620Y-93273571D01*
X145795620Y-93416429D02*
X145033715Y-93416429D01*
X144224191Y-93273571D02*
X144081334Y-93321190D01*
X144033715Y-93368810D01*
X143986096Y-93464048D01*
X143986096Y-93606905D01*
X144033715Y-93702143D01*
X144081334Y-93749762D01*
X144176572Y-93797381D01*
X144557525Y-93797381D01*
X144557525Y-92797381D01*
X144224191Y-92797381D01*
X144128953Y-92845000D01*
X144081334Y-92892619D01*
X144033715Y-92987857D01*
X144033715Y-93083095D01*
X144081334Y-93178333D01*
X144128953Y-93225952D01*
X144224191Y-93273571D01*
X144557525Y-93273571D01*
X142462286Y-93273571D02*
X142319429Y-93321190D01*
X142271810Y-93368810D01*
X142224191Y-93464048D01*
X142224191Y-93606905D01*
X142271810Y-93702143D01*
X142319429Y-93749762D01*
X142414667Y-93797381D01*
X142795620Y-93797381D01*
X142795620Y-92797381D01*
X142462286Y-92797381D01*
X142367048Y-92845000D01*
X142319429Y-92892619D01*
X142271810Y-92987857D01*
X142271810Y-93083095D01*
X142319429Y-93178333D01*
X142367048Y-93225952D01*
X142462286Y-93273571D01*
X142795620Y-93273571D01*
X141795620Y-93797381D02*
X141795620Y-93130714D01*
X141795620Y-93321190D02*
X141748001Y-93225952D01*
X141700382Y-93178333D01*
X141605144Y-93130714D01*
X141509905Y-93130714D01*
X140795619Y-93749762D02*
X140890857Y-93797381D01*
X141081334Y-93797381D01*
X141176572Y-93749762D01*
X141224191Y-93654524D01*
X141224191Y-93273571D01*
X141176572Y-93178333D01*
X141081334Y-93130714D01*
X140890857Y-93130714D01*
X140795619Y-93178333D01*
X140748000Y-93273571D01*
X140748000Y-93368810D01*
X141224191Y-93464048D01*
X139890857Y-93797381D02*
X139890857Y-93273571D01*
X139938476Y-93178333D01*
X140033714Y-93130714D01*
X140224191Y-93130714D01*
X140319429Y-93178333D01*
X139890857Y-93749762D02*
X139986095Y-93797381D01*
X140224191Y-93797381D01*
X140319429Y-93749762D01*
X140367048Y-93654524D01*
X140367048Y-93559286D01*
X140319429Y-93464048D01*
X140224191Y-93416429D01*
X139986095Y-93416429D01*
X139890857Y-93368810D01*
X139414667Y-93797381D02*
X139414667Y-92797381D01*
X139319429Y-93416429D02*
X139033714Y-93797381D01*
X139033714Y-93130714D02*
X139414667Y-93511667D01*
X138462286Y-93797381D02*
X138557524Y-93749762D01*
X138605143Y-93702143D01*
X138652762Y-93606905D01*
X138652762Y-93321190D01*
X138605143Y-93225952D01*
X138557524Y-93178333D01*
X138462286Y-93130714D01*
X138319428Y-93130714D01*
X138224190Y-93178333D01*
X138176571Y-93225952D01*
X138128952Y-93321190D01*
X138128952Y-93606905D01*
X138176571Y-93702143D01*
X138224190Y-93749762D01*
X138319428Y-93797381D01*
X138462286Y-93797381D01*
X137271809Y-93130714D02*
X137271809Y-93797381D01*
X137700381Y-93130714D02*
X137700381Y-93654524D01*
X137652762Y-93749762D01*
X137557524Y-93797381D01*
X137414666Y-93797381D01*
X137319428Y-93749762D01*
X137271809Y-93702143D01*
X136938476Y-93130714D02*
X136557524Y-93130714D01*
X136795619Y-92797381D02*
X136795619Y-93654524D01*
X136748000Y-93749762D01*
X136652762Y-93797381D01*
X136557524Y-93797381D01*
X154288857Y-101385714D02*
X154050762Y-102052381D01*
X153812666Y-101385714D01*
X152907904Y-102052381D02*
X153479333Y-102052381D01*
X153193619Y-102052381D02*
X153193619Y-101052381D01*
X153288857Y-101195238D01*
X153384095Y-101290476D01*
X153479333Y-101338095D01*
X152479333Y-101957143D02*
X152431714Y-102004762D01*
X152479333Y-102052381D01*
X152526952Y-102004762D01*
X152479333Y-101957143D01*
X152479333Y-102052381D01*
X151812667Y-101052381D02*
X151717428Y-101052381D01*
X151622190Y-101100000D01*
X151574571Y-101147619D01*
X151526952Y-101242857D01*
X151479333Y-101433333D01*
X151479333Y-101671429D01*
X151526952Y-101861905D01*
X151574571Y-101957143D01*
X151622190Y-102004762D01*
X151717428Y-102052381D01*
X151812667Y-102052381D01*
X151907905Y-102004762D01*
X151955524Y-101957143D01*
X152003143Y-101861905D01*
X152050762Y-101671429D01*
X152050762Y-101433333D01*
X152003143Y-101242857D01*
X151955524Y-101147619D01*
X151907905Y-101100000D01*
X151812667Y-101052381D01*
X151050762Y-101957143D02*
X151003143Y-102004762D01*
X151050762Y-102052381D01*
X151098381Y-102004762D01*
X151050762Y-101957143D01*
X151050762Y-102052381D01*
X150384096Y-101052381D02*
X150288857Y-101052381D01*
X150193619Y-101100000D01*
X150146000Y-101147619D01*
X150098381Y-101242857D01*
X150050762Y-101433333D01*
X150050762Y-101671429D01*
X150098381Y-101861905D01*
X150146000Y-101957143D01*
X150193619Y-102004762D01*
X150288857Y-102052381D01*
X150384096Y-102052381D01*
X150479334Y-102004762D01*
X150526953Y-101957143D01*
X150574572Y-101861905D01*
X150622191Y-101671429D01*
X150622191Y-101433333D01*
X150574572Y-101242857D01*
X150526953Y-101147619D01*
X150479334Y-101100000D01*
X150384096Y-101052381D01*
X148487573Y-110216905D02*
X148487573Y-109416905D01*
X148487573Y-110178810D02*
X148563763Y-110216905D01*
X148716144Y-110216905D01*
X148792335Y-110178810D01*
X148830430Y-110140714D01*
X148868525Y-110064524D01*
X148868525Y-109835952D01*
X148830430Y-109759762D01*
X148792335Y-109721667D01*
X148716144Y-109683571D01*
X148563763Y-109683571D01*
X148487573Y-109721667D01*
X147763763Y-110178810D02*
X147839953Y-110216905D01*
X147992334Y-110216905D01*
X148068525Y-110178810D01*
X148106620Y-110140714D01*
X148144715Y-110064524D01*
X148144715Y-109835952D01*
X148106620Y-109759762D01*
X148068525Y-109721667D01*
X147992334Y-109683571D01*
X147839953Y-109683571D01*
X147763763Y-109721667D01*
X147459001Y-110178810D02*
X147382811Y-110216905D01*
X147230430Y-110216905D01*
X147154239Y-110178810D01*
X147116144Y-110102619D01*
X147116144Y-110064524D01*
X147154239Y-109988333D01*
X147230430Y-109950238D01*
X147344715Y-109950238D01*
X147420906Y-109912143D01*
X147459001Y-109835952D01*
X147459001Y-109797857D01*
X147420906Y-109721667D01*
X147344715Y-109683571D01*
X147230430Y-109683571D01*
X147154239Y-109721667D01*
X146430430Y-109683571D02*
X146430430Y-110216905D01*
X146773287Y-109683571D02*
X146773287Y-110102619D01*
X146735192Y-110178810D01*
X146659001Y-110216905D01*
X146544715Y-110216905D01*
X146468525Y-110178810D01*
X146430430Y-110140714D01*
X146049477Y-109683571D02*
X146049477Y-110216905D01*
X146049477Y-109759762D02*
X146011382Y-109721667D01*
X145935191Y-109683571D01*
X145820905Y-109683571D01*
X145744715Y-109721667D01*
X145706620Y-109797857D01*
X145706620Y-110216905D01*
X145211381Y-109759762D02*
X145287572Y-109721667D01*
X145325667Y-109683571D01*
X145363762Y-109607381D01*
X145363762Y-109569286D01*
X145325667Y-109493095D01*
X145287572Y-109455000D01*
X145211381Y-109416905D01*
X145059000Y-109416905D01*
X144982810Y-109455000D01*
X144944714Y-109493095D01*
X144906619Y-109569286D01*
X144906619Y-109607381D01*
X144944714Y-109683571D01*
X144982810Y-109721667D01*
X145059000Y-109759762D01*
X145211381Y-109759762D01*
X145287572Y-109797857D01*
X145325667Y-109835952D01*
X145363762Y-109912143D01*
X145363762Y-110064524D01*
X145325667Y-110140714D01*
X145287572Y-110178810D01*
X145211381Y-110216905D01*
X145059000Y-110216905D01*
X144982810Y-110178810D01*
X144944714Y-110140714D01*
X144906619Y-110064524D01*
X144906619Y-109912143D01*
X144944714Y-109835952D01*
X144982810Y-109797857D01*
X145059000Y-109759762D01*
X144449476Y-109759762D02*
X144525667Y-109721667D01*
X144563762Y-109683571D01*
X144601857Y-109607381D01*
X144601857Y-109569286D01*
X144563762Y-109493095D01*
X144525667Y-109455000D01*
X144449476Y-109416905D01*
X144297095Y-109416905D01*
X144220905Y-109455000D01*
X144182809Y-109493095D01*
X144144714Y-109569286D01*
X144144714Y-109607381D01*
X144182809Y-109683571D01*
X144220905Y-109721667D01*
X144297095Y-109759762D01*
X144449476Y-109759762D01*
X144525667Y-109797857D01*
X144563762Y-109835952D01*
X144601857Y-109912143D01*
X144601857Y-110064524D01*
X144563762Y-110140714D01*
X144525667Y-110178810D01*
X144449476Y-110216905D01*
X144297095Y-110216905D01*
X144220905Y-110178810D01*
X144182809Y-110140714D01*
X144144714Y-110064524D01*
X144144714Y-109912143D01*
X144182809Y-109835952D01*
X144220905Y-109797857D01*
X144297095Y-109759762D01*
X143687571Y-110216905D02*
X143763762Y-110178810D01*
X143801857Y-110140714D01*
X143839952Y-110064524D01*
X143839952Y-109835952D01*
X143801857Y-109759762D01*
X143763762Y-109721667D01*
X143687571Y-109683571D01*
X143573285Y-109683571D01*
X143497095Y-109721667D01*
X143459000Y-109759762D01*
X143420904Y-109835952D01*
X143420904Y-110064524D01*
X143459000Y-110140714D01*
X143497095Y-110178810D01*
X143573285Y-110216905D01*
X143687571Y-110216905D01*
X143116142Y-110178810D02*
X143039952Y-110216905D01*
X142887571Y-110216905D01*
X142811380Y-110178810D01*
X142773285Y-110102619D01*
X142773285Y-110064524D01*
X142811380Y-109988333D01*
X142887571Y-109950238D01*
X143001856Y-109950238D01*
X143078047Y-109912143D01*
X143116142Y-109835952D01*
X143116142Y-109797857D01*
X143078047Y-109721667D01*
X143001856Y-109683571D01*
X142887571Y-109683571D01*
X142811380Y-109721667D01*
X142430428Y-110216905D02*
X142430428Y-109416905D01*
X142087571Y-110216905D02*
X142087571Y-109797857D01*
X142125666Y-109721667D01*
X142201856Y-109683571D01*
X142316142Y-109683571D01*
X142392333Y-109721667D01*
X142430428Y-109759762D01*
X141211380Y-109835952D02*
X141249475Y-109797857D01*
X141325665Y-109759762D01*
X141401856Y-109759762D01*
X141478046Y-109797857D01*
X141516142Y-109835952D01*
X141554237Y-109912143D01*
X141554237Y-109988333D01*
X141516142Y-110064524D01*
X141478046Y-110102619D01*
X141401856Y-110140714D01*
X141325665Y-110140714D01*
X141249475Y-110102619D01*
X141211380Y-110064524D01*
X141211380Y-109759762D02*
X141211380Y-110064524D01*
X141173284Y-110102619D01*
X141135189Y-110102619D01*
X141058999Y-110064524D01*
X141020904Y-109988333D01*
X141020904Y-109797857D01*
X141097094Y-109683571D01*
X141211380Y-109607381D01*
X141363761Y-109569286D01*
X141516142Y-109607381D01*
X141630427Y-109683571D01*
X141706618Y-109797857D01*
X141744713Y-109950238D01*
X141706618Y-110102619D01*
X141630427Y-110216905D01*
X141516142Y-110293095D01*
X141363761Y-110331190D01*
X141211380Y-110293095D01*
X141097094Y-110216905D01*
X140335190Y-109683571D02*
X140335190Y-110331190D01*
X140373285Y-110407381D01*
X140411380Y-110445476D01*
X140487571Y-110483571D01*
X140601856Y-110483571D01*
X140678047Y-110445476D01*
X140335190Y-110178810D02*
X140411380Y-110216905D01*
X140563761Y-110216905D01*
X140639952Y-110178810D01*
X140678047Y-110140714D01*
X140716142Y-110064524D01*
X140716142Y-109835952D01*
X140678047Y-109759762D01*
X140639952Y-109721667D01*
X140563761Y-109683571D01*
X140411380Y-109683571D01*
X140335190Y-109721667D01*
X139954237Y-110216905D02*
X139954237Y-109683571D01*
X139954237Y-109759762D02*
X139916142Y-109721667D01*
X139839951Y-109683571D01*
X139725665Y-109683571D01*
X139649475Y-109721667D01*
X139611380Y-109797857D01*
X139611380Y-110216905D01*
X139611380Y-109797857D02*
X139573284Y-109721667D01*
X139497094Y-109683571D01*
X139382808Y-109683571D01*
X139306618Y-109721667D01*
X139268523Y-109797857D01*
X139268523Y-110216905D01*
X138544713Y-110216905D02*
X138544713Y-109797857D01*
X138582808Y-109721667D01*
X138658998Y-109683571D01*
X138811379Y-109683571D01*
X138887570Y-109721667D01*
X138544713Y-110178810D02*
X138620903Y-110216905D01*
X138811379Y-110216905D01*
X138887570Y-110178810D01*
X138925665Y-110102619D01*
X138925665Y-110026429D01*
X138887570Y-109950238D01*
X138811379Y-109912143D01*
X138620903Y-109912143D01*
X138544713Y-109874048D01*
X138163760Y-110216905D02*
X138163760Y-109683571D01*
X138163760Y-109416905D02*
X138201855Y-109455000D01*
X138163760Y-109493095D01*
X138125665Y-109455000D01*
X138163760Y-109416905D01*
X138163760Y-109493095D01*
X137668522Y-110216905D02*
X137744713Y-110178810D01*
X137782808Y-110102619D01*
X137782808Y-109416905D01*
X137363760Y-110140714D02*
X137325665Y-110178810D01*
X137363760Y-110216905D01*
X137401855Y-110178810D01*
X137363760Y-110140714D01*
X137363760Y-110216905D01*
X136639951Y-110178810D02*
X136716141Y-110216905D01*
X136868522Y-110216905D01*
X136944713Y-110178810D01*
X136982808Y-110140714D01*
X137020903Y-110064524D01*
X137020903Y-109835952D01*
X136982808Y-109759762D01*
X136944713Y-109721667D01*
X136868522Y-109683571D01*
X136716141Y-109683571D01*
X136639951Y-109721667D01*
X136182808Y-110216905D02*
X136258999Y-110178810D01*
X136297094Y-110140714D01*
X136335189Y-110064524D01*
X136335189Y-109835952D01*
X136297094Y-109759762D01*
X136258999Y-109721667D01*
X136182808Y-109683571D01*
X136068522Y-109683571D01*
X135992332Y-109721667D01*
X135954237Y-109759762D01*
X135916141Y-109835952D01*
X135916141Y-110064524D01*
X135954237Y-110140714D01*
X135992332Y-110178810D01*
X136068522Y-110216905D01*
X136182808Y-110216905D01*
X135573284Y-110216905D02*
X135573284Y-109683571D01*
X135573284Y-109759762D02*
X135535189Y-109721667D01*
X135458998Y-109683571D01*
X135344712Y-109683571D01*
X135268522Y-109721667D01*
X135230427Y-109797857D01*
X135230427Y-110216905D01*
X135230427Y-109797857D02*
X135192331Y-109721667D01*
X135116141Y-109683571D01*
X135001855Y-109683571D01*
X134925665Y-109721667D01*
X134887570Y-109797857D01*
X134887570Y-110216905D01*
%LPC*%
D13*
X134620000Y-104140000D03*
X134620000Y-99060000D03*
X134620000Y-101600000D03*
D14*
X132080000Y-107950000D03*
X132080000Y-95250000D03*
D13*
X129540000Y-101600000D03*
D15*
X139065000Y-105410000D03*
X141605000Y-102870000D03*
X141605000Y-100330000D03*
X139065000Y-97790000D03*
D16*
X153250000Y-105600000D03*
X153250000Y-97600000D03*
D17*
X146760000Y-100350000D03*
X148760000Y-100350000D03*
X146760000Y-102850000D03*
X148760000Y-102850000D03*
D15*
X136525000Y-102870000D03*
M02*
