G04 #@! TF.GenerationSoftware,KiCad,Pcbnew,(5.1.5)*
G04 #@! TF.CreationDate,2019-12-08T12:45:36-05:00*
G04 #@! TF.ProjectId,usbbbrkout,75736262-6272-46b6-9f75-742e6b696361,v1.0.0*
G04 #@! TF.SameCoordinates,Original*
G04 #@! TF.FileFunction,Legend,Top*
G04 #@! TF.FilePolarity,Positive*
%FSLAX46Y46*%
G04 Gerber Fmt 4.6, Leading zero omitted, Abs format (unit mm)*
G04 Created by KiCad (PCBNEW (5.1.5)) date 2019-12-08 12:45:36*
%MOMM*%
%LPD*%
G04 APERTURE LIST*
%ADD10C,0.127000*%
%ADD11C,0.150000*%
%ADD12C,0.120000*%
%ADD13C,1.244600*%
%ADD14C,3.276600*%
%ADD15C,1.625600*%
%ADD16C,4.701600*%
%ADD17C,1.752600*%
%ADD18R,1.301600X1.801600*%
G04 APERTURE END LIST*
D10*
X138290450Y-103141428D02*
X138290450Y-102541428D01*
X138433307Y-102541428D01*
X138519021Y-102570000D01*
X138576164Y-102627142D01*
X138604735Y-102684285D01*
X138633307Y-102798571D01*
X138633307Y-102884285D01*
X138604735Y-102998571D01*
X138576164Y-103055714D01*
X138519021Y-103112857D01*
X138433307Y-103141428D01*
X138290450Y-103141428D01*
X138890450Y-102912857D02*
X139347592Y-102912857D01*
X138290450Y-100601428D02*
X138290450Y-100001428D01*
X138433307Y-100001428D01*
X138519021Y-100030000D01*
X138576164Y-100087142D01*
X138604735Y-100144285D01*
X138633307Y-100258571D01*
X138633307Y-100344285D01*
X138604735Y-100458571D01*
X138576164Y-100515714D01*
X138519021Y-100572857D01*
X138433307Y-100601428D01*
X138290450Y-100601428D01*
X138890450Y-100372857D02*
X139347592Y-100372857D01*
X139119021Y-100601428D02*
X139119021Y-100144285D01*
X140306407Y-105452857D02*
X140763550Y-105452857D01*
X140534978Y-105681428D02*
X140534978Y-105224285D01*
X141334978Y-105081428D02*
X141049264Y-105081428D01*
X141020692Y-105367142D01*
X141049264Y-105338571D01*
X141106407Y-105310000D01*
X141249264Y-105310000D01*
X141306407Y-105338571D01*
X141334978Y-105367142D01*
X141363550Y-105424285D01*
X141363550Y-105567142D01*
X141334978Y-105624285D01*
X141306407Y-105652857D01*
X141249264Y-105681428D01*
X141106407Y-105681428D01*
X141049264Y-105652857D01*
X141020692Y-105624285D01*
X141563550Y-105281428D02*
X141706407Y-105681428D01*
X141849264Y-105281428D01*
X140620692Y-97490000D02*
X140563550Y-97461428D01*
X140477835Y-97461428D01*
X140392121Y-97490000D01*
X140334978Y-97547142D01*
X140306407Y-97604285D01*
X140277835Y-97718571D01*
X140277835Y-97804285D01*
X140306407Y-97918571D01*
X140334978Y-97975714D01*
X140392121Y-98032857D01*
X140477835Y-98061428D01*
X140534978Y-98061428D01*
X140620692Y-98032857D01*
X140649264Y-98004285D01*
X140649264Y-97804285D01*
X140534978Y-97804285D01*
X140906407Y-98061428D02*
X140906407Y-97461428D01*
X141249264Y-98061428D01*
X141249264Y-97461428D01*
X141534978Y-98061428D02*
X141534978Y-97461428D01*
X141677835Y-97461428D01*
X141763550Y-97490000D01*
X141820692Y-97547142D01*
X141849264Y-97604285D01*
X141877835Y-97718571D01*
X141877835Y-97804285D01*
X141849264Y-97918571D01*
X141820692Y-97975714D01*
X141763550Y-98032857D01*
X141677835Y-98061428D01*
X141534978Y-98061428D01*
X137795021Y-97661428D02*
X137795021Y-98061428D01*
X137652164Y-97432857D02*
X137509307Y-97861428D01*
X137880735Y-97861428D01*
X140020735Y-100001428D02*
X140392164Y-100001428D01*
X140192164Y-100230000D01*
X140277878Y-100230000D01*
X140335021Y-100258571D01*
X140363592Y-100287142D01*
X140392164Y-100344285D01*
X140392164Y-100487142D01*
X140363592Y-100544285D01*
X140335021Y-100572857D01*
X140277878Y-100601428D01*
X140106450Y-100601428D01*
X140049307Y-100572857D01*
X140020735Y-100544285D01*
X140049307Y-102598571D02*
X140077878Y-102570000D01*
X140135021Y-102541428D01*
X140277878Y-102541428D01*
X140335021Y-102570000D01*
X140363592Y-102598571D01*
X140392164Y-102655714D01*
X140392164Y-102712857D01*
X140363592Y-102798571D01*
X140020735Y-103141428D01*
X140392164Y-103141428D01*
X137979164Y-105681428D02*
X137636307Y-105681428D01*
X137807735Y-105681428D02*
X137807735Y-105081428D01*
X137750592Y-105167142D01*
X137693450Y-105224285D01*
X137636307Y-105252857D01*
X132404021Y-103840000D02*
X132346878Y-103811428D01*
X132261164Y-103811428D01*
X132175450Y-103840000D01*
X132118307Y-103897142D01*
X132089735Y-103954285D01*
X132061164Y-104068571D01*
X132061164Y-104154285D01*
X132089735Y-104268571D01*
X132118307Y-104325714D01*
X132175450Y-104382857D01*
X132261164Y-104411428D01*
X132318307Y-104411428D01*
X132404021Y-104382857D01*
X132432592Y-104354285D01*
X132432592Y-104154285D01*
X132318307Y-104154285D01*
X132689735Y-104411428D02*
X132689735Y-103811428D01*
X133032592Y-104411428D01*
X133032592Y-103811428D01*
X133318307Y-104411428D02*
X133318307Y-103811428D01*
X133461164Y-103811428D01*
X133546878Y-103840000D01*
X133604021Y-103897142D01*
X133632592Y-103954285D01*
X133661164Y-104068571D01*
X133661164Y-104154285D01*
X133632592Y-104268571D01*
X133604021Y-104325714D01*
X133546878Y-104382857D01*
X133461164Y-104411428D01*
X133318307Y-104411428D01*
X132404021Y-101300000D02*
X132346878Y-101271428D01*
X132261164Y-101271428D01*
X132175450Y-101300000D01*
X132118307Y-101357142D01*
X132089735Y-101414285D01*
X132061164Y-101528571D01*
X132061164Y-101614285D01*
X132089735Y-101728571D01*
X132118307Y-101785714D01*
X132175450Y-101842857D01*
X132261164Y-101871428D01*
X132318307Y-101871428D01*
X132404021Y-101842857D01*
X132432592Y-101814285D01*
X132432592Y-101614285D01*
X132318307Y-101614285D01*
X132689735Y-101871428D02*
X132689735Y-101271428D01*
X133032592Y-101871428D01*
X133032592Y-101271428D01*
X133318307Y-101871428D02*
X133318307Y-101271428D01*
X133461164Y-101271428D01*
X133546878Y-101300000D01*
X133604021Y-101357142D01*
X133632592Y-101414285D01*
X133661164Y-101528571D01*
X133661164Y-101614285D01*
X133632592Y-101728571D01*
X133604021Y-101785714D01*
X133546878Y-101842857D01*
X133461164Y-101871428D01*
X133318307Y-101871428D01*
X132404021Y-98760000D02*
X132346878Y-98731428D01*
X132261164Y-98731428D01*
X132175450Y-98760000D01*
X132118307Y-98817142D01*
X132089735Y-98874285D01*
X132061164Y-98988571D01*
X132061164Y-99074285D01*
X132089735Y-99188571D01*
X132118307Y-99245714D01*
X132175450Y-99302857D01*
X132261164Y-99331428D01*
X132318307Y-99331428D01*
X132404021Y-99302857D01*
X132432592Y-99274285D01*
X132432592Y-99074285D01*
X132318307Y-99074285D01*
X132689735Y-99331428D02*
X132689735Y-98731428D01*
X133032592Y-99331428D01*
X133032592Y-98731428D01*
X133318307Y-99331428D02*
X133318307Y-98731428D01*
X133461164Y-98731428D01*
X133546878Y-98760000D01*
X133604021Y-98817142D01*
X133632592Y-98874285D01*
X133661164Y-98988571D01*
X133661164Y-99074285D01*
X133632592Y-99188571D01*
X133604021Y-99245714D01*
X133546878Y-99302857D01*
X133461164Y-99331428D01*
X133318307Y-99331428D01*
D11*
X158750000Y-108600000D02*
X158750000Y-115600000D01*
X162750000Y-108600000D02*
X158750000Y-108600000D01*
X162750000Y-94600000D02*
X162750000Y-108600000D01*
X158750000Y-94600000D02*
X162750000Y-94600000D01*
X158750000Y-87600000D02*
X158750000Y-94600000D01*
X156750000Y-87600000D02*
X158750000Y-87600000D01*
X156750000Y-94600000D02*
X156750000Y-87600000D01*
X144750000Y-94600000D02*
X156750000Y-94600000D01*
X144750000Y-108600000D02*
X144750000Y-94600000D01*
X156750000Y-108600000D02*
X144750000Y-108600000D01*
X156750000Y-115600000D02*
X156750000Y-108600000D01*
X158750000Y-115600000D02*
X156750000Y-115600000D01*
D12*
X140065000Y-108893000D02*
X138065000Y-108893000D01*
X138065000Y-106753000D02*
X140065000Y-106753000D01*
D11*
X143962380Y-103290476D02*
X142962380Y-103290476D01*
X142962380Y-102909523D01*
X143010000Y-102814285D01*
X143057619Y-102766666D01*
X143152857Y-102719047D01*
X143295714Y-102719047D01*
X143390952Y-102766666D01*
X143438571Y-102814285D01*
X143486190Y-102909523D01*
X143486190Y-103290476D01*
X143962380Y-101766666D02*
X143962380Y-102338095D01*
X143962380Y-102052380D02*
X142962380Y-102052380D01*
X143105238Y-102147619D01*
X143200476Y-102242857D01*
X143248095Y-102338095D01*
X142962380Y-101147619D02*
X142962380Y-101052380D01*
X143010000Y-100957142D01*
X143057619Y-100909523D01*
X143152857Y-100861904D01*
X143343333Y-100814285D01*
X143581428Y-100814285D01*
X143771904Y-100861904D01*
X143867142Y-100909523D01*
X143914761Y-100957142D01*
X143962380Y-101052380D01*
X143962380Y-101147619D01*
X143914761Y-101242857D01*
X143867142Y-101290476D01*
X143771904Y-101338095D01*
X143581428Y-101385714D01*
X143343333Y-101385714D01*
X143152857Y-101338095D01*
X143057619Y-101290476D01*
X143010000Y-101242857D01*
X142962380Y-101147619D01*
X142962380Y-99909523D02*
X142962380Y-100385714D01*
X143438571Y-100433333D01*
X143390952Y-100385714D01*
X143343333Y-100290476D01*
X143343333Y-100052380D01*
X143390952Y-99957142D01*
X143438571Y-99909523D01*
X143533809Y-99861904D01*
X143771904Y-99861904D01*
X143867142Y-99909523D01*
X143914761Y-99957142D01*
X143962380Y-100052380D01*
X143962380Y-100290476D01*
X143914761Y-100385714D01*
X143867142Y-100433333D01*
X137945952Y-110180380D02*
X137612619Y-109704190D01*
X137374523Y-110180380D02*
X137374523Y-109180380D01*
X137755476Y-109180380D01*
X137850714Y-109228000D01*
X137898333Y-109275619D01*
X137945952Y-109370857D01*
X137945952Y-109513714D01*
X137898333Y-109608952D01*
X137850714Y-109656571D01*
X137755476Y-109704190D01*
X137374523Y-109704190D01*
X138898333Y-110180380D02*
X138326904Y-110180380D01*
X138612619Y-110180380D02*
X138612619Y-109180380D01*
X138517380Y-109323238D01*
X138422142Y-109418476D01*
X138326904Y-109466095D01*
X139517380Y-109180380D02*
X139612619Y-109180380D01*
X139707857Y-109228000D01*
X139755476Y-109275619D01*
X139803095Y-109370857D01*
X139850714Y-109561333D01*
X139850714Y-109799428D01*
X139803095Y-109989904D01*
X139755476Y-110085142D01*
X139707857Y-110132761D01*
X139612619Y-110180380D01*
X139517380Y-110180380D01*
X139422142Y-110132761D01*
X139374523Y-110085142D01*
X139326904Y-109989904D01*
X139279285Y-109799428D01*
X139279285Y-109561333D01*
X139326904Y-109370857D01*
X139374523Y-109275619D01*
X139422142Y-109228000D01*
X139517380Y-109180380D01*
X140803095Y-110180380D02*
X140231666Y-110180380D01*
X140517380Y-110180380D02*
X140517380Y-109180380D01*
X140422142Y-109323238D01*
X140326904Y-109418476D01*
X140231666Y-109466095D01*
%LPC*%
D13*
X134620000Y-104140000D03*
X134620000Y-99060000D03*
X134620000Y-101600000D03*
D14*
X132080000Y-107950000D03*
X132080000Y-95250000D03*
D13*
X129540000Y-101600000D03*
D15*
X139065000Y-105410000D03*
X141605000Y-102870000D03*
X141605000Y-100330000D03*
X139065000Y-97790000D03*
D16*
X153250000Y-105600000D03*
X153250000Y-97600000D03*
D17*
X146760000Y-100350000D03*
X148760000Y-100350000D03*
X146760000Y-102850000D03*
X148760000Y-102850000D03*
D18*
X137465000Y-107823000D03*
X140665000Y-107823000D03*
D15*
X136525000Y-102870000D03*
M02*
