G04 #@! TF.FileFunction,Copper,L3,Inr,Plane*
%FSLAX46Y46*%
G04 Gerber Fmt 4.6, Leading zero omitted, Abs format (unit mm)*
G04 Created by KiCad (PCBNEW 4.0.7) date Sun Apr 29 11:31:08 2018*
%MOMM*%
%LPD*%
G01*
G04 APERTURE LIST*
%ADD10C,0.100000*%
%ADD11C,1.143000*%
%ADD12C,1.524000*%
%ADD13C,4.600000*%
%ADD14C,1.651000*%
%ADD15C,0.254000*%
G04 APERTURE END LIST*
D10*
D11*
X134620000Y-104140000D03*
X134620000Y-99060000D03*
X134620000Y-101600000D03*
X129540000Y-101600000D03*
D12*
X139065000Y-105410000D03*
X141605000Y-102870000D03*
X141605000Y-100330000D03*
X139065000Y-97790000D03*
D13*
X153250000Y-105600000D03*
X153250000Y-97600000D03*
D14*
X146760000Y-100350000D03*
X148760000Y-100350000D03*
X146760000Y-102850000D03*
X148760000Y-102850000D03*
D12*
X136525000Y-102870000D03*
D15*
G36*
X133173254Y-92456000D02*
X133206043Y-92620839D01*
X133299417Y-92760583D01*
X133439161Y-92853957D01*
X133604000Y-92886746D01*
X138684000Y-92886746D01*
X138848839Y-92853957D01*
X138988583Y-92760583D01*
X139081957Y-92620839D01*
X139114746Y-92456000D01*
X139114746Y-91870746D01*
X155569254Y-91870746D01*
X155569254Y-95768961D01*
X154914715Y-95113279D01*
X153836369Y-94665511D01*
X152668754Y-94664492D01*
X151589628Y-95110377D01*
X150763279Y-95935285D01*
X150315511Y-97013631D01*
X150314492Y-98181246D01*
X150760377Y-99260372D01*
X151585285Y-100086721D01*
X152663631Y-100534489D01*
X153831246Y-100535508D01*
X154910372Y-100089623D01*
X155569254Y-99431890D01*
X155569254Y-103768961D01*
X154914715Y-103113279D01*
X153836369Y-102665511D01*
X152668754Y-102664492D01*
X151589628Y-103110377D01*
X150763279Y-103935285D01*
X150315511Y-105013631D01*
X150314492Y-106181246D01*
X150760377Y-107260372D01*
X151585285Y-108086721D01*
X152663631Y-108534489D01*
X153831246Y-108535508D01*
X154910372Y-108089623D01*
X155569254Y-107431890D01*
X155569254Y-111329254D01*
X139114746Y-111329254D01*
X139114746Y-110744000D01*
X139081957Y-110579161D01*
X138988583Y-110439417D01*
X138848839Y-110346043D01*
X138684000Y-110313254D01*
X133604000Y-110313254D01*
X133439161Y-110346043D01*
X133299417Y-110439417D01*
X133206043Y-110579161D01*
X133173254Y-110744000D01*
X133173254Y-111329254D01*
X128700746Y-111329254D01*
X128700746Y-108339791D01*
X130111413Y-108339791D01*
X130410429Y-109063465D01*
X130963623Y-109617625D01*
X131686774Y-109917903D01*
X132469791Y-109918587D01*
X133193465Y-109619571D01*
X133747625Y-109066377D01*
X134047903Y-108343226D01*
X134048587Y-107560209D01*
X133749571Y-106836535D01*
X133196377Y-106282375D01*
X132473226Y-105982097D01*
X131690209Y-105981413D01*
X130966535Y-106280429D01*
X130412375Y-106833623D01*
X130112097Y-107556774D01*
X130111413Y-108339791D01*
X128700746Y-108339791D01*
X128700746Y-105636309D01*
X137922056Y-105636309D01*
X138095662Y-106056468D01*
X138416841Y-106378208D01*
X138836696Y-106552547D01*
X139291309Y-106552944D01*
X139711468Y-106379338D01*
X140033208Y-106058159D01*
X140207547Y-105638304D01*
X140207944Y-105183691D01*
X140034338Y-104763532D01*
X139713159Y-104441792D01*
X139293304Y-104267453D01*
X138838691Y-104267056D01*
X138418532Y-104440662D01*
X138096792Y-104761841D01*
X137922453Y-105181696D01*
X137922056Y-105636309D01*
X128700746Y-105636309D01*
X128700746Y-104328583D01*
X133667589Y-104328583D01*
X133812254Y-104678700D01*
X134079891Y-104946804D01*
X134429755Y-105092081D01*
X134808583Y-105092411D01*
X135158700Y-104947746D01*
X135426804Y-104680109D01*
X135572081Y-104330245D01*
X135572411Y-103951417D01*
X135427746Y-103601300D01*
X135160109Y-103333196D01*
X134810245Y-103187919D01*
X134431417Y-103187589D01*
X134081300Y-103332254D01*
X133813196Y-103599891D01*
X133667919Y-103949755D01*
X133667589Y-104328583D01*
X128700746Y-104328583D01*
X128700746Y-103096309D01*
X140462056Y-103096309D01*
X140635662Y-103516468D01*
X140956841Y-103838208D01*
X141376696Y-104012547D01*
X141831309Y-104012944D01*
X142251468Y-103839338D01*
X142573208Y-103518159D01*
X142747547Y-103098304D01*
X142747555Y-103088885D01*
X145553545Y-103088885D01*
X145736798Y-103532391D01*
X146075824Y-103872010D01*
X146519010Y-104056036D01*
X146998885Y-104056455D01*
X147442391Y-103873202D01*
X147760257Y-103555891D01*
X148075824Y-103872010D01*
X148519010Y-104056036D01*
X148998885Y-104056455D01*
X149442391Y-103873202D01*
X149782010Y-103534176D01*
X149966036Y-103090990D01*
X149966455Y-102611115D01*
X149783202Y-102167609D01*
X149444176Y-101827990D01*
X149000990Y-101643964D01*
X148521115Y-101643545D01*
X148077609Y-101826798D01*
X147759743Y-102144109D01*
X147444176Y-101827990D01*
X147000990Y-101643964D01*
X146521115Y-101643545D01*
X146077609Y-101826798D01*
X145737990Y-102165824D01*
X145553964Y-102609010D01*
X145553545Y-103088885D01*
X142747555Y-103088885D01*
X142747944Y-102643691D01*
X142574338Y-102223532D01*
X142253159Y-101901792D01*
X141833304Y-101727453D01*
X141378691Y-101727056D01*
X140958532Y-101900662D01*
X140636792Y-102221841D01*
X140462453Y-102641696D01*
X140462056Y-103096309D01*
X128700746Y-103096309D01*
X128700746Y-102062445D01*
X128732254Y-102138700D01*
X128999891Y-102406804D01*
X129349755Y-102552081D01*
X129728583Y-102552411D01*
X130078700Y-102407746D01*
X130346804Y-102140109D01*
X130492081Y-101790245D01*
X130492082Y-101788583D01*
X133667589Y-101788583D01*
X133812254Y-102138700D01*
X134079891Y-102406804D01*
X134429755Y-102552081D01*
X134808583Y-102552411D01*
X135158700Y-102407746D01*
X135426804Y-102140109D01*
X135572081Y-101790245D01*
X135572411Y-101411417D01*
X135427746Y-101061300D01*
X135160109Y-100793196D01*
X134810245Y-100647919D01*
X134431417Y-100647589D01*
X134081300Y-100792254D01*
X133813196Y-101059891D01*
X133667919Y-101409755D01*
X133667589Y-101788583D01*
X130492082Y-101788583D01*
X130492411Y-101411417D01*
X130347746Y-101061300D01*
X130080109Y-100793196D01*
X129730245Y-100647919D01*
X129351417Y-100647589D01*
X129001300Y-100792254D01*
X128733196Y-101059891D01*
X128700746Y-101138039D01*
X128700746Y-100556309D01*
X140462056Y-100556309D01*
X140635662Y-100976468D01*
X140956841Y-101298208D01*
X141376696Y-101472547D01*
X141831309Y-101472944D01*
X142251468Y-101299338D01*
X142313805Y-101237109D01*
X146052496Y-101237109D01*
X146143706Y-101414322D01*
X146597916Y-101569150D01*
X147076803Y-101538374D01*
X147376294Y-101414322D01*
X147467504Y-101237109D01*
X146760000Y-100529605D01*
X146052496Y-101237109D01*
X142313805Y-101237109D01*
X142573208Y-100978159D01*
X142747547Y-100558304D01*
X142747870Y-100187916D01*
X145540850Y-100187916D01*
X145571626Y-100666803D01*
X145695678Y-100966294D01*
X145872891Y-101057504D01*
X146580395Y-100350000D01*
X146939605Y-100350000D01*
X147647109Y-101057504D01*
X147729626Y-101015033D01*
X147736798Y-101032391D01*
X148075824Y-101372010D01*
X148519010Y-101556036D01*
X148998885Y-101556455D01*
X149442391Y-101373202D01*
X149782010Y-101034176D01*
X149966036Y-100590990D01*
X149966455Y-100111115D01*
X149783202Y-99667609D01*
X149444176Y-99327990D01*
X149000990Y-99143964D01*
X148521115Y-99143545D01*
X148077609Y-99326798D01*
X147737990Y-99665824D01*
X147729968Y-99685143D01*
X147647109Y-99642496D01*
X146939605Y-100350000D01*
X146580395Y-100350000D01*
X145872891Y-99642496D01*
X145695678Y-99733706D01*
X145540850Y-100187916D01*
X142747870Y-100187916D01*
X142747944Y-100103691D01*
X142574338Y-99683532D01*
X142354082Y-99462891D01*
X146052496Y-99462891D01*
X146760000Y-100170395D01*
X147467504Y-99462891D01*
X147376294Y-99285678D01*
X146922084Y-99130850D01*
X146443197Y-99161626D01*
X146143706Y-99285678D01*
X146052496Y-99462891D01*
X142354082Y-99462891D01*
X142253159Y-99361792D01*
X141833304Y-99187453D01*
X141378691Y-99187056D01*
X140958532Y-99360662D01*
X140636792Y-99681841D01*
X140462453Y-100101696D01*
X140462056Y-100556309D01*
X128700746Y-100556309D01*
X128700746Y-99248583D01*
X133667589Y-99248583D01*
X133812254Y-99598700D01*
X134079891Y-99866804D01*
X134429755Y-100012081D01*
X134808583Y-100012411D01*
X135158700Y-99867746D01*
X135426804Y-99600109D01*
X135572081Y-99250245D01*
X135572411Y-98871417D01*
X135427746Y-98521300D01*
X135160109Y-98253196D01*
X134810245Y-98107919D01*
X134431417Y-98107589D01*
X134081300Y-98252254D01*
X133813196Y-98519891D01*
X133667919Y-98869755D01*
X133667589Y-99248583D01*
X128700746Y-99248583D01*
X128700746Y-98016309D01*
X137922056Y-98016309D01*
X138095662Y-98436468D01*
X138416841Y-98758208D01*
X138836696Y-98932547D01*
X139291309Y-98932944D01*
X139711468Y-98759338D01*
X140033208Y-98438159D01*
X140207547Y-98018304D01*
X140207944Y-97563691D01*
X140034338Y-97143532D01*
X139713159Y-96821792D01*
X139293304Y-96647453D01*
X138838691Y-96647056D01*
X138418532Y-96820662D01*
X138096792Y-97141841D01*
X137922453Y-97561696D01*
X137922056Y-98016309D01*
X128700746Y-98016309D01*
X128700746Y-95639791D01*
X130111413Y-95639791D01*
X130410429Y-96363465D01*
X130963623Y-96917625D01*
X131686774Y-97217903D01*
X132469791Y-97218587D01*
X133193465Y-96919571D01*
X133747625Y-96366377D01*
X134047903Y-95643226D01*
X134048587Y-94860209D01*
X133749571Y-94136535D01*
X133196377Y-93582375D01*
X132473226Y-93282097D01*
X131690209Y-93281413D01*
X130966535Y-93580429D01*
X130412375Y-94133623D01*
X130112097Y-94856774D01*
X130111413Y-95639791D01*
X128700746Y-95639791D01*
X128700746Y-91870746D01*
X133173254Y-91870746D01*
X133173254Y-92456000D01*
X133173254Y-92456000D01*
G37*
X133173254Y-92456000D02*
X133206043Y-92620839D01*
X133299417Y-92760583D01*
X133439161Y-92853957D01*
X133604000Y-92886746D01*
X138684000Y-92886746D01*
X138848839Y-92853957D01*
X138988583Y-92760583D01*
X139081957Y-92620839D01*
X139114746Y-92456000D01*
X139114746Y-91870746D01*
X155569254Y-91870746D01*
X155569254Y-95768961D01*
X154914715Y-95113279D01*
X153836369Y-94665511D01*
X152668754Y-94664492D01*
X151589628Y-95110377D01*
X150763279Y-95935285D01*
X150315511Y-97013631D01*
X150314492Y-98181246D01*
X150760377Y-99260372D01*
X151585285Y-100086721D01*
X152663631Y-100534489D01*
X153831246Y-100535508D01*
X154910372Y-100089623D01*
X155569254Y-99431890D01*
X155569254Y-103768961D01*
X154914715Y-103113279D01*
X153836369Y-102665511D01*
X152668754Y-102664492D01*
X151589628Y-103110377D01*
X150763279Y-103935285D01*
X150315511Y-105013631D01*
X150314492Y-106181246D01*
X150760377Y-107260372D01*
X151585285Y-108086721D01*
X152663631Y-108534489D01*
X153831246Y-108535508D01*
X154910372Y-108089623D01*
X155569254Y-107431890D01*
X155569254Y-111329254D01*
X139114746Y-111329254D01*
X139114746Y-110744000D01*
X139081957Y-110579161D01*
X138988583Y-110439417D01*
X138848839Y-110346043D01*
X138684000Y-110313254D01*
X133604000Y-110313254D01*
X133439161Y-110346043D01*
X133299417Y-110439417D01*
X133206043Y-110579161D01*
X133173254Y-110744000D01*
X133173254Y-111329254D01*
X128700746Y-111329254D01*
X128700746Y-108339791D01*
X130111413Y-108339791D01*
X130410429Y-109063465D01*
X130963623Y-109617625D01*
X131686774Y-109917903D01*
X132469791Y-109918587D01*
X133193465Y-109619571D01*
X133747625Y-109066377D01*
X134047903Y-108343226D01*
X134048587Y-107560209D01*
X133749571Y-106836535D01*
X133196377Y-106282375D01*
X132473226Y-105982097D01*
X131690209Y-105981413D01*
X130966535Y-106280429D01*
X130412375Y-106833623D01*
X130112097Y-107556774D01*
X130111413Y-108339791D01*
X128700746Y-108339791D01*
X128700746Y-105636309D01*
X137922056Y-105636309D01*
X138095662Y-106056468D01*
X138416841Y-106378208D01*
X138836696Y-106552547D01*
X139291309Y-106552944D01*
X139711468Y-106379338D01*
X140033208Y-106058159D01*
X140207547Y-105638304D01*
X140207944Y-105183691D01*
X140034338Y-104763532D01*
X139713159Y-104441792D01*
X139293304Y-104267453D01*
X138838691Y-104267056D01*
X138418532Y-104440662D01*
X138096792Y-104761841D01*
X137922453Y-105181696D01*
X137922056Y-105636309D01*
X128700746Y-105636309D01*
X128700746Y-104328583D01*
X133667589Y-104328583D01*
X133812254Y-104678700D01*
X134079891Y-104946804D01*
X134429755Y-105092081D01*
X134808583Y-105092411D01*
X135158700Y-104947746D01*
X135426804Y-104680109D01*
X135572081Y-104330245D01*
X135572411Y-103951417D01*
X135427746Y-103601300D01*
X135160109Y-103333196D01*
X134810245Y-103187919D01*
X134431417Y-103187589D01*
X134081300Y-103332254D01*
X133813196Y-103599891D01*
X133667919Y-103949755D01*
X133667589Y-104328583D01*
X128700746Y-104328583D01*
X128700746Y-103096309D01*
X140462056Y-103096309D01*
X140635662Y-103516468D01*
X140956841Y-103838208D01*
X141376696Y-104012547D01*
X141831309Y-104012944D01*
X142251468Y-103839338D01*
X142573208Y-103518159D01*
X142747547Y-103098304D01*
X142747555Y-103088885D01*
X145553545Y-103088885D01*
X145736798Y-103532391D01*
X146075824Y-103872010D01*
X146519010Y-104056036D01*
X146998885Y-104056455D01*
X147442391Y-103873202D01*
X147760257Y-103555891D01*
X148075824Y-103872010D01*
X148519010Y-104056036D01*
X148998885Y-104056455D01*
X149442391Y-103873202D01*
X149782010Y-103534176D01*
X149966036Y-103090990D01*
X149966455Y-102611115D01*
X149783202Y-102167609D01*
X149444176Y-101827990D01*
X149000990Y-101643964D01*
X148521115Y-101643545D01*
X148077609Y-101826798D01*
X147759743Y-102144109D01*
X147444176Y-101827990D01*
X147000990Y-101643964D01*
X146521115Y-101643545D01*
X146077609Y-101826798D01*
X145737990Y-102165824D01*
X145553964Y-102609010D01*
X145553545Y-103088885D01*
X142747555Y-103088885D01*
X142747944Y-102643691D01*
X142574338Y-102223532D01*
X142253159Y-101901792D01*
X141833304Y-101727453D01*
X141378691Y-101727056D01*
X140958532Y-101900662D01*
X140636792Y-102221841D01*
X140462453Y-102641696D01*
X140462056Y-103096309D01*
X128700746Y-103096309D01*
X128700746Y-102062445D01*
X128732254Y-102138700D01*
X128999891Y-102406804D01*
X129349755Y-102552081D01*
X129728583Y-102552411D01*
X130078700Y-102407746D01*
X130346804Y-102140109D01*
X130492081Y-101790245D01*
X130492082Y-101788583D01*
X133667589Y-101788583D01*
X133812254Y-102138700D01*
X134079891Y-102406804D01*
X134429755Y-102552081D01*
X134808583Y-102552411D01*
X135158700Y-102407746D01*
X135426804Y-102140109D01*
X135572081Y-101790245D01*
X135572411Y-101411417D01*
X135427746Y-101061300D01*
X135160109Y-100793196D01*
X134810245Y-100647919D01*
X134431417Y-100647589D01*
X134081300Y-100792254D01*
X133813196Y-101059891D01*
X133667919Y-101409755D01*
X133667589Y-101788583D01*
X130492082Y-101788583D01*
X130492411Y-101411417D01*
X130347746Y-101061300D01*
X130080109Y-100793196D01*
X129730245Y-100647919D01*
X129351417Y-100647589D01*
X129001300Y-100792254D01*
X128733196Y-101059891D01*
X128700746Y-101138039D01*
X128700746Y-100556309D01*
X140462056Y-100556309D01*
X140635662Y-100976468D01*
X140956841Y-101298208D01*
X141376696Y-101472547D01*
X141831309Y-101472944D01*
X142251468Y-101299338D01*
X142313805Y-101237109D01*
X146052496Y-101237109D01*
X146143706Y-101414322D01*
X146597916Y-101569150D01*
X147076803Y-101538374D01*
X147376294Y-101414322D01*
X147467504Y-101237109D01*
X146760000Y-100529605D01*
X146052496Y-101237109D01*
X142313805Y-101237109D01*
X142573208Y-100978159D01*
X142747547Y-100558304D01*
X142747870Y-100187916D01*
X145540850Y-100187916D01*
X145571626Y-100666803D01*
X145695678Y-100966294D01*
X145872891Y-101057504D01*
X146580395Y-100350000D01*
X146939605Y-100350000D01*
X147647109Y-101057504D01*
X147729626Y-101015033D01*
X147736798Y-101032391D01*
X148075824Y-101372010D01*
X148519010Y-101556036D01*
X148998885Y-101556455D01*
X149442391Y-101373202D01*
X149782010Y-101034176D01*
X149966036Y-100590990D01*
X149966455Y-100111115D01*
X149783202Y-99667609D01*
X149444176Y-99327990D01*
X149000990Y-99143964D01*
X148521115Y-99143545D01*
X148077609Y-99326798D01*
X147737990Y-99665824D01*
X147729968Y-99685143D01*
X147647109Y-99642496D01*
X146939605Y-100350000D01*
X146580395Y-100350000D01*
X145872891Y-99642496D01*
X145695678Y-99733706D01*
X145540850Y-100187916D01*
X142747870Y-100187916D01*
X142747944Y-100103691D01*
X142574338Y-99683532D01*
X142354082Y-99462891D01*
X146052496Y-99462891D01*
X146760000Y-100170395D01*
X147467504Y-99462891D01*
X147376294Y-99285678D01*
X146922084Y-99130850D01*
X146443197Y-99161626D01*
X146143706Y-99285678D01*
X146052496Y-99462891D01*
X142354082Y-99462891D01*
X142253159Y-99361792D01*
X141833304Y-99187453D01*
X141378691Y-99187056D01*
X140958532Y-99360662D01*
X140636792Y-99681841D01*
X140462453Y-100101696D01*
X140462056Y-100556309D01*
X128700746Y-100556309D01*
X128700746Y-99248583D01*
X133667589Y-99248583D01*
X133812254Y-99598700D01*
X134079891Y-99866804D01*
X134429755Y-100012081D01*
X134808583Y-100012411D01*
X135158700Y-99867746D01*
X135426804Y-99600109D01*
X135572081Y-99250245D01*
X135572411Y-98871417D01*
X135427746Y-98521300D01*
X135160109Y-98253196D01*
X134810245Y-98107919D01*
X134431417Y-98107589D01*
X134081300Y-98252254D01*
X133813196Y-98519891D01*
X133667919Y-98869755D01*
X133667589Y-99248583D01*
X128700746Y-99248583D01*
X128700746Y-98016309D01*
X137922056Y-98016309D01*
X138095662Y-98436468D01*
X138416841Y-98758208D01*
X138836696Y-98932547D01*
X139291309Y-98932944D01*
X139711468Y-98759338D01*
X140033208Y-98438159D01*
X140207547Y-98018304D01*
X140207944Y-97563691D01*
X140034338Y-97143532D01*
X139713159Y-96821792D01*
X139293304Y-96647453D01*
X138838691Y-96647056D01*
X138418532Y-96820662D01*
X138096792Y-97141841D01*
X137922453Y-97561696D01*
X137922056Y-98016309D01*
X128700746Y-98016309D01*
X128700746Y-95639791D01*
X130111413Y-95639791D01*
X130410429Y-96363465D01*
X130963623Y-96917625D01*
X131686774Y-97217903D01*
X132469791Y-97218587D01*
X133193465Y-96919571D01*
X133747625Y-96366377D01*
X134047903Y-95643226D01*
X134048587Y-94860209D01*
X133749571Y-94136535D01*
X133196377Y-93582375D01*
X132473226Y-93282097D01*
X131690209Y-93281413D01*
X130966535Y-93580429D01*
X130412375Y-94133623D01*
X130112097Y-94856774D01*
X130111413Y-95639791D01*
X128700746Y-95639791D01*
X128700746Y-91870746D01*
X133173254Y-91870746D01*
X133173254Y-92456000D01*
M02*
