G04 #@! TF.GenerationSoftware,KiCad,Pcbnew,8.0.6*
G04 #@! TF.CreationDate,2025-01-18T08:25:15-05:00*
G04 #@! TF.ProjectId,usbbbrkout,75736262-6272-46b6-9f75-742e6b696361,v1.0.0*
G04 #@! TF.SameCoordinates,Original*
G04 #@! TF.FileFunction,Legend,Bot*
G04 #@! TF.FilePolarity,Positive*
%FSLAX46Y46*%
G04 Gerber Fmt 4.6, Leading zero omitted, Abs format (unit mm)*
G04 Created by KiCad (PCBNEW 8.0.6) date 2025-01-18 08:25:15*
%MOMM*%
%LPD*%
G01*
G04 APERTURE LIST*
G04 Aperture macros list*
%AMRoundRect*
0 Rectangle with rounded corners*
0 $1 Rounding radius*
0 $2 $3 $4 $5 $6 $7 $8 $9 X,Y pos of 4 corners*
0 Add a 4 corners polygon primitive as box body*
4,1,4,$2,$3,$4,$5,$6,$7,$8,$9,$2,$3,0*
0 Add four circle primitives for the rounded corners*
1,1,$1+$1,$2,$3*
1,1,$1+$1,$4,$5*
1,1,$1+$1,$6,$7*
1,1,$1+$1,$8,$9*
0 Add four rect primitives between the rounded corners*
20,1,$1+$1,$2,$3,$4,$5,0*
20,1,$1+$1,$4,$5,$6,$7,0*
20,1,$1+$1,$6,$7,$8,$9,0*
20,1,$1+$1,$8,$9,$2,$3,0*%
G04 Aperture macros list end*
%ADD10C,0.150000*%
%ADD11C,0.127000*%
%ADD12C,3.276600*%
%ADD13C,1.117600*%
%ADD14C,1.625600*%
%ADD15RoundRect,0.265385X-0.610915X-0.610915X0.610915X-0.610915X0.610915X0.610915X-0.610915X0.610915X0*%
%ADD16C,1.752600*%
%ADD17C,4.701600*%
G04 APERTURE END LIST*
D10*
X144636856Y-94784152D02*
X144398761Y-95450819D01*
X144398761Y-95450819D02*
X144160666Y-94784152D01*
X143255904Y-95450819D02*
X143827332Y-95450819D01*
X143541618Y-95450819D02*
X143541618Y-94450819D01*
X143541618Y-94450819D02*
X143636856Y-94593676D01*
X143636856Y-94593676D02*
X143732094Y-94688914D01*
X143732094Y-94688914D02*
X143827332Y-94736533D01*
X142827332Y-95355580D02*
X142779713Y-95403200D01*
X142779713Y-95403200D02*
X142827332Y-95450819D01*
X142827332Y-95450819D02*
X142874951Y-95403200D01*
X142874951Y-95403200D02*
X142827332Y-95355580D01*
X142827332Y-95355580D02*
X142827332Y-95450819D01*
X142160666Y-94450819D02*
X142065428Y-94450819D01*
X142065428Y-94450819D02*
X141970190Y-94498438D01*
X141970190Y-94498438D02*
X141922571Y-94546057D01*
X141922571Y-94546057D02*
X141874952Y-94641295D01*
X141874952Y-94641295D02*
X141827333Y-94831771D01*
X141827333Y-94831771D02*
X141827333Y-95069866D01*
X141827333Y-95069866D02*
X141874952Y-95260342D01*
X141874952Y-95260342D02*
X141922571Y-95355580D01*
X141922571Y-95355580D02*
X141970190Y-95403200D01*
X141970190Y-95403200D02*
X142065428Y-95450819D01*
X142065428Y-95450819D02*
X142160666Y-95450819D01*
X142160666Y-95450819D02*
X142255904Y-95403200D01*
X142255904Y-95403200D02*
X142303523Y-95355580D01*
X142303523Y-95355580D02*
X142351142Y-95260342D01*
X142351142Y-95260342D02*
X142398761Y-95069866D01*
X142398761Y-95069866D02*
X142398761Y-94831771D01*
X142398761Y-94831771D02*
X142351142Y-94641295D01*
X142351142Y-94641295D02*
X142303523Y-94546057D01*
X142303523Y-94546057D02*
X142255904Y-94498438D01*
X142255904Y-94498438D02*
X142160666Y-94450819D01*
X141398761Y-95355580D02*
X141351142Y-95403200D01*
X141351142Y-95403200D02*
X141398761Y-95450819D01*
X141398761Y-95450819D02*
X141446380Y-95403200D01*
X141446380Y-95403200D02*
X141398761Y-95355580D01*
X141398761Y-95355580D02*
X141398761Y-95450819D01*
X140732095Y-94450819D02*
X140636857Y-94450819D01*
X140636857Y-94450819D02*
X140541619Y-94498438D01*
X140541619Y-94498438D02*
X140494000Y-94546057D01*
X140494000Y-94546057D02*
X140446381Y-94641295D01*
X140446381Y-94641295D02*
X140398762Y-94831771D01*
X140398762Y-94831771D02*
X140398762Y-95069866D01*
X140398762Y-95069866D02*
X140446381Y-95260342D01*
X140446381Y-95260342D02*
X140494000Y-95355580D01*
X140494000Y-95355580D02*
X140541619Y-95403200D01*
X140541619Y-95403200D02*
X140636857Y-95450819D01*
X140636857Y-95450819D02*
X140732095Y-95450819D01*
X140732095Y-95450819D02*
X140827333Y-95403200D01*
X140827333Y-95403200D02*
X140874952Y-95355580D01*
X140874952Y-95355580D02*
X140922571Y-95260342D01*
X140922571Y-95260342D02*
X140970190Y-95069866D01*
X140970190Y-95069866D02*
X140970190Y-94831771D01*
X140970190Y-94831771D02*
X140922571Y-94641295D01*
X140922571Y-94641295D02*
X140874952Y-94546057D01*
X140874952Y-94546057D02*
X140827333Y-94498438D01*
X140827333Y-94498438D02*
X140732095Y-94450819D01*
X148795619Y-93180819D02*
X148795619Y-93990342D01*
X148795619Y-93990342D02*
X148748000Y-94085580D01*
X148748000Y-94085580D02*
X148700381Y-94133200D01*
X148700381Y-94133200D02*
X148605143Y-94180819D01*
X148605143Y-94180819D02*
X148414667Y-94180819D01*
X148414667Y-94180819D02*
X148319429Y-94133200D01*
X148319429Y-94133200D02*
X148271810Y-94085580D01*
X148271810Y-94085580D02*
X148224191Y-93990342D01*
X148224191Y-93990342D02*
X148224191Y-93180819D01*
X147795619Y-94133200D02*
X147652762Y-94180819D01*
X147652762Y-94180819D02*
X147414667Y-94180819D01*
X147414667Y-94180819D02*
X147319429Y-94133200D01*
X147319429Y-94133200D02*
X147271810Y-94085580D01*
X147271810Y-94085580D02*
X147224191Y-93990342D01*
X147224191Y-93990342D02*
X147224191Y-93895104D01*
X147224191Y-93895104D02*
X147271810Y-93799866D01*
X147271810Y-93799866D02*
X147319429Y-93752247D01*
X147319429Y-93752247D02*
X147414667Y-93704628D01*
X147414667Y-93704628D02*
X147605143Y-93657009D01*
X147605143Y-93657009D02*
X147700381Y-93609390D01*
X147700381Y-93609390D02*
X147748000Y-93561771D01*
X147748000Y-93561771D02*
X147795619Y-93466533D01*
X147795619Y-93466533D02*
X147795619Y-93371295D01*
X147795619Y-93371295D02*
X147748000Y-93276057D01*
X147748000Y-93276057D02*
X147700381Y-93228438D01*
X147700381Y-93228438D02*
X147605143Y-93180819D01*
X147605143Y-93180819D02*
X147367048Y-93180819D01*
X147367048Y-93180819D02*
X147224191Y-93228438D01*
X146462286Y-93657009D02*
X146319429Y-93704628D01*
X146319429Y-93704628D02*
X146271810Y-93752247D01*
X146271810Y-93752247D02*
X146224191Y-93847485D01*
X146224191Y-93847485D02*
X146224191Y-93990342D01*
X146224191Y-93990342D02*
X146271810Y-94085580D01*
X146271810Y-94085580D02*
X146319429Y-94133200D01*
X146319429Y-94133200D02*
X146414667Y-94180819D01*
X146414667Y-94180819D02*
X146795619Y-94180819D01*
X146795619Y-94180819D02*
X146795619Y-93180819D01*
X146795619Y-93180819D02*
X146462286Y-93180819D01*
X146462286Y-93180819D02*
X146367048Y-93228438D01*
X146367048Y-93228438D02*
X146319429Y-93276057D01*
X146319429Y-93276057D02*
X146271810Y-93371295D01*
X146271810Y-93371295D02*
X146271810Y-93466533D01*
X146271810Y-93466533D02*
X146319429Y-93561771D01*
X146319429Y-93561771D02*
X146367048Y-93609390D01*
X146367048Y-93609390D02*
X146462286Y-93657009D01*
X146462286Y-93657009D02*
X146795619Y-93657009D01*
X145795619Y-93799866D02*
X145033715Y-93799866D01*
X144224191Y-93657009D02*
X144081334Y-93704628D01*
X144081334Y-93704628D02*
X144033715Y-93752247D01*
X144033715Y-93752247D02*
X143986096Y-93847485D01*
X143986096Y-93847485D02*
X143986096Y-93990342D01*
X143986096Y-93990342D02*
X144033715Y-94085580D01*
X144033715Y-94085580D02*
X144081334Y-94133200D01*
X144081334Y-94133200D02*
X144176572Y-94180819D01*
X144176572Y-94180819D02*
X144557524Y-94180819D01*
X144557524Y-94180819D02*
X144557524Y-93180819D01*
X144557524Y-93180819D02*
X144224191Y-93180819D01*
X144224191Y-93180819D02*
X144128953Y-93228438D01*
X144128953Y-93228438D02*
X144081334Y-93276057D01*
X144081334Y-93276057D02*
X144033715Y-93371295D01*
X144033715Y-93371295D02*
X144033715Y-93466533D01*
X144033715Y-93466533D02*
X144081334Y-93561771D01*
X144081334Y-93561771D02*
X144128953Y-93609390D01*
X144128953Y-93609390D02*
X144224191Y-93657009D01*
X144224191Y-93657009D02*
X144557524Y-93657009D01*
X142462286Y-93657009D02*
X142319429Y-93704628D01*
X142319429Y-93704628D02*
X142271810Y-93752247D01*
X142271810Y-93752247D02*
X142224191Y-93847485D01*
X142224191Y-93847485D02*
X142224191Y-93990342D01*
X142224191Y-93990342D02*
X142271810Y-94085580D01*
X142271810Y-94085580D02*
X142319429Y-94133200D01*
X142319429Y-94133200D02*
X142414667Y-94180819D01*
X142414667Y-94180819D02*
X142795619Y-94180819D01*
X142795619Y-94180819D02*
X142795619Y-93180819D01*
X142795619Y-93180819D02*
X142462286Y-93180819D01*
X142462286Y-93180819D02*
X142367048Y-93228438D01*
X142367048Y-93228438D02*
X142319429Y-93276057D01*
X142319429Y-93276057D02*
X142271810Y-93371295D01*
X142271810Y-93371295D02*
X142271810Y-93466533D01*
X142271810Y-93466533D02*
X142319429Y-93561771D01*
X142319429Y-93561771D02*
X142367048Y-93609390D01*
X142367048Y-93609390D02*
X142462286Y-93657009D01*
X142462286Y-93657009D02*
X142795619Y-93657009D01*
X141795619Y-94180819D02*
X141795619Y-93514152D01*
X141795619Y-93704628D02*
X141748000Y-93609390D01*
X141748000Y-93609390D02*
X141700381Y-93561771D01*
X141700381Y-93561771D02*
X141605143Y-93514152D01*
X141605143Y-93514152D02*
X141509905Y-93514152D01*
X140795619Y-94133200D02*
X140890857Y-94180819D01*
X140890857Y-94180819D02*
X141081333Y-94180819D01*
X141081333Y-94180819D02*
X141176571Y-94133200D01*
X141176571Y-94133200D02*
X141224190Y-94037961D01*
X141224190Y-94037961D02*
X141224190Y-93657009D01*
X141224190Y-93657009D02*
X141176571Y-93561771D01*
X141176571Y-93561771D02*
X141081333Y-93514152D01*
X141081333Y-93514152D02*
X140890857Y-93514152D01*
X140890857Y-93514152D02*
X140795619Y-93561771D01*
X140795619Y-93561771D02*
X140748000Y-93657009D01*
X140748000Y-93657009D02*
X140748000Y-93752247D01*
X140748000Y-93752247D02*
X141224190Y-93847485D01*
X139890857Y-94180819D02*
X139890857Y-93657009D01*
X139890857Y-93657009D02*
X139938476Y-93561771D01*
X139938476Y-93561771D02*
X140033714Y-93514152D01*
X140033714Y-93514152D02*
X140224190Y-93514152D01*
X140224190Y-93514152D02*
X140319428Y-93561771D01*
X139890857Y-94133200D02*
X139986095Y-94180819D01*
X139986095Y-94180819D02*
X140224190Y-94180819D01*
X140224190Y-94180819D02*
X140319428Y-94133200D01*
X140319428Y-94133200D02*
X140367047Y-94037961D01*
X140367047Y-94037961D02*
X140367047Y-93942723D01*
X140367047Y-93942723D02*
X140319428Y-93847485D01*
X140319428Y-93847485D02*
X140224190Y-93799866D01*
X140224190Y-93799866D02*
X139986095Y-93799866D01*
X139986095Y-93799866D02*
X139890857Y-93752247D01*
X139414666Y-94180819D02*
X139414666Y-93180819D01*
X139319428Y-93799866D02*
X139033714Y-94180819D01*
X139033714Y-93514152D02*
X139414666Y-93895104D01*
X138462285Y-94180819D02*
X138557523Y-94133200D01*
X138557523Y-94133200D02*
X138605142Y-94085580D01*
X138605142Y-94085580D02*
X138652761Y-93990342D01*
X138652761Y-93990342D02*
X138652761Y-93704628D01*
X138652761Y-93704628D02*
X138605142Y-93609390D01*
X138605142Y-93609390D02*
X138557523Y-93561771D01*
X138557523Y-93561771D02*
X138462285Y-93514152D01*
X138462285Y-93514152D02*
X138319428Y-93514152D01*
X138319428Y-93514152D02*
X138224190Y-93561771D01*
X138224190Y-93561771D02*
X138176571Y-93609390D01*
X138176571Y-93609390D02*
X138128952Y-93704628D01*
X138128952Y-93704628D02*
X138128952Y-93990342D01*
X138128952Y-93990342D02*
X138176571Y-94085580D01*
X138176571Y-94085580D02*
X138224190Y-94133200D01*
X138224190Y-94133200D02*
X138319428Y-94180819D01*
X138319428Y-94180819D02*
X138462285Y-94180819D01*
X137271809Y-93514152D02*
X137271809Y-94180819D01*
X137700380Y-93514152D02*
X137700380Y-94037961D01*
X137700380Y-94037961D02*
X137652761Y-94133200D01*
X137652761Y-94133200D02*
X137557523Y-94180819D01*
X137557523Y-94180819D02*
X137414666Y-94180819D01*
X137414666Y-94180819D02*
X137319428Y-94133200D01*
X137319428Y-94133200D02*
X137271809Y-94085580D01*
X136938475Y-93514152D02*
X136557523Y-93514152D01*
X136795618Y-93180819D02*
X136795618Y-94037961D01*
X136795618Y-94037961D02*
X136747999Y-94133200D01*
X136747999Y-94133200D02*
X136652761Y-94180819D01*
X136652761Y-94180819D02*
X136557523Y-94180819D01*
D11*
X133317305Y-103839538D02*
X133374448Y-103810967D01*
X133374448Y-103810967D02*
X133460162Y-103810967D01*
X133460162Y-103810967D02*
X133545876Y-103839538D01*
X133545876Y-103839538D02*
X133603019Y-103896681D01*
X133603019Y-103896681D02*
X133631590Y-103953824D01*
X133631590Y-103953824D02*
X133660162Y-104068110D01*
X133660162Y-104068110D02*
X133660162Y-104153824D01*
X133660162Y-104153824D02*
X133631590Y-104268110D01*
X133631590Y-104268110D02*
X133603019Y-104325253D01*
X133603019Y-104325253D02*
X133545876Y-104382396D01*
X133545876Y-104382396D02*
X133460162Y-104410967D01*
X133460162Y-104410967D02*
X133403019Y-104410967D01*
X133403019Y-104410967D02*
X133317305Y-104382396D01*
X133317305Y-104382396D02*
X133288733Y-104353824D01*
X133288733Y-104353824D02*
X133288733Y-104153824D01*
X133288733Y-104153824D02*
X133403019Y-104153824D01*
X133031590Y-104410967D02*
X133031590Y-103810967D01*
X133031590Y-103810967D02*
X132688733Y-104410967D01*
X132688733Y-104410967D02*
X132688733Y-103810967D01*
X132403019Y-104410967D02*
X132403019Y-103810967D01*
X132403019Y-103810967D02*
X132260162Y-103810967D01*
X132260162Y-103810967D02*
X132174448Y-103839538D01*
X132174448Y-103839538D02*
X132117305Y-103896681D01*
X132117305Y-103896681D02*
X132088734Y-103953824D01*
X132088734Y-103953824D02*
X132060162Y-104068110D01*
X132060162Y-104068110D02*
X132060162Y-104153824D01*
X132060162Y-104153824D02*
X132088734Y-104268110D01*
X132088734Y-104268110D02*
X132117305Y-104325253D01*
X132117305Y-104325253D02*
X132174448Y-104382396D01*
X132174448Y-104382396D02*
X132260162Y-104410967D01*
X132260162Y-104410967D02*
X132403019Y-104410967D01*
X133317305Y-101299538D02*
X133374448Y-101270967D01*
X133374448Y-101270967D02*
X133460162Y-101270967D01*
X133460162Y-101270967D02*
X133545876Y-101299538D01*
X133545876Y-101299538D02*
X133603019Y-101356681D01*
X133603019Y-101356681D02*
X133631590Y-101413824D01*
X133631590Y-101413824D02*
X133660162Y-101528110D01*
X133660162Y-101528110D02*
X133660162Y-101613824D01*
X133660162Y-101613824D02*
X133631590Y-101728110D01*
X133631590Y-101728110D02*
X133603019Y-101785253D01*
X133603019Y-101785253D02*
X133545876Y-101842396D01*
X133545876Y-101842396D02*
X133460162Y-101870967D01*
X133460162Y-101870967D02*
X133403019Y-101870967D01*
X133403019Y-101870967D02*
X133317305Y-101842396D01*
X133317305Y-101842396D02*
X133288733Y-101813824D01*
X133288733Y-101813824D02*
X133288733Y-101613824D01*
X133288733Y-101613824D02*
X133403019Y-101613824D01*
X133031590Y-101870967D02*
X133031590Y-101270967D01*
X133031590Y-101270967D02*
X132688733Y-101870967D01*
X132688733Y-101870967D02*
X132688733Y-101270967D01*
X132403019Y-101870967D02*
X132403019Y-101270967D01*
X132403019Y-101270967D02*
X132260162Y-101270967D01*
X132260162Y-101270967D02*
X132174448Y-101299538D01*
X132174448Y-101299538D02*
X132117305Y-101356681D01*
X132117305Y-101356681D02*
X132088734Y-101413824D01*
X132088734Y-101413824D02*
X132060162Y-101528110D01*
X132060162Y-101528110D02*
X132060162Y-101613824D01*
X132060162Y-101613824D02*
X132088734Y-101728110D01*
X132088734Y-101728110D02*
X132117305Y-101785253D01*
X132117305Y-101785253D02*
X132174448Y-101842396D01*
X132174448Y-101842396D02*
X132260162Y-101870967D01*
X132260162Y-101870967D02*
X132403019Y-101870967D01*
X133317305Y-98759538D02*
X133374448Y-98730967D01*
X133374448Y-98730967D02*
X133460162Y-98730967D01*
X133460162Y-98730967D02*
X133545876Y-98759538D01*
X133545876Y-98759538D02*
X133603019Y-98816681D01*
X133603019Y-98816681D02*
X133631590Y-98873824D01*
X133631590Y-98873824D02*
X133660162Y-98988110D01*
X133660162Y-98988110D02*
X133660162Y-99073824D01*
X133660162Y-99073824D02*
X133631590Y-99188110D01*
X133631590Y-99188110D02*
X133603019Y-99245253D01*
X133603019Y-99245253D02*
X133545876Y-99302396D01*
X133545876Y-99302396D02*
X133460162Y-99330967D01*
X133460162Y-99330967D02*
X133403019Y-99330967D01*
X133403019Y-99330967D02*
X133317305Y-99302396D01*
X133317305Y-99302396D02*
X133288733Y-99273824D01*
X133288733Y-99273824D02*
X133288733Y-99073824D01*
X133288733Y-99073824D02*
X133403019Y-99073824D01*
X133031590Y-99330967D02*
X133031590Y-98730967D01*
X133031590Y-98730967D02*
X132688733Y-99330967D01*
X132688733Y-99330967D02*
X132688733Y-98730967D01*
X132403019Y-99330967D02*
X132403019Y-98730967D01*
X132403019Y-98730967D02*
X132260162Y-98730967D01*
X132260162Y-98730967D02*
X132174448Y-98759538D01*
X132174448Y-98759538D02*
X132117305Y-98816681D01*
X132117305Y-98816681D02*
X132088734Y-98873824D01*
X132088734Y-98873824D02*
X132060162Y-98988110D01*
X132060162Y-98988110D02*
X132060162Y-99073824D01*
X132060162Y-99073824D02*
X132088734Y-99188110D01*
X132088734Y-99188110D02*
X132117305Y-99245253D01*
X132117305Y-99245253D02*
X132174448Y-99302396D01*
X132174448Y-99302396D02*
X132260162Y-99330967D01*
X132260162Y-99330967D02*
X132403019Y-99330967D01*
X137635305Y-105680967D02*
X137978162Y-105680967D01*
X137806733Y-105680967D02*
X137806733Y-105080967D01*
X137806733Y-105080967D02*
X137863876Y-105166681D01*
X137863876Y-105166681D02*
X137921019Y-105223824D01*
X137921019Y-105223824D02*
X137978162Y-105252396D01*
X140391162Y-102598110D02*
X140362590Y-102569538D01*
X140362590Y-102569538D02*
X140305448Y-102540967D01*
X140305448Y-102540967D02*
X140162590Y-102540967D01*
X140162590Y-102540967D02*
X140105448Y-102569538D01*
X140105448Y-102569538D02*
X140076876Y-102598110D01*
X140076876Y-102598110D02*
X140048305Y-102655253D01*
X140048305Y-102655253D02*
X140048305Y-102712396D01*
X140048305Y-102712396D02*
X140076876Y-102798110D01*
X140076876Y-102798110D02*
X140419733Y-103140967D01*
X140419733Y-103140967D02*
X140048305Y-103140967D01*
X140419733Y-100000967D02*
X140048305Y-100000967D01*
X140048305Y-100000967D02*
X140248305Y-100229538D01*
X140248305Y-100229538D02*
X140162590Y-100229538D01*
X140162590Y-100229538D02*
X140105448Y-100258110D01*
X140105448Y-100258110D02*
X140076876Y-100286681D01*
X140076876Y-100286681D02*
X140048305Y-100343824D01*
X140048305Y-100343824D02*
X140048305Y-100486681D01*
X140048305Y-100486681D02*
X140076876Y-100543824D01*
X140076876Y-100543824D02*
X140105448Y-100572396D01*
X140105448Y-100572396D02*
X140162590Y-100600967D01*
X140162590Y-100600967D02*
X140334019Y-100600967D01*
X140334019Y-100600967D02*
X140391162Y-100572396D01*
X140391162Y-100572396D02*
X140419733Y-100543824D01*
X137565448Y-97660967D02*
X137565448Y-98060967D01*
X137708305Y-97432396D02*
X137851162Y-97860967D01*
X137851162Y-97860967D02*
X137479733Y-97860967D01*
X141535980Y-97489538D02*
X141593123Y-97460967D01*
X141593123Y-97460967D02*
X141678837Y-97460967D01*
X141678837Y-97460967D02*
X141764551Y-97489538D01*
X141764551Y-97489538D02*
X141821694Y-97546681D01*
X141821694Y-97546681D02*
X141850265Y-97603824D01*
X141850265Y-97603824D02*
X141878837Y-97718110D01*
X141878837Y-97718110D02*
X141878837Y-97803824D01*
X141878837Y-97803824D02*
X141850265Y-97918110D01*
X141850265Y-97918110D02*
X141821694Y-97975253D01*
X141821694Y-97975253D02*
X141764551Y-98032396D01*
X141764551Y-98032396D02*
X141678837Y-98060967D01*
X141678837Y-98060967D02*
X141621694Y-98060967D01*
X141621694Y-98060967D02*
X141535980Y-98032396D01*
X141535980Y-98032396D02*
X141507408Y-98003824D01*
X141507408Y-98003824D02*
X141507408Y-97803824D01*
X141507408Y-97803824D02*
X141621694Y-97803824D01*
X141250265Y-98060967D02*
X141250265Y-97460967D01*
X141250265Y-97460967D02*
X140907408Y-98060967D01*
X140907408Y-98060967D02*
X140907408Y-97460967D01*
X140621694Y-98060967D02*
X140621694Y-97460967D01*
X140621694Y-97460967D02*
X140478837Y-97460967D01*
X140478837Y-97460967D02*
X140393123Y-97489538D01*
X140393123Y-97489538D02*
X140335980Y-97546681D01*
X140335980Y-97546681D02*
X140307409Y-97603824D01*
X140307409Y-97603824D02*
X140278837Y-97718110D01*
X140278837Y-97718110D02*
X140278837Y-97803824D01*
X140278837Y-97803824D02*
X140307409Y-97918110D01*
X140307409Y-97918110D02*
X140335980Y-97975253D01*
X140335980Y-97975253D02*
X140393123Y-98032396D01*
X140393123Y-98032396D02*
X140478837Y-98060967D01*
X140478837Y-98060967D02*
X140621694Y-98060967D01*
X139346590Y-100600967D02*
X139346590Y-100000967D01*
X139346590Y-100000967D02*
X139203733Y-100000967D01*
X139203733Y-100000967D02*
X139118019Y-100029538D01*
X139118019Y-100029538D02*
X139060876Y-100086681D01*
X139060876Y-100086681D02*
X139032305Y-100143824D01*
X139032305Y-100143824D02*
X139003733Y-100258110D01*
X139003733Y-100258110D02*
X139003733Y-100343824D01*
X139003733Y-100343824D02*
X139032305Y-100458110D01*
X139032305Y-100458110D02*
X139060876Y-100515253D01*
X139060876Y-100515253D02*
X139118019Y-100572396D01*
X139118019Y-100572396D02*
X139203733Y-100600967D01*
X139203733Y-100600967D02*
X139346590Y-100600967D01*
X138746590Y-100372396D02*
X138289448Y-100372396D01*
X138518019Y-100600967D02*
X138518019Y-100143824D01*
X139346590Y-103140967D02*
X139346590Y-102540967D01*
X139346590Y-102540967D02*
X139203733Y-102540967D01*
X139203733Y-102540967D02*
X139118019Y-102569538D01*
X139118019Y-102569538D02*
X139060876Y-102626681D01*
X139060876Y-102626681D02*
X139032305Y-102683824D01*
X139032305Y-102683824D02*
X139003733Y-102798110D01*
X139003733Y-102798110D02*
X139003733Y-102883824D01*
X139003733Y-102883824D02*
X139032305Y-102998110D01*
X139032305Y-102998110D02*
X139060876Y-103055253D01*
X139060876Y-103055253D02*
X139118019Y-103112396D01*
X139118019Y-103112396D02*
X139203733Y-103140967D01*
X139203733Y-103140967D02*
X139346590Y-103140967D01*
X138746590Y-102912396D02*
X138289448Y-102912396D01*
X141793123Y-105452396D02*
X141335981Y-105452396D01*
X141564552Y-105680967D02*
X141564552Y-105223824D01*
X140764552Y-105080967D02*
X141050266Y-105080967D01*
X141050266Y-105080967D02*
X141078838Y-105366681D01*
X141078838Y-105366681D02*
X141050266Y-105338110D01*
X141050266Y-105338110D02*
X140993124Y-105309538D01*
X140993124Y-105309538D02*
X140850266Y-105309538D01*
X140850266Y-105309538D02*
X140793124Y-105338110D01*
X140793124Y-105338110D02*
X140764552Y-105366681D01*
X140764552Y-105366681D02*
X140735981Y-105423824D01*
X140735981Y-105423824D02*
X140735981Y-105566681D01*
X140735981Y-105566681D02*
X140764552Y-105623824D01*
X140764552Y-105623824D02*
X140793124Y-105652396D01*
X140793124Y-105652396D02*
X140850266Y-105680967D01*
X140850266Y-105680967D02*
X140993124Y-105680967D01*
X140993124Y-105680967D02*
X141050266Y-105652396D01*
X141050266Y-105652396D02*
X141078838Y-105623824D01*
X140535980Y-105280967D02*
X140393123Y-105680967D01*
X140393123Y-105680967D02*
X140250266Y-105280967D01*
D10*
X149630572Y-109836295D02*
X149630572Y-109036295D01*
X149630572Y-109798200D02*
X149706763Y-109836295D01*
X149706763Y-109836295D02*
X149859144Y-109836295D01*
X149859144Y-109836295D02*
X149935334Y-109798200D01*
X149935334Y-109798200D02*
X149973429Y-109760104D01*
X149973429Y-109760104D02*
X150011525Y-109683914D01*
X150011525Y-109683914D02*
X150011525Y-109455342D01*
X150011525Y-109455342D02*
X149973429Y-109379152D01*
X149973429Y-109379152D02*
X149935334Y-109341057D01*
X149935334Y-109341057D02*
X149859144Y-109302961D01*
X149859144Y-109302961D02*
X149706763Y-109302961D01*
X149706763Y-109302961D02*
X149630572Y-109341057D01*
X149287715Y-109798200D02*
X149211524Y-109836295D01*
X149211524Y-109836295D02*
X149059143Y-109836295D01*
X149059143Y-109836295D02*
X148982953Y-109798200D01*
X148982953Y-109798200D02*
X148944857Y-109722009D01*
X148944857Y-109722009D02*
X148944857Y-109683914D01*
X148944857Y-109683914D02*
X148982953Y-109607723D01*
X148982953Y-109607723D02*
X149059143Y-109569628D01*
X149059143Y-109569628D02*
X149173429Y-109569628D01*
X149173429Y-109569628D02*
X149249619Y-109531533D01*
X149249619Y-109531533D02*
X149287715Y-109455342D01*
X149287715Y-109455342D02*
X149287715Y-109417247D01*
X149287715Y-109417247D02*
X149249619Y-109341057D01*
X149249619Y-109341057D02*
X149173429Y-109302961D01*
X149173429Y-109302961D02*
X149059143Y-109302961D01*
X149059143Y-109302961D02*
X148982953Y-109341057D01*
X148259143Y-109302961D02*
X148259143Y-109836295D01*
X148602000Y-109302961D02*
X148602000Y-109722009D01*
X148602000Y-109722009D02*
X148563905Y-109798200D01*
X148563905Y-109798200D02*
X148487715Y-109836295D01*
X148487715Y-109836295D02*
X148373429Y-109836295D01*
X148373429Y-109836295D02*
X148297238Y-109798200D01*
X148297238Y-109798200D02*
X148259143Y-109760104D01*
X147878190Y-109302961D02*
X147878190Y-109836295D01*
X147878190Y-109379152D02*
X147840095Y-109341057D01*
X147840095Y-109341057D02*
X147763905Y-109302961D01*
X147763905Y-109302961D02*
X147649619Y-109302961D01*
X147649619Y-109302961D02*
X147573428Y-109341057D01*
X147573428Y-109341057D02*
X147535333Y-109417247D01*
X147535333Y-109417247D02*
X147535333Y-109836295D01*
X147230571Y-109036295D02*
X146697237Y-109036295D01*
X146697237Y-109036295D02*
X147040095Y-109836295D01*
X146049618Y-109798200D02*
X146125809Y-109836295D01*
X146125809Y-109836295D02*
X146278190Y-109836295D01*
X146278190Y-109836295D02*
X146354380Y-109798200D01*
X146354380Y-109798200D02*
X146392475Y-109760104D01*
X146392475Y-109760104D02*
X146430571Y-109683914D01*
X146430571Y-109683914D02*
X146430571Y-109455342D01*
X146430571Y-109455342D02*
X146392475Y-109379152D01*
X146392475Y-109379152D02*
X146354380Y-109341057D01*
X146354380Y-109341057D02*
X146278190Y-109302961D01*
X146278190Y-109302961D02*
X146125809Y-109302961D01*
X146125809Y-109302961D02*
X146049618Y-109341057D01*
X145363904Y-109302961D02*
X145363904Y-109836295D01*
X145554380Y-108998200D02*
X145744857Y-109569628D01*
X145744857Y-109569628D02*
X145249618Y-109569628D01*
X144830571Y-109836295D02*
X144906761Y-109798200D01*
X144906761Y-109798200D02*
X144944856Y-109760104D01*
X144944856Y-109760104D02*
X144982952Y-109683914D01*
X144982952Y-109683914D02*
X144982952Y-109455342D01*
X144982952Y-109455342D02*
X144944856Y-109379152D01*
X144944856Y-109379152D02*
X144906761Y-109341057D01*
X144906761Y-109341057D02*
X144830571Y-109302961D01*
X144830571Y-109302961D02*
X144716285Y-109302961D01*
X144716285Y-109302961D02*
X144640094Y-109341057D01*
X144640094Y-109341057D02*
X144601999Y-109379152D01*
X144601999Y-109379152D02*
X144563904Y-109455342D01*
X144563904Y-109455342D02*
X144563904Y-109683914D01*
X144563904Y-109683914D02*
X144601999Y-109760104D01*
X144601999Y-109760104D02*
X144640094Y-109798200D01*
X144640094Y-109798200D02*
X144716285Y-109836295D01*
X144716285Y-109836295D02*
X144830571Y-109836295D01*
X144259142Y-109798200D02*
X144182951Y-109836295D01*
X144182951Y-109836295D02*
X144030570Y-109836295D01*
X144030570Y-109836295D02*
X143954380Y-109798200D01*
X143954380Y-109798200D02*
X143916284Y-109722009D01*
X143916284Y-109722009D02*
X143916284Y-109683914D01*
X143916284Y-109683914D02*
X143954380Y-109607723D01*
X143954380Y-109607723D02*
X144030570Y-109569628D01*
X144030570Y-109569628D02*
X144144856Y-109569628D01*
X144144856Y-109569628D02*
X144221046Y-109531533D01*
X144221046Y-109531533D02*
X144259142Y-109455342D01*
X144259142Y-109455342D02*
X144259142Y-109417247D01*
X144259142Y-109417247D02*
X144221046Y-109341057D01*
X144221046Y-109341057D02*
X144144856Y-109302961D01*
X144144856Y-109302961D02*
X144030570Y-109302961D01*
X144030570Y-109302961D02*
X143954380Y-109341057D01*
X143573427Y-109836295D02*
X143573427Y-109036295D01*
X143230570Y-109836295D02*
X143230570Y-109417247D01*
X143230570Y-109417247D02*
X143268665Y-109341057D01*
X143268665Y-109341057D02*
X143344856Y-109302961D01*
X143344856Y-109302961D02*
X143459142Y-109302961D01*
X143459142Y-109302961D02*
X143535332Y-109341057D01*
X143535332Y-109341057D02*
X143573427Y-109379152D01*
X142354379Y-109455342D02*
X142392474Y-109417247D01*
X142392474Y-109417247D02*
X142468665Y-109379152D01*
X142468665Y-109379152D02*
X142544855Y-109379152D01*
X142544855Y-109379152D02*
X142621046Y-109417247D01*
X142621046Y-109417247D02*
X142659141Y-109455342D01*
X142659141Y-109455342D02*
X142697236Y-109531533D01*
X142697236Y-109531533D02*
X142697236Y-109607723D01*
X142697236Y-109607723D02*
X142659141Y-109683914D01*
X142659141Y-109683914D02*
X142621046Y-109722009D01*
X142621046Y-109722009D02*
X142544855Y-109760104D01*
X142544855Y-109760104D02*
X142468665Y-109760104D01*
X142468665Y-109760104D02*
X142392474Y-109722009D01*
X142392474Y-109722009D02*
X142354379Y-109683914D01*
X142354379Y-109379152D02*
X142354379Y-109683914D01*
X142354379Y-109683914D02*
X142316284Y-109722009D01*
X142316284Y-109722009D02*
X142278189Y-109722009D01*
X142278189Y-109722009D02*
X142201998Y-109683914D01*
X142201998Y-109683914D02*
X142163903Y-109607723D01*
X142163903Y-109607723D02*
X142163903Y-109417247D01*
X142163903Y-109417247D02*
X142240094Y-109302961D01*
X142240094Y-109302961D02*
X142354379Y-109226771D01*
X142354379Y-109226771D02*
X142506760Y-109188676D01*
X142506760Y-109188676D02*
X142659141Y-109226771D01*
X142659141Y-109226771D02*
X142773427Y-109302961D01*
X142773427Y-109302961D02*
X142849617Y-109417247D01*
X142849617Y-109417247D02*
X142887713Y-109569628D01*
X142887713Y-109569628D02*
X142849617Y-109722009D01*
X142849617Y-109722009D02*
X142773427Y-109836295D01*
X142773427Y-109836295D02*
X142659141Y-109912485D01*
X142659141Y-109912485D02*
X142506760Y-109950580D01*
X142506760Y-109950580D02*
X142354379Y-109912485D01*
X142354379Y-109912485D02*
X142240094Y-109836295D01*
X141478189Y-109302961D02*
X141478189Y-109950580D01*
X141478189Y-109950580D02*
X141516284Y-110026771D01*
X141516284Y-110026771D02*
X141554380Y-110064866D01*
X141554380Y-110064866D02*
X141630570Y-110102961D01*
X141630570Y-110102961D02*
X141744856Y-110102961D01*
X141744856Y-110102961D02*
X141821046Y-110064866D01*
X141478189Y-109798200D02*
X141554380Y-109836295D01*
X141554380Y-109836295D02*
X141706761Y-109836295D01*
X141706761Y-109836295D02*
X141782951Y-109798200D01*
X141782951Y-109798200D02*
X141821046Y-109760104D01*
X141821046Y-109760104D02*
X141859142Y-109683914D01*
X141859142Y-109683914D02*
X141859142Y-109455342D01*
X141859142Y-109455342D02*
X141821046Y-109379152D01*
X141821046Y-109379152D02*
X141782951Y-109341057D01*
X141782951Y-109341057D02*
X141706761Y-109302961D01*
X141706761Y-109302961D02*
X141554380Y-109302961D01*
X141554380Y-109302961D02*
X141478189Y-109341057D01*
X141097236Y-109836295D02*
X141097236Y-109302961D01*
X141097236Y-109379152D02*
X141059141Y-109341057D01*
X141059141Y-109341057D02*
X140982951Y-109302961D01*
X140982951Y-109302961D02*
X140868665Y-109302961D01*
X140868665Y-109302961D02*
X140792474Y-109341057D01*
X140792474Y-109341057D02*
X140754379Y-109417247D01*
X140754379Y-109417247D02*
X140754379Y-109836295D01*
X140754379Y-109417247D02*
X140716284Y-109341057D01*
X140716284Y-109341057D02*
X140640093Y-109302961D01*
X140640093Y-109302961D02*
X140525808Y-109302961D01*
X140525808Y-109302961D02*
X140449617Y-109341057D01*
X140449617Y-109341057D02*
X140411522Y-109417247D01*
X140411522Y-109417247D02*
X140411522Y-109836295D01*
X139687712Y-109836295D02*
X139687712Y-109417247D01*
X139687712Y-109417247D02*
X139725807Y-109341057D01*
X139725807Y-109341057D02*
X139801998Y-109302961D01*
X139801998Y-109302961D02*
X139954379Y-109302961D01*
X139954379Y-109302961D02*
X140030569Y-109341057D01*
X139687712Y-109798200D02*
X139763903Y-109836295D01*
X139763903Y-109836295D02*
X139954379Y-109836295D01*
X139954379Y-109836295D02*
X140030569Y-109798200D01*
X140030569Y-109798200D02*
X140068665Y-109722009D01*
X140068665Y-109722009D02*
X140068665Y-109645819D01*
X140068665Y-109645819D02*
X140030569Y-109569628D01*
X140030569Y-109569628D02*
X139954379Y-109531533D01*
X139954379Y-109531533D02*
X139763903Y-109531533D01*
X139763903Y-109531533D02*
X139687712Y-109493438D01*
X139306759Y-109836295D02*
X139306759Y-109302961D01*
X139306759Y-109036295D02*
X139344855Y-109074390D01*
X139344855Y-109074390D02*
X139306759Y-109112485D01*
X139306759Y-109112485D02*
X139268664Y-109074390D01*
X139268664Y-109074390D02*
X139306759Y-109036295D01*
X139306759Y-109036295D02*
X139306759Y-109112485D01*
X138811522Y-109836295D02*
X138887712Y-109798200D01*
X138887712Y-109798200D02*
X138925807Y-109722009D01*
X138925807Y-109722009D02*
X138925807Y-109036295D01*
X138506759Y-109760104D02*
X138468664Y-109798200D01*
X138468664Y-109798200D02*
X138506759Y-109836295D01*
X138506759Y-109836295D02*
X138544855Y-109798200D01*
X138544855Y-109798200D02*
X138506759Y-109760104D01*
X138506759Y-109760104D02*
X138506759Y-109836295D01*
X137782950Y-109798200D02*
X137859141Y-109836295D01*
X137859141Y-109836295D02*
X138011522Y-109836295D01*
X138011522Y-109836295D02*
X138087712Y-109798200D01*
X138087712Y-109798200D02*
X138125807Y-109760104D01*
X138125807Y-109760104D02*
X138163903Y-109683914D01*
X138163903Y-109683914D02*
X138163903Y-109455342D01*
X138163903Y-109455342D02*
X138125807Y-109379152D01*
X138125807Y-109379152D02*
X138087712Y-109341057D01*
X138087712Y-109341057D02*
X138011522Y-109302961D01*
X138011522Y-109302961D02*
X137859141Y-109302961D01*
X137859141Y-109302961D02*
X137782950Y-109341057D01*
X137325808Y-109836295D02*
X137401998Y-109798200D01*
X137401998Y-109798200D02*
X137440093Y-109760104D01*
X137440093Y-109760104D02*
X137478189Y-109683914D01*
X137478189Y-109683914D02*
X137478189Y-109455342D01*
X137478189Y-109455342D02*
X137440093Y-109379152D01*
X137440093Y-109379152D02*
X137401998Y-109341057D01*
X137401998Y-109341057D02*
X137325808Y-109302961D01*
X137325808Y-109302961D02*
X137211522Y-109302961D01*
X137211522Y-109302961D02*
X137135331Y-109341057D01*
X137135331Y-109341057D02*
X137097236Y-109379152D01*
X137097236Y-109379152D02*
X137059141Y-109455342D01*
X137059141Y-109455342D02*
X137059141Y-109683914D01*
X137059141Y-109683914D02*
X137097236Y-109760104D01*
X137097236Y-109760104D02*
X137135331Y-109798200D01*
X137135331Y-109798200D02*
X137211522Y-109836295D01*
X137211522Y-109836295D02*
X137325808Y-109836295D01*
X136716283Y-109836295D02*
X136716283Y-109302961D01*
X136716283Y-109379152D02*
X136678188Y-109341057D01*
X136678188Y-109341057D02*
X136601998Y-109302961D01*
X136601998Y-109302961D02*
X136487712Y-109302961D01*
X136487712Y-109302961D02*
X136411521Y-109341057D01*
X136411521Y-109341057D02*
X136373426Y-109417247D01*
X136373426Y-109417247D02*
X136373426Y-109836295D01*
X136373426Y-109417247D02*
X136335331Y-109341057D01*
X136335331Y-109341057D02*
X136259140Y-109302961D01*
X136259140Y-109302961D02*
X136144855Y-109302961D01*
X136144855Y-109302961D02*
X136068664Y-109341057D01*
X136068664Y-109341057D02*
X136030569Y-109417247D01*
X136030569Y-109417247D02*
X136030569Y-109836295D01*
%LPC*%
D12*
X132080000Y-95250000D03*
X132080000Y-107950000D03*
D13*
X129540000Y-101600000D03*
X134620000Y-101600000D03*
X134620000Y-99060000D03*
X134620000Y-104140000D03*
D14*
X139065000Y-105410000D03*
X141605000Y-102870000D03*
X141605000Y-100330000D03*
X139065000Y-97790000D03*
D15*
X146760000Y-100350000D03*
D16*
X146760000Y-102850000D03*
X148760000Y-102850000D03*
X148760000Y-100350000D03*
D17*
X153250000Y-97600000D03*
X153250000Y-105600000D03*
D14*
X136525000Y-102870000D03*
%LPD*%
M02*
