G04 #@! TF.GenerationSoftware,KiCad,Pcbnew,(5.1.5)*
G04 #@! TF.CreationDate,2019-12-07T20:44:40-05:00*
G04 #@! TF.ProjectId,rj45brkout,726a3435-6272-46b6-9f75-742e6b696361,v1.0.0*
G04 #@! TF.SameCoordinates,Original*
G04 #@! TF.FileFunction,Copper,L4,Bot*
G04 #@! TF.FilePolarity,Positive*
%FSLAX46Y46*%
G04 Gerber Fmt 4.6, Leading zero omitted, Abs format (unit mm)*
G04 Created by KiCad (PCBNEW (5.1.5)) date 2019-12-07 20:44:40*
%MOMM*%
%LPD*%
G04 APERTURE LIST*
%ADD10C,1.270000*%
%ADD11C,1.651000*%
%ADD12C,4.000000*%
%ADD13C,1.143000*%
%ADD14C,0.254000*%
G04 APERTURE END LIST*
D10*
X134620000Y-104140000D03*
X134620000Y-99060000D03*
X134620000Y-101600000D03*
D11*
X144250000Y-106040000D03*
X141710000Y-104770000D03*
X144250000Y-103500000D03*
X141710000Y-102230000D03*
X144250000Y-100960000D03*
X141710000Y-99690000D03*
X144250000Y-98420000D03*
X141710000Y-97150000D03*
D12*
X152250000Y-106600000D03*
X152250000Y-96600000D03*
D11*
X148250000Y-108130000D03*
X148250000Y-105590000D03*
X148250000Y-97610000D03*
X148250000Y-95070000D03*
D13*
X129540000Y-101600000D03*
D10*
X136144000Y-98044000D03*
X137668000Y-98044000D03*
X139192000Y-99060000D03*
X139192000Y-100584000D03*
X139192000Y-102616000D03*
X139192000Y-104140000D03*
X137668000Y-105156000D03*
X136144000Y-105156000D03*
X139192000Y-109728000D03*
X139192000Y-108204000D03*
X139192000Y-94996000D03*
X139192000Y-93472000D03*
D14*
X144250000Y-103500000D02*
X139832000Y-103500000D01*
X139832000Y-103500000D02*
X139827000Y-103505000D01*
X139827000Y-103505000D02*
X139192000Y-104140000D01*
X141710000Y-99690000D02*
X140721000Y-99690000D01*
X140721000Y-99690000D02*
X140462000Y-99949000D01*
X140462000Y-99949000D02*
X140462000Y-101346000D01*
X140462000Y-101346000D02*
X139192000Y-102616000D01*
M02*
