G04 #@! TF.GenerationSoftware,KiCad,Pcbnew,(5.1.5)*
G04 #@! TF.CreationDate,2019-12-07T20:44:40-05:00*
G04 #@! TF.ProjectId,rj45brkout,726a3435-6272-46b6-9f75-742e6b696361,v1.0.0*
G04 #@! TF.SameCoordinates,Original*
G04 #@! TF.FileFunction,Legend,Bot*
G04 #@! TF.FilePolarity,Positive*
%FSLAX46Y46*%
G04 Gerber Fmt 4.6, Leading zero omitted, Abs format (unit mm)*
G04 Created by KiCad (PCBNEW (5.1.5)) date 2019-12-07 20:44:40*
%MOMM*%
%LPD*%
G04 APERTURE LIST*
%ADD10C,0.127000*%
%ADD11C,0.150000*%
%ADD12C,1.371600*%
%ADD13C,3.276600*%
%ADD14C,1.752600*%
%ADD15C,4.101600*%
%ADD16C,1.244600*%
G04 APERTURE END LIST*
D10*
X133318307Y-98760000D02*
X133375450Y-98731428D01*
X133461164Y-98731428D01*
X133546878Y-98760000D01*
X133604021Y-98817142D01*
X133632592Y-98874285D01*
X133661164Y-98988571D01*
X133661164Y-99074285D01*
X133632592Y-99188571D01*
X133604021Y-99245714D01*
X133546878Y-99302857D01*
X133461164Y-99331428D01*
X133404021Y-99331428D01*
X133318307Y-99302857D01*
X133289735Y-99274285D01*
X133289735Y-99074285D01*
X133404021Y-99074285D01*
X133032592Y-99331428D02*
X133032592Y-98731428D01*
X132689735Y-99331428D01*
X132689735Y-98731428D01*
X132404021Y-99331428D02*
X132404021Y-98731428D01*
X132261164Y-98731428D01*
X132175450Y-98760000D01*
X132118307Y-98817142D01*
X132089735Y-98874285D01*
X132061164Y-98988571D01*
X132061164Y-99074285D01*
X132089735Y-99188571D01*
X132118307Y-99245714D01*
X132175450Y-99302857D01*
X132261164Y-99331428D01*
X132404021Y-99331428D01*
X133318307Y-101300000D02*
X133375450Y-101271428D01*
X133461164Y-101271428D01*
X133546878Y-101300000D01*
X133604021Y-101357142D01*
X133632592Y-101414285D01*
X133661164Y-101528571D01*
X133661164Y-101614285D01*
X133632592Y-101728571D01*
X133604021Y-101785714D01*
X133546878Y-101842857D01*
X133461164Y-101871428D01*
X133404021Y-101871428D01*
X133318307Y-101842857D01*
X133289735Y-101814285D01*
X133289735Y-101614285D01*
X133404021Y-101614285D01*
X133032592Y-101871428D02*
X133032592Y-101271428D01*
X132689735Y-101871428D01*
X132689735Y-101271428D01*
X132404021Y-101871428D02*
X132404021Y-101271428D01*
X132261164Y-101271428D01*
X132175450Y-101300000D01*
X132118307Y-101357142D01*
X132089735Y-101414285D01*
X132061164Y-101528571D01*
X132061164Y-101614285D01*
X132089735Y-101728571D01*
X132118307Y-101785714D01*
X132175450Y-101842857D01*
X132261164Y-101871428D01*
X132404021Y-101871428D01*
X133318307Y-103840000D02*
X133375450Y-103811428D01*
X133461164Y-103811428D01*
X133546878Y-103840000D01*
X133604021Y-103897142D01*
X133632592Y-103954285D01*
X133661164Y-104068571D01*
X133661164Y-104154285D01*
X133632592Y-104268571D01*
X133604021Y-104325714D01*
X133546878Y-104382857D01*
X133461164Y-104411428D01*
X133404021Y-104411428D01*
X133318307Y-104382857D01*
X133289735Y-104354285D01*
X133289735Y-104154285D01*
X133404021Y-104154285D01*
X133032592Y-104411428D02*
X133032592Y-103811428D01*
X132689735Y-104411428D01*
X132689735Y-103811428D01*
X132404021Y-104411428D02*
X132404021Y-103811428D01*
X132261164Y-103811428D01*
X132175450Y-103840000D01*
X132118307Y-103897142D01*
X132089735Y-103954285D01*
X132061164Y-104068571D01*
X132061164Y-104154285D01*
X132089735Y-104268571D01*
X132118307Y-104325714D01*
X132175450Y-104382857D01*
X132261164Y-104411428D01*
X132404021Y-104411428D01*
X136831428Y-106257692D02*
X136831428Y-106371978D01*
X136860000Y-106429121D01*
X136917142Y-106486264D01*
X137031428Y-106514835D01*
X137231428Y-106514835D01*
X137345714Y-106486264D01*
X137402857Y-106429121D01*
X137431428Y-106371978D01*
X137431428Y-106257692D01*
X137402857Y-106200550D01*
X137345714Y-106143407D01*
X137231428Y-106114835D01*
X137031428Y-106114835D01*
X136917142Y-106143407D01*
X136860000Y-106200550D01*
X136831428Y-106257692D01*
X137431428Y-107114835D02*
X137145714Y-106914835D01*
X137431428Y-106771978D02*
X136831428Y-106771978D01*
X136831428Y-107000550D01*
X136860000Y-107057692D01*
X136888571Y-107086264D01*
X136945714Y-107114835D01*
X137031428Y-107114835D01*
X137088571Y-107086264D01*
X137117142Y-107057692D01*
X137145714Y-107000550D01*
X137145714Y-106771978D01*
X136860000Y-107686264D02*
X136831428Y-107629121D01*
X136831428Y-107543407D01*
X136860000Y-107457692D01*
X136917142Y-107400550D01*
X136974285Y-107371978D01*
X137088571Y-107343407D01*
X137174285Y-107343407D01*
X137288571Y-107371978D01*
X137345714Y-107400550D01*
X137402857Y-107457692D01*
X137431428Y-107543407D01*
X137431428Y-107600550D01*
X137402857Y-107686264D01*
X137374285Y-107714835D01*
X137174285Y-107714835D01*
X137174285Y-107600550D01*
X135307428Y-106086264D02*
X135907428Y-106229121D01*
X135478857Y-106343407D01*
X135907428Y-106457692D01*
X135307428Y-106600550D01*
X135907428Y-106829121D02*
X135307428Y-106829121D01*
X135593142Y-106829121D02*
X135593142Y-107171978D01*
X135907428Y-107171978D02*
X135307428Y-107171978D01*
X135307428Y-107371978D02*
X135307428Y-107714835D01*
X135907428Y-107543407D02*
X135307428Y-107543407D01*
X135278857Y-108343407D02*
X136050285Y-107829121D01*
X135307428Y-108657692D02*
X135307428Y-108771978D01*
X135336000Y-108829121D01*
X135393142Y-108886264D01*
X135507428Y-108914835D01*
X135707428Y-108914835D01*
X135821714Y-108886264D01*
X135878857Y-108829121D01*
X135907428Y-108771978D01*
X135907428Y-108657692D01*
X135878857Y-108600550D01*
X135821714Y-108543407D01*
X135707428Y-108514835D01*
X135507428Y-108514835D01*
X135393142Y-108543407D01*
X135336000Y-108600550D01*
X135307428Y-108657692D01*
X135907428Y-109514835D02*
X135621714Y-109314835D01*
X135907428Y-109171978D02*
X135307428Y-109171978D01*
X135307428Y-109400550D01*
X135336000Y-109457692D01*
X135364571Y-109486264D01*
X135421714Y-109514835D01*
X135507428Y-109514835D01*
X135564571Y-109486264D01*
X135593142Y-109457692D01*
X135621714Y-109400550D01*
X135621714Y-109171978D01*
X135336000Y-110086264D02*
X135307428Y-110029121D01*
X135307428Y-109943407D01*
X135336000Y-109857692D01*
X135393142Y-109800550D01*
X135450285Y-109771978D01*
X135564571Y-109743407D01*
X135650285Y-109743407D01*
X135764571Y-109771978D01*
X135821714Y-109800550D01*
X135878857Y-109857692D01*
X135907428Y-109943407D01*
X135907428Y-110000550D01*
X135878857Y-110086264D01*
X135850285Y-110114835D01*
X135650285Y-110114835D01*
X135650285Y-110000550D01*
X137626735Y-102795428D02*
X137483878Y-103395428D01*
X137369592Y-102966857D01*
X137255307Y-103395428D01*
X137112450Y-102795428D01*
X136883878Y-103395428D02*
X136883878Y-102795428D01*
X136883878Y-103081142D02*
X136541021Y-103081142D01*
X136541021Y-103395428D02*
X136541021Y-102795428D01*
X136341021Y-102795428D02*
X135998164Y-102795428D01*
X136169592Y-103395428D02*
X136169592Y-102795428D01*
X135369592Y-102766857D02*
X135883878Y-103538285D01*
X134855307Y-102824000D02*
X134912450Y-102795428D01*
X134998164Y-102795428D01*
X135083878Y-102824000D01*
X135141021Y-102881142D01*
X135169592Y-102938285D01*
X135198164Y-103052571D01*
X135198164Y-103138285D01*
X135169592Y-103252571D01*
X135141021Y-103309714D01*
X135083878Y-103366857D01*
X134998164Y-103395428D01*
X134941021Y-103395428D01*
X134855307Y-103366857D01*
X134826735Y-103338285D01*
X134826735Y-103138285D01*
X134941021Y-103138285D01*
X134226735Y-103395428D02*
X134426735Y-103109714D01*
X134569592Y-103395428D02*
X134569592Y-102795428D01*
X134341021Y-102795428D01*
X134283878Y-102824000D01*
X134255307Y-102852571D01*
X134226735Y-102909714D01*
X134226735Y-102995428D01*
X134255307Y-103052571D01*
X134283878Y-103081142D01*
X134341021Y-103109714D01*
X134569592Y-103109714D01*
X133969592Y-103395428D02*
X133969592Y-102795428D01*
X133626735Y-103395428D01*
X133626735Y-102795428D01*
X137255307Y-101808000D02*
X137312450Y-101779428D01*
X137398164Y-101779428D01*
X137483878Y-101808000D01*
X137541021Y-101865142D01*
X137569592Y-101922285D01*
X137598164Y-102036571D01*
X137598164Y-102122285D01*
X137569592Y-102236571D01*
X137541021Y-102293714D01*
X137483878Y-102350857D01*
X137398164Y-102379428D01*
X137341021Y-102379428D01*
X137255307Y-102350857D01*
X137226735Y-102322285D01*
X137226735Y-102122285D01*
X137341021Y-102122285D01*
X136626735Y-102379428D02*
X136826735Y-102093714D01*
X136969592Y-102379428D02*
X136969592Y-101779428D01*
X136741021Y-101779428D01*
X136683878Y-101808000D01*
X136655307Y-101836571D01*
X136626735Y-101893714D01*
X136626735Y-101979428D01*
X136655307Y-102036571D01*
X136683878Y-102065142D01*
X136741021Y-102093714D01*
X136969592Y-102093714D01*
X136369592Y-102379428D02*
X136369592Y-101779428D01*
X136026735Y-102379428D01*
X136026735Y-101779428D01*
X137369592Y-101049142D02*
X137283878Y-101077714D01*
X137255307Y-101106285D01*
X137226735Y-101163428D01*
X137226735Y-101249142D01*
X137255307Y-101306285D01*
X137283878Y-101334857D01*
X137341021Y-101363428D01*
X137569592Y-101363428D01*
X137569592Y-100763428D01*
X137369592Y-100763428D01*
X137312450Y-100792000D01*
X137283878Y-100820571D01*
X137255307Y-100877714D01*
X137255307Y-100934857D01*
X137283878Y-100992000D01*
X137312450Y-101020571D01*
X137369592Y-101049142D01*
X137569592Y-101049142D01*
X136683878Y-101363428D02*
X136969592Y-101363428D01*
X136969592Y-100763428D01*
X136483878Y-100763428D02*
X136483878Y-101249142D01*
X136455307Y-101306285D01*
X136426735Y-101334857D01*
X136369592Y-101363428D01*
X136255307Y-101363428D01*
X136198164Y-101334857D01*
X136169592Y-101306285D01*
X136141021Y-101249142D01*
X136141021Y-100763428D01*
X137626735Y-99747428D02*
X137483878Y-100347428D01*
X137369592Y-99918857D01*
X137255307Y-100347428D01*
X137112450Y-99747428D01*
X136883878Y-100347428D02*
X136883878Y-99747428D01*
X136883878Y-100033142D02*
X136541021Y-100033142D01*
X136541021Y-100347428D02*
X136541021Y-99747428D01*
X136341021Y-99747428D02*
X135998164Y-99747428D01*
X136169592Y-100347428D02*
X136169592Y-99747428D01*
X135369592Y-99718857D02*
X135883878Y-100490285D01*
X134969592Y-100033142D02*
X134883878Y-100061714D01*
X134855307Y-100090285D01*
X134826735Y-100147428D01*
X134826735Y-100233142D01*
X134855307Y-100290285D01*
X134883878Y-100318857D01*
X134941021Y-100347428D01*
X135169592Y-100347428D01*
X135169592Y-99747428D01*
X134969592Y-99747428D01*
X134912450Y-99776000D01*
X134883878Y-99804571D01*
X134855307Y-99861714D01*
X134855307Y-99918857D01*
X134883878Y-99976000D01*
X134912450Y-100004571D01*
X134969592Y-100033142D01*
X135169592Y-100033142D01*
X134283878Y-100347428D02*
X134569592Y-100347428D01*
X134569592Y-99747428D01*
X134083878Y-99747428D02*
X134083878Y-100233142D01*
X134055307Y-100290285D01*
X134026735Y-100318857D01*
X133969592Y-100347428D01*
X133855307Y-100347428D01*
X133798164Y-100318857D01*
X133769592Y-100290285D01*
X133741021Y-100233142D01*
X133741021Y-99747428D01*
X135593142Y-95713735D02*
X135621714Y-95799450D01*
X135650285Y-95828021D01*
X135707428Y-95856592D01*
X135793142Y-95856592D01*
X135850285Y-95828021D01*
X135878857Y-95799450D01*
X135907428Y-95742307D01*
X135907428Y-95513735D01*
X135307428Y-95513735D01*
X135307428Y-95713735D01*
X135336000Y-95770878D01*
X135364571Y-95799450D01*
X135421714Y-95828021D01*
X135478857Y-95828021D01*
X135536000Y-95799450D01*
X135564571Y-95770878D01*
X135593142Y-95713735D01*
X135593142Y-95513735D01*
X135907428Y-96456592D02*
X135621714Y-96256592D01*
X135907428Y-96113735D02*
X135307428Y-96113735D01*
X135307428Y-96342307D01*
X135336000Y-96399450D01*
X135364571Y-96428021D01*
X135421714Y-96456592D01*
X135507428Y-96456592D01*
X135564571Y-96428021D01*
X135593142Y-96399450D01*
X135621714Y-96342307D01*
X135621714Y-96113735D01*
X135907428Y-96713735D02*
X135307428Y-96713735D01*
X135907428Y-97056592D01*
X135307428Y-97056592D01*
X136831428Y-93056592D02*
X137431428Y-93199450D01*
X137002857Y-93313735D01*
X137431428Y-93428021D01*
X136831428Y-93570878D01*
X137431428Y-93799450D02*
X136831428Y-93799450D01*
X137117142Y-93799450D02*
X137117142Y-94142307D01*
X137431428Y-94142307D02*
X136831428Y-94142307D01*
X136831428Y-94342307D02*
X136831428Y-94685164D01*
X137431428Y-94513735D02*
X136831428Y-94513735D01*
X136802857Y-95313735D02*
X137574285Y-94799450D01*
X137117142Y-95713735D02*
X137145714Y-95799450D01*
X137174285Y-95828021D01*
X137231428Y-95856592D01*
X137317142Y-95856592D01*
X137374285Y-95828021D01*
X137402857Y-95799450D01*
X137431428Y-95742307D01*
X137431428Y-95513735D01*
X136831428Y-95513735D01*
X136831428Y-95713735D01*
X136860000Y-95770878D01*
X136888571Y-95799450D01*
X136945714Y-95828021D01*
X137002857Y-95828021D01*
X137060000Y-95799450D01*
X137088571Y-95770878D01*
X137117142Y-95713735D01*
X137117142Y-95513735D01*
X137431428Y-96456592D02*
X137145714Y-96256592D01*
X137431428Y-96113735D02*
X136831428Y-96113735D01*
X136831428Y-96342307D01*
X136860000Y-96399450D01*
X136888571Y-96428021D01*
X136945714Y-96456592D01*
X137031428Y-96456592D01*
X137088571Y-96428021D01*
X137117142Y-96399450D01*
X137145714Y-96342307D01*
X137145714Y-96113735D01*
X137431428Y-96713735D02*
X136831428Y-96713735D01*
X137431428Y-97056592D01*
X136831428Y-97056592D01*
D11*
X154042476Y-93416380D02*
X154375809Y-92940190D01*
X154613904Y-93416380D02*
X154613904Y-92416380D01*
X154232952Y-92416380D01*
X154137714Y-92464000D01*
X154090095Y-92511619D01*
X154042476Y-92606857D01*
X154042476Y-92749714D01*
X154090095Y-92844952D01*
X154137714Y-92892571D01*
X154232952Y-92940190D01*
X154613904Y-92940190D01*
X153328190Y-92416380D02*
X153328190Y-93130666D01*
X153375809Y-93273523D01*
X153471047Y-93368761D01*
X153613904Y-93416380D01*
X153709142Y-93416380D01*
X152423428Y-92749714D02*
X152423428Y-93416380D01*
X152661523Y-92368761D02*
X152899619Y-93083047D01*
X152280571Y-93083047D01*
X151423428Y-92416380D02*
X151899619Y-92416380D01*
X151947238Y-92892571D01*
X151899619Y-92844952D01*
X151804380Y-92797333D01*
X151566285Y-92797333D01*
X151471047Y-92844952D01*
X151423428Y-92892571D01*
X151375809Y-92987809D01*
X151375809Y-93225904D01*
X151423428Y-93321142D01*
X151471047Y-93368761D01*
X151566285Y-93416380D01*
X151804380Y-93416380D01*
X151899619Y-93368761D01*
X151947238Y-93321142D01*
X149852000Y-92892571D02*
X149709142Y-92940190D01*
X149661523Y-92987809D01*
X149613904Y-93083047D01*
X149613904Y-93225904D01*
X149661523Y-93321142D01*
X149709142Y-93368761D01*
X149804380Y-93416380D01*
X150185333Y-93416380D01*
X150185333Y-92416380D01*
X149852000Y-92416380D01*
X149756761Y-92464000D01*
X149709142Y-92511619D01*
X149661523Y-92606857D01*
X149661523Y-92702095D01*
X149709142Y-92797333D01*
X149756761Y-92844952D01*
X149852000Y-92892571D01*
X150185333Y-92892571D01*
X149185333Y-93416380D02*
X149185333Y-92749714D01*
X149185333Y-92940190D02*
X149137714Y-92844952D01*
X149090095Y-92797333D01*
X148994857Y-92749714D01*
X148899619Y-92749714D01*
X148185333Y-93368761D02*
X148280571Y-93416380D01*
X148471047Y-93416380D01*
X148566285Y-93368761D01*
X148613904Y-93273523D01*
X148613904Y-92892571D01*
X148566285Y-92797333D01*
X148471047Y-92749714D01*
X148280571Y-92749714D01*
X148185333Y-92797333D01*
X148137714Y-92892571D01*
X148137714Y-92987809D01*
X148613904Y-93083047D01*
X147280571Y-93416380D02*
X147280571Y-92892571D01*
X147328190Y-92797333D01*
X147423428Y-92749714D01*
X147613904Y-92749714D01*
X147709142Y-92797333D01*
X147280571Y-93368761D02*
X147375809Y-93416380D01*
X147613904Y-93416380D01*
X147709142Y-93368761D01*
X147756761Y-93273523D01*
X147756761Y-93178285D01*
X147709142Y-93083047D01*
X147613904Y-93035428D01*
X147375809Y-93035428D01*
X147280571Y-92987809D01*
X146804380Y-93416380D02*
X146804380Y-92416380D01*
X146709142Y-93035428D02*
X146423428Y-93416380D01*
X146423428Y-92749714D02*
X146804380Y-93130666D01*
X145852000Y-93416380D02*
X145947238Y-93368761D01*
X145994857Y-93321142D01*
X146042476Y-93225904D01*
X146042476Y-92940190D01*
X145994857Y-92844952D01*
X145947238Y-92797333D01*
X145852000Y-92749714D01*
X145709142Y-92749714D01*
X145613904Y-92797333D01*
X145566285Y-92844952D01*
X145518666Y-92940190D01*
X145518666Y-93225904D01*
X145566285Y-93321142D01*
X145613904Y-93368761D01*
X145709142Y-93416380D01*
X145852000Y-93416380D01*
X144661523Y-92749714D02*
X144661523Y-93416380D01*
X145090095Y-92749714D02*
X145090095Y-93273523D01*
X145042476Y-93368761D01*
X144947238Y-93416380D01*
X144804380Y-93416380D01*
X144709142Y-93368761D01*
X144661523Y-93321142D01*
X144328190Y-92749714D02*
X143947238Y-92749714D01*
X144185333Y-92416380D02*
X144185333Y-93273523D01*
X144137714Y-93368761D01*
X144042476Y-93416380D01*
X143947238Y-93416380D01*
X154288857Y-101385714D02*
X154050761Y-102052380D01*
X153812666Y-101385714D01*
X152907904Y-102052380D02*
X153479333Y-102052380D01*
X153193619Y-102052380D02*
X153193619Y-101052380D01*
X153288857Y-101195238D01*
X153384095Y-101290476D01*
X153479333Y-101338095D01*
X152479333Y-101957142D02*
X152431714Y-102004761D01*
X152479333Y-102052380D01*
X152526952Y-102004761D01*
X152479333Y-101957142D01*
X152479333Y-102052380D01*
X151812666Y-101052380D02*
X151717428Y-101052380D01*
X151622190Y-101100000D01*
X151574571Y-101147619D01*
X151526952Y-101242857D01*
X151479333Y-101433333D01*
X151479333Y-101671428D01*
X151526952Y-101861904D01*
X151574571Y-101957142D01*
X151622190Y-102004761D01*
X151717428Y-102052380D01*
X151812666Y-102052380D01*
X151907904Y-102004761D01*
X151955523Y-101957142D01*
X152003142Y-101861904D01*
X152050761Y-101671428D01*
X152050761Y-101433333D01*
X152003142Y-101242857D01*
X151955523Y-101147619D01*
X151907904Y-101100000D01*
X151812666Y-101052380D01*
X151050761Y-101957142D02*
X151003142Y-102004761D01*
X151050761Y-102052380D01*
X151098380Y-102004761D01*
X151050761Y-101957142D01*
X151050761Y-102052380D01*
X150384095Y-101052380D02*
X150288857Y-101052380D01*
X150193619Y-101100000D01*
X150146000Y-101147619D01*
X150098380Y-101242857D01*
X150050761Y-101433333D01*
X150050761Y-101671428D01*
X150098380Y-101861904D01*
X150146000Y-101957142D01*
X150193619Y-102004761D01*
X150288857Y-102052380D01*
X150384095Y-102052380D01*
X150479333Y-102004761D01*
X150526952Y-101957142D01*
X150574571Y-101861904D01*
X150622190Y-101671428D01*
X150622190Y-101433333D01*
X150574571Y-101242857D01*
X150526952Y-101147619D01*
X150479333Y-101100000D01*
X150384095Y-101052380D01*
X154202571Y-110597904D02*
X154202571Y-109797904D01*
X154202571Y-110559809D02*
X154278761Y-110597904D01*
X154431142Y-110597904D01*
X154507333Y-110559809D01*
X154545428Y-110521714D01*
X154583523Y-110445523D01*
X154583523Y-110216952D01*
X154545428Y-110140761D01*
X154507333Y-110102666D01*
X154431142Y-110064571D01*
X154278761Y-110064571D01*
X154202571Y-110102666D01*
X153478761Y-110559809D02*
X153554952Y-110597904D01*
X153707333Y-110597904D01*
X153783523Y-110559809D01*
X153821619Y-110521714D01*
X153859714Y-110445523D01*
X153859714Y-110216952D01*
X153821619Y-110140761D01*
X153783523Y-110102666D01*
X153707333Y-110064571D01*
X153554952Y-110064571D01*
X153478761Y-110102666D01*
X153174000Y-110559809D02*
X153097809Y-110597904D01*
X152945428Y-110597904D01*
X152869238Y-110559809D01*
X152831142Y-110483619D01*
X152831142Y-110445523D01*
X152869238Y-110369333D01*
X152945428Y-110331238D01*
X153059714Y-110331238D01*
X153135904Y-110293142D01*
X153174000Y-110216952D01*
X153174000Y-110178857D01*
X153135904Y-110102666D01*
X153059714Y-110064571D01*
X152945428Y-110064571D01*
X152869238Y-110102666D01*
X152145428Y-110064571D02*
X152145428Y-110597904D01*
X152488285Y-110064571D02*
X152488285Y-110483619D01*
X152450190Y-110559809D01*
X152374000Y-110597904D01*
X152259714Y-110597904D01*
X152183523Y-110559809D01*
X152145428Y-110521714D01*
X151764476Y-110064571D02*
X151764476Y-110597904D01*
X151764476Y-110140761D02*
X151726380Y-110102666D01*
X151650190Y-110064571D01*
X151535904Y-110064571D01*
X151459714Y-110102666D01*
X151421619Y-110178857D01*
X151421619Y-110597904D01*
X150926380Y-110140761D02*
X151002571Y-110102666D01*
X151040666Y-110064571D01*
X151078761Y-109988380D01*
X151078761Y-109950285D01*
X151040666Y-109874095D01*
X151002571Y-109836000D01*
X150926380Y-109797904D01*
X150774000Y-109797904D01*
X150697809Y-109836000D01*
X150659714Y-109874095D01*
X150621619Y-109950285D01*
X150621619Y-109988380D01*
X150659714Y-110064571D01*
X150697809Y-110102666D01*
X150774000Y-110140761D01*
X150926380Y-110140761D01*
X151002571Y-110178857D01*
X151040666Y-110216952D01*
X151078761Y-110293142D01*
X151078761Y-110445523D01*
X151040666Y-110521714D01*
X151002571Y-110559809D01*
X150926380Y-110597904D01*
X150774000Y-110597904D01*
X150697809Y-110559809D01*
X150659714Y-110521714D01*
X150621619Y-110445523D01*
X150621619Y-110293142D01*
X150659714Y-110216952D01*
X150697809Y-110178857D01*
X150774000Y-110140761D01*
X150164476Y-110140761D02*
X150240666Y-110102666D01*
X150278761Y-110064571D01*
X150316857Y-109988380D01*
X150316857Y-109950285D01*
X150278761Y-109874095D01*
X150240666Y-109836000D01*
X150164476Y-109797904D01*
X150012095Y-109797904D01*
X149935904Y-109836000D01*
X149897809Y-109874095D01*
X149859714Y-109950285D01*
X149859714Y-109988380D01*
X149897809Y-110064571D01*
X149935904Y-110102666D01*
X150012095Y-110140761D01*
X150164476Y-110140761D01*
X150240666Y-110178857D01*
X150278761Y-110216952D01*
X150316857Y-110293142D01*
X150316857Y-110445523D01*
X150278761Y-110521714D01*
X150240666Y-110559809D01*
X150164476Y-110597904D01*
X150012095Y-110597904D01*
X149935904Y-110559809D01*
X149897809Y-110521714D01*
X149859714Y-110445523D01*
X149859714Y-110293142D01*
X149897809Y-110216952D01*
X149935904Y-110178857D01*
X150012095Y-110140761D01*
X149402571Y-110597904D02*
X149478761Y-110559809D01*
X149516857Y-110521714D01*
X149554952Y-110445523D01*
X149554952Y-110216952D01*
X149516857Y-110140761D01*
X149478761Y-110102666D01*
X149402571Y-110064571D01*
X149288285Y-110064571D01*
X149212095Y-110102666D01*
X149174000Y-110140761D01*
X149135904Y-110216952D01*
X149135904Y-110445523D01*
X149174000Y-110521714D01*
X149212095Y-110559809D01*
X149288285Y-110597904D01*
X149402571Y-110597904D01*
X148831142Y-110559809D02*
X148754952Y-110597904D01*
X148602571Y-110597904D01*
X148526380Y-110559809D01*
X148488285Y-110483619D01*
X148488285Y-110445523D01*
X148526380Y-110369333D01*
X148602571Y-110331238D01*
X148716857Y-110331238D01*
X148793047Y-110293142D01*
X148831142Y-110216952D01*
X148831142Y-110178857D01*
X148793047Y-110102666D01*
X148716857Y-110064571D01*
X148602571Y-110064571D01*
X148526380Y-110102666D01*
X148145428Y-110597904D02*
X148145428Y-109797904D01*
X147802571Y-110597904D02*
X147802571Y-110178857D01*
X147840666Y-110102666D01*
X147916857Y-110064571D01*
X148031142Y-110064571D01*
X148107333Y-110102666D01*
X148145428Y-110140761D01*
X146926380Y-110216952D02*
X146964476Y-110178857D01*
X147040666Y-110140761D01*
X147116857Y-110140761D01*
X147193047Y-110178857D01*
X147231142Y-110216952D01*
X147269238Y-110293142D01*
X147269238Y-110369333D01*
X147231142Y-110445523D01*
X147193047Y-110483619D01*
X147116857Y-110521714D01*
X147040666Y-110521714D01*
X146964476Y-110483619D01*
X146926380Y-110445523D01*
X146926380Y-110140761D02*
X146926380Y-110445523D01*
X146888285Y-110483619D01*
X146850190Y-110483619D01*
X146774000Y-110445523D01*
X146735904Y-110369333D01*
X146735904Y-110178857D01*
X146812095Y-110064571D01*
X146926380Y-109988380D01*
X147078761Y-109950285D01*
X147231142Y-109988380D01*
X147345428Y-110064571D01*
X147421619Y-110178857D01*
X147459714Y-110331238D01*
X147421619Y-110483619D01*
X147345428Y-110597904D01*
X147231142Y-110674095D01*
X147078761Y-110712190D01*
X146926380Y-110674095D01*
X146812095Y-110597904D01*
X146050190Y-110064571D02*
X146050190Y-110712190D01*
X146088285Y-110788380D01*
X146126380Y-110826476D01*
X146202571Y-110864571D01*
X146316857Y-110864571D01*
X146393047Y-110826476D01*
X146050190Y-110559809D02*
X146126380Y-110597904D01*
X146278761Y-110597904D01*
X146354952Y-110559809D01*
X146393047Y-110521714D01*
X146431142Y-110445523D01*
X146431142Y-110216952D01*
X146393047Y-110140761D01*
X146354952Y-110102666D01*
X146278761Y-110064571D01*
X146126380Y-110064571D01*
X146050190Y-110102666D01*
X145669238Y-110597904D02*
X145669238Y-110064571D01*
X145669238Y-110140761D02*
X145631142Y-110102666D01*
X145554952Y-110064571D01*
X145440666Y-110064571D01*
X145364476Y-110102666D01*
X145326380Y-110178857D01*
X145326380Y-110597904D01*
X145326380Y-110178857D02*
X145288285Y-110102666D01*
X145212095Y-110064571D01*
X145097809Y-110064571D01*
X145021619Y-110102666D01*
X144983523Y-110178857D01*
X144983523Y-110597904D01*
X144259714Y-110597904D02*
X144259714Y-110178857D01*
X144297809Y-110102666D01*
X144374000Y-110064571D01*
X144526380Y-110064571D01*
X144602571Y-110102666D01*
X144259714Y-110559809D02*
X144335904Y-110597904D01*
X144526380Y-110597904D01*
X144602571Y-110559809D01*
X144640666Y-110483619D01*
X144640666Y-110407428D01*
X144602571Y-110331238D01*
X144526380Y-110293142D01*
X144335904Y-110293142D01*
X144259714Y-110255047D01*
X143878761Y-110597904D02*
X143878761Y-110064571D01*
X143878761Y-109797904D02*
X143916857Y-109836000D01*
X143878761Y-109874095D01*
X143840666Y-109836000D01*
X143878761Y-109797904D01*
X143878761Y-109874095D01*
X143383523Y-110597904D02*
X143459714Y-110559809D01*
X143497809Y-110483619D01*
X143497809Y-109797904D01*
X143078761Y-110521714D02*
X143040666Y-110559809D01*
X143078761Y-110597904D01*
X143116857Y-110559809D01*
X143078761Y-110521714D01*
X143078761Y-110597904D01*
X142354952Y-110559809D02*
X142431142Y-110597904D01*
X142583523Y-110597904D01*
X142659714Y-110559809D01*
X142697809Y-110521714D01*
X142735904Y-110445523D01*
X142735904Y-110216952D01*
X142697809Y-110140761D01*
X142659714Y-110102666D01*
X142583523Y-110064571D01*
X142431142Y-110064571D01*
X142354952Y-110102666D01*
X141897809Y-110597904D02*
X141974000Y-110559809D01*
X142012095Y-110521714D01*
X142050190Y-110445523D01*
X142050190Y-110216952D01*
X142012095Y-110140761D01*
X141974000Y-110102666D01*
X141897809Y-110064571D01*
X141783523Y-110064571D01*
X141707333Y-110102666D01*
X141669238Y-110140761D01*
X141631142Y-110216952D01*
X141631142Y-110445523D01*
X141669238Y-110521714D01*
X141707333Y-110559809D01*
X141783523Y-110597904D01*
X141897809Y-110597904D01*
X141288285Y-110597904D02*
X141288285Y-110064571D01*
X141288285Y-110140761D02*
X141250190Y-110102666D01*
X141174000Y-110064571D01*
X141059714Y-110064571D01*
X140983523Y-110102666D01*
X140945428Y-110178857D01*
X140945428Y-110597904D01*
X140945428Y-110178857D02*
X140907333Y-110102666D01*
X140831142Y-110064571D01*
X140716857Y-110064571D01*
X140640666Y-110102666D01*
X140602571Y-110178857D01*
X140602571Y-110597904D01*
X138303000Y-94488000D02*
X138303000Y-94742000D01*
X138557000Y-93980000D02*
X138049000Y-93980000D01*
X138557000Y-94488000D02*
X138049000Y-94488000D01*
X138303000Y-93980000D02*
X138557000Y-94488000D01*
X138303000Y-93980000D02*
X138303000Y-93726000D01*
X138049000Y-94488000D02*
X138303000Y-93980000D01*
X138557000Y-108712000D02*
X138049000Y-108712000D01*
X138303000Y-109220000D02*
X138303000Y-109474000D01*
X138557000Y-109220000D02*
X138049000Y-109220000D01*
X138049000Y-109220000D02*
X138303000Y-108712000D01*
X138303000Y-108712000D02*
X138303000Y-108458000D01*
X138303000Y-108712000D02*
X138557000Y-109220000D01*
D10*
X135947142Y-98988571D02*
X136004285Y-98960000D01*
X136032857Y-98931428D01*
X136061428Y-98874285D01*
X136061428Y-98845714D01*
X136032857Y-98788571D01*
X136004285Y-98760000D01*
X135947142Y-98731428D01*
X135832857Y-98731428D01*
X135775714Y-98760000D01*
X135747142Y-98788571D01*
X135718571Y-98845714D01*
X135718571Y-98874285D01*
X135747142Y-98931428D01*
X135775714Y-98960000D01*
X135832857Y-98988571D01*
X135947142Y-98988571D01*
X136004285Y-99017142D01*
X136032857Y-99045714D01*
X136061428Y-99102857D01*
X136061428Y-99217142D01*
X136032857Y-99274285D01*
X136004285Y-99302857D01*
X135947142Y-99331428D01*
X135832857Y-99331428D01*
X135775714Y-99302857D01*
X135747142Y-99274285D01*
X135718571Y-99217142D01*
X135718571Y-99102857D01*
X135747142Y-99045714D01*
X135775714Y-99017142D01*
X135832857Y-98988571D01*
X137360000Y-98731428D02*
X136960000Y-98731428D01*
X137217142Y-99331428D01*
X138160142Y-99493428D02*
X138445857Y-99493428D01*
X138474428Y-99779142D01*
X138445857Y-99750571D01*
X138388714Y-99722000D01*
X138245857Y-99722000D01*
X138188714Y-99750571D01*
X138160142Y-99779142D01*
X138131571Y-99836285D01*
X138131571Y-99979142D01*
X138160142Y-100036285D01*
X138188714Y-100064857D01*
X138245857Y-100093428D01*
X138388714Y-100093428D01*
X138445857Y-100064857D01*
X138474428Y-100036285D01*
X138188714Y-100963428D02*
X138188714Y-101363428D01*
X138331571Y-100734857D02*
X138474428Y-101163428D01*
X138103000Y-101163428D01*
X138188714Y-101779428D02*
X138303000Y-101779428D01*
X138360142Y-101808000D01*
X138388714Y-101836571D01*
X138445857Y-101922285D01*
X138474428Y-102036571D01*
X138474428Y-102265142D01*
X138445857Y-102322285D01*
X138417285Y-102350857D01*
X138360142Y-102379428D01*
X138245857Y-102379428D01*
X138188714Y-102350857D01*
X138160142Y-102322285D01*
X138131571Y-102265142D01*
X138131571Y-102122285D01*
X138160142Y-102065142D01*
X138188714Y-102036571D01*
X138245857Y-102008000D01*
X138360142Y-102008000D01*
X138417285Y-102036571D01*
X138445857Y-102065142D01*
X138474428Y-102122285D01*
X138503000Y-103303428D02*
X138131571Y-103303428D01*
X138331571Y-103532000D01*
X138245857Y-103532000D01*
X138188714Y-103560571D01*
X138160142Y-103589142D01*
X138131571Y-103646285D01*
X138131571Y-103789142D01*
X138160142Y-103846285D01*
X138188714Y-103874857D01*
X138245857Y-103903428D01*
X138417285Y-103903428D01*
X138474428Y-103874857D01*
X138503000Y-103846285D01*
X137331428Y-103868571D02*
X137302857Y-103840000D01*
X137245714Y-103811428D01*
X137102857Y-103811428D01*
X137045714Y-103840000D01*
X137017142Y-103868571D01*
X136988571Y-103925714D01*
X136988571Y-103982857D01*
X137017142Y-104068571D01*
X137360000Y-104411428D01*
X136988571Y-104411428D01*
X135718571Y-104411428D02*
X136061428Y-104411428D01*
X135890000Y-104411428D02*
X135890000Y-103811428D01*
X135947142Y-103897142D01*
X136004285Y-103954285D01*
X136061428Y-103982857D01*
D11*
X147788380Y-100314285D02*
X148502666Y-100314285D01*
X148645523Y-100266666D01*
X148740761Y-100171428D01*
X148788380Y-100028571D01*
X148788380Y-99933333D01*
X148788380Y-101314285D02*
X148788380Y-100742857D01*
X148788380Y-101028571D02*
X147788380Y-101028571D01*
X147931238Y-100933333D01*
X148026476Y-100838095D01*
X148074095Y-100742857D01*
X147788380Y-101933333D02*
X147788380Y-102028571D01*
X147836000Y-102123809D01*
X147883619Y-102171428D01*
X147978857Y-102219047D01*
X148169333Y-102266666D01*
X148407428Y-102266666D01*
X148597904Y-102219047D01*
X148693142Y-102171428D01*
X148740761Y-102123809D01*
X148788380Y-102028571D01*
X148788380Y-101933333D01*
X148740761Y-101838095D01*
X148693142Y-101790476D01*
X148597904Y-101742857D01*
X148407428Y-101695238D01*
X148169333Y-101695238D01*
X147978857Y-101742857D01*
X147883619Y-101790476D01*
X147836000Y-101838095D01*
X147788380Y-101933333D01*
X148788380Y-103219047D02*
X148788380Y-102647619D01*
X148788380Y-102933333D02*
X147788380Y-102933333D01*
X147931238Y-102838095D01*
X148026476Y-102742857D01*
X148074095Y-102647619D01*
%LPC*%
D12*
X134620000Y-104140000D03*
X134620000Y-99060000D03*
X134620000Y-101600000D03*
D13*
X132080000Y-107950000D03*
X132080000Y-95250000D03*
D14*
X144250000Y-106040000D03*
X141710000Y-104770000D03*
X144250000Y-103500000D03*
X141710000Y-102230000D03*
X144250000Y-100960000D03*
X141710000Y-99690000D03*
X144250000Y-98420000D03*
X141710000Y-97150000D03*
D15*
X152250000Y-106600000D03*
X152250000Y-96600000D03*
D14*
X148250000Y-108130000D03*
X148250000Y-105590000D03*
X148250000Y-97610000D03*
X148250000Y-95070000D03*
D16*
X129540000Y-101600000D03*
D12*
X136144000Y-98044000D03*
X137668000Y-98044000D03*
X139192000Y-99060000D03*
X139192000Y-100584000D03*
X139192000Y-102616000D03*
X139192000Y-104140000D03*
X137668000Y-105156000D03*
X136144000Y-105156000D03*
X139192000Y-109728000D03*
X139192000Y-108204000D03*
X139192000Y-94996000D03*
X139192000Y-93472000D03*
M02*
