G04 #@! TF.FileFunction,Legend,Bot*
%FSLAX46Y46*%
G04 Gerber Fmt 4.6, Leading zero omitted, Abs format (unit mm)*
G04 Created by KiCad (PCBNEW 4.0.7) date Sun Apr 29 11:23:18 2018*
%MOMM*%
%LPD*%
G01*
G04 APERTURE LIST*
%ADD10C,0.100000*%
%ADD11C,0.127000*%
%ADD12C,0.150000*%
%ADD13C,1.371600*%
%ADD14C,3.276600*%
%ADD15C,1.752600*%
%ADD16C,4.101600*%
%ADD17C,1.244600*%
G04 APERTURE END LIST*
D10*
D11*
X133400857Y-98760000D02*
X133458000Y-98731429D01*
X133543714Y-98731429D01*
X133629429Y-98760000D01*
X133686571Y-98817143D01*
X133715143Y-98874286D01*
X133743714Y-98988571D01*
X133743714Y-99074286D01*
X133715143Y-99188571D01*
X133686571Y-99245714D01*
X133629429Y-99302857D01*
X133543714Y-99331429D01*
X133486571Y-99331429D01*
X133400857Y-99302857D01*
X133372286Y-99274286D01*
X133372286Y-99074286D01*
X133486571Y-99074286D01*
X133115143Y-99331429D02*
X133115143Y-98731429D01*
X132772286Y-99331429D01*
X132772286Y-98731429D01*
X132486572Y-99331429D02*
X132486572Y-98731429D01*
X132343715Y-98731429D01*
X132258000Y-98760000D01*
X132200858Y-98817143D01*
X132172286Y-98874286D01*
X132143715Y-98988571D01*
X132143715Y-99074286D01*
X132172286Y-99188571D01*
X132200858Y-99245714D01*
X132258000Y-99302857D01*
X132343715Y-99331429D01*
X132486572Y-99331429D01*
X133400857Y-101300000D02*
X133458000Y-101271429D01*
X133543714Y-101271429D01*
X133629429Y-101300000D01*
X133686571Y-101357143D01*
X133715143Y-101414286D01*
X133743714Y-101528571D01*
X133743714Y-101614286D01*
X133715143Y-101728571D01*
X133686571Y-101785714D01*
X133629429Y-101842857D01*
X133543714Y-101871429D01*
X133486571Y-101871429D01*
X133400857Y-101842857D01*
X133372286Y-101814286D01*
X133372286Y-101614286D01*
X133486571Y-101614286D01*
X133115143Y-101871429D02*
X133115143Y-101271429D01*
X132772286Y-101871429D01*
X132772286Y-101271429D01*
X132486572Y-101871429D02*
X132486572Y-101271429D01*
X132343715Y-101271429D01*
X132258000Y-101300000D01*
X132200858Y-101357143D01*
X132172286Y-101414286D01*
X132143715Y-101528571D01*
X132143715Y-101614286D01*
X132172286Y-101728571D01*
X132200858Y-101785714D01*
X132258000Y-101842857D01*
X132343715Y-101871429D01*
X132486572Y-101871429D01*
X133400857Y-103840000D02*
X133458000Y-103811429D01*
X133543714Y-103811429D01*
X133629429Y-103840000D01*
X133686571Y-103897143D01*
X133715143Y-103954286D01*
X133743714Y-104068571D01*
X133743714Y-104154286D01*
X133715143Y-104268571D01*
X133686571Y-104325714D01*
X133629429Y-104382857D01*
X133543714Y-104411429D01*
X133486571Y-104411429D01*
X133400857Y-104382857D01*
X133372286Y-104354286D01*
X133372286Y-104154286D01*
X133486571Y-104154286D01*
X133115143Y-104411429D02*
X133115143Y-103811429D01*
X132772286Y-104411429D01*
X132772286Y-103811429D01*
X132486572Y-104411429D02*
X132486572Y-103811429D01*
X132343715Y-103811429D01*
X132258000Y-103840000D01*
X132200858Y-103897143D01*
X132172286Y-103954286D01*
X132143715Y-104068571D01*
X132143715Y-104154286D01*
X132172286Y-104268571D01*
X132200858Y-104325714D01*
X132258000Y-104382857D01*
X132343715Y-104411429D01*
X132486572Y-104411429D01*
X136831429Y-106175143D02*
X136831429Y-106289429D01*
X136860000Y-106346571D01*
X136917143Y-106403714D01*
X137031429Y-106432286D01*
X137231429Y-106432286D01*
X137345714Y-106403714D01*
X137402857Y-106346571D01*
X137431429Y-106289429D01*
X137431429Y-106175143D01*
X137402857Y-106118000D01*
X137345714Y-106060857D01*
X137231429Y-106032286D01*
X137031429Y-106032286D01*
X136917143Y-106060857D01*
X136860000Y-106118000D01*
X136831429Y-106175143D01*
X137431429Y-107032285D02*
X137145714Y-106832285D01*
X137431429Y-106689428D02*
X136831429Y-106689428D01*
X136831429Y-106918000D01*
X136860000Y-106975142D01*
X136888571Y-107003714D01*
X136945714Y-107032285D01*
X137031429Y-107032285D01*
X137088571Y-107003714D01*
X137117143Y-106975142D01*
X137145714Y-106918000D01*
X137145714Y-106689428D01*
X136860000Y-107603714D02*
X136831429Y-107546571D01*
X136831429Y-107460857D01*
X136860000Y-107375142D01*
X136917143Y-107318000D01*
X136974286Y-107289428D01*
X137088571Y-107260857D01*
X137174286Y-107260857D01*
X137288571Y-107289428D01*
X137345714Y-107318000D01*
X137402857Y-107375142D01*
X137431429Y-107460857D01*
X137431429Y-107518000D01*
X137402857Y-107603714D01*
X137374286Y-107632285D01*
X137174286Y-107632285D01*
X137174286Y-107518000D01*
X135307429Y-106003714D02*
X135907429Y-106146571D01*
X135478857Y-106260857D01*
X135907429Y-106375143D01*
X135307429Y-106518000D01*
X135907429Y-106746571D02*
X135307429Y-106746571D01*
X135593143Y-106746571D02*
X135593143Y-107089428D01*
X135907429Y-107089428D02*
X135307429Y-107089428D01*
X135307429Y-107289428D02*
X135307429Y-107632285D01*
X135907429Y-107460856D02*
X135307429Y-107460856D01*
X135278857Y-108260857D02*
X136050286Y-107746571D01*
X135307429Y-108575142D02*
X135307429Y-108689428D01*
X135336000Y-108746570D01*
X135393143Y-108803713D01*
X135507429Y-108832285D01*
X135707429Y-108832285D01*
X135821714Y-108803713D01*
X135878857Y-108746570D01*
X135907429Y-108689428D01*
X135907429Y-108575142D01*
X135878857Y-108517999D01*
X135821714Y-108460856D01*
X135707429Y-108432285D01*
X135507429Y-108432285D01*
X135393143Y-108460856D01*
X135336000Y-108517999D01*
X135307429Y-108575142D01*
X135907429Y-109432284D02*
X135621714Y-109232284D01*
X135907429Y-109089427D02*
X135307429Y-109089427D01*
X135307429Y-109317999D01*
X135336000Y-109375141D01*
X135364571Y-109403713D01*
X135421714Y-109432284D01*
X135507429Y-109432284D01*
X135564571Y-109403713D01*
X135593143Y-109375141D01*
X135621714Y-109317999D01*
X135621714Y-109089427D01*
X135336000Y-110003713D02*
X135307429Y-109946570D01*
X135307429Y-109860856D01*
X135336000Y-109775141D01*
X135393143Y-109717999D01*
X135450286Y-109689427D01*
X135564571Y-109660856D01*
X135650286Y-109660856D01*
X135764571Y-109689427D01*
X135821714Y-109717999D01*
X135878857Y-109775141D01*
X135907429Y-109860856D01*
X135907429Y-109917999D01*
X135878857Y-110003713D01*
X135850286Y-110032284D01*
X135650286Y-110032284D01*
X135650286Y-109917999D01*
X137709286Y-102795429D02*
X137566429Y-103395429D01*
X137452143Y-102966857D01*
X137337857Y-103395429D01*
X137195000Y-102795429D01*
X136966429Y-103395429D02*
X136966429Y-102795429D01*
X136966429Y-103081143D02*
X136623572Y-103081143D01*
X136623572Y-103395429D02*
X136623572Y-102795429D01*
X136423572Y-102795429D02*
X136080715Y-102795429D01*
X136252144Y-103395429D02*
X136252144Y-102795429D01*
X135452143Y-102766857D02*
X135966429Y-103538286D01*
X134937858Y-102824000D02*
X134995001Y-102795429D01*
X135080715Y-102795429D01*
X135166430Y-102824000D01*
X135223572Y-102881143D01*
X135252144Y-102938286D01*
X135280715Y-103052571D01*
X135280715Y-103138286D01*
X135252144Y-103252571D01*
X135223572Y-103309714D01*
X135166430Y-103366857D01*
X135080715Y-103395429D01*
X135023572Y-103395429D01*
X134937858Y-103366857D01*
X134909287Y-103338286D01*
X134909287Y-103138286D01*
X135023572Y-103138286D01*
X134309287Y-103395429D02*
X134509287Y-103109714D01*
X134652144Y-103395429D02*
X134652144Y-102795429D01*
X134423572Y-102795429D01*
X134366430Y-102824000D01*
X134337858Y-102852571D01*
X134309287Y-102909714D01*
X134309287Y-102995429D01*
X134337858Y-103052571D01*
X134366430Y-103081143D01*
X134423572Y-103109714D01*
X134652144Y-103109714D01*
X134052144Y-103395429D02*
X134052144Y-102795429D01*
X133709287Y-103395429D01*
X133709287Y-102795429D01*
X137337857Y-101808000D02*
X137395000Y-101779429D01*
X137480714Y-101779429D01*
X137566429Y-101808000D01*
X137623571Y-101865143D01*
X137652143Y-101922286D01*
X137680714Y-102036571D01*
X137680714Y-102122286D01*
X137652143Y-102236571D01*
X137623571Y-102293714D01*
X137566429Y-102350857D01*
X137480714Y-102379429D01*
X137423571Y-102379429D01*
X137337857Y-102350857D01*
X137309286Y-102322286D01*
X137309286Y-102122286D01*
X137423571Y-102122286D01*
X136709286Y-102379429D02*
X136909286Y-102093714D01*
X137052143Y-102379429D02*
X137052143Y-101779429D01*
X136823571Y-101779429D01*
X136766429Y-101808000D01*
X136737857Y-101836571D01*
X136709286Y-101893714D01*
X136709286Y-101979429D01*
X136737857Y-102036571D01*
X136766429Y-102065143D01*
X136823571Y-102093714D01*
X137052143Y-102093714D01*
X136452143Y-102379429D02*
X136452143Y-101779429D01*
X136109286Y-102379429D01*
X136109286Y-101779429D01*
X137452143Y-101049143D02*
X137366429Y-101077714D01*
X137337857Y-101106286D01*
X137309286Y-101163429D01*
X137309286Y-101249143D01*
X137337857Y-101306286D01*
X137366429Y-101334857D01*
X137423571Y-101363429D01*
X137652143Y-101363429D01*
X137652143Y-100763429D01*
X137452143Y-100763429D01*
X137395000Y-100792000D01*
X137366429Y-100820571D01*
X137337857Y-100877714D01*
X137337857Y-100934857D01*
X137366429Y-100992000D01*
X137395000Y-101020571D01*
X137452143Y-101049143D01*
X137652143Y-101049143D01*
X136766429Y-101363429D02*
X137052143Y-101363429D01*
X137052143Y-100763429D01*
X136566429Y-100763429D02*
X136566429Y-101249143D01*
X136537857Y-101306286D01*
X136509286Y-101334857D01*
X136452143Y-101363429D01*
X136337857Y-101363429D01*
X136280715Y-101334857D01*
X136252143Y-101306286D01*
X136223572Y-101249143D01*
X136223572Y-100763429D01*
X137709286Y-99747429D02*
X137566429Y-100347429D01*
X137452143Y-99918857D01*
X137337857Y-100347429D01*
X137195000Y-99747429D01*
X136966429Y-100347429D02*
X136966429Y-99747429D01*
X136966429Y-100033143D02*
X136623572Y-100033143D01*
X136623572Y-100347429D02*
X136623572Y-99747429D01*
X136423572Y-99747429D02*
X136080715Y-99747429D01*
X136252144Y-100347429D02*
X136252144Y-99747429D01*
X135452143Y-99718857D02*
X135966429Y-100490286D01*
X135052144Y-100033143D02*
X134966430Y-100061714D01*
X134937858Y-100090286D01*
X134909287Y-100147429D01*
X134909287Y-100233143D01*
X134937858Y-100290286D01*
X134966430Y-100318857D01*
X135023572Y-100347429D01*
X135252144Y-100347429D01*
X135252144Y-99747429D01*
X135052144Y-99747429D01*
X134995001Y-99776000D01*
X134966430Y-99804571D01*
X134937858Y-99861714D01*
X134937858Y-99918857D01*
X134966430Y-99976000D01*
X134995001Y-100004571D01*
X135052144Y-100033143D01*
X135252144Y-100033143D01*
X134366430Y-100347429D02*
X134652144Y-100347429D01*
X134652144Y-99747429D01*
X134166430Y-99747429D02*
X134166430Y-100233143D01*
X134137858Y-100290286D01*
X134109287Y-100318857D01*
X134052144Y-100347429D01*
X133937858Y-100347429D01*
X133880716Y-100318857D01*
X133852144Y-100290286D01*
X133823573Y-100233143D01*
X133823573Y-99747429D01*
X135593143Y-95796286D02*
X135621714Y-95882000D01*
X135650286Y-95910572D01*
X135707429Y-95939143D01*
X135793143Y-95939143D01*
X135850286Y-95910572D01*
X135878857Y-95882000D01*
X135907429Y-95824858D01*
X135907429Y-95596286D01*
X135307429Y-95596286D01*
X135307429Y-95796286D01*
X135336000Y-95853429D01*
X135364571Y-95882000D01*
X135421714Y-95910572D01*
X135478857Y-95910572D01*
X135536000Y-95882000D01*
X135564571Y-95853429D01*
X135593143Y-95796286D01*
X135593143Y-95596286D01*
X135907429Y-96539143D02*
X135621714Y-96339143D01*
X135907429Y-96196286D02*
X135307429Y-96196286D01*
X135307429Y-96424858D01*
X135336000Y-96482000D01*
X135364571Y-96510572D01*
X135421714Y-96539143D01*
X135507429Y-96539143D01*
X135564571Y-96510572D01*
X135593143Y-96482000D01*
X135621714Y-96424858D01*
X135621714Y-96196286D01*
X135907429Y-96796286D02*
X135307429Y-96796286D01*
X135907429Y-97139143D01*
X135307429Y-97139143D01*
X136831429Y-93139144D02*
X137431429Y-93282001D01*
X137002857Y-93396287D01*
X137431429Y-93510573D01*
X136831429Y-93653430D01*
X137431429Y-93882001D02*
X136831429Y-93882001D01*
X137117143Y-93882001D02*
X137117143Y-94224858D01*
X137431429Y-94224858D02*
X136831429Y-94224858D01*
X136831429Y-94424858D02*
X136831429Y-94767715D01*
X137431429Y-94596286D02*
X136831429Y-94596286D01*
X136802857Y-95396287D02*
X137574286Y-94882001D01*
X137117143Y-95796286D02*
X137145714Y-95882000D01*
X137174286Y-95910572D01*
X137231429Y-95939143D01*
X137317143Y-95939143D01*
X137374286Y-95910572D01*
X137402857Y-95882000D01*
X137431429Y-95824858D01*
X137431429Y-95596286D01*
X136831429Y-95596286D01*
X136831429Y-95796286D01*
X136860000Y-95853429D01*
X136888571Y-95882000D01*
X136945714Y-95910572D01*
X137002857Y-95910572D01*
X137060000Y-95882000D01*
X137088571Y-95853429D01*
X137117143Y-95796286D01*
X137117143Y-95596286D01*
X137431429Y-96539143D02*
X137145714Y-96339143D01*
X137431429Y-96196286D02*
X136831429Y-96196286D01*
X136831429Y-96424858D01*
X136860000Y-96482000D01*
X136888571Y-96510572D01*
X136945714Y-96539143D01*
X137031429Y-96539143D01*
X137088571Y-96510572D01*
X137117143Y-96482000D01*
X137145714Y-96424858D01*
X137145714Y-96196286D01*
X137431429Y-96796286D02*
X136831429Y-96796286D01*
X137431429Y-97139143D01*
X136831429Y-97139143D01*
D12*
X154042477Y-93416381D02*
X154375811Y-92940190D01*
X154613906Y-93416381D02*
X154613906Y-92416381D01*
X154232953Y-92416381D01*
X154137715Y-92464000D01*
X154090096Y-92511619D01*
X154042477Y-92606857D01*
X154042477Y-92749714D01*
X154090096Y-92844952D01*
X154137715Y-92892571D01*
X154232953Y-92940190D01*
X154613906Y-92940190D01*
X153328191Y-92416381D02*
X153328191Y-93130667D01*
X153375811Y-93273524D01*
X153471049Y-93368762D01*
X153613906Y-93416381D01*
X153709144Y-93416381D01*
X152423429Y-92749714D02*
X152423429Y-93416381D01*
X152661525Y-92368762D02*
X152899620Y-93083048D01*
X152280572Y-93083048D01*
X151423429Y-92416381D02*
X151899620Y-92416381D01*
X151947239Y-92892571D01*
X151899620Y-92844952D01*
X151804382Y-92797333D01*
X151566286Y-92797333D01*
X151471048Y-92844952D01*
X151423429Y-92892571D01*
X151375810Y-92987810D01*
X151375810Y-93225905D01*
X151423429Y-93321143D01*
X151471048Y-93368762D01*
X151566286Y-93416381D01*
X151804382Y-93416381D01*
X151899620Y-93368762D01*
X151947239Y-93321143D01*
X149852000Y-92892571D02*
X149709143Y-92940190D01*
X149661524Y-92987810D01*
X149613905Y-93083048D01*
X149613905Y-93225905D01*
X149661524Y-93321143D01*
X149709143Y-93368762D01*
X149804381Y-93416381D01*
X150185334Y-93416381D01*
X150185334Y-92416381D01*
X149852000Y-92416381D01*
X149756762Y-92464000D01*
X149709143Y-92511619D01*
X149661524Y-92606857D01*
X149661524Y-92702095D01*
X149709143Y-92797333D01*
X149756762Y-92844952D01*
X149852000Y-92892571D01*
X150185334Y-92892571D01*
X149185334Y-93416381D02*
X149185334Y-92749714D01*
X149185334Y-92940190D02*
X149137715Y-92844952D01*
X149090096Y-92797333D01*
X148994858Y-92749714D01*
X148899619Y-92749714D01*
X148185333Y-93368762D02*
X148280571Y-93416381D01*
X148471048Y-93416381D01*
X148566286Y-93368762D01*
X148613905Y-93273524D01*
X148613905Y-92892571D01*
X148566286Y-92797333D01*
X148471048Y-92749714D01*
X148280571Y-92749714D01*
X148185333Y-92797333D01*
X148137714Y-92892571D01*
X148137714Y-92987810D01*
X148613905Y-93083048D01*
X147280571Y-93416381D02*
X147280571Y-92892571D01*
X147328190Y-92797333D01*
X147423428Y-92749714D01*
X147613905Y-92749714D01*
X147709143Y-92797333D01*
X147280571Y-93368762D02*
X147375809Y-93416381D01*
X147613905Y-93416381D01*
X147709143Y-93368762D01*
X147756762Y-93273524D01*
X147756762Y-93178286D01*
X147709143Y-93083048D01*
X147613905Y-93035429D01*
X147375809Y-93035429D01*
X147280571Y-92987810D01*
X146804381Y-93416381D02*
X146804381Y-92416381D01*
X146709143Y-93035429D02*
X146423428Y-93416381D01*
X146423428Y-92749714D02*
X146804381Y-93130667D01*
X145852000Y-93416381D02*
X145947238Y-93368762D01*
X145994857Y-93321143D01*
X146042476Y-93225905D01*
X146042476Y-92940190D01*
X145994857Y-92844952D01*
X145947238Y-92797333D01*
X145852000Y-92749714D01*
X145709142Y-92749714D01*
X145613904Y-92797333D01*
X145566285Y-92844952D01*
X145518666Y-92940190D01*
X145518666Y-93225905D01*
X145566285Y-93321143D01*
X145613904Y-93368762D01*
X145709142Y-93416381D01*
X145852000Y-93416381D01*
X144661523Y-92749714D02*
X144661523Y-93416381D01*
X145090095Y-92749714D02*
X145090095Y-93273524D01*
X145042476Y-93368762D01*
X144947238Y-93416381D01*
X144804380Y-93416381D01*
X144709142Y-93368762D01*
X144661523Y-93321143D01*
X144328190Y-92749714D02*
X143947238Y-92749714D01*
X144185333Y-92416381D02*
X144185333Y-93273524D01*
X144137714Y-93368762D01*
X144042476Y-93416381D01*
X143947238Y-93416381D01*
X154288857Y-101385714D02*
X154050762Y-102052381D01*
X153812666Y-101385714D01*
X152907904Y-102052381D02*
X153479333Y-102052381D01*
X153193619Y-102052381D02*
X153193619Y-101052381D01*
X153288857Y-101195238D01*
X153384095Y-101290476D01*
X153479333Y-101338095D01*
X152479333Y-101957143D02*
X152431714Y-102004762D01*
X152479333Y-102052381D01*
X152526952Y-102004762D01*
X152479333Y-101957143D01*
X152479333Y-102052381D01*
X151812667Y-101052381D02*
X151717428Y-101052381D01*
X151622190Y-101100000D01*
X151574571Y-101147619D01*
X151526952Y-101242857D01*
X151479333Y-101433333D01*
X151479333Y-101671429D01*
X151526952Y-101861905D01*
X151574571Y-101957143D01*
X151622190Y-102004762D01*
X151717428Y-102052381D01*
X151812667Y-102052381D01*
X151907905Y-102004762D01*
X151955524Y-101957143D01*
X152003143Y-101861905D01*
X152050762Y-101671429D01*
X152050762Y-101433333D01*
X152003143Y-101242857D01*
X151955524Y-101147619D01*
X151907905Y-101100000D01*
X151812667Y-101052381D01*
X151050762Y-101957143D02*
X151003143Y-102004762D01*
X151050762Y-102052381D01*
X151098381Y-102004762D01*
X151050762Y-101957143D01*
X151050762Y-102052381D01*
X150384096Y-101052381D02*
X150288857Y-101052381D01*
X150193619Y-101100000D01*
X150146000Y-101147619D01*
X150098381Y-101242857D01*
X150050762Y-101433333D01*
X150050762Y-101671429D01*
X150098381Y-101861905D01*
X150146000Y-101957143D01*
X150193619Y-102004762D01*
X150288857Y-102052381D01*
X150384096Y-102052381D01*
X150479334Y-102004762D01*
X150526953Y-101957143D01*
X150574572Y-101861905D01*
X150622191Y-101671429D01*
X150622191Y-101433333D01*
X150574572Y-101242857D01*
X150526953Y-101147619D01*
X150479334Y-101100000D01*
X150384096Y-101052381D01*
X154202573Y-110597905D02*
X154202573Y-109797905D01*
X154202573Y-110559810D02*
X154278763Y-110597905D01*
X154431144Y-110597905D01*
X154507335Y-110559810D01*
X154545430Y-110521714D01*
X154583525Y-110445524D01*
X154583525Y-110216952D01*
X154545430Y-110140762D01*
X154507335Y-110102667D01*
X154431144Y-110064571D01*
X154278763Y-110064571D01*
X154202573Y-110102667D01*
X153478763Y-110559810D02*
X153554953Y-110597905D01*
X153707334Y-110597905D01*
X153783525Y-110559810D01*
X153821620Y-110521714D01*
X153859715Y-110445524D01*
X153859715Y-110216952D01*
X153821620Y-110140762D01*
X153783525Y-110102667D01*
X153707334Y-110064571D01*
X153554953Y-110064571D01*
X153478763Y-110102667D01*
X153174001Y-110559810D02*
X153097811Y-110597905D01*
X152945430Y-110597905D01*
X152869239Y-110559810D01*
X152831144Y-110483619D01*
X152831144Y-110445524D01*
X152869239Y-110369333D01*
X152945430Y-110331238D01*
X153059715Y-110331238D01*
X153135906Y-110293143D01*
X153174001Y-110216952D01*
X153174001Y-110178857D01*
X153135906Y-110102667D01*
X153059715Y-110064571D01*
X152945430Y-110064571D01*
X152869239Y-110102667D01*
X152145430Y-110064571D02*
X152145430Y-110597905D01*
X152488287Y-110064571D02*
X152488287Y-110483619D01*
X152450192Y-110559810D01*
X152374001Y-110597905D01*
X152259715Y-110597905D01*
X152183525Y-110559810D01*
X152145430Y-110521714D01*
X151764477Y-110064571D02*
X151764477Y-110597905D01*
X151764477Y-110140762D02*
X151726382Y-110102667D01*
X151650191Y-110064571D01*
X151535905Y-110064571D01*
X151459715Y-110102667D01*
X151421620Y-110178857D01*
X151421620Y-110597905D01*
X150926381Y-110140762D02*
X151002572Y-110102667D01*
X151040667Y-110064571D01*
X151078762Y-109988381D01*
X151078762Y-109950286D01*
X151040667Y-109874095D01*
X151002572Y-109836000D01*
X150926381Y-109797905D01*
X150774000Y-109797905D01*
X150697810Y-109836000D01*
X150659714Y-109874095D01*
X150621619Y-109950286D01*
X150621619Y-109988381D01*
X150659714Y-110064571D01*
X150697810Y-110102667D01*
X150774000Y-110140762D01*
X150926381Y-110140762D01*
X151002572Y-110178857D01*
X151040667Y-110216952D01*
X151078762Y-110293143D01*
X151078762Y-110445524D01*
X151040667Y-110521714D01*
X151002572Y-110559810D01*
X150926381Y-110597905D01*
X150774000Y-110597905D01*
X150697810Y-110559810D01*
X150659714Y-110521714D01*
X150621619Y-110445524D01*
X150621619Y-110293143D01*
X150659714Y-110216952D01*
X150697810Y-110178857D01*
X150774000Y-110140762D01*
X150164476Y-110140762D02*
X150240667Y-110102667D01*
X150278762Y-110064571D01*
X150316857Y-109988381D01*
X150316857Y-109950286D01*
X150278762Y-109874095D01*
X150240667Y-109836000D01*
X150164476Y-109797905D01*
X150012095Y-109797905D01*
X149935905Y-109836000D01*
X149897809Y-109874095D01*
X149859714Y-109950286D01*
X149859714Y-109988381D01*
X149897809Y-110064571D01*
X149935905Y-110102667D01*
X150012095Y-110140762D01*
X150164476Y-110140762D01*
X150240667Y-110178857D01*
X150278762Y-110216952D01*
X150316857Y-110293143D01*
X150316857Y-110445524D01*
X150278762Y-110521714D01*
X150240667Y-110559810D01*
X150164476Y-110597905D01*
X150012095Y-110597905D01*
X149935905Y-110559810D01*
X149897809Y-110521714D01*
X149859714Y-110445524D01*
X149859714Y-110293143D01*
X149897809Y-110216952D01*
X149935905Y-110178857D01*
X150012095Y-110140762D01*
X149402571Y-110597905D02*
X149478762Y-110559810D01*
X149516857Y-110521714D01*
X149554952Y-110445524D01*
X149554952Y-110216952D01*
X149516857Y-110140762D01*
X149478762Y-110102667D01*
X149402571Y-110064571D01*
X149288285Y-110064571D01*
X149212095Y-110102667D01*
X149174000Y-110140762D01*
X149135904Y-110216952D01*
X149135904Y-110445524D01*
X149174000Y-110521714D01*
X149212095Y-110559810D01*
X149288285Y-110597905D01*
X149402571Y-110597905D01*
X148831142Y-110559810D02*
X148754952Y-110597905D01*
X148602571Y-110597905D01*
X148526380Y-110559810D01*
X148488285Y-110483619D01*
X148488285Y-110445524D01*
X148526380Y-110369333D01*
X148602571Y-110331238D01*
X148716856Y-110331238D01*
X148793047Y-110293143D01*
X148831142Y-110216952D01*
X148831142Y-110178857D01*
X148793047Y-110102667D01*
X148716856Y-110064571D01*
X148602571Y-110064571D01*
X148526380Y-110102667D01*
X148145428Y-110597905D02*
X148145428Y-109797905D01*
X147802571Y-110597905D02*
X147802571Y-110178857D01*
X147840666Y-110102667D01*
X147916856Y-110064571D01*
X148031142Y-110064571D01*
X148107333Y-110102667D01*
X148145428Y-110140762D01*
X146926380Y-110216952D02*
X146964475Y-110178857D01*
X147040665Y-110140762D01*
X147116856Y-110140762D01*
X147193046Y-110178857D01*
X147231142Y-110216952D01*
X147269237Y-110293143D01*
X147269237Y-110369333D01*
X147231142Y-110445524D01*
X147193046Y-110483619D01*
X147116856Y-110521714D01*
X147040665Y-110521714D01*
X146964475Y-110483619D01*
X146926380Y-110445524D01*
X146926380Y-110140762D02*
X146926380Y-110445524D01*
X146888284Y-110483619D01*
X146850189Y-110483619D01*
X146773999Y-110445524D01*
X146735904Y-110369333D01*
X146735904Y-110178857D01*
X146812094Y-110064571D01*
X146926380Y-109988381D01*
X147078761Y-109950286D01*
X147231142Y-109988381D01*
X147345427Y-110064571D01*
X147421618Y-110178857D01*
X147459713Y-110331238D01*
X147421618Y-110483619D01*
X147345427Y-110597905D01*
X147231142Y-110674095D01*
X147078761Y-110712190D01*
X146926380Y-110674095D01*
X146812094Y-110597905D01*
X146050190Y-110064571D02*
X146050190Y-110712190D01*
X146088285Y-110788381D01*
X146126380Y-110826476D01*
X146202571Y-110864571D01*
X146316856Y-110864571D01*
X146393047Y-110826476D01*
X146050190Y-110559810D02*
X146126380Y-110597905D01*
X146278761Y-110597905D01*
X146354952Y-110559810D01*
X146393047Y-110521714D01*
X146431142Y-110445524D01*
X146431142Y-110216952D01*
X146393047Y-110140762D01*
X146354952Y-110102667D01*
X146278761Y-110064571D01*
X146126380Y-110064571D01*
X146050190Y-110102667D01*
X145669237Y-110597905D02*
X145669237Y-110064571D01*
X145669237Y-110140762D02*
X145631142Y-110102667D01*
X145554951Y-110064571D01*
X145440665Y-110064571D01*
X145364475Y-110102667D01*
X145326380Y-110178857D01*
X145326380Y-110597905D01*
X145326380Y-110178857D02*
X145288284Y-110102667D01*
X145212094Y-110064571D01*
X145097808Y-110064571D01*
X145021618Y-110102667D01*
X144983523Y-110178857D01*
X144983523Y-110597905D01*
X144259713Y-110597905D02*
X144259713Y-110178857D01*
X144297808Y-110102667D01*
X144373998Y-110064571D01*
X144526379Y-110064571D01*
X144602570Y-110102667D01*
X144259713Y-110559810D02*
X144335903Y-110597905D01*
X144526379Y-110597905D01*
X144602570Y-110559810D01*
X144640665Y-110483619D01*
X144640665Y-110407429D01*
X144602570Y-110331238D01*
X144526379Y-110293143D01*
X144335903Y-110293143D01*
X144259713Y-110255048D01*
X143878760Y-110597905D02*
X143878760Y-110064571D01*
X143878760Y-109797905D02*
X143916855Y-109836000D01*
X143878760Y-109874095D01*
X143840665Y-109836000D01*
X143878760Y-109797905D01*
X143878760Y-109874095D01*
X143383522Y-110597905D02*
X143459713Y-110559810D01*
X143497808Y-110483619D01*
X143497808Y-109797905D01*
X143078760Y-110521714D02*
X143040665Y-110559810D01*
X143078760Y-110597905D01*
X143116855Y-110559810D01*
X143078760Y-110521714D01*
X143078760Y-110597905D01*
X142354951Y-110559810D02*
X142431141Y-110597905D01*
X142583522Y-110597905D01*
X142659713Y-110559810D01*
X142697808Y-110521714D01*
X142735903Y-110445524D01*
X142735903Y-110216952D01*
X142697808Y-110140762D01*
X142659713Y-110102667D01*
X142583522Y-110064571D01*
X142431141Y-110064571D01*
X142354951Y-110102667D01*
X141897808Y-110597905D02*
X141973999Y-110559810D01*
X142012094Y-110521714D01*
X142050189Y-110445524D01*
X142050189Y-110216952D01*
X142012094Y-110140762D01*
X141973999Y-110102667D01*
X141897808Y-110064571D01*
X141783522Y-110064571D01*
X141707332Y-110102667D01*
X141669237Y-110140762D01*
X141631141Y-110216952D01*
X141631141Y-110445524D01*
X141669237Y-110521714D01*
X141707332Y-110559810D01*
X141783522Y-110597905D01*
X141897808Y-110597905D01*
X141288284Y-110597905D02*
X141288284Y-110064571D01*
X141288284Y-110140762D02*
X141250189Y-110102667D01*
X141173998Y-110064571D01*
X141059712Y-110064571D01*
X140983522Y-110102667D01*
X140945427Y-110178857D01*
X140945427Y-110597905D01*
X140945427Y-110178857D02*
X140907331Y-110102667D01*
X140831141Y-110064571D01*
X140716855Y-110064571D01*
X140640665Y-110102667D01*
X140602570Y-110178857D01*
X140602570Y-110597905D01*
X138303000Y-94488000D02*
X138303000Y-94742000D01*
X138557000Y-93980000D02*
X138049000Y-93980000D01*
X138557000Y-94488000D02*
X138049000Y-94488000D01*
X138303000Y-93980000D02*
X138557000Y-94488000D01*
X138303000Y-93980000D02*
X138303000Y-93726000D01*
X138049000Y-94488000D02*
X138303000Y-93980000D01*
X138557000Y-108712000D02*
X138049000Y-108712000D01*
X138303000Y-109220000D02*
X138303000Y-109474000D01*
X138557000Y-109220000D02*
X138049000Y-109220000D01*
X138049000Y-109220000D02*
X138303000Y-108712000D01*
X138303000Y-108712000D02*
X138303000Y-108458000D01*
X138303000Y-108712000D02*
X138557000Y-109220000D01*
D11*
X135947143Y-98988571D02*
X136004285Y-98960000D01*
X136032857Y-98931429D01*
X136061428Y-98874286D01*
X136061428Y-98845714D01*
X136032857Y-98788571D01*
X136004285Y-98760000D01*
X135947143Y-98731429D01*
X135832857Y-98731429D01*
X135775714Y-98760000D01*
X135747143Y-98788571D01*
X135718571Y-98845714D01*
X135718571Y-98874286D01*
X135747143Y-98931429D01*
X135775714Y-98960000D01*
X135832857Y-98988571D01*
X135947143Y-98988571D01*
X136004285Y-99017143D01*
X136032857Y-99045714D01*
X136061428Y-99102857D01*
X136061428Y-99217143D01*
X136032857Y-99274286D01*
X136004285Y-99302857D01*
X135947143Y-99331429D01*
X135832857Y-99331429D01*
X135775714Y-99302857D01*
X135747143Y-99274286D01*
X135718571Y-99217143D01*
X135718571Y-99102857D01*
X135747143Y-99045714D01*
X135775714Y-99017143D01*
X135832857Y-98988571D01*
X137360000Y-98731429D02*
X136960000Y-98731429D01*
X137217143Y-99331429D01*
X138160143Y-99493429D02*
X138445857Y-99493429D01*
X138474428Y-99779143D01*
X138445857Y-99750571D01*
X138388714Y-99722000D01*
X138245857Y-99722000D01*
X138188714Y-99750571D01*
X138160143Y-99779143D01*
X138131571Y-99836286D01*
X138131571Y-99979143D01*
X138160143Y-100036286D01*
X138188714Y-100064857D01*
X138245857Y-100093429D01*
X138388714Y-100093429D01*
X138445857Y-100064857D01*
X138474428Y-100036286D01*
X138188714Y-100963429D02*
X138188714Y-101363429D01*
X138331571Y-100734857D02*
X138474428Y-101163429D01*
X138103000Y-101163429D01*
X138188714Y-101779429D02*
X138303000Y-101779429D01*
X138360143Y-101808000D01*
X138388714Y-101836571D01*
X138445857Y-101922286D01*
X138474428Y-102036571D01*
X138474428Y-102265143D01*
X138445857Y-102322286D01*
X138417285Y-102350857D01*
X138360143Y-102379429D01*
X138245857Y-102379429D01*
X138188714Y-102350857D01*
X138160143Y-102322286D01*
X138131571Y-102265143D01*
X138131571Y-102122286D01*
X138160143Y-102065143D01*
X138188714Y-102036571D01*
X138245857Y-102008000D01*
X138360143Y-102008000D01*
X138417285Y-102036571D01*
X138445857Y-102065143D01*
X138474428Y-102122286D01*
X138503000Y-103303429D02*
X138131571Y-103303429D01*
X138331571Y-103532000D01*
X138245857Y-103532000D01*
X138188714Y-103560571D01*
X138160143Y-103589143D01*
X138131571Y-103646286D01*
X138131571Y-103789143D01*
X138160143Y-103846286D01*
X138188714Y-103874857D01*
X138245857Y-103903429D01*
X138417285Y-103903429D01*
X138474428Y-103874857D01*
X138503000Y-103846286D01*
X137331428Y-103868571D02*
X137302857Y-103840000D01*
X137245714Y-103811429D01*
X137102857Y-103811429D01*
X137045714Y-103840000D01*
X137017143Y-103868571D01*
X136988571Y-103925714D01*
X136988571Y-103982857D01*
X137017143Y-104068571D01*
X137360000Y-104411429D01*
X136988571Y-104411429D01*
X135718571Y-104411429D02*
X136061428Y-104411429D01*
X135890000Y-104411429D02*
X135890000Y-103811429D01*
X135947143Y-103897143D01*
X136004285Y-103954286D01*
X136061428Y-103982857D01*
D12*
X147788381Y-100314286D02*
X148502667Y-100314286D01*
X148645524Y-100266666D01*
X148740762Y-100171428D01*
X148788381Y-100028571D01*
X148788381Y-99933333D01*
X148788381Y-101314286D02*
X148788381Y-100742857D01*
X148788381Y-101028571D02*
X147788381Y-101028571D01*
X147931238Y-100933333D01*
X148026476Y-100838095D01*
X148074095Y-100742857D01*
X147788381Y-101933333D02*
X147788381Y-102028572D01*
X147836000Y-102123810D01*
X147883619Y-102171429D01*
X147978857Y-102219048D01*
X148169333Y-102266667D01*
X148407429Y-102266667D01*
X148597905Y-102219048D01*
X148693143Y-102171429D01*
X148740762Y-102123810D01*
X148788381Y-102028572D01*
X148788381Y-101933333D01*
X148740762Y-101838095D01*
X148693143Y-101790476D01*
X148597905Y-101742857D01*
X148407429Y-101695238D01*
X148169333Y-101695238D01*
X147978857Y-101742857D01*
X147883619Y-101790476D01*
X147836000Y-101838095D01*
X147788381Y-101933333D01*
X148788381Y-103219048D02*
X148788381Y-102647619D01*
X148788381Y-102933333D02*
X147788381Y-102933333D01*
X147931238Y-102838095D01*
X148026476Y-102742857D01*
X148074095Y-102647619D01*
%LPC*%
D13*
X134620000Y-104140000D03*
X134620000Y-99060000D03*
X134620000Y-101600000D03*
D14*
X132080000Y-107950000D03*
X132080000Y-95250000D03*
D15*
X144250000Y-106040000D03*
X141710000Y-104770000D03*
X144250000Y-103500000D03*
X141710000Y-102230000D03*
X144250000Y-100960000D03*
X141710000Y-99690000D03*
X144250000Y-98420000D03*
X141710000Y-97150000D03*
D16*
X152250000Y-106600000D03*
X152250000Y-96600000D03*
D15*
X148250000Y-108130000D03*
X148250000Y-105590000D03*
X148250000Y-97610000D03*
X148250000Y-95070000D03*
D17*
X129540000Y-101600000D03*
D13*
X136144000Y-98044000D03*
X137668000Y-98044000D03*
X139192000Y-99060000D03*
X139192000Y-100584000D03*
X139192000Y-102616000D03*
X139192000Y-104140000D03*
X137668000Y-105156000D03*
X136144000Y-105156000D03*
X139192000Y-109728000D03*
X139192000Y-108204000D03*
X139192000Y-94996000D03*
X139192000Y-93472000D03*
M02*
