G04 #@! TF.FileFunction,Copper,L3,Inr,Plane*
%FSLAX46Y46*%
G04 Gerber Fmt 4.6, Leading zero omitted, Abs format (unit mm)*
G04 Created by KiCad (PCBNEW 4.0.7) date Thu May  3 20:31:25 2018*
%MOMM*%
%LPD*%
G01*
G04 APERTURE LIST*
%ADD10C,0.100000*%
%ADD11C,1.270000*%
%ADD12C,1.651000*%
%ADD13C,4.000000*%
%ADD14C,1.143000*%
%ADD15C,0.254000*%
G04 APERTURE END LIST*
D10*
D11*
X134620000Y-104140000D03*
X134620000Y-99060000D03*
X134620000Y-101600000D03*
D12*
X144250000Y-106040000D03*
X141710000Y-104770000D03*
X144250000Y-103500000D03*
X141710000Y-102230000D03*
X144250000Y-100960000D03*
X141710000Y-99690000D03*
X144250000Y-98420000D03*
X141710000Y-97150000D03*
D13*
X152250000Y-106600000D03*
X152250000Y-96600000D03*
D12*
X148250000Y-108130000D03*
X148250000Y-105590000D03*
X148250000Y-97610000D03*
X148250000Y-95070000D03*
D14*
X129540000Y-101600000D03*
D11*
X136144000Y-98044000D03*
X137668000Y-98044000D03*
X139192000Y-99060000D03*
X139192000Y-100584000D03*
X139192000Y-102616000D03*
X139192000Y-104140000D03*
X137668000Y-105156000D03*
X136144000Y-105156000D03*
X139192000Y-109728000D03*
X139192000Y-108204000D03*
X139192000Y-94996000D03*
X139192000Y-93472000D03*
D15*
G36*
X133173254Y-92456000D02*
X133206043Y-92620839D01*
X133299417Y-92760583D01*
X133439161Y-92853957D01*
X133604000Y-92886746D01*
X138340539Y-92886746D01*
X138331394Y-92895875D01*
X138176430Y-93269069D01*
X138176078Y-93673158D01*
X138330390Y-94046622D01*
X138517517Y-94234076D01*
X138331394Y-94419875D01*
X138176430Y-94793069D01*
X138176078Y-95197158D01*
X138330390Y-95570622D01*
X138615875Y-95856606D01*
X138989069Y-96011570D01*
X139393158Y-96011922D01*
X139766622Y-95857610D01*
X140052606Y-95572125D01*
X140161913Y-95308885D01*
X147043545Y-95308885D01*
X147226798Y-95752391D01*
X147565824Y-96092010D01*
X148009010Y-96276036D01*
X148488885Y-96276455D01*
X148776526Y-96157604D01*
X149863266Y-96157604D01*
X149875648Y-97104643D01*
X150214243Y-97922084D01*
X150513528Y-98156867D01*
X152070395Y-96600000D01*
X152429605Y-96600000D01*
X153986472Y-98156867D01*
X154285757Y-97922084D01*
X154636734Y-97042396D01*
X154624352Y-96095357D01*
X154285757Y-95277916D01*
X153986472Y-95043133D01*
X152429605Y-96600000D01*
X152070395Y-96600000D01*
X150513528Y-95043133D01*
X150214243Y-95277916D01*
X149863266Y-96157604D01*
X148776526Y-96157604D01*
X148932391Y-96093202D01*
X149272010Y-95754176D01*
X149456036Y-95310990D01*
X149456426Y-94863528D01*
X150693133Y-94863528D01*
X152250000Y-96420395D01*
X153806867Y-94863528D01*
X153572084Y-94564243D01*
X152692396Y-94213266D01*
X151745357Y-94225648D01*
X150927916Y-94564243D01*
X150693133Y-94863528D01*
X149456426Y-94863528D01*
X149456455Y-94831115D01*
X149273202Y-94387609D01*
X148934176Y-94047990D01*
X148490990Y-93863964D01*
X148011115Y-93863545D01*
X147567609Y-94046798D01*
X147227990Y-94385824D01*
X147043964Y-94829010D01*
X147043545Y-95308885D01*
X140161913Y-95308885D01*
X140207570Y-95198931D01*
X140207922Y-94794842D01*
X140053610Y-94421378D01*
X139866483Y-94233924D01*
X140052606Y-94048125D01*
X140207570Y-93674931D01*
X140207922Y-93270842D01*
X140053610Y-92897378D01*
X139768125Y-92611394D01*
X139394931Y-92456430D01*
X139114709Y-92456186D01*
X139114746Y-92456000D01*
X139114746Y-91870746D01*
X155569254Y-91870746D01*
X155569254Y-111329254D01*
X139114746Y-111329254D01*
X139114746Y-110744000D01*
X139114682Y-110743679D01*
X139393158Y-110743922D01*
X139766622Y-110589610D01*
X140052606Y-110304125D01*
X140207570Y-109930931D01*
X140207922Y-109526842D01*
X140053610Y-109153378D01*
X139866483Y-108965924D01*
X140052606Y-108780125D01*
X140207570Y-108406931D01*
X140207603Y-108368885D01*
X147043545Y-108368885D01*
X147226798Y-108812391D01*
X147565824Y-109152010D01*
X148009010Y-109336036D01*
X148488885Y-109336455D01*
X148932391Y-109153202D01*
X149272010Y-108814176D01*
X149456036Y-108370990D01*
X149456066Y-108336472D01*
X150693133Y-108336472D01*
X150927916Y-108635757D01*
X151807604Y-108986734D01*
X152754643Y-108974352D01*
X153572084Y-108635757D01*
X153806867Y-108336472D01*
X152250000Y-106779605D01*
X150693133Y-108336472D01*
X149456066Y-108336472D01*
X149456455Y-107891115D01*
X149273202Y-107447609D01*
X148934176Y-107107990D01*
X148490990Y-106923964D01*
X148011115Y-106923545D01*
X147567609Y-107106798D01*
X147227990Y-107445824D01*
X147043964Y-107889010D01*
X147043545Y-108368885D01*
X140207603Y-108368885D01*
X140207922Y-108002842D01*
X140053610Y-107629378D01*
X139768125Y-107343394D01*
X139394931Y-107188430D01*
X138990842Y-107188078D01*
X138617378Y-107342390D01*
X138331394Y-107627875D01*
X138176430Y-108001069D01*
X138176078Y-108405158D01*
X138330390Y-108778622D01*
X138517517Y-108966076D01*
X138331394Y-109151875D01*
X138176430Y-109525069D01*
X138176078Y-109929158D01*
X138330390Y-110302622D01*
X138341003Y-110313254D01*
X133604000Y-110313254D01*
X133439161Y-110346043D01*
X133299417Y-110439417D01*
X133206043Y-110579161D01*
X133173254Y-110744000D01*
X133173254Y-111329254D01*
X128700746Y-111329254D01*
X128700746Y-108339791D01*
X130111413Y-108339791D01*
X130410429Y-109063465D01*
X130963623Y-109617625D01*
X131686774Y-109917903D01*
X132469791Y-109918587D01*
X133193465Y-109619571D01*
X133747625Y-109066377D01*
X134047903Y-108343226D01*
X134048587Y-107560209D01*
X133749571Y-106836535D01*
X133196377Y-106282375D01*
X133187973Y-106278885D01*
X143043545Y-106278885D01*
X143226798Y-106722391D01*
X143565824Y-107062010D01*
X144009010Y-107246036D01*
X144488885Y-107246455D01*
X144932391Y-107063202D01*
X145272010Y-106724176D01*
X145456036Y-106280990D01*
X145456430Y-105828885D01*
X147043545Y-105828885D01*
X147226798Y-106272391D01*
X147565824Y-106612010D01*
X148009010Y-106796036D01*
X148488885Y-106796455D01*
X148932391Y-106613202D01*
X149272010Y-106274176D01*
X149320414Y-106157604D01*
X149863266Y-106157604D01*
X149875648Y-107104643D01*
X150214243Y-107922084D01*
X150513528Y-108156867D01*
X152070395Y-106600000D01*
X152429605Y-106600000D01*
X153986472Y-108156867D01*
X154285757Y-107922084D01*
X154636734Y-107042396D01*
X154624352Y-106095357D01*
X154285757Y-105277916D01*
X153986472Y-105043133D01*
X152429605Y-106600000D01*
X152070395Y-106600000D01*
X150513528Y-105043133D01*
X150214243Y-105277916D01*
X149863266Y-106157604D01*
X149320414Y-106157604D01*
X149456036Y-105830990D01*
X149456455Y-105351115D01*
X149273202Y-104907609D01*
X149229198Y-104863528D01*
X150693133Y-104863528D01*
X152250000Y-106420395D01*
X153806867Y-104863528D01*
X153572084Y-104564243D01*
X152692396Y-104213266D01*
X151745357Y-104225648D01*
X150927916Y-104564243D01*
X150693133Y-104863528D01*
X149229198Y-104863528D01*
X148934176Y-104567990D01*
X148490990Y-104383964D01*
X148011115Y-104383545D01*
X147567609Y-104566798D01*
X147227990Y-104905824D01*
X147043964Y-105349010D01*
X147043545Y-105828885D01*
X145456430Y-105828885D01*
X145456455Y-105801115D01*
X145273202Y-105357609D01*
X144934176Y-105017990D01*
X144490990Y-104833964D01*
X144011115Y-104833545D01*
X143567609Y-105016798D01*
X143227990Y-105355824D01*
X143043964Y-105799010D01*
X143043545Y-106278885D01*
X133187973Y-106278885D01*
X132473226Y-105982097D01*
X131690209Y-105981413D01*
X130966535Y-106280429D01*
X130412375Y-106833623D01*
X130112097Y-107556774D01*
X130111413Y-108339791D01*
X128700746Y-108339791D01*
X128700746Y-104888716D01*
X134050889Y-104888716D01*
X134118601Y-105046181D01*
X134503549Y-105169079D01*
X134906225Y-105135309D01*
X135121399Y-105046181D01*
X135128363Y-105029986D01*
X135128078Y-105357158D01*
X135282390Y-105730622D01*
X135567875Y-106016606D01*
X135941069Y-106171570D01*
X136345158Y-106171922D01*
X136718622Y-106017610D01*
X136906076Y-105830483D01*
X137091875Y-106016606D01*
X137465069Y-106171570D01*
X137869158Y-106171922D01*
X138242622Y-106017610D01*
X138528606Y-105732125D01*
X138683570Y-105358931D01*
X138683858Y-105028835D01*
X138989069Y-105155570D01*
X139393158Y-105155922D01*
X139749015Y-105008885D01*
X140503545Y-105008885D01*
X140686798Y-105452391D01*
X141025824Y-105792010D01*
X141469010Y-105976036D01*
X141948885Y-105976455D01*
X142392391Y-105793202D01*
X142732010Y-105454176D01*
X142916036Y-105010990D01*
X142916455Y-104531115D01*
X142733202Y-104087609D01*
X142394176Y-103747990D01*
X142372249Y-103738885D01*
X143043545Y-103738885D01*
X143226798Y-104182391D01*
X143565824Y-104522010D01*
X144009010Y-104706036D01*
X144488885Y-104706455D01*
X144932391Y-104523202D01*
X145272010Y-104184176D01*
X145456036Y-103740990D01*
X145456455Y-103261115D01*
X145273202Y-102817609D01*
X144934176Y-102477990D01*
X144490990Y-102293964D01*
X144011115Y-102293545D01*
X143567609Y-102476798D01*
X143227990Y-102815824D01*
X143043964Y-103259010D01*
X143043545Y-103738885D01*
X142372249Y-103738885D01*
X141950990Y-103563964D01*
X141471115Y-103563545D01*
X141027609Y-103746798D01*
X140687990Y-104085824D01*
X140503964Y-104529010D01*
X140503545Y-105008885D01*
X139749015Y-105008885D01*
X139766622Y-105001610D01*
X140052606Y-104716125D01*
X140207570Y-104342931D01*
X140207922Y-103938842D01*
X140053610Y-103565378D01*
X139866483Y-103377924D01*
X140052606Y-103192125D01*
X140207570Y-102818931D01*
X140207874Y-102468885D01*
X140503545Y-102468885D01*
X140686798Y-102912391D01*
X141025824Y-103252010D01*
X141469010Y-103436036D01*
X141948885Y-103436455D01*
X142392391Y-103253202D01*
X142732010Y-102914176D01*
X142916036Y-102470990D01*
X142916455Y-101991115D01*
X142733202Y-101547609D01*
X142394176Y-101207990D01*
X142372249Y-101198885D01*
X143043545Y-101198885D01*
X143226798Y-101642391D01*
X143565824Y-101982010D01*
X144009010Y-102166036D01*
X144488885Y-102166455D01*
X144932391Y-101983202D01*
X145272010Y-101644176D01*
X145456036Y-101200990D01*
X145456455Y-100721115D01*
X145273202Y-100277609D01*
X144934176Y-99937990D01*
X144490990Y-99753964D01*
X144011115Y-99753545D01*
X143567609Y-99936798D01*
X143227990Y-100275824D01*
X143043964Y-100719010D01*
X143043545Y-101198885D01*
X142372249Y-101198885D01*
X141950990Y-101023964D01*
X141471115Y-101023545D01*
X141027609Y-101206798D01*
X140687990Y-101545824D01*
X140503964Y-101989010D01*
X140503545Y-102468885D01*
X140207874Y-102468885D01*
X140207922Y-102414842D01*
X140053610Y-102041378D01*
X139768125Y-101755394D01*
X139394931Y-101600430D01*
X138990842Y-101600078D01*
X138617378Y-101754390D01*
X138331394Y-102039875D01*
X138176430Y-102413069D01*
X138176078Y-102817158D01*
X138330390Y-103190622D01*
X138517517Y-103378076D01*
X138331394Y-103563875D01*
X138176430Y-103937069D01*
X138176142Y-104267165D01*
X137870931Y-104140430D01*
X137466842Y-104140078D01*
X137093378Y-104294390D01*
X136905924Y-104481517D01*
X136720125Y-104295394D01*
X136346931Y-104140430D01*
X135942842Y-104140078D01*
X135647237Y-104262219D01*
X135649079Y-104256451D01*
X135615309Y-103853775D01*
X135526181Y-103638601D01*
X135368716Y-103570889D01*
X134799605Y-104140000D01*
X134813748Y-104154143D01*
X134634143Y-104333748D01*
X134620000Y-104319605D01*
X134050889Y-104888716D01*
X128700746Y-104888716D01*
X128700746Y-104023549D01*
X133590921Y-104023549D01*
X133624691Y-104426225D01*
X133713819Y-104641399D01*
X133871284Y-104709111D01*
X134440395Y-104140000D01*
X133871284Y-103570889D01*
X133713819Y-103638601D01*
X133590921Y-104023549D01*
X128700746Y-104023549D01*
X128700746Y-103391284D01*
X134050889Y-103391284D01*
X134620000Y-103960395D01*
X135189111Y-103391284D01*
X135121399Y-103233819D01*
X134736451Y-103110921D01*
X134333775Y-103144691D01*
X134118601Y-103233819D01*
X134050889Y-103391284D01*
X128700746Y-103391284D01*
X128700746Y-102348716D01*
X134050889Y-102348716D01*
X134118601Y-102506181D01*
X134503549Y-102629079D01*
X134906225Y-102595309D01*
X135121399Y-102506181D01*
X135189111Y-102348716D01*
X134620000Y-101779605D01*
X134050889Y-102348716D01*
X128700746Y-102348716D01*
X128700746Y-101483549D01*
X133590921Y-101483549D01*
X133624691Y-101886225D01*
X133713819Y-102101399D01*
X133871284Y-102169111D01*
X134440395Y-101600000D01*
X134799605Y-101600000D01*
X135368716Y-102169111D01*
X135526181Y-102101399D01*
X135649079Y-101716451D01*
X135615309Y-101313775D01*
X135526181Y-101098601D01*
X135368716Y-101030889D01*
X134799605Y-101600000D01*
X134440395Y-101600000D01*
X133871284Y-101030889D01*
X133713819Y-101098601D01*
X133590921Y-101483549D01*
X128700746Y-101483549D01*
X128700746Y-100851284D01*
X134050889Y-100851284D01*
X134620000Y-101420395D01*
X135189111Y-100851284D01*
X135121399Y-100693819D01*
X134736451Y-100570921D01*
X134333775Y-100604691D01*
X134118601Y-100693819D01*
X134050889Y-100851284D01*
X128700746Y-100851284D01*
X128700746Y-99808716D01*
X134050889Y-99808716D01*
X134118601Y-99966181D01*
X134503549Y-100089079D01*
X134906225Y-100055309D01*
X135121399Y-99966181D01*
X135189111Y-99808716D01*
X134620000Y-99239605D01*
X134050889Y-99808716D01*
X128700746Y-99808716D01*
X128700746Y-98943549D01*
X133590921Y-98943549D01*
X133624691Y-99346225D01*
X133713819Y-99561399D01*
X133871284Y-99629111D01*
X134440395Y-99060000D01*
X133871284Y-98490889D01*
X133713819Y-98558601D01*
X133590921Y-98943549D01*
X128700746Y-98943549D01*
X128700746Y-98311284D01*
X134050889Y-98311284D01*
X134620000Y-98880395D01*
X134634143Y-98866253D01*
X134813748Y-99045858D01*
X134799605Y-99060000D01*
X135368716Y-99629111D01*
X135526181Y-99561399D01*
X135649079Y-99176451D01*
X135628388Y-98929733D01*
X135941069Y-99059570D01*
X136345158Y-99059922D01*
X136718622Y-98905610D01*
X136906076Y-98718483D01*
X137091875Y-98904606D01*
X137465069Y-99059570D01*
X137869158Y-99059922D01*
X138176364Y-98932987D01*
X138176078Y-99261158D01*
X138330390Y-99634622D01*
X138517517Y-99822076D01*
X138331394Y-100007875D01*
X138176430Y-100381069D01*
X138176078Y-100785158D01*
X138330390Y-101158622D01*
X138615875Y-101444606D01*
X138989069Y-101599570D01*
X139393158Y-101599922D01*
X139766622Y-101445610D01*
X140052606Y-101160125D01*
X140207570Y-100786931D01*
X140207922Y-100382842D01*
X140053610Y-100009378D01*
X139973258Y-99928885D01*
X140503545Y-99928885D01*
X140686798Y-100372391D01*
X141025824Y-100712010D01*
X141469010Y-100896036D01*
X141948885Y-100896455D01*
X142392391Y-100713202D01*
X142732010Y-100374176D01*
X142916036Y-99930990D01*
X142916455Y-99451115D01*
X142733202Y-99007609D01*
X142394176Y-98667990D01*
X142372249Y-98658885D01*
X143043545Y-98658885D01*
X143226798Y-99102391D01*
X143565824Y-99442010D01*
X144009010Y-99626036D01*
X144488885Y-99626455D01*
X144932391Y-99443202D01*
X145272010Y-99104176D01*
X145456036Y-98660990D01*
X145456455Y-98181115D01*
X145319181Y-97848885D01*
X147043545Y-97848885D01*
X147226798Y-98292391D01*
X147565824Y-98632010D01*
X148009010Y-98816036D01*
X148488885Y-98816455D01*
X148932391Y-98633202D01*
X149229640Y-98336472D01*
X150693133Y-98336472D01*
X150927916Y-98635757D01*
X151807604Y-98986734D01*
X152754643Y-98974352D01*
X153572084Y-98635757D01*
X153806867Y-98336472D01*
X152250000Y-96779605D01*
X150693133Y-98336472D01*
X149229640Y-98336472D01*
X149272010Y-98294176D01*
X149456036Y-97850990D01*
X149456455Y-97371115D01*
X149273202Y-96927609D01*
X148934176Y-96587990D01*
X148490990Y-96403964D01*
X148011115Y-96403545D01*
X147567609Y-96586798D01*
X147227990Y-96925824D01*
X147043964Y-97369010D01*
X147043545Y-97848885D01*
X145319181Y-97848885D01*
X145273202Y-97737609D01*
X144934176Y-97397990D01*
X144490990Y-97213964D01*
X144011115Y-97213545D01*
X143567609Y-97396798D01*
X143227990Y-97735824D01*
X143043964Y-98179010D01*
X143043545Y-98658885D01*
X142372249Y-98658885D01*
X141950990Y-98483964D01*
X141471115Y-98483545D01*
X141027609Y-98666798D01*
X140687990Y-99005824D01*
X140503964Y-99449010D01*
X140503545Y-99928885D01*
X139973258Y-99928885D01*
X139866483Y-99821924D01*
X140052606Y-99636125D01*
X140207570Y-99262931D01*
X140207922Y-98858842D01*
X140053610Y-98485378D01*
X139768125Y-98199394D01*
X139394931Y-98044430D01*
X138990842Y-98044078D01*
X138683636Y-98171013D01*
X138683922Y-97842842D01*
X138529610Y-97469378D01*
X138449258Y-97388885D01*
X140503545Y-97388885D01*
X140686798Y-97832391D01*
X141025824Y-98172010D01*
X141469010Y-98356036D01*
X141948885Y-98356455D01*
X142392391Y-98173202D01*
X142732010Y-97834176D01*
X142916036Y-97390990D01*
X142916455Y-96911115D01*
X142733202Y-96467609D01*
X142394176Y-96127990D01*
X141950990Y-95943964D01*
X141471115Y-95943545D01*
X141027609Y-96126798D01*
X140687990Y-96465824D01*
X140503964Y-96909010D01*
X140503545Y-97388885D01*
X138449258Y-97388885D01*
X138244125Y-97183394D01*
X137870931Y-97028430D01*
X137466842Y-97028078D01*
X137093378Y-97182390D01*
X136905924Y-97369517D01*
X136720125Y-97183394D01*
X136346931Y-97028430D01*
X135942842Y-97028078D01*
X135569378Y-97182390D01*
X135283394Y-97467875D01*
X135128430Y-97841069D01*
X135128144Y-98169504D01*
X135121399Y-98153819D01*
X134736451Y-98030921D01*
X134333775Y-98064691D01*
X134118601Y-98153819D01*
X134050889Y-98311284D01*
X128700746Y-98311284D01*
X128700746Y-95639791D01*
X130111413Y-95639791D01*
X130410429Y-96363465D01*
X130963623Y-96917625D01*
X131686774Y-97217903D01*
X132469791Y-97218587D01*
X133193465Y-96919571D01*
X133747625Y-96366377D01*
X134047903Y-95643226D01*
X134048587Y-94860209D01*
X133749571Y-94136535D01*
X133196377Y-93582375D01*
X132473226Y-93282097D01*
X131690209Y-93281413D01*
X130966535Y-93580429D01*
X130412375Y-94133623D01*
X130112097Y-94856774D01*
X130111413Y-95639791D01*
X128700746Y-95639791D01*
X128700746Y-91870746D01*
X133173254Y-91870746D01*
X133173254Y-92456000D01*
X133173254Y-92456000D01*
G37*
X133173254Y-92456000D02*
X133206043Y-92620839D01*
X133299417Y-92760583D01*
X133439161Y-92853957D01*
X133604000Y-92886746D01*
X138340539Y-92886746D01*
X138331394Y-92895875D01*
X138176430Y-93269069D01*
X138176078Y-93673158D01*
X138330390Y-94046622D01*
X138517517Y-94234076D01*
X138331394Y-94419875D01*
X138176430Y-94793069D01*
X138176078Y-95197158D01*
X138330390Y-95570622D01*
X138615875Y-95856606D01*
X138989069Y-96011570D01*
X139393158Y-96011922D01*
X139766622Y-95857610D01*
X140052606Y-95572125D01*
X140161913Y-95308885D01*
X147043545Y-95308885D01*
X147226798Y-95752391D01*
X147565824Y-96092010D01*
X148009010Y-96276036D01*
X148488885Y-96276455D01*
X148776526Y-96157604D01*
X149863266Y-96157604D01*
X149875648Y-97104643D01*
X150214243Y-97922084D01*
X150513528Y-98156867D01*
X152070395Y-96600000D01*
X152429605Y-96600000D01*
X153986472Y-98156867D01*
X154285757Y-97922084D01*
X154636734Y-97042396D01*
X154624352Y-96095357D01*
X154285757Y-95277916D01*
X153986472Y-95043133D01*
X152429605Y-96600000D01*
X152070395Y-96600000D01*
X150513528Y-95043133D01*
X150214243Y-95277916D01*
X149863266Y-96157604D01*
X148776526Y-96157604D01*
X148932391Y-96093202D01*
X149272010Y-95754176D01*
X149456036Y-95310990D01*
X149456426Y-94863528D01*
X150693133Y-94863528D01*
X152250000Y-96420395D01*
X153806867Y-94863528D01*
X153572084Y-94564243D01*
X152692396Y-94213266D01*
X151745357Y-94225648D01*
X150927916Y-94564243D01*
X150693133Y-94863528D01*
X149456426Y-94863528D01*
X149456455Y-94831115D01*
X149273202Y-94387609D01*
X148934176Y-94047990D01*
X148490990Y-93863964D01*
X148011115Y-93863545D01*
X147567609Y-94046798D01*
X147227990Y-94385824D01*
X147043964Y-94829010D01*
X147043545Y-95308885D01*
X140161913Y-95308885D01*
X140207570Y-95198931D01*
X140207922Y-94794842D01*
X140053610Y-94421378D01*
X139866483Y-94233924D01*
X140052606Y-94048125D01*
X140207570Y-93674931D01*
X140207922Y-93270842D01*
X140053610Y-92897378D01*
X139768125Y-92611394D01*
X139394931Y-92456430D01*
X139114709Y-92456186D01*
X139114746Y-92456000D01*
X139114746Y-91870746D01*
X155569254Y-91870746D01*
X155569254Y-111329254D01*
X139114746Y-111329254D01*
X139114746Y-110744000D01*
X139114682Y-110743679D01*
X139393158Y-110743922D01*
X139766622Y-110589610D01*
X140052606Y-110304125D01*
X140207570Y-109930931D01*
X140207922Y-109526842D01*
X140053610Y-109153378D01*
X139866483Y-108965924D01*
X140052606Y-108780125D01*
X140207570Y-108406931D01*
X140207603Y-108368885D01*
X147043545Y-108368885D01*
X147226798Y-108812391D01*
X147565824Y-109152010D01*
X148009010Y-109336036D01*
X148488885Y-109336455D01*
X148932391Y-109153202D01*
X149272010Y-108814176D01*
X149456036Y-108370990D01*
X149456066Y-108336472D01*
X150693133Y-108336472D01*
X150927916Y-108635757D01*
X151807604Y-108986734D01*
X152754643Y-108974352D01*
X153572084Y-108635757D01*
X153806867Y-108336472D01*
X152250000Y-106779605D01*
X150693133Y-108336472D01*
X149456066Y-108336472D01*
X149456455Y-107891115D01*
X149273202Y-107447609D01*
X148934176Y-107107990D01*
X148490990Y-106923964D01*
X148011115Y-106923545D01*
X147567609Y-107106798D01*
X147227990Y-107445824D01*
X147043964Y-107889010D01*
X147043545Y-108368885D01*
X140207603Y-108368885D01*
X140207922Y-108002842D01*
X140053610Y-107629378D01*
X139768125Y-107343394D01*
X139394931Y-107188430D01*
X138990842Y-107188078D01*
X138617378Y-107342390D01*
X138331394Y-107627875D01*
X138176430Y-108001069D01*
X138176078Y-108405158D01*
X138330390Y-108778622D01*
X138517517Y-108966076D01*
X138331394Y-109151875D01*
X138176430Y-109525069D01*
X138176078Y-109929158D01*
X138330390Y-110302622D01*
X138341003Y-110313254D01*
X133604000Y-110313254D01*
X133439161Y-110346043D01*
X133299417Y-110439417D01*
X133206043Y-110579161D01*
X133173254Y-110744000D01*
X133173254Y-111329254D01*
X128700746Y-111329254D01*
X128700746Y-108339791D01*
X130111413Y-108339791D01*
X130410429Y-109063465D01*
X130963623Y-109617625D01*
X131686774Y-109917903D01*
X132469791Y-109918587D01*
X133193465Y-109619571D01*
X133747625Y-109066377D01*
X134047903Y-108343226D01*
X134048587Y-107560209D01*
X133749571Y-106836535D01*
X133196377Y-106282375D01*
X133187973Y-106278885D01*
X143043545Y-106278885D01*
X143226798Y-106722391D01*
X143565824Y-107062010D01*
X144009010Y-107246036D01*
X144488885Y-107246455D01*
X144932391Y-107063202D01*
X145272010Y-106724176D01*
X145456036Y-106280990D01*
X145456430Y-105828885D01*
X147043545Y-105828885D01*
X147226798Y-106272391D01*
X147565824Y-106612010D01*
X148009010Y-106796036D01*
X148488885Y-106796455D01*
X148932391Y-106613202D01*
X149272010Y-106274176D01*
X149320414Y-106157604D01*
X149863266Y-106157604D01*
X149875648Y-107104643D01*
X150214243Y-107922084D01*
X150513528Y-108156867D01*
X152070395Y-106600000D01*
X152429605Y-106600000D01*
X153986472Y-108156867D01*
X154285757Y-107922084D01*
X154636734Y-107042396D01*
X154624352Y-106095357D01*
X154285757Y-105277916D01*
X153986472Y-105043133D01*
X152429605Y-106600000D01*
X152070395Y-106600000D01*
X150513528Y-105043133D01*
X150214243Y-105277916D01*
X149863266Y-106157604D01*
X149320414Y-106157604D01*
X149456036Y-105830990D01*
X149456455Y-105351115D01*
X149273202Y-104907609D01*
X149229198Y-104863528D01*
X150693133Y-104863528D01*
X152250000Y-106420395D01*
X153806867Y-104863528D01*
X153572084Y-104564243D01*
X152692396Y-104213266D01*
X151745357Y-104225648D01*
X150927916Y-104564243D01*
X150693133Y-104863528D01*
X149229198Y-104863528D01*
X148934176Y-104567990D01*
X148490990Y-104383964D01*
X148011115Y-104383545D01*
X147567609Y-104566798D01*
X147227990Y-104905824D01*
X147043964Y-105349010D01*
X147043545Y-105828885D01*
X145456430Y-105828885D01*
X145456455Y-105801115D01*
X145273202Y-105357609D01*
X144934176Y-105017990D01*
X144490990Y-104833964D01*
X144011115Y-104833545D01*
X143567609Y-105016798D01*
X143227990Y-105355824D01*
X143043964Y-105799010D01*
X143043545Y-106278885D01*
X133187973Y-106278885D01*
X132473226Y-105982097D01*
X131690209Y-105981413D01*
X130966535Y-106280429D01*
X130412375Y-106833623D01*
X130112097Y-107556774D01*
X130111413Y-108339791D01*
X128700746Y-108339791D01*
X128700746Y-104888716D01*
X134050889Y-104888716D01*
X134118601Y-105046181D01*
X134503549Y-105169079D01*
X134906225Y-105135309D01*
X135121399Y-105046181D01*
X135128363Y-105029986D01*
X135128078Y-105357158D01*
X135282390Y-105730622D01*
X135567875Y-106016606D01*
X135941069Y-106171570D01*
X136345158Y-106171922D01*
X136718622Y-106017610D01*
X136906076Y-105830483D01*
X137091875Y-106016606D01*
X137465069Y-106171570D01*
X137869158Y-106171922D01*
X138242622Y-106017610D01*
X138528606Y-105732125D01*
X138683570Y-105358931D01*
X138683858Y-105028835D01*
X138989069Y-105155570D01*
X139393158Y-105155922D01*
X139749015Y-105008885D01*
X140503545Y-105008885D01*
X140686798Y-105452391D01*
X141025824Y-105792010D01*
X141469010Y-105976036D01*
X141948885Y-105976455D01*
X142392391Y-105793202D01*
X142732010Y-105454176D01*
X142916036Y-105010990D01*
X142916455Y-104531115D01*
X142733202Y-104087609D01*
X142394176Y-103747990D01*
X142372249Y-103738885D01*
X143043545Y-103738885D01*
X143226798Y-104182391D01*
X143565824Y-104522010D01*
X144009010Y-104706036D01*
X144488885Y-104706455D01*
X144932391Y-104523202D01*
X145272010Y-104184176D01*
X145456036Y-103740990D01*
X145456455Y-103261115D01*
X145273202Y-102817609D01*
X144934176Y-102477990D01*
X144490990Y-102293964D01*
X144011115Y-102293545D01*
X143567609Y-102476798D01*
X143227990Y-102815824D01*
X143043964Y-103259010D01*
X143043545Y-103738885D01*
X142372249Y-103738885D01*
X141950990Y-103563964D01*
X141471115Y-103563545D01*
X141027609Y-103746798D01*
X140687990Y-104085824D01*
X140503964Y-104529010D01*
X140503545Y-105008885D01*
X139749015Y-105008885D01*
X139766622Y-105001610D01*
X140052606Y-104716125D01*
X140207570Y-104342931D01*
X140207922Y-103938842D01*
X140053610Y-103565378D01*
X139866483Y-103377924D01*
X140052606Y-103192125D01*
X140207570Y-102818931D01*
X140207874Y-102468885D01*
X140503545Y-102468885D01*
X140686798Y-102912391D01*
X141025824Y-103252010D01*
X141469010Y-103436036D01*
X141948885Y-103436455D01*
X142392391Y-103253202D01*
X142732010Y-102914176D01*
X142916036Y-102470990D01*
X142916455Y-101991115D01*
X142733202Y-101547609D01*
X142394176Y-101207990D01*
X142372249Y-101198885D01*
X143043545Y-101198885D01*
X143226798Y-101642391D01*
X143565824Y-101982010D01*
X144009010Y-102166036D01*
X144488885Y-102166455D01*
X144932391Y-101983202D01*
X145272010Y-101644176D01*
X145456036Y-101200990D01*
X145456455Y-100721115D01*
X145273202Y-100277609D01*
X144934176Y-99937990D01*
X144490990Y-99753964D01*
X144011115Y-99753545D01*
X143567609Y-99936798D01*
X143227990Y-100275824D01*
X143043964Y-100719010D01*
X143043545Y-101198885D01*
X142372249Y-101198885D01*
X141950990Y-101023964D01*
X141471115Y-101023545D01*
X141027609Y-101206798D01*
X140687990Y-101545824D01*
X140503964Y-101989010D01*
X140503545Y-102468885D01*
X140207874Y-102468885D01*
X140207922Y-102414842D01*
X140053610Y-102041378D01*
X139768125Y-101755394D01*
X139394931Y-101600430D01*
X138990842Y-101600078D01*
X138617378Y-101754390D01*
X138331394Y-102039875D01*
X138176430Y-102413069D01*
X138176078Y-102817158D01*
X138330390Y-103190622D01*
X138517517Y-103378076D01*
X138331394Y-103563875D01*
X138176430Y-103937069D01*
X138176142Y-104267165D01*
X137870931Y-104140430D01*
X137466842Y-104140078D01*
X137093378Y-104294390D01*
X136905924Y-104481517D01*
X136720125Y-104295394D01*
X136346931Y-104140430D01*
X135942842Y-104140078D01*
X135647237Y-104262219D01*
X135649079Y-104256451D01*
X135615309Y-103853775D01*
X135526181Y-103638601D01*
X135368716Y-103570889D01*
X134799605Y-104140000D01*
X134813748Y-104154143D01*
X134634143Y-104333748D01*
X134620000Y-104319605D01*
X134050889Y-104888716D01*
X128700746Y-104888716D01*
X128700746Y-104023549D01*
X133590921Y-104023549D01*
X133624691Y-104426225D01*
X133713819Y-104641399D01*
X133871284Y-104709111D01*
X134440395Y-104140000D01*
X133871284Y-103570889D01*
X133713819Y-103638601D01*
X133590921Y-104023549D01*
X128700746Y-104023549D01*
X128700746Y-103391284D01*
X134050889Y-103391284D01*
X134620000Y-103960395D01*
X135189111Y-103391284D01*
X135121399Y-103233819D01*
X134736451Y-103110921D01*
X134333775Y-103144691D01*
X134118601Y-103233819D01*
X134050889Y-103391284D01*
X128700746Y-103391284D01*
X128700746Y-102348716D01*
X134050889Y-102348716D01*
X134118601Y-102506181D01*
X134503549Y-102629079D01*
X134906225Y-102595309D01*
X135121399Y-102506181D01*
X135189111Y-102348716D01*
X134620000Y-101779605D01*
X134050889Y-102348716D01*
X128700746Y-102348716D01*
X128700746Y-101483549D01*
X133590921Y-101483549D01*
X133624691Y-101886225D01*
X133713819Y-102101399D01*
X133871284Y-102169111D01*
X134440395Y-101600000D01*
X134799605Y-101600000D01*
X135368716Y-102169111D01*
X135526181Y-102101399D01*
X135649079Y-101716451D01*
X135615309Y-101313775D01*
X135526181Y-101098601D01*
X135368716Y-101030889D01*
X134799605Y-101600000D01*
X134440395Y-101600000D01*
X133871284Y-101030889D01*
X133713819Y-101098601D01*
X133590921Y-101483549D01*
X128700746Y-101483549D01*
X128700746Y-100851284D01*
X134050889Y-100851284D01*
X134620000Y-101420395D01*
X135189111Y-100851284D01*
X135121399Y-100693819D01*
X134736451Y-100570921D01*
X134333775Y-100604691D01*
X134118601Y-100693819D01*
X134050889Y-100851284D01*
X128700746Y-100851284D01*
X128700746Y-99808716D01*
X134050889Y-99808716D01*
X134118601Y-99966181D01*
X134503549Y-100089079D01*
X134906225Y-100055309D01*
X135121399Y-99966181D01*
X135189111Y-99808716D01*
X134620000Y-99239605D01*
X134050889Y-99808716D01*
X128700746Y-99808716D01*
X128700746Y-98943549D01*
X133590921Y-98943549D01*
X133624691Y-99346225D01*
X133713819Y-99561399D01*
X133871284Y-99629111D01*
X134440395Y-99060000D01*
X133871284Y-98490889D01*
X133713819Y-98558601D01*
X133590921Y-98943549D01*
X128700746Y-98943549D01*
X128700746Y-98311284D01*
X134050889Y-98311284D01*
X134620000Y-98880395D01*
X134634143Y-98866253D01*
X134813748Y-99045858D01*
X134799605Y-99060000D01*
X135368716Y-99629111D01*
X135526181Y-99561399D01*
X135649079Y-99176451D01*
X135628388Y-98929733D01*
X135941069Y-99059570D01*
X136345158Y-99059922D01*
X136718622Y-98905610D01*
X136906076Y-98718483D01*
X137091875Y-98904606D01*
X137465069Y-99059570D01*
X137869158Y-99059922D01*
X138176364Y-98932987D01*
X138176078Y-99261158D01*
X138330390Y-99634622D01*
X138517517Y-99822076D01*
X138331394Y-100007875D01*
X138176430Y-100381069D01*
X138176078Y-100785158D01*
X138330390Y-101158622D01*
X138615875Y-101444606D01*
X138989069Y-101599570D01*
X139393158Y-101599922D01*
X139766622Y-101445610D01*
X140052606Y-101160125D01*
X140207570Y-100786931D01*
X140207922Y-100382842D01*
X140053610Y-100009378D01*
X139973258Y-99928885D01*
X140503545Y-99928885D01*
X140686798Y-100372391D01*
X141025824Y-100712010D01*
X141469010Y-100896036D01*
X141948885Y-100896455D01*
X142392391Y-100713202D01*
X142732010Y-100374176D01*
X142916036Y-99930990D01*
X142916455Y-99451115D01*
X142733202Y-99007609D01*
X142394176Y-98667990D01*
X142372249Y-98658885D01*
X143043545Y-98658885D01*
X143226798Y-99102391D01*
X143565824Y-99442010D01*
X144009010Y-99626036D01*
X144488885Y-99626455D01*
X144932391Y-99443202D01*
X145272010Y-99104176D01*
X145456036Y-98660990D01*
X145456455Y-98181115D01*
X145319181Y-97848885D01*
X147043545Y-97848885D01*
X147226798Y-98292391D01*
X147565824Y-98632010D01*
X148009010Y-98816036D01*
X148488885Y-98816455D01*
X148932391Y-98633202D01*
X149229640Y-98336472D01*
X150693133Y-98336472D01*
X150927916Y-98635757D01*
X151807604Y-98986734D01*
X152754643Y-98974352D01*
X153572084Y-98635757D01*
X153806867Y-98336472D01*
X152250000Y-96779605D01*
X150693133Y-98336472D01*
X149229640Y-98336472D01*
X149272010Y-98294176D01*
X149456036Y-97850990D01*
X149456455Y-97371115D01*
X149273202Y-96927609D01*
X148934176Y-96587990D01*
X148490990Y-96403964D01*
X148011115Y-96403545D01*
X147567609Y-96586798D01*
X147227990Y-96925824D01*
X147043964Y-97369010D01*
X147043545Y-97848885D01*
X145319181Y-97848885D01*
X145273202Y-97737609D01*
X144934176Y-97397990D01*
X144490990Y-97213964D01*
X144011115Y-97213545D01*
X143567609Y-97396798D01*
X143227990Y-97735824D01*
X143043964Y-98179010D01*
X143043545Y-98658885D01*
X142372249Y-98658885D01*
X141950990Y-98483964D01*
X141471115Y-98483545D01*
X141027609Y-98666798D01*
X140687990Y-99005824D01*
X140503964Y-99449010D01*
X140503545Y-99928885D01*
X139973258Y-99928885D01*
X139866483Y-99821924D01*
X140052606Y-99636125D01*
X140207570Y-99262931D01*
X140207922Y-98858842D01*
X140053610Y-98485378D01*
X139768125Y-98199394D01*
X139394931Y-98044430D01*
X138990842Y-98044078D01*
X138683636Y-98171013D01*
X138683922Y-97842842D01*
X138529610Y-97469378D01*
X138449258Y-97388885D01*
X140503545Y-97388885D01*
X140686798Y-97832391D01*
X141025824Y-98172010D01*
X141469010Y-98356036D01*
X141948885Y-98356455D01*
X142392391Y-98173202D01*
X142732010Y-97834176D01*
X142916036Y-97390990D01*
X142916455Y-96911115D01*
X142733202Y-96467609D01*
X142394176Y-96127990D01*
X141950990Y-95943964D01*
X141471115Y-95943545D01*
X141027609Y-96126798D01*
X140687990Y-96465824D01*
X140503964Y-96909010D01*
X140503545Y-97388885D01*
X138449258Y-97388885D01*
X138244125Y-97183394D01*
X137870931Y-97028430D01*
X137466842Y-97028078D01*
X137093378Y-97182390D01*
X136905924Y-97369517D01*
X136720125Y-97183394D01*
X136346931Y-97028430D01*
X135942842Y-97028078D01*
X135569378Y-97182390D01*
X135283394Y-97467875D01*
X135128430Y-97841069D01*
X135128144Y-98169504D01*
X135121399Y-98153819D01*
X134736451Y-98030921D01*
X134333775Y-98064691D01*
X134118601Y-98153819D01*
X134050889Y-98311284D01*
X128700746Y-98311284D01*
X128700746Y-95639791D01*
X130111413Y-95639791D01*
X130410429Y-96363465D01*
X130963623Y-96917625D01*
X131686774Y-97217903D01*
X132469791Y-97218587D01*
X133193465Y-96919571D01*
X133747625Y-96366377D01*
X134047903Y-95643226D01*
X134048587Y-94860209D01*
X133749571Y-94136535D01*
X133196377Y-93582375D01*
X132473226Y-93282097D01*
X131690209Y-93281413D01*
X130966535Y-93580429D01*
X130412375Y-94133623D01*
X130112097Y-94856774D01*
X130111413Y-95639791D01*
X128700746Y-95639791D01*
X128700746Y-91870746D01*
X133173254Y-91870746D01*
X133173254Y-92456000D01*
M02*
