G04 #@! TF.GenerationSoftware,KiCad,Pcbnew,8.0.6*
G04 #@! TF.CreationDate,2025-01-19T09:44:14-05:00*
G04 #@! TF.ProjectId,rj45brkout,726a3435-6272-46b6-9f75-742e6b696361,v1.0.0*
G04 #@! TF.SameCoordinates,Original*
G04 #@! TF.FileFunction,Legend,Bot*
G04 #@! TF.FilePolarity,Positive*
%FSLAX46Y46*%
G04 Gerber Fmt 4.6, Leading zero omitted, Abs format (unit mm)*
G04 Created by KiCad (PCBNEW 8.0.6) date 2025-01-19 09:44:14*
%MOMM*%
%LPD*%
G01*
G04 APERTURE LIST*
G04 Aperture macros list*
%AMRoundRect*
0 Rectangle with rounded corners*
0 $1 Rounding radius*
0 $2 $3 $4 $5 $6 $7 $8 $9 X,Y pos of 4 corners*
0 Add a 4 corners polygon primitive as box body*
4,1,4,$2,$3,$4,$5,$6,$7,$8,$9,$2,$3,0*
0 Add four circle primitives for the rounded corners*
1,1,$1+$1,$2,$3*
1,1,$1+$1,$4,$5*
1,1,$1+$1,$6,$7*
1,1,$1+$1,$8,$9*
0 Add four rect primitives between the rounded corners*
20,1,$1+$1,$2,$3,$4,$5,0*
20,1,$1+$1,$4,$5,$6,$7,0*
20,1,$1+$1,$6,$7,$8,$9,0*
20,1,$1+$1,$8,$9,$2,$3,0*%
G04 Aperture macros list end*
%ADD10C,0.150000*%
%ADD11C,0.127000*%
%ADD12RoundRect,0.265385X0.610915X-0.610915X0.610915X0.610915X-0.610915X0.610915X-0.610915X-0.610915X0*%
%ADD13C,1.752600*%
%ADD14C,4.101600*%
%ADD15C,3.276600*%
%ADD16C,1.117600*%
%ADD17C,1.371600*%
G04 APERTURE END LIST*
D10*
X138303000Y-108712000D02*
X138557000Y-109220000D01*
X138303000Y-108712000D02*
X138303000Y-108458000D01*
X138049000Y-109220000D02*
X138303000Y-108712000D01*
X138557000Y-109220000D02*
X138049000Y-109220000D01*
X138303000Y-109220000D02*
X138303000Y-109474000D01*
X138557000Y-108712000D02*
X138049000Y-108712000D01*
X138049000Y-94488000D02*
X138303000Y-93980000D01*
X138303000Y-93980000D02*
X138303000Y-93726000D01*
X138303000Y-93980000D02*
X138557000Y-94488000D01*
X138557000Y-94488000D02*
X138049000Y-94488000D01*
X138557000Y-93980000D02*
X138049000Y-93980000D01*
X138303000Y-94488000D02*
X138303000Y-94742000D01*
D11*
X135718571Y-104370967D02*
X136061428Y-104370967D01*
X135889999Y-104370967D02*
X135889999Y-103770967D01*
X135889999Y-103770967D02*
X135947142Y-103856681D01*
X135947142Y-103856681D02*
X136004285Y-103913824D01*
X136004285Y-103913824D02*
X136061428Y-103942396D01*
X137331428Y-103868110D02*
X137302856Y-103839538D01*
X137302856Y-103839538D02*
X137245714Y-103810967D01*
X137245714Y-103810967D02*
X137102856Y-103810967D01*
X137102856Y-103810967D02*
X137045714Y-103839538D01*
X137045714Y-103839538D02*
X137017142Y-103868110D01*
X137017142Y-103868110D02*
X136988571Y-103925253D01*
X136988571Y-103925253D02*
X136988571Y-103982396D01*
X136988571Y-103982396D02*
X137017142Y-104068110D01*
X137017142Y-104068110D02*
X137359999Y-104410967D01*
X137359999Y-104410967D02*
X136988571Y-104410967D01*
X138449999Y-103302967D02*
X138078571Y-103302967D01*
X138078571Y-103302967D02*
X138278571Y-103531538D01*
X138278571Y-103531538D02*
X138192856Y-103531538D01*
X138192856Y-103531538D02*
X138135714Y-103560110D01*
X138135714Y-103560110D02*
X138107142Y-103588681D01*
X138107142Y-103588681D02*
X138078571Y-103645824D01*
X138078571Y-103645824D02*
X138078571Y-103788681D01*
X138078571Y-103788681D02*
X138107142Y-103845824D01*
X138107142Y-103845824D02*
X138135714Y-103874396D01*
X138135714Y-103874396D02*
X138192856Y-103902967D01*
X138192856Y-103902967D02*
X138364285Y-103902967D01*
X138364285Y-103902967D02*
X138421428Y-103874396D01*
X138421428Y-103874396D02*
X138449999Y-103845824D01*
X138188714Y-101778967D02*
X138302999Y-101778967D01*
X138302999Y-101778967D02*
X138360142Y-101807538D01*
X138360142Y-101807538D02*
X138388714Y-101836110D01*
X138388714Y-101836110D02*
X138445856Y-101921824D01*
X138445856Y-101921824D02*
X138474428Y-102036110D01*
X138474428Y-102036110D02*
X138474428Y-102264681D01*
X138474428Y-102264681D02*
X138445856Y-102321824D01*
X138445856Y-102321824D02*
X138417285Y-102350396D01*
X138417285Y-102350396D02*
X138360142Y-102378967D01*
X138360142Y-102378967D02*
X138245856Y-102378967D01*
X138245856Y-102378967D02*
X138188714Y-102350396D01*
X138188714Y-102350396D02*
X138160142Y-102321824D01*
X138160142Y-102321824D02*
X138131571Y-102264681D01*
X138131571Y-102264681D02*
X138131571Y-102121824D01*
X138131571Y-102121824D02*
X138160142Y-102064681D01*
X138160142Y-102064681D02*
X138188714Y-102036110D01*
X138188714Y-102036110D02*
X138245856Y-102007538D01*
X138245856Y-102007538D02*
X138360142Y-102007538D01*
X138360142Y-102007538D02*
X138417285Y-102036110D01*
X138417285Y-102036110D02*
X138445856Y-102064681D01*
X138445856Y-102064681D02*
X138474428Y-102121824D01*
X138188714Y-100962967D02*
X138188714Y-101362967D01*
X138331571Y-100734396D02*
X138474428Y-101162967D01*
X138474428Y-101162967D02*
X138102999Y-101162967D01*
X138160142Y-99492967D02*
X138445856Y-99492967D01*
X138445856Y-99492967D02*
X138474428Y-99778681D01*
X138474428Y-99778681D02*
X138445856Y-99750110D01*
X138445856Y-99750110D02*
X138388714Y-99721538D01*
X138388714Y-99721538D02*
X138245856Y-99721538D01*
X138245856Y-99721538D02*
X138188714Y-99750110D01*
X138188714Y-99750110D02*
X138160142Y-99778681D01*
X138160142Y-99778681D02*
X138131571Y-99835824D01*
X138131571Y-99835824D02*
X138131571Y-99978681D01*
X138131571Y-99978681D02*
X138160142Y-100035824D01*
X138160142Y-100035824D02*
X138188714Y-100064396D01*
X138188714Y-100064396D02*
X138245856Y-100092967D01*
X138245856Y-100092967D02*
X138388714Y-100092967D01*
X138388714Y-100092967D02*
X138445856Y-100064396D01*
X138445856Y-100064396D02*
X138474428Y-100035824D01*
X137359999Y-98770967D02*
X136959999Y-98770967D01*
X136959999Y-98770967D02*
X137217142Y-99370967D01*
X135947142Y-99078110D02*
X136004285Y-99049538D01*
X136004285Y-99049538D02*
X136032856Y-99020967D01*
X136032856Y-99020967D02*
X136061428Y-98963824D01*
X136061428Y-98963824D02*
X136061428Y-98935253D01*
X136061428Y-98935253D02*
X136032856Y-98878110D01*
X136032856Y-98878110D02*
X136004285Y-98849538D01*
X136004285Y-98849538D02*
X135947142Y-98820967D01*
X135947142Y-98820967D02*
X135832856Y-98820967D01*
X135832856Y-98820967D02*
X135775714Y-98849538D01*
X135775714Y-98849538D02*
X135747142Y-98878110D01*
X135747142Y-98878110D02*
X135718571Y-98935253D01*
X135718571Y-98935253D02*
X135718571Y-98963824D01*
X135718571Y-98963824D02*
X135747142Y-99020967D01*
X135747142Y-99020967D02*
X135775714Y-99049538D01*
X135775714Y-99049538D02*
X135832856Y-99078110D01*
X135832856Y-99078110D02*
X135947142Y-99078110D01*
X135947142Y-99078110D02*
X136004285Y-99106681D01*
X136004285Y-99106681D02*
X136032856Y-99135253D01*
X136032856Y-99135253D02*
X136061428Y-99192396D01*
X136061428Y-99192396D02*
X136061428Y-99306681D01*
X136061428Y-99306681D02*
X136032856Y-99363824D01*
X136032856Y-99363824D02*
X136004285Y-99392396D01*
X136004285Y-99392396D02*
X135947142Y-99420967D01*
X135947142Y-99420967D02*
X135832856Y-99420967D01*
X135832856Y-99420967D02*
X135775714Y-99392396D01*
X135775714Y-99392396D02*
X135747142Y-99363824D01*
X135747142Y-99363824D02*
X135718571Y-99306681D01*
X135718571Y-99306681D02*
X135718571Y-99192396D01*
X135718571Y-99192396D02*
X135747142Y-99135253D01*
X135747142Y-99135253D02*
X135775714Y-99106681D01*
X135775714Y-99106681D02*
X135832856Y-99078110D01*
D10*
X154288856Y-101388152D02*
X154050761Y-102054819D01*
X154050761Y-102054819D02*
X153812666Y-101388152D01*
X152907904Y-102054819D02*
X153479332Y-102054819D01*
X153193618Y-102054819D02*
X153193618Y-101054819D01*
X153193618Y-101054819D02*
X153288856Y-101197676D01*
X153288856Y-101197676D02*
X153384094Y-101292914D01*
X153384094Y-101292914D02*
X153479332Y-101340533D01*
X152479332Y-101959580D02*
X152431713Y-102007200D01*
X152431713Y-102007200D02*
X152479332Y-102054819D01*
X152479332Y-102054819D02*
X152526951Y-102007200D01*
X152526951Y-102007200D02*
X152479332Y-101959580D01*
X152479332Y-101959580D02*
X152479332Y-102054819D01*
X151812666Y-101054819D02*
X151717428Y-101054819D01*
X151717428Y-101054819D02*
X151622190Y-101102438D01*
X151622190Y-101102438D02*
X151574571Y-101150057D01*
X151574571Y-101150057D02*
X151526952Y-101245295D01*
X151526952Y-101245295D02*
X151479333Y-101435771D01*
X151479333Y-101435771D02*
X151479333Y-101673866D01*
X151479333Y-101673866D02*
X151526952Y-101864342D01*
X151526952Y-101864342D02*
X151574571Y-101959580D01*
X151574571Y-101959580D02*
X151622190Y-102007200D01*
X151622190Y-102007200D02*
X151717428Y-102054819D01*
X151717428Y-102054819D02*
X151812666Y-102054819D01*
X151812666Y-102054819D02*
X151907904Y-102007200D01*
X151907904Y-102007200D02*
X151955523Y-101959580D01*
X151955523Y-101959580D02*
X152003142Y-101864342D01*
X152003142Y-101864342D02*
X152050761Y-101673866D01*
X152050761Y-101673866D02*
X152050761Y-101435771D01*
X152050761Y-101435771D02*
X152003142Y-101245295D01*
X152003142Y-101245295D02*
X151955523Y-101150057D01*
X151955523Y-101150057D02*
X151907904Y-101102438D01*
X151907904Y-101102438D02*
X151812666Y-101054819D01*
X151050761Y-101959580D02*
X151003142Y-102007200D01*
X151003142Y-102007200D02*
X151050761Y-102054819D01*
X151050761Y-102054819D02*
X151098380Y-102007200D01*
X151098380Y-102007200D02*
X151050761Y-101959580D01*
X151050761Y-101959580D02*
X151050761Y-102054819D01*
X150384095Y-101054819D02*
X150288857Y-101054819D01*
X150288857Y-101054819D02*
X150193619Y-101102438D01*
X150193619Y-101102438D02*
X150146000Y-101150057D01*
X150146000Y-101150057D02*
X150098381Y-101245295D01*
X150098381Y-101245295D02*
X150050762Y-101435771D01*
X150050762Y-101435771D02*
X150050762Y-101673866D01*
X150050762Y-101673866D02*
X150098381Y-101864342D01*
X150098381Y-101864342D02*
X150146000Y-101959580D01*
X150146000Y-101959580D02*
X150193619Y-102007200D01*
X150193619Y-102007200D02*
X150288857Y-102054819D01*
X150288857Y-102054819D02*
X150384095Y-102054819D01*
X150384095Y-102054819D02*
X150479333Y-102007200D01*
X150479333Y-102007200D02*
X150526952Y-101959580D01*
X150526952Y-101959580D02*
X150574571Y-101864342D01*
X150574571Y-101864342D02*
X150622190Y-101673866D01*
X150622190Y-101673866D02*
X150622190Y-101435771D01*
X150622190Y-101435771D02*
X150574571Y-101245295D01*
X150574571Y-101245295D02*
X150526952Y-101150057D01*
X150526952Y-101150057D02*
X150479333Y-101102438D01*
X150479333Y-101102438D02*
X150384095Y-101054819D01*
X154042477Y-93418819D02*
X154375810Y-92942628D01*
X154613905Y-93418819D02*
X154613905Y-92418819D01*
X154613905Y-92418819D02*
X154232953Y-92418819D01*
X154232953Y-92418819D02*
X154137715Y-92466438D01*
X154137715Y-92466438D02*
X154090096Y-92514057D01*
X154090096Y-92514057D02*
X154042477Y-92609295D01*
X154042477Y-92609295D02*
X154042477Y-92752152D01*
X154042477Y-92752152D02*
X154090096Y-92847390D01*
X154090096Y-92847390D02*
X154137715Y-92895009D01*
X154137715Y-92895009D02*
X154232953Y-92942628D01*
X154232953Y-92942628D02*
X154613905Y-92942628D01*
X153328191Y-92418819D02*
X153328191Y-93133104D01*
X153328191Y-93133104D02*
X153375810Y-93275961D01*
X153375810Y-93275961D02*
X153471048Y-93371200D01*
X153471048Y-93371200D02*
X153613905Y-93418819D01*
X153613905Y-93418819D02*
X153709143Y-93418819D01*
X152423429Y-92752152D02*
X152423429Y-93418819D01*
X152661524Y-92371200D02*
X152899619Y-93085485D01*
X152899619Y-93085485D02*
X152280572Y-93085485D01*
X151423429Y-92418819D02*
X151899619Y-92418819D01*
X151899619Y-92418819D02*
X151947238Y-92895009D01*
X151947238Y-92895009D02*
X151899619Y-92847390D01*
X151899619Y-92847390D02*
X151804381Y-92799771D01*
X151804381Y-92799771D02*
X151566286Y-92799771D01*
X151566286Y-92799771D02*
X151471048Y-92847390D01*
X151471048Y-92847390D02*
X151423429Y-92895009D01*
X151423429Y-92895009D02*
X151375810Y-92990247D01*
X151375810Y-92990247D02*
X151375810Y-93228342D01*
X151375810Y-93228342D02*
X151423429Y-93323580D01*
X151423429Y-93323580D02*
X151471048Y-93371200D01*
X151471048Y-93371200D02*
X151566286Y-93418819D01*
X151566286Y-93418819D02*
X151804381Y-93418819D01*
X151804381Y-93418819D02*
X151899619Y-93371200D01*
X151899619Y-93371200D02*
X151947238Y-93323580D01*
X149852000Y-92895009D02*
X149709143Y-92942628D01*
X149709143Y-92942628D02*
X149661524Y-92990247D01*
X149661524Y-92990247D02*
X149613905Y-93085485D01*
X149613905Y-93085485D02*
X149613905Y-93228342D01*
X149613905Y-93228342D02*
X149661524Y-93323580D01*
X149661524Y-93323580D02*
X149709143Y-93371200D01*
X149709143Y-93371200D02*
X149804381Y-93418819D01*
X149804381Y-93418819D02*
X150185333Y-93418819D01*
X150185333Y-93418819D02*
X150185333Y-92418819D01*
X150185333Y-92418819D02*
X149852000Y-92418819D01*
X149852000Y-92418819D02*
X149756762Y-92466438D01*
X149756762Y-92466438D02*
X149709143Y-92514057D01*
X149709143Y-92514057D02*
X149661524Y-92609295D01*
X149661524Y-92609295D02*
X149661524Y-92704533D01*
X149661524Y-92704533D02*
X149709143Y-92799771D01*
X149709143Y-92799771D02*
X149756762Y-92847390D01*
X149756762Y-92847390D02*
X149852000Y-92895009D01*
X149852000Y-92895009D02*
X150185333Y-92895009D01*
X149185333Y-93418819D02*
X149185333Y-92752152D01*
X149185333Y-92942628D02*
X149137714Y-92847390D01*
X149137714Y-92847390D02*
X149090095Y-92799771D01*
X149090095Y-92799771D02*
X148994857Y-92752152D01*
X148994857Y-92752152D02*
X148899619Y-92752152D01*
X148185333Y-93371200D02*
X148280571Y-93418819D01*
X148280571Y-93418819D02*
X148471047Y-93418819D01*
X148471047Y-93418819D02*
X148566285Y-93371200D01*
X148566285Y-93371200D02*
X148613904Y-93275961D01*
X148613904Y-93275961D02*
X148613904Y-92895009D01*
X148613904Y-92895009D02*
X148566285Y-92799771D01*
X148566285Y-92799771D02*
X148471047Y-92752152D01*
X148471047Y-92752152D02*
X148280571Y-92752152D01*
X148280571Y-92752152D02*
X148185333Y-92799771D01*
X148185333Y-92799771D02*
X148137714Y-92895009D01*
X148137714Y-92895009D02*
X148137714Y-92990247D01*
X148137714Y-92990247D02*
X148613904Y-93085485D01*
X147280571Y-93418819D02*
X147280571Y-92895009D01*
X147280571Y-92895009D02*
X147328190Y-92799771D01*
X147328190Y-92799771D02*
X147423428Y-92752152D01*
X147423428Y-92752152D02*
X147613904Y-92752152D01*
X147613904Y-92752152D02*
X147709142Y-92799771D01*
X147280571Y-93371200D02*
X147375809Y-93418819D01*
X147375809Y-93418819D02*
X147613904Y-93418819D01*
X147613904Y-93418819D02*
X147709142Y-93371200D01*
X147709142Y-93371200D02*
X147756761Y-93275961D01*
X147756761Y-93275961D02*
X147756761Y-93180723D01*
X147756761Y-93180723D02*
X147709142Y-93085485D01*
X147709142Y-93085485D02*
X147613904Y-93037866D01*
X147613904Y-93037866D02*
X147375809Y-93037866D01*
X147375809Y-93037866D02*
X147280571Y-92990247D01*
X146804380Y-93418819D02*
X146804380Y-92418819D01*
X146709142Y-93037866D02*
X146423428Y-93418819D01*
X146423428Y-92752152D02*
X146804380Y-93133104D01*
X145851999Y-93418819D02*
X145947237Y-93371200D01*
X145947237Y-93371200D02*
X145994856Y-93323580D01*
X145994856Y-93323580D02*
X146042475Y-93228342D01*
X146042475Y-93228342D02*
X146042475Y-92942628D01*
X146042475Y-92942628D02*
X145994856Y-92847390D01*
X145994856Y-92847390D02*
X145947237Y-92799771D01*
X145947237Y-92799771D02*
X145851999Y-92752152D01*
X145851999Y-92752152D02*
X145709142Y-92752152D01*
X145709142Y-92752152D02*
X145613904Y-92799771D01*
X145613904Y-92799771D02*
X145566285Y-92847390D01*
X145566285Y-92847390D02*
X145518666Y-92942628D01*
X145518666Y-92942628D02*
X145518666Y-93228342D01*
X145518666Y-93228342D02*
X145566285Y-93323580D01*
X145566285Y-93323580D02*
X145613904Y-93371200D01*
X145613904Y-93371200D02*
X145709142Y-93418819D01*
X145709142Y-93418819D02*
X145851999Y-93418819D01*
X144661523Y-92752152D02*
X144661523Y-93418819D01*
X145090094Y-92752152D02*
X145090094Y-93275961D01*
X145090094Y-93275961D02*
X145042475Y-93371200D01*
X145042475Y-93371200D02*
X144947237Y-93418819D01*
X144947237Y-93418819D02*
X144804380Y-93418819D01*
X144804380Y-93418819D02*
X144709142Y-93371200D01*
X144709142Y-93371200D02*
X144661523Y-93323580D01*
X144328189Y-92752152D02*
X143947237Y-92752152D01*
X144185332Y-92418819D02*
X144185332Y-93275961D01*
X144185332Y-93275961D02*
X144137713Y-93371200D01*
X144137713Y-93371200D02*
X144042475Y-93418819D01*
X144042475Y-93418819D02*
X143947237Y-93418819D01*
D11*
X136830967Y-93055592D02*
X137430967Y-93198449D01*
X137430967Y-93198449D02*
X137002396Y-93312735D01*
X137002396Y-93312735D02*
X137430967Y-93427020D01*
X137430967Y-93427020D02*
X136830967Y-93569878D01*
X137430967Y-93798449D02*
X136830967Y-93798449D01*
X137116681Y-93798449D02*
X137116681Y-94141306D01*
X137430967Y-94141306D02*
X136830967Y-94141306D01*
X136830967Y-94341305D02*
X136830967Y-94684163D01*
X137430967Y-94512734D02*
X136830967Y-94512734D01*
X136802396Y-95312734D02*
X137573824Y-94798448D01*
X137116681Y-95712734D02*
X137145253Y-95798448D01*
X137145253Y-95798448D02*
X137173824Y-95827019D01*
X137173824Y-95827019D02*
X137230967Y-95855591D01*
X137230967Y-95855591D02*
X137316681Y-95855591D01*
X137316681Y-95855591D02*
X137373824Y-95827019D01*
X137373824Y-95827019D02*
X137402396Y-95798448D01*
X137402396Y-95798448D02*
X137430967Y-95741305D01*
X137430967Y-95741305D02*
X137430967Y-95512734D01*
X137430967Y-95512734D02*
X136830967Y-95512734D01*
X136830967Y-95512734D02*
X136830967Y-95712734D01*
X136830967Y-95712734D02*
X136859538Y-95769877D01*
X136859538Y-95769877D02*
X136888110Y-95798448D01*
X136888110Y-95798448D02*
X136945253Y-95827019D01*
X136945253Y-95827019D02*
X137002396Y-95827019D01*
X137002396Y-95827019D02*
X137059538Y-95798448D01*
X137059538Y-95798448D02*
X137088110Y-95769877D01*
X137088110Y-95769877D02*
X137116681Y-95712734D01*
X137116681Y-95712734D02*
X137116681Y-95512734D01*
X137430967Y-96455591D02*
X137145253Y-96255591D01*
X137430967Y-96112734D02*
X136830967Y-96112734D01*
X136830967Y-96112734D02*
X136830967Y-96341305D01*
X136830967Y-96341305D02*
X136859538Y-96398448D01*
X136859538Y-96398448D02*
X136888110Y-96427019D01*
X136888110Y-96427019D02*
X136945253Y-96455591D01*
X136945253Y-96455591D02*
X137030967Y-96455591D01*
X137030967Y-96455591D02*
X137088110Y-96427019D01*
X137088110Y-96427019D02*
X137116681Y-96398448D01*
X137116681Y-96398448D02*
X137145253Y-96341305D01*
X137145253Y-96341305D02*
X137145253Y-96112734D01*
X137430967Y-96712734D02*
X136830967Y-96712734D01*
X136830967Y-96712734D02*
X137430967Y-97055591D01*
X137430967Y-97055591D02*
X136830967Y-97055591D01*
X135592681Y-95712734D02*
X135621253Y-95798448D01*
X135621253Y-95798448D02*
X135649824Y-95827019D01*
X135649824Y-95827019D02*
X135706967Y-95855591D01*
X135706967Y-95855591D02*
X135792681Y-95855591D01*
X135792681Y-95855591D02*
X135849824Y-95827019D01*
X135849824Y-95827019D02*
X135878396Y-95798448D01*
X135878396Y-95798448D02*
X135906967Y-95741305D01*
X135906967Y-95741305D02*
X135906967Y-95512734D01*
X135906967Y-95512734D02*
X135306967Y-95512734D01*
X135306967Y-95512734D02*
X135306967Y-95712734D01*
X135306967Y-95712734D02*
X135335538Y-95769877D01*
X135335538Y-95769877D02*
X135364110Y-95798448D01*
X135364110Y-95798448D02*
X135421253Y-95827019D01*
X135421253Y-95827019D02*
X135478396Y-95827019D01*
X135478396Y-95827019D02*
X135535538Y-95798448D01*
X135535538Y-95798448D02*
X135564110Y-95769877D01*
X135564110Y-95769877D02*
X135592681Y-95712734D01*
X135592681Y-95712734D02*
X135592681Y-95512734D01*
X135906967Y-96455591D02*
X135621253Y-96255591D01*
X135906967Y-96112734D02*
X135306967Y-96112734D01*
X135306967Y-96112734D02*
X135306967Y-96341305D01*
X135306967Y-96341305D02*
X135335538Y-96398448D01*
X135335538Y-96398448D02*
X135364110Y-96427019D01*
X135364110Y-96427019D02*
X135421253Y-96455591D01*
X135421253Y-96455591D02*
X135506967Y-96455591D01*
X135506967Y-96455591D02*
X135564110Y-96427019D01*
X135564110Y-96427019D02*
X135592681Y-96398448D01*
X135592681Y-96398448D02*
X135621253Y-96341305D01*
X135621253Y-96341305D02*
X135621253Y-96112734D01*
X135906967Y-96712734D02*
X135306967Y-96712734D01*
X135306967Y-96712734D02*
X135906967Y-97055591D01*
X135906967Y-97055591D02*
X135306967Y-97055591D01*
X137625733Y-99746967D02*
X137482876Y-100346967D01*
X137482876Y-100346967D02*
X137368590Y-99918396D01*
X137368590Y-99918396D02*
X137254305Y-100346967D01*
X137254305Y-100346967D02*
X137111448Y-99746967D01*
X136882876Y-100346967D02*
X136882876Y-99746967D01*
X136882876Y-100032681D02*
X136540019Y-100032681D01*
X136540019Y-100346967D02*
X136540019Y-99746967D01*
X136340020Y-99746967D02*
X135997163Y-99746967D01*
X136168591Y-100346967D02*
X136168591Y-99746967D01*
X135368591Y-99718396D02*
X135882877Y-100489824D01*
X134968591Y-100032681D02*
X134882877Y-100061253D01*
X134882877Y-100061253D02*
X134854306Y-100089824D01*
X134854306Y-100089824D02*
X134825734Y-100146967D01*
X134825734Y-100146967D02*
X134825734Y-100232681D01*
X134825734Y-100232681D02*
X134854306Y-100289824D01*
X134854306Y-100289824D02*
X134882877Y-100318396D01*
X134882877Y-100318396D02*
X134940020Y-100346967D01*
X134940020Y-100346967D02*
X135168591Y-100346967D01*
X135168591Y-100346967D02*
X135168591Y-99746967D01*
X135168591Y-99746967D02*
X134968591Y-99746967D01*
X134968591Y-99746967D02*
X134911449Y-99775538D01*
X134911449Y-99775538D02*
X134882877Y-99804110D01*
X134882877Y-99804110D02*
X134854306Y-99861253D01*
X134854306Y-99861253D02*
X134854306Y-99918396D01*
X134854306Y-99918396D02*
X134882877Y-99975538D01*
X134882877Y-99975538D02*
X134911449Y-100004110D01*
X134911449Y-100004110D02*
X134968591Y-100032681D01*
X134968591Y-100032681D02*
X135168591Y-100032681D01*
X134282877Y-100346967D02*
X134568591Y-100346967D01*
X134568591Y-100346967D02*
X134568591Y-99746967D01*
X134082877Y-99746967D02*
X134082877Y-100232681D01*
X134082877Y-100232681D02*
X134054306Y-100289824D01*
X134054306Y-100289824D02*
X134025735Y-100318396D01*
X134025735Y-100318396D02*
X133968592Y-100346967D01*
X133968592Y-100346967D02*
X133854306Y-100346967D01*
X133854306Y-100346967D02*
X133797163Y-100318396D01*
X133797163Y-100318396D02*
X133768592Y-100289824D01*
X133768592Y-100289824D02*
X133740020Y-100232681D01*
X133740020Y-100232681D02*
X133740020Y-99746967D01*
X137368590Y-101048681D02*
X137282876Y-101077253D01*
X137282876Y-101077253D02*
X137254305Y-101105824D01*
X137254305Y-101105824D02*
X137225733Y-101162967D01*
X137225733Y-101162967D02*
X137225733Y-101248681D01*
X137225733Y-101248681D02*
X137254305Y-101305824D01*
X137254305Y-101305824D02*
X137282876Y-101334396D01*
X137282876Y-101334396D02*
X137340019Y-101362967D01*
X137340019Y-101362967D02*
X137568590Y-101362967D01*
X137568590Y-101362967D02*
X137568590Y-100762967D01*
X137568590Y-100762967D02*
X137368590Y-100762967D01*
X137368590Y-100762967D02*
X137311448Y-100791538D01*
X137311448Y-100791538D02*
X137282876Y-100820110D01*
X137282876Y-100820110D02*
X137254305Y-100877253D01*
X137254305Y-100877253D02*
X137254305Y-100934396D01*
X137254305Y-100934396D02*
X137282876Y-100991538D01*
X137282876Y-100991538D02*
X137311448Y-101020110D01*
X137311448Y-101020110D02*
X137368590Y-101048681D01*
X137368590Y-101048681D02*
X137568590Y-101048681D01*
X136682876Y-101362967D02*
X136968590Y-101362967D01*
X136968590Y-101362967D02*
X136968590Y-100762967D01*
X136482876Y-100762967D02*
X136482876Y-101248681D01*
X136482876Y-101248681D02*
X136454305Y-101305824D01*
X136454305Y-101305824D02*
X136425734Y-101334396D01*
X136425734Y-101334396D02*
X136368591Y-101362967D01*
X136368591Y-101362967D02*
X136254305Y-101362967D01*
X136254305Y-101362967D02*
X136197162Y-101334396D01*
X136197162Y-101334396D02*
X136168591Y-101305824D01*
X136168591Y-101305824D02*
X136140019Y-101248681D01*
X136140019Y-101248681D02*
X136140019Y-100762967D01*
X137254305Y-101807538D02*
X137311448Y-101778967D01*
X137311448Y-101778967D02*
X137397162Y-101778967D01*
X137397162Y-101778967D02*
X137482876Y-101807538D01*
X137482876Y-101807538D02*
X137540019Y-101864681D01*
X137540019Y-101864681D02*
X137568590Y-101921824D01*
X137568590Y-101921824D02*
X137597162Y-102036110D01*
X137597162Y-102036110D02*
X137597162Y-102121824D01*
X137597162Y-102121824D02*
X137568590Y-102236110D01*
X137568590Y-102236110D02*
X137540019Y-102293253D01*
X137540019Y-102293253D02*
X137482876Y-102350396D01*
X137482876Y-102350396D02*
X137397162Y-102378967D01*
X137397162Y-102378967D02*
X137340019Y-102378967D01*
X137340019Y-102378967D02*
X137254305Y-102350396D01*
X137254305Y-102350396D02*
X137225733Y-102321824D01*
X137225733Y-102321824D02*
X137225733Y-102121824D01*
X137225733Y-102121824D02*
X137340019Y-102121824D01*
X136625733Y-102378967D02*
X136825733Y-102093253D01*
X136968590Y-102378967D02*
X136968590Y-101778967D01*
X136968590Y-101778967D02*
X136740019Y-101778967D01*
X136740019Y-101778967D02*
X136682876Y-101807538D01*
X136682876Y-101807538D02*
X136654305Y-101836110D01*
X136654305Y-101836110D02*
X136625733Y-101893253D01*
X136625733Y-101893253D02*
X136625733Y-101978967D01*
X136625733Y-101978967D02*
X136654305Y-102036110D01*
X136654305Y-102036110D02*
X136682876Y-102064681D01*
X136682876Y-102064681D02*
X136740019Y-102093253D01*
X136740019Y-102093253D02*
X136968590Y-102093253D01*
X136368590Y-102378967D02*
X136368590Y-101778967D01*
X136368590Y-101778967D02*
X136025733Y-102378967D01*
X136025733Y-102378967D02*
X136025733Y-101778967D01*
X137625733Y-102794967D02*
X137482876Y-103394967D01*
X137482876Y-103394967D02*
X137368590Y-102966396D01*
X137368590Y-102966396D02*
X137254305Y-103394967D01*
X137254305Y-103394967D02*
X137111448Y-102794967D01*
X136882876Y-103394967D02*
X136882876Y-102794967D01*
X136882876Y-103080681D02*
X136540019Y-103080681D01*
X136540019Y-103394967D02*
X136540019Y-102794967D01*
X136340020Y-102794967D02*
X135997163Y-102794967D01*
X136168591Y-103394967D02*
X136168591Y-102794967D01*
X135368591Y-102766396D02*
X135882877Y-103537824D01*
X134854306Y-102823538D02*
X134911449Y-102794967D01*
X134911449Y-102794967D02*
X134997163Y-102794967D01*
X134997163Y-102794967D02*
X135082877Y-102823538D01*
X135082877Y-102823538D02*
X135140020Y-102880681D01*
X135140020Y-102880681D02*
X135168591Y-102937824D01*
X135168591Y-102937824D02*
X135197163Y-103052110D01*
X135197163Y-103052110D02*
X135197163Y-103137824D01*
X135197163Y-103137824D02*
X135168591Y-103252110D01*
X135168591Y-103252110D02*
X135140020Y-103309253D01*
X135140020Y-103309253D02*
X135082877Y-103366396D01*
X135082877Y-103366396D02*
X134997163Y-103394967D01*
X134997163Y-103394967D02*
X134940020Y-103394967D01*
X134940020Y-103394967D02*
X134854306Y-103366396D01*
X134854306Y-103366396D02*
X134825734Y-103337824D01*
X134825734Y-103337824D02*
X134825734Y-103137824D01*
X134825734Y-103137824D02*
X134940020Y-103137824D01*
X134225734Y-103394967D02*
X134425734Y-103109253D01*
X134568591Y-103394967D02*
X134568591Y-102794967D01*
X134568591Y-102794967D02*
X134340020Y-102794967D01*
X134340020Y-102794967D02*
X134282877Y-102823538D01*
X134282877Y-102823538D02*
X134254306Y-102852110D01*
X134254306Y-102852110D02*
X134225734Y-102909253D01*
X134225734Y-102909253D02*
X134225734Y-102994967D01*
X134225734Y-102994967D02*
X134254306Y-103052110D01*
X134254306Y-103052110D02*
X134282877Y-103080681D01*
X134282877Y-103080681D02*
X134340020Y-103109253D01*
X134340020Y-103109253D02*
X134568591Y-103109253D01*
X133968591Y-103394967D02*
X133968591Y-102794967D01*
X133968591Y-102794967D02*
X133625734Y-103394967D01*
X133625734Y-103394967D02*
X133625734Y-102794967D01*
X135306967Y-106087266D02*
X135906967Y-106230123D01*
X135906967Y-106230123D02*
X135478396Y-106344409D01*
X135478396Y-106344409D02*
X135906967Y-106458694D01*
X135906967Y-106458694D02*
X135306967Y-106601552D01*
X135906967Y-106830123D02*
X135306967Y-106830123D01*
X135592681Y-106830123D02*
X135592681Y-107172980D01*
X135906967Y-107172980D02*
X135306967Y-107172980D01*
X135306967Y-107372979D02*
X135306967Y-107715837D01*
X135906967Y-107544408D02*
X135306967Y-107544408D01*
X135278396Y-108344408D02*
X136049824Y-107830122D01*
X135306967Y-108658693D02*
X135306967Y-108772979D01*
X135306967Y-108772979D02*
X135335538Y-108830122D01*
X135335538Y-108830122D02*
X135392681Y-108887265D01*
X135392681Y-108887265D02*
X135506967Y-108915836D01*
X135506967Y-108915836D02*
X135706967Y-108915836D01*
X135706967Y-108915836D02*
X135821253Y-108887265D01*
X135821253Y-108887265D02*
X135878396Y-108830122D01*
X135878396Y-108830122D02*
X135906967Y-108772979D01*
X135906967Y-108772979D02*
X135906967Y-108658693D01*
X135906967Y-108658693D02*
X135878396Y-108601551D01*
X135878396Y-108601551D02*
X135821253Y-108544408D01*
X135821253Y-108544408D02*
X135706967Y-108515836D01*
X135706967Y-108515836D02*
X135506967Y-108515836D01*
X135506967Y-108515836D02*
X135392681Y-108544408D01*
X135392681Y-108544408D02*
X135335538Y-108601551D01*
X135335538Y-108601551D02*
X135306967Y-108658693D01*
X135906967Y-109515836D02*
X135621253Y-109315836D01*
X135906967Y-109172979D02*
X135306967Y-109172979D01*
X135306967Y-109172979D02*
X135306967Y-109401550D01*
X135306967Y-109401550D02*
X135335538Y-109458693D01*
X135335538Y-109458693D02*
X135364110Y-109487264D01*
X135364110Y-109487264D02*
X135421253Y-109515836D01*
X135421253Y-109515836D02*
X135506967Y-109515836D01*
X135506967Y-109515836D02*
X135564110Y-109487264D01*
X135564110Y-109487264D02*
X135592681Y-109458693D01*
X135592681Y-109458693D02*
X135621253Y-109401550D01*
X135621253Y-109401550D02*
X135621253Y-109172979D01*
X135335538Y-110087264D02*
X135306967Y-110030122D01*
X135306967Y-110030122D02*
X135306967Y-109944407D01*
X135306967Y-109944407D02*
X135335538Y-109858693D01*
X135335538Y-109858693D02*
X135392681Y-109801550D01*
X135392681Y-109801550D02*
X135449824Y-109772979D01*
X135449824Y-109772979D02*
X135564110Y-109744407D01*
X135564110Y-109744407D02*
X135649824Y-109744407D01*
X135649824Y-109744407D02*
X135764110Y-109772979D01*
X135764110Y-109772979D02*
X135821253Y-109801550D01*
X135821253Y-109801550D02*
X135878396Y-109858693D01*
X135878396Y-109858693D02*
X135906967Y-109944407D01*
X135906967Y-109944407D02*
X135906967Y-110001550D01*
X135906967Y-110001550D02*
X135878396Y-110087264D01*
X135878396Y-110087264D02*
X135849824Y-110115836D01*
X135849824Y-110115836D02*
X135649824Y-110115836D01*
X135649824Y-110115836D02*
X135649824Y-110001550D01*
X136830967Y-106258694D02*
X136830967Y-106372980D01*
X136830967Y-106372980D02*
X136859538Y-106430123D01*
X136859538Y-106430123D02*
X136916681Y-106487266D01*
X136916681Y-106487266D02*
X137030967Y-106515837D01*
X137030967Y-106515837D02*
X137230967Y-106515837D01*
X137230967Y-106515837D02*
X137345253Y-106487266D01*
X137345253Y-106487266D02*
X137402396Y-106430123D01*
X137402396Y-106430123D02*
X137430967Y-106372980D01*
X137430967Y-106372980D02*
X137430967Y-106258694D01*
X137430967Y-106258694D02*
X137402396Y-106201552D01*
X137402396Y-106201552D02*
X137345253Y-106144409D01*
X137345253Y-106144409D02*
X137230967Y-106115837D01*
X137230967Y-106115837D02*
X137030967Y-106115837D01*
X137030967Y-106115837D02*
X136916681Y-106144409D01*
X136916681Y-106144409D02*
X136859538Y-106201552D01*
X136859538Y-106201552D02*
X136830967Y-106258694D01*
X137430967Y-107115837D02*
X137145253Y-106915837D01*
X137430967Y-106772980D02*
X136830967Y-106772980D01*
X136830967Y-106772980D02*
X136830967Y-107001551D01*
X136830967Y-107001551D02*
X136859538Y-107058694D01*
X136859538Y-107058694D02*
X136888110Y-107087265D01*
X136888110Y-107087265D02*
X136945253Y-107115837D01*
X136945253Y-107115837D02*
X137030967Y-107115837D01*
X137030967Y-107115837D02*
X137088110Y-107087265D01*
X137088110Y-107087265D02*
X137116681Y-107058694D01*
X137116681Y-107058694D02*
X137145253Y-107001551D01*
X137145253Y-107001551D02*
X137145253Y-106772980D01*
X136859538Y-107687265D02*
X136830967Y-107630123D01*
X136830967Y-107630123D02*
X136830967Y-107544408D01*
X136830967Y-107544408D02*
X136859538Y-107458694D01*
X136859538Y-107458694D02*
X136916681Y-107401551D01*
X136916681Y-107401551D02*
X136973824Y-107372980D01*
X136973824Y-107372980D02*
X137088110Y-107344408D01*
X137088110Y-107344408D02*
X137173824Y-107344408D01*
X137173824Y-107344408D02*
X137288110Y-107372980D01*
X137288110Y-107372980D02*
X137345253Y-107401551D01*
X137345253Y-107401551D02*
X137402396Y-107458694D01*
X137402396Y-107458694D02*
X137430967Y-107544408D01*
X137430967Y-107544408D02*
X137430967Y-107601551D01*
X137430967Y-107601551D02*
X137402396Y-107687265D01*
X137402396Y-107687265D02*
X137373824Y-107715837D01*
X137373824Y-107715837D02*
X137173824Y-107715837D01*
X137173824Y-107715837D02*
X137173824Y-107601551D01*
X133317305Y-103839538D02*
X133374448Y-103810967D01*
X133374448Y-103810967D02*
X133460162Y-103810967D01*
X133460162Y-103810967D02*
X133545876Y-103839538D01*
X133545876Y-103839538D02*
X133603019Y-103896681D01*
X133603019Y-103896681D02*
X133631590Y-103953824D01*
X133631590Y-103953824D02*
X133660162Y-104068110D01*
X133660162Y-104068110D02*
X133660162Y-104153824D01*
X133660162Y-104153824D02*
X133631590Y-104268110D01*
X133631590Y-104268110D02*
X133603019Y-104325253D01*
X133603019Y-104325253D02*
X133545876Y-104382396D01*
X133545876Y-104382396D02*
X133460162Y-104410967D01*
X133460162Y-104410967D02*
X133403019Y-104410967D01*
X133403019Y-104410967D02*
X133317305Y-104382396D01*
X133317305Y-104382396D02*
X133288733Y-104353824D01*
X133288733Y-104353824D02*
X133288733Y-104153824D01*
X133288733Y-104153824D02*
X133403019Y-104153824D01*
X133031590Y-104410967D02*
X133031590Y-103810967D01*
X133031590Y-103810967D02*
X132688733Y-104410967D01*
X132688733Y-104410967D02*
X132688733Y-103810967D01*
X132403019Y-104410967D02*
X132403019Y-103810967D01*
X132403019Y-103810967D02*
X132260162Y-103810967D01*
X132260162Y-103810967D02*
X132174448Y-103839538D01*
X132174448Y-103839538D02*
X132117305Y-103896681D01*
X132117305Y-103896681D02*
X132088734Y-103953824D01*
X132088734Y-103953824D02*
X132060162Y-104068110D01*
X132060162Y-104068110D02*
X132060162Y-104153824D01*
X132060162Y-104153824D02*
X132088734Y-104268110D01*
X132088734Y-104268110D02*
X132117305Y-104325253D01*
X132117305Y-104325253D02*
X132174448Y-104382396D01*
X132174448Y-104382396D02*
X132260162Y-104410967D01*
X132260162Y-104410967D02*
X132403019Y-104410967D01*
X133317305Y-101299538D02*
X133374448Y-101270967D01*
X133374448Y-101270967D02*
X133460162Y-101270967D01*
X133460162Y-101270967D02*
X133545876Y-101299538D01*
X133545876Y-101299538D02*
X133603019Y-101356681D01*
X133603019Y-101356681D02*
X133631590Y-101413824D01*
X133631590Y-101413824D02*
X133660162Y-101528110D01*
X133660162Y-101528110D02*
X133660162Y-101613824D01*
X133660162Y-101613824D02*
X133631590Y-101728110D01*
X133631590Y-101728110D02*
X133603019Y-101785253D01*
X133603019Y-101785253D02*
X133545876Y-101842396D01*
X133545876Y-101842396D02*
X133460162Y-101870967D01*
X133460162Y-101870967D02*
X133403019Y-101870967D01*
X133403019Y-101870967D02*
X133317305Y-101842396D01*
X133317305Y-101842396D02*
X133288733Y-101813824D01*
X133288733Y-101813824D02*
X133288733Y-101613824D01*
X133288733Y-101613824D02*
X133403019Y-101613824D01*
X133031590Y-101870967D02*
X133031590Y-101270967D01*
X133031590Y-101270967D02*
X132688733Y-101870967D01*
X132688733Y-101870967D02*
X132688733Y-101270967D01*
X132403019Y-101870967D02*
X132403019Y-101270967D01*
X132403019Y-101270967D02*
X132260162Y-101270967D01*
X132260162Y-101270967D02*
X132174448Y-101299538D01*
X132174448Y-101299538D02*
X132117305Y-101356681D01*
X132117305Y-101356681D02*
X132088734Y-101413824D01*
X132088734Y-101413824D02*
X132060162Y-101528110D01*
X132060162Y-101528110D02*
X132060162Y-101613824D01*
X132060162Y-101613824D02*
X132088734Y-101728110D01*
X132088734Y-101728110D02*
X132117305Y-101785253D01*
X132117305Y-101785253D02*
X132174448Y-101842396D01*
X132174448Y-101842396D02*
X132260162Y-101870967D01*
X132260162Y-101870967D02*
X132403019Y-101870967D01*
X133317305Y-98759538D02*
X133374448Y-98730967D01*
X133374448Y-98730967D02*
X133460162Y-98730967D01*
X133460162Y-98730967D02*
X133545876Y-98759538D01*
X133545876Y-98759538D02*
X133603019Y-98816681D01*
X133603019Y-98816681D02*
X133631590Y-98873824D01*
X133631590Y-98873824D02*
X133660162Y-98988110D01*
X133660162Y-98988110D02*
X133660162Y-99073824D01*
X133660162Y-99073824D02*
X133631590Y-99188110D01*
X133631590Y-99188110D02*
X133603019Y-99245253D01*
X133603019Y-99245253D02*
X133545876Y-99302396D01*
X133545876Y-99302396D02*
X133460162Y-99330967D01*
X133460162Y-99330967D02*
X133403019Y-99330967D01*
X133403019Y-99330967D02*
X133317305Y-99302396D01*
X133317305Y-99302396D02*
X133288733Y-99273824D01*
X133288733Y-99273824D02*
X133288733Y-99073824D01*
X133288733Y-99073824D02*
X133403019Y-99073824D01*
X133031590Y-99330967D02*
X133031590Y-98730967D01*
X133031590Y-98730967D02*
X132688733Y-99330967D01*
X132688733Y-99330967D02*
X132688733Y-98730967D01*
X132403019Y-99330967D02*
X132403019Y-98730967D01*
X132403019Y-98730967D02*
X132260162Y-98730967D01*
X132260162Y-98730967D02*
X132174448Y-98759538D01*
X132174448Y-98759538D02*
X132117305Y-98816681D01*
X132117305Y-98816681D02*
X132088734Y-98873824D01*
X132088734Y-98873824D02*
X132060162Y-98988110D01*
X132060162Y-98988110D02*
X132060162Y-99073824D01*
X132060162Y-99073824D02*
X132088734Y-99188110D01*
X132088734Y-99188110D02*
X132117305Y-99245253D01*
X132117305Y-99245253D02*
X132174448Y-99302396D01*
X132174448Y-99302396D02*
X132260162Y-99330967D01*
X132260162Y-99330967D02*
X132403019Y-99330967D01*
D10*
X154202572Y-110598295D02*
X154202572Y-109798295D01*
X154202572Y-110560200D02*
X154278763Y-110598295D01*
X154278763Y-110598295D02*
X154431144Y-110598295D01*
X154431144Y-110598295D02*
X154507334Y-110560200D01*
X154507334Y-110560200D02*
X154545429Y-110522104D01*
X154545429Y-110522104D02*
X154583525Y-110445914D01*
X154583525Y-110445914D02*
X154583525Y-110217342D01*
X154583525Y-110217342D02*
X154545429Y-110141152D01*
X154545429Y-110141152D02*
X154507334Y-110103057D01*
X154507334Y-110103057D02*
X154431144Y-110064961D01*
X154431144Y-110064961D02*
X154278763Y-110064961D01*
X154278763Y-110064961D02*
X154202572Y-110103057D01*
X153859715Y-110560200D02*
X153783524Y-110598295D01*
X153783524Y-110598295D02*
X153631143Y-110598295D01*
X153631143Y-110598295D02*
X153554953Y-110560200D01*
X153554953Y-110560200D02*
X153516857Y-110484009D01*
X153516857Y-110484009D02*
X153516857Y-110445914D01*
X153516857Y-110445914D02*
X153554953Y-110369723D01*
X153554953Y-110369723D02*
X153631143Y-110331628D01*
X153631143Y-110331628D02*
X153745429Y-110331628D01*
X153745429Y-110331628D02*
X153821619Y-110293533D01*
X153821619Y-110293533D02*
X153859715Y-110217342D01*
X153859715Y-110217342D02*
X153859715Y-110179247D01*
X153859715Y-110179247D02*
X153821619Y-110103057D01*
X153821619Y-110103057D02*
X153745429Y-110064961D01*
X153745429Y-110064961D02*
X153631143Y-110064961D01*
X153631143Y-110064961D02*
X153554953Y-110103057D01*
X152831143Y-110064961D02*
X152831143Y-110598295D01*
X153174000Y-110064961D02*
X153174000Y-110484009D01*
X153174000Y-110484009D02*
X153135905Y-110560200D01*
X153135905Y-110560200D02*
X153059715Y-110598295D01*
X153059715Y-110598295D02*
X152945429Y-110598295D01*
X152945429Y-110598295D02*
X152869238Y-110560200D01*
X152869238Y-110560200D02*
X152831143Y-110522104D01*
X152450190Y-110064961D02*
X152450190Y-110598295D01*
X152450190Y-110141152D02*
X152412095Y-110103057D01*
X152412095Y-110103057D02*
X152335905Y-110064961D01*
X152335905Y-110064961D02*
X152221619Y-110064961D01*
X152221619Y-110064961D02*
X152145428Y-110103057D01*
X152145428Y-110103057D02*
X152107333Y-110179247D01*
X152107333Y-110179247D02*
X152107333Y-110598295D01*
X151802571Y-109798295D02*
X151269237Y-109798295D01*
X151269237Y-109798295D02*
X151612095Y-110598295D01*
X150621618Y-110560200D02*
X150697809Y-110598295D01*
X150697809Y-110598295D02*
X150850190Y-110598295D01*
X150850190Y-110598295D02*
X150926380Y-110560200D01*
X150926380Y-110560200D02*
X150964475Y-110522104D01*
X150964475Y-110522104D02*
X151002571Y-110445914D01*
X151002571Y-110445914D02*
X151002571Y-110217342D01*
X151002571Y-110217342D02*
X150964475Y-110141152D01*
X150964475Y-110141152D02*
X150926380Y-110103057D01*
X150926380Y-110103057D02*
X150850190Y-110064961D01*
X150850190Y-110064961D02*
X150697809Y-110064961D01*
X150697809Y-110064961D02*
X150621618Y-110103057D01*
X149935904Y-110064961D02*
X149935904Y-110598295D01*
X150126380Y-109760200D02*
X150316857Y-110331628D01*
X150316857Y-110331628D02*
X149821618Y-110331628D01*
X149402571Y-110598295D02*
X149478761Y-110560200D01*
X149478761Y-110560200D02*
X149516856Y-110522104D01*
X149516856Y-110522104D02*
X149554952Y-110445914D01*
X149554952Y-110445914D02*
X149554952Y-110217342D01*
X149554952Y-110217342D02*
X149516856Y-110141152D01*
X149516856Y-110141152D02*
X149478761Y-110103057D01*
X149478761Y-110103057D02*
X149402571Y-110064961D01*
X149402571Y-110064961D02*
X149288285Y-110064961D01*
X149288285Y-110064961D02*
X149212094Y-110103057D01*
X149212094Y-110103057D02*
X149173999Y-110141152D01*
X149173999Y-110141152D02*
X149135904Y-110217342D01*
X149135904Y-110217342D02*
X149135904Y-110445914D01*
X149135904Y-110445914D02*
X149173999Y-110522104D01*
X149173999Y-110522104D02*
X149212094Y-110560200D01*
X149212094Y-110560200D02*
X149288285Y-110598295D01*
X149288285Y-110598295D02*
X149402571Y-110598295D01*
X148831142Y-110560200D02*
X148754951Y-110598295D01*
X148754951Y-110598295D02*
X148602570Y-110598295D01*
X148602570Y-110598295D02*
X148526380Y-110560200D01*
X148526380Y-110560200D02*
X148488284Y-110484009D01*
X148488284Y-110484009D02*
X148488284Y-110445914D01*
X148488284Y-110445914D02*
X148526380Y-110369723D01*
X148526380Y-110369723D02*
X148602570Y-110331628D01*
X148602570Y-110331628D02*
X148716856Y-110331628D01*
X148716856Y-110331628D02*
X148793046Y-110293533D01*
X148793046Y-110293533D02*
X148831142Y-110217342D01*
X148831142Y-110217342D02*
X148831142Y-110179247D01*
X148831142Y-110179247D02*
X148793046Y-110103057D01*
X148793046Y-110103057D02*
X148716856Y-110064961D01*
X148716856Y-110064961D02*
X148602570Y-110064961D01*
X148602570Y-110064961D02*
X148526380Y-110103057D01*
X148145427Y-110598295D02*
X148145427Y-109798295D01*
X147802570Y-110598295D02*
X147802570Y-110179247D01*
X147802570Y-110179247D02*
X147840665Y-110103057D01*
X147840665Y-110103057D02*
X147916856Y-110064961D01*
X147916856Y-110064961D02*
X148031142Y-110064961D01*
X148031142Y-110064961D02*
X148107332Y-110103057D01*
X148107332Y-110103057D02*
X148145427Y-110141152D01*
X146926379Y-110217342D02*
X146964474Y-110179247D01*
X146964474Y-110179247D02*
X147040665Y-110141152D01*
X147040665Y-110141152D02*
X147116855Y-110141152D01*
X147116855Y-110141152D02*
X147193046Y-110179247D01*
X147193046Y-110179247D02*
X147231141Y-110217342D01*
X147231141Y-110217342D02*
X147269236Y-110293533D01*
X147269236Y-110293533D02*
X147269236Y-110369723D01*
X147269236Y-110369723D02*
X147231141Y-110445914D01*
X147231141Y-110445914D02*
X147193046Y-110484009D01*
X147193046Y-110484009D02*
X147116855Y-110522104D01*
X147116855Y-110522104D02*
X147040665Y-110522104D01*
X147040665Y-110522104D02*
X146964474Y-110484009D01*
X146964474Y-110484009D02*
X146926379Y-110445914D01*
X146926379Y-110141152D02*
X146926379Y-110445914D01*
X146926379Y-110445914D02*
X146888284Y-110484009D01*
X146888284Y-110484009D02*
X146850189Y-110484009D01*
X146850189Y-110484009D02*
X146773998Y-110445914D01*
X146773998Y-110445914D02*
X146735903Y-110369723D01*
X146735903Y-110369723D02*
X146735903Y-110179247D01*
X146735903Y-110179247D02*
X146812094Y-110064961D01*
X146812094Y-110064961D02*
X146926379Y-109988771D01*
X146926379Y-109988771D02*
X147078760Y-109950676D01*
X147078760Y-109950676D02*
X147231141Y-109988771D01*
X147231141Y-109988771D02*
X147345427Y-110064961D01*
X147345427Y-110064961D02*
X147421617Y-110179247D01*
X147421617Y-110179247D02*
X147459713Y-110331628D01*
X147459713Y-110331628D02*
X147421617Y-110484009D01*
X147421617Y-110484009D02*
X147345427Y-110598295D01*
X147345427Y-110598295D02*
X147231141Y-110674485D01*
X147231141Y-110674485D02*
X147078760Y-110712580D01*
X147078760Y-110712580D02*
X146926379Y-110674485D01*
X146926379Y-110674485D02*
X146812094Y-110598295D01*
X146050189Y-110064961D02*
X146050189Y-110712580D01*
X146050189Y-110712580D02*
X146088284Y-110788771D01*
X146088284Y-110788771D02*
X146126380Y-110826866D01*
X146126380Y-110826866D02*
X146202570Y-110864961D01*
X146202570Y-110864961D02*
X146316856Y-110864961D01*
X146316856Y-110864961D02*
X146393046Y-110826866D01*
X146050189Y-110560200D02*
X146126380Y-110598295D01*
X146126380Y-110598295D02*
X146278761Y-110598295D01*
X146278761Y-110598295D02*
X146354951Y-110560200D01*
X146354951Y-110560200D02*
X146393046Y-110522104D01*
X146393046Y-110522104D02*
X146431142Y-110445914D01*
X146431142Y-110445914D02*
X146431142Y-110217342D01*
X146431142Y-110217342D02*
X146393046Y-110141152D01*
X146393046Y-110141152D02*
X146354951Y-110103057D01*
X146354951Y-110103057D02*
X146278761Y-110064961D01*
X146278761Y-110064961D02*
X146126380Y-110064961D01*
X146126380Y-110064961D02*
X146050189Y-110103057D01*
X145669236Y-110598295D02*
X145669236Y-110064961D01*
X145669236Y-110141152D02*
X145631141Y-110103057D01*
X145631141Y-110103057D02*
X145554951Y-110064961D01*
X145554951Y-110064961D02*
X145440665Y-110064961D01*
X145440665Y-110064961D02*
X145364474Y-110103057D01*
X145364474Y-110103057D02*
X145326379Y-110179247D01*
X145326379Y-110179247D02*
X145326379Y-110598295D01*
X145326379Y-110179247D02*
X145288284Y-110103057D01*
X145288284Y-110103057D02*
X145212093Y-110064961D01*
X145212093Y-110064961D02*
X145097808Y-110064961D01*
X145097808Y-110064961D02*
X145021617Y-110103057D01*
X145021617Y-110103057D02*
X144983522Y-110179247D01*
X144983522Y-110179247D02*
X144983522Y-110598295D01*
X144259712Y-110598295D02*
X144259712Y-110179247D01*
X144259712Y-110179247D02*
X144297807Y-110103057D01*
X144297807Y-110103057D02*
X144373998Y-110064961D01*
X144373998Y-110064961D02*
X144526379Y-110064961D01*
X144526379Y-110064961D02*
X144602569Y-110103057D01*
X144259712Y-110560200D02*
X144335903Y-110598295D01*
X144335903Y-110598295D02*
X144526379Y-110598295D01*
X144526379Y-110598295D02*
X144602569Y-110560200D01*
X144602569Y-110560200D02*
X144640665Y-110484009D01*
X144640665Y-110484009D02*
X144640665Y-110407819D01*
X144640665Y-110407819D02*
X144602569Y-110331628D01*
X144602569Y-110331628D02*
X144526379Y-110293533D01*
X144526379Y-110293533D02*
X144335903Y-110293533D01*
X144335903Y-110293533D02*
X144259712Y-110255438D01*
X143878759Y-110598295D02*
X143878759Y-110064961D01*
X143878759Y-109798295D02*
X143916855Y-109836390D01*
X143916855Y-109836390D02*
X143878759Y-109874485D01*
X143878759Y-109874485D02*
X143840664Y-109836390D01*
X143840664Y-109836390D02*
X143878759Y-109798295D01*
X143878759Y-109798295D02*
X143878759Y-109874485D01*
X143383522Y-110598295D02*
X143459712Y-110560200D01*
X143459712Y-110560200D02*
X143497807Y-110484009D01*
X143497807Y-110484009D02*
X143497807Y-109798295D01*
X143078759Y-110522104D02*
X143040664Y-110560200D01*
X143040664Y-110560200D02*
X143078759Y-110598295D01*
X143078759Y-110598295D02*
X143116855Y-110560200D01*
X143116855Y-110560200D02*
X143078759Y-110522104D01*
X143078759Y-110522104D02*
X143078759Y-110598295D01*
X142354950Y-110560200D02*
X142431141Y-110598295D01*
X142431141Y-110598295D02*
X142583522Y-110598295D01*
X142583522Y-110598295D02*
X142659712Y-110560200D01*
X142659712Y-110560200D02*
X142697807Y-110522104D01*
X142697807Y-110522104D02*
X142735903Y-110445914D01*
X142735903Y-110445914D02*
X142735903Y-110217342D01*
X142735903Y-110217342D02*
X142697807Y-110141152D01*
X142697807Y-110141152D02*
X142659712Y-110103057D01*
X142659712Y-110103057D02*
X142583522Y-110064961D01*
X142583522Y-110064961D02*
X142431141Y-110064961D01*
X142431141Y-110064961D02*
X142354950Y-110103057D01*
X141897808Y-110598295D02*
X141973998Y-110560200D01*
X141973998Y-110560200D02*
X142012093Y-110522104D01*
X142012093Y-110522104D02*
X142050189Y-110445914D01*
X142050189Y-110445914D02*
X142050189Y-110217342D01*
X142050189Y-110217342D02*
X142012093Y-110141152D01*
X142012093Y-110141152D02*
X141973998Y-110103057D01*
X141973998Y-110103057D02*
X141897808Y-110064961D01*
X141897808Y-110064961D02*
X141783522Y-110064961D01*
X141783522Y-110064961D02*
X141707331Y-110103057D01*
X141707331Y-110103057D02*
X141669236Y-110141152D01*
X141669236Y-110141152D02*
X141631141Y-110217342D01*
X141631141Y-110217342D02*
X141631141Y-110445914D01*
X141631141Y-110445914D02*
X141669236Y-110522104D01*
X141669236Y-110522104D02*
X141707331Y-110560200D01*
X141707331Y-110560200D02*
X141783522Y-110598295D01*
X141783522Y-110598295D02*
X141897808Y-110598295D01*
X141288283Y-110598295D02*
X141288283Y-110064961D01*
X141288283Y-110141152D02*
X141250188Y-110103057D01*
X141250188Y-110103057D02*
X141173998Y-110064961D01*
X141173998Y-110064961D02*
X141059712Y-110064961D01*
X141059712Y-110064961D02*
X140983521Y-110103057D01*
X140983521Y-110103057D02*
X140945426Y-110179247D01*
X140945426Y-110179247D02*
X140945426Y-110598295D01*
X140945426Y-110179247D02*
X140907331Y-110103057D01*
X140907331Y-110103057D02*
X140831140Y-110064961D01*
X140831140Y-110064961D02*
X140716855Y-110064961D01*
X140716855Y-110064961D02*
X140640664Y-110103057D01*
X140640664Y-110103057D02*
X140602569Y-110179247D01*
X140602569Y-110179247D02*
X140602569Y-110598295D01*
X147790819Y-100314285D02*
X148505104Y-100314285D01*
X148505104Y-100314285D02*
X148647961Y-100266666D01*
X148647961Y-100266666D02*
X148743200Y-100171428D01*
X148743200Y-100171428D02*
X148790819Y-100028571D01*
X148790819Y-100028571D02*
X148790819Y-99933333D01*
X148790819Y-101314285D02*
X148790819Y-100742857D01*
X148790819Y-101028571D02*
X147790819Y-101028571D01*
X147790819Y-101028571D02*
X147933676Y-100933333D01*
X147933676Y-100933333D02*
X148028914Y-100838095D01*
X148028914Y-100838095D02*
X148076533Y-100742857D01*
X147790819Y-101933333D02*
X147790819Y-102028571D01*
X147790819Y-102028571D02*
X147838438Y-102123809D01*
X147838438Y-102123809D02*
X147886057Y-102171428D01*
X147886057Y-102171428D02*
X147981295Y-102219047D01*
X147981295Y-102219047D02*
X148171771Y-102266666D01*
X148171771Y-102266666D02*
X148409866Y-102266666D01*
X148409866Y-102266666D02*
X148600342Y-102219047D01*
X148600342Y-102219047D02*
X148695580Y-102171428D01*
X148695580Y-102171428D02*
X148743200Y-102123809D01*
X148743200Y-102123809D02*
X148790819Y-102028571D01*
X148790819Y-102028571D02*
X148790819Y-101933333D01*
X148790819Y-101933333D02*
X148743200Y-101838095D01*
X148743200Y-101838095D02*
X148695580Y-101790476D01*
X148695580Y-101790476D02*
X148600342Y-101742857D01*
X148600342Y-101742857D02*
X148409866Y-101695238D01*
X148409866Y-101695238D02*
X148171771Y-101695238D01*
X148171771Y-101695238D02*
X147981295Y-101742857D01*
X147981295Y-101742857D02*
X147886057Y-101790476D01*
X147886057Y-101790476D02*
X147838438Y-101838095D01*
X147838438Y-101838095D02*
X147790819Y-101933333D01*
X148790819Y-103219047D02*
X148790819Y-102647619D01*
X148790819Y-102933333D02*
X147790819Y-102933333D01*
X147790819Y-102933333D02*
X147933676Y-102838095D01*
X147933676Y-102838095D02*
X148028914Y-102742857D01*
X148028914Y-102742857D02*
X148076533Y-102647619D01*
%LPC*%
D12*
X144250000Y-106040000D03*
D13*
X141710000Y-104770000D03*
X144250000Y-103500000D03*
X141710000Y-102230000D03*
X144250000Y-100960000D03*
X141710000Y-99690000D03*
X144250000Y-98420000D03*
X141710000Y-97150000D03*
X148250000Y-95070000D03*
X148250000Y-97610000D03*
X148250000Y-105590000D03*
X148250000Y-108130000D03*
D14*
X152250000Y-106600000D03*
X152250000Y-96600000D03*
D15*
X132080000Y-95250000D03*
X132080000Y-107950000D03*
D16*
X129540000Y-101600000D03*
X134620000Y-101600000D03*
X134620000Y-99060000D03*
X134620000Y-104140000D03*
D17*
X136144000Y-98044000D03*
X137668000Y-98044000D03*
X139192000Y-99060000D03*
X139192000Y-100584000D03*
X139192000Y-102616000D03*
X139192000Y-104140000D03*
X137668000Y-105156000D03*
X136144000Y-105156000D03*
X139192000Y-109728000D03*
X139192000Y-108204000D03*
X139192000Y-94996000D03*
X139192000Y-93472000D03*
%LPD*%
M02*
