G04 #@! TF.GenerationSoftware,KiCad,Pcbnew,8.0.6*
G04 #@! TF.CreationDate,2025-01-19T09:44:14-05:00*
G04 #@! TF.ProjectId,rj45brkout,726a3435-6272-46b6-9f75-742e6b696361,v1.0.0*
G04 #@! TF.SameCoordinates,Original*
G04 #@! TF.FileFunction,Copper,L2,Inr*
G04 #@! TF.FilePolarity,Positive*
%FSLAX46Y46*%
G04 Gerber Fmt 4.6, Leading zero omitted, Abs format (unit mm)*
G04 Created by KiCad (PCBNEW 8.0.6) date 2025-01-19 09:44:14*
%MOMM*%
%LPD*%
G01*
G04 APERTURE LIST*
G04 Aperture macros list*
%AMRoundRect*
0 Rectangle with rounded corners*
0 $1 Rounding radius*
0 $2 $3 $4 $5 $6 $7 $8 $9 X,Y pos of 4 corners*
0 Add a 4 corners polygon primitive as box body*
4,1,4,$2,$3,$4,$5,$6,$7,$8,$9,$2,$3,0*
0 Add four circle primitives for the rounded corners*
1,1,$1+$1,$2,$3*
1,1,$1+$1,$4,$5*
1,1,$1+$1,$6,$7*
1,1,$1+$1,$8,$9*
0 Add four rect primitives between the rounded corners*
20,1,$1+$1,$2,$3,$4,$5,0*
20,1,$1+$1,$4,$5,$6,$7,0*
20,1,$1+$1,$6,$7,$8,$9,0*
20,1,$1+$1,$8,$9,$2,$3,0*%
G04 Aperture macros list end*
G04 #@! TA.AperFunction,ComponentPad*
%ADD10RoundRect,0.250000X0.575500X-0.575500X0.575500X0.575500X-0.575500X0.575500X-0.575500X-0.575500X0*%
G04 #@! TD*
G04 #@! TA.AperFunction,ComponentPad*
%ADD11C,1.651000*%
G04 #@! TD*
G04 #@! TA.AperFunction,ComponentPad*
%ADD12C,4.000000*%
G04 #@! TD*
G04 #@! TA.AperFunction,ComponentPad*
%ADD13C,1.016000*%
G04 #@! TD*
G04 #@! TA.AperFunction,ComponentPad*
%ADD14C,1.270000*%
G04 #@! TD*
G04 APERTURE END LIST*
D10*
X144250000Y-106040000D03*
D11*
X141710000Y-104770000D03*
X144250000Y-103500000D03*
X141710000Y-102230000D03*
X144250000Y-100960000D03*
X141710000Y-99690000D03*
X144250000Y-98420000D03*
X141710000Y-97150000D03*
X148250000Y-95070000D03*
X148250000Y-97610000D03*
X148250000Y-105590000D03*
X148250000Y-108130000D03*
D12*
X152250000Y-106600000D03*
X152250000Y-96600000D03*
D13*
X129540000Y-101600000D03*
X134620000Y-101600000D03*
X134620000Y-99060000D03*
X134620000Y-104140000D03*
D14*
X136144000Y-98044000D03*
X137668000Y-98044000D03*
X139192000Y-99060000D03*
X139192000Y-100584000D03*
X139192000Y-102616000D03*
X139192000Y-104140000D03*
X137668000Y-105156000D03*
X136144000Y-105156000D03*
X139192000Y-109728000D03*
X139192000Y-108204000D03*
X139192000Y-94996000D03*
X139192000Y-93472000D03*
G04 #@! TA.AperFunction,Conductor*
G36*
X133418621Y-91587502D02*
G01*
X133465114Y-91641158D01*
X133476500Y-91693500D01*
X133476500Y-92481361D01*
X133495911Y-92528224D01*
X133531775Y-92564088D01*
X133531776Y-92564088D01*
X133531777Y-92564089D01*
X133578639Y-92583500D01*
X138514261Y-92583500D01*
X138582382Y-92603502D01*
X138628875Y-92657158D01*
X138638979Y-92727432D01*
X138609485Y-92792012D01*
X138598575Y-92803133D01*
X138593704Y-92807518D01*
X138468620Y-92946436D01*
X138375158Y-93108319D01*
X138375156Y-93108324D01*
X138317394Y-93286096D01*
X138297856Y-93472000D01*
X138317394Y-93657903D01*
X138375156Y-93835675D01*
X138375158Y-93835680D01*
X138468620Y-93997563D01*
X138468622Y-93997565D01*
X138560234Y-94099310D01*
X138593703Y-94136480D01*
X138598019Y-94140366D01*
X138635257Y-94200813D01*
X138633903Y-94271797D01*
X138598019Y-94327634D01*
X138593703Y-94331519D01*
X138468620Y-94470436D01*
X138375158Y-94632319D01*
X138375156Y-94632324D01*
X138317394Y-94810096D01*
X138297856Y-94996000D01*
X138317394Y-95181903D01*
X138375156Y-95359675D01*
X138375158Y-95359680D01*
X138468620Y-95521563D01*
X138468622Y-95521565D01*
X138593701Y-95660478D01*
X138744928Y-95770351D01*
X138915694Y-95846381D01*
X139098537Y-95885246D01*
X139098541Y-95885246D01*
X139285459Y-95885246D01*
X139285463Y-95885246D01*
X139468306Y-95846381D01*
X139639072Y-95770351D01*
X139790299Y-95660478D01*
X139915378Y-95521565D01*
X140008841Y-95359681D01*
X140066605Y-95181903D01*
X140078366Y-95070000D01*
X147165628Y-95070000D01*
X147184091Y-95269254D01*
X147238851Y-95461715D01*
X147238852Y-95461717D01*
X147238853Y-95461720D01*
X147307708Y-95600000D01*
X147328049Y-95640850D01*
X147448637Y-95800536D01*
X147596517Y-95935346D01*
X147596519Y-95935347D01*
X147596520Y-95935348D01*
X147766654Y-96040690D01*
X147953248Y-96112977D01*
X148149947Y-96149746D01*
X148149949Y-96149746D01*
X148350051Y-96149746D01*
X148350053Y-96149746D01*
X148546752Y-96112977D01*
X148733346Y-96040690D01*
X148903480Y-95935348D01*
X149051361Y-95800537D01*
X149171952Y-95640848D01*
X149261147Y-95461720D01*
X149315909Y-95269253D01*
X149334372Y-95070000D01*
X149315909Y-94870747D01*
X149261147Y-94678280D01*
X149171952Y-94499152D01*
X149150266Y-94470435D01*
X149051362Y-94339463D01*
X148903482Y-94204653D01*
X148733346Y-94099310D01*
X148733339Y-94099307D01*
X148546755Y-94027024D01*
X148546756Y-94027024D01*
X148546753Y-94027023D01*
X148546752Y-94027023D01*
X148350053Y-93990254D01*
X148149947Y-93990254D01*
X147953248Y-94027023D01*
X147953243Y-94027024D01*
X147766660Y-94099307D01*
X147766653Y-94099310D01*
X147596517Y-94204653D01*
X147448637Y-94339463D01*
X147328049Y-94499149D01*
X147238851Y-94678284D01*
X147184091Y-94870745D01*
X147165628Y-95070000D01*
X140078366Y-95070000D01*
X140086144Y-94996000D01*
X140066605Y-94810097D01*
X140023775Y-94678280D01*
X140008843Y-94632324D01*
X140008841Y-94632319D01*
X139915379Y-94470436D01*
X139790296Y-94331519D01*
X139785985Y-94327638D01*
X139748744Y-94267193D01*
X139750094Y-94196209D01*
X139785985Y-94140362D01*
X139790296Y-94136480D01*
X139790295Y-94136480D01*
X139790299Y-94136478D01*
X139915378Y-93997565D01*
X140008841Y-93835681D01*
X140066605Y-93657903D01*
X140086144Y-93472000D01*
X140066605Y-93286097D01*
X140058443Y-93260976D01*
X140008843Y-93108324D01*
X140008841Y-93108319D01*
X139915379Y-92946436D01*
X139905787Y-92935784D01*
X139790299Y-92807522D01*
X139639072Y-92697649D01*
X139468306Y-92621619D01*
X139285463Y-92582754D01*
X139098537Y-92582754D01*
X139035357Y-92596183D01*
X138963696Y-92611415D01*
X138892905Y-92606012D01*
X138836273Y-92563195D01*
X138811780Y-92496558D01*
X138811500Y-92488168D01*
X138811500Y-91693500D01*
X138831502Y-91625379D01*
X138885158Y-91578886D01*
X138937500Y-91567500D01*
X155746500Y-91567500D01*
X155814621Y-91587502D01*
X155861114Y-91641158D01*
X155872500Y-91693500D01*
X155872500Y-111506500D01*
X155852498Y-111574621D01*
X155798842Y-111621114D01*
X155746500Y-111632500D01*
X138937500Y-111632500D01*
X138869379Y-111612498D01*
X138822886Y-111558842D01*
X138811500Y-111506500D01*
X138811500Y-110711831D01*
X138831502Y-110643710D01*
X138885158Y-110597217D01*
X138955432Y-110587113D01*
X138963682Y-110588581D01*
X139098537Y-110617246D01*
X139098541Y-110617246D01*
X139285459Y-110617246D01*
X139285463Y-110617246D01*
X139468306Y-110578381D01*
X139639072Y-110502351D01*
X139790299Y-110392478D01*
X139915378Y-110253565D01*
X140008841Y-110091681D01*
X140066605Y-109913903D01*
X140086144Y-109728000D01*
X140066605Y-109542097D01*
X140008841Y-109364319D01*
X139915378Y-109202435D01*
X139790299Y-109063522D01*
X139790298Y-109063521D01*
X139790296Y-109063519D01*
X139785985Y-109059638D01*
X139748744Y-108999193D01*
X139750094Y-108928209D01*
X139785985Y-108872362D01*
X139790296Y-108868480D01*
X139790295Y-108868480D01*
X139790299Y-108868478D01*
X139915378Y-108729565D01*
X140008841Y-108567681D01*
X140066605Y-108389903D01*
X140086144Y-108204000D01*
X140078366Y-108130000D01*
X147165628Y-108130000D01*
X147184091Y-108329254D01*
X147238851Y-108521715D01*
X147238852Y-108521717D01*
X147238853Y-108521720D01*
X147320980Y-108686654D01*
X147328049Y-108700850D01*
X147448637Y-108860536D01*
X147596517Y-108995346D01*
X147596519Y-108995347D01*
X147596520Y-108995348D01*
X147766654Y-109100690D01*
X147953248Y-109172977D01*
X148149947Y-109209746D01*
X148149949Y-109209746D01*
X148350051Y-109209746D01*
X148350053Y-109209746D01*
X148546752Y-109172977D01*
X148733346Y-109100690D01*
X148903480Y-108995348D01*
X149051361Y-108860537D01*
X149052838Y-108858582D01*
X149091558Y-108807307D01*
X149171952Y-108700848D01*
X149261147Y-108521720D01*
X149315909Y-108329253D01*
X149334372Y-108130000D01*
X149315909Y-107930747D01*
X149261147Y-107738280D01*
X149171952Y-107559152D01*
X149171950Y-107559149D01*
X149051362Y-107399463D01*
X148903482Y-107264653D01*
X148733346Y-107159310D01*
X148733339Y-107159307D01*
X148546755Y-107087024D01*
X148546756Y-107087024D01*
X148546753Y-107087023D01*
X148546752Y-107087023D01*
X148350053Y-107050254D01*
X148149947Y-107050254D01*
X147953248Y-107087023D01*
X147953243Y-107087024D01*
X147766660Y-107159307D01*
X147766653Y-107159310D01*
X147596517Y-107264653D01*
X147448637Y-107399463D01*
X147328049Y-107559149D01*
X147238851Y-107738284D01*
X147184091Y-107930745D01*
X147165628Y-108130000D01*
X140078366Y-108130000D01*
X140066605Y-108018097D01*
X140038223Y-107930747D01*
X140008843Y-107840324D01*
X140008841Y-107840319D01*
X139915379Y-107678436D01*
X139844754Y-107600000D01*
X139790299Y-107539522D01*
X139639072Y-107429649D01*
X139468306Y-107353619D01*
X139285463Y-107314754D01*
X139098537Y-107314754D01*
X138952262Y-107345846D01*
X138915693Y-107353619D01*
X138744927Y-107429649D01*
X138593703Y-107539520D01*
X138468620Y-107678436D01*
X138375158Y-107840319D01*
X138375156Y-107840324D01*
X138317394Y-108018096D01*
X138297856Y-108204000D01*
X138317394Y-108389903D01*
X138375156Y-108567675D01*
X138375158Y-108567680D01*
X138468620Y-108729563D01*
X138593703Y-108868480D01*
X138598019Y-108872366D01*
X138635257Y-108932813D01*
X138633903Y-109003797D01*
X138598019Y-109059634D01*
X138593703Y-109063519D01*
X138468620Y-109202436D01*
X138375158Y-109364319D01*
X138375156Y-109364324D01*
X138317394Y-109542096D01*
X138297856Y-109728000D01*
X138317394Y-109913903D01*
X138375156Y-110091675D01*
X138375158Y-110091680D01*
X138468620Y-110253563D01*
X138593704Y-110392481D01*
X138598575Y-110396867D01*
X138635812Y-110457315D01*
X138634458Y-110528299D01*
X138594941Y-110587282D01*
X138529810Y-110615537D01*
X138514261Y-110616500D01*
X133578639Y-110616500D01*
X133531775Y-110635911D01*
X133495911Y-110671775D01*
X133476500Y-110718638D01*
X133476500Y-111506500D01*
X133456498Y-111574621D01*
X133402842Y-111621114D01*
X133350500Y-111632500D01*
X128523500Y-111632500D01*
X128455379Y-111612498D01*
X128408886Y-111558842D01*
X128397500Y-111506500D01*
X128397500Y-107812618D01*
X129984000Y-107812618D01*
X129984000Y-108087381D01*
X130019861Y-108359779D01*
X130019862Y-108359785D01*
X130019863Y-108359787D01*
X130090976Y-108625183D01*
X130196121Y-108879026D01*
X130196122Y-108879027D01*
X130196127Y-108879037D01*
X130333498Y-109116970D01*
X130333503Y-109116977D01*
X130500758Y-109334948D01*
X130500777Y-109334969D01*
X130695030Y-109529222D01*
X130695040Y-109529231D01*
X130695046Y-109529237D01*
X130913026Y-109696499D01*
X131150974Y-109833879D01*
X131404817Y-109939024D01*
X131670213Y-110010137D01*
X131670219Y-110010137D01*
X131670220Y-110010138D01*
X131701480Y-110014253D01*
X131942621Y-110046000D01*
X131942628Y-110046000D01*
X132217372Y-110046000D01*
X132217379Y-110046000D01*
X132489787Y-110010137D01*
X132755183Y-109939024D01*
X133009026Y-109833879D01*
X133246974Y-109696499D01*
X133464954Y-109529237D01*
X133659237Y-109334954D01*
X133826499Y-109116974D01*
X133963879Y-108879026D01*
X134069024Y-108625183D01*
X134140137Y-108359787D01*
X134176000Y-108087379D01*
X134176000Y-107812621D01*
X134140137Y-107540213D01*
X134069024Y-107274817D01*
X133963879Y-107020974D01*
X133826499Y-106783026D01*
X133734968Y-106663740D01*
X133659241Y-106565051D01*
X133659239Y-106565049D01*
X133659237Y-106565046D01*
X133659231Y-106565040D01*
X133659222Y-106565030D01*
X133464969Y-106370777D01*
X133464948Y-106370758D01*
X133246977Y-106203503D01*
X133246970Y-106203498D01*
X133009037Y-106066127D01*
X133009032Y-106066124D01*
X133009026Y-106066121D01*
X132755183Y-105960976D01*
X132489787Y-105889863D01*
X132489785Y-105889862D01*
X132489779Y-105889861D01*
X132217381Y-105854000D01*
X132217379Y-105854000D01*
X131942621Y-105854000D01*
X131942618Y-105854000D01*
X131670220Y-105889861D01*
X131670213Y-105889863D01*
X131404817Y-105960976D01*
X131273361Y-106015427D01*
X131150972Y-106066122D01*
X131150962Y-106066127D01*
X130913029Y-106203498D01*
X130913022Y-106203503D01*
X130695051Y-106370758D01*
X130695030Y-106370777D01*
X130500777Y-106565030D01*
X130500758Y-106565051D01*
X130333503Y-106783022D01*
X130333498Y-106783029D01*
X130196127Y-107020962D01*
X130196122Y-107020972D01*
X130196121Y-107020974D01*
X130128361Y-107184562D01*
X130090976Y-107274817D01*
X130090975Y-107274821D01*
X130019861Y-107540220D01*
X129984000Y-107812618D01*
X128397500Y-107812618D01*
X128397500Y-105156000D01*
X135249856Y-105156000D01*
X135269394Y-105341903D01*
X135327156Y-105519675D01*
X135327158Y-105519680D01*
X135420620Y-105681563D01*
X135420622Y-105681565D01*
X135545701Y-105820478D01*
X135696928Y-105930351D01*
X135867694Y-106006381D01*
X136050537Y-106045246D01*
X136050541Y-106045246D01*
X136237459Y-106045246D01*
X136237463Y-106045246D01*
X136420306Y-106006381D01*
X136591072Y-105930351D01*
X136742299Y-105820478D01*
X136812365Y-105742662D01*
X136872810Y-105705424D01*
X136943794Y-105706776D01*
X136999634Y-105742662D01*
X137069701Y-105820478D01*
X137220928Y-105930351D01*
X137391694Y-106006381D01*
X137574537Y-106045246D01*
X137574541Y-106045246D01*
X137761459Y-106045246D01*
X137761463Y-106045246D01*
X137944306Y-106006381D01*
X138115072Y-105930351D01*
X138266299Y-105820478D01*
X138391378Y-105681565D01*
X138484841Y-105519681D01*
X138542605Y-105341903D01*
X138562144Y-105156000D01*
X138549115Y-105032040D01*
X138561887Y-104962204D01*
X138610389Y-104910358D01*
X138679222Y-104892963D01*
X138738225Y-104912757D01*
X138739211Y-104911050D01*
X138744922Y-104914346D01*
X138744928Y-104914351D01*
X138915694Y-104990381D01*
X139098537Y-105029246D01*
X139098541Y-105029246D01*
X139285459Y-105029246D01*
X139285463Y-105029246D01*
X139468306Y-104990381D01*
X139639072Y-104914351D01*
X139790299Y-104804478D01*
X139821343Y-104770000D01*
X140625628Y-104770000D01*
X140644091Y-104969254D01*
X140698851Y-105161715D01*
X140698852Y-105161717D01*
X140698853Y-105161720D01*
X140730393Y-105225061D01*
X140788049Y-105340850D01*
X140908637Y-105500536D01*
X141056517Y-105635346D01*
X141056519Y-105635347D01*
X141056520Y-105635348D01*
X141226654Y-105740690D01*
X141413248Y-105812977D01*
X141609947Y-105849746D01*
X141609949Y-105849746D01*
X141810051Y-105849746D01*
X141810053Y-105849746D01*
X142006752Y-105812977D01*
X142193346Y-105740690D01*
X142363480Y-105635348D01*
X142511361Y-105500537D01*
X142533885Y-105470711D01*
X142574995Y-105416272D01*
X142575005Y-105416259D01*
X143170254Y-105416259D01*
X143170254Y-106663740D01*
X143176709Y-106723781D01*
X143176710Y-106723786D01*
X143176711Y-106723787D01*
X143227383Y-106859644D01*
X143227384Y-106859645D01*
X143227385Y-106859648D01*
X143314277Y-106975722D01*
X143430351Y-107062614D01*
X143430352Y-107062614D01*
X143430356Y-107062617D01*
X143566213Y-107113289D01*
X143566216Y-107113289D01*
X143566218Y-107113290D01*
X143626259Y-107119745D01*
X143626267Y-107119745D01*
X143626272Y-107119746D01*
X143626276Y-107119746D01*
X144873724Y-107119746D01*
X144873728Y-107119746D01*
X144873733Y-107119745D01*
X144873740Y-107119745D01*
X144933781Y-107113290D01*
X144933782Y-107113289D01*
X144933787Y-107113289D01*
X145069644Y-107062617D01*
X145185722Y-106975722D01*
X145272617Y-106859644D01*
X145323289Y-106723787D01*
X145329746Y-106663728D01*
X145329746Y-105590000D01*
X147165628Y-105590000D01*
X147184091Y-105789254D01*
X147238851Y-105981715D01*
X147238852Y-105981717D01*
X147238853Y-105981720D01*
X147251133Y-106006381D01*
X147328049Y-106160850D01*
X147448637Y-106320536D01*
X147596517Y-106455346D01*
X147596519Y-106455347D01*
X147596520Y-106455348D01*
X147766654Y-106560690D01*
X147953248Y-106632977D01*
X148149947Y-106669746D01*
X148149949Y-106669746D01*
X148350051Y-106669746D01*
X148350053Y-106669746D01*
X148546752Y-106632977D01*
X148631886Y-106599996D01*
X149991418Y-106599996D01*
X149991418Y-106600003D01*
X150010739Y-106894800D01*
X150010741Y-106894814D01*
X150068377Y-107184562D01*
X150068379Y-107184572D01*
X150163339Y-107464314D01*
X150163345Y-107464328D01*
X150294009Y-107729288D01*
X150458140Y-107974930D01*
X150485107Y-108005681D01*
X150485108Y-108005681D01*
X151385160Y-107105629D01*
X151473249Y-107237463D01*
X151612537Y-107376751D01*
X151744369Y-107464838D01*
X150844317Y-108364890D01*
X150844317Y-108364891D01*
X150875069Y-108391859D01*
X151120711Y-108555990D01*
X151385671Y-108686654D01*
X151385685Y-108686660D01*
X151665427Y-108781620D01*
X151665437Y-108781622D01*
X151955185Y-108839258D01*
X151955199Y-108839260D01*
X152249997Y-108858582D01*
X152250003Y-108858582D01*
X152544800Y-108839260D01*
X152544814Y-108839258D01*
X152834562Y-108781622D01*
X152834572Y-108781620D01*
X153114314Y-108686660D01*
X153114328Y-108686654D01*
X153379288Y-108555990D01*
X153624933Y-108391857D01*
X153624944Y-108391848D01*
X153655681Y-108364892D01*
X153655681Y-108364890D01*
X152755630Y-107464839D01*
X152887463Y-107376751D01*
X153026751Y-107237463D01*
X153114839Y-107105630D01*
X154014890Y-108005681D01*
X154014892Y-108005681D01*
X154041848Y-107974944D01*
X154041857Y-107974933D01*
X154205990Y-107729288D01*
X154336654Y-107464328D01*
X154336660Y-107464314D01*
X154431620Y-107184572D01*
X154431622Y-107184562D01*
X154489258Y-106894814D01*
X154489260Y-106894800D01*
X154508582Y-106600003D01*
X154508582Y-106599996D01*
X154489260Y-106305199D01*
X154489258Y-106305185D01*
X154431622Y-106015437D01*
X154431620Y-106015427D01*
X154336660Y-105735685D01*
X154336654Y-105735671D01*
X154205990Y-105470711D01*
X154041859Y-105225069D01*
X154014891Y-105194317D01*
X154014890Y-105194317D01*
X153114838Y-106094369D01*
X153026751Y-105962537D01*
X152887463Y-105823249D01*
X152755629Y-105735160D01*
X153655681Y-104835108D01*
X153655681Y-104835107D01*
X153624930Y-104808140D01*
X153379288Y-104644009D01*
X153114328Y-104513345D01*
X153114314Y-104513339D01*
X152834572Y-104418379D01*
X152834562Y-104418377D01*
X152544814Y-104360741D01*
X152544800Y-104360739D01*
X152250003Y-104341418D01*
X152249997Y-104341418D01*
X151955199Y-104360739D01*
X151955185Y-104360741D01*
X151665437Y-104418377D01*
X151665427Y-104418379D01*
X151385685Y-104513339D01*
X151385671Y-104513345D01*
X151120711Y-104644008D01*
X150875061Y-104808146D01*
X150844316Y-104835107D01*
X151744369Y-105735160D01*
X151612537Y-105823249D01*
X151473249Y-105962537D01*
X151385160Y-106094369D01*
X150485107Y-105194316D01*
X150458146Y-105225061D01*
X150294008Y-105470711D01*
X150163345Y-105735671D01*
X150163339Y-105735685D01*
X150068379Y-106015427D01*
X150068377Y-106015437D01*
X150010741Y-106305185D01*
X150010739Y-106305199D01*
X149991418Y-106599996D01*
X148631886Y-106599996D01*
X148733346Y-106560690D01*
X148903480Y-106455348D01*
X149051361Y-106320537D01*
X149171952Y-106160848D01*
X149261147Y-105981720D01*
X149315909Y-105789253D01*
X149334372Y-105590000D01*
X149315909Y-105390747D01*
X149261147Y-105198280D01*
X149171952Y-105019152D01*
X149170616Y-105017383D01*
X149051362Y-104859463D01*
X148903482Y-104724653D01*
X148733346Y-104619310D01*
X148733339Y-104619307D01*
X148546755Y-104547024D01*
X148546756Y-104547024D01*
X148546753Y-104547023D01*
X148546752Y-104547023D01*
X148350053Y-104510254D01*
X148149947Y-104510254D01*
X147953248Y-104547023D01*
X147953243Y-104547024D01*
X147766660Y-104619307D01*
X147766653Y-104619310D01*
X147596517Y-104724653D01*
X147448637Y-104859463D01*
X147328049Y-105019149D01*
X147238851Y-105198284D01*
X147184091Y-105390745D01*
X147165628Y-105590000D01*
X145329746Y-105590000D01*
X145329746Y-105416272D01*
X145323289Y-105356213D01*
X145272617Y-105220356D01*
X145272614Y-105220352D01*
X145272614Y-105220351D01*
X145185722Y-105104277D01*
X145069648Y-105017385D01*
X145069645Y-105017384D01*
X145069644Y-105017383D01*
X144933787Y-104966711D01*
X144933786Y-104966710D01*
X144933781Y-104966709D01*
X144873740Y-104960254D01*
X144873728Y-104960254D01*
X143626272Y-104960254D01*
X143626259Y-104960254D01*
X143566218Y-104966709D01*
X143430351Y-105017385D01*
X143314277Y-105104277D01*
X143227385Y-105220351D01*
X143176709Y-105356218D01*
X143170254Y-105416259D01*
X142575005Y-105416259D01*
X142631952Y-105340848D01*
X142721147Y-105161720D01*
X142775909Y-104969253D01*
X142794372Y-104770000D01*
X142775909Y-104570747D01*
X142721147Y-104378280D01*
X142631952Y-104199152D01*
X142587283Y-104140000D01*
X142511362Y-104039463D01*
X142363482Y-103904653D01*
X142193346Y-103799310D01*
X142193339Y-103799307D01*
X142006755Y-103727024D01*
X142006756Y-103727024D01*
X142006753Y-103727023D01*
X142006752Y-103727023D01*
X141810053Y-103690254D01*
X141609947Y-103690254D01*
X141413248Y-103727023D01*
X141413243Y-103727024D01*
X141226660Y-103799307D01*
X141226653Y-103799310D01*
X141056517Y-103904653D01*
X140908637Y-104039463D01*
X140788049Y-104199149D01*
X140698851Y-104378284D01*
X140644091Y-104570745D01*
X140625628Y-104770000D01*
X139821343Y-104770000D01*
X139915378Y-104665565D01*
X140008841Y-104503681D01*
X140066605Y-104325903D01*
X140086144Y-104140000D01*
X140066605Y-103954097D01*
X140050540Y-103904653D01*
X140008843Y-103776324D01*
X140008841Y-103776319D01*
X139915379Y-103614436D01*
X139812339Y-103500000D01*
X143165628Y-103500000D01*
X143184091Y-103699254D01*
X143238851Y-103891715D01*
X143238852Y-103891717D01*
X143238853Y-103891720D01*
X143245293Y-103904653D01*
X143328049Y-104070850D01*
X143448637Y-104230536D01*
X143596517Y-104365346D01*
X143596519Y-104365347D01*
X143596520Y-104365348D01*
X143766654Y-104470690D01*
X143953248Y-104542977D01*
X144149947Y-104579746D01*
X144149949Y-104579746D01*
X144350051Y-104579746D01*
X144350053Y-104579746D01*
X144546752Y-104542977D01*
X144733346Y-104470690D01*
X144903480Y-104365348D01*
X145051361Y-104230537D01*
X145171952Y-104070848D01*
X145261147Y-103891720D01*
X145315909Y-103699253D01*
X145334372Y-103500000D01*
X145315909Y-103300747D01*
X145261147Y-103108280D01*
X145171952Y-102929152D01*
X145171950Y-102929149D01*
X145051362Y-102769463D01*
X144903482Y-102634653D01*
X144733346Y-102529310D01*
X144733339Y-102529307D01*
X144546755Y-102457024D01*
X144546756Y-102457024D01*
X144546753Y-102457023D01*
X144546752Y-102457023D01*
X144350053Y-102420254D01*
X144149947Y-102420254D01*
X143953248Y-102457023D01*
X143953243Y-102457024D01*
X143766660Y-102529307D01*
X143766653Y-102529310D01*
X143596517Y-102634653D01*
X143448637Y-102769463D01*
X143328049Y-102929149D01*
X143238851Y-103108284D01*
X143184091Y-103300745D01*
X143165628Y-103500000D01*
X139812339Y-103500000D01*
X139790296Y-103475519D01*
X139785985Y-103471638D01*
X139748744Y-103411193D01*
X139750094Y-103340209D01*
X139785985Y-103284362D01*
X139790296Y-103280480D01*
X139790295Y-103280480D01*
X139790299Y-103280478D01*
X139915378Y-103141565D01*
X140008841Y-102979681D01*
X140066605Y-102801903D01*
X140086144Y-102616000D01*
X140066605Y-102430097D01*
X140008841Y-102252319D01*
X139995955Y-102230000D01*
X140625628Y-102230000D01*
X140644091Y-102429254D01*
X140698851Y-102621715D01*
X140698852Y-102621717D01*
X140698853Y-102621720D01*
X140705293Y-102634653D01*
X140788049Y-102800850D01*
X140908637Y-102960536D01*
X141056517Y-103095346D01*
X141056519Y-103095347D01*
X141056520Y-103095348D01*
X141226654Y-103200690D01*
X141413248Y-103272977D01*
X141609947Y-103309746D01*
X141609949Y-103309746D01*
X141810051Y-103309746D01*
X141810053Y-103309746D01*
X142006752Y-103272977D01*
X142193346Y-103200690D01*
X142363480Y-103095348D01*
X142511361Y-102960537D01*
X142631952Y-102800848D01*
X142721147Y-102621720D01*
X142775909Y-102429253D01*
X142794372Y-102230000D01*
X142775909Y-102030747D01*
X142721147Y-101838280D01*
X142631952Y-101659152D01*
X142631950Y-101659149D01*
X142511362Y-101499463D01*
X142363482Y-101364653D01*
X142193346Y-101259310D01*
X142193339Y-101259307D01*
X142006755Y-101187024D01*
X142006756Y-101187024D01*
X142006753Y-101187023D01*
X142006752Y-101187023D01*
X141810053Y-101150254D01*
X141609947Y-101150254D01*
X141413248Y-101187023D01*
X141413243Y-101187024D01*
X141226660Y-101259307D01*
X141226653Y-101259310D01*
X141056517Y-101364653D01*
X140908637Y-101499463D01*
X140788049Y-101659149D01*
X140698851Y-101838284D01*
X140644091Y-102030745D01*
X140625628Y-102230000D01*
X139995955Y-102230000D01*
X139915378Y-102090435D01*
X139790299Y-101951522D01*
X139639072Y-101841649D01*
X139468306Y-101765619D01*
X139285463Y-101726754D01*
X139098537Y-101726754D01*
X138952262Y-101757846D01*
X138915693Y-101765619D01*
X138744927Y-101841649D01*
X138593703Y-101951520D01*
X138468620Y-102090436D01*
X138375158Y-102252319D01*
X138375156Y-102252324D01*
X138317394Y-102430096D01*
X138297856Y-102616000D01*
X138317394Y-102801903D01*
X138375156Y-102979675D01*
X138375158Y-102979680D01*
X138468620Y-103141563D01*
X138593703Y-103280480D01*
X138598019Y-103284366D01*
X138635257Y-103344813D01*
X138633903Y-103415797D01*
X138598019Y-103471634D01*
X138593703Y-103475519D01*
X138468620Y-103614436D01*
X138375158Y-103776319D01*
X138375156Y-103776324D01*
X138317394Y-103954096D01*
X138297856Y-104140000D01*
X138310884Y-104263957D01*
X138298112Y-104333795D01*
X138249609Y-104385642D01*
X138180776Y-104403036D01*
X138121775Y-104383241D01*
X138120789Y-104384950D01*
X138115073Y-104381650D01*
X138115072Y-104381649D01*
X137944306Y-104305619D01*
X137761463Y-104266754D01*
X137574537Y-104266754D01*
X137428262Y-104297846D01*
X137391693Y-104305619D01*
X137220927Y-104381649D01*
X137069703Y-104491520D01*
X137069702Y-104491520D01*
X136999635Y-104569337D01*
X136939189Y-104606575D01*
X136868205Y-104605223D01*
X136812365Y-104569337D01*
X136761943Y-104513339D01*
X136742299Y-104491522D01*
X136742298Y-104491521D01*
X136742297Y-104491520D01*
X136591072Y-104381649D01*
X136420306Y-104305619D01*
X136237463Y-104266754D01*
X136050537Y-104266754D01*
X135904262Y-104297846D01*
X135867693Y-104305619D01*
X135696927Y-104381649D01*
X135545703Y-104491520D01*
X135420620Y-104630436D01*
X135327158Y-104792319D01*
X135327156Y-104792324D01*
X135269394Y-104970096D01*
X135249856Y-105156000D01*
X128397500Y-105156000D01*
X128397500Y-98044000D01*
X135249856Y-98044000D01*
X135269394Y-98229903D01*
X135327156Y-98407675D01*
X135327158Y-98407680D01*
X135420620Y-98569563D01*
X135420622Y-98569565D01*
X135545701Y-98708478D01*
X135696928Y-98818351D01*
X135867694Y-98894381D01*
X136050537Y-98933246D01*
X136050541Y-98933246D01*
X136237459Y-98933246D01*
X136237463Y-98933246D01*
X136420306Y-98894381D01*
X136591072Y-98818351D01*
X136742299Y-98708478D01*
X136812365Y-98630662D01*
X136872810Y-98593424D01*
X136943794Y-98594776D01*
X136999634Y-98630662D01*
X137069701Y-98708478D01*
X137220928Y-98818351D01*
X137391694Y-98894381D01*
X137574537Y-98933246D01*
X137574541Y-98933246D01*
X137761459Y-98933246D01*
X137761463Y-98933246D01*
X137944306Y-98894381D01*
X138115072Y-98818351D01*
X138115081Y-98818344D01*
X138120789Y-98815050D01*
X138122024Y-98817190D01*
X138178354Y-98797079D01*
X138247509Y-98813145D01*
X138297000Y-98864048D01*
X138311114Y-98933628D01*
X138310884Y-98936042D01*
X138297856Y-99059999D01*
X138317394Y-99245903D01*
X138375156Y-99423675D01*
X138375158Y-99423680D01*
X138468620Y-99585563D01*
X138593703Y-99724480D01*
X138598019Y-99728366D01*
X138635257Y-99788813D01*
X138633903Y-99859797D01*
X138598019Y-99915634D01*
X138593703Y-99919519D01*
X138468620Y-100058436D01*
X138375158Y-100220319D01*
X138375156Y-100220324D01*
X138317394Y-100398096D01*
X138297856Y-100584000D01*
X138317394Y-100769903D01*
X138375156Y-100947675D01*
X138375158Y-100947680D01*
X138468620Y-101109563D01*
X138468622Y-101109565D01*
X138593701Y-101248478D01*
X138744928Y-101358351D01*
X138915694Y-101434381D01*
X139098537Y-101473246D01*
X139098541Y-101473246D01*
X139285459Y-101473246D01*
X139285463Y-101473246D01*
X139468306Y-101434381D01*
X139639072Y-101358351D01*
X139790299Y-101248478D01*
X139915378Y-101109565D01*
X140001729Y-100960000D01*
X143165628Y-100960000D01*
X143184091Y-101159254D01*
X143238851Y-101351715D01*
X143238852Y-101351717D01*
X143238853Y-101351720D01*
X143245293Y-101364653D01*
X143328049Y-101530850D01*
X143448637Y-101690536D01*
X143596517Y-101825346D01*
X143596519Y-101825347D01*
X143596520Y-101825348D01*
X143766654Y-101930690D01*
X143953248Y-102002977D01*
X144149947Y-102039746D01*
X144149949Y-102039746D01*
X144350051Y-102039746D01*
X144350053Y-102039746D01*
X144546752Y-102002977D01*
X144733346Y-101930690D01*
X144903480Y-101825348D01*
X145051361Y-101690537D01*
X145171952Y-101530848D01*
X145261147Y-101351720D01*
X145315909Y-101159253D01*
X145334372Y-100960000D01*
X145315909Y-100760747D01*
X145261147Y-100568280D01*
X145171952Y-100389152D01*
X145171950Y-100389149D01*
X145051362Y-100229463D01*
X144903482Y-100094653D01*
X144733346Y-99989310D01*
X144733339Y-99989307D01*
X144546755Y-99917024D01*
X144546756Y-99917024D01*
X144546753Y-99917023D01*
X144546752Y-99917023D01*
X144350053Y-99880254D01*
X144149947Y-99880254D01*
X143953248Y-99917023D01*
X143953243Y-99917024D01*
X143766660Y-99989307D01*
X143766653Y-99989310D01*
X143596517Y-100094653D01*
X143448637Y-100229463D01*
X143328049Y-100389149D01*
X143238851Y-100568284D01*
X143184091Y-100760745D01*
X143165628Y-100960000D01*
X140001729Y-100960000D01*
X140008841Y-100947681D01*
X140066605Y-100769903D01*
X140086144Y-100584000D01*
X140066605Y-100398097D01*
X140063698Y-100389149D01*
X140008843Y-100220324D01*
X140008841Y-100220319D01*
X139915379Y-100058436D01*
X139790296Y-99919519D01*
X139785985Y-99915638D01*
X139748744Y-99855193D01*
X139750094Y-99784209D01*
X139785985Y-99728362D01*
X139790296Y-99724480D01*
X139790295Y-99724480D01*
X139790299Y-99724478D01*
X139821343Y-99690000D01*
X140625628Y-99690000D01*
X140644091Y-99889254D01*
X140698851Y-100081715D01*
X140698852Y-100081717D01*
X140698853Y-100081720D01*
X140772420Y-100229463D01*
X140788049Y-100260850D01*
X140908637Y-100420536D01*
X141056517Y-100555346D01*
X141056519Y-100555347D01*
X141056520Y-100555348D01*
X141226654Y-100660690D01*
X141413248Y-100732977D01*
X141609947Y-100769746D01*
X141609949Y-100769746D01*
X141810051Y-100769746D01*
X141810053Y-100769746D01*
X142006752Y-100732977D01*
X142193346Y-100660690D01*
X142363480Y-100555348D01*
X142511361Y-100420537D01*
X142631952Y-100260848D01*
X142721147Y-100081720D01*
X142775909Y-99889253D01*
X142794372Y-99690000D01*
X142775909Y-99490747D01*
X142721147Y-99298280D01*
X142631952Y-99119152D01*
X142587282Y-99059999D01*
X142511362Y-98959463D01*
X142363482Y-98824653D01*
X142193346Y-98719310D01*
X142193339Y-98719307D01*
X142006755Y-98647024D01*
X142006756Y-98647024D01*
X142006753Y-98647023D01*
X142006752Y-98647023D01*
X141810053Y-98610254D01*
X141609947Y-98610254D01*
X141413248Y-98647023D01*
X141413243Y-98647024D01*
X141226660Y-98719307D01*
X141226653Y-98719310D01*
X141056517Y-98824653D01*
X140908637Y-98959463D01*
X140788049Y-99119149D01*
X140698851Y-99298284D01*
X140644091Y-99490745D01*
X140625628Y-99690000D01*
X139821343Y-99690000D01*
X139915378Y-99585565D01*
X140008841Y-99423681D01*
X140066605Y-99245903D01*
X140086144Y-99060000D01*
X140066605Y-98874097D01*
X140050540Y-98824653D01*
X140008843Y-98696324D01*
X140008841Y-98696319D01*
X139915379Y-98534436D01*
X139862175Y-98475348D01*
X139812339Y-98420000D01*
X143165628Y-98420000D01*
X143184091Y-98619254D01*
X143238851Y-98811715D01*
X143238852Y-98811717D01*
X143238853Y-98811720D01*
X143269913Y-98874096D01*
X143328049Y-98990850D01*
X143448637Y-99150536D01*
X143596517Y-99285346D01*
X143596519Y-99285347D01*
X143596520Y-99285348D01*
X143766654Y-99390690D01*
X143953248Y-99462977D01*
X144149947Y-99499746D01*
X144149949Y-99499746D01*
X144350051Y-99499746D01*
X144350053Y-99499746D01*
X144546752Y-99462977D01*
X144733346Y-99390690D01*
X144903480Y-99285348D01*
X145051361Y-99150537D01*
X145171952Y-98990848D01*
X145261147Y-98811720D01*
X145315909Y-98619253D01*
X145334372Y-98420000D01*
X145315909Y-98220747D01*
X145261147Y-98028280D01*
X145171952Y-97849152D01*
X145141822Y-97809253D01*
X145051362Y-97689463D01*
X144964195Y-97610000D01*
X147165628Y-97610000D01*
X147184091Y-97809254D01*
X147238851Y-98001715D01*
X147238852Y-98001717D01*
X147238853Y-98001720D01*
X147298093Y-98120690D01*
X147328049Y-98180850D01*
X147448637Y-98340536D01*
X147596517Y-98475346D01*
X147596519Y-98475347D01*
X147596520Y-98475348D01*
X147766654Y-98580690D01*
X147953248Y-98652977D01*
X148149947Y-98689746D01*
X148149949Y-98689746D01*
X148350051Y-98689746D01*
X148350053Y-98689746D01*
X148546752Y-98652977D01*
X148733346Y-98580690D01*
X148903480Y-98475348D01*
X149051361Y-98340537D01*
X149076744Y-98306925D01*
X149127373Y-98239880D01*
X149171952Y-98180848D01*
X149261147Y-98001720D01*
X149315909Y-97809253D01*
X149334372Y-97610000D01*
X149315909Y-97410747D01*
X149261147Y-97218280D01*
X149171952Y-97039152D01*
X149139744Y-96996501D01*
X149051362Y-96879463D01*
X148903482Y-96744653D01*
X148733346Y-96639310D01*
X148733339Y-96639307D01*
X148631866Y-96599996D01*
X149991418Y-96599996D01*
X149991418Y-96600003D01*
X150010739Y-96894800D01*
X150010741Y-96894814D01*
X150068377Y-97184562D01*
X150068379Y-97184572D01*
X150163339Y-97464314D01*
X150163345Y-97464328D01*
X150294009Y-97729288D01*
X150458140Y-97974930D01*
X150485107Y-98005681D01*
X150485108Y-98005681D01*
X151385160Y-97105629D01*
X151473249Y-97237463D01*
X151612537Y-97376751D01*
X151744369Y-97464838D01*
X150844317Y-98364890D01*
X150844317Y-98364891D01*
X150875069Y-98391859D01*
X151120711Y-98555990D01*
X151385671Y-98686654D01*
X151385685Y-98686660D01*
X151665427Y-98781620D01*
X151665437Y-98781622D01*
X151955185Y-98839258D01*
X151955199Y-98839260D01*
X152249997Y-98858582D01*
X152250003Y-98858582D01*
X152544800Y-98839260D01*
X152544814Y-98839258D01*
X152834562Y-98781622D01*
X152834572Y-98781620D01*
X153114314Y-98686660D01*
X153114328Y-98686654D01*
X153379288Y-98555990D01*
X153624933Y-98391857D01*
X153624944Y-98391848D01*
X153655681Y-98364892D01*
X153655681Y-98364890D01*
X152755630Y-97464839D01*
X152887463Y-97376751D01*
X153026751Y-97237463D01*
X153114839Y-97105630D01*
X154014890Y-98005681D01*
X154014892Y-98005681D01*
X154041848Y-97974944D01*
X154041857Y-97974933D01*
X154205990Y-97729288D01*
X154336654Y-97464328D01*
X154336660Y-97464314D01*
X154431620Y-97184572D01*
X154431622Y-97184562D01*
X154489258Y-96894814D01*
X154489260Y-96894800D01*
X154508582Y-96600003D01*
X154508582Y-96599996D01*
X154489260Y-96305199D01*
X154489258Y-96305185D01*
X154431622Y-96015437D01*
X154431620Y-96015427D01*
X154336660Y-95735685D01*
X154336654Y-95735671D01*
X154205990Y-95470711D01*
X154041859Y-95225069D01*
X154014891Y-95194317D01*
X154014890Y-95194317D01*
X153114838Y-96094369D01*
X153026751Y-95962537D01*
X152887463Y-95823249D01*
X152755629Y-95735160D01*
X153655681Y-94835108D01*
X153655681Y-94835107D01*
X153624930Y-94808140D01*
X153379288Y-94644009D01*
X153114328Y-94513345D01*
X153114314Y-94513339D01*
X152834572Y-94418379D01*
X152834562Y-94418377D01*
X152544814Y-94360741D01*
X152544800Y-94360739D01*
X152250003Y-94341418D01*
X152249997Y-94341418D01*
X151955199Y-94360739D01*
X151955185Y-94360741D01*
X151665437Y-94418377D01*
X151665427Y-94418379D01*
X151385685Y-94513339D01*
X151385671Y-94513345D01*
X151120711Y-94644008D01*
X150875061Y-94808146D01*
X150844316Y-94835107D01*
X151744369Y-95735160D01*
X151612537Y-95823249D01*
X151473249Y-95962537D01*
X151385160Y-96094369D01*
X150485107Y-95194316D01*
X150458146Y-95225061D01*
X150294008Y-95470711D01*
X150163345Y-95735671D01*
X150163339Y-95735685D01*
X150068379Y-96015427D01*
X150068377Y-96015437D01*
X150010741Y-96305185D01*
X150010739Y-96305199D01*
X149991418Y-96599996D01*
X148631866Y-96599996D01*
X148546755Y-96567024D01*
X148546756Y-96567024D01*
X148546753Y-96567023D01*
X148546752Y-96567023D01*
X148350053Y-96530254D01*
X148149947Y-96530254D01*
X147953248Y-96567023D01*
X147953243Y-96567024D01*
X147766660Y-96639307D01*
X147766653Y-96639310D01*
X147596517Y-96744653D01*
X147448637Y-96879463D01*
X147328049Y-97039149D01*
X147238851Y-97218284D01*
X147184091Y-97410745D01*
X147165628Y-97610000D01*
X144964195Y-97610000D01*
X144903482Y-97554653D01*
X144733346Y-97449310D01*
X144733339Y-97449307D01*
X144546755Y-97377024D01*
X144546756Y-97377024D01*
X144546753Y-97377023D01*
X144546752Y-97377023D01*
X144350053Y-97340254D01*
X144149947Y-97340254D01*
X143954703Y-97376751D01*
X143953243Y-97377024D01*
X143766660Y-97449307D01*
X143766653Y-97449310D01*
X143596517Y-97554653D01*
X143448637Y-97689463D01*
X143328049Y-97849149D01*
X143238851Y-98028284D01*
X143184091Y-98220745D01*
X143165628Y-98420000D01*
X139812339Y-98420000D01*
X139790299Y-98395522D01*
X139639072Y-98285649D01*
X139468306Y-98209619D01*
X139285463Y-98170754D01*
X139098537Y-98170754D01*
X138952262Y-98201846D01*
X138915693Y-98209619D01*
X138744926Y-98285650D01*
X138739211Y-98288950D01*
X138737982Y-98286821D01*
X138681565Y-98306925D01*
X138612420Y-98290815D01*
X138562962Y-98239880D01*
X138548892Y-98170291D01*
X138549106Y-98168042D01*
X138562144Y-98044000D01*
X138542605Y-97858097D01*
X138500752Y-97729288D01*
X138484843Y-97680324D01*
X138484841Y-97680319D01*
X138391379Y-97518436D01*
X138342659Y-97464328D01*
X138266299Y-97379522D01*
X138115072Y-97269649D01*
X137944306Y-97193619D01*
X137761463Y-97154754D01*
X137574537Y-97154754D01*
X137434303Y-97184562D01*
X137391693Y-97193619D01*
X137220927Y-97269649D01*
X137069703Y-97379520D01*
X137069702Y-97379520D01*
X136999635Y-97457337D01*
X136939189Y-97494575D01*
X136868205Y-97493223D01*
X136812365Y-97457337D01*
X136742297Y-97379520D01*
X136591072Y-97269649D01*
X136420306Y-97193619D01*
X136237463Y-97154754D01*
X136050537Y-97154754D01*
X135910303Y-97184562D01*
X135867693Y-97193619D01*
X135696927Y-97269649D01*
X135545703Y-97379520D01*
X135420620Y-97518436D01*
X135327158Y-97680319D01*
X135327156Y-97680324D01*
X135269394Y-97858096D01*
X135249856Y-98044000D01*
X128397500Y-98044000D01*
X128397500Y-95112618D01*
X129984000Y-95112618D01*
X129984000Y-95387381D01*
X130019861Y-95659779D01*
X130019862Y-95659785D01*
X130019863Y-95659787D01*
X130090976Y-95925183D01*
X130196121Y-96179026D01*
X130196122Y-96179027D01*
X130196127Y-96179037D01*
X130333498Y-96416970D01*
X130333503Y-96416977D01*
X130500758Y-96634948D01*
X130500777Y-96634969D01*
X130695030Y-96829222D01*
X130695040Y-96829231D01*
X130695046Y-96829237D01*
X130695049Y-96829239D01*
X130695051Y-96829241D01*
X130913022Y-96996496D01*
X130913029Y-96996501D01*
X130986903Y-97039152D01*
X131150974Y-97133879D01*
X131404817Y-97239024D01*
X131670213Y-97310137D01*
X131670219Y-97310137D01*
X131670220Y-97310138D01*
X131701480Y-97314253D01*
X131942621Y-97346000D01*
X131942628Y-97346000D01*
X132217372Y-97346000D01*
X132217379Y-97346000D01*
X132489787Y-97310137D01*
X132755183Y-97239024D01*
X132970106Y-97150000D01*
X140625628Y-97150000D01*
X140644091Y-97349254D01*
X140698851Y-97541715D01*
X140698852Y-97541717D01*
X140698853Y-97541720D01*
X140772420Y-97689463D01*
X140788049Y-97720850D01*
X140908637Y-97880536D01*
X141056517Y-98015346D01*
X141056519Y-98015347D01*
X141056520Y-98015348D01*
X141226654Y-98120690D01*
X141413248Y-98192977D01*
X141609947Y-98229746D01*
X141609949Y-98229746D01*
X141810051Y-98229746D01*
X141810053Y-98229746D01*
X142006752Y-98192977D01*
X142193346Y-98120690D01*
X142363480Y-98015348D01*
X142511361Y-97880537D01*
X142631952Y-97720848D01*
X142721147Y-97541720D01*
X142775909Y-97349253D01*
X142794372Y-97150000D01*
X142775909Y-96950747D01*
X142721147Y-96758280D01*
X142631952Y-96579152D01*
X142631950Y-96579149D01*
X142511362Y-96419463D01*
X142363482Y-96284653D01*
X142193346Y-96179310D01*
X142193339Y-96179307D01*
X142006755Y-96107024D01*
X142006756Y-96107024D01*
X142006753Y-96107023D01*
X142006752Y-96107023D01*
X141810053Y-96070254D01*
X141609947Y-96070254D01*
X141413248Y-96107023D01*
X141413243Y-96107024D01*
X141226660Y-96179307D01*
X141226653Y-96179310D01*
X141056517Y-96284653D01*
X140908637Y-96419463D01*
X140788049Y-96579149D01*
X140698851Y-96758284D01*
X140644091Y-96950745D01*
X140625628Y-97150000D01*
X132970106Y-97150000D01*
X133009026Y-97133879D01*
X133246974Y-96996499D01*
X133464954Y-96829237D01*
X133659237Y-96634954D01*
X133826499Y-96416974D01*
X133963879Y-96179026D01*
X134069024Y-95925183D01*
X134140137Y-95659787D01*
X134176000Y-95387379D01*
X134176000Y-95112621D01*
X134140137Y-94840213D01*
X134069024Y-94574817D01*
X133963879Y-94320974D01*
X133891846Y-94196209D01*
X133826501Y-94083029D01*
X133826496Y-94083022D01*
X133659241Y-93865051D01*
X133659239Y-93865049D01*
X133659237Y-93865046D01*
X133659231Y-93865040D01*
X133659222Y-93865030D01*
X133464969Y-93670777D01*
X133464948Y-93670758D01*
X133246977Y-93503503D01*
X133246970Y-93503498D01*
X133009037Y-93366127D01*
X133009032Y-93366124D01*
X133009026Y-93366121D01*
X132755183Y-93260976D01*
X132489787Y-93189863D01*
X132489785Y-93189862D01*
X132489779Y-93189861D01*
X132217381Y-93154000D01*
X132217379Y-93154000D01*
X131942621Y-93154000D01*
X131942618Y-93154000D01*
X131670220Y-93189861D01*
X131670213Y-93189863D01*
X131404817Y-93260976D01*
X131344170Y-93286097D01*
X131150972Y-93366122D01*
X131150962Y-93366127D01*
X130913029Y-93503498D01*
X130913022Y-93503503D01*
X130695051Y-93670758D01*
X130695030Y-93670777D01*
X130500777Y-93865030D01*
X130500758Y-93865051D01*
X130333503Y-94083022D01*
X130333498Y-94083029D01*
X130196127Y-94320962D01*
X130196122Y-94320972D01*
X130196121Y-94320974D01*
X130090976Y-94574817D01*
X130090975Y-94574821D01*
X130019861Y-94840220D01*
X129984000Y-95112618D01*
X128397500Y-95112618D01*
X128397500Y-91693500D01*
X128417502Y-91625379D01*
X128471158Y-91578886D01*
X128523500Y-91567500D01*
X133350500Y-91567500D01*
X133418621Y-91587502D01*
G37*
G04 #@! TD.AperFunction*
M02*
