M48
; DRILL file {KiCad 8.0.6} date 2025-01-27T09:36:02-0500
; FORMAT={-:-/ absolute / metric / decimal}
; #@! TF.CreationDate,2025-01-27T09:36:02-05:00
; #@! TF.GenerationSoftware,Kicad,Pcbnew,8.0.6
; #@! TF.FileFunction,MixedPlating,1,4
FMAT,2
METRIC
; #@! TA.AperFunction,Plated,PTH,ComponentDrill
T1C0.610
; #@! TA.AperFunction,Plated,PTH,ComponentDrill
T2C0.762
; #@! TA.AperFunction,Plated,PTH,ComponentDrill
T3C0.900
; #@! TA.AperFunction,Plated,PTH,ComponentDrill
T4C2.000
; #@! TA.AperFunction,NonPlated,NPTH,ComponentDrill
T5C3.175
%
G90
G05
T1
X129.54Y-101.6
X134.62Y-99.06
X134.62Y-101.6
X134.62Y-104.14
T2
X136.144Y-98.044
X136.144Y-105.156
X137.668Y-98.044
X137.668Y-105.156
X139.192Y-93.472
X139.192Y-94.996
X139.192Y-99.06
X139.192Y-100.584
X139.192Y-102.616
X139.192Y-104.14
X139.192Y-108.204
X139.192Y-109.728
T3
X141.71Y-97.15
X141.71Y-99.69
X141.71Y-102.23
X141.71Y-104.77
X144.25Y-98.42
X144.25Y-100.96
X144.25Y-103.5
X144.25Y-106.04
X148.25Y-95.07
X148.25Y-97.61
X148.25Y-105.59
X148.25Y-108.13
T4
X152.25Y-96.6
X152.25Y-106.6
T5
X132.08Y-95.25
X132.08Y-107.95
M30
