G04 #@! TF.FileFunction,Copper,L1,Top,Signal*
%FSLAX46Y46*%
G04 Gerber Fmt 4.6, Leading zero omitted, Abs format (unit mm)*
G04 Created by KiCad (PCBNEW 4.0.7) date Wed May 30 19:33:10 2018*
%MOMM*%
%LPD*%
G01*
G04 APERTURE LIST*
%ADD10C,0.100000*%
%ADD11C,1.270000*%
%ADD12C,1.651000*%
%ADD13C,4.000000*%
%ADD14C,1.143000*%
%ADD15C,0.254000*%
G04 APERTURE END LIST*
D10*
D11*
X134620000Y-104140000D03*
X134620000Y-99060000D03*
X134620000Y-101600000D03*
D12*
X144250000Y-106040000D03*
X141710000Y-104770000D03*
X144250000Y-103500000D03*
X141710000Y-102230000D03*
X144250000Y-100960000D03*
X141710000Y-99690000D03*
X144250000Y-98420000D03*
X141710000Y-97150000D03*
D13*
X152250000Y-106600000D03*
X152250000Y-96600000D03*
D12*
X148250000Y-108130000D03*
X148250000Y-105590000D03*
X148250000Y-97610000D03*
X148250000Y-95070000D03*
D14*
X129540000Y-101600000D03*
D11*
X136144000Y-98044000D03*
X137668000Y-98044000D03*
X139192000Y-99060000D03*
X139192000Y-100584000D03*
X139192000Y-102616000D03*
X139192000Y-104140000D03*
X137668000Y-105156000D03*
X136144000Y-105156000D03*
X139192000Y-109728000D03*
X139192000Y-108204000D03*
X139192000Y-94996000D03*
X139192000Y-93472000D03*
D15*
X136144000Y-105156000D02*
X137287000Y-106299000D01*
X137287000Y-106299000D02*
X139827000Y-106299000D01*
X139827000Y-106299000D02*
X140086000Y-106040000D01*
X140086000Y-106040000D02*
X144250000Y-106040000D01*
X138303000Y-105791000D02*
X139573000Y-105791000D01*
X141710000Y-104770000D02*
X140594000Y-104770000D01*
X140594000Y-104770000D02*
X139573000Y-105791000D01*
X137668000Y-105156000D02*
X138303000Y-105791000D01*
X139192000Y-100584000D02*
X139997580Y-100584000D01*
X139997580Y-100584000D02*
X140886580Y-101473000D01*
X140886580Y-101473000D02*
X140953000Y-101473000D01*
X140953000Y-101473000D02*
X141710000Y-102230000D01*
X144250000Y-100960000D02*
X141092000Y-100960000D01*
X141092000Y-100960000D02*
X139192000Y-99060000D01*
X137668000Y-98044000D02*
X138303000Y-97409000D01*
X138303000Y-97409000D02*
X139700000Y-97409000D01*
X139700000Y-97409000D02*
X140711000Y-98420000D01*
X140948000Y-98420000D02*
X144250000Y-98420000D01*
X140711000Y-98420000D02*
X140948000Y-98420000D01*
X136144000Y-98044000D02*
X137287000Y-96901000D01*
X137287000Y-96901000D02*
X139954000Y-96901000D01*
X139954000Y-96901000D02*
X140208000Y-97155000D01*
X140208000Y-97155000D02*
X141705000Y-97155000D01*
X141705000Y-97155000D02*
X141710000Y-97150000D01*
X148250000Y-108130000D02*
X145489000Y-108130000D01*
X145489000Y-108130000D02*
X144399000Y-109220000D01*
X144399000Y-109220000D02*
X139700000Y-109220000D01*
X139700000Y-109220000D02*
X139192000Y-109728000D01*
X148250000Y-105590000D02*
X147267000Y-105590000D01*
X147267000Y-105590000D02*
X144145000Y-108712000D01*
X144145000Y-108712000D02*
X139700000Y-108712000D01*
X139700000Y-108712000D02*
X139192000Y-108204000D01*
X139192000Y-94996000D02*
X139700000Y-94488000D01*
X139700000Y-94488000D02*
X143764000Y-94488000D01*
X143764000Y-94488000D02*
X146886000Y-97610000D01*
X146886000Y-97610000D02*
X148250000Y-97610000D01*
X148250000Y-95070000D02*
X145108000Y-95070000D01*
X145108000Y-95070000D02*
X144018000Y-93980000D01*
X144018000Y-93980000D02*
X139700000Y-93980000D01*
X139700000Y-93980000D02*
X139192000Y-93472000D01*
M02*
