G04 #@! TF.GenerationSoftware,KiCad,Pcbnew,8.0.6*
G04 #@! TF.CreationDate,2025-01-19T09:44:14-05:00*
G04 #@! TF.ProjectId,rj45brkout,726a3435-6272-46b6-9f75-742e6b696361,v1.0.0*
G04 #@! TF.SameCoordinates,Original*
G04 #@! TF.FileFunction,Copper,L4,Bot*
G04 #@! TF.FilePolarity,Positive*
%FSLAX46Y46*%
G04 Gerber Fmt 4.6, Leading zero omitted, Abs format (unit mm)*
G04 Created by KiCad (PCBNEW 8.0.6) date 2025-01-19 09:44:14*
%MOMM*%
%LPD*%
G01*
G04 APERTURE LIST*
G04 Aperture macros list*
%AMRoundRect*
0 Rectangle with rounded corners*
0 $1 Rounding radius*
0 $2 $3 $4 $5 $6 $7 $8 $9 X,Y pos of 4 corners*
0 Add a 4 corners polygon primitive as box body*
4,1,4,$2,$3,$4,$5,$6,$7,$8,$9,$2,$3,0*
0 Add four circle primitives for the rounded corners*
1,1,$1+$1,$2,$3*
1,1,$1+$1,$4,$5*
1,1,$1+$1,$6,$7*
1,1,$1+$1,$8,$9*
0 Add four rect primitives between the rounded corners*
20,1,$1+$1,$2,$3,$4,$5,0*
20,1,$1+$1,$4,$5,$6,$7,0*
20,1,$1+$1,$6,$7,$8,$9,0*
20,1,$1+$1,$8,$9,$2,$3,0*%
G04 Aperture macros list end*
G04 #@! TA.AperFunction,ComponentPad*
%ADD10RoundRect,0.250000X0.575500X-0.575500X0.575500X0.575500X-0.575500X0.575500X-0.575500X-0.575500X0*%
G04 #@! TD*
G04 #@! TA.AperFunction,ComponentPad*
%ADD11C,1.651000*%
G04 #@! TD*
G04 #@! TA.AperFunction,ComponentPad*
%ADD12C,4.000000*%
G04 #@! TD*
G04 #@! TA.AperFunction,ComponentPad*
%ADD13C,1.016000*%
G04 #@! TD*
G04 #@! TA.AperFunction,ComponentPad*
%ADD14C,1.270000*%
G04 #@! TD*
G04 #@! TA.AperFunction,Conductor*
%ADD15C,0.254000*%
G04 #@! TD*
G04 APERTURE END LIST*
D10*
X144250000Y-106040000D03*
D11*
X141710000Y-104770000D03*
X144250000Y-103500000D03*
X141710000Y-102230000D03*
X144250000Y-100960000D03*
X141710000Y-99690000D03*
X144250000Y-98420000D03*
X141710000Y-97150000D03*
X148250000Y-95070000D03*
X148250000Y-97610000D03*
X148250000Y-105590000D03*
X148250000Y-108130000D03*
D12*
X152250000Y-106600000D03*
X152250000Y-96600000D03*
D13*
X129540000Y-101600000D03*
X134620000Y-101600000D03*
X134620000Y-99060000D03*
X134620000Y-104140000D03*
D14*
X136144000Y-98044000D03*
X137668000Y-98044000D03*
X139192000Y-99060000D03*
X139192000Y-100584000D03*
X139192000Y-102616000D03*
X139192000Y-104140000D03*
X137668000Y-105156000D03*
X136144000Y-105156000D03*
X139192000Y-109728000D03*
X139192000Y-108204000D03*
X139192000Y-94996000D03*
X139192000Y-93472000D03*
D15*
X139832000Y-103500000D02*
X139827000Y-103505000D01*
X144250000Y-103500000D02*
X139832000Y-103500000D01*
X139827000Y-103505000D02*
X139192000Y-104140000D01*
X140462000Y-101346000D02*
X139192000Y-102616000D01*
X141710000Y-99690000D02*
X140721000Y-99690000D01*
X140462000Y-99949000D02*
X140462000Y-101346000D01*
X140721000Y-99690000D02*
X140462000Y-99949000D01*
M02*
