M48
; DRILL file {KiCad (5.1.5)} date Sat Dec  7 20:44:47 2019
; FORMAT={3:3/ absolute / metric / keep zeros}
; #@! TF.CreationDate,2019-12-07T20:44:47-05:00
; #@! TF.GenerationSoftware,Kicad,Pcbnew,(5.1.5)
FMAT,2
METRIC
T1C0.635
T2C0.762
T3C0.900
T4C2.000
T5C3.175
%
G90
G05
T1
X129540Y-101600
T2
X134620Y-099060
X139192Y-100584
X139192Y-102616
X139192Y-108204
X134620Y-104140
X139192Y-104140
X139192Y-094996
X137668Y-098044
X139192Y-109728
X137668Y-105156
X139192Y-093472
X136144Y-098044
X139192Y-099060
X134620Y-101600
X136144Y-105156
T3
X141710Y-097150
X141710Y-099690
X141710Y-102230
X141710Y-104770
X144250Y-098420
X144250Y-100960
X144250Y-103500
X144250Y-106040
X148250Y-095070
X148250Y-097610
X148250Y-105590
X148250Y-108130
T4
X152250Y-096600
X152250Y-106600
T5
X132080Y-095250
X132080Y-107950
T0
M30
